<svg xmlns="http://www.w3.org/2000/svg" xmlns:xlink="http://www.w3.org/1999/xlink" width="800" height="200" viewBox="0 0 3200 800">
<defs>
  <clipPath id="clip540">
    <rect x="0" y="0" width="3200" height="800"></rect>
  </clipPath>
</defs>
<path clip-path="url(#clip540)" d="M0 800 L3200 800 L3200 0 L0 0  Z" fill="#ffffff" fill-rule="evenodd" fill-opacity="1"></path>
<defs>
  <clipPath id="clip541">
    <rect x="640" y="0" width="2241" height="800"></rect>
  </clipPath>
</defs>
<path clip-path="url(#clip540)" d="M284.76 716.048 L3152.76 716.048 L3152.76 47.2441 L284.76 47.2441  Z" fill="#ffffff" fill-rule="evenodd" fill-opacity="1"></path>
<defs>
  <clipPath id="clip542">
    <rect x="284" y="47" width="2869" height="670"></rect>
  </clipPath>
</defs>
<polyline clip-path="url(#clip542)" style="stroke:#000000; stroke-linecap:round; stroke-linejoin:round; stroke-width:2; stroke-opacity:0.1; fill:none" points="365.929,716.048 365.929,47.2441 "></polyline>
<polyline clip-path="url(#clip542)" style="stroke:#000000; stroke-linecap:round; stroke-linejoin:round; stroke-width:2; stroke-opacity:0.1; fill:none" points="1211.45,716.048 1211.45,47.2441 "></polyline>
<polyline clip-path="url(#clip542)" style="stroke:#000000; stroke-linecap:round; stroke-linejoin:round; stroke-width:2; stroke-opacity:0.1; fill:none" points="2056.96,716.048 2056.96,47.2441 "></polyline>
<polyline clip-path="url(#clip542)" style="stroke:#000000; stroke-linecap:round; stroke-linejoin:round; stroke-width:2; stroke-opacity:0.1; fill:none" points="2902.48,716.048 2902.48,47.2441 "></polyline>
<polyline clip-path="url(#clip542)" style="stroke:#000000; stroke-linecap:round; stroke-linejoin:round; stroke-width:2; stroke-opacity:0.1; fill:none" points="284.76,703.438 3152.76,703.438 "></polyline>
<polyline clip-path="url(#clip542)" style="stroke:#000000; stroke-linecap:round; stroke-linejoin:round; stroke-width:2; stroke-opacity:0.1; fill:none" points="284.76,604.482 3152.76,604.482 "></polyline>
<polyline clip-path="url(#clip542)" style="stroke:#000000; stroke-linecap:round; stroke-linejoin:round; stroke-width:2; stroke-opacity:0.1; fill:none" points="284.76,505.526 3152.76,505.526 "></polyline>
<polyline clip-path="url(#clip542)" style="stroke:#000000; stroke-linecap:round; stroke-linejoin:round; stroke-width:2; stroke-opacity:0.1; fill:none" points="284.76,406.57 3152.76,406.57 "></polyline>
<polyline clip-path="url(#clip542)" style="stroke:#000000; stroke-linecap:round; stroke-linejoin:round; stroke-width:2; stroke-opacity:0.1; fill:none" points="284.76,307.615 3152.76,307.615 "></polyline>
<polyline clip-path="url(#clip542)" style="stroke:#000000; stroke-linecap:round; stroke-linejoin:round; stroke-width:2; stroke-opacity:0.1; fill:none" points="284.76,208.659 3152.76,208.659 "></polyline>
<polyline clip-path="url(#clip542)" style="stroke:#000000; stroke-linecap:round; stroke-linejoin:round; stroke-width:2; stroke-opacity:0.1; fill:none" points="284.76,109.703 3152.76,109.703 "></polyline>
<polyline clip-path="url(#clip540)" style="stroke:#000000; stroke-linecap:round; stroke-linejoin:round; stroke-width:4; stroke-opacity:1; fill:none" points="284.76,716.048 3152.76,716.048 "></polyline>
<polyline clip-path="url(#clip540)" style="stroke:#000000; stroke-linecap:round; stroke-linejoin:round; stroke-width:4; stroke-opacity:1; fill:none" points="365.929,716.048 365.929,697.15 "></polyline>
<polyline clip-path="url(#clip540)" style="stroke:#000000; stroke-linecap:round; stroke-linejoin:round; stroke-width:4; stroke-opacity:1; fill:none" points="1211.45,716.048 1211.45,697.15 "></polyline>
<polyline clip-path="url(#clip540)" style="stroke:#000000; stroke-linecap:round; stroke-linejoin:round; stroke-width:4; stroke-opacity:1; fill:none" points="2056.96,716.048 2056.96,697.15 "></polyline>
<polyline clip-path="url(#clip540)" style="stroke:#000000; stroke-linecap:round; stroke-linejoin:round; stroke-width:4; stroke-opacity:1; fill:none" points="2902.48,716.048 2902.48,697.15 "></polyline>
<path clip-path="url(#clip540)" d="M356.207 750.288 L374.564 750.288 L374.564 754.223 L360.49 754.223 L360.49 762.695 Q361.508 762.348 362.527 762.186 Q363.545 762.001 364.564 762.001 Q370.351 762.001 373.73 765.172 Q377.11 768.343 377.11 773.76 Q377.11 779.339 373.638 782.44 Q370.165 785.519 363.846 785.519 Q361.67 785.519 359.402 785.149 Q357.156 784.778 354.749 784.038 L354.749 779.339 Q356.832 780.473 359.054 781.028 Q361.277 781.584 363.753 781.584 Q367.758 781.584 370.096 779.478 Q372.434 777.371 372.434 773.76 Q372.434 770.149 370.096 768.042 Q367.758 765.936 363.753 765.936 Q361.878 765.936 360.003 766.353 Q358.152 766.769 356.207 767.649 L356.207 750.288 Z" fill="#000000" fill-rule="nonzero" fill-opacity="1"></path><path clip-path="url(#clip540)" d="M1186.13 780.913 L1193.77 780.913 L1193.77 754.547 L1185.46 756.214 L1185.46 751.955 L1193.73 750.288 L1198.4 750.288 L1198.4 780.913 L1206.04 780.913 L1206.04 784.848 L1186.13 784.848 L1186.13 780.913 Z" fill="#000000" fill-rule="nonzero" fill-opacity="1"></path><path clip-path="url(#clip540)" d="M1225.49 753.367 Q1221.88 753.367 1220.05 756.931 Q1218.24 760.473 1218.24 767.603 Q1218.24 774.709 1220.05 778.274 Q1221.88 781.815 1225.49 781.815 Q1229.12 781.815 1230.93 778.274 Q1232.75 774.709 1232.75 767.603 Q1232.75 760.473 1230.93 756.931 Q1229.12 753.367 1225.49 753.367 M1225.49 749.663 Q1231.3 749.663 1234.35 754.269 Q1237.43 758.853 1237.43 767.603 Q1237.43 776.329 1234.35 780.936 Q1231.3 785.519 1225.49 785.519 Q1219.68 785.519 1216.6 780.936 Q1213.54 776.329 1213.54 767.603 Q1213.54 758.853 1216.6 754.269 Q1219.68 749.663 1225.49 749.663 Z" fill="#000000" fill-rule="nonzero" fill-opacity="1"></path><path clip-path="url(#clip540)" d="M2032.15 780.913 L2039.79 780.913 L2039.79 754.547 L2031.48 756.214 L2031.48 751.955 L2039.74 750.288 L2044.42 750.288 L2044.42 780.913 L2052.06 780.913 L2052.06 784.848 L2032.15 784.848 L2032.15 780.913 Z" fill="#000000" fill-rule="nonzero" fill-opacity="1"></path><path clip-path="url(#clip540)" d="M2061.55 750.288 L2079.9 750.288 L2079.9 754.223 L2065.83 754.223 L2065.83 762.695 Q2066.85 762.348 2067.87 762.186 Q2068.89 762.001 2069.9 762.001 Q2075.69 762.001 2079.07 765.172 Q2082.45 768.343 2082.45 773.76 Q2082.45 779.339 2078.98 782.44 Q2075.51 785.519 2069.19 785.519 Q2067.01 785.519 2064.74 785.149 Q2062.5 784.778 2060.09 784.038 L2060.09 779.339 Q2062.17 780.473 2064.4 781.028 Q2066.62 781.584 2069.09 781.584 Q2073.1 781.584 2075.44 779.478 Q2077.77 777.371 2077.77 773.76 Q2077.77 770.149 2075.44 768.042 Q2073.1 765.936 2069.09 765.936 Q2067.22 765.936 2065.34 766.353 Q2063.49 766.769 2061.55 767.649 L2061.55 750.288 Z" fill="#000000" fill-rule="nonzero" fill-opacity="1"></path><path clip-path="url(#clip540)" d="M2881.26 780.913 L2897.58 780.913 L2897.58 784.848 L2875.63 784.848 L2875.63 780.913 Q2878.29 778.158 2882.88 773.528 Q2887.48 768.876 2888.66 767.533 Q2890.91 765.01 2891.79 763.274 Q2892.69 761.515 2892.69 759.825 Q2892.69 757.07 2890.75 755.334 Q2888.83 753.598 2885.72 753.598 Q2883.52 753.598 2881.07 754.362 Q2878.64 755.126 2875.86 756.677 L2875.86 751.955 Q2878.69 750.82 2881.14 750.242 Q2883.59 749.663 2885.63 749.663 Q2891 749.663 2894.2 752.348 Q2897.39 755.033 2897.39 759.524 Q2897.39 761.654 2896.58 763.575 Q2895.79 765.473 2893.69 768.066 Q2893.11 768.737 2890.01 771.954 Q2886.9 775.149 2881.26 780.913 Z" fill="#000000" fill-rule="nonzero" fill-opacity="1"></path><path clip-path="url(#clip540)" d="M2917.39 753.367 Q2913.78 753.367 2911.95 756.931 Q2910.14 760.473 2910.14 767.603 Q2910.14 774.709 2911.95 778.274 Q2913.78 781.815 2917.39 781.815 Q2921.02 781.815 2922.83 778.274 Q2924.66 774.709 2924.66 767.603 Q2924.66 760.473 2922.83 756.931 Q2921.02 753.367 2917.39 753.367 M2917.39 749.663 Q2923.2 749.663 2926.26 754.269 Q2929.33 758.853 2929.33 767.603 Q2929.33 776.329 2926.26 780.936 Q2923.2 785.519 2917.39 785.519 Q2911.58 785.519 2908.5 780.936 Q2905.45 776.329 2905.45 767.603 Q2905.45 758.853 2908.5 754.269 Q2911.58 749.663 2917.39 749.663 Z" fill="#000000" fill-rule="nonzero" fill-opacity="1"></path><polyline clip-path="url(#clip540)" style="stroke:#000000; stroke-linecap:round; stroke-linejoin:round; stroke-width:4; stroke-opacity:1; fill:none" points="284.76,716.048 284.76,47.2441 "></polyline>
<polyline clip-path="url(#clip540)" style="stroke:#000000; stroke-linecap:round; stroke-linejoin:round; stroke-width:4; stroke-opacity:1; fill:none" points="284.76,703.438 303.657,703.438 "></polyline>
<polyline clip-path="url(#clip540)" style="stroke:#000000; stroke-linecap:round; stroke-linejoin:round; stroke-width:4; stroke-opacity:1; fill:none" points="284.76,604.482 303.657,604.482 "></polyline>
<polyline clip-path="url(#clip540)" style="stroke:#000000; stroke-linecap:round; stroke-linejoin:round; stroke-width:4; stroke-opacity:1; fill:none" points="284.76,505.526 303.657,505.526 "></polyline>
<polyline clip-path="url(#clip540)" style="stroke:#000000; stroke-linecap:round; stroke-linejoin:round; stroke-width:4; stroke-opacity:1; fill:none" points="284.76,406.57 303.657,406.57 "></polyline>
<polyline clip-path="url(#clip540)" style="stroke:#000000; stroke-linecap:round; stroke-linejoin:round; stroke-width:4; stroke-opacity:1; fill:none" points="284.76,307.615 303.657,307.615 "></polyline>
<polyline clip-path="url(#clip540)" style="stroke:#000000; stroke-linecap:round; stroke-linejoin:round; stroke-width:4; stroke-opacity:1; fill:none" points="284.76,208.659 303.657,208.659 "></polyline>
<polyline clip-path="url(#clip540)" style="stroke:#000000; stroke-linecap:round; stroke-linejoin:round; stroke-width:4; stroke-opacity:1; fill:none" points="284.76,109.703 303.657,109.703 "></polyline>
<path clip-path="url(#clip540)" d="M58.9365 689.236 Q55.3254 689.236 53.4967 692.801 Q51.6912 696.343 51.6912 703.472 Q51.6912 710.579 53.4967 714.144 Q55.3254 717.685 58.9365 717.685 Q62.5707 717.685 64.3763 714.144 Q66.205 710.579 66.205 703.472 Q66.205 696.343 64.3763 692.801 Q62.5707 689.236 58.9365 689.236 M58.9365 685.533 Q64.7467 685.533 67.8022 690.139 Q70.8809 694.723 70.8809 703.472 Q70.8809 712.199 67.8022 716.806 Q64.7467 721.389 58.9365 721.389 Q53.1264 721.389 50.0477 716.806 Q46.9921 712.199 46.9921 703.472 Q46.9921 694.723 50.0477 690.139 Q53.1264 685.533 58.9365 685.533 Z" fill="#000000" fill-rule="nonzero" fill-opacity="1"></path><path clip-path="url(#clip540)" d="M79.0984 714.838 L83.9827 714.838 L83.9827 720.718 L79.0984 720.718 L79.0984 714.838 Z" fill="#000000" fill-rule="nonzero" fill-opacity="1"></path><path clip-path="url(#clip540)" d="M104.168 689.236 Q100.557 689.236 98.728 692.801 Q96.9224 696.343 96.9224 703.472 Q96.9224 710.579 98.728 714.144 Q100.557 717.685 104.168 717.685 Q107.802 717.685 109.608 714.144 Q111.436 710.579 111.436 703.472 Q111.436 696.343 109.608 692.801 Q107.802 689.236 104.168 689.236 M104.168 685.533 Q109.978 685.533 113.033 690.139 Q116.112 694.723 116.112 703.472 Q116.112 712.199 113.033 716.806 Q109.978 721.389 104.168 721.389 Q98.3576 721.389 95.2789 716.806 Q92.2234 712.199 92.2234 703.472 Q92.2234 694.723 95.2789 690.139 Q98.3576 685.533 104.168 685.533 Z" fill="#000000" fill-rule="nonzero" fill-opacity="1"></path><path clip-path="url(#clip540)" d="M134.33 689.236 Q130.719 689.236 128.89 692.801 Q127.084 696.343 127.084 703.472 Q127.084 710.579 128.89 714.144 Q130.719 717.685 134.33 717.685 Q137.964 717.685 139.769 714.144 Q141.598 710.579 141.598 703.472 Q141.598 696.343 139.769 692.801 Q137.964 689.236 134.33 689.236 M134.33 685.533 Q140.14 685.533 143.195 690.139 Q146.274 694.723 146.274 703.472 Q146.274 712.199 143.195 716.806 Q140.14 721.389 134.33 721.389 Q128.519 721.389 125.441 716.806 Q122.385 712.199 122.385 703.472 Q122.385 694.723 125.441 690.139 Q128.519 685.533 134.33 685.533 Z" fill="#000000" fill-rule="nonzero" fill-opacity="1"></path><path clip-path="url(#clip540)" d="M164.491 689.236 Q160.88 689.236 159.052 692.801 Q157.246 696.343 157.246 703.472 Q157.246 710.579 159.052 714.144 Q160.88 717.685 164.491 717.685 Q168.126 717.685 169.931 714.144 Q171.76 710.579 171.76 703.472 Q171.76 696.343 169.931 692.801 Q168.126 689.236 164.491 689.236 M164.491 685.533 Q170.302 685.533 173.357 690.139 Q176.436 694.723 176.436 703.472 Q176.436 712.199 173.357 716.806 Q170.302 721.389 164.491 721.389 Q158.681 721.389 155.603 716.806 Q152.547 712.199 152.547 703.472 Q152.547 694.723 155.603 690.139 Q158.681 685.533 164.491 685.533 Z" fill="#000000" fill-rule="nonzero" fill-opacity="1"></path><path clip-path="url(#clip540)" d="M198.82 702.084 Q202.176 702.801 204.051 705.07 Q205.95 707.338 205.95 710.671 Q205.95 715.787 202.431 718.588 Q198.913 721.389 192.431 721.389 Q190.255 721.389 187.94 720.949 Q185.649 720.533 183.195 719.676 L183.195 715.162 Q185.14 716.296 187.454 716.875 Q189.769 717.454 192.292 717.454 Q196.69 717.454 198.982 715.718 Q201.297 713.982 201.297 710.671 Q201.297 707.616 199.144 705.903 Q197.014 704.167 193.195 704.167 L189.167 704.167 L189.167 700.324 L193.38 700.324 Q196.829 700.324 198.658 698.959 Q200.487 697.57 200.487 694.977 Q200.487 692.315 198.589 690.903 Q196.714 689.468 193.195 689.468 Q191.274 689.468 189.075 689.885 Q186.876 690.301 184.237 691.181 L184.237 687.014 Q186.899 686.273 189.214 685.903 Q191.552 685.533 193.612 685.533 Q198.936 685.533 202.038 687.963 Q205.139 690.371 205.139 694.491 Q205.139 697.361 203.496 699.352 Q201.852 701.32 198.82 702.084 Z" fill="#000000" fill-rule="nonzero" fill-opacity="1"></path><path clip-path="url(#clip540)" d="M224.815 689.236 Q221.204 689.236 219.375 692.801 Q217.57 696.343 217.57 703.472 Q217.57 710.579 219.375 714.144 Q221.204 717.685 224.815 717.685 Q228.449 717.685 230.255 714.144 Q232.084 710.579 232.084 703.472 Q232.084 696.343 230.255 692.801 Q228.449 689.236 224.815 689.236 M224.815 685.533 Q230.625 685.533 233.681 690.139 Q236.76 694.723 236.76 703.472 Q236.76 712.199 233.681 716.806 Q230.625 721.389 224.815 721.389 Q219.005 721.389 215.926 716.806 Q212.871 712.199 212.871 703.472 Q212.871 694.723 215.926 690.139 Q219.005 685.533 224.815 685.533 Z" fill="#000000" fill-rule="nonzero" fill-opacity="1"></path><path clip-path="url(#clip540)" d="M59.9319 590.281 Q56.3208 590.281 54.4921 593.845 Q52.6865 597.387 52.6865 604.517 Q52.6865 611.623 54.4921 615.188 Q56.3208 618.73 59.9319 618.73 Q63.5661 618.73 65.3717 615.188 Q67.2004 611.623 67.2004 604.517 Q67.2004 597.387 65.3717 593.845 Q63.5661 590.281 59.9319 590.281 M59.9319 586.577 Q65.742 586.577 68.7976 591.183 Q71.8763 595.767 71.8763 604.517 Q71.8763 613.243 68.7976 617.85 Q65.742 622.433 59.9319 622.433 Q54.1217 622.433 51.043 617.85 Q47.9875 613.243 47.9875 604.517 Q47.9875 595.767 51.043 591.183 Q54.1217 586.577 59.9319 586.577 Z" fill="#000000" fill-rule="nonzero" fill-opacity="1"></path><path clip-path="url(#clip540)" d="M80.0938 615.882 L84.978 615.882 L84.978 621.762 L80.0938 621.762 L80.0938 615.882 Z" fill="#000000" fill-rule="nonzero" fill-opacity="1"></path><path clip-path="url(#clip540)" d="M105.163 590.281 Q101.552 590.281 99.7233 593.845 Q97.9178 597.387 97.9178 604.517 Q97.9178 611.623 99.7233 615.188 Q101.552 618.73 105.163 618.73 Q108.797 618.73 110.603 615.188 Q112.432 611.623 112.432 604.517 Q112.432 597.387 110.603 593.845 Q108.797 590.281 105.163 590.281 M105.163 586.577 Q110.973 586.577 114.029 591.183 Q117.107 595.767 117.107 604.517 Q117.107 613.243 114.029 617.85 Q110.973 622.433 105.163 622.433 Q99.353 622.433 96.2743 617.85 Q93.2187 613.243 93.2187 604.517 Q93.2187 595.767 96.2743 591.183 Q99.353 586.577 105.163 586.577 Z" fill="#000000" fill-rule="nonzero" fill-opacity="1"></path><path clip-path="url(#clip540)" d="M135.325 590.281 Q131.714 590.281 129.885 593.845 Q128.08 597.387 128.08 604.517 Q128.08 611.623 129.885 615.188 Q131.714 618.73 135.325 618.73 Q138.959 618.73 140.765 615.188 Q142.593 611.623 142.593 604.517 Q142.593 597.387 140.765 593.845 Q138.959 590.281 135.325 590.281 M135.325 586.577 Q141.135 586.577 144.191 591.183 Q147.269 595.767 147.269 604.517 Q147.269 613.243 144.191 617.85 Q141.135 622.433 135.325 622.433 Q129.515 622.433 126.436 617.85 Q123.381 613.243 123.381 604.517 Q123.381 595.767 126.436 591.183 Q129.515 586.577 135.325 586.577 Z" fill="#000000" fill-rule="nonzero" fill-opacity="1"></path><path clip-path="url(#clip540)" d="M165.487 590.281 Q161.876 590.281 160.047 593.845 Q158.242 597.387 158.242 604.517 Q158.242 611.623 160.047 615.188 Q161.876 618.73 165.487 618.73 Q169.121 618.73 170.927 615.188 Q172.755 611.623 172.755 604.517 Q172.755 597.387 170.927 593.845 Q169.121 590.281 165.487 590.281 M165.487 586.577 Q171.297 586.577 174.353 591.183 Q177.431 595.767 177.431 604.517 Q177.431 613.243 174.353 617.85 Q171.297 622.433 165.487 622.433 Q159.677 622.433 156.598 617.85 Q153.542 613.243 153.542 604.517 Q153.542 595.767 156.598 591.183 Q159.677 586.577 165.487 586.577 Z" fill="#000000" fill-rule="nonzero" fill-opacity="1"></path><path clip-path="url(#clip540)" d="M199.815 603.128 Q203.172 603.845 205.047 606.114 Q206.945 608.382 206.945 611.716 Q206.945 616.831 203.426 619.632 Q199.908 622.433 193.427 622.433 Q191.251 622.433 188.936 621.993 Q186.644 621.577 184.19 620.72 L184.19 616.206 Q186.135 617.341 188.45 617.919 Q190.765 618.498 193.288 618.498 Q197.686 618.498 199.977 616.762 Q202.292 615.026 202.292 611.716 Q202.292 608.66 200.139 606.947 Q198.01 605.211 194.19 605.211 L190.163 605.211 L190.163 601.369 L194.376 601.369 Q197.825 601.369 199.653 600.003 Q201.482 598.614 201.482 596.021 Q201.482 593.359 199.584 591.947 Q197.709 590.512 194.19 590.512 Q192.269 590.512 190.07 590.929 Q187.871 591.345 185.232 592.225 L185.232 588.058 Q187.894 587.318 190.209 586.947 Q192.547 586.577 194.607 586.577 Q199.931 586.577 203.033 589.007 Q206.135 591.415 206.135 595.535 Q206.135 598.406 204.491 600.396 Q202.848 602.364 199.815 603.128 Z" fill="#000000" fill-rule="nonzero" fill-opacity="1"></path><path clip-path="url(#clip540)" d="M215.857 587.202 L234.213 587.202 L234.213 591.137 L220.139 591.137 L220.139 599.609 Q221.158 599.262 222.176 599.1 Q223.195 598.915 224.213 598.915 Q230 598.915 233.38 602.086 Q236.76 605.257 236.76 610.674 Q236.76 616.253 233.287 619.355 Q229.815 622.433 223.496 622.433 Q221.32 622.433 219.051 622.063 Q216.806 621.692 214.399 620.952 L214.399 616.253 Q216.482 617.387 218.704 617.943 Q220.926 618.498 223.403 618.498 Q227.408 618.498 229.746 616.392 Q232.084 614.285 232.084 610.674 Q232.084 607.063 229.746 604.956 Q227.408 602.85 223.403 602.85 Q221.528 602.85 219.653 603.267 Q217.801 603.683 215.857 604.563 L215.857 587.202 Z" fill="#000000" fill-rule="nonzero" fill-opacity="1"></path><path clip-path="url(#clip540)" d="M58.9365 491.325 Q55.3254 491.325 53.4967 494.89 Q51.6912 498.431 51.6912 505.561 Q51.6912 512.667 53.4967 516.232 Q55.3254 519.774 58.9365 519.774 Q62.5707 519.774 64.3763 516.232 Q66.205 512.667 66.205 505.561 Q66.205 498.431 64.3763 494.89 Q62.5707 491.325 58.9365 491.325 M58.9365 487.621 Q64.7467 487.621 67.8022 492.228 Q70.8809 496.811 70.8809 505.561 Q70.8809 514.288 67.8022 518.894 Q64.7467 523.477 58.9365 523.477 Q53.1264 523.477 50.0477 518.894 Q46.9921 514.288 46.9921 505.561 Q46.9921 496.811 50.0477 492.228 Q53.1264 487.621 58.9365 487.621 Z" fill="#000000" fill-rule="nonzero" fill-opacity="1"></path><path clip-path="url(#clip540)" d="M79.0984 516.927 L83.9827 516.927 L83.9827 522.806 L79.0984 522.806 L79.0984 516.927 Z" fill="#000000" fill-rule="nonzero" fill-opacity="1"></path><path clip-path="url(#clip540)" d="M104.168 491.325 Q100.557 491.325 98.728 494.89 Q96.9224 498.431 96.9224 505.561 Q96.9224 512.667 98.728 516.232 Q100.557 519.774 104.168 519.774 Q107.802 519.774 109.608 516.232 Q111.436 512.667 111.436 505.561 Q111.436 498.431 109.608 494.89 Q107.802 491.325 104.168 491.325 M104.168 487.621 Q109.978 487.621 113.033 492.228 Q116.112 496.811 116.112 505.561 Q116.112 514.288 113.033 518.894 Q109.978 523.477 104.168 523.477 Q98.3576 523.477 95.2789 518.894 Q92.2234 514.288 92.2234 505.561 Q92.2234 496.811 95.2789 492.228 Q98.3576 487.621 104.168 487.621 Z" fill="#000000" fill-rule="nonzero" fill-opacity="1"></path><path clip-path="url(#clip540)" d="M134.33 491.325 Q130.719 491.325 128.89 494.89 Q127.084 498.431 127.084 505.561 Q127.084 512.667 128.89 516.232 Q130.719 519.774 134.33 519.774 Q137.964 519.774 139.769 516.232 Q141.598 512.667 141.598 505.561 Q141.598 498.431 139.769 494.89 Q137.964 491.325 134.33 491.325 M134.33 487.621 Q140.14 487.621 143.195 492.228 Q146.274 496.811 146.274 505.561 Q146.274 514.288 143.195 518.894 Q140.14 523.477 134.33 523.477 Q128.519 523.477 125.441 518.894 Q122.385 514.288 122.385 505.561 Q122.385 496.811 125.441 492.228 Q128.519 487.621 134.33 487.621 Z" fill="#000000" fill-rule="nonzero" fill-opacity="1"></path><path clip-path="url(#clip540)" d="M164.491 491.325 Q160.88 491.325 159.052 494.89 Q157.246 498.431 157.246 505.561 Q157.246 512.667 159.052 516.232 Q160.88 519.774 164.491 519.774 Q168.126 519.774 169.931 516.232 Q171.76 512.667 171.76 505.561 Q171.76 498.431 169.931 494.89 Q168.126 491.325 164.491 491.325 M164.491 487.621 Q170.302 487.621 173.357 492.228 Q176.436 496.811 176.436 505.561 Q176.436 514.288 173.357 518.894 Q170.302 523.477 164.491 523.477 Q158.681 523.477 155.603 518.894 Q152.547 514.288 152.547 505.561 Q152.547 496.811 155.603 492.228 Q158.681 487.621 164.491 487.621 Z" fill="#000000" fill-rule="nonzero" fill-opacity="1"></path><path clip-path="url(#clip540)" d="M197.501 492.32 L185.695 510.769 L197.501 510.769 L197.501 492.32 M196.274 488.246 L202.153 488.246 L202.153 510.769 L207.084 510.769 L207.084 514.658 L202.153 514.658 L202.153 522.806 L197.501 522.806 L197.501 514.658 L181.899 514.658 L181.899 510.144 L196.274 488.246 Z" fill="#000000" fill-rule="nonzero" fill-opacity="1"></path><path clip-path="url(#clip540)" d="M224.815 491.325 Q221.204 491.325 219.375 494.89 Q217.57 498.431 217.57 505.561 Q217.57 512.667 219.375 516.232 Q221.204 519.774 224.815 519.774 Q228.449 519.774 230.255 516.232 Q232.084 512.667 232.084 505.561 Q232.084 498.431 230.255 494.89 Q228.449 491.325 224.815 491.325 M224.815 487.621 Q230.625 487.621 233.681 492.228 Q236.76 496.811 236.76 505.561 Q236.76 514.288 233.681 518.894 Q230.625 523.477 224.815 523.477 Q219.005 523.477 215.926 518.894 Q212.871 514.288 212.871 505.561 Q212.871 496.811 215.926 492.228 Q219.005 487.621 224.815 487.621 Z" fill="#000000" fill-rule="nonzero" fill-opacity="1"></path><path clip-path="url(#clip540)" d="M59.9319 392.369 Q56.3208 392.369 54.4921 395.934 Q52.6865 399.475 52.6865 406.605 Q52.6865 413.712 54.4921 417.276 Q56.3208 420.818 59.9319 420.818 Q63.5661 420.818 65.3717 417.276 Q67.2004 413.712 67.2004 406.605 Q67.2004 399.475 65.3717 395.934 Q63.5661 392.369 59.9319 392.369 M59.9319 388.665 Q65.742 388.665 68.7976 393.272 Q71.8763 397.855 71.8763 406.605 Q71.8763 415.332 68.7976 419.938 Q65.742 424.522 59.9319 424.522 Q54.1217 424.522 51.043 419.938 Q47.9875 415.332 47.9875 406.605 Q47.9875 397.855 51.043 393.272 Q54.1217 388.665 59.9319 388.665 Z" fill="#000000" fill-rule="nonzero" fill-opacity="1"></path><path clip-path="url(#clip540)" d="M80.0938 417.971 L84.978 417.971 L84.978 423.85 L80.0938 423.85 L80.0938 417.971 Z" fill="#000000" fill-rule="nonzero" fill-opacity="1"></path><path clip-path="url(#clip540)" d="M105.163 392.369 Q101.552 392.369 99.7233 395.934 Q97.9178 399.475 97.9178 406.605 Q97.9178 413.712 99.7233 417.276 Q101.552 420.818 105.163 420.818 Q108.797 420.818 110.603 417.276 Q112.432 413.712 112.432 406.605 Q112.432 399.475 110.603 395.934 Q108.797 392.369 105.163 392.369 M105.163 388.665 Q110.973 388.665 114.029 393.272 Q117.107 397.855 117.107 406.605 Q117.107 415.332 114.029 419.938 Q110.973 424.522 105.163 424.522 Q99.353 424.522 96.2743 419.938 Q93.2187 415.332 93.2187 406.605 Q93.2187 397.855 96.2743 393.272 Q99.353 388.665 105.163 388.665 Z" fill="#000000" fill-rule="nonzero" fill-opacity="1"></path><path clip-path="url(#clip540)" d="M135.325 392.369 Q131.714 392.369 129.885 395.934 Q128.08 399.475 128.08 406.605 Q128.08 413.712 129.885 417.276 Q131.714 420.818 135.325 420.818 Q138.959 420.818 140.765 417.276 Q142.593 413.712 142.593 406.605 Q142.593 399.475 140.765 395.934 Q138.959 392.369 135.325 392.369 M135.325 388.665 Q141.135 388.665 144.191 393.272 Q147.269 397.855 147.269 406.605 Q147.269 415.332 144.191 419.938 Q141.135 424.522 135.325 424.522 Q129.515 424.522 126.436 419.938 Q123.381 415.332 123.381 406.605 Q123.381 397.855 126.436 393.272 Q129.515 388.665 135.325 388.665 Z" fill="#000000" fill-rule="nonzero" fill-opacity="1"></path><path clip-path="url(#clip540)" d="M165.487 392.369 Q161.876 392.369 160.047 395.934 Q158.242 399.475 158.242 406.605 Q158.242 413.712 160.047 417.276 Q161.876 420.818 165.487 420.818 Q169.121 420.818 170.927 417.276 Q172.755 413.712 172.755 406.605 Q172.755 399.475 170.927 395.934 Q169.121 392.369 165.487 392.369 M165.487 388.665 Q171.297 388.665 174.353 393.272 Q177.431 397.855 177.431 406.605 Q177.431 415.332 174.353 419.938 Q171.297 424.522 165.487 424.522 Q159.677 424.522 156.598 419.938 Q153.542 415.332 153.542 406.605 Q153.542 397.855 156.598 393.272 Q159.677 388.665 165.487 388.665 Z" fill="#000000" fill-rule="nonzero" fill-opacity="1"></path><path clip-path="url(#clip540)" d="M198.496 393.364 L186.69 411.813 L198.496 411.813 L198.496 393.364 M197.269 389.29 L203.149 389.29 L203.149 411.813 L208.079 411.813 L208.079 415.702 L203.149 415.702 L203.149 423.85 L198.496 423.85 L198.496 415.702 L182.894 415.702 L182.894 411.188 L197.269 389.29 Z" fill="#000000" fill-rule="nonzero" fill-opacity="1"></path><path clip-path="url(#clip540)" d="M215.857 389.29 L234.213 389.29 L234.213 393.226 L220.139 393.226 L220.139 401.698 Q221.158 401.35 222.176 401.188 Q223.195 401.003 224.213 401.003 Q230 401.003 233.38 404.175 Q236.76 407.346 236.76 412.762 Q236.76 418.341 233.287 421.443 Q229.815 424.522 223.496 424.522 Q221.32 424.522 219.051 424.151 Q216.806 423.781 214.399 423.04 L214.399 418.341 Q216.482 419.475 218.704 420.031 Q220.926 420.586 223.403 420.586 Q227.408 420.586 229.746 418.48 Q232.084 416.374 232.084 412.762 Q232.084 409.151 229.746 407.045 Q227.408 404.938 223.403 404.938 Q221.528 404.938 219.653 405.355 Q217.801 405.772 215.857 406.651 L215.857 389.29 Z" fill="#000000" fill-rule="nonzero" fill-opacity="1"></path><path clip-path="url(#clip540)" d="M58.9365 293.413 Q55.3254 293.413 53.4967 296.978 Q51.6912 300.52 51.6912 307.649 Q51.6912 314.756 53.4967 318.32 Q55.3254 321.862 58.9365 321.862 Q62.5707 321.862 64.3763 318.32 Q66.205 314.756 66.205 307.649 Q66.205 300.52 64.3763 296.978 Q62.5707 293.413 58.9365 293.413 M58.9365 289.71 Q64.7467 289.71 67.8022 294.316 Q70.8809 298.899 70.8809 307.649 Q70.8809 316.376 67.8022 320.983 Q64.7467 325.566 58.9365 325.566 Q53.1264 325.566 50.0477 320.983 Q46.9921 316.376 46.9921 307.649 Q46.9921 298.899 50.0477 294.316 Q53.1264 289.71 58.9365 289.71 Z" fill="#000000" fill-rule="nonzero" fill-opacity="1"></path><path clip-path="url(#clip540)" d="M79.0984 319.015 L83.9827 319.015 L83.9827 324.895 L79.0984 324.895 L79.0984 319.015 Z" fill="#000000" fill-rule="nonzero" fill-opacity="1"></path><path clip-path="url(#clip540)" d="M104.168 293.413 Q100.557 293.413 98.728 296.978 Q96.9224 300.52 96.9224 307.649 Q96.9224 314.756 98.728 318.32 Q100.557 321.862 104.168 321.862 Q107.802 321.862 109.608 318.32 Q111.436 314.756 111.436 307.649 Q111.436 300.52 109.608 296.978 Q107.802 293.413 104.168 293.413 M104.168 289.71 Q109.978 289.71 113.033 294.316 Q116.112 298.899 116.112 307.649 Q116.112 316.376 113.033 320.983 Q109.978 325.566 104.168 325.566 Q98.3576 325.566 95.2789 320.983 Q92.2234 316.376 92.2234 307.649 Q92.2234 298.899 95.2789 294.316 Q98.3576 289.71 104.168 289.71 Z" fill="#000000" fill-rule="nonzero" fill-opacity="1"></path><path clip-path="url(#clip540)" d="M134.33 293.413 Q130.719 293.413 128.89 296.978 Q127.084 300.52 127.084 307.649 Q127.084 314.756 128.89 318.32 Q130.719 321.862 134.33 321.862 Q137.964 321.862 139.769 318.32 Q141.598 314.756 141.598 307.649 Q141.598 300.52 139.769 296.978 Q137.964 293.413 134.33 293.413 M134.33 289.71 Q140.14 289.71 143.195 294.316 Q146.274 298.899 146.274 307.649 Q146.274 316.376 143.195 320.983 Q140.14 325.566 134.33 325.566 Q128.519 325.566 125.441 320.983 Q122.385 316.376 122.385 307.649 Q122.385 298.899 125.441 294.316 Q128.519 289.71 134.33 289.71 Z" fill="#000000" fill-rule="nonzero" fill-opacity="1"></path><path clip-path="url(#clip540)" d="M164.491 293.413 Q160.88 293.413 159.052 296.978 Q157.246 300.52 157.246 307.649 Q157.246 314.756 159.052 318.32 Q160.88 321.862 164.491 321.862 Q168.126 321.862 169.931 318.32 Q171.76 314.756 171.76 307.649 Q171.76 300.52 169.931 296.978 Q168.126 293.413 164.491 293.413 M164.491 289.71 Q170.302 289.71 173.357 294.316 Q176.436 298.899 176.436 307.649 Q176.436 316.376 173.357 320.983 Q170.302 325.566 164.491 325.566 Q158.681 325.566 155.603 320.983 Q152.547 316.376 152.547 307.649 Q152.547 298.899 155.603 294.316 Q158.681 289.71 164.491 289.71 Z" fill="#000000" fill-rule="nonzero" fill-opacity="1"></path><path clip-path="url(#clip540)" d="M184.7 290.335 L203.056 290.335 L203.056 294.27 L188.982 294.27 L188.982 302.742 Q190.001 302.395 191.019 302.233 Q192.038 302.047 193.056 302.047 Q198.843 302.047 202.223 305.219 Q205.602 308.39 205.602 313.807 Q205.602 319.385 202.13 322.487 Q198.658 325.566 192.339 325.566 Q190.163 325.566 187.894 325.195 Q185.649 324.825 183.241 324.084 L183.241 319.385 Q185.325 320.52 187.547 321.075 Q189.769 321.631 192.246 321.631 Q196.251 321.631 198.589 319.524 Q200.926 317.418 200.926 313.807 Q200.926 310.196 198.589 308.089 Q196.251 305.983 192.246 305.983 Q190.371 305.983 188.496 306.399 Q186.644 306.816 184.7 307.696 L184.7 290.335 Z" fill="#000000" fill-rule="nonzero" fill-opacity="1"></path><path clip-path="url(#clip540)" d="M224.815 293.413 Q221.204 293.413 219.375 296.978 Q217.57 300.52 217.57 307.649 Q217.57 314.756 219.375 318.32 Q221.204 321.862 224.815 321.862 Q228.449 321.862 230.255 318.32 Q232.084 314.756 232.084 307.649 Q232.084 300.52 230.255 296.978 Q228.449 293.413 224.815 293.413 M224.815 289.71 Q230.625 289.71 233.681 294.316 Q236.76 298.899 236.76 307.649 Q236.76 316.376 233.681 320.983 Q230.625 325.566 224.815 325.566 Q219.005 325.566 215.926 320.983 Q212.871 316.376 212.871 307.649 Q212.871 298.899 215.926 294.316 Q219.005 289.71 224.815 289.71 Z" fill="#000000" fill-rule="nonzero" fill-opacity="1"></path><path clip-path="url(#clip540)" d="M59.9319 194.457 Q56.3208 194.457 54.4921 198.022 Q52.6865 201.564 52.6865 208.693 Q52.6865 215.8 54.4921 219.365 Q56.3208 222.906 59.9319 222.906 Q63.5661 222.906 65.3717 219.365 Q67.2004 215.8 67.2004 208.693 Q67.2004 201.564 65.3717 198.022 Q63.5661 194.457 59.9319 194.457 M59.9319 190.754 Q65.742 190.754 68.7976 195.36 Q71.8763 199.944 71.8763 208.693 Q71.8763 217.42 68.7976 222.027 Q65.742 226.61 59.9319 226.61 Q54.1217 226.61 51.043 222.027 Q47.9875 217.42 47.9875 208.693 Q47.9875 199.944 51.043 195.36 Q54.1217 190.754 59.9319 190.754 Z" fill="#000000" fill-rule="nonzero" fill-opacity="1"></path><path clip-path="url(#clip540)" d="M80.0938 220.059 L84.978 220.059 L84.978 225.939 L80.0938 225.939 L80.0938 220.059 Z" fill="#000000" fill-rule="nonzero" fill-opacity="1"></path><path clip-path="url(#clip540)" d="M105.163 194.457 Q101.552 194.457 99.7233 198.022 Q97.9178 201.564 97.9178 208.693 Q97.9178 215.8 99.7233 219.365 Q101.552 222.906 105.163 222.906 Q108.797 222.906 110.603 219.365 Q112.432 215.8 112.432 208.693 Q112.432 201.564 110.603 198.022 Q108.797 194.457 105.163 194.457 M105.163 190.754 Q110.973 190.754 114.029 195.36 Q117.107 199.944 117.107 208.693 Q117.107 217.42 114.029 222.027 Q110.973 226.61 105.163 226.61 Q99.353 226.61 96.2743 222.027 Q93.2187 217.42 93.2187 208.693 Q93.2187 199.944 96.2743 195.36 Q99.353 190.754 105.163 190.754 Z" fill="#000000" fill-rule="nonzero" fill-opacity="1"></path><path clip-path="url(#clip540)" d="M135.325 194.457 Q131.714 194.457 129.885 198.022 Q128.08 201.564 128.08 208.693 Q128.08 215.8 129.885 219.365 Q131.714 222.906 135.325 222.906 Q138.959 222.906 140.765 219.365 Q142.593 215.8 142.593 208.693 Q142.593 201.564 140.765 198.022 Q138.959 194.457 135.325 194.457 M135.325 190.754 Q141.135 190.754 144.191 195.36 Q147.269 199.944 147.269 208.693 Q147.269 217.42 144.191 222.027 Q141.135 226.61 135.325 226.61 Q129.515 226.61 126.436 222.027 Q123.381 217.42 123.381 208.693 Q123.381 199.944 126.436 195.36 Q129.515 190.754 135.325 190.754 Z" fill="#000000" fill-rule="nonzero" fill-opacity="1"></path><path clip-path="url(#clip540)" d="M165.487 194.457 Q161.876 194.457 160.047 198.022 Q158.242 201.564 158.242 208.693 Q158.242 215.8 160.047 219.365 Q161.876 222.906 165.487 222.906 Q169.121 222.906 170.927 219.365 Q172.755 215.8 172.755 208.693 Q172.755 201.564 170.927 198.022 Q169.121 194.457 165.487 194.457 M165.487 190.754 Q171.297 190.754 174.353 195.36 Q177.431 199.944 177.431 208.693 Q177.431 217.42 174.353 222.027 Q171.297 226.61 165.487 226.61 Q159.677 226.61 156.598 222.027 Q153.542 217.42 153.542 208.693 Q153.542 199.944 156.598 195.36 Q159.677 190.754 165.487 190.754 Z" fill="#000000" fill-rule="nonzero" fill-opacity="1"></path><path clip-path="url(#clip540)" d="M185.695 191.379 L204.051 191.379 L204.051 195.314 L189.977 195.314 L189.977 203.786 Q190.996 203.439 192.014 203.277 Q193.033 203.092 194.052 203.092 Q199.839 203.092 203.218 206.263 Q206.598 209.434 206.598 214.851 Q206.598 220.43 203.126 223.531 Q199.653 226.61 193.334 226.61 Q191.158 226.61 188.89 226.24 Q186.644 225.869 184.237 225.129 L184.237 220.43 Q186.32 221.564 188.542 222.119 Q190.765 222.675 193.241 222.675 Q197.246 222.675 199.584 220.568 Q201.922 218.462 201.922 214.851 Q201.922 211.24 199.584 209.133 Q197.246 207.027 193.241 207.027 Q191.366 207.027 189.491 207.443 Q187.64 207.86 185.695 208.74 L185.695 191.379 Z" fill="#000000" fill-rule="nonzero" fill-opacity="1"></path><path clip-path="url(#clip540)" d="M215.857 191.379 L234.213 191.379 L234.213 195.314 L220.139 195.314 L220.139 203.786 Q221.158 203.439 222.176 203.277 Q223.195 203.092 224.213 203.092 Q230 203.092 233.38 206.263 Q236.76 209.434 236.76 214.851 Q236.76 220.43 233.287 223.531 Q229.815 226.61 223.496 226.61 Q221.32 226.61 219.051 226.24 Q216.806 225.869 214.399 225.129 L214.399 220.43 Q216.482 221.564 218.704 222.119 Q220.926 222.675 223.403 222.675 Q227.408 222.675 229.746 220.568 Q232.084 218.462 232.084 214.851 Q232.084 211.24 229.746 209.133 Q227.408 207.027 223.403 207.027 Q221.528 207.027 219.653 207.443 Q217.801 207.86 215.857 208.74 L215.857 191.379 Z" fill="#000000" fill-rule="nonzero" fill-opacity="1"></path><path clip-path="url(#clip540)" d="M58.9365 95.5016 Q55.3254 95.5016 53.4967 99.0664 Q51.6912 102.608 51.6912 109.738 Q51.6912 116.844 53.4967 120.409 Q55.3254 123.951 58.9365 123.951 Q62.5707 123.951 64.3763 120.409 Q66.205 116.844 66.205 109.738 Q66.205 102.608 64.3763 99.0664 Q62.5707 95.5016 58.9365 95.5016 M58.9365 91.7979 Q64.7467 91.7979 67.8022 96.4044 Q70.8809 100.988 70.8809 109.738 Q70.8809 118.464 67.8022 123.071 Q64.7467 127.654 58.9365 127.654 Q53.1264 127.654 50.0477 123.071 Q46.9921 118.464 46.9921 109.738 Q46.9921 100.988 50.0477 96.4044 Q53.1264 91.7979 58.9365 91.7979 Z" fill="#000000" fill-rule="nonzero" fill-opacity="1"></path><path clip-path="url(#clip540)" d="M79.0984 121.103 L83.9827 121.103 L83.9827 126.983 L79.0984 126.983 L79.0984 121.103 Z" fill="#000000" fill-rule="nonzero" fill-opacity="1"></path><path clip-path="url(#clip540)" d="M104.168 95.5016 Q100.557 95.5016 98.728 99.0664 Q96.9224 102.608 96.9224 109.738 Q96.9224 116.844 98.728 120.409 Q100.557 123.951 104.168 123.951 Q107.802 123.951 109.608 120.409 Q111.436 116.844 111.436 109.738 Q111.436 102.608 109.608 99.0664 Q107.802 95.5016 104.168 95.5016 M104.168 91.7979 Q109.978 91.7979 113.033 96.4044 Q116.112 100.988 116.112 109.738 Q116.112 118.464 113.033 123.071 Q109.978 127.654 104.168 127.654 Q98.3576 127.654 95.2789 123.071 Q92.2234 118.464 92.2234 109.738 Q92.2234 100.988 95.2789 96.4044 Q98.3576 91.7979 104.168 91.7979 Z" fill="#000000" fill-rule="nonzero" fill-opacity="1"></path><path clip-path="url(#clip540)" d="M134.33 95.5016 Q130.719 95.5016 128.89 99.0664 Q127.084 102.608 127.084 109.738 Q127.084 116.844 128.89 120.409 Q130.719 123.951 134.33 123.951 Q137.964 123.951 139.769 120.409 Q141.598 116.844 141.598 109.738 Q141.598 102.608 139.769 99.0664 Q137.964 95.5016 134.33 95.5016 M134.33 91.7979 Q140.14 91.7979 143.195 96.4044 Q146.274 100.988 146.274 109.738 Q146.274 118.464 143.195 123.071 Q140.14 127.654 134.33 127.654 Q128.519 127.654 125.441 123.071 Q122.385 118.464 122.385 109.738 Q122.385 100.988 125.441 96.4044 Q128.519 91.7979 134.33 91.7979 Z" fill="#000000" fill-rule="nonzero" fill-opacity="1"></path><path clip-path="url(#clip540)" d="M164.491 95.5016 Q160.88 95.5016 159.052 99.0664 Q157.246 102.608 157.246 109.738 Q157.246 116.844 159.052 120.409 Q160.88 123.951 164.491 123.951 Q168.126 123.951 169.931 120.409 Q171.76 116.844 171.76 109.738 Q171.76 102.608 169.931 99.0664 Q168.126 95.5016 164.491 95.5016 M164.491 91.7979 Q170.302 91.7979 173.357 96.4044 Q176.436 100.988 176.436 109.738 Q176.436 118.464 173.357 123.071 Q170.302 127.654 164.491 127.654 Q158.681 127.654 155.603 123.071 Q152.547 118.464 152.547 109.738 Q152.547 100.988 155.603 96.4044 Q158.681 91.7979 164.491 91.7979 Z" fill="#000000" fill-rule="nonzero" fill-opacity="1"></path><path clip-path="url(#clip540)" d="M195.232 107.84 Q192.084 107.84 190.232 109.992 Q188.403 112.145 188.403 115.895 Q188.403 119.622 190.232 121.798 Q192.084 123.951 195.232 123.951 Q198.38 123.951 200.209 121.798 Q202.061 119.622 202.061 115.895 Q202.061 112.145 200.209 109.992 Q198.38 107.84 195.232 107.84 M204.514 93.1868 L204.514 97.4461 Q202.755 96.6127 200.95 96.1729 Q199.167 95.7331 197.408 95.7331 Q192.778 95.7331 190.325 98.8581 Q187.894 101.983 187.547 108.302 Q188.913 106.289 190.973 105.224 Q193.033 104.136 195.51 104.136 Q200.718 104.136 203.727 107.307 Q206.76 110.455 206.76 115.895 Q206.76 121.219 203.612 124.437 Q200.464 127.654 195.232 127.654 Q189.237 127.654 186.065 123.071 Q182.894 118.464 182.894 109.738 Q182.894 101.543 186.783 96.6822 Q190.672 91.7979 197.223 91.7979 Q198.982 91.7979 200.764 92.1452 Q202.57 92.4924 204.514 93.1868 Z" fill="#000000" fill-rule="nonzero" fill-opacity="1"></path><path clip-path="url(#clip540)" d="M224.815 95.5016 Q221.204 95.5016 219.375 99.0664 Q217.57 102.608 217.57 109.738 Q217.57 116.844 219.375 120.409 Q221.204 123.951 224.815 123.951 Q228.449 123.951 230.255 120.409 Q232.084 116.844 232.084 109.738 Q232.084 102.608 230.255 99.0664 Q228.449 95.5016 224.815 95.5016 M224.815 91.7979 Q230.625 91.7979 233.681 96.4044 Q236.76 100.988 236.76 109.738 Q236.76 118.464 233.681 123.071 Q230.625 127.654 224.815 127.654 Q219.005 127.654 215.926 123.071 Q212.871 118.464 212.871 109.738 Q212.871 100.988 215.926 96.4044 Q219.005 91.7979 224.815 91.7979 Z" fill="#000000" fill-rule="nonzero" fill-opacity="1"></path><polyline clip-path="url(#clip542)" style="stroke:#1932b2; stroke-linecap:round; stroke-linejoin:round; stroke-width:4; stroke-opacity:1; fill:none" points="365.929,697.119 704.136,489.971 1042.34,370.911 1380.55,295.288 1718.76,242.817 2056.96,203.658 2395.17,172.701 2733.38,147.151 3071.59,125.418 "></polyline>
<circle clip-path="url(#clip542)" cx="365.929" cy="527.236" r="14.4" fill="#1932b2" fill-rule="evenodd" fill-opacity="0.8" stroke="#000000" stroke-opacity="0.8" stroke-width="0.8"></circle>
<circle clip-path="url(#clip542)" cx="704.136" cy="376.152" r="14.4" fill="#1932b2" fill-rule="evenodd" fill-opacity="0.8" stroke="#000000" stroke-opacity="0.8" stroke-width="0.8"></circle>
<circle clip-path="url(#clip542)" cx="1042.34" cy="291.954" r="14.4" fill="#1932b2" fill-rule="evenodd" fill-opacity="0.8" stroke="#000000" stroke-opacity="0.8" stroke-width="0.8"></circle>
<circle clip-path="url(#clip542)" cx="1380.55" cy="237.264" r="14.4" fill="#1932b2" fill-rule="evenodd" fill-opacity="0.8" stroke="#000000" stroke-opacity="0.8" stroke-width="0.8"></circle>
<circle clip-path="url(#clip542)" cx="1718.76" cy="197.801" r="14.4" fill="#1932b2" fill-rule="evenodd" fill-opacity="0.8" stroke="#000000" stroke-opacity="0.8" stroke-width="0.8"></circle>
<circle clip-path="url(#clip542)" cx="2056.96" cy="167.094" r="14.4" fill="#1932b2" fill-rule="evenodd" fill-opacity="0.8" stroke="#000000" stroke-opacity="0.8" stroke-width="0.8"></circle>
<circle clip-path="url(#clip542)" cx="2395.17" cy="141.892" r="14.4" fill="#1932b2" fill-rule="evenodd" fill-opacity="0.8" stroke="#000000" stroke-opacity="0.8" stroke-width="0.8"></circle>
<circle clip-path="url(#clip542)" cx="2733.38" cy="120.465" r="14.4" fill="#1932b2" fill-rule="evenodd" fill-opacity="0.8" stroke="#000000" stroke-opacity="0.8" stroke-width="0.8"></circle>
<circle clip-path="url(#clip542)" cx="3071.59" cy="101.848" r="14.4" fill="#1932b2" fill-rule="evenodd" fill-opacity="0.8" stroke="#000000" stroke-opacity="0.8" stroke-width="0.8"></circle>
<polyline clip-path="url(#clip542)" style="stroke:#1928b2; stroke-linecap:round; stroke-linejoin:round; stroke-width:4; stroke-opacity:1; fill:none" points="365.929,392.604 704.136,369.245 1042.34,324.931 1380.55,282.335 1718.76,245.003 2056.96,212.698 2395.17,184.574 2733.38,159.857 3071.59,137.956 "></polyline>
<circle clip-path="url(#clip542)" cx="365.929" cy="417.557" r="14.4" fill="#1928b2" fill-rule="evenodd" fill-opacity="0.8" stroke="#000000" stroke-opacity="0.8" stroke-width="0.8"></circle>
<circle clip-path="url(#clip542)" cx="704.136" cy="359.654" r="14.4" fill="#1928b2" fill-rule="evenodd" fill-opacity="0.8" stroke="#000000" stroke-opacity="0.8" stroke-width="0.8"></circle>
<circle clip-path="url(#clip542)" cx="1042.34" cy="303.622" r="14.4" fill="#1928b2" fill-rule="evenodd" fill-opacity="0.8" stroke="#000000" stroke-opacity="0.8" stroke-width="0.8"></circle>
<circle clip-path="url(#clip542)" cx="1380.55" cy="258.033" r="14.4" fill="#1928b2" fill-rule="evenodd" fill-opacity="0.8" stroke="#000000" stroke-opacity="0.8" stroke-width="0.8"></circle>
<circle clip-path="url(#clip542)" cx="1718.76" cy="220.935" r="14.4" fill="#1928b2" fill-rule="evenodd" fill-opacity="0.8" stroke="#000000" stroke-opacity="0.8" stroke-width="0.8"></circle>
<circle clip-path="url(#clip542)" cx="2056.96" cy="189.985" r="14.4" fill="#1928b2" fill-rule="evenodd" fill-opacity="0.8" stroke="#000000" stroke-opacity="0.8" stroke-width="0.8"></circle>
<circle clip-path="url(#clip542)" cx="2395.17" cy="163.518" r="14.4" fill="#1928b2" fill-rule="evenodd" fill-opacity="0.8" stroke="#000000" stroke-opacity="0.8" stroke-width="0.8"></circle>
<circle clip-path="url(#clip542)" cx="2733.38" cy="140.454" r="14.4" fill="#1928b2" fill-rule="evenodd" fill-opacity="0.8" stroke="#000000" stroke-opacity="0.8" stroke-width="0.8"></circle>
<circle clip-path="url(#clip542)" cx="3071.59" cy="120.104" r="14.4" fill="#1928b2" fill-rule="evenodd" fill-opacity="0.8" stroke="#000000" stroke-opacity="0.8" stroke-width="0.8"></circle>
<polyline clip-path="url(#clip542)" style="stroke:#3819b2; stroke-linecap:round; stroke-linejoin:round; stroke-width:4; stroke-opacity:1; fill:none" points="365.929,380.634 704.136,357.346 1042.34,316.083 1380.55,273.604 1718.76,235.717 2056.96,203.121 2395.17,175.094 2733.38,150.761 3071.59,129.415 "></polyline>
<circle clip-path="url(#clip542)" cx="365.929" cy="403.308" r="14.4" fill="#3819b2" fill-rule="evenodd" fill-opacity="0.8" stroke="#000000" stroke-opacity="0.8" stroke-width="0.8"></circle>
<circle clip-path="url(#clip542)" cx="704.136" cy="367.356" r="14.4" fill="#3819b2" fill-rule="evenodd" fill-opacity="0.8" stroke="#000000" stroke-opacity="0.8" stroke-width="0.8"></circle>
<circle clip-path="url(#clip542)" cx="1042.34" cy="313.525" r="14.4" fill="#3819b2" fill-rule="evenodd" fill-opacity="0.8" stroke="#000000" stroke-opacity="0.8" stroke-width="0.8"></circle>
<circle clip-path="url(#clip542)" cx="1380.55" cy="265.237" r="14.4" fill="#3819b2" fill-rule="evenodd" fill-opacity="0.8" stroke="#000000" stroke-opacity="0.8" stroke-width="0.8"></circle>
<circle clip-path="url(#clip542)" cx="1718.76" cy="225.483" r="14.4" fill="#3819b2" fill-rule="evenodd" fill-opacity="0.8" stroke="#000000" stroke-opacity="0.8" stroke-width="0.8"></circle>
<circle clip-path="url(#clip542)" cx="2056.96" cy="192.738" r="14.4" fill="#3819b2" fill-rule="evenodd" fill-opacity="0.8" stroke="#000000" stroke-opacity="0.8" stroke-width="0.8"></circle>
<circle clip-path="url(#clip542)" cx="2395.17" cy="165.184" r="14.4" fill="#3819b2" fill-rule="evenodd" fill-opacity="0.8" stroke="#000000" stroke-opacity="0.8" stroke-width="0.8"></circle>
<circle clip-path="url(#clip542)" cx="2733.38" cy="141.485" r="14.4" fill="#3819b2" fill-rule="evenodd" fill-opacity="0.8" stroke="#000000" stroke-opacity="0.8" stroke-width="0.8"></circle>
<circle clip-path="url(#clip542)" cx="3071.59" cy="120.768" r="14.4" fill="#3819b2" fill-rule="evenodd" fill-opacity="0.8" stroke="#000000" stroke-opacity="0.8" stroke-width="0.8"></circle>
<polyline clip-path="url(#clip542)" style="stroke:#1932b2; stroke-linecap:round; stroke-linejoin:round; stroke-width:4; stroke-opacity:1; fill:none" points="365.929,292.388 704.136,260.511 1042.34,221.223 1380.55,186.071 1718.76,156.669 2056.96,132.178 2395.17,111.503 2733.38,93.7774 3071.59,78.389 "></polyline>
<circle clip-path="url(#clip542)" cx="365.929" cy="279.93" r="14.4" fill="#1932b2" fill-rule="evenodd" fill-opacity="0.8" stroke="#000000" stroke-opacity="0.8" stroke-width="0.8"></circle>
<circle clip-path="url(#clip542)" cx="704.136" cy="244.796" r="14.4" fill="#1932b2" fill-rule="evenodd" fill-opacity="0.8" stroke="#000000" stroke-opacity="0.8" stroke-width="0.8"></circle>
<circle clip-path="url(#clip542)" cx="1042.34" cy="203.763" r="14.4" fill="#1932b2" fill-rule="evenodd" fill-opacity="0.8" stroke="#000000" stroke-opacity="0.8" stroke-width="0.8"></circle>
<circle clip-path="url(#clip542)" cx="1380.55" cy="168.726" r="14.4" fill="#1932b2" fill-rule="evenodd" fill-opacity="0.8" stroke="#000000" stroke-opacity="0.8" stroke-width="0.8"></circle>
<circle clip-path="url(#clip542)" cx="1718.76" cy="140.254" r="14.4" fill="#1932b2" fill-rule="evenodd" fill-opacity="0.8" stroke="#000000" stroke-opacity="0.8" stroke-width="0.8"></circle>
<circle clip-path="url(#clip542)" cx="2056.96" cy="116.901" r="14.4" fill="#1932b2" fill-rule="evenodd" fill-opacity="0.8" stroke="#000000" stroke-opacity="0.8" stroke-width="0.8"></circle>
<circle clip-path="url(#clip542)" cx="2395.17" cy="97.3357" r="14.4" fill="#1932b2" fill-rule="evenodd" fill-opacity="0.8" stroke="#000000" stroke-opacity="0.8" stroke-width="0.8"></circle>
<circle clip-path="url(#clip542)" cx="2733.38" cy="80.6297" r="14.4" fill="#1932b2" fill-rule="evenodd" fill-opacity="0.8" stroke="#000000" stroke-opacity="0.8" stroke-width="0.8"></circle>
<circle clip-path="url(#clip542)" cx="3071.59" cy="66.1725" r="14.4" fill="#1932b2" fill-rule="evenodd" fill-opacity="0.8" stroke="#000000" stroke-opacity="0.8" stroke-width="0.8"></circle>
</svg>