<svg xmlns="http://www.w3.org/2000/svg" xmlns:xlink="http://www.w3.org/1999/xlink" width="800" height="200" viewBox="0 0 3200 800">
<defs>
  <clipPath id="clip020">
    <rect x="0" y="0" width="3200" height="800"></rect>
  </clipPath>
</defs>
<path clip-path="url(#clip020)" d="M0 800 L3200 800 L3200 0 L0 0  Z" fill="#ffffff" fill-rule="evenodd" fill-opacity="1"></path>
<defs>
  <clipPath id="clip021">
    <rect x="640" y="0" width="2241" height="800"></rect>
  </clipPath>
</defs>
<path clip-path="url(#clip020)" d="M224.436 716.048 L3152.76 716.048 L3152.76 47.2441 L224.436 47.2441  Z" fill="#ffffff" fill-rule="evenodd" fill-opacity="1"></path>
<defs>
  <clipPath id="clip022">
    <rect x="224" y="47" width="2929" height="670"></rect>
  </clipPath>
</defs>
<polyline clip-path="url(#clip022)" style="stroke:#000000; stroke-linecap:round; stroke-linejoin:round; stroke-width:2; stroke-opacity:0.1; fill:none" points="307.313,716.048 307.313,47.2441 "></polyline>
<polyline clip-path="url(#clip022)" style="stroke:#000000; stroke-linecap:round; stroke-linejoin:round; stroke-width:2; stroke-opacity:0.1; fill:none" points="1170.61,716.048 1170.61,47.2441 "></polyline>
<polyline clip-path="url(#clip022)" style="stroke:#000000; stroke-linecap:round; stroke-linejoin:round; stroke-width:2; stroke-opacity:0.1; fill:none" points="2033.92,716.048 2033.92,47.2441 "></polyline>
<polyline clip-path="url(#clip022)" style="stroke:#000000; stroke-linecap:round; stroke-linejoin:round; stroke-width:2; stroke-opacity:0.1; fill:none" points="2897.22,716.048 2897.22,47.2441 "></polyline>
<polyline clip-path="url(#clip022)" style="stroke:#000000; stroke-linecap:round; stroke-linejoin:round; stroke-width:2; stroke-opacity:0.1; fill:none" points="224.436,703.024 3152.76,703.024 "></polyline>
<polyline clip-path="url(#clip022)" style="stroke:#000000; stroke-linecap:round; stroke-linejoin:round; stroke-width:2; stroke-opacity:0.1; fill:none" points="224.436,589.651 3152.76,589.651 "></polyline>
<polyline clip-path="url(#clip022)" style="stroke:#000000; stroke-linecap:round; stroke-linejoin:round; stroke-width:2; stroke-opacity:0.1; fill:none" points="224.436,476.277 3152.76,476.277 "></polyline>
<polyline clip-path="url(#clip022)" style="stroke:#000000; stroke-linecap:round; stroke-linejoin:round; stroke-width:2; stroke-opacity:0.1; fill:none" points="224.436,362.903 3152.76,362.903 "></polyline>
<polyline clip-path="url(#clip022)" style="stroke:#000000; stroke-linecap:round; stroke-linejoin:round; stroke-width:2; stroke-opacity:0.1; fill:none" points="224.436,249.53 3152.76,249.53 "></polyline>
<polyline clip-path="url(#clip022)" style="stroke:#000000; stroke-linecap:round; stroke-linejoin:round; stroke-width:2; stroke-opacity:0.1; fill:none" points="224.436,136.156 3152.76,136.156 "></polyline>
<polyline clip-path="url(#clip020)" style="stroke:#000000; stroke-linecap:round; stroke-linejoin:round; stroke-width:4; stroke-opacity:1; fill:none" points="224.436,716.048 3152.76,716.048 "></polyline>
<polyline clip-path="url(#clip020)" style="stroke:#000000; stroke-linecap:round; stroke-linejoin:round; stroke-width:4; stroke-opacity:1; fill:none" points="307.313,716.048 307.313,697.15 "></polyline>
<polyline clip-path="url(#clip020)" style="stroke:#000000; stroke-linecap:round; stroke-linejoin:round; stroke-width:4; stroke-opacity:1; fill:none" points="1170.61,716.048 1170.61,697.15 "></polyline>
<polyline clip-path="url(#clip020)" style="stroke:#000000; stroke-linecap:round; stroke-linejoin:round; stroke-width:4; stroke-opacity:1; fill:none" points="2033.92,716.048 2033.92,697.15 "></polyline>
<polyline clip-path="url(#clip020)" style="stroke:#000000; stroke-linecap:round; stroke-linejoin:round; stroke-width:4; stroke-opacity:1; fill:none" points="2897.22,716.048 2897.22,697.15 "></polyline>
<path clip-path="url(#clip020)" d="M297.591 750.288 L315.947 750.288 L315.947 754.223 L301.873 754.223 L301.873 762.695 Q302.892 762.348 303.91 762.186 Q304.929 762.001 305.947 762.001 Q311.734 762.001 315.114 765.172 Q318.493 768.343 318.493 773.76 Q318.493 779.339 315.021 782.44 Q311.549 785.519 305.23 785.519 Q303.054 785.519 300.785 785.149 Q298.54 784.778 296.132 784.038 L296.132 779.339 Q298.216 780.473 300.438 781.028 Q302.66 781.584 305.137 781.584 Q309.142 781.584 311.48 779.478 Q313.817 777.371 313.817 773.76 Q313.817 770.149 311.48 768.042 Q309.142 765.936 305.137 765.936 Q303.262 765.936 301.387 766.353 Q299.535 766.769 297.591 767.649 L297.591 750.288 Z" fill="#000000" fill-rule="nonzero" fill-opacity="1"></path><path clip-path="url(#clip020)" d="M1145.3 780.913 L1152.94 780.913 L1152.94 754.547 L1144.63 756.214 L1144.63 751.955 L1152.89 750.288 L1157.57 750.288 L1157.57 780.913 L1165.21 780.913 L1165.21 784.848 L1145.3 784.848 L1145.3 780.913 Z" fill="#000000" fill-rule="nonzero" fill-opacity="1"></path><path clip-path="url(#clip020)" d="M1184.65 753.367 Q1181.04 753.367 1179.21 756.931 Q1177.41 760.473 1177.41 767.603 Q1177.41 774.709 1179.21 778.274 Q1181.04 781.815 1184.65 781.815 Q1188.29 781.815 1190.09 778.274 Q1191.92 774.709 1191.92 767.603 Q1191.92 760.473 1190.09 756.931 Q1188.29 753.367 1184.65 753.367 M1184.65 749.663 Q1190.46 749.663 1193.52 754.269 Q1196.6 758.853 1196.6 767.603 Q1196.6 776.329 1193.52 780.936 Q1190.46 785.519 1184.65 785.519 Q1178.84 785.519 1175.77 780.936 Q1172.71 776.329 1172.71 767.603 Q1172.71 758.853 1175.77 754.269 Q1178.84 749.663 1184.65 749.663 Z" fill="#000000" fill-rule="nonzero" fill-opacity="1"></path><path clip-path="url(#clip020)" d="M2009.1 780.913 L2016.74 780.913 L2016.74 754.547 L2008.43 756.214 L2008.43 751.955 L2016.69 750.288 L2021.37 750.288 L2021.37 780.913 L2029.01 780.913 L2029.01 784.848 L2009.1 784.848 L2009.1 780.913 Z" fill="#000000" fill-rule="nonzero" fill-opacity="1"></path><path clip-path="url(#clip020)" d="M2038.5 750.288 L2056.86 750.288 L2056.86 754.223 L2042.78 754.223 L2042.78 762.695 Q2043.8 762.348 2044.82 762.186 Q2045.84 762.001 2046.86 762.001 Q2052.64 762.001 2056.02 765.172 Q2059.4 768.343 2059.4 773.76 Q2059.4 779.339 2055.93 782.44 Q2052.46 785.519 2046.14 785.519 Q2043.96 785.519 2041.69 785.149 Q2039.45 784.778 2037.04 784.038 L2037.04 779.339 Q2039.12 780.473 2041.35 781.028 Q2043.57 781.584 2046.05 781.584 Q2050.05 781.584 2052.39 779.478 Q2054.73 777.371 2054.73 773.76 Q2054.73 770.149 2052.39 768.042 Q2050.05 765.936 2046.05 765.936 Q2044.17 765.936 2042.3 766.353 Q2040.44 766.769 2038.5 767.649 L2038.5 750.288 Z" fill="#000000" fill-rule="nonzero" fill-opacity="1"></path><path clip-path="url(#clip020)" d="M2875.99 780.913 L2892.31 780.913 L2892.31 784.848 L2870.37 784.848 L2870.37 780.913 Q2873.03 778.158 2877.61 773.528 Q2882.22 768.876 2883.4 767.533 Q2885.64 765.01 2886.52 763.274 Q2887.43 761.515 2887.43 759.825 Q2887.43 757.07 2885.48 755.334 Q2883.56 753.598 2880.46 753.598 Q2878.26 753.598 2875.81 754.362 Q2873.38 755.126 2870.6 756.677 L2870.6 751.955 Q2873.42 750.82 2875.88 750.242 Q2878.33 749.663 2880.37 749.663 Q2885.74 749.663 2888.93 752.348 Q2892.13 755.033 2892.13 759.524 Q2892.13 761.654 2891.32 763.575 Q2890.53 765.473 2888.42 768.066 Q2887.84 768.737 2884.74 771.954 Q2881.64 775.149 2875.99 780.913 Z" fill="#000000" fill-rule="nonzero" fill-opacity="1"></path><path clip-path="url(#clip020)" d="M2912.13 753.367 Q2908.51 753.367 2906.69 756.931 Q2904.88 760.473 2904.88 767.603 Q2904.88 774.709 2906.69 778.274 Q2908.51 781.815 2912.13 781.815 Q2915.76 781.815 2917.57 778.274 Q2919.39 774.709 2919.39 767.603 Q2919.39 760.473 2917.57 756.931 Q2915.76 753.367 2912.13 753.367 M2912.13 749.663 Q2917.94 749.663 2920.99 754.269 Q2924.07 758.853 2924.07 767.603 Q2924.07 776.329 2920.99 780.936 Q2917.94 785.519 2912.13 785.519 Q2906.32 785.519 2903.24 780.936 Q2900.18 776.329 2900.18 767.603 Q2900.18 758.853 2903.24 754.269 Q2906.32 749.663 2912.13 749.663 Z" fill="#000000" fill-rule="nonzero" fill-opacity="1"></path><polyline clip-path="url(#clip020)" style="stroke:#000000; stroke-linecap:round; stroke-linejoin:round; stroke-width:4; stroke-opacity:1; fill:none" points="224.436,716.048 224.436,47.2441 "></polyline>
<polyline clip-path="url(#clip020)" style="stroke:#000000; stroke-linecap:round; stroke-linejoin:round; stroke-width:4; stroke-opacity:1; fill:none" points="224.436,703.024 243.334,703.024 "></polyline>
<polyline clip-path="url(#clip020)" style="stroke:#000000; stroke-linecap:round; stroke-linejoin:round; stroke-width:4; stroke-opacity:1; fill:none" points="224.436,589.651 243.334,589.651 "></polyline>
<polyline clip-path="url(#clip020)" style="stroke:#000000; stroke-linecap:round; stroke-linejoin:round; stroke-width:4; stroke-opacity:1; fill:none" points="224.436,476.277 243.334,476.277 "></polyline>
<polyline clip-path="url(#clip020)" style="stroke:#000000; stroke-linecap:round; stroke-linejoin:round; stroke-width:4; stroke-opacity:1; fill:none" points="224.436,362.903 243.334,362.903 "></polyline>
<polyline clip-path="url(#clip020)" style="stroke:#000000; stroke-linecap:round; stroke-linejoin:round; stroke-width:4; stroke-opacity:1; fill:none" points="224.436,249.53 243.334,249.53 "></polyline>
<polyline clip-path="url(#clip020)" style="stroke:#000000; stroke-linecap:round; stroke-linejoin:round; stroke-width:4; stroke-opacity:1; fill:none" points="224.436,136.156 243.334,136.156 "></polyline>
<path clip-path="url(#clip020)" d="M58.9365 688.823 Q55.3254 688.823 53.4967 692.388 Q51.6912 695.929 51.6912 703.059 Q51.6912 710.166 53.4967 713.73 Q55.3254 717.272 58.9365 717.272 Q62.5707 717.272 64.3763 713.73 Q66.205 710.166 66.205 703.059 Q66.205 695.929 64.3763 692.388 Q62.5707 688.823 58.9365 688.823 M58.9365 685.119 Q64.7467 685.119 67.8022 689.726 Q70.8809 694.309 70.8809 703.059 Q70.8809 711.786 67.8022 716.392 Q64.7467 720.976 58.9365 720.976 Q53.1264 720.976 50.0477 716.392 Q46.9921 711.786 46.9921 703.059 Q46.9921 694.309 50.0477 689.726 Q53.1264 685.119 58.9365 685.119 Z" fill="#000000" fill-rule="nonzero" fill-opacity="1"></path><path clip-path="url(#clip020)" d="M79.0984 714.425 L83.9827 714.425 L83.9827 720.304 L79.0984 720.304 L79.0984 714.425 Z" fill="#000000" fill-rule="nonzero" fill-opacity="1"></path><path clip-path="url(#clip020)" d="M104.168 688.823 Q100.557 688.823 98.728 692.388 Q96.9224 695.929 96.9224 703.059 Q96.9224 710.166 98.728 713.73 Q100.557 717.272 104.168 717.272 Q107.802 717.272 109.608 713.73 Q111.436 710.166 111.436 703.059 Q111.436 695.929 109.608 692.388 Q107.802 688.823 104.168 688.823 M104.168 685.119 Q109.978 685.119 113.033 689.726 Q116.112 694.309 116.112 703.059 Q116.112 711.786 113.033 716.392 Q109.978 720.976 104.168 720.976 Q98.3576 720.976 95.2789 716.392 Q92.2234 711.786 92.2234 703.059 Q92.2234 694.309 95.2789 689.726 Q98.3576 685.119 104.168 685.119 Z" fill="#000000" fill-rule="nonzero" fill-opacity="1"></path><path clip-path="url(#clip020)" d="M134.33 688.823 Q130.719 688.823 128.89 692.388 Q127.084 695.929 127.084 703.059 Q127.084 710.166 128.89 713.73 Q130.719 717.272 134.33 717.272 Q137.964 717.272 139.769 713.73 Q141.598 710.166 141.598 703.059 Q141.598 695.929 139.769 692.388 Q137.964 688.823 134.33 688.823 M134.33 685.119 Q140.14 685.119 143.195 689.726 Q146.274 694.309 146.274 703.059 Q146.274 711.786 143.195 716.392 Q140.14 720.976 134.33 720.976 Q128.519 720.976 125.441 716.392 Q122.385 711.786 122.385 703.059 Q122.385 694.309 125.441 689.726 Q128.519 685.119 134.33 685.119 Z" fill="#000000" fill-rule="nonzero" fill-opacity="1"></path><path clip-path="url(#clip020)" d="M164.491 688.823 Q160.88 688.823 159.052 692.388 Q157.246 695.929 157.246 703.059 Q157.246 710.166 159.052 713.73 Q160.88 717.272 164.491 717.272 Q168.126 717.272 169.931 713.73 Q171.76 710.166 171.76 703.059 Q171.76 695.929 169.931 692.388 Q168.126 688.823 164.491 688.823 M164.491 685.119 Q170.302 685.119 173.357 689.726 Q176.436 694.309 176.436 703.059 Q176.436 711.786 173.357 716.392 Q170.302 720.976 164.491 720.976 Q158.681 720.976 155.603 716.392 Q152.547 711.786 152.547 703.059 Q152.547 694.309 155.603 689.726 Q158.681 685.119 164.491 685.119 Z" fill="#000000" fill-rule="nonzero" fill-opacity="1"></path><path clip-path="url(#clip020)" d="M59.9319 575.449 Q56.3208 575.449 54.4921 579.014 Q52.6865 582.556 52.6865 589.685 Q52.6865 596.792 54.4921 600.357 Q56.3208 603.898 59.9319 603.898 Q63.5661 603.898 65.3717 600.357 Q67.2004 596.792 67.2004 589.685 Q67.2004 582.556 65.3717 579.014 Q63.5661 575.449 59.9319 575.449 M59.9319 571.746 Q65.742 571.746 68.7976 576.352 Q71.8763 580.935 71.8763 589.685 Q71.8763 598.412 68.7976 603.019 Q65.742 607.602 59.9319 607.602 Q54.1217 607.602 51.043 603.019 Q47.9875 598.412 47.9875 589.685 Q47.9875 580.935 51.043 576.352 Q54.1217 571.746 59.9319 571.746 Z" fill="#000000" fill-rule="nonzero" fill-opacity="1"></path><path clip-path="url(#clip020)" d="M80.0938 601.051 L84.978 601.051 L84.978 606.931 L80.0938 606.931 L80.0938 601.051 Z" fill="#000000" fill-rule="nonzero" fill-opacity="1"></path><path clip-path="url(#clip020)" d="M105.163 575.449 Q101.552 575.449 99.7233 579.014 Q97.9178 582.556 97.9178 589.685 Q97.9178 596.792 99.7233 600.357 Q101.552 603.898 105.163 603.898 Q108.797 603.898 110.603 600.357 Q112.432 596.792 112.432 589.685 Q112.432 582.556 110.603 579.014 Q108.797 575.449 105.163 575.449 M105.163 571.746 Q110.973 571.746 114.029 576.352 Q117.107 580.935 117.107 589.685 Q117.107 598.412 114.029 603.019 Q110.973 607.602 105.163 607.602 Q99.353 607.602 96.2743 603.019 Q93.2187 598.412 93.2187 589.685 Q93.2187 580.935 96.2743 576.352 Q99.353 571.746 105.163 571.746 Z" fill="#000000" fill-rule="nonzero" fill-opacity="1"></path><path clip-path="url(#clip020)" d="M129.353 602.996 L145.672 602.996 L145.672 606.931 L123.728 606.931 L123.728 602.996 Q126.39 600.241 130.973 595.611 Q135.58 590.959 136.76 589.616 Q139.006 587.093 139.885 585.357 Q140.788 583.598 140.788 581.908 Q140.788 579.153 138.843 577.417 Q136.922 575.681 133.82 575.681 Q131.621 575.681 129.168 576.445 Q126.737 577.209 123.959 578.76 L123.959 574.037 Q126.783 572.903 129.237 572.324 Q131.691 571.746 133.728 571.746 Q139.098 571.746 142.293 574.431 Q145.487 577.116 145.487 581.607 Q145.487 583.736 144.677 585.658 Q143.89 587.556 141.783 590.148 Q141.205 590.82 138.103 594.037 Q135.001 597.232 129.353 602.996 Z" fill="#000000" fill-rule="nonzero" fill-opacity="1"></path><path clip-path="url(#clip020)" d="M155.533 572.371 L173.89 572.371 L173.89 576.306 L159.816 576.306 L159.816 584.778 Q160.834 584.431 161.853 584.269 Q162.871 584.084 163.89 584.084 Q169.677 584.084 173.056 587.255 Q176.436 590.426 176.436 595.843 Q176.436 601.421 172.964 604.523 Q169.491 607.602 163.172 607.602 Q160.996 607.602 158.728 607.232 Q156.482 606.861 154.075 606.121 L154.075 601.421 Q156.158 602.556 158.38 603.111 Q160.603 603.667 163.079 603.667 Q167.084 603.667 169.422 601.56 Q171.76 599.454 171.76 595.843 Q171.76 592.232 169.422 590.125 Q167.084 588.019 163.079 588.019 Q161.204 588.019 159.329 588.435 Q157.478 588.852 155.533 589.732 L155.533 572.371 Z" fill="#000000" fill-rule="nonzero" fill-opacity="1"></path><path clip-path="url(#clip020)" d="M58.9365 462.076 Q55.3254 462.076 53.4967 465.641 Q51.6912 469.182 51.6912 476.312 Q51.6912 483.418 53.4967 486.983 Q55.3254 490.525 58.9365 490.525 Q62.5707 490.525 64.3763 486.983 Q66.205 483.418 66.205 476.312 Q66.205 469.182 64.3763 465.641 Q62.5707 462.076 58.9365 462.076 M58.9365 458.372 Q64.7467 458.372 67.8022 462.979 Q70.8809 467.562 70.8809 476.312 Q70.8809 485.039 67.8022 489.645 Q64.7467 494.228 58.9365 494.228 Q53.1264 494.228 50.0477 489.645 Q46.9921 485.039 46.9921 476.312 Q46.9921 467.562 50.0477 462.979 Q53.1264 458.372 58.9365 458.372 Z" fill="#000000" fill-rule="nonzero" fill-opacity="1"></path><path clip-path="url(#clip020)" d="M79.0984 487.677 L83.9827 487.677 L83.9827 493.557 L79.0984 493.557 L79.0984 487.677 Z" fill="#000000" fill-rule="nonzero" fill-opacity="1"></path><path clip-path="url(#clip020)" d="M104.168 462.076 Q100.557 462.076 98.728 465.641 Q96.9224 469.182 96.9224 476.312 Q96.9224 483.418 98.728 486.983 Q100.557 490.525 104.168 490.525 Q107.802 490.525 109.608 486.983 Q111.436 483.418 111.436 476.312 Q111.436 469.182 109.608 465.641 Q107.802 462.076 104.168 462.076 M104.168 458.372 Q109.978 458.372 113.033 462.979 Q116.112 467.562 116.112 476.312 Q116.112 485.039 113.033 489.645 Q109.978 494.228 104.168 494.228 Q98.3576 494.228 95.2789 489.645 Q92.2234 485.039 92.2234 476.312 Q92.2234 467.562 95.2789 462.979 Q98.3576 458.372 104.168 458.372 Z" fill="#000000" fill-rule="nonzero" fill-opacity="1"></path><path clip-path="url(#clip020)" d="M124.376 458.997 L142.732 458.997 L142.732 462.932 L128.658 462.932 L128.658 471.404 Q129.677 471.057 130.695 470.895 Q131.714 470.71 132.732 470.71 Q138.519 470.71 141.899 473.881 Q145.279 477.053 145.279 482.469 Q145.279 488.048 141.806 491.15 Q138.334 494.228 132.015 494.228 Q129.839 494.228 127.57 493.858 Q125.325 493.488 122.918 492.747 L122.918 488.048 Q125.001 489.182 127.223 489.738 Q129.445 490.293 131.922 490.293 Q135.927 490.293 138.265 488.187 Q140.603 486.08 140.603 482.469 Q140.603 478.858 138.265 476.752 Q135.927 474.645 131.922 474.645 Q130.047 474.645 128.172 475.062 Q126.32 475.478 124.376 476.358 L124.376 458.997 Z" fill="#000000" fill-rule="nonzero" fill-opacity="1"></path><path clip-path="url(#clip020)" d="M164.491 462.076 Q160.88 462.076 159.052 465.641 Q157.246 469.182 157.246 476.312 Q157.246 483.418 159.052 486.983 Q160.88 490.525 164.491 490.525 Q168.126 490.525 169.931 486.983 Q171.76 483.418 171.76 476.312 Q171.76 469.182 169.931 465.641 Q168.126 462.076 164.491 462.076 M164.491 458.372 Q170.302 458.372 173.357 462.979 Q176.436 467.562 176.436 476.312 Q176.436 485.039 173.357 489.645 Q170.302 494.228 164.491 494.228 Q158.681 494.228 155.603 489.645 Q152.547 485.039 152.547 476.312 Q152.547 467.562 155.603 462.979 Q158.681 458.372 164.491 458.372 Z" fill="#000000" fill-rule="nonzero" fill-opacity="1"></path><path clip-path="url(#clip020)" d="M59.9319 348.702 Q56.3208 348.702 54.4921 352.267 Q52.6865 355.809 52.6865 362.938 Q52.6865 370.045 54.4921 373.609 Q56.3208 377.151 59.9319 377.151 Q63.5661 377.151 65.3717 373.609 Q67.2004 370.045 67.2004 362.938 Q67.2004 355.809 65.3717 352.267 Q63.5661 348.702 59.9319 348.702 M59.9319 344.998 Q65.742 344.998 68.7976 349.605 Q71.8763 354.188 71.8763 362.938 Q71.8763 371.665 68.7976 376.271 Q65.742 380.855 59.9319 380.855 Q54.1217 380.855 51.043 376.271 Q47.9875 371.665 47.9875 362.938 Q47.9875 354.188 51.043 349.605 Q54.1217 344.998 59.9319 344.998 Z" fill="#000000" fill-rule="nonzero" fill-opacity="1"></path><path clip-path="url(#clip020)" d="M80.0938 374.304 L84.978 374.304 L84.978 380.183 L80.0938 380.183 L80.0938 374.304 Z" fill="#000000" fill-rule="nonzero" fill-opacity="1"></path><path clip-path="url(#clip020)" d="M105.163 348.702 Q101.552 348.702 99.7233 352.267 Q97.9178 355.809 97.9178 362.938 Q97.9178 370.045 99.7233 373.609 Q101.552 377.151 105.163 377.151 Q108.797 377.151 110.603 373.609 Q112.432 370.045 112.432 362.938 Q112.432 355.809 110.603 352.267 Q108.797 348.702 105.163 348.702 M105.163 344.998 Q110.973 344.998 114.029 349.605 Q117.107 354.188 117.107 362.938 Q117.107 371.665 114.029 376.271 Q110.973 380.855 105.163 380.855 Q99.353 380.855 96.2743 376.271 Q93.2187 371.665 93.2187 362.938 Q93.2187 354.188 96.2743 349.605 Q99.353 344.998 105.163 344.998 Z" fill="#000000" fill-rule="nonzero" fill-opacity="1"></path><path clip-path="url(#clip020)" d="M124.144 345.623 L146.367 345.623 L146.367 347.614 L133.82 380.183 L128.936 380.183 L140.742 349.559 L124.144 349.559 L124.144 345.623 Z" fill="#000000" fill-rule="nonzero" fill-opacity="1"></path><path clip-path="url(#clip020)" d="M155.533 345.623 L173.89 345.623 L173.89 349.559 L159.816 349.559 L159.816 358.031 Q160.834 357.684 161.853 357.522 Q162.871 357.336 163.89 357.336 Q169.677 357.336 173.056 360.508 Q176.436 363.679 176.436 369.096 Q176.436 374.674 172.964 377.776 Q169.491 380.855 163.172 380.855 Q160.996 380.855 158.728 380.484 Q156.482 380.114 154.075 379.373 L154.075 374.674 Q156.158 375.808 158.38 376.364 Q160.603 376.92 163.079 376.92 Q167.084 376.92 169.422 374.813 Q171.76 372.707 171.76 369.096 Q171.76 365.484 169.422 363.378 Q167.084 361.272 163.079 361.272 Q161.204 361.272 159.329 361.688 Q157.478 362.105 155.533 362.984 L155.533 345.623 Z" fill="#000000" fill-rule="nonzero" fill-opacity="1"></path><path clip-path="url(#clip020)" d="M58.9365 235.329 Q55.3254 235.329 53.4967 238.893 Q51.6912 242.435 51.6912 249.565 Q51.6912 256.671 53.4967 260.236 Q55.3254 263.777 58.9365 263.777 Q62.5707 263.777 64.3763 260.236 Q66.205 256.671 66.205 249.565 Q66.205 242.435 64.3763 238.893 Q62.5707 235.329 58.9365 235.329 M58.9365 231.625 Q64.7467 231.625 67.8022 236.231 Q70.8809 240.815 70.8809 249.565 Q70.8809 258.291 67.8022 262.898 Q64.7467 267.481 58.9365 267.481 Q53.1264 267.481 50.0477 262.898 Q46.9921 258.291 46.9921 249.565 Q46.9921 240.815 50.0477 236.231 Q53.1264 231.625 58.9365 231.625 Z" fill="#000000" fill-rule="nonzero" fill-opacity="1"></path><path clip-path="url(#clip020)" d="M79.0984 260.93 L83.9827 260.93 L83.9827 266.81 L79.0984 266.81 L79.0984 260.93 Z" fill="#000000" fill-rule="nonzero" fill-opacity="1"></path><path clip-path="url(#clip020)" d="M94.978 262.875 L102.617 262.875 L102.617 236.509 L94.3067 238.176 L94.3067 233.917 L102.571 232.25 L107.246 232.25 L107.246 262.875 L114.885 262.875 L114.885 266.81 L94.978 266.81 L94.978 262.875 Z" fill="#000000" fill-rule="nonzero" fill-opacity="1"></path><path clip-path="url(#clip020)" d="M134.33 235.329 Q130.719 235.329 128.89 238.893 Q127.084 242.435 127.084 249.565 Q127.084 256.671 128.89 260.236 Q130.719 263.777 134.33 263.777 Q137.964 263.777 139.769 260.236 Q141.598 256.671 141.598 249.565 Q141.598 242.435 139.769 238.893 Q137.964 235.329 134.33 235.329 M134.33 231.625 Q140.14 231.625 143.195 236.231 Q146.274 240.815 146.274 249.565 Q146.274 258.291 143.195 262.898 Q140.14 267.481 134.33 267.481 Q128.519 267.481 125.441 262.898 Q122.385 258.291 122.385 249.565 Q122.385 240.815 125.441 236.231 Q128.519 231.625 134.33 231.625 Z" fill="#000000" fill-rule="nonzero" fill-opacity="1"></path><path clip-path="url(#clip020)" d="M164.491 235.329 Q160.88 235.329 159.052 238.893 Q157.246 242.435 157.246 249.565 Q157.246 256.671 159.052 260.236 Q160.88 263.777 164.491 263.777 Q168.126 263.777 169.931 260.236 Q171.76 256.671 171.76 249.565 Q171.76 242.435 169.931 238.893 Q168.126 235.329 164.491 235.329 M164.491 231.625 Q170.302 231.625 173.357 236.231 Q176.436 240.815 176.436 249.565 Q176.436 258.291 173.357 262.898 Q170.302 267.481 164.491 267.481 Q158.681 267.481 155.603 262.898 Q152.547 258.291 152.547 249.565 Q152.547 240.815 155.603 236.231 Q158.681 231.625 164.491 231.625 Z" fill="#000000" fill-rule="nonzero" fill-opacity="1"></path><path clip-path="url(#clip020)" d="M59.9319 121.955 Q56.3208 121.955 54.4921 125.52 Q52.6865 129.061 52.6865 136.191 Q52.6865 143.297 54.4921 146.862 Q56.3208 150.404 59.9319 150.404 Q63.5661 150.404 65.3717 146.862 Q67.2004 143.297 67.2004 136.191 Q67.2004 129.061 65.3717 125.52 Q63.5661 121.955 59.9319 121.955 M59.9319 118.251 Q65.742 118.251 68.7976 122.858 Q71.8763 127.441 71.8763 136.191 Q71.8763 144.918 68.7976 149.524 Q65.742 154.108 59.9319 154.108 Q54.1217 154.108 51.043 149.524 Q47.9875 144.918 47.9875 136.191 Q47.9875 127.441 51.043 122.858 Q54.1217 118.251 59.9319 118.251 Z" fill="#000000" fill-rule="nonzero" fill-opacity="1"></path><path clip-path="url(#clip020)" d="M80.0938 147.557 L84.978 147.557 L84.978 153.436 L80.0938 153.436 L80.0938 147.557 Z" fill="#000000" fill-rule="nonzero" fill-opacity="1"></path><path clip-path="url(#clip020)" d="M95.9733 149.501 L103.612 149.501 L103.612 123.135 L95.3021 124.802 L95.3021 120.543 L103.566 118.876 L108.242 118.876 L108.242 149.501 L115.881 149.501 L115.881 153.436 L95.9733 153.436 L95.9733 149.501 Z" fill="#000000" fill-rule="nonzero" fill-opacity="1"></path><path clip-path="url(#clip020)" d="M129.353 149.501 L145.672 149.501 L145.672 153.436 L123.728 153.436 L123.728 149.501 Q126.39 146.746 130.973 142.117 Q135.58 137.464 136.76 136.121 Q139.006 133.598 139.885 131.862 Q140.788 130.103 140.788 128.413 Q140.788 125.659 138.843 123.922 Q136.922 122.186 133.82 122.186 Q131.621 122.186 129.168 122.95 Q126.737 123.714 123.959 125.265 L123.959 120.543 Q126.783 119.409 129.237 118.83 Q131.691 118.251 133.728 118.251 Q139.098 118.251 142.293 120.936 Q145.487 123.622 145.487 128.112 Q145.487 130.242 144.677 132.163 Q143.89 134.061 141.783 136.654 Q141.205 137.325 138.103 140.543 Q135.001 143.737 129.353 149.501 Z" fill="#000000" fill-rule="nonzero" fill-opacity="1"></path><path clip-path="url(#clip020)" d="M155.533 118.876 L173.89 118.876 L173.89 122.811 L159.816 122.811 L159.816 131.284 Q160.834 130.936 161.853 130.774 Q162.871 130.589 163.89 130.589 Q169.677 130.589 173.056 133.76 Q176.436 136.932 176.436 142.348 Q176.436 147.927 172.964 151.029 Q169.491 154.108 163.172 154.108 Q160.996 154.108 158.728 153.737 Q156.482 153.367 154.075 152.626 L154.075 147.927 Q156.158 149.061 158.38 149.617 Q160.603 150.172 163.079 150.172 Q167.084 150.172 169.422 148.066 Q171.76 145.959 171.76 142.348 Q171.76 138.737 169.422 136.631 Q167.084 134.524 163.079 134.524 Q161.204 134.524 159.329 134.941 Q157.478 135.358 155.533 136.237 L155.533 118.876 Z" fill="#000000" fill-rule="nonzero" fill-opacity="1"></path><polyline clip-path="url(#clip022)" style="stroke:#b28919; stroke-linecap:round; stroke-linejoin:round; stroke-width:4; stroke-opacity:1; fill:none" points="307.313,368.652 652.634,426.236 997.954,456.16 1343.28,473.06 1688.6,483.107 2033.92,489.33 2379.24,493.339 2724.56,496.03 3069.88,497.915 "></polyline>
<circle clip-path="url(#clip022)" cx="307.313" cy="395.679" r="14.4" fill="#b28919" fill-rule="evenodd" fill-opacity="0.8" stroke="#000000" stroke-opacity="0.8" stroke-width="0.8"></circle>
<circle clip-path="url(#clip022)" cx="652.634" cy="446" r="14.4" fill="#b28919" fill-rule="evenodd" fill-opacity="0.8" stroke="#000000" stroke-opacity="0.8" stroke-width="0.8"></circle>
<circle clip-path="url(#clip022)" cx="997.954" cy="471.808" r="14.4" fill="#b28919" fill-rule="evenodd" fill-opacity="0.8" stroke="#000000" stroke-opacity="0.8" stroke-width="0.8"></circle>
<circle clip-path="url(#clip022)" cx="1343.28" cy="485.758" r="14.4" fill="#b28919" fill-rule="evenodd" fill-opacity="0.8" stroke="#000000" stroke-opacity="0.8" stroke-width="0.8"></circle>
<circle clip-path="url(#clip022)" cx="1688.6" cy="493.545" r="14.4" fill="#b28919" fill-rule="evenodd" fill-opacity="0.8" stroke="#000000" stroke-opacity="0.8" stroke-width="0.8"></circle>
<circle clip-path="url(#clip022)" cx="2033.92" cy="497.994" r="14.4" fill="#b28919" fill-rule="evenodd" fill-opacity="0.8" stroke="#000000" stroke-opacity="0.8" stroke-width="0.8"></circle>
<circle clip-path="url(#clip022)" cx="2379.24" cy="500.595" r="14.4" fill="#b28919" fill-rule="evenodd" fill-opacity="0.8" stroke="#000000" stroke-opacity="0.8" stroke-width="0.8"></circle>
<circle clip-path="url(#clip022)" cx="2724.56" cy="502.157" r="14.4" fill="#b28919" fill-rule="evenodd" fill-opacity="0.8" stroke="#000000" stroke-opacity="0.8" stroke-width="0.8"></circle>
<circle clip-path="url(#clip022)" cx="3069.88" cy="503.127" r="14.4" fill="#b28919" fill-rule="evenodd" fill-opacity="0.8" stroke="#000000" stroke-opacity="0.8" stroke-width="0.8"></circle>
<polyline clip-path="url(#clip022)" style="stroke:#b29e19; stroke-linecap:round; stroke-linejoin:round; stroke-width:4; stroke-opacity:1; fill:none" points="307.313,696.266 652.634,679.783 997.954,660.124 1343.28,641.163 1688.6,624.067 2033.92,608.994 2379.24,595.802 2724.56,584.286 3069.88,574.24 "></polyline>
<circle clip-path="url(#clip022)" cx="307.313" cy="697.119" r="14.4" fill="#b29e19" fill-rule="evenodd" fill-opacity="0.8" stroke="#000000" stroke-opacity="0.8" stroke-width="0.8"></circle>
<circle clip-path="url(#clip022)" cx="652.634" cy="677.026" r="14.4" fill="#b29e19" fill-rule="evenodd" fill-opacity="0.8" stroke="#000000" stroke-opacity="0.8" stroke-width="0.8"></circle>
<circle clip-path="url(#clip022)" cx="997.954" cy="655.377" r="14.4" fill="#b29e19" fill-rule="evenodd" fill-opacity="0.8" stroke="#000000" stroke-opacity="0.8" stroke-width="0.8"></circle>
<circle clip-path="url(#clip022)" cx="1343.28" cy="635.695" r="14.4" fill="#b29e19" fill-rule="evenodd" fill-opacity="0.8" stroke="#000000" stroke-opacity="0.8" stroke-width="0.8"></circle>
<circle clip-path="url(#clip022)" cx="1688.6" cy="618.479" r="14.4" fill="#b29e19" fill-rule="evenodd" fill-opacity="0.8" stroke="#000000" stroke-opacity="0.8" stroke-width="0.8"></circle>
<circle clip-path="url(#clip022)" cx="2033.92" cy="603.545" r="14.4" fill="#b29e19" fill-rule="evenodd" fill-opacity="0.8" stroke="#000000" stroke-opacity="0.8" stroke-width="0.8"></circle>
<circle clip-path="url(#clip022)" cx="2379.24" cy="590.608" r="14.4" fill="#b29e19" fill-rule="evenodd" fill-opacity="0.8" stroke="#000000" stroke-opacity="0.8" stroke-width="0.8"></circle>
<circle clip-path="url(#clip022)" cx="2724.56" cy="579.396" r="14.4" fill="#b29e19" fill-rule="evenodd" fill-opacity="0.8" stroke="#000000" stroke-opacity="0.8" stroke-width="0.8"></circle>
<circle clip-path="url(#clip022)" cx="3069.88" cy="569.675" r="14.4" fill="#b29e19" fill-rule="evenodd" fill-opacity="0.8" stroke="#000000" stroke-opacity="0.8" stroke-width="0.8"></circle>
<polyline clip-path="url(#clip022)" style="stroke:#a8b219; stroke-linecap:round; stroke-linejoin:round; stroke-width:4; stroke-opacity:1; fill:none" points="307.313,667.767 652.634,640.873 997.954,621.16 1343.28,605.613 1688.6,592.599 2033.92,581.418 2379.24,571.718 2724.56,563.275 3069.88,555.917 "></polyline>
<circle clip-path="url(#clip022)" cx="307.313" cy="659.722" r="14.4" fill="#a8b219" fill-rule="evenodd" fill-opacity="0.8" stroke="#000000" stroke-opacity="0.8" stroke-width="0.8"></circle>
<circle clip-path="url(#clip022)" cx="652.634" cy="633.095" r="14.4" fill="#a8b219" fill-rule="evenodd" fill-opacity="0.8" stroke="#000000" stroke-opacity="0.8" stroke-width="0.8"></circle>
<circle clip-path="url(#clip022)" cx="997.954" cy="614.917" r="14.4" fill="#a8b219" fill-rule="evenodd" fill-opacity="0.8" stroke="#000000" stroke-opacity="0.8" stroke-width="0.8"></circle>
<circle clip-path="url(#clip022)" cx="1343.28" cy="600.384" r="14.4" fill="#a8b219" fill-rule="evenodd" fill-opacity="0.8" stroke="#000000" stroke-opacity="0.8" stroke-width="0.8"></circle>
<circle clip-path="url(#clip022)" cx="1688.6" cy="588.007" r="14.4" fill="#a8b219" fill-rule="evenodd" fill-opacity="0.8" stroke="#000000" stroke-opacity="0.8" stroke-width="0.8"></circle>
<circle clip-path="url(#clip022)" cx="2033.92" cy="577.27" r="14.4" fill="#a8b219" fill-rule="evenodd" fill-opacity="0.8" stroke="#000000" stroke-opacity="0.8" stroke-width="0.8"></circle>
<circle clip-path="url(#clip022)" cx="2379.24" cy="567.919" r="14.4" fill="#a8b219" fill-rule="evenodd" fill-opacity="0.8" stroke="#000000" stroke-opacity="0.8" stroke-width="0.8"></circle>
<circle clip-path="url(#clip022)" cx="2724.56" cy="559.774" r="14.4" fill="#a8b219" fill-rule="evenodd" fill-opacity="0.8" stroke="#000000" stroke-opacity="0.8" stroke-width="0.8"></circle>
<circle clip-path="url(#clip022)" cx="3069.88" cy="552.686" r="14.4" fill="#a8b219" fill-rule="evenodd" fill-opacity="0.8" stroke="#000000" stroke-opacity="0.8" stroke-width="0.8"></circle>
<polyline clip-path="url(#clip022)" style="stroke:#b28e19; stroke-linecap:round; stroke-linejoin:round; stroke-width:4; stroke-opacity:1; fill:none" points="307.313,109.392 652.634,199.883 997.954,258.792 1343.28,300.974 1688.6,333.065 2033.92,358.509 2379.24,379.276 2724.56,396.578 3069.88,411.203 "></polyline>
<circle clip-path="url(#clip022)" cx="307.313" cy="66.1725" r="14.4" fill="#b28e19" fill-rule="evenodd" fill-opacity="0.8" stroke="#000000" stroke-opacity="0.8" stroke-width="0.8"></circle>
<circle clip-path="url(#clip022)" cx="652.634" cy="171.861" r="14.4" fill="#b28e19" fill-rule="evenodd" fill-opacity="0.8" stroke="#000000" stroke-opacity="0.8" stroke-width="0.8"></circle>
<circle clip-path="url(#clip022)" cx="997.954" cy="238.917" r="14.4" fill="#b28e19" fill-rule="evenodd" fill-opacity="0.8" stroke="#000000" stroke-opacity="0.8" stroke-width="0.8"></circle>
<circle clip-path="url(#clip022)" cx="1343.28" cy="286.147" r="14.4" fill="#b28e19" fill-rule="evenodd" fill-opacity="0.8" stroke="#000000" stroke-opacity="0.8" stroke-width="0.8"></circle>
<circle clip-path="url(#clip022)" cx="1688.6" cy="321.654" r="14.4" fill="#b28e19" fill-rule="evenodd" fill-opacity="0.8" stroke="#000000" stroke-opacity="0.8" stroke-width="0.8"></circle>
<circle clip-path="url(#clip022)" cx="2033.92" cy="349.559" r="14.4" fill="#b28e19" fill-rule="evenodd" fill-opacity="0.8" stroke="#000000" stroke-opacity="0.8" stroke-width="0.8"></circle>
<circle clip-path="url(#clip022)" cx="2379.24" cy="372.187" r="14.4" fill="#b28e19" fill-rule="evenodd" fill-opacity="0.8" stroke="#000000" stroke-opacity="0.8" stroke-width="0.8"></circle>
<circle clip-path="url(#clip022)" cx="2724.56" cy="390.945" r="14.4" fill="#b28e19" fill-rule="evenodd" fill-opacity="0.8" stroke="#000000" stroke-opacity="0.8" stroke-width="0.8"></circle>
<circle clip-path="url(#clip022)" cx="3069.88" cy="406.735" r="14.4" fill="#b28e19" fill-rule="evenodd" fill-opacity="0.8" stroke="#000000" stroke-opacity="0.8" stroke-width="0.8"></circle>
</svg>