<svg xmlns="http://www.w3.org/2000/svg" xmlns:xlink="http://www.w3.org/1999/xlink" width="800" height="200" viewBox="0 0 3200 800">
<defs>
  <clipPath id="clip300">
    <rect x="0" y="0" width="3200" height="800"></rect>
  </clipPath>
</defs>
<path clip-path="url(#clip300)" d="M0 800 L3200 800 L3200 0 L0 0  Z" fill="#ffffff" fill-rule="evenodd" fill-opacity="1"></path>
<defs>
  <clipPath id="clip301">
    <rect x="640" y="0" width="2241" height="800"></rect>
  </clipPath>
</defs>
<path clip-path="url(#clip300)" d="M224.598 716.048 L3152.76 716.048 L3152.76 47.2441 L224.598 47.2441  Z" fill="#ffffff" fill-rule="evenodd" fill-opacity="1"></path>
<defs>
  <clipPath id="clip302">
    <rect x="224" y="47" width="2929" height="670"></rect>
  </clipPath>
</defs>
<polyline clip-path="url(#clip302)" style="stroke:#000000; stroke-linecap:round; stroke-linejoin:round; stroke-width:2; stroke-opacity:0.1; fill:none" points="307.47,716.048 307.47,47.2441 "></polyline>
<polyline clip-path="url(#clip302)" style="stroke:#000000; stroke-linecap:round; stroke-linejoin:round; stroke-width:2; stroke-opacity:0.1; fill:none" points="1170.72,716.048 1170.72,47.2441 "></polyline>
<polyline clip-path="url(#clip302)" style="stroke:#000000; stroke-linecap:round; stroke-linejoin:round; stroke-width:2; stroke-opacity:0.1; fill:none" points="2033.98,716.048 2033.98,47.2441 "></polyline>
<polyline clip-path="url(#clip302)" style="stroke:#000000; stroke-linecap:round; stroke-linejoin:round; stroke-width:2; stroke-opacity:0.1; fill:none" points="2897.23,716.048 2897.23,47.2441 "></polyline>
<polyline clip-path="url(#clip302)" style="stroke:#000000; stroke-linecap:round; stroke-linejoin:round; stroke-width:2; stroke-opacity:0.1; fill:none" points="224.598,628.683 3152.76,628.683 "></polyline>
<polyline clip-path="url(#clip302)" style="stroke:#000000; stroke-linecap:round; stroke-linejoin:round; stroke-width:2; stroke-opacity:0.1; fill:none" points="224.598,497.961 3152.76,497.961 "></polyline>
<polyline clip-path="url(#clip302)" style="stroke:#000000; stroke-linecap:round; stroke-linejoin:round; stroke-width:2; stroke-opacity:0.1; fill:none" points="224.598,367.238 3152.76,367.238 "></polyline>
<polyline clip-path="url(#clip302)" style="stroke:#000000; stroke-linecap:round; stroke-linejoin:round; stroke-width:2; stroke-opacity:0.1; fill:none" points="224.598,236.516 3152.76,236.516 "></polyline>
<polyline clip-path="url(#clip302)" style="stroke:#000000; stroke-linecap:round; stroke-linejoin:round; stroke-width:2; stroke-opacity:0.1; fill:none" points="224.598,105.794 3152.76,105.794 "></polyline>
<polyline clip-path="url(#clip300)" style="stroke:#000000; stroke-linecap:round; stroke-linejoin:round; stroke-width:4; stroke-opacity:1; fill:none" points="224.598,716.048 3152.76,716.048 "></polyline>
<polyline clip-path="url(#clip300)" style="stroke:#000000; stroke-linecap:round; stroke-linejoin:round; stroke-width:4; stroke-opacity:1; fill:none" points="307.47,716.048 307.47,697.15 "></polyline>
<polyline clip-path="url(#clip300)" style="stroke:#000000; stroke-linecap:round; stroke-linejoin:round; stroke-width:4; stroke-opacity:1; fill:none" points="1170.72,716.048 1170.72,697.15 "></polyline>
<polyline clip-path="url(#clip300)" style="stroke:#000000; stroke-linecap:round; stroke-linejoin:round; stroke-width:4; stroke-opacity:1; fill:none" points="2033.98,716.048 2033.98,697.15 "></polyline>
<polyline clip-path="url(#clip300)" style="stroke:#000000; stroke-linecap:round; stroke-linejoin:round; stroke-width:4; stroke-opacity:1; fill:none" points="2897.23,716.048 2897.23,697.15 "></polyline>
<path clip-path="url(#clip300)" d="M297.748 750.288 L316.105 750.288 L316.105 754.223 L302.031 754.223 L302.031 762.695 Q303.049 762.348 304.068 762.186 Q305.086 762.001 306.105 762.001 Q311.892 762.001 315.271 765.172 Q318.651 768.343 318.651 773.76 Q318.651 779.339 315.179 782.44 Q311.706 785.519 305.387 785.519 Q303.211 785.519 300.943 785.149 Q298.697 784.778 296.29 784.038 L296.29 779.339 Q298.373 780.473 300.595 781.028 Q302.818 781.584 305.294 781.584 Q309.299 781.584 311.637 779.478 Q313.975 777.371 313.975 773.76 Q313.975 770.149 311.637 768.042 Q309.299 765.936 305.294 765.936 Q303.419 765.936 301.544 766.353 Q299.693 766.769 297.748 767.649 L297.748 750.288 Z" fill="#000000" fill-rule="nonzero" fill-opacity="1"></path><path clip-path="url(#clip300)" d="M1145.41 780.913 L1153.05 780.913 L1153.05 754.547 L1144.74 756.214 L1144.74 751.955 L1153 750.288 L1157.68 750.288 L1157.68 780.913 L1165.32 780.913 L1165.32 784.848 L1145.41 784.848 L1145.41 780.913 Z" fill="#000000" fill-rule="nonzero" fill-opacity="1"></path><path clip-path="url(#clip300)" d="M1184.76 753.367 Q1181.15 753.367 1179.32 756.931 Q1177.52 760.473 1177.52 767.603 Q1177.52 774.709 1179.32 778.274 Q1181.15 781.815 1184.76 781.815 Q1188.4 781.815 1190.2 778.274 Q1192.03 774.709 1192.03 767.603 Q1192.03 760.473 1190.2 756.931 Q1188.4 753.367 1184.76 753.367 M1184.76 749.663 Q1190.57 749.663 1193.63 754.269 Q1196.71 758.853 1196.71 767.603 Q1196.71 776.329 1193.63 780.936 Q1190.57 785.519 1184.76 785.519 Q1178.95 785.519 1175.87 780.936 Q1172.82 776.329 1172.82 767.603 Q1172.82 758.853 1175.87 754.269 Q1178.95 749.663 1184.76 749.663 Z" fill="#000000" fill-rule="nonzero" fill-opacity="1"></path><path clip-path="url(#clip300)" d="M2009.16 780.913 L2016.8 780.913 L2016.8 754.547 L2008.49 756.214 L2008.49 751.955 L2016.76 750.288 L2021.43 750.288 L2021.43 780.913 L2029.07 780.913 L2029.07 784.848 L2009.16 784.848 L2009.16 780.913 Z" fill="#000000" fill-rule="nonzero" fill-opacity="1"></path><path clip-path="url(#clip300)" d="M2038.56 750.288 L2056.92 750.288 L2056.92 754.223 L2042.84 754.223 L2042.84 762.695 Q2043.86 762.348 2044.88 762.186 Q2045.9 762.001 2046.92 762.001 Q2052.71 762.001 2056.08 765.172 Q2059.46 768.343 2059.46 773.76 Q2059.46 779.339 2055.99 782.44 Q2052.52 785.519 2046.2 785.519 Q2044.02 785.519 2041.76 785.149 Q2039.51 784.778 2037.1 784.038 L2037.1 779.339 Q2039.19 780.473 2041.41 781.028 Q2043.63 781.584 2046.11 781.584 Q2050.11 781.584 2052.45 779.478 Q2054.79 777.371 2054.79 773.76 Q2054.79 770.149 2052.45 768.042 Q2050.11 765.936 2046.11 765.936 Q2044.23 765.936 2042.36 766.353 Q2040.51 766.769 2038.56 767.649 L2038.56 750.288 Z" fill="#000000" fill-rule="nonzero" fill-opacity="1"></path><path clip-path="url(#clip300)" d="M2876.01 780.913 L2892.33 780.913 L2892.33 784.848 L2870.38 784.848 L2870.38 780.913 Q2873.04 778.158 2877.63 773.528 Q2882.23 768.876 2883.41 767.533 Q2885.66 765.01 2886.54 763.274 Q2887.44 761.515 2887.44 759.825 Q2887.44 757.07 2885.5 755.334 Q2883.58 753.598 2880.47 753.598 Q2878.27 753.598 2875.82 754.362 Q2873.39 755.126 2870.61 756.677 L2870.61 751.955 Q2873.44 750.82 2875.89 750.242 Q2878.34 749.663 2880.38 749.663 Q2885.75 749.663 2888.95 752.348 Q2892.14 755.033 2892.14 759.524 Q2892.14 761.654 2891.33 763.575 Q2890.54 765.473 2888.44 768.066 Q2887.86 768.737 2884.76 771.954 Q2881.65 775.149 2876.01 780.913 Z" fill="#000000" fill-rule="nonzero" fill-opacity="1"></path><path clip-path="url(#clip300)" d="M2912.14 753.367 Q2908.53 753.367 2906.7 756.931 Q2904.89 760.473 2904.89 767.603 Q2904.89 774.709 2906.7 778.274 Q2908.53 781.815 2912.14 781.815 Q2915.77 781.815 2917.58 778.274 Q2919.41 774.709 2919.41 767.603 Q2919.41 760.473 2917.58 756.931 Q2915.77 753.367 2912.14 753.367 M2912.14 749.663 Q2917.95 749.663 2921.01 754.269 Q2924.08 758.853 2924.08 767.603 Q2924.08 776.329 2921.01 780.936 Q2917.95 785.519 2912.14 785.519 Q2906.33 785.519 2903.25 780.936 Q2900.2 776.329 2900.2 767.603 Q2900.2 758.853 2903.25 754.269 Q2906.33 749.663 2912.14 749.663 Z" fill="#000000" fill-rule="nonzero" fill-opacity="1"></path><polyline clip-path="url(#clip300)" style="stroke:#000000; stroke-linecap:round; stroke-linejoin:round; stroke-width:4; stroke-opacity:1; fill:none" points="224.598,716.048 224.598,47.2441 "></polyline>
<polyline clip-path="url(#clip300)" style="stroke:#000000; stroke-linecap:round; stroke-linejoin:round; stroke-width:4; stroke-opacity:1; fill:none" points="224.598,628.683 243.496,628.683 "></polyline>
<polyline clip-path="url(#clip300)" style="stroke:#000000; stroke-linecap:round; stroke-linejoin:round; stroke-width:4; stroke-opacity:1; fill:none" points="224.598,497.961 243.496,497.961 "></polyline>
<polyline clip-path="url(#clip300)" style="stroke:#000000; stroke-linecap:round; stroke-linejoin:round; stroke-width:4; stroke-opacity:1; fill:none" points="224.598,367.238 243.496,367.238 "></polyline>
<polyline clip-path="url(#clip300)" style="stroke:#000000; stroke-linecap:round; stroke-linejoin:round; stroke-width:4; stroke-opacity:1; fill:none" points="224.598,236.516 243.496,236.516 "></polyline>
<polyline clip-path="url(#clip300)" style="stroke:#000000; stroke-linecap:round; stroke-linejoin:round; stroke-width:4; stroke-opacity:1; fill:none" points="224.598,105.794 243.496,105.794 "></polyline>
<path clip-path="url(#clip300)" d="M59.7467 614.481 Q56.1356 614.481 54.3069 618.046 Q52.5014 621.588 52.5014 628.718 Q52.5014 635.824 54.3069 639.389 Q56.1356 642.93 59.7467 642.93 Q63.3809 642.93 65.1865 639.389 Q67.0152 635.824 67.0152 628.718 Q67.0152 621.588 65.1865 618.046 Q63.3809 614.481 59.7467 614.481 M59.7467 610.778 Q65.5568 610.778 68.6124 615.384 Q71.6911 619.968 71.6911 628.718 Q71.6911 637.444 68.6124 642.051 Q65.5568 646.634 59.7467 646.634 Q53.9365 646.634 50.8578 642.051 Q47.8023 637.444 47.8023 628.718 Q47.8023 619.968 50.8578 615.384 Q53.9365 610.778 59.7467 610.778 Z" fill="#000000" fill-rule="nonzero" fill-opacity="1"></path><path clip-path="url(#clip300)" d="M79.9086 640.083 L84.7928 640.083 L84.7928 645.963 L79.9086 645.963 L79.9086 640.083 Z" fill="#000000" fill-rule="nonzero" fill-opacity="1"></path><path clip-path="url(#clip300)" d="M104.978 614.481 Q101.367 614.481 99.5381 618.046 Q97.7326 621.588 97.7326 628.718 Q97.7326 635.824 99.5381 639.389 Q101.367 642.93 104.978 642.93 Q108.612 642.93 110.418 639.389 Q112.246 635.824 112.246 628.718 Q112.246 621.588 110.418 618.046 Q108.612 614.481 104.978 614.481 M104.978 610.778 Q110.788 610.778 113.844 615.384 Q116.922 619.968 116.922 628.718 Q116.922 637.444 113.844 642.051 Q110.788 646.634 104.978 646.634 Q99.1678 646.634 96.0891 642.051 Q93.0335 637.444 93.0335 628.718 Q93.0335 619.968 96.0891 615.384 Q99.1678 610.778 104.978 610.778 Z" fill="#000000" fill-rule="nonzero" fill-opacity="1"></path><path clip-path="url(#clip300)" d="M135.14 614.481 Q131.529 614.481 129.7 618.046 Q127.894 621.588 127.894 628.718 Q127.894 635.824 129.7 639.389 Q131.529 642.93 135.14 642.93 Q138.774 642.93 140.58 639.389 Q142.408 635.824 142.408 628.718 Q142.408 621.588 140.58 618.046 Q138.774 614.481 135.14 614.481 M135.14 610.778 Q140.95 610.778 144.005 615.384 Q147.084 619.968 147.084 628.718 Q147.084 637.444 144.005 642.051 Q140.95 646.634 135.14 646.634 Q129.33 646.634 126.251 642.051 Q123.195 637.444 123.195 628.718 Q123.195 619.968 126.251 615.384 Q129.33 610.778 135.14 610.778 Z" fill="#000000" fill-rule="nonzero" fill-opacity="1"></path><path clip-path="url(#clip300)" d="M169.468 627.329 Q172.825 628.046 174.7 630.315 Q176.598 632.583 176.598 635.917 Q176.598 641.032 173.079 643.833 Q169.561 646.634 163.079 646.634 Q160.904 646.634 158.589 646.194 Q156.297 645.778 153.843 644.921 L153.843 640.407 Q155.788 641.542 158.103 642.12 Q160.417 642.699 162.941 642.699 Q167.339 642.699 169.63 640.963 Q171.945 639.227 171.945 635.917 Q171.945 632.861 169.792 631.148 Q167.663 629.412 163.843 629.412 L159.816 629.412 L159.816 625.569 L164.029 625.569 Q167.478 625.569 169.306 624.204 Q171.135 622.815 171.135 620.222 Q171.135 617.56 169.237 616.148 Q167.362 614.713 163.843 614.713 Q161.922 614.713 159.723 615.13 Q157.524 615.546 154.885 616.426 L154.885 612.259 Q157.547 611.519 159.862 611.148 Q162.2 610.778 164.26 610.778 Q169.584 610.778 172.686 613.208 Q175.788 615.616 175.788 619.736 Q175.788 622.606 174.144 624.597 Q172.501 626.565 169.468 627.329 Z" fill="#000000" fill-rule="nonzero" fill-opacity="1"></path><path clip-path="url(#clip300)" d="M58.9365 483.759 Q55.3254 483.759 53.4967 487.324 Q51.6912 490.866 51.6912 497.995 Q51.6912 505.102 53.4967 508.667 Q55.3254 512.208 58.9365 512.208 Q62.5707 512.208 64.3763 508.667 Q66.205 505.102 66.205 497.995 Q66.205 490.866 64.3763 487.324 Q62.5707 483.759 58.9365 483.759 M58.9365 480.056 Q64.7467 480.056 67.8022 484.662 Q70.8809 489.245 70.8809 497.995 Q70.8809 506.722 67.8022 511.329 Q64.7467 515.912 58.9365 515.912 Q53.1264 515.912 50.0477 511.329 Q46.9921 506.722 46.9921 497.995 Q46.9921 489.245 50.0477 484.662 Q53.1264 480.056 58.9365 480.056 Z" fill="#000000" fill-rule="nonzero" fill-opacity="1"></path><path clip-path="url(#clip300)" d="M79.0984 509.361 L83.9827 509.361 L83.9827 515.241 L79.0984 515.241 L79.0984 509.361 Z" fill="#000000" fill-rule="nonzero" fill-opacity="1"></path><path clip-path="url(#clip300)" d="M104.168 483.759 Q100.557 483.759 98.728 487.324 Q96.9224 490.866 96.9224 497.995 Q96.9224 505.102 98.728 508.667 Q100.557 512.208 104.168 512.208 Q107.802 512.208 109.608 508.667 Q111.436 505.102 111.436 497.995 Q111.436 490.866 109.608 487.324 Q107.802 483.759 104.168 483.759 M104.168 480.056 Q109.978 480.056 113.033 484.662 Q116.112 489.245 116.112 497.995 Q116.112 506.722 113.033 511.329 Q109.978 515.912 104.168 515.912 Q98.3576 515.912 95.2789 511.329 Q92.2234 506.722 92.2234 497.995 Q92.2234 489.245 95.2789 484.662 Q98.3576 480.056 104.168 480.056 Z" fill="#000000" fill-rule="nonzero" fill-opacity="1"></path><path clip-path="url(#clip300)" d="M134.33 483.759 Q130.719 483.759 128.89 487.324 Q127.084 490.866 127.084 497.995 Q127.084 505.102 128.89 508.667 Q130.719 512.208 134.33 512.208 Q137.964 512.208 139.769 508.667 Q141.598 505.102 141.598 497.995 Q141.598 490.866 139.769 487.324 Q137.964 483.759 134.33 483.759 M134.33 480.056 Q140.14 480.056 143.195 484.662 Q146.274 489.245 146.274 497.995 Q146.274 506.722 143.195 511.329 Q140.14 515.912 134.33 515.912 Q128.519 515.912 125.441 511.329 Q122.385 506.722 122.385 497.995 Q122.385 489.245 125.441 484.662 Q128.519 480.056 134.33 480.056 Z" fill="#000000" fill-rule="nonzero" fill-opacity="1"></path><path clip-path="url(#clip300)" d="M165.07 496.097 Q161.922 496.097 160.07 498.25 Q158.242 500.403 158.242 504.153 Q158.242 507.88 160.07 510.055 Q161.922 512.208 165.07 512.208 Q168.218 512.208 170.047 510.055 Q171.899 507.88 171.899 504.153 Q171.899 500.403 170.047 498.25 Q168.218 496.097 165.07 496.097 M174.353 481.444 L174.353 485.704 Q172.593 484.87 170.788 484.431 Q169.005 483.991 167.246 483.991 Q162.617 483.991 160.163 487.116 Q157.732 490.241 157.385 496.56 Q158.751 494.546 160.811 493.481 Q162.871 492.393 165.348 492.393 Q170.556 492.393 173.566 495.565 Q176.598 498.713 176.598 504.153 Q176.598 509.477 173.45 512.694 Q170.302 515.912 165.07 515.912 Q159.075 515.912 155.904 511.329 Q152.732 506.722 152.732 497.995 Q152.732 489.801 156.621 484.94 Q160.51 480.056 167.061 480.056 Q168.82 480.056 170.603 480.403 Q172.408 480.75 174.353 481.444 Z" fill="#000000" fill-rule="nonzero" fill-opacity="1"></path><path clip-path="url(#clip300)" d="M59.2837 353.037 Q55.6726 353.037 53.8439 356.602 Q52.0384 360.144 52.0384 367.273 Q52.0384 374.38 53.8439 377.944 Q55.6726 381.486 59.2837 381.486 Q62.918 381.486 64.7235 377.944 Q66.5522 374.38 66.5522 367.273 Q66.5522 360.144 64.7235 356.602 Q62.918 353.037 59.2837 353.037 M59.2837 349.333 Q65.0939 349.333 68.1494 353.94 Q71.2281 358.523 71.2281 367.273 Q71.2281 376 68.1494 380.606 Q65.0939 385.19 59.2837 385.19 Q53.4736 385.19 50.3949 380.606 Q47.3393 376 47.3393 367.273 Q47.3393 358.523 50.3949 353.94 Q53.4736 349.333 59.2837 349.333 Z" fill="#000000" fill-rule="nonzero" fill-opacity="1"></path><path clip-path="url(#clip300)" d="M79.4457 378.639 L84.3299 378.639 L84.3299 384.518 L79.4457 384.518 L79.4457 378.639 Z" fill="#000000" fill-rule="nonzero" fill-opacity="1"></path><path clip-path="url(#clip300)" d="M104.515 353.037 Q100.904 353.037 99.0752 356.602 Q97.2696 360.144 97.2696 367.273 Q97.2696 374.38 99.0752 377.944 Q100.904 381.486 104.515 381.486 Q108.149 381.486 109.955 377.944 Q111.783 374.38 111.783 367.273 Q111.783 360.144 109.955 356.602 Q108.149 353.037 104.515 353.037 M104.515 349.333 Q110.325 349.333 113.381 353.94 Q116.459 358.523 116.459 367.273 Q116.459 376 113.381 380.606 Q110.325 385.19 104.515 385.19 Q98.7048 385.19 95.6261 380.606 Q92.5706 376 92.5706 367.273 Q92.5706 358.523 95.6261 353.94 Q98.7048 349.333 104.515 349.333 Z" fill="#000000" fill-rule="nonzero" fill-opacity="1"></path><path clip-path="url(#clip300)" d="M134.677 353.037 Q131.066 353.037 129.237 356.602 Q127.432 360.144 127.432 367.273 Q127.432 374.38 129.237 377.944 Q131.066 381.486 134.677 381.486 Q138.311 381.486 140.117 377.944 Q141.945 374.38 141.945 367.273 Q141.945 360.144 140.117 356.602 Q138.311 353.037 134.677 353.037 M134.677 349.333 Q140.487 349.333 143.543 353.94 Q146.621 358.523 146.621 367.273 Q146.621 376 143.543 380.606 Q140.487 385.19 134.677 385.19 Q128.867 385.19 125.788 380.606 Q122.732 376 122.732 367.273 Q122.732 358.523 125.788 353.94 Q128.867 349.333 134.677 349.333 Z" fill="#000000" fill-rule="nonzero" fill-opacity="1"></path><path clip-path="url(#clip300)" d="M154.978 383.801 L154.978 379.542 Q156.737 380.375 158.542 380.815 Q160.348 381.255 162.084 381.255 Q166.714 381.255 169.144 378.153 Q171.598 375.028 171.945 368.685 Q170.603 370.676 168.542 371.741 Q166.482 372.806 163.982 372.806 Q158.797 372.806 155.765 369.681 Q152.755 366.532 152.755 361.093 Q152.755 355.769 155.904 352.551 Q159.052 349.333 164.283 349.333 Q170.279 349.333 173.427 353.94 Q176.598 358.523 176.598 367.273 Q176.598 375.444 172.709 380.329 Q168.843 385.19 162.292 385.19 Q160.533 385.19 158.728 384.842 Q156.922 384.495 154.978 383.801 M164.283 369.148 Q167.431 369.148 169.26 366.995 Q171.112 364.843 171.112 361.093 Q171.112 357.366 169.26 355.213 Q167.431 353.037 164.283 353.037 Q161.135 353.037 159.283 355.213 Q157.454 357.366 157.454 361.093 Q157.454 364.843 159.283 366.995 Q161.135 369.148 164.283 369.148 Z" fill="#000000" fill-rule="nonzero" fill-opacity="1"></path><path clip-path="url(#clip300)" d="M60.6958 222.315 Q57.0847 222.315 55.256 225.88 Q53.4504 229.421 53.4504 236.551 Q53.4504 243.657 55.256 247.222 Q57.0847 250.764 60.6958 250.764 Q64.33 250.764 66.1355 247.222 Q67.9642 243.657 67.9642 236.551 Q67.9642 229.421 66.1355 225.88 Q64.33 222.315 60.6958 222.315 M60.6958 218.611 Q66.5059 218.611 69.5614 223.218 Q72.6401 227.801 72.6401 236.551 Q72.6401 245.278 69.5614 249.884 Q66.5059 254.468 60.6958 254.468 Q54.8856 254.468 51.8069 249.884 Q48.7514 245.278 48.7514 236.551 Q48.7514 227.801 51.8069 223.218 Q54.8856 218.611 60.6958 218.611 Z" fill="#000000" fill-rule="nonzero" fill-opacity="1"></path><path clip-path="url(#clip300)" d="M80.8577 247.917 L85.7419 247.917 L85.7419 253.796 L80.8577 253.796 L80.8577 247.917 Z" fill="#000000" fill-rule="nonzero" fill-opacity="1"></path><path clip-path="url(#clip300)" d="M105.927 222.315 Q102.316 222.315 100.487 225.88 Q98.6817 229.421 98.6817 236.551 Q98.6817 243.657 100.487 247.222 Q102.316 250.764 105.927 250.764 Q109.561 250.764 111.367 247.222 Q113.195 243.657 113.195 236.551 Q113.195 229.421 111.367 225.88 Q109.561 222.315 105.927 222.315 M105.927 218.611 Q111.737 218.611 114.793 223.218 Q117.871 227.801 117.871 236.551 Q117.871 245.278 114.793 249.884 Q111.737 254.468 105.927 254.468 Q100.117 254.468 97.0382 249.884 Q93.9826 245.278 93.9826 236.551 Q93.9826 227.801 97.0382 223.218 Q100.117 218.611 105.927 218.611 Z" fill="#000000" fill-rule="nonzero" fill-opacity="1"></path><path clip-path="url(#clip300)" d="M126.899 249.861 L134.538 249.861 L134.538 223.495 L126.228 225.162 L126.228 220.903 L134.492 219.236 L139.168 219.236 L139.168 249.861 L146.806 249.861 L146.806 253.796 L126.899 253.796 L126.899 249.861 Z" fill="#000000" fill-rule="nonzero" fill-opacity="1"></path><path clip-path="url(#clip300)" d="M160.279 249.861 L176.598 249.861 L176.598 253.796 L154.654 253.796 L154.654 249.861 Q157.316 247.106 161.899 242.477 Q166.505 237.824 167.686 236.481 Q169.931 233.958 170.811 232.222 Q171.714 230.463 171.714 228.773 Q171.714 226.019 169.769 224.282 Q167.848 222.546 164.746 222.546 Q162.547 222.546 160.093 223.31 Q157.663 224.074 154.885 225.625 L154.885 220.903 Q157.709 219.769 160.163 219.19 Q162.617 218.611 164.654 218.611 Q170.024 218.611 173.218 221.296 Q176.413 223.982 176.413 228.472 Q176.413 230.602 175.603 232.523 Q174.816 234.421 172.709 237.014 Q172.13 237.685 169.029 240.903 Q165.927 244.097 160.279 249.861 Z" fill="#000000" fill-rule="nonzero" fill-opacity="1"></path><path clip-path="url(#clip300)" d="M60.0939 91.5927 Q56.4828 91.5927 54.6541 95.1575 Q52.8486 98.6991 52.8486 105.829 Q52.8486 112.935 54.6541 116.5 Q56.4828 120.042 60.0939 120.042 Q63.7281 120.042 65.5337 116.5 Q67.3624 112.935 67.3624 105.829 Q67.3624 98.6991 65.5337 95.1575 Q63.7281 91.5927 60.0939 91.5927 M60.0939 87.889 Q65.9041 87.889 68.9596 92.4955 Q72.0383 97.0788 72.0383 105.829 Q72.0383 114.556 68.9596 119.162 Q65.9041 123.745 60.0939 123.745 Q54.2838 123.745 51.2051 119.162 Q48.1495 114.556 48.1495 105.829 Q48.1495 97.0788 51.2051 92.4955 Q54.2838 87.889 60.0939 87.889 Z" fill="#000000" fill-rule="nonzero" fill-opacity="1"></path><path clip-path="url(#clip300)" d="M80.2558 117.194 L85.1401 117.194 L85.1401 123.074 L80.2558 123.074 L80.2558 117.194 Z" fill="#000000" fill-rule="nonzero" fill-opacity="1"></path><path clip-path="url(#clip300)" d="M105.325 91.5927 Q101.714 91.5927 99.8854 95.1575 Q98.0798 98.6991 98.0798 105.829 Q98.0798 112.935 99.8854 116.5 Q101.714 120.042 105.325 120.042 Q108.959 120.042 110.765 116.5 Q112.594 112.935 112.594 105.829 Q112.594 98.6991 110.765 95.1575 Q108.959 91.5927 105.325 91.5927 M105.325 87.889 Q111.135 87.889 114.191 92.4955 Q117.27 97.0788 117.27 105.829 Q117.27 114.556 114.191 119.162 Q111.135 123.745 105.325 123.745 Q99.515 123.745 96.4363 119.162 Q93.3808 114.556 93.3808 105.829 Q93.3808 97.0788 96.4363 92.4955 Q99.515 87.889 105.325 87.889 Z" fill="#000000" fill-rule="nonzero" fill-opacity="1"></path><path clip-path="url(#clip300)" d="M126.297 119.139 L133.936 119.139 L133.936 92.7733 L125.626 94.4399 L125.626 90.1807 L133.89 88.514 L138.566 88.514 L138.566 119.139 L146.205 119.139 L146.205 123.074 L126.297 123.074 L126.297 119.139 Z" fill="#000000" fill-rule="nonzero" fill-opacity="1"></path><path clip-path="url(#clip300)" d="M155.695 88.514 L174.052 88.514 L174.052 92.4492 L159.978 92.4492 L159.978 100.921 Q160.996 100.574 162.015 100.412 Q163.033 100.227 164.052 100.227 Q169.839 100.227 173.218 103.398 Q176.598 106.569 176.598 111.986 Q176.598 117.565 173.126 120.667 Q169.654 123.745 163.334 123.745 Q161.158 123.745 158.89 123.375 Q156.644 123.005 154.237 122.264 L154.237 117.565 Q156.32 118.699 158.542 119.255 Q160.765 119.81 163.242 119.81 Q167.246 119.81 169.584 117.704 Q171.922 115.597 171.922 111.986 Q171.922 108.375 169.584 106.269 Q167.246 104.162 163.242 104.162 Q161.367 104.162 159.492 104.579 Q157.64 104.995 155.695 105.875 L155.695 88.514 Z" fill="#000000" fill-rule="nonzero" fill-opacity="1"></path><polyline clip-path="url(#clip302)" style="stroke:#42b219; stroke-linecap:round; stroke-linejoin:round; stroke-width:4; stroke-opacity:1; fill:none" points="307.47,504.866 652.772,449.738 998.074,429.431 1343.38,423.134 1688.68,423.197 2033.98,426.291 2379.28,430.783 2724.58,435.815 3069.88,440.923 "></polyline>
<circle clip-path="url(#clip302)" cx="307.47" cy="427.417" r="14.4" fill="#42b219" fill-rule="evenodd" fill-opacity="0.8" stroke="#000000" stroke-opacity="0.8" stroke-width="0.8"></circle>
<circle clip-path="url(#clip302)" cx="652.772" cy="393.54" r="14.4" fill="#42b219" fill-rule="evenodd" fill-opacity="0.8" stroke="#000000" stroke-opacity="0.8" stroke-width="0.8"></circle>
<circle clip-path="url(#clip302)" cx="998.074" cy="385.598" r="14.4" fill="#42b219" fill-rule="evenodd" fill-opacity="0.8" stroke="#000000" stroke-opacity="0.8" stroke-width="0.8"></circle>
<circle clip-path="url(#clip302)" cx="1343.38" cy="387.477" r="14.4" fill="#42b219" fill-rule="evenodd" fill-opacity="0.8" stroke="#000000" stroke-opacity="0.8" stroke-width="0.8"></circle>
<circle clip-path="url(#clip302)" cx="1688.68" cy="393.638" r="14.4" fill="#42b219" fill-rule="evenodd" fill-opacity="0.8" stroke="#000000" stroke-opacity="0.8" stroke-width="0.8"></circle>
<circle clip-path="url(#clip302)" cx="2033.98" cy="401.582" r="14.4" fill="#42b219" fill-rule="evenodd" fill-opacity="0.8" stroke="#000000" stroke-opacity="0.8" stroke-width="0.8"></circle>
<circle clip-path="url(#clip302)" cx="2379.28" cy="410.045" r="14.4" fill="#42b219" fill-rule="evenodd" fill-opacity="0.8" stroke="#000000" stroke-opacity="0.8" stroke-width="0.8"></circle>
<circle clip-path="url(#clip302)" cx="2724.58" cy="418.373" r="14.4" fill="#42b219" fill-rule="evenodd" fill-opacity="0.8" stroke="#000000" stroke-opacity="0.8" stroke-width="0.8"></circle>
<circle clip-path="url(#clip302)" cx="3069.88" cy="426.238" r="14.4" fill="#42b219" fill-rule="evenodd" fill-opacity="0.8" stroke="#000000" stroke-opacity="0.8" stroke-width="0.8"></circle>
<polyline clip-path="url(#clip302)" style="stroke:#42b219; stroke-linecap:round; stroke-linejoin:round; stroke-width:4; stroke-opacity:1; fill:none" points="307.47,76.2239 652.772,180.287 998.074,236.528 1343.38,275.782 1688.68,306.776 2033.98,332.477 2379.28,354.191 2724.58,372.683 3069.88,388.496 "></polyline>
<circle clip-path="url(#clip302)" cx="307.47" cy="66.1725" r="14.4" fill="#42b219" fill-rule="evenodd" fill-opacity="0.8" stroke="#000000" stroke-opacity="0.8" stroke-width="0.8"></circle>
<circle clip-path="url(#clip302)" cx="652.772" cy="167.594" r="14.4" fill="#42b219" fill-rule="evenodd" fill-opacity="0.8" stroke="#000000" stroke-opacity="0.8" stroke-width="0.8"></circle>
<circle clip-path="url(#clip302)" cx="998.074" cy="221.008" r="14.4" fill="#42b219" fill-rule="evenodd" fill-opacity="0.8" stroke="#000000" stroke-opacity="0.8" stroke-width="0.8"></circle>
<circle clip-path="url(#clip302)" cx="1343.38" cy="259.584" r="14.4" fill="#42b219" fill-rule="evenodd" fill-opacity="0.8" stroke="#000000" stroke-opacity="0.8" stroke-width="0.8"></circle>
<circle clip-path="url(#clip302)" cx="1688.68" cy="291.359" r="14.4" fill="#42b219" fill-rule="evenodd" fill-opacity="0.8" stroke="#000000" stroke-opacity="0.8" stroke-width="0.8"></circle>
<circle clip-path="url(#clip302)" cx="2033.98" cy="318.554" r="14.4" fill="#42b219" fill-rule="evenodd" fill-opacity="0.8" stroke="#000000" stroke-opacity="0.8" stroke-width="0.8"></circle>
<circle clip-path="url(#clip302)" cx="2379.28" cy="342.004" r="14.4" fill="#42b219" fill-rule="evenodd" fill-opacity="0.8" stroke="#000000" stroke-opacity="0.8" stroke-width="0.8"></circle>
<circle clip-path="url(#clip302)" cx="2724.58" cy="362.218" r="14.4" fill="#42b219" fill-rule="evenodd" fill-opacity="0.8" stroke="#000000" stroke-opacity="0.8" stroke-width="0.8"></circle>
<circle clip-path="url(#clip302)" cx="3069.88" cy="379.621" r="14.4" fill="#42b219" fill-rule="evenodd" fill-opacity="0.8" stroke="#000000" stroke-opacity="0.8" stroke-width="0.8"></circle>
<polyline clip-path="url(#clip302)" style="stroke:#19b221; stroke-linecap:round; stroke-linejoin:round; stroke-width:4; stroke-opacity:1; fill:none" points="307.47,697.119 652.772,648.134 998.074,611.967 1343.38,586.616 1688.68,568.754 2033.98,555.758 2379.28,545.882 2724.58,538.049 3069.88,531.61 "></polyline>
<circle clip-path="url(#clip302)" cx="307.47" cy="680.269" r="14.4" fill="#19b221" fill-rule="evenodd" fill-opacity="0.8" stroke="#000000" stroke-opacity="0.8" stroke-width="0.8"></circle>
<circle clip-path="url(#clip302)" cx="652.772" cy="630.634" r="14.4" fill="#19b221" fill-rule="evenodd" fill-opacity="0.8" stroke="#000000" stroke-opacity="0.8" stroke-width="0.8"></circle>
<circle clip-path="url(#clip302)" cx="998.074" cy="596.715" r="14.4" fill="#19b221" fill-rule="evenodd" fill-opacity="0.8" stroke="#000000" stroke-opacity="0.8" stroke-width="0.8"></circle>
<circle clip-path="url(#clip302)" cx="1343.38" cy="574.243" r="14.4" fill="#19b221" fill-rule="evenodd" fill-opacity="0.8" stroke="#000000" stroke-opacity="0.8" stroke-width="0.8"></circle>
<circle clip-path="url(#clip302)" cx="1688.68" cy="558.967" r="14.4" fill="#19b221" fill-rule="evenodd" fill-opacity="0.8" stroke="#000000" stroke-opacity="0.8" stroke-width="0.8"></circle>
<circle clip-path="url(#clip302)" cx="2033.98" cy="548.014" r="14.4" fill="#19b221" fill-rule="evenodd" fill-opacity="0.8" stroke="#000000" stroke-opacity="0.8" stroke-width="0.8"></circle>
<circle clip-path="url(#clip302)" cx="2379.28" cy="539.668" r="14.4" fill="#19b221" fill-rule="evenodd" fill-opacity="0.8" stroke="#000000" stroke-opacity="0.8" stroke-width="0.8"></circle>
<circle clip-path="url(#clip302)" cx="2724.58" cy="532.961" r="14.4" fill="#19b221" fill-rule="evenodd" fill-opacity="0.8" stroke="#000000" stroke-opacity="0.8" stroke-width="0.8"></circle>
<circle clip-path="url(#clip302)" cx="3069.88" cy="527.356" r="14.4" fill="#19b221" fill-rule="evenodd" fill-opacity="0.8" stroke="#000000" stroke-opacity="0.8" stroke-width="0.8"></circle>
<polyline clip-path="url(#clip302)" style="stroke:#19b23f; stroke-linecap:round; stroke-linejoin:round; stroke-width:4; stroke-opacity:1; fill:none" points="307.47,404.073 652.772,443.819 998.074,469.158 1343.38,483.81 1688.68,491.777 2033.98,495.781 2379.28,497.505 2724.58,497.955 3069.88,497.722 "></polyline>
<circle clip-path="url(#clip302)" cx="307.47" cy="391.41" r="14.4" fill="#19b23f" fill-rule="evenodd" fill-opacity="0.8" stroke="#000000" stroke-opacity="0.8" stroke-width="0.8"></circle>
<circle clip-path="url(#clip302)" cx="652.772" cy="446.56" r="14.4" fill="#19b23f" fill-rule="evenodd" fill-opacity="0.8" stroke="#000000" stroke-opacity="0.8" stroke-width="0.8"></circle>
<circle clip-path="url(#clip302)" cx="998.074" cy="476.952" r="14.4" fill="#19b23f" fill-rule="evenodd" fill-opacity="0.8" stroke="#000000" stroke-opacity="0.8" stroke-width="0.8"></circle>
<circle clip-path="url(#clip302)" cx="1343.38" cy="492.673" r="14.4" fill="#19b23f" fill-rule="evenodd" fill-opacity="0.8" stroke="#000000" stroke-opacity="0.8" stroke-width="0.8"></circle>
<circle clip-path="url(#clip302)" cx="1688.68" cy="500.237" r="14.4" fill="#19b23f" fill-rule="evenodd" fill-opacity="0.8" stroke="#000000" stroke-opacity="0.8" stroke-width="0.8"></circle>
<circle clip-path="url(#clip302)" cx="2033.98" cy="503.357" r="14.4" fill="#19b23f" fill-rule="evenodd" fill-opacity="0.8" stroke="#000000" stroke-opacity="0.8" stroke-width="0.8"></circle>
<circle clip-path="url(#clip302)" cx="2379.28" cy="504.104" r="14.4" fill="#19b23f" fill-rule="evenodd" fill-opacity="0.8" stroke="#000000" stroke-opacity="0.8" stroke-width="0.8"></circle>
<circle clip-path="url(#clip302)" cx="2724.58" cy="503.632" r="14.4" fill="#19b23f" fill-rule="evenodd" fill-opacity="0.8" stroke="#000000" stroke-opacity="0.8" stroke-width="0.8"></circle>
<circle clip-path="url(#clip302)" cx="3069.88" cy="502.578" r="14.4" fill="#19b23f" fill-rule="evenodd" fill-opacity="0.8" stroke="#000000" stroke-opacity="0.8" stroke-width="0.8"></circle>
</svg>