<svg xmlns="http://www.w3.org/2000/svg" xmlns:xlink="http://www.w3.org/1999/xlink" width="800" height="200" viewBox="0 0 3200 800">
<defs>
  <clipPath id="clip860">
    <rect x="0" y="0" width="3200" height="800"></rect>
  </clipPath>
</defs>
<path clip-path="url(#clip860)" d="M0 800 L3200 800 L3200 0 L0 0  Z" fill="#ffffff" fill-rule="evenodd" fill-opacity="1"></path>
<defs>
  <clipPath id="clip861">
    <rect x="640" y="0" width="2241" height="800"></rect>
  </clipPath>
</defs>
<path clip-path="url(#clip860)" d="M194.76 716.048 L3152.76 716.048 L3152.76 47.2441 L194.76 47.2441  Z" fill="#ffffff" fill-rule="evenodd" fill-opacity="1"></path>
<defs>
  <clipPath id="clip862">
    <rect x="194" y="47" width="2959" height="670"></rect>
  </clipPath>
</defs>
<polyline clip-path="url(#clip862)" style="stroke:#000000; stroke-linecap:round; stroke-linejoin:round; stroke-width:2; stroke-opacity:0.1; fill:none" points="278.477,716.048 278.477,47.2441 "></polyline>
<polyline clip-path="url(#clip862)" style="stroke:#000000; stroke-linecap:round; stroke-linejoin:round; stroke-width:2; stroke-opacity:0.1; fill:none" points="1150.53,716.048 1150.53,47.2441 "></polyline>
<polyline clip-path="url(#clip862)" style="stroke:#000000; stroke-linecap:round; stroke-linejoin:round; stroke-width:2; stroke-opacity:0.1; fill:none" points="2022.58,716.048 2022.58,47.2441 "></polyline>
<polyline clip-path="url(#clip862)" style="stroke:#000000; stroke-linecap:round; stroke-linejoin:round; stroke-width:2; stroke-opacity:0.1; fill:none" points="2894.63,716.048 2894.63,47.2441 "></polyline>
<polyline clip-path="url(#clip862)" style="stroke:#000000; stroke-linecap:round; stroke-linejoin:round; stroke-width:2; stroke-opacity:0.1; fill:none" points="194.76,603.179 3152.76,603.179 "></polyline>
<polyline clip-path="url(#clip862)" style="stroke:#000000; stroke-linecap:round; stroke-linejoin:round; stroke-width:2; stroke-opacity:0.1; fill:none" points="194.76,469.648 3152.76,469.648 "></polyline>
<polyline clip-path="url(#clip862)" style="stroke:#000000; stroke-linecap:round; stroke-linejoin:round; stroke-width:2; stroke-opacity:0.1; fill:none" points="194.76,336.118 3152.76,336.118 "></polyline>
<polyline clip-path="url(#clip862)" style="stroke:#000000; stroke-linecap:round; stroke-linejoin:round; stroke-width:2; stroke-opacity:0.1; fill:none" points="194.76,202.588 3152.76,202.588 "></polyline>
<polyline clip-path="url(#clip862)" style="stroke:#000000; stroke-linecap:round; stroke-linejoin:round; stroke-width:2; stroke-opacity:0.1; fill:none" points="194.76,69.0574 3152.76,69.0574 "></polyline>
<polyline clip-path="url(#clip860)" style="stroke:#000000; stroke-linecap:round; stroke-linejoin:round; stroke-width:4; stroke-opacity:1; fill:none" points="194.76,716.048 3152.76,716.048 "></polyline>
<polyline clip-path="url(#clip860)" style="stroke:#000000; stroke-linecap:round; stroke-linejoin:round; stroke-width:4; stroke-opacity:1; fill:none" points="278.477,716.048 278.477,697.15 "></polyline>
<polyline clip-path="url(#clip860)" style="stroke:#000000; stroke-linecap:round; stroke-linejoin:round; stroke-width:4; stroke-opacity:1; fill:none" points="1150.53,716.048 1150.53,697.15 "></polyline>
<polyline clip-path="url(#clip860)" style="stroke:#000000; stroke-linecap:round; stroke-linejoin:round; stroke-width:4; stroke-opacity:1; fill:none" points="2022.58,716.048 2022.58,697.15 "></polyline>
<polyline clip-path="url(#clip860)" style="stroke:#000000; stroke-linecap:round; stroke-linejoin:round; stroke-width:4; stroke-opacity:1; fill:none" points="2894.63,716.048 2894.63,697.15 "></polyline>
<path clip-path="url(#clip860)" d="M268.755 750.288 L287.111 750.288 L287.111 754.223 L273.037 754.223 L273.037 762.695 Q274.056 762.348 275.074 762.186 Q276.093 762.001 277.111 762.001 Q282.898 762.001 286.278 765.172 Q289.657 768.343 289.657 773.76 Q289.657 779.339 286.185 782.44 Q282.713 785.519 276.394 785.519 Q274.218 785.519 271.949 785.149 Q269.704 784.778 267.296 784.038 L267.296 779.339 Q269.38 780.473 271.602 781.028 Q273.824 781.584 276.301 781.584 Q280.306 781.584 282.644 779.478 Q284.982 777.371 284.982 773.76 Q284.982 770.149 282.644 768.042 Q280.306 765.936 276.301 765.936 Q274.426 765.936 272.551 766.353 Q270.699 766.769 268.755 767.649 L268.755 750.288 Z" fill="#000000" fill-rule="nonzero" fill-opacity="1"></path><path clip-path="url(#clip860)" d="M1125.22 780.913 L1132.85 780.913 L1132.85 754.547 L1124.54 756.214 L1124.54 751.955 L1132.81 750.288 L1137.48 750.288 L1137.48 780.913 L1145.12 780.913 L1145.12 784.848 L1125.22 784.848 L1125.22 780.913 Z" fill="#000000" fill-rule="nonzero" fill-opacity="1"></path><path clip-path="url(#clip860)" d="M1164.57 753.367 Q1160.96 753.367 1159.13 756.931 Q1157.32 760.473 1157.32 767.603 Q1157.32 774.709 1159.13 778.274 Q1160.96 781.815 1164.57 781.815 Q1168.2 781.815 1170.01 778.274 Q1171.84 774.709 1171.84 767.603 Q1171.84 760.473 1170.01 756.931 Q1168.2 753.367 1164.57 753.367 M1164.57 749.663 Q1170.38 749.663 1173.43 754.269 Q1176.51 758.853 1176.51 767.603 Q1176.51 776.329 1173.43 780.936 Q1170.38 785.519 1164.57 785.519 Q1158.76 785.519 1155.68 780.936 Q1152.62 776.329 1152.62 767.603 Q1152.62 758.853 1155.68 754.269 Q1158.76 749.663 1164.57 749.663 Z" fill="#000000" fill-rule="nonzero" fill-opacity="1"></path><path clip-path="url(#clip860)" d="M1997.76 780.913 L2005.4 780.913 L2005.4 754.547 L1997.09 756.214 L1997.09 751.955 L2005.36 750.288 L2010.03 750.288 L2010.03 780.913 L2017.67 780.913 L2017.67 784.848 L1997.76 784.848 L1997.76 780.913 Z" fill="#000000" fill-rule="nonzero" fill-opacity="1"></path><path clip-path="url(#clip860)" d="M2027.16 750.288 L2045.52 750.288 L2045.52 754.223 L2031.44 754.223 L2031.44 762.695 Q2032.46 762.348 2033.48 762.186 Q2034.5 762.001 2035.52 762.001 Q2041.31 762.001 2044.68 765.172 Q2048.06 768.343 2048.06 773.76 Q2048.06 779.339 2044.59 782.44 Q2041.12 785.519 2034.8 785.519 Q2032.62 785.519 2030.36 785.149 Q2028.11 784.778 2025.7 784.038 L2025.7 779.339 Q2027.79 780.473 2030.01 781.028 Q2032.23 781.584 2034.71 781.584 Q2038.71 781.584 2041.05 779.478 Q2043.39 777.371 2043.39 773.76 Q2043.39 770.149 2041.05 768.042 Q2038.71 765.936 2034.71 765.936 Q2032.83 765.936 2030.96 766.353 Q2029.11 766.769 2027.16 767.649 L2027.16 750.288 Z" fill="#000000" fill-rule="nonzero" fill-opacity="1"></path><path clip-path="url(#clip860)" d="M2873.4 780.913 L2889.72 780.913 L2889.72 784.848 L2867.78 784.848 L2867.78 780.913 Q2870.44 778.158 2875.02 773.528 Q2879.63 768.876 2880.81 767.533 Q2883.05 765.01 2883.93 763.274 Q2884.84 761.515 2884.84 759.825 Q2884.84 757.07 2882.89 755.334 Q2880.97 753.598 2877.87 753.598 Q2875.67 753.598 2873.22 754.362 Q2870.79 755.126 2868.01 756.677 L2868.01 751.955 Q2870.83 750.82 2873.29 750.242 Q2875.74 749.663 2877.78 749.663 Q2883.15 749.663 2886.34 752.348 Q2889.54 755.033 2889.54 759.524 Q2889.54 761.654 2888.73 763.575 Q2887.94 765.473 2885.83 768.066 Q2885.25 768.737 2882.15 771.954 Q2879.05 775.149 2873.4 780.913 Z" fill="#000000" fill-rule="nonzero" fill-opacity="1"></path><path clip-path="url(#clip860)" d="M2909.54 753.367 Q2905.93 753.367 2904.1 756.931 Q2902.29 760.473 2902.29 767.603 Q2902.29 774.709 2904.1 778.274 Q2905.93 781.815 2909.54 781.815 Q2913.17 781.815 2914.98 778.274 Q2916.8 774.709 2916.8 767.603 Q2916.8 760.473 2914.98 756.931 Q2913.17 753.367 2909.54 753.367 M2909.54 749.663 Q2915.35 749.663 2918.4 754.269 Q2921.48 758.853 2921.48 767.603 Q2921.48 776.329 2918.4 780.936 Q2915.35 785.519 2909.54 785.519 Q2903.73 785.519 2900.65 780.936 Q2897.59 776.329 2897.59 767.603 Q2897.59 758.853 2900.65 754.269 Q2903.73 749.663 2909.54 749.663 Z" fill="#000000" fill-rule="nonzero" fill-opacity="1"></path><polyline clip-path="url(#clip860)" style="stroke:#000000; stroke-linecap:round; stroke-linejoin:round; stroke-width:4; stroke-opacity:1; fill:none" points="194.76,716.048 194.76,47.2441 "></polyline>
<polyline clip-path="url(#clip860)" style="stroke:#000000; stroke-linecap:round; stroke-linejoin:round; stroke-width:4; stroke-opacity:1; fill:none" points="194.76,603.179 213.658,603.179 "></polyline>
<polyline clip-path="url(#clip860)" style="stroke:#000000; stroke-linecap:round; stroke-linejoin:round; stroke-width:4; stroke-opacity:1; fill:none" points="194.76,469.648 213.658,469.648 "></polyline>
<polyline clip-path="url(#clip860)" style="stroke:#000000; stroke-linecap:round; stroke-linejoin:round; stroke-width:4; stroke-opacity:1; fill:none" points="194.76,336.118 213.658,336.118 "></polyline>
<polyline clip-path="url(#clip860)" style="stroke:#000000; stroke-linecap:round; stroke-linejoin:round; stroke-width:4; stroke-opacity:1; fill:none" points="194.76,202.588 213.658,202.588 "></polyline>
<polyline clip-path="url(#clip860)" style="stroke:#000000; stroke-linecap:round; stroke-linejoin:round; stroke-width:4; stroke-opacity:1; fill:none" points="194.76,69.0574 213.658,69.0574 "></polyline>
<path clip-path="url(#clip860)" d="M59.2606 588.977 Q55.6495 588.977 53.8208 592.542 Q52.0152 596.084 52.0152 603.213 Q52.0152 610.32 53.8208 613.885 Q55.6495 617.426 59.2606 617.426 Q62.8948 617.426 64.7004 613.885 Q66.5291 610.32 66.5291 603.213 Q66.5291 596.084 64.7004 592.542 Q62.8948 588.977 59.2606 588.977 M59.2606 585.274 Q65.0707 585.274 68.1263 589.88 Q71.205 594.463 71.205 603.213 Q71.205 611.94 68.1263 616.547 Q65.0707 621.13 59.2606 621.13 Q53.4504 621.13 50.3717 616.547 Q47.3162 611.94 47.3162 603.213 Q47.3162 594.463 50.3717 589.88 Q53.4504 585.274 59.2606 585.274 Z" fill="#000000" fill-rule="nonzero" fill-opacity="1"></path><path clip-path="url(#clip860)" d="M79.4225 614.579 L84.3067 614.579 L84.3067 620.459 L79.4225 620.459 L79.4225 614.579 Z" fill="#000000" fill-rule="nonzero" fill-opacity="1"></path><path clip-path="url(#clip860)" d="M104.492 588.977 Q100.881 588.977 99.052 592.542 Q97.2465 596.084 97.2465 603.213 Q97.2465 610.32 99.052 613.885 Q100.881 617.426 104.492 617.426 Q108.126 617.426 109.932 613.885 Q111.76 610.32 111.76 603.213 Q111.76 596.084 109.932 592.542 Q108.126 588.977 104.492 588.977 M104.492 585.274 Q110.302 585.274 113.358 589.88 Q116.436 594.463 116.436 603.213 Q116.436 611.94 113.358 616.547 Q110.302 621.13 104.492 621.13 Q98.6817 621.13 95.603 616.547 Q92.5474 611.94 92.5474 603.213 Q92.5474 594.463 95.603 589.88 Q98.6817 585.274 104.492 585.274 Z" fill="#000000" fill-rule="nonzero" fill-opacity="1"></path><path clip-path="url(#clip860)" d="M135.232 601.315 Q132.084 601.315 130.232 603.468 Q128.404 605.621 128.404 609.371 Q128.404 613.098 130.232 615.274 Q132.084 617.426 135.232 617.426 Q138.381 617.426 140.209 615.274 Q142.061 613.098 142.061 609.371 Q142.061 605.621 140.209 603.468 Q138.381 601.315 135.232 601.315 M144.515 586.663 L144.515 590.922 Q142.756 590.088 140.95 589.649 Q139.168 589.209 137.408 589.209 Q132.779 589.209 130.325 592.334 Q127.894 595.459 127.547 601.778 Q128.913 599.764 130.973 598.7 Q133.033 597.612 135.51 597.612 Q140.718 597.612 143.728 600.783 Q146.76 603.931 146.76 609.371 Q146.76 614.695 143.612 617.912 Q140.464 621.13 135.232 621.13 Q129.237 621.13 126.066 616.547 Q122.894 611.94 122.894 603.213 Q122.894 595.019 126.783 590.158 Q130.672 585.274 137.223 585.274 Q138.982 585.274 140.765 585.621 Q142.57 585.968 144.515 586.663 Z" fill="#000000" fill-rule="nonzero" fill-opacity="1"></path><path clip-path="url(#clip860)" d="M59.5152 455.447 Q55.9041 455.447 54.0754 459.012 Q52.2699 462.554 52.2699 469.683 Q52.2699 476.79 54.0754 480.354 Q55.9041 483.896 59.5152 483.896 Q63.1494 483.896 64.955 480.354 Q66.7837 476.79 66.7837 469.683 Q66.7837 462.554 64.955 459.012 Q63.1494 455.447 59.5152 455.447 M59.5152 451.743 Q65.3254 451.743 68.3809 456.35 Q71.4596 460.933 71.4596 469.683 Q71.4596 478.41 68.3809 483.016 Q65.3254 487.6 59.5152 487.6 Q53.7051 487.6 50.6264 483.016 Q47.5708 478.41 47.5708 469.683 Q47.5708 460.933 50.6264 456.35 Q53.7051 451.743 59.5152 451.743 Z" fill="#000000" fill-rule="nonzero" fill-opacity="1"></path><path clip-path="url(#clip860)" d="M79.6771 481.049 L84.5614 481.049 L84.5614 486.928 L79.6771 486.928 L79.6771 481.049 Z" fill="#000000" fill-rule="nonzero" fill-opacity="1"></path><path clip-path="url(#clip860)" d="M104.746 455.447 Q101.135 455.447 99.3067 459.012 Q97.5011 462.554 97.5011 469.683 Q97.5011 476.79 99.3067 480.354 Q101.135 483.896 104.746 483.896 Q108.381 483.896 110.186 480.354 Q112.015 476.79 112.015 469.683 Q112.015 462.554 110.186 459.012 Q108.381 455.447 104.746 455.447 M104.746 451.743 Q110.557 451.743 113.612 456.35 Q116.691 460.933 116.691 469.683 Q116.691 478.41 113.612 483.016 Q110.557 487.6 104.746 487.6 Q98.9363 487.6 95.8576 483.016 Q92.8021 478.41 92.8021 469.683 Q92.8021 460.933 95.8576 456.35 Q98.9363 451.743 104.746 451.743 Z" fill="#000000" fill-rule="nonzero" fill-opacity="1"></path><path clip-path="url(#clip860)" d="M134.908 470.516 Q131.575 470.516 129.654 472.299 Q127.756 474.081 127.756 477.206 Q127.756 480.331 129.654 482.114 Q131.575 483.896 134.908 483.896 Q138.242 483.896 140.163 482.114 Q142.084 480.308 142.084 477.206 Q142.084 474.081 140.163 472.299 Q138.265 470.516 134.908 470.516 M130.232 468.526 Q127.223 467.785 125.533 465.725 Q123.867 463.665 123.867 460.702 Q123.867 456.558 126.807 454.151 Q129.769 451.743 134.908 451.743 Q140.07 451.743 143.01 454.151 Q145.95 456.558 145.95 460.702 Q145.95 463.665 144.26 465.725 Q142.593 467.785 139.607 468.526 Q142.987 469.313 144.862 471.604 Q146.76 473.896 146.76 477.206 Q146.76 482.229 143.681 484.914 Q140.626 487.6 134.908 487.6 Q129.191 487.6 126.112 484.914 Q123.057 482.229 123.057 477.206 Q123.057 473.896 124.955 471.604 Q126.853 469.313 130.232 468.526 M128.519 461.141 Q128.519 463.827 130.186 465.331 Q131.876 466.836 134.908 466.836 Q137.918 466.836 139.607 465.331 Q141.32 463.827 141.32 461.141 Q141.32 458.456 139.607 456.952 Q137.918 455.447 134.908 455.447 Q131.876 455.447 130.186 456.952 Q128.519 458.456 128.519 461.141 Z" fill="#000000" fill-rule="nonzero" fill-opacity="1"></path><path clip-path="url(#clip860)" d="M59.4226 321.917 Q55.8115 321.917 53.9828 325.482 Q52.1773 329.023 52.1773 336.153 Q52.1773 343.259 53.9828 346.824 Q55.8115 350.366 59.4226 350.366 Q63.0569 350.366 64.8624 346.824 Q66.6911 343.259 66.6911 336.153 Q66.6911 329.023 64.8624 325.482 Q63.0569 321.917 59.4226 321.917 M59.4226 318.213 Q65.2328 318.213 68.2883 322.82 Q71.367 327.403 71.367 336.153 Q71.367 344.88 68.2883 349.486 Q65.2328 354.069 59.4226 354.069 Q53.6125 354.069 50.5338 349.486 Q47.4782 344.88 47.4782 336.153 Q47.4782 327.403 50.5338 322.82 Q53.6125 318.213 59.4226 318.213 Z" fill="#000000" fill-rule="nonzero" fill-opacity="1"></path><path clip-path="url(#clip860)" d="M79.5845 347.518 L84.4688 347.518 L84.4688 353.398 L79.5845 353.398 L79.5845 347.518 Z" fill="#000000" fill-rule="nonzero" fill-opacity="1"></path><path clip-path="url(#clip860)" d="M95.4641 349.463 L103.103 349.463 L103.103 323.097 L94.7928 324.764 L94.7928 320.505 L103.057 318.838 L107.733 318.838 L107.733 349.463 L115.371 349.463 L115.371 353.398 L95.4641 353.398 L95.4641 349.463 Z" fill="#000000" fill-rule="nonzero" fill-opacity="1"></path><path clip-path="url(#clip860)" d="M134.816 321.917 Q131.205 321.917 129.376 325.482 Q127.57 329.023 127.57 336.153 Q127.57 343.259 129.376 346.824 Q131.205 350.366 134.816 350.366 Q138.45 350.366 140.256 346.824 Q142.084 343.259 142.084 336.153 Q142.084 329.023 140.256 325.482 Q138.45 321.917 134.816 321.917 M134.816 318.213 Q140.626 318.213 143.681 322.82 Q146.76 327.403 146.76 336.153 Q146.76 344.88 143.681 349.486 Q140.626 354.069 134.816 354.069 Q129.006 354.069 125.927 349.486 Q122.871 344.88 122.871 336.153 Q122.871 327.403 125.927 322.82 Q129.006 318.213 134.816 318.213 Z" fill="#000000" fill-rule="nonzero" fill-opacity="1"></path><path clip-path="url(#clip860)" d="M61.0198 188.386 Q57.4087 188.386 55.58 191.951 Q53.7745 195.493 53.7745 202.622 Q53.7745 209.729 55.58 213.294 Q57.4087 216.835 61.0198 216.835 Q64.6541 216.835 66.4596 213.294 Q68.2883 209.729 68.2883 202.622 Q68.2883 195.493 66.4596 191.951 Q64.6541 188.386 61.0198 188.386 M61.0198 184.683 Q66.83 184.683 69.8855 189.289 Q72.9642 193.873 72.9642 202.622 Q72.9642 211.349 69.8855 215.956 Q66.83 220.539 61.0198 220.539 Q55.2097 220.539 52.131 215.956 Q49.0754 211.349 49.0754 202.622 Q49.0754 193.873 52.131 189.289 Q55.2097 184.683 61.0198 184.683 Z" fill="#000000" fill-rule="nonzero" fill-opacity="1"></path><path clip-path="url(#clip860)" d="M81.1818 213.988 L86.066 213.988 L86.066 219.868 L81.1818 219.868 L81.1818 213.988 Z" fill="#000000" fill-rule="nonzero" fill-opacity="1"></path><path clip-path="url(#clip860)" d="M97.0613 215.933 L104.7 215.933 L104.7 189.567 L96.39 191.234 L96.39 186.974 L104.654 185.308 L109.33 185.308 L109.33 215.933 L116.969 215.933 L116.969 219.868 L97.0613 219.868 L97.0613 215.933 Z" fill="#000000" fill-rule="nonzero" fill-opacity="1"></path><path clip-path="url(#clip860)" d="M130.441 215.933 L146.76 215.933 L146.76 219.868 L124.816 219.868 L124.816 215.933 Q127.478 213.178 132.061 208.548 Q136.668 203.896 137.848 202.553 Q140.093 200.03 140.973 198.294 Q141.876 196.535 141.876 194.845 Q141.876 192.09 139.931 190.354 Q138.01 188.618 134.908 188.618 Q132.709 188.618 130.256 189.382 Q127.825 190.146 125.047 191.697 L125.047 186.974 Q127.871 185.84 130.325 185.261 Q132.779 184.683 134.816 184.683 Q140.186 184.683 143.38 187.368 Q146.575 190.053 146.575 194.544 Q146.575 196.673 145.765 198.595 Q144.978 200.493 142.871 203.085 Q142.293 203.757 139.191 206.974 Q136.089 210.169 130.441 215.933 Z" fill="#000000" fill-rule="nonzero" fill-opacity="1"></path><path clip-path="url(#clip860)" d="M58.9365 54.8561 Q55.3254 54.8561 53.4967 58.4209 Q51.6912 61.9625 51.6912 69.0921 Q51.6912 76.1986 53.4967 79.7634 Q55.3254 83.305 58.9365 83.305 Q62.5707 83.305 64.3763 79.7634 Q66.205 76.1986 66.205 69.0921 Q66.205 61.9625 64.3763 58.4209 Q62.5707 54.8561 58.9365 54.8561 M58.9365 51.1524 Q64.7467 51.1524 67.8022 55.7589 Q70.8809 60.3422 70.8809 69.0921 Q70.8809 77.8189 67.8022 82.4254 Q64.7467 87.0087 58.9365 87.0087 Q53.1264 87.0087 50.0477 82.4254 Q46.9921 77.8189 46.9921 69.0921 Q46.9921 60.3422 50.0477 55.7589 Q53.1264 51.1524 58.9365 51.1524 Z" fill="#000000" fill-rule="nonzero" fill-opacity="1"></path><path clip-path="url(#clip860)" d="M79.0984 80.4578 L83.9827 80.4578 L83.9827 86.3374 L79.0984 86.3374 L79.0984 80.4578 Z" fill="#000000" fill-rule="nonzero" fill-opacity="1"></path><path clip-path="url(#clip860)" d="M94.978 82.4023 L102.617 82.4023 L102.617 56.0367 L94.3067 57.7033 L94.3067 53.4441 L102.571 51.7774 L107.246 51.7774 L107.246 82.4023 L114.885 82.4023 L114.885 86.3374 L94.978 86.3374 L94.978 82.4023 Z" fill="#000000" fill-rule="nonzero" fill-opacity="1"></path><path clip-path="url(#clip860)" d="M137.177 55.8515 L125.371 74.3004 L137.177 74.3004 L137.177 55.8515 M135.95 51.7774 L141.83 51.7774 L141.83 74.3004 L146.76 74.3004 L146.76 78.1893 L141.83 78.1893 L141.83 86.3374 L137.177 86.3374 L137.177 78.1893 L121.575 78.1893 L121.575 73.6754 L135.95 51.7774 Z" fill="#000000" fill-rule="nonzero" fill-opacity="1"></path><polyline clip-path="url(#clip862)" style="stroke:#89b219; stroke-linecap:round; stroke-linejoin:round; stroke-width:4; stroke-opacity:1; fill:none" points="278.477,88.9547 627.297,220.656 976.117,295.204 1324.94,338.113 1673.76,362.891 2022.58,377.209 2371.4,385.484 2720.22,390.266 3069.04,393.03 "></polyline>
<circle clip-path="url(#clip862)" cx="278.477" cy="66.1725" r="14.4" fill="#89b219" fill-rule="evenodd" fill-opacity="0.8" stroke="#000000" stroke-opacity="0.8" stroke-width="0.8"></circle>
<circle clip-path="url(#clip862)" cx="627.297" cy="216.357" r="14.4" fill="#89b219" fill-rule="evenodd" fill-opacity="0.8" stroke="#000000" stroke-opacity="0.8" stroke-width="0.8"></circle>
<circle clip-path="url(#clip862)" cx="976.117" cy="297.929" r="14.4" fill="#89b219" fill-rule="evenodd" fill-opacity="0.8" stroke="#000000" stroke-opacity="0.8" stroke-width="0.8"></circle>
<circle clip-path="url(#clip862)" cx="1324.94" cy="342.606" r="14.4" fill="#89b219" fill-rule="evenodd" fill-opacity="0.8" stroke="#000000" stroke-opacity="0.8" stroke-width="0.8"></circle>
<circle clip-path="url(#clip862)" cx="1673.76" cy="367.096" r="14.4" fill="#89b219" fill-rule="evenodd" fill-opacity="0.8" stroke="#000000" stroke-opacity="0.8" stroke-width="0.8"></circle>
<circle clip-path="url(#clip862)" cx="2022.58" cy="380.522" r="14.4" fill="#89b219" fill-rule="evenodd" fill-opacity="0.8" stroke="#000000" stroke-opacity="0.8" stroke-width="0.8"></circle>
<circle clip-path="url(#clip862)" cx="2371.4" cy="387.882" r="14.4" fill="#89b219" fill-rule="evenodd" fill-opacity="0.8" stroke="#000000" stroke-opacity="0.8" stroke-width="0.8"></circle>
<circle clip-path="url(#clip862)" cx="2720.22" cy="391.917" r="14.4" fill="#89b219" fill-rule="evenodd" fill-opacity="0.8" stroke="#000000" stroke-opacity="0.8" stroke-width="0.8"></circle>
<circle clip-path="url(#clip862)" cx="3069.04" cy="394.129" r="14.4" fill="#89b219" fill-rule="evenodd" fill-opacity="0.8" stroke="#000000" stroke-opacity="0.8" stroke-width="0.8"></circle>
<polyline clip-path="url(#clip862)" style="stroke:#a8b219; stroke-linecap:round; stroke-linejoin:round; stroke-width:4; stroke-opacity:1; fill:none" points="278.477,404.367 627.297,397.656 976.117,396.908 1324.94,396.824 1673.76,396.815 2022.58,396.814 2371.4,396.814 2720.22,396.814 3069.04,396.814 "></polyline>
<circle clip-path="url(#clip862)" cx="278.477" cy="380.744" r="14.4" fill="#a8b219" fill-rule="evenodd" fill-opacity="0.8" stroke="#000000" stroke-opacity="0.8" stroke-width="0.8"></circle>
<circle clip-path="url(#clip862)" cx="627.297" cy="386.976" r="14.4" fill="#a8b219" fill-rule="evenodd" fill-opacity="0.8" stroke="#000000" stroke-opacity="0.8" stroke-width="0.8"></circle>
<circle clip-path="url(#clip862)" cx="976.117" cy="391.363" r="14.4" fill="#a8b219" fill-rule="evenodd" fill-opacity="0.8" stroke="#000000" stroke-opacity="0.8" stroke-width="0.8"></circle>
<circle clip-path="url(#clip862)" cx="1324.94" cy="393.822" r="14.4" fill="#a8b219" fill-rule="evenodd" fill-opacity="0.8" stroke="#000000" stroke-opacity="0.8" stroke-width="0.8"></circle>
<circle clip-path="url(#clip862)" cx="1673.76" cy="395.173" r="14.4" fill="#a8b219" fill-rule="evenodd" fill-opacity="0.8" stroke="#000000" stroke-opacity="0.8" stroke-width="0.8"></circle>
<circle clip-path="url(#clip862)" cx="2022.58" cy="395.914" r="14.4" fill="#a8b219" fill-rule="evenodd" fill-opacity="0.8" stroke="#000000" stroke-opacity="0.8" stroke-width="0.8"></circle>
<circle clip-path="url(#clip862)" cx="2371.4" cy="396.321" r="14.4" fill="#a8b219" fill-rule="evenodd" fill-opacity="0.8" stroke="#000000" stroke-opacity="0.8" stroke-width="0.8"></circle>
<circle clip-path="url(#clip862)" cx="2720.22" cy="396.543" r="14.4" fill="#a8b219" fill-rule="evenodd" fill-opacity="0.8" stroke="#000000" stroke-opacity="0.8" stroke-width="0.8"></circle>
<circle clip-path="url(#clip862)" cx="3069.04" cy="396.666" r="14.4" fill="#a8b219" fill-rule="evenodd" fill-opacity="0.8" stroke="#000000" stroke-opacity="0.8" stroke-width="0.8"></circle>
<polyline clip-path="url(#clip862)" style="stroke:#b29119; stroke-linecap:round; stroke-linejoin:round; stroke-width:4; stroke-opacity:1; fill:none" points="278.477,697.119 627.297,572.129 976.117,498.329 1324.94,455.504 1673.76,430.735 2022.58,416.418 2371.4,408.143 2720.22,403.361 3069.04,400.598 "></polyline>
<circle clip-path="url(#clip862)" cx="278.477" cy="660.864" r="14.4" fill="#b29119" fill-rule="evenodd" fill-opacity="0.8" stroke="#000000" stroke-opacity="0.8" stroke-width="0.8"></circle>
<circle clip-path="url(#clip862)" cx="627.297" cy="541.994" r="14.4" fill="#b29119" fill-rule="evenodd" fill-opacity="0.8" stroke="#000000" stroke-opacity="0.8" stroke-width="0.8"></circle>
<circle clip-path="url(#clip862)" cx="976.117" cy="476.428" r="14.4" fill="#b29119" fill-rule="evenodd" fill-opacity="0.8" stroke="#000000" stroke-opacity="0.8" stroke-width="0.8"></circle>
<circle clip-path="url(#clip862)" cx="1324.94" cy="440.461" r="14.4" fill="#b29119" fill-rule="evenodd" fill-opacity="0.8" stroke="#000000" stroke-opacity="0.8" stroke-width="0.8"></circle>
<circle clip-path="url(#clip862)" cx="1673.76" cy="420.742" r="14.4" fill="#b29119" fill-rule="evenodd" fill-opacity="0.8" stroke="#000000" stroke-opacity="0.8" stroke-width="0.8"></circle>
<circle clip-path="url(#clip862)" cx="2022.58" cy="409.932" r="14.4" fill="#b29119" fill-rule="evenodd" fill-opacity="0.8" stroke="#000000" stroke-opacity="0.8" stroke-width="0.8"></circle>
<circle clip-path="url(#clip862)" cx="2371.4" cy="404.005" r="14.4" fill="#b29119" fill-rule="evenodd" fill-opacity="0.8" stroke="#000000" stroke-opacity="0.8" stroke-width="0.8"></circle>
<circle clip-path="url(#clip862)" cx="2720.22" cy="400.756" r="14.4" fill="#b29119" fill-rule="evenodd" fill-opacity="0.8" stroke="#000000" stroke-opacity="0.8" stroke-width="0.8"></circle>
<circle clip-path="url(#clip862)" cx="3069.04" cy="398.975" r="14.4" fill="#b29119" fill-rule="evenodd" fill-opacity="0.8" stroke="#000000" stroke-opacity="0.8" stroke-width="0.8"></circle>
<polyline clip-path="url(#clip862)" style="stroke:#b2aa19; stroke-linecap:round; stroke-linejoin:round; stroke-width:4; stroke-opacity:1; fill:none" points="278.477,404.367 627.297,397.656 976.117,396.908 1324.94,396.824 1673.76,396.815 2022.58,396.814 2371.4,396.814 2720.22,396.814 3069.04,396.814 "></polyline>
<circle clip-path="url(#clip862)" cx="278.477" cy="380.744" r="14.4" fill="#b2aa19" fill-rule="evenodd" fill-opacity="0.8" stroke="#000000" stroke-opacity="0.8" stroke-width="0.8"></circle>
<circle clip-path="url(#clip862)" cx="627.297" cy="386.976" r="14.4" fill="#b2aa19" fill-rule="evenodd" fill-opacity="0.8" stroke="#000000" stroke-opacity="0.8" stroke-width="0.8"></circle>
<circle clip-path="url(#clip862)" cx="976.117" cy="391.363" r="14.4" fill="#b2aa19" fill-rule="evenodd" fill-opacity="0.8" stroke="#000000" stroke-opacity="0.8" stroke-width="0.8"></circle>
<circle clip-path="url(#clip862)" cx="1324.94" cy="393.822" r="14.4" fill="#b2aa19" fill-rule="evenodd" fill-opacity="0.8" stroke="#000000" stroke-opacity="0.8" stroke-width="0.8"></circle>
<circle clip-path="url(#clip862)" cx="1673.76" cy="395.173" r="14.4" fill="#b2aa19" fill-rule="evenodd" fill-opacity="0.8" stroke="#000000" stroke-opacity="0.8" stroke-width="0.8"></circle>
<circle clip-path="url(#clip862)" cx="2022.58" cy="395.914" r="14.4" fill="#b2aa19" fill-rule="evenodd" fill-opacity="0.8" stroke="#000000" stroke-opacity="0.8" stroke-width="0.8"></circle>
<circle clip-path="url(#clip862)" cx="2371.4" cy="396.321" r="14.4" fill="#b2aa19" fill-rule="evenodd" fill-opacity="0.8" stroke="#000000" stroke-opacity="0.8" stroke-width="0.8"></circle>
<circle clip-path="url(#clip862)" cx="2720.22" cy="396.543" r="14.4" fill="#b2aa19" fill-rule="evenodd" fill-opacity="0.8" stroke="#000000" stroke-opacity="0.8" stroke-width="0.8"></circle>
<circle clip-path="url(#clip862)" cx="3069.04" cy="396.666" r="14.4" fill="#b2aa19" fill-rule="evenodd" fill-opacity="0.8" stroke="#000000" stroke-opacity="0.8" stroke-width="0.8"></circle>
</svg>