<svg xmlns="http://www.w3.org/2000/svg" xmlns:xlink="http://www.w3.org/1999/xlink" width="800" height="200" viewBox="0 0 3200 800">
<defs>
  <clipPath id="clip260">
    <rect x="0" y="0" width="3200" height="800"></rect>
  </clipPath>
</defs>
<path clip-path="url(#clip260)" d="M0 800 L3200 800 L3200 0 L0 0  Z" fill="#ffffff" fill-rule="evenodd" fill-opacity="1"></path>
<defs>
  <clipPath id="clip261">
    <rect x="640" y="0" width="2241" height="800"></rect>
  </clipPath>
</defs>
<path clip-path="url(#clip260)" d="M224.436 716.048 L3152.76 716.048 L3152.76 47.2441 L224.436 47.2441  Z" fill="#ffffff" fill-rule="evenodd" fill-opacity="1"></path>
<defs>
  <clipPath id="clip262">
    <rect x="224" y="47" width="2929" height="670"></rect>
  </clipPath>
</defs>
<polyline clip-path="url(#clip262)" style="stroke:#000000; stroke-linecap:round; stroke-linejoin:round; stroke-width:2; stroke-opacity:0.1; fill:none" points="307.313,716.048 307.313,47.2441 "></polyline>
<polyline clip-path="url(#clip262)" style="stroke:#000000; stroke-linecap:round; stroke-linejoin:round; stroke-width:2; stroke-opacity:0.1; fill:none" points="1170.61,716.048 1170.61,47.2441 "></polyline>
<polyline clip-path="url(#clip262)" style="stroke:#000000; stroke-linecap:round; stroke-linejoin:round; stroke-width:2; stroke-opacity:0.1; fill:none" points="2033.92,716.048 2033.92,47.2441 "></polyline>
<polyline clip-path="url(#clip262)" style="stroke:#000000; stroke-linecap:round; stroke-linejoin:round; stroke-width:2; stroke-opacity:0.1; fill:none" points="2897.22,716.048 2897.22,47.2441 "></polyline>
<polyline clip-path="url(#clip262)" style="stroke:#000000; stroke-linecap:round; stroke-linejoin:round; stroke-width:2; stroke-opacity:0.1; fill:none" points="224.436,695.703 3152.76,695.703 "></polyline>
<polyline clip-path="url(#clip262)" style="stroke:#000000; stroke-linecap:round; stroke-linejoin:round; stroke-width:2; stroke-opacity:0.1; fill:none" points="224.436,590.531 3152.76,590.531 "></polyline>
<polyline clip-path="url(#clip262)" style="stroke:#000000; stroke-linecap:round; stroke-linejoin:round; stroke-width:2; stroke-opacity:0.1; fill:none" points="224.436,485.359 3152.76,485.359 "></polyline>
<polyline clip-path="url(#clip262)" style="stroke:#000000; stroke-linecap:round; stroke-linejoin:round; stroke-width:2; stroke-opacity:0.1; fill:none" points="224.436,380.187 3152.76,380.187 "></polyline>
<polyline clip-path="url(#clip262)" style="stroke:#000000; stroke-linecap:round; stroke-linejoin:round; stroke-width:2; stroke-opacity:0.1; fill:none" points="224.436,275.015 3152.76,275.015 "></polyline>
<polyline clip-path="url(#clip262)" style="stroke:#000000; stroke-linecap:round; stroke-linejoin:round; stroke-width:2; stroke-opacity:0.1; fill:none" points="224.436,169.843 3152.76,169.843 "></polyline>
<polyline clip-path="url(#clip262)" style="stroke:#000000; stroke-linecap:round; stroke-linejoin:round; stroke-width:2; stroke-opacity:0.1; fill:none" points="224.436,64.6712 3152.76,64.6712 "></polyline>
<polyline clip-path="url(#clip260)" style="stroke:#000000; stroke-linecap:round; stroke-linejoin:round; stroke-width:4; stroke-opacity:1; fill:none" points="224.436,716.048 3152.76,716.048 "></polyline>
<polyline clip-path="url(#clip260)" style="stroke:#000000; stroke-linecap:round; stroke-linejoin:round; stroke-width:4; stroke-opacity:1; fill:none" points="307.313,716.048 307.313,697.15 "></polyline>
<polyline clip-path="url(#clip260)" style="stroke:#000000; stroke-linecap:round; stroke-linejoin:round; stroke-width:4; stroke-opacity:1; fill:none" points="1170.61,716.048 1170.61,697.15 "></polyline>
<polyline clip-path="url(#clip260)" style="stroke:#000000; stroke-linecap:round; stroke-linejoin:round; stroke-width:4; stroke-opacity:1; fill:none" points="2033.92,716.048 2033.92,697.15 "></polyline>
<polyline clip-path="url(#clip260)" style="stroke:#000000; stroke-linecap:round; stroke-linejoin:round; stroke-width:4; stroke-opacity:1; fill:none" points="2897.22,716.048 2897.22,697.15 "></polyline>
<path clip-path="url(#clip260)" d="M297.591 750.288 L315.947 750.288 L315.947 754.223 L301.873 754.223 L301.873 762.695 Q302.892 762.348 303.91 762.186 Q304.929 762.001 305.947 762.001 Q311.734 762.001 315.114 765.172 Q318.493 768.343 318.493 773.76 Q318.493 779.339 315.021 782.44 Q311.549 785.519 305.23 785.519 Q303.054 785.519 300.785 785.149 Q298.54 784.778 296.132 784.038 L296.132 779.339 Q298.216 780.473 300.438 781.028 Q302.66 781.584 305.137 781.584 Q309.142 781.584 311.48 779.478 Q313.817 777.371 313.817 773.76 Q313.817 770.149 311.48 768.042 Q309.142 765.936 305.137 765.936 Q303.262 765.936 301.387 766.353 Q299.535 766.769 297.591 767.649 L297.591 750.288 Z" fill="#000000" fill-rule="nonzero" fill-opacity="1"></path><path clip-path="url(#clip260)" d="M1145.3 780.913 L1152.94 780.913 L1152.94 754.547 L1144.63 756.214 L1144.63 751.955 L1152.89 750.288 L1157.57 750.288 L1157.57 780.913 L1165.21 780.913 L1165.21 784.848 L1145.3 784.848 L1145.3 780.913 Z" fill="#000000" fill-rule="nonzero" fill-opacity="1"></path><path clip-path="url(#clip260)" d="M1184.65 753.367 Q1181.04 753.367 1179.21 756.931 Q1177.41 760.473 1177.41 767.603 Q1177.41 774.709 1179.21 778.274 Q1181.04 781.815 1184.65 781.815 Q1188.29 781.815 1190.09 778.274 Q1191.92 774.709 1191.92 767.603 Q1191.92 760.473 1190.09 756.931 Q1188.29 753.367 1184.65 753.367 M1184.65 749.663 Q1190.46 749.663 1193.52 754.269 Q1196.6 758.853 1196.6 767.603 Q1196.6 776.329 1193.52 780.936 Q1190.46 785.519 1184.65 785.519 Q1178.84 785.519 1175.77 780.936 Q1172.71 776.329 1172.71 767.603 Q1172.71 758.853 1175.77 754.269 Q1178.84 749.663 1184.65 749.663 Z" fill="#000000" fill-rule="nonzero" fill-opacity="1"></path><path clip-path="url(#clip260)" d="M2009.1 780.913 L2016.74 780.913 L2016.74 754.547 L2008.43 756.214 L2008.43 751.955 L2016.69 750.288 L2021.37 750.288 L2021.37 780.913 L2029.01 780.913 L2029.01 784.848 L2009.1 784.848 L2009.1 780.913 Z" fill="#000000" fill-rule="nonzero" fill-opacity="1"></path><path clip-path="url(#clip260)" d="M2038.5 750.288 L2056.86 750.288 L2056.86 754.223 L2042.78 754.223 L2042.78 762.695 Q2043.8 762.348 2044.82 762.186 Q2045.84 762.001 2046.86 762.001 Q2052.64 762.001 2056.02 765.172 Q2059.4 768.343 2059.4 773.76 Q2059.4 779.339 2055.93 782.44 Q2052.46 785.519 2046.14 785.519 Q2043.96 785.519 2041.69 785.149 Q2039.45 784.778 2037.04 784.038 L2037.04 779.339 Q2039.12 780.473 2041.35 781.028 Q2043.57 781.584 2046.05 781.584 Q2050.05 781.584 2052.39 779.478 Q2054.73 777.371 2054.73 773.76 Q2054.73 770.149 2052.39 768.042 Q2050.05 765.936 2046.05 765.936 Q2044.17 765.936 2042.3 766.353 Q2040.44 766.769 2038.5 767.649 L2038.5 750.288 Z" fill="#000000" fill-rule="nonzero" fill-opacity="1"></path><path clip-path="url(#clip260)" d="M2875.99 780.913 L2892.31 780.913 L2892.31 784.848 L2870.37 784.848 L2870.37 780.913 Q2873.03 778.158 2877.61 773.528 Q2882.22 768.876 2883.4 767.533 Q2885.64 765.01 2886.52 763.274 Q2887.43 761.515 2887.43 759.825 Q2887.43 757.07 2885.48 755.334 Q2883.56 753.598 2880.46 753.598 Q2878.26 753.598 2875.81 754.362 Q2873.38 755.126 2870.6 756.677 L2870.6 751.955 Q2873.42 750.82 2875.88 750.242 Q2878.33 749.663 2880.37 749.663 Q2885.74 749.663 2888.93 752.348 Q2892.13 755.033 2892.13 759.524 Q2892.13 761.654 2891.32 763.575 Q2890.53 765.473 2888.42 768.066 Q2887.84 768.737 2884.74 771.954 Q2881.64 775.149 2875.99 780.913 Z" fill="#000000" fill-rule="nonzero" fill-opacity="1"></path><path clip-path="url(#clip260)" d="M2912.13 753.367 Q2908.51 753.367 2906.69 756.931 Q2904.88 760.473 2904.88 767.603 Q2904.88 774.709 2906.69 778.274 Q2908.51 781.815 2912.13 781.815 Q2915.76 781.815 2917.57 778.274 Q2919.39 774.709 2919.39 767.603 Q2919.39 760.473 2917.57 756.931 Q2915.76 753.367 2912.13 753.367 M2912.13 749.663 Q2917.94 749.663 2920.99 754.269 Q2924.07 758.853 2924.07 767.603 Q2924.07 776.329 2920.99 780.936 Q2917.94 785.519 2912.13 785.519 Q2906.32 785.519 2903.24 780.936 Q2900.18 776.329 2900.18 767.603 Q2900.18 758.853 2903.24 754.269 Q2906.32 749.663 2912.13 749.663 Z" fill="#000000" fill-rule="nonzero" fill-opacity="1"></path><polyline clip-path="url(#clip260)" style="stroke:#000000; stroke-linecap:round; stroke-linejoin:round; stroke-width:4; stroke-opacity:1; fill:none" points="224.436,716.048 224.436,47.2441 "></polyline>
<polyline clip-path="url(#clip260)" style="stroke:#000000; stroke-linecap:round; stroke-linejoin:round; stroke-width:4; stroke-opacity:1; fill:none" points="224.436,695.703 243.334,695.703 "></polyline>
<polyline clip-path="url(#clip260)" style="stroke:#000000; stroke-linecap:round; stroke-linejoin:round; stroke-width:4; stroke-opacity:1; fill:none" points="224.436,590.531 243.334,590.531 "></polyline>
<polyline clip-path="url(#clip260)" style="stroke:#000000; stroke-linecap:round; stroke-linejoin:round; stroke-width:4; stroke-opacity:1; fill:none" points="224.436,485.359 243.334,485.359 "></polyline>
<polyline clip-path="url(#clip260)" style="stroke:#000000; stroke-linecap:round; stroke-linejoin:round; stroke-width:4; stroke-opacity:1; fill:none" points="224.436,380.187 243.334,380.187 "></polyline>
<polyline clip-path="url(#clip260)" style="stroke:#000000; stroke-linecap:round; stroke-linejoin:round; stroke-width:4; stroke-opacity:1; fill:none" points="224.436,275.015 243.334,275.015 "></polyline>
<polyline clip-path="url(#clip260)" style="stroke:#000000; stroke-linecap:round; stroke-linejoin:round; stroke-width:4; stroke-opacity:1; fill:none" points="224.436,169.843 243.334,169.843 "></polyline>
<polyline clip-path="url(#clip260)" style="stroke:#000000; stroke-linecap:round; stroke-linejoin:round; stroke-width:4; stroke-opacity:1; fill:none" points="224.436,64.6712 243.334,64.6712 "></polyline>
<path clip-path="url(#clip260)" d="M59.9319 681.502 Q56.3208 681.502 54.4921 685.066 Q52.6865 688.608 52.6865 695.738 Q52.6865 702.844 54.4921 706.409 Q56.3208 709.951 59.9319 709.951 Q63.5661 709.951 65.3717 706.409 Q67.2004 702.844 67.2004 695.738 Q67.2004 688.608 65.3717 685.066 Q63.5661 681.502 59.9319 681.502 M59.9319 677.798 Q65.742 677.798 68.7976 682.404 Q71.8763 686.988 71.8763 695.738 Q71.8763 704.464 68.7976 709.071 Q65.742 713.654 59.9319 713.654 Q54.1217 713.654 51.043 709.071 Q47.9875 704.464 47.9875 695.738 Q47.9875 686.988 51.043 682.404 Q54.1217 677.798 59.9319 677.798 Z" fill="#000000" fill-rule="nonzero" fill-opacity="1"></path><path clip-path="url(#clip260)" d="M80.0938 707.103 L84.978 707.103 L84.978 712.983 L80.0938 712.983 L80.0938 707.103 Z" fill="#000000" fill-rule="nonzero" fill-opacity="1"></path><path clip-path="url(#clip260)" d="M105.163 681.502 Q101.552 681.502 99.7233 685.066 Q97.9178 688.608 97.9178 695.738 Q97.9178 702.844 99.7233 706.409 Q101.552 709.951 105.163 709.951 Q108.797 709.951 110.603 706.409 Q112.432 702.844 112.432 695.738 Q112.432 688.608 110.603 685.066 Q108.797 681.502 105.163 681.502 M105.163 677.798 Q110.973 677.798 114.029 682.404 Q117.107 686.988 117.107 695.738 Q117.107 704.464 114.029 709.071 Q110.973 713.654 105.163 713.654 Q99.353 713.654 96.2743 709.071 Q93.2187 704.464 93.2187 695.738 Q93.2187 686.988 96.2743 682.404 Q99.353 677.798 105.163 677.798 Z" fill="#000000" fill-rule="nonzero" fill-opacity="1"></path><path clip-path="url(#clip260)" d="M129.353 709.048 L145.672 709.048 L145.672 712.983 L123.728 712.983 L123.728 709.048 Q126.39 706.293 130.973 701.664 Q135.58 697.011 136.76 695.668 Q139.006 693.145 139.885 691.409 Q140.788 689.65 140.788 687.96 Q140.788 685.205 138.843 683.469 Q136.922 681.733 133.82 681.733 Q131.621 681.733 129.168 682.497 Q126.737 683.261 123.959 684.812 L123.959 680.09 Q126.783 678.955 129.237 678.377 Q131.691 677.798 133.728 677.798 Q139.098 677.798 142.293 680.483 Q145.487 683.168 145.487 687.659 Q145.487 689.789 144.677 691.71 Q143.89 693.608 141.783 696.201 Q141.205 696.872 138.103 700.09 Q135.001 703.284 129.353 709.048 Z" fill="#000000" fill-rule="nonzero" fill-opacity="1"></path><path clip-path="url(#clip260)" d="M155.533 678.423 L173.89 678.423 L173.89 682.358 L159.816 682.358 L159.816 690.83 Q160.834 690.483 161.853 690.321 Q162.871 690.136 163.89 690.136 Q169.677 690.136 173.056 693.307 Q176.436 696.478 176.436 701.895 Q176.436 707.474 172.964 710.576 Q169.491 713.654 163.172 713.654 Q160.996 713.654 158.728 713.284 Q156.482 712.914 154.075 712.173 L154.075 707.474 Q156.158 708.608 158.38 709.164 Q160.603 709.719 163.079 709.719 Q167.084 709.719 169.422 707.613 Q171.76 705.506 171.76 701.895 Q171.76 698.284 169.422 696.178 Q167.084 694.071 163.079 694.071 Q161.204 694.071 159.329 694.488 Q157.478 694.904 155.533 695.784 L155.533 678.423 Z" fill="#000000" fill-rule="nonzero" fill-opacity="1"></path><path clip-path="url(#clip260)" d="M58.9365 576.33 Q55.3254 576.33 53.4967 579.894 Q51.6912 583.436 51.6912 590.566 Q51.6912 597.672 53.4967 601.237 Q55.3254 604.779 58.9365 604.779 Q62.5707 604.779 64.3763 601.237 Q66.205 597.672 66.205 590.566 Q66.205 583.436 64.3763 579.894 Q62.5707 576.33 58.9365 576.33 M58.9365 572.626 Q64.7467 572.626 67.8022 577.232 Q70.8809 581.816 70.8809 590.566 Q70.8809 599.293 67.8022 603.899 Q64.7467 608.482 58.9365 608.482 Q53.1264 608.482 50.0477 603.899 Q46.9921 599.293 46.9921 590.566 Q46.9921 581.816 50.0477 577.232 Q53.1264 572.626 58.9365 572.626 Z" fill="#000000" fill-rule="nonzero" fill-opacity="1"></path><path clip-path="url(#clip260)" d="M79.0984 601.931 L83.9827 601.931 L83.9827 607.811 L79.0984 607.811 L79.0984 601.931 Z" fill="#000000" fill-rule="nonzero" fill-opacity="1"></path><path clip-path="url(#clip260)" d="M104.168 576.33 Q100.557 576.33 98.728 579.894 Q96.9224 583.436 96.9224 590.566 Q96.9224 597.672 98.728 601.237 Q100.557 604.779 104.168 604.779 Q107.802 604.779 109.608 601.237 Q111.436 597.672 111.436 590.566 Q111.436 583.436 109.608 579.894 Q107.802 576.33 104.168 576.33 M104.168 572.626 Q109.978 572.626 113.033 577.232 Q116.112 581.816 116.112 590.566 Q116.112 599.293 113.033 603.899 Q109.978 608.482 104.168 608.482 Q98.3576 608.482 95.2789 603.899 Q92.2234 599.293 92.2234 590.566 Q92.2234 581.816 95.2789 577.232 Q98.3576 572.626 104.168 572.626 Z" fill="#000000" fill-rule="nonzero" fill-opacity="1"></path><path clip-path="url(#clip260)" d="M138.496 589.177 Q141.853 589.894 143.728 592.163 Q145.626 594.431 145.626 597.765 Q145.626 602.88 142.107 605.681 Q138.589 608.482 132.107 608.482 Q129.931 608.482 127.617 608.042 Q125.325 607.626 122.871 606.769 L122.871 602.255 Q124.816 603.39 127.131 603.968 Q129.445 604.547 131.969 604.547 Q136.367 604.547 138.658 602.811 Q140.973 601.075 140.973 597.765 Q140.973 594.709 138.82 592.996 Q136.691 591.26 132.871 591.26 L128.844 591.26 L128.844 587.418 L133.056 587.418 Q136.506 587.418 138.334 586.052 Q140.163 584.663 140.163 582.07 Q140.163 579.408 138.265 577.996 Q136.39 576.561 132.871 576.561 Q130.95 576.561 128.751 576.978 Q126.552 577.395 123.913 578.274 L123.913 574.107 Q126.575 573.367 128.89 572.996 Q131.228 572.626 133.288 572.626 Q138.612 572.626 141.714 575.057 Q144.816 577.464 144.816 581.584 Q144.816 584.455 143.172 586.445 Q141.529 588.413 138.496 589.177 Z" fill="#000000" fill-rule="nonzero" fill-opacity="1"></path><path clip-path="url(#clip260)" d="M164.491 576.33 Q160.88 576.33 159.052 579.894 Q157.246 583.436 157.246 590.566 Q157.246 597.672 159.052 601.237 Q160.88 604.779 164.491 604.779 Q168.126 604.779 169.931 601.237 Q171.76 597.672 171.76 590.566 Q171.76 583.436 169.931 579.894 Q168.126 576.33 164.491 576.33 M164.491 572.626 Q170.302 572.626 173.357 577.232 Q176.436 581.816 176.436 590.566 Q176.436 599.293 173.357 603.899 Q170.302 608.482 164.491 608.482 Q158.681 608.482 155.603 603.899 Q152.547 599.293 152.547 590.566 Q152.547 581.816 155.603 577.232 Q158.681 572.626 164.491 572.626 Z" fill="#000000" fill-rule="nonzero" fill-opacity="1"></path><path clip-path="url(#clip260)" d="M59.9319 471.158 Q56.3208 471.158 54.4921 474.723 Q52.6865 478.264 52.6865 485.394 Q52.6865 492.5 54.4921 496.065 Q56.3208 499.607 59.9319 499.607 Q63.5661 499.607 65.3717 496.065 Q67.2004 492.5 67.2004 485.394 Q67.2004 478.264 65.3717 474.723 Q63.5661 471.158 59.9319 471.158 M59.9319 467.454 Q65.742 467.454 68.7976 472.061 Q71.8763 476.644 71.8763 485.394 Q71.8763 494.121 68.7976 498.727 Q65.742 503.31 59.9319 503.31 Q54.1217 503.31 51.043 498.727 Q47.9875 494.121 47.9875 485.394 Q47.9875 476.644 51.043 472.061 Q54.1217 467.454 59.9319 467.454 Z" fill="#000000" fill-rule="nonzero" fill-opacity="1"></path><path clip-path="url(#clip260)" d="M80.0938 496.759 L84.978 496.759 L84.978 502.639 L80.0938 502.639 L80.0938 496.759 Z" fill="#000000" fill-rule="nonzero" fill-opacity="1"></path><path clip-path="url(#clip260)" d="M105.163 471.158 Q101.552 471.158 99.7233 474.723 Q97.9178 478.264 97.9178 485.394 Q97.9178 492.5 99.7233 496.065 Q101.552 499.607 105.163 499.607 Q108.797 499.607 110.603 496.065 Q112.432 492.5 112.432 485.394 Q112.432 478.264 110.603 474.723 Q108.797 471.158 105.163 471.158 M105.163 467.454 Q110.973 467.454 114.029 472.061 Q117.107 476.644 117.107 485.394 Q117.107 494.121 114.029 498.727 Q110.973 503.31 105.163 503.31 Q99.353 503.31 96.2743 498.727 Q93.2187 494.121 93.2187 485.394 Q93.2187 476.644 96.2743 472.061 Q99.353 467.454 105.163 467.454 Z" fill="#000000" fill-rule="nonzero" fill-opacity="1"></path><path clip-path="url(#clip260)" d="M139.492 484.005 Q142.848 484.722 144.723 486.991 Q146.621 489.259 146.621 492.593 Q146.621 497.709 143.103 500.509 Q139.584 503.31 133.103 503.31 Q130.927 503.31 128.612 502.871 Q126.32 502.454 123.867 501.597 L123.867 497.084 Q125.811 498.218 128.126 498.796 Q130.441 499.375 132.964 499.375 Q137.362 499.375 139.654 497.639 Q141.968 495.903 141.968 492.593 Q141.968 489.537 139.816 487.824 Q137.686 486.088 133.867 486.088 L129.839 486.088 L129.839 482.246 L134.052 482.246 Q137.501 482.246 139.33 480.88 Q141.158 479.491 141.158 476.898 Q141.158 474.236 139.26 472.824 Q137.385 471.389 133.867 471.389 Q131.945 471.389 129.746 471.806 Q127.547 472.223 124.908 473.102 L124.908 468.936 Q127.57 468.195 129.885 467.824 Q132.223 467.454 134.283 467.454 Q139.607 467.454 142.709 469.885 Q145.811 472.292 145.811 476.412 Q145.811 479.283 144.168 481.273 Q142.524 483.241 139.492 484.005 Z" fill="#000000" fill-rule="nonzero" fill-opacity="1"></path><path clip-path="url(#clip260)" d="M155.533 468.079 L173.89 468.079 L173.89 472.014 L159.816 472.014 L159.816 480.486 Q160.834 480.139 161.853 479.977 Q162.871 479.792 163.89 479.792 Q169.677 479.792 173.056 482.963 Q176.436 486.135 176.436 491.551 Q176.436 497.13 172.964 500.232 Q169.491 503.31 163.172 503.31 Q160.996 503.31 158.728 502.94 Q156.482 502.57 154.075 501.829 L154.075 497.13 Q156.158 498.264 158.38 498.82 Q160.603 499.375 163.079 499.375 Q167.084 499.375 169.422 497.269 Q171.76 495.162 171.76 491.551 Q171.76 487.94 169.422 485.834 Q167.084 483.727 163.079 483.727 Q161.204 483.727 159.329 484.144 Q157.478 484.56 155.533 485.44 L155.533 468.079 Z" fill="#000000" fill-rule="nonzero" fill-opacity="1"></path><path clip-path="url(#clip260)" d="M58.9365 365.986 Q55.3254 365.986 53.4967 369.551 Q51.6912 373.092 51.6912 380.222 Q51.6912 387.328 53.4967 390.893 Q55.3254 394.435 58.9365 394.435 Q62.5707 394.435 64.3763 390.893 Q66.205 387.328 66.205 380.222 Q66.205 373.092 64.3763 369.551 Q62.5707 365.986 58.9365 365.986 M58.9365 362.282 Q64.7467 362.282 67.8022 366.889 Q70.8809 371.472 70.8809 380.222 Q70.8809 388.949 67.8022 393.555 Q64.7467 398.138 58.9365 398.138 Q53.1264 398.138 50.0477 393.555 Q46.9921 388.949 46.9921 380.222 Q46.9921 371.472 50.0477 366.889 Q53.1264 362.282 58.9365 362.282 Z" fill="#000000" fill-rule="nonzero" fill-opacity="1"></path><path clip-path="url(#clip260)" d="M79.0984 391.587 L83.9827 391.587 L83.9827 397.467 L79.0984 397.467 L79.0984 391.587 Z" fill="#000000" fill-rule="nonzero" fill-opacity="1"></path><path clip-path="url(#clip260)" d="M104.168 365.986 Q100.557 365.986 98.728 369.551 Q96.9224 373.092 96.9224 380.222 Q96.9224 387.328 98.728 390.893 Q100.557 394.435 104.168 394.435 Q107.802 394.435 109.608 390.893 Q111.436 387.328 111.436 380.222 Q111.436 373.092 109.608 369.551 Q107.802 365.986 104.168 365.986 M104.168 362.282 Q109.978 362.282 113.033 366.889 Q116.112 371.472 116.112 380.222 Q116.112 388.949 113.033 393.555 Q109.978 398.138 104.168 398.138 Q98.3576 398.138 95.2789 393.555 Q92.2234 388.949 92.2234 380.222 Q92.2234 371.472 95.2789 366.889 Q98.3576 362.282 104.168 362.282 Z" fill="#000000" fill-rule="nonzero" fill-opacity="1"></path><path clip-path="url(#clip260)" d="M137.177 366.981 L125.371 385.43 L137.177 385.43 L137.177 366.981 M135.95 362.907 L141.83 362.907 L141.83 385.43 L146.76 385.43 L146.76 389.319 L141.83 389.319 L141.83 397.467 L137.177 397.467 L137.177 389.319 L121.575 389.319 L121.575 384.805 L135.95 362.907 Z" fill="#000000" fill-rule="nonzero" fill-opacity="1"></path><path clip-path="url(#clip260)" d="M164.491 365.986 Q160.88 365.986 159.052 369.551 Q157.246 373.092 157.246 380.222 Q157.246 387.328 159.052 390.893 Q160.88 394.435 164.491 394.435 Q168.126 394.435 169.931 390.893 Q171.76 387.328 171.76 380.222 Q171.76 373.092 169.931 369.551 Q168.126 365.986 164.491 365.986 M164.491 362.282 Q170.302 362.282 173.357 366.889 Q176.436 371.472 176.436 380.222 Q176.436 388.949 173.357 393.555 Q170.302 398.138 164.491 398.138 Q158.681 398.138 155.603 393.555 Q152.547 388.949 152.547 380.222 Q152.547 371.472 155.603 366.889 Q158.681 362.282 164.491 362.282 Z" fill="#000000" fill-rule="nonzero" fill-opacity="1"></path><path clip-path="url(#clip260)" d="M59.9319 260.814 Q56.3208 260.814 54.4921 264.379 Q52.6865 267.92 52.6865 275.05 Q52.6865 282.156 54.4921 285.721 Q56.3208 289.263 59.9319 289.263 Q63.5661 289.263 65.3717 285.721 Q67.2004 282.156 67.2004 275.05 Q67.2004 267.92 65.3717 264.379 Q63.5661 260.814 59.9319 260.814 M59.9319 257.11 Q65.742 257.11 68.7976 261.717 Q71.8763 266.3 71.8763 275.05 Q71.8763 283.777 68.7976 288.383 Q65.742 292.966 59.9319 292.966 Q54.1217 292.966 51.043 288.383 Q47.9875 283.777 47.9875 275.05 Q47.9875 266.3 51.043 261.717 Q54.1217 257.11 59.9319 257.11 Z" fill="#000000" fill-rule="nonzero" fill-opacity="1"></path><path clip-path="url(#clip260)" d="M80.0938 286.416 L84.978 286.416 L84.978 292.295 L80.0938 292.295 L80.0938 286.416 Z" fill="#000000" fill-rule="nonzero" fill-opacity="1"></path><path clip-path="url(#clip260)" d="M105.163 260.814 Q101.552 260.814 99.7233 264.379 Q97.9178 267.92 97.9178 275.05 Q97.9178 282.156 99.7233 285.721 Q101.552 289.263 105.163 289.263 Q108.797 289.263 110.603 285.721 Q112.432 282.156 112.432 275.05 Q112.432 267.92 110.603 264.379 Q108.797 260.814 105.163 260.814 M105.163 257.11 Q110.973 257.11 114.029 261.717 Q117.107 266.3 117.107 275.05 Q117.107 283.777 114.029 288.383 Q110.973 292.966 105.163 292.966 Q99.353 292.966 96.2743 288.383 Q93.2187 283.777 93.2187 275.05 Q93.2187 266.3 96.2743 261.717 Q99.353 257.11 105.163 257.11 Z" fill="#000000" fill-rule="nonzero" fill-opacity="1"></path><path clip-path="url(#clip260)" d="M138.172 261.809 L126.367 280.258 L138.172 280.258 L138.172 261.809 M136.945 257.735 L142.825 257.735 L142.825 280.258 L147.755 280.258 L147.755 284.147 L142.825 284.147 L142.825 292.295 L138.172 292.295 L138.172 284.147 L122.57 284.147 L122.57 279.633 L136.945 257.735 Z" fill="#000000" fill-rule="nonzero" fill-opacity="1"></path><path clip-path="url(#clip260)" d="M155.533 257.735 L173.89 257.735 L173.89 261.67 L159.816 261.67 L159.816 270.142 Q160.834 269.795 161.853 269.633 Q162.871 269.448 163.89 269.448 Q169.677 269.448 173.056 272.619 Q176.436 275.791 176.436 281.207 Q176.436 286.786 172.964 289.888 Q169.491 292.966 163.172 292.966 Q160.996 292.966 158.728 292.596 Q156.482 292.226 154.075 291.485 L154.075 286.786 Q156.158 287.92 158.38 288.476 Q160.603 289.031 163.079 289.031 Q167.084 289.031 169.422 286.925 Q171.76 284.818 171.76 281.207 Q171.76 277.596 169.422 275.49 Q167.084 273.383 163.079 273.383 Q161.204 273.383 159.329 273.8 Q157.478 274.217 155.533 275.096 L155.533 257.735 Z" fill="#000000" fill-rule="nonzero" fill-opacity="1"></path><path clip-path="url(#clip260)" d="M58.9365 155.642 Q55.3254 155.642 53.4967 159.207 Q51.6912 162.748 51.6912 169.878 Q51.6912 176.984 53.4967 180.549 Q55.3254 184.091 58.9365 184.091 Q62.5707 184.091 64.3763 180.549 Q66.205 176.984 66.205 169.878 Q66.205 162.748 64.3763 159.207 Q62.5707 155.642 58.9365 155.642 M58.9365 151.938 Q64.7467 151.938 67.8022 156.545 Q70.8809 161.128 70.8809 169.878 Q70.8809 178.605 67.8022 183.211 Q64.7467 187.794 58.9365 187.794 Q53.1264 187.794 50.0477 183.211 Q46.9921 178.605 46.9921 169.878 Q46.9921 161.128 50.0477 156.545 Q53.1264 151.938 58.9365 151.938 Z" fill="#000000" fill-rule="nonzero" fill-opacity="1"></path><path clip-path="url(#clip260)" d="M79.0984 181.244 L83.9827 181.244 L83.9827 187.123 L79.0984 187.123 L79.0984 181.244 Z" fill="#000000" fill-rule="nonzero" fill-opacity="1"></path><path clip-path="url(#clip260)" d="M104.168 155.642 Q100.557 155.642 98.728 159.207 Q96.9224 162.748 96.9224 169.878 Q96.9224 176.984 98.728 180.549 Q100.557 184.091 104.168 184.091 Q107.802 184.091 109.608 180.549 Q111.436 176.984 111.436 169.878 Q111.436 162.748 109.608 159.207 Q107.802 155.642 104.168 155.642 M104.168 151.938 Q109.978 151.938 113.033 156.545 Q116.112 161.128 116.112 169.878 Q116.112 178.605 113.033 183.211 Q109.978 187.794 104.168 187.794 Q98.3576 187.794 95.2789 183.211 Q92.2234 178.605 92.2234 169.878 Q92.2234 161.128 95.2789 156.545 Q98.3576 151.938 104.168 151.938 Z" fill="#000000" fill-rule="nonzero" fill-opacity="1"></path><path clip-path="url(#clip260)" d="M124.376 152.563 L142.732 152.563 L142.732 156.498 L128.658 156.498 L128.658 164.971 Q129.677 164.623 130.695 164.461 Q131.714 164.276 132.732 164.276 Q138.519 164.276 141.899 167.447 Q145.279 170.619 145.279 176.035 Q145.279 181.614 141.806 184.716 Q138.334 187.794 132.015 187.794 Q129.839 187.794 127.57 187.424 Q125.325 187.054 122.918 186.313 L122.918 181.614 Q125.001 182.748 127.223 183.304 Q129.445 183.859 131.922 183.859 Q135.927 183.859 138.265 181.753 Q140.603 179.646 140.603 176.035 Q140.603 172.424 138.265 170.318 Q135.927 168.211 131.922 168.211 Q130.047 168.211 128.172 168.628 Q126.32 169.045 124.376 169.924 L124.376 152.563 Z" fill="#000000" fill-rule="nonzero" fill-opacity="1"></path><path clip-path="url(#clip260)" d="M164.491 155.642 Q160.88 155.642 159.052 159.207 Q157.246 162.748 157.246 169.878 Q157.246 176.984 159.052 180.549 Q160.88 184.091 164.491 184.091 Q168.126 184.091 169.931 180.549 Q171.76 176.984 171.76 169.878 Q171.76 162.748 169.931 159.207 Q168.126 155.642 164.491 155.642 M164.491 151.938 Q170.302 151.938 173.357 156.545 Q176.436 161.128 176.436 169.878 Q176.436 178.605 173.357 183.211 Q170.302 187.794 164.491 187.794 Q158.681 187.794 155.603 183.211 Q152.547 178.605 152.547 169.878 Q152.547 161.128 155.603 156.545 Q158.681 151.938 164.491 151.938 Z" fill="#000000" fill-rule="nonzero" fill-opacity="1"></path><path clip-path="url(#clip260)" d="M59.9319 50.4699 Q56.3208 50.4699 54.4921 54.0347 Q52.6865 57.5763 52.6865 64.7059 Q52.6865 71.8124 54.4921 75.3772 Q56.3208 78.9188 59.9319 78.9188 Q63.5661 78.9188 65.3717 75.3772 Q67.2004 71.8124 67.2004 64.7059 Q67.2004 57.5763 65.3717 54.0347 Q63.5661 50.4699 59.9319 50.4699 M59.9319 46.7662 Q65.742 46.7662 68.7976 51.3727 Q71.8763 55.956 71.8763 64.7059 Q71.8763 73.4327 68.7976 78.0392 Q65.742 82.6225 59.9319 82.6225 Q54.1217 82.6225 51.043 78.0392 Q47.9875 73.4327 47.9875 64.7059 Q47.9875 55.956 51.043 51.3727 Q54.1217 46.7662 59.9319 46.7662 Z" fill="#000000" fill-rule="nonzero" fill-opacity="1"></path><path clip-path="url(#clip260)" d="M80.0938 76.0716 L84.978 76.0716 L84.978 81.9512 L80.0938 81.9512 L80.0938 76.0716 Z" fill="#000000" fill-rule="nonzero" fill-opacity="1"></path><path clip-path="url(#clip260)" d="M105.163 50.4699 Q101.552 50.4699 99.7233 54.0347 Q97.9178 57.5763 97.9178 64.7059 Q97.9178 71.8124 99.7233 75.3772 Q101.552 78.9188 105.163 78.9188 Q108.797 78.9188 110.603 75.3772 Q112.432 71.8124 112.432 64.7059 Q112.432 57.5763 110.603 54.0347 Q108.797 50.4699 105.163 50.4699 M105.163 46.7662 Q110.973 46.7662 114.029 51.3727 Q117.107 55.956 117.107 64.7059 Q117.107 73.4327 114.029 78.0392 Q110.973 82.6225 105.163 82.6225 Q99.353 82.6225 96.2743 78.0392 Q93.2187 73.4327 93.2187 64.7059 Q93.2187 55.956 96.2743 51.3727 Q99.353 46.7662 105.163 46.7662 Z" fill="#000000" fill-rule="nonzero" fill-opacity="1"></path><path clip-path="url(#clip260)" d="M125.371 47.3912 L143.728 47.3912 L143.728 51.3264 L129.654 51.3264 L129.654 59.7985 Q130.672 59.4513 131.691 59.2893 Q132.709 59.1041 133.728 59.1041 Q139.515 59.1041 142.894 62.2754 Q146.274 65.4467 146.274 70.8633 Q146.274 76.442 142.802 79.5438 Q139.33 82.6225 133.01 82.6225 Q130.834 82.6225 128.566 82.2521 Q126.32 81.8818 123.913 81.141 L123.913 76.442 Q125.996 77.5762 128.219 78.1318 Q130.441 78.6873 132.918 78.6873 Q136.922 78.6873 139.26 76.5809 Q141.598 74.4744 141.598 70.8633 Q141.598 67.2522 139.26 65.1457 Q136.922 63.0393 132.918 63.0393 Q131.043 63.0393 129.168 63.4559 Q127.316 63.8726 125.371 64.7522 L125.371 47.3912 Z" fill="#000000" fill-rule="nonzero" fill-opacity="1"></path><path clip-path="url(#clip260)" d="M155.533 47.3912 L173.89 47.3912 L173.89 51.3264 L159.816 51.3264 L159.816 59.7985 Q160.834 59.4513 161.853 59.2893 Q162.871 59.1041 163.89 59.1041 Q169.677 59.1041 173.056 62.2754 Q176.436 65.4467 176.436 70.8633 Q176.436 76.442 172.964 79.5438 Q169.491 82.6225 163.172 82.6225 Q160.996 82.6225 158.728 82.2521 Q156.482 81.8818 154.075 81.141 L154.075 76.442 Q156.158 77.5762 158.38 78.1318 Q160.603 78.6873 163.079 78.6873 Q167.084 78.6873 169.422 76.5809 Q171.76 74.4744 171.76 70.8633 Q171.76 67.2522 169.422 65.1457 Q167.084 63.0393 163.079 63.0393 Q161.204 63.0393 159.329 63.4559 Q157.478 63.8726 155.533 64.7522 L155.533 47.3912 Z" fill="#000000" fill-rule="nonzero" fill-opacity="1"></path><polyline clip-path="url(#clip262)" style="stroke:#30b219; stroke-linecap:round; stroke-linejoin:round; stroke-width:4; stroke-opacity:1; fill:none" points="307.313,272.809 652.634,400.303 997.954,477.565 1343.28,522.523 1688.6,548.534 2033.92,563.569 2379.24,572.259 2724.56,577.281 3069.88,580.183 "></polyline>
<circle clip-path="url(#clip262)" cx="307.313" cy="66.1725" r="14.4" fill="#30b219" fill-rule="evenodd" fill-opacity="0.8" stroke="#000000" stroke-opacity="0.8" stroke-width="0.8"></circle>
<circle clip-path="url(#clip262)" cx="652.634" cy="313.411" r="14.4" fill="#30b219" fill-rule="evenodd" fill-opacity="0.8" stroke="#000000" stroke-opacity="0.8" stroke-width="0.8"></circle>
<circle clip-path="url(#clip262)" cx="997.954" cy="439.604" r="14.4" fill="#30b219" fill-rule="evenodd" fill-opacity="0.8" stroke="#000000" stroke-opacity="0.8" stroke-width="0.8"></circle>
<circle clip-path="url(#clip262)" cx="1343.28" cy="505.952" r="14.4" fill="#30b219" fill-rule="evenodd" fill-opacity="0.8" stroke="#000000" stroke-opacity="0.8" stroke-width="0.8"></circle>
<circle clip-path="url(#clip262)" cx="1688.6" cy="541.559" r="14.4" fill="#30b219" fill-rule="evenodd" fill-opacity="0.8" stroke="#000000" stroke-opacity="0.8" stroke-width="0.8"></circle>
<circle clip-path="url(#clip262)" cx="2033.92" cy="560.877" r="14.4" fill="#30b219" fill-rule="evenodd" fill-opacity="0.8" stroke="#000000" stroke-opacity="0.8" stroke-width="0.8"></circle>
<circle clip-path="url(#clip262)" cx="2379.24" cy="571.414" r="14.4" fill="#30b219" fill-rule="evenodd" fill-opacity="0.8" stroke="#000000" stroke-opacity="0.8" stroke-width="0.8"></circle>
<circle clip-path="url(#clip262)" cx="2724.56" cy="577.176" r="14.4" fill="#30b219" fill-rule="evenodd" fill-opacity="0.8" stroke="#000000" stroke-opacity="0.8" stroke-width="0.8"></circle>
<circle clip-path="url(#clip262)" cx="3069.88" cy="580.331" r="14.4" fill="#30b219" fill-rule="evenodd" fill-opacity="0.8" stroke="#000000" stroke-opacity="0.8" stroke-width="0.8"></circle>
<polyline clip-path="url(#clip262)" style="stroke:#19b244; stroke-linecap:round; stroke-linejoin:round; stroke-width:4; stroke-opacity:1; fill:none" points="307.313,478.929 652.634,522.91 997.954,548.643 1343.28,563.615 1688.6,572.283 2033.92,577.294 2379.24,580.191 2724.56,581.865 3069.88,582.832 "></polyline>
<circle clip-path="url(#clip262)" cx="307.313" cy="447.22" r="14.4" fill="#19b244" fill-rule="evenodd" fill-opacity="0.8" stroke="#000000" stroke-opacity="0.8" stroke-width="0.8"></circle>
<circle clip-path="url(#clip262)" cx="652.634" cy="502.964" r="14.4" fill="#19b244" fill-rule="evenodd" fill-opacity="0.8" stroke="#000000" stroke-opacity="0.8" stroke-width="0.8"></circle>
<circle clip-path="url(#clip262)" cx="997.954" cy="537.958" r="14.4" fill="#19b244" fill-rule="evenodd" fill-opacity="0.8" stroke="#000000" stroke-opacity="0.8" stroke-width="0.8"></circle>
<circle clip-path="url(#clip262)" cx="1343.28" cy="558.382" r="14.4" fill="#19b244" fill-rule="evenodd" fill-opacity="0.8" stroke="#000000" stroke-opacity="0.8" stroke-width="0.8"></circle>
<circle clip-path="url(#clip262)" cx="1688.6" cy="569.908" r="14.4" fill="#19b244" fill-rule="evenodd" fill-opacity="0.8" stroke="#000000" stroke-opacity="0.8" stroke-width="0.8"></circle>
<circle clip-path="url(#clip262)" cx="2033.92" cy="576.314" r="14.4" fill="#19b244" fill-rule="evenodd" fill-opacity="0.8" stroke="#000000" stroke-opacity="0.8" stroke-width="0.8"></circle>
<circle clip-path="url(#clip262)" cx="2379.24" cy="579.849" r="14.4" fill="#19b244" fill-rule="evenodd" fill-opacity="0.8" stroke="#000000" stroke-opacity="0.8" stroke-width="0.8"></circle>
<circle clip-path="url(#clip262)" cx="2724.56" cy="581.793" r="14.4" fill="#19b244" fill-rule="evenodd" fill-opacity="0.8" stroke="#000000" stroke-opacity="0.8" stroke-width="0.8"></circle>
<circle clip-path="url(#clip262)" cx="3069.88" cy="582.86" r="14.4" fill="#19b244" fill-rule="evenodd" fill-opacity="0.8" stroke="#000000" stroke-opacity="0.8" stroke-width="0.8"></circle>
<polyline clip-path="url(#clip262)" style="stroke:#26b219; stroke-linecap:round; stroke-linejoin:round; stroke-width:4; stroke-opacity:1; fill:none" points="307.313,478.929 652.634,522.91 997.954,548.643 1343.28,563.615 1688.6,572.283 2033.92,577.294 2379.24,580.191 2724.56,581.865 3069.88,582.832 "></polyline>
<circle clip-path="url(#clip262)" cx="307.313" cy="447.22" r="14.4" fill="#26b219" fill-rule="evenodd" fill-opacity="0.8" stroke="#000000" stroke-opacity="0.8" stroke-width="0.8"></circle>
<circle clip-path="url(#clip262)" cx="652.634" cy="502.964" r="14.4" fill="#26b219" fill-rule="evenodd" fill-opacity="0.8" stroke="#000000" stroke-opacity="0.8" stroke-width="0.8"></circle>
<circle clip-path="url(#clip262)" cx="997.954" cy="537.958" r="14.4" fill="#26b219" fill-rule="evenodd" fill-opacity="0.8" stroke="#000000" stroke-opacity="0.8" stroke-width="0.8"></circle>
<circle clip-path="url(#clip262)" cx="1343.28" cy="558.382" r="14.4" fill="#26b219" fill-rule="evenodd" fill-opacity="0.8" stroke="#000000" stroke-opacity="0.8" stroke-width="0.8"></circle>
<circle clip-path="url(#clip262)" cx="1688.6" cy="569.908" r="14.4" fill="#26b219" fill-rule="evenodd" fill-opacity="0.8" stroke="#000000" stroke-opacity="0.8" stroke-width="0.8"></circle>
<circle clip-path="url(#clip262)" cx="2033.92" cy="576.314" r="14.4" fill="#26b219" fill-rule="evenodd" fill-opacity="0.8" stroke="#000000" stroke-opacity="0.8" stroke-width="0.8"></circle>
<circle clip-path="url(#clip262)" cx="2379.24" cy="579.849" r="14.4" fill="#26b219" fill-rule="evenodd" fill-opacity="0.8" stroke="#000000" stroke-opacity="0.8" stroke-width="0.8"></circle>
<circle clip-path="url(#clip262)" cx="2724.56" cy="581.793" r="14.4" fill="#26b219" fill-rule="evenodd" fill-opacity="0.8" stroke="#000000" stroke-opacity="0.8" stroke-width="0.8"></circle>
<circle clip-path="url(#clip262)" cx="3069.88" cy="582.86" r="14.4" fill="#26b219" fill-rule="evenodd" fill-opacity="0.8" stroke="#000000" stroke-opacity="0.8" stroke-width="0.8"></circle>
<polyline clip-path="url(#clip262)" style="stroke:#49b219; stroke-linecap:round; stroke-linejoin:round; stroke-width:4; stroke-opacity:1; fill:none" points="307.313,697.119 652.634,646.287 997.954,619.77 1343.28,604.71 1688.6,596.032 2033.92,591.02 2379.24,588.123 2724.56,586.449 3069.88,585.482 "></polyline>
<circle clip-path="url(#clip262)" cx="307.313" cy="675.783" r="14.4" fill="#49b219" fill-rule="evenodd" fill-opacity="0.8" stroke="#000000" stroke-opacity="0.8" stroke-width="0.8"></circle>
<circle clip-path="url(#clip262)" cx="652.634" cy="638.682" r="14.4" fill="#49b219" fill-rule="evenodd" fill-opacity="0.8" stroke="#000000" stroke-opacity="0.8" stroke-width="0.8"></circle>
<circle clip-path="url(#clip262)" cx="997.954" cy="615.407" r="14.4" fill="#49b219" fill-rule="evenodd" fill-opacity="0.8" stroke="#000000" stroke-opacity="0.8" stroke-width="0.8"></circle>
<circle clip-path="url(#clip262)" cx="1343.28" cy="601.659" r="14.4" fill="#49b219" fill-rule="evenodd" fill-opacity="0.8" stroke="#000000" stroke-opacity="0.8" stroke-width="0.8"></circle>
<circle clip-path="url(#clip262)" cx="1688.6" cy="593.85" r="14.4" fill="#49b219" fill-rule="evenodd" fill-opacity="0.8" stroke="#000000" stroke-opacity="0.8" stroke-width="0.8"></circle>
<circle clip-path="url(#clip262)" cx="2033.92" cy="589.497" r="14.4" fill="#49b219" fill-rule="evenodd" fill-opacity="0.8" stroke="#000000" stroke-opacity="0.8" stroke-width="0.8"></circle>
<circle clip-path="url(#clip262)" cx="2379.24" cy="587.091" r="14.4" fill="#49b219" fill-rule="evenodd" fill-opacity="0.8" stroke="#000000" stroke-opacity="0.8" stroke-width="0.8"></circle>
<circle clip-path="url(#clip262)" cx="2724.56" cy="585.768" r="14.4" fill="#49b219" fill-rule="evenodd" fill-opacity="0.8" stroke="#000000" stroke-opacity="0.8" stroke-width="0.8"></circle>
<circle clip-path="url(#clip262)" cx="3069.88" cy="585.04" r="14.4" fill="#49b219" fill-rule="evenodd" fill-opacity="0.8" stroke="#000000" stroke-opacity="0.8" stroke-width="0.8"></circle>
</svg>