<svg xmlns="http://www.w3.org/2000/svg" xmlns:xlink="http://www.w3.org/1999/xlink" width="800" height="200" viewBox="0 0 3200 800">
<defs>
  <clipPath id="clip180">
    <rect x="0" y="0" width="3200" height="800"></rect>
  </clipPath>
</defs>
<path clip-path="url(#clip180)" d="M0 800 L3200 800 L3200 0 L0 0  Z" fill="#ffffff" fill-rule="evenodd" fill-opacity="1"></path>
<defs>
  <clipPath id="clip181">
    <rect x="640" y="0" width="2241" height="800"></rect>
  </clipPath>
</defs>
<path clip-path="url(#clip180)" d="M224.598 716.048 L3152.76 716.048 L3152.76 47.2441 L224.598 47.2441  Z" fill="#ffffff" fill-rule="evenodd" fill-opacity="1"></path>
<defs>
  <clipPath id="clip182">
    <rect x="224" y="47" width="2929" height="670"></rect>
  </clipPath>
</defs>
<polyline clip-path="url(#clip182)" style="stroke:#000000; stroke-linecap:round; stroke-linejoin:round; stroke-width:2; stroke-opacity:0.1; fill:none" points="307.47,716.048 307.47,47.2441 "></polyline>
<polyline clip-path="url(#clip182)" style="stroke:#000000; stroke-linecap:round; stroke-linejoin:round; stroke-width:2; stroke-opacity:0.1; fill:none" points="1170.72,716.048 1170.72,47.2441 "></polyline>
<polyline clip-path="url(#clip182)" style="stroke:#000000; stroke-linecap:round; stroke-linejoin:round; stroke-width:2; stroke-opacity:0.1; fill:none" points="2033.98,716.048 2033.98,47.2441 "></polyline>
<polyline clip-path="url(#clip182)" style="stroke:#000000; stroke-linecap:round; stroke-linejoin:round; stroke-width:2; stroke-opacity:0.1; fill:none" points="2897.23,716.048 2897.23,47.2441 "></polyline>
<polyline clip-path="url(#clip182)" style="stroke:#000000; stroke-linecap:round; stroke-linejoin:round; stroke-width:2; stroke-opacity:0.1; fill:none" points="224.598,707.169 3152.76,707.169 "></polyline>
<polyline clip-path="url(#clip182)" style="stroke:#000000; stroke-linecap:round; stroke-linejoin:round; stroke-width:2; stroke-opacity:0.1; fill:none" points="224.598,602.06 3152.76,602.06 "></polyline>
<polyline clip-path="url(#clip182)" style="stroke:#000000; stroke-linecap:round; stroke-linejoin:round; stroke-width:2; stroke-opacity:0.1; fill:none" points="224.598,496.951 3152.76,496.951 "></polyline>
<polyline clip-path="url(#clip182)" style="stroke:#000000; stroke-linecap:round; stroke-linejoin:round; stroke-width:2; stroke-opacity:0.1; fill:none" points="224.598,391.842 3152.76,391.842 "></polyline>
<polyline clip-path="url(#clip182)" style="stroke:#000000; stroke-linecap:round; stroke-linejoin:round; stroke-width:2; stroke-opacity:0.1; fill:none" points="224.598,286.733 3152.76,286.733 "></polyline>
<polyline clip-path="url(#clip182)" style="stroke:#000000; stroke-linecap:round; stroke-linejoin:round; stroke-width:2; stroke-opacity:0.1; fill:none" points="224.598,181.624 3152.76,181.624 "></polyline>
<polyline clip-path="url(#clip182)" style="stroke:#000000; stroke-linecap:round; stroke-linejoin:round; stroke-width:2; stroke-opacity:0.1; fill:none" points="224.598,76.5146 3152.76,76.5146 "></polyline>
<polyline clip-path="url(#clip180)" style="stroke:#000000; stroke-linecap:round; stroke-linejoin:round; stroke-width:4; stroke-opacity:1; fill:none" points="224.598,716.048 3152.76,716.048 "></polyline>
<polyline clip-path="url(#clip180)" style="stroke:#000000; stroke-linecap:round; stroke-linejoin:round; stroke-width:4; stroke-opacity:1; fill:none" points="307.47,716.048 307.47,697.15 "></polyline>
<polyline clip-path="url(#clip180)" style="stroke:#000000; stroke-linecap:round; stroke-linejoin:round; stroke-width:4; stroke-opacity:1; fill:none" points="1170.72,716.048 1170.72,697.15 "></polyline>
<polyline clip-path="url(#clip180)" style="stroke:#000000; stroke-linecap:round; stroke-linejoin:round; stroke-width:4; stroke-opacity:1; fill:none" points="2033.98,716.048 2033.98,697.15 "></polyline>
<polyline clip-path="url(#clip180)" style="stroke:#000000; stroke-linecap:round; stroke-linejoin:round; stroke-width:4; stroke-opacity:1; fill:none" points="2897.23,716.048 2897.23,697.15 "></polyline>
<path clip-path="url(#clip180)" d="M297.748 750.288 L316.105 750.288 L316.105 754.223 L302.031 754.223 L302.031 762.695 Q303.049 762.348 304.068 762.186 Q305.086 762.001 306.105 762.001 Q311.892 762.001 315.271 765.172 Q318.651 768.343 318.651 773.76 Q318.651 779.339 315.179 782.44 Q311.706 785.519 305.387 785.519 Q303.211 785.519 300.943 785.149 Q298.697 784.778 296.29 784.038 L296.29 779.339 Q298.373 780.473 300.595 781.028 Q302.818 781.584 305.294 781.584 Q309.299 781.584 311.637 779.478 Q313.975 777.371 313.975 773.76 Q313.975 770.149 311.637 768.042 Q309.299 765.936 305.294 765.936 Q303.419 765.936 301.544 766.353 Q299.693 766.769 297.748 767.649 L297.748 750.288 Z" fill="#000000" fill-rule="nonzero" fill-opacity="1"></path><path clip-path="url(#clip180)" d="M1145.41 780.913 L1153.05 780.913 L1153.05 754.547 L1144.74 756.214 L1144.74 751.955 L1153 750.288 L1157.68 750.288 L1157.68 780.913 L1165.32 780.913 L1165.32 784.848 L1145.41 784.848 L1145.41 780.913 Z" fill="#000000" fill-rule="nonzero" fill-opacity="1"></path><path clip-path="url(#clip180)" d="M1184.76 753.367 Q1181.15 753.367 1179.32 756.931 Q1177.52 760.473 1177.52 767.603 Q1177.52 774.709 1179.32 778.274 Q1181.15 781.815 1184.76 781.815 Q1188.4 781.815 1190.2 778.274 Q1192.03 774.709 1192.03 767.603 Q1192.03 760.473 1190.2 756.931 Q1188.4 753.367 1184.76 753.367 M1184.76 749.663 Q1190.57 749.663 1193.63 754.269 Q1196.71 758.853 1196.71 767.603 Q1196.71 776.329 1193.63 780.936 Q1190.57 785.519 1184.76 785.519 Q1178.95 785.519 1175.87 780.936 Q1172.82 776.329 1172.82 767.603 Q1172.82 758.853 1175.87 754.269 Q1178.95 749.663 1184.76 749.663 Z" fill="#000000" fill-rule="nonzero" fill-opacity="1"></path><path clip-path="url(#clip180)" d="M2009.16 780.913 L2016.8 780.913 L2016.8 754.547 L2008.49 756.214 L2008.49 751.955 L2016.76 750.288 L2021.43 750.288 L2021.43 780.913 L2029.07 780.913 L2029.07 784.848 L2009.16 784.848 L2009.16 780.913 Z" fill="#000000" fill-rule="nonzero" fill-opacity="1"></path><path clip-path="url(#clip180)" d="M2038.56 750.288 L2056.92 750.288 L2056.92 754.223 L2042.84 754.223 L2042.84 762.695 Q2043.86 762.348 2044.88 762.186 Q2045.9 762.001 2046.92 762.001 Q2052.71 762.001 2056.08 765.172 Q2059.46 768.343 2059.46 773.76 Q2059.46 779.339 2055.99 782.44 Q2052.52 785.519 2046.2 785.519 Q2044.02 785.519 2041.76 785.149 Q2039.51 784.778 2037.1 784.038 L2037.1 779.339 Q2039.19 780.473 2041.41 781.028 Q2043.63 781.584 2046.11 781.584 Q2050.11 781.584 2052.45 779.478 Q2054.79 777.371 2054.79 773.76 Q2054.79 770.149 2052.45 768.042 Q2050.11 765.936 2046.11 765.936 Q2044.23 765.936 2042.36 766.353 Q2040.51 766.769 2038.56 767.649 L2038.56 750.288 Z" fill="#000000" fill-rule="nonzero" fill-opacity="1"></path><path clip-path="url(#clip180)" d="M2876.01 780.913 L2892.33 780.913 L2892.33 784.848 L2870.38 784.848 L2870.38 780.913 Q2873.04 778.158 2877.63 773.528 Q2882.23 768.876 2883.41 767.533 Q2885.66 765.01 2886.54 763.274 Q2887.44 761.515 2887.44 759.825 Q2887.44 757.07 2885.5 755.334 Q2883.58 753.598 2880.47 753.598 Q2878.27 753.598 2875.82 754.362 Q2873.39 755.126 2870.61 756.677 L2870.61 751.955 Q2873.44 750.82 2875.89 750.242 Q2878.34 749.663 2880.38 749.663 Q2885.75 749.663 2888.95 752.348 Q2892.14 755.033 2892.14 759.524 Q2892.14 761.654 2891.33 763.575 Q2890.54 765.473 2888.44 768.066 Q2887.86 768.737 2884.76 771.954 Q2881.65 775.149 2876.01 780.913 Z" fill="#000000" fill-rule="nonzero" fill-opacity="1"></path><path clip-path="url(#clip180)" d="M2912.14 753.367 Q2908.53 753.367 2906.7 756.931 Q2904.89 760.473 2904.89 767.603 Q2904.89 774.709 2906.7 778.274 Q2908.53 781.815 2912.14 781.815 Q2915.77 781.815 2917.58 778.274 Q2919.41 774.709 2919.41 767.603 Q2919.41 760.473 2917.58 756.931 Q2915.77 753.367 2912.14 753.367 M2912.14 749.663 Q2917.95 749.663 2921.01 754.269 Q2924.08 758.853 2924.08 767.603 Q2924.08 776.329 2921.01 780.936 Q2917.95 785.519 2912.14 785.519 Q2906.33 785.519 2903.25 780.936 Q2900.2 776.329 2900.2 767.603 Q2900.2 758.853 2903.25 754.269 Q2906.33 749.663 2912.14 749.663 Z" fill="#000000" fill-rule="nonzero" fill-opacity="1"></path><polyline clip-path="url(#clip180)" style="stroke:#000000; stroke-linecap:round; stroke-linejoin:round; stroke-width:4; stroke-opacity:1; fill:none" points="224.598,716.048 224.598,47.2441 "></polyline>
<polyline clip-path="url(#clip180)" style="stroke:#000000; stroke-linecap:round; stroke-linejoin:round; stroke-width:4; stroke-opacity:1; fill:none" points="224.598,707.169 243.496,707.169 "></polyline>
<polyline clip-path="url(#clip180)" style="stroke:#000000; stroke-linecap:round; stroke-linejoin:round; stroke-width:4; stroke-opacity:1; fill:none" points="224.598,602.06 243.496,602.06 "></polyline>
<polyline clip-path="url(#clip180)" style="stroke:#000000; stroke-linecap:round; stroke-linejoin:round; stroke-width:4; stroke-opacity:1; fill:none" points="224.598,496.951 243.496,496.951 "></polyline>
<polyline clip-path="url(#clip180)" style="stroke:#000000; stroke-linecap:round; stroke-linejoin:round; stroke-width:4; stroke-opacity:1; fill:none" points="224.598,391.842 243.496,391.842 "></polyline>
<polyline clip-path="url(#clip180)" style="stroke:#000000; stroke-linecap:round; stroke-linejoin:round; stroke-width:4; stroke-opacity:1; fill:none" points="224.598,286.733 243.496,286.733 "></polyline>
<polyline clip-path="url(#clip180)" style="stroke:#000000; stroke-linecap:round; stroke-linejoin:round; stroke-width:4; stroke-opacity:1; fill:none" points="224.598,181.624 243.496,181.624 "></polyline>
<polyline clip-path="url(#clip180)" style="stroke:#000000; stroke-linecap:round; stroke-linejoin:round; stroke-width:4; stroke-opacity:1; fill:none" points="224.598,76.5146 243.496,76.5146 "></polyline>
<path clip-path="url(#clip180)" d="M60.0939 692.967 Q56.4828 692.967 54.6541 696.532 Q52.8486 700.074 52.8486 707.204 Q52.8486 714.31 54.6541 717.875 Q56.4828 721.416 60.0939 721.416 Q63.7281 721.416 65.5337 717.875 Q67.3624 714.31 67.3624 707.204 Q67.3624 700.074 65.5337 696.532 Q63.7281 692.967 60.0939 692.967 M60.0939 689.264 Q65.9041 689.264 68.9596 693.87 Q72.0383 698.454 72.0383 707.204 Q72.0383 715.93 68.9596 720.537 Q65.9041 725.12 60.0939 725.12 Q54.2838 725.12 51.2051 720.537 Q48.1495 715.93 48.1495 707.204 Q48.1495 698.454 51.2051 693.87 Q54.2838 689.264 60.0939 689.264 Z" fill="#000000" fill-rule="nonzero" fill-opacity="1"></path><path clip-path="url(#clip180)" d="M80.2558 718.569 L85.1401 718.569 L85.1401 724.449 L80.2558 724.449 L80.2558 718.569 Z" fill="#000000" fill-rule="nonzero" fill-opacity="1"></path><path clip-path="url(#clip180)" d="M105.325 692.967 Q101.714 692.967 99.8854 696.532 Q98.0798 700.074 98.0798 707.204 Q98.0798 714.31 99.8854 717.875 Q101.714 721.416 105.325 721.416 Q108.959 721.416 110.765 717.875 Q112.594 714.31 112.594 707.204 Q112.594 700.074 110.765 696.532 Q108.959 692.967 105.325 692.967 M105.325 689.264 Q111.135 689.264 114.191 693.87 Q117.27 698.454 117.27 707.204 Q117.27 715.93 114.191 720.537 Q111.135 725.12 105.325 725.12 Q99.515 725.12 96.4363 720.537 Q93.3808 715.93 93.3808 707.204 Q93.3808 698.454 96.4363 693.87 Q99.515 689.264 105.325 689.264 Z" fill="#000000" fill-rule="nonzero" fill-opacity="1"></path><path clip-path="url(#clip180)" d="M129.515 720.514 L145.834 720.514 L145.834 724.449 L123.89 724.449 L123.89 720.514 Q126.552 717.759 131.135 713.129 Q135.742 708.477 136.922 707.134 Q139.168 704.611 140.047 702.875 Q140.95 701.116 140.95 699.426 Q140.95 696.671 139.006 694.935 Q137.084 693.199 133.982 693.199 Q131.783 693.199 129.33 693.963 Q126.899 694.727 124.121 696.278 L124.121 691.555 Q126.945 690.421 129.399 689.843 Q131.853 689.264 133.89 689.264 Q139.26 689.264 142.455 691.949 Q145.649 694.634 145.649 699.125 Q145.649 701.254 144.839 703.176 Q144.052 705.074 141.945 707.666 Q141.367 708.338 138.265 711.555 Q135.163 714.75 129.515 720.514 Z" fill="#000000" fill-rule="nonzero" fill-opacity="1"></path><path clip-path="url(#clip180)" d="M155.695 689.889 L174.052 689.889 L174.052 693.824 L159.978 693.824 L159.978 702.296 Q160.996 701.949 162.015 701.787 Q163.033 701.602 164.052 701.602 Q169.839 701.602 173.218 704.773 Q176.598 707.944 176.598 713.361 Q176.598 718.94 173.126 722.041 Q169.654 725.12 163.334 725.12 Q161.158 725.12 158.89 724.75 Q156.644 724.379 154.237 723.639 L154.237 718.94 Q156.32 720.074 158.542 720.629 Q160.765 721.185 163.242 721.185 Q167.246 721.185 169.584 719.078 Q171.922 716.972 171.922 713.361 Q171.922 709.75 169.584 707.643 Q167.246 705.537 163.242 705.537 Q161.367 705.537 159.492 705.954 Q157.64 706.37 155.695 707.25 L155.695 689.889 Z" fill="#000000" fill-rule="nonzero" fill-opacity="1"></path><path clip-path="url(#clip180)" d="M58.9365 587.858 Q55.3254 587.858 53.4967 591.423 Q51.6912 594.965 51.6912 602.094 Q51.6912 609.201 53.4967 612.766 Q55.3254 616.307 58.9365 616.307 Q62.5707 616.307 64.3763 612.766 Q66.205 609.201 66.205 602.094 Q66.205 594.965 64.3763 591.423 Q62.5707 587.858 58.9365 587.858 M58.9365 584.155 Q64.7467 584.155 67.8022 588.761 Q70.8809 593.345 70.8809 602.094 Q70.8809 610.821 67.8022 615.428 Q64.7467 620.011 58.9365 620.011 Q53.1264 620.011 50.0477 615.428 Q46.9921 610.821 46.9921 602.094 Q46.9921 593.345 50.0477 588.761 Q53.1264 584.155 58.9365 584.155 Z" fill="#000000" fill-rule="nonzero" fill-opacity="1"></path><path clip-path="url(#clip180)" d="M79.0984 613.46 L83.9827 613.46 L83.9827 619.34 L79.0984 619.34 L79.0984 613.46 Z" fill="#000000" fill-rule="nonzero" fill-opacity="1"></path><path clip-path="url(#clip180)" d="M104.168 587.858 Q100.557 587.858 98.728 591.423 Q96.9224 594.965 96.9224 602.094 Q96.9224 609.201 98.728 612.766 Q100.557 616.307 104.168 616.307 Q107.802 616.307 109.608 612.766 Q111.436 609.201 111.436 602.094 Q111.436 594.965 109.608 591.423 Q107.802 587.858 104.168 587.858 M104.168 584.155 Q109.978 584.155 113.033 588.761 Q116.112 593.345 116.112 602.094 Q116.112 610.821 113.033 615.428 Q109.978 620.011 104.168 620.011 Q98.3576 620.011 95.2789 615.428 Q92.2234 610.821 92.2234 602.094 Q92.2234 593.345 95.2789 588.761 Q98.3576 584.155 104.168 584.155 Z" fill="#000000" fill-rule="nonzero" fill-opacity="1"></path><path clip-path="url(#clip180)" d="M128.357 615.405 L144.677 615.405 L144.677 619.34 L122.732 619.34 L122.732 615.405 Q125.394 612.65 129.978 608.02 Q134.584 603.368 135.765 602.025 Q138.01 599.502 138.89 597.766 Q139.793 596.007 139.793 594.317 Q139.793 591.562 137.848 589.826 Q135.927 588.09 132.825 588.09 Q130.626 588.09 128.172 588.854 Q125.742 589.618 122.964 591.169 L122.964 586.446 Q125.788 585.312 128.242 584.733 Q130.695 584.155 132.732 584.155 Q138.103 584.155 141.297 586.84 Q144.492 589.525 144.492 594.016 Q144.492 596.145 143.681 598.067 Q142.894 599.965 140.788 602.557 Q140.209 603.229 137.107 606.446 Q134.006 609.641 128.357 615.405 Z" fill="#000000" fill-rule="nonzero" fill-opacity="1"></path><path clip-path="url(#clip180)" d="M165.07 600.196 Q161.922 600.196 160.07 602.349 Q158.242 604.502 158.242 608.252 Q158.242 611.979 160.07 614.155 Q161.922 616.307 165.07 616.307 Q168.218 616.307 170.047 614.155 Q171.899 611.979 171.899 608.252 Q171.899 604.502 170.047 602.349 Q168.218 600.196 165.07 600.196 M174.353 585.544 L174.353 589.803 Q172.593 588.97 170.788 588.53 Q169.005 588.09 167.246 588.09 Q162.617 588.09 160.163 591.215 Q157.732 594.34 157.385 600.659 Q158.751 598.645 160.811 597.581 Q162.871 596.493 165.348 596.493 Q170.556 596.493 173.566 599.664 Q176.598 602.812 176.598 608.252 Q176.598 613.576 173.45 616.793 Q170.302 620.011 165.07 620.011 Q159.075 620.011 155.904 615.428 Q152.732 610.821 152.732 602.094 Q152.732 593.9 156.621 589.039 Q160.51 584.155 167.061 584.155 Q168.82 584.155 170.603 584.502 Q172.408 584.849 174.353 585.544 Z" fill="#000000" fill-rule="nonzero" fill-opacity="1"></path><path clip-path="url(#clip180)" d="M60.0013 482.749 Q56.3902 482.749 54.5615 486.314 Q52.756 489.856 52.756 496.985 Q52.756 504.092 54.5615 507.657 Q56.3902 511.198 60.0013 511.198 Q63.6356 511.198 65.4411 507.657 Q67.2698 504.092 67.2698 496.985 Q67.2698 489.856 65.4411 486.314 Q63.6356 482.749 60.0013 482.749 M60.0013 479.046 Q65.8115 479.046 68.867 483.652 Q71.9457 488.236 71.9457 496.985 Q71.9457 505.712 68.867 510.319 Q65.8115 514.902 60.0013 514.902 Q54.1912 514.902 51.1125 510.319 Q48.0569 505.712 48.0569 496.985 Q48.0569 488.236 51.1125 483.652 Q54.1912 479.046 60.0013 479.046 Z" fill="#000000" fill-rule="nonzero" fill-opacity="1"></path><path clip-path="url(#clip180)" d="M80.1632 508.351 L85.0475 508.351 L85.0475 514.231 L80.1632 514.231 L80.1632 508.351 Z" fill="#000000" fill-rule="nonzero" fill-opacity="1"></path><path clip-path="url(#clip180)" d="M105.233 482.749 Q101.621 482.749 99.7928 486.314 Q97.9872 489.856 97.9872 496.985 Q97.9872 504.092 99.7928 507.657 Q101.621 511.198 105.233 511.198 Q108.867 511.198 110.672 507.657 Q112.501 504.092 112.501 496.985 Q112.501 489.856 110.672 486.314 Q108.867 482.749 105.233 482.749 M105.233 479.046 Q111.043 479.046 114.098 483.652 Q117.177 488.236 117.177 496.985 Q117.177 505.712 114.098 510.319 Q111.043 514.902 105.233 514.902 Q99.4224 514.902 96.3437 510.319 Q93.2882 505.712 93.2882 496.985 Q93.2882 488.236 96.3437 483.652 Q99.4224 479.046 105.233 479.046 Z" fill="#000000" fill-rule="nonzero" fill-opacity="1"></path><path clip-path="url(#clip180)" d="M129.422 510.296 L145.742 510.296 L145.742 514.231 L123.797 514.231 L123.797 510.296 Q126.459 507.541 131.043 502.911 Q135.649 498.259 136.83 496.916 Q139.075 494.393 139.955 492.657 Q140.857 490.898 140.857 489.208 Q140.857 486.453 138.913 484.717 Q136.992 482.981 133.89 482.981 Q131.691 482.981 129.237 483.745 Q126.807 484.509 124.029 486.06 L124.029 481.337 Q126.853 480.203 129.306 479.624 Q131.76 479.046 133.797 479.046 Q139.168 479.046 142.362 481.731 Q145.556 484.416 145.556 488.907 Q145.556 491.036 144.746 492.958 Q143.959 494.856 141.853 497.448 Q141.274 498.12 138.172 501.337 Q135.07 504.532 129.422 510.296 Z" fill="#000000" fill-rule="nonzero" fill-opacity="1"></path><path clip-path="url(#clip180)" d="M154.376 479.671 L176.598 479.671 L176.598 481.661 L164.052 514.231 L159.167 514.231 L170.973 483.606 L154.376 483.606 L154.376 479.671 Z" fill="#000000" fill-rule="nonzero" fill-opacity="1"></path><path clip-path="url(#clip180)" d="M59.1911 377.64 Q55.58 377.64 53.7513 381.205 Q51.9458 384.747 51.9458 391.876 Q51.9458 398.983 53.7513 402.548 Q55.58 406.089 59.1911 406.089 Q62.8254 406.089 64.6309 402.548 Q66.4596 398.983 66.4596 391.876 Q66.4596 384.747 64.6309 381.205 Q62.8254 377.64 59.1911 377.64 M59.1911 373.937 Q65.0013 373.937 68.0568 378.543 Q71.1355 383.126 71.1355 391.876 Q71.1355 400.603 68.0568 405.21 Q65.0013 409.793 59.1911 409.793 Q53.381 409.793 50.3023 405.21 Q47.2468 400.603 47.2468 391.876 Q47.2468 383.126 50.3023 378.543 Q53.381 373.937 59.1911 373.937 Z" fill="#000000" fill-rule="nonzero" fill-opacity="1"></path><path clip-path="url(#clip180)" d="M79.3531 403.242 L84.2373 403.242 L84.2373 409.122 L79.3531 409.122 L79.3531 403.242 Z" fill="#000000" fill-rule="nonzero" fill-opacity="1"></path><path clip-path="url(#clip180)" d="M104.422 377.64 Q100.811 377.64 98.9826 381.205 Q97.177 384.747 97.177 391.876 Q97.177 398.983 98.9826 402.548 Q100.811 406.089 104.422 406.089 Q108.057 406.089 109.862 402.548 Q111.691 398.983 111.691 391.876 Q111.691 384.747 109.862 381.205 Q108.057 377.64 104.422 377.64 M104.422 373.937 Q110.233 373.937 113.288 378.543 Q116.367 383.126 116.367 391.876 Q116.367 400.603 113.288 405.21 Q110.233 409.793 104.422 409.793 Q98.6122 409.793 95.5335 405.21 Q92.478 400.603 92.478 391.876 Q92.478 383.126 95.5335 378.543 Q98.6122 373.937 104.422 373.937 Z" fill="#000000" fill-rule="nonzero" fill-opacity="1"></path><path clip-path="url(#clip180)" d="M128.612 405.187 L144.931 405.187 L144.931 409.122 L122.987 409.122 L122.987 405.187 Q125.649 402.432 130.232 397.802 Q134.839 393.15 136.019 391.807 Q138.265 389.284 139.144 387.548 Q140.047 385.789 140.047 384.099 Q140.047 381.344 138.103 379.608 Q136.181 377.872 133.08 377.872 Q130.881 377.872 128.427 378.636 Q125.996 379.4 123.219 380.951 L123.219 376.228 Q126.043 375.094 128.496 374.515 Q130.95 373.937 132.987 373.937 Q138.357 373.937 141.552 376.622 Q144.746 379.307 144.746 383.798 Q144.746 385.927 143.936 387.849 Q143.149 389.747 141.043 392.339 Q140.464 393.011 137.362 396.228 Q134.26 399.423 128.612 405.187 Z" fill="#000000" fill-rule="nonzero" fill-opacity="1"></path><path clip-path="url(#clip180)" d="M164.746 392.71 Q161.413 392.71 159.492 394.492 Q157.593 396.275 157.593 399.4 Q157.593 402.525 159.492 404.307 Q161.413 406.089 164.746 406.089 Q168.079 406.089 170.001 404.307 Q171.922 402.501 171.922 399.4 Q171.922 396.275 170.001 394.492 Q168.103 392.71 164.746 392.71 M160.07 390.719 Q157.061 389.978 155.371 387.918 Q153.705 385.858 153.705 382.895 Q153.705 378.752 156.644 376.344 Q159.607 373.937 164.746 373.937 Q169.908 373.937 172.848 376.344 Q175.788 378.752 175.788 382.895 Q175.788 385.858 174.098 387.918 Q172.431 389.978 169.445 390.719 Q172.825 391.506 174.7 393.798 Q176.598 396.089 176.598 399.4 Q176.598 404.423 173.519 407.108 Q170.464 409.793 164.746 409.793 Q159.029 409.793 155.95 407.108 Q152.894 404.423 152.894 399.4 Q152.894 396.089 154.792 393.798 Q156.691 391.506 160.07 390.719 M158.357 383.335 Q158.357 386.02 160.024 387.525 Q161.714 389.029 164.746 389.029 Q167.755 389.029 169.445 387.525 Q171.158 386.02 171.158 383.335 Q171.158 380.65 169.445 379.145 Q167.755 377.64 164.746 377.64 Q161.714 377.64 160.024 379.145 Q158.357 380.65 158.357 383.335 Z" fill="#000000" fill-rule="nonzero" fill-opacity="1"></path><path clip-path="url(#clip180)" d="M59.2837 272.531 Q55.6726 272.531 53.8439 276.096 Q52.0384 279.638 52.0384 286.767 Q52.0384 293.874 53.8439 297.439 Q55.6726 300.98 59.2837 300.98 Q62.918 300.98 64.7235 297.439 Q66.5522 293.874 66.5522 286.767 Q66.5522 279.638 64.7235 276.096 Q62.918 272.531 59.2837 272.531 M59.2837 268.828 Q65.0939 268.828 68.1494 273.434 Q71.2281 278.017 71.2281 286.767 Q71.2281 295.494 68.1494 300.101 Q65.0939 304.684 59.2837 304.684 Q53.4736 304.684 50.3949 300.101 Q47.3393 295.494 47.3393 286.767 Q47.3393 278.017 50.3949 273.434 Q53.4736 268.828 59.2837 268.828 Z" fill="#000000" fill-rule="nonzero" fill-opacity="1"></path><path clip-path="url(#clip180)" d="M79.4457 298.133 L84.3299 298.133 L84.3299 304.013 L79.4457 304.013 L79.4457 298.133 Z" fill="#000000" fill-rule="nonzero" fill-opacity="1"></path><path clip-path="url(#clip180)" d="M104.515 272.531 Q100.904 272.531 99.0752 276.096 Q97.2696 279.638 97.2696 286.767 Q97.2696 293.874 99.0752 297.439 Q100.904 300.98 104.515 300.98 Q108.149 300.98 109.955 297.439 Q111.783 293.874 111.783 286.767 Q111.783 279.638 109.955 276.096 Q108.149 272.531 104.515 272.531 M104.515 268.828 Q110.325 268.828 113.381 273.434 Q116.459 278.017 116.459 286.767 Q116.459 295.494 113.381 300.101 Q110.325 304.684 104.515 304.684 Q98.7048 304.684 95.6261 300.101 Q92.5706 295.494 92.5706 286.767 Q92.5706 278.017 95.6261 273.434 Q98.7048 268.828 104.515 268.828 Z" fill="#000000" fill-rule="nonzero" fill-opacity="1"></path><path clip-path="url(#clip180)" d="M128.705 300.078 L145.024 300.078 L145.024 304.013 L123.08 304.013 L123.08 300.078 Q125.742 297.323 130.325 292.693 Q134.931 288.041 136.112 286.698 Q138.357 284.175 139.237 282.439 Q140.14 280.679 140.14 278.99 Q140.14 276.235 138.195 274.499 Q136.274 272.763 133.172 272.763 Q130.973 272.763 128.519 273.527 Q126.089 274.291 123.311 275.842 L123.311 271.119 Q126.135 269.985 128.589 269.406 Q131.043 268.828 133.08 268.828 Q138.45 268.828 141.644 271.513 Q144.839 274.198 144.839 278.689 Q144.839 280.818 144.029 282.74 Q143.242 284.638 141.135 287.23 Q140.556 287.902 137.455 291.119 Q134.353 294.314 128.705 300.078 Z" fill="#000000" fill-rule="nonzero" fill-opacity="1"></path><path clip-path="url(#clip180)" d="M154.978 303.295 L154.978 299.036 Q156.737 299.869 158.542 300.309 Q160.348 300.749 162.084 300.749 Q166.714 300.749 169.144 297.647 Q171.598 294.522 171.945 288.179 Q170.603 290.17 168.542 291.235 Q166.482 292.3 163.982 292.3 Q158.797 292.3 155.765 289.175 Q152.755 286.027 152.755 280.587 Q152.755 275.263 155.904 272.045 Q159.052 268.828 164.283 268.828 Q170.279 268.828 173.427 273.434 Q176.598 278.017 176.598 286.767 Q176.598 294.939 172.709 299.823 Q168.843 304.684 162.292 304.684 Q160.533 304.684 158.728 304.337 Q156.922 303.99 154.978 303.295 M164.283 288.642 Q167.431 288.642 169.26 286.49 Q171.112 284.337 171.112 280.587 Q171.112 276.86 169.26 274.707 Q167.431 272.531 164.283 272.531 Q161.135 272.531 159.283 274.707 Q157.454 276.86 157.454 280.587 Q157.454 284.337 159.283 286.49 Q161.135 288.642 164.283 288.642 Z" fill="#000000" fill-rule="nonzero" fill-opacity="1"></path><path clip-path="url(#clip180)" d="M59.0985 167.422 Q55.4875 167.422 53.6588 170.987 Q51.8532 174.529 51.8532 181.658 Q51.8532 188.765 53.6588 192.33 Q55.4875 195.871 59.0985 195.871 Q62.7328 195.871 64.5383 192.33 Q66.367 188.765 66.367 181.658 Q66.367 174.529 64.5383 170.987 Q62.7328 167.422 59.0985 167.422 M59.0985 163.719 Q64.9087 163.719 67.9642 168.325 Q71.0429 172.908 71.0429 181.658 Q71.0429 190.385 67.9642 194.992 Q64.9087 199.575 59.0985 199.575 Q53.2884 199.575 50.2097 194.992 Q47.1542 190.385 47.1542 181.658 Q47.1542 172.908 50.2097 168.325 Q53.2884 163.719 59.0985 163.719 Z" fill="#000000" fill-rule="nonzero" fill-opacity="1"></path><path clip-path="url(#clip180)" d="M79.2605 193.024 L84.1447 193.024 L84.1447 198.904 L79.2605 198.904 L79.2605 193.024 Z" fill="#000000" fill-rule="nonzero" fill-opacity="1"></path><path clip-path="url(#clip180)" d="M104.33 167.422 Q100.719 167.422 98.89 170.987 Q97.0845 174.529 97.0845 181.658 Q97.0845 188.765 98.89 192.33 Q100.719 195.871 104.33 195.871 Q107.964 195.871 109.77 192.33 Q111.598 188.765 111.598 181.658 Q111.598 174.529 109.77 170.987 Q107.964 167.422 104.33 167.422 M104.33 163.719 Q110.14 163.719 113.195 168.325 Q116.274 172.908 116.274 181.658 Q116.274 190.385 113.195 194.992 Q110.14 199.575 104.33 199.575 Q98.5196 199.575 95.4409 194.992 Q92.3854 190.385 92.3854 181.658 Q92.3854 172.908 95.4409 168.325 Q98.5196 163.719 104.33 163.719 Z" fill="#000000" fill-rule="nonzero" fill-opacity="1"></path><path clip-path="url(#clip180)" d="M138.658 180.269 Q142.015 180.987 143.89 183.256 Q145.788 185.524 145.788 188.857 Q145.788 193.973 142.269 196.774 Q138.751 199.575 132.269 199.575 Q130.094 199.575 127.779 199.135 Q125.487 198.718 123.033 197.862 L123.033 193.348 Q124.978 194.482 127.293 195.061 Q129.607 195.64 132.131 195.64 Q136.529 195.64 138.82 193.904 Q141.135 192.168 141.135 188.857 Q141.135 185.802 138.982 184.089 Q136.853 182.353 133.033 182.353 L129.006 182.353 L129.006 178.51 L133.219 178.51 Q136.668 178.51 138.496 177.145 Q140.325 175.756 140.325 173.163 Q140.325 170.501 138.427 169.089 Q136.552 167.654 133.033 167.654 Q131.112 167.654 128.913 168.07 Q126.714 168.487 124.075 169.367 L124.075 165.2 Q126.737 164.459 129.052 164.089 Q131.39 163.719 133.45 163.719 Q138.774 163.719 141.876 166.149 Q144.978 168.557 144.978 172.677 Q144.978 175.547 143.334 177.538 Q141.691 179.506 138.658 180.269 Z" fill="#000000" fill-rule="nonzero" fill-opacity="1"></path><path clip-path="url(#clip180)" d="M164.654 167.422 Q161.042 167.422 159.214 170.987 Q157.408 174.529 157.408 181.658 Q157.408 188.765 159.214 192.33 Q161.042 195.871 164.654 195.871 Q168.288 195.871 170.093 192.33 Q171.922 188.765 171.922 181.658 Q171.922 174.529 170.093 170.987 Q168.288 167.422 164.654 167.422 M164.654 163.719 Q170.464 163.719 173.519 168.325 Q176.598 172.908 176.598 181.658 Q176.598 190.385 173.519 194.992 Q170.464 199.575 164.654 199.575 Q158.843 199.575 155.765 194.992 Q152.709 190.385 152.709 181.658 Q152.709 172.908 155.765 168.325 Q158.843 163.719 164.654 163.719 Z" fill="#000000" fill-rule="nonzero" fill-opacity="1"></path><path clip-path="url(#clip180)" d="M60.3254 62.3133 Q56.7143 62.3133 54.8856 65.8781 Q53.0801 69.4197 53.0801 76.5493 Q53.0801 83.6558 54.8856 87.2206 Q56.7143 90.7622 60.3254 90.7622 Q63.9596 90.7622 65.7652 87.2206 Q67.5939 83.6558 67.5939 76.5493 Q67.5939 69.4197 65.7652 65.8781 Q63.9596 62.3133 60.3254 62.3133 M60.3254 58.6096 Q66.1355 58.6096 69.1911 63.2161 Q72.2698 67.7994 72.2698 76.5493 Q72.2698 85.2761 69.1911 89.8826 Q66.1355 94.4659 60.3254 94.4659 Q54.5152 94.4659 51.4365 89.8826 Q48.381 85.2761 48.381 76.5493 Q48.381 67.7994 51.4365 63.2161 Q54.5152 58.6096 60.3254 58.6096 Z" fill="#000000" fill-rule="nonzero" fill-opacity="1"></path><path clip-path="url(#clip180)" d="M80.4873 87.915 L85.3715 87.915 L85.3715 93.7946 L80.4873 93.7946 L80.4873 87.915 Z" fill="#000000" fill-rule="nonzero" fill-opacity="1"></path><path clip-path="url(#clip180)" d="M105.557 62.3133 Q101.946 62.3133 100.117 65.8781 Q98.3113 69.4197 98.3113 76.5493 Q98.3113 83.6558 100.117 87.2206 Q101.946 90.7622 105.557 90.7622 Q109.191 90.7622 110.996 87.2206 Q112.825 83.6558 112.825 76.5493 Q112.825 69.4197 110.996 65.8781 Q109.191 62.3133 105.557 62.3133 M105.557 58.6096 Q111.367 58.6096 114.422 63.2161 Q117.501 67.7994 117.501 76.5493 Q117.501 85.2761 114.422 89.8826 Q111.367 94.4659 105.557 94.4659 Q99.7465 94.4659 96.6678 89.8826 Q93.6122 85.2761 93.6122 76.5493 Q93.6122 67.7994 96.6678 63.2161 Q99.7465 58.6096 105.557 58.6096 Z" fill="#000000" fill-rule="nonzero" fill-opacity="1"></path><path clip-path="url(#clip180)" d="M139.885 75.1605 Q143.242 75.878 145.117 78.1465 Q147.015 80.4151 147.015 83.7484 Q147.015 88.8641 143.496 91.665 Q139.978 94.4659 133.496 94.4659 Q131.32 94.4659 129.006 94.0261 Q126.714 93.6094 124.26 92.753 L124.26 88.2391 Q126.205 89.3733 128.519 89.952 Q130.834 90.5307 133.357 90.5307 Q137.756 90.5307 140.047 88.7946 Q142.362 87.0585 142.362 83.7484 Q142.362 80.6928 140.209 78.9799 Q138.08 77.2438 134.26 77.2438 L130.232 77.2438 L130.232 73.4012 L134.445 73.4012 Q137.894 73.4012 139.723 72.0355 Q141.552 70.6466 141.552 68.054 Q141.552 65.392 139.654 63.98 Q137.779 62.5448 134.26 62.5448 Q132.339 62.5448 130.14 62.9614 Q127.941 63.3781 125.302 64.2577 L125.302 60.0911 Q127.964 59.3504 130.279 58.98 Q132.617 58.6096 134.677 58.6096 Q140.001 58.6096 143.103 61.0402 Q146.205 63.4476 146.205 67.5679 Q146.205 70.4383 144.561 72.429 Q142.918 74.3966 139.885 75.1605 Z" fill="#000000" fill-rule="nonzero" fill-opacity="1"></path><path clip-path="url(#clip180)" d="M156.691 89.8594 L164.329 89.8594 L164.329 63.4938 L156.019 65.1605 L156.019 60.9013 L164.283 59.2346 L168.959 59.2346 L168.959 89.8594 L176.598 89.8594 L176.598 93.7946 L156.691 93.7946 L156.691 89.8594 Z" fill="#000000" fill-rule="nonzero" fill-opacity="1"></path><polyline clip-path="url(#clip182)" style="stroke:#192bb2; stroke-linecap:round; stroke-linejoin:round; stroke-width:4; stroke-opacity:1; fill:none" points="307.47,697.119 652.772,488.719 998.074,357.545 1343.38,274.55 1688.68,223.586 2033.98,193.024 2379.28,174.971 2724.58,164.404 3069.88,158.251 "></polyline>
<circle clip-path="url(#clip182)" cx="307.47" cy="607.63" r="14.4" fill="#192bb2" fill-rule="evenodd" fill-opacity="0.8" stroke="#000000" stroke-opacity="0.8" stroke-width="0.8"></circle>
<circle clip-path="url(#clip182)" cx="652.772" cy="422.234" r="14.4" fill="#192bb2" fill-rule="evenodd" fill-opacity="0.8" stroke="#000000" stroke-opacity="0.8" stroke-width="0.8"></circle>
<circle clip-path="url(#clip182)" cx="998.074" cy="305.929" r="14.4" fill="#192bb2" fill-rule="evenodd" fill-opacity="0.8" stroke="#000000" stroke-opacity="0.8" stroke-width="0.8"></circle>
<circle clip-path="url(#clip182)" cx="1343.38" cy="237.23" r="14.4" fill="#192bb2" fill-rule="evenodd" fill-opacity="0.8" stroke="#000000" stroke-opacity="0.8" stroke-width="0.8"></circle>
<circle clip-path="url(#clip182)" cx="1688.68" cy="198.211" r="14.4" fill="#192bb2" fill-rule="evenodd" fill-opacity="0.8" stroke="#000000" stroke-opacity="0.8" stroke-width="0.8"></circle>
<circle clip-path="url(#clip182)" cx="2033.98" cy="176.457" r="14.4" fill="#192bb2" fill-rule="evenodd" fill-opacity="0.8" stroke="#000000" stroke-opacity="0.8" stroke-width="0.8"></circle>
<circle clip-path="url(#clip182)" cx="2379.28" cy="164.436" r="14.4" fill="#192bb2" fill-rule="evenodd" fill-opacity="0.8" stroke="#000000" stroke-opacity="0.8" stroke-width="0.8"></circle>
<circle clip-path="url(#clip182)" cx="2724.58" cy="157.82" r="14.4" fill="#192bb2" fill-rule="evenodd" fill-opacity="0.8" stroke="#000000" stroke-opacity="0.8" stroke-width="0.8"></circle>
<circle clip-path="url(#clip182)" cx="3069.88" cy="154.187" r="14.4" fill="#192bb2" fill-rule="evenodd" fill-opacity="0.8" stroke="#000000" stroke-opacity="0.8" stroke-width="0.8"></circle>
<polyline clip-path="url(#clip182)" style="stroke:#4919b2; stroke-linecap:round; stroke-linejoin:round; stroke-width:4; stroke-opacity:1; fill:none" points="307.47,557.046 652.772,392.757 998.074,294.679 1343.38,235.255 1688.68,199.783 2033.98,178.881 2379.28,166.664 2724.58,159.558 3069.88,155.435 "></polyline>
<circle clip-path="url(#clip182)" cx="307.47" cy="529.344" r="14.4" fill="#4919b2" fill-rule="evenodd" fill-opacity="0.8" stroke="#000000" stroke-opacity="0.8" stroke-width="0.8"></circle>
<circle clip-path="url(#clip182)" cx="652.772" cy="342.847" r="14.4" fill="#4919b2" fill-rule="evenodd" fill-opacity="0.8" stroke="#000000" stroke-opacity="0.8" stroke-width="0.8"></circle>
<circle clip-path="url(#clip182)" cx="998.074" cy="251.986" r="14.4" fill="#4919b2" fill-rule="evenodd" fill-opacity="0.8" stroke="#000000" stroke-opacity="0.8" stroke-width="0.8"></circle>
<circle clip-path="url(#clip182)" cx="1343.38" cy="204.869" r="14.4" fill="#4919b2" fill-rule="evenodd" fill-opacity="0.8" stroke="#000000" stroke-opacity="0.8" stroke-width="0.8"></circle>
<circle clip-path="url(#clip182)" cx="1688.68" cy="179.731" r="14.4" fill="#4919b2" fill-rule="evenodd" fill-opacity="0.8" stroke="#000000" stroke-opacity="0.8" stroke-width="0.8"></circle>
<circle clip-path="url(#clip182)" cx="2033.98" cy="166.131" r="14.4" fill="#4919b2" fill-rule="evenodd" fill-opacity="0.8" stroke="#000000" stroke-opacity="0.8" stroke-width="0.8"></circle>
<circle clip-path="url(#clip182)" cx="2379.28" cy="158.723" r="14.4" fill="#4919b2" fill-rule="evenodd" fill-opacity="0.8" stroke="#000000" stroke-opacity="0.8" stroke-width="0.8"></circle>
<circle clip-path="url(#clip182)" cx="2724.58" cy="154.675" r="14.4" fill="#4919b2" fill-rule="evenodd" fill-opacity="0.8" stroke="#000000" stroke-opacity="0.8" stroke-width="0.8"></circle>
<circle clip-path="url(#clip182)" cx="3069.88" cy="152.459" r="14.4" fill="#4919b2" fill-rule="evenodd" fill-opacity="0.8" stroke="#000000" stroke-opacity="0.8" stroke-width="0.8"></circle>
<polyline clip-path="url(#clip182)" style="stroke:#3d19b2; stroke-linecap:round; stroke-linejoin:round; stroke-width:4; stroke-opacity:1; fill:none" points="307.47,227.403 652.772,173.418 998.074,157.492 1343.38,152.334 1688.68,150.626 2033.98,150.057 2379.28,149.868 2724.58,149.804 3069.88,149.783 "></polyline>
<circle clip-path="url(#clip182)" cx="307.47" cy="367.326" r="14.4" fill="#3d19b2" fill-rule="evenodd" fill-opacity="0.8" stroke="#000000" stroke-opacity="0.8" stroke-width="0.8"></circle>
<circle clip-path="url(#clip182)" cx="652.772" cy="87.4146" r="14.4" fill="#3d19b2" fill-rule="evenodd" fill-opacity="0.8" stroke="#000000" stroke-opacity="0.8" stroke-width="0.8"></circle>
<circle clip-path="url(#clip182)" cx="998.074" cy="66.1725" r="14.4" fill="#3d19b2" fill-rule="evenodd" fill-opacity="0.8" stroke="#000000" stroke-opacity="0.8" stroke-width="0.8"></circle>
<circle clip-path="url(#clip182)" cx="1343.38" cy="90.7934" r="14.4" fill="#3d19b2" fill-rule="evenodd" fill-opacity="0.8" stroke="#000000" stroke-opacity="0.8" stroke-width="0.8"></circle>
<circle clip-path="url(#clip182)" cx="1688.68" cy="113.957" r="14.4" fill="#3d19b2" fill-rule="evenodd" fill-opacity="0.8" stroke="#000000" stroke-opacity="0.8" stroke-width="0.8"></circle>
<circle clip-path="url(#clip182)" cx="2033.98" cy="129.217" r="14.4" fill="#3d19b2" fill-rule="evenodd" fill-opacity="0.8" stroke="#000000" stroke-opacity="0.8" stroke-width="0.8"></circle>
<circle clip-path="url(#clip182)" cx="2379.28" cy="138.26" r="14.4" fill="#3d19b2" fill-rule="evenodd" fill-opacity="0.8" stroke="#000000" stroke-opacity="0.8" stroke-width="0.8"></circle>
<circle clip-path="url(#clip182)" cx="2724.58" cy="143.397" r="14.4" fill="#3d19b2" fill-rule="evenodd" fill-opacity="0.8" stroke="#000000" stroke-opacity="0.8" stroke-width="0.8"></circle>
<circle clip-path="url(#clip182)" cx="3069.88" cy="146.26" r="14.4" fill="#3d19b2" fill-rule="evenodd" fill-opacity="0.8" stroke="#000000" stroke-opacity="0.8" stroke-width="0.8"></circle>
<polyline clip-path="url(#clip182)" style="stroke:#193ab2; stroke-linecap:round; stroke-linejoin:round; stroke-width:4; stroke-opacity:1; fill:none" points="307.47,557.046 652.772,392.757 998.074,294.679 1343.38,235.255 1688.68,199.783 2033.98,178.881 2379.28,166.664 2724.58,159.558 3069.88,155.435 "></polyline>
<circle clip-path="url(#clip182)" cx="307.47" cy="529.344" r="14.4" fill="#193ab2" fill-rule="evenodd" fill-opacity="0.8" stroke="#000000" stroke-opacity="0.8" stroke-width="0.8"></circle>
<circle clip-path="url(#clip182)" cx="652.772" cy="342.847" r="14.4" fill="#193ab2" fill-rule="evenodd" fill-opacity="0.8" stroke="#000000" stroke-opacity="0.8" stroke-width="0.8"></circle>
<circle clip-path="url(#clip182)" cx="998.074" cy="251.986" r="14.4" fill="#193ab2" fill-rule="evenodd" fill-opacity="0.8" stroke="#000000" stroke-opacity="0.8" stroke-width="0.8"></circle>
<circle clip-path="url(#clip182)" cx="1343.38" cy="204.869" r="14.4" fill="#193ab2" fill-rule="evenodd" fill-opacity="0.8" stroke="#000000" stroke-opacity="0.8" stroke-width="0.8"></circle>
<circle clip-path="url(#clip182)" cx="1688.68" cy="179.731" r="14.4" fill="#193ab2" fill-rule="evenodd" fill-opacity="0.8" stroke="#000000" stroke-opacity="0.8" stroke-width="0.8"></circle>
<circle clip-path="url(#clip182)" cx="2033.98" cy="166.131" r="14.4" fill="#193ab2" fill-rule="evenodd" fill-opacity="0.8" stroke="#000000" stroke-opacity="0.8" stroke-width="0.8"></circle>
<circle clip-path="url(#clip182)" cx="2379.28" cy="158.723" r="14.4" fill="#193ab2" fill-rule="evenodd" fill-opacity="0.8" stroke="#000000" stroke-opacity="0.8" stroke-width="0.8"></circle>
<circle clip-path="url(#clip182)" cx="2724.58" cy="154.675" r="14.4" fill="#193ab2" fill-rule="evenodd" fill-opacity="0.8" stroke="#000000" stroke-opacity="0.8" stroke-width="0.8"></circle>
<circle clip-path="url(#clip182)" cx="3069.88" cy="152.459" r="14.4" fill="#193ab2" fill-rule="evenodd" fill-opacity="0.8" stroke="#000000" stroke-opacity="0.8" stroke-width="0.8"></circle>
</svg>