<svg xmlns="http://www.w3.org/2000/svg" xmlns:xlink="http://www.w3.org/1999/xlink" width="800" height="200" viewBox="0 0 3200 800">
<defs>
  <clipPath id="clip080">
    <rect x="0" y="0" width="3200" height="800"></rect>
  </clipPath>
</defs>
<path clip-path="url(#clip080)" d="M0 800 L3200 800 L3200 0 L0 0  Z" fill="#ffffff" fill-rule="evenodd" fill-opacity="1"></path>
<defs>
  <clipPath id="clip081">
    <rect x="640" y="0" width="2241" height="800"></rect>
  </clipPath>
</defs>
<path clip-path="url(#clip080)" d="M224.436 716.048 L3152.76 716.048 L3152.76 85.6721 L224.436 85.6721  Z" fill="#ffffff" fill-rule="evenodd" fill-opacity="1"></path>
<defs>
  <clipPath id="clip082">
    <rect x="224" y="85" width="2929" height="631"></rect>
  </clipPath>
</defs>
<polyline clip-path="url(#clip082)" style="stroke:#000000; stroke-linecap:round; stroke-linejoin:round; stroke-width:2; stroke-opacity:0.1; fill:none" points="307.313,716.048 307.313,85.6721 "></polyline>
<polyline clip-path="url(#clip082)" style="stroke:#000000; stroke-linecap:round; stroke-linejoin:round; stroke-width:2; stroke-opacity:0.1; fill:none" points="1074.69,716.048 1074.69,85.6721 "></polyline>
<polyline clip-path="url(#clip082)" style="stroke:#000000; stroke-linecap:round; stroke-linejoin:round; stroke-width:2; stroke-opacity:0.1; fill:none" points="1842.07,716.048 1842.07,85.6721 "></polyline>
<polyline clip-path="url(#clip082)" style="stroke:#000000; stroke-linecap:round; stroke-linejoin:round; stroke-width:2; stroke-opacity:0.1; fill:none" points="2609.45,716.048 2609.45,85.6721 "></polyline>
<polyline clip-path="url(#clip082)" style="stroke:#000000; stroke-linecap:round; stroke-linejoin:round; stroke-width:2; stroke-opacity:0.1; fill:none" points="224.436,716.048 3152.76,716.048 "></polyline>
<polyline clip-path="url(#clip082)" style="stroke:#000000; stroke-linecap:round; stroke-linejoin:round; stroke-width:2; stroke-opacity:0.1; fill:none" points="224.436,610.985 3152.76,610.985 "></polyline>
<polyline clip-path="url(#clip082)" style="stroke:#000000; stroke-linecap:round; stroke-linejoin:round; stroke-width:2; stroke-opacity:0.1; fill:none" points="224.436,505.923 3152.76,505.923 "></polyline>
<polyline clip-path="url(#clip082)" style="stroke:#000000; stroke-linecap:round; stroke-linejoin:round; stroke-width:2; stroke-opacity:0.1; fill:none" points="224.436,400.86 3152.76,400.86 "></polyline>
<polyline clip-path="url(#clip082)" style="stroke:#000000; stroke-linecap:round; stroke-linejoin:round; stroke-width:2; stroke-opacity:0.1; fill:none" points="224.436,295.797 3152.76,295.797 "></polyline>
<polyline clip-path="url(#clip082)" style="stroke:#000000; stroke-linecap:round; stroke-linejoin:round; stroke-width:2; stroke-opacity:0.1; fill:none" points="224.436,190.735 3152.76,190.735 "></polyline>
<polyline clip-path="url(#clip082)" style="stroke:#000000; stroke-linecap:round; stroke-linejoin:round; stroke-width:2; stroke-opacity:0.1; fill:none" points="224.436,85.6721 3152.76,85.6721 "></polyline>
<polyline clip-path="url(#clip080)" style="stroke:#000000; stroke-linecap:round; stroke-linejoin:round; stroke-width:4; stroke-opacity:1; fill:none" points="224.436,716.048 3152.76,716.048 "></polyline>
<polyline clip-path="url(#clip080)" style="stroke:#000000; stroke-linecap:round; stroke-linejoin:round; stroke-width:4; stroke-opacity:1; fill:none" points="307.313,716.048 307.313,697.15 "></polyline>
<polyline clip-path="url(#clip080)" style="stroke:#000000; stroke-linecap:round; stroke-linejoin:round; stroke-width:4; stroke-opacity:1; fill:none" points="1074.69,716.048 1074.69,697.15 "></polyline>
<polyline clip-path="url(#clip080)" style="stroke:#000000; stroke-linecap:round; stroke-linejoin:round; stroke-width:4; stroke-opacity:1; fill:none" points="1842.07,716.048 1842.07,697.15 "></polyline>
<polyline clip-path="url(#clip080)" style="stroke:#000000; stroke-linecap:round; stroke-linejoin:round; stroke-width:4; stroke-opacity:1; fill:none" points="2609.45,716.048 2609.45,697.15 "></polyline>
<path clip-path="url(#clip080)" d="M297.591 750.288 L315.947 750.288 L315.947 754.223 L301.873 754.223 L301.873 762.695 Q302.892 762.348 303.91 762.186 Q304.929 762.001 305.947 762.001 Q311.734 762.001 315.114 765.172 Q318.493 768.343 318.493 773.76 Q318.493 779.339 315.021 782.44 Q311.549 785.519 305.23 785.519 Q303.054 785.519 300.785 785.149 Q298.54 784.778 296.132 784.038 L296.132 779.339 Q298.216 780.473 300.438 781.028 Q302.66 781.584 305.137 781.584 Q309.142 781.584 311.48 779.478 Q313.817 777.371 313.817 773.76 Q313.817 770.149 311.48 768.042 Q309.142 765.936 305.137 765.936 Q303.262 765.936 301.387 766.353 Q299.535 766.769 297.591 767.649 L297.591 750.288 Z" fill="#000000" fill-rule="nonzero" fill-opacity="1"></path><path clip-path="url(#clip080)" d="M1049.38 780.913 L1057.02 780.913 L1057.02 754.547 L1048.71 756.214 L1048.71 751.955 L1056.97 750.288 L1061.65 750.288 L1061.65 780.913 L1069.29 780.913 L1069.29 784.848 L1049.38 784.848 L1049.38 780.913 Z" fill="#000000" fill-rule="nonzero" fill-opacity="1"></path><path clip-path="url(#clip080)" d="M1088.73 753.367 Q1085.12 753.367 1083.29 756.931 Q1081.49 760.473 1081.49 767.603 Q1081.49 774.709 1083.29 778.274 Q1085.12 781.815 1088.73 781.815 Q1092.37 781.815 1094.17 778.274 Q1096 774.709 1096 767.603 Q1096 760.473 1094.17 756.931 Q1092.37 753.367 1088.73 753.367 M1088.73 749.663 Q1094.54 749.663 1097.6 754.269 Q1100.68 758.853 1100.68 767.603 Q1100.68 776.329 1097.6 780.936 Q1094.54 785.519 1088.73 785.519 Q1082.92 785.519 1079.84 780.936 Q1076.79 776.329 1076.79 767.603 Q1076.79 758.853 1079.84 754.269 Q1082.92 749.663 1088.73 749.663 Z" fill="#000000" fill-rule="nonzero" fill-opacity="1"></path><path clip-path="url(#clip080)" d="M1817.26 780.913 L1824.9 780.913 L1824.9 754.547 L1816.59 756.214 L1816.59 751.955 L1824.85 750.288 L1829.53 750.288 L1829.53 780.913 L1837.16 780.913 L1837.16 784.848 L1817.26 784.848 L1817.26 780.913 Z" fill="#000000" fill-rule="nonzero" fill-opacity="1"></path><path clip-path="url(#clip080)" d="M1846.66 750.288 L1865.01 750.288 L1865.01 754.223 L1850.94 754.223 L1850.94 762.695 Q1851.96 762.348 1852.97 762.186 Q1853.99 762.001 1855.01 762.001 Q1860.8 762.001 1864.18 765.172 Q1867.56 768.343 1867.56 773.76 Q1867.56 779.339 1864.09 782.44 Q1860.61 785.519 1854.29 785.519 Q1852.12 785.519 1849.85 785.149 Q1847.6 784.778 1845.2 784.038 L1845.2 779.339 Q1847.28 780.473 1849.5 781.028 Q1851.72 781.584 1854.2 781.584 Q1858.21 781.584 1860.54 779.478 Q1862.88 777.371 1862.88 773.76 Q1862.88 770.149 1860.54 768.042 Q1858.21 765.936 1854.2 765.936 Q1852.33 765.936 1850.45 766.353 Q1848.6 766.769 1846.66 767.649 L1846.66 750.288 Z" fill="#000000" fill-rule="nonzero" fill-opacity="1"></path><path clip-path="url(#clip080)" d="M2588.22 780.913 L2604.54 780.913 L2604.54 784.848 L2582.6 784.848 L2582.6 780.913 Q2585.26 778.158 2589.84 773.528 Q2594.45 768.876 2595.63 767.533 Q2597.88 765.01 2598.76 763.274 Q2599.66 761.515 2599.66 759.825 Q2599.66 757.07 2597.72 755.334 Q2595.79 753.598 2592.69 753.598 Q2590.49 753.598 2588.04 754.362 Q2585.61 755.126 2582.83 756.677 L2582.83 751.955 Q2585.66 750.82 2588.11 750.242 Q2590.56 749.663 2592.6 749.663 Q2597.97 749.663 2601.16 752.348 Q2604.36 755.033 2604.36 759.524 Q2604.36 761.654 2603.55 763.575 Q2602.76 765.473 2600.65 768.066 Q2600.08 768.737 2596.97 771.954 Q2593.87 775.149 2588.22 780.913 Z" fill="#000000" fill-rule="nonzero" fill-opacity="1"></path><path clip-path="url(#clip080)" d="M2624.36 753.367 Q2620.75 753.367 2618.92 756.931 Q2617.11 760.473 2617.11 767.603 Q2617.11 774.709 2618.92 778.274 Q2620.75 781.815 2624.36 781.815 Q2627.99 781.815 2629.8 778.274 Q2631.63 774.709 2631.63 767.603 Q2631.63 760.473 2629.8 756.931 Q2627.99 753.367 2624.36 753.367 M2624.36 749.663 Q2630.17 749.663 2633.22 754.269 Q2636.3 758.853 2636.3 767.603 Q2636.3 776.329 2633.22 780.936 Q2630.17 785.519 2624.36 785.519 Q2618.55 785.519 2615.47 780.936 Q2612.41 776.329 2612.41 767.603 Q2612.41 758.853 2615.47 754.269 Q2618.55 749.663 2624.36 749.663 Z" fill="#000000" fill-rule="nonzero" fill-opacity="1"></path><polyline clip-path="url(#clip080)" style="stroke:#000000; stroke-linecap:round; stroke-linejoin:round; stroke-width:4; stroke-opacity:1; fill:none" points="224.436,716.048 224.436,85.6721 "></polyline>
<polyline clip-path="url(#clip080)" style="stroke:#000000; stroke-linecap:round; stroke-linejoin:round; stroke-width:4; stroke-opacity:1; fill:none" points="224.436,716.048 243.334,716.048 "></polyline>
<polyline clip-path="url(#clip080)" style="stroke:#000000; stroke-linecap:round; stroke-linejoin:round; stroke-width:4; stroke-opacity:1; fill:none" points="224.436,610.985 243.334,610.985 "></polyline>
<polyline clip-path="url(#clip080)" style="stroke:#000000; stroke-linecap:round; stroke-linejoin:round; stroke-width:4; stroke-opacity:1; fill:none" points="224.436,505.923 243.334,505.923 "></polyline>
<polyline clip-path="url(#clip080)" style="stroke:#000000; stroke-linecap:round; stroke-linejoin:round; stroke-width:4; stroke-opacity:1; fill:none" points="224.436,400.86 243.334,400.86 "></polyline>
<polyline clip-path="url(#clip080)" style="stroke:#000000; stroke-linecap:round; stroke-linejoin:round; stroke-width:4; stroke-opacity:1; fill:none" points="224.436,295.797 243.334,295.797 "></polyline>
<polyline clip-path="url(#clip080)" style="stroke:#000000; stroke-linecap:round; stroke-linejoin:round; stroke-width:4; stroke-opacity:1; fill:none" points="224.436,190.735 243.334,190.735 "></polyline>
<polyline clip-path="url(#clip080)" style="stroke:#000000; stroke-linecap:round; stroke-linejoin:round; stroke-width:4; stroke-opacity:1; fill:none" points="224.436,85.6721 243.334,85.6721 "></polyline>
<path clip-path="url(#clip080)" d="M58.9365 701.847 Q55.3254 701.847 53.4967 705.411 Q51.6912 708.953 51.6912 716.083 Q51.6912 723.189 53.4967 726.754 Q55.3254 730.295 58.9365 730.295 Q62.5707 730.295 64.3763 726.754 Q66.205 723.189 66.205 716.083 Q66.205 708.953 64.3763 705.411 Q62.5707 701.847 58.9365 701.847 M58.9365 698.143 Q64.7467 698.143 67.8022 702.749 Q70.8809 707.333 70.8809 716.083 Q70.8809 724.809 67.8022 729.416 Q64.7467 733.999 58.9365 733.999 Q53.1264 733.999 50.0477 729.416 Q46.9921 724.809 46.9921 716.083 Q46.9921 707.333 50.0477 702.749 Q53.1264 698.143 58.9365 698.143 Z" fill="#000000" fill-rule="nonzero" fill-opacity="1"></path><path clip-path="url(#clip080)" d="M79.0984 727.448 L83.9827 727.448 L83.9827 733.328 L79.0984 733.328 L79.0984 727.448 Z" fill="#000000" fill-rule="nonzero" fill-opacity="1"></path><path clip-path="url(#clip080)" d="M104.168 701.847 Q100.557 701.847 98.728 705.411 Q96.9224 708.953 96.9224 716.083 Q96.9224 723.189 98.728 726.754 Q100.557 730.295 104.168 730.295 Q107.802 730.295 109.608 726.754 Q111.436 723.189 111.436 716.083 Q111.436 708.953 109.608 705.411 Q107.802 701.847 104.168 701.847 M104.168 698.143 Q109.978 698.143 113.033 702.749 Q116.112 707.333 116.112 716.083 Q116.112 724.809 113.033 729.416 Q109.978 733.999 104.168 733.999 Q98.3576 733.999 95.2789 729.416 Q92.2234 724.809 92.2234 716.083 Q92.2234 707.333 95.2789 702.749 Q98.3576 698.143 104.168 698.143 Z" fill="#000000" fill-rule="nonzero" fill-opacity="1"></path><path clip-path="url(#clip080)" d="M138.496 714.694 Q141.853 715.411 143.728 717.68 Q145.626 719.948 145.626 723.282 Q145.626 728.397 142.107 731.198 Q138.589 733.999 132.107 733.999 Q129.931 733.999 127.617 733.559 Q125.325 733.143 122.871 732.286 L122.871 727.772 Q124.816 728.907 127.131 729.485 Q129.445 730.064 131.969 730.064 Q136.367 730.064 138.658 728.328 Q140.973 726.592 140.973 723.282 Q140.973 720.226 138.82 718.513 Q136.691 716.777 132.871 716.777 L128.844 716.777 L128.844 712.934 L133.056 712.934 Q136.506 712.934 138.334 711.569 Q140.163 710.18 140.163 707.587 Q140.163 704.925 138.265 703.513 Q136.39 702.078 132.871 702.078 Q130.95 702.078 128.751 702.495 Q126.552 702.911 123.913 703.791 L123.913 699.624 Q126.575 698.884 128.89 698.513 Q131.228 698.143 133.288 698.143 Q138.612 698.143 141.714 700.573 Q144.816 702.981 144.816 707.101 Q144.816 709.972 143.172 711.962 Q141.529 713.93 138.496 714.694 Z" fill="#000000" fill-rule="nonzero" fill-opacity="1"></path><path clip-path="url(#clip080)" d="M164.491 701.847 Q160.88 701.847 159.052 705.411 Q157.246 708.953 157.246 716.083 Q157.246 723.189 159.052 726.754 Q160.88 730.295 164.491 730.295 Q168.126 730.295 169.931 726.754 Q171.76 723.189 171.76 716.083 Q171.76 708.953 169.931 705.411 Q168.126 701.847 164.491 701.847 M164.491 698.143 Q170.302 698.143 173.357 702.749 Q176.436 707.333 176.436 716.083 Q176.436 724.809 173.357 729.416 Q170.302 733.999 164.491 733.999 Q158.681 733.999 155.603 729.416 Q152.547 724.809 152.547 716.083 Q152.547 707.333 155.603 702.749 Q158.681 698.143 164.491 698.143 Z" fill="#000000" fill-rule="nonzero" fill-opacity="1"></path><path clip-path="url(#clip080)" d="M59.9319 596.784 Q56.3208 596.784 54.4921 600.349 Q52.6865 603.89 52.6865 611.02 Q52.6865 618.126 54.4921 621.691 Q56.3208 625.233 59.9319 625.233 Q63.5661 625.233 65.3717 621.691 Q67.2004 618.126 67.2004 611.02 Q67.2004 603.89 65.3717 600.349 Q63.5661 596.784 59.9319 596.784 M59.9319 593.08 Q65.742 593.08 68.7976 597.687 Q71.8763 602.27 71.8763 611.02 Q71.8763 619.747 68.7976 624.353 Q65.742 628.937 59.9319 628.937 Q54.1217 628.937 51.043 624.353 Q47.9875 619.747 47.9875 611.02 Q47.9875 602.27 51.043 597.687 Q54.1217 593.08 59.9319 593.08 Z" fill="#000000" fill-rule="nonzero" fill-opacity="1"></path><path clip-path="url(#clip080)" d="M80.0938 622.386 L84.978 622.386 L84.978 628.265 L80.0938 628.265 L80.0938 622.386 Z" fill="#000000" fill-rule="nonzero" fill-opacity="1"></path><path clip-path="url(#clip080)" d="M105.163 596.784 Q101.552 596.784 99.7233 600.349 Q97.9178 603.89 97.9178 611.02 Q97.9178 618.126 99.7233 621.691 Q101.552 625.233 105.163 625.233 Q108.797 625.233 110.603 621.691 Q112.432 618.126 112.432 611.02 Q112.432 603.89 110.603 600.349 Q108.797 596.784 105.163 596.784 M105.163 593.08 Q110.973 593.08 114.029 597.687 Q117.107 602.27 117.107 611.02 Q117.107 619.747 114.029 624.353 Q110.973 628.937 105.163 628.937 Q99.353 628.937 96.2743 624.353 Q93.2187 619.747 93.2187 611.02 Q93.2187 602.27 96.2743 597.687 Q99.353 593.08 105.163 593.08 Z" fill="#000000" fill-rule="nonzero" fill-opacity="1"></path><path clip-path="url(#clip080)" d="M139.492 609.631 Q142.848 610.349 144.723 612.617 Q146.621 614.886 146.621 618.219 Q146.621 623.335 143.103 626.136 Q139.584 628.937 133.103 628.937 Q130.927 628.937 128.612 628.497 Q126.32 628.08 123.867 627.224 L123.867 622.71 Q125.811 623.844 128.126 624.423 Q130.441 625.001 132.964 625.001 Q137.362 625.001 139.654 623.265 Q141.968 621.529 141.968 618.219 Q141.968 615.163 139.816 613.451 Q137.686 611.714 133.867 611.714 L129.839 611.714 L129.839 607.872 L134.052 607.872 Q137.501 607.872 139.33 606.506 Q141.158 605.117 141.158 602.525 Q141.158 599.863 139.26 598.451 Q137.385 597.015 133.867 597.015 Q131.945 597.015 129.746 597.432 Q127.547 597.849 124.908 598.728 L124.908 594.562 Q127.57 593.821 129.885 593.451 Q132.223 593.08 134.283 593.08 Q139.607 593.08 142.709 595.511 Q145.811 597.918 145.811 602.039 Q145.811 604.909 144.168 606.9 Q142.524 608.867 139.492 609.631 Z" fill="#000000" fill-rule="nonzero" fill-opacity="1"></path><path clip-path="url(#clip080)" d="M155.533 593.705 L173.89 593.705 L173.89 597.64 L159.816 597.64 L159.816 606.113 Q160.834 605.765 161.853 605.603 Q162.871 605.418 163.89 605.418 Q169.677 605.418 173.056 608.589 Q176.436 611.761 176.436 617.177 Q176.436 622.756 172.964 625.858 Q169.491 628.937 163.172 628.937 Q160.996 628.937 158.728 628.566 Q156.482 628.196 154.075 627.455 L154.075 622.756 Q156.158 623.89 158.38 624.446 Q160.603 625.001 163.079 625.001 Q167.084 625.001 169.422 622.895 Q171.76 620.788 171.76 617.177 Q171.76 613.566 169.422 611.46 Q167.084 609.353 163.079 609.353 Q161.204 609.353 159.329 609.77 Q157.478 610.187 155.533 611.066 L155.533 593.705 Z" fill="#000000" fill-rule="nonzero" fill-opacity="1"></path><path clip-path="url(#clip080)" d="M58.9365 491.721 Q55.3254 491.721 53.4967 495.286 Q51.6912 498.828 51.6912 505.957 Q51.6912 513.064 53.4967 516.629 Q55.3254 520.17 58.9365 520.17 Q62.5707 520.17 64.3763 516.629 Q66.205 513.064 66.205 505.957 Q66.205 498.828 64.3763 495.286 Q62.5707 491.721 58.9365 491.721 M58.9365 488.018 Q64.7467 488.018 67.8022 492.624 Q70.8809 497.207 70.8809 505.957 Q70.8809 514.684 67.8022 519.291 Q64.7467 523.874 58.9365 523.874 Q53.1264 523.874 50.0477 519.291 Q46.9921 514.684 46.9921 505.957 Q46.9921 497.207 50.0477 492.624 Q53.1264 488.018 58.9365 488.018 Z" fill="#000000" fill-rule="nonzero" fill-opacity="1"></path><path clip-path="url(#clip080)" d="M79.0984 517.323 L83.9827 517.323 L83.9827 523.203 L79.0984 523.203 L79.0984 517.323 Z" fill="#000000" fill-rule="nonzero" fill-opacity="1"></path><path clip-path="url(#clip080)" d="M104.168 491.721 Q100.557 491.721 98.728 495.286 Q96.9224 498.828 96.9224 505.957 Q96.9224 513.064 98.728 516.629 Q100.557 520.17 104.168 520.17 Q107.802 520.17 109.608 516.629 Q111.436 513.064 111.436 505.957 Q111.436 498.828 109.608 495.286 Q107.802 491.721 104.168 491.721 M104.168 488.018 Q109.978 488.018 113.033 492.624 Q116.112 497.207 116.112 505.957 Q116.112 514.684 113.033 519.291 Q109.978 523.874 104.168 523.874 Q98.3576 523.874 95.2789 519.291 Q92.2234 514.684 92.2234 505.957 Q92.2234 497.207 95.2789 492.624 Q98.3576 488.018 104.168 488.018 Z" fill="#000000" fill-rule="nonzero" fill-opacity="1"></path><path clip-path="url(#clip080)" d="M137.177 492.717 L125.371 511.166 L137.177 511.166 L137.177 492.717 M135.95 488.643 L141.83 488.643 L141.83 511.166 L146.76 511.166 L146.76 515.055 L141.83 515.055 L141.83 523.203 L137.177 523.203 L137.177 515.055 L121.575 515.055 L121.575 510.541 L135.95 488.643 Z" fill="#000000" fill-rule="nonzero" fill-opacity="1"></path><path clip-path="url(#clip080)" d="M164.491 491.721 Q160.88 491.721 159.052 495.286 Q157.246 498.828 157.246 505.957 Q157.246 513.064 159.052 516.629 Q160.88 520.17 164.491 520.17 Q168.126 520.17 169.931 516.629 Q171.76 513.064 171.76 505.957 Q171.76 498.828 169.931 495.286 Q168.126 491.721 164.491 491.721 M164.491 488.018 Q170.302 488.018 173.357 492.624 Q176.436 497.207 176.436 505.957 Q176.436 514.684 173.357 519.291 Q170.302 523.874 164.491 523.874 Q158.681 523.874 155.603 519.291 Q152.547 514.684 152.547 505.957 Q152.547 497.207 155.603 492.624 Q158.681 488.018 164.491 488.018 Z" fill="#000000" fill-rule="nonzero" fill-opacity="1"></path><path clip-path="url(#clip080)" d="M59.9319 386.659 Q56.3208 386.659 54.4921 390.223 Q52.6865 393.765 52.6865 400.895 Q52.6865 408.001 54.4921 411.566 Q56.3208 415.108 59.9319 415.108 Q63.5661 415.108 65.3717 411.566 Q67.2004 408.001 67.2004 400.895 Q67.2004 393.765 65.3717 390.223 Q63.5661 386.659 59.9319 386.659 M59.9319 382.955 Q65.742 382.955 68.7976 387.561 Q71.8763 392.145 71.8763 400.895 Q71.8763 409.622 68.7976 414.228 Q65.742 418.811 59.9319 418.811 Q54.1217 418.811 51.043 414.228 Q47.9875 409.622 47.9875 400.895 Q47.9875 392.145 51.043 387.561 Q54.1217 382.955 59.9319 382.955 Z" fill="#000000" fill-rule="nonzero" fill-opacity="1"></path><path clip-path="url(#clip080)" d="M80.0938 412.26 L84.978 412.26 L84.978 418.14 L80.0938 418.14 L80.0938 412.26 Z" fill="#000000" fill-rule="nonzero" fill-opacity="1"></path><path clip-path="url(#clip080)" d="M105.163 386.659 Q101.552 386.659 99.7233 390.223 Q97.9178 393.765 97.9178 400.895 Q97.9178 408.001 99.7233 411.566 Q101.552 415.108 105.163 415.108 Q108.797 415.108 110.603 411.566 Q112.432 408.001 112.432 400.895 Q112.432 393.765 110.603 390.223 Q108.797 386.659 105.163 386.659 M105.163 382.955 Q110.973 382.955 114.029 387.561 Q117.107 392.145 117.107 400.895 Q117.107 409.622 114.029 414.228 Q110.973 418.811 105.163 418.811 Q99.353 418.811 96.2743 414.228 Q93.2187 409.622 93.2187 400.895 Q93.2187 392.145 96.2743 387.561 Q99.353 382.955 105.163 382.955 Z" fill="#000000" fill-rule="nonzero" fill-opacity="1"></path><path clip-path="url(#clip080)" d="M138.172 387.654 L126.367 406.103 L138.172 406.103 L138.172 387.654 M136.945 383.58 L142.825 383.58 L142.825 406.103 L147.755 406.103 L147.755 409.992 L142.825 409.992 L142.825 418.14 L138.172 418.14 L138.172 409.992 L122.57 409.992 L122.57 405.478 L136.945 383.58 Z" fill="#000000" fill-rule="nonzero" fill-opacity="1"></path><path clip-path="url(#clip080)" d="M155.533 383.58 L173.89 383.58 L173.89 387.515 L159.816 387.515 L159.816 395.987 Q160.834 395.64 161.853 395.478 Q162.871 395.293 163.89 395.293 Q169.677 395.293 173.056 398.464 Q176.436 401.635 176.436 407.052 Q176.436 412.631 172.964 415.733 Q169.491 418.811 163.172 418.811 Q160.996 418.811 158.728 418.441 Q156.482 418.071 154.075 417.33 L154.075 412.631 Q156.158 413.765 158.38 414.321 Q160.603 414.876 163.079 414.876 Q167.084 414.876 169.422 412.77 Q171.76 410.663 171.76 407.052 Q171.76 403.441 169.422 401.335 Q167.084 399.228 163.079 399.228 Q161.204 399.228 159.329 399.645 Q157.478 400.061 155.533 400.941 L155.533 383.58 Z" fill="#000000" fill-rule="nonzero" fill-opacity="1"></path><path clip-path="url(#clip080)" d="M58.9365 281.596 Q55.3254 281.596 53.4967 285.161 Q51.6912 288.703 51.6912 295.832 Q51.6912 302.939 53.4967 306.503 Q55.3254 310.045 58.9365 310.045 Q62.5707 310.045 64.3763 306.503 Q66.205 302.939 66.205 295.832 Q66.205 288.703 64.3763 285.161 Q62.5707 281.596 58.9365 281.596 M58.9365 277.892 Q64.7467 277.892 67.8022 282.499 Q70.8809 287.082 70.8809 295.832 Q70.8809 304.559 67.8022 309.165 Q64.7467 313.749 58.9365 313.749 Q53.1264 313.749 50.0477 309.165 Q46.9921 304.559 46.9921 295.832 Q46.9921 287.082 50.0477 282.499 Q53.1264 277.892 58.9365 277.892 Z" fill="#000000" fill-rule="nonzero" fill-opacity="1"></path><path clip-path="url(#clip080)" d="M79.0984 307.198 L83.9827 307.198 L83.9827 313.077 L79.0984 313.077 L79.0984 307.198 Z" fill="#000000" fill-rule="nonzero" fill-opacity="1"></path><path clip-path="url(#clip080)" d="M104.168 281.596 Q100.557 281.596 98.728 285.161 Q96.9224 288.703 96.9224 295.832 Q96.9224 302.939 98.728 306.503 Q100.557 310.045 104.168 310.045 Q107.802 310.045 109.608 306.503 Q111.436 302.939 111.436 295.832 Q111.436 288.703 109.608 285.161 Q107.802 281.596 104.168 281.596 M104.168 277.892 Q109.978 277.892 113.033 282.499 Q116.112 287.082 116.112 295.832 Q116.112 304.559 113.033 309.165 Q109.978 313.749 104.168 313.749 Q98.3576 313.749 95.2789 309.165 Q92.2234 304.559 92.2234 295.832 Q92.2234 287.082 95.2789 282.499 Q98.3576 277.892 104.168 277.892 Z" fill="#000000" fill-rule="nonzero" fill-opacity="1"></path><path clip-path="url(#clip080)" d="M124.376 278.517 L142.732 278.517 L142.732 282.453 L128.658 282.453 L128.658 290.925 Q129.677 290.577 130.695 290.415 Q131.714 290.23 132.732 290.23 Q138.519 290.23 141.899 293.402 Q145.279 296.573 145.279 301.989 Q145.279 307.568 141.806 310.67 Q138.334 313.749 132.015 313.749 Q129.839 313.749 127.57 313.378 Q125.325 313.008 122.918 312.267 L122.918 307.568 Q125.001 308.702 127.223 309.258 Q129.445 309.814 131.922 309.814 Q135.927 309.814 138.265 307.707 Q140.603 305.601 140.603 301.989 Q140.603 298.378 138.265 296.272 Q135.927 294.165 131.922 294.165 Q130.047 294.165 128.172 294.582 Q126.32 294.999 124.376 295.878 L124.376 278.517 Z" fill="#000000" fill-rule="nonzero" fill-opacity="1"></path><path clip-path="url(#clip080)" d="M164.491 281.596 Q160.88 281.596 159.052 285.161 Q157.246 288.703 157.246 295.832 Q157.246 302.939 159.052 306.503 Q160.88 310.045 164.491 310.045 Q168.126 310.045 169.931 306.503 Q171.76 302.939 171.76 295.832 Q171.76 288.703 169.931 285.161 Q168.126 281.596 164.491 281.596 M164.491 277.892 Q170.302 277.892 173.357 282.499 Q176.436 287.082 176.436 295.832 Q176.436 304.559 173.357 309.165 Q170.302 313.749 164.491 313.749 Q158.681 313.749 155.603 309.165 Q152.547 304.559 152.547 295.832 Q152.547 287.082 155.603 282.499 Q158.681 277.892 164.491 277.892 Z" fill="#000000" fill-rule="nonzero" fill-opacity="1"></path><path clip-path="url(#clip080)" d="M59.9319 176.533 Q56.3208 176.533 54.4921 180.098 Q52.6865 183.64 52.6865 190.769 Q52.6865 197.876 54.4921 201.441 Q56.3208 204.982 59.9319 204.982 Q63.5661 204.982 65.3717 201.441 Q67.2004 197.876 67.2004 190.769 Q67.2004 183.64 65.3717 180.098 Q63.5661 176.533 59.9319 176.533 M59.9319 172.83 Q65.742 172.83 68.7976 177.436 Q71.8763 182.02 71.8763 190.769 Q71.8763 199.496 68.7976 204.103 Q65.742 208.686 59.9319 208.686 Q54.1217 208.686 51.043 204.103 Q47.9875 199.496 47.9875 190.769 Q47.9875 182.02 51.043 177.436 Q54.1217 172.83 59.9319 172.83 Z" fill="#000000" fill-rule="nonzero" fill-opacity="1"></path><path clip-path="url(#clip080)" d="M80.0938 202.135 L84.978 202.135 L84.978 208.015 L80.0938 208.015 L80.0938 202.135 Z" fill="#000000" fill-rule="nonzero" fill-opacity="1"></path><path clip-path="url(#clip080)" d="M105.163 176.533 Q101.552 176.533 99.7233 180.098 Q97.9178 183.64 97.9178 190.769 Q97.9178 197.876 99.7233 201.441 Q101.552 204.982 105.163 204.982 Q108.797 204.982 110.603 201.441 Q112.432 197.876 112.432 190.769 Q112.432 183.64 110.603 180.098 Q108.797 176.533 105.163 176.533 M105.163 172.83 Q110.973 172.83 114.029 177.436 Q117.107 182.02 117.107 190.769 Q117.107 199.496 114.029 204.103 Q110.973 208.686 105.163 208.686 Q99.353 208.686 96.2743 204.103 Q93.2187 199.496 93.2187 190.769 Q93.2187 182.02 96.2743 177.436 Q99.353 172.83 105.163 172.83 Z" fill="#000000" fill-rule="nonzero" fill-opacity="1"></path><path clip-path="url(#clip080)" d="M125.371 173.455 L143.728 173.455 L143.728 177.39 L129.654 177.39 L129.654 185.862 Q130.672 185.515 131.691 185.353 Q132.709 185.168 133.728 185.168 Q139.515 185.168 142.894 188.339 Q146.274 191.51 146.274 196.927 Q146.274 202.506 142.802 205.607 Q139.33 208.686 133.01 208.686 Q130.834 208.686 128.566 208.316 Q126.32 207.945 123.913 207.205 L123.913 202.506 Q125.996 203.64 128.219 204.195 Q130.441 204.751 132.918 204.751 Q136.922 204.751 139.26 202.644 Q141.598 200.538 141.598 196.927 Q141.598 193.316 139.26 191.209 Q136.922 189.103 132.918 189.103 Q131.043 189.103 129.168 189.519 Q127.316 189.936 125.371 190.816 L125.371 173.455 Z" fill="#000000" fill-rule="nonzero" fill-opacity="1"></path><path clip-path="url(#clip080)" d="M155.533 173.455 L173.89 173.455 L173.89 177.39 L159.816 177.39 L159.816 185.862 Q160.834 185.515 161.853 185.353 Q162.871 185.168 163.89 185.168 Q169.677 185.168 173.056 188.339 Q176.436 191.51 176.436 196.927 Q176.436 202.506 172.964 205.607 Q169.491 208.686 163.172 208.686 Q160.996 208.686 158.728 208.316 Q156.482 207.945 154.075 207.205 L154.075 202.506 Q156.158 203.64 158.38 204.195 Q160.603 204.751 163.079 204.751 Q167.084 204.751 169.422 202.644 Q171.76 200.538 171.76 196.927 Q171.76 193.316 169.422 191.209 Q167.084 189.103 163.079 189.103 Q161.204 189.103 159.329 189.519 Q157.478 189.936 155.533 190.816 L155.533 173.455 Z" fill="#000000" fill-rule="nonzero" fill-opacity="1"></path><path clip-path="url(#clip080)" d="M58.9365 71.4708 Q55.3254 71.4708 53.4967 75.0356 Q51.6912 78.5773 51.6912 85.7068 Q51.6912 92.8133 53.4967 96.3781 Q55.3254 99.9197 58.9365 99.9197 Q62.5707 99.9197 64.3763 96.3781 Q66.205 92.8133 66.205 85.7068 Q66.205 78.5773 64.3763 75.0356 Q62.5707 71.4708 58.9365 71.4708 M58.9365 67.7671 Q64.7467 67.7671 67.8022 72.3736 Q70.8809 76.9569 70.8809 85.7068 Q70.8809 94.4337 67.8022 99.0401 Q64.7467 103.623 58.9365 103.623 Q53.1264 103.623 50.0477 99.0401 Q46.9921 94.4337 46.9921 85.7068 Q46.9921 76.9569 50.0477 72.3736 Q53.1264 67.7671 58.9365 67.7671 Z" fill="#000000" fill-rule="nonzero" fill-opacity="1"></path><path clip-path="url(#clip080)" d="M79.0984 97.0725 L83.9827 97.0725 L83.9827 102.952 L79.0984 102.952 L79.0984 97.0725 Z" fill="#000000" fill-rule="nonzero" fill-opacity="1"></path><path clip-path="url(#clip080)" d="M104.168 71.4708 Q100.557 71.4708 98.728 75.0356 Q96.9224 78.5773 96.9224 85.7068 Q96.9224 92.8133 98.728 96.3781 Q100.557 99.9197 104.168 99.9197 Q107.802 99.9197 109.608 96.3781 Q111.436 92.8133 111.436 85.7068 Q111.436 78.5773 109.608 75.0356 Q107.802 71.4708 104.168 71.4708 M104.168 67.7671 Q109.978 67.7671 113.033 72.3736 Q116.112 76.9569 116.112 85.7068 Q116.112 94.4337 113.033 99.0401 Q109.978 103.623 104.168 103.623 Q98.3576 103.623 95.2789 99.0401 Q92.2234 94.4337 92.2234 85.7068 Q92.2234 76.9569 95.2789 72.3736 Q98.3576 67.7671 104.168 67.7671 Z" fill="#000000" fill-rule="nonzero" fill-opacity="1"></path><path clip-path="url(#clip080)" d="M134.908 83.8087 Q131.76 83.8087 129.908 85.9615 Q128.08 88.1142 128.08 91.8642 Q128.08 95.5911 129.908 97.767 Q131.76 99.9197 134.908 99.9197 Q138.056 99.9197 139.885 97.767 Q141.737 95.5911 141.737 91.8642 Q141.737 88.1142 139.885 85.9615 Q138.056 83.8087 134.908 83.8087 M144.191 69.156 L144.191 73.4152 Q142.431 72.5819 140.626 72.1421 Q138.843 71.7023 137.084 71.7023 Q132.455 71.7023 130.001 74.8273 Q127.57 77.9523 127.223 84.2717 Q128.589 82.2578 130.649 81.193 Q132.709 80.105 135.186 80.105 Q140.394 80.105 143.404 83.2763 Q146.436 86.4244 146.436 91.8642 Q146.436 97.1883 143.288 100.406 Q140.14 103.623 134.908 103.623 Q128.913 103.623 125.742 99.0401 Q122.57 94.4337 122.57 85.7068 Q122.57 77.5124 126.459 72.6514 Q130.348 67.7671 136.899 67.7671 Q138.658 67.7671 140.441 68.1143 Q142.246 68.4616 144.191 69.156 Z" fill="#000000" fill-rule="nonzero" fill-opacity="1"></path><path clip-path="url(#clip080)" d="M164.491 71.4708 Q160.88 71.4708 159.052 75.0356 Q157.246 78.5773 157.246 85.7068 Q157.246 92.8133 159.052 96.3781 Q160.88 99.9197 164.491 99.9197 Q168.126 99.9197 169.931 96.3781 Q171.76 92.8133 171.76 85.7068 Q171.76 78.5773 169.931 75.0356 Q168.126 71.4708 164.491 71.4708 M164.491 67.7671 Q170.302 67.7671 173.357 72.3736 Q176.436 76.9569 176.436 85.7068 Q176.436 94.4337 173.357 99.0401 Q170.302 103.623 164.491 103.623 Q158.681 103.623 155.603 99.0401 Q152.547 94.4337 152.547 85.7068 Q152.547 76.9569 155.603 72.3736 Q158.681 67.7671 164.491 67.7671 Z" fill="#000000" fill-rule="nonzero" fill-opacity="1"></path><path clip-path="url(#clip080)" d="M1463.26 14.0809 L1463.26 22.0612 Q1458.61 19.8332 1454.47 18.7395 Q1450.34 17.6457 1446.49 17.6457 Q1439.81 17.6457 1436.16 20.2383 Q1432.56 22.8309 1432.56 27.611 Q1432.56 31.6214 1434.95 33.6873 Q1437.38 35.7128 1444.1 36.9686 L1449.05 37.9813 Q1458.2 39.7232 1462.54 44.1387 Q1466.91 48.5136 1466.91 55.8863 Q1466.91 64.6767 1461 69.2137 Q1455.12 73.7508 1443.74 73.7508 Q1439.45 73.7508 1434.58 72.7785 Q1429.76 71.8063 1424.58 69.9024 L1424.58 61.4765 Q1429.56 64.2716 1434.34 65.6895 Q1439.12 67.1073 1443.74 67.1073 Q1450.75 67.1073 1454.55 64.3527 Q1458.36 61.598 1458.36 56.4939 Q1458.36 52.0379 1455.61 49.5264 Q1452.89 47.0148 1446.66 45.759 L1441.67 44.7868 Q1432.52 42.9639 1428.43 39.075 Q1424.34 35.1862 1424.34 28.2591 Q1424.34 20.2383 1429.97 15.6203 Q1435.64 11.0023 1445.56 11.0023 Q1449.82 11.0023 1454.23 11.7719 Q1458.65 12.5416 1463.26 14.0809 Z" fill="#000000" fill-rule="nonzero" fill-opacity="1"></path><path clip-path="url(#clip080)" d="M1506.69 34.9026 L1558.62 34.9026 L1558.62 41.7081 L1506.69 41.7081 L1506.69 34.9026 M1506.69 51.4303 L1558.62 51.4303 L1558.62 58.3168 L1506.69 58.3168 L1506.69 51.4303 Z" fill="#000000" fill-rule="nonzero" fill-opacity="1"></path><path clip-path="url(#clip080)" d="M1636.2 80.2727 L1636.2 86.106 L1633.69 86.106 Q1623.6 86.106 1620.16 83.1084 Q1616.75 80.1107 1616.75 71.1582 L1616.75 61.4765 Q1616.75 55.3597 1614.57 53.0101 Q1612.38 50.6606 1606.63 50.6606 L1604.15 50.6606 L1604.15 44.8678 L1606.63 44.8678 Q1612.42 44.8678 1614.57 42.5588 Q1616.75 40.2093 1616.75 34.1734 L1616.75 24.4513 Q1616.75 15.4988 1620.16 12.5416 Q1623.6 9.54393 1633.69 9.54393 L1636.2 9.54393 L1636.2 15.3367 L1633.44 15.3367 Q1627.73 15.3367 1625.99 17.1191 Q1624.25 18.9015 1624.25 24.6133 L1624.25 34.6595 Q1624.25 41.0195 1622.38 43.8956 Q1620.56 46.7717 1616.1 47.7845 Q1620.6 48.8782 1622.42 51.7544 Q1624.25 54.6305 1624.25 60.9499 L1624.25 70.9961 Q1624.25 76.7079 1625.99 78.4903 Q1627.73 80.2727 1633.44 80.2727 L1636.2 80.2727 Z" fill="#000000" fill-rule="nonzero" fill-opacity="1"></path><path clip-path="url(#clip080)" d="M1656.86 65.6895 L1670.23 65.6895 L1670.23 19.5497 L1655.68 22.4663 L1655.68 15.0127 L1670.14 12.096 L1678.33 12.096 L1678.33 65.6895 L1691.69 65.6895 L1691.69 72.576 L1656.86 72.576 L1656.86 65.6895 Z" fill="#000000" fill-rule="nonzero" fill-opacity="1"></path><path clip-path="url(#clip080)" d="M1725.72 17.4837 Q1719.4 17.4837 1716.2 23.7221 Q1713.04 29.92 1713.04 42.3968 Q1713.04 54.833 1716.2 61.0714 Q1719.4 67.2693 1725.72 67.2693 Q1732.08 67.2693 1735.24 61.0714 Q1738.44 54.833 1738.44 42.3968 Q1738.44 29.92 1735.24 23.7221 Q1732.08 17.4837 1725.72 17.4837 M1725.72 11.0023 Q1735.89 11.0023 1741.24 19.0636 Q1746.63 27.0843 1746.63 42.3968 Q1746.63 57.6687 1741.24 65.73 Q1735.89 73.7508 1725.72 73.7508 Q1715.55 73.7508 1710.17 65.73 Q1704.82 57.6687 1704.82 42.3968 Q1704.82 27.0843 1710.17 19.0636 Q1715.55 11.0023 1725.72 11.0023 Z" fill="#000000" fill-rule="nonzero" fill-opacity="1"></path><path clip-path="url(#clip080)" d="M1761.86 62.2867 L1770.4 62.2867 L1770.4 69.2543 L1763.76 82.2172 L1758.53 82.2172 L1761.86 69.2543 L1761.86 62.2867 Z" fill="#000000" fill-rule="nonzero" fill-opacity="1"></path><path clip-path="url(#clip080)" d="M1815.17 65.6895 L1828.53 65.6895 L1828.53 19.5497 L1813.99 22.4663 L1813.99 15.0127 L1828.45 12.096 L1836.64 12.096 L1836.64 65.6895 L1850 65.6895 L1850 72.576 L1815.17 72.576 L1815.17 65.6895 Z" fill="#000000" fill-rule="nonzero" fill-opacity="1"></path><path clip-path="url(#clip080)" d="M1867.95 65.6895 L1881.32 65.6895 L1881.32 19.5497 L1866.77 22.4663 L1866.77 15.0127 L1881.24 12.096 L1889.42 12.096 L1889.42 65.6895 L1902.79 65.6895 L1902.79 72.576 L1867.95 72.576 L1867.95 65.6895 Z" fill="#000000" fill-rule="nonzero" fill-opacity="1"></path><path clip-path="url(#clip080)" d="M1920.81 80.2727 L1923.65 80.2727 Q1929.32 80.2727 1931.02 78.5308 Q1932.76 76.7889 1932.76 70.9961 L1932.76 60.9499 Q1932.76 54.6305 1934.59 51.7544 Q1936.41 48.8782 1940.91 47.7845 Q1936.41 46.7717 1934.59 43.8956 Q1932.76 41.0195 1932.76 34.6595 L1932.76 24.6133 Q1932.76 18.861 1931.02 17.1191 Q1929.32 15.3367 1923.65 15.3367 L1920.81 15.3367 L1920.81 9.54393 L1923.37 9.54393 Q1933.45 9.54393 1936.82 12.5416 Q1940.22 15.4988 1940.22 24.4513 L1940.22 34.1734 Q1940.22 40.2093 1942.41 42.5588 Q1944.59 44.8678 1950.35 44.8678 L1952.86 44.8678 L1952.86 50.6606 L1950.35 50.6606 Q1944.59 50.6606 1942.41 53.0101 Q1940.22 55.3597 1940.22 61.4765 L1940.22 71.1582 Q1940.22 80.1107 1936.82 83.1084 Q1933.45 86.106 1923.37 86.106 L1920.81 86.106 L1920.81 80.2727 Z" fill="#000000" fill-rule="nonzero" fill-opacity="1"></path><polyline clip-path="url(#clip082)" style="stroke:#009af9; stroke-linecap:round; stroke-linejoin:round; stroke-width:8.8; stroke-opacity:1; fill:none" points="307.313,338.742 921.216,493.429 1842.07,380.137 2455.98,704.927 3069.88,684.697 "></polyline>
<polyline clip-path="url(#clip082)" style="stroke:#e26f46; stroke-linecap:round; stroke-linejoin:round; stroke-width:8.8; stroke-opacity:1; fill:none" points="307.313,416.801 921.216,97.1798 1842.07,216.998 2455.98,337.468 3069.88,468.244 "></polyline>
<polyline clip-path="url(#clip082)" style="stroke:#3da44d; stroke-linecap:round; stroke-linejoin:round; stroke-width:8.8; stroke-opacity:1; fill:none" points="307.313,209.824 921.216,121.378 1842.07,508.766 2455.98,254.945 3069.88,176.033 "></polyline>
<polyline clip-path="url(#clip082)" style="stroke:#c271d2; stroke-linecap:round; stroke-linejoin:round; stroke-width:8.8; stroke-opacity:1; fill:none" points="307.313,469.433 921.216,305.135 1842.07,221.704 2455.98,348.367 3069.88,238.65 "></polyline>
<polyline clip-path="url(#clip082)" style="stroke:#000000; stroke-linecap:round; stroke-linejoin:round; stroke-width:4; stroke-opacity:1; fill:none" stroke-dasharray="16, 10" points="-2703.88,352.266 6081.08,352.266 "></polyline>
</svg>