<svg xmlns="http://www.w3.org/2000/svg" xmlns:xlink="http://www.w3.org/1999/xlink" width="800" height="200" viewBox="0 0 3200 800">
<defs>
  <clipPath id="clip560">
    <rect x="0" y="0" width="3200" height="800"></rect>
  </clipPath>
</defs>
<path clip-path="url(#clip560)" d="M0 800 L3200 800 L3200 0 L0 0  Z" fill="#ffffff" fill-rule="evenodd" fill-opacity="1"></path>
<defs>
  <clipPath id="clip561">
    <rect x="640" y="0" width="2241" height="800"></rect>
  </clipPath>
</defs>
<path clip-path="url(#clip560)" d="M232.584 716.048 L3152.76 716.048 L3152.76 85.6721 L232.584 85.6721  Z" fill="#ffffff" fill-rule="evenodd" fill-opacity="1"></path>
<defs>
  <clipPath id="clip562">
    <rect x="232" y="85" width="2921" height="631"></rect>
  </clipPath>
</defs>
<polyline clip-path="url(#clip562)" style="stroke:#000000; stroke-linecap:round; stroke-linejoin:round; stroke-width:2; stroke-opacity:0.1; fill:none" points="315.23,716.048 315.23,85.6721 "></polyline>
<polyline clip-path="url(#clip562)" style="stroke:#000000; stroke-linecap:round; stroke-linejoin:round; stroke-width:2; stroke-opacity:0.1; fill:none" points="1080.47,716.048 1080.47,85.6721 "></polyline>
<polyline clip-path="url(#clip562)" style="stroke:#000000; stroke-linecap:round; stroke-linejoin:round; stroke-width:2; stroke-opacity:0.1; fill:none" points="1845.72,716.048 1845.72,85.6721 "></polyline>
<polyline clip-path="url(#clip562)" style="stroke:#000000; stroke-linecap:round; stroke-linejoin:round; stroke-width:2; stroke-opacity:0.1; fill:none" points="2610.96,716.048 2610.96,85.6721 "></polyline>
<polyline clip-path="url(#clip562)" style="stroke:#000000; stroke-linecap:round; stroke-linejoin:round; stroke-width:2; stroke-opacity:0.1; fill:none" points="232.584,610.985 3152.76,610.985 "></polyline>
<polyline clip-path="url(#clip562)" style="stroke:#000000; stroke-linecap:round; stroke-linejoin:round; stroke-width:2; stroke-opacity:0.1; fill:none" points="232.584,505.923 3152.76,505.923 "></polyline>
<polyline clip-path="url(#clip562)" style="stroke:#000000; stroke-linecap:round; stroke-linejoin:round; stroke-width:2; stroke-opacity:0.1; fill:none" points="232.584,400.86 3152.76,400.86 "></polyline>
<polyline clip-path="url(#clip562)" style="stroke:#000000; stroke-linecap:round; stroke-linejoin:round; stroke-width:2; stroke-opacity:0.1; fill:none" points="232.584,295.797 3152.76,295.797 "></polyline>
<polyline clip-path="url(#clip562)" style="stroke:#000000; stroke-linecap:round; stroke-linejoin:round; stroke-width:2; stroke-opacity:0.1; fill:none" points="232.584,190.735 3152.76,190.735 "></polyline>
<polyline clip-path="url(#clip562)" style="stroke:#000000; stroke-linecap:round; stroke-linejoin:round; stroke-width:2; stroke-opacity:0.1; fill:none" points="232.584,85.6721 3152.76,85.6721 "></polyline>
<polyline clip-path="url(#clip560)" style="stroke:#000000; stroke-linecap:round; stroke-linejoin:round; stroke-width:4; stroke-opacity:1; fill:none" points="232.584,716.048 3152.76,716.048 "></polyline>
<polyline clip-path="url(#clip560)" style="stroke:#000000; stroke-linecap:round; stroke-linejoin:round; stroke-width:4; stroke-opacity:1; fill:none" points="315.23,716.048 315.23,697.15 "></polyline>
<polyline clip-path="url(#clip560)" style="stroke:#000000; stroke-linecap:round; stroke-linejoin:round; stroke-width:4; stroke-opacity:1; fill:none" points="1080.47,716.048 1080.47,697.15 "></polyline>
<polyline clip-path="url(#clip560)" style="stroke:#000000; stroke-linecap:round; stroke-linejoin:round; stroke-width:4; stroke-opacity:1; fill:none" points="1845.72,716.048 1845.72,697.15 "></polyline>
<polyline clip-path="url(#clip560)" style="stroke:#000000; stroke-linecap:round; stroke-linejoin:round; stroke-width:4; stroke-opacity:1; fill:none" points="2610.96,716.048 2610.96,697.15 "></polyline>
<path clip-path="url(#clip560)" d="M305.508 750.288 L323.865 750.288 L323.865 754.223 L309.791 754.223 L309.791 762.695 Q310.809 762.348 311.828 762.186 Q312.846 762.001 313.865 762.001 Q319.652 762.001 323.031 765.172 Q326.411 768.343 326.411 773.76 Q326.411 779.339 322.939 782.44 Q319.466 785.519 313.147 785.519 Q310.971 785.519 308.703 785.149 Q306.457 784.778 304.05 784.038 L304.05 779.339 Q306.133 780.473 308.355 781.028 Q310.578 781.584 313.054 781.584 Q317.059 781.584 319.397 779.478 Q321.735 777.371 321.735 773.76 Q321.735 770.149 319.397 768.042 Q317.059 765.936 313.054 765.936 Q311.179 765.936 309.304 766.353 Q307.453 766.769 305.508 767.649 L305.508 750.288 Z" fill="#000000" fill-rule="nonzero" fill-opacity="1"></path><path clip-path="url(#clip560)" d="M1055.16 780.913 L1062.8 780.913 L1062.8 754.547 L1054.49 756.214 L1054.49 751.955 L1062.75 750.288 L1067.43 750.288 L1067.43 780.913 L1075.07 780.913 L1075.07 784.848 L1055.16 784.848 L1055.16 780.913 Z" fill="#000000" fill-rule="nonzero" fill-opacity="1"></path><path clip-path="url(#clip560)" d="M1094.51 753.367 Q1090.9 753.367 1089.07 756.931 Q1087.27 760.473 1087.27 767.603 Q1087.27 774.709 1089.07 778.274 Q1090.9 781.815 1094.51 781.815 Q1098.15 781.815 1099.95 778.274 Q1101.78 774.709 1101.78 767.603 Q1101.78 760.473 1099.95 756.931 Q1098.15 753.367 1094.51 753.367 M1094.51 749.663 Q1100.32 749.663 1103.38 754.269 Q1106.46 758.853 1106.46 767.603 Q1106.46 776.329 1103.38 780.936 Q1100.32 785.519 1094.51 785.519 Q1088.7 785.519 1085.63 780.936 Q1082.57 776.329 1082.57 767.603 Q1082.57 758.853 1085.63 754.269 Q1088.7 749.663 1094.51 749.663 Z" fill="#000000" fill-rule="nonzero" fill-opacity="1"></path><path clip-path="url(#clip560)" d="M1820.9 780.913 L1828.54 780.913 L1828.54 754.547 L1820.23 756.214 L1820.23 751.955 L1828.5 750.288 L1833.17 750.288 L1833.17 780.913 L1840.81 780.913 L1840.81 784.848 L1820.9 784.848 L1820.9 780.913 Z" fill="#000000" fill-rule="nonzero" fill-opacity="1"></path><path clip-path="url(#clip560)" d="M1850.3 750.288 L1868.66 750.288 L1868.66 754.223 L1854.58 754.223 L1854.58 762.695 Q1855.6 762.348 1856.62 762.186 Q1857.64 762.001 1858.66 762.001 Q1864.45 762.001 1867.83 765.172 Q1871.2 768.343 1871.2 773.76 Q1871.2 779.339 1867.73 782.44 Q1864.26 785.519 1857.94 785.519 Q1855.77 785.519 1853.5 785.149 Q1851.25 784.778 1848.84 784.038 L1848.84 779.339 Q1850.93 780.473 1853.15 781.028 Q1855.37 781.584 1857.85 781.584 Q1861.85 781.584 1864.19 779.478 Q1866.53 777.371 1866.53 773.76 Q1866.53 770.149 1864.19 768.042 Q1861.85 765.936 1857.85 765.936 Q1855.97 765.936 1854.1 766.353 Q1852.25 766.769 1850.3 767.649 L1850.3 750.288 Z" fill="#000000" fill-rule="nonzero" fill-opacity="1"></path><path clip-path="url(#clip560)" d="M2589.74 780.913 L2606.06 780.913 L2606.06 784.848 L2584.11 784.848 L2584.11 780.913 Q2586.77 778.158 2591.36 773.528 Q2595.96 768.876 2597.14 767.533 Q2599.39 765.01 2600.27 763.274 Q2601.17 761.515 2601.17 759.825 Q2601.17 757.07 2599.23 755.334 Q2597.31 753.598 2594.2 753.598 Q2592 753.598 2589.55 754.362 Q2587.12 755.126 2584.34 756.677 L2584.34 751.955 Q2587.17 750.82 2589.62 750.242 Q2592.07 749.663 2594.11 749.663 Q2599.48 749.663 2602.68 752.348 Q2605.87 755.033 2605.87 759.524 Q2605.87 761.654 2605.06 763.575 Q2604.27 765.473 2602.17 768.066 Q2601.59 768.737 2598.49 771.954 Q2595.38 775.149 2589.74 780.913 Z" fill="#000000" fill-rule="nonzero" fill-opacity="1"></path><path clip-path="url(#clip560)" d="M2625.87 753.367 Q2622.26 753.367 2620.43 756.931 Q2618.62 760.473 2618.62 767.603 Q2618.62 774.709 2620.43 778.274 Q2622.26 781.815 2625.87 781.815 Q2629.5 781.815 2631.31 778.274 Q2633.14 774.709 2633.14 767.603 Q2633.14 760.473 2631.31 756.931 Q2629.5 753.367 2625.87 753.367 M2625.87 749.663 Q2631.68 749.663 2634.74 754.269 Q2637.81 758.853 2637.81 767.603 Q2637.81 776.329 2634.74 780.936 Q2631.68 785.519 2625.87 785.519 Q2620.06 785.519 2616.98 780.936 Q2613.93 776.329 2613.93 767.603 Q2613.93 758.853 2616.98 754.269 Q2620.06 749.663 2625.87 749.663 Z" fill="#000000" fill-rule="nonzero" fill-opacity="1"></path><polyline clip-path="url(#clip560)" style="stroke:#000000; stroke-linecap:round; stroke-linejoin:round; stroke-width:4; stroke-opacity:1; fill:none" points="232.584,716.048 232.584,85.6721 "></polyline>
<polyline clip-path="url(#clip560)" style="stroke:#000000; stroke-linecap:round; stroke-linejoin:round; stroke-width:4; stroke-opacity:1; fill:none" points="232.584,610.985 251.482,610.985 "></polyline>
<polyline clip-path="url(#clip560)" style="stroke:#000000; stroke-linecap:round; stroke-linejoin:round; stroke-width:4; stroke-opacity:1; fill:none" points="232.584,505.923 251.482,505.923 "></polyline>
<polyline clip-path="url(#clip560)" style="stroke:#000000; stroke-linecap:round; stroke-linejoin:round; stroke-width:4; stroke-opacity:1; fill:none" points="232.584,400.86 251.482,400.86 "></polyline>
<polyline clip-path="url(#clip560)" style="stroke:#000000; stroke-linecap:round; stroke-linejoin:round; stroke-width:4; stroke-opacity:1; fill:none" points="232.584,295.797 251.482,295.797 "></polyline>
<polyline clip-path="url(#clip560)" style="stroke:#000000; stroke-linecap:round; stroke-linejoin:round; stroke-width:4; stroke-opacity:1; fill:none" points="232.584,190.735 251.482,190.735 "></polyline>
<polyline clip-path="url(#clip560)" style="stroke:#000000; stroke-linecap:round; stroke-linejoin:round; stroke-width:4; stroke-opacity:1; fill:none" points="232.584,85.6721 251.482,85.6721 "></polyline>
<path clip-path="url(#clip560)" d="M47.5708 611.437 L77.2466 611.437 L77.2466 615.372 L47.5708 615.372 L47.5708 611.437 Z" fill="#000000" fill-rule="nonzero" fill-opacity="1"></path><path clip-path="url(#clip560)" d="M97.3391 596.784 Q93.728 596.784 91.8993 600.349 Q90.0937 603.89 90.0937 611.02 Q90.0937 618.126 91.8993 621.691 Q93.728 625.233 97.3391 625.233 Q100.973 625.233 102.779 621.691 Q104.608 618.126 104.608 611.02 Q104.608 603.89 102.779 600.349 Q100.973 596.784 97.3391 596.784 M97.3391 593.08 Q103.149 593.08 106.205 597.687 Q109.283 602.27 109.283 611.02 Q109.283 619.747 106.205 624.353 Q103.149 628.937 97.3391 628.937 Q91.5289 628.937 88.4502 624.353 Q85.3947 619.747 85.3947 611.02 Q85.3947 602.27 88.4502 597.687 Q91.5289 593.08 97.3391 593.08 Z" fill="#000000" fill-rule="nonzero" fill-opacity="1"></path><path clip-path="url(#clip560)" d="M117.501 622.386 L122.385 622.386 L122.385 628.265 L117.501 628.265 L117.501 622.386 Z" fill="#000000" fill-rule="nonzero" fill-opacity="1"></path><path clip-path="url(#clip560)" d="M142.57 596.784 Q138.959 596.784 137.131 600.349 Q135.325 603.89 135.325 611.02 Q135.325 618.126 137.131 621.691 Q138.959 625.233 142.57 625.233 Q146.205 625.233 148.01 621.691 Q149.839 618.126 149.839 611.02 Q149.839 603.89 148.01 600.349 Q146.205 596.784 142.57 596.784 M142.57 593.08 Q148.38 593.08 151.436 597.687 Q154.515 602.27 154.515 611.02 Q154.515 619.747 151.436 624.353 Q148.38 628.937 142.57 628.937 Q136.76 628.937 133.681 624.353 Q130.626 619.747 130.626 611.02 Q130.626 602.27 133.681 597.687 Q136.76 593.08 142.57 593.08 Z" fill="#000000" fill-rule="nonzero" fill-opacity="1"></path><path clip-path="url(#clip560)" d="M172.732 611.853 Q169.399 611.853 167.478 613.636 Q165.579 615.418 165.579 618.543 Q165.579 621.668 167.478 623.45 Q169.399 625.233 172.732 625.233 Q176.066 625.233 177.987 623.45 Q179.908 621.645 179.908 618.543 Q179.908 615.418 177.987 613.636 Q176.089 611.853 172.732 611.853 M168.056 609.863 Q165.047 609.122 163.357 607.062 Q161.691 605.001 161.691 602.039 Q161.691 597.895 164.63 595.488 Q167.593 593.08 172.732 593.08 Q177.894 593.08 180.834 595.488 Q183.774 597.895 183.774 602.039 Q183.774 605.001 182.084 607.062 Q180.417 609.122 177.431 609.863 Q180.811 610.65 182.686 612.941 Q184.584 615.233 184.584 618.543 Q184.584 623.566 181.505 626.251 Q178.45 628.937 172.732 628.937 Q167.015 628.937 163.936 626.251 Q160.88 623.566 160.88 618.543 Q160.88 615.233 162.779 612.941 Q164.677 610.65 168.056 609.863 M166.343 602.478 Q166.343 605.164 168.01 606.668 Q169.7 608.173 172.732 608.173 Q175.741 608.173 177.431 606.668 Q179.144 605.164 179.144 602.478 Q179.144 599.793 177.431 598.289 Q175.741 596.784 172.732 596.784 Q169.7 596.784 168.01 598.289 Q166.343 599.793 166.343 602.478 Z" fill="#000000" fill-rule="nonzero" fill-opacity="1"></path><path clip-path="url(#clip560)" d="M48.381 506.374 L78.0568 506.374 L78.0568 510.309 L48.381 510.309 L48.381 506.374 Z" fill="#000000" fill-rule="nonzero" fill-opacity="1"></path><path clip-path="url(#clip560)" d="M98.1493 491.721 Q94.5382 491.721 92.7095 495.286 Q90.9039 498.828 90.9039 505.957 Q90.9039 513.064 92.7095 516.629 Q94.5382 520.17 98.1493 520.17 Q101.783 520.17 103.589 516.629 Q105.418 513.064 105.418 505.957 Q105.418 498.828 103.589 495.286 Q101.783 491.721 98.1493 491.721 M98.1493 488.018 Q103.959 488.018 107.015 492.624 Q110.094 497.207 110.094 505.957 Q110.094 514.684 107.015 519.291 Q103.959 523.874 98.1493 523.874 Q92.3391 523.874 89.2604 519.291 Q86.2049 514.684 86.2049 505.957 Q86.2049 497.207 89.2604 492.624 Q92.3391 488.018 98.1493 488.018 Z" fill="#000000" fill-rule="nonzero" fill-opacity="1"></path><path clip-path="url(#clip560)" d="M118.311 517.323 L123.195 517.323 L123.195 523.203 L118.311 523.203 L118.311 517.323 Z" fill="#000000" fill-rule="nonzero" fill-opacity="1"></path><path clip-path="url(#clip560)" d="M143.38 491.721 Q139.769 491.721 137.941 495.286 Q136.135 498.828 136.135 505.957 Q136.135 513.064 137.941 516.629 Q139.769 520.17 143.38 520.17 Q147.015 520.17 148.82 516.629 Q150.649 513.064 150.649 505.957 Q150.649 498.828 148.82 495.286 Q147.015 491.721 143.38 491.721 M143.38 488.018 Q149.191 488.018 152.246 492.624 Q155.325 497.207 155.325 505.957 Q155.325 514.684 152.246 519.291 Q149.191 523.874 143.38 523.874 Q137.57 523.874 134.492 519.291 Q131.436 514.684 131.436 505.957 Q131.436 497.207 134.492 492.624 Q137.57 488.018 143.38 488.018 Z" fill="#000000" fill-rule="nonzero" fill-opacity="1"></path><path clip-path="url(#clip560)" d="M162.362 488.643 L184.584 488.643 L184.584 490.633 L172.038 523.203 L167.154 523.203 L178.959 492.578 L162.362 492.578 L162.362 488.643 Z" fill="#000000" fill-rule="nonzero" fill-opacity="1"></path><path clip-path="url(#clip560)" d="M47.3162 401.311 L76.992 401.311 L76.992 405.247 L47.3162 405.247 L47.3162 401.311 Z" fill="#000000" fill-rule="nonzero" fill-opacity="1"></path><path clip-path="url(#clip560)" d="M97.0845 386.659 Q93.4734 386.659 91.6447 390.223 Q89.8391 393.765 89.8391 400.895 Q89.8391 408.001 91.6447 411.566 Q93.4734 415.108 97.0845 415.108 Q100.719 415.108 102.524 411.566 Q104.353 408.001 104.353 400.895 Q104.353 393.765 102.524 390.223 Q100.719 386.659 97.0845 386.659 M97.0845 382.955 Q102.895 382.955 105.95 387.561 Q109.029 392.145 109.029 400.895 Q109.029 409.622 105.95 414.228 Q102.895 418.811 97.0845 418.811 Q91.2743 418.811 88.1956 414.228 Q85.1401 409.622 85.1401 400.895 Q85.1401 392.145 88.1956 387.561 Q91.2743 382.955 97.0845 382.955 Z" fill="#000000" fill-rule="nonzero" fill-opacity="1"></path><path clip-path="url(#clip560)" d="M117.246 412.26 L122.131 412.26 L122.131 418.14 L117.246 418.14 L117.246 412.26 Z" fill="#000000" fill-rule="nonzero" fill-opacity="1"></path><path clip-path="url(#clip560)" d="M142.316 386.659 Q138.705 386.659 136.876 390.223 Q135.07 393.765 135.07 400.895 Q135.07 408.001 136.876 411.566 Q138.705 415.108 142.316 415.108 Q145.95 415.108 147.755 411.566 Q149.584 408.001 149.584 400.895 Q149.584 393.765 147.755 390.223 Q145.95 386.659 142.316 386.659 M142.316 382.955 Q148.126 382.955 151.181 387.561 Q154.26 392.145 154.26 400.895 Q154.26 409.622 151.181 414.228 Q148.126 418.811 142.316 418.811 Q136.506 418.811 133.427 414.228 Q130.371 409.622 130.371 400.895 Q130.371 392.145 133.427 387.561 Q136.506 382.955 142.316 382.955 Z" fill="#000000" fill-rule="nonzero" fill-opacity="1"></path><path clip-path="url(#clip560)" d="M173.056 398.997 Q169.908 398.997 168.056 401.149 Q166.228 403.302 166.228 407.052 Q166.228 410.779 168.056 412.955 Q169.908 415.108 173.056 415.108 Q176.204 415.108 178.033 412.955 Q179.885 410.779 179.885 407.052 Q179.885 403.302 178.033 401.149 Q176.204 398.997 173.056 398.997 M182.339 384.344 L182.339 388.603 Q180.579 387.77 178.774 387.33 Q176.991 386.89 175.232 386.89 Q170.603 386.89 168.149 390.015 Q165.718 393.14 165.371 399.46 Q166.737 397.446 168.797 396.381 Q170.857 395.293 173.334 395.293 Q178.542 395.293 181.552 398.464 Q184.584 401.612 184.584 407.052 Q184.584 412.376 181.436 415.594 Q178.288 418.811 173.056 418.811 Q167.061 418.811 163.89 414.228 Q160.718 409.622 160.718 400.895 Q160.718 392.7 164.607 387.839 Q168.496 382.955 175.047 382.955 Q176.806 382.955 178.589 383.302 Q180.394 383.649 182.339 384.344 Z" fill="#000000" fill-rule="nonzero" fill-opacity="1"></path><path clip-path="url(#clip560)" d="M48.4736 296.249 L78.1494 296.249 L78.1494 300.184 L48.4736 300.184 L48.4736 296.249 Z" fill="#000000" fill-rule="nonzero" fill-opacity="1"></path><path clip-path="url(#clip560)" d="M98.2419 281.596 Q94.6308 281.596 92.8021 285.161 Q90.9965 288.703 90.9965 295.832 Q90.9965 302.939 92.8021 306.503 Q94.6308 310.045 98.2419 310.045 Q101.876 310.045 103.682 306.503 Q105.51 302.939 105.51 295.832 Q105.51 288.703 103.682 285.161 Q101.876 281.596 98.2419 281.596 M98.2419 277.892 Q104.052 277.892 107.108 282.499 Q110.186 287.082 110.186 295.832 Q110.186 304.559 107.108 309.165 Q104.052 313.749 98.2419 313.749 Q92.4317 313.749 89.353 309.165 Q86.2975 304.559 86.2975 295.832 Q86.2975 287.082 89.353 282.499 Q92.4317 277.892 98.2419 277.892 Z" fill="#000000" fill-rule="nonzero" fill-opacity="1"></path><path clip-path="url(#clip560)" d="M118.404 307.198 L123.288 307.198 L123.288 313.077 L118.404 313.077 L118.404 307.198 Z" fill="#000000" fill-rule="nonzero" fill-opacity="1"></path><path clip-path="url(#clip560)" d="M143.473 281.596 Q139.862 281.596 138.033 285.161 Q136.228 288.703 136.228 295.832 Q136.228 302.939 138.033 306.503 Q139.862 310.045 143.473 310.045 Q147.107 310.045 148.913 306.503 Q150.742 302.939 150.742 295.832 Q150.742 288.703 148.913 285.161 Q147.107 281.596 143.473 281.596 M143.473 277.892 Q149.283 277.892 152.339 282.499 Q155.417 287.082 155.417 295.832 Q155.417 304.559 152.339 309.165 Q149.283 313.749 143.473 313.749 Q137.663 313.749 134.584 309.165 Q131.529 304.559 131.529 295.832 Q131.529 287.082 134.584 282.499 Q137.663 277.892 143.473 277.892 Z" fill="#000000" fill-rule="nonzero" fill-opacity="1"></path><path clip-path="url(#clip560)" d="M163.681 278.517 L182.038 278.517 L182.038 282.453 L167.964 282.453 L167.964 290.925 Q168.982 290.577 170.001 290.415 Q171.019 290.23 172.038 290.23 Q177.825 290.23 181.204 293.402 Q184.584 296.573 184.584 301.989 Q184.584 307.568 181.112 310.67 Q177.64 313.749 171.32 313.749 Q169.144 313.749 166.876 313.378 Q164.63 313.008 162.223 312.267 L162.223 307.568 Q164.306 308.702 166.529 309.258 Q168.751 309.814 171.228 309.814 Q175.232 309.814 177.57 307.707 Q179.908 305.601 179.908 301.989 Q179.908 298.378 177.57 296.272 Q175.232 294.165 171.228 294.165 Q169.353 294.165 167.478 294.582 Q165.626 294.999 163.681 295.878 L163.681 278.517 Z" fill="#000000" fill-rule="nonzero" fill-opacity="1"></path><path clip-path="url(#clip560)" d="M46.9921 191.186 L76.6679 191.186 L76.6679 195.121 L46.9921 195.121 L46.9921 191.186 Z" fill="#000000" fill-rule="nonzero" fill-opacity="1"></path><path clip-path="url(#clip560)" d="M96.7604 176.533 Q93.1493 176.533 91.3206 180.098 Q89.515 183.64 89.515 190.769 Q89.515 197.876 91.3206 201.441 Q93.1493 204.982 96.7604 204.982 Q100.395 204.982 102.2 201.441 Q104.029 197.876 104.029 190.769 Q104.029 183.64 102.2 180.098 Q100.395 176.533 96.7604 176.533 M96.7604 172.83 Q102.571 172.83 105.626 177.436 Q108.705 182.02 108.705 190.769 Q108.705 199.496 105.626 204.103 Q102.571 208.686 96.7604 208.686 Q90.9502 208.686 87.8715 204.103 Q84.816 199.496 84.816 190.769 Q84.816 182.02 87.8715 177.436 Q90.9502 172.83 96.7604 172.83 Z" fill="#000000" fill-rule="nonzero" fill-opacity="1"></path><path clip-path="url(#clip560)" d="M116.922 202.135 L121.807 202.135 L121.807 208.015 L116.922 208.015 L116.922 202.135 Z" fill="#000000" fill-rule="nonzero" fill-opacity="1"></path><path clip-path="url(#clip560)" d="M141.992 176.533 Q138.381 176.533 136.552 180.098 Q134.746 183.64 134.746 190.769 Q134.746 197.876 136.552 201.441 Q138.381 204.982 141.992 204.982 Q145.626 204.982 147.431 201.441 Q149.26 197.876 149.26 190.769 Q149.26 183.64 147.431 180.098 Q145.626 176.533 141.992 176.533 M141.992 172.83 Q147.802 172.83 150.857 177.436 Q153.936 182.02 153.936 190.769 Q153.936 199.496 150.857 204.103 Q147.802 208.686 141.992 208.686 Q136.181 208.686 133.103 204.103 Q130.047 199.496 130.047 190.769 Q130.047 182.02 133.103 177.436 Q136.181 172.83 141.992 172.83 Z" fill="#000000" fill-rule="nonzero" fill-opacity="1"></path><path clip-path="url(#clip560)" d="M175.001 177.529 L163.195 195.978 L175.001 195.978 L175.001 177.529 M173.774 173.455 L179.653 173.455 L179.653 195.978 L184.584 195.978 L184.584 199.867 L179.653 199.867 L179.653 208.015 L175.001 208.015 L175.001 199.867 L159.399 199.867 L159.399 195.353 L173.774 173.455 Z" fill="#000000" fill-rule="nonzero" fill-opacity="1"></path><path clip-path="url(#clip560)" d="M48.1264 86.1235 L77.8021 86.1235 L77.8021 90.0587 L48.1264 90.0587 L48.1264 86.1235 Z" fill="#000000" fill-rule="nonzero" fill-opacity="1"></path><path clip-path="url(#clip560)" d="M97.8946 71.4708 Q94.2835 71.4708 92.4548 75.0356 Q90.6493 78.5773 90.6493 85.7068 Q90.6493 92.8133 92.4548 96.3781 Q94.2835 99.9197 97.8946 99.9197 Q101.529 99.9197 103.334 96.3781 Q105.163 92.8133 105.163 85.7068 Q105.163 78.5773 103.334 75.0356 Q101.529 71.4708 97.8946 71.4708 M97.8946 67.7671 Q103.705 67.7671 106.76 72.3736 Q109.839 76.9569 109.839 85.7068 Q109.839 94.4337 106.76 99.0401 Q103.705 103.623 97.8946 103.623 Q92.0845 103.623 89.0058 99.0401 Q85.9503 94.4337 85.9503 85.7068 Q85.9503 76.9569 89.0058 72.3736 Q92.0845 67.7671 97.8946 67.7671 Z" fill="#000000" fill-rule="nonzero" fill-opacity="1"></path><path clip-path="url(#clip560)" d="M118.057 97.0725 L122.941 97.0725 L122.941 102.952 L118.057 102.952 L118.057 97.0725 Z" fill="#000000" fill-rule="nonzero" fill-opacity="1"></path><path clip-path="url(#clip560)" d="M143.126 71.4708 Q139.515 71.4708 137.686 75.0356 Q135.881 78.5773 135.881 85.7068 Q135.881 92.8133 137.686 96.3781 Q139.515 99.9197 143.126 99.9197 Q146.76 99.9197 148.566 96.3781 Q150.394 92.8133 150.394 85.7068 Q150.394 78.5773 148.566 75.0356 Q146.76 71.4708 143.126 71.4708 M143.126 67.7671 Q148.936 67.7671 151.992 72.3736 Q155.07 76.9569 155.07 85.7068 Q155.07 94.4337 151.992 99.0401 Q148.936 103.623 143.126 103.623 Q137.316 103.623 134.237 99.0401 Q131.181 94.4337 131.181 85.7068 Q131.181 76.9569 134.237 72.3736 Q137.316 67.7671 143.126 67.7671 Z" fill="#000000" fill-rule="nonzero" fill-opacity="1"></path><path clip-path="url(#clip560)" d="M177.454 84.318 Q180.811 85.0356 182.686 87.3041 Q184.584 89.5726 184.584 92.9059 Q184.584 98.0216 181.065 100.823 Q177.547 103.623 171.066 103.623 Q168.89 103.623 166.575 103.184 Q164.283 102.767 161.829 101.91 L161.829 97.3966 Q163.774 98.5309 166.089 99.1096 Q168.404 99.6883 170.927 99.6883 Q175.325 99.6883 177.616 97.9522 Q179.931 96.2161 179.931 92.9059 Q179.931 89.8503 177.778 88.1374 Q175.649 86.4013 171.829 86.4013 L167.802 86.4013 L167.802 82.5587 L172.015 82.5587 Q175.464 82.5587 177.292 81.193 Q179.121 79.8041 179.121 77.2115 Q179.121 74.5495 177.223 73.1375 Q175.348 71.7023 171.829 71.7023 Q169.908 71.7023 167.709 72.119 Q165.51 72.5356 162.871 73.4152 L162.871 69.2486 Q165.533 68.5079 167.848 68.1375 Q170.186 67.7671 172.246 67.7671 Q177.57 67.7671 180.672 70.1977 Q183.774 72.6051 183.774 76.7254 Q183.774 79.5958 182.13 81.5865 Q180.487 83.5541 177.454 84.318 Z" fill="#000000" fill-rule="nonzero" fill-opacity="1"></path><path clip-path="url(#clip560)" d="M1282.66 14.0809 L1282.66 22.0612 Q1278 19.8332 1273.87 18.7395 Q1269.74 17.6457 1265.89 17.6457 Q1259.2 17.6457 1255.56 20.2383 Q1251.95 22.8309 1251.95 27.611 Q1251.95 31.6214 1254.34 33.6873 Q1256.77 35.7128 1263.5 36.9686 L1268.44 37.9813 Q1277.59 39.7232 1281.93 44.1387 Q1286.3 48.5136 1286.3 55.8863 Q1286.3 64.6767 1280.39 69.2137 Q1274.52 73.7508 1263.13 73.7508 Q1258.84 73.7508 1253.98 72.7785 Q1249.16 71.8063 1243.97 69.9024 L1243.97 61.4765 Q1248.95 64.2716 1253.73 65.6895 Q1258.51 67.1073 1263.13 67.1073 Q1270.14 67.1073 1273.95 64.3527 Q1277.76 61.598 1277.76 56.4939 Q1277.76 52.0379 1275 49.5264 Q1272.29 47.0148 1266.05 45.759 L1261.07 44.7868 Q1251.91 42.9639 1247.82 39.075 Q1243.73 35.1862 1243.73 28.2591 Q1243.73 20.2383 1249.36 15.6203 Q1255.03 11.0023 1264.96 11.0023 Q1269.21 11.0023 1273.62 11.7719 Q1278.04 12.5416 1282.66 14.0809 Z" fill="#000000" fill-rule="nonzero" fill-opacity="1"></path><path clip-path="url(#clip560)" d="M1326.08 34.9026 L1378.02 34.9026 L1378.02 41.7081 L1326.08 41.7081 L1326.08 34.9026 M1326.08 51.4303 L1378.02 51.4303 L1378.02 58.3168 L1326.08 58.3168 L1326.08 51.4303 Z" fill="#000000" fill-rule="nonzero" fill-opacity="1"></path><path clip-path="url(#clip560)" d="M1455.59 80.2727 L1455.59 86.106 L1453.08 86.106 Q1442.99 86.106 1439.55 83.1084 Q1436.15 80.1107 1436.15 71.1582 L1436.15 61.4765 Q1436.15 55.3597 1433.96 53.0101 Q1431.77 50.6606 1426.02 50.6606 L1423.55 50.6606 L1423.55 44.8678 L1426.02 44.8678 Q1431.81 44.8678 1433.96 42.5588 Q1436.15 40.2093 1436.15 34.1734 L1436.15 24.4513 Q1436.15 15.4988 1439.55 12.5416 Q1442.99 9.54393 1453.08 9.54393 L1455.59 9.54393 L1455.59 15.3367 L1452.84 15.3367 Q1447.12 15.3367 1445.38 17.1191 Q1443.64 18.9015 1443.64 24.6133 L1443.64 34.6595 Q1443.64 41.0195 1441.78 43.8956 Q1439.95 46.7717 1435.5 47.7845 Q1439.99 48.8782 1441.82 51.7544 Q1443.64 54.6305 1443.64 60.9499 L1443.64 70.9961 Q1443.64 76.7079 1445.38 78.4903 Q1447.12 80.2727 1452.84 80.2727 L1455.59 80.2727 Z" fill="#000000" fill-rule="nonzero" fill-opacity="1"></path><path clip-path="url(#clip560)" d="M1476.25 65.6895 L1489.62 65.6895 L1489.62 19.5497 L1475.08 22.4663 L1475.08 15.0127 L1489.54 12.096 L1497.72 12.096 L1497.72 65.6895 L1511.09 65.6895 L1511.09 72.576 L1476.25 72.576 L1476.25 65.6895 Z" fill="#000000" fill-rule="nonzero" fill-opacity="1"></path><path clip-path="url(#clip560)" d="M1528.47 62.2867 L1537.01 62.2867 L1537.01 69.2543 L1530.37 82.2172 L1525.14 82.2172 L1528.47 69.2543 L1528.47 62.2867 Z" fill="#000000" fill-rule="nonzero" fill-opacity="1"></path><path clip-path="url(#clip560)" d="M1580.44 12.096 L1612.56 12.096 L1612.56 18.9825 L1587.93 18.9825 L1587.93 33.8088 Q1589.72 33.2012 1591.5 32.9176 Q1593.28 32.5936 1595.06 32.5936 Q1605.19 32.5936 1611.1 38.1433 Q1617.02 43.6931 1617.02 53.1722 Q1617.02 62.9348 1610.94 68.3631 Q1604.87 73.7508 1593.81 73.7508 Q1590 73.7508 1586.03 73.1026 Q1582.1 72.4545 1577.89 71.1582 L1577.89 62.9348 Q1581.53 64.9198 1585.42 65.892 Q1589.31 66.8642 1593.65 66.8642 Q1600.65 66.8642 1604.75 63.1779 Q1608.84 59.4916 1608.84 53.1722 Q1608.84 46.8528 1604.75 43.1664 Q1600.65 39.4801 1593.65 39.4801 Q1590.36 39.4801 1587.08 40.2093 Q1583.84 40.9384 1580.44 42.4778 L1580.44 12.096 Z" fill="#000000" fill-rule="nonzero" fill-opacity="1"></path><path clip-path="url(#clip560)" d="M1633.99 62.2867 L1642.54 62.2867 L1642.54 69.2543 L1635.9 82.2172 L1630.67 82.2172 L1633.99 69.2543 L1633.99 62.2867 Z" fill="#000000" fill-rule="nonzero" fill-opacity="1"></path><path clip-path="url(#clip560)" d="M1687.3 65.6895 L1700.67 65.6895 L1700.67 19.5497 L1686.13 22.4663 L1686.13 15.0127 L1700.59 12.096 L1708.77 12.096 L1708.77 65.6895 L1722.14 65.6895 L1722.14 72.576 L1687.3 72.576 L1687.3 65.6895 Z" fill="#000000" fill-rule="nonzero" fill-opacity="1"></path><path clip-path="url(#clip560)" d="M1756.17 17.4837 Q1749.85 17.4837 1746.65 23.7221 Q1743.49 29.92 1743.49 42.3968 Q1743.49 54.833 1746.65 61.0714 Q1749.85 67.2693 1756.17 67.2693 Q1762.53 67.2693 1765.69 61.0714 Q1768.89 54.833 1768.89 42.3968 Q1768.89 29.92 1765.69 23.7221 Q1762.53 17.4837 1756.17 17.4837 M1756.17 11.0023 Q1766.34 11.0023 1771.68 19.0636 Q1777.07 27.0843 1777.07 42.3968 Q1777.07 57.6687 1771.68 65.73 Q1766.34 73.7508 1756.17 73.7508 Q1746 73.7508 1740.61 65.73 Q1735.27 57.6687 1735.27 42.3968 Q1735.27 27.0843 1740.61 19.0636 Q1746 11.0023 1756.17 11.0023 Z" fill="#000000" fill-rule="nonzero" fill-opacity="1"></path><path clip-path="url(#clip560)" d="M1792.3 62.2867 L1800.85 62.2867 L1800.85 69.2543 L1794.21 82.2172 L1788.98 82.2172 L1792.3 69.2543 L1792.3 62.2867 Z" fill="#000000" fill-rule="nonzero" fill-opacity="1"></path><path clip-path="url(#clip560)" d="M1845.61 65.6895 L1858.98 65.6895 L1858.98 19.5497 L1844.44 22.4663 L1844.44 15.0127 L1858.9 12.096 L1867.08 12.096 L1867.08 65.6895 L1880.45 65.6895 L1880.45 72.576 L1845.61 72.576 L1845.61 65.6895 Z" fill="#000000" fill-rule="nonzero" fill-opacity="1"></path><path clip-path="url(#clip560)" d="M1897.06 12.096 L1929.18 12.096 L1929.18 18.9825 L1904.55 18.9825 L1904.55 33.8088 Q1906.33 33.2012 1908.12 32.9176 Q1909.9 32.5936 1911.68 32.5936 Q1921.81 32.5936 1927.72 38.1433 Q1933.64 43.6931 1933.64 53.1722 Q1933.64 62.9348 1927.56 68.3631 Q1921.49 73.7508 1910.43 73.7508 Q1906.62 73.7508 1902.65 73.1026 Q1898.72 72.4545 1894.51 71.1582 L1894.51 62.9348 Q1898.15 64.9198 1902.04 65.892 Q1905.93 66.8642 1910.26 66.8642 Q1917.27 66.8642 1921.36 63.1779 Q1925.46 59.4916 1925.46 53.1722 Q1925.46 46.8528 1921.36 43.1664 Q1917.27 39.4801 1910.26 39.4801 Q1906.98 39.4801 1903.7 40.2093 Q1900.46 40.9384 1897.06 42.4778 L1897.06 12.096 Z" fill="#000000" fill-rule="nonzero" fill-opacity="1"></path><path clip-path="url(#clip560)" d="M1950.61 62.2867 L1959.16 62.2867 L1959.16 69.2543 L1952.52 82.2172 L1947.29 82.2172 L1950.61 69.2543 L1950.61 62.2867 Z" fill="#000000" fill-rule="nonzero" fill-opacity="1"></path><path clip-path="url(#clip560)" d="M2009.55 65.6895 L2038.11 65.6895 L2038.11 72.576 L1999.71 72.576 L1999.71 65.6895 Q2004.37 60.8689 2012.39 52.7671 Q2020.45 44.6248 2022.51 42.2752 Q2026.44 37.8598 2027.98 34.8216 Q2029.56 31.7429 2029.56 28.7857 Q2029.56 23.9651 2026.16 20.927 Q2022.8 17.8888 2017.37 17.8888 Q2013.52 17.8888 2009.23 19.2256 Q2004.97 20.5624 2000.11 23.2765 L2000.11 15.0127 Q2005.06 13.0277 2009.35 12.015 Q2013.64 11.0023 2017.21 11.0023 Q2026.61 11.0023 2032.2 15.7013 Q2037.79 20.4004 2037.79 28.2591 Q2037.79 31.9859 2036.37 35.3482 Q2034.99 38.6699 2031.31 43.2069 Q2030.29 44.3817 2024.86 50.0125 Q2019.44 55.6027 2009.55 65.6895 Z" fill="#000000" fill-rule="nonzero" fill-opacity="1"></path><path clip-path="url(#clip560)" d="M2072.79 17.4837 Q2066.47 17.4837 2063.27 23.7221 Q2060.11 29.92 2060.11 42.3968 Q2060.11 54.833 2063.27 61.0714 Q2066.47 67.2693 2072.79 67.2693 Q2079.15 67.2693 2082.31 61.0714 Q2085.51 54.833 2085.51 42.3968 Q2085.51 29.92 2082.31 23.7221 Q2079.15 17.4837 2072.79 17.4837 M2072.79 11.0023 Q2082.95 11.0023 2088.3 19.0636 Q2093.69 27.0843 2093.69 42.3968 Q2093.69 57.6687 2088.3 65.73 Q2082.95 73.7508 2072.79 73.7508 Q2062.62 73.7508 2057.23 65.73 Q2051.88 57.6687 2051.88 42.3968 Q2051.88 27.0843 2057.23 19.0636 Q2062.62 11.0023 2072.79 11.0023 Z" fill="#000000" fill-rule="nonzero" fill-opacity="1"></path><path clip-path="url(#clip560)" d="M2109.57 80.2727 L2112.4 80.2727 Q2118.08 80.2727 2119.78 78.5308 Q2121.52 76.7889 2121.52 70.9961 L2121.52 60.9499 Q2121.52 54.6305 2123.34 51.7544 Q2125.16 48.8782 2129.66 47.7845 Q2125.16 46.7717 2123.34 43.8956 Q2121.52 41.0195 2121.52 34.6595 L2121.52 24.6133 Q2121.52 18.861 2119.78 17.1191 Q2118.08 15.3367 2112.4 15.3367 L2109.57 15.3367 L2109.57 9.54393 L2112.12 9.54393 Q2122.21 9.54393 2125.57 12.5416 Q2128.97 15.4988 2128.97 24.4513 L2128.97 34.1734 Q2128.97 40.2093 2131.16 42.5588 Q2133.35 44.8678 2139.1 44.8678 L2141.61 44.8678 L2141.61 50.6606 L2139.1 50.6606 Q2133.35 50.6606 2131.16 53.0101 Q2128.97 55.3597 2128.97 61.4765 L2128.97 71.1582 Q2128.97 80.1107 2125.57 83.1084 Q2122.21 86.106 2112.12 86.106 L2109.57 86.106 L2109.57 80.2727 Z" fill="#000000" fill-rule="nonzero" fill-opacity="1"></path><polyline clip-path="url(#clip562)" style="stroke:#009af9; stroke-linecap:round; stroke-linejoin:round; stroke-width:8.8; stroke-opacity:1; fill:none" points="315.23,379.978 927.426,358.242 1845.72,511.468 2457.91,-229.516 3070.11,368.577 "></polyline>
<polyline clip-path="url(#clip562)" style="stroke:#e26f46; stroke-linecap:round; stroke-linejoin:round; stroke-width:8.8; stroke-opacity:1; fill:none" points="315.23,339.345 927.426,320.322 1845.72,403.032 2457.91,703.622 3070.11,579.669 "></polyline>
<polyline clip-path="url(#clip562)" style="stroke:#3da44d; stroke-linecap:round; stroke-linejoin:round; stroke-width:8.8; stroke-opacity:1; fill:none" points="315.23,613.618 927.426,339.282 1845.72,434.659 2457.91,561.43 3070.11,298.213 "></polyline>
<polyline clip-path="url(#clip562)" style="stroke:#c271d2; stroke-linecap:round; stroke-linejoin:round; stroke-width:8.8; stroke-opacity:1; fill:none" points="315.23,372.36 927.426,559.692 1845.72,362.368 2457.91,465.894 3070.11,313.605 "></polyline>
<polyline clip-path="url(#clip562)" style="stroke:#000000; stroke-linecap:round; stroke-linejoin:round; stroke-width:4; stroke-opacity:1; fill:none" stroke-dasharray="16, 10" points="-2687.59,367.519 6072.93,367.519 "></polyline>
</svg>