<svg xmlns="http://www.w3.org/2000/svg" xmlns:xlink="http://www.w3.org/1999/xlink" width="800" height="200" viewBox="0 0 3200 800">
<defs>
  <clipPath id="clip000">
    <rect x="0" y="0" width="3200" height="800"></rect>
  </clipPath>
</defs>
<path clip-path="url(#clip000)" d="M0 800 L3200 800 L3200 0 L0 0  Z" fill="#ffffff" fill-rule="evenodd" fill-opacity="1"></path>
<defs>
  <clipPath id="clip001">
    <rect x="640" y="0" width="2241" height="800"></rect>
  </clipPath>
</defs>
<path clip-path="url(#clip000)" d="M232.584 716.048 L3152.76 716.048 L3152.76 85.6721 L232.584 85.6721  Z" fill="#ffffff" fill-rule="evenodd" fill-opacity="1"></path>
<defs>
  <clipPath id="clip002">
    <rect x="232" y="85" width="2921" height="631"></rect>
  </clipPath>
</defs>
<polyline clip-path="url(#clip002)" style="stroke:#000000; stroke-linecap:round; stroke-linejoin:round; stroke-width:2; stroke-opacity:0.1; fill:none" points="315.23,716.048 315.23,85.6721 "></polyline>
<polyline clip-path="url(#clip002)" style="stroke:#000000; stroke-linecap:round; stroke-linejoin:round; stroke-width:2; stroke-opacity:0.1; fill:none" points="1080.47,716.048 1080.47,85.6721 "></polyline>
<polyline clip-path="url(#clip002)" style="stroke:#000000; stroke-linecap:round; stroke-linejoin:round; stroke-width:2; stroke-opacity:0.1; fill:none" points="1845.72,716.048 1845.72,85.6721 "></polyline>
<polyline clip-path="url(#clip002)" style="stroke:#000000; stroke-linecap:round; stroke-linejoin:round; stroke-width:2; stroke-opacity:0.1; fill:none" points="2610.96,716.048 2610.96,85.6721 "></polyline>
<polyline clip-path="url(#clip002)" style="stroke:#000000; stroke-linecap:round; stroke-linejoin:round; stroke-width:2; stroke-opacity:0.1; fill:none" points="232.584,601.434 3152.76,601.434 "></polyline>
<polyline clip-path="url(#clip002)" style="stroke:#000000; stroke-linecap:round; stroke-linejoin:round; stroke-width:2; stroke-opacity:0.1; fill:none" points="232.584,486.82 3152.76,486.82 "></polyline>
<polyline clip-path="url(#clip002)" style="stroke:#000000; stroke-linecap:round; stroke-linejoin:round; stroke-width:2; stroke-opacity:0.1; fill:none" points="232.584,372.207 3152.76,372.207 "></polyline>
<polyline clip-path="url(#clip002)" style="stroke:#000000; stroke-linecap:round; stroke-linejoin:round; stroke-width:2; stroke-opacity:0.1; fill:none" points="232.584,257.593 3152.76,257.593 "></polyline>
<polyline clip-path="url(#clip002)" style="stroke:#000000; stroke-linecap:round; stroke-linejoin:round; stroke-width:2; stroke-opacity:0.1; fill:none" points="232.584,142.979 3152.76,142.979 "></polyline>
<polyline clip-path="url(#clip000)" style="stroke:#000000; stroke-linecap:round; stroke-linejoin:round; stroke-width:4; stroke-opacity:1; fill:none" points="232.584,716.048 3152.76,716.048 "></polyline>
<polyline clip-path="url(#clip000)" style="stroke:#000000; stroke-linecap:round; stroke-linejoin:round; stroke-width:4; stroke-opacity:1; fill:none" points="315.23,716.048 315.23,697.15 "></polyline>
<polyline clip-path="url(#clip000)" style="stroke:#000000; stroke-linecap:round; stroke-linejoin:round; stroke-width:4; stroke-opacity:1; fill:none" points="1080.47,716.048 1080.47,697.15 "></polyline>
<polyline clip-path="url(#clip000)" style="stroke:#000000; stroke-linecap:round; stroke-linejoin:round; stroke-width:4; stroke-opacity:1; fill:none" points="1845.72,716.048 1845.72,697.15 "></polyline>
<polyline clip-path="url(#clip000)" style="stroke:#000000; stroke-linecap:round; stroke-linejoin:round; stroke-width:4; stroke-opacity:1; fill:none" points="2610.96,716.048 2610.96,697.15 "></polyline>
<path clip-path="url(#clip000)" d="M305.508 750.288 L323.865 750.288 L323.865 754.223 L309.791 754.223 L309.791 762.695 Q310.809 762.348 311.828 762.186 Q312.846 762.001 313.865 762.001 Q319.652 762.001 323.031 765.172 Q326.411 768.343 326.411 773.76 Q326.411 779.339 322.939 782.44 Q319.466 785.519 313.147 785.519 Q310.971 785.519 308.703 785.149 Q306.457 784.778 304.05 784.038 L304.05 779.339 Q306.133 780.473 308.355 781.028 Q310.578 781.584 313.054 781.584 Q317.059 781.584 319.397 779.478 Q321.735 777.371 321.735 773.76 Q321.735 770.149 319.397 768.042 Q317.059 765.936 313.054 765.936 Q311.179 765.936 309.304 766.353 Q307.453 766.769 305.508 767.649 L305.508 750.288 Z" fill="#000000" fill-rule="nonzero" fill-opacity="1"></path><path clip-path="url(#clip000)" d="M1055.16 780.913 L1062.8 780.913 L1062.8 754.547 L1054.49 756.214 L1054.49 751.955 L1062.75 750.288 L1067.43 750.288 L1067.43 780.913 L1075.07 780.913 L1075.07 784.848 L1055.16 784.848 L1055.16 780.913 Z" fill="#000000" fill-rule="nonzero" fill-opacity="1"></path><path clip-path="url(#clip000)" d="M1094.51 753.367 Q1090.9 753.367 1089.07 756.931 Q1087.27 760.473 1087.27 767.603 Q1087.27 774.709 1089.07 778.274 Q1090.9 781.815 1094.51 781.815 Q1098.15 781.815 1099.95 778.274 Q1101.78 774.709 1101.78 767.603 Q1101.78 760.473 1099.95 756.931 Q1098.15 753.367 1094.51 753.367 M1094.51 749.663 Q1100.32 749.663 1103.38 754.269 Q1106.46 758.853 1106.46 767.603 Q1106.46 776.329 1103.38 780.936 Q1100.32 785.519 1094.51 785.519 Q1088.7 785.519 1085.63 780.936 Q1082.57 776.329 1082.57 767.603 Q1082.57 758.853 1085.63 754.269 Q1088.7 749.663 1094.51 749.663 Z" fill="#000000" fill-rule="nonzero" fill-opacity="1"></path><path clip-path="url(#clip000)" d="M1820.9 780.913 L1828.54 780.913 L1828.54 754.547 L1820.23 756.214 L1820.23 751.955 L1828.5 750.288 L1833.17 750.288 L1833.17 780.913 L1840.81 780.913 L1840.81 784.848 L1820.9 784.848 L1820.9 780.913 Z" fill="#000000" fill-rule="nonzero" fill-opacity="1"></path><path clip-path="url(#clip000)" d="M1850.3 750.288 L1868.66 750.288 L1868.66 754.223 L1854.58 754.223 L1854.58 762.695 Q1855.6 762.348 1856.62 762.186 Q1857.64 762.001 1858.66 762.001 Q1864.45 762.001 1867.83 765.172 Q1871.2 768.343 1871.2 773.76 Q1871.2 779.339 1867.73 782.44 Q1864.26 785.519 1857.94 785.519 Q1855.77 785.519 1853.5 785.149 Q1851.25 784.778 1848.84 784.038 L1848.84 779.339 Q1850.93 780.473 1853.15 781.028 Q1855.37 781.584 1857.85 781.584 Q1861.85 781.584 1864.19 779.478 Q1866.53 777.371 1866.53 773.76 Q1866.53 770.149 1864.19 768.042 Q1861.85 765.936 1857.85 765.936 Q1855.97 765.936 1854.1 766.353 Q1852.25 766.769 1850.3 767.649 L1850.3 750.288 Z" fill="#000000" fill-rule="nonzero" fill-opacity="1"></path><path clip-path="url(#clip000)" d="M2589.74 780.913 L2606.06 780.913 L2606.06 784.848 L2584.11 784.848 L2584.11 780.913 Q2586.77 778.158 2591.36 773.528 Q2595.96 768.876 2597.14 767.533 Q2599.39 765.01 2600.27 763.274 Q2601.17 761.515 2601.17 759.825 Q2601.17 757.07 2599.23 755.334 Q2597.31 753.598 2594.2 753.598 Q2592 753.598 2589.55 754.362 Q2587.12 755.126 2584.34 756.677 L2584.34 751.955 Q2587.17 750.82 2589.62 750.242 Q2592.07 749.663 2594.11 749.663 Q2599.48 749.663 2602.68 752.348 Q2605.87 755.033 2605.87 759.524 Q2605.87 761.654 2605.06 763.575 Q2604.27 765.473 2602.17 768.066 Q2601.59 768.737 2598.49 771.954 Q2595.38 775.149 2589.74 780.913 Z" fill="#000000" fill-rule="nonzero" fill-opacity="1"></path><path clip-path="url(#clip000)" d="M2625.87 753.367 Q2622.26 753.367 2620.43 756.931 Q2618.62 760.473 2618.62 767.603 Q2618.62 774.709 2620.43 778.274 Q2622.26 781.815 2625.87 781.815 Q2629.5 781.815 2631.31 778.274 Q2633.14 774.709 2633.14 767.603 Q2633.14 760.473 2631.31 756.931 Q2629.5 753.367 2625.87 753.367 M2625.87 749.663 Q2631.68 749.663 2634.74 754.269 Q2637.81 758.853 2637.81 767.603 Q2637.81 776.329 2634.74 780.936 Q2631.68 785.519 2625.87 785.519 Q2620.06 785.519 2616.98 780.936 Q2613.93 776.329 2613.93 767.603 Q2613.93 758.853 2616.98 754.269 Q2620.06 749.663 2625.87 749.663 Z" fill="#000000" fill-rule="nonzero" fill-opacity="1"></path><polyline clip-path="url(#clip000)" style="stroke:#000000; stroke-linecap:round; stroke-linejoin:round; stroke-width:4; stroke-opacity:1; fill:none" points="232.584,716.048 232.584,85.6721 "></polyline>
<polyline clip-path="url(#clip000)" style="stroke:#000000; stroke-linecap:round; stroke-linejoin:round; stroke-width:4; stroke-opacity:1; fill:none" points="232.584,601.434 251.482,601.434 "></polyline>
<polyline clip-path="url(#clip000)" style="stroke:#000000; stroke-linecap:round; stroke-linejoin:round; stroke-width:4; stroke-opacity:1; fill:none" points="232.584,486.82 251.482,486.82 "></polyline>
<polyline clip-path="url(#clip000)" style="stroke:#000000; stroke-linecap:round; stroke-linejoin:round; stroke-width:4; stroke-opacity:1; fill:none" points="232.584,372.207 251.482,372.207 "></polyline>
<polyline clip-path="url(#clip000)" style="stroke:#000000; stroke-linecap:round; stroke-linejoin:round; stroke-width:4; stroke-opacity:1; fill:none" points="232.584,257.593 251.482,257.593 "></polyline>
<polyline clip-path="url(#clip000)" style="stroke:#000000; stroke-linecap:round; stroke-linejoin:round; stroke-width:4; stroke-opacity:1; fill:none" points="232.584,142.979 251.482,142.979 "></polyline>
<path clip-path="url(#clip000)" d="M48.4736 601.885 L78.1494 601.885 L78.1494 605.821 L48.4736 605.821 L48.4736 601.885 Z" fill="#000000" fill-rule="nonzero" fill-opacity="1"></path><path clip-path="url(#clip000)" d="M98.2419 587.233 Q94.6308 587.233 92.8021 590.798 Q90.9965 594.339 90.9965 601.469 Q90.9965 608.575 92.8021 612.14 Q94.6308 615.682 98.2419 615.682 Q101.876 615.682 103.682 612.14 Q105.51 608.575 105.51 601.469 Q105.51 594.339 103.682 590.798 Q101.876 587.233 98.2419 587.233 M98.2419 583.529 Q104.052 583.529 107.108 588.136 Q110.186 592.719 110.186 601.469 Q110.186 610.196 107.108 614.802 Q104.052 619.385 98.2419 619.385 Q92.4317 619.385 89.353 614.802 Q86.2975 610.196 86.2975 601.469 Q86.2975 592.719 89.353 588.136 Q92.4317 583.529 98.2419 583.529 Z" fill="#000000" fill-rule="nonzero" fill-opacity="1"></path><path clip-path="url(#clip000)" d="M118.404 612.835 L123.288 612.835 L123.288 618.714 L118.404 618.714 L118.404 612.835 Z" fill="#000000" fill-rule="nonzero" fill-opacity="1"></path><path clip-path="url(#clip000)" d="M143.473 587.233 Q139.862 587.233 138.033 590.798 Q136.228 594.339 136.228 601.469 Q136.228 608.575 138.033 612.14 Q139.862 615.682 143.473 615.682 Q147.107 615.682 148.913 612.14 Q150.742 608.575 150.742 601.469 Q150.742 594.339 148.913 590.798 Q147.107 587.233 143.473 587.233 M143.473 583.529 Q149.283 583.529 152.339 588.136 Q155.417 592.719 155.417 601.469 Q155.417 610.196 152.339 614.802 Q149.283 619.385 143.473 619.385 Q137.663 619.385 134.584 614.802 Q131.529 610.196 131.529 601.469 Q131.529 592.719 134.584 588.136 Q137.663 583.529 143.473 583.529 Z" fill="#000000" fill-rule="nonzero" fill-opacity="1"></path><path clip-path="url(#clip000)" d="M163.681 584.154 L182.038 584.154 L182.038 588.089 L167.964 588.089 L167.964 596.561 Q168.982 596.214 170.001 596.052 Q171.019 595.867 172.038 595.867 Q177.825 595.867 181.204 599.038 Q184.584 602.21 184.584 607.626 Q184.584 613.205 181.112 616.307 Q177.64 619.385 171.32 619.385 Q169.144 619.385 166.876 619.015 Q164.63 618.645 162.223 617.904 L162.223 613.205 Q164.306 614.339 166.529 614.895 Q168.751 615.45 171.228 615.45 Q175.232 615.45 177.57 613.344 Q179.908 611.237 179.908 607.626 Q179.908 604.015 177.57 601.909 Q175.232 599.802 171.228 599.802 Q169.353 599.802 167.478 600.219 Q165.626 600.635 163.681 601.515 L163.681 584.154 Z" fill="#000000" fill-rule="nonzero" fill-opacity="1"></path><path clip-path="url(#clip000)" d="M46.9921 487.272 L76.6679 487.272 L76.6679 491.207 L46.9921 491.207 L46.9921 487.272 Z" fill="#000000" fill-rule="nonzero" fill-opacity="1"></path><path clip-path="url(#clip000)" d="M96.7604 472.619 Q93.1493 472.619 91.3206 476.184 Q89.515 479.725 89.515 486.855 Q89.515 493.961 91.3206 497.526 Q93.1493 501.068 96.7604 501.068 Q100.395 501.068 102.2 497.526 Q104.029 493.961 104.029 486.855 Q104.029 479.725 102.2 476.184 Q100.395 472.619 96.7604 472.619 M96.7604 468.915 Q102.571 468.915 105.626 473.522 Q108.705 478.105 108.705 486.855 Q108.705 495.582 105.626 500.188 Q102.571 504.772 96.7604 504.772 Q90.9502 504.772 87.8715 500.188 Q84.816 495.582 84.816 486.855 Q84.816 478.105 87.8715 473.522 Q90.9502 468.915 96.7604 468.915 Z" fill="#000000" fill-rule="nonzero" fill-opacity="1"></path><path clip-path="url(#clip000)" d="M116.922 498.221 L121.807 498.221 L121.807 504.1 L116.922 504.1 L116.922 498.221 Z" fill="#000000" fill-rule="nonzero" fill-opacity="1"></path><path clip-path="url(#clip000)" d="M141.992 472.619 Q138.381 472.619 136.552 476.184 Q134.746 479.725 134.746 486.855 Q134.746 493.961 136.552 497.526 Q138.381 501.068 141.992 501.068 Q145.626 501.068 147.431 497.526 Q149.26 493.961 149.26 486.855 Q149.26 479.725 147.431 476.184 Q145.626 472.619 141.992 472.619 M141.992 468.915 Q147.802 468.915 150.857 473.522 Q153.936 478.105 153.936 486.855 Q153.936 495.582 150.857 500.188 Q147.802 504.772 141.992 504.772 Q136.181 504.772 133.103 500.188 Q130.047 495.582 130.047 486.855 Q130.047 478.105 133.103 473.522 Q136.181 468.915 141.992 468.915 Z" fill="#000000" fill-rule="nonzero" fill-opacity="1"></path><path clip-path="url(#clip000)" d="M175.001 473.614 L163.195 492.063 L175.001 492.063 L175.001 473.614 M173.774 469.54 L179.653 469.54 L179.653 492.063 L184.584 492.063 L184.584 495.952 L179.653 495.952 L179.653 504.1 L175.001 504.1 L175.001 495.952 L159.399 495.952 L159.399 491.438 L173.774 469.54 Z" fill="#000000" fill-rule="nonzero" fill-opacity="1"></path><path clip-path="url(#clip000)" d="M48.1264 372.658 L77.8021 372.658 L77.8021 376.593 L48.1264 376.593 L48.1264 372.658 Z" fill="#000000" fill-rule="nonzero" fill-opacity="1"></path><path clip-path="url(#clip000)" d="M97.8946 358.005 Q94.2835 358.005 92.4548 361.57 Q90.6493 365.112 90.6493 372.241 Q90.6493 379.348 92.4548 382.913 Q94.2835 386.454 97.8946 386.454 Q101.529 386.454 103.334 382.913 Q105.163 379.348 105.163 372.241 Q105.163 365.112 103.334 361.57 Q101.529 358.005 97.8946 358.005 M97.8946 354.302 Q103.705 354.302 106.76 358.908 Q109.839 363.491 109.839 372.241 Q109.839 380.968 106.76 385.575 Q103.705 390.158 97.8946 390.158 Q92.0845 390.158 89.0058 385.575 Q85.9503 380.968 85.9503 372.241 Q85.9503 363.491 89.0058 358.908 Q92.0845 354.302 97.8946 354.302 Z" fill="#000000" fill-rule="nonzero" fill-opacity="1"></path><path clip-path="url(#clip000)" d="M118.057 383.607 L122.941 383.607 L122.941 389.487 L118.057 389.487 L118.057 383.607 Z" fill="#000000" fill-rule="nonzero" fill-opacity="1"></path><path clip-path="url(#clip000)" d="M143.126 358.005 Q139.515 358.005 137.686 361.57 Q135.881 365.112 135.881 372.241 Q135.881 379.348 137.686 382.913 Q139.515 386.454 143.126 386.454 Q146.76 386.454 148.566 382.913 Q150.394 379.348 150.394 372.241 Q150.394 365.112 148.566 361.57 Q146.76 358.005 143.126 358.005 M143.126 354.302 Q148.936 354.302 151.992 358.908 Q155.07 363.491 155.07 372.241 Q155.07 380.968 151.992 385.575 Q148.936 390.158 143.126 390.158 Q137.316 390.158 134.237 385.575 Q131.181 380.968 131.181 372.241 Q131.181 363.491 134.237 358.908 Q137.316 354.302 143.126 354.302 Z" fill="#000000" fill-rule="nonzero" fill-opacity="1"></path><path clip-path="url(#clip000)" d="M177.454 370.852 Q180.811 371.57 182.686 373.838 Q184.584 376.107 184.584 379.44 Q184.584 384.556 181.065 387.357 Q177.547 390.158 171.066 390.158 Q168.89 390.158 166.575 389.718 Q164.283 389.301 161.829 388.445 L161.829 383.931 Q163.774 385.065 166.089 385.644 Q168.404 386.223 170.927 386.223 Q175.325 386.223 177.616 384.487 Q179.931 382.75 179.931 379.44 Q179.931 376.385 177.778 374.672 Q175.649 372.936 171.829 372.936 L167.802 372.936 L167.802 369.093 L172.015 369.093 Q175.464 369.093 177.292 367.727 Q179.121 366.339 179.121 363.746 Q179.121 361.084 177.223 359.672 Q175.348 358.237 171.829 358.237 Q169.908 358.237 167.709 358.653 Q165.51 359.07 162.871 359.95 L162.871 355.783 Q165.533 355.042 167.848 354.672 Q170.186 354.302 172.246 354.302 Q177.57 354.302 180.672 356.732 Q183.774 359.139 183.774 363.26 Q183.774 366.13 182.13 368.121 Q180.487 370.089 177.454 370.852 Z" fill="#000000" fill-rule="nonzero" fill-opacity="1"></path><path clip-path="url(#clip000)" d="M49.0754 258.044 L78.7512 258.044 L78.7512 261.979 L49.0754 261.979 L49.0754 258.044 Z" fill="#000000" fill-rule="nonzero" fill-opacity="1"></path><path clip-path="url(#clip000)" d="M98.8437 243.391 Q95.2326 243.391 93.4039 246.956 Q91.5984 250.498 91.5984 257.628 Q91.5984 264.734 93.4039 268.299 Q95.2326 271.84 98.8437 271.84 Q102.478 271.84 104.283 268.299 Q106.112 264.734 106.112 257.628 Q106.112 250.498 104.283 246.956 Q102.478 243.391 98.8437 243.391 M98.8437 239.688 Q104.654 239.688 107.709 244.294 Q110.788 248.878 110.788 257.628 Q110.788 266.354 107.709 270.961 Q104.654 275.544 98.8437 275.544 Q93.0335 275.544 89.9549 270.961 Q86.8993 266.354 86.8993 257.628 Q86.8993 248.878 89.9549 244.294 Q93.0335 239.688 98.8437 239.688 Z" fill="#000000" fill-rule="nonzero" fill-opacity="1"></path><path clip-path="url(#clip000)" d="M119.006 268.993 L123.89 268.993 L123.89 274.873 L119.006 274.873 L119.006 268.993 Z" fill="#000000" fill-rule="nonzero" fill-opacity="1"></path><path clip-path="url(#clip000)" d="M144.075 243.391 Q140.464 243.391 138.635 246.956 Q136.83 250.498 136.83 257.628 Q136.83 264.734 138.635 268.299 Q140.464 271.84 144.075 271.84 Q147.709 271.84 149.515 268.299 Q151.343 264.734 151.343 257.628 Q151.343 250.498 149.515 246.956 Q147.709 243.391 144.075 243.391 M144.075 239.688 Q149.885 239.688 152.941 244.294 Q156.019 248.878 156.019 257.628 Q156.019 266.354 152.941 270.961 Q149.885 275.544 144.075 275.544 Q138.265 275.544 135.186 270.961 Q132.131 266.354 132.131 257.628 Q132.131 248.878 135.186 244.294 Q138.265 239.688 144.075 239.688 Z" fill="#000000" fill-rule="nonzero" fill-opacity="1"></path><path clip-path="url(#clip000)" d="M168.265 270.938 L184.584 270.938 L184.584 274.873 L162.64 274.873 L162.64 270.938 Q165.302 268.183 169.885 263.553 Q174.491 258.901 175.672 257.558 Q177.917 255.035 178.797 253.299 Q179.7 251.54 179.7 249.85 Q179.7 247.095 177.755 245.359 Q175.834 243.623 172.732 243.623 Q170.533 243.623 168.079 244.387 Q165.649 245.151 162.871 246.702 L162.871 241.979 Q165.695 240.845 168.149 240.266 Q170.603 239.688 172.64 239.688 Q178.01 239.688 181.204 242.373 Q184.399 245.058 184.399 249.549 Q184.399 251.678 183.589 253.6 Q182.802 255.498 180.695 258.09 Q180.116 258.762 177.015 261.979 Q173.913 265.174 168.265 270.938 Z" fill="#000000" fill-rule="nonzero" fill-opacity="1"></path><path clip-path="url(#clip000)" d="M48.7051 143.43 L78.3808 143.43 L78.3808 147.366 L48.7051 147.366 L48.7051 143.43 Z" fill="#000000" fill-rule="nonzero" fill-opacity="1"></path><path clip-path="url(#clip000)" d="M98.4733 128.778 Q94.8622 128.778 93.0335 132.342 Q91.228 135.884 91.228 143.014 Q91.228 150.12 93.0335 153.685 Q94.8622 157.227 98.4733 157.227 Q102.108 157.227 103.913 153.685 Q105.742 150.12 105.742 143.014 Q105.742 135.884 103.913 132.342 Q102.108 128.778 98.4733 128.778 M98.4733 125.074 Q104.283 125.074 107.339 129.68 Q110.418 134.264 110.418 143.014 Q110.418 151.741 107.339 156.347 Q104.283 160.93 98.4733 160.93 Q92.6632 160.93 89.5845 156.347 Q86.529 151.741 86.529 143.014 Q86.529 134.264 89.5845 129.68 Q92.6632 125.074 98.4733 125.074 Z" fill="#000000" fill-rule="nonzero" fill-opacity="1"></path><path clip-path="url(#clip000)" d="M118.635 154.379 L123.519 154.379 L123.519 160.259 L118.635 160.259 L118.635 154.379 Z" fill="#000000" fill-rule="nonzero" fill-opacity="1"></path><path clip-path="url(#clip000)" d="M143.705 128.778 Q140.093 128.778 138.265 132.342 Q136.459 135.884 136.459 143.014 Q136.459 150.12 138.265 153.685 Q140.093 157.227 143.705 157.227 Q147.339 157.227 149.144 153.685 Q150.973 150.12 150.973 143.014 Q150.973 135.884 149.144 132.342 Q147.339 128.778 143.705 128.778 M143.705 125.074 Q149.515 125.074 152.57 129.68 Q155.649 134.264 155.649 143.014 Q155.649 151.741 152.57 156.347 Q149.515 160.93 143.705 160.93 Q137.894 160.93 134.816 156.347 Q131.76 151.741 131.76 143.014 Q131.76 134.264 134.816 129.68 Q137.894 125.074 143.705 125.074 Z" fill="#000000" fill-rule="nonzero" fill-opacity="1"></path><path clip-path="url(#clip000)" d="M164.677 156.324 L172.316 156.324 L172.316 129.958 L164.005 131.625 L164.005 127.366 L172.269 125.699 L176.945 125.699 L176.945 156.324 L184.584 156.324 L184.584 160.259 L164.677 160.259 L164.677 156.324 Z" fill="#000000" fill-rule="nonzero" fill-opacity="1"></path><path clip-path="url(#clip000)" d="M1493.73 14.0809 L1493.73 22.0612 Q1489.07 19.8332 1484.94 18.7395 Q1480.81 17.6457 1476.96 17.6457 Q1470.28 17.6457 1466.63 20.2383 Q1463.02 22.8309 1463.02 27.611 Q1463.02 31.6214 1465.41 33.6873 Q1467.84 35.7128 1474.57 36.9686 L1479.51 37.9813 Q1488.67 39.7232 1493 44.1387 Q1497.38 48.5136 1497.38 55.8863 Q1497.38 64.6767 1491.46 69.2137 Q1485.59 73.7508 1474.2 73.7508 Q1469.91 73.7508 1465.05 72.7785 Q1460.23 71.8063 1455.04 69.9024 L1455.04 61.4765 Q1460.03 64.2716 1464.81 65.6895 Q1469.59 67.1073 1474.2 67.1073 Q1481.21 67.1073 1485.02 64.3527 Q1488.83 61.598 1488.83 56.4939 Q1488.83 52.0379 1486.07 49.5264 Q1483.36 47.0148 1477.12 45.759 L1472.14 44.7868 Q1462.98 42.9639 1458.89 39.075 Q1454.8 35.1862 1454.8 28.2591 Q1454.8 20.2383 1460.43 15.6203 Q1466.1 11.0023 1476.03 11.0023 Q1480.28 11.0023 1484.7 11.7719 Q1489.11 12.5416 1493.73 14.0809 Z" fill="#000000" fill-rule="nonzero" fill-opacity="1"></path><path clip-path="url(#clip000)" d="M1537.16 34.9026 L1589.09 34.9026 L1589.09 41.7081 L1537.16 41.7081 L1537.16 34.9026 M1537.16 51.4303 L1589.09 51.4303 L1589.09 58.3168 L1537.16 58.3168 L1537.16 51.4303 Z" fill="#000000" fill-rule="nonzero" fill-opacity="1"></path><path clip-path="url(#clip000)" d="M1666.66 80.2727 L1666.66 86.106 L1664.15 86.106 Q1654.06 86.106 1650.62 83.1084 Q1647.22 80.1107 1647.22 71.1582 L1647.22 61.4765 Q1647.22 55.3597 1645.03 53.0101 Q1642.84 50.6606 1637.09 50.6606 L1634.62 50.6606 L1634.62 44.8678 L1637.09 44.8678 Q1642.88 44.8678 1645.03 42.5588 Q1647.22 40.2093 1647.22 34.1734 L1647.22 24.4513 Q1647.22 15.4988 1650.62 12.5416 Q1654.06 9.54393 1664.15 9.54393 L1666.66 9.54393 L1666.66 15.3367 L1663.91 15.3367 Q1658.2 15.3367 1656.45 17.1191 Q1654.71 18.9015 1654.71 24.6133 L1654.71 34.6595 Q1654.71 41.0195 1652.85 43.8956 Q1651.03 46.7717 1646.57 47.7845 Q1651.07 48.8782 1652.89 51.7544 Q1654.71 54.6305 1654.71 60.9499 L1654.71 70.9961 Q1654.71 76.7079 1656.45 78.4903 Q1658.2 80.2727 1663.91 80.2727 L1666.66 80.2727 Z" fill="#000000" fill-rule="nonzero" fill-opacity="1"></path><path clip-path="url(#clip000)" d="M1687.32 65.6895 L1700.69 65.6895 L1700.69 19.5497 L1686.15 22.4663 L1686.15 15.0127 L1700.61 12.096 L1708.79 12.096 L1708.79 65.6895 L1722.16 65.6895 L1722.16 72.576 L1687.32 72.576 L1687.32 65.6895 Z" fill="#000000" fill-rule="nonzero" fill-opacity="1"></path><path clip-path="url(#clip000)" d="M1739.54 62.2867 L1748.09 62.2867 L1748.09 69.2543 L1741.44 82.2172 L1736.22 82.2172 L1739.54 69.2543 L1739.54 62.2867 Z" fill="#000000" fill-rule="nonzero" fill-opacity="1"></path><path clip-path="url(#clip000)" d="M1798.48 65.6895 L1827.04 65.6895 L1827.04 72.576 L1788.64 72.576 L1788.64 65.6895 Q1793.29 60.8689 1801.32 52.7671 Q1809.38 44.6248 1811.44 42.2752 Q1815.37 37.8598 1816.91 34.8216 Q1818.49 31.7429 1818.49 28.7857 Q1818.49 23.9651 1815.09 20.927 Q1811.73 17.8888 1806.3 17.8888 Q1802.45 17.8888 1798.16 19.2256 Q1793.9 20.5624 1789.04 23.2765 L1789.04 15.0127 Q1793.98 13.0277 1798.28 12.015 Q1802.57 11.0023 1806.14 11.0023 Q1815.53 11.0023 1821.12 15.7013 Q1826.71 20.4004 1826.71 28.2591 Q1826.71 31.9859 1825.3 35.3482 Q1823.92 38.6699 1820.23 43.2069 Q1819.22 44.3817 1813.79 50.0125 Q1808.36 55.6027 1798.48 65.6895 Z" fill="#000000" fill-rule="nonzero" fill-opacity="1"></path><path clip-path="url(#clip000)" d="M1861.71 17.4837 Q1855.39 17.4837 1852.19 23.7221 Q1849.03 29.92 1849.03 42.3968 Q1849.03 54.833 1852.19 61.0714 Q1855.39 67.2693 1861.71 67.2693 Q1868.07 67.2693 1871.23 61.0714 Q1874.43 54.833 1874.43 42.3968 Q1874.43 29.92 1871.23 23.7221 Q1868.07 17.4837 1861.71 17.4837 M1861.71 11.0023 Q1871.88 11.0023 1877.23 19.0636 Q1882.62 27.0843 1882.62 42.3968 Q1882.62 57.6687 1877.23 65.73 Q1871.88 73.7508 1861.71 73.7508 Q1851.55 73.7508 1846.16 65.73 Q1840.81 57.6687 1840.81 42.3968 Q1840.81 27.0843 1846.16 19.0636 Q1851.55 11.0023 1861.71 11.0023 Z" fill="#000000" fill-rule="nonzero" fill-opacity="1"></path><path clip-path="url(#clip000)" d="M1898.5 80.2727 L1901.33 80.2727 Q1907 80.2727 1908.7 78.5308 Q1910.45 76.7889 1910.45 70.9961 L1910.45 60.9499 Q1910.45 54.6305 1912.27 51.7544 Q1914.09 48.8782 1918.59 47.7845 Q1914.09 46.7717 1912.27 43.8956 Q1910.45 41.0195 1910.45 34.6595 L1910.45 24.6133 Q1910.45 18.861 1908.7 17.1191 Q1907 15.3367 1901.33 15.3367 L1898.5 15.3367 L1898.5 9.54393 L1901.05 9.54393 Q1911.14 9.54393 1914.5 12.5416 Q1917.9 15.4988 1917.9 24.4513 L1917.9 34.1734 Q1917.9 40.2093 1920.09 42.5588 Q1922.28 44.8678 1928.03 44.8678 L1930.54 44.8678 L1930.54 50.6606 L1928.03 50.6606 Q1922.28 50.6606 1920.09 53.0101 Q1917.9 55.3597 1917.9 61.4765 L1917.9 71.1582 Q1917.9 80.1107 1914.5 83.1084 Q1911.14 86.106 1901.05 86.106 L1898.5 86.106 L1898.5 80.2727 Z" fill="#000000" fill-rule="nonzero" fill-opacity="1"></path><polyline clip-path="url(#clip002)" style="stroke:#009af9; stroke-linecap:round; stroke-linejoin:round; stroke-width:8.8; stroke-opacity:1; fill:none" points="315.23,565.617 927.426,610.982 1845.72,507.508 2457.91,244.637 3070.11,403.163 "></polyline>
<polyline clip-path="url(#clip002)" style="stroke:#e26f46; stroke-linecap:round; stroke-linejoin:round; stroke-width:8.8; stroke-opacity:1; fill:none" points="315.23,767.087 927.426,740.452 1845.72,359.202 2457.91,297.555 3070.11,144.471 "></polyline>
<polyline clip-path="url(#clip002)" style="stroke:#3da44d; stroke-linecap:round; stroke-linejoin:round; stroke-width:8.8; stroke-opacity:1; fill:none" points="315.23,196.257 927.426,400.592 1845.72,370.61 2457.91,382.683 3070.11,262.614 "></polyline>
<polyline clip-path="url(#clip002)" style="stroke:#c271d2; stroke-linecap:round; stroke-linejoin:round; stroke-width:8.8; stroke-opacity:1; fill:none" points="315.23,-122.737 927.426,371.462 1845.72,366.332 2457.91,330.341 3070.11,196.922 "></polyline>
<polyline clip-path="url(#clip002)" style="stroke:#000000; stroke-linecap:round; stroke-linejoin:round; stroke-width:4; stroke-opacity:1; fill:none" stroke-dasharray="16, 10" points="-2687.59,342.992 6072.93,342.992 "></polyline>
</svg>