<svg xmlns="http://www.w3.org/2000/svg" xmlns:xlink="http://www.w3.org/1999/xlink" width="800" height="200" viewBox="0 0 3200 800">
<defs>
  <clipPath id="clip680">
    <rect x="0" y="0" width="3200" height="800"></rect>
  </clipPath>
</defs>
<path clip-path="url(#clip680)" d="M0 800 L3200 800 L3200 0 L0 0  Z" fill="#ffffff" fill-rule="evenodd" fill-opacity="1"></path>
<defs>
  <clipPath id="clip681">
    <rect x="640" y="0" width="2241" height="800"></rect>
  </clipPath>
</defs>
<path clip-path="url(#clip680)" d="M232.584 716.048 L3152.76 716.048 L3152.76 85.6721 L232.584 85.6721  Z" fill="#ffffff" fill-rule="evenodd" fill-opacity="1"></path>
<defs>
  <clipPath id="clip682">
    <rect x="232" y="85" width="2921" height="631"></rect>
  </clipPath>
</defs>
<polyline clip-path="url(#clip682)" style="stroke:#000000; stroke-linecap:round; stroke-linejoin:round; stroke-width:2; stroke-opacity:0.1; fill:none" points="315.23,716.048 315.23,85.6721 "></polyline>
<polyline clip-path="url(#clip682)" style="stroke:#000000; stroke-linecap:round; stroke-linejoin:round; stroke-width:2; stroke-opacity:0.1; fill:none" points="1080.47,716.048 1080.47,85.6721 "></polyline>
<polyline clip-path="url(#clip682)" style="stroke:#000000; stroke-linecap:round; stroke-linejoin:round; stroke-width:2; stroke-opacity:0.1; fill:none" points="1845.72,716.048 1845.72,85.6721 "></polyline>
<polyline clip-path="url(#clip682)" style="stroke:#000000; stroke-linecap:round; stroke-linejoin:round; stroke-width:2; stroke-opacity:0.1; fill:none" points="2610.96,716.048 2610.96,85.6721 "></polyline>
<polyline clip-path="url(#clip682)" style="stroke:#000000; stroke-linecap:round; stroke-linejoin:round; stroke-width:2; stroke-opacity:0.1; fill:none" points="232.584,589.973 3152.76,589.973 "></polyline>
<polyline clip-path="url(#clip682)" style="stroke:#000000; stroke-linecap:round; stroke-linejoin:round; stroke-width:2; stroke-opacity:0.1; fill:none" points="232.584,463.898 3152.76,463.898 "></polyline>
<polyline clip-path="url(#clip682)" style="stroke:#000000; stroke-linecap:round; stroke-linejoin:round; stroke-width:2; stroke-opacity:0.1; fill:none" points="232.584,337.822 3152.76,337.822 "></polyline>
<polyline clip-path="url(#clip682)" style="stroke:#000000; stroke-linecap:round; stroke-linejoin:round; stroke-width:2; stroke-opacity:0.1; fill:none" points="232.584,211.747 3152.76,211.747 "></polyline>
<polyline clip-path="url(#clip682)" style="stroke:#000000; stroke-linecap:round; stroke-linejoin:round; stroke-width:2; stroke-opacity:0.1; fill:none" points="232.584,85.6721 3152.76,85.6721 "></polyline>
<polyline clip-path="url(#clip680)" style="stroke:#000000; stroke-linecap:round; stroke-linejoin:round; stroke-width:4; stroke-opacity:1; fill:none" points="232.584,716.048 3152.76,716.048 "></polyline>
<polyline clip-path="url(#clip680)" style="stroke:#000000; stroke-linecap:round; stroke-linejoin:round; stroke-width:4; stroke-opacity:1; fill:none" points="315.23,716.048 315.23,697.15 "></polyline>
<polyline clip-path="url(#clip680)" style="stroke:#000000; stroke-linecap:round; stroke-linejoin:round; stroke-width:4; stroke-opacity:1; fill:none" points="1080.47,716.048 1080.47,697.15 "></polyline>
<polyline clip-path="url(#clip680)" style="stroke:#000000; stroke-linecap:round; stroke-linejoin:round; stroke-width:4; stroke-opacity:1; fill:none" points="1845.72,716.048 1845.72,697.15 "></polyline>
<polyline clip-path="url(#clip680)" style="stroke:#000000; stroke-linecap:round; stroke-linejoin:round; stroke-width:4; stroke-opacity:1; fill:none" points="2610.96,716.048 2610.96,697.15 "></polyline>
<path clip-path="url(#clip680)" d="M305.508 750.288 L323.865 750.288 L323.865 754.223 L309.791 754.223 L309.791 762.695 Q310.809 762.348 311.828 762.186 Q312.846 762.001 313.865 762.001 Q319.652 762.001 323.031 765.172 Q326.411 768.343 326.411 773.76 Q326.411 779.339 322.939 782.44 Q319.466 785.519 313.147 785.519 Q310.971 785.519 308.703 785.149 Q306.457 784.778 304.05 784.038 L304.05 779.339 Q306.133 780.473 308.355 781.028 Q310.578 781.584 313.054 781.584 Q317.059 781.584 319.397 779.478 Q321.735 777.371 321.735 773.76 Q321.735 770.149 319.397 768.042 Q317.059 765.936 313.054 765.936 Q311.179 765.936 309.304 766.353 Q307.453 766.769 305.508 767.649 L305.508 750.288 Z" fill="#000000" fill-rule="nonzero" fill-opacity="1"></path><path clip-path="url(#clip680)" d="M1055.16 780.913 L1062.8 780.913 L1062.8 754.547 L1054.49 756.214 L1054.49 751.955 L1062.75 750.288 L1067.43 750.288 L1067.43 780.913 L1075.07 780.913 L1075.07 784.848 L1055.16 784.848 L1055.16 780.913 Z" fill="#000000" fill-rule="nonzero" fill-opacity="1"></path><path clip-path="url(#clip680)" d="M1094.51 753.367 Q1090.9 753.367 1089.07 756.931 Q1087.27 760.473 1087.27 767.603 Q1087.27 774.709 1089.07 778.274 Q1090.9 781.815 1094.51 781.815 Q1098.15 781.815 1099.95 778.274 Q1101.78 774.709 1101.78 767.603 Q1101.78 760.473 1099.95 756.931 Q1098.15 753.367 1094.51 753.367 M1094.51 749.663 Q1100.32 749.663 1103.38 754.269 Q1106.46 758.853 1106.46 767.603 Q1106.46 776.329 1103.38 780.936 Q1100.32 785.519 1094.51 785.519 Q1088.7 785.519 1085.63 780.936 Q1082.57 776.329 1082.57 767.603 Q1082.57 758.853 1085.63 754.269 Q1088.7 749.663 1094.51 749.663 Z" fill="#000000" fill-rule="nonzero" fill-opacity="1"></path><path clip-path="url(#clip680)" d="M1820.9 780.913 L1828.54 780.913 L1828.54 754.547 L1820.23 756.214 L1820.23 751.955 L1828.5 750.288 L1833.17 750.288 L1833.17 780.913 L1840.81 780.913 L1840.81 784.848 L1820.9 784.848 L1820.9 780.913 Z" fill="#000000" fill-rule="nonzero" fill-opacity="1"></path><path clip-path="url(#clip680)" d="M1850.3 750.288 L1868.66 750.288 L1868.66 754.223 L1854.58 754.223 L1854.58 762.695 Q1855.6 762.348 1856.62 762.186 Q1857.64 762.001 1858.66 762.001 Q1864.45 762.001 1867.83 765.172 Q1871.2 768.343 1871.2 773.76 Q1871.2 779.339 1867.73 782.44 Q1864.26 785.519 1857.94 785.519 Q1855.77 785.519 1853.5 785.149 Q1851.25 784.778 1848.84 784.038 L1848.84 779.339 Q1850.93 780.473 1853.15 781.028 Q1855.37 781.584 1857.85 781.584 Q1861.85 781.584 1864.19 779.478 Q1866.53 777.371 1866.53 773.76 Q1866.53 770.149 1864.19 768.042 Q1861.85 765.936 1857.85 765.936 Q1855.97 765.936 1854.1 766.353 Q1852.25 766.769 1850.3 767.649 L1850.3 750.288 Z" fill="#000000" fill-rule="nonzero" fill-opacity="1"></path><path clip-path="url(#clip680)" d="M2589.74 780.913 L2606.06 780.913 L2606.06 784.848 L2584.11 784.848 L2584.11 780.913 Q2586.77 778.158 2591.36 773.528 Q2595.96 768.876 2597.14 767.533 Q2599.39 765.01 2600.27 763.274 Q2601.17 761.515 2601.17 759.825 Q2601.17 757.07 2599.23 755.334 Q2597.31 753.598 2594.2 753.598 Q2592 753.598 2589.55 754.362 Q2587.12 755.126 2584.34 756.677 L2584.34 751.955 Q2587.17 750.82 2589.62 750.242 Q2592.07 749.663 2594.11 749.663 Q2599.48 749.663 2602.68 752.348 Q2605.87 755.033 2605.87 759.524 Q2605.87 761.654 2605.06 763.575 Q2604.27 765.473 2602.17 768.066 Q2601.59 768.737 2598.49 771.954 Q2595.38 775.149 2589.74 780.913 Z" fill="#000000" fill-rule="nonzero" fill-opacity="1"></path><path clip-path="url(#clip680)" d="M2625.87 753.367 Q2622.26 753.367 2620.43 756.931 Q2618.62 760.473 2618.62 767.603 Q2618.62 774.709 2620.43 778.274 Q2622.26 781.815 2625.87 781.815 Q2629.5 781.815 2631.31 778.274 Q2633.14 774.709 2633.14 767.603 Q2633.14 760.473 2631.31 756.931 Q2629.5 753.367 2625.87 753.367 M2625.87 749.663 Q2631.68 749.663 2634.74 754.269 Q2637.81 758.853 2637.81 767.603 Q2637.81 776.329 2634.74 780.936 Q2631.68 785.519 2625.87 785.519 Q2620.06 785.519 2616.98 780.936 Q2613.93 776.329 2613.93 767.603 Q2613.93 758.853 2616.98 754.269 Q2620.06 749.663 2625.87 749.663 Z" fill="#000000" fill-rule="nonzero" fill-opacity="1"></path><polyline clip-path="url(#clip680)" style="stroke:#000000; stroke-linecap:round; stroke-linejoin:round; stroke-width:4; stroke-opacity:1; fill:none" points="232.584,716.048 232.584,85.6721 "></polyline>
<polyline clip-path="url(#clip680)" style="stroke:#000000; stroke-linecap:round; stroke-linejoin:round; stroke-width:4; stroke-opacity:1; fill:none" points="232.584,589.973 251.482,589.973 "></polyline>
<polyline clip-path="url(#clip680)" style="stroke:#000000; stroke-linecap:round; stroke-linejoin:round; stroke-width:4; stroke-opacity:1; fill:none" points="232.584,463.898 251.482,463.898 "></polyline>
<polyline clip-path="url(#clip680)" style="stroke:#000000; stroke-linecap:round; stroke-linejoin:round; stroke-width:4; stroke-opacity:1; fill:none" points="232.584,337.822 251.482,337.822 "></polyline>
<polyline clip-path="url(#clip680)" style="stroke:#000000; stroke-linecap:round; stroke-linejoin:round; stroke-width:4; stroke-opacity:1; fill:none" points="232.584,211.747 251.482,211.747 "></polyline>
<polyline clip-path="url(#clip680)" style="stroke:#000000; stroke-linecap:round; stroke-linejoin:round; stroke-width:4; stroke-opacity:1; fill:none" points="232.584,85.6721 251.482,85.6721 "></polyline>
<path clip-path="url(#clip680)" d="M48.4736 590.424 L78.1494 590.424 L78.1494 594.359 L48.4736 594.359 L48.4736 590.424 Z" fill="#000000" fill-rule="nonzero" fill-opacity="1"></path><path clip-path="url(#clip680)" d="M98.2419 575.771 Q94.6308 575.771 92.8021 579.336 Q90.9965 582.878 90.9965 590.007 Q90.9965 597.114 92.8021 600.679 Q94.6308 604.22 98.2419 604.22 Q101.876 604.22 103.682 600.679 Q105.51 597.114 105.51 590.007 Q105.51 582.878 103.682 579.336 Q101.876 575.771 98.2419 575.771 M98.2419 572.068 Q104.052 572.068 107.108 576.674 Q110.186 581.257 110.186 590.007 Q110.186 598.734 107.108 603.341 Q104.052 607.924 98.2419 607.924 Q92.4317 607.924 89.353 603.341 Q86.2975 598.734 86.2975 590.007 Q86.2975 581.257 89.353 576.674 Q92.4317 572.068 98.2419 572.068 Z" fill="#000000" fill-rule="nonzero" fill-opacity="1"></path><path clip-path="url(#clip680)" d="M118.404 601.373 L123.288 601.373 L123.288 607.253 L118.404 607.253 L118.404 601.373 Z" fill="#000000" fill-rule="nonzero" fill-opacity="1"></path><path clip-path="url(#clip680)" d="M143.473 575.771 Q139.862 575.771 138.033 579.336 Q136.228 582.878 136.228 590.007 Q136.228 597.114 138.033 600.679 Q139.862 604.22 143.473 604.22 Q147.107 604.22 148.913 600.679 Q150.742 597.114 150.742 590.007 Q150.742 582.878 148.913 579.336 Q147.107 575.771 143.473 575.771 M143.473 572.068 Q149.283 572.068 152.339 576.674 Q155.417 581.257 155.417 590.007 Q155.417 598.734 152.339 603.341 Q149.283 607.924 143.473 607.924 Q137.663 607.924 134.584 603.341 Q131.529 598.734 131.529 590.007 Q131.529 581.257 134.584 576.674 Q137.663 572.068 143.473 572.068 Z" fill="#000000" fill-rule="nonzero" fill-opacity="1"></path><path clip-path="url(#clip680)" d="M163.681 572.693 L182.038 572.693 L182.038 576.628 L167.964 576.628 L167.964 585.1 Q168.982 584.753 170.001 584.591 Q171.019 584.406 172.038 584.406 Q177.825 584.406 181.204 587.577 Q184.584 590.748 184.584 596.165 Q184.584 601.743 181.112 604.845 Q177.64 607.924 171.32 607.924 Q169.144 607.924 166.876 607.554 Q164.63 607.183 162.223 606.443 L162.223 601.743 Q164.306 602.878 166.529 603.433 Q168.751 603.989 171.228 603.989 Q175.232 603.989 177.57 601.882 Q179.908 599.776 179.908 596.165 Q179.908 592.554 177.57 590.447 Q175.232 588.341 171.228 588.341 Q169.353 588.341 167.478 588.757 Q165.626 589.174 163.681 590.054 L163.681 572.693 Z" fill="#000000" fill-rule="nonzero" fill-opacity="1"></path><path clip-path="url(#clip680)" d="M46.9921 464.349 L76.6679 464.349 L76.6679 468.284 L46.9921 468.284 L46.9921 464.349 Z" fill="#000000" fill-rule="nonzero" fill-opacity="1"></path><path clip-path="url(#clip680)" d="M96.7604 449.696 Q93.1493 449.696 91.3206 453.261 Q89.515 456.803 89.515 463.932 Q89.515 471.039 91.3206 474.604 Q93.1493 478.145 96.7604 478.145 Q100.395 478.145 102.2 474.604 Q104.029 471.039 104.029 463.932 Q104.029 456.803 102.2 453.261 Q100.395 449.696 96.7604 449.696 M96.7604 445.993 Q102.571 445.993 105.626 450.599 Q108.705 455.182 108.705 463.932 Q108.705 472.659 105.626 477.266 Q102.571 481.849 96.7604 481.849 Q90.9502 481.849 87.8715 477.266 Q84.816 472.659 84.816 463.932 Q84.816 455.182 87.8715 450.599 Q90.9502 445.993 96.7604 445.993 Z" fill="#000000" fill-rule="nonzero" fill-opacity="1"></path><path clip-path="url(#clip680)" d="M116.922 475.298 L121.807 475.298 L121.807 481.178 L116.922 481.178 L116.922 475.298 Z" fill="#000000" fill-rule="nonzero" fill-opacity="1"></path><path clip-path="url(#clip680)" d="M141.992 449.696 Q138.381 449.696 136.552 453.261 Q134.746 456.803 134.746 463.932 Q134.746 471.039 136.552 474.604 Q138.381 478.145 141.992 478.145 Q145.626 478.145 147.431 474.604 Q149.26 471.039 149.26 463.932 Q149.26 456.803 147.431 453.261 Q145.626 449.696 141.992 449.696 M141.992 445.993 Q147.802 445.993 150.857 450.599 Q153.936 455.182 153.936 463.932 Q153.936 472.659 150.857 477.266 Q147.802 481.849 141.992 481.849 Q136.181 481.849 133.103 477.266 Q130.047 472.659 130.047 463.932 Q130.047 455.182 133.103 450.599 Q136.181 445.993 141.992 445.993 Z" fill="#000000" fill-rule="nonzero" fill-opacity="1"></path><path clip-path="url(#clip680)" d="M175.001 450.692 L163.195 469.141 L175.001 469.141 L175.001 450.692 M173.774 446.618 L179.653 446.618 L179.653 469.141 L184.584 469.141 L184.584 473.029 L179.653 473.029 L179.653 481.178 L175.001 481.178 L175.001 473.029 L159.399 473.029 L159.399 468.516 L173.774 446.618 Z" fill="#000000" fill-rule="nonzero" fill-opacity="1"></path><path clip-path="url(#clip680)" d="M48.1264 338.274 L77.8021 338.274 L77.8021 342.209 L48.1264 342.209 L48.1264 338.274 Z" fill="#000000" fill-rule="nonzero" fill-opacity="1"></path><path clip-path="url(#clip680)" d="M97.8946 323.621 Q94.2835 323.621 92.4548 327.186 Q90.6493 330.728 90.6493 337.857 Q90.6493 344.964 92.4548 348.528 Q94.2835 352.07 97.8946 352.07 Q101.529 352.07 103.334 348.528 Q105.163 344.964 105.163 337.857 Q105.163 330.728 103.334 327.186 Q101.529 323.621 97.8946 323.621 M97.8946 319.917 Q103.705 319.917 106.76 324.524 Q109.839 329.107 109.839 337.857 Q109.839 346.584 106.76 351.19 Q103.705 355.774 97.8946 355.774 Q92.0845 355.774 89.0058 351.19 Q85.9503 346.584 85.9503 337.857 Q85.9503 329.107 89.0058 324.524 Q92.0845 319.917 97.8946 319.917 Z" fill="#000000" fill-rule="nonzero" fill-opacity="1"></path><path clip-path="url(#clip680)" d="M118.057 349.223 L122.941 349.223 L122.941 355.102 L118.057 355.102 L118.057 349.223 Z" fill="#000000" fill-rule="nonzero" fill-opacity="1"></path><path clip-path="url(#clip680)" d="M143.126 323.621 Q139.515 323.621 137.686 327.186 Q135.881 330.728 135.881 337.857 Q135.881 344.964 137.686 348.528 Q139.515 352.07 143.126 352.07 Q146.76 352.07 148.566 348.528 Q150.394 344.964 150.394 337.857 Q150.394 330.728 148.566 327.186 Q146.76 323.621 143.126 323.621 M143.126 319.917 Q148.936 319.917 151.992 324.524 Q155.07 329.107 155.07 337.857 Q155.07 346.584 151.992 351.19 Q148.936 355.774 143.126 355.774 Q137.316 355.774 134.237 351.19 Q131.181 346.584 131.181 337.857 Q131.181 329.107 134.237 324.524 Q137.316 319.917 143.126 319.917 Z" fill="#000000" fill-rule="nonzero" fill-opacity="1"></path><path clip-path="url(#clip680)" d="M177.454 336.468 Q180.811 337.186 182.686 339.454 Q184.584 341.723 184.584 345.056 Q184.584 350.172 181.065 352.973 Q177.547 355.774 171.066 355.774 Q168.89 355.774 166.575 355.334 Q164.283 354.917 161.829 354.061 L161.829 349.547 Q163.774 350.681 166.089 351.26 Q168.404 351.839 170.927 351.839 Q175.325 351.839 177.616 350.102 Q179.931 348.366 179.931 345.056 Q179.931 342.001 177.778 340.288 Q175.649 338.552 171.829 338.552 L167.802 338.552 L167.802 334.709 L172.015 334.709 Q175.464 334.709 177.292 333.343 Q179.121 331.954 179.121 329.362 Q179.121 326.7 177.223 325.288 Q175.348 323.853 171.829 323.853 Q169.908 323.853 167.709 324.269 Q165.51 324.686 162.871 325.566 L162.871 321.399 Q165.533 320.658 167.848 320.288 Q170.186 319.917 172.246 319.917 Q177.57 319.917 180.672 322.348 Q183.774 324.755 183.774 328.876 Q183.774 331.746 182.13 333.737 Q180.487 335.704 177.454 336.468 Z" fill="#000000" fill-rule="nonzero" fill-opacity="1"></path><path clip-path="url(#clip680)" d="M49.0754 212.199 L78.7512 212.199 L78.7512 216.134 L49.0754 216.134 L49.0754 212.199 Z" fill="#000000" fill-rule="nonzero" fill-opacity="1"></path><path clip-path="url(#clip680)" d="M98.8437 197.546 Q95.2326 197.546 93.4039 201.111 Q91.5984 204.652 91.5984 211.782 Q91.5984 218.888 93.4039 222.453 Q95.2326 225.995 98.8437 225.995 Q102.478 225.995 104.283 222.453 Q106.112 218.888 106.112 211.782 Q106.112 204.652 104.283 201.111 Q102.478 197.546 98.8437 197.546 M98.8437 193.842 Q104.654 193.842 107.709 198.449 Q110.788 203.032 110.788 211.782 Q110.788 220.509 107.709 225.115 Q104.654 229.699 98.8437 229.699 Q93.0335 229.699 89.9549 225.115 Q86.8993 220.509 86.8993 211.782 Q86.8993 203.032 89.9549 198.449 Q93.0335 193.842 98.8437 193.842 Z" fill="#000000" fill-rule="nonzero" fill-opacity="1"></path><path clip-path="url(#clip680)" d="M119.006 223.148 L123.89 223.148 L123.89 229.027 L119.006 229.027 L119.006 223.148 Z" fill="#000000" fill-rule="nonzero" fill-opacity="1"></path><path clip-path="url(#clip680)" d="M144.075 197.546 Q140.464 197.546 138.635 201.111 Q136.83 204.652 136.83 211.782 Q136.83 218.888 138.635 222.453 Q140.464 225.995 144.075 225.995 Q147.709 225.995 149.515 222.453 Q151.343 218.888 151.343 211.782 Q151.343 204.652 149.515 201.111 Q147.709 197.546 144.075 197.546 M144.075 193.842 Q149.885 193.842 152.941 198.449 Q156.019 203.032 156.019 211.782 Q156.019 220.509 152.941 225.115 Q149.885 229.699 144.075 229.699 Q138.265 229.699 135.186 225.115 Q132.131 220.509 132.131 211.782 Q132.131 203.032 135.186 198.449 Q138.265 193.842 144.075 193.842 Z" fill="#000000" fill-rule="nonzero" fill-opacity="1"></path><path clip-path="url(#clip680)" d="M168.265 225.092 L184.584 225.092 L184.584 229.027 L162.64 229.027 L162.64 225.092 Q165.302 222.337 169.885 217.708 Q174.491 213.055 175.672 211.713 Q177.917 209.189 178.797 207.453 Q179.7 205.694 179.7 204.004 Q179.7 201.25 177.755 199.514 Q175.834 197.777 172.732 197.777 Q170.533 197.777 168.079 198.541 Q165.649 199.305 162.871 200.856 L162.871 196.134 Q165.695 195 168.149 194.421 Q170.603 193.842 172.64 193.842 Q178.01 193.842 181.204 196.527 Q184.399 199.213 184.399 203.703 Q184.399 205.833 183.589 207.754 Q182.802 209.652 180.695 212.245 Q180.116 212.916 177.015 216.134 Q173.913 219.328 168.265 225.092 Z" fill="#000000" fill-rule="nonzero" fill-opacity="1"></path><path clip-path="url(#clip680)" d="M48.7051 86.1235 L78.3808 86.1235 L78.3808 90.0587 L48.7051 90.0587 L48.7051 86.1235 Z" fill="#000000" fill-rule="nonzero" fill-opacity="1"></path><path clip-path="url(#clip680)" d="M98.4733 71.4708 Q94.8622 71.4708 93.0335 75.0356 Q91.228 78.5773 91.228 85.7068 Q91.228 92.8133 93.0335 96.3781 Q94.8622 99.9197 98.4733 99.9197 Q102.108 99.9197 103.913 96.3781 Q105.742 92.8133 105.742 85.7068 Q105.742 78.5773 103.913 75.0356 Q102.108 71.4708 98.4733 71.4708 M98.4733 67.7671 Q104.283 67.7671 107.339 72.3736 Q110.418 76.9569 110.418 85.7068 Q110.418 94.4337 107.339 99.0401 Q104.283 103.623 98.4733 103.623 Q92.6632 103.623 89.5845 99.0401 Q86.529 94.4337 86.529 85.7068 Q86.529 76.9569 89.5845 72.3736 Q92.6632 67.7671 98.4733 67.7671 Z" fill="#000000" fill-rule="nonzero" fill-opacity="1"></path><path clip-path="url(#clip680)" d="M118.635 97.0725 L123.519 97.0725 L123.519 102.952 L118.635 102.952 L118.635 97.0725 Z" fill="#000000" fill-rule="nonzero" fill-opacity="1"></path><path clip-path="url(#clip680)" d="M143.705 71.4708 Q140.093 71.4708 138.265 75.0356 Q136.459 78.5773 136.459 85.7068 Q136.459 92.8133 138.265 96.3781 Q140.093 99.9197 143.705 99.9197 Q147.339 99.9197 149.144 96.3781 Q150.973 92.8133 150.973 85.7068 Q150.973 78.5773 149.144 75.0356 Q147.339 71.4708 143.705 71.4708 M143.705 67.7671 Q149.515 67.7671 152.57 72.3736 Q155.649 76.9569 155.649 85.7068 Q155.649 94.4337 152.57 99.0401 Q149.515 103.623 143.705 103.623 Q137.894 103.623 134.816 99.0401 Q131.76 94.4337 131.76 85.7068 Q131.76 76.9569 134.816 72.3736 Q137.894 67.7671 143.705 67.7671 Z" fill="#000000" fill-rule="nonzero" fill-opacity="1"></path><path clip-path="url(#clip680)" d="M164.677 99.017 L172.316 99.017 L172.316 72.6514 L164.005 74.318 L164.005 70.0588 L172.269 68.3921 L176.945 68.3921 L176.945 99.017 L184.584 99.017 L184.584 102.952 L164.677 102.952 L164.677 99.017 Z" fill="#000000" fill-rule="nonzero" fill-opacity="1"></path><path clip-path="url(#clip680)" d="M1038.49 34.1734 Q1037.23 33.4443 1035.73 33.1202 Q1034.28 32.7556 1032.49 32.7556 Q1026.17 32.7556 1022.77 36.8875 Q1019.41 40.9789 1019.41 48.6757 L1019.41 72.576 L1011.92 72.576 L1011.92 27.2059 L1019.41 27.2059 L1019.41 34.2544 Q1021.76 30.1225 1025.53 28.1376 Q1029.29 26.1121 1034.68 26.1121 Q1035.45 26.1121 1036.38 26.2337 Q1037.31 26.3147 1038.45 26.5172 L1038.49 34.1734 Z" fill="#000000" fill-rule="nonzero" fill-opacity="1"></path><path clip-path="url(#clip680)" d="M1066.93 49.7694 Q1057.89 49.7694 1054.41 51.8354 Q1050.93 53.9013 1050.93 58.8839 Q1050.93 62.8538 1053.52 65.2034 Q1056.15 67.5124 1060.65 67.5124 Q1066.85 67.5124 1070.57 63.1374 Q1074.34 58.7219 1074.34 51.4303 L1074.34 49.7694 L1066.93 49.7694 M1081.79 46.6907 L1081.79 72.576 L1074.34 72.576 L1074.34 65.6895 Q1071.79 69.8214 1067.98 71.8063 Q1064.17 73.7508 1058.66 73.7508 Q1051.7 73.7508 1047.56 69.8619 Q1043.47 65.9325 1043.47 59.3701 Q1043.47 51.7138 1048.58 47.825 Q1053.72 43.9361 1063.89 43.9361 L1074.34 43.9361 L1074.34 43.2069 Q1074.34 38.0623 1070.94 35.2672 Q1067.57 32.4315 1061.46 32.4315 Q1057.57 32.4315 1053.88 33.3632 Q1050.2 34.295 1046.79 36.1584 L1046.79 29.2718 Q1050.89 27.692 1054.73 26.9223 Q1058.58 26.1121 1062.23 26.1121 Q1072.07 26.1121 1076.93 31.2163 Q1081.79 36.3204 1081.79 46.6907 Z" fill="#000000" fill-rule="nonzero" fill-opacity="1"></path><path clip-path="url(#clip680)" d="M1134.86 45.1919 L1134.86 72.576 L1127.41 72.576 L1127.41 45.4349 Q1127.41 38.994 1124.9 35.7938 Q1122.38 32.5936 1117.36 32.5936 Q1111.32 32.5936 1107.84 36.4419 Q1104.36 40.2903 1104.36 46.9338 L1104.36 72.576 L1096.86 72.576 L1096.86 27.2059 L1104.36 27.2059 L1104.36 34.2544 Q1107.03 30.163 1110.64 28.1376 Q1114.28 26.1121 1119.02 26.1121 Q1126.84 26.1121 1130.85 30.9732 Q1134.86 35.7938 1134.86 45.1919 Z" fill="#000000" fill-rule="nonzero" fill-opacity="1"></path><path clip-path="url(#clip680)" d="M1179.58 34.0924 L1179.58 9.54393 L1187.04 9.54393 L1187.04 72.576 L1179.58 72.576 L1179.58 65.7705 Q1177.23 69.8214 1173.63 71.8063 Q1170.06 73.7508 1165.04 73.7508 Q1156.82 73.7508 1151.63 67.1883 Q1146.49 60.6258 1146.49 49.9314 Q1146.49 39.2371 1151.63 32.6746 Q1156.82 26.1121 1165.04 26.1121 Q1170.06 26.1121 1173.63 28.0971 Q1177.23 30.0415 1179.58 34.0924 M1154.18 49.9314 Q1154.18 58.1548 1157.55 62.8538 Q1160.95 67.5124 1166.86 67.5124 Q1172.78 67.5124 1176.18 62.8538 Q1179.58 58.1548 1179.58 49.9314 Q1179.58 41.7081 1176.18 37.0496 Q1172.78 32.3505 1166.86 32.3505 Q1160.95 32.3505 1157.55 37.0496 Q1154.18 41.7081 1154.18 49.9314 Z" fill="#000000" fill-rule="nonzero" fill-opacity="1"></path><path clip-path="url(#clip680)" d="M1219.97 32.4315 Q1213.97 32.4315 1210.49 37.1306 Q1207.01 41.7891 1207.01 49.9314 Q1207.01 58.0738 1210.45 62.7728 Q1213.93 67.4314 1219.97 67.4314 Q1225.92 67.4314 1229.41 62.7323 Q1232.89 58.0333 1232.89 49.9314 Q1232.89 41.8701 1229.41 37.1711 Q1225.92 32.4315 1219.97 32.4315 M1219.97 26.1121 Q1229.69 26.1121 1235.24 32.4315 Q1240.79 38.7509 1240.79 49.9314 Q1240.79 61.0714 1235.24 67.4314 Q1229.69 73.7508 1219.97 73.7508 Q1210.21 73.7508 1204.66 67.4314 Q1199.15 61.0714 1199.15 49.9314 Q1199.15 38.7509 1204.66 32.4315 Q1210.21 26.1121 1219.97 26.1121 Z" fill="#000000" fill-rule="nonzero" fill-opacity="1"></path><path clip-path="url(#clip680)" d="M1288.47 35.9153 Q1291.27 30.8922 1295.15 28.5022 Q1299.04 26.1121 1304.31 26.1121 Q1311.4 26.1121 1315.25 31.0947 Q1319.1 36.0368 1319.1 45.1919 L1319.1 72.576 L1311.6 72.576 L1311.6 45.4349 Q1311.6 38.913 1309.29 35.7533 Q1306.98 32.5936 1302.24 32.5936 Q1296.45 32.5936 1293.09 36.4419 Q1289.73 40.2903 1289.73 46.9338 L1289.73 72.576 L1282.23 72.576 L1282.23 45.4349 Q1282.23 38.8725 1279.92 35.7533 Q1277.61 32.5936 1272.79 32.5936 Q1267.08 32.5936 1263.72 36.4824 Q1260.36 40.3308 1260.36 46.9338 L1260.36 72.576 L1252.86 72.576 L1252.86 27.2059 L1260.36 27.2059 L1260.36 34.2544 Q1262.91 30.082 1266.47 28.0971 Q1270.04 26.1121 1274.94 26.1121 Q1279.88 26.1121 1283.33 28.6237 Q1286.81 31.1352 1288.47 35.9153 Z" fill="#000000" fill-rule="nonzero" fill-opacity="1"></path><path clip-path="url(#clip680)" d="M1360.05 9.54393 L1367.54 9.54393 L1367.54 46.7717 L1389.78 27.2059 L1399.3 27.2059 L1375.24 48.4326 L1400.32 72.576 L1390.59 72.576 L1367.54 50.4176 L1367.54 72.576 L1360.05 72.576 L1360.05 9.54393 Z" fill="#000000" fill-rule="nonzero" fill-opacity="1"></path><path clip-path="url(#clip680)" d="M1435.72 34.9026 L1487.65 34.9026 L1487.65 41.7081 L1435.72 41.7081 L1435.72 34.9026 M1435.72 51.4303 L1487.65 51.4303 L1487.65 58.3168 L1435.72 58.3168 L1435.72 51.4303 Z" fill="#000000" fill-rule="nonzero" fill-opacity="1"></path><path clip-path="url(#clip680)" d="M1538.74 65.6895 L1567.29 65.6895 L1567.29 72.576 L1528.89 72.576 L1528.89 65.6895 Q1533.55 60.8689 1541.57 52.7671 Q1549.63 44.6248 1551.7 42.2752 Q1555.63 37.8598 1557.17 34.8216 Q1558.75 31.7429 1558.75 28.7857 Q1558.75 23.9651 1555.34 20.927 Q1551.98 17.8888 1546.55 17.8888 Q1542.71 17.8888 1538.41 19.2256 Q1534.16 20.5624 1529.3 23.2765 L1529.3 15.0127 Q1534.24 13.0277 1538.53 12.015 Q1542.83 11.0023 1546.39 11.0023 Q1555.79 11.0023 1561.38 15.7013 Q1566.97 20.4004 1566.97 28.2591 Q1566.97 31.9859 1565.55 35.3482 Q1564.18 38.6699 1560.49 43.2069 Q1559.48 44.3817 1554.05 50.0125 Q1548.62 55.6027 1538.74 65.6895 Z" fill="#000000" fill-rule="nonzero" fill-opacity="1"></path><path clip-path="url(#clip680)" d="M1585.32 62.2867 L1593.87 62.2867 L1593.87 69.2543 L1587.22 82.2172 L1582 82.2172 L1585.32 69.2543 L1585.32 62.2867 Z" fill="#000000" fill-rule="nonzero" fill-opacity="1"></path><path clip-path="url(#clip680)" d="M1672.74 14.0809 L1672.74 22.0612 Q1668.08 19.8332 1663.95 18.7395 Q1659.82 17.6457 1655.97 17.6457 Q1649.28 17.6457 1645.64 20.2383 Q1642.03 22.8309 1642.03 27.611 Q1642.03 31.6214 1644.42 33.6873 Q1646.85 35.7128 1653.58 36.9686 L1658.52 37.9813 Q1667.68 39.7232 1672.01 44.1387 Q1676.39 48.5136 1676.39 55.8863 Q1676.39 64.6767 1670.47 69.2137 Q1664.6 73.7508 1653.21 73.7508 Q1648.92 73.7508 1644.06 72.7785 Q1639.24 71.8063 1634.05 69.9024 L1634.05 61.4765 Q1639.04 64.2716 1643.82 65.6895 Q1648.6 67.1073 1653.21 67.1073 Q1660.22 67.1073 1664.03 64.3527 Q1667.84 61.598 1667.84 56.4939 Q1667.84 52.0379 1665.08 49.5264 Q1662.37 47.0148 1656.13 45.759 L1651.15 44.7868 Q1641.99 42.9639 1637.9 39.075 Q1633.81 35.1862 1633.81 28.2591 Q1633.81 20.2383 1639.44 15.6203 Q1645.11 11.0023 1655.04 11.0023 Q1659.29 11.0023 1663.71 11.7719 Q1668.12 12.5416 1672.74 14.0809 Z" fill="#000000" fill-rule="nonzero" fill-opacity="1"></path><path clip-path="url(#clip680)" d="M1716.17 34.9026 L1768.1 34.9026 L1768.1 41.7081 L1716.17 41.7081 L1716.17 34.9026 M1716.17 51.4303 L1768.1 51.4303 L1768.1 58.3168 L1716.17 58.3168 L1716.17 51.4303 Z" fill="#000000" fill-rule="nonzero" fill-opacity="1"></path><path clip-path="url(#clip680)" d="M1845.67 80.2727 L1845.67 86.106 L1843.16 86.106 Q1833.07 86.106 1829.63 83.1084 Q1826.23 80.1107 1826.23 71.1582 L1826.23 61.4765 Q1826.23 55.3597 1824.04 53.0101 Q1821.85 50.6606 1816.1 50.6606 L1813.63 50.6606 L1813.63 44.8678 L1816.1 44.8678 Q1821.89 44.8678 1824.04 42.5588 Q1826.23 40.2093 1826.23 34.1734 L1826.23 24.4513 Q1826.23 15.4988 1829.63 12.5416 Q1833.07 9.54393 1843.16 9.54393 L1845.67 9.54393 L1845.67 15.3367 L1842.92 15.3367 Q1837.21 15.3367 1835.46 17.1191 Q1833.72 18.9015 1833.72 24.6133 L1833.72 34.6595 Q1833.72 41.0195 1831.86 43.8956 Q1830.04 46.7717 1825.58 47.7845 Q1830.08 48.8782 1831.9 51.7544 Q1833.72 54.6305 1833.72 60.9499 L1833.72 70.9961 Q1833.72 76.7079 1835.46 78.4903 Q1837.21 80.2727 1842.92 80.2727 L1845.67 80.2727 Z" fill="#000000" fill-rule="nonzero" fill-opacity="1"></path><path clip-path="url(#clip680)" d="M1865.16 71.3202 L1865.16 63.8666 Q1868.24 65.3249 1871.4 66.0946 Q1874.56 66.8642 1877.59 66.8642 Q1885.7 66.8642 1889.95 61.436 Q1894.24 55.9673 1894.85 44.8678 Q1892.5 48.3516 1888.9 50.215 Q1885.29 52.0784 1880.92 52.0784 Q1871.84 52.0784 1866.53 46.6097 Q1861.27 41.1005 1861.27 31.5808 Q1861.27 22.2638 1866.78 16.633 Q1872.29 11.0023 1881.44 11.0023 Q1891.93 11.0023 1897.44 19.0636 Q1902.99 27.0843 1902.99 42.3968 Q1902.99 56.6965 1896.19 65.2439 Q1889.42 73.7508 1877.96 73.7508 Q1874.88 73.7508 1871.72 73.1431 Q1868.56 72.5355 1865.16 71.3202 M1881.44 45.678 Q1886.95 45.678 1890.15 41.9107 Q1893.39 38.1433 1893.39 31.5808 Q1893.39 25.0589 1890.15 21.2916 Q1886.95 17.4837 1881.44 17.4837 Q1875.93 17.4837 1872.69 21.2916 Q1869.49 25.0589 1869.49 31.5808 Q1869.49 38.1433 1872.69 41.9107 Q1875.93 45.678 1881.44 45.678 Z" fill="#000000" fill-rule="nonzero" fill-opacity="1"></path><path clip-path="url(#clip680)" d="M1918.55 62.2867 L1927.1 62.2867 L1927.1 69.2543 L1920.45 82.2172 L1915.23 82.2172 L1918.55 69.2543 L1918.55 62.2867 Z" fill="#000000" fill-rule="nonzero" fill-opacity="1"></path><path clip-path="url(#clip680)" d="M1971.86 65.6895 L1985.23 65.6895 L1985.23 19.5497 L1970.68 22.4663 L1970.68 15.0127 L1985.15 12.096 L1993.33 12.096 L1993.33 65.6895 L2006.7 65.6895 L2006.7 72.576 L1971.86 72.576 L1971.86 65.6895 Z" fill="#000000" fill-rule="nonzero" fill-opacity="1"></path><path clip-path="url(#clip680)" d="M2024.64 65.6895 L2038.01 65.6895 L2038.01 19.5497 L2023.47 22.4663 L2023.47 15.0127 L2037.93 12.096 L2046.11 12.096 L2046.11 65.6895 L2059.48 65.6895 L2059.48 72.576 L2024.64 72.576 L2024.64 65.6895 Z" fill="#000000" fill-rule="nonzero" fill-opacity="1"></path><path clip-path="url(#clip680)" d="M2076.86 62.2867 L2085.41 62.2867 L2085.41 69.2543 L2078.76 82.2172 L2073.54 82.2172 L2076.86 69.2543 L2076.86 62.2867 Z" fill="#000000" fill-rule="nonzero" fill-opacity="1"></path><path clip-path="url(#clip680)" d="M2103.8 65.6895 L2117.16 65.6895 L2117.16 19.5497 L2102.62 22.4663 L2102.62 15.0127 L2117.08 12.096 L2125.27 12.096 L2125.27 65.6895 L2138.63 65.6895 L2138.63 72.576 L2103.8 72.576 L2103.8 65.6895 Z" fill="#000000" fill-rule="nonzero" fill-opacity="1"></path><path clip-path="url(#clip680)" d="M2162.21 65.6895 L2190.77 65.6895 L2190.77 72.576 L2152.37 72.576 L2152.37 65.6895 Q2157.03 60.8689 2165.05 52.7671 Q2173.11 44.6248 2175.17 42.2752 Q2179.1 37.8598 2180.64 34.8216 Q2182.22 31.7429 2182.22 28.7857 Q2182.22 23.9651 2178.82 20.927 Q2175.46 17.8888 2170.03 17.8888 Q2166.18 17.8888 2161.89 19.2256 Q2157.63 20.5624 2152.77 23.2765 L2152.77 15.0127 Q2157.71 13.0277 2162.01 12.015 Q2166.3 11.0023 2169.87 11.0023 Q2179.26 11.0023 2184.85 15.7013 Q2190.45 20.4004 2190.45 28.2591 Q2190.45 31.9859 2189.03 35.3482 Q2187.65 38.6699 2183.96 43.2069 Q2182.95 44.3817 2177.52 50.0125 Q2172.09 55.6027 2162.21 65.6895 Z" fill="#000000" fill-rule="nonzero" fill-opacity="1"></path><path clip-path="url(#clip680)" d="M2208.8 62.2867 L2217.34 62.2867 L2217.34 69.2543 L2210.7 82.2172 L2205.47 82.2172 L2208.8 69.2543 L2208.8 62.2867 Z" fill="#000000" fill-rule="nonzero" fill-opacity="1"></path><path clip-path="url(#clip680)" d="M2241.36 65.6895 L2269.92 65.6895 L2269.92 72.576 L2231.52 72.576 L2231.52 65.6895 Q2236.18 60.8689 2244.2 52.7671 Q2252.26 44.6248 2254.33 42.2752 Q2258.26 37.8598 2259.8 34.8216 Q2261.38 31.7429 2261.38 28.7857 Q2261.38 23.9651 2257.97 20.927 Q2254.61 17.8888 2249.18 17.8888 Q2245.33 17.8888 2241.04 19.2256 Q2236.79 20.5624 2231.93 23.2765 L2231.93 15.0127 Q2236.87 13.0277 2241.16 12.015 Q2245.46 11.0023 2249.02 11.0023 Q2258.42 11.0023 2264.01 15.7013 Q2269.6 20.4004 2269.6 28.2591 Q2269.6 31.9859 2268.18 35.3482 Q2266.8 38.6699 2263.12 43.2069 Q2262.11 44.3817 2256.68 50.0125 Q2251.25 55.6027 2241.36 65.6895 Z" fill="#000000" fill-rule="nonzero" fill-opacity="1"></path><path clip-path="url(#clip680)" d="M2304.6 17.4837 Q2298.28 17.4837 2295.08 23.7221 Q2291.92 29.92 2291.92 42.3968 Q2291.92 54.833 2295.08 61.0714 Q2298.28 67.2693 2304.6 67.2693 Q2310.96 67.2693 2314.12 61.0714 Q2317.32 54.833 2317.32 42.3968 Q2317.32 29.92 2314.12 23.7221 Q2310.96 17.4837 2304.6 17.4837 M2304.6 11.0023 Q2314.77 11.0023 2320.11 19.0636 Q2325.5 27.0843 2325.5 42.3968 Q2325.5 57.6687 2320.11 65.73 Q2314.77 73.7508 2304.6 73.7508 Q2294.43 73.7508 2289.04 65.73 Q2283.7 57.6687 2283.7 42.3968 Q2283.7 27.0843 2289.04 19.0636 Q2294.43 11.0023 2304.6 11.0023 Z" fill="#000000" fill-rule="nonzero" fill-opacity="1"></path><path clip-path="url(#clip680)" d="M2341.38 80.2727 L2344.22 80.2727 Q2349.89 80.2727 2351.59 78.5308 Q2353.33 76.7889 2353.33 70.9961 L2353.33 60.9499 Q2353.33 54.6305 2355.15 51.7544 Q2356.98 48.8782 2361.47 47.7845 Q2356.98 46.7717 2355.15 43.8956 Q2353.33 41.0195 2353.33 34.6595 L2353.33 24.6133 Q2353.33 18.861 2351.59 17.1191 Q2349.89 15.3367 2344.22 15.3367 L2341.38 15.3367 L2341.38 9.54393 L2343.93 9.54393 Q2354.02 9.54393 2357.38 12.5416 Q2360.79 15.4988 2360.79 24.4513 L2360.79 34.1734 Q2360.79 40.2093 2362.97 42.5588 Q2365.16 44.8678 2370.91 44.8678 L2373.42 44.8678 L2373.42 50.6606 L2370.91 50.6606 Q2365.16 50.6606 2362.97 53.0101 Q2360.79 55.3597 2360.79 61.4765 L2360.79 71.1582 Q2360.79 80.1107 2357.38 83.1084 Q2354.02 86.106 2343.93 86.106 L2341.38 86.106 L2341.38 80.2727 Z" fill="#000000" fill-rule="nonzero" fill-opacity="1"></path><polyline clip-path="url(#clip682)" style="stroke:#009af9; stroke-linecap:round; stroke-linejoin:round; stroke-width:8.8; stroke-opacity:1; fill:none" points="315.23,534.739 927.426,631.395 1845.72,276.234 2457.91,169.467 3070.11,147.639 "></polyline>
<polyline clip-path="url(#clip682)" style="stroke:#e26f46; stroke-linecap:round; stroke-linejoin:round; stroke-width:8.8; stroke-opacity:1; fill:none" points="315.23,483.387 927.426,358.477 1845.72,677.308 2457.91,673.155 3070.11,586.403 "></polyline>
<polyline clip-path="url(#clip682)" style="stroke:#3da44d; stroke-linecap:round; stroke-linejoin:round; stroke-width:8.8; stroke-opacity:1; fill:none" points="315.23,462.846 927.426,542.172 1845.72,455.662 2457.91,269.155 3070.11,450.595 "></polyline>
<polyline clip-path="url(#clip682)" style="stroke:#c271d2; stroke-linecap:round; stroke-linejoin:round; stroke-width:8.8; stroke-opacity:1; fill:none" points="315.23,129.058 927.426,198.4 1845.72,141.663 2457.91,326.869 3070.11,322.622 "></polyline>
<polyline clip-path="url(#clip682)" style="stroke:#000000; stroke-linecap:round; stroke-linejoin:round; stroke-width:4; stroke-opacity:1; fill:none" stroke-dasharray="16, 10" points="-2687.59,302.212 6072.93,302.212 "></polyline>
</svg>