<svg xmlns="http://www.w3.org/2000/svg" xmlns:xlink="http://www.w3.org/1999/xlink" width="800" height="200" viewBox="0 0 3200 800">
<defs>
  <clipPath id="clip840">
    <rect x="0" y="0" width="3200" height="800"></rect>
  </clipPath>
</defs>
<path clip-path="url(#clip840)" d="M0 800 L3200 800 L3200 0 L0 0  Z" fill="#ffffff" fill-rule="evenodd" fill-opacity="1"></path>
<defs>
  <clipPath id="clip841">
    <rect x="640" y="0" width="2241" height="800"></rect>
  </clipPath>
</defs>
<path clip-path="url(#clip840)" d="M232.098 716.048 L3152.76 716.048 L3152.76 85.6721 L232.098 85.6721  Z" fill="#ffffff" fill-rule="evenodd" fill-opacity="1"></path>
<defs>
  <clipPath id="clip842">
    <rect x="232" y="85" width="2922" height="631"></rect>
  </clipPath>
</defs>
<polyline clip-path="url(#clip842)" style="stroke:#000000; stroke-linecap:round; stroke-linejoin:round; stroke-width:2; stroke-opacity:0.1; fill:none" points="314.758,716.048 314.758,85.6721 "></polyline>
<polyline clip-path="url(#clip842)" style="stroke:#000000; stroke-linecap:round; stroke-linejoin:round; stroke-width:2; stroke-opacity:0.1; fill:none" points="1080.13,716.048 1080.13,85.6721 "></polyline>
<polyline clip-path="url(#clip842)" style="stroke:#000000; stroke-linecap:round; stroke-linejoin:round; stroke-width:2; stroke-opacity:0.1; fill:none" points="1845.5,716.048 1845.5,85.6721 "></polyline>
<polyline clip-path="url(#clip842)" style="stroke:#000000; stroke-linecap:round; stroke-linejoin:round; stroke-width:2; stroke-opacity:0.1; fill:none" points="2610.87,716.048 2610.87,85.6721 "></polyline>
<polyline clip-path="url(#clip842)" style="stroke:#000000; stroke-linecap:round; stroke-linejoin:round; stroke-width:2; stroke-opacity:0.1; fill:none" points="232.098,716.048 3152.76,716.048 "></polyline>
<polyline clip-path="url(#clip842)" style="stroke:#000000; stroke-linecap:round; stroke-linejoin:round; stroke-width:2; stroke-opacity:0.1; fill:none" points="232.098,505.923 3152.76,505.923 "></polyline>
<polyline clip-path="url(#clip842)" style="stroke:#000000; stroke-linecap:round; stroke-linejoin:round; stroke-width:2; stroke-opacity:0.1; fill:none" points="232.098,295.797 3152.76,295.797 "></polyline>
<polyline clip-path="url(#clip842)" style="stroke:#000000; stroke-linecap:round; stroke-linejoin:round; stroke-width:2; stroke-opacity:0.1; fill:none" points="232.098,85.6721 3152.76,85.6721 "></polyline>
<polyline clip-path="url(#clip840)" style="stroke:#000000; stroke-linecap:round; stroke-linejoin:round; stroke-width:4; stroke-opacity:1; fill:none" points="232.098,716.048 3152.76,716.048 "></polyline>
<polyline clip-path="url(#clip840)" style="stroke:#000000; stroke-linecap:round; stroke-linejoin:round; stroke-width:4; stroke-opacity:1; fill:none" points="314.758,716.048 314.758,697.15 "></polyline>
<polyline clip-path="url(#clip840)" style="stroke:#000000; stroke-linecap:round; stroke-linejoin:round; stroke-width:4; stroke-opacity:1; fill:none" points="1080.13,716.048 1080.13,697.15 "></polyline>
<polyline clip-path="url(#clip840)" style="stroke:#000000; stroke-linecap:round; stroke-linejoin:round; stroke-width:4; stroke-opacity:1; fill:none" points="1845.5,716.048 1845.5,697.15 "></polyline>
<polyline clip-path="url(#clip840)" style="stroke:#000000; stroke-linecap:round; stroke-linejoin:round; stroke-width:4; stroke-opacity:1; fill:none" points="2610.87,716.048 2610.87,697.15 "></polyline>
<path clip-path="url(#clip840)" d="M305.036 750.288 L323.392 750.288 L323.392 754.223 L309.318 754.223 L309.318 762.695 Q310.337 762.348 311.355 762.186 Q312.374 762.001 313.392 762.001 Q319.179 762.001 322.559 765.172 Q325.939 768.343 325.939 773.76 Q325.939 779.339 322.466 782.44 Q318.994 785.519 312.675 785.519 Q310.499 785.519 308.23 785.149 Q305.985 784.778 303.578 784.038 L303.578 779.339 Q305.661 780.473 307.883 781.028 Q310.105 781.584 312.582 781.584 Q316.587 781.584 318.925 779.478 Q321.263 777.371 321.263 773.76 Q321.263 770.149 318.925 768.042 Q316.587 765.936 312.582 765.936 Q310.707 765.936 308.832 766.353 Q306.98 766.769 305.036 767.649 L305.036 750.288 Z" fill="#000000" fill-rule="nonzero" fill-opacity="1"></path><path clip-path="url(#clip840)" d="M1054.82 780.913 L1062.46 780.913 L1062.46 754.547 L1054.15 756.214 L1054.15 751.955 L1062.41 750.288 L1067.09 750.288 L1067.09 780.913 L1074.72 780.913 L1074.72 784.848 L1054.82 784.848 L1054.82 780.913 Z" fill="#000000" fill-rule="nonzero" fill-opacity="1"></path><path clip-path="url(#clip840)" d="M1094.17 753.367 Q1090.56 753.367 1088.73 756.931 Q1086.92 760.473 1086.92 767.603 Q1086.92 774.709 1088.73 778.274 Q1090.56 781.815 1094.17 781.815 Q1097.8 781.815 1099.61 778.274 Q1101.44 774.709 1101.44 767.603 Q1101.44 760.473 1099.61 756.931 Q1097.8 753.367 1094.17 753.367 M1094.17 749.663 Q1099.98 749.663 1103.03 754.269 Q1106.11 758.853 1106.11 767.603 Q1106.11 776.329 1103.03 780.936 Q1099.98 785.519 1094.17 785.519 Q1088.36 785.519 1085.28 780.936 Q1082.22 776.329 1082.22 767.603 Q1082.22 758.853 1085.28 754.269 Q1088.36 749.663 1094.17 749.663 Z" fill="#000000" fill-rule="nonzero" fill-opacity="1"></path><path clip-path="url(#clip840)" d="M1820.69 780.913 L1828.33 780.913 L1828.33 754.547 L1820.02 756.214 L1820.02 751.955 L1828.28 750.288 L1832.95 750.288 L1832.95 780.913 L1840.59 780.913 L1840.59 784.848 L1820.69 784.848 L1820.69 780.913 Z" fill="#000000" fill-rule="nonzero" fill-opacity="1"></path><path clip-path="url(#clip840)" d="M1850.08 750.288 L1868.44 750.288 L1868.44 754.223 L1854.37 754.223 L1854.37 762.695 Q1855.39 762.348 1856.4 762.186 Q1857.42 762.001 1858.44 762.001 Q1864.23 762.001 1867.61 765.172 Q1870.99 768.343 1870.99 773.76 Q1870.99 779.339 1867.51 782.44 Q1864.04 785.519 1857.72 785.519 Q1855.55 785.519 1853.28 785.149 Q1851.03 784.778 1848.63 784.038 L1848.63 779.339 Q1850.71 780.473 1852.93 781.028 Q1855.15 781.584 1857.63 781.584 Q1861.64 781.584 1863.97 779.478 Q1866.31 777.371 1866.31 773.76 Q1866.31 770.149 1863.97 768.042 Q1861.64 765.936 1857.63 765.936 Q1855.76 765.936 1853.88 766.353 Q1852.03 766.769 1850.08 767.649 L1850.08 750.288 Z" fill="#000000" fill-rule="nonzero" fill-opacity="1"></path><path clip-path="url(#clip840)" d="M2589.65 780.913 L2605.97 780.913 L2605.97 784.848 L2584.02 784.848 L2584.02 780.913 Q2586.68 778.158 2591.27 773.528 Q2595.87 768.876 2597.05 767.533 Q2599.3 765.01 2600.18 763.274 Q2601.08 761.515 2601.08 759.825 Q2601.08 757.07 2599.14 755.334 Q2597.22 753.598 2594.11 753.598 Q2591.91 753.598 2589.46 754.362 Q2587.03 755.126 2584.25 756.677 L2584.25 751.955 Q2587.08 750.82 2589.53 750.242 Q2591.98 749.663 2594.02 749.663 Q2599.39 749.663 2602.59 752.348 Q2605.78 755.033 2605.78 759.524 Q2605.78 761.654 2604.97 763.575 Q2604.18 765.473 2602.08 768.066 Q2601.5 768.737 2598.4 771.954 Q2595.29 775.149 2589.65 780.913 Z" fill="#000000" fill-rule="nonzero" fill-opacity="1"></path><path clip-path="url(#clip840)" d="M2625.78 753.367 Q2622.17 753.367 2620.34 756.931 Q2618.53 760.473 2618.53 767.603 Q2618.53 774.709 2620.34 778.274 Q2622.17 781.815 2625.78 781.815 Q2629.41 781.815 2631.22 778.274 Q2633.05 774.709 2633.05 767.603 Q2633.05 760.473 2631.22 756.931 Q2629.41 753.367 2625.78 753.367 M2625.78 749.663 Q2631.59 749.663 2634.65 754.269 Q2637.72 758.853 2637.72 767.603 Q2637.72 776.329 2634.65 780.936 Q2631.59 785.519 2625.78 785.519 Q2619.97 785.519 2616.89 780.936 Q2613.84 776.329 2613.84 767.603 Q2613.84 758.853 2616.89 754.269 Q2619.97 749.663 2625.78 749.663 Z" fill="#000000" fill-rule="nonzero" fill-opacity="1"></path><polyline clip-path="url(#clip840)" style="stroke:#000000; stroke-linecap:round; stroke-linejoin:round; stroke-width:4; stroke-opacity:1; fill:none" points="232.098,716.048 232.098,85.6721 "></polyline>
<polyline clip-path="url(#clip840)" style="stroke:#000000; stroke-linecap:round; stroke-linejoin:round; stroke-width:4; stroke-opacity:1; fill:none" points="232.098,716.048 250.996,716.048 "></polyline>
<polyline clip-path="url(#clip840)" style="stroke:#000000; stroke-linecap:round; stroke-linejoin:round; stroke-width:4; stroke-opacity:1; fill:none" points="232.098,505.923 250.996,505.923 "></polyline>
<polyline clip-path="url(#clip840)" style="stroke:#000000; stroke-linecap:round; stroke-linejoin:round; stroke-width:4; stroke-opacity:1; fill:none" points="232.098,295.797 250.996,295.797 "></polyline>
<polyline clip-path="url(#clip840)" style="stroke:#000000; stroke-linecap:round; stroke-linejoin:round; stroke-width:4; stroke-opacity:1; fill:none" points="232.098,85.6721 250.996,85.6721 "></polyline>
<path clip-path="url(#clip840)" d="M46.9921 716.499 L76.6679 716.499 L76.6679 720.434 L46.9921 720.434 L46.9921 716.499 Z" fill="#000000" fill-rule="nonzero" fill-opacity="1"></path><path clip-path="url(#clip840)" d="M96.7604 701.847 Q93.1493 701.847 91.3206 705.411 Q89.515 708.953 89.515 716.083 Q89.515 723.189 91.3206 726.754 Q93.1493 730.295 96.7604 730.295 Q100.395 730.295 102.2 726.754 Q104.029 723.189 104.029 716.083 Q104.029 708.953 102.2 705.411 Q100.395 701.847 96.7604 701.847 M96.7604 698.143 Q102.571 698.143 105.626 702.749 Q108.705 707.333 108.705 716.083 Q108.705 724.809 105.626 729.416 Q102.571 733.999 96.7604 733.999 Q90.9502 733.999 87.8715 729.416 Q84.816 724.809 84.816 716.083 Q84.816 707.333 87.8715 702.749 Q90.9502 698.143 96.7604 698.143 Z" fill="#000000" fill-rule="nonzero" fill-opacity="1"></path><path clip-path="url(#clip840)" d="M116.922 727.448 L121.807 727.448 L121.807 733.328 L116.922 733.328 L116.922 727.448 Z" fill="#000000" fill-rule="nonzero" fill-opacity="1"></path><path clip-path="url(#clip840)" d="M132.802 729.393 L140.441 729.393 L140.441 703.027 L132.131 704.694 L132.131 700.435 L140.394 698.768 L145.07 698.768 L145.07 729.393 L152.709 729.393 L152.709 733.328 L132.802 733.328 L132.802 729.393 Z" fill="#000000" fill-rule="nonzero" fill-opacity="1"></path><path clip-path="url(#clip840)" d="M172.153 701.847 Q168.542 701.847 166.714 705.411 Q164.908 708.953 164.908 716.083 Q164.908 723.189 166.714 726.754 Q168.542 730.295 172.153 730.295 Q175.788 730.295 177.593 726.754 Q179.422 723.189 179.422 716.083 Q179.422 708.953 177.593 705.411 Q175.788 701.847 172.153 701.847 M172.153 698.143 Q177.964 698.143 181.019 702.749 Q184.098 707.333 184.098 716.083 Q184.098 724.809 181.019 729.416 Q177.964 733.999 172.153 733.999 Q166.343 733.999 163.265 729.416 Q160.209 724.809 160.209 716.083 Q160.209 707.333 163.265 702.749 Q166.343 698.143 172.153 698.143 Z" fill="#000000" fill-rule="nonzero" fill-opacity="1"></path><path clip-path="url(#clip840)" d="M47.9875 506.374 L77.6633 506.374 L77.6633 510.309 L47.9875 510.309 L47.9875 506.374 Z" fill="#000000" fill-rule="nonzero" fill-opacity="1"></path><path clip-path="url(#clip840)" d="M97.7557 491.721 Q94.1447 491.721 92.316 495.286 Q90.5104 498.828 90.5104 505.957 Q90.5104 513.064 92.316 516.629 Q94.1447 520.17 97.7557 520.17 Q101.39 520.17 103.196 516.629 Q105.024 513.064 105.024 505.957 Q105.024 498.828 103.196 495.286 Q101.39 491.721 97.7557 491.721 M97.7557 488.018 Q103.566 488.018 106.621 492.624 Q109.7 497.207 109.7 505.957 Q109.7 514.684 106.621 519.291 Q103.566 523.874 97.7557 523.874 Q91.9456 523.874 88.8669 519.291 Q85.8114 514.684 85.8114 505.957 Q85.8114 497.207 88.8669 492.624 Q91.9456 488.018 97.7557 488.018 Z" fill="#000000" fill-rule="nonzero" fill-opacity="1"></path><path clip-path="url(#clip840)" d="M117.918 517.323 L122.802 517.323 L122.802 523.203 L117.918 523.203 L117.918 517.323 Z" fill="#000000" fill-rule="nonzero" fill-opacity="1"></path><path clip-path="url(#clip840)" d="M142.987 491.721 Q139.376 491.721 137.547 495.286 Q135.742 498.828 135.742 505.957 Q135.742 513.064 137.547 516.629 Q139.376 520.17 142.987 520.17 Q146.621 520.17 148.427 516.629 Q150.255 513.064 150.255 505.957 Q150.255 498.828 148.427 495.286 Q146.621 491.721 142.987 491.721 M142.987 488.018 Q148.797 488.018 151.853 492.624 Q154.931 497.207 154.931 505.957 Q154.931 514.684 151.853 519.291 Q148.797 523.874 142.987 523.874 Q137.177 523.874 134.098 519.291 Q131.043 514.684 131.043 505.957 Q131.043 497.207 134.098 492.624 Q137.177 488.018 142.987 488.018 Z" fill="#000000" fill-rule="nonzero" fill-opacity="1"></path><path clip-path="url(#clip840)" d="M163.195 488.643 L181.552 488.643 L181.552 492.578 L167.478 492.578 L167.478 501.05 Q168.496 500.703 169.515 500.541 Q170.533 500.356 171.552 500.356 Q177.339 500.356 180.718 503.527 Q184.098 506.698 184.098 512.115 Q184.098 517.693 180.626 520.795 Q177.153 523.874 170.834 523.874 Q168.658 523.874 166.39 523.504 Q164.144 523.133 161.737 522.392 L161.737 517.693 Q163.82 518.828 166.042 519.383 Q168.265 519.939 170.741 519.939 Q174.746 519.939 177.084 517.832 Q179.422 515.726 179.422 512.115 Q179.422 508.504 177.084 506.397 Q174.746 504.291 170.741 504.291 Q168.866 504.291 166.991 504.707 Q165.14 505.124 163.195 506.004 L163.195 488.643 Z" fill="#000000" fill-rule="nonzero" fill-opacity="1"></path><path clip-path="url(#clip840)" d="M96.7604 281.596 Q93.1493 281.596 91.3206 285.161 Q89.515 288.703 89.515 295.832 Q89.515 302.939 91.3206 306.503 Q93.1493 310.045 96.7604 310.045 Q100.395 310.045 102.2 306.503 Q104.029 302.939 104.029 295.832 Q104.029 288.703 102.2 285.161 Q100.395 281.596 96.7604 281.596 M96.7604 277.892 Q102.571 277.892 105.626 282.499 Q108.705 287.082 108.705 295.832 Q108.705 304.559 105.626 309.165 Q102.571 313.749 96.7604 313.749 Q90.9502 313.749 87.8715 309.165 Q84.816 304.559 84.816 295.832 Q84.816 287.082 87.8715 282.499 Q90.9502 277.892 96.7604 277.892 Z" fill="#000000" fill-rule="nonzero" fill-opacity="1"></path><path clip-path="url(#clip840)" d="M116.922 307.198 L121.807 307.198 L121.807 313.077 L116.922 313.077 L116.922 307.198 Z" fill="#000000" fill-rule="nonzero" fill-opacity="1"></path><path clip-path="url(#clip840)" d="M141.992 281.596 Q138.381 281.596 136.552 285.161 Q134.746 288.703 134.746 295.832 Q134.746 302.939 136.552 306.503 Q138.381 310.045 141.992 310.045 Q145.626 310.045 147.431 306.503 Q149.26 302.939 149.26 295.832 Q149.26 288.703 147.431 285.161 Q145.626 281.596 141.992 281.596 M141.992 277.892 Q147.802 277.892 150.857 282.499 Q153.936 287.082 153.936 295.832 Q153.936 304.559 150.857 309.165 Q147.802 313.749 141.992 313.749 Q136.181 313.749 133.103 309.165 Q130.047 304.559 130.047 295.832 Q130.047 287.082 133.103 282.499 Q136.181 277.892 141.992 277.892 Z" fill="#000000" fill-rule="nonzero" fill-opacity="1"></path><path clip-path="url(#clip840)" d="M172.153 281.596 Q168.542 281.596 166.714 285.161 Q164.908 288.703 164.908 295.832 Q164.908 302.939 166.714 306.503 Q168.542 310.045 172.153 310.045 Q175.788 310.045 177.593 306.503 Q179.422 302.939 179.422 295.832 Q179.422 288.703 177.593 285.161 Q175.788 281.596 172.153 281.596 M172.153 277.892 Q177.964 277.892 181.019 282.499 Q184.098 287.082 184.098 295.832 Q184.098 304.559 181.019 309.165 Q177.964 313.749 172.153 313.749 Q166.343 313.749 163.265 309.165 Q160.209 304.559 160.209 295.832 Q160.209 287.082 163.265 282.499 Q166.343 277.892 172.153 277.892 Z" fill="#000000" fill-rule="nonzero" fill-opacity="1"></path><path clip-path="url(#clip840)" d="M97.7557 71.4708 Q94.1447 71.4708 92.316 75.0356 Q90.5104 78.5773 90.5104 85.7068 Q90.5104 92.8133 92.316 96.3781 Q94.1447 99.9197 97.7557 99.9197 Q101.39 99.9197 103.196 96.3781 Q105.024 92.8133 105.024 85.7068 Q105.024 78.5773 103.196 75.0356 Q101.39 71.4708 97.7557 71.4708 M97.7557 67.7671 Q103.566 67.7671 106.621 72.3736 Q109.7 76.9569 109.7 85.7068 Q109.7 94.4337 106.621 99.0401 Q103.566 103.623 97.7557 103.623 Q91.9456 103.623 88.8669 99.0401 Q85.8114 94.4337 85.8114 85.7068 Q85.8114 76.9569 88.8669 72.3736 Q91.9456 67.7671 97.7557 67.7671 Z" fill="#000000" fill-rule="nonzero" fill-opacity="1"></path><path clip-path="url(#clip840)" d="M117.918 97.0725 L122.802 97.0725 L122.802 102.952 L117.918 102.952 L117.918 97.0725 Z" fill="#000000" fill-rule="nonzero" fill-opacity="1"></path><path clip-path="url(#clip840)" d="M142.987 71.4708 Q139.376 71.4708 137.547 75.0356 Q135.742 78.5773 135.742 85.7068 Q135.742 92.8133 137.547 96.3781 Q139.376 99.9197 142.987 99.9197 Q146.621 99.9197 148.427 96.3781 Q150.255 92.8133 150.255 85.7068 Q150.255 78.5773 148.427 75.0356 Q146.621 71.4708 142.987 71.4708 M142.987 67.7671 Q148.797 67.7671 151.853 72.3736 Q154.931 76.9569 154.931 85.7068 Q154.931 94.4337 151.853 99.0401 Q148.797 103.623 142.987 103.623 Q137.177 103.623 134.098 99.0401 Q131.043 94.4337 131.043 85.7068 Q131.043 76.9569 134.098 72.3736 Q137.177 67.7671 142.987 67.7671 Z" fill="#000000" fill-rule="nonzero" fill-opacity="1"></path><path clip-path="url(#clip840)" d="M163.195 68.3921 L181.552 68.3921 L181.552 72.3273 L167.478 72.3273 L167.478 80.7995 Q168.496 80.4522 169.515 80.2902 Q170.533 80.105 171.552 80.105 Q177.339 80.105 180.718 83.2763 Q184.098 86.4476 184.098 91.8642 Q184.098 97.4429 180.626 100.545 Q177.153 103.623 170.834 103.623 Q168.658 103.623 166.39 103.253 Q164.144 102.883 161.737 102.142 L161.737 97.4429 Q163.82 98.5771 166.042 99.1327 Q168.265 99.6883 170.741 99.6883 Q174.746 99.6883 177.084 97.5818 Q179.422 95.4753 179.422 91.8642 Q179.422 88.2531 177.084 86.1467 Q174.746 84.0402 170.741 84.0402 Q168.866 84.0402 166.991 84.4569 Q165.14 84.8735 163.195 85.7531 L163.195 68.3921 Z" fill="#000000" fill-rule="nonzero" fill-opacity="1"></path><path clip-path="url(#clip840)" d="M840.339 34.1734 Q839.084 33.4443 837.585 33.1202 Q836.127 32.7556 834.344 32.7556 Q828.025 32.7556 824.622 36.8875 Q821.26 40.9789 821.26 48.6757 L821.26 72.576 L813.766 72.576 L813.766 27.2059 L821.26 27.2059 L821.26 34.2544 Q823.609 30.1225 827.377 28.1376 Q831.144 26.1121 836.532 26.1121 Q837.301 26.1121 838.233 26.2337 Q839.165 26.3147 840.299 26.5172 L840.339 34.1734 Z" fill="#000000" fill-rule="nonzero" fill-opacity="1"></path><path clip-path="url(#clip840)" d="M868.777 49.7694 Q859.743 49.7694 856.259 51.8354 Q852.776 53.9013 852.776 58.8839 Q852.776 62.8538 855.368 65.2034 Q858.001 67.5124 862.498 67.5124 Q868.696 67.5124 872.423 63.1374 Q876.19 58.7219 876.19 51.4303 L876.19 49.7694 L868.777 49.7694 M883.644 46.6907 L883.644 72.576 L876.19 72.576 L876.19 65.6895 Q873.638 69.8214 869.83 71.8063 Q866.022 73.7508 860.513 73.7508 Q853.545 73.7508 849.413 69.8619 Q845.322 65.9325 845.322 59.3701 Q845.322 51.7138 850.426 47.825 Q855.571 43.9361 865.739 43.9361 L876.19 43.9361 L876.19 43.2069 Q876.19 38.0623 872.787 35.2672 Q869.425 32.4315 863.308 32.4315 Q859.419 32.4315 855.733 33.3632 Q852.047 34.295 848.644 36.1584 L848.644 29.2718 Q852.735 27.692 856.584 26.9223 Q860.432 26.1121 864.078 26.1121 Q873.921 26.1121 878.783 31.2163 Q883.644 36.3204 883.644 46.6907 Z" fill="#000000" fill-rule="nonzero" fill-opacity="1"></path><path clip-path="url(#clip840)" d="M936.71 45.1919 L936.71 72.576 L929.257 72.576 L929.257 45.4349 Q929.257 38.994 926.745 35.7938 Q924.234 32.5936 919.211 32.5936 Q913.175 32.5936 909.691 36.4419 Q906.207 40.2903 906.207 46.9338 L906.207 72.576 L898.713 72.576 L898.713 27.2059 L906.207 27.2059 L906.207 34.2544 Q908.881 30.163 912.486 28.1376 Q916.132 26.1121 920.871 26.1121 Q928.69 26.1121 932.7 30.9732 Q936.71 35.7938 936.71 45.1919 Z" fill="#000000" fill-rule="nonzero" fill-opacity="1"></path><path clip-path="url(#clip840)" d="M981.432 34.0924 L981.432 9.54393 L988.886 9.54393 L988.886 72.576 L981.432 72.576 L981.432 65.7705 Q979.083 69.8214 975.478 71.8063 Q971.913 73.7508 966.89 73.7508 Q958.666 73.7508 953.481 67.1883 Q948.337 60.6258 948.337 49.9314 Q948.337 39.2371 953.481 32.6746 Q958.666 26.1121 966.89 26.1121 Q971.913 26.1121 975.478 28.0971 Q979.083 30.0415 981.432 34.0924 M956.033 49.9314 Q956.033 58.1548 959.396 62.8538 Q962.798 67.5124 968.713 67.5124 Q974.627 67.5124 978.03 62.8538 Q981.432 58.1548 981.432 49.9314 Q981.432 41.7081 978.03 37.0496 Q974.627 32.3505 968.713 32.3505 Q962.798 32.3505 959.396 37.0496 Q956.033 41.7081 956.033 49.9314 Z" fill="#000000" fill-rule="nonzero" fill-opacity="1"></path><path clip-path="url(#clip840)" d="M1021.82 32.4315 Q1015.82 32.4315 1012.34 37.1306 Q1008.86 41.7891 1008.86 49.9314 Q1008.86 58.0738 1012.3 62.7728 Q1015.78 67.4314 1021.82 67.4314 Q1027.77 67.4314 1031.26 62.7323 Q1034.74 58.0333 1034.74 49.9314 Q1034.74 41.8701 1031.26 37.1711 Q1027.77 32.4315 1021.82 32.4315 M1021.82 26.1121 Q1031.54 26.1121 1037.09 32.4315 Q1042.64 38.7509 1042.64 49.9314 Q1042.64 61.0714 1037.09 67.4314 Q1031.54 73.7508 1021.82 73.7508 Q1012.06 73.7508 1006.51 67.4314 Q1001 61.0714 1001 49.9314 Q1001 38.7509 1006.51 32.4315 Q1012.06 26.1121 1021.82 26.1121 Z" fill="#000000" fill-rule="nonzero" fill-opacity="1"></path><path clip-path="url(#clip840)" d="M1090.32 35.9153 Q1093.12 30.8922 1097 28.5022 Q1100.89 26.1121 1106.16 26.1121 Q1113.25 26.1121 1117.1 31.0947 Q1120.95 36.0368 1120.95 45.1919 L1120.95 72.576 L1113.45 72.576 L1113.45 45.4349 Q1113.45 38.913 1111.14 35.7533 Q1108.83 32.5936 1104.09 32.5936 Q1098.3 32.5936 1094.94 36.4419 Q1091.58 40.2903 1091.58 46.9338 L1091.58 72.576 L1084.08 72.576 L1084.08 45.4349 Q1084.08 38.8725 1081.77 35.7533 Q1079.46 32.5936 1074.64 32.5936 Q1068.93 32.5936 1065.57 36.4824 Q1062.21 40.3308 1062.21 46.9338 L1062.21 72.576 L1054.71 72.576 L1054.71 27.2059 L1062.21 27.2059 L1062.21 34.2544 Q1064.76 30.082 1068.32 28.0971 Q1071.89 26.1121 1076.79 26.1121 Q1081.73 26.1121 1085.18 28.6237 Q1088.66 31.1352 1090.32 35.9153 Z" fill="#000000" fill-rule="nonzero" fill-opacity="1"></path><path clip-path="url(#clip840)" d="M1161.9 9.54393 L1169.39 9.54393 L1169.39 46.7717 L1191.63 27.2059 L1201.15 27.2059 L1177.09 48.4326 L1202.17 72.576 L1192.44 72.576 L1169.39 50.4176 L1169.39 72.576 L1161.9 72.576 L1161.9 9.54393 Z" fill="#000000" fill-rule="nonzero" fill-opacity="1"></path><path clip-path="url(#clip840)" d="M1237.57 34.9026 L1289.5 34.9026 L1289.5 41.7081 L1237.57 41.7081 L1237.57 34.9026 M1237.57 51.4303 L1289.5 51.4303 L1289.5 58.3168 L1237.57 58.3168 L1237.57 51.4303 Z" fill="#000000" fill-rule="nonzero" fill-opacity="1"></path><path clip-path="url(#clip840)" d="M1356.02 19.2256 L1335.36 51.5113 L1356.02 51.5113 L1356.02 19.2256 M1353.87 12.096 L1364.16 12.096 L1364.16 51.5113 L1372.79 51.5113 L1372.79 58.3168 L1364.16 58.3168 L1364.16 72.576 L1356.02 72.576 L1356.02 58.3168 L1328.72 58.3168 L1328.72 50.4176 L1353.87 12.096 Z" fill="#000000" fill-rule="nonzero" fill-opacity="1"></path><path clip-path="url(#clip840)" d="M1387.17 62.2867 L1395.72 62.2867 L1395.72 69.2543 L1389.07 82.2172 L1383.85 82.2172 L1387.17 69.2543 L1387.17 62.2867 Z" fill="#000000" fill-rule="nonzero" fill-opacity="1"></path><path clip-path="url(#clip840)" d="M1474.59 14.0809 L1474.59 22.0612 Q1469.93 19.8332 1465.8 18.7395 Q1461.67 17.6457 1457.82 17.6457 Q1451.13 17.6457 1447.49 20.2383 Q1443.88 22.8309 1443.88 27.611 Q1443.88 31.6214 1446.27 33.6873 Q1448.7 35.7128 1455.43 36.9686 L1460.37 37.9813 Q1469.53 39.7232 1473.86 44.1387 Q1478.24 48.5136 1478.24 55.8863 Q1478.24 64.6767 1472.32 69.2137 Q1466.45 73.7508 1455.06 73.7508 Q1450.77 73.7508 1445.91 72.7785 Q1441.09 71.8063 1435.9 69.9024 L1435.9 61.4765 Q1440.89 64.2716 1445.67 65.6895 Q1450.45 67.1073 1455.06 67.1073 Q1462.07 67.1073 1465.88 64.3527 Q1469.69 61.598 1469.69 56.4939 Q1469.69 52.0379 1466.93 49.5264 Q1464.22 47.0148 1457.98 45.759 L1453 44.7868 Q1443.84 42.9639 1439.75 39.075 Q1435.66 35.1862 1435.66 28.2591 Q1435.66 20.2383 1441.29 15.6203 Q1446.96 11.0023 1456.89 11.0023 Q1461.14 11.0023 1465.56 11.7719 Q1469.97 12.5416 1474.59 14.0809 Z" fill="#000000" fill-rule="nonzero" fill-opacity="1"></path><path clip-path="url(#clip840)" d="M1518.02 34.9026 L1569.95 34.9026 L1569.95 41.7081 L1518.02 41.7081 L1518.02 34.9026 M1518.02 51.4303 L1569.95 51.4303 L1569.95 58.3168 L1518.02 58.3168 L1518.02 51.4303 Z" fill="#000000" fill-rule="nonzero" fill-opacity="1"></path><path clip-path="url(#clip840)" d="M1647.52 80.2727 L1647.52 86.106 L1645.01 86.106 Q1634.92 86.106 1631.48 83.1084 Q1628.08 80.1107 1628.08 71.1582 L1628.08 61.4765 Q1628.08 55.3597 1625.89 53.0101 Q1623.7 50.6606 1617.95 50.6606 L1615.48 50.6606 L1615.48 44.8678 L1617.95 44.8678 Q1623.74 44.8678 1625.89 42.5588 Q1628.08 40.2093 1628.08 34.1734 L1628.08 24.4513 Q1628.08 15.4988 1631.48 12.5416 Q1634.92 9.54393 1645.01 9.54393 L1647.52 9.54393 L1647.52 15.3367 L1644.77 15.3367 Q1639.06 15.3367 1637.31 17.1191 Q1635.57 18.9015 1635.57 24.6133 L1635.57 34.6595 Q1635.57 41.0195 1633.71 43.8956 Q1631.89 46.7717 1627.43 47.7845 Q1631.93 48.8782 1633.75 51.7544 Q1635.57 54.6305 1635.57 60.9499 L1635.57 70.9961 Q1635.57 76.7079 1637.31 78.4903 Q1639.06 80.2727 1644.77 80.2727 L1647.52 80.2727 Z" fill="#000000" fill-rule="nonzero" fill-opacity="1"></path><path clip-path="url(#clip840)" d="M1673.81 65.6895 L1702.37 65.6895 L1702.37 72.576 L1663.97 72.576 L1663.97 65.6895 Q1668.63 60.8689 1676.65 52.7671 Q1684.71 44.6248 1686.78 42.2752 Q1690.71 37.8598 1692.24 34.8216 Q1693.82 31.7429 1693.82 28.7857 Q1693.82 23.9651 1690.42 20.927 Q1687.06 17.8888 1681.63 17.8888 Q1677.78 17.8888 1673.49 19.2256 Q1669.24 20.5624 1664.37 23.2765 L1664.37 15.0127 Q1669.32 13.0277 1673.61 12.015 Q1677.9 11.0023 1681.47 11.0023 Q1690.87 11.0023 1696.46 15.7013 Q1702.05 20.4004 1702.05 28.2591 Q1702.05 31.9859 1700.63 35.3482 Q1699.25 38.6699 1695.57 43.2069 Q1694.55 44.3817 1689.13 50.0125 Q1683.7 55.6027 1673.81 65.6895 Z" fill="#000000" fill-rule="nonzero" fill-opacity="1"></path><path clip-path="url(#clip840)" d="M1720.4 62.2867 L1728.95 62.2867 L1728.95 69.2543 L1722.3 82.2172 L1717.08 82.2172 L1720.4 69.2543 L1720.4 62.2867 Z" fill="#000000" fill-rule="nonzero" fill-opacity="1"></path><path clip-path="url(#clip840)" d="M1764.43 39.075 Q1758.92 39.075 1755.68 42.8424 Q1752.48 46.6097 1752.48 53.1722 Q1752.48 59.6941 1755.68 63.502 Q1758.92 67.2693 1764.43 67.2693 Q1769.94 67.2693 1773.14 63.502 Q1776.38 59.6941 1776.38 53.1722 Q1776.38 46.6097 1773.14 42.8424 Q1769.94 39.075 1764.43 39.075 M1780.68 13.4328 L1780.68 20.8865 Q1777.6 19.4281 1774.44 18.6585 Q1771.32 17.8888 1768.24 17.8888 Q1760.14 17.8888 1755.84 23.3575 Q1751.59 28.8262 1750.98 39.8852 Q1753.37 36.3609 1756.98 34.4975 Q1760.58 32.5936 1764.92 32.5936 Q1774.03 32.5936 1779.3 38.1433 Q1784.61 43.6525 1784.61 53.1722 Q1784.61 62.4892 1779.1 68.12 Q1773.59 73.7508 1764.43 73.7508 Q1753.94 73.7508 1748.39 65.73 Q1742.84 57.6687 1742.84 42.3968 Q1742.84 28.0566 1749.65 19.5497 Q1756.45 11.0023 1767.92 11.0023 Q1770.99 11.0023 1774.11 11.6099 Q1777.27 12.2175 1780.68 13.4328 Z" fill="#000000" fill-rule="nonzero" fill-opacity="1"></path><path clip-path="url(#clip840)" d="M1799.55 62.2867 L1808.1 62.2867 L1808.1 69.2543 L1801.46 82.2172 L1796.23 82.2172 L1799.55 69.2543 L1799.55 62.2867 Z" fill="#000000" fill-rule="nonzero" fill-opacity="1"></path><path clip-path="url(#clip840)" d="M1825.32 71.3202 L1825.32 63.8666 Q1828.4 65.3249 1831.56 66.0946 Q1834.71 66.8642 1837.75 66.8642 Q1845.85 66.8642 1850.11 61.436 Q1854.4 55.9673 1855.01 44.8678 Q1852.66 48.3516 1849.06 50.215 Q1845.45 52.0784 1841.07 52.0784 Q1832 52.0784 1826.69 46.6097 Q1821.43 41.1005 1821.43 31.5808 Q1821.43 22.2638 1826.94 16.633 Q1832.45 11.0023 1841.6 11.0023 Q1852.09 11.0023 1857.6 19.0636 Q1863.15 27.0843 1863.15 42.3968 Q1863.15 56.6965 1856.35 65.2439 Q1849.58 73.7508 1838.12 73.7508 Q1835.04 73.7508 1831.88 73.1431 Q1828.72 72.5355 1825.32 71.3202 M1841.6 45.678 Q1847.11 45.678 1850.31 41.9107 Q1853.55 38.1433 1853.55 31.5808 Q1853.55 25.0589 1850.31 21.2916 Q1847.11 17.4837 1841.6 17.4837 Q1836.09 17.4837 1832.85 21.2916 Q1829.65 25.0589 1829.65 31.5808 Q1829.65 38.1433 1832.85 41.9107 Q1836.09 45.678 1841.6 45.678 Z" fill="#000000" fill-rule="nonzero" fill-opacity="1"></path><path clip-path="url(#clip840)" d="M1878.71 62.2867 L1887.26 62.2867 L1887.26 69.2543 L1880.61 82.2172 L1875.39 82.2172 L1878.71 69.2543 L1878.71 62.2867 Z" fill="#000000" fill-rule="nonzero" fill-opacity="1"></path><path clip-path="url(#clip840)" d="M1905.65 65.6895 L1919.01 65.6895 L1919.01 19.5497 L1904.47 22.4663 L1904.47 15.0127 L1918.93 12.096 L1927.12 12.096 L1927.12 65.6895 L1940.48 65.6895 L1940.48 72.576 L1905.65 72.576 L1905.65 65.6895 Z" fill="#000000" fill-rule="nonzero" fill-opacity="1"></path><path clip-path="url(#clip840)" d="M1974.51 17.4837 Q1968.19 17.4837 1964.99 23.7221 Q1961.83 29.92 1961.83 42.3968 Q1961.83 54.833 1964.99 61.0714 Q1968.19 67.2693 1974.51 67.2693 Q1980.87 67.2693 1984.03 61.0714 Q1987.23 54.833 1987.23 42.3968 Q1987.23 29.92 1984.03 23.7221 Q1980.87 17.4837 1974.51 17.4837 M1974.51 11.0023 Q1984.68 11.0023 1990.03 19.0636 Q1995.41 27.0843 1995.41 42.3968 Q1995.41 57.6687 1990.03 65.73 Q1984.68 73.7508 1974.51 73.7508 Q1964.34 73.7508 1958.96 65.73 Q1953.61 57.6687 1953.61 42.3968 Q1953.61 27.0843 1958.96 19.0636 Q1964.34 11.0023 1974.51 11.0023 Z" fill="#000000" fill-rule="nonzero" fill-opacity="1"></path><path clip-path="url(#clip840)" d="M2010.65 62.2867 L2019.19 62.2867 L2019.19 69.2543 L2012.55 82.2172 L2007.32 82.2172 L2010.65 69.2543 L2010.65 62.2867 Z" fill="#000000" fill-rule="nonzero" fill-opacity="1"></path><path clip-path="url(#clip840)" d="M2037.58 65.6895 L2050.95 65.6895 L2050.95 19.5497 L2036.41 22.4663 L2036.41 15.0127 L2050.87 12.096 L2059.05 12.096 L2059.05 65.6895 L2072.42 65.6895 L2072.42 72.576 L2037.58 72.576 L2037.58 65.6895 Z" fill="#000000" fill-rule="nonzero" fill-opacity="1"></path><path clip-path="url(#clip840)" d="M2090.37 65.6895 L2103.74 65.6895 L2103.74 19.5497 L2089.19 22.4663 L2089.19 15.0127 L2103.65 12.096 L2111.84 12.096 L2111.84 65.6895 L2125.21 65.6895 L2125.21 72.576 L2090.37 72.576 L2090.37 65.6895 Z" fill="#000000" fill-rule="nonzero" fill-opacity="1"></path><path clip-path="url(#clip840)" d="M2142.58 62.2867 L2151.13 62.2867 L2151.13 69.2543 L2144.49 82.2172 L2139.26 82.2172 L2142.58 69.2543 L2142.58 62.2867 Z" fill="#000000" fill-rule="nonzero" fill-opacity="1"></path><path clip-path="url(#clip840)" d="M2169.52 65.6895 L2182.89 65.6895 L2182.89 19.5497 L2168.35 22.4663 L2168.35 15.0127 L2182.81 12.096 L2190.99 12.096 L2190.99 65.6895 L2204.36 65.6895 L2204.36 72.576 L2169.52 72.576 L2169.52 65.6895 Z" fill="#000000" fill-rule="nonzero" fill-opacity="1"></path><path clip-path="url(#clip840)" d="M2227.94 65.6895 L2256.5 65.6895 L2256.5 72.576 L2218.09 72.576 L2218.09 65.6895 Q2222.75 60.8689 2230.77 52.7671 Q2238.83 44.6248 2240.9 42.2752 Q2244.83 37.8598 2246.37 34.8216 Q2247.95 31.7429 2247.95 28.7857 Q2247.95 23.9651 2244.54 20.927 Q2241.18 17.8888 2235.75 17.8888 Q2231.91 17.8888 2227.61 19.2256 Q2223.36 20.5624 2218.5 23.2765 L2218.5 15.0127 Q2223.44 13.0277 2227.73 12.015 Q2232.03 11.0023 2235.59 11.0023 Q2244.99 11.0023 2250.58 15.7013 Q2256.17 20.4004 2256.17 28.2591 Q2256.17 31.9859 2254.75 35.3482 Q2253.38 38.6699 2249.69 43.2069 Q2248.68 44.3817 2243.25 50.0125 Q2237.82 55.6027 2227.94 65.6895 Z" fill="#000000" fill-rule="nonzero" fill-opacity="1"></path><path clip-path="url(#clip840)" d="M2274.52 62.2867 L2283.07 62.2867 L2283.07 69.2543 L2276.43 82.2172 L2271.2 82.2172 L2274.52 69.2543 L2274.52 62.2867 Z" fill="#000000" fill-rule="nonzero" fill-opacity="1"></path><path clip-path="url(#clip840)" d="M2301.46 65.6895 L2314.83 65.6895 L2314.83 19.5497 L2300.29 22.4663 L2300.29 15.0127 L2314.75 12.096 L2322.93 12.096 L2322.93 65.6895 L2336.3 65.6895 L2336.3 72.576 L2301.46 72.576 L2301.46 65.6895 Z" fill="#000000" fill-rule="nonzero" fill-opacity="1"></path><path clip-path="url(#clip840)" d="M2352.91 12.096 L2385.03 12.096 L2385.03 18.9825 L2360.4 18.9825 L2360.4 33.8088 Q2362.18 33.2012 2363.97 32.9176 Q2365.75 32.5936 2367.53 32.5936 Q2377.66 32.5936 2383.57 38.1433 Q2389.49 43.6931 2389.49 53.1722 Q2389.49 62.9348 2383.41 68.3631 Q2377.33 73.7508 2366.27 73.7508 Q2362.47 73.7508 2358.5 73.1026 Q2354.57 72.4545 2350.35 71.1582 L2350.35 62.9348 Q2354 64.9198 2357.89 65.892 Q2361.78 66.8642 2366.11 66.8642 Q2373.12 66.8642 2377.21 63.1779 Q2381.3 59.4916 2381.3 53.1722 Q2381.3 46.8528 2377.21 43.1664 Q2373.12 39.4801 2366.11 39.4801 Q2362.83 39.4801 2359.55 40.2093 Q2356.31 40.9384 2352.91 42.4778 L2352.91 12.096 Z" fill="#000000" fill-rule="nonzero" fill-opacity="1"></path><path clip-path="url(#clip840)" d="M2406.46 62.2867 L2415.01 62.2867 L2415.01 69.2543 L2408.36 82.2172 L2403.14 82.2172 L2406.46 69.2543 L2406.46 62.2867 Z" fill="#000000" fill-rule="nonzero" fill-opacity="1"></path><path clip-path="url(#clip840)" d="M2433.4 65.6895 L2446.77 65.6895 L2446.77 19.5497 L2432.22 22.4663 L2432.22 15.0127 L2446.69 12.096 L2454.87 12.096 L2454.87 65.6895 L2468.24 65.6895 L2468.24 72.576 L2433.4 72.576 L2433.4 65.6895 Z" fill="#000000" fill-rule="nonzero" fill-opacity="1"></path><path clip-path="url(#clip840)" d="M2503.28 39.075 Q2497.77 39.075 2494.53 42.8424 Q2491.33 46.6097 2491.33 53.1722 Q2491.33 59.6941 2494.53 63.502 Q2497.77 67.2693 2503.28 67.2693 Q2508.79 67.2693 2511.99 63.502 Q2515.23 59.6941 2515.23 53.1722 Q2515.23 46.6097 2511.99 42.8424 Q2508.79 39.075 2503.28 39.075 M2519.52 13.4328 L2519.52 20.8865 Q2516.44 19.4281 2513.28 18.6585 Q2510.16 17.8888 2507.08 17.8888 Q2498.98 17.8888 2494.69 23.3575 Q2490.43 28.8262 2489.83 39.8852 Q2492.22 36.3609 2495.82 34.4975 Q2499.43 32.5936 2503.76 32.5936 Q2512.88 32.5936 2518.14 38.1433 Q2523.45 43.6525 2523.45 53.1722 Q2523.45 62.4892 2517.94 68.12 Q2512.43 73.7508 2503.28 73.7508 Q2492.78 73.7508 2487.23 65.73 Q2481.68 57.6687 2481.68 42.3968 Q2481.68 28.0566 2488.49 19.5497 Q2495.3 11.0023 2506.76 11.0023 Q2509.84 11.0023 2512.96 11.6099 Q2516.12 12.2175 2519.52 13.4328 Z" fill="#000000" fill-rule="nonzero" fill-opacity="1"></path><path clip-path="url(#clip840)" d="M2539.05 80.2727 L2541.88 80.2727 Q2547.55 80.2727 2549.25 78.5308 Q2551 76.7889 2551 70.9961 L2551 60.9499 Q2551 54.6305 2552.82 51.7544 Q2554.64 48.8782 2559.14 47.7845 Q2554.64 46.7717 2552.82 43.8956 Q2551 41.0195 2551 34.6595 L2551 24.6133 Q2551 18.861 2549.25 17.1191 Q2547.55 15.3367 2541.88 15.3367 L2539.05 15.3367 L2539.05 9.54393 L2541.6 9.54393 Q2551.68 9.54393 2555.05 12.5416 Q2558.45 15.4988 2558.45 24.4513 L2558.45 34.1734 Q2558.45 40.2093 2560.64 42.5588 Q2562.82 44.8678 2568.58 44.8678 L2571.09 44.8678 L2571.09 50.6606 L2568.58 50.6606 Q2562.82 50.6606 2560.64 53.0101 Q2558.45 55.3597 2558.45 61.4765 L2558.45 71.1582 Q2558.45 80.1107 2555.05 83.1084 Q2551.68 86.106 2541.6 86.106 L2539.05 86.106 L2539.05 80.2727 Z" fill="#000000" fill-rule="nonzero" fill-opacity="1"></path><polyline clip-path="url(#clip842)" style="stroke:#009af9; stroke-linecap:round; stroke-linejoin:round; stroke-width:8.8; stroke-opacity:1; fill:none" points="314.758,380.743 927.055,380.138 1845.5,637.796 2457.8,503.372 3070.1,579.532 "></polyline>
<polyline clip-path="url(#clip842)" style="stroke:#e26f46; stroke-linecap:round; stroke-linejoin:round; stroke-width:8.8; stroke-opacity:1; fill:none" points="314.758,352.428 927.055,127.117 1845.5,402.672 2457.8,295.797 3070.1,72.8629 "></polyline>
<polyline clip-path="url(#clip842)" style="stroke:#3da44d; stroke-linecap:round; stroke-linejoin:round; stroke-width:8.8; stroke-opacity:1; fill:none" points="314.758,416.138 927.055,485.563 1845.5,381.297 2457.8,565.644 3070.1,488.332 "></polyline>
<polyline clip-path="url(#clip842)" style="stroke:#c271d2; stroke-linecap:round; stroke-linejoin:round; stroke-width:8.8; stroke-opacity:1; fill:none" points="314.758,285.179 927.055,258.898 1845.5,178.235 2457.8,223.146 3070.1,488.332 "></polyline>
<polyline clip-path="url(#clip842)" style="stroke:#000000; stroke-linecap:round; stroke-linejoin:round; stroke-width:4; stroke-opacity:1; fill:none" stroke-dasharray="16, 10" points="-2688.56,281.847 6073.41,281.847 "></polyline>
</svg>