<svg xmlns="http://www.w3.org/2000/svg" xmlns:xlink="http://www.w3.org/1999/xlink" width="800" height="200" viewBox="0 0 3200 800">
<defs>
  <clipPath id="clip360">
    <rect x="0" y="0" width="3200" height="800"></rect>
  </clipPath>
</defs>
<path clip-path="url(#clip360)" d="M0 800 L3200 800 L3200 0 L0 0  Z" fill="#ffffff" fill-rule="evenodd" fill-opacity="1"></path>
<defs>
  <clipPath id="clip361">
    <rect x="640" y="0" width="2241" height="800"></rect>
  </clipPath>
</defs>
<path clip-path="url(#clip360)" d="M262.746 716.048 L3152.76 716.048 L3152.76 85.6721 L262.746 85.6721  Z" fill="#ffffff" fill-rule="evenodd" fill-opacity="1"></path>
<defs>
  <clipPath id="clip362">
    <rect x="262" y="85" width="2891" height="631"></rect>
  </clipPath>
</defs>
<polyline clip-path="url(#clip362)" style="stroke:#000000; stroke-linecap:round; stroke-linejoin:round; stroke-width:2; stroke-opacity:0.1; fill:none" points="344.539,716.048 344.539,85.6721 "></polyline>
<polyline clip-path="url(#clip362)" style="stroke:#000000; stroke-linecap:round; stroke-linejoin:round; stroke-width:2; stroke-opacity:0.1; fill:none" points="1101.88,716.048 1101.88,85.6721 "></polyline>
<polyline clip-path="url(#clip362)" style="stroke:#000000; stroke-linecap:round; stroke-linejoin:round; stroke-width:2; stroke-opacity:0.1; fill:none" points="1859.22,716.048 1859.22,85.6721 "></polyline>
<polyline clip-path="url(#clip362)" style="stroke:#000000; stroke-linecap:round; stroke-linejoin:round; stroke-width:2; stroke-opacity:0.1; fill:none" points="2616.56,716.048 2616.56,85.6721 "></polyline>
<polyline clip-path="url(#clip362)" style="stroke:#000000; stroke-linecap:round; stroke-linejoin:round; stroke-width:2; stroke-opacity:0.1; fill:none" points="262.746,646.006 3152.76,646.006 "></polyline>
<polyline clip-path="url(#clip362)" style="stroke:#000000; stroke-linecap:round; stroke-linejoin:round; stroke-width:2; stroke-opacity:0.1; fill:none" points="262.746,505.923 3152.76,505.923 "></polyline>
<polyline clip-path="url(#clip362)" style="stroke:#000000; stroke-linecap:round; stroke-linejoin:round; stroke-width:2; stroke-opacity:0.1; fill:none" points="262.746,365.839 3152.76,365.839 "></polyline>
<polyline clip-path="url(#clip362)" style="stroke:#000000; stroke-linecap:round; stroke-linejoin:round; stroke-width:2; stroke-opacity:0.1; fill:none" points="262.746,225.756 3152.76,225.756 "></polyline>
<polyline clip-path="url(#clip362)" style="stroke:#000000; stroke-linecap:round; stroke-linejoin:round; stroke-width:2; stroke-opacity:0.1; fill:none" points="262.746,85.6721 3152.76,85.6721 "></polyline>
<polyline clip-path="url(#clip360)" style="stroke:#000000; stroke-linecap:round; stroke-linejoin:round; stroke-width:4; stroke-opacity:1; fill:none" points="262.746,716.048 3152.76,716.048 "></polyline>
<polyline clip-path="url(#clip360)" style="stroke:#000000; stroke-linecap:round; stroke-linejoin:round; stroke-width:4; stroke-opacity:1; fill:none" points="344.539,716.048 344.539,697.15 "></polyline>
<polyline clip-path="url(#clip360)" style="stroke:#000000; stroke-linecap:round; stroke-linejoin:round; stroke-width:4; stroke-opacity:1; fill:none" points="1101.88,716.048 1101.88,697.15 "></polyline>
<polyline clip-path="url(#clip360)" style="stroke:#000000; stroke-linecap:round; stroke-linejoin:round; stroke-width:4; stroke-opacity:1; fill:none" points="1859.22,716.048 1859.22,697.15 "></polyline>
<polyline clip-path="url(#clip360)" style="stroke:#000000; stroke-linecap:round; stroke-linejoin:round; stroke-width:4; stroke-opacity:1; fill:none" points="2616.56,716.048 2616.56,697.15 "></polyline>
<path clip-path="url(#clip360)" d="M334.816 750.288 L353.173 750.288 L353.173 754.223 L339.099 754.223 L339.099 762.695 Q340.117 762.348 341.136 762.186 Q342.154 762.001 343.173 762.001 Q348.96 762.001 352.339 765.172 Q355.719 768.343 355.719 773.76 Q355.719 779.339 352.247 782.44 Q348.775 785.519 342.455 785.519 Q340.279 785.519 338.011 785.149 Q335.765 784.778 333.358 784.038 L333.358 779.339 Q335.441 780.473 337.664 781.028 Q339.886 781.584 342.363 781.584 Q346.367 781.584 348.705 779.478 Q351.043 777.371 351.043 773.76 Q351.043 770.149 348.705 768.042 Q346.367 765.936 342.363 765.936 Q340.488 765.936 338.613 766.353 Q336.761 766.769 334.816 767.649 L334.816 750.288 Z" fill="#000000" fill-rule="nonzero" fill-opacity="1"></path><path clip-path="url(#clip360)" d="M1076.57 780.913 L1084.21 780.913 L1084.21 754.547 L1075.9 756.214 L1075.9 751.955 L1084.16 750.288 L1088.83 750.288 L1088.83 780.913 L1096.47 780.913 L1096.47 784.848 L1076.57 784.848 L1076.57 780.913 Z" fill="#000000" fill-rule="nonzero" fill-opacity="1"></path><path clip-path="url(#clip360)" d="M1115.92 753.367 Q1112.31 753.367 1110.48 756.931 Q1108.67 760.473 1108.67 767.603 Q1108.67 774.709 1110.48 778.274 Q1112.31 781.815 1115.92 781.815 Q1119.55 781.815 1121.36 778.274 Q1123.19 774.709 1123.19 767.603 Q1123.19 760.473 1121.36 756.931 Q1119.55 753.367 1115.92 753.367 M1115.92 749.663 Q1121.73 749.663 1124.78 754.269 Q1127.86 758.853 1127.86 767.603 Q1127.86 776.329 1124.78 780.936 Q1121.73 785.519 1115.92 785.519 Q1110.11 785.519 1107.03 780.936 Q1103.97 776.329 1103.97 767.603 Q1103.97 758.853 1107.03 754.269 Q1110.11 749.663 1115.92 749.663 Z" fill="#000000" fill-rule="nonzero" fill-opacity="1"></path><path clip-path="url(#clip360)" d="M1834.4 780.913 L1842.04 780.913 L1842.04 754.547 L1833.73 756.214 L1833.73 751.955 L1842 750.288 L1846.67 750.288 L1846.67 780.913 L1854.31 780.913 L1854.31 784.848 L1834.4 784.848 L1834.4 780.913 Z" fill="#000000" fill-rule="nonzero" fill-opacity="1"></path><path clip-path="url(#clip360)" d="M1863.8 750.288 L1882.16 750.288 L1882.16 754.223 L1868.08 754.223 L1868.08 762.695 Q1869.1 762.348 1870.12 762.186 Q1871.14 762.001 1872.16 762.001 Q1877.95 762.001 1881.33 765.172 Q1884.7 768.343 1884.7 773.76 Q1884.7 779.339 1881.23 782.44 Q1877.76 785.519 1871.44 785.519 Q1869.27 785.519 1867 785.149 Q1864.75 784.778 1862.34 784.038 L1862.34 779.339 Q1864.43 780.473 1866.65 781.028 Q1868.87 781.584 1871.35 781.584 Q1875.35 781.584 1877.69 779.478 Q1880.03 777.371 1880.03 773.76 Q1880.03 770.149 1877.69 768.042 Q1875.35 765.936 1871.35 765.936 Q1869.47 765.936 1867.6 766.353 Q1865.75 766.769 1863.8 767.649 L1863.8 750.288 Z" fill="#000000" fill-rule="nonzero" fill-opacity="1"></path><path clip-path="url(#clip360)" d="M2595.33 780.913 L2611.65 780.913 L2611.65 784.848 L2589.71 784.848 L2589.71 780.913 Q2592.37 778.158 2596.95 773.528 Q2601.56 768.876 2602.74 767.533 Q2604.99 765.01 2605.86 763.274 Q2606.77 761.515 2606.77 759.825 Q2606.77 757.07 2604.82 755.334 Q2602.9 753.598 2599.8 753.598 Q2597.6 753.598 2595.15 754.362 Q2592.72 755.126 2589.94 756.677 L2589.94 751.955 Q2592.76 750.82 2595.22 750.242 Q2597.67 749.663 2599.71 749.663 Q2605.08 749.663 2608.27 752.348 Q2611.47 755.033 2611.47 759.524 Q2611.47 761.654 2610.66 763.575 Q2609.87 765.473 2607.76 768.066 Q2607.18 768.737 2604.08 771.954 Q2600.98 775.149 2595.33 780.913 Z" fill="#000000" fill-rule="nonzero" fill-opacity="1"></path><path clip-path="url(#clip360)" d="M2631.47 753.367 Q2627.86 753.367 2626.03 756.931 Q2624.22 760.473 2624.22 767.603 Q2624.22 774.709 2626.03 778.274 Q2627.86 781.815 2631.47 781.815 Q2635.1 781.815 2636.91 778.274 Q2638.73 774.709 2638.73 767.603 Q2638.73 760.473 2636.91 756.931 Q2635.1 753.367 2631.47 753.367 M2631.47 749.663 Q2637.28 749.663 2640.33 754.269 Q2643.41 758.853 2643.41 767.603 Q2643.41 776.329 2640.33 780.936 Q2637.28 785.519 2631.47 785.519 Q2625.66 785.519 2622.58 780.936 Q2619.52 776.329 2619.52 767.603 Q2619.52 758.853 2622.58 754.269 Q2625.66 749.663 2631.47 749.663 Z" fill="#000000" fill-rule="nonzero" fill-opacity="1"></path><polyline clip-path="url(#clip360)" style="stroke:#000000; stroke-linecap:round; stroke-linejoin:round; stroke-width:4; stroke-opacity:1; fill:none" points="262.746,716.048 262.746,85.6721 "></polyline>
<polyline clip-path="url(#clip360)" style="stroke:#000000; stroke-linecap:round; stroke-linejoin:round; stroke-width:4; stroke-opacity:1; fill:none" points="262.746,646.006 281.643,646.006 "></polyline>
<polyline clip-path="url(#clip360)" style="stroke:#000000; stroke-linecap:round; stroke-linejoin:round; stroke-width:4; stroke-opacity:1; fill:none" points="262.746,505.923 281.643,505.923 "></polyline>
<polyline clip-path="url(#clip360)" style="stroke:#000000; stroke-linecap:round; stroke-linejoin:round; stroke-width:4; stroke-opacity:1; fill:none" points="262.746,365.839 281.643,365.839 "></polyline>
<polyline clip-path="url(#clip360)" style="stroke:#000000; stroke-linecap:round; stroke-linejoin:round; stroke-width:4; stroke-opacity:1; fill:none" points="262.746,225.756 281.643,225.756 "></polyline>
<polyline clip-path="url(#clip360)" style="stroke:#000000; stroke-linecap:round; stroke-linejoin:round; stroke-width:4; stroke-opacity:1; fill:none" points="262.746,85.6721 281.643,85.6721 "></polyline>
<path clip-path="url(#clip360)" d="M47.3162 646.458 L76.992 646.458 L76.992 650.393 L47.3162 650.393 L47.3162 646.458 Z" fill="#000000" fill-rule="nonzero" fill-opacity="1"></path><path clip-path="url(#clip360)" d="M97.0845 631.805 Q93.4734 631.805 91.6447 635.37 Q89.8391 638.911 89.8391 646.041 Q89.8391 653.147 91.6447 656.712 Q93.4734 660.254 97.0845 660.254 Q100.719 660.254 102.524 656.712 Q104.353 653.147 104.353 646.041 Q104.353 638.911 102.524 635.37 Q100.719 631.805 97.0845 631.805 M97.0845 628.101 Q102.895 628.101 105.95 632.708 Q109.029 637.291 109.029 646.041 Q109.029 654.768 105.95 659.374 Q102.895 663.957 97.0845 663.957 Q91.2743 663.957 88.1956 659.374 Q85.1401 654.768 85.1401 646.041 Q85.1401 637.291 88.1956 632.708 Q91.2743 628.101 97.0845 628.101 Z" fill="#000000" fill-rule="nonzero" fill-opacity="1"></path><path clip-path="url(#clip360)" d="M117.246 657.407 L122.131 657.407 L122.131 663.286 L117.246 663.286 L117.246 657.407 Z" fill="#000000" fill-rule="nonzero" fill-opacity="1"></path><path clip-path="url(#clip360)" d="M142.316 631.805 Q138.705 631.805 136.876 635.37 Q135.07 638.911 135.07 646.041 Q135.07 653.147 136.876 656.712 Q138.705 660.254 142.316 660.254 Q145.95 660.254 147.755 656.712 Q149.584 653.147 149.584 646.041 Q149.584 638.911 147.755 635.37 Q145.95 631.805 142.316 631.805 M142.316 628.101 Q148.126 628.101 151.181 632.708 Q154.26 637.291 154.26 646.041 Q154.26 654.768 151.181 659.374 Q148.126 663.957 142.316 663.957 Q136.506 663.957 133.427 659.374 Q130.371 654.768 130.371 646.041 Q130.371 637.291 133.427 632.708 Q136.506 628.101 142.316 628.101 Z" fill="#000000" fill-rule="nonzero" fill-opacity="1"></path><path clip-path="url(#clip360)" d="M175.325 632.8 L163.519 651.249 L175.325 651.249 L175.325 632.8 M174.098 628.726 L179.978 628.726 L179.978 651.249 L184.908 651.249 L184.908 655.138 L179.978 655.138 L179.978 663.286 L175.325 663.286 L175.325 655.138 L159.723 655.138 L159.723 650.624 L174.098 628.726 Z" fill="#000000" fill-rule="nonzero" fill-opacity="1"></path><path clip-path="url(#clip360)" d="M203.218 644.143 Q200.07 644.143 198.218 646.295 Q196.389 648.448 196.389 652.198 Q196.389 655.925 198.218 658.101 Q200.07 660.254 203.218 660.254 Q206.366 660.254 208.195 658.101 Q210.047 655.925 210.047 652.198 Q210.047 648.448 208.195 646.295 Q206.366 644.143 203.218 644.143 M212.5 629.49 L212.5 633.749 Q210.741 632.916 208.936 632.476 Q207.153 632.036 205.394 632.036 Q200.764 632.036 198.311 635.161 Q195.88 638.286 195.533 644.606 Q196.899 642.592 198.959 641.527 Q201.019 640.439 203.496 640.439 Q208.704 640.439 211.713 643.61 Q214.746 646.758 214.746 652.198 Q214.746 657.522 211.598 660.74 Q208.45 663.957 203.218 663.957 Q197.223 663.957 194.052 659.374 Q190.88 654.768 190.88 646.041 Q190.88 637.846 194.769 632.985 Q198.658 628.101 205.209 628.101 Q206.968 628.101 208.751 628.448 Q210.556 628.796 212.5 629.49 Z" fill="#000000" fill-rule="nonzero" fill-opacity="1"></path><path clip-path="url(#clip360)" d="M46.9921 506.374 L76.6679 506.374 L76.6679 510.309 L46.9921 510.309 L46.9921 506.374 Z" fill="#000000" fill-rule="nonzero" fill-opacity="1"></path><path clip-path="url(#clip360)" d="M96.7604 491.721 Q93.1493 491.721 91.3206 495.286 Q89.515 498.828 89.515 505.957 Q89.515 513.064 91.3206 516.629 Q93.1493 520.17 96.7604 520.17 Q100.395 520.17 102.2 516.629 Q104.029 513.064 104.029 505.957 Q104.029 498.828 102.2 495.286 Q100.395 491.721 96.7604 491.721 M96.7604 488.018 Q102.571 488.018 105.626 492.624 Q108.705 497.207 108.705 505.957 Q108.705 514.684 105.626 519.291 Q102.571 523.874 96.7604 523.874 Q90.9502 523.874 87.8715 519.291 Q84.816 514.684 84.816 505.957 Q84.816 497.207 87.8715 492.624 Q90.9502 488.018 96.7604 488.018 Z" fill="#000000" fill-rule="nonzero" fill-opacity="1"></path><path clip-path="url(#clip360)" d="M116.922 517.323 L121.807 517.323 L121.807 523.203 L116.922 523.203 L116.922 517.323 Z" fill="#000000" fill-rule="nonzero" fill-opacity="1"></path><path clip-path="url(#clip360)" d="M141.992 491.721 Q138.381 491.721 136.552 495.286 Q134.746 498.828 134.746 505.957 Q134.746 513.064 136.552 516.629 Q138.381 520.17 141.992 520.17 Q145.626 520.17 147.431 516.629 Q149.26 513.064 149.26 505.957 Q149.26 498.828 147.431 495.286 Q145.626 491.721 141.992 491.721 M141.992 488.018 Q147.802 488.018 150.857 492.624 Q153.936 497.207 153.936 505.957 Q153.936 514.684 150.857 519.291 Q147.802 523.874 141.992 523.874 Q136.181 523.874 133.103 519.291 Q130.047 514.684 130.047 505.957 Q130.047 497.207 133.103 492.624 Q136.181 488.018 141.992 488.018 Z" fill="#000000" fill-rule="nonzero" fill-opacity="1"></path><path clip-path="url(#clip360)" d="M175.001 492.717 L163.195 511.166 L175.001 511.166 L175.001 492.717 M173.774 488.643 L179.653 488.643 L179.653 511.166 L184.584 511.166 L184.584 515.055 L179.653 515.055 L179.653 523.203 L175.001 523.203 L175.001 515.055 L159.399 515.055 L159.399 510.541 L173.774 488.643 Z" fill="#000000" fill-rule="nonzero" fill-opacity="1"></path><path clip-path="url(#clip360)" d="M205.163 492.717 L193.357 511.166 L205.163 511.166 L205.163 492.717 M203.936 488.643 L209.815 488.643 L209.815 511.166 L214.746 511.166 L214.746 515.055 L209.815 515.055 L209.815 523.203 L205.163 523.203 L205.163 515.055 L189.561 515.055 L189.561 510.541 L203.936 488.643 Z" fill="#000000" fill-rule="nonzero" fill-opacity="1"></path><path clip-path="url(#clip360)" d="M49.0754 366.291 L78.7512 366.291 L78.7512 370.226 L49.0754 370.226 L49.0754 366.291 Z" fill="#000000" fill-rule="nonzero" fill-opacity="1"></path><path clip-path="url(#clip360)" d="M98.8437 351.638 Q95.2326 351.638 93.4039 355.203 Q91.5984 358.744 91.5984 365.874 Q91.5984 372.98 93.4039 376.545 Q95.2326 380.087 98.8437 380.087 Q102.478 380.087 104.283 376.545 Q106.112 372.98 106.112 365.874 Q106.112 358.744 104.283 355.203 Q102.478 351.638 98.8437 351.638 M98.8437 347.934 Q104.654 347.934 107.709 352.541 Q110.788 357.124 110.788 365.874 Q110.788 374.601 107.709 379.207 Q104.654 383.79 98.8437 383.79 Q93.0335 383.79 89.9549 379.207 Q86.8993 374.601 86.8993 365.874 Q86.8993 357.124 89.9549 352.541 Q93.0335 347.934 98.8437 347.934 Z" fill="#000000" fill-rule="nonzero" fill-opacity="1"></path><path clip-path="url(#clip360)" d="M119.006 377.24 L123.89 377.24 L123.89 383.119 L119.006 383.119 L119.006 377.24 Z" fill="#000000" fill-rule="nonzero" fill-opacity="1"></path><path clip-path="url(#clip360)" d="M144.075 351.638 Q140.464 351.638 138.635 355.203 Q136.83 358.744 136.83 365.874 Q136.83 372.98 138.635 376.545 Q140.464 380.087 144.075 380.087 Q147.709 380.087 149.515 376.545 Q151.343 372.98 151.343 365.874 Q151.343 358.744 149.515 355.203 Q147.709 351.638 144.075 351.638 M144.075 347.934 Q149.885 347.934 152.941 352.541 Q156.019 357.124 156.019 365.874 Q156.019 374.601 152.941 379.207 Q149.885 383.79 144.075 383.79 Q138.265 383.79 135.186 379.207 Q132.131 374.601 132.131 365.874 Q132.131 357.124 135.186 352.541 Q138.265 347.934 144.075 347.934 Z" fill="#000000" fill-rule="nonzero" fill-opacity="1"></path><path clip-path="url(#clip360)" d="M177.084 352.633 L165.279 371.082 L177.084 371.082 L177.084 352.633 M175.857 348.559 L181.737 348.559 L181.737 371.082 L186.667 371.082 L186.667 374.971 L181.737 374.971 L181.737 383.119 L177.084 383.119 L177.084 374.971 L161.482 374.971 L161.482 370.457 L175.857 348.559 Z" fill="#000000" fill-rule="nonzero" fill-opacity="1"></path><path clip-path="url(#clip360)" d="M198.426 379.184 L214.746 379.184 L214.746 383.119 L192.802 383.119 L192.802 379.184 Q195.464 376.429 200.047 371.8 Q204.653 367.147 205.834 365.804 Q208.079 363.281 208.959 361.545 Q209.862 359.786 209.862 358.096 Q209.862 355.341 207.917 353.605 Q205.996 351.869 202.894 351.869 Q200.695 351.869 198.241 352.633 Q195.811 353.397 193.033 354.948 L193.033 350.226 Q195.857 349.092 198.311 348.513 Q200.764 347.934 202.801 347.934 Q208.172 347.934 211.366 350.619 Q214.561 353.304 214.561 357.795 Q214.561 359.925 213.75 361.846 Q212.963 363.744 210.857 366.337 Q210.278 367.008 207.176 370.226 Q204.075 373.42 198.426 379.184 Z" fill="#000000" fill-rule="nonzero" fill-opacity="1"></path><path clip-path="url(#clip360)" d="M47.4782 226.207 L77.154 226.207 L77.154 230.142 L47.4782 230.142 L47.4782 226.207 Z" fill="#000000" fill-rule="nonzero" fill-opacity="1"></path><path clip-path="url(#clip360)" d="M97.2465 211.554 Q93.6354 211.554 91.8067 215.119 Q90.0012 218.661 90.0012 225.79 Q90.0012 232.897 91.8067 236.462 Q93.6354 240.003 97.2465 240.003 Q100.881 240.003 102.686 236.462 Q104.515 232.897 104.515 225.79 Q104.515 218.661 102.686 215.119 Q100.881 211.554 97.2465 211.554 M97.2465 207.851 Q103.057 207.851 106.112 212.457 Q109.191 217.04 109.191 225.79 Q109.191 234.517 106.112 239.124 Q103.057 243.707 97.2465 243.707 Q91.4363 243.707 88.3576 239.124 Q85.3021 234.517 85.3021 225.79 Q85.3021 217.04 88.3576 212.457 Q91.4363 207.851 97.2465 207.851 Z" fill="#000000" fill-rule="nonzero" fill-opacity="1"></path><path clip-path="url(#clip360)" d="M117.408 237.156 L122.293 237.156 L122.293 243.036 L117.408 243.036 L117.408 237.156 Z" fill="#000000" fill-rule="nonzero" fill-opacity="1"></path><path clip-path="url(#clip360)" d="M142.478 211.554 Q138.867 211.554 137.038 215.119 Q135.232 218.661 135.232 225.79 Q135.232 232.897 137.038 236.462 Q138.867 240.003 142.478 240.003 Q146.112 240.003 147.918 236.462 Q149.746 232.897 149.746 225.79 Q149.746 218.661 147.918 215.119 Q146.112 211.554 142.478 211.554 M142.478 207.851 Q148.288 207.851 151.343 212.457 Q154.422 217.04 154.422 225.79 Q154.422 234.517 151.343 239.124 Q148.288 243.707 142.478 243.707 Q136.668 243.707 133.589 239.124 Q130.533 234.517 130.533 225.79 Q130.533 217.04 133.589 212.457 Q136.668 207.851 142.478 207.851 Z" fill="#000000" fill-rule="nonzero" fill-opacity="1"></path><path clip-path="url(#clip360)" d="M175.487 212.55 L163.681 230.999 L175.487 230.999 L175.487 212.55 M174.26 208.476 L180.14 208.476 L180.14 230.999 L185.07 230.999 L185.07 234.888 L180.14 234.888 L180.14 243.036 L175.487 243.036 L175.487 234.888 L159.885 234.888 L159.885 230.374 L174.26 208.476 Z" fill="#000000" fill-rule="nonzero" fill-opacity="1"></path><path clip-path="url(#clip360)" d="M202.801 211.554 Q199.19 211.554 197.362 215.119 Q195.556 218.661 195.556 225.79 Q195.556 232.897 197.362 236.462 Q199.19 240.003 202.801 240.003 Q206.436 240.003 208.241 236.462 Q210.07 232.897 210.07 225.79 Q210.07 218.661 208.241 215.119 Q206.436 211.554 202.801 211.554 M202.801 207.851 Q208.612 207.851 211.667 212.457 Q214.746 217.04 214.746 225.79 Q214.746 234.517 211.667 239.124 Q208.612 243.707 202.801 243.707 Q196.991 243.707 193.913 239.124 Q190.857 234.517 190.857 225.79 Q190.857 217.04 193.913 212.457 Q196.991 207.851 202.801 207.851 Z" fill="#000000" fill-rule="nonzero" fill-opacity="1"></path><path clip-path="url(#clip360)" d="M47.5708 86.1235 L77.2466 86.1235 L77.2466 90.0587 L47.5708 90.0587 L47.5708 86.1235 Z" fill="#000000" fill-rule="nonzero" fill-opacity="1"></path><path clip-path="url(#clip360)" d="M97.3391 71.4708 Q93.728 71.4708 91.8993 75.0356 Q90.0937 78.5773 90.0937 85.7068 Q90.0937 92.8133 91.8993 96.3781 Q93.728 99.9197 97.3391 99.9197 Q100.973 99.9197 102.779 96.3781 Q104.608 92.8133 104.608 85.7068 Q104.608 78.5773 102.779 75.0356 Q100.973 71.4708 97.3391 71.4708 M97.3391 67.7671 Q103.149 67.7671 106.205 72.3736 Q109.283 76.9569 109.283 85.7068 Q109.283 94.4337 106.205 99.0401 Q103.149 103.623 97.3391 103.623 Q91.5289 103.623 88.4502 99.0401 Q85.3947 94.4337 85.3947 85.7068 Q85.3947 76.9569 88.4502 72.3736 Q91.5289 67.7671 97.3391 67.7671 Z" fill="#000000" fill-rule="nonzero" fill-opacity="1"></path><path clip-path="url(#clip360)" d="M117.501 97.0725 L122.385 97.0725 L122.385 102.952 L117.501 102.952 L117.501 97.0725 Z" fill="#000000" fill-rule="nonzero" fill-opacity="1"></path><path clip-path="url(#clip360)" d="M142.57 71.4708 Q138.959 71.4708 137.131 75.0356 Q135.325 78.5773 135.325 85.7068 Q135.325 92.8133 137.131 96.3781 Q138.959 99.9197 142.57 99.9197 Q146.205 99.9197 148.01 96.3781 Q149.839 92.8133 149.839 85.7068 Q149.839 78.5773 148.01 75.0356 Q146.205 71.4708 142.57 71.4708 M142.57 67.7671 Q148.38 67.7671 151.436 72.3736 Q154.515 76.9569 154.515 85.7068 Q154.515 94.4337 151.436 99.0401 Q148.38 103.623 142.57 103.623 Q136.76 103.623 133.681 99.0401 Q130.626 94.4337 130.626 85.7068 Q130.626 76.9569 133.681 72.3736 Q136.76 67.7671 142.57 67.7671 Z" fill="#000000" fill-rule="nonzero" fill-opacity="1"></path><path clip-path="url(#clip360)" d="M176.899 84.318 Q180.255 85.0356 182.13 87.3041 Q184.028 89.5726 184.028 92.9059 Q184.028 98.0216 180.51 100.823 Q176.991 103.623 170.51 103.623 Q168.334 103.623 166.019 103.184 Q163.728 102.767 161.274 101.91 L161.274 97.3966 Q163.218 98.5309 165.533 99.1096 Q167.848 99.6883 170.371 99.6883 Q174.769 99.6883 177.061 97.9522 Q179.376 96.2161 179.376 92.9059 Q179.376 89.8503 177.223 88.1374 Q175.093 86.4013 171.274 86.4013 L167.246 86.4013 L167.246 82.5587 L171.459 82.5587 Q174.908 82.5587 176.737 81.193 Q178.565 79.8041 178.565 77.2115 Q178.565 74.5495 176.667 73.1375 Q174.792 71.7023 171.274 71.7023 Q169.353 71.7023 167.154 72.119 Q164.954 72.5356 162.316 73.4152 L162.316 69.2486 Q164.978 68.5079 167.292 68.1375 Q169.63 67.7671 171.691 67.7671 Q177.015 67.7671 180.116 70.1977 Q183.218 72.6051 183.218 76.7254 Q183.218 79.5958 181.575 81.5865 Q179.931 83.5541 176.899 84.318 Z" fill="#000000" fill-rule="nonzero" fill-opacity="1"></path><path clip-path="url(#clip360)" d="M202.894 86.5402 Q199.561 86.5402 197.639 88.3226 Q195.741 90.105 195.741 93.23 Q195.741 96.3549 197.639 98.1373 Q199.561 99.9197 202.894 99.9197 Q206.227 99.9197 208.149 98.1373 Q210.07 96.3318 210.07 93.23 Q210.07 90.105 208.149 88.3226 Q206.251 86.5402 202.894 86.5402 M198.218 84.5494 Q195.209 83.8087 193.519 81.7485 Q191.852 79.6884 191.852 76.7254 Q191.852 72.5819 194.792 70.1745 Q197.755 67.7671 202.894 67.7671 Q208.056 67.7671 210.996 70.1745 Q213.936 72.5819 213.936 76.7254 Q213.936 79.6884 212.246 81.7485 Q210.579 83.8087 207.593 84.5494 Q210.973 85.3365 212.848 87.6281 Q214.746 89.9198 214.746 93.23 Q214.746 98.2531 211.667 100.938 Q208.612 103.623 202.894 103.623 Q197.177 103.623 194.098 100.938 Q191.042 98.2531 191.042 93.23 Q191.042 89.9198 192.94 87.6281 Q194.839 85.3365 198.218 84.5494 M196.505 77.1652 Q196.505 79.8504 198.172 81.355 Q199.862 82.8596 202.894 82.8596 Q205.903 82.8596 207.593 81.355 Q209.306 79.8504 209.306 77.1652 Q209.306 74.4801 207.593 72.9754 Q205.903 71.4708 202.894 71.4708 Q199.862 71.4708 198.172 72.9754 Q196.505 74.4801 196.505 77.1652 Z" fill="#000000" fill-rule="nonzero" fill-opacity="1"></path><path clip-path="url(#clip360)" d="M1580.37 14.0809 L1580.37 22.0612 Q1575.71 19.8332 1571.58 18.7395 Q1567.45 17.6457 1563.6 17.6457 Q1556.92 17.6457 1553.27 20.2383 Q1549.66 22.8309 1549.66 27.611 Q1549.66 31.6214 1552.05 33.6873 Q1554.48 35.7128 1561.21 36.9686 L1566.15 37.9813 Q1575.31 39.7232 1579.64 44.1387 Q1584.02 48.5136 1584.02 55.8863 Q1584.02 64.6767 1578.1 69.2137 Q1572.23 73.7508 1560.84 73.7508 Q1556.55 73.7508 1551.69 72.7785 Q1546.87 71.8063 1541.68 69.9024 L1541.68 61.4765 Q1546.67 64.2716 1551.45 65.6895 Q1556.23 67.1073 1560.84 67.1073 Q1567.85 67.1073 1571.66 64.3527 Q1575.47 61.598 1575.47 56.4939 Q1575.47 52.0379 1572.71 49.5264 Q1570 47.0148 1563.76 45.759 L1558.78 44.7868 Q1549.62 42.9639 1545.53 39.075 Q1541.44 35.1862 1541.44 28.2591 Q1541.44 20.2383 1547.07 15.6203 Q1552.74 11.0023 1562.67 11.0023 Q1566.92 11.0023 1571.34 11.7719 Q1575.75 12.5416 1580.37 14.0809 Z" fill="#000000" fill-rule="nonzero" fill-opacity="1"></path><path clip-path="url(#clip360)" d="M1623.8 34.9026 L1675.73 34.9026 L1675.73 41.7081 L1623.8 41.7081 L1623.8 34.9026 M1623.8 51.4303 L1675.73 51.4303 L1675.73 58.3168 L1623.8 58.3168 L1623.8 51.4303 Z" fill="#000000" fill-rule="nonzero" fill-opacity="1"></path><path clip-path="url(#clip360)" d="M1718.02 9.54393 L1735.2 9.54393 L1735.2 15.3367 L1725.47 15.3367 L1725.47 77.7206 L1735.2 77.7206 L1735.2 83.5134 L1718.02 83.5134 L1718.02 9.54393 Z" fill="#000000" fill-rule="nonzero" fill-opacity="1"></path><path clip-path="url(#clip360)" d="M1759.18 65.6895 L1787.74 65.6895 L1787.74 72.576 L1749.33 72.576 L1749.33 65.6895 Q1753.99 60.8689 1762.01 52.7671 Q1770.07 44.6248 1772.14 42.2752 Q1776.07 37.8598 1777.61 34.8216 Q1779.19 31.7429 1779.19 28.7857 Q1779.19 23.9651 1775.79 20.927 Q1772.42 17.8888 1767 17.8888 Q1763.15 17.8888 1758.85 19.2256 Q1754.6 20.5624 1749.74 23.2765 L1749.74 15.0127 Q1754.68 13.0277 1758.97 12.015 Q1763.27 11.0023 1766.83 11.0023 Q1776.23 11.0023 1781.82 15.7013 Q1787.41 20.4004 1787.41 28.2591 Q1787.41 31.9859 1785.99 35.3482 Q1784.62 38.6699 1780.93 43.2069 Q1779.92 44.3817 1774.49 50.0125 Q1769.06 55.6027 1759.18 65.6895 Z" fill="#000000" fill-rule="nonzero" fill-opacity="1"></path><path clip-path="url(#clip360)" d="M1822.41 17.4837 Q1816.09 17.4837 1812.89 23.7221 Q1809.73 29.92 1809.73 42.3968 Q1809.73 54.833 1812.89 61.0714 Q1816.09 67.2693 1822.41 67.2693 Q1828.77 67.2693 1831.93 61.0714 Q1835.13 54.833 1835.13 42.3968 Q1835.13 29.92 1831.93 23.7221 Q1828.77 17.4837 1822.41 17.4837 M1822.41 11.0023 Q1832.58 11.0023 1837.93 19.0636 Q1843.31 27.0843 1843.31 42.3968 Q1843.31 57.6687 1837.93 65.73 Q1832.58 73.7508 1822.41 73.7508 Q1812.24 73.7508 1806.86 65.73 Q1801.51 57.6687 1801.51 42.3968 Q1801.51 27.0843 1806.86 19.0636 Q1812.24 11.0023 1822.41 11.0023 Z" fill="#000000" fill-rule="nonzero" fill-opacity="1"></path><path clip-path="url(#clip360)" d="M1874.06 9.54393 L1874.06 83.5134 L1856.88 83.5134 L1856.88 77.7206 L1866.57 77.7206 L1866.57 15.3367 L1856.88 15.3367 L1856.88 9.54393 L1874.06 9.54393 Z" fill="#000000" fill-rule="nonzero" fill-opacity="1"></path><polyline clip-path="url(#clip362)" style="stroke:#009af9; stroke-linecap:round; stroke-linejoin:round; stroke-width:8.8; stroke-opacity:1; fill:none" points="344.539,448.655 950.411,107.723 1859.22,540.567 2465.09,46.8037 3070.96,381.323 "></polyline>
<polyline clip-path="url(#clip362)" style="stroke:#e26f46; stroke-linecap:round; stroke-linejoin:round; stroke-width:8.8; stroke-opacity:1; fill:none" points="344.539,532.017 950.411,560.874 1859.22,518.124 2465.09,639.427 3070.96,382.392 "></polyline>
<polyline clip-path="url(#clip362)" style="stroke:#3da44d; stroke-linecap:round; stroke-linejoin:round; stroke-width:8.8; stroke-opacity:1; fill:none" points="344.539,408.576 950.411,382.659 1859.22,336.436 2465.09,449.991 3070.96,454.8 "></polyline>
<polyline clip-path="url(#clip362)" style="stroke:#c271d2; stroke-linecap:round; stroke-linejoin:round; stroke-width:8.8; stroke-opacity:1; fill:none" points="344.539,408.71 950.411,395.618 1859.22,383.327 2465.09,389.205 3070.96,380.522 "></polyline>
<polyline clip-path="url(#clip362)" style="stroke:#000000; stroke-linecap:round; stroke-linejoin:round; stroke-width:4; stroke-opacity:1; fill:none" stroke-dasharray="16, 10" points="-2627.26,441.996 6042.77,441.996 "></polyline>
</svg>