<svg xmlns="http://www.w3.org/2000/svg" xmlns:xlink="http://www.w3.org/1999/xlink" width="450" height="210" viewBox="0 0 1800 840">
<defs>
  <clipPath id="clip970">
    <rect x="0" y="0" width="1800" height="840"></rect>
  </clipPath>
</defs>
<path clip-path="url(#clip970)" d="M0 840 L1800 840 L1800 0 L0 0  Z" fill="#ffffff" fill-rule="evenodd" fill-opacity="1"></path>
<defs>
  <clipPath id="clip971">
    <rect x="360" y="0" width="1261" height="840"></rect>
  </clipPath>
</defs>
<path clip-path="url(#clip970)" d="M150.598 744.416 L1752.76 744.416 L1752.76 105.328 L150.598 105.328  Z" fill="#ffffff" fill-rule="evenodd" fill-opacity="1"></path>
<defs>
  <clipPath id="clip972">
    <rect x="150" y="105" width="1603" height="640"></rect>
  </clipPath>
</defs>
<polyline clip-path="url(#clip972)" style="stroke:#000000; stroke-linecap:round; stroke-linejoin:round; stroke-width:2; stroke-opacity:0.1; fill:none" points="322.632,744.416 322.632,105.328 "></polyline>
<polyline clip-path="url(#clip972)" style="stroke:#000000; stroke-linecap:round; stroke-linejoin:round; stroke-width:2; stroke-opacity:0.1; fill:none" points="574.25,744.416 574.25,105.328 "></polyline>
<polyline clip-path="url(#clip972)" style="stroke:#000000; stroke-linecap:round; stroke-linejoin:round; stroke-width:2; stroke-opacity:0.1; fill:none" points="825.868,744.416 825.868,105.328 "></polyline>
<polyline clip-path="url(#clip972)" style="stroke:#000000; stroke-linecap:round; stroke-linejoin:round; stroke-width:2; stroke-opacity:0.1; fill:none" points="1077.49,744.416 1077.49,105.328 "></polyline>
<polyline clip-path="url(#clip972)" style="stroke:#000000; stroke-linecap:round; stroke-linejoin:round; stroke-width:2; stroke-opacity:0.1; fill:none" points="1329.1,744.416 1329.1,105.328 "></polyline>
<polyline clip-path="url(#clip972)" style="stroke:#000000; stroke-linecap:round; stroke-linejoin:round; stroke-width:2; stroke-opacity:0.1; fill:none" points="1580.72,744.416 1580.72,105.328 "></polyline>
<polyline clip-path="url(#clip972)" style="stroke:#000000; stroke-linecap:round; stroke-linejoin:round; stroke-width:2; stroke-opacity:0.1; fill:none" points="150.598,744.416 1752.76,744.416 "></polyline>
<polyline clip-path="url(#clip972)" style="stroke:#000000; stroke-linecap:round; stroke-linejoin:round; stroke-width:2; stroke-opacity:0.1; fill:none" points="150.598,587.616 1752.76,587.616 "></polyline>
<polyline clip-path="url(#clip972)" style="stroke:#000000; stroke-linecap:round; stroke-linejoin:round; stroke-width:2; stroke-opacity:0.1; fill:none" points="150.598,430.816 1752.76,430.816 "></polyline>
<polyline clip-path="url(#clip972)" style="stroke:#000000; stroke-linecap:round; stroke-linejoin:round; stroke-width:2; stroke-opacity:0.1; fill:none" points="150.598,274.016 1752.76,274.016 "></polyline>
<polyline clip-path="url(#clip972)" style="stroke:#000000; stroke-linecap:round; stroke-linejoin:round; stroke-width:2; stroke-opacity:0.1; fill:none" points="150.598,117.216 1752.76,117.216 "></polyline>
<polyline clip-path="url(#clip970)" style="stroke:#000000; stroke-linecap:round; stroke-linejoin:round; stroke-width:4; stroke-opacity:1; fill:none" points="150.598,744.416 1752.76,744.416 "></polyline>
<polyline clip-path="url(#clip970)" style="stroke:#000000; stroke-linecap:round; stroke-linejoin:round; stroke-width:4; stroke-opacity:1; fill:none" points="322.632,744.416 322.632,725.518 "></polyline>
<polyline clip-path="url(#clip970)" style="stroke:#000000; stroke-linecap:round; stroke-linejoin:round; stroke-width:4; stroke-opacity:1; fill:none" points="574.25,744.416 574.25,725.518 "></polyline>
<polyline clip-path="url(#clip970)" style="stroke:#000000; stroke-linecap:round; stroke-linejoin:round; stroke-width:4; stroke-opacity:1; fill:none" points="825.868,744.416 825.868,725.518 "></polyline>
<polyline clip-path="url(#clip970)" style="stroke:#000000; stroke-linecap:round; stroke-linejoin:round; stroke-width:4; stroke-opacity:1; fill:none" points="1077.49,744.416 1077.49,725.518 "></polyline>
<polyline clip-path="url(#clip970)" style="stroke:#000000; stroke-linecap:round; stroke-linejoin:round; stroke-width:4; stroke-opacity:1; fill:none" points="1329.1,744.416 1329.1,725.518 "></polyline>
<polyline clip-path="url(#clip970)" style="stroke:#000000; stroke-linecap:round; stroke-linejoin:round; stroke-width:4; stroke-opacity:1; fill:none" points="1580.72,744.416 1580.72,725.518 "></polyline>
<path clip-path="url(#clip970)" d="M266.915 798.081 L274.554 798.081 L274.554 771.715 L266.243 773.382 L266.243 769.123 L274.507 767.456 L279.183 767.456 L279.183 798.081 L286.822 798.081 L286.822 802.016 L266.915 802.016 L266.915 798.081 Z" fill="#000000" fill-rule="nonzero" fill-opacity="1"></path><path clip-path="url(#clip970)" d="M306.266 770.535 Q302.655 770.535 300.827 774.099 Q299.021 777.641 299.021 784.771 Q299.021 791.877 300.827 795.442 Q302.655 798.983 306.266 798.983 Q309.901 798.983 311.706 795.442 Q313.535 791.877 313.535 784.771 Q313.535 777.641 311.706 774.099 Q309.901 770.535 306.266 770.535 M306.266 766.831 Q312.076 766.831 315.132 771.437 Q318.211 776.021 318.211 784.771 Q318.211 793.497 315.132 798.104 Q312.076 802.687 306.266 802.687 Q300.456 802.687 297.378 798.104 Q294.322 793.497 294.322 784.771 Q294.322 776.021 297.378 771.437 Q300.456 766.831 306.266 766.831 Z" fill="#000000" fill-rule="nonzero" fill-opacity="1"></path><path clip-path="url(#clip970)" d="M330.456 798.081 L346.775 798.081 L346.775 802.016 L324.831 802.016 L324.831 798.081 Q327.493 795.326 332.076 790.696 Q336.683 786.044 337.863 784.701 Q340.109 782.178 340.988 780.442 Q341.891 778.683 341.891 776.993 Q341.891 774.238 339.947 772.502 Q338.025 770.766 334.924 770.766 Q332.725 770.766 330.271 771.53 Q327.84 772.294 325.063 773.845 L325.063 769.123 Q327.887 767.988 330.34 767.41 Q332.794 766.831 334.831 766.831 Q340.201 766.831 343.396 769.516 Q346.59 772.201 346.59 776.692 Q346.59 778.822 345.78 780.743 Q344.993 782.641 342.887 785.234 Q342.308 785.905 339.206 789.122 Q336.104 792.317 330.456 798.081 Z" fill="#000000" fill-rule="nonzero" fill-opacity="1"></path><path clip-path="url(#clip970)" d="M369.437 771.53 L357.632 789.979 L369.437 789.979 L369.437 771.53 M368.21 767.456 L374.09 767.456 L374.09 789.979 L379.021 789.979 L379.021 793.868 L374.09 793.868 L374.09 802.016 L369.437 802.016 L369.437 793.868 L353.836 793.868 L353.836 789.354 L368.21 767.456 Z" fill="#000000" fill-rule="nonzero" fill-opacity="1"></path><path clip-path="url(#clip970)" d="M522.908 798.081 L539.227 798.081 L539.227 802.016 L517.283 802.016 L517.283 798.081 Q519.945 795.326 524.528 790.696 Q529.135 786.044 530.315 784.701 Q532.56 782.178 533.44 780.442 Q534.343 778.683 534.343 776.993 Q534.343 774.238 532.398 772.502 Q530.477 770.766 527.375 770.766 Q525.176 770.766 522.723 771.53 Q520.292 772.294 517.514 773.845 L517.514 769.123 Q520.338 767.988 522.792 767.41 Q525.246 766.831 527.283 766.831 Q532.653 766.831 535.847 769.516 Q539.042 772.201 539.042 776.692 Q539.042 778.822 538.232 780.743 Q537.445 782.641 535.338 785.234 Q534.759 785.905 531.658 789.122 Q528.556 792.317 522.908 798.081 Z" fill="#000000" fill-rule="nonzero" fill-opacity="1"></path><path clip-path="url(#clip970)" d="M559.042 770.535 Q555.431 770.535 553.602 774.099 Q551.796 777.641 551.796 784.771 Q551.796 791.877 553.602 795.442 Q555.431 798.983 559.042 798.983 Q562.676 798.983 564.482 795.442 Q566.31 791.877 566.31 784.771 Q566.31 777.641 564.482 774.099 Q562.676 770.535 559.042 770.535 M559.042 766.831 Q564.852 766.831 567.907 771.437 Q570.986 776.021 570.986 784.771 Q570.986 793.497 567.907 798.104 Q564.852 802.687 559.042 802.687 Q553.232 802.687 550.153 798.104 Q547.097 793.497 547.097 784.771 Q547.097 776.021 550.153 771.437 Q553.232 766.831 559.042 766.831 Z" fill="#000000" fill-rule="nonzero" fill-opacity="1"></path><path clip-path="url(#clip970)" d="M592.051 771.53 L580.245 789.979 L592.051 789.979 L592.051 771.53 M590.824 767.456 L596.704 767.456 L596.704 789.979 L601.634 789.979 L601.634 793.868 L596.704 793.868 L596.704 802.016 L592.051 802.016 L592.051 793.868 L576.449 793.868 L576.449 789.354 L590.824 767.456 Z" fill="#000000" fill-rule="nonzero" fill-opacity="1"></path><path clip-path="url(#clip970)" d="M619.366 785.604 Q616.032 785.604 614.111 787.386 Q612.213 789.169 612.213 792.294 Q612.213 795.419 614.111 797.201 Q616.032 798.983 619.366 798.983 Q622.699 798.983 624.62 797.201 Q626.541 795.396 626.541 792.294 Q626.541 789.169 624.62 787.386 Q622.722 785.604 619.366 785.604 M614.69 783.613 Q611.68 782.872 609.991 780.812 Q608.324 778.752 608.324 775.789 Q608.324 771.646 611.264 769.238 Q614.227 766.831 619.366 766.831 Q624.528 766.831 627.467 769.238 Q630.407 771.646 630.407 775.789 Q630.407 778.752 628.717 780.812 Q627.051 782.872 624.065 783.613 Q627.444 784.4 629.319 786.692 Q631.217 788.984 631.217 792.294 Q631.217 797.317 628.139 800.002 Q625.083 802.687 619.366 802.687 Q613.648 802.687 610.569 800.002 Q607.514 797.317 607.514 792.294 Q607.514 788.984 609.412 786.692 Q611.31 784.4 614.69 783.613 M612.977 776.229 Q612.977 778.914 614.643 780.419 Q616.333 781.923 619.366 781.923 Q622.375 781.923 624.065 780.419 Q625.778 778.914 625.778 776.229 Q625.778 773.544 624.065 772.039 Q622.375 770.535 619.366 770.535 Q616.333 770.535 614.643 772.039 Q612.977 773.544 612.977 776.229 Z" fill="#000000" fill-rule="nonzero" fill-opacity="1"></path><path clip-path="url(#clip970)" d="M783.797 771.53 L771.991 789.979 L783.797 789.979 L783.797 771.53 M782.57 767.456 L788.449 767.456 L788.449 789.979 L793.38 789.979 L793.38 793.868 L788.449 793.868 L788.449 802.016 L783.797 802.016 L783.797 793.868 L768.195 793.868 L768.195 789.354 L782.57 767.456 Z" fill="#000000" fill-rule="nonzero" fill-opacity="1"></path><path clip-path="url(#clip970)" d="M811.111 770.535 Q807.5 770.535 805.671 774.099 Q803.866 777.641 803.866 784.771 Q803.866 791.877 805.671 795.442 Q807.5 798.983 811.111 798.983 Q814.745 798.983 816.551 795.442 Q818.38 791.877 818.38 784.771 Q818.38 777.641 816.551 774.099 Q814.745 770.535 811.111 770.535 M811.111 766.831 Q816.921 766.831 819.977 771.437 Q823.056 776.021 823.056 784.771 Q823.056 793.497 819.977 798.104 Q816.921 802.687 811.111 802.687 Q805.301 802.687 802.222 798.104 Q799.167 793.497 799.167 784.771 Q799.167 776.021 802.222 771.437 Q805.301 766.831 811.111 766.831 Z" fill="#000000" fill-rule="nonzero" fill-opacity="1"></path><path clip-path="url(#clip970)" d="M831.412 801.298 L831.412 797.039 Q833.171 797.872 834.977 798.312 Q836.782 798.752 838.518 798.752 Q843.148 798.752 845.579 795.65 Q848.032 792.525 848.38 786.183 Q847.037 788.173 844.977 789.238 Q842.917 790.303 840.417 790.303 Q835.231 790.303 832.199 787.178 Q829.19 784.03 829.19 778.59 Q829.19 773.266 832.338 770.048 Q835.486 766.831 840.718 766.831 Q846.713 766.831 849.861 771.437 Q853.032 776.021 853.032 784.771 Q853.032 792.942 849.143 797.826 Q845.278 802.687 838.727 802.687 Q836.968 802.687 835.162 802.34 Q833.356 801.993 831.412 801.298 M840.718 786.646 Q843.866 786.646 845.694 784.493 Q847.546 782.34 847.546 778.59 Q847.546 774.863 845.694 772.71 Q843.866 770.535 840.718 770.535 Q837.569 770.535 835.718 772.71 Q833.889 774.863 833.889 778.59 Q833.889 782.34 835.718 784.493 Q837.569 786.646 840.718 786.646 Z" fill="#000000" fill-rule="nonzero" fill-opacity="1"></path><path clip-path="url(#clip970)" d="M872.014 782.872 Q868.866 782.872 867.014 785.025 Q865.185 787.178 865.185 790.928 Q865.185 794.655 867.014 796.831 Q868.866 798.983 872.014 798.983 Q875.162 798.983 876.99 796.831 Q878.842 794.655 878.842 790.928 Q878.842 787.178 876.99 785.025 Q875.162 782.872 872.014 782.872 M881.296 768.22 L881.296 772.479 Q879.537 771.646 877.731 771.206 Q875.949 770.766 874.19 770.766 Q869.56 770.766 867.106 773.891 Q864.676 777.016 864.328 783.335 Q865.694 781.322 867.754 780.257 Q869.815 779.169 872.291 779.169 Q877.5 779.169 880.509 782.34 Q883.541 785.488 883.541 790.928 Q883.541 796.252 880.393 799.47 Q877.245 802.687 872.014 802.687 Q866.018 802.687 862.847 798.104 Q859.676 793.497 859.676 784.771 Q859.676 776.576 863.565 771.715 Q867.453 766.831 874.004 766.831 Q875.764 766.831 877.546 767.178 Q879.352 767.525 881.296 768.22 Z" fill="#000000" fill-rule="nonzero" fill-opacity="1"></path><path clip-path="url(#clip970)" d="M1033 785.604 Q1029.66 785.604 1027.74 787.386 Q1025.84 789.169 1025.84 792.294 Q1025.84 795.419 1027.74 797.201 Q1029.66 798.983 1033 798.983 Q1036.33 798.983 1038.25 797.201 Q1040.17 795.396 1040.17 792.294 Q1040.17 789.169 1038.25 787.386 Q1036.35 785.604 1033 785.604 M1028.32 783.613 Q1025.31 782.872 1023.62 780.812 Q1021.95 778.752 1021.95 775.789 Q1021.95 771.646 1024.89 769.238 Q1027.86 766.831 1033 766.831 Q1038.16 766.831 1041.1 769.238 Q1044.04 771.646 1044.04 775.789 Q1044.04 778.752 1042.35 780.812 Q1040.68 782.872 1037.69 783.613 Q1041.07 784.4 1042.95 786.692 Q1044.85 788.984 1044.85 792.294 Q1044.85 797.317 1041.77 800.002 Q1038.71 802.687 1033 802.687 Q1027.28 802.687 1024.2 800.002 Q1021.14 797.317 1021.14 792.294 Q1021.14 788.984 1023.04 786.692 Q1024.94 784.4 1028.32 783.613 M1026.61 776.229 Q1026.61 778.914 1028.27 780.419 Q1029.96 781.923 1033 781.923 Q1036 781.923 1037.69 780.419 Q1039.41 778.914 1039.41 776.229 Q1039.41 773.544 1037.69 772.039 Q1036 770.535 1033 770.535 Q1029.96 770.535 1028.27 772.039 Q1026.61 773.544 1026.61 776.229 Z" fill="#000000" fill-rule="nonzero" fill-opacity="1"></path><path clip-path="url(#clip970)" d="M1053.97 798.081 L1061.61 798.081 L1061.61 771.715 L1053.3 773.382 L1053.3 769.123 L1061.56 767.456 L1066.24 767.456 L1066.24 798.081 L1073.87 798.081 L1073.87 802.016 L1053.97 802.016 L1053.97 798.081 Z" fill="#000000" fill-rule="nonzero" fill-opacity="1"></path><path clip-path="url(#clip970)" d="M1083.46 801.298 L1083.46 797.039 Q1085.22 797.872 1087.02 798.312 Q1088.83 798.752 1090.56 798.752 Q1095.19 798.752 1097.62 795.65 Q1100.08 792.525 1100.43 786.183 Q1099.08 788.173 1097.02 789.238 Q1094.96 790.303 1092.46 790.303 Q1087.28 790.303 1084.25 787.178 Q1081.24 784.03 1081.24 778.59 Q1081.24 773.266 1084.38 770.048 Q1087.53 766.831 1092.76 766.831 Q1098.76 766.831 1101.91 771.437 Q1105.08 776.021 1105.08 784.771 Q1105.08 792.942 1101.19 797.826 Q1097.32 802.687 1090.77 802.687 Q1089.01 802.687 1087.21 802.34 Q1085.4 801.993 1083.46 801.298 M1092.76 786.646 Q1095.91 786.646 1097.74 784.493 Q1099.59 782.34 1099.59 778.59 Q1099.59 774.863 1097.74 772.71 Q1095.91 770.535 1092.76 770.535 Q1089.62 770.535 1087.76 772.71 Q1085.94 774.863 1085.94 778.59 Q1085.94 782.34 1087.76 784.493 Q1089.62 786.646 1092.76 786.646 Z" fill="#000000" fill-rule="nonzero" fill-opacity="1"></path><path clip-path="url(#clip970)" d="M1117.51 798.081 L1133.83 798.081 L1133.83 802.016 L1111.88 802.016 L1111.88 798.081 Q1114.55 795.326 1119.13 790.696 Q1123.74 786.044 1124.92 784.701 Q1127.16 782.178 1128.04 780.442 Q1128.94 778.683 1128.94 776.993 Q1128.94 774.238 1127 772.502 Q1125.08 770.766 1121.98 770.766 Q1119.78 770.766 1117.32 771.53 Q1114.89 772.294 1112.12 773.845 L1112.12 769.123 Q1114.94 767.988 1117.39 767.41 Q1119.85 766.831 1121.88 766.831 Q1127.25 766.831 1130.45 769.516 Q1133.64 772.201 1133.64 776.692 Q1133.64 778.822 1132.83 780.743 Q1132.05 782.641 1129.94 785.234 Q1129.36 785.905 1126.26 789.122 Q1123.16 792.317 1117.51 798.081 Z" fill="#000000" fill-rule="nonzero" fill-opacity="1"></path><path clip-path="url(#clip970)" d="M1258.31 798.081 L1265.94 798.081 L1265.94 771.715 L1257.63 773.382 L1257.63 769.123 L1265.9 767.456 L1270.57 767.456 L1270.57 798.081 L1278.21 798.081 L1278.21 802.016 L1258.31 802.016 L1258.31 798.081 Z" fill="#000000" fill-rule="nonzero" fill-opacity="1"></path><path clip-path="url(#clip970)" d="M1298.24 782.872 Q1295.09 782.872 1293.24 785.025 Q1291.41 787.178 1291.41 790.928 Q1291.41 794.655 1293.24 796.831 Q1295.09 798.983 1298.24 798.983 Q1301.38 798.983 1303.21 796.831 Q1305.06 794.655 1305.06 790.928 Q1305.06 787.178 1303.21 785.025 Q1301.38 782.872 1298.24 782.872 M1307.52 768.22 L1307.52 772.479 Q1305.76 771.646 1303.95 771.206 Q1302.17 770.766 1300.41 770.766 Q1295.78 770.766 1293.33 773.891 Q1290.9 777.016 1290.55 783.335 Q1291.92 781.322 1293.98 780.257 Q1296.04 779.169 1298.51 779.169 Q1303.72 779.169 1306.73 782.34 Q1309.76 785.488 1309.76 790.928 Q1309.76 796.252 1306.62 799.47 Q1303.47 802.687 1298.24 802.687 Q1292.24 802.687 1289.07 798.104 Q1285.9 793.497 1285.9 784.771 Q1285.9 776.576 1289.79 771.715 Q1293.68 766.831 1300.23 766.831 Q1301.99 766.831 1303.77 767.178 Q1305.57 767.525 1307.52 768.22 Z" fill="#000000" fill-rule="nonzero" fill-opacity="1"></path><path clip-path="url(#clip970)" d="M1331.99 783.382 Q1335.34 784.099 1337.22 786.368 Q1339.12 788.636 1339.12 791.97 Q1339.12 797.085 1335.6 799.886 Q1332.08 802.687 1325.6 802.687 Q1323.42 802.687 1321.11 802.247 Q1318.81 801.831 1316.36 800.974 L1316.36 796.46 Q1318.31 797.595 1320.62 798.173 Q1322.94 798.752 1325.46 798.752 Q1329.86 798.752 1332.15 797.016 Q1334.46 795.28 1334.46 791.97 Q1334.46 788.914 1332.31 787.201 Q1330.18 785.465 1326.36 785.465 L1322.33 785.465 L1322.33 781.622 L1326.55 781.622 Q1330 781.622 1331.82 780.257 Q1333.65 778.868 1333.65 776.275 Q1333.65 773.613 1331.75 772.201 Q1329.88 770.766 1326.36 770.766 Q1324.44 770.766 1322.24 771.183 Q1320.04 771.599 1317.4 772.479 L1317.4 768.312 Q1320.06 767.572 1322.38 767.201 Q1324.72 766.831 1326.78 766.831 Q1332.1 766.831 1335.2 769.261 Q1338.31 771.669 1338.31 775.789 Q1338.31 778.66 1336.66 780.65 Q1335.02 782.618 1331.99 783.382 Z" fill="#000000" fill-rule="nonzero" fill-opacity="1"></path><path clip-path="url(#clip970)" d="M1357.98 785.604 Q1354.65 785.604 1352.73 787.386 Q1350.83 789.169 1350.83 792.294 Q1350.83 795.419 1352.73 797.201 Q1354.65 798.983 1357.98 798.983 Q1361.31 798.983 1363.24 797.201 Q1365.16 795.396 1365.16 792.294 Q1365.16 789.169 1363.24 787.386 Q1361.34 785.604 1357.98 785.604 M1353.31 783.613 Q1350.3 782.872 1348.61 780.812 Q1346.94 778.752 1346.94 775.789 Q1346.94 771.646 1349.88 769.238 Q1352.84 766.831 1357.98 766.831 Q1363.14 766.831 1366.08 769.238 Q1369.02 771.646 1369.02 775.789 Q1369.02 778.752 1367.33 780.812 Q1365.67 782.872 1362.68 783.613 Q1366.06 784.4 1367.93 786.692 Q1369.83 788.984 1369.83 792.294 Q1369.83 797.317 1366.75 800.002 Q1363.7 802.687 1357.98 802.687 Q1352.26 802.687 1349.19 800.002 Q1346.13 797.317 1346.13 792.294 Q1346.13 788.984 1348.03 786.692 Q1349.93 784.4 1353.31 783.613 M1351.59 776.229 Q1351.59 778.914 1353.26 780.419 Q1354.95 781.923 1357.98 781.923 Q1360.99 781.923 1362.68 780.419 Q1364.39 778.914 1364.39 776.229 Q1364.39 773.544 1362.68 772.039 Q1360.99 770.535 1357.98 770.535 Q1354.95 770.535 1353.26 772.039 Q1351.59 773.544 1351.59 776.229 Z" fill="#000000" fill-rule="nonzero" fill-opacity="1"></path><path clip-path="url(#clip970)" d="M1390.99 771.53 L1379.18 789.979 L1390.99 789.979 L1390.99 771.53 M1389.76 767.456 L1395.64 767.456 L1395.64 789.979 L1400.57 789.979 L1400.57 793.868 L1395.64 793.868 L1395.64 802.016 L1390.99 802.016 L1390.99 793.868 L1375.39 793.868 L1375.39 789.354 L1389.76 767.456 Z" fill="#000000" fill-rule="nonzero" fill-opacity="1"></path><path clip-path="url(#clip970)" d="M1524.37 783.382 Q1527.72 784.099 1529.6 786.368 Q1531.5 788.636 1531.5 791.97 Q1531.5 797.085 1527.98 799.886 Q1524.46 802.687 1517.98 802.687 Q1515.8 802.687 1513.49 802.247 Q1511.2 801.831 1508.74 800.974 L1508.74 796.46 Q1510.69 797.595 1513 798.173 Q1515.32 798.752 1517.84 798.752 Q1522.24 798.752 1524.53 797.016 Q1526.85 795.28 1526.85 791.97 Q1526.85 788.914 1524.69 787.201 Q1522.56 785.465 1518.74 785.465 L1514.72 785.465 L1514.72 781.622 L1518.93 781.622 Q1522.38 781.622 1524.21 780.257 Q1526.03 778.868 1526.03 776.275 Q1526.03 773.613 1524.14 772.201 Q1522.26 770.766 1518.74 770.766 Q1516.82 770.766 1514.62 771.183 Q1512.42 771.599 1509.79 772.479 L1509.79 768.312 Q1512.45 767.572 1514.76 767.201 Q1517.1 766.831 1519.16 766.831 Q1524.48 766.831 1527.59 769.261 Q1530.69 771.669 1530.69 775.789 Q1530.69 778.66 1529.04 780.65 Q1527.4 782.618 1524.37 783.382 Z" fill="#000000" fill-rule="nonzero" fill-opacity="1"></path><path clip-path="url(#clip970)" d="M1544.39 798.081 L1560.71 798.081 L1560.71 802.016 L1538.77 802.016 L1538.77 798.081 Q1541.43 795.326 1546.01 790.696 Q1550.62 786.044 1551.8 784.701 Q1554.04 782.178 1554.92 780.442 Q1555.83 778.683 1555.83 776.993 Q1555.83 774.238 1553.88 772.502 Q1551.96 770.766 1548.86 770.766 Q1546.66 770.766 1544.21 771.53 Q1541.78 772.294 1539 773.845 L1539 769.123 Q1541.82 767.988 1544.28 767.41 Q1546.73 766.831 1548.77 766.831 Q1554.14 766.831 1557.33 769.516 Q1560.53 772.201 1560.53 776.692 Q1560.53 778.822 1559.72 780.743 Q1558.93 782.641 1556.82 785.234 Q1556.24 785.905 1553.14 789.122 Q1550.04 792.317 1544.39 798.081 Z" fill="#000000" fill-rule="nonzero" fill-opacity="1"></path><path clip-path="url(#clip970)" d="M1569.34 767.456 L1591.57 767.456 L1591.57 769.447 L1579.02 802.016 L1574.14 802.016 L1585.94 771.391 L1569.34 771.391 L1569.34 767.456 Z" fill="#000000" fill-rule="nonzero" fill-opacity="1"></path><path clip-path="url(#clip970)" d="M1611.27 782.872 Q1608.12 782.872 1606.27 785.025 Q1604.44 787.178 1604.44 790.928 Q1604.44 794.655 1606.27 796.831 Q1608.12 798.983 1611.27 798.983 Q1614.41 798.983 1616.24 796.831 Q1618.09 794.655 1618.09 790.928 Q1618.09 787.178 1616.24 785.025 Q1614.41 782.872 1611.27 782.872 M1620.55 768.22 L1620.55 772.479 Q1618.79 771.646 1616.98 771.206 Q1615.2 770.766 1613.44 770.766 Q1608.81 770.766 1606.36 773.891 Q1603.93 777.016 1603.58 783.335 Q1604.95 781.322 1607.01 780.257 Q1609.07 779.169 1611.54 779.169 Q1616.75 779.169 1619.76 782.34 Q1622.79 785.488 1622.79 790.928 Q1622.79 796.252 1619.65 799.47 Q1616.5 802.687 1611.27 802.687 Q1605.27 802.687 1602.1 798.104 Q1598.93 793.497 1598.93 784.771 Q1598.93 776.576 1602.82 771.715 Q1606.71 766.831 1613.26 766.831 Q1615.02 766.831 1616.8 767.178 Q1618.6 767.525 1620.55 768.22 Z" fill="#000000" fill-rule="nonzero" fill-opacity="1"></path><path clip-path="url(#clip970)" d="M1640.85 785.604 Q1637.52 785.604 1635.59 787.386 Q1633.7 789.169 1633.7 792.294 Q1633.7 795.419 1635.59 797.201 Q1637.52 798.983 1640.85 798.983 Q1644.18 798.983 1646.1 797.201 Q1648.03 795.396 1648.03 792.294 Q1648.03 789.169 1646.1 787.386 Q1644.21 785.604 1640.85 785.604 M1636.17 783.613 Q1633.16 782.872 1631.47 780.812 Q1629.81 778.752 1629.81 775.789 Q1629.81 771.646 1632.75 769.238 Q1635.71 766.831 1640.85 766.831 Q1646.01 766.831 1648.95 769.238 Q1651.89 771.646 1651.89 775.789 Q1651.89 778.752 1650.2 780.812 Q1648.53 782.872 1645.55 783.613 Q1648.93 784.4 1650.8 786.692 Q1652.7 788.984 1652.7 792.294 Q1652.7 797.317 1649.62 800.002 Q1646.57 802.687 1640.85 802.687 Q1635.13 802.687 1632.05 800.002 Q1629 797.317 1629 792.294 Q1629 788.984 1630.9 786.692 Q1632.79 784.4 1636.17 783.613 M1634.46 776.229 Q1634.46 778.914 1636.13 780.419 Q1637.82 781.923 1640.85 781.923 Q1643.86 781.923 1645.55 780.419 Q1647.26 778.914 1647.26 776.229 Q1647.26 773.544 1645.55 772.039 Q1643.86 770.535 1640.85 770.535 Q1637.82 770.535 1636.13 772.039 Q1634.46 773.544 1634.46 776.229 Z" fill="#000000" fill-rule="nonzero" fill-opacity="1"></path><polyline clip-path="url(#clip970)" style="stroke:#000000; stroke-linecap:round; stroke-linejoin:round; stroke-width:4; stroke-opacity:1; fill:none" points="150.598,744.416 150.598,105.328 "></polyline>
<polyline clip-path="url(#clip970)" style="stroke:#000000; stroke-linecap:round; stroke-linejoin:round; stroke-width:4; stroke-opacity:1; fill:none" points="150.598,744.416 169.496,744.416 "></polyline>
<polyline clip-path="url(#clip970)" style="stroke:#000000; stroke-linecap:round; stroke-linejoin:round; stroke-width:4; stroke-opacity:1; fill:none" points="150.598,587.616 169.496,587.616 "></polyline>
<polyline clip-path="url(#clip970)" style="stroke:#000000; stroke-linecap:round; stroke-linejoin:round; stroke-width:4; stroke-opacity:1; fill:none" points="150.598,430.816 169.496,430.816 "></polyline>
<polyline clip-path="url(#clip970)" style="stroke:#000000; stroke-linecap:round; stroke-linejoin:round; stroke-width:4; stroke-opacity:1; fill:none" points="150.598,274.016 169.496,274.016 "></polyline>
<polyline clip-path="url(#clip970)" style="stroke:#000000; stroke-linecap:round; stroke-linejoin:round; stroke-width:4; stroke-opacity:1; fill:none" points="150.598,117.216 169.496,117.216 "></polyline>
<path clip-path="url(#clip970)" d="M66.4226 730.215 Q62.8115 730.215 60.9828 733.779 Q59.1773 737.321 59.1773 744.451 Q59.1773 751.557 60.9828 755.122 Q62.8115 758.663 66.4226 758.663 Q70.0569 758.663 71.8624 755.122 Q73.6911 751.557 73.6911 744.451 Q73.6911 737.321 71.8624 733.779 Q70.0569 730.215 66.4226 730.215 M66.4226 726.511 Q72.2328 726.511 75.2883 731.117 Q78.367 735.701 78.367 744.451 Q78.367 753.177 75.2883 757.784 Q72.2328 762.367 66.4226 762.367 Q60.6125 762.367 57.5338 757.784 Q54.4782 753.177 54.4782 744.451 Q54.4782 735.701 57.5338 731.117 Q60.6125 726.511 66.4226 726.511 Z" fill="#000000" fill-rule="nonzero" fill-opacity="1"></path><path clip-path="url(#clip970)" d="M86.5845 755.816 L91.4688 755.816 L91.4688 761.696 L86.5845 761.696 L86.5845 755.816 Z" fill="#000000" fill-rule="nonzero" fill-opacity="1"></path><path clip-path="url(#clip970)" d="M111.654 730.215 Q108.043 730.215 106.214 733.779 Q104.409 737.321 104.409 744.451 Q104.409 751.557 106.214 755.122 Q108.043 758.663 111.654 758.663 Q115.288 758.663 117.094 755.122 Q118.922 751.557 118.922 744.451 Q118.922 737.321 117.094 733.779 Q115.288 730.215 111.654 730.215 M111.654 726.511 Q117.464 726.511 120.52 731.117 Q123.598 735.701 123.598 744.451 Q123.598 753.177 120.52 757.784 Q117.464 762.367 111.654 762.367 Q105.844 762.367 102.765 757.784 Q99.7095 753.177 99.7095 744.451 Q99.7095 735.701 102.765 731.117 Q105.844 726.511 111.654 726.511 Z" fill="#000000" fill-rule="nonzero" fill-opacity="1"></path><path clip-path="url(#clip970)" d="M68.0198 573.415 Q64.4087 573.415 62.58 576.979 Q60.7745 580.521 60.7745 587.651 Q60.7745 594.757 62.58 598.322 Q64.4087 601.864 68.0198 601.864 Q71.6541 601.864 73.4596 598.322 Q75.2883 594.757 75.2883 587.651 Q75.2883 580.521 73.4596 576.979 Q71.6541 573.415 68.0198 573.415 M68.0198 569.711 Q73.83 569.711 76.8855 574.317 Q79.9642 578.901 79.9642 587.651 Q79.9642 596.377 76.8855 600.984 Q73.83 605.567 68.0198 605.567 Q62.2097 605.567 59.131 600.984 Q56.0754 596.377 56.0754 587.651 Q56.0754 578.901 59.131 574.317 Q62.2097 569.711 68.0198 569.711 Z" fill="#000000" fill-rule="nonzero" fill-opacity="1"></path><path clip-path="url(#clip970)" d="M88.1818 599.016 L93.066 599.016 L93.066 604.896 L88.1818 604.896 L88.1818 599.016 Z" fill="#000000" fill-rule="nonzero" fill-opacity="1"></path><path clip-path="url(#clip970)" d="M107.279 600.961 L123.598 600.961 L123.598 604.896 L101.654 604.896 L101.654 600.961 Q104.316 598.206 108.899 593.577 Q113.506 588.924 114.686 587.581 Q116.932 585.058 117.811 583.322 Q118.714 581.563 118.714 579.873 Q118.714 577.118 116.77 575.382 Q114.848 573.646 111.746 573.646 Q109.547 573.646 107.094 574.41 Q104.663 575.174 101.885 576.725 L101.885 572.003 Q104.709 570.868 107.163 570.29 Q109.617 569.711 111.654 569.711 Q117.024 569.711 120.219 572.396 Q123.413 575.081 123.413 579.572 Q123.413 581.702 122.603 583.623 Q121.816 585.521 119.709 588.114 Q119.131 588.785 116.029 592.002 Q112.927 595.197 107.279 600.961 Z" fill="#000000" fill-rule="nonzero" fill-opacity="1"></path><path clip-path="url(#clip970)" d="M65.9365 416.615 Q62.3254 416.615 60.4967 420.179 Q58.6912 423.721 58.6912 430.851 Q58.6912 437.957 60.4967 441.522 Q62.3254 445.064 65.9365 445.064 Q69.5707 445.064 71.3763 441.522 Q73.205 437.957 73.205 430.851 Q73.205 423.721 71.3763 420.179 Q69.5707 416.615 65.9365 416.615 M65.9365 412.911 Q71.7467 412.911 74.8022 417.517 Q77.8809 422.101 77.8809 430.851 Q77.8809 439.577 74.8022 444.184 Q71.7467 448.767 65.9365 448.767 Q60.1264 448.767 57.0477 444.184 Q53.9921 439.577 53.9921 430.851 Q53.9921 422.101 57.0477 417.517 Q60.1264 412.911 65.9365 412.911 Z" fill="#000000" fill-rule="nonzero" fill-opacity="1"></path><path clip-path="url(#clip970)" d="M86.0984 442.216 L90.9827 442.216 L90.9827 448.096 L86.0984 448.096 L86.0984 442.216 Z" fill="#000000" fill-rule="nonzero" fill-opacity="1"></path><path clip-path="url(#clip970)" d="M114.015 417.61 L102.209 436.059 L114.015 436.059 L114.015 417.61 M112.788 413.536 L118.668 413.536 L118.668 436.059 L123.598 436.059 L123.598 439.948 L118.668 439.948 L118.668 448.096 L114.015 448.096 L114.015 439.948 L98.4132 439.948 L98.4132 435.434 L112.788 413.536 Z" fill="#000000" fill-rule="nonzero" fill-opacity="1"></path><path clip-path="url(#clip970)" d="M66.2606 259.815 Q62.6495 259.815 60.8208 263.379 Q59.0152 266.921 59.0152 274.051 Q59.0152 281.157 60.8208 284.722 Q62.6495 288.264 66.2606 288.264 Q69.8948 288.264 71.7004 284.722 Q73.5291 281.157 73.5291 274.051 Q73.5291 266.921 71.7004 263.379 Q69.8948 259.815 66.2606 259.815 M66.2606 256.111 Q72.0707 256.111 75.1263 260.717 Q78.205 265.301 78.205 274.051 Q78.205 282.778 75.1263 287.384 Q72.0707 291.967 66.2606 291.967 Q60.4504 291.967 57.3717 287.384 Q54.3162 282.778 54.3162 274.051 Q54.3162 265.301 57.3717 260.717 Q60.4504 256.111 66.2606 256.111 Z" fill="#000000" fill-rule="nonzero" fill-opacity="1"></path><path clip-path="url(#clip970)" d="M86.4225 285.416 L91.3067 285.416 L91.3067 291.296 L86.4225 291.296 L86.4225 285.416 Z" fill="#000000" fill-rule="nonzero" fill-opacity="1"></path><path clip-path="url(#clip970)" d="M112.071 272.153 Q108.922 272.153 107.071 274.305 Q105.242 276.458 105.242 280.208 Q105.242 283.935 107.071 286.111 Q108.922 288.264 112.071 288.264 Q115.219 288.264 117.047 286.111 Q118.899 283.935 118.899 280.208 Q118.899 276.458 117.047 274.305 Q115.219 272.153 112.071 272.153 M121.353 257.5 L121.353 261.759 Q119.594 260.926 117.788 260.486 Q116.006 260.046 114.246 260.046 Q109.617 260.046 107.163 263.171 Q104.733 266.296 104.385 272.616 Q105.751 270.602 107.811 269.537 Q109.871 268.449 112.348 268.449 Q117.557 268.449 120.566 271.62 Q123.598 274.768 123.598 280.208 Q123.598 285.532 120.45 288.75 Q117.302 291.967 112.071 291.967 Q106.075 291.967 102.904 287.384 Q99.7326 282.778 99.7326 274.051 Q99.7326 265.856 103.621 260.995 Q107.51 256.111 114.061 256.111 Q115.82 256.111 117.603 256.458 Q119.408 256.805 121.353 257.5 Z" fill="#000000" fill-rule="nonzero" fill-opacity="1"></path><path clip-path="url(#clip970)" d="M66.5152 103.015 Q62.9041 103.015 61.0754 106.58 Q59.2699 110.121 59.2699 117.251 Q59.2699 124.357 61.0754 127.922 Q62.9041 131.464 66.5152 131.464 Q70.1494 131.464 71.955 127.922 Q73.7837 124.357 73.7837 117.251 Q73.7837 110.121 71.955 106.58 Q70.1494 103.015 66.5152 103.015 M66.5152 99.311 Q72.3254 99.311 75.3809 103.917 Q78.4596 108.501 78.4596 117.251 Q78.4596 125.978 75.3809 130.584 Q72.3254 135.167 66.5152 135.167 Q60.7051 135.167 57.6264 130.584 Q54.5708 125.978 54.5708 117.251 Q54.5708 108.501 57.6264 103.917 Q60.7051 99.311 66.5152 99.311 Z" fill="#000000" fill-rule="nonzero" fill-opacity="1"></path><path clip-path="url(#clip970)" d="M86.6771 128.616 L91.5614 128.616 L91.5614 134.496 L86.6771 134.496 L86.6771 128.616 Z" fill="#000000" fill-rule="nonzero" fill-opacity="1"></path><path clip-path="url(#clip970)" d="M111.746 118.084 Q108.413 118.084 106.492 119.866 Q104.594 121.649 104.594 124.774 Q104.594 127.899 106.492 129.681 Q108.413 131.464 111.746 131.464 Q115.08 131.464 117.001 129.681 Q118.922 127.876 118.922 124.774 Q118.922 121.649 117.001 119.866 Q115.103 118.084 111.746 118.084 M107.071 116.093 Q104.061 115.353 102.371 113.292 Q100.705 111.232 100.705 108.269 Q100.705 104.126 103.645 101.718 Q106.608 99.311 111.746 99.311 Q116.908 99.311 119.848 101.718 Q122.788 104.126 122.788 108.269 Q122.788 111.232 121.098 113.292 Q119.432 115.353 116.445 116.093 Q119.825 116.88 121.7 119.172 Q123.598 121.464 123.598 124.774 Q123.598 129.797 120.52 132.482 Q117.464 135.167 111.746 135.167 Q106.029 135.167 102.95 132.482 Q99.8947 129.797 99.8947 124.774 Q99.8947 121.464 101.793 119.172 Q103.691 116.88 107.071 116.093 M105.358 108.709 Q105.358 111.394 107.024 112.899 Q108.714 114.404 111.746 114.404 Q114.756 114.404 116.445 112.899 Q118.158 111.394 118.158 108.709 Q118.158 106.024 116.445 104.519 Q114.756 103.015 111.746 103.015 Q108.714 103.015 107.024 104.519 Q105.358 106.024 105.358 108.709 Z" fill="#000000" fill-rule="nonzero" fill-opacity="1"></path><path clip-path="url(#clip970)" d="M674.564 41.3256 Q674.564 43.662 673.13 45.0556 Q671.736 46.4492 669.974 46.4492 Q668.416 46.4492 667.596 45.5475 Q666.776 44.6457 666.776 43.498 Q666.776 43.0061 666.981 42.3913 Q667.186 41.7355 667.637 40.9567 Q668.129 40.1779 669.154 39.604 Q670.179 39.0302 671.572 38.9482 Q671.285 38.6613 671.203 38.6203 Q670.588 38.1284 669.441 37.9644 Q669.277 37.8825 668.703 37.8825 Q665.875 37.8825 663.005 39.9729 Q660.177 42.0224 656.693 45.9164 Q652.307 50.4662 649.479 52.1467 Q661.899 53.7863 661.899 60.9594 Q661.899 62.1481 661.571 63.5827 Q660.915 66.288 660.915 68.2555 Q660.915 72.1905 663.579 72.1905 Q666.162 72.1905 667.801 69.5672 Q669.482 66.9439 670.875 61.8202 Q671.08 60.8775 671.285 60.5905 Q671.49 60.3036 672.064 60.3036 Q673.089 60.3036 673.089 61.1234 Q672.146 65.9191 670.056 69.6082 Q667.391 74.076 663.415 74.076 Q660.095 74.076 657.882 71.7806 Q655.709 69.4442 655.709 65.7552 Q655.709 64.8534 656.037 62.804 Q656.283 61.9842 656.283 61.0414 Q656.283 59.1149 655.218 57.6803 Q654.152 56.2047 652.43 55.4669 Q650.709 54.7291 649.274 54.4011 Q647.88 54.0322 646.528 53.9093 Q642.429 71.2477 641.855 72.3135 Q641.486 73.0513 640.666 73.5431 Q639.847 74.076 638.986 74.076 Q638.166 74.076 637.346 73.5022 Q636.567 72.9693 636.567 71.6986 Q636.567 71.0428 636.895 69.8541 L649.069 21.4868 L649.315 19.8472 Q649.315 19.3553 649.11 19.1094 Q648.946 18.8225 647.962 18.6175 Q647.02 18.4126 645.134 18.4126 Q644.355 18.4126 643.986 18.3716 Q643.659 18.3306 643.372 18.1256 Q643.085 17.8797 643.085 17.3878 Q643.085 16.691 643.372 16.3221 Q643.7 15.9122 643.945 15.8302 Q644.191 15.7483 644.683 15.7073 Q645.38 15.6663 647.716 15.4613 Q650.053 15.2154 652.061 15.0514 Q654.07 14.8875 654.931 14.8875 Q655.422 14.8875 655.668 15.1334 Q655.955 15.3384 655.996 15.5843 L656.037 15.7893 L647.307 51.204 Q650.914 49.7694 656.611 43.416 Q663.21 36.038 668.867 36.038 Q671.531 36.038 673.048 37.6775 Q674.564 39.2761 674.564 41.3256 Z" fill="#000000" fill-rule="nonzero" fill-opacity="1"></path><path clip-path="url(#clip970)" d="M703.177 60.3856 Q703.259 59.3609 704.858 59.3609 L756.299 59.3609 Q758.717 59.3609 758.758 60.3036 Q758.758 61.3283 756.463 61.2873 L705.431 61.2873 Q703.177 61.3283 703.177 60.3856 M703.177 43.9899 Q703.177 42.9651 704.94 43.0061 L756.217 43.0061 Q758.717 43.0061 758.758 43.9899 Q758.758 44.9326 756.627 44.9326 L704.858 44.9326 Q703.177 44.9326 703.177 43.9899 Z" fill="#000000" fill-rule="nonzero" fill-opacity="1"></path><path clip-path="url(#clip970)" d="M791.141 46.6132 Q791.141 33.4146 797.863 25.3398 Q804.586 17.2239 813.234 17.2239 Q818.276 17.2239 821.063 19.8062 Q823.892 22.3475 823.892 26.2825 Q823.892 28.4549 822.621 29.3977 Q821.35 30.3404 820.039 30.3404 Q818.522 30.3404 817.333 29.3157 Q816.145 28.291 816.145 26.4465 Q816.145 22.6754 820.776 22.6754 Q818.604 19.3143 813.398 19.3143 Q811.8 19.3143 810.16 19.8062 Q808.521 20.2571 806.389 21.8147 Q804.258 23.3723 802.618 25.8316 Q800.979 28.291 799.831 32.9228 Q798.683 37.5546 798.683 43.58 L798.683 45.5885 Q802.126 37.2676 809.176 37.3086 Q816.227 37.3086 821.104 42.6782 Q825.982 48.0478 825.982 55.9997 Q825.982 64.1566 820.899 69.5672 Q815.817 74.9778 808.685 74.9778 Q805.487 74.9778 802.577 73.6251 Q799.708 72.3135 797.003 69.2803 Q794.338 66.2471 792.74 60.4266 Q791.141 54.6061 791.141 46.6132 M798.847 54.1552 Q798.847 62.3941 800.364 66.329 Q800.61 66.9849 801.143 67.8866 Q801.716 68.7884 802.659 69.9771 Q803.643 71.1248 805.241 71.9036 Q806.84 72.6414 808.685 72.6414 Q814.3 72.6414 817.005 67.1898 Q818.44 64.1566 818.44 55.9178 Q818.44 47.515 816.923 44.4408 Q814.341 39.2351 809.094 39.2351 Q805.569 39.2351 803.11 41.6535 Q800.692 44.0719 799.749 47.31 Q798.847 50.5482 798.847 54.1552 Z" fill="#000000" fill-rule="nonzero" fill-opacity="1"></path><path clip-path="url(#clip970)" d="M833.902 71.7806 Q832.713 70.428 832.713 68.6654 Q832.713 66.9029 833.861 65.5912 Q835.05 64.2386 837.181 64.2386 Q839.682 64.2386 841.116 66.6569 Q842.551 69.0343 842.551 73.0513 Q842.551 77.3961 840.788 81.4131 Q839.026 85.471 837.304 87.3975 Q835.583 89.324 834.886 89.324 Q834.066 89.324 834.066 88.4223 Q834.066 88.0943 834.64 87.4795 Q840.665 81.0032 840.706 73.0513 Q840.706 71.7806 840.542 71.7806 L840.337 71.9446 Q838.903 73.1332 837.181 73.1332 Q835.091 73.1332 833.902 71.7806 Z" fill="#000000" fill-rule="nonzero" fill-opacity="1"></path><path clip-path="url(#clip970)" d="M909.006 15.7893 L896.915 64.3206 Q896.423 66.493 896.423 68.3375 Q896.423 72.1905 898.923 72.1905 Q900.153 72.1905 901.137 71.4117 Q902.12 70.6329 902.899 68.9933 Q903.678 67.3538 904.17 65.8372 Q904.662 64.2796 905.317 61.8202 Q905.522 60.8365 905.686 60.5905 Q905.891 60.3036 906.465 60.3036 Q907.49 60.3036 907.49 61.1234 Q906.383 66.411 904.949 69.4442 Q902.653 74.076 898.759 74.076 Q895.808 74.076 893.717 72.2725 Q891.627 70.4689 891.135 67.7637 Q885.766 74.076 880.191 74.076 Q875.272 74.076 872.157 70.346 Q869.042 66.575 869.042 60.6315 Q869.042 54.6471 871.993 48.9086 Q874.985 43.1701 879.699 39.604 Q884.413 36.038 889.25 36.038 Q894.373 36.038 896.997 41.4075 L902.038 21.4868 L902.284 19.8472 Q902.284 19.3553 902.079 19.1094 Q901.915 18.8225 900.932 18.6175 Q899.989 18.4126 898.103 18.4126 Q897.325 18.4126 896.956 18.3716 Q896.628 18.3306 896.341 18.1256 Q896.054 17.8797 896.054 17.3878 Q896.054 15.9532 897.243 15.7893 Q905.112 14.8875 907.9 14.8875 Q908.392 14.8875 908.679 15.1334 Q908.965 15.3384 908.965 15.5843 L909.006 15.7893 M895.972 45.2605 Q895.972 44.8916 895.685 43.8669 Q895.398 42.8422 894.742 41.4075 Q894.086 39.9729 892.652 38.9482 Q891.258 37.8825 889.373 37.8825 Q886.831 37.8825 884.167 40.0549 Q881.544 42.2273 879.617 45.9164 Q878.142 48.8676 876.543 55.057 Q874.985 61.2464 874.985 64.3206 Q874.985 66.2061 875.395 67.8866 Q875.846 69.5262 877.117 70.8788 Q878.387 72.1905 880.355 72.1905 Q885.151 72.1905 889.864 66.2471 Q890.766 65.2223 890.971 64.8124 Q891.217 64.3615 891.545 63.1319 L895.726 46.6952 Q895.972 45.4655 895.972 45.2605 Z" fill="#000000" fill-rule="nonzero" fill-opacity="1"></path><path clip-path="url(#clip970)" d="M917.576 97.43 L917.576 95.6223 Q920.704 95.6223 921.421 95.2493 Q922.138 94.8476 922.138 92.9539 L922.138 77.1444 Q922.138 74.9637 921.392 74.4473 Q920.675 73.9308 917.806 73.9308 L917.806 72.0945 L926.012 71.4633 L926.012 93.0113 Q926.012 94.7616 926.643 95.192 Q927.274 95.6223 930.143 95.6223 L930.143 97.43 Q924.147 97.2578 924.032 97.2578 Q923.229 97.2578 917.576 97.43 M920.044 61.22 Q920.044 60.0436 920.933 59.0968 Q921.851 58.1213 923.142 58.1213 Q924.434 58.1213 925.352 59.0107 Q926.27 59.8715 926.27 61.2487 Q926.27 62.5973 925.352 63.4867 Q924.434 64.3475 923.142 64.3475 Q921.794 64.3475 920.904 63.4007 Q920.044 62.4538 920.044 61.22 Z" fill="#000000" fill-rule="nonzero" fill-opacity="1"></path><path clip-path="url(#clip970)" d="M934.16 97.43 L934.16 95.6223 Q937.287 95.6223 938.005 95.2493 Q938.722 94.8476 938.722 92.9539 L938.722 77.2018 Q938.722 75.0211 937.947 74.476 Q937.201 73.9308 934.16 73.9308 L934.16 72.0945 L942.423 71.4633 L942.423 77.6321 Q945.178 71.4633 951.117 71.4633 Q955.536 71.4633 957.286 73.6439 Q958.577 75.1072 958.835 76.7427 Q959.122 78.3782 959.122 82.6246 L959.122 93.8434 Q959.18 95.0772 960.127 95.3641 Q961.073 95.6223 963.713 95.6223 L963.713 97.43 Q957.716 97.2578 957.114 97.2578 Q956.655 97.2578 950.486 97.43 L950.486 95.6223 Q953.613 95.6223 954.331 95.2493 Q955.077 94.8476 955.077 92.9539 L955.077 79.2676 Q955.077 76.2836 954.159 74.5334 Q953.24 72.7544 950.715 72.7544 Q947.674 72.7544 945.235 75.3081 Q942.796 77.8617 942.796 82.1656 L942.796 92.9539 Q942.796 94.8476 943.514 95.2493 Q944.26 95.6223 947.358 95.6223 L947.358 97.43 Q941.362 97.2578 940.788 97.2578 Q940.329 97.2578 934.16 97.43 Z" fill="#000000" fill-rule="nonzero" fill-opacity="1"></path><path clip-path="url(#clip970)" d="M966.679 73.9308 L966.679 72.6397 Q969.376 72.5249 971.155 70.6312 Q972.962 68.7088 973.565 66.356 Q974.196 64.0032 974.253 61.2774 L975.717 61.2774 L975.717 72.0945 L984.124 72.0945 L984.124 73.9308 L975.717 73.9308 L975.717 90.2568 Q975.717 96.5979 979.676 96.5979 Q981.369 96.5979 982.488 94.8763 Q983.607 93.1261 983.607 90.0273 L983.607 86.7851 L985.07 86.7851 L985.07 90.1421 Q985.07 93.3269 983.607 95.7084 Q982.144 98.0899 979.246 98.0899 Q978.184 98.0899 977.123 97.803 Q976.09 97.5447 974.712 96.8561 Q973.364 96.1388 972.503 94.4173 Q971.671 92.667 971.671 90.1421 L971.671 73.9308 L966.679 73.9308 Z" fill="#000000" fill-rule="nonzero" fill-opacity="1"></path><path clip-path="url(#clip970)" d="M998.203 52.1467 Q998.203 37.9644 1003.49 26.5284 Q1005.74 21.7327 1008.9 17.7157 Q1012.06 13.6988 1014.15 11.9363 Q1016.24 10.1737 1016.81 10.1737 Q1017.63 10.1737 1017.67 10.9935 Q1017.67 11.4034 1016.57 12.4281 Q1003.04 26.2005 1003.08 52.1467 Q1003.08 78.1749 1016.24 91.4145 Q1017.67 92.8491 1017.67 93.3 Q1017.67 94.1198 1016.81 94.1198 Q1016.24 94.1198 1014.23 92.4392 Q1012.22 90.7586 1009.11 86.9056 Q1005.99 83.0527 1003.74 78.3389 Q998.203 66.9029 998.203 52.1467 Z" fill="#000000" fill-rule="nonzero" fill-opacity="1"></path><path clip-path="url(#clip970)" d="M1075.54 14.8055 L1070.99 33.1687 Q1070.74 34.2754 1070.53 34.5623 Q1070.33 34.8493 1069.76 34.8493 Q1069.31 34.8493 1069.02 34.6443 Q1068.77 34.4394 1068.77 34.2344 L1068.73 34.0295 Q1068.73 33.9065 1068.81 33.2917 Q1068.9 32.6358 1068.98 31.5701 Q1069.06 30.5044 1069.06 29.3157 Q1069.06 22.5935 1065.78 19.4783 Q1062.54 16.3221 1056.97 16.3221 Q1053.11 16.3221 1049.67 18.3716 Q1046.23 20.421 1044.26 23.6592 Q1042.29 26.8564 1042.29 30.2175 Q1042.29 33.2917 1043.85 35.2592 Q1045.41 37.2266 1047.42 37.8825 L1053.03 39.3991 Q1058.93 40.9157 1060.62 41.5715 Q1062.3 42.1863 1063.69 43.58 Q1067.83 47.433 1067.83 53.4174 Q1067.83 58.5821 1064.92 63.5827 Q1062.01 68.5425 1057.01 71.7806 Q1052.01 74.9778 1046.47 74.9778 Q1036.76 74.9778 1032.29 68.9523 L1028.19 73.7071 Q1027.41 74.6089 1027.17 74.7728 Q1026.96 74.9778 1026.68 74.9778 Q1026.31 74.9778 1026.02 74.7318 Q1025.73 74.5269 1025.73 74.158 Q1025.73 73.8711 1028.15 64.2386 Q1030.57 54.6061 1030.78 54.4011 Q1031.1 54.0732 1031.64 54.0732 Q1032.62 54.0732 1032.62 55.016 Q1032.54 55.2619 1032.46 55.5898 Q1031.96 58.5411 1031.96 60.1396 Q1031.96 63.1319 1032.99 65.4273 Q1034.01 67.6817 1035.53 68.9933 Q1037.09 70.264 1039.18 71.0838 Q1041.27 71.8626 1043.03 72.1495 Q1044.79 72.3954 1046.64 72.3954 Q1050.61 72.3954 1054.14 70.1 Q1057.71 67.8046 1059.71 64.2386 Q1061.76 60.6725 1061.76 56.9425 Q1061.76 54.975 1061.23 53.4584 Q1060.7 51.9008 1059.96 51.04 Q1059.26 50.1793 1058.07 49.5234 Q1056.89 48.8676 1056.07 48.6217 Q1055.29 48.3347 1054.06 48.0478 L1045.08 45.6704 Q1041.47 44.6047 1038.89 41.5305 Q1036.35 38.4563 1036.35 33.7426 Q1036.35 28.7829 1039.26 24.1921 Q1042.21 19.5603 1047.01 16.773 Q1051.84 13.9447 1057.05 13.9447 Q1061.15 13.9447 1064.3 15.5433 Q1067.46 17.1009 1069.06 20.0111 L1073.12 15.2154 Q1073.94 14.2726 1074.1 14.1087 Q1074.31 13.9447 1074.59 13.9447 Q1075.08 13.9447 1075.29 14.2317 Q1075.54 14.5186 1075.54 14.8055 Z" fill="#000000" fill-rule="nonzero" fill-opacity="1"></path><path clip-path="url(#clip970)" d="M1081.72 93.3 Q1081.72 92.8901 1082.79 91.8654 Q1096.32 78.093 1096.32 52.1467 Q1096.32 26.1185 1083.32 12.961 Q1081.72 11.4444 1081.72 10.9935 Q1081.72 10.1737 1082.54 10.1737 Q1083.12 10.1737 1085.13 11.8543 Q1087.18 13.5348 1090.25 17.3878 Q1093.36 21.2408 1095.66 25.9546 Q1101.19 37.3906 1101.19 52.1467 Q1101.19 66.329 1095.91 77.765 Q1093.65 82.5608 1090.5 86.5777 Q1087.34 90.5947 1085.25 92.3572 Q1083.16 94.1198 1082.54 94.1198 Q1081.72 94.1198 1081.72 93.3 Z" fill="#000000" fill-rule="nonzero" fill-opacity="1"></path><path clip-path="url(#clip970)" d="M1137.25 60.3856 Q1137.33 59.3609 1138.93 59.3609 L1190.37 59.3609 Q1192.79 59.3609 1192.83 60.3036 Q1192.83 61.3283 1190.54 61.2873 L1139.5 61.2873 Q1137.25 61.3283 1137.25 60.3856 M1137.25 43.9899 Q1137.25 42.9651 1139.01 43.0061 L1190.29 43.0061 Q1192.79 43.0061 1192.83 43.9899 Q1192.83 44.9326 1190.7 44.9326 L1138.93 44.9326 Q1137.25 44.9326 1137.25 43.9899 Z" fill="#000000" fill-rule="nonzero" fill-opacity="1"></path><path clip-path="url(#clip970)" d="M1225.21 59.2789 L1225.21 56.6965 L1251 17.3059 Q1251.65 16.2811 1252.68 16.3221 Q1253.62 16.3221 1253.82 16.691 Q1254.03 17.0599 1254.03 18.4945 L1254.03 56.6965 L1262.43 56.6965 L1262.43 59.2789 L1254.03 59.2789 L1254.03 66.575 Q1254.03 68.9933 1255.01 69.7721 Q1256.04 70.5509 1260.38 70.5509 L1262.15 70.5509 L1262.15 73.1332 Q1258.7 72.8873 1250.75 72.8873 Q1242.84 72.8873 1239.4 73.1332 L1239.4 70.5509 L1241.16 70.5509 Q1245.5 70.5509 1246.53 69.8131 Q1247.55 69.0343 1247.55 66.575 L1247.55 59.2789 L1225.21 59.2789 M1227.59 56.6965 L1248.05 56.6965 L1248.05 25.3807 L1227.59 56.6965 Z" fill="#000000" fill-rule="nonzero" fill-opacity="1"></path><path clip-path="url(#clip972)" d="M234.566 244.211 L234.566 744.416 L263.921 744.416 L263.921 244.211 L234.566 244.211 L234.566 244.211  Z" fill="#009af9" fill-rule="evenodd" fill-opacity="1"></path>
<polyline clip-path="url(#clip972)" style="stroke:#000000; stroke-linecap:round; stroke-linejoin:round; stroke-width:4; stroke-opacity:1; fill:none" points="234.566,244.211 234.566,744.416 263.921,744.416 263.921,244.211 234.566,244.211 "></polyline>
<path clip-path="url(#clip972)" d="M486.184 427.063 L486.184 744.416 L515.539 744.416 L515.539 427.063 L486.184 427.063 L486.184 427.063  Z" fill="#009af9" fill-rule="evenodd" fill-opacity="1"></path>
<polyline clip-path="url(#clip972)" style="stroke:#000000; stroke-linecap:round; stroke-linejoin:round; stroke-width:4; stroke-opacity:1; fill:none" points="486.184,427.063 486.184,744.416 515.539,744.416 515.539,427.063 486.184,427.063 "></polyline>
<path clip-path="url(#clip972)" d="M737.802 545.307 L737.802 744.416 L767.157 744.416 L767.157 545.307 L737.802 545.307 L737.802 545.307  Z" fill="#009af9" fill-rule="evenodd" fill-opacity="1"></path>
<polyline clip-path="url(#clip972)" style="stroke:#000000; stroke-linecap:round; stroke-linejoin:round; stroke-width:4; stroke-opacity:1; fill:none" points="737.802,545.307 737.802,744.416 767.157,744.416 767.157,545.307 737.802,545.307 "></polyline>
<path clip-path="url(#clip972)" d="M989.42 588.293 L989.42 744.416 L1018.78 744.416 L1018.78 588.293 L989.42 588.293 L989.42 588.293  Z" fill="#009af9" fill-rule="evenodd" fill-opacity="1"></path>
<polyline clip-path="url(#clip972)" style="stroke:#000000; stroke-linecap:round; stroke-linejoin:round; stroke-width:4; stroke-opacity:1; fill:none" points="989.42,588.293 989.42,744.416 1018.78,744.416 1018.78,588.293 989.42,588.293 "></polyline>
<path clip-path="url(#clip972)" d="M1241.04 634.059 L1241.04 744.416 L1270.39 744.416 L1270.39 634.059 L1241.04 634.059 L1241.04 634.059  Z" fill="#009af9" fill-rule="evenodd" fill-opacity="1"></path>
<polyline clip-path="url(#clip972)" style="stroke:#000000; stroke-linecap:round; stroke-linejoin:round; stroke-width:4; stroke-opacity:1; fill:none" points="1241.04,634.059 1241.04,744.416 1270.39,744.416 1270.39,634.059 1241.04,634.059 "></polyline>
<path clip-path="url(#clip972)" d="M1492.66 657.86 L1492.66 744.416 L1522.01 744.416 L1522.01 657.86 L1492.66 657.86 L1492.66 657.86  Z" fill="#009af9" fill-rule="evenodd" fill-opacity="1"></path>
<polyline clip-path="url(#clip972)" style="stroke:#000000; stroke-linecap:round; stroke-linejoin:round; stroke-width:4; stroke-opacity:1; fill:none" points="1492.66,657.86 1492.66,744.416 1522.01,744.416 1522.01,657.86 1492.66,657.86 "></polyline>
<circle clip-path="url(#clip972)" style="fill:#009af9; stroke:none; fill-opacity:0" cx="249.243" cy="244.211" r="2"></circle>
<circle clip-path="url(#clip972)" style="fill:#009af9; stroke:none; fill-opacity:0" cx="500.861" cy="427.063" r="2"></circle>
<circle clip-path="url(#clip972)" style="fill:#009af9; stroke:none; fill-opacity:0" cx="752.479" cy="545.307" r="2"></circle>
<circle clip-path="url(#clip972)" style="fill:#009af9; stroke:none; fill-opacity:0" cx="1004.1" cy="588.293" r="2"></circle>
<circle clip-path="url(#clip972)" style="fill:#009af9; stroke:none; fill-opacity:0" cx="1255.72" cy="634.059" r="2"></circle>
<circle clip-path="url(#clip972)" style="fill:#009af9; stroke:none; fill-opacity:0" cx="1507.33" cy="657.86" r="2"></circle>
<path clip-path="url(#clip972)" d="M263.921 105.328 L263.921 744.416 L293.277 744.416 L293.277 105.328 L263.921 105.328 L263.921 105.328  Z" fill="#e26f46" fill-rule="evenodd" fill-opacity="1"></path>
<polyline clip-path="url(#clip972)" style="stroke:#000000; stroke-linecap:round; stroke-linejoin:round; stroke-width:4; stroke-opacity:1; fill:none" points="263.921,105.328 263.921,744.416 293.277,744.416 293.277,105.328 263.921,105.328 "></polyline>
<path clip-path="url(#clip972)" d="M515.539 419.384 L515.539 744.416 L544.895 744.416 L544.895 419.384 L515.539 419.384 L515.539 419.384  Z" fill="#e26f46" fill-rule="evenodd" fill-opacity="1"></path>
<polyline clip-path="url(#clip972)" style="stroke:#000000; stroke-linecap:round; stroke-linejoin:round; stroke-width:4; stroke-opacity:1; fill:none" points="515.539,419.384 515.539,744.416 544.895,744.416 544.895,419.384 515.539,419.384 "></polyline>
<path clip-path="url(#clip972)" d="M767.157 507.509 L767.157 744.416 L796.513 744.416 L796.513 507.509 L767.157 507.509 L767.157 507.509  Z" fill="#e26f46" fill-rule="evenodd" fill-opacity="1"></path>
<polyline clip-path="url(#clip972)" style="stroke:#000000; stroke-linecap:round; stroke-linejoin:round; stroke-width:4; stroke-opacity:1; fill:none" points="767.157,507.509 767.157,744.416 796.513,744.416 796.513,507.509 767.157,507.509 "></polyline>
<path clip-path="url(#clip972)" d="M1018.78 586.034 L1018.78 744.416 L1048.13 744.416 L1048.13 586.034 L1018.78 586.034 L1018.78 586.034  Z" fill="#e26f46" fill-rule="evenodd" fill-opacity="1"></path>
<polyline clip-path="url(#clip972)" style="stroke:#000000; stroke-linecap:round; stroke-linejoin:round; stroke-width:4; stroke-opacity:1; fill:none" points="1018.78,586.034 1018.78,744.416 1048.13,744.416 1048.13,586.034 1018.78,586.034 "></polyline>
<path clip-path="url(#clip972)" d="M1270.39 617.624 L1270.39 744.416 L1299.75 744.416 L1299.75 617.624 L1270.39 617.624 L1270.39 617.624  Z" fill="#e26f46" fill-rule="evenodd" fill-opacity="1"></path>
<polyline clip-path="url(#clip972)" style="stroke:#000000; stroke-linecap:round; stroke-linejoin:round; stroke-width:4; stroke-opacity:1; fill:none" points="1270.39,617.624 1270.39,744.416 1299.75,744.416 1299.75,617.624 1270.39,617.624 "></polyline>
<path clip-path="url(#clip972)" d="M1522.01 651.386 L1522.01 744.416 L1551.37 744.416 L1551.37 651.386 L1522.01 651.386 L1522.01 651.386  Z" fill="#e26f46" fill-rule="evenodd" fill-opacity="1"></path>
<polyline clip-path="url(#clip972)" style="stroke:#000000; stroke-linecap:round; stroke-linejoin:round; stroke-width:4; stroke-opacity:1; fill:none" points="1522.01,651.386 1522.01,744.416 1551.37,744.416 1551.37,651.386 1522.01,651.386 "></polyline>
<circle clip-path="url(#clip972)" style="fill:#e26f46; stroke:none; fill-opacity:0" cx="278.599" cy="105.328" r="2"></circle>
<circle clip-path="url(#clip972)" style="fill:#e26f46; stroke:none; fill-opacity:0" cx="530.217" cy="419.384" r="2"></circle>
<circle clip-path="url(#clip972)" style="fill:#e26f46; stroke:none; fill-opacity:0" cx="781.835" cy="507.509" r="2"></circle>
<circle clip-path="url(#clip972)" style="fill:#e26f46; stroke:none; fill-opacity:0" cx="1033.45" cy="586.034" r="2"></circle>
<circle clip-path="url(#clip972)" style="fill:#e26f46; stroke:none; fill-opacity:0" cx="1285.07" cy="617.624" r="2"></circle>
<circle clip-path="url(#clip972)" style="fill:#e26f46; stroke:none; fill-opacity:0" cx="1536.69" cy="651.386" r="2"></circle>
<path clip-path="url(#clip972)" d="M293.277 312.208 L293.277 744.416 L322.632 744.416 L322.632 312.208 L293.277 312.208 L293.277 312.208  Z" fill="#3da44d" fill-rule="evenodd" fill-opacity="1"></path>
<polyline clip-path="url(#clip972)" style="stroke:#000000; stroke-linecap:round; stroke-linejoin:round; stroke-width:4; stroke-opacity:1; fill:none" points="293.277,312.208 293.277,744.416 322.632,744.416 322.632,312.208 293.277,312.208 "></polyline>
<path clip-path="url(#clip972)" d="M544.895 353.958 L544.895 744.416 L574.25 744.416 L574.25 353.958 L544.895 353.958 L544.895 353.958  Z" fill="#3da44d" fill-rule="evenodd" fill-opacity="1"></path>
<polyline clip-path="url(#clip972)" style="stroke:#000000; stroke-linecap:round; stroke-linejoin:round; stroke-width:4; stroke-opacity:1; fill:none" points="544.895,353.958 544.895,744.416 574.25,744.416 574.25,353.958 544.895,353.958 "></polyline>
<path clip-path="url(#clip972)" d="M796.513 540.097 L796.513 744.416 L825.868 744.416 L825.868 540.097 L796.513 540.097 L796.513 540.097  Z" fill="#3da44d" fill-rule="evenodd" fill-opacity="1"></path>
<polyline clip-path="url(#clip972)" style="stroke:#000000; stroke-linecap:round; stroke-linejoin:round; stroke-width:4; stroke-opacity:1; fill:none" points="796.513,540.097 796.513,744.416 825.868,744.416 825.868,540.097 796.513,540.097 "></polyline>
<path clip-path="url(#clip972)" d="M1048.13 586.456 L1048.13 744.416 L1077.49 744.416 L1077.49 586.456 L1048.13 586.456 L1048.13 586.456  Z" fill="#3da44d" fill-rule="evenodd" fill-opacity="1"></path>
<polyline clip-path="url(#clip972)" style="stroke:#000000; stroke-linecap:round; stroke-linejoin:round; stroke-width:4; stroke-opacity:1; fill:none" points="1048.13,586.456 1048.13,744.416 1077.49,744.416 1077.49,586.456 1048.13,586.456 "></polyline>
<path clip-path="url(#clip972)" d="M1299.75 612.87 L1299.75 744.416 L1329.1 744.416 L1329.1 612.87 L1299.75 612.87 L1299.75 612.87  Z" fill="#3da44d" fill-rule="evenodd" fill-opacity="1"></path>
<polyline clip-path="url(#clip972)" style="stroke:#000000; stroke-linecap:round; stroke-linejoin:round; stroke-width:4; stroke-opacity:1; fill:none" points="1299.75,612.87 1299.75,744.416 1329.1,744.416 1329.1,612.87 1299.75,612.87 "></polyline>
<path clip-path="url(#clip972)" d="M1551.37 652.898 L1551.37 744.416 L1580.72 744.416 L1580.72 652.898 L1551.37 652.898 L1551.37 652.898  Z" fill="#3da44d" fill-rule="evenodd" fill-opacity="1"></path>
<polyline clip-path="url(#clip972)" style="stroke:#000000; stroke-linecap:round; stroke-linejoin:round; stroke-width:4; stroke-opacity:1; fill:none" points="1551.37,652.898 1551.37,744.416 1580.72,744.416 1580.72,652.898 1551.37,652.898 "></polyline>
<circle clip-path="url(#clip972)" style="fill:#3da44d; stroke:none; fill-opacity:0" cx="307.954" cy="312.208" r="2"></circle>
<circle clip-path="url(#clip972)" style="fill:#3da44d; stroke:none; fill-opacity:0" cx="559.572" cy="353.958" r="2"></circle>
<circle clip-path="url(#clip972)" style="fill:#3da44d; stroke:none; fill-opacity:0" cx="811.19" cy="540.097" r="2"></circle>
<circle clip-path="url(#clip972)" style="fill:#3da44d; stroke:none; fill-opacity:0" cx="1062.81" cy="586.456" r="2"></circle>
<circle clip-path="url(#clip972)" style="fill:#3da44d; stroke:none; fill-opacity:0" cx="1314.43" cy="612.87" r="2"></circle>
<circle clip-path="url(#clip972)" style="fill:#3da44d; stroke:none; fill-opacity:0" cx="1566.04" cy="652.898" r="2"></circle>
<path clip-path="url(#clip972)" d="M322.632 302.138 L322.632 744.416 L351.987 744.416 L351.987 302.138 L322.632 302.138 L322.632 302.138  Z" fill="#c271d2" fill-rule="evenodd" fill-opacity="1"></path>
<polyline clip-path="url(#clip972)" style="stroke:#000000; stroke-linecap:round; stroke-linejoin:round; stroke-width:4; stroke-opacity:1; fill:none" points="322.632,302.138 322.632,744.416 351.987,744.416 351.987,302.138 322.632,302.138 "></polyline>
<path clip-path="url(#clip972)" d="M574.25 432.764 L574.25 744.416 L603.605 744.416 L603.605 432.764 L574.25 432.764 L574.25 432.764  Z" fill="#c271d2" fill-rule="evenodd" fill-opacity="1"></path>
<polyline clip-path="url(#clip972)" style="stroke:#000000; stroke-linecap:round; stroke-linejoin:round; stroke-width:4; stroke-opacity:1; fill:none" points="574.25,432.764 574.25,744.416 603.605,744.416 603.605,432.764 574.25,432.764 "></polyline>
<path clip-path="url(#clip972)" d="M825.868 500.206 L825.868 744.416 L855.223 744.416 L855.223 500.206 L825.868 500.206 L825.868 500.206  Z" fill="#c271d2" fill-rule="evenodd" fill-opacity="1"></path>
<polyline clip-path="url(#clip972)" style="stroke:#000000; stroke-linecap:round; stroke-linejoin:round; stroke-width:4; stroke-opacity:1; fill:none" points="825.868,500.206 825.868,744.416 855.223,744.416 855.223,500.206 825.868,500.206 "></polyline>
<path clip-path="url(#clip972)" d="M1077.49 589.088 L1077.49 744.416 L1106.84 744.416 L1106.84 589.088 L1077.49 589.088 L1077.49 589.088  Z" fill="#c271d2" fill-rule="evenodd" fill-opacity="1"></path>
<polyline clip-path="url(#clip972)" style="stroke:#000000; stroke-linecap:round; stroke-linejoin:round; stroke-width:4; stroke-opacity:1; fill:none" points="1077.49,589.088 1077.49,744.416 1106.84,744.416 1106.84,589.088 1077.49,589.088 "></polyline>
<path clip-path="url(#clip972)" d="M1329.1 614.08 L1329.1 744.416 L1358.46 744.416 L1358.46 614.08 L1329.1 614.08 L1329.1 614.08  Z" fill="#c271d2" fill-rule="evenodd" fill-opacity="1"></path>
<polyline clip-path="url(#clip972)" style="stroke:#000000; stroke-linecap:round; stroke-linejoin:round; stroke-width:4; stroke-opacity:1; fill:none" points="1329.1,614.08 1329.1,744.416 1358.46,744.416 1358.46,614.08 1329.1,614.08 "></polyline>
<path clip-path="url(#clip972)" d="M1580.72 662.977 L1580.72 744.416 L1610.08 744.416 L1610.08 662.977 L1580.72 662.977 L1580.72 662.977  Z" fill="#c271d2" fill-rule="evenodd" fill-opacity="1"></path>
<polyline clip-path="url(#clip972)" style="stroke:#000000; stroke-linecap:round; stroke-linejoin:round; stroke-width:4; stroke-opacity:1; fill:none" points="1580.72,662.977 1580.72,744.416 1610.08,744.416 1610.08,662.977 1580.72,662.977 "></polyline>
<circle clip-path="url(#clip972)" style="fill:#c271d2; stroke:none; fill-opacity:0" cx="337.31" cy="302.138" r="2"></circle>
<circle clip-path="url(#clip972)" style="fill:#c271d2; stroke:none; fill-opacity:0" cx="588.928" cy="432.764" r="2"></circle>
<circle clip-path="url(#clip972)" style="fill:#c271d2; stroke:none; fill-opacity:0" cx="840.546" cy="500.206" r="2"></circle>
<circle clip-path="url(#clip972)" style="fill:#c271d2; stroke:none; fill-opacity:0" cx="1092.16" cy="589.088" r="2"></circle>
<circle clip-path="url(#clip972)" style="fill:#c271d2; stroke:none; fill-opacity:0" cx="1343.78" cy="614.08" r="2"></circle>
<circle clip-path="url(#clip972)" style="fill:#c271d2; stroke:none; fill-opacity:0" cx="1595.4" cy="662.977" r="2"></circle>
<path clip-path="url(#clip972)" d="M351.987 310.351 L351.987 744.416 L381.343 744.416 L381.343 310.351 L351.987 310.351 L351.987 310.351  Z" fill="#ac8d18" fill-rule="evenodd" fill-opacity="1"></path>
<polyline clip-path="url(#clip972)" style="stroke:#000000; stroke-linecap:round; stroke-linejoin:round; stroke-width:4; stroke-opacity:1; fill:none" points="351.987,310.351 351.987,744.416 381.343,744.416 381.343,310.351 351.987,310.351 "></polyline>
<path clip-path="url(#clip972)" d="M603.605 421.22 L603.605 744.416 L632.961 744.416 L632.961 421.22 L603.605 421.22 L603.605 421.22  Z" fill="#ac8d18" fill-rule="evenodd" fill-opacity="1"></path>
<polyline clip-path="url(#clip972)" style="stroke:#000000; stroke-linecap:round; stroke-linejoin:round; stroke-width:4; stroke-opacity:1; fill:none" points="603.605,421.22 603.605,744.416 632.961,744.416 632.961,421.22 603.605,421.22 "></polyline>
<path clip-path="url(#clip972)" d="M855.223 527.586 L855.223 744.416 L884.579 744.416 L884.579 527.586 L855.223 527.586 L855.223 527.586  Z" fill="#ac8d18" fill-rule="evenodd" fill-opacity="1"></path>
<polyline clip-path="url(#clip972)" style="stroke:#000000; stroke-linecap:round; stroke-linejoin:round; stroke-width:4; stroke-opacity:1; fill:none" points="855.223,527.586 855.223,744.416 884.579,744.416 884.579,527.586 855.223,527.586 "></polyline>
<path clip-path="url(#clip972)" d="M1106.84 586.332 L1106.84 744.416 L1136.2 744.416 L1136.2 586.332 L1106.84 586.332 L1106.84 586.332  Z" fill="#ac8d18" fill-rule="evenodd" fill-opacity="1"></path>
<polyline clip-path="url(#clip972)" style="stroke:#000000; stroke-linecap:round; stroke-linejoin:round; stroke-width:4; stroke-opacity:1; fill:none" points="1106.84,586.332 1106.84,744.416 1136.2,744.416 1136.2,586.332 1106.84,586.332 "></polyline>
<path clip-path="url(#clip972)" d="M1358.46 631.152 L1358.46 744.416 L1387.81 744.416 L1387.81 631.152 L1358.46 631.152 L1358.46 631.152  Z" fill="#ac8d18" fill-rule="evenodd" fill-opacity="1"></path>
<polyline clip-path="url(#clip972)" style="stroke:#000000; stroke-linecap:round; stroke-linejoin:round; stroke-width:4; stroke-opacity:1; fill:none" points="1358.46,631.152 1358.46,744.416 1387.81,744.416 1387.81,631.152 1358.46,631.152 "></polyline>
<path clip-path="url(#clip972)" d="M1610.08 667.391 L1610.08 744.416 L1639.43 744.416 L1639.43 667.391 L1610.08 667.391 L1610.08 667.391  Z" fill="#ac8d18" fill-rule="evenodd" fill-opacity="1"></path>
<polyline clip-path="url(#clip972)" style="stroke:#000000; stroke-linecap:round; stroke-linejoin:round; stroke-width:4; stroke-opacity:1; fill:none" points="1610.08,667.391 1610.08,744.416 1639.43,744.416 1639.43,667.391 1610.08,667.391 "></polyline>
<circle clip-path="url(#clip972)" style="fill:#ac8d18; stroke:none; fill-opacity:0" cx="366.665" cy="310.351" r="2"></circle>
<circle clip-path="url(#clip972)" style="fill:#ac8d18; stroke:none; fill-opacity:0" cx="618.283" cy="421.22" r="2"></circle>
<circle clip-path="url(#clip972)" style="fill:#ac8d18; stroke:none; fill-opacity:0" cx="869.901" cy="527.586" r="2"></circle>
<circle clip-path="url(#clip972)" style="fill:#ac8d18; stroke:none; fill-opacity:0" cx="1121.52" cy="586.332" r="2"></circle>
<circle clip-path="url(#clip972)" style="fill:#ac8d18; stroke:none; fill-opacity:0" cx="1373.14" cy="631.152" r="2"></circle>
<circle clip-path="url(#clip972)" style="fill:#ac8d18; stroke:none; fill-opacity:0" cx="1624.76" cy="667.391" r="2"></circle>
<path clip-path="url(#clip972)" d="M381.343 312.133 L381.343 744.416 L410.698 744.416 L410.698 312.133 L381.343 312.133 L381.343 312.133  Z" fill="#00a9ad" fill-rule="evenodd" fill-opacity="1"></path>
<polyline clip-path="url(#clip972)" style="stroke:#000000; stroke-linecap:round; stroke-linejoin:round; stroke-width:4; stroke-opacity:1; fill:none" points="381.343,312.133 381.343,744.416 410.698,744.416 410.698,312.133 381.343,312.133 "></polyline>
<path clip-path="url(#clip972)" d="M632.961 414.146 L632.961 744.416 L662.316 744.416 L662.316 414.146 L632.961 414.146 L632.961 414.146  Z" fill="#00a9ad" fill-rule="evenodd" fill-opacity="1"></path>
<polyline clip-path="url(#clip972)" style="stroke:#000000; stroke-linecap:round; stroke-linejoin:round; stroke-width:4; stroke-opacity:1; fill:none" points="632.961,414.146 632.961,744.416 662.316,744.416 662.316,414.146 632.961,414.146 "></polyline>
<path clip-path="url(#clip972)" d="M884.579 529.991 L884.579 744.416 L913.934 744.416 L913.934 529.991 L884.579 529.991 L884.579 529.991  Z" fill="#00a9ad" fill-rule="evenodd" fill-opacity="1"></path>
<polyline clip-path="url(#clip972)" style="stroke:#000000; stroke-linecap:round; stroke-linejoin:round; stroke-width:4; stroke-opacity:1; fill:none" points="884.579,529.991 884.579,744.416 913.934,744.416 913.934,529.991 884.579,529.991 "></polyline>
<path clip-path="url(#clip972)" d="M1136.2 576.399 L1136.2 744.416 L1165.55 744.416 L1165.55 576.399 L1136.2 576.399 L1136.2 576.399  Z" fill="#00a9ad" fill-rule="evenodd" fill-opacity="1"></path>
<polyline clip-path="url(#clip972)" style="stroke:#000000; stroke-linecap:round; stroke-linejoin:round; stroke-width:4; stroke-opacity:1; fill:none" points="1136.2,576.399 1136.2,744.416 1165.55,744.416 1165.55,576.399 1136.2,576.399 "></polyline>
<path clip-path="url(#clip972)" d="M1387.81 645.264 L1387.81 744.416 L1417.17 744.416 L1417.17 645.264 L1387.81 645.264 L1387.81 645.264  Z" fill="#00a9ad" fill-rule="evenodd" fill-opacity="1"></path>
<polyline clip-path="url(#clip972)" style="stroke:#000000; stroke-linecap:round; stroke-linejoin:round; stroke-width:4; stroke-opacity:1; fill:none" points="1387.81,645.264 1387.81,744.416 1417.17,744.416 1417.17,645.264 1387.81,645.264 "></polyline>
<path clip-path="url(#clip972)" d="M1639.43 666.777 L1639.43 744.416 L1668.79 744.416 L1668.79 666.777 L1639.43 666.777 L1639.43 666.777  Z" fill="#00a9ad" fill-rule="evenodd" fill-opacity="1"></path>
<polyline clip-path="url(#clip972)" style="stroke:#000000; stroke-linecap:round; stroke-linejoin:round; stroke-width:4; stroke-opacity:1; fill:none" points="1639.43,666.777 1639.43,744.416 1668.79,744.416 1668.79,666.777 1639.43,666.777 "></polyline>
<circle clip-path="url(#clip972)" style="fill:#00a9ad; stroke:none; fill-opacity:0" cx="396.021" cy="312.133" r="2"></circle>
<circle clip-path="url(#clip972)" style="fill:#00a9ad; stroke:none; fill-opacity:0" cx="647.639" cy="414.146" r="2"></circle>
<circle clip-path="url(#clip972)" style="fill:#00a9ad; stroke:none; fill-opacity:0" cx="899.257" cy="529.991" r="2"></circle>
<circle clip-path="url(#clip972)" style="fill:#00a9ad; stroke:none; fill-opacity:0" cx="1150.87" cy="576.399" r="2"></circle>
<circle clip-path="url(#clip972)" style="fill:#00a9ad; stroke:none; fill-opacity:0" cx="1402.49" cy="645.264" r="2"></circle>
<circle clip-path="url(#clip972)" style="fill:#00a9ad; stroke:none; fill-opacity:0" cx="1654.11" cy="666.777" r="2"></circle>
</svg>