<svg xmlns="http://www.w3.org/2000/svg" xmlns:xlink="http://www.w3.org/1999/xlink" width="450" height="210" viewBox="0 0 1800 840">
<defs>
  <clipPath id="clip930">
    <rect x="0" y="0" width="1800" height="840"></rect>
  </clipPath>
</defs>
<path clip-path="url(#clip930)" d="M0 840 L1800 840 L1800 0 L0 0  Z" fill="#ffffff" fill-rule="evenodd" fill-opacity="1"></path>
<defs>
  <clipPath id="clip931">
    <rect x="360" y="0" width="1261" height="840"></rect>
  </clipPath>
</defs>
<path clip-path="url(#clip930)" d="M150.112 744.416 L1752.76 744.416 L1752.76 105.328 L150.112 105.328  Z" fill="#ffffff" fill-rule="evenodd" fill-opacity="1"></path>
<defs>
  <clipPath id="clip932">
    <rect x="150" y="105" width="1604" height="640"></rect>
  </clipPath>
</defs>
<polyline clip-path="url(#clip932)" style="stroke:#000000; stroke-linecap:round; stroke-linejoin:round; stroke-width:2; stroke-opacity:0.1; fill:none" points="322.198,744.416 322.198,105.328 "></polyline>
<polyline clip-path="url(#clip932)" style="stroke:#000000; stroke-linecap:round; stroke-linejoin:round; stroke-width:2; stroke-opacity:0.1; fill:none" points="573.892,744.416 573.892,105.328 "></polyline>
<polyline clip-path="url(#clip932)" style="stroke:#000000; stroke-linecap:round; stroke-linejoin:round; stroke-width:2; stroke-opacity:0.1; fill:none" points="825.587,744.416 825.587,105.328 "></polyline>
<polyline clip-path="url(#clip932)" style="stroke:#000000; stroke-linecap:round; stroke-linejoin:round; stroke-width:2; stroke-opacity:0.1; fill:none" points="1077.28,744.416 1077.28,105.328 "></polyline>
<polyline clip-path="url(#clip932)" style="stroke:#000000; stroke-linecap:round; stroke-linejoin:round; stroke-width:2; stroke-opacity:0.1; fill:none" points="1328.98,744.416 1328.98,105.328 "></polyline>
<polyline clip-path="url(#clip932)" style="stroke:#000000; stroke-linecap:round; stroke-linejoin:round; stroke-width:2; stroke-opacity:0.1; fill:none" points="1580.67,744.416 1580.67,105.328 "></polyline>
<polyline clip-path="url(#clip932)" style="stroke:#000000; stroke-linecap:round; stroke-linejoin:round; stroke-width:2; stroke-opacity:0.1; fill:none" points="150.112,744.416 1752.76,744.416 "></polyline>
<polyline clip-path="url(#clip932)" style="stroke:#000000; stroke-linecap:round; stroke-linejoin:round; stroke-width:2; stroke-opacity:0.1; fill:none" points="150.112,549.812 1752.76,549.812 "></polyline>
<polyline clip-path="url(#clip932)" style="stroke:#000000; stroke-linecap:round; stroke-linejoin:round; stroke-width:2; stroke-opacity:0.1; fill:none" points="150.112,355.209 1752.76,355.209 "></polyline>
<polyline clip-path="url(#clip932)" style="stroke:#000000; stroke-linecap:round; stroke-linejoin:round; stroke-width:2; stroke-opacity:0.1; fill:none" points="150.112,160.605 1752.76,160.605 "></polyline>
<polyline clip-path="url(#clip930)" style="stroke:#000000; stroke-linecap:round; stroke-linejoin:round; stroke-width:4; stroke-opacity:1; fill:none" points="150.112,744.416 1752.76,744.416 "></polyline>
<polyline clip-path="url(#clip930)" style="stroke:#000000; stroke-linecap:round; stroke-linejoin:round; stroke-width:4; stroke-opacity:1; fill:none" points="322.198,744.416 322.198,725.518 "></polyline>
<polyline clip-path="url(#clip930)" style="stroke:#000000; stroke-linecap:round; stroke-linejoin:round; stroke-width:4; stroke-opacity:1; fill:none" points="573.892,744.416 573.892,725.518 "></polyline>
<polyline clip-path="url(#clip930)" style="stroke:#000000; stroke-linecap:round; stroke-linejoin:round; stroke-width:4; stroke-opacity:1; fill:none" points="825.587,744.416 825.587,725.518 "></polyline>
<polyline clip-path="url(#clip930)" style="stroke:#000000; stroke-linecap:round; stroke-linejoin:round; stroke-width:4; stroke-opacity:1; fill:none" points="1077.28,744.416 1077.28,725.518 "></polyline>
<polyline clip-path="url(#clip930)" style="stroke:#000000; stroke-linecap:round; stroke-linejoin:round; stroke-width:4; stroke-opacity:1; fill:none" points="1328.98,744.416 1328.98,725.518 "></polyline>
<polyline clip-path="url(#clip930)" style="stroke:#000000; stroke-linecap:round; stroke-linejoin:round; stroke-width:4; stroke-opacity:1; fill:none" points="1580.67,744.416 1580.67,725.518 "></polyline>
<path clip-path="url(#clip930)" d="M266.481 798.081 L274.12 798.081 L274.12 771.715 L265.809 773.382 L265.809 769.123 L274.073 767.456 L278.749 767.456 L278.749 798.081 L286.388 798.081 L286.388 802.016 L266.481 802.016 L266.481 798.081 Z" fill="#000000" fill-rule="nonzero" fill-opacity="1"></path><path clip-path="url(#clip930)" d="M305.832 770.535 Q302.221 770.535 300.393 774.099 Q298.587 777.641 298.587 784.771 Q298.587 791.877 300.393 795.442 Q302.221 798.983 305.832 798.983 Q309.467 798.983 311.272 795.442 Q313.101 791.877 313.101 784.771 Q313.101 777.641 311.272 774.099 Q309.467 770.535 305.832 770.535 M305.832 766.831 Q311.643 766.831 314.698 771.437 Q317.777 776.021 317.777 784.771 Q317.777 793.497 314.698 798.104 Q311.643 802.687 305.832 802.687 Q300.022 802.687 296.944 798.104 Q293.888 793.497 293.888 784.771 Q293.888 776.021 296.944 771.437 Q300.022 766.831 305.832 766.831 Z" fill="#000000" fill-rule="nonzero" fill-opacity="1"></path><path clip-path="url(#clip930)" d="M330.022 798.081 L346.341 798.081 L346.341 802.016 L324.397 802.016 L324.397 798.081 Q327.059 795.326 331.642 790.696 Q336.249 786.044 337.429 784.701 Q339.675 782.178 340.554 780.442 Q341.457 778.683 341.457 776.993 Q341.457 774.238 339.513 772.502 Q337.592 770.766 334.49 770.766 Q332.291 770.766 329.837 771.53 Q327.406 772.294 324.629 773.845 L324.629 769.123 Q327.453 767.988 329.906 767.41 Q332.36 766.831 334.397 766.831 Q339.767 766.831 342.962 769.516 Q346.156 772.201 346.156 776.692 Q346.156 778.822 345.346 780.743 Q344.559 782.641 342.453 785.234 Q341.874 785.905 338.772 789.122 Q335.67 792.317 330.022 798.081 Z" fill="#000000" fill-rule="nonzero" fill-opacity="1"></path><path clip-path="url(#clip930)" d="M369.003 771.53 L357.198 789.979 L369.003 789.979 L369.003 771.53 M367.777 767.456 L373.656 767.456 L373.656 789.979 L378.587 789.979 L378.587 793.868 L373.656 793.868 L373.656 802.016 L369.003 802.016 L369.003 793.868 L353.402 793.868 L353.402 789.354 L367.777 767.456 Z" fill="#000000" fill-rule="nonzero" fill-opacity="1"></path><path clip-path="url(#clip930)" d="M522.55 798.081 L538.869 798.081 L538.869 802.016 L516.925 802.016 L516.925 798.081 Q519.587 795.326 524.171 790.696 Q528.777 786.044 529.958 784.701 Q532.203 782.178 533.082 780.442 Q533.985 778.683 533.985 776.993 Q533.985 774.238 532.041 772.502 Q530.12 770.766 527.018 770.766 Q524.819 770.766 522.365 771.53 Q519.934 772.294 517.157 773.845 L517.157 769.123 Q519.981 767.988 522.434 767.41 Q524.888 766.831 526.925 766.831 Q532.295 766.831 535.49 769.516 Q538.684 772.201 538.684 776.692 Q538.684 778.822 537.874 780.743 Q537.087 782.641 534.981 785.234 Q534.402 785.905 531.3 789.122 Q528.198 792.317 522.55 798.081 Z" fill="#000000" fill-rule="nonzero" fill-opacity="1"></path><path clip-path="url(#clip930)" d="M558.684 770.535 Q555.073 770.535 553.244 774.099 Q551.439 777.641 551.439 784.771 Q551.439 791.877 553.244 795.442 Q555.073 798.983 558.684 798.983 Q562.318 798.983 564.124 795.442 Q565.953 791.877 565.953 784.771 Q565.953 777.641 564.124 774.099 Q562.318 770.535 558.684 770.535 M558.684 766.831 Q564.494 766.831 567.55 771.437 Q570.629 776.021 570.629 784.771 Q570.629 793.497 567.55 798.104 Q564.494 802.687 558.684 802.687 Q552.874 802.687 549.795 798.104 Q546.74 793.497 546.74 784.771 Q546.74 776.021 549.795 771.437 Q552.874 766.831 558.684 766.831 Z" fill="#000000" fill-rule="nonzero" fill-opacity="1"></path><path clip-path="url(#clip930)" d="M591.693 771.53 L579.888 789.979 L591.693 789.979 L591.693 771.53 M590.466 767.456 L596.346 767.456 L596.346 789.979 L601.277 789.979 L601.277 793.868 L596.346 793.868 L596.346 802.016 L591.693 802.016 L591.693 793.868 L576.092 793.868 L576.092 789.354 L590.466 767.456 Z" fill="#000000" fill-rule="nonzero" fill-opacity="1"></path><path clip-path="url(#clip930)" d="M619.008 785.604 Q615.675 785.604 613.753 787.386 Q611.855 789.169 611.855 792.294 Q611.855 795.419 613.753 797.201 Q615.675 798.983 619.008 798.983 Q622.341 798.983 624.263 797.201 Q626.184 795.396 626.184 792.294 Q626.184 789.169 624.263 787.386 Q622.364 785.604 619.008 785.604 M614.332 783.613 Q611.323 782.872 609.633 780.812 Q607.966 778.752 607.966 775.789 Q607.966 771.646 610.906 769.238 Q613.869 766.831 619.008 766.831 Q624.17 766.831 627.11 769.238 Q630.05 771.646 630.05 775.789 Q630.05 778.752 628.36 780.812 Q626.693 782.872 623.707 783.613 Q627.087 784.4 628.962 786.692 Q630.86 788.984 630.86 792.294 Q630.86 797.317 627.781 800.002 Q624.726 802.687 619.008 802.687 Q613.29 802.687 610.212 800.002 Q607.156 797.317 607.156 792.294 Q607.156 788.984 609.054 786.692 Q610.952 784.4 614.332 783.613 M612.619 776.229 Q612.619 778.914 614.286 780.419 Q615.976 781.923 619.008 781.923 Q622.017 781.923 623.707 780.419 Q625.42 778.914 625.42 776.229 Q625.42 773.544 623.707 772.039 Q622.017 770.535 619.008 770.535 Q615.976 770.535 614.286 772.039 Q612.619 773.544 612.619 776.229 Z" fill="#000000" fill-rule="nonzero" fill-opacity="1"></path><path clip-path="url(#clip930)" d="M783.515 771.53 L771.71 789.979 L783.515 789.979 L783.515 771.53 M782.288 767.456 L788.168 767.456 L788.168 789.979 L793.099 789.979 L793.099 793.868 L788.168 793.868 L788.168 802.016 L783.515 802.016 L783.515 793.868 L767.914 793.868 L767.914 789.354 L782.288 767.456 Z" fill="#000000" fill-rule="nonzero" fill-opacity="1"></path><path clip-path="url(#clip930)" d="M810.83 770.535 Q807.219 770.535 805.39 774.099 Q803.585 777.641 803.585 784.771 Q803.585 791.877 805.39 795.442 Q807.219 798.983 810.83 798.983 Q814.464 798.983 816.27 795.442 Q818.098 791.877 818.098 784.771 Q818.098 777.641 816.27 774.099 Q814.464 770.535 810.83 770.535 M810.83 766.831 Q816.64 766.831 819.696 771.437 Q822.774 776.021 822.774 784.771 Q822.774 793.497 819.696 798.104 Q816.64 802.687 810.83 802.687 Q805.02 802.687 801.941 798.104 Q798.886 793.497 798.886 784.771 Q798.886 776.021 801.941 771.437 Q805.02 766.831 810.83 766.831 Z" fill="#000000" fill-rule="nonzero" fill-opacity="1"></path><path clip-path="url(#clip930)" d="M831.131 801.298 L831.131 797.039 Q832.89 797.872 834.696 798.312 Q836.501 798.752 838.237 798.752 Q842.867 798.752 845.297 795.65 Q847.751 792.525 848.098 786.183 Q846.756 788.173 844.696 789.238 Q842.635 790.303 840.135 790.303 Q834.95 790.303 831.918 787.178 Q828.909 784.03 828.909 778.59 Q828.909 773.266 832.057 770.048 Q835.205 766.831 840.436 766.831 Q846.432 766.831 849.58 771.437 Q852.751 776.021 852.751 784.771 Q852.751 792.942 848.862 797.826 Q844.996 802.687 838.446 802.687 Q836.686 802.687 834.881 802.34 Q833.075 801.993 831.131 801.298 M840.436 786.646 Q843.584 786.646 845.413 784.493 Q847.265 782.34 847.265 778.59 Q847.265 774.863 845.413 772.71 Q843.584 770.535 840.436 770.535 Q837.288 770.535 835.436 772.71 Q833.608 774.863 833.608 778.59 Q833.608 782.34 835.436 784.493 Q837.288 786.646 840.436 786.646 Z" fill="#000000" fill-rule="nonzero" fill-opacity="1"></path><path clip-path="url(#clip930)" d="M871.732 782.872 Q868.584 782.872 866.732 785.025 Q864.904 787.178 864.904 790.928 Q864.904 794.655 866.732 796.831 Q868.584 798.983 871.732 798.983 Q874.881 798.983 876.709 796.831 Q878.561 794.655 878.561 790.928 Q878.561 787.178 876.709 785.025 Q874.881 782.872 871.732 782.872 M881.015 768.22 L881.015 772.479 Q879.256 771.646 877.45 771.206 Q875.668 770.766 873.908 770.766 Q869.279 770.766 866.825 773.891 Q864.394 777.016 864.047 783.335 Q865.413 781.322 867.473 780.257 Q869.533 779.169 872.01 779.169 Q877.218 779.169 880.228 782.34 Q883.26 785.488 883.26 790.928 Q883.26 796.252 880.112 799.47 Q876.964 802.687 871.732 802.687 Q865.737 802.687 862.566 798.104 Q859.395 793.497 859.395 784.771 Q859.395 776.576 863.283 771.715 Q867.172 766.831 873.723 766.831 Q875.482 766.831 877.265 767.178 Q879.07 767.525 881.015 768.22 Z" fill="#000000" fill-rule="nonzero" fill-opacity="1"></path><path clip-path="url(#clip930)" d="M1032.79 785.604 Q1029.46 785.604 1027.54 787.386 Q1025.64 789.169 1025.64 792.294 Q1025.64 795.419 1027.54 797.201 Q1029.46 798.983 1032.79 798.983 Q1036.12 798.983 1038.05 797.201 Q1039.97 795.396 1039.97 792.294 Q1039.97 789.169 1038.05 787.386 Q1036.15 785.604 1032.79 785.604 M1028.11 783.613 Q1025.11 782.872 1023.42 780.812 Q1021.75 778.752 1021.75 775.789 Q1021.75 771.646 1024.69 769.238 Q1027.65 766.831 1032.79 766.831 Q1037.95 766.831 1040.89 769.238 Q1043.83 771.646 1043.83 775.789 Q1043.83 778.752 1042.14 780.812 Q1040.48 782.872 1037.49 783.613 Q1040.87 784.4 1042.74 786.692 Q1044.64 788.984 1044.64 792.294 Q1044.64 797.317 1041.56 800.002 Q1038.51 802.687 1032.79 802.687 Q1027.07 802.687 1023.99 800.002 Q1020.94 797.317 1020.94 792.294 Q1020.94 788.984 1022.84 786.692 Q1024.74 784.4 1028.11 783.613 M1026.4 776.229 Q1026.4 778.914 1028.07 780.419 Q1029.76 781.923 1032.79 781.923 Q1035.8 781.923 1037.49 780.419 Q1039.2 778.914 1039.2 776.229 Q1039.2 773.544 1037.49 772.039 Q1035.8 770.535 1032.79 770.535 Q1029.76 770.535 1028.07 772.039 Q1026.4 773.544 1026.4 776.229 Z" fill="#000000" fill-rule="nonzero" fill-opacity="1"></path><path clip-path="url(#clip930)" d="M1053.76 798.081 L1061.4 798.081 L1061.4 771.715 L1053.09 773.382 L1053.09 769.123 L1061.36 767.456 L1066.03 767.456 L1066.03 798.081 L1073.67 798.081 L1073.67 802.016 L1053.76 802.016 L1053.76 798.081 Z" fill="#000000" fill-rule="nonzero" fill-opacity="1"></path><path clip-path="url(#clip930)" d="M1083.25 801.298 L1083.25 797.039 Q1085.01 797.872 1086.82 798.312 Q1088.62 798.752 1090.36 798.752 Q1094.99 798.752 1097.42 795.65 Q1099.87 792.525 1100.22 786.183 Q1098.88 788.173 1096.82 789.238 Q1094.76 790.303 1092.26 790.303 Q1087.07 790.303 1084.04 787.178 Q1081.03 784.03 1081.03 778.59 Q1081.03 773.266 1084.18 770.048 Q1087.33 766.831 1092.56 766.831 Q1098.55 766.831 1101.7 771.437 Q1104.87 776.021 1104.87 784.771 Q1104.87 792.942 1100.98 797.826 Q1097.12 802.687 1090.57 802.687 Q1088.81 802.687 1087 802.34 Q1085.2 801.993 1083.25 801.298 M1092.56 786.646 Q1095.71 786.646 1097.54 784.493 Q1099.39 782.34 1099.39 778.59 Q1099.39 774.863 1097.54 772.71 Q1095.71 770.535 1092.56 770.535 Q1089.41 770.535 1087.56 772.71 Q1085.73 774.863 1085.73 778.59 Q1085.73 782.34 1087.56 784.493 Q1089.41 786.646 1092.56 786.646 Z" fill="#000000" fill-rule="nonzero" fill-opacity="1"></path><path clip-path="url(#clip930)" d="M1117.3 798.081 L1133.62 798.081 L1133.62 802.016 L1111.68 802.016 L1111.68 798.081 Q1114.34 795.326 1118.92 790.696 Q1123.53 786.044 1124.71 784.701 Q1126.96 782.178 1127.84 780.442 Q1128.74 778.683 1128.74 776.993 Q1128.74 774.238 1126.79 772.502 Q1124.87 770.766 1121.77 770.766 Q1119.57 770.766 1117.12 771.53 Q1114.69 772.294 1111.91 773.845 L1111.91 769.123 Q1114.73 767.988 1117.19 767.41 Q1119.64 766.831 1121.68 766.831 Q1127.05 766.831 1130.24 769.516 Q1133.44 772.201 1133.44 776.692 Q1133.44 778.822 1132.63 780.743 Q1131.84 782.641 1129.73 785.234 Q1129.16 785.905 1126.05 789.122 Q1122.95 792.317 1117.3 798.081 Z" fill="#000000" fill-rule="nonzero" fill-opacity="1"></path><path clip-path="url(#clip930)" d="M1258.18 798.081 L1265.82 798.081 L1265.82 771.715 L1257.51 773.382 L1257.51 769.123 L1265.77 767.456 L1270.45 767.456 L1270.45 798.081 L1278.08 798.081 L1278.08 802.016 L1258.18 802.016 L1258.18 798.081 Z" fill="#000000" fill-rule="nonzero" fill-opacity="1"></path><path clip-path="url(#clip930)" d="M1298.11 782.872 Q1294.96 782.872 1293.11 785.025 Q1291.28 787.178 1291.28 790.928 Q1291.28 794.655 1293.11 796.831 Q1294.96 798.983 1298.11 798.983 Q1301.26 798.983 1303.08 796.831 Q1304.94 794.655 1304.94 790.928 Q1304.94 787.178 1303.08 785.025 Q1301.26 782.872 1298.11 782.872 M1307.39 768.22 L1307.39 772.479 Q1305.63 771.646 1303.83 771.206 Q1302.04 770.766 1300.28 770.766 Q1295.65 770.766 1293.2 773.891 Q1290.77 777.016 1290.42 783.335 Q1291.79 781.322 1293.85 780.257 Q1295.91 779.169 1298.39 779.169 Q1303.59 779.169 1306.6 782.34 Q1309.64 785.488 1309.64 790.928 Q1309.64 796.252 1306.49 799.47 Q1303.34 802.687 1298.11 802.687 Q1292.11 802.687 1288.94 798.104 Q1285.77 793.497 1285.77 784.771 Q1285.77 776.576 1289.66 771.715 Q1293.55 766.831 1300.1 766.831 Q1301.86 766.831 1303.64 767.178 Q1305.45 767.525 1307.39 768.22 Z" fill="#000000" fill-rule="nonzero" fill-opacity="1"></path><path clip-path="url(#clip930)" d="M1331.86 783.382 Q1335.21 784.099 1337.09 786.368 Q1338.99 788.636 1338.99 791.97 Q1338.99 797.085 1335.47 799.886 Q1331.95 802.687 1325.47 802.687 Q1323.29 802.687 1320.98 802.247 Q1318.69 801.831 1316.23 800.974 L1316.23 796.46 Q1318.18 797.595 1320.49 798.173 Q1322.81 798.752 1325.33 798.752 Q1329.73 798.752 1332.02 797.016 Q1334.33 795.28 1334.33 791.97 Q1334.33 788.914 1332.18 787.201 Q1330.05 785.465 1326.23 785.465 L1322.2 785.465 L1322.2 781.622 L1326.42 781.622 Q1329.87 781.622 1331.7 780.257 Q1333.52 778.868 1333.52 776.275 Q1333.52 773.613 1331.63 772.201 Q1329.75 770.766 1326.23 770.766 Q1324.31 770.766 1322.11 771.183 Q1319.91 771.599 1317.27 772.479 L1317.27 768.312 Q1319.94 767.572 1322.25 767.201 Q1324.59 766.831 1326.65 766.831 Q1331.97 766.831 1335.08 769.261 Q1338.18 771.669 1338.18 775.789 Q1338.18 778.66 1336.53 780.65 Q1334.89 782.618 1331.86 783.382 Z" fill="#000000" fill-rule="nonzero" fill-opacity="1"></path><path clip-path="url(#clip930)" d="M1357.85 785.604 Q1354.52 785.604 1352.6 787.386 Q1350.7 789.169 1350.7 792.294 Q1350.7 795.419 1352.6 797.201 Q1354.52 798.983 1357.85 798.983 Q1361.19 798.983 1363.11 797.201 Q1365.03 795.396 1365.03 792.294 Q1365.03 789.169 1363.11 787.386 Q1361.21 785.604 1357.85 785.604 M1353.18 783.613 Q1350.17 782.872 1348.48 780.812 Q1346.81 778.752 1346.81 775.789 Q1346.81 771.646 1349.75 769.238 Q1352.71 766.831 1357.85 766.831 Q1363.01 766.831 1365.95 769.238 Q1368.89 771.646 1368.89 775.789 Q1368.89 778.752 1367.2 780.812 Q1365.54 782.872 1362.55 783.613 Q1365.93 784.4 1367.81 786.692 Q1369.7 788.984 1369.7 792.294 Q1369.7 797.317 1366.63 800.002 Q1363.57 802.687 1357.85 802.687 Q1352.14 802.687 1349.06 800.002 Q1346 797.317 1346 792.294 Q1346 788.984 1347.9 786.692 Q1349.8 784.4 1353.18 783.613 M1351.46 776.229 Q1351.46 778.914 1353.13 780.419 Q1354.82 781.923 1357.85 781.923 Q1360.86 781.923 1362.55 780.419 Q1364.26 778.914 1364.26 776.229 Q1364.26 773.544 1362.55 772.039 Q1360.86 770.535 1357.85 770.535 Q1354.82 770.535 1353.13 772.039 Q1351.46 773.544 1351.46 776.229 Z" fill="#000000" fill-rule="nonzero" fill-opacity="1"></path><path clip-path="url(#clip930)" d="M1390.86 771.53 L1379.06 789.979 L1390.86 789.979 L1390.86 771.53 M1389.63 767.456 L1395.51 767.456 L1395.51 789.979 L1400.45 789.979 L1400.45 793.868 L1395.51 793.868 L1395.51 802.016 L1390.86 802.016 L1390.86 793.868 L1375.26 793.868 L1375.26 789.354 L1389.63 767.456 Z" fill="#000000" fill-rule="nonzero" fill-opacity="1"></path><path clip-path="url(#clip930)" d="M1524.32 783.382 Q1527.67 784.099 1529.55 786.368 Q1531.45 788.636 1531.45 791.97 Q1531.45 797.085 1527.93 799.886 Q1524.41 802.687 1517.93 802.687 Q1515.75 802.687 1513.44 802.247 Q1511.14 801.831 1508.69 800.974 L1508.69 796.46 Q1510.64 797.595 1512.95 798.173 Q1515.27 798.752 1517.79 798.752 Q1522.19 798.752 1524.48 797.016 Q1526.79 795.28 1526.79 791.97 Q1526.79 788.914 1524.64 787.201 Q1522.51 785.465 1518.69 785.465 L1514.66 785.465 L1514.66 781.622 L1518.88 781.622 Q1522.33 781.622 1524.15 780.257 Q1525.98 778.868 1525.98 776.275 Q1525.98 773.613 1524.08 772.201 Q1522.21 770.766 1518.69 770.766 Q1516.77 770.766 1514.57 771.183 Q1512.37 771.599 1509.73 772.479 L1509.73 768.312 Q1512.39 767.572 1514.71 767.201 Q1517.05 766.831 1519.11 766.831 Q1524.43 766.831 1527.53 769.261 Q1530.64 771.669 1530.64 775.789 Q1530.64 778.66 1528.99 780.65 Q1527.35 782.618 1524.32 783.382 Z" fill="#000000" fill-rule="nonzero" fill-opacity="1"></path><path clip-path="url(#clip930)" d="M1544.34 798.081 L1560.66 798.081 L1560.66 802.016 L1538.71 802.016 L1538.71 798.081 Q1541.38 795.326 1545.96 790.696 Q1550.57 786.044 1551.75 784.701 Q1553.99 782.178 1554.87 780.442 Q1555.77 778.683 1555.77 776.993 Q1555.77 774.238 1553.83 772.502 Q1551.91 770.766 1548.81 770.766 Q1546.61 770.766 1544.15 771.53 Q1541.72 772.294 1538.95 773.845 L1538.95 769.123 Q1541.77 767.988 1544.22 767.41 Q1546.68 766.831 1548.71 766.831 Q1554.08 766.831 1557.28 769.516 Q1560.47 772.201 1560.47 776.692 Q1560.47 778.822 1559.66 780.743 Q1558.88 782.641 1556.77 785.234 Q1556.19 785.905 1553.09 789.122 Q1549.99 792.317 1544.34 798.081 Z" fill="#000000" fill-rule="nonzero" fill-opacity="1"></path><path clip-path="url(#clip930)" d="M1569.29 767.456 L1591.51 767.456 L1591.51 769.447 L1578.97 802.016 L1574.08 802.016 L1585.89 771.391 L1569.29 771.391 L1569.29 767.456 Z" fill="#000000" fill-rule="nonzero" fill-opacity="1"></path><path clip-path="url(#clip930)" d="M1611.21 782.872 Q1608.07 782.872 1606.21 785.025 Q1604.39 787.178 1604.39 790.928 Q1604.39 794.655 1606.21 796.831 Q1608.07 798.983 1611.21 798.983 Q1614.36 798.983 1616.19 796.831 Q1618.04 794.655 1618.04 790.928 Q1618.04 787.178 1616.19 785.025 Q1614.36 782.872 1611.21 782.872 M1620.5 768.22 L1620.5 772.479 Q1618.74 771.646 1616.93 771.206 Q1615.15 770.766 1613.39 770.766 Q1608.76 770.766 1606.31 773.891 Q1603.88 777.016 1603.53 783.335 Q1604.89 781.322 1606.95 780.257 Q1609.01 779.169 1611.49 779.169 Q1616.7 779.169 1619.71 782.34 Q1622.74 785.488 1622.74 790.928 Q1622.74 796.252 1619.59 799.47 Q1616.45 802.687 1611.21 802.687 Q1605.22 802.687 1602.05 798.104 Q1598.88 793.497 1598.88 784.771 Q1598.88 776.576 1602.76 771.715 Q1606.65 766.831 1613.2 766.831 Q1614.96 766.831 1616.75 767.178 Q1618.55 767.525 1620.5 768.22 Z" fill="#000000" fill-rule="nonzero" fill-opacity="1"></path><path clip-path="url(#clip930)" d="M1640.8 785.604 Q1637.46 785.604 1635.54 787.386 Q1633.64 789.169 1633.64 792.294 Q1633.64 795.419 1635.54 797.201 Q1637.46 798.983 1640.8 798.983 Q1644.13 798.983 1646.05 797.201 Q1647.97 795.396 1647.97 792.294 Q1647.97 789.169 1646.05 787.386 Q1644.15 785.604 1640.8 785.604 M1636.12 783.613 Q1633.11 782.872 1631.42 780.812 Q1629.76 778.752 1629.76 775.789 Q1629.76 771.646 1632.7 769.238 Q1635.66 766.831 1640.8 766.831 Q1645.96 766.831 1648.9 769.238 Q1651.84 771.646 1651.84 775.789 Q1651.84 778.752 1650.15 780.812 Q1648.48 782.872 1645.5 783.613 Q1648.88 784.4 1650.75 786.692 Q1652.65 788.984 1652.65 792.294 Q1652.65 797.317 1649.57 800.002 Q1646.51 802.687 1640.8 802.687 Q1635.08 802.687 1632 800.002 Q1628.95 797.317 1628.95 792.294 Q1628.95 788.984 1630.84 786.692 Q1632.74 784.4 1636.12 783.613 M1634.41 776.229 Q1634.41 778.914 1636.07 780.419 Q1637.76 781.923 1640.8 781.923 Q1643.81 781.923 1645.5 780.419 Q1647.21 778.914 1647.21 776.229 Q1647.21 773.544 1645.5 772.039 Q1643.81 770.535 1640.8 770.535 Q1637.76 770.535 1636.07 772.039 Q1634.41 773.544 1634.41 776.229 Z" fill="#000000" fill-rule="nonzero" fill-opacity="1"></path><polyline clip-path="url(#clip930)" style="stroke:#000000; stroke-linecap:round; stroke-linejoin:round; stroke-width:4; stroke-opacity:1; fill:none" points="150.112,744.416 150.112,105.328 "></polyline>
<polyline clip-path="url(#clip930)" style="stroke:#000000; stroke-linecap:round; stroke-linejoin:round; stroke-width:4; stroke-opacity:1; fill:none" points="150.112,744.416 169.01,744.416 "></polyline>
<polyline clip-path="url(#clip930)" style="stroke:#000000; stroke-linecap:round; stroke-linejoin:round; stroke-width:4; stroke-opacity:1; fill:none" points="150.112,549.812 169.01,549.812 "></polyline>
<polyline clip-path="url(#clip930)" style="stroke:#000000; stroke-linecap:round; stroke-linejoin:round; stroke-width:4; stroke-opacity:1; fill:none" points="150.112,355.209 169.01,355.209 "></polyline>
<polyline clip-path="url(#clip930)" style="stroke:#000000; stroke-linecap:round; stroke-linejoin:round; stroke-width:4; stroke-opacity:1; fill:none" points="150.112,160.605 169.01,160.605 "></polyline>
<path clip-path="url(#clip930)" d="M65.9365 730.215 Q62.3254 730.215 60.4967 733.779 Q58.6912 737.321 58.6912 744.451 Q58.6912 751.557 60.4967 755.122 Q62.3254 758.663 65.9365 758.663 Q69.5707 758.663 71.3763 755.122 Q73.205 751.557 73.205 744.451 Q73.205 737.321 71.3763 733.779 Q69.5707 730.215 65.9365 730.215 M65.9365 726.511 Q71.7467 726.511 74.8022 731.117 Q77.8809 735.701 77.8809 744.451 Q77.8809 753.177 74.8022 757.784 Q71.7467 762.367 65.9365 762.367 Q60.1264 762.367 57.0477 757.784 Q53.9921 753.177 53.9921 744.451 Q53.9921 735.701 57.0477 731.117 Q60.1264 726.511 65.9365 726.511 Z" fill="#000000" fill-rule="nonzero" fill-opacity="1"></path><path clip-path="url(#clip930)" d="M86.0984 755.816 L90.9827 755.816 L90.9827 761.696 L86.0984 761.696 L86.0984 755.816 Z" fill="#000000" fill-rule="nonzero" fill-opacity="1"></path><path clip-path="url(#clip930)" d="M111.168 730.215 Q107.557 730.215 105.728 733.779 Q103.922 737.321 103.922 744.451 Q103.922 751.557 105.728 755.122 Q107.557 758.663 111.168 758.663 Q114.802 758.663 116.608 755.122 Q118.436 751.557 118.436 744.451 Q118.436 737.321 116.608 733.779 Q114.802 730.215 111.168 730.215 M111.168 726.511 Q116.978 726.511 120.033 731.117 Q123.112 735.701 123.112 744.451 Q123.112 753.177 120.033 757.784 Q116.978 762.367 111.168 762.367 Q105.358 762.367 102.279 757.784 Q99.2234 753.177 99.2234 744.451 Q99.2234 735.701 102.279 731.117 Q105.358 726.511 111.168 726.511 Z" fill="#000000" fill-rule="nonzero" fill-opacity="1"></path><path clip-path="url(#clip930)" d="M66.9319 535.611 Q63.3208 535.611 61.4921 539.176 Q59.6865 542.717 59.6865 549.847 Q59.6865 556.953 61.4921 560.518 Q63.3208 564.06 66.9319 564.06 Q70.5661 564.06 72.3717 560.518 Q74.2004 556.953 74.2004 549.847 Q74.2004 542.717 72.3717 539.176 Q70.5661 535.611 66.9319 535.611 M66.9319 531.907 Q72.742 531.907 75.7976 536.514 Q78.8763 541.097 78.8763 549.847 Q78.8763 558.574 75.7976 563.18 Q72.742 567.764 66.9319 567.764 Q61.1217 567.764 58.043 563.18 Q54.9875 558.574 54.9875 549.847 Q54.9875 541.097 58.043 536.514 Q61.1217 531.907 66.9319 531.907 Z" fill="#000000" fill-rule="nonzero" fill-opacity="1"></path><path clip-path="url(#clip930)" d="M87.0938 561.213 L91.978 561.213 L91.978 567.092 L87.0938 567.092 L87.0938 561.213 Z" fill="#000000" fill-rule="nonzero" fill-opacity="1"></path><path clip-path="url(#clip930)" d="M102.209 532.532 L120.566 532.532 L120.566 536.467 L106.492 536.467 L106.492 544.94 Q107.51 544.592 108.529 544.43 Q109.547 544.245 110.566 544.245 Q116.353 544.245 119.733 547.416 Q123.112 550.588 123.112 556.004 Q123.112 561.583 119.64 564.685 Q116.168 567.764 109.848 567.764 Q107.672 567.764 105.404 567.393 Q103.159 567.023 100.751 566.282 L100.751 561.583 Q102.834 562.717 105.057 563.273 Q107.279 563.828 109.756 563.828 Q113.76 563.828 116.098 561.722 Q118.436 559.615 118.436 556.004 Q118.436 552.393 116.098 550.287 Q113.76 548.18 109.756 548.18 Q107.881 548.18 106.006 548.597 Q104.154 549.014 102.209 549.893 L102.209 532.532 Z" fill="#000000" fill-rule="nonzero" fill-opacity="1"></path><path clip-path="url(#clip930)" d="M56.7467 368.553 L64.3856 368.553 L64.3856 342.188 L56.0754 343.854 L56.0754 339.595 L64.3393 337.929 L69.0152 337.929 L69.0152 368.553 L76.654 368.553 L76.654 372.489 L56.7467 372.489 L56.7467 368.553 Z" fill="#000000" fill-rule="nonzero" fill-opacity="1"></path><path clip-path="url(#clip930)" d="M86.0984 366.609 L90.9827 366.609 L90.9827 372.489 L86.0984 372.489 L86.0984 366.609 Z" fill="#000000" fill-rule="nonzero" fill-opacity="1"></path><path clip-path="url(#clip930)" d="M111.168 341.007 Q107.557 341.007 105.728 344.572 Q103.922 348.114 103.922 355.243 Q103.922 362.35 105.728 365.915 Q107.557 369.456 111.168 369.456 Q114.802 369.456 116.608 365.915 Q118.436 362.35 118.436 355.243 Q118.436 348.114 116.608 344.572 Q114.802 341.007 111.168 341.007 M111.168 337.304 Q116.978 337.304 120.033 341.91 Q123.112 346.493 123.112 355.243 Q123.112 363.97 120.033 368.577 Q116.978 373.16 111.168 373.16 Q105.358 373.16 102.279 368.577 Q99.2234 363.97 99.2234 355.243 Q99.2234 346.493 102.279 341.91 Q105.358 337.304 111.168 337.304 Z" fill="#000000" fill-rule="nonzero" fill-opacity="1"></path><path clip-path="url(#clip930)" d="M57.7421 173.95 L65.381 173.95 L65.381 147.584 L57.0708 149.251 L57.0708 144.992 L65.3347 143.325 L70.0106 143.325 L70.0106 173.95 L77.6494 173.95 L77.6494 177.885 L57.7421 177.885 L57.7421 173.95 Z" fill="#000000" fill-rule="nonzero" fill-opacity="1"></path><path clip-path="url(#clip930)" d="M87.0938 172.005 L91.978 172.005 L91.978 177.885 L87.0938 177.885 L87.0938 172.005 Z" fill="#000000" fill-rule="nonzero" fill-opacity="1"></path><path clip-path="url(#clip930)" d="M102.209 143.325 L120.566 143.325 L120.566 147.26 L106.492 147.26 L106.492 155.732 Q107.51 155.385 108.529 155.223 Q109.547 155.038 110.566 155.038 Q116.353 155.038 119.733 158.209 Q123.112 161.38 123.112 166.797 Q123.112 172.376 119.64 175.478 Q116.168 178.556 109.848 178.556 Q107.672 178.556 105.404 178.186 Q103.159 177.815 100.751 177.075 L100.751 172.376 Q102.834 173.51 105.057 174.065 Q107.279 174.621 109.756 174.621 Q113.76 174.621 116.098 172.515 Q118.436 170.408 118.436 166.797 Q118.436 163.186 116.098 161.079 Q113.76 158.973 109.756 158.973 Q107.881 158.973 106.006 159.39 Q104.154 159.806 102.209 160.686 L102.209 143.325 Z" fill="#000000" fill-rule="nonzero" fill-opacity="1"></path><path clip-path="url(#clip930)" d="M657.27 41.3256 Q657.27 43.662 655.835 45.0556 Q654.442 46.4492 652.679 46.4492 Q651.122 46.4492 650.302 45.5475 Q649.482 44.6457 649.482 43.498 Q649.482 43.0061 649.687 42.3913 Q649.892 41.7355 650.343 40.9567 Q650.835 40.1779 651.859 39.604 Q652.884 39.0302 654.278 38.9482 Q653.991 38.6613 653.909 38.6203 Q653.294 38.1284 652.146 37.9644 Q651.982 37.8825 651.408 37.8825 Q648.58 37.8825 645.711 39.9729 Q642.883 42.0224 639.399 45.9164 Q635.013 50.4662 632.184 52.1467 Q644.604 53.7863 644.604 60.9594 Q644.604 62.1481 644.276 63.5827 Q643.62 66.288 643.62 68.2555 Q643.62 72.1905 646.285 72.1905 Q648.867 72.1905 650.507 69.5672 Q652.187 66.9439 653.581 61.8202 Q653.786 60.8775 653.991 60.5905 Q654.196 60.3036 654.77 60.3036 Q655.794 60.3036 655.794 61.1234 Q654.852 65.9191 652.761 69.6082 Q650.097 74.076 646.121 74.076 Q642.801 74.076 640.587 71.7806 Q638.415 69.4442 638.415 65.7552 Q638.415 64.8534 638.743 62.804 Q638.989 61.9842 638.989 61.0414 Q638.989 59.1149 637.923 57.6803 Q636.857 56.2047 635.136 55.4669 Q633.414 54.7291 631.98 54.4011 Q630.586 54.0322 629.233 53.9093 Q625.134 71.2477 624.56 72.3135 Q624.192 73.0513 623.372 73.5431 Q622.552 74.076 621.691 74.076 Q620.871 74.076 620.052 73.5022 Q619.273 72.9693 619.273 71.6986 Q619.273 71.0428 619.601 69.8541 L631.775 21.4868 L632.021 19.8472 Q632.021 19.3553 631.816 19.1094 Q631.652 18.8225 630.668 18.6175 Q629.725 18.4126 627.84 18.4126 Q627.061 18.4126 626.692 18.3716 Q626.364 18.3306 626.077 18.1256 Q625.79 17.8797 625.79 17.3878 Q625.79 16.691 626.077 16.3221 Q626.405 15.9122 626.651 15.8302 Q626.897 15.7483 627.389 15.7073 Q628.086 15.6663 630.422 15.4613 Q632.758 15.2154 634.767 15.0514 Q636.775 14.8875 637.636 14.8875 Q638.128 14.8875 638.374 15.1334 Q638.661 15.3384 638.702 15.5843 L638.743 15.7893 L630.012 51.204 Q633.619 49.7694 639.317 43.416 Q645.916 36.038 651.572 36.038 Q654.237 36.038 655.753 37.6775 Q657.27 39.2761 657.27 41.3256 Z" fill="#000000" fill-rule="nonzero" fill-opacity="1"></path><path clip-path="url(#clip930)" d="M685.882 60.3856 Q685.964 59.3609 687.563 59.3609 L739.005 59.3609 Q741.423 59.3609 741.464 60.3036 Q741.464 61.3283 739.169 61.2873 L688.137 61.2873 Q685.882 61.3283 685.882 60.3856 M685.882 43.9899 Q685.882 42.9651 687.645 43.0061 L738.923 43.0061 Q741.423 43.0061 741.464 43.9899 Q741.464 44.9326 739.332 44.9326 L687.563 44.9326 Q685.882 44.9326 685.882 43.9899 Z" fill="#000000" fill-rule="nonzero" fill-opacity="1"></path><path clip-path="url(#clip930)" d="M773.847 59.2789 L773.847 56.6965 L799.629 17.3059 Q800.285 16.2811 801.309 16.3221 Q802.252 16.3221 802.457 16.691 Q802.662 17.0599 802.662 18.4945 L802.662 56.6965 L811.065 56.6965 L811.065 59.2789 L802.662 59.2789 L802.662 66.575 Q802.662 68.9933 803.646 69.7721 Q804.671 70.5509 809.015 70.5509 L810.778 70.5509 L810.778 73.1332 Q807.335 72.8873 799.383 72.8873 Q791.472 72.8873 788.029 73.1332 L788.029 70.5509 L789.791 70.5509 Q794.136 70.5509 795.161 69.8131 Q796.186 69.0343 796.186 66.575 L796.186 59.2789 L773.847 59.2789 M776.224 56.6965 L796.678 56.6965 L796.678 25.3807 L776.224 56.6965 Z" fill="#000000" fill-rule="nonzero" fill-opacity="1"></path><path clip-path="url(#clip930)" d="M816.608 71.7806 Q815.419 70.428 815.419 68.6654 Q815.419 66.9029 816.567 65.5912 Q817.755 64.2386 819.887 64.2386 Q822.387 64.2386 823.822 66.6569 Q825.256 69.0343 825.256 73.0513 Q825.256 77.3961 823.494 81.4131 Q821.731 85.471 820.01 87.3975 Q818.288 89.324 817.591 89.324 Q816.771 89.324 816.771 88.4223 Q816.771 88.0943 817.345 87.4795 Q823.371 81.0032 823.412 73.0513 Q823.412 71.7806 823.248 71.7806 L823.043 71.9446 Q821.608 73.1332 819.887 73.1332 Q817.796 73.1332 816.608 71.7806 Z" fill="#000000" fill-rule="nonzero" fill-opacity="1"></path><path clip-path="url(#clip930)" d="M891.712 15.7893 L879.62 64.3206 Q879.128 66.493 879.128 68.3375 Q879.128 72.1905 881.629 72.1905 Q882.858 72.1905 883.842 71.4117 Q884.826 70.6329 885.605 68.9933 Q886.383 67.3538 886.875 65.8372 Q887.367 64.2796 888.023 61.8202 Q888.228 60.8365 888.392 60.5905 Q888.597 60.3036 889.171 60.3036 Q890.195 60.3036 890.195 61.1234 Q889.089 66.411 887.654 69.4442 Q885.359 74.076 881.465 74.076 Q878.513 74.076 876.423 72.2725 Q874.332 70.4689 873.841 67.7637 Q868.471 74.076 862.896 74.076 Q857.978 74.076 854.863 70.346 Q851.747 66.575 851.747 60.6315 Q851.747 54.6471 854.699 48.9086 Q857.691 43.1701 862.405 39.604 Q867.118 36.038 871.955 36.038 Q877.079 36.038 879.702 41.4075 L884.744 21.4868 L884.99 19.8472 Q884.99 19.3553 884.785 19.1094 Q884.621 18.8225 883.637 18.6175 Q882.694 18.4126 880.809 18.4126 Q880.03 18.4126 879.661 18.3716 Q879.333 18.3306 879.046 18.1256 Q878.759 17.8797 878.759 17.3878 Q878.759 15.9532 879.948 15.7893 Q887.818 14.8875 890.605 14.8875 Q891.097 14.8875 891.384 15.1334 Q891.671 15.3384 891.671 15.5843 L891.712 15.7893 M878.677 45.2605 Q878.677 44.8916 878.39 43.8669 Q878.103 42.8422 877.448 41.4075 Q876.792 39.9729 875.357 38.9482 Q873.964 37.8825 872.078 37.8825 Q869.537 37.8825 866.872 40.0549 Q864.249 42.2273 862.323 45.9164 Q860.847 48.8676 859.248 55.057 Q857.691 61.2464 857.691 64.3206 Q857.691 66.2061 858.101 67.8866 Q858.552 69.5262 859.822 70.8788 Q861.093 72.1905 863.06 72.1905 Q867.856 72.1905 872.57 66.2471 Q873.472 65.2223 873.677 64.8124 Q873.923 64.3615 874.25 63.1319 L878.431 46.6952 Q878.677 45.4655 878.677 45.2605 Z" fill="#000000" fill-rule="nonzero" fill-opacity="1"></path><path clip-path="url(#clip930)" d="M900.282 97.43 L900.282 95.6223 Q903.409 95.6223 904.126 95.2493 Q904.844 94.8476 904.844 92.9539 L904.844 77.1444 Q904.844 74.9637 904.098 74.4473 Q903.38 73.9308 900.511 73.9308 L900.511 72.0945 L908.717 71.4633 L908.717 93.0113 Q908.717 94.7616 909.348 95.192 Q909.98 95.6223 912.849 95.6223 L912.849 97.43 Q906.852 97.2578 906.737 97.2578 Q905.934 97.2578 900.282 97.43 M902.749 61.22 Q902.749 60.0436 903.639 59.0968 Q904.557 58.1213 905.848 58.1213 Q907.139 58.1213 908.057 59.0107 Q908.975 59.8715 908.975 61.2487 Q908.975 62.5973 908.057 63.4867 Q907.139 64.3475 905.848 64.3475 Q904.499 64.3475 903.61 63.4007 Q902.749 62.4538 902.749 61.22 Z" fill="#000000" fill-rule="nonzero" fill-opacity="1"></path><path clip-path="url(#clip930)" d="M916.865 97.43 L916.865 95.6223 Q919.993 95.6223 920.71 95.2493 Q921.427 94.8476 921.427 92.9539 L921.427 77.2018 Q921.427 75.0211 920.653 74.476 Q919.907 73.9308 916.865 73.9308 L916.865 72.0945 L925.129 71.4633 L925.129 77.6321 Q927.883 71.4633 933.823 71.4633 Q938.241 71.4633 939.991 73.6439 Q941.283 75.1072 941.541 76.7427 Q941.828 78.3782 941.828 82.6246 L941.828 93.8434 Q941.885 95.0772 942.832 95.3641 Q943.779 95.6223 946.419 95.6223 L946.419 97.43 Q940.422 97.2578 939.819 97.2578 Q939.36 97.2578 933.191 97.43 L933.191 95.6223 Q936.319 95.6223 937.036 95.2493 Q937.782 94.8476 937.782 92.9539 L937.782 79.2676 Q937.782 76.2836 936.864 74.5334 Q935.946 72.7544 933.421 72.7544 Q930.379 72.7544 927.941 75.3081 Q925.502 77.8617 925.502 82.1656 L925.502 92.9539 Q925.502 94.8476 926.219 95.2493 Q926.965 95.6223 930.064 95.6223 L930.064 97.43 Q924.067 97.2578 923.493 97.2578 Q923.034 97.2578 916.865 97.43 Z" fill="#000000" fill-rule="nonzero" fill-opacity="1"></path><path clip-path="url(#clip930)" d="M949.384 73.9308 L949.384 72.6397 Q952.081 72.5249 953.86 70.6312 Q955.668 68.7088 956.27 66.356 Q956.901 64.0032 956.959 61.2774 L958.422 61.2774 L958.422 72.0945 L966.829 72.0945 L966.829 73.9308 L958.422 73.9308 L958.422 90.2568 Q958.422 96.5979 962.382 96.5979 Q964.075 96.5979 965.194 94.8763 Q966.313 93.1261 966.313 90.0273 L966.313 86.7851 L967.776 86.7851 L967.776 90.1421 Q967.776 93.3269 966.313 95.7084 Q964.849 98.0899 961.951 98.0899 Q960.89 98.0899 959.828 97.803 Q958.795 97.5447 957.418 96.8561 Q956.069 96.1388 955.209 94.4173 Q954.376 92.667 954.376 90.1421 L954.376 73.9308 L949.384 73.9308 Z" fill="#000000" fill-rule="nonzero" fill-opacity="1"></path><path clip-path="url(#clip930)" d="M980.908 52.1467 Q980.908 37.9644 986.196 26.5284 Q988.45 21.7327 991.606 17.7157 Q994.763 13.6988 996.853 11.9363 Q998.944 10.1737 999.517 10.1737 Q1000.34 10.1737 1000.38 10.9935 Q1000.38 11.4034 999.271 12.4281 Q985.745 26.2005 985.786 52.1467 Q985.786 78.1749 998.944 91.4145 Q1000.38 92.8491 1000.38 93.3 Q1000.38 94.1198 999.517 94.1198 Q998.944 94.1198 996.935 92.4392 Q994.927 90.7586 991.811 86.9056 Q988.696 83.0527 986.442 78.3389 Q980.908 66.9029 980.908 52.1467 Z" fill="#000000" fill-rule="nonzero" fill-opacity="1"></path><path clip-path="url(#clip930)" d="M1058.24 14.8055 L1053.69 33.1687 Q1053.45 34.2754 1053.24 34.5623 Q1053.04 34.8493 1052.46 34.8493 Q1052.01 34.8493 1051.72 34.6443 Q1051.48 34.4394 1051.48 34.2344 L1051.44 34.0295 Q1051.44 33.9065 1051.52 33.2917 Q1051.6 32.6358 1051.68 31.5701 Q1051.76 30.5044 1051.76 29.3157 Q1051.76 22.5935 1048.49 19.4783 Q1045.25 16.3221 1039.67 16.3221 Q1035.82 16.3221 1032.38 18.3716 Q1028.93 20.421 1026.97 23.6592 Q1025 26.8564 1025 30.2175 Q1025 33.2917 1026.56 35.2592 Q1028.11 37.2266 1030.12 37.8825 L1035.74 39.3991 Q1041.64 40.9157 1043.32 41.5715 Q1045 42.1863 1046.4 43.58 Q1050.54 47.433 1050.54 53.4174 Q1050.54 58.5821 1047.62 63.5827 Q1044.71 68.5425 1039.71 71.7806 Q1034.71 74.9778 1029.18 74.9778 Q1019.47 74.9778 1015 68.9523 L1010.9 73.7071 Q1010.12 74.6089 1009.87 74.7728 Q1009.67 74.9778 1009.38 74.9778 Q1009.01 74.9778 1008.73 74.7318 Q1008.44 74.5269 1008.44 74.158 Q1008.44 73.8711 1010.86 64.2386 Q1013.28 54.6061 1013.48 54.4011 Q1013.81 54.0732 1014.34 54.0732 Q1015.33 54.0732 1015.33 55.016 Q1015.24 55.2619 1015.16 55.5898 Q1014.67 58.5411 1014.67 60.1396 Q1014.67 63.1319 1015.69 65.4273 Q1016.72 67.6817 1018.24 68.9933 Q1019.79 70.264 1021.88 71.0838 Q1023.97 71.8626 1025.74 72.1495 Q1027.5 72.3954 1029.34 72.3954 Q1033.32 72.3954 1036.84 70.1 Q1040.41 67.8046 1042.42 64.2386 Q1044.47 60.6725 1044.47 56.9425 Q1044.47 54.975 1043.94 53.4584 Q1043.4 51.9008 1042.67 51.04 Q1041.97 50.1793 1040.78 49.5234 Q1039.59 48.8676 1038.77 48.6217 Q1037.99 48.3347 1036.76 48.0478 L1027.79 45.6704 Q1024.18 44.6047 1021.6 41.5305 Q1019.06 38.4563 1019.06 33.7426 Q1019.06 28.7829 1021.97 24.1921 Q1024.92 19.5603 1029.71 16.773 Q1034.55 13.9447 1039.75 13.9447 Q1043.85 13.9447 1047.01 15.5433 Q1050.17 17.1009 1051.76 20.0111 L1055.82 15.2154 Q1056.64 14.2726 1056.81 14.1087 Q1057.01 13.9447 1057.3 13.9447 Q1057.79 13.9447 1058 14.2317 Q1058.24 14.5186 1058.24 14.8055 Z" fill="#000000" fill-rule="nonzero" fill-opacity="1"></path><path clip-path="url(#clip930)" d="M1064.43 93.3 Q1064.43 92.8901 1065.5 91.8654 Q1079.02 78.093 1079.02 52.1467 Q1079.02 26.1185 1066.03 12.961 Q1064.43 11.4444 1064.43 10.9935 Q1064.43 10.1737 1065.25 10.1737 Q1065.82 10.1737 1067.83 11.8543 Q1069.88 13.5348 1072.96 17.3878 Q1076.07 21.2408 1078.37 25.9546 Q1083.9 37.3906 1083.9 52.1467 Q1083.9 66.329 1078.61 77.765 Q1076.36 82.5608 1073.2 86.5777 Q1070.04 90.5947 1067.95 92.3572 Q1065.86 94.1198 1065.25 94.1198 Q1064.43 94.1198 1064.43 93.3 Z" fill="#000000" fill-rule="nonzero" fill-opacity="1"></path><path clip-path="url(#clip930)" d="M1119.96 60.3856 Q1120.04 59.3609 1121.64 59.3609 L1173.08 59.3609 Q1175.5 59.3609 1175.54 60.3036 Q1175.54 61.3283 1173.24 61.2873 L1122.21 61.2873 Q1119.96 61.3283 1119.96 60.3856 M1119.96 43.9899 Q1119.96 42.9651 1121.72 43.0061 L1173 43.0061 Q1175.5 43.0061 1175.54 43.9899 Q1175.54 44.9326 1173.41 44.9326 L1121.64 44.9326 Q1119.96 44.9326 1119.96 43.9899 Z" fill="#000000" fill-rule="nonzero" fill-opacity="1"></path><path clip-path="url(#clip930)" d="M1207.92 25.2168 L1207.92 22.5935 Q1218 22.5935 1223.21 17.2239 Q1224.64 17.2239 1224.89 17.5518 Q1225.14 17.8797 1225.14 19.3963 L1225.14 66.493 Q1225.14 68.9933 1226.37 69.7721 Q1227.59 70.5509 1232.96 70.5509 L1235.63 70.5509 L1235.63 73.1332 Q1232.68 72.8873 1222.02 72.8873 Q1211.36 72.8873 1208.45 73.1332 L1208.45 70.5509 L1211.12 70.5509 Q1216.4 70.5509 1217.68 69.8131 Q1218.95 69.0343 1218.95 66.493 L1218.95 23.0034 Q1214.56 25.2168 1207.92 25.2168 Z" fill="#000000" fill-rule="nonzero" fill-opacity="1"></path><path clip-path="url(#clip930)" d="M1242.02 59.6068 Q1242.02 57.1064 1243.38 56.1637 Q1244.73 55.1799 1246.16 55.1799 Q1248.09 55.1799 1249.2 56.4096 Q1250.34 57.5983 1250.34 59.2789 Q1250.34 60.9594 1249.2 62.1891 Q1248.09 63.3778 1246.16 63.3778 Q1245.22 63.3778 1244.73 63.2138 Q1245.83 67.0668 1249.2 69.8541 Q1252.6 72.6414 1257.07 72.6414 Q1262.68 72.6414 1266.04 67.1898 Q1268.05 63.6647 1268.05 55.6718 Q1268.05 48.6217 1266.53 45.0966 Q1264.2 39.727 1259.4 39.727 Q1252.6 39.727 1248.58 45.5885 Q1248.09 46.3263 1247.52 46.3673 Q1246.7 46.3673 1246.49 45.9164 Q1246.33 45.4245 1246.33 44.1538 L1246.33 19.3143 Q1246.33 17.3059 1247.15 17.3059 Q1247.47 17.3059 1248.17 17.5518 Q1253.46 19.8882 1259.32 19.9292 Q1265.35 19.9292 1270.76 17.4698 Q1271.17 17.2239 1271.41 17.2239 Q1272.23 17.2239 1272.27 18.1666 Q1272.27 18.4945 1271.58 19.4783 Q1270.92 20.421 1269.49 21.6917 Q1268.05 22.9214 1266.21 24.1101 Q1264.36 25.2988 1261.66 26.1185 Q1258.99 26.8973 1256.04 26.8973 Q1252.52 26.8973 1248.91 25.7906 L1248.91 42.1454 Q1253.25 37.8825 1259.57 37.8825 Q1266.29 37.8825 1270.92 43.2931 Q1275.55 48.7036 1275.55 56.2457 Q1275.55 64.1566 1270.06 69.5672 Q1264.61 74.9778 1257.23 74.9778 Q1250.51 74.9778 1246.24 70.182 Q1242.02 65.3863 1242.02 59.6068 Z" fill="#000000" fill-rule="nonzero" fill-opacity="1"></path><path clip-path="url(#clip932)" d="M234.105 614.931 L234.105 744.416 L263.469 744.416 L263.469 614.931 L234.105 614.931 L234.105 614.931  Z" fill="#009af9" fill-rule="evenodd" fill-opacity="1"></path>
<polyline clip-path="url(#clip932)" style="stroke:#000000; stroke-linecap:round; stroke-linejoin:round; stroke-width:4; stroke-opacity:1; fill:none" points="234.105,614.931 234.105,744.416 263.469,744.416 263.469,614.931 234.105,614.931 "></polyline>
<path clip-path="url(#clip932)" d="M485.799 655.719 L485.799 744.416 L515.164 744.416 L515.164 655.719 L485.799 655.719 L485.799 655.719  Z" fill="#009af9" fill-rule="evenodd" fill-opacity="1"></path>
<polyline clip-path="url(#clip932)" style="stroke:#000000; stroke-linecap:round; stroke-linejoin:round; stroke-width:4; stroke-opacity:1; fill:none" points="485.799,655.719 485.799,744.416 515.164,744.416 515.164,655.719 485.799,655.719 "></polyline>
<path clip-path="url(#clip932)" d="M737.494 679.538 L737.494 744.416 L766.858 744.416 L766.858 679.538 L737.494 679.538 L737.494 679.538  Z" fill="#009af9" fill-rule="evenodd" fill-opacity="1"></path>
<polyline clip-path="url(#clip932)" style="stroke:#000000; stroke-linecap:round; stroke-linejoin:round; stroke-width:4; stroke-opacity:1; fill:none" points="737.494,679.538 737.494,744.416 766.858,744.416 766.858,679.538 737.494,679.538 "></polyline>
<path clip-path="url(#clip932)" d="M989.188 694.662 L989.188 744.416 L1018.55 744.416 L1018.55 694.662 L989.188 694.662 L989.188 694.662  Z" fill="#009af9" fill-rule="evenodd" fill-opacity="1"></path>
<polyline clip-path="url(#clip932)" style="stroke:#000000; stroke-linecap:round; stroke-linejoin:round; stroke-width:4; stroke-opacity:1; fill:none" points="989.188,694.662 989.188,744.416 1018.55,744.416 1018.55,694.662 989.188,694.662 "></polyline>
<path clip-path="url(#clip932)" d="M1240.88 713.749 L1240.88 744.416 L1270.25 744.416 L1270.25 713.749 L1240.88 713.749 L1240.88 713.749  Z" fill="#009af9" fill-rule="evenodd" fill-opacity="1"></path>
<polyline clip-path="url(#clip932)" style="stroke:#000000; stroke-linecap:round; stroke-linejoin:round; stroke-width:4; stroke-opacity:1; fill:none" points="1240.88,713.749 1240.88,744.416 1270.25,744.416 1270.25,713.749 1240.88,713.749 "></polyline>
<path clip-path="url(#clip932)" d="M1492.58 721.229 L1492.58 744.416 L1521.94 744.416 L1521.94 721.229 L1492.58 721.229 L1492.58 721.229  Z" fill="#009af9" fill-rule="evenodd" fill-opacity="1"></path>
<polyline clip-path="url(#clip932)" style="stroke:#000000; stroke-linecap:round; stroke-linejoin:round; stroke-width:4; stroke-opacity:1; fill:none" points="1492.58,721.229 1492.58,744.416 1521.94,744.416 1521.94,721.229 1492.58,721.229 "></polyline>
<circle clip-path="url(#clip932)" style="fill:#009af9; stroke:none; fill-opacity:0" cx="248.787" cy="614.931" r="2"></circle>
<circle clip-path="url(#clip932)" style="fill:#009af9; stroke:none; fill-opacity:0" cx="500.482" cy="655.719" r="2"></circle>
<circle clip-path="url(#clip932)" style="fill:#009af9; stroke:none; fill-opacity:0" cx="752.176" cy="679.538" r="2"></circle>
<circle clip-path="url(#clip932)" style="fill:#009af9; stroke:none; fill-opacity:0" cx="1003.87" cy="694.662" r="2"></circle>
<circle clip-path="url(#clip932)" style="fill:#009af9; stroke:none; fill-opacity:0" cx="1255.56" cy="713.749" r="2"></circle>
<circle clip-path="url(#clip932)" style="fill:#009af9; stroke:none; fill-opacity:0" cx="1507.26" cy="721.229" r="2"></circle>
<path clip-path="url(#clip932)" d="M263.469 105.328 L263.469 744.416 L292.834 744.416 L292.834 105.328 L263.469 105.328 L263.469 105.328  Z" fill="#e26f46" fill-rule="evenodd" fill-opacity="1"></path>
<polyline clip-path="url(#clip932)" style="stroke:#000000; stroke-linecap:round; stroke-linejoin:round; stroke-width:4; stroke-opacity:1; fill:none" points="263.469,105.328 263.469,744.416 292.834,744.416 292.834,105.328 263.469,105.328 "></polyline>
<path clip-path="url(#clip932)" d="M515.164 478.551 L515.164 744.416 L544.528 744.416 L544.528 478.551 L515.164 478.551 L515.164 478.551  Z" fill="#e26f46" fill-rule="evenodd" fill-opacity="1"></path>
<polyline clip-path="url(#clip932)" style="stroke:#000000; stroke-linecap:round; stroke-linejoin:round; stroke-width:4; stroke-opacity:1; fill:none" points="515.164,478.551 515.164,744.416 544.528,744.416 544.528,478.551 515.164,478.551 "></polyline>
<path clip-path="url(#clip932)" d="M766.858 481.886 L766.858 744.416 L796.222 744.416 L796.222 481.886 L766.858 481.886 L766.858 481.886  Z" fill="#e26f46" fill-rule="evenodd" fill-opacity="1"></path>
<polyline clip-path="url(#clip932)" style="stroke:#000000; stroke-linecap:round; stroke-linejoin:round; stroke-width:4; stroke-opacity:1; fill:none" points="766.858,481.886 766.858,744.416 796.222,744.416 796.222,481.886 766.858,481.886 "></polyline>
<path clip-path="url(#clip932)" d="M1018.55 604.914 L1018.55 744.416 L1047.92 744.416 L1047.92 604.914 L1018.55 604.914 L1018.55 604.914  Z" fill="#e26f46" fill-rule="evenodd" fill-opacity="1"></path>
<polyline clip-path="url(#clip932)" style="stroke:#000000; stroke-linecap:round; stroke-linejoin:round; stroke-width:4; stroke-opacity:1; fill:none" points="1018.55,604.914 1018.55,744.416 1047.92,744.416 1047.92,604.914 1018.55,604.914 "></polyline>
<path clip-path="url(#clip932)" d="M1270.25 639.112 L1270.25 744.416 L1299.61 744.416 L1299.61 639.112 L1270.25 639.112 L1270.25 639.112  Z" fill="#e26f46" fill-rule="evenodd" fill-opacity="1"></path>
<polyline clip-path="url(#clip932)" style="stroke:#000000; stroke-linecap:round; stroke-linejoin:round; stroke-width:4; stroke-opacity:1; fill:none" points="1270.25,639.112 1270.25,744.416 1299.61,744.416 1299.61,639.112 1270.25,639.112 "></polyline>
<path clip-path="url(#clip932)" d="M1521.94 656.379 L1521.94 744.416 L1551.31 744.416 L1551.31 656.379 L1521.94 656.379 L1521.94 656.379  Z" fill="#e26f46" fill-rule="evenodd" fill-opacity="1"></path>
<polyline clip-path="url(#clip932)" style="stroke:#000000; stroke-linecap:round; stroke-linejoin:round; stroke-width:4; stroke-opacity:1; fill:none" points="1521.94,656.379 1521.94,744.416 1551.31,744.416 1551.31,656.379 1521.94,656.379 "></polyline>
<circle clip-path="url(#clip932)" style="fill:#e26f46; stroke:none; fill-opacity:0" cx="278.152" cy="105.328" r="2"></circle>
<circle clip-path="url(#clip932)" style="fill:#e26f46; stroke:none; fill-opacity:0" cx="529.846" cy="478.551" r="2"></circle>
<circle clip-path="url(#clip932)" style="fill:#e26f46; stroke:none; fill-opacity:0" cx="781.54" cy="481.886" r="2"></circle>
<circle clip-path="url(#clip932)" style="fill:#e26f46; stroke:none; fill-opacity:0" cx="1033.23" cy="604.914" r="2"></circle>
<circle clip-path="url(#clip932)" style="fill:#e26f46; stroke:none; fill-opacity:0" cx="1284.93" cy="639.112" r="2"></circle>
<circle clip-path="url(#clip932)" style="fill:#e26f46; stroke:none; fill-opacity:0" cx="1536.62" cy="656.379" r="2"></circle>
<path clip-path="url(#clip932)" d="M292.834 567.399 L292.834 744.416 L322.198 744.416 L322.198 567.399 L292.834 567.399 L292.834 567.399  Z" fill="#3da44d" fill-rule="evenodd" fill-opacity="1"></path>
<polyline clip-path="url(#clip932)" style="stroke:#000000; stroke-linecap:round; stroke-linejoin:round; stroke-width:4; stroke-opacity:1; fill:none" points="292.834,567.399 292.834,744.416 322.198,744.416 322.198,567.399 292.834,567.399 "></polyline>
<path clip-path="url(#clip932)" d="M544.528 633.913 L544.528 744.416 L573.892 744.416 L573.892 633.913 L544.528 633.913 L544.528 633.913  Z" fill="#3da44d" fill-rule="evenodd" fill-opacity="1"></path>
<polyline clip-path="url(#clip932)" style="stroke:#000000; stroke-linecap:round; stroke-linejoin:round; stroke-width:4; stroke-opacity:1; fill:none" points="544.528,633.913 544.528,744.416 573.892,744.416 573.892,633.913 544.528,633.913 "></polyline>
<path clip-path="url(#clip932)" d="M796.222 660.386 L796.222 744.416 L825.587 744.416 L825.587 660.386 L796.222 660.386 L796.222 660.386  Z" fill="#3da44d" fill-rule="evenodd" fill-opacity="1"></path>
<polyline clip-path="url(#clip932)" style="stroke:#000000; stroke-linecap:round; stroke-linejoin:round; stroke-width:4; stroke-opacity:1; fill:none" points="796.222,660.386 796.222,744.416 825.587,744.416 825.587,660.386 796.222,660.386 "></polyline>
<path clip-path="url(#clip932)" d="M1047.92 687.733 L1047.92 744.416 L1077.28 744.416 L1077.28 687.733 L1047.92 687.733 L1047.92 687.733  Z" fill="#3da44d" fill-rule="evenodd" fill-opacity="1"></path>
<polyline clip-path="url(#clip932)" style="stroke:#000000; stroke-linecap:round; stroke-linejoin:round; stroke-width:4; stroke-opacity:1; fill:none" points="1047.92,687.733 1047.92,744.416 1077.28,744.416 1077.28,687.733 1047.92,687.733 "></polyline>
<path clip-path="url(#clip932)" d="M1299.61 704.586 L1299.61 744.416 L1328.98 744.416 L1328.98 704.586 L1299.61 704.586 L1299.61 704.586  Z" fill="#3da44d" fill-rule="evenodd" fill-opacity="1"></path>
<polyline clip-path="url(#clip932)" style="stroke:#000000; stroke-linecap:round; stroke-linejoin:round; stroke-width:4; stroke-opacity:1; fill:none" points="1299.61,704.586 1299.61,744.416 1328.98,744.416 1328.98,704.586 1299.61,704.586 "></polyline>
<path clip-path="url(#clip932)" d="M1551.31 714.85 L1551.31 744.416 L1580.67 744.416 L1580.67 714.85 L1551.31 714.85 L1551.31 714.85  Z" fill="#3da44d" fill-rule="evenodd" fill-opacity="1"></path>
<polyline clip-path="url(#clip932)" style="stroke:#000000; stroke-linecap:round; stroke-linejoin:round; stroke-width:4; stroke-opacity:1; fill:none" points="1551.31,714.85 1551.31,744.416 1580.67,744.416 1580.67,714.85 1551.31,714.85 "></polyline>
<circle clip-path="url(#clip932)" style="fill:#3da44d; stroke:none; fill-opacity:0" cx="307.516" cy="567.399" r="2"></circle>
<circle clip-path="url(#clip932)" style="fill:#3da44d; stroke:none; fill-opacity:0" cx="559.21" cy="633.913" r="2"></circle>
<circle clip-path="url(#clip932)" style="fill:#3da44d; stroke:none; fill-opacity:0" cx="810.905" cy="660.386" r="2"></circle>
<circle clip-path="url(#clip932)" style="fill:#3da44d; stroke:none; fill-opacity:0" cx="1062.6" cy="687.733" r="2"></circle>
<circle clip-path="url(#clip932)" style="fill:#3da44d; stroke:none; fill-opacity:0" cx="1314.29" cy="704.586" r="2"></circle>
<circle clip-path="url(#clip932)" style="fill:#3da44d; stroke:none; fill-opacity:0" cx="1565.99" cy="714.85" r="2"></circle>
<path clip-path="url(#clip932)" d="M322.198 626.375 L322.198 744.416 L351.562 744.416 L351.562 626.375 L322.198 626.375 L322.198 626.375  Z" fill="#c271d2" fill-rule="evenodd" fill-opacity="1"></path>
<polyline clip-path="url(#clip932)" style="stroke:#000000; stroke-linecap:round; stroke-linejoin:round; stroke-width:4; stroke-opacity:1; fill:none" points="322.198,626.375 322.198,744.416 351.562,744.416 351.562,626.375 322.198,626.375 "></polyline>
<path clip-path="url(#clip932)" d="M573.892 644.352 L573.892 744.416 L603.257 744.416 L603.257 644.352 L573.892 644.352 L573.892 644.352  Z" fill="#c271d2" fill-rule="evenodd" fill-opacity="1"></path>
<polyline clip-path="url(#clip932)" style="stroke:#000000; stroke-linecap:round; stroke-linejoin:round; stroke-width:4; stroke-opacity:1; fill:none" points="573.892,644.352 573.892,744.416 603.257,744.416 603.257,644.352 573.892,644.352 "></polyline>
<path clip-path="url(#clip932)" d="M825.587 672.874 L825.587 744.416 L854.951 744.416 L854.951 672.874 L825.587 672.874 L825.587 672.874  Z" fill="#c271d2" fill-rule="evenodd" fill-opacity="1"></path>
<polyline clip-path="url(#clip932)" style="stroke:#000000; stroke-linecap:round; stroke-linejoin:round; stroke-width:4; stroke-opacity:1; fill:none" points="825.587,672.874 825.587,744.416 854.951,744.416 854.951,672.874 825.587,672.874 "></polyline>
<path clip-path="url(#clip932)" d="M1077.28 699.422 L1077.28 744.416 L1106.65 744.416 L1106.65 699.422 L1077.28 699.422 L1077.28 699.422  Z" fill="#c271d2" fill-rule="evenodd" fill-opacity="1"></path>
<polyline clip-path="url(#clip932)" style="stroke:#000000; stroke-linecap:round; stroke-linejoin:round; stroke-width:4; stroke-opacity:1; fill:none" points="1077.28,699.422 1077.28,744.416 1106.65,744.416 1106.65,699.422 1077.28,699.422 "></polyline>
<path clip-path="url(#clip932)" d="M1328.98 709.848 L1328.98 744.416 L1358.34 744.416 L1358.34 709.848 L1328.98 709.848 L1328.98 709.848  Z" fill="#c271d2" fill-rule="evenodd" fill-opacity="1"></path>
<polyline clip-path="url(#clip932)" style="stroke:#000000; stroke-linecap:round; stroke-linejoin:round; stroke-width:4; stroke-opacity:1; fill:none" points="1328.98,709.848 1328.98,744.416 1358.34,744.416 1358.34,709.848 1328.98,709.848 "></polyline>
<path clip-path="url(#clip932)" d="M1580.67 723.247 L1580.67 744.416 L1610.03 744.416 L1610.03 723.247 L1580.67 723.247 L1580.67 723.247  Z" fill="#c271d2" fill-rule="evenodd" fill-opacity="1"></path>
<polyline clip-path="url(#clip932)" style="stroke:#000000; stroke-linecap:round; stroke-linejoin:round; stroke-width:4; stroke-opacity:1; fill:none" points="1580.67,723.247 1580.67,744.416 1610.03,744.416 1610.03,723.247 1580.67,723.247 "></polyline>
<circle clip-path="url(#clip932)" style="fill:#c271d2; stroke:none; fill-opacity:0" cx="336.88" cy="626.375" r="2"></circle>
<circle clip-path="url(#clip932)" style="fill:#c271d2; stroke:none; fill-opacity:0" cx="588.575" cy="644.352" r="2"></circle>
<circle clip-path="url(#clip932)" style="fill:#c271d2; stroke:none; fill-opacity:0" cx="840.269" cy="672.874" r="2"></circle>
<circle clip-path="url(#clip932)" style="fill:#c271d2; stroke:none; fill-opacity:0" cx="1091.96" cy="699.422" r="2"></circle>
<circle clip-path="url(#clip932)" style="fill:#c271d2; stroke:none; fill-opacity:0" cx="1343.66" cy="709.848" r="2"></circle>
<circle clip-path="url(#clip932)" style="fill:#c271d2; stroke:none; fill-opacity:0" cx="1595.35" cy="723.247" r="2"></circle>
<path clip-path="url(#clip932)" d="M351.562 598.084 L351.562 744.416 L380.927 744.416 L380.927 598.084 L351.562 598.084 L351.562 598.084  Z" fill="#ac8d18" fill-rule="evenodd" fill-opacity="1"></path>
<polyline clip-path="url(#clip932)" style="stroke:#000000; stroke-linecap:round; stroke-linejoin:round; stroke-width:4; stroke-opacity:1; fill:none" points="351.562,598.084 351.562,744.416 380.927,744.416 380.927,598.084 351.562,598.084 "></polyline>
<path clip-path="url(#clip932)" d="M603.257 644.79 L603.257 744.416 L632.621 744.416 L632.621 644.79 L603.257 644.79 L603.257 644.79  Z" fill="#ac8d18" fill-rule="evenodd" fill-opacity="1"></path>
<polyline clip-path="url(#clip932)" style="stroke:#000000; stroke-linecap:round; stroke-linejoin:round; stroke-width:4; stroke-opacity:1; fill:none" points="603.257,644.79 603.257,744.416 632.621,744.416 632.621,644.79 603.257,644.79 "></polyline>
<path clip-path="url(#clip932)" d="M854.951 676.929 L854.951 744.416 L884.316 744.416 L884.316 676.929 L854.951 676.929 L854.951 676.929  Z" fill="#ac8d18" fill-rule="evenodd" fill-opacity="1"></path>
<polyline clip-path="url(#clip932)" style="stroke:#000000; stroke-linecap:round; stroke-linejoin:round; stroke-width:4; stroke-opacity:1; fill:none" points="854.951,676.929 854.951,744.416 884.316,744.416 884.316,676.929 854.951,676.929 "></polyline>
<path clip-path="url(#clip932)" d="M1106.65 702.676 L1106.65 744.416 L1136.01 744.416 L1136.01 702.676 L1106.65 702.676 L1106.65 702.676  Z" fill="#ac8d18" fill-rule="evenodd" fill-opacity="1"></path>
<polyline clip-path="url(#clip932)" style="stroke:#000000; stroke-linecap:round; stroke-linejoin:round; stroke-width:4; stroke-opacity:1; fill:none" points="1106.65,702.676 1106.65,744.416 1136.01,744.416 1136.01,702.676 1106.65,702.676 "></polyline>
<path clip-path="url(#clip932)" d="M1358.34 713.511 L1358.34 744.416 L1387.7 744.416 L1387.7 713.511 L1358.34 713.511 L1358.34 713.511  Z" fill="#ac8d18" fill-rule="evenodd" fill-opacity="1"></path>
<polyline clip-path="url(#clip932)" style="stroke:#000000; stroke-linecap:round; stroke-linejoin:round; stroke-width:4; stroke-opacity:1; fill:none" points="1358.34,713.511 1358.34,744.416 1387.7,744.416 1387.7,713.511 1358.34,713.511 "></polyline>
<path clip-path="url(#clip932)" d="M1610.03 722.014 L1610.03 744.416 L1639.4 744.416 L1639.4 722.014 L1610.03 722.014 L1610.03 722.014  Z" fill="#ac8d18" fill-rule="evenodd" fill-opacity="1"></path>
<polyline clip-path="url(#clip932)" style="stroke:#000000; stroke-linecap:round; stroke-linejoin:round; stroke-width:4; stroke-opacity:1; fill:none" points="1610.03,722.014 1610.03,744.416 1639.4,744.416 1639.4,722.014 1610.03,722.014 "></polyline>
<circle clip-path="url(#clip932)" style="fill:#ac8d18; stroke:none; fill-opacity:0" cx="366.245" cy="598.084" r="2"></circle>
<circle clip-path="url(#clip932)" style="fill:#ac8d18; stroke:none; fill-opacity:0" cx="617.939" cy="644.79" r="2"></circle>
<circle clip-path="url(#clip932)" style="fill:#ac8d18; stroke:none; fill-opacity:0" cx="869.633" cy="676.929" r="2"></circle>
<circle clip-path="url(#clip932)" style="fill:#ac8d18; stroke:none; fill-opacity:0" cx="1121.33" cy="702.676" r="2"></circle>
<circle clip-path="url(#clip932)" style="fill:#ac8d18; stroke:none; fill-opacity:0" cx="1373.02" cy="713.511" r="2"></circle>
<circle clip-path="url(#clip932)" style="fill:#ac8d18; stroke:none; fill-opacity:0" cx="1624.72" cy="722.014" r="2"></circle>
<path clip-path="url(#clip932)" d="M380.927 656.88 L380.927 744.416 L410.291 744.416 L410.291 656.88 L380.927 656.88 L380.927 656.88  Z" fill="#00a9ad" fill-rule="evenodd" fill-opacity="1"></path>
<polyline clip-path="url(#clip932)" style="stroke:#000000; stroke-linecap:round; stroke-linejoin:round; stroke-width:4; stroke-opacity:1; fill:none" points="380.927,656.88 380.927,744.416 410.291,744.416 410.291,656.88 380.927,656.88 "></polyline>
<path clip-path="url(#clip932)" d="M632.621 640.333 L632.621 744.416 L661.985 744.416 L661.985 640.333 L632.621 640.333 L632.621 640.333  Z" fill="#00a9ad" fill-rule="evenodd" fill-opacity="1"></path>
<polyline clip-path="url(#clip932)" style="stroke:#000000; stroke-linecap:round; stroke-linejoin:round; stroke-width:4; stroke-opacity:1; fill:none" points="632.621,640.333 632.621,744.416 661.985,744.416 661.985,640.333 632.621,640.333 "></polyline>
<path clip-path="url(#clip932)" d="M884.316 679.973 L884.316 744.416 L913.68 744.416 L913.68 679.973 L884.316 679.973 L884.316 679.973  Z" fill="#00a9ad" fill-rule="evenodd" fill-opacity="1"></path>
<polyline clip-path="url(#clip932)" style="stroke:#000000; stroke-linecap:round; stroke-linejoin:round; stroke-width:4; stroke-opacity:1; fill:none" points="884.316,679.973 884.316,744.416 913.68,744.416 913.68,679.973 884.316,679.973 "></polyline>
<path clip-path="url(#clip932)" d="M1136.01 698.007 L1136.01 744.416 L1165.37 744.416 L1165.37 698.007 L1136.01 698.007 L1136.01 698.007  Z" fill="#00a9ad" fill-rule="evenodd" fill-opacity="1"></path>
<polyline clip-path="url(#clip932)" style="stroke:#000000; stroke-linecap:round; stroke-linejoin:round; stroke-width:4; stroke-opacity:1; fill:none" points="1136.01,698.007 1136.01,744.416 1165.37,744.416 1165.37,698.007 1136.01,698.007 "></polyline>
<path clip-path="url(#clip932)" d="M1387.7 713.645 L1387.7 744.416 L1417.07 744.416 L1417.07 713.645 L1387.7 713.645 L1387.7 713.645  Z" fill="#00a9ad" fill-rule="evenodd" fill-opacity="1"></path>
<polyline clip-path="url(#clip932)" style="stroke:#000000; stroke-linecap:round; stroke-linejoin:round; stroke-width:4; stroke-opacity:1; fill:none" points="1387.7,713.645 1387.7,744.416 1417.07,744.416 1417.07,713.645 1387.7,713.645 "></polyline>
<path clip-path="url(#clip932)" d="M1639.4 722.982 L1639.4 744.416 L1668.76 744.416 L1668.76 722.982 L1639.4 722.982 L1639.4 722.982  Z" fill="#00a9ad" fill-rule="evenodd" fill-opacity="1"></path>
<polyline clip-path="url(#clip932)" style="stroke:#000000; stroke-linecap:round; stroke-linejoin:round; stroke-width:4; stroke-opacity:1; fill:none" points="1639.4,722.982 1639.4,744.416 1668.76,744.416 1668.76,722.982 1639.4,722.982 "></polyline>
<circle clip-path="url(#clip932)" style="fill:#00a9ad; stroke:none; fill-opacity:0" cx="395.609" cy="656.88" r="2"></circle>
<circle clip-path="url(#clip932)" style="fill:#00a9ad; stroke:none; fill-opacity:0" cx="647.303" cy="640.333" r="2"></circle>
<circle clip-path="url(#clip932)" style="fill:#00a9ad; stroke:none; fill-opacity:0" cx="898.998" cy="679.973" r="2"></circle>
<circle clip-path="url(#clip932)" style="fill:#00a9ad; stroke:none; fill-opacity:0" cx="1150.69" cy="698.007" r="2"></circle>
<circle clip-path="url(#clip932)" style="fill:#00a9ad; stroke:none; fill-opacity:0" cx="1402.39" cy="713.645" r="2"></circle>
<circle clip-path="url(#clip932)" style="fill:#00a9ad; stroke:none; fill-opacity:0" cx="1654.08" cy="722.982" r="2"></circle>
</svg>