<svg xmlns="http://www.w3.org/2000/svg" xmlns:xlink="http://www.w3.org/1999/xlink" width="450" height="210" viewBox="0 0 1800 840">
<defs>
  <clipPath id="clip850">
    <rect x="0" y="0" width="1800" height="840"></rect>
  </clipPath>
</defs>
<path clip-path="url(#clip850)" d="M0 840 L1800 840 L1800 0 L0 0  Z" fill="#ffffff" fill-rule="evenodd" fill-opacity="1"></path>
<defs>
  <clipPath id="clip851">
    <rect x="360" y="0" width="1261" height="840"></rect>
  </clipPath>
</defs>
<path clip-path="url(#clip850)" d="M180.274 744.416 L1752.76 744.416 L1752.76 105.328 L180.274 105.328  Z" fill="#ffffff" fill-rule="evenodd" fill-opacity="1"></path>
<defs>
  <clipPath id="clip852">
    <rect x="180" y="105" width="1573" height="640"></rect>
  </clipPath>
</defs>
<polyline clip-path="url(#clip852)" style="stroke:#000000; stroke-linecap:round; stroke-linejoin:round; stroke-width:2; stroke-opacity:0.1; fill:none" points="349.121,744.416 349.121,105.328 "></polyline>
<polyline clip-path="url(#clip852)" style="stroke:#000000; stroke-linecap:round; stroke-linejoin:round; stroke-width:2; stroke-opacity:0.1; fill:none" points="596.079,744.416 596.079,105.328 "></polyline>
<polyline clip-path="url(#clip852)" style="stroke:#000000; stroke-linecap:round; stroke-linejoin:round; stroke-width:2; stroke-opacity:0.1; fill:none" points="843.036,744.416 843.036,105.328 "></polyline>
<polyline clip-path="url(#clip852)" style="stroke:#000000; stroke-linecap:round; stroke-linejoin:round; stroke-width:2; stroke-opacity:0.1; fill:none" points="1089.99,744.416 1089.99,105.328 "></polyline>
<polyline clip-path="url(#clip852)" style="stroke:#000000; stroke-linecap:round; stroke-linejoin:round; stroke-width:2; stroke-opacity:0.1; fill:none" points="1336.95,744.416 1336.95,105.328 "></polyline>
<polyline clip-path="url(#clip852)" style="stroke:#000000; stroke-linecap:round; stroke-linejoin:round; stroke-width:2; stroke-opacity:0.1; fill:none" points="1583.91,744.416 1583.91,105.328 "></polyline>
<polyline clip-path="url(#clip852)" style="stroke:#000000; stroke-linecap:round; stroke-linejoin:round; stroke-width:2; stroke-opacity:0.1; fill:none" points="180.274,744.416 1752.76,744.416 "></polyline>
<polyline clip-path="url(#clip852)" style="stroke:#000000; stroke-linecap:round; stroke-linejoin:round; stroke-width:2; stroke-opacity:0.1; fill:none" points="180.274,556.827 1752.76,556.827 "></polyline>
<polyline clip-path="url(#clip852)" style="stroke:#000000; stroke-linecap:round; stroke-linejoin:round; stroke-width:2; stroke-opacity:0.1; fill:none" points="180.274,369.238 1752.76,369.238 "></polyline>
<polyline clip-path="url(#clip852)" style="stroke:#000000; stroke-linecap:round; stroke-linejoin:round; stroke-width:2; stroke-opacity:0.1; fill:none" points="180.274,181.649 1752.76,181.649 "></polyline>
<polyline clip-path="url(#clip850)" style="stroke:#000000; stroke-linecap:round; stroke-linejoin:round; stroke-width:4; stroke-opacity:1; fill:none" points="180.274,744.416 1752.76,744.416 "></polyline>
<polyline clip-path="url(#clip850)" style="stroke:#000000; stroke-linecap:round; stroke-linejoin:round; stroke-width:4; stroke-opacity:1; fill:none" points="349.121,744.416 349.121,725.518 "></polyline>
<polyline clip-path="url(#clip850)" style="stroke:#000000; stroke-linecap:round; stroke-linejoin:round; stroke-width:4; stroke-opacity:1; fill:none" points="596.079,744.416 596.079,725.518 "></polyline>
<polyline clip-path="url(#clip850)" style="stroke:#000000; stroke-linecap:round; stroke-linejoin:round; stroke-width:4; stroke-opacity:1; fill:none" points="843.036,744.416 843.036,725.518 "></polyline>
<polyline clip-path="url(#clip850)" style="stroke:#000000; stroke-linecap:round; stroke-linejoin:round; stroke-width:4; stroke-opacity:1; fill:none" points="1089.99,744.416 1089.99,725.518 "></polyline>
<polyline clip-path="url(#clip850)" style="stroke:#000000; stroke-linecap:round; stroke-linejoin:round; stroke-width:4; stroke-opacity:1; fill:none" points="1336.95,744.416 1336.95,725.518 "></polyline>
<polyline clip-path="url(#clip850)" style="stroke:#000000; stroke-linecap:round; stroke-linejoin:round; stroke-width:4; stroke-opacity:1; fill:none" points="1583.91,744.416 1583.91,725.518 "></polyline>
<path clip-path="url(#clip850)" d="M293.404 798.081 L301.043 798.081 L301.043 771.715 L292.733 773.382 L292.733 769.123 L300.997 767.456 L305.672 767.456 L305.672 798.081 L313.311 798.081 L313.311 802.016 L293.404 802.016 L293.404 798.081 Z" fill="#000000" fill-rule="nonzero" fill-opacity="1"></path><path clip-path="url(#clip850)" d="M332.756 770.535 Q329.145 770.535 327.316 774.099 Q325.51 777.641 325.51 784.771 Q325.51 791.877 327.316 795.442 Q329.145 798.983 332.756 798.983 Q336.39 798.983 338.195 795.442 Q340.024 791.877 340.024 784.771 Q340.024 777.641 338.195 774.099 Q336.39 770.535 332.756 770.535 M332.756 766.831 Q338.566 766.831 341.621 771.437 Q344.7 776.021 344.7 784.771 Q344.7 793.497 341.621 798.104 Q338.566 802.687 332.756 802.687 Q326.945 802.687 323.867 798.104 Q320.811 793.497 320.811 784.771 Q320.811 776.021 323.867 771.437 Q326.945 766.831 332.756 766.831 Z" fill="#000000" fill-rule="nonzero" fill-opacity="1"></path><path clip-path="url(#clip850)" d="M356.945 798.081 L373.265 798.081 L373.265 802.016 L351.32 802.016 L351.32 798.081 Q353.982 795.326 358.566 790.696 Q363.172 786.044 364.353 784.701 Q366.598 782.178 367.478 780.442 Q368.38 778.683 368.38 776.993 Q368.38 774.238 366.436 772.502 Q364.515 770.766 361.413 770.766 Q359.214 770.766 356.76 771.53 Q354.33 772.294 351.552 773.845 L351.552 769.123 Q354.376 767.988 356.83 767.41 Q359.283 766.831 361.32 766.831 Q366.691 766.831 369.885 769.516 Q373.079 772.201 373.079 776.692 Q373.079 778.822 372.269 780.743 Q371.482 782.641 369.376 785.234 Q368.797 785.905 365.695 789.122 Q362.593 792.317 356.945 798.081 Z" fill="#000000" fill-rule="nonzero" fill-opacity="1"></path><path clip-path="url(#clip850)" d="M395.927 771.53 L384.121 789.979 L395.927 789.979 L395.927 771.53 M394.7 767.456 L400.579 767.456 L400.579 789.979 L405.51 789.979 L405.51 793.868 L400.579 793.868 L400.579 802.016 L395.927 802.016 L395.927 793.868 L380.325 793.868 L380.325 789.354 L394.7 767.456 Z" fill="#000000" fill-rule="nonzero" fill-opacity="1"></path><path clip-path="url(#clip850)" d="M544.736 798.081 L561.056 798.081 L561.056 802.016 L539.111 802.016 L539.111 798.081 Q541.773 795.326 546.357 790.696 Q550.963 786.044 552.144 784.701 Q554.389 782.178 555.269 780.442 Q556.172 778.683 556.172 776.993 Q556.172 774.238 554.227 772.502 Q552.306 770.766 549.204 770.766 Q547.005 770.766 544.551 771.53 Q542.121 772.294 539.343 773.845 L539.343 769.123 Q542.167 767.988 544.621 767.41 Q547.074 766.831 549.111 766.831 Q554.482 766.831 557.676 769.516 Q560.871 772.201 560.871 776.692 Q560.871 778.822 560.06 780.743 Q559.273 782.641 557.167 785.234 Q556.588 785.905 553.486 789.122 Q550.385 792.317 544.736 798.081 Z" fill="#000000" fill-rule="nonzero" fill-opacity="1"></path><path clip-path="url(#clip850)" d="M580.871 770.535 Q577.259 770.535 575.431 774.099 Q573.625 777.641 573.625 784.771 Q573.625 791.877 575.431 795.442 Q577.259 798.983 580.871 798.983 Q584.505 798.983 586.31 795.442 Q588.139 791.877 588.139 784.771 Q588.139 777.641 586.31 774.099 Q584.505 770.535 580.871 770.535 M580.871 766.831 Q586.681 766.831 589.736 771.437 Q592.815 776.021 592.815 784.771 Q592.815 793.497 589.736 798.104 Q586.681 802.687 580.871 802.687 Q575.06 802.687 571.982 798.104 Q568.926 793.497 568.926 784.771 Q568.926 776.021 571.982 771.437 Q575.06 766.831 580.871 766.831 Z" fill="#000000" fill-rule="nonzero" fill-opacity="1"></path><path clip-path="url(#clip850)" d="M613.88 771.53 L602.074 789.979 L613.88 789.979 L613.88 771.53 M612.653 767.456 L618.532 767.456 L618.532 789.979 L623.463 789.979 L623.463 793.868 L618.532 793.868 L618.532 802.016 L613.88 802.016 L613.88 793.868 L598.278 793.868 L598.278 789.354 L612.653 767.456 Z" fill="#000000" fill-rule="nonzero" fill-opacity="1"></path><path clip-path="url(#clip850)" d="M641.194 785.604 Q637.861 785.604 635.94 787.386 Q634.042 789.169 634.042 792.294 Q634.042 795.419 635.94 797.201 Q637.861 798.983 641.194 798.983 Q644.528 798.983 646.449 797.201 Q648.37 795.396 648.37 792.294 Q648.37 789.169 646.449 787.386 Q644.551 785.604 641.194 785.604 M636.518 783.613 Q633.509 782.872 631.819 780.812 Q630.153 778.752 630.153 775.789 Q630.153 771.646 633.092 769.238 Q636.055 766.831 641.194 766.831 Q646.356 766.831 649.296 769.238 Q652.236 771.646 652.236 775.789 Q652.236 778.752 650.546 780.812 Q648.879 782.872 645.893 783.613 Q649.273 784.4 651.148 786.692 Q653.046 788.984 653.046 792.294 Q653.046 797.317 649.967 800.002 Q646.912 802.687 641.194 802.687 Q635.477 802.687 632.398 800.002 Q629.342 797.317 629.342 792.294 Q629.342 788.984 631.241 786.692 Q633.139 784.4 636.518 783.613 M634.805 776.229 Q634.805 778.914 636.472 780.419 Q638.162 781.923 641.194 781.923 Q644.203 781.923 645.893 780.419 Q647.606 778.914 647.606 776.229 Q647.606 773.544 645.893 772.039 Q644.203 770.535 641.194 770.535 Q638.162 770.535 636.472 772.039 Q634.805 773.544 634.805 776.229 Z" fill="#000000" fill-rule="nonzero" fill-opacity="1"></path><path clip-path="url(#clip850)" d="M800.965 771.53 L789.159 789.979 L800.965 789.979 L800.965 771.53 M799.738 767.456 L805.617 767.456 L805.617 789.979 L810.548 789.979 L810.548 793.868 L805.617 793.868 L805.617 802.016 L800.965 802.016 L800.965 793.868 L785.363 793.868 L785.363 789.354 L799.738 767.456 Z" fill="#000000" fill-rule="nonzero" fill-opacity="1"></path><path clip-path="url(#clip850)" d="M828.279 770.535 Q824.668 770.535 822.84 774.099 Q821.034 777.641 821.034 784.771 Q821.034 791.877 822.84 795.442 Q824.668 798.983 828.279 798.983 Q831.914 798.983 833.719 795.442 Q835.548 791.877 835.548 784.771 Q835.548 777.641 833.719 774.099 Q831.914 770.535 828.279 770.535 M828.279 766.831 Q834.09 766.831 837.145 771.437 Q840.224 776.021 840.224 784.771 Q840.224 793.497 837.145 798.104 Q834.09 802.687 828.279 802.687 Q822.469 802.687 819.391 798.104 Q816.335 793.497 816.335 784.771 Q816.335 776.021 819.391 771.437 Q822.469 766.831 828.279 766.831 Z" fill="#000000" fill-rule="nonzero" fill-opacity="1"></path><path clip-path="url(#clip850)" d="M848.58 801.298 L848.58 797.039 Q850.339 797.872 852.145 798.312 Q853.951 798.752 855.687 798.752 Q860.316 798.752 862.747 795.65 Q865.2 792.525 865.548 786.183 Q864.205 788.173 862.145 789.238 Q860.085 790.303 857.585 790.303 Q852.4 790.303 849.367 787.178 Q846.358 784.03 846.358 778.59 Q846.358 773.266 849.506 770.048 Q852.654 766.831 857.886 766.831 Q863.881 766.831 867.029 771.437 Q870.2 776.021 870.2 784.771 Q870.2 792.942 866.312 797.826 Q862.446 802.687 855.895 802.687 Q854.136 802.687 852.33 802.34 Q850.525 801.993 848.58 801.298 M857.886 786.646 Q861.034 786.646 862.863 784.493 Q864.714 782.34 864.714 778.59 Q864.714 774.863 862.863 772.71 Q861.034 770.535 857.886 770.535 Q854.738 770.535 852.886 772.71 Q851.057 774.863 851.057 778.59 Q851.057 782.34 852.886 784.493 Q854.738 786.646 857.886 786.646 Z" fill="#000000" fill-rule="nonzero" fill-opacity="1"></path><path clip-path="url(#clip850)" d="M889.182 782.872 Q886.034 782.872 884.182 785.025 Q882.353 787.178 882.353 790.928 Q882.353 794.655 884.182 796.831 Q886.034 798.983 889.182 798.983 Q892.33 798.983 894.159 796.831 Q896.01 794.655 896.01 790.928 Q896.01 787.178 894.159 785.025 Q892.33 782.872 889.182 782.872 M898.464 768.22 L898.464 772.479 Q896.705 771.646 894.899 771.206 Q893.117 770.766 891.358 770.766 Q886.728 770.766 884.274 773.891 Q881.844 777.016 881.497 783.335 Q882.862 781.322 884.923 780.257 Q886.983 779.169 889.46 779.169 Q894.668 779.169 897.677 782.34 Q900.71 785.488 900.71 790.928 Q900.71 796.252 897.561 799.47 Q894.413 802.687 889.182 802.687 Q883.186 802.687 880.015 798.104 Q876.844 793.497 876.844 784.771 Q876.844 776.576 880.733 771.715 Q884.622 766.831 891.173 766.831 Q892.932 766.831 894.714 767.178 Q896.52 767.525 898.464 768.22 Z" fill="#000000" fill-rule="nonzero" fill-opacity="1"></path><path clip-path="url(#clip850)" d="M1045.5 785.604 Q1042.17 785.604 1040.25 787.386 Q1038.35 789.169 1038.35 792.294 Q1038.35 795.419 1040.25 797.201 Q1042.17 798.983 1045.5 798.983 Q1048.84 798.983 1050.76 797.201 Q1052.68 795.396 1052.68 792.294 Q1052.68 789.169 1050.76 787.386 Q1048.86 785.604 1045.5 785.604 M1040.83 783.613 Q1037.82 782.872 1036.13 780.812 Q1034.46 778.752 1034.46 775.789 Q1034.46 771.646 1037.4 769.238 Q1040.36 766.831 1045.5 766.831 Q1050.67 766.831 1053.6 769.238 Q1056.54 771.646 1056.54 775.789 Q1056.54 778.752 1054.85 780.812 Q1053.19 782.872 1050.2 783.613 Q1053.58 784.4 1055.46 786.692 Q1057.35 788.984 1057.35 792.294 Q1057.35 797.317 1054.28 800.002 Q1051.22 802.687 1045.5 802.687 Q1039.79 802.687 1036.71 800.002 Q1033.65 797.317 1033.65 792.294 Q1033.65 788.984 1035.55 786.692 Q1037.45 784.4 1040.83 783.613 M1039.11 776.229 Q1039.11 778.914 1040.78 780.419 Q1042.47 781.923 1045.5 781.923 Q1048.51 781.923 1050.2 780.419 Q1051.92 778.914 1051.92 776.229 Q1051.92 773.544 1050.2 772.039 Q1048.51 770.535 1045.5 770.535 Q1042.47 770.535 1040.78 772.039 Q1039.11 773.544 1039.11 776.229 Z" fill="#000000" fill-rule="nonzero" fill-opacity="1"></path><path clip-path="url(#clip850)" d="M1066.48 798.081 L1074.11 798.081 L1074.11 771.715 L1065.8 773.382 L1065.8 769.123 L1074.07 767.456 L1078.74 767.456 L1078.74 798.081 L1086.38 798.081 L1086.38 802.016 L1066.48 802.016 L1066.48 798.081 Z" fill="#000000" fill-rule="nonzero" fill-opacity="1"></path><path clip-path="url(#clip850)" d="M1095.97 801.298 L1095.97 797.039 Q1097.73 797.872 1099.53 798.312 Q1101.34 798.752 1103.07 798.752 Q1107.7 798.752 1110.13 795.65 Q1112.59 792.525 1112.93 786.183 Q1111.59 788.173 1109.53 789.238 Q1107.47 790.303 1104.97 790.303 Q1099.79 790.303 1096.75 787.178 Q1093.74 784.03 1093.74 778.59 Q1093.74 773.266 1096.89 770.048 Q1100.04 766.831 1105.27 766.831 Q1111.27 766.831 1114.41 771.437 Q1117.59 776.021 1117.59 784.771 Q1117.59 792.942 1113.7 797.826 Q1109.83 802.687 1103.28 802.687 Q1101.52 802.687 1099.72 802.34 Q1097.91 801.993 1095.97 801.298 M1105.27 786.646 Q1108.42 786.646 1110.25 784.493 Q1112.1 782.34 1112.1 778.59 Q1112.1 774.863 1110.25 772.71 Q1108.42 770.535 1105.27 770.535 Q1102.12 770.535 1100.27 772.71 Q1098.44 774.863 1098.44 778.59 Q1098.44 782.34 1100.27 784.493 Q1102.12 786.646 1105.27 786.646 Z" fill="#000000" fill-rule="nonzero" fill-opacity="1"></path><path clip-path="url(#clip850)" d="M1130.02 798.081 L1146.34 798.081 L1146.34 802.016 L1124.39 802.016 L1124.39 798.081 Q1127.05 795.326 1131.64 790.696 Q1136.24 786.044 1137.42 784.701 Q1139.67 782.178 1140.55 780.442 Q1141.45 778.683 1141.45 776.993 Q1141.45 774.238 1139.51 772.502 Q1137.59 770.766 1134.48 770.766 Q1132.29 770.766 1129.83 771.53 Q1127.4 772.294 1124.62 773.845 L1124.62 769.123 Q1127.45 767.988 1129.9 767.41 Q1132.35 766.831 1134.39 766.831 Q1139.76 766.831 1142.96 769.516 Q1146.15 772.201 1146.15 776.692 Q1146.15 778.822 1145.34 780.743 Q1144.55 782.641 1142.45 785.234 Q1141.87 785.905 1138.77 789.122 Q1135.66 792.317 1130.02 798.081 Z" fill="#000000" fill-rule="nonzero" fill-opacity="1"></path><path clip-path="url(#clip850)" d="M1266.15 798.081 L1273.79 798.081 L1273.79 771.715 L1265.48 773.382 L1265.48 769.123 L1273.75 767.456 L1278.42 767.456 L1278.42 798.081 L1286.06 798.081 L1286.06 802.016 L1266.15 802.016 L1266.15 798.081 Z" fill="#000000" fill-rule="nonzero" fill-opacity="1"></path><path clip-path="url(#clip850)" d="M1306.08 782.872 Q1302.94 782.872 1301.08 785.025 Q1299.25 787.178 1299.25 790.928 Q1299.25 794.655 1301.08 796.831 Q1302.94 798.983 1306.08 798.983 Q1309.23 798.983 1311.06 796.831 Q1312.91 794.655 1312.91 790.928 Q1312.91 787.178 1311.06 785.025 Q1309.23 782.872 1306.08 782.872 M1315.37 768.22 L1315.37 772.479 Q1313.61 771.646 1311.8 771.206 Q1310.02 770.766 1308.26 770.766 Q1303.63 770.766 1301.18 773.891 Q1298.75 777.016 1298.4 783.335 Q1299.76 781.322 1301.82 780.257 Q1303.88 779.169 1306.36 779.169 Q1311.57 779.169 1314.58 782.34 Q1317.61 785.488 1317.61 790.928 Q1317.61 796.252 1314.46 799.47 Q1311.31 802.687 1306.08 802.687 Q1300.09 802.687 1296.92 798.104 Q1293.75 793.497 1293.75 784.771 Q1293.75 776.576 1297.63 771.715 Q1301.52 766.831 1308.07 766.831 Q1309.83 766.831 1311.62 767.178 Q1313.42 767.525 1315.37 768.22 Z" fill="#000000" fill-rule="nonzero" fill-opacity="1"></path><path clip-path="url(#clip850)" d="M1339.83 783.382 Q1343.19 784.099 1345.06 786.368 Q1346.96 788.636 1346.96 791.97 Q1346.96 797.085 1343.44 799.886 Q1339.93 802.687 1333.44 802.687 Q1331.27 802.687 1328.95 802.247 Q1326.66 801.831 1324.21 800.974 L1324.21 796.46 Q1326.15 797.595 1328.47 798.173 Q1330.78 798.752 1333.31 798.752 Q1337.7 798.752 1340 797.016 Q1342.31 795.28 1342.31 791.97 Q1342.31 788.914 1340.16 787.201 Q1338.03 785.465 1334.21 785.465 L1330.18 785.465 L1330.18 781.622 L1334.39 781.622 Q1337.84 781.622 1339.67 780.257 Q1341.5 778.868 1341.5 776.275 Q1341.5 773.613 1339.6 772.201 Q1337.73 770.766 1334.21 770.766 Q1332.29 770.766 1330.09 771.183 Q1327.89 771.599 1325.25 772.479 L1325.25 768.312 Q1327.91 767.572 1330.23 767.201 Q1332.56 766.831 1334.62 766.831 Q1339.95 766.831 1343.05 769.261 Q1346.15 771.669 1346.15 775.789 Q1346.15 778.66 1344.51 780.65 Q1342.87 782.618 1339.83 783.382 Z" fill="#000000" fill-rule="nonzero" fill-opacity="1"></path><path clip-path="url(#clip850)" d="M1365.83 785.604 Q1362.49 785.604 1360.57 787.386 Q1358.68 789.169 1358.68 792.294 Q1358.68 795.419 1360.57 797.201 Q1362.49 798.983 1365.83 798.983 Q1369.16 798.983 1371.08 797.201 Q1373 795.396 1373 792.294 Q1373 789.169 1371.08 787.386 Q1369.18 785.604 1365.83 785.604 M1361.15 783.613 Q1358.14 782.872 1356.45 780.812 Q1354.79 778.752 1354.79 775.789 Q1354.79 771.646 1357.73 769.238 Q1360.69 766.831 1365.83 766.831 Q1370.99 766.831 1373.93 769.238 Q1376.87 771.646 1376.87 775.789 Q1376.87 778.752 1375.18 780.812 Q1373.51 782.872 1370.53 783.613 Q1373.91 784.4 1375.78 786.692 Q1377.68 788.984 1377.68 792.294 Q1377.68 797.317 1374.6 800.002 Q1371.55 802.687 1365.83 802.687 Q1360.11 802.687 1357.03 800.002 Q1353.98 797.317 1353.98 792.294 Q1353.98 788.984 1355.87 786.692 Q1357.77 784.4 1361.15 783.613 M1359.44 776.229 Q1359.44 778.914 1361.11 780.419 Q1362.8 781.923 1365.83 781.923 Q1368.84 781.923 1370.53 780.419 Q1372.24 778.914 1372.24 776.229 Q1372.24 773.544 1370.53 772.039 Q1368.84 770.535 1365.83 770.535 Q1362.8 770.535 1361.11 772.039 Q1359.44 773.544 1359.44 776.229 Z" fill="#000000" fill-rule="nonzero" fill-opacity="1"></path><path clip-path="url(#clip850)" d="M1398.84 771.53 L1387.03 789.979 L1398.84 789.979 L1398.84 771.53 M1397.61 767.456 L1403.49 767.456 L1403.49 789.979 L1408.42 789.979 L1408.42 793.868 L1403.49 793.868 L1403.49 802.016 L1398.84 802.016 L1398.84 793.868 L1383.24 793.868 L1383.24 789.354 L1397.61 767.456 Z" fill="#000000" fill-rule="nonzero" fill-opacity="1"></path><path clip-path="url(#clip850)" d="M1527.55 783.382 Q1530.91 784.099 1532.79 786.368 Q1534.68 788.636 1534.68 791.97 Q1534.68 797.085 1531.17 799.886 Q1527.65 802.687 1521.17 802.687 Q1518.99 802.687 1516.68 802.247 Q1514.38 801.831 1511.93 800.974 L1511.93 796.46 Q1513.87 797.595 1516.19 798.173 Q1518.5 798.752 1521.03 798.752 Q1525.43 798.752 1527.72 797.016 Q1530.03 795.28 1530.03 791.97 Q1530.03 788.914 1527.88 787.201 Q1525.75 785.465 1521.93 785.465 L1517.9 785.465 L1517.9 781.622 L1522.11 781.622 Q1525.56 781.622 1527.39 780.257 Q1529.22 778.868 1529.22 776.275 Q1529.22 773.613 1527.32 772.201 Q1525.45 770.766 1521.93 770.766 Q1520.01 770.766 1517.81 771.183 Q1515.61 771.599 1512.97 772.479 L1512.97 768.312 Q1515.63 767.572 1517.95 767.201 Q1520.29 766.831 1522.35 766.831 Q1527.67 766.831 1530.77 769.261 Q1533.87 771.669 1533.87 775.789 Q1533.87 778.66 1532.23 780.65 Q1530.59 782.618 1527.55 783.382 Z" fill="#000000" fill-rule="nonzero" fill-opacity="1"></path><path clip-path="url(#clip850)" d="M1547.58 798.081 L1563.9 798.081 L1563.9 802.016 L1541.95 802.016 L1541.95 798.081 Q1544.61 795.326 1549.2 790.696 Q1553.8 786.044 1554.99 784.701 Q1557.23 782.178 1558.11 780.442 Q1559.01 778.683 1559.01 776.993 Q1559.01 774.238 1557.07 772.502 Q1555.15 770.766 1552.05 770.766 Q1549.85 770.766 1547.39 771.53 Q1544.96 772.294 1542.18 773.845 L1542.18 769.123 Q1545.01 767.988 1547.46 767.41 Q1549.92 766.831 1551.95 766.831 Q1557.32 766.831 1560.52 769.516 Q1563.71 772.201 1563.71 776.692 Q1563.71 778.822 1562.9 780.743 Q1562.11 782.641 1560.01 785.234 Q1559.43 785.905 1556.33 789.122 Q1553.23 792.317 1547.58 798.081 Z" fill="#000000" fill-rule="nonzero" fill-opacity="1"></path><path clip-path="url(#clip850)" d="M1572.53 767.456 L1594.75 767.456 L1594.75 769.447 L1582.21 802.016 L1577.32 802.016 L1589.13 771.391 L1572.53 771.391 L1572.53 767.456 Z" fill="#000000" fill-rule="nonzero" fill-opacity="1"></path><path clip-path="url(#clip850)" d="M1614.45 782.872 Q1611.3 782.872 1609.45 785.025 Q1607.62 787.178 1607.62 790.928 Q1607.62 794.655 1609.45 796.831 Q1611.3 798.983 1614.45 798.983 Q1617.6 798.983 1619.43 796.831 Q1621.28 794.655 1621.28 790.928 Q1621.28 787.178 1619.43 785.025 Q1617.6 782.872 1614.45 782.872 M1623.73 768.22 L1623.73 772.479 Q1621.98 771.646 1620.17 771.206 Q1618.39 770.766 1616.63 770.766 Q1612 770.766 1609.55 773.891 Q1607.11 777.016 1606.77 783.335 Q1608.13 781.322 1610.19 780.257 Q1612.25 779.169 1614.73 779.169 Q1619.94 779.169 1622.95 782.34 Q1625.98 785.488 1625.98 790.928 Q1625.98 796.252 1622.83 799.47 Q1619.68 802.687 1614.45 802.687 Q1608.46 802.687 1605.29 798.104 Q1602.11 793.497 1602.11 784.771 Q1602.11 776.576 1606 771.715 Q1609.89 766.831 1616.44 766.831 Q1618.2 766.831 1619.98 767.178 Q1621.79 767.525 1623.73 768.22 Z" fill="#000000" fill-rule="nonzero" fill-opacity="1"></path><path clip-path="url(#clip850)" d="M1644.04 785.604 Q1640.7 785.604 1638.78 787.386 Q1636.88 789.169 1636.88 792.294 Q1636.88 795.419 1638.78 797.201 Q1640.7 798.983 1644.04 798.983 Q1647.37 798.983 1649.29 797.201 Q1651.21 795.396 1651.21 792.294 Q1651.21 789.169 1649.29 787.386 Q1647.39 785.604 1644.04 785.604 M1639.36 783.613 Q1636.35 782.872 1634.66 780.812 Q1632.99 778.752 1632.99 775.789 Q1632.99 771.646 1635.93 769.238 Q1638.9 766.831 1644.04 766.831 Q1649.2 766.831 1652.14 769.238 Q1655.08 771.646 1655.08 775.789 Q1655.08 778.752 1653.39 780.812 Q1651.72 782.872 1648.73 783.613 Q1652.11 784.4 1653.99 786.692 Q1655.89 788.984 1655.89 792.294 Q1655.89 797.317 1652.81 800.002 Q1649.75 802.687 1644.04 802.687 Q1638.32 802.687 1635.24 800.002 Q1632.18 797.317 1632.18 792.294 Q1632.18 788.984 1634.08 786.692 Q1635.98 784.4 1639.36 783.613 M1637.65 776.229 Q1637.65 778.914 1639.31 780.419 Q1641 781.923 1644.04 781.923 Q1647.04 781.923 1648.73 780.419 Q1650.45 778.914 1650.45 776.229 Q1650.45 773.544 1648.73 772.039 Q1647.04 770.535 1644.04 770.535 Q1641 770.535 1639.31 772.039 Q1637.65 773.544 1637.65 776.229 Z" fill="#000000" fill-rule="nonzero" fill-opacity="1"></path><polyline clip-path="url(#clip850)" style="stroke:#000000; stroke-linecap:round; stroke-linejoin:round; stroke-width:4; stroke-opacity:1; fill:none" points="180.274,744.416 180.274,105.328 "></polyline>
<polyline clip-path="url(#clip850)" style="stroke:#000000; stroke-linecap:round; stroke-linejoin:round; stroke-width:4; stroke-opacity:1; fill:none" points="180.274,744.416 199.172,744.416 "></polyline>
<polyline clip-path="url(#clip850)" style="stroke:#000000; stroke-linecap:round; stroke-linejoin:round; stroke-width:4; stroke-opacity:1; fill:none" points="180.274,556.827 199.172,556.827 "></polyline>
<polyline clip-path="url(#clip850)" style="stroke:#000000; stroke-linecap:round; stroke-linejoin:round; stroke-width:4; stroke-opacity:1; fill:none" points="180.274,369.238 199.172,369.238 "></polyline>
<polyline clip-path="url(#clip850)" style="stroke:#000000; stroke-linecap:round; stroke-linejoin:round; stroke-width:4; stroke-opacity:1; fill:none" points="180.274,181.649 199.172,181.649 "></polyline>
<path clip-path="url(#clip850)" d="M65.9365 730.215 Q62.3254 730.215 60.4967 733.779 Q58.6912 737.321 58.6912 744.451 Q58.6912 751.557 60.4967 755.122 Q62.3254 758.663 65.9365 758.663 Q69.5707 758.663 71.3763 755.122 Q73.205 751.557 73.205 744.451 Q73.205 737.321 71.3763 733.779 Q69.5707 730.215 65.9365 730.215 M65.9365 726.511 Q71.7467 726.511 74.8022 731.117 Q77.8809 735.701 77.8809 744.451 Q77.8809 753.177 74.8022 757.784 Q71.7467 762.367 65.9365 762.367 Q60.1264 762.367 57.0477 757.784 Q53.9921 753.177 53.9921 744.451 Q53.9921 735.701 57.0477 731.117 Q60.1264 726.511 65.9365 726.511 Z" fill="#000000" fill-rule="nonzero" fill-opacity="1"></path><path clip-path="url(#clip850)" d="M86.0984 755.816 L90.9827 755.816 L90.9827 761.696 L86.0984 761.696 L86.0984 755.816 Z" fill="#000000" fill-rule="nonzero" fill-opacity="1"></path><path clip-path="url(#clip850)" d="M111.168 730.215 Q107.557 730.215 105.728 733.779 Q103.922 737.321 103.922 744.451 Q103.922 751.557 105.728 755.122 Q107.557 758.663 111.168 758.663 Q114.802 758.663 116.608 755.122 Q118.436 751.557 118.436 744.451 Q118.436 737.321 116.608 733.779 Q114.802 730.215 111.168 730.215 M111.168 726.511 Q116.978 726.511 120.033 731.117 Q123.112 735.701 123.112 744.451 Q123.112 753.177 120.033 757.784 Q116.978 762.367 111.168 762.367 Q105.358 762.367 102.279 757.784 Q99.2234 753.177 99.2234 744.451 Q99.2234 735.701 102.279 731.117 Q105.358 726.511 111.168 726.511 Z" fill="#000000" fill-rule="nonzero" fill-opacity="1"></path><path clip-path="url(#clip850)" d="M141.33 730.215 Q137.719 730.215 135.89 733.779 Q134.084 737.321 134.084 744.451 Q134.084 751.557 135.89 755.122 Q137.719 758.663 141.33 758.663 Q144.964 758.663 146.769 755.122 Q148.598 751.557 148.598 744.451 Q148.598 737.321 146.769 733.779 Q144.964 730.215 141.33 730.215 M141.33 726.511 Q147.14 726.511 150.195 731.117 Q153.274 735.701 153.274 744.451 Q153.274 753.177 150.195 757.784 Q147.14 762.367 141.33 762.367 Q135.519 762.367 132.441 757.784 Q129.385 753.177 129.385 744.451 Q129.385 735.701 132.441 731.117 Q135.519 726.511 141.33 726.511 Z" fill="#000000" fill-rule="nonzero" fill-opacity="1"></path><path clip-path="url(#clip850)" d="M66.9319 542.626 Q63.3208 542.626 61.4921 546.191 Q59.6865 549.732 59.6865 556.862 Q59.6865 563.968 61.4921 567.533 Q63.3208 571.075 66.9319 571.075 Q70.5661 571.075 72.3717 567.533 Q74.2004 563.968 74.2004 556.862 Q74.2004 549.732 72.3717 546.191 Q70.5661 542.626 66.9319 542.626 M66.9319 538.922 Q72.742 538.922 75.7976 543.529 Q78.8763 548.112 78.8763 556.862 Q78.8763 565.589 75.7976 570.195 Q72.742 574.778 66.9319 574.778 Q61.1217 574.778 58.043 570.195 Q54.9875 565.589 54.9875 556.862 Q54.9875 548.112 58.043 543.529 Q61.1217 538.922 66.9319 538.922 Z" fill="#000000" fill-rule="nonzero" fill-opacity="1"></path><path clip-path="url(#clip850)" d="M87.0938 568.227 L91.978 568.227 L91.978 574.107 L87.0938 574.107 L87.0938 568.227 Z" fill="#000000" fill-rule="nonzero" fill-opacity="1"></path><path clip-path="url(#clip850)" d="M112.163 542.626 Q108.552 542.626 106.723 546.191 Q104.918 549.732 104.918 556.862 Q104.918 563.968 106.723 567.533 Q108.552 571.075 112.163 571.075 Q115.797 571.075 117.603 567.533 Q119.432 563.968 119.432 556.862 Q119.432 549.732 117.603 546.191 Q115.797 542.626 112.163 542.626 M112.163 538.922 Q117.973 538.922 121.029 543.529 Q124.107 548.112 124.107 556.862 Q124.107 565.589 121.029 570.195 Q117.973 574.778 112.163 574.778 Q106.353 574.778 103.274 570.195 Q100.219 565.589 100.219 556.862 Q100.219 548.112 103.274 543.529 Q106.353 538.922 112.163 538.922 Z" fill="#000000" fill-rule="nonzero" fill-opacity="1"></path><path clip-path="url(#clip850)" d="M132.371 539.547 L150.728 539.547 L150.728 543.482 L136.654 543.482 L136.654 551.954 Q137.672 551.607 138.691 551.445 Q139.709 551.26 140.728 551.26 Q146.515 551.26 149.894 554.431 Q153.274 557.603 153.274 563.019 Q153.274 568.598 149.802 571.7 Q146.33 574.778 140.01 574.778 Q137.834 574.778 135.566 574.408 Q133.32 574.038 130.913 573.297 L130.913 568.598 Q132.996 569.732 135.219 570.288 Q137.441 570.843 139.918 570.843 Q143.922 570.843 146.26 568.737 Q148.598 566.63 148.598 563.019 Q148.598 559.408 146.26 557.302 Q143.922 555.195 139.918 555.195 Q138.043 555.195 136.168 555.612 Q134.316 556.028 132.371 556.908 L132.371 539.547 Z" fill="#000000" fill-rule="nonzero" fill-opacity="1"></path><path clip-path="url(#clip850)" d="M65.9365 355.037 Q62.3254 355.037 60.4967 358.602 Q58.6912 362.143 58.6912 369.273 Q58.6912 376.379 60.4967 379.944 Q62.3254 383.486 65.9365 383.486 Q69.5707 383.486 71.3763 379.944 Q73.205 376.379 73.205 369.273 Q73.205 362.143 71.3763 358.602 Q69.5707 355.037 65.9365 355.037 M65.9365 351.333 Q71.7467 351.333 74.8022 355.94 Q77.8809 360.523 77.8809 369.273 Q77.8809 378 74.8022 382.606 Q71.7467 387.19 65.9365 387.19 Q60.1264 387.19 57.0477 382.606 Q53.9921 378 53.9921 369.273 Q53.9921 360.523 57.0477 355.94 Q60.1264 351.333 65.9365 351.333 Z" fill="#000000" fill-rule="nonzero" fill-opacity="1"></path><path clip-path="url(#clip850)" d="M86.0984 380.639 L90.9827 380.639 L90.9827 386.518 L86.0984 386.518 L86.0984 380.639 Z" fill="#000000" fill-rule="nonzero" fill-opacity="1"></path><path clip-path="url(#clip850)" d="M101.978 382.583 L109.617 382.583 L109.617 356.218 L101.307 357.884 L101.307 353.625 L109.571 351.958 L114.246 351.958 L114.246 382.583 L121.885 382.583 L121.885 386.518 L101.978 386.518 L101.978 382.583 Z" fill="#000000" fill-rule="nonzero" fill-opacity="1"></path><path clip-path="url(#clip850)" d="M141.33 355.037 Q137.719 355.037 135.89 358.602 Q134.084 362.143 134.084 369.273 Q134.084 376.379 135.89 379.944 Q137.719 383.486 141.33 383.486 Q144.964 383.486 146.769 379.944 Q148.598 376.379 148.598 369.273 Q148.598 362.143 146.769 358.602 Q144.964 355.037 141.33 355.037 M141.33 351.333 Q147.14 351.333 150.195 355.94 Q153.274 360.523 153.274 369.273 Q153.274 378 150.195 382.606 Q147.14 387.19 141.33 387.19 Q135.519 387.19 132.441 382.606 Q129.385 378 129.385 369.273 Q129.385 360.523 132.441 355.94 Q135.519 351.333 141.33 351.333 Z" fill="#000000" fill-rule="nonzero" fill-opacity="1"></path><path clip-path="url(#clip850)" d="M66.9319 167.448 Q63.3208 167.448 61.4921 171.013 Q59.6865 174.555 59.6865 181.684 Q59.6865 188.791 61.4921 192.355 Q63.3208 195.897 66.9319 195.897 Q70.5661 195.897 72.3717 192.355 Q74.2004 188.791 74.2004 181.684 Q74.2004 174.555 72.3717 171.013 Q70.5661 167.448 66.9319 167.448 M66.9319 163.744 Q72.742 163.744 75.7976 168.351 Q78.8763 172.934 78.8763 181.684 Q78.8763 190.411 75.7976 195.017 Q72.742 199.601 66.9319 199.601 Q61.1217 199.601 58.043 195.017 Q54.9875 190.411 54.9875 181.684 Q54.9875 172.934 58.043 168.351 Q61.1217 163.744 66.9319 163.744 Z" fill="#000000" fill-rule="nonzero" fill-opacity="1"></path><path clip-path="url(#clip850)" d="M87.0938 193.05 L91.978 193.05 L91.978 198.929 L87.0938 198.929 L87.0938 193.05 Z" fill="#000000" fill-rule="nonzero" fill-opacity="1"></path><path clip-path="url(#clip850)" d="M102.973 194.994 L110.612 194.994 L110.612 168.629 L102.302 170.295 L102.302 166.036 L110.566 164.369 L115.242 164.369 L115.242 194.994 L122.881 194.994 L122.881 198.929 L102.973 198.929 L102.973 194.994 Z" fill="#000000" fill-rule="nonzero" fill-opacity="1"></path><path clip-path="url(#clip850)" d="M132.371 164.369 L150.728 164.369 L150.728 168.305 L136.654 168.305 L136.654 176.777 Q137.672 176.43 138.691 176.268 Q139.709 176.082 140.728 176.082 Q146.515 176.082 149.894 179.254 Q153.274 182.425 153.274 187.842 Q153.274 193.42 149.802 196.522 Q146.33 199.601 140.01 199.601 Q137.834 199.601 135.566 199.23 Q133.32 198.86 130.913 198.119 L130.913 193.42 Q132.996 194.555 135.219 195.11 Q137.441 195.666 139.918 195.666 Q143.922 195.666 146.26 193.559 Q148.598 191.453 148.598 187.842 Q148.598 184.23 146.26 182.124 Q143.922 180.018 139.918 180.018 Q138.043 180.018 136.168 180.434 Q134.316 180.851 132.371 181.731 L132.371 164.369 Z" fill="#000000" fill-rule="nonzero" fill-opacity="1"></path><path clip-path="url(#clip850)" d="M689.402 41.3256 Q689.402 43.662 687.968 45.0556 Q686.574 46.4492 684.812 46.4492 Q683.254 46.4492 682.434 45.5475 Q681.614 44.6457 681.614 43.498 Q681.614 43.0061 681.819 42.3913 Q682.024 41.7355 682.475 40.9567 Q682.967 40.1779 683.992 39.604 Q685.016 39.0302 686.41 38.9482 Q686.123 38.6613 686.041 38.6203 Q685.426 38.1284 684.279 37.9644 Q684.115 37.8825 683.541 37.8825 Q680.713 37.8825 677.843 39.9729 Q675.015 42.0224 671.531 45.9164 Q667.145 50.4662 664.317 52.1467 Q676.737 53.7863 676.737 60.9594 Q676.737 62.1481 676.409 63.5827 Q675.753 66.288 675.753 68.2555 Q675.753 72.1905 678.417 72.1905 Q681 72.1905 682.639 69.5672 Q684.32 66.9439 685.713 61.8202 Q685.918 60.8775 686.123 60.5905 Q686.328 60.3036 686.902 60.3036 Q687.927 60.3036 687.927 61.1234 Q686.984 65.9191 684.894 69.6082 Q682.229 74.076 678.253 74.076 Q674.933 74.076 672.72 71.7806 Q670.547 69.4442 670.547 65.7552 Q670.547 64.8534 670.875 62.804 Q671.121 61.9842 671.121 61.0414 Q671.121 59.1149 670.055 57.6803 Q668.99 56.2047 667.268 55.4669 Q665.547 54.7291 664.112 54.4011 Q662.718 54.0322 661.366 53.9093 Q657.267 71.2477 656.693 72.3135 Q656.324 73.0513 655.504 73.5431 Q654.684 74.076 653.824 74.076 Q653.004 74.076 652.184 73.5022 Q651.405 72.9693 651.405 71.6986 Q651.405 71.0428 651.733 69.8541 L663.907 21.4868 L664.153 19.8472 Q664.153 19.3553 663.948 19.1094 Q663.784 18.8225 662.8 18.6175 Q661.858 18.4126 659.972 18.4126 Q659.193 18.4126 658.824 18.3716 Q658.496 18.3306 658.21 18.1256 Q657.923 17.8797 657.923 17.3878 Q657.923 16.691 658.21 16.3221 Q658.537 15.9122 658.783 15.8302 Q659.029 15.7483 659.521 15.7073 Q660.218 15.6663 662.554 15.4613 Q664.891 15.2154 666.899 15.0514 Q668.908 14.8875 669.768 14.8875 Q670.26 14.8875 670.506 15.1334 Q670.793 15.3384 670.834 15.5843 L670.875 15.7893 L662.144 51.204 Q665.752 49.7694 671.449 43.416 Q678.048 36.038 683.705 36.038 Q686.369 36.038 687.886 37.6775 Q689.402 39.2761 689.402 41.3256 Z" fill="#000000" fill-rule="nonzero" fill-opacity="1"></path><path clip-path="url(#clip850)" d="M718.015 60.3856 Q718.097 59.3609 719.695 59.3609 L771.137 59.3609 Q773.555 59.3609 773.596 60.3036 Q773.596 61.3283 771.301 61.2873 L720.269 61.2873 Q718.015 61.3283 718.015 60.3856 M718.015 43.9899 Q718.015 42.9651 719.777 43.0061 L771.055 43.0061 Q773.555 43.0061 773.596 43.9899 Q773.596 44.9326 771.465 44.9326 L719.695 44.9326 Q718.015 44.9326 718.015 43.9899 Z" fill="#000000" fill-rule="nonzero" fill-opacity="1"></path><path clip-path="url(#clip850)" d="M805.979 73.1332 Q805.979 71.6166 806.102 71.1658 Q806.266 70.7149 806.922 70.0181 L823.031 52.0648 Q831.843 42.1454 831.843 33.4966 Q831.843 27.8811 828.892 23.8641 Q825.982 19.8472 820.612 19.8472 Q816.923 19.8472 813.808 22.1016 Q810.693 24.356 809.258 28.373 Q809.504 28.291 810.365 28.291 Q812.455 28.291 813.603 29.6026 Q814.792 30.9143 814.792 32.6768 Q814.792 34.9312 813.316 36.038 Q811.881 37.1037 810.447 37.1037 Q809.873 37.1037 809.094 36.9807 Q808.356 36.8577 807.168 35.71 Q805.979 34.5214 805.979 32.4309 Q805.979 26.5694 810.406 21.8967 Q814.874 17.2239 821.678 17.2239 Q829.384 17.2239 834.426 21.8147 Q839.508 26.3645 839.508 33.4966 Q839.508 35.997 838.729 38.2924 Q837.992 40.5468 836.967 42.3093 Q835.983 44.0719 833.278 46.9001 Q830.573 49.7284 828.4 51.7368 Q826.228 53.7453 821.35 58.0082 L812.455 66.6569 L827.58 66.6569 Q834.958 66.6569 835.532 66.0011 Q836.352 64.8124 837.377 58.5411 L839.508 58.5411 L837.131 73.1332 L805.979 73.1332 Z" fill="#000000" fill-rule="nonzero" fill-opacity="1"></path><path clip-path="url(#clip850)" d="M848.74 71.7806 Q847.551 70.428 847.551 68.6654 Q847.551 66.9029 848.699 65.5912 Q849.888 64.2386 852.019 64.2386 Q854.519 64.2386 855.954 66.6569 Q857.389 69.0343 857.389 73.0513 Q857.389 77.3961 855.626 81.4131 Q853.864 85.471 852.142 87.3975 Q850.421 89.324 849.724 89.324 Q848.904 89.324 848.904 88.4223 Q848.904 88.0943 849.478 87.4795 Q855.503 81.0032 855.544 73.0513 Q855.544 71.7806 855.38 71.7806 L855.175 71.9446 Q853.741 73.1332 852.019 73.1332 Q849.929 73.1332 848.74 71.7806 Z" fill="#000000" fill-rule="nonzero" fill-opacity="1"></path><path clip-path="url(#clip850)" d="M923.844 15.7893 L911.753 64.3206 Q911.261 66.493 911.261 68.3375 Q911.261 72.1905 913.761 72.1905 Q914.991 72.1905 915.974 71.4117 Q916.958 70.6329 917.737 68.9933 Q918.516 67.3538 919.008 65.8372 Q919.499 64.2796 920.155 61.8202 Q920.36 60.8365 920.524 60.5905 Q920.729 60.3036 921.303 60.3036 Q922.328 60.3036 922.328 61.1234 Q921.221 66.411 919.786 69.4442 Q917.491 74.076 913.597 74.076 Q910.646 74.076 908.555 72.2725 Q906.465 70.4689 905.973 67.7637 Q900.603 74.076 895.029 74.076 Q890.11 74.076 886.995 70.346 Q883.88 66.575 883.88 60.6315 Q883.88 54.6471 886.831 48.9086 Q889.823 43.1701 894.537 39.604 Q899.251 36.038 904.088 36.038 Q909.211 36.038 911.834 41.4075 L916.876 21.4868 L917.122 19.8472 Q917.122 19.3553 916.917 19.1094 Q916.753 18.8225 915.769 18.6175 Q914.827 18.4126 912.941 18.4126 Q912.162 18.4126 911.794 18.3716 Q911.466 18.3306 911.179 18.1256 Q910.892 17.8797 910.892 17.3878 Q910.892 15.9532 912.08 15.7893 Q919.95 14.8875 922.738 14.8875 Q923.23 14.8875 923.516 15.1334 Q923.803 15.3384 923.803 15.5843 L923.844 15.7893 M910.81 45.2605 Q910.81 44.8916 910.523 43.8669 Q910.236 42.8422 909.58 41.4075 Q908.924 39.9729 907.49 38.9482 Q906.096 37.8825 904.21 37.8825 Q901.669 37.8825 899.005 40.0549 Q896.382 42.2273 894.455 45.9164 Q892.979 48.8676 891.381 55.057 Q889.823 61.2464 889.823 64.3206 Q889.823 66.2061 890.233 67.8866 Q890.684 69.5262 891.955 70.8788 Q893.225 72.1905 895.193 72.1905 Q899.989 72.1905 904.702 66.2471 Q905.604 65.2223 905.809 64.8124 Q906.055 64.3615 906.383 63.1319 L910.564 46.6952 Q910.81 45.4655 910.81 45.2605 Z" fill="#000000" fill-rule="nonzero" fill-opacity="1"></path><path clip-path="url(#clip850)" d="M932.414 97.43 L932.414 95.6223 Q935.542 95.6223 936.259 95.2493 Q936.976 94.8476 936.976 92.9539 L936.976 77.1444 Q936.976 74.9637 936.23 74.4473 Q935.513 73.9308 932.644 73.9308 L932.644 72.0945 L940.85 71.4633 L940.85 93.0113 Q940.85 94.7616 941.481 95.192 Q942.112 95.6223 944.981 95.6223 L944.981 97.43 Q938.985 97.2578 938.87 97.2578 Q938.066 97.2578 932.414 97.43 M934.882 61.22 Q934.882 60.0436 935.771 59.0968 Q936.689 58.1213 937.98 58.1213 Q939.272 58.1213 940.19 59.0107 Q941.108 59.8715 941.108 61.2487 Q941.108 62.5973 940.19 63.4867 Q939.272 64.3475 937.98 64.3475 Q936.632 64.3475 935.742 63.4007 Q934.882 62.4538 934.882 61.22 Z" fill="#000000" fill-rule="nonzero" fill-opacity="1"></path><path clip-path="url(#clip850)" d="M948.998 97.43 L948.998 95.6223 Q952.125 95.6223 952.843 95.2493 Q953.56 94.8476 953.56 92.9539 L953.56 77.2018 Q953.56 75.0211 952.785 74.476 Q952.039 73.9308 948.998 73.9308 L948.998 72.0945 L957.261 71.4633 L957.261 77.6321 Q960.016 71.4633 965.955 71.4633 Q970.374 71.4633 972.124 73.6439 Q973.415 75.1072 973.673 76.7427 Q973.96 78.3782 973.96 82.6246 L973.96 93.8434 Q974.018 95.0772 974.964 95.3641 Q975.911 95.6223 978.551 95.6223 L978.551 97.43 Q972.554 97.2578 971.952 97.2578 Q971.493 97.2578 965.324 97.43 L965.324 95.6223 Q968.451 95.6223 969.169 95.2493 Q969.915 94.8476 969.915 92.9539 L969.915 79.2676 Q969.915 76.2836 968.996 74.5334 Q968.078 72.7544 965.553 72.7544 Q962.512 72.7544 960.073 75.3081 Q957.634 77.8617 957.634 82.1656 L957.634 92.9539 Q957.634 94.8476 958.351 95.2493 Q959.097 95.6223 962.196 95.6223 L962.196 97.43 Q956.2 97.2578 955.626 97.2578 Q955.167 97.2578 948.998 97.43 Z" fill="#000000" fill-rule="nonzero" fill-opacity="1"></path><path clip-path="url(#clip850)" d="M981.516 73.9308 L981.516 72.6397 Q984.213 72.5249 985.992 70.6312 Q987.8 68.7088 988.403 66.356 Q989.034 64.0032 989.091 61.2774 L990.555 61.2774 L990.555 72.0945 L998.961 72.0945 L998.961 73.9308 L990.555 73.9308 L990.555 90.2568 Q990.555 96.5979 994.514 96.5979 Q996.207 96.5979 997.326 94.8763 Q998.445 93.1261 998.445 90.0273 L998.445 86.7851 L999.908 86.7851 L999.908 90.1421 Q999.908 93.3269 998.445 95.7084 Q996.982 98.0899 994.084 98.0899 Q993.022 98.0899 991.96 97.803 Q990.928 97.5447 989.55 96.8561 Q988.202 96.1388 987.341 94.4173 Q986.509 92.667 986.509 90.1421 L986.509 73.9308 L981.516 73.9308 Z" fill="#000000" fill-rule="nonzero" fill-opacity="1"></path><path clip-path="url(#clip850)" d="M1013.04 52.1467 Q1013.04 37.9644 1018.33 26.5284 Q1020.58 21.7327 1023.74 17.7157 Q1026.9 13.6988 1028.99 11.9363 Q1031.08 10.1737 1031.65 10.1737 Q1032.47 10.1737 1032.51 10.9935 Q1032.51 11.4034 1031.4 12.4281 Q1017.88 26.2005 1017.92 52.1467 Q1017.92 78.1749 1031.08 91.4145 Q1032.51 92.8491 1032.51 93.3 Q1032.51 94.1198 1031.65 94.1198 Q1031.08 94.1198 1029.07 92.4392 Q1027.06 90.7586 1023.94 86.9056 Q1020.83 83.0527 1018.57 78.3389 Q1013.04 66.9029 1013.04 52.1467 Z" fill="#000000" fill-rule="nonzero" fill-opacity="1"></path><path clip-path="url(#clip850)" d="M1090.37 14.8055 L1085.82 33.1687 Q1085.58 34.2754 1085.37 34.5623 Q1085.17 34.8493 1084.59 34.8493 Q1084.14 34.8493 1083.86 34.6443 Q1083.61 34.4394 1083.61 34.2344 L1083.57 34.0295 Q1083.57 33.9065 1083.65 33.2917 Q1083.73 32.6358 1083.82 31.5701 Q1083.9 30.5044 1083.9 29.3157 Q1083.9 22.5935 1080.62 19.4783 Q1077.38 16.3221 1071.81 16.3221 Q1067.95 16.3221 1064.51 18.3716 Q1061.07 20.421 1059.1 23.6592 Q1057.13 26.8564 1057.13 30.2175 Q1057.13 33.2917 1058.69 35.2592 Q1060.25 37.2266 1062.25 37.8825 L1067.87 39.3991 Q1073.77 40.9157 1075.45 41.5715 Q1077.13 42.1863 1078.53 43.58 Q1082.67 47.433 1082.67 53.4174 Q1082.67 58.5821 1079.76 63.5827 Q1076.85 68.5425 1071.85 71.7806 Q1066.85 74.9778 1061.31 74.9778 Q1051.6 74.9778 1047.13 68.9523 L1043.03 73.7071 Q1042.25 74.6089 1042.01 74.7728 Q1041.8 74.9778 1041.51 74.9778 Q1041.15 74.9778 1040.86 74.7318 Q1040.57 74.5269 1040.57 74.158 Q1040.57 73.8711 1042.99 64.2386 Q1045.41 54.6061 1045.61 54.4011 Q1045.94 54.0732 1046.47 54.0732 Q1047.46 54.0732 1047.46 55.016 Q1047.38 55.2619 1047.29 55.5898 Q1046.8 58.5411 1046.8 60.1396 Q1046.8 63.1319 1047.83 65.4273 Q1048.85 67.6817 1050.37 68.9933 Q1051.93 70.264 1054.02 71.0838 Q1056.11 71.8626 1057.87 72.1495 Q1059.63 72.3954 1061.48 72.3954 Q1065.45 72.3954 1068.98 70.1 Q1072.54 67.8046 1074.55 64.2386 Q1076.6 60.6725 1076.6 56.9425 Q1076.6 54.975 1076.07 53.4584 Q1075.54 51.9008 1074.8 51.04 Q1074.1 50.1793 1072.91 49.5234 Q1071.72 48.8676 1070.9 48.6217 Q1070.12 48.3347 1068.9 48.0478 L1059.92 45.6704 Q1056.31 44.6047 1053.73 41.5305 Q1051.19 38.4563 1051.19 33.7426 Q1051.19 28.7829 1054.1 24.1921 Q1057.05 19.5603 1061.84 16.773 Q1066.68 13.9447 1071.89 13.9447 Q1075.99 13.9447 1079.14 15.5433 Q1082.3 17.1009 1083.9 20.0111 L1087.96 15.2154 Q1088.77 14.2726 1088.94 14.1087 Q1089.14 13.9447 1089.43 13.9447 Q1089.92 13.9447 1090.13 14.2317 Q1090.37 14.5186 1090.37 14.8055 Z" fill="#000000" fill-rule="nonzero" fill-opacity="1"></path><path clip-path="url(#clip850)" d="M1096.56 93.3 Q1096.56 92.8901 1097.63 91.8654 Q1111.15 78.093 1111.15 52.1467 Q1111.15 26.1185 1098.16 12.961 Q1096.56 11.4444 1096.56 10.9935 Q1096.56 10.1737 1097.38 10.1737 Q1097.96 10.1737 1099.96 11.8543 Q1102.01 13.5348 1105.09 17.3878 Q1108.2 21.2408 1110.5 25.9546 Q1116.03 37.3906 1116.03 52.1467 Q1116.03 66.329 1110.74 77.765 Q1108.49 82.5608 1105.33 86.5777 Q1102.18 90.5947 1100.09 92.3572 Q1098 94.1198 1097.38 94.1198 Q1096.56 94.1198 1096.56 93.3 Z" fill="#000000" fill-rule="nonzero" fill-opacity="1"></path><path clip-path="url(#clip850)" d="M1152.09 60.3856 Q1152.17 59.3609 1153.77 59.3609 L1205.21 59.3609 Q1207.63 59.3609 1207.67 60.3036 Q1207.67 61.3283 1205.37 61.2873 L1154.34 61.2873 Q1152.09 61.3283 1152.09 60.3856 M1152.09 43.9899 Q1152.09 42.9651 1153.85 43.0061 L1205.13 43.0061 Q1207.63 43.0061 1207.67 43.9899 Q1207.67 44.9326 1205.54 44.9326 L1153.77 44.9326 Q1152.09 44.9326 1152.09 43.9899 Z" fill="#000000" fill-rule="nonzero" fill-opacity="1"></path><path clip-path="url(#clip850)" d="M1240.05 36.1199 Q1240.05 31.6521 1241.36 28.6189 Q1242.68 25.5447 1245.42 22.5115 Q1250.46 17.2239 1257.76 17.2239 Q1260.87 17.2239 1263.62 18.5355 Q1266.41 19.8472 1269.03 22.8394 Q1271.7 25.7906 1273.29 31.6521 Q1274.89 37.4726 1274.89 45.5065 Q1274.89 58.5001 1268.58 66.7389 Q1262.31 74.9778 1253.82 74.9778 Q1248.46 74.9778 1245.3 72.5594 Q1242.14 70.1 1242.14 65.9191 Q1242.14 63.7467 1243.37 62.8449 Q1244.6 61.9022 1246 61.9022 Q1247.51 61.9022 1248.7 62.9269 Q1249.89 63.9107 1249.89 65.7552 Q1249.89 67.2718 1248.91 68.4605 Q1247.96 69.6082 1245.5 69.6082 Q1247.92 72.6414 1253.74 72.6414 Q1255.83 72.6414 1257.92 71.6986 Q1260.01 70.7149 1262.27 68.3785 Q1264.56 66.0011 1265.96 61.0414 Q1267.35 56.0817 1267.35 49.1135 L1267.35 46.4492 Q1263.99 54.852 1256.86 54.852 Q1249.81 54.852 1244.93 49.4414 Q1240.05 44.0309 1240.05 36.1199 M1247.59 36.2019 Q1247.59 44.5227 1249.11 47.5969 Q1251.69 52.8845 1256.94 52.8845 Q1262.06 52.8845 1264.6 48.3347 Q1267.19 43.7439 1267.19 37.8005 Q1267.19 29.5616 1265.83 25.9546 Q1263.33 19.3143 1257.76 19.3143 Q1252.23 19.3143 1249.36 24.6019 Q1247.59 27.7171 1247.59 36.2019 Z" fill="#000000" fill-rule="nonzero" fill-opacity="1"></path><path clip-path="url(#clip852)" d="M262.686 201.111 L262.686 744.416 L291.498 744.416 L291.498 201.111 L262.686 201.111 L262.686 201.111  Z" fill="#009af9" fill-rule="evenodd" fill-opacity="1"></path>
<polyline clip-path="url(#clip852)" style="stroke:#000000; stroke-linecap:round; stroke-linejoin:round; stroke-width:4; stroke-opacity:1; fill:none" points="262.686,201.111 262.686,744.416 291.498,744.416 291.498,201.111 262.686,201.111 "></polyline>
<path clip-path="url(#clip852)" d="M509.644 410.011 L509.644 744.416 L538.455 744.416 L538.455 410.011 L509.644 410.011 L509.644 410.011  Z" fill="#009af9" fill-rule="evenodd" fill-opacity="1"></path>
<polyline clip-path="url(#clip852)" style="stroke:#000000; stroke-linecap:round; stroke-linejoin:round; stroke-width:4; stroke-opacity:1; fill:none" points="509.644,410.011 509.644,744.416 538.455,744.416 538.455,410.011 509.644,410.011 "></polyline>
<path clip-path="url(#clip852)" d="M756.601 462.755 L756.601 744.416 L785.413 744.416 L785.413 462.755 L756.601 462.755 L756.601 462.755  Z" fill="#009af9" fill-rule="evenodd" fill-opacity="1"></path>
<polyline clip-path="url(#clip852)" style="stroke:#000000; stroke-linecap:round; stroke-linejoin:round; stroke-width:4; stroke-opacity:1; fill:none" points="756.601,462.755 756.601,744.416 785.413,744.416 785.413,462.755 756.601,462.755 "></polyline>
<path clip-path="url(#clip852)" d="M1003.56 560.395 L1003.56 744.416 L1032.37 744.416 L1032.37 560.395 L1003.56 560.395 L1003.56 560.395  Z" fill="#009af9" fill-rule="evenodd" fill-opacity="1"></path>
<polyline clip-path="url(#clip852)" style="stroke:#000000; stroke-linecap:round; stroke-linejoin:round; stroke-width:4; stroke-opacity:1; fill:none" points="1003.56,560.395 1003.56,744.416 1032.37,744.416 1032.37,560.395 1003.56,560.395 "></polyline>
<path clip-path="url(#clip852)" d="M1250.52 602.925 L1250.52 744.416 L1279.33 744.416 L1279.33 602.925 L1250.52 602.925 L1250.52 602.925  Z" fill="#009af9" fill-rule="evenodd" fill-opacity="1"></path>
<polyline clip-path="url(#clip852)" style="stroke:#000000; stroke-linecap:round; stroke-linejoin:round; stroke-width:4; stroke-opacity:1; fill:none" points="1250.52,602.925 1250.52,744.416 1279.33,744.416 1279.33,602.925 1250.52,602.925 "></polyline>
<path clip-path="url(#clip852)" d="M1497.47 648.396 L1497.47 744.416 L1526.29 744.416 L1526.29 648.396 L1497.47 648.396 L1497.47 648.396  Z" fill="#009af9" fill-rule="evenodd" fill-opacity="1"></path>
<polyline clip-path="url(#clip852)" style="stroke:#000000; stroke-linecap:round; stroke-linejoin:round; stroke-width:4; stroke-opacity:1; fill:none" points="1497.47,648.396 1497.47,744.416 1526.29,744.416 1526.29,648.396 1497.47,648.396 "></polyline>
<circle clip-path="url(#clip852)" style="fill:#009af9; stroke:none; fill-opacity:0" cx="277.092" cy="201.111" r="2"></circle>
<circle clip-path="url(#clip852)" style="fill:#009af9; stroke:none; fill-opacity:0" cx="524.049" cy="410.011" r="2"></circle>
<circle clip-path="url(#clip852)" style="fill:#009af9; stroke:none; fill-opacity:0" cx="771.007" cy="462.755" r="2"></circle>
<circle clip-path="url(#clip852)" style="fill:#009af9; stroke:none; fill-opacity:0" cx="1017.96" cy="560.395" r="2"></circle>
<circle clip-path="url(#clip852)" style="fill:#009af9; stroke:none; fill-opacity:0" cx="1264.92" cy="602.925" r="2"></circle>
<circle clip-path="url(#clip852)" style="fill:#009af9; stroke:none; fill-opacity:0" cx="1511.88" cy="648.396" r="2"></circle>
<path clip-path="url(#clip852)" d="M291.498 105.328 L291.498 744.416 L320.31 744.416 L320.31 105.328 L291.498 105.328 L291.498 105.328  Z" fill="#e26f46" fill-rule="evenodd" fill-opacity="1"></path>
<polyline clip-path="url(#clip852)" style="stroke:#000000; stroke-linecap:round; stroke-linejoin:round; stroke-width:4; stroke-opacity:1; fill:none" points="291.498,105.328 291.498,744.416 320.31,744.416 320.31,105.328 291.498,105.328 "></polyline>
<path clip-path="url(#clip852)" d="M538.455 288.203 L538.455 744.416 L567.267 744.416 L567.267 288.203 L538.455 288.203 L538.455 288.203  Z" fill="#e26f46" fill-rule="evenodd" fill-opacity="1"></path>
<polyline clip-path="url(#clip852)" style="stroke:#000000; stroke-linecap:round; stroke-linejoin:round; stroke-width:4; stroke-opacity:1; fill:none" points="538.455,288.203 538.455,744.416 567.267,744.416 567.267,288.203 538.455,288.203 "></polyline>
<path clip-path="url(#clip852)" d="M785.413 405.493 L785.413 744.416 L814.225 744.416 L814.225 405.493 L785.413 405.493 L785.413 405.493  Z" fill="#e26f46" fill-rule="evenodd" fill-opacity="1"></path>
<polyline clip-path="url(#clip852)" style="stroke:#000000; stroke-linecap:round; stroke-linejoin:round; stroke-width:4; stroke-opacity:1; fill:none" points="785.413,405.493 785.413,744.416 814.225,744.416 814.225,405.493 785.413,405.493 "></polyline>
<path clip-path="url(#clip852)" d="M1032.37 519.565 L1032.37 744.416 L1061.18 744.416 L1061.18 519.565 L1032.37 519.565 L1032.37 519.565  Z" fill="#e26f46" fill-rule="evenodd" fill-opacity="1"></path>
<polyline clip-path="url(#clip852)" style="stroke:#000000; stroke-linecap:round; stroke-linejoin:round; stroke-width:4; stroke-opacity:1; fill:none" points="1032.37,519.565 1032.37,744.416 1061.18,744.416 1061.18,519.565 1032.37,519.565 "></polyline>
<path clip-path="url(#clip852)" d="M1279.33 574.283 L1279.33 744.416 L1308.14 744.416 L1308.14 574.283 L1279.33 574.283 L1279.33 574.283  Z" fill="#e26f46" fill-rule="evenodd" fill-opacity="1"></path>
<polyline clip-path="url(#clip852)" style="stroke:#000000; stroke-linecap:round; stroke-linejoin:round; stroke-width:4; stroke-opacity:1; fill:none" points="1279.33,574.283 1279.33,744.416 1308.14,744.416 1308.14,574.283 1279.33,574.283 "></polyline>
<path clip-path="url(#clip852)" d="M1526.29 642.408 L1526.29 744.416 L1555.1 744.416 L1555.1 642.408 L1526.29 642.408 L1526.29 642.408  Z" fill="#e26f46" fill-rule="evenodd" fill-opacity="1"></path>
<polyline clip-path="url(#clip852)" style="stroke:#000000; stroke-linecap:round; stroke-linejoin:round; stroke-width:4; stroke-opacity:1; fill:none" points="1526.29,642.408 1526.29,744.416 1555.1,744.416 1555.1,642.408 1526.29,642.408 "></polyline>
<circle clip-path="url(#clip852)" style="fill:#e26f46; stroke:none; fill-opacity:0" cx="305.904" cy="105.328" r="2"></circle>
<circle clip-path="url(#clip852)" style="fill:#e26f46; stroke:none; fill-opacity:0" cx="552.861" cy="288.203" r="2"></circle>
<circle clip-path="url(#clip852)" style="fill:#e26f46; stroke:none; fill-opacity:0" cx="799.819" cy="405.493" r="2"></circle>
<circle clip-path="url(#clip852)" style="fill:#e26f46; stroke:none; fill-opacity:0" cx="1046.78" cy="519.565" r="2"></circle>
<circle clip-path="url(#clip852)" style="fill:#e26f46; stroke:none; fill-opacity:0" cx="1293.73" cy="574.283" r="2"></circle>
<circle clip-path="url(#clip852)" style="fill:#e26f46; stroke:none; fill-opacity:0" cx="1540.69" cy="642.408" r="2"></circle>
<path clip-path="url(#clip852)" d="M320.31 127.799 L320.31 744.416 L349.121 744.416 L349.121 127.799 L320.31 127.799 L320.31 127.799  Z" fill="#3da44d" fill-rule="evenodd" fill-opacity="1"></path>
<polyline clip-path="url(#clip852)" style="stroke:#000000; stroke-linecap:round; stroke-linejoin:round; stroke-width:4; stroke-opacity:1; fill:none" points="320.31,127.799 320.31,744.416 349.121,744.416 349.121,127.799 320.31,127.799 "></polyline>
<path clip-path="url(#clip852)" d="M567.267 326.837 L567.267 744.416 L596.079 744.416 L596.079 326.837 L567.267 326.837 L567.267 326.837  Z" fill="#3da44d" fill-rule="evenodd" fill-opacity="1"></path>
<polyline clip-path="url(#clip852)" style="stroke:#000000; stroke-linecap:round; stroke-linejoin:round; stroke-width:4; stroke-opacity:1; fill:none" points="567.267,326.837 567.267,744.416 596.079,744.416 596.079,326.837 567.267,326.837 "></polyline>
<path clip-path="url(#clip852)" d="M814.225 444.339 L814.225 744.416 L843.036 744.416 L843.036 444.339 L814.225 444.339 L814.225 444.339  Z" fill="#3da44d" fill-rule="evenodd" fill-opacity="1"></path>
<polyline clip-path="url(#clip852)" style="stroke:#000000; stroke-linecap:round; stroke-linejoin:round; stroke-width:4; stroke-opacity:1; fill:none" points="814.225,444.339 814.225,744.416 843.036,744.416 843.036,444.339 814.225,444.339 "></polyline>
<path clip-path="url(#clip852)" d="M1061.18 527.31 L1061.18 744.416 L1089.99 744.416 L1089.99 527.31 L1061.18 527.31 L1061.18 527.31  Z" fill="#3da44d" fill-rule="evenodd" fill-opacity="1"></path>
<polyline clip-path="url(#clip852)" style="stroke:#000000; stroke-linecap:round; stroke-linejoin:round; stroke-width:4; stroke-opacity:1; fill:none" points="1061.18,527.31 1061.18,744.416 1089.99,744.416 1089.99,527.31 1061.18,527.31 "></polyline>
<path clip-path="url(#clip852)" d="M1308.14 607.629 L1308.14 744.416 L1336.95 744.416 L1336.95 607.629 L1308.14 607.629 L1308.14 607.629  Z" fill="#3da44d" fill-rule="evenodd" fill-opacity="1"></path>
<polyline clip-path="url(#clip852)" style="stroke:#000000; stroke-linecap:round; stroke-linejoin:round; stroke-width:4; stroke-opacity:1; fill:none" points="1308.14,607.629 1308.14,744.416 1336.95,744.416 1336.95,607.629 1308.14,607.629 "></polyline>
<path clip-path="url(#clip852)" d="M1555.1 626.912 L1555.1 744.416 L1583.91 744.416 L1583.91 626.912 L1555.1 626.912 L1555.1 626.912  Z" fill="#3da44d" fill-rule="evenodd" fill-opacity="1"></path>
<polyline clip-path="url(#clip852)" style="stroke:#000000; stroke-linecap:round; stroke-linejoin:round; stroke-width:4; stroke-opacity:1; fill:none" points="1555.1,626.912 1555.1,744.416 1583.91,744.416 1583.91,626.912 1555.1,626.912 "></polyline>
<circle clip-path="url(#clip852)" style="fill:#3da44d; stroke:none; fill-opacity:0" cx="334.715" cy="127.799" r="2"></circle>
<circle clip-path="url(#clip852)" style="fill:#3da44d; stroke:none; fill-opacity:0" cx="581.673" cy="326.837" r="2"></circle>
<circle clip-path="url(#clip852)" style="fill:#3da44d; stroke:none; fill-opacity:0" cx="828.63" cy="444.339" r="2"></circle>
<circle clip-path="url(#clip852)" style="fill:#3da44d; stroke:none; fill-opacity:0" cx="1075.59" cy="527.31" r="2"></circle>
<circle clip-path="url(#clip852)" style="fill:#3da44d; stroke:none; fill-opacity:0" cx="1322.55" cy="607.629" r="2"></circle>
<circle clip-path="url(#clip852)" style="fill:#3da44d; stroke:none; fill-opacity:0" cx="1569.5" cy="626.912" r="2"></circle>
<path clip-path="url(#clip852)" d="M349.121 159.292 L349.121 744.416 L377.933 744.416 L377.933 159.292 L349.121 159.292 L349.121 159.292  Z" fill="#c271d2" fill-rule="evenodd" fill-opacity="1"></path>
<polyline clip-path="url(#clip852)" style="stroke:#000000; stroke-linecap:round; stroke-linejoin:round; stroke-width:4; stroke-opacity:1; fill:none" points="349.121,159.292 349.121,744.416 377.933,744.416 377.933,159.292 349.121,159.292 "></polyline>
<path clip-path="url(#clip852)" d="M596.079 377.79 L596.079 744.416 L624.89 744.416 L624.89 377.79 L596.079 377.79 L596.079 377.79  Z" fill="#c271d2" fill-rule="evenodd" fill-opacity="1"></path>
<polyline clip-path="url(#clip852)" style="stroke:#000000; stroke-linecap:round; stroke-linejoin:round; stroke-width:4; stroke-opacity:1; fill:none" points="596.079,377.79 596.079,744.416 624.89,744.416 624.89,377.79 596.079,377.79 "></polyline>
<path clip-path="url(#clip852)" d="M843.036 450.676 L843.036 744.416 L871.848 744.416 L871.848 450.676 L843.036 450.676 L843.036 450.676  Z" fill="#c271d2" fill-rule="evenodd" fill-opacity="1"></path>
<polyline clip-path="url(#clip852)" style="stroke:#000000; stroke-linecap:round; stroke-linejoin:round; stroke-width:4; stroke-opacity:1; fill:none" points="843.036,450.676 843.036,744.416 871.848,744.416 871.848,450.676 843.036,450.676 "></polyline>
<path clip-path="url(#clip852)" d="M1089.99 552.717 L1089.99 744.416 L1118.81 744.416 L1118.81 552.717 L1089.99 552.717 L1089.99 552.717  Z" fill="#c271d2" fill-rule="evenodd" fill-opacity="1"></path>
<polyline clip-path="url(#clip852)" style="stroke:#000000; stroke-linecap:round; stroke-linejoin:round; stroke-width:4; stroke-opacity:1; fill:none" points="1089.99,552.717 1089.99,744.416 1118.81,744.416 1118.81,552.717 1089.99,552.717 "></polyline>
<path clip-path="url(#clip852)" d="M1336.95 612.041 L1336.95 744.416 L1365.76 744.416 L1365.76 612.041 L1336.95 612.041 L1336.95 612.041  Z" fill="#c271d2" fill-rule="evenodd" fill-opacity="1"></path>
<polyline clip-path="url(#clip852)" style="stroke:#000000; stroke-linecap:round; stroke-linejoin:round; stroke-width:4; stroke-opacity:1; fill:none" points="1336.95,612.041 1336.95,744.416 1365.76,744.416 1365.76,612.041 1336.95,612.041 "></polyline>
<path clip-path="url(#clip852)" d="M1583.91 633.713 L1583.91 744.416 L1612.72 744.416 L1612.72 633.713 L1583.91 633.713 L1583.91 633.713  Z" fill="#c271d2" fill-rule="evenodd" fill-opacity="1"></path>
<polyline clip-path="url(#clip852)" style="stroke:#000000; stroke-linecap:round; stroke-linejoin:round; stroke-width:4; stroke-opacity:1; fill:none" points="1583.91,633.713 1583.91,744.416 1612.72,744.416 1612.72,633.713 1583.91,633.713 "></polyline>
<circle clip-path="url(#clip852)" style="fill:#c271d2; stroke:none; fill-opacity:0" cx="363.527" cy="159.292" r="2"></circle>
<circle clip-path="url(#clip852)" style="fill:#c271d2; stroke:none; fill-opacity:0" cx="610.485" cy="377.79" r="2"></circle>
<circle clip-path="url(#clip852)" style="fill:#c271d2; stroke:none; fill-opacity:0" cx="857.442" cy="450.676" r="2"></circle>
<circle clip-path="url(#clip852)" style="fill:#c271d2; stroke:none; fill-opacity:0" cx="1104.4" cy="552.717" r="2"></circle>
<circle clip-path="url(#clip852)" style="fill:#c271d2; stroke:none; fill-opacity:0" cx="1351.36" cy="612.041" r="2"></circle>
<circle clip-path="url(#clip852)" style="fill:#c271d2; stroke:none; fill-opacity:0" cx="1598.31" cy="633.713" r="2"></circle>
<path clip-path="url(#clip852)" d="M377.933 214.395 L377.933 744.416 L406.745 744.416 L406.745 214.395 L377.933 214.395 L377.933 214.395  Z" fill="#ac8d18" fill-rule="evenodd" fill-opacity="1"></path>
<polyline clip-path="url(#clip852)" style="stroke:#000000; stroke-linecap:round; stroke-linejoin:round; stroke-width:4; stroke-opacity:1; fill:none" points="377.933,214.395 377.933,744.416 406.745,744.416 406.745,214.395 377.933,214.395 "></polyline>
<path clip-path="url(#clip852)" d="M624.89 275.044 L624.89 744.416 L653.702 744.416 L653.702 275.044 L624.89 275.044 L624.89 275.044  Z" fill="#ac8d18" fill-rule="evenodd" fill-opacity="1"></path>
<polyline clip-path="url(#clip852)" style="stroke:#000000; stroke-linecap:round; stroke-linejoin:round; stroke-width:4; stroke-opacity:1; fill:none" points="624.89,275.044 624.89,744.416 653.702,744.416 653.702,275.044 624.89,275.044 "></polyline>
<path clip-path="url(#clip852)" d="M871.848 487.741 L871.848 744.416 L900.66 744.416 L900.66 487.741 L871.848 487.741 L871.848 487.741  Z" fill="#ac8d18" fill-rule="evenodd" fill-opacity="1"></path>
<polyline clip-path="url(#clip852)" style="stroke:#000000; stroke-linecap:round; stroke-linejoin:round; stroke-width:4; stroke-opacity:1; fill:none" points="871.848,487.741 871.848,744.416 900.66,744.416 900.66,487.741 871.848,487.741 "></polyline>
<path clip-path="url(#clip852)" d="M1118.81 557.994 L1118.81 744.416 L1147.62 744.416 L1147.62 557.994 L1118.81 557.994 L1118.81 557.994  Z" fill="#ac8d18" fill-rule="evenodd" fill-opacity="1"></path>
<polyline clip-path="url(#clip852)" style="stroke:#000000; stroke-linecap:round; stroke-linejoin:round; stroke-width:4; stroke-opacity:1; fill:none" points="1118.81,557.994 1118.81,744.416 1147.62,744.416 1147.62,557.994 1118.81,557.994 "></polyline>
<path clip-path="url(#clip852)" d="M1365.76 604.212 L1365.76 744.416 L1394.57 744.416 L1394.57 604.212 L1365.76 604.212 L1365.76 604.212  Z" fill="#ac8d18" fill-rule="evenodd" fill-opacity="1"></path>
<polyline clip-path="url(#clip852)" style="stroke:#000000; stroke-linecap:round; stroke-linejoin:round; stroke-width:4; stroke-opacity:1; fill:none" points="1365.76,604.212 1365.76,744.416 1394.57,744.416 1394.57,604.212 1365.76,604.212 "></polyline>
<path clip-path="url(#clip852)" d="M1612.72 638.372 L1612.72 744.416 L1641.53 744.416 L1641.53 638.372 L1612.72 638.372 L1612.72 638.372  Z" fill="#ac8d18" fill-rule="evenodd" fill-opacity="1"></path>
<polyline clip-path="url(#clip852)" style="stroke:#000000; stroke-linecap:round; stroke-linejoin:round; stroke-width:4; stroke-opacity:1; fill:none" points="1612.72,638.372 1612.72,744.416 1641.53,744.416 1641.53,638.372 1612.72,638.372 "></polyline>
<circle clip-path="url(#clip852)" style="fill:#ac8d18; stroke:none; fill-opacity:0" cx="392.339" cy="214.395" r="2"></circle>
<circle clip-path="url(#clip852)" style="fill:#ac8d18; stroke:none; fill-opacity:0" cx="639.296" cy="275.044" r="2"></circle>
<circle clip-path="url(#clip852)" style="fill:#ac8d18; stroke:none; fill-opacity:0" cx="886.254" cy="487.741" r="2"></circle>
<circle clip-path="url(#clip852)" style="fill:#ac8d18; stroke:none; fill-opacity:0" cx="1133.21" cy="557.994" r="2"></circle>
<circle clip-path="url(#clip852)" style="fill:#ac8d18; stroke:none; fill-opacity:0" cx="1380.17" cy="604.212" r="2"></circle>
<circle clip-path="url(#clip852)" style="fill:#ac8d18; stroke:none; fill-opacity:0" cx="1627.13" cy="638.372" r="2"></circle>
<path clip-path="url(#clip852)" d="M406.745 205.05 L406.745 744.416 L435.556 744.416 L435.556 205.05 L406.745 205.05 L406.745 205.05  Z" fill="#00a9ad" fill-rule="evenodd" fill-opacity="1"></path>
<polyline clip-path="url(#clip852)" style="stroke:#000000; stroke-linecap:round; stroke-linejoin:round; stroke-width:4; stroke-opacity:1; fill:none" points="406.745,205.05 406.745,744.416 435.556,744.416 435.556,205.05 406.745,205.05 "></polyline>
<path clip-path="url(#clip852)" d="M653.702 345.78 L653.702 744.416 L682.514 744.416 L682.514 345.78 L653.702 345.78 L653.702 345.78  Z" fill="#00a9ad" fill-rule="evenodd" fill-opacity="1"></path>
<polyline clip-path="url(#clip852)" style="stroke:#000000; stroke-linecap:round; stroke-linejoin:round; stroke-width:4; stroke-opacity:1; fill:none" points="653.702,345.78 653.702,744.416 682.514,744.416 682.514,345.78 653.702,345.78 "></polyline>
<path clip-path="url(#clip852)" d="M900.66 497.571 L900.66 744.416 L929.471 744.416 L929.471 497.571 L900.66 497.571 L900.66 497.571  Z" fill="#00a9ad" fill-rule="evenodd" fill-opacity="1"></path>
<polyline clip-path="url(#clip852)" style="stroke:#000000; stroke-linecap:round; stroke-linejoin:round; stroke-width:4; stroke-opacity:1; fill:none" points="900.66,497.571 900.66,744.416 929.471,744.416 929.471,497.571 900.66,497.571 "></polyline>
<path clip-path="url(#clip852)" d="M1147.62 567.072 L1147.62 744.416 L1176.43 744.416 L1176.43 567.072 L1147.62 567.072 L1147.62 567.072  Z" fill="#00a9ad" fill-rule="evenodd" fill-opacity="1"></path>
<polyline clip-path="url(#clip852)" style="stroke:#000000; stroke-linecap:round; stroke-linejoin:round; stroke-width:4; stroke-opacity:1; fill:none" points="1147.62,567.072 1147.62,744.416 1176.43,744.416 1176.43,567.072 1147.62,567.072 "></polyline>
<path clip-path="url(#clip852)" d="M1394.57 659.67 L1394.57 744.416 L1423.39 744.416 L1423.39 659.67 L1394.57 659.67 L1394.57 659.67  Z" fill="#00a9ad" fill-rule="evenodd" fill-opacity="1"></path>
<polyline clip-path="url(#clip852)" style="stroke:#000000; stroke-linecap:round; stroke-linejoin:round; stroke-width:4; stroke-opacity:1; fill:none" points="1394.57,659.67 1394.57,744.416 1423.39,744.416 1423.39,659.67 1394.57,659.67 "></polyline>
<path clip-path="url(#clip852)" d="M1641.53 655.808 L1641.53 744.416 L1670.34 744.416 L1670.34 655.808 L1641.53 655.808 L1641.53 655.808  Z" fill="#00a9ad" fill-rule="evenodd" fill-opacity="1"></path>
<polyline clip-path="url(#clip852)" style="stroke:#000000; stroke-linecap:round; stroke-linejoin:round; stroke-width:4; stroke-opacity:1; fill:none" points="1641.53,655.808 1641.53,744.416 1670.34,744.416 1670.34,655.808 1641.53,655.808 "></polyline>
<circle clip-path="url(#clip852)" style="fill:#00a9ad; stroke:none; fill-opacity:0" cx="421.151" cy="205.05" r="2"></circle>
<circle clip-path="url(#clip852)" style="fill:#00a9ad; stroke:none; fill-opacity:0" cx="668.108" cy="345.78" r="2"></circle>
<circle clip-path="url(#clip852)" style="fill:#00a9ad; stroke:none; fill-opacity:0" cx="915.065" cy="497.571" r="2"></circle>
<circle clip-path="url(#clip852)" style="fill:#00a9ad; stroke:none; fill-opacity:0" cx="1162.02" cy="567.072" r="2"></circle>
<circle clip-path="url(#clip852)" style="fill:#00a9ad; stroke:none; fill-opacity:0" cx="1408.98" cy="659.67" r="2"></circle>
<circle clip-path="url(#clip852)" style="fill:#00a9ad; stroke:none; fill-opacity:0" cx="1655.94" cy="655.808" r="2"></circle>
</svg>