<svg xmlns="http://www.w3.org/2000/svg" xmlns:xlink="http://www.w3.org/1999/xlink" width="450" height="210" viewBox="0 0 1800 840">
<defs>
  <clipPath id="clip810">
    <rect x="0" y="0" width="1800" height="840"></rect>
  </clipPath>
</defs>
<path clip-path="url(#clip810)" d="M0 840 L1800 840 L1800 0 L0 0  Z" fill="#ffffff" fill-rule="evenodd" fill-opacity="1"></path>
<defs>
  <clipPath id="clip811">
    <rect x="360" y="0" width="1261" height="840"></rect>
  </clipPath>
</defs>
<path clip-path="url(#clip810)" d="M210.436 744.416 L1752.76 744.416 L1752.76 105.328 L210.436 105.328  Z" fill="#ffffff" fill-rule="evenodd" fill-opacity="1"></path>
<defs>
  <clipPath id="clip812">
    <rect x="210" y="105" width="1543" height="640"></rect>
  </clipPath>
</defs>
<polyline clip-path="url(#clip812)" style="stroke:#000000; stroke-linecap:round; stroke-linejoin:round; stroke-width:2; stroke-opacity:0.1; fill:none" points="376.044,744.416 376.044,105.328 "></polyline>
<polyline clip-path="url(#clip812)" style="stroke:#000000; stroke-linecap:round; stroke-linejoin:round; stroke-width:2; stroke-opacity:0.1; fill:none" points="618.265,744.416 618.265,105.328 "></polyline>
<polyline clip-path="url(#clip812)" style="stroke:#000000; stroke-linecap:round; stroke-linejoin:round; stroke-width:2; stroke-opacity:0.1; fill:none" points="860.486,744.416 860.486,105.328 "></polyline>
<polyline clip-path="url(#clip812)" style="stroke:#000000; stroke-linecap:round; stroke-linejoin:round; stroke-width:2; stroke-opacity:0.1; fill:none" points="1102.71,744.416 1102.71,105.328 "></polyline>
<polyline clip-path="url(#clip812)" style="stroke:#000000; stroke-linecap:round; stroke-linejoin:round; stroke-width:2; stroke-opacity:0.1; fill:none" points="1344.93,744.416 1344.93,105.328 "></polyline>
<polyline clip-path="url(#clip812)" style="stroke:#000000; stroke-linecap:round; stroke-linejoin:round; stroke-width:2; stroke-opacity:0.1; fill:none" points="1587.15,744.416 1587.15,105.328 "></polyline>
<polyline clip-path="url(#clip812)" style="stroke:#000000; stroke-linecap:round; stroke-linejoin:round; stroke-width:2; stroke-opacity:0.1; fill:none" points="210.436,744.416 1752.76,744.416 "></polyline>
<polyline clip-path="url(#clip812)" style="stroke:#000000; stroke-linecap:round; stroke-linejoin:round; stroke-width:2; stroke-opacity:0.1; fill:none" points="210.436,635.237 1752.76,635.237 "></polyline>
<polyline clip-path="url(#clip812)" style="stroke:#000000; stroke-linecap:round; stroke-linejoin:round; stroke-width:2; stroke-opacity:0.1; fill:none" points="210.436,526.059 1752.76,526.059 "></polyline>
<polyline clip-path="url(#clip812)" style="stroke:#000000; stroke-linecap:round; stroke-linejoin:round; stroke-width:2; stroke-opacity:0.1; fill:none" points="210.436,416.88 1752.76,416.88 "></polyline>
<polyline clip-path="url(#clip812)" style="stroke:#000000; stroke-linecap:round; stroke-linejoin:round; stroke-width:2; stroke-opacity:0.1; fill:none" points="210.436,307.701 1752.76,307.701 "></polyline>
<polyline clip-path="url(#clip812)" style="stroke:#000000; stroke-linecap:round; stroke-linejoin:round; stroke-width:2; stroke-opacity:0.1; fill:none" points="210.436,198.523 1752.76,198.523 "></polyline>
<polyline clip-path="url(#clip810)" style="stroke:#000000; stroke-linecap:round; stroke-linejoin:round; stroke-width:4; stroke-opacity:1; fill:none" points="210.436,744.416 1752.76,744.416 "></polyline>
<polyline clip-path="url(#clip810)" style="stroke:#000000; stroke-linecap:round; stroke-linejoin:round; stroke-width:4; stroke-opacity:1; fill:none" points="376.044,744.416 376.044,725.518 "></polyline>
<polyline clip-path="url(#clip810)" style="stroke:#000000; stroke-linecap:round; stroke-linejoin:round; stroke-width:4; stroke-opacity:1; fill:none" points="618.265,744.416 618.265,725.518 "></polyline>
<polyline clip-path="url(#clip810)" style="stroke:#000000; stroke-linecap:round; stroke-linejoin:round; stroke-width:4; stroke-opacity:1; fill:none" points="860.486,744.416 860.486,725.518 "></polyline>
<polyline clip-path="url(#clip810)" style="stroke:#000000; stroke-linecap:round; stroke-linejoin:round; stroke-width:4; stroke-opacity:1; fill:none" points="1102.71,744.416 1102.71,725.518 "></polyline>
<polyline clip-path="url(#clip810)" style="stroke:#000000; stroke-linecap:round; stroke-linejoin:round; stroke-width:4; stroke-opacity:1; fill:none" points="1344.93,744.416 1344.93,725.518 "></polyline>
<polyline clip-path="url(#clip810)" style="stroke:#000000; stroke-linecap:round; stroke-linejoin:round; stroke-width:4; stroke-opacity:1; fill:none" points="1587.15,744.416 1587.15,725.518 "></polyline>
<path clip-path="url(#clip810)" d="M320.327 798.081 L327.966 798.081 L327.966 771.715 L319.656 773.382 L319.656 769.123 L327.92 767.456 L332.596 767.456 L332.596 798.081 L340.235 798.081 L340.235 802.016 L320.327 802.016 L320.327 798.081 Z" fill="#000000" fill-rule="nonzero" fill-opacity="1"></path><path clip-path="url(#clip810)" d="M359.679 770.535 Q356.068 770.535 354.239 774.099 Q352.434 777.641 352.434 784.771 Q352.434 791.877 354.239 795.442 Q356.068 798.983 359.679 798.983 Q363.313 798.983 365.119 795.442 Q366.947 791.877 366.947 784.771 Q366.947 777.641 365.119 774.099 Q363.313 770.535 359.679 770.535 M359.679 766.831 Q365.489 766.831 368.545 771.437 Q371.623 776.021 371.623 784.771 Q371.623 793.497 368.545 798.104 Q365.489 802.687 359.679 802.687 Q353.869 802.687 350.79 798.104 Q347.734 793.497 347.734 784.771 Q347.734 776.021 350.79 771.437 Q353.869 766.831 359.679 766.831 Z" fill="#000000" fill-rule="nonzero" fill-opacity="1"></path><path clip-path="url(#clip810)" d="M383.869 798.081 L400.188 798.081 L400.188 802.016 L378.244 802.016 L378.244 798.081 Q380.906 795.326 385.489 790.696 Q390.095 786.044 391.276 784.701 Q393.521 782.178 394.401 780.442 Q395.304 778.683 395.304 776.993 Q395.304 774.238 393.359 772.502 Q391.438 770.766 388.336 770.766 Q386.137 770.766 383.683 771.53 Q381.253 772.294 378.475 773.845 L378.475 769.123 Q381.299 767.988 383.753 767.41 Q386.206 766.831 388.244 766.831 Q393.614 766.831 396.808 769.516 Q400.003 772.201 400.003 776.692 Q400.003 778.822 399.193 780.743 Q398.405 782.641 396.299 785.234 Q395.72 785.905 392.618 789.122 Q389.517 792.317 383.869 798.081 Z" fill="#000000" fill-rule="nonzero" fill-opacity="1"></path><path clip-path="url(#clip810)" d="M422.85 771.53 L411.044 789.979 L422.85 789.979 L422.85 771.53 M421.623 767.456 L427.503 767.456 L427.503 789.979 L432.433 789.979 L432.433 793.868 L427.503 793.868 L427.503 802.016 L422.85 802.016 L422.85 793.868 L407.248 793.868 L407.248 789.354 L421.623 767.456 Z" fill="#000000" fill-rule="nonzero" fill-opacity="1"></path><path clip-path="url(#clip810)" d="M566.923 798.081 L583.242 798.081 L583.242 802.016 L561.298 802.016 L561.298 798.081 Q563.96 795.326 568.543 790.696 Q573.15 786.044 574.33 784.701 Q576.575 782.178 577.455 780.442 Q578.358 778.683 578.358 776.993 Q578.358 774.238 576.413 772.502 Q574.492 770.766 571.39 770.766 Q569.191 770.766 566.738 771.53 Q564.307 772.294 561.529 773.845 L561.529 769.123 Q564.353 767.988 566.807 767.41 Q569.261 766.831 571.298 766.831 Q576.668 766.831 579.862 769.516 Q583.057 772.201 583.057 776.692 Q583.057 778.822 582.247 780.743 Q581.46 782.641 579.353 785.234 Q578.775 785.905 575.673 789.122 Q572.571 792.317 566.923 798.081 Z" fill="#000000" fill-rule="nonzero" fill-opacity="1"></path><path clip-path="url(#clip810)" d="M603.057 770.535 Q599.446 770.535 597.617 774.099 Q595.811 777.641 595.811 784.771 Q595.811 791.877 597.617 795.442 Q599.446 798.983 603.057 798.983 Q606.691 798.983 608.497 795.442 Q610.325 791.877 610.325 784.771 Q610.325 777.641 608.497 774.099 Q606.691 770.535 603.057 770.535 M603.057 766.831 Q608.867 766.831 611.922 771.437 Q615.001 776.021 615.001 784.771 Q615.001 793.497 611.922 798.104 Q608.867 802.687 603.057 802.687 Q597.247 802.687 594.168 798.104 Q591.112 793.497 591.112 784.771 Q591.112 776.021 594.168 771.437 Q597.247 766.831 603.057 766.831 Z" fill="#000000" fill-rule="nonzero" fill-opacity="1"></path><path clip-path="url(#clip810)" d="M636.066 771.53 L624.26 789.979 L636.066 789.979 L636.066 771.53 M634.839 767.456 L640.719 767.456 L640.719 789.979 L645.649 789.979 L645.649 793.868 L640.719 793.868 L640.719 802.016 L636.066 802.016 L636.066 793.868 L620.464 793.868 L620.464 789.354 L634.839 767.456 Z" fill="#000000" fill-rule="nonzero" fill-opacity="1"></path><path clip-path="url(#clip810)" d="M663.381 785.604 Q660.047 785.604 658.126 787.386 Q656.228 789.169 656.228 792.294 Q656.228 795.419 658.126 797.201 Q660.047 798.983 663.381 798.983 Q666.714 798.983 668.635 797.201 Q670.556 795.396 670.556 792.294 Q670.556 789.169 668.635 787.386 Q666.737 785.604 663.381 785.604 M658.705 783.613 Q655.695 782.872 654.006 780.812 Q652.339 778.752 652.339 775.789 Q652.339 771.646 655.279 769.238 Q658.242 766.831 663.381 766.831 Q668.543 766.831 671.482 769.238 Q674.422 771.646 674.422 775.789 Q674.422 778.752 672.732 780.812 Q671.066 782.872 668.08 783.613 Q671.459 784.4 673.334 786.692 Q675.232 788.984 675.232 792.294 Q675.232 797.317 672.154 800.002 Q669.098 802.687 663.381 802.687 Q657.663 802.687 654.584 800.002 Q651.529 797.317 651.529 792.294 Q651.529 788.984 653.427 786.692 Q655.325 784.4 658.705 783.613 M656.992 776.229 Q656.992 778.914 658.658 780.419 Q660.348 781.923 663.381 781.923 Q666.39 781.923 668.08 780.419 Q669.793 778.914 669.793 776.229 Q669.793 773.544 668.08 772.039 Q666.39 770.535 663.381 770.535 Q660.348 770.535 658.658 772.039 Q656.992 773.544 656.992 776.229 Z" fill="#000000" fill-rule="nonzero" fill-opacity="1"></path><path clip-path="url(#clip810)" d="M818.414 771.53 L806.609 789.979 L818.414 789.979 L818.414 771.53 M817.187 767.456 L823.067 767.456 L823.067 789.979 L827.997 789.979 L827.997 793.868 L823.067 793.868 L823.067 802.016 L818.414 802.016 L818.414 793.868 L802.812 793.868 L802.812 789.354 L817.187 767.456 Z" fill="#000000" fill-rule="nonzero" fill-opacity="1"></path><path clip-path="url(#clip810)" d="M845.729 770.535 Q842.118 770.535 840.289 774.099 Q838.483 777.641 838.483 784.771 Q838.483 791.877 840.289 795.442 Q842.118 798.983 845.729 798.983 Q849.363 798.983 851.169 795.442 Q852.997 791.877 852.997 784.771 Q852.997 777.641 851.169 774.099 Q849.363 770.535 845.729 770.535 M845.729 766.831 Q851.539 766.831 854.594 771.437 Q857.673 776.021 857.673 784.771 Q857.673 793.497 854.594 798.104 Q851.539 802.687 845.729 802.687 Q839.919 802.687 836.84 798.104 Q833.784 793.497 833.784 784.771 Q833.784 776.021 836.84 771.437 Q839.919 766.831 845.729 766.831 Z" fill="#000000" fill-rule="nonzero" fill-opacity="1"></path><path clip-path="url(#clip810)" d="M866.03 801.298 L866.03 797.039 Q867.789 797.872 869.594 798.312 Q871.4 798.752 873.136 798.752 Q877.766 798.752 880.196 795.65 Q882.65 792.525 882.997 786.183 Q881.654 788.173 879.594 789.238 Q877.534 790.303 875.034 790.303 Q869.849 790.303 866.817 787.178 Q863.807 784.03 863.807 778.59 Q863.807 773.266 866.955 770.048 Q870.104 766.831 875.335 766.831 Q881.33 766.831 884.479 771.437 Q887.65 776.021 887.65 784.771 Q887.65 792.942 883.761 797.826 Q879.895 802.687 873.344 802.687 Q871.585 802.687 869.78 802.34 Q867.974 801.993 866.03 801.298 M875.335 786.646 Q878.483 786.646 880.312 784.493 Q882.164 782.34 882.164 778.59 Q882.164 774.863 880.312 772.71 Q878.483 770.535 875.335 770.535 Q872.187 770.535 870.335 772.71 Q868.506 774.863 868.506 778.59 Q868.506 782.34 870.335 784.493 Q872.187 786.646 875.335 786.646 Z" fill="#000000" fill-rule="nonzero" fill-opacity="1"></path><path clip-path="url(#clip810)" d="M906.631 782.872 Q903.483 782.872 901.631 785.025 Q899.803 787.178 899.803 790.928 Q899.803 794.655 901.631 796.831 Q903.483 798.983 906.631 798.983 Q909.779 798.983 911.608 796.831 Q913.46 794.655 913.46 790.928 Q913.46 787.178 911.608 785.025 Q909.779 782.872 906.631 782.872 M915.914 768.22 L915.914 772.479 Q914.154 771.646 912.349 771.206 Q910.566 770.766 908.807 770.766 Q904.178 770.766 901.724 773.891 Q899.293 777.016 898.946 783.335 Q900.312 781.322 902.372 780.257 Q904.432 779.169 906.909 779.169 Q912.117 779.169 915.127 782.34 Q918.159 785.488 918.159 790.928 Q918.159 796.252 915.011 799.47 Q911.863 802.687 906.631 802.687 Q900.636 802.687 897.465 798.104 Q894.293 793.497 894.293 784.771 Q894.293 776.576 898.182 771.715 Q902.071 766.831 908.622 766.831 Q910.381 766.831 912.164 767.178 Q913.969 767.525 915.914 768.22 Z" fill="#000000" fill-rule="nonzero" fill-opacity="1"></path><path clip-path="url(#clip810)" d="M1058.22 785.604 Q1054.88 785.604 1052.96 787.386 Q1051.06 789.169 1051.06 792.294 Q1051.06 795.419 1052.96 797.201 Q1054.88 798.983 1058.22 798.983 Q1061.55 798.983 1063.47 797.201 Q1065.39 795.396 1065.39 792.294 Q1065.39 789.169 1063.47 787.386 Q1061.57 785.604 1058.22 785.604 M1053.54 783.613 Q1050.53 782.872 1048.84 780.812 Q1047.17 778.752 1047.17 775.789 Q1047.17 771.646 1050.11 769.238 Q1053.08 766.831 1058.22 766.831 Q1063.38 766.831 1066.32 769.238 Q1069.26 771.646 1069.26 775.789 Q1069.26 778.752 1067.57 780.812 Q1065.9 782.872 1062.91 783.613 Q1066.29 784.4 1068.17 786.692 Q1070.07 788.984 1070.07 792.294 Q1070.07 797.317 1066.99 800.002 Q1063.93 802.687 1058.22 802.687 Q1052.5 802.687 1049.42 800.002 Q1046.36 797.317 1046.36 792.294 Q1046.36 788.984 1048.26 786.692 Q1050.16 784.4 1053.54 783.613 M1051.83 776.229 Q1051.83 778.914 1053.49 780.419 Q1055.18 781.923 1058.22 781.923 Q1061.22 781.923 1062.91 780.419 Q1064.63 778.914 1064.63 776.229 Q1064.63 773.544 1062.91 772.039 Q1061.22 770.535 1058.22 770.535 Q1055.18 770.535 1053.49 772.039 Q1051.83 773.544 1051.83 776.229 Z" fill="#000000" fill-rule="nonzero" fill-opacity="1"></path><path clip-path="url(#clip810)" d="M1079.19 798.081 L1086.83 798.081 L1086.83 771.715 L1078.52 773.382 L1078.52 769.123 L1086.78 767.456 L1091.46 767.456 L1091.46 798.081 L1099.1 798.081 L1099.1 802.016 L1079.19 802.016 L1079.19 798.081 Z" fill="#000000" fill-rule="nonzero" fill-opacity="1"></path><path clip-path="url(#clip810)" d="M1108.68 801.298 L1108.68 797.039 Q1110.44 797.872 1112.24 798.312 Q1114.05 798.752 1115.78 798.752 Q1120.41 798.752 1122.84 795.65 Q1125.3 792.525 1125.65 786.183 Q1124.3 788.173 1122.24 789.238 Q1120.18 790.303 1117.68 790.303 Q1112.5 790.303 1109.47 787.178 Q1106.46 784.03 1106.46 778.59 Q1106.46 773.266 1109.6 770.048 Q1112.75 766.831 1117.98 766.831 Q1123.98 766.831 1127.13 771.437 Q1130.3 776.021 1130.3 784.771 Q1130.3 792.942 1126.41 797.826 Q1122.54 802.687 1115.99 802.687 Q1114.23 802.687 1112.43 802.34 Q1110.62 801.993 1108.68 801.298 M1117.98 786.646 Q1121.13 786.646 1122.96 784.493 Q1124.81 782.34 1124.81 778.59 Q1124.81 774.863 1122.96 772.71 Q1121.13 770.535 1117.98 770.535 Q1114.84 770.535 1112.98 772.71 Q1111.16 774.863 1111.16 778.59 Q1111.16 782.34 1112.98 784.493 Q1114.84 786.646 1117.98 786.646 Z" fill="#000000" fill-rule="nonzero" fill-opacity="1"></path><path clip-path="url(#clip810)" d="M1142.73 798.081 L1159.05 798.081 L1159.05 802.016 L1137.1 802.016 L1137.1 798.081 Q1139.77 795.326 1144.35 790.696 Q1148.96 786.044 1150.14 784.701 Q1152.38 782.178 1153.26 780.442 Q1154.16 778.683 1154.16 776.993 Q1154.16 774.238 1152.22 772.502 Q1150.3 770.766 1147.2 770.766 Q1145 770.766 1142.54 771.53 Q1140.11 772.294 1137.34 773.845 L1137.34 769.123 Q1140.16 767.988 1142.61 767.41 Q1145.07 766.831 1147.1 766.831 Q1152.47 766.831 1155.67 769.516 Q1158.86 772.201 1158.86 776.692 Q1158.86 778.822 1158.05 780.743 Q1157.27 782.641 1155.16 785.234 Q1154.58 785.905 1151.48 789.122 Q1148.38 792.317 1142.73 798.081 Z" fill="#000000" fill-rule="nonzero" fill-opacity="1"></path><path clip-path="url(#clip810)" d="M1274.13 798.081 L1281.77 798.081 L1281.77 771.715 L1273.46 773.382 L1273.46 769.123 L1281.72 767.456 L1286.4 767.456 L1286.4 798.081 L1294.04 798.081 L1294.04 802.016 L1274.13 802.016 L1274.13 798.081 Z" fill="#000000" fill-rule="nonzero" fill-opacity="1"></path><path clip-path="url(#clip810)" d="M1314.06 782.872 Q1310.91 782.872 1309.06 785.025 Q1307.23 787.178 1307.23 790.928 Q1307.23 794.655 1309.06 796.831 Q1310.91 798.983 1314.06 798.983 Q1317.21 798.983 1319.04 796.831 Q1320.89 794.655 1320.89 790.928 Q1320.89 787.178 1319.04 785.025 Q1317.21 782.872 1314.06 782.872 M1323.34 768.22 L1323.34 772.479 Q1321.58 771.646 1319.78 771.206 Q1317.99 770.766 1316.23 770.766 Q1311.61 770.766 1309.15 773.891 Q1306.72 777.016 1306.37 783.335 Q1307.74 781.322 1309.8 780.257 Q1311.86 779.169 1314.34 779.169 Q1319.54 779.169 1322.55 782.34 Q1325.59 785.488 1325.59 790.928 Q1325.59 796.252 1322.44 799.47 Q1319.29 802.687 1314.06 802.687 Q1308.06 802.687 1304.89 798.104 Q1301.72 793.497 1301.72 784.771 Q1301.72 776.576 1305.61 771.715 Q1309.5 766.831 1316.05 766.831 Q1317.81 766.831 1319.59 767.178 Q1321.4 767.525 1323.34 768.22 Z" fill="#000000" fill-rule="nonzero" fill-opacity="1"></path><path clip-path="url(#clip810)" d="M1347.81 783.382 Q1351.17 784.099 1353.04 786.368 Q1354.94 788.636 1354.94 791.97 Q1354.94 797.085 1351.42 799.886 Q1347.9 802.687 1341.42 802.687 Q1339.24 802.687 1336.93 802.247 Q1334.64 801.831 1332.18 800.974 L1332.18 796.46 Q1334.13 797.595 1336.44 798.173 Q1338.76 798.752 1341.28 798.752 Q1345.68 798.752 1347.97 797.016 Q1350.29 795.28 1350.29 791.97 Q1350.29 788.914 1348.13 787.201 Q1346 785.465 1342.18 785.465 L1338.16 785.465 L1338.16 781.622 L1342.37 781.622 Q1345.82 781.622 1347.65 780.257 Q1349.48 778.868 1349.48 776.275 Q1349.48 773.613 1347.58 772.201 Q1345.7 770.766 1342.18 770.766 Q1340.26 770.766 1338.06 771.183 Q1335.86 771.599 1333.23 772.479 L1333.23 768.312 Q1335.89 767.572 1338.2 767.201 Q1340.54 766.831 1342.6 766.831 Q1347.92 766.831 1351.03 769.261 Q1354.13 771.669 1354.13 775.789 Q1354.13 778.66 1352.48 780.65 Q1350.84 782.618 1347.81 783.382 Z" fill="#000000" fill-rule="nonzero" fill-opacity="1"></path><path clip-path="url(#clip810)" d="M1373.8 785.604 Q1370.47 785.604 1368.55 787.386 Q1366.65 789.169 1366.65 792.294 Q1366.65 795.419 1368.55 797.201 Q1370.47 798.983 1373.8 798.983 Q1377.14 798.983 1379.06 797.201 Q1380.98 795.396 1380.98 792.294 Q1380.98 789.169 1379.06 787.386 Q1377.16 785.604 1373.8 785.604 M1369.13 783.613 Q1366.12 782.872 1364.43 780.812 Q1362.76 778.752 1362.76 775.789 Q1362.76 771.646 1365.7 769.238 Q1368.67 766.831 1373.8 766.831 Q1378.97 766.831 1381.91 769.238 Q1384.85 771.646 1384.85 775.789 Q1384.85 778.752 1383.16 780.812 Q1381.49 782.872 1378.5 783.613 Q1381.88 784.4 1383.76 786.692 Q1385.66 788.984 1385.66 792.294 Q1385.66 797.317 1382.58 800.002 Q1379.52 802.687 1373.8 802.687 Q1368.09 802.687 1365.01 800.002 Q1361.95 797.317 1361.95 792.294 Q1361.95 788.984 1363.85 786.692 Q1365.75 784.4 1369.13 783.613 M1367.42 776.229 Q1367.42 778.914 1369.08 780.419 Q1370.77 781.923 1373.8 781.923 Q1376.81 781.923 1378.5 780.419 Q1380.22 778.914 1380.22 776.229 Q1380.22 773.544 1378.5 772.039 Q1376.81 770.535 1373.8 770.535 Q1370.77 770.535 1369.08 772.039 Q1367.42 773.544 1367.42 776.229 Z" fill="#000000" fill-rule="nonzero" fill-opacity="1"></path><path clip-path="url(#clip810)" d="M1406.81 771.53 L1395.01 789.979 L1406.81 789.979 L1406.81 771.53 M1405.59 767.456 L1411.47 767.456 L1411.47 789.979 L1416.4 789.979 L1416.4 793.868 L1411.47 793.868 L1411.47 802.016 L1406.81 802.016 L1406.81 793.868 L1391.21 793.868 L1391.21 789.354 L1405.59 767.456 Z" fill="#000000" fill-rule="nonzero" fill-opacity="1"></path><path clip-path="url(#clip810)" d="M1530.79 783.382 Q1534.15 784.099 1536.02 786.368 Q1537.92 788.636 1537.92 791.97 Q1537.92 797.085 1534.4 799.886 Q1530.89 802.687 1524.4 802.687 Q1522.23 802.687 1519.91 802.247 Q1517.62 801.831 1515.17 800.974 L1515.17 796.46 Q1517.11 797.595 1519.43 798.173 Q1521.74 798.752 1524.27 798.752 Q1528.66 798.752 1530.96 797.016 Q1533.27 795.28 1533.27 791.97 Q1533.27 788.914 1531.12 787.201 Q1528.99 785.465 1525.17 785.465 L1521.14 785.465 L1521.14 781.622 L1525.35 781.622 Q1528.8 781.622 1530.63 780.257 Q1532.46 778.868 1532.46 776.275 Q1532.46 773.613 1530.56 772.201 Q1528.69 770.766 1525.17 770.766 Q1523.25 770.766 1521.05 771.183 Q1518.85 771.599 1516.21 772.479 L1516.21 768.312 Q1518.87 767.572 1521.19 767.201 Q1523.52 766.831 1525.59 766.831 Q1530.91 766.831 1534.01 769.261 Q1537.11 771.669 1537.11 775.789 Q1537.11 778.66 1535.47 780.65 Q1533.83 782.618 1530.79 783.382 Z" fill="#000000" fill-rule="nonzero" fill-opacity="1"></path><path clip-path="url(#clip810)" d="M1550.82 798.081 L1567.14 798.081 L1567.14 802.016 L1545.19 802.016 L1545.19 798.081 Q1547.85 795.326 1552.44 790.696 Q1557.04 786.044 1558.22 784.701 Q1560.47 782.178 1561.35 780.442 Q1562.25 778.683 1562.25 776.993 Q1562.25 774.238 1560.31 772.502 Q1558.39 770.766 1555.28 770.766 Q1553.08 770.766 1550.63 771.53 Q1548.2 772.294 1545.42 773.845 L1545.42 769.123 Q1548.25 767.988 1550.7 767.41 Q1553.15 766.831 1555.19 766.831 Q1560.56 766.831 1563.76 769.516 Q1566.95 772.201 1566.95 776.692 Q1566.95 778.822 1566.14 780.743 Q1565.35 782.641 1563.25 785.234 Q1562.67 785.905 1559.57 789.122 Q1556.46 792.317 1550.82 798.081 Z" fill="#000000" fill-rule="nonzero" fill-opacity="1"></path><path clip-path="url(#clip810)" d="M1575.77 767.456 L1597.99 767.456 L1597.99 769.447 L1585.45 802.016 L1580.56 802.016 L1592.37 771.391 L1575.77 771.391 L1575.77 767.456 Z" fill="#000000" fill-rule="nonzero" fill-opacity="1"></path><path clip-path="url(#clip810)" d="M1617.69 782.872 Q1614.54 782.872 1612.69 785.025 Q1610.86 787.178 1610.86 790.928 Q1610.86 794.655 1612.69 796.831 Q1614.54 798.983 1617.69 798.983 Q1620.84 798.983 1622.67 796.831 Q1624.52 794.655 1624.52 790.928 Q1624.52 787.178 1622.67 785.025 Q1620.84 782.872 1617.69 782.872 M1626.97 768.22 L1626.97 772.479 Q1625.21 771.646 1623.41 771.206 Q1621.63 770.766 1619.87 770.766 Q1615.24 770.766 1612.78 773.891 Q1610.35 777.016 1610.01 783.335 Q1611.37 781.322 1613.43 780.257 Q1615.49 779.169 1617.97 779.169 Q1623.18 779.169 1626.19 782.34 Q1629.22 785.488 1629.22 790.928 Q1629.22 796.252 1626.07 799.47 Q1622.92 802.687 1617.69 802.687 Q1611.7 802.687 1608.52 798.104 Q1605.35 793.497 1605.35 784.771 Q1605.35 776.576 1609.24 771.715 Q1613.13 766.831 1619.68 766.831 Q1621.44 766.831 1623.22 767.178 Q1625.03 767.525 1626.97 768.22 Z" fill="#000000" fill-rule="nonzero" fill-opacity="1"></path><path clip-path="url(#clip810)" d="M1647.27 785.604 Q1643.94 785.604 1642.02 787.386 Q1640.12 789.169 1640.12 792.294 Q1640.12 795.419 1642.02 797.201 Q1643.94 798.983 1647.27 798.983 Q1650.61 798.983 1652.53 797.201 Q1654.45 795.396 1654.45 792.294 Q1654.45 789.169 1652.53 787.386 Q1650.63 785.604 1647.27 785.604 M1642.6 783.613 Q1639.59 782.872 1637.9 780.812 Q1636.23 778.752 1636.23 775.789 Q1636.23 771.646 1639.17 769.238 Q1642.14 766.831 1647.27 766.831 Q1652.44 766.831 1655.38 769.238 Q1658.32 771.646 1658.32 775.789 Q1658.32 778.752 1656.63 780.812 Q1654.96 782.872 1651.97 783.613 Q1655.35 784.4 1657.23 786.692 Q1659.13 788.984 1659.13 792.294 Q1659.13 797.317 1656.05 800.002 Q1652.99 802.687 1647.27 802.687 Q1641.56 802.687 1638.48 800.002 Q1635.42 797.317 1635.42 792.294 Q1635.42 788.984 1637.32 786.692 Q1639.22 784.4 1642.6 783.613 M1640.89 776.229 Q1640.89 778.914 1642.55 780.419 Q1644.24 781.923 1647.27 781.923 Q1650.28 781.923 1651.97 780.419 Q1653.69 778.914 1653.69 776.229 Q1653.69 773.544 1651.97 772.039 Q1650.28 770.535 1647.27 770.535 Q1644.24 770.535 1642.55 772.039 Q1640.89 773.544 1640.89 776.229 Z" fill="#000000" fill-rule="nonzero" fill-opacity="1"></path><polyline clip-path="url(#clip810)" style="stroke:#000000; stroke-linecap:round; stroke-linejoin:round; stroke-width:4; stroke-opacity:1; fill:none" points="210.436,744.416 210.436,105.328 "></polyline>
<polyline clip-path="url(#clip810)" style="stroke:#000000; stroke-linecap:round; stroke-linejoin:round; stroke-width:4; stroke-opacity:1; fill:none" points="210.436,744.416 229.334,744.416 "></polyline>
<polyline clip-path="url(#clip810)" style="stroke:#000000; stroke-linecap:round; stroke-linejoin:round; stroke-width:4; stroke-opacity:1; fill:none" points="210.436,635.237 229.334,635.237 "></polyline>
<polyline clip-path="url(#clip810)" style="stroke:#000000; stroke-linecap:round; stroke-linejoin:round; stroke-width:4; stroke-opacity:1; fill:none" points="210.436,526.059 229.334,526.059 "></polyline>
<polyline clip-path="url(#clip810)" style="stroke:#000000; stroke-linecap:round; stroke-linejoin:round; stroke-width:4; stroke-opacity:1; fill:none" points="210.436,416.88 229.334,416.88 "></polyline>
<polyline clip-path="url(#clip810)" style="stroke:#000000; stroke-linecap:round; stroke-linejoin:round; stroke-width:4; stroke-opacity:1; fill:none" points="210.436,307.701 229.334,307.701 "></polyline>
<polyline clip-path="url(#clip810)" style="stroke:#000000; stroke-linecap:round; stroke-linejoin:round; stroke-width:4; stroke-opacity:1; fill:none" points="210.436,198.523 229.334,198.523 "></polyline>
<path clip-path="url(#clip810)" d="M65.9365 730.215 Q62.3254 730.215 60.4967 733.779 Q58.6912 737.321 58.6912 744.451 Q58.6912 751.557 60.4967 755.122 Q62.3254 758.663 65.9365 758.663 Q69.5707 758.663 71.3763 755.122 Q73.205 751.557 73.205 744.451 Q73.205 737.321 71.3763 733.779 Q69.5707 730.215 65.9365 730.215 M65.9365 726.511 Q71.7467 726.511 74.8022 731.117 Q77.8809 735.701 77.8809 744.451 Q77.8809 753.177 74.8022 757.784 Q71.7467 762.367 65.9365 762.367 Q60.1264 762.367 57.0477 757.784 Q53.9921 753.177 53.9921 744.451 Q53.9921 735.701 57.0477 731.117 Q60.1264 726.511 65.9365 726.511 Z" fill="#000000" fill-rule="nonzero" fill-opacity="1"></path><path clip-path="url(#clip810)" d="M86.0984 755.816 L90.9827 755.816 L90.9827 761.696 L86.0984 761.696 L86.0984 755.816 Z" fill="#000000" fill-rule="nonzero" fill-opacity="1"></path><path clip-path="url(#clip810)" d="M111.168 730.215 Q107.557 730.215 105.728 733.779 Q103.922 737.321 103.922 744.451 Q103.922 751.557 105.728 755.122 Q107.557 758.663 111.168 758.663 Q114.802 758.663 116.608 755.122 Q118.436 751.557 118.436 744.451 Q118.436 737.321 116.608 733.779 Q114.802 730.215 111.168 730.215 M111.168 726.511 Q116.978 726.511 120.033 731.117 Q123.112 735.701 123.112 744.451 Q123.112 753.177 120.033 757.784 Q116.978 762.367 111.168 762.367 Q105.358 762.367 102.279 757.784 Q99.2234 753.177 99.2234 744.451 Q99.2234 735.701 102.279 731.117 Q105.358 726.511 111.168 726.511 Z" fill="#000000" fill-rule="nonzero" fill-opacity="1"></path><path clip-path="url(#clip810)" d="M141.33 730.215 Q137.719 730.215 135.89 733.779 Q134.084 737.321 134.084 744.451 Q134.084 751.557 135.89 755.122 Q137.719 758.663 141.33 758.663 Q144.964 758.663 146.769 755.122 Q148.598 751.557 148.598 744.451 Q148.598 737.321 146.769 733.779 Q144.964 730.215 141.33 730.215 M141.33 726.511 Q147.14 726.511 150.195 731.117 Q153.274 735.701 153.274 744.451 Q153.274 753.177 150.195 757.784 Q147.14 762.367 141.33 762.367 Q135.519 762.367 132.441 757.784 Q129.385 753.177 129.385 744.451 Q129.385 735.701 132.441 731.117 Q135.519 726.511 141.33 726.511 Z" fill="#000000" fill-rule="nonzero" fill-opacity="1"></path><path clip-path="url(#clip810)" d="M171.491 730.215 Q167.88 730.215 166.052 733.779 Q164.246 737.321 164.246 744.451 Q164.246 751.557 166.052 755.122 Q167.88 758.663 171.491 758.663 Q175.126 758.663 176.931 755.122 Q178.76 751.557 178.76 744.451 Q178.76 737.321 176.931 733.779 Q175.126 730.215 171.491 730.215 M171.491 726.511 Q177.302 726.511 180.357 731.117 Q183.436 735.701 183.436 744.451 Q183.436 753.177 180.357 757.784 Q177.302 762.367 171.491 762.367 Q165.681 762.367 162.603 757.784 Q159.547 753.177 159.547 744.451 Q159.547 735.701 162.603 731.117 Q165.681 726.511 171.491 726.511 Z" fill="#000000" fill-rule="nonzero" fill-opacity="1"></path><path clip-path="url(#clip810)" d="M66.9319 621.036 Q63.3208 621.036 61.4921 624.601 Q59.6865 628.142 59.6865 635.272 Q59.6865 642.378 61.4921 645.943 Q63.3208 649.485 66.9319 649.485 Q70.5661 649.485 72.3717 645.943 Q74.2004 642.378 74.2004 635.272 Q74.2004 628.142 72.3717 624.601 Q70.5661 621.036 66.9319 621.036 M66.9319 617.332 Q72.742 617.332 75.7976 621.939 Q78.8763 626.522 78.8763 635.272 Q78.8763 643.999 75.7976 648.605 Q72.742 653.189 66.9319 653.189 Q61.1217 653.189 58.043 648.605 Q54.9875 643.999 54.9875 635.272 Q54.9875 626.522 58.043 621.939 Q61.1217 617.332 66.9319 617.332 Z" fill="#000000" fill-rule="nonzero" fill-opacity="1"></path><path clip-path="url(#clip810)" d="M87.0938 646.638 L91.978 646.638 L91.978 652.517 L87.0938 652.517 L87.0938 646.638 Z" fill="#000000" fill-rule="nonzero" fill-opacity="1"></path><path clip-path="url(#clip810)" d="M112.163 621.036 Q108.552 621.036 106.723 624.601 Q104.918 628.142 104.918 635.272 Q104.918 642.378 106.723 645.943 Q108.552 649.485 112.163 649.485 Q115.797 649.485 117.603 645.943 Q119.432 642.378 119.432 635.272 Q119.432 628.142 117.603 624.601 Q115.797 621.036 112.163 621.036 M112.163 617.332 Q117.973 617.332 121.029 621.939 Q124.107 626.522 124.107 635.272 Q124.107 643.999 121.029 648.605 Q117.973 653.189 112.163 653.189 Q106.353 653.189 103.274 648.605 Q100.219 643.999 100.219 635.272 Q100.219 626.522 103.274 621.939 Q106.353 617.332 112.163 617.332 Z" fill="#000000" fill-rule="nonzero" fill-opacity="1"></path><path clip-path="url(#clip810)" d="M136.353 648.582 L152.672 648.582 L152.672 652.517 L130.728 652.517 L130.728 648.582 Q133.39 645.828 137.973 641.198 Q142.58 636.545 143.76 635.203 Q146.006 632.679 146.885 630.943 Q147.788 629.184 147.788 627.494 Q147.788 624.74 145.843 623.004 Q143.922 621.267 140.82 621.267 Q138.621 621.267 136.168 622.031 Q133.737 622.795 130.959 624.346 L130.959 619.624 Q133.783 618.49 136.237 617.911 Q138.691 617.332 140.728 617.332 Q146.098 617.332 149.293 620.017 Q152.487 622.703 152.487 627.193 Q152.487 629.323 151.677 631.244 Q150.89 633.142 148.783 635.735 Q148.205 636.406 145.103 639.624 Q142.001 642.818 136.353 648.582 Z" fill="#000000" fill-rule="nonzero" fill-opacity="1"></path><path clip-path="url(#clip810)" d="M162.533 617.957 L180.89 617.957 L180.89 621.892 L166.816 621.892 L166.816 630.365 Q167.834 630.017 168.853 629.855 Q169.871 629.67 170.89 629.67 Q176.677 629.67 180.056 632.841 Q183.436 636.013 183.436 641.429 Q183.436 647.008 179.964 650.11 Q176.491 653.189 170.172 653.189 Q167.996 653.189 165.728 652.818 Q163.482 652.448 161.075 651.707 L161.075 647.008 Q163.158 648.142 165.38 648.698 Q167.603 649.253 170.079 649.253 Q174.084 649.253 176.422 647.147 Q178.76 645.04 178.76 641.429 Q178.76 637.818 176.422 635.712 Q174.084 633.605 170.079 633.605 Q168.204 633.605 166.329 634.022 Q164.478 634.439 162.533 635.318 L162.533 617.957 Z" fill="#000000" fill-rule="nonzero" fill-opacity="1"></path><path clip-path="url(#clip810)" d="M65.9365 511.857 Q62.3254 511.857 60.4967 515.422 Q58.6912 518.964 58.6912 526.093 Q58.6912 533.2 60.4967 536.765 Q62.3254 540.306 65.9365 540.306 Q69.5707 540.306 71.3763 536.765 Q73.205 533.2 73.205 526.093 Q73.205 518.964 71.3763 515.422 Q69.5707 511.857 65.9365 511.857 M65.9365 508.154 Q71.7467 508.154 74.8022 512.76 Q77.8809 517.343 77.8809 526.093 Q77.8809 534.82 74.8022 539.427 Q71.7467 544.01 65.9365 544.01 Q60.1264 544.01 57.0477 539.427 Q53.9921 534.82 53.9921 526.093 Q53.9921 517.343 57.0477 512.76 Q60.1264 508.154 65.9365 508.154 Z" fill="#000000" fill-rule="nonzero" fill-opacity="1"></path><path clip-path="url(#clip810)" d="M86.0984 537.459 L90.9827 537.459 L90.9827 543.339 L86.0984 543.339 L86.0984 537.459 Z" fill="#000000" fill-rule="nonzero" fill-opacity="1"></path><path clip-path="url(#clip810)" d="M111.168 511.857 Q107.557 511.857 105.728 515.422 Q103.922 518.964 103.922 526.093 Q103.922 533.2 105.728 536.765 Q107.557 540.306 111.168 540.306 Q114.802 540.306 116.608 536.765 Q118.436 533.2 118.436 526.093 Q118.436 518.964 116.608 515.422 Q114.802 511.857 111.168 511.857 M111.168 508.154 Q116.978 508.154 120.033 512.76 Q123.112 517.343 123.112 526.093 Q123.112 534.82 120.033 539.427 Q116.978 544.01 111.168 544.01 Q105.358 544.01 102.279 539.427 Q99.2234 534.82 99.2234 526.093 Q99.2234 517.343 102.279 512.76 Q105.358 508.154 111.168 508.154 Z" fill="#000000" fill-rule="nonzero" fill-opacity="1"></path><path clip-path="url(#clip810)" d="M131.376 508.779 L149.732 508.779 L149.732 512.714 L135.658 512.714 L135.658 521.186 Q136.677 520.839 137.695 520.677 Q138.714 520.492 139.732 520.492 Q145.519 520.492 148.899 523.663 Q152.279 526.834 152.279 532.251 Q152.279 537.829 148.806 540.931 Q145.334 544.01 139.015 544.01 Q136.839 544.01 134.57 543.64 Q132.325 543.269 129.918 542.529 L129.918 537.829 Q132.001 538.964 134.223 539.519 Q136.445 540.075 138.922 540.075 Q142.927 540.075 145.265 537.968 Q147.603 535.862 147.603 532.251 Q147.603 528.64 145.265 526.533 Q142.927 524.427 138.922 524.427 Q137.047 524.427 135.172 524.843 Q133.32 525.26 131.376 526.14 L131.376 508.779 Z" fill="#000000" fill-rule="nonzero" fill-opacity="1"></path><path clip-path="url(#clip810)" d="M171.491 511.857 Q167.88 511.857 166.052 515.422 Q164.246 518.964 164.246 526.093 Q164.246 533.2 166.052 536.765 Q167.88 540.306 171.491 540.306 Q175.126 540.306 176.931 536.765 Q178.76 533.2 178.76 526.093 Q178.76 518.964 176.931 515.422 Q175.126 511.857 171.491 511.857 M171.491 508.154 Q177.302 508.154 180.357 512.76 Q183.436 517.343 183.436 526.093 Q183.436 534.82 180.357 539.427 Q177.302 544.01 171.491 544.01 Q165.681 544.01 162.603 539.427 Q159.547 534.82 159.547 526.093 Q159.547 517.343 162.603 512.76 Q165.681 508.154 171.491 508.154 Z" fill="#000000" fill-rule="nonzero" fill-opacity="1"></path><path clip-path="url(#clip810)" d="M66.9319 402.679 Q63.3208 402.679 61.4921 406.244 Q59.6865 409.785 59.6865 416.915 Q59.6865 424.021 61.4921 427.586 Q63.3208 431.128 66.9319 431.128 Q70.5661 431.128 72.3717 427.586 Q74.2004 424.021 74.2004 416.915 Q74.2004 409.785 72.3717 406.244 Q70.5661 402.679 66.9319 402.679 M66.9319 398.975 Q72.742 398.975 75.7976 403.582 Q78.8763 408.165 78.8763 416.915 Q78.8763 425.642 75.7976 430.248 Q72.742 434.831 66.9319 434.831 Q61.1217 434.831 58.043 430.248 Q54.9875 425.642 54.9875 416.915 Q54.9875 408.165 58.043 403.582 Q61.1217 398.975 66.9319 398.975 Z" fill="#000000" fill-rule="nonzero" fill-opacity="1"></path><path clip-path="url(#clip810)" d="M87.0938 428.28 L91.978 428.28 L91.978 434.16 L87.0938 434.16 L87.0938 428.28 Z" fill="#000000" fill-rule="nonzero" fill-opacity="1"></path><path clip-path="url(#clip810)" d="M112.163 402.679 Q108.552 402.679 106.723 406.244 Q104.918 409.785 104.918 416.915 Q104.918 424.021 106.723 427.586 Q108.552 431.128 112.163 431.128 Q115.797 431.128 117.603 427.586 Q119.432 424.021 119.432 416.915 Q119.432 409.785 117.603 406.244 Q115.797 402.679 112.163 402.679 M112.163 398.975 Q117.973 398.975 121.029 403.582 Q124.107 408.165 124.107 416.915 Q124.107 425.642 121.029 430.248 Q117.973 434.831 112.163 434.831 Q106.353 434.831 103.274 430.248 Q100.219 425.642 100.219 416.915 Q100.219 408.165 103.274 403.582 Q106.353 398.975 112.163 398.975 Z" fill="#000000" fill-rule="nonzero" fill-opacity="1"></path><path clip-path="url(#clip810)" d="M131.144 399.6 L153.367 399.6 L153.367 401.591 L140.82 434.16 L135.936 434.16 L147.742 403.535 L131.144 403.535 L131.144 399.6 Z" fill="#000000" fill-rule="nonzero" fill-opacity="1"></path><path clip-path="url(#clip810)" d="M162.533 399.6 L180.89 399.6 L180.89 403.535 L166.816 403.535 L166.816 412.007 Q167.834 411.66 168.853 411.498 Q169.871 411.313 170.89 411.313 Q176.677 411.313 180.056 414.484 Q183.436 417.656 183.436 423.072 Q183.436 428.651 179.964 431.753 Q176.491 434.831 170.172 434.831 Q167.996 434.831 165.728 434.461 Q163.482 434.091 161.075 433.35 L161.075 428.651 Q163.158 429.785 165.38 430.341 Q167.603 430.896 170.079 430.896 Q174.084 430.896 176.422 428.79 Q178.76 426.683 178.76 423.072 Q178.76 419.461 176.422 417.355 Q174.084 415.248 170.079 415.248 Q168.204 415.248 166.329 415.665 Q164.478 416.081 162.533 416.961 L162.533 399.6 Z" fill="#000000" fill-rule="nonzero" fill-opacity="1"></path><path clip-path="url(#clip810)" d="M65.9365 293.5 Q62.3254 293.5 60.4967 297.065 Q58.6912 300.607 58.6912 307.736 Q58.6912 314.843 60.4967 318.407 Q62.3254 321.949 65.9365 321.949 Q69.5707 321.949 71.3763 318.407 Q73.205 314.843 73.205 307.736 Q73.205 300.607 71.3763 297.065 Q69.5707 293.5 65.9365 293.5 M65.9365 289.796 Q71.7467 289.796 74.8022 294.403 Q77.8809 298.986 77.8809 307.736 Q77.8809 316.463 74.8022 321.069 Q71.7467 325.653 65.9365 325.653 Q60.1264 325.653 57.0477 321.069 Q53.9921 316.463 53.9921 307.736 Q53.9921 298.986 57.0477 294.403 Q60.1264 289.796 65.9365 289.796 Z" fill="#000000" fill-rule="nonzero" fill-opacity="1"></path><path clip-path="url(#clip810)" d="M86.0984 319.102 L90.9827 319.102 L90.9827 324.981 L86.0984 324.981 L86.0984 319.102 Z" fill="#000000" fill-rule="nonzero" fill-opacity="1"></path><path clip-path="url(#clip810)" d="M101.978 321.046 L109.617 321.046 L109.617 294.681 L101.307 296.347 L101.307 292.088 L109.571 290.421 L114.246 290.421 L114.246 321.046 L121.885 321.046 L121.885 324.981 L101.978 324.981 L101.978 321.046 Z" fill="#000000" fill-rule="nonzero" fill-opacity="1"></path><path clip-path="url(#clip810)" d="M141.33 293.5 Q137.719 293.5 135.89 297.065 Q134.084 300.607 134.084 307.736 Q134.084 314.843 135.89 318.407 Q137.719 321.949 141.33 321.949 Q144.964 321.949 146.769 318.407 Q148.598 314.843 148.598 307.736 Q148.598 300.607 146.769 297.065 Q144.964 293.5 141.33 293.5 M141.33 289.796 Q147.14 289.796 150.195 294.403 Q153.274 298.986 153.274 307.736 Q153.274 316.463 150.195 321.069 Q147.14 325.653 141.33 325.653 Q135.519 325.653 132.441 321.069 Q129.385 316.463 129.385 307.736 Q129.385 298.986 132.441 294.403 Q135.519 289.796 141.33 289.796 Z" fill="#000000" fill-rule="nonzero" fill-opacity="1"></path><path clip-path="url(#clip810)" d="M171.491 293.5 Q167.88 293.5 166.052 297.065 Q164.246 300.607 164.246 307.736 Q164.246 314.843 166.052 318.407 Q167.88 321.949 171.491 321.949 Q175.126 321.949 176.931 318.407 Q178.76 314.843 178.76 307.736 Q178.76 300.607 176.931 297.065 Q175.126 293.5 171.491 293.5 M171.491 289.796 Q177.302 289.796 180.357 294.403 Q183.436 298.986 183.436 307.736 Q183.436 316.463 180.357 321.069 Q177.302 325.653 171.491 325.653 Q165.681 325.653 162.603 321.069 Q159.547 316.463 159.547 307.736 Q159.547 298.986 162.603 294.403 Q165.681 289.796 171.491 289.796 Z" fill="#000000" fill-rule="nonzero" fill-opacity="1"></path><path clip-path="url(#clip810)" d="M66.9319 184.322 Q63.3208 184.322 61.4921 187.886 Q59.6865 191.428 59.6865 198.558 Q59.6865 205.664 61.4921 209.229 Q63.3208 212.771 66.9319 212.771 Q70.5661 212.771 72.3717 209.229 Q74.2004 205.664 74.2004 198.558 Q74.2004 191.428 72.3717 187.886 Q70.5661 184.322 66.9319 184.322 M66.9319 180.618 Q72.742 180.618 75.7976 185.224 Q78.8763 189.808 78.8763 198.558 Q78.8763 207.284 75.7976 211.891 Q72.742 216.474 66.9319 216.474 Q61.1217 216.474 58.043 211.891 Q54.9875 207.284 54.9875 198.558 Q54.9875 189.808 58.043 185.224 Q61.1217 180.618 66.9319 180.618 Z" fill="#000000" fill-rule="nonzero" fill-opacity="1"></path><path clip-path="url(#clip810)" d="M87.0938 209.923 L91.978 209.923 L91.978 215.803 L87.0938 215.803 L87.0938 209.923 Z" fill="#000000" fill-rule="nonzero" fill-opacity="1"></path><path clip-path="url(#clip810)" d="M102.973 211.868 L110.612 211.868 L110.612 185.502 L102.302 187.169 L102.302 182.91 L110.566 181.243 L115.242 181.243 L115.242 211.868 L122.881 211.868 L122.881 215.803 L102.973 215.803 L102.973 211.868 Z" fill="#000000" fill-rule="nonzero" fill-opacity="1"></path><path clip-path="url(#clip810)" d="M136.353 211.868 L152.672 211.868 L152.672 215.803 L130.728 215.803 L130.728 211.868 Q133.39 209.113 137.973 204.484 Q142.58 199.831 143.76 198.488 Q146.006 195.965 146.885 194.229 Q147.788 192.47 147.788 190.78 Q147.788 188.025 145.843 186.289 Q143.922 184.553 140.82 184.553 Q138.621 184.553 136.168 185.317 Q133.737 186.081 130.959 187.632 L130.959 182.91 Q133.783 181.775 136.237 181.197 Q138.691 180.618 140.728 180.618 Q146.098 180.618 149.293 183.303 Q152.487 185.988 152.487 190.479 Q152.487 192.609 151.677 194.53 Q150.89 196.428 148.783 199.021 Q148.205 199.692 145.103 202.909 Q142.001 206.104 136.353 211.868 Z" fill="#000000" fill-rule="nonzero" fill-opacity="1"></path><path clip-path="url(#clip810)" d="M162.533 181.243 L180.89 181.243 L180.89 185.178 L166.816 185.178 L166.816 193.65 Q167.834 193.303 168.853 193.141 Q169.871 192.956 170.89 192.956 Q176.677 192.956 180.056 196.127 Q183.436 199.298 183.436 204.715 Q183.436 210.294 179.964 213.396 Q176.491 216.474 170.172 216.474 Q167.996 216.474 165.728 216.104 Q163.482 215.733 161.075 214.993 L161.075 210.294 Q163.158 211.428 165.38 211.983 Q167.603 212.539 170.079 212.539 Q174.084 212.539 176.422 210.433 Q178.76 208.326 178.76 204.715 Q178.76 201.104 176.422 198.997 Q174.084 196.891 170.079 196.891 Q168.204 196.891 166.329 197.308 Q164.478 197.724 162.533 198.604 L162.533 181.243 Z" fill="#000000" fill-rule="nonzero" fill-opacity="1"></path><path clip-path="url(#clip810)" d="M704.483 41.3256 Q704.483 43.662 703.049 45.0556 Q701.655 46.4492 699.892 46.4492 Q698.335 46.4492 697.515 45.5475 Q696.695 44.6457 696.695 43.498 Q696.695 43.0061 696.9 42.3913 Q697.105 41.7355 697.556 40.9567 Q698.048 40.1779 699.073 39.604 Q700.097 39.0302 701.491 38.9482 Q701.204 38.6613 701.122 38.6203 Q700.507 38.1284 699.36 37.9644 Q699.196 37.8825 698.622 37.8825 Q695.794 37.8825 692.924 39.9729 Q690.096 42.0224 686.612 45.9164 Q682.226 50.4662 679.398 52.1467 Q691.818 53.7863 691.818 60.9594 Q691.818 62.1481 691.49 63.5827 Q690.834 66.288 690.834 68.2555 Q690.834 72.1905 693.498 72.1905 Q696.08 72.1905 697.72 69.5672 Q699.401 66.9439 700.794 61.8202 Q700.999 60.8775 701.204 60.5905 Q701.409 60.3036 701.983 60.3036 Q703.008 60.3036 703.008 61.1234 Q702.065 65.9191 699.974 69.6082 Q697.31 74.076 693.334 74.076 Q690.014 74.076 687.801 71.7806 Q685.628 69.4442 685.628 65.7552 Q685.628 64.8534 685.956 62.804 Q686.202 61.9842 686.202 61.0414 Q686.202 59.1149 685.136 57.6803 Q684.071 56.2047 682.349 55.4669 Q680.628 54.7291 679.193 54.4011 Q677.799 54.0322 676.447 53.9093 Q672.348 71.2477 671.774 72.3135 Q671.405 73.0513 670.585 73.5431 Q669.765 74.076 668.905 74.076 Q668.085 74.076 667.265 73.5022 Q666.486 72.9693 666.486 71.6986 Q666.486 71.0428 666.814 69.8541 L678.988 21.4868 L679.234 19.8472 Q679.234 19.3553 679.029 19.1094 Q678.865 18.8225 677.881 18.6175 Q676.938 18.4126 675.053 18.4126 Q674.274 18.4126 673.905 18.3716 Q673.577 18.3306 673.29 18.1256 Q673.004 17.8797 673.004 17.3878 Q673.004 16.691 673.29 16.3221 Q673.618 15.9122 673.864 15.8302 Q674.11 15.7483 674.602 15.7073 Q675.299 15.6663 677.635 15.4613 Q679.972 15.2154 681.98 15.0514 Q683.989 14.8875 684.849 14.8875 Q685.341 14.8875 685.587 15.1334 Q685.874 15.3384 685.915 15.5843 L685.956 15.7893 L677.225 51.204 Q680.832 49.7694 686.53 43.416 Q693.129 36.038 698.786 36.038 Q701.45 36.038 702.967 37.6775 Q704.483 39.2761 704.483 41.3256 Z" fill="#000000" fill-rule="nonzero" fill-opacity="1"></path><path clip-path="url(#clip810)" d="M733.096 60.3856 Q733.178 59.3609 734.776 59.3609 L786.218 59.3609 Q788.636 59.3609 788.677 60.3036 Q788.677 61.3283 786.382 61.2873 L735.35 61.2873 Q733.096 61.3283 733.096 60.3856 M733.096 43.9899 Q733.096 42.9651 734.858 43.0061 L786.136 43.0061 Q788.636 43.0061 788.677 43.9899 Q788.677 44.9326 786.546 44.9326 L734.776 44.9326 Q733.096 44.9326 733.096 43.9899 Z" fill="#000000" fill-rule="nonzero" fill-opacity="1"></path><path clip-path="url(#clip810)" d="M821.06 73.1332 Q821.06 71.6166 821.183 71.1658 Q821.347 70.7149 822.003 70.0181 L838.111 52.0648 Q846.924 42.1454 846.924 33.4966 Q846.924 27.8811 843.973 23.8641 Q841.063 19.8472 835.693 19.8472 Q832.004 19.8472 828.889 22.1016 Q825.774 24.356 824.339 28.373 Q824.585 28.291 825.446 28.291 Q827.536 28.291 828.684 29.6026 Q829.873 30.9143 829.873 32.6768 Q829.873 34.9312 828.397 36.038 Q826.962 37.1037 825.528 37.1037 Q824.954 37.1037 824.175 36.9807 Q823.437 36.8577 822.249 35.71 Q821.06 34.5214 821.06 32.4309 Q821.06 26.5694 825.487 21.8967 Q829.955 17.2239 836.759 17.2239 Q844.465 17.2239 849.507 21.8147 Q854.589 26.3645 854.589 33.4966 Q854.589 35.997 853.81 38.2924 Q853.073 40.5468 852.048 42.3093 Q851.064 44.0719 848.359 46.9001 Q845.654 49.7284 843.481 51.7368 Q841.309 53.7453 836.431 58.0082 L827.536 66.6569 L842.661 66.6569 Q850.039 66.6569 850.613 66.0011 Q851.433 64.8124 852.458 58.5411 L854.589 58.5411 L852.212 73.1332 L821.06 73.1332 Z" fill="#000000" fill-rule="nonzero" fill-opacity="1"></path><path clip-path="url(#clip810)" d="M863.821 71.7806 Q862.632 70.428 862.632 68.6654 Q862.632 66.9029 863.78 65.5912 Q864.969 64.2386 867.1 64.2386 Q869.6 64.2386 871.035 66.6569 Q872.47 69.0343 872.47 73.0513 Q872.47 77.3961 870.707 81.4131 Q868.945 85.471 867.223 87.3975 Q865.501 89.324 864.805 89.324 Q863.985 89.324 863.985 88.4223 Q863.985 88.0943 864.559 87.4795 Q870.584 81.0032 870.625 73.0513 Q870.625 71.7806 870.461 71.7806 L870.256 71.9446 Q868.822 73.1332 867.1 73.1332 Q865.01 73.1332 863.821 71.7806 Z" fill="#000000" fill-rule="nonzero" fill-opacity="1"></path><path clip-path="url(#clip810)" d="M938.925 15.7893 L926.833 64.3206 Q926.342 66.493 926.342 68.3375 Q926.342 72.1905 928.842 72.1905 Q930.072 72.1905 931.055 71.4117 Q932.039 70.6329 932.818 68.9933 Q933.597 67.3538 934.089 65.8372 Q934.58 64.2796 935.236 61.8202 Q935.441 60.8365 935.605 60.5905 Q935.81 60.3036 936.384 60.3036 Q937.409 60.3036 937.409 61.1234 Q936.302 66.411 934.867 69.4442 Q932.572 74.076 928.678 74.076 Q925.727 74.076 923.636 72.2725 Q921.546 70.4689 921.054 67.7637 Q915.684 74.076 910.11 74.076 Q905.191 74.076 902.076 70.346 Q898.961 66.575 898.961 60.6315 Q898.961 54.6471 901.912 48.9086 Q904.904 43.1701 909.618 39.604 Q914.332 36.038 919.168 36.038 Q924.292 36.038 926.915 41.4075 L931.957 21.4868 L932.203 19.8472 Q932.203 19.3553 931.998 19.1094 Q931.834 18.8225 930.85 18.6175 Q929.908 18.4126 928.022 18.4126 Q927.243 18.4126 926.874 18.3716 Q926.547 18.3306 926.26 18.1256 Q925.973 17.8797 925.973 17.3878 Q925.973 15.9532 927.161 15.7893 Q935.031 14.8875 937.819 14.8875 Q938.31 14.8875 938.597 15.1334 Q938.884 15.3384 938.884 15.5843 L938.925 15.7893 M925.891 45.2605 Q925.891 44.8916 925.604 43.8669 Q925.317 42.8422 924.661 41.4075 Q924.005 39.9729 922.571 38.9482 Q921.177 37.8825 919.291 37.8825 Q916.75 37.8825 914.086 40.0549 Q911.462 42.2273 909.536 45.9164 Q908.06 48.8676 906.462 55.057 Q904.904 61.2464 904.904 64.3206 Q904.904 66.2061 905.314 67.8866 Q905.765 69.5262 907.036 70.8788 Q908.306 72.1905 910.274 72.1905 Q915.07 72.1905 919.783 66.2471 Q920.685 65.2223 920.89 64.8124 Q921.136 64.3615 921.464 63.1319 L925.645 46.6952 Q925.891 45.4655 925.891 45.2605 Z" fill="#000000" fill-rule="nonzero" fill-opacity="1"></path><path clip-path="url(#clip810)" d="M947.495 97.43 L947.495 95.6223 Q950.622 95.6223 951.34 95.2493 Q952.057 94.8476 952.057 92.9539 L952.057 77.1444 Q952.057 74.9637 951.311 74.4473 Q950.594 73.9308 947.725 73.9308 L947.725 72.0945 L955.931 71.4633 L955.931 93.0113 Q955.931 94.7616 956.562 95.192 Q957.193 95.6223 960.062 95.6223 L960.062 97.43 Q954.066 97.2578 953.951 97.2578 Q953.147 97.2578 947.495 97.43 M949.963 61.22 Q949.963 60.0436 950.852 59.0968 Q951.77 58.1213 953.061 58.1213 Q954.352 58.1213 955.271 59.0107 Q956.189 59.8715 956.189 61.2487 Q956.189 62.5973 955.271 63.4867 Q954.352 64.3475 953.061 64.3475 Q951.713 64.3475 950.823 63.4007 Q949.963 62.4538 949.963 61.22 Z" fill="#000000" fill-rule="nonzero" fill-opacity="1"></path><path clip-path="url(#clip810)" d="M964.079 97.43 L964.079 95.6223 Q967.206 95.6223 967.923 95.2493 Q968.641 94.8476 968.641 92.9539 L968.641 77.2018 Q968.641 75.0211 967.866 74.476 Q967.12 73.9308 964.079 73.9308 L964.079 72.0945 L972.342 71.4633 L972.342 77.6321 Q975.097 71.4633 981.036 71.4633 Q985.455 71.4633 987.205 73.6439 Q988.496 75.1072 988.754 76.7427 Q989.041 78.3782 989.041 82.6246 L989.041 93.8434 Q989.099 95.0772 990.045 95.3641 Q990.992 95.6223 993.632 95.6223 L993.632 97.43 Q987.635 97.2578 987.033 97.2578 Q986.574 97.2578 980.405 97.43 L980.405 95.6223 Q983.532 95.6223 984.25 95.2493 Q984.996 94.8476 984.996 92.9539 L984.996 79.2676 Q984.996 76.2836 984.077 74.5334 Q983.159 72.7544 980.634 72.7544 Q977.593 72.7544 975.154 75.3081 Q972.715 77.8617 972.715 82.1656 L972.715 92.9539 Q972.715 94.8476 973.432 95.2493 Q974.178 95.6223 977.277 95.6223 L977.277 97.43 Q971.28 97.2578 970.707 97.2578 Q970.248 97.2578 964.079 97.43 Z" fill="#000000" fill-rule="nonzero" fill-opacity="1"></path><path clip-path="url(#clip810)" d="M996.597 73.9308 L996.597 72.6397 Q999.294 72.5249 1001.07 70.6312 Q1002.88 68.7088 1003.48 66.356 Q1004.11 64.0032 1004.17 61.2774 L1005.64 61.2774 L1005.64 72.0945 L1014.04 72.0945 L1014.04 73.9308 L1005.64 73.9308 L1005.64 90.2568 Q1005.64 96.5979 1009.6 96.5979 Q1011.29 96.5979 1012.41 94.8763 Q1013.53 93.1261 1013.53 90.0273 L1013.53 86.7851 L1014.99 86.7851 L1014.99 90.1421 Q1014.99 93.3269 1013.53 95.7084 Q1012.06 98.0899 1009.16 98.0899 Q1008.1 98.0899 1007.04 97.803 Q1006.01 97.5447 1004.63 96.8561 Q1003.28 96.1388 1002.42 94.4173 Q1001.59 92.667 1001.59 90.1421 L1001.59 73.9308 L996.597 73.9308 Z" fill="#000000" fill-rule="nonzero" fill-opacity="1"></path><path clip-path="url(#clip810)" d="M1028.12 52.1467 Q1028.12 37.9644 1033.41 26.5284 Q1035.66 21.7327 1038.82 17.7157 Q1041.98 13.6988 1044.07 11.9363 Q1046.16 10.1737 1046.73 10.1737 Q1047.55 10.1737 1047.59 10.9935 Q1047.59 11.4034 1046.48 12.4281 Q1032.96 26.2005 1033 52.1467 Q1033 78.1749 1046.16 91.4145 Q1047.59 92.8491 1047.59 93.3 Q1047.59 94.1198 1046.73 94.1198 Q1046.16 94.1198 1044.15 92.4392 Q1042.14 90.7586 1039.02 86.9056 Q1035.91 83.0527 1033.66 78.3389 Q1028.12 66.9029 1028.12 52.1467 Z" fill="#000000" fill-rule="nonzero" fill-opacity="1"></path><path clip-path="url(#clip810)" d="M1105.45 14.8055 L1100.9 33.1687 Q1100.66 34.2754 1100.45 34.5623 Q1100.25 34.8493 1099.67 34.8493 Q1099.22 34.8493 1098.94 34.6443 Q1098.69 34.4394 1098.69 34.2344 L1098.65 34.0295 Q1098.65 33.9065 1098.73 33.2917 Q1098.81 32.6358 1098.9 31.5701 Q1098.98 30.5044 1098.98 29.3157 Q1098.98 22.5935 1095.7 19.4783 Q1092.46 16.3221 1086.89 16.3221 Q1083.03 16.3221 1079.59 18.3716 Q1076.15 20.421 1074.18 23.6592 Q1072.21 26.8564 1072.21 30.2175 Q1072.21 33.2917 1073.77 35.2592 Q1075.33 37.2266 1077.34 37.8825 L1082.95 39.3991 Q1088.85 40.9157 1090.53 41.5715 Q1092.21 42.1863 1093.61 43.58 Q1097.75 47.433 1097.75 53.4174 Q1097.75 58.5821 1094.84 63.5827 Q1091.93 68.5425 1086.93 71.7806 Q1081.93 74.9778 1076.39 74.9778 Q1066.68 74.9778 1062.21 68.9523 L1058.11 73.7071 Q1057.33 74.6089 1057.09 74.7728 Q1056.88 74.9778 1056.6 74.9778 Q1056.23 74.9778 1055.94 74.7318 Q1055.65 74.5269 1055.65 74.158 Q1055.65 73.8711 1058.07 64.2386 Q1060.49 54.6061 1060.69 54.4011 Q1061.02 54.0732 1061.55 54.0732 Q1062.54 54.0732 1062.54 55.016 Q1062.46 55.2619 1062.37 55.5898 Q1061.88 58.5411 1061.88 60.1396 Q1061.88 63.1319 1062.91 65.4273 Q1063.93 67.6817 1065.45 68.9933 Q1067.01 70.264 1069.1 71.0838 Q1071.19 71.8626 1072.95 72.1495 Q1074.71 72.3954 1076.56 72.3954 Q1080.53 72.3954 1084.06 70.1 Q1087.62 67.8046 1089.63 64.2386 Q1091.68 60.6725 1091.68 56.9425 Q1091.68 54.975 1091.15 53.4584 Q1090.62 51.9008 1089.88 51.04 Q1089.18 50.1793 1087.99 49.5234 Q1086.8 48.8676 1085.98 48.6217 Q1085.21 48.3347 1083.98 48.0478 L1075 45.6704 Q1071.39 44.6047 1068.81 41.5305 Q1066.27 38.4563 1066.27 33.7426 Q1066.27 28.7829 1069.18 24.1921 Q1072.13 19.5603 1076.93 16.773 Q1081.76 13.9447 1086.97 13.9447 Q1091.07 13.9447 1094.22 15.5433 Q1097.38 17.1009 1098.98 20.0111 L1103.04 15.2154 Q1103.86 14.2726 1104.02 14.1087 Q1104.22 13.9447 1104.51 13.9447 Q1105 13.9447 1105.21 14.2317 Q1105.45 14.5186 1105.45 14.8055 Z" fill="#000000" fill-rule="nonzero" fill-opacity="1"></path><path clip-path="url(#clip810)" d="M1111.64 93.3 Q1111.64 92.8901 1112.71 91.8654 Q1126.23 78.093 1126.23 52.1467 Q1126.23 26.1185 1113.24 12.961 Q1111.64 11.4444 1111.64 10.9935 Q1111.64 10.1737 1112.46 10.1737 Q1113.04 10.1737 1115.04 11.8543 Q1117.09 13.5348 1120.17 17.3878 Q1123.28 21.2408 1125.58 25.9546 Q1131.11 37.3906 1131.11 52.1467 Q1131.11 66.329 1125.83 77.765 Q1123.57 82.5608 1120.41 86.5777 Q1117.26 90.5947 1115.17 92.3572 Q1113.08 94.1198 1112.46 94.1198 Q1111.64 94.1198 1111.64 93.3 Z" fill="#000000" fill-rule="nonzero" fill-opacity="1"></path><path clip-path="url(#clip810)" d="M1167.17 60.3856 Q1167.25 59.3609 1168.85 59.3609 L1220.29 59.3609 Q1222.71 59.3609 1222.75 60.3036 Q1222.75 61.3283 1220.46 61.2873 L1169.42 61.2873 Q1167.17 61.3283 1167.17 60.3856 M1167.17 43.9899 Q1167.17 42.9651 1168.93 43.0061 L1220.21 43.0061 Q1222.71 43.0061 1222.75 43.9899 Q1222.75 44.9326 1220.62 44.9326 L1168.85 44.9326 Q1167.17 44.9326 1167.17 43.9899 Z" fill="#000000" fill-rule="nonzero" fill-opacity="1"></path><path clip-path="url(#clip810)" d="M1255.13 61.8202 Q1255.13 59.3199 1256.57 58.1312 Q1258 56.9425 1259.85 56.9425 Q1261.77 56.9425 1263.13 58.2132 Q1264.52 59.4428 1264.52 61.6153 Q1264.52 63.9517 1262.88 65.2633 Q1261.28 66.575 1258.99 66.2471 Q1260.99 69.6082 1264.68 71.1248 Q1268.41 72.6414 1271.86 72.6414 Q1275.46 72.6414 1278.37 69.5262 Q1281.33 66.411 1281.33 58.787 Q1281.33 52.3107 1278.78 48.5807 Q1276.28 44.8506 1271.32 44.8506 L1267.64 44.8506 Q1266.36 44.8506 1266 44.7277 Q1265.63 44.6047 1265.63 43.9079 Q1265.63 43.0881 1266.9 42.9242 Q1268.17 42.9242 1270.18 42.6782 Q1275.05 42.5143 1277.64 38.2924 Q1279.97 34.3574 1279.97 28.7419 Q1279.97 23.6182 1277.51 21.4868 Q1275.1 19.3143 1271.94 19.3143 Q1268.99 19.3143 1265.75 20.544 Q1262.51 21.7737 1260.75 24.52 Q1265.95 24.52 1265.95 28.7419 Q1265.95 30.5864 1264.77 31.8161 Q1263.62 33.0047 1261.69 33.0047 Q1259.85 33.0047 1258.62 31.857 Q1257.39 30.6684 1257.39 28.6599 Q1257.39 23.8641 1261.65 20.544 Q1265.95 17.2239 1272.27 17.2239 Q1278.5 17.2239 1283.09 20.503 Q1287.72 23.7822 1287.72 28.8238 Q1287.72 33.7835 1284.44 37.8415 Q1281.16 41.8994 1275.96 43.58 Q1282.35 44.8506 1286.16 49.1955 Q1289.97 53.4994 1289.97 58.787 Q1289.97 65.3453 1284.81 70.182 Q1279.64 74.9778 1272.1 74.9778 Q1265.13 74.9778 1260.13 71.2068 Q1255.13 67.4357 1255.13 61.8202 Z" fill="#000000" fill-rule="nonzero" fill-opacity="1"></path><path clip-path="url(#clip812)" d="M291.267 140.423 L291.267 744.416 L319.526 744.416 L319.526 140.423 L291.267 140.423 L291.267 140.423  Z" fill="#009af9" fill-rule="evenodd" fill-opacity="1"></path>
<polyline clip-path="url(#clip812)" style="stroke:#000000; stroke-linecap:round; stroke-linejoin:round; stroke-width:4; stroke-opacity:1; fill:none" points="291.267,140.423 291.267,744.416 319.526,744.416 319.526,140.423 291.267,140.423 "></polyline>
<path clip-path="url(#clip812)" d="M533.488 308.458 L533.488 744.416 L561.747 744.416 L561.747 308.458 L533.488 308.458 L533.488 308.458  Z" fill="#009af9" fill-rule="evenodd" fill-opacity="1"></path>
<polyline clip-path="url(#clip812)" style="stroke:#000000; stroke-linecap:round; stroke-linejoin:round; stroke-width:4; stroke-opacity:1; fill:none" points="533.488,308.458 533.488,744.416 561.747,744.416 561.747,308.458 533.488,308.458 "></polyline>
<path clip-path="url(#clip812)" d="M775.708 438.808 L775.708 744.416 L803.967 744.416 L803.967 438.808 L775.708 438.808 L775.708 438.808  Z" fill="#009af9" fill-rule="evenodd" fill-opacity="1"></path>
<polyline clip-path="url(#clip812)" style="stroke:#000000; stroke-linecap:round; stroke-linejoin:round; stroke-width:4; stroke-opacity:1; fill:none" points="775.708,438.808 775.708,744.416 803.967,744.416 803.967,438.808 775.708,438.808 "></polyline>
<path clip-path="url(#clip812)" d="M1017.93 541.494 L1017.93 744.416 L1046.19 744.416 L1046.19 541.494 L1017.93 541.494 L1017.93 541.494  Z" fill="#009af9" fill-rule="evenodd" fill-opacity="1"></path>
<polyline clip-path="url(#clip812)" style="stroke:#000000; stroke-linecap:round; stroke-linejoin:round; stroke-width:4; stroke-opacity:1; fill:none" points="1017.93,541.494 1017.93,744.416 1046.19,744.416 1046.19,541.494 1017.93,541.494 "></polyline>
<path clip-path="url(#clip812)" d="M1260.15 592.867 L1260.15 744.416 L1288.41 744.416 L1288.41 592.867 L1260.15 592.867 L1260.15 592.867  Z" fill="#009af9" fill-rule="evenodd" fill-opacity="1"></path>
<polyline clip-path="url(#clip812)" style="stroke:#000000; stroke-linecap:round; stroke-linejoin:round; stroke-width:4; stroke-opacity:1; fill:none" points="1260.15,592.867 1260.15,744.416 1288.41,744.416 1288.41,592.867 1260.15,592.867 "></polyline>
<path clip-path="url(#clip812)" d="M1502.37 631.45 L1502.37 744.416 L1530.63 744.416 L1530.63 631.45 L1502.37 631.45 L1502.37 631.45  Z" fill="#009af9" fill-rule="evenodd" fill-opacity="1"></path>
<polyline clip-path="url(#clip812)" style="stroke:#000000; stroke-linecap:round; stroke-linejoin:round; stroke-width:4; stroke-opacity:1; fill:none" points="1502.37,631.45 1502.37,744.416 1530.63,744.416 1530.63,631.45 1502.37,631.45 "></polyline>
<circle clip-path="url(#clip812)" style="fill:#009af9; stroke:none; fill-opacity:0" cx="305.397" cy="140.423" r="2"></circle>
<circle clip-path="url(#clip812)" style="fill:#009af9; stroke:none; fill-opacity:0" cx="547.617" cy="308.458" r="2"></circle>
<circle clip-path="url(#clip812)" style="fill:#009af9; stroke:none; fill-opacity:0" cx="789.838" cy="438.808" r="2"></circle>
<circle clip-path="url(#clip812)" style="fill:#009af9; stroke:none; fill-opacity:0" cx="1032.06" cy="541.494" r="2"></circle>
<circle clip-path="url(#clip812)" style="fill:#009af9; stroke:none; fill-opacity:0" cx="1274.28" cy="592.867" r="2"></circle>
<circle clip-path="url(#clip812)" style="fill:#009af9; stroke:none; fill-opacity:0" cx="1516.5" cy="631.45" r="2"></circle>
<path clip-path="url(#clip812)" d="M319.526 251.575 L319.526 744.416 L347.785 744.416 L347.785 251.575 L319.526 251.575 L319.526 251.575  Z" fill="#e26f46" fill-rule="evenodd" fill-opacity="1"></path>
<polyline clip-path="url(#clip812)" style="stroke:#000000; stroke-linecap:round; stroke-linejoin:round; stroke-width:4; stroke-opacity:1; fill:none" points="319.526,251.575 319.526,744.416 347.785,744.416 347.785,251.575 319.526,251.575 "></polyline>
<path clip-path="url(#clip812)" d="M561.747 358.23 L561.747 744.416 L590.006 744.416 L590.006 358.23 L561.747 358.23 L561.747 358.23  Z" fill="#e26f46" fill-rule="evenodd" fill-opacity="1"></path>
<polyline clip-path="url(#clip812)" style="stroke:#000000; stroke-linecap:round; stroke-linejoin:round; stroke-width:4; stroke-opacity:1; fill:none" points="561.747,358.23 561.747,744.416 590.006,744.416 590.006,358.23 561.747,358.23 "></polyline>
<path clip-path="url(#clip812)" d="M803.967 465.406 L803.967 744.416 L832.227 744.416 L832.227 465.406 L803.967 465.406 L803.967 465.406  Z" fill="#e26f46" fill-rule="evenodd" fill-opacity="1"></path>
<polyline clip-path="url(#clip812)" style="stroke:#000000; stroke-linecap:round; stroke-linejoin:round; stroke-width:4; stroke-opacity:1; fill:none" points="803.967,465.406 803.967,744.416 832.227,744.416 832.227,465.406 803.967,465.406 "></polyline>
<path clip-path="url(#clip812)" d="M1046.19 550.495 L1046.19 744.416 L1074.45 744.416 L1074.45 550.495 L1046.19 550.495 L1046.19 550.495  Z" fill="#e26f46" fill-rule="evenodd" fill-opacity="1"></path>
<polyline clip-path="url(#clip812)" style="stroke:#000000; stroke-linecap:round; stroke-linejoin:round; stroke-width:4; stroke-opacity:1; fill:none" points="1046.19,550.495 1046.19,744.416 1074.45,744.416 1074.45,550.495 1046.19,550.495 "></polyline>
<path clip-path="url(#clip812)" d="M1288.41 602.877 L1288.41 744.416 L1316.67 744.416 L1316.67 602.877 L1288.41 602.877 L1288.41 602.877  Z" fill="#e26f46" fill-rule="evenodd" fill-opacity="1"></path>
<polyline clip-path="url(#clip812)" style="stroke:#000000; stroke-linecap:round; stroke-linejoin:round; stroke-width:4; stroke-opacity:1; fill:none" points="1288.41,602.877 1288.41,744.416 1316.67,744.416 1316.67,602.877 1288.41,602.877 "></polyline>
<path clip-path="url(#clip812)" d="M1530.63 654.276 L1530.63 744.416 L1558.89 744.416 L1558.89 654.276 L1530.63 654.276 L1530.63 654.276  Z" fill="#e26f46" fill-rule="evenodd" fill-opacity="1"></path>
<polyline clip-path="url(#clip812)" style="stroke:#000000; stroke-linecap:round; stroke-linejoin:round; stroke-width:4; stroke-opacity:1; fill:none" points="1530.63,654.276 1530.63,744.416 1558.89,744.416 1558.89,654.276 1530.63,654.276 "></polyline>
<circle clip-path="url(#clip812)" style="fill:#e26f46; stroke:none; fill-opacity:0" cx="333.656" cy="251.575" r="2"></circle>
<circle clip-path="url(#clip812)" style="fill:#e26f46; stroke:none; fill-opacity:0" cx="575.876" cy="358.23" r="2"></circle>
<circle clip-path="url(#clip812)" style="fill:#e26f46; stroke:none; fill-opacity:0" cx="818.097" cy="465.406" r="2"></circle>
<circle clip-path="url(#clip812)" style="fill:#e26f46; stroke:none; fill-opacity:0" cx="1060.32" cy="550.495" r="2"></circle>
<circle clip-path="url(#clip812)" style="fill:#e26f46; stroke:none; fill-opacity:0" cx="1302.54" cy="602.877" r="2"></circle>
<circle clip-path="url(#clip812)" style="fill:#e26f46; stroke:none; fill-opacity:0" cx="1544.76" cy="654.276" r="2"></circle>
<path clip-path="url(#clip812)" d="M347.785 230.757 L347.785 744.416 L376.044 744.416 L376.044 230.757 L347.785 230.757 L347.785 230.757  Z" fill="#3da44d" fill-rule="evenodd" fill-opacity="1"></path>
<polyline clip-path="url(#clip812)" style="stroke:#000000; stroke-linecap:round; stroke-linejoin:round; stroke-width:4; stroke-opacity:1; fill:none" points="347.785,230.757 347.785,744.416 376.044,744.416 376.044,230.757 347.785,230.757 "></polyline>
<path clip-path="url(#clip812)" d="M590.006 288.496 L590.006 744.416 L618.265 744.416 L618.265 288.496 L590.006 288.496 L590.006 288.496  Z" fill="#3da44d" fill-rule="evenodd" fill-opacity="1"></path>
<polyline clip-path="url(#clip812)" style="stroke:#000000; stroke-linecap:round; stroke-linejoin:round; stroke-width:4; stroke-opacity:1; fill:none" points="590.006,288.496 590.006,744.416 618.265,744.416 618.265,288.496 590.006,288.496 "></polyline>
<path clip-path="url(#clip812)" d="M832.227 457.805 L832.227 744.416 L860.486 744.416 L860.486 457.805 L832.227 457.805 L832.227 457.805  Z" fill="#3da44d" fill-rule="evenodd" fill-opacity="1"></path>
<polyline clip-path="url(#clip812)" style="stroke:#000000; stroke-linecap:round; stroke-linejoin:round; stroke-width:4; stroke-opacity:1; fill:none" points="832.227,457.805 832.227,744.416 860.486,744.416 860.486,457.805 832.227,457.805 "></polyline>
<path clip-path="url(#clip812)" d="M1074.45 559.594 L1074.45 744.416 L1102.71 744.416 L1102.71 559.594 L1074.45 559.594 L1074.45 559.594  Z" fill="#3da44d" fill-rule="evenodd" fill-opacity="1"></path>
<polyline clip-path="url(#clip812)" style="stroke:#000000; stroke-linecap:round; stroke-linejoin:round; stroke-width:4; stroke-opacity:1; fill:none" points="1074.45,559.594 1074.45,744.416 1102.71,744.416 1102.71,559.594 1074.45,559.594 "></polyline>
<path clip-path="url(#clip812)" d="M1316.67 599.15 L1316.67 744.416 L1344.93 744.416 L1344.93 599.15 L1316.67 599.15 L1316.67 599.15  Z" fill="#3da44d" fill-rule="evenodd" fill-opacity="1"></path>
<polyline clip-path="url(#clip812)" style="stroke:#000000; stroke-linecap:round; stroke-linejoin:round; stroke-width:4; stroke-opacity:1; fill:none" points="1316.67,599.15 1316.67,744.416 1344.93,744.416 1344.93,599.15 1316.67,599.15 "></polyline>
<path clip-path="url(#clip812)" d="M1558.89 638.903 L1558.89 744.416 L1587.15 744.416 L1587.15 638.903 L1558.89 638.903 L1558.89 638.903  Z" fill="#3da44d" fill-rule="evenodd" fill-opacity="1"></path>
<polyline clip-path="url(#clip812)" style="stroke:#000000; stroke-linecap:round; stroke-linejoin:round; stroke-width:4; stroke-opacity:1; fill:none" points="1558.89,638.903 1558.89,744.416 1587.15,744.416 1587.15,638.903 1558.89,638.903 "></polyline>
<circle clip-path="url(#clip812)" style="fill:#3da44d; stroke:none; fill-opacity:0" cx="361.915" cy="230.757" r="2"></circle>
<circle clip-path="url(#clip812)" style="fill:#3da44d; stroke:none; fill-opacity:0" cx="604.136" cy="288.496" r="2"></circle>
<circle clip-path="url(#clip812)" style="fill:#3da44d; stroke:none; fill-opacity:0" cx="846.356" cy="457.805" r="2"></circle>
<circle clip-path="url(#clip812)" style="fill:#3da44d; stroke:none; fill-opacity:0" cx="1088.58" cy="559.594" r="2"></circle>
<circle clip-path="url(#clip812)" style="fill:#3da44d; stroke:none; fill-opacity:0" cx="1330.8" cy="599.15" r="2"></circle>
<circle clip-path="url(#clip812)" style="fill:#3da44d; stroke:none; fill-opacity:0" cx="1573.02" cy="638.903" r="2"></circle>
<path clip-path="url(#clip812)" d="M376.044 105.328 L376.044 744.416 L404.304 744.416 L404.304 105.328 L376.044 105.328 L376.044 105.328  Z" fill="#c271d2" fill-rule="evenodd" fill-opacity="1"></path>
<polyline clip-path="url(#clip812)" style="stroke:#000000; stroke-linecap:round; stroke-linejoin:round; stroke-width:4; stroke-opacity:1; fill:none" points="376.044,105.328 376.044,744.416 404.304,744.416 404.304,105.328 376.044,105.328 "></polyline>
<path clip-path="url(#clip812)" d="M618.265 297.089 L618.265 744.416 L646.524 744.416 L646.524 297.089 L618.265 297.089 L618.265 297.089  Z" fill="#c271d2" fill-rule="evenodd" fill-opacity="1"></path>
<polyline clip-path="url(#clip812)" style="stroke:#000000; stroke-linecap:round; stroke-linejoin:round; stroke-width:4; stroke-opacity:1; fill:none" points="618.265,297.089 618.265,744.416 646.524,744.416 646.524,297.089 618.265,297.089 "></polyline>
<path clip-path="url(#clip812)" d="M860.486 427.87 L860.486 744.416 L888.745 744.416 L888.745 427.87 L860.486 427.87 L860.486 427.87  Z" fill="#c271d2" fill-rule="evenodd" fill-opacity="1"></path>
<polyline clip-path="url(#clip812)" style="stroke:#000000; stroke-linecap:round; stroke-linejoin:round; stroke-width:4; stroke-opacity:1; fill:none" points="860.486,427.87 860.486,744.416 888.745,744.416 888.745,427.87 860.486,427.87 "></polyline>
<path clip-path="url(#clip812)" d="M1102.71 559.538 L1102.71 744.416 L1130.97 744.416 L1130.97 559.538 L1102.71 559.538 L1102.71 559.538  Z" fill="#c271d2" fill-rule="evenodd" fill-opacity="1"></path>
<polyline clip-path="url(#clip812)" style="stroke:#000000; stroke-linecap:round; stroke-linejoin:round; stroke-width:4; stroke-opacity:1; fill:none" points="1102.71,559.538 1102.71,744.416 1130.97,744.416 1130.97,559.538 1102.71,559.538 "></polyline>
<path clip-path="url(#clip812)" d="M1344.93 588.252 L1344.93 744.416 L1373.19 744.416 L1373.19 588.252 L1344.93 588.252 L1344.93 588.252  Z" fill="#c271d2" fill-rule="evenodd" fill-opacity="1"></path>
<polyline clip-path="url(#clip812)" style="stroke:#000000; stroke-linecap:round; stroke-linejoin:round; stroke-width:4; stroke-opacity:1; fill:none" points="1344.93,588.252 1344.93,744.416 1373.19,744.416 1373.19,588.252 1344.93,588.252 "></polyline>
<path clip-path="url(#clip812)" d="M1587.15 643.285 L1587.15 744.416 L1615.41 744.416 L1615.41 643.285 L1587.15 643.285 L1587.15 643.285  Z" fill="#c271d2" fill-rule="evenodd" fill-opacity="1"></path>
<polyline clip-path="url(#clip812)" style="stroke:#000000; stroke-linecap:round; stroke-linejoin:round; stroke-width:4; stroke-opacity:1; fill:none" points="1587.15,643.285 1587.15,744.416 1615.41,744.416 1615.41,643.285 1587.15,643.285 "></polyline>
<circle clip-path="url(#clip812)" style="fill:#c271d2; stroke:none; fill-opacity:0" cx="632.395" cy="297.089" r="2"></circle>
<circle clip-path="url(#clip812)" style="fill:#c271d2; stroke:none; fill-opacity:0" cx="874.615" cy="427.87" r="2"></circle>
<circle clip-path="url(#clip812)" style="fill:#c271d2; stroke:none; fill-opacity:0" cx="1116.84" cy="559.538" r="2"></circle>
<circle clip-path="url(#clip812)" style="fill:#c271d2; stroke:none; fill-opacity:0" cx="1359.06" cy="588.252" r="2"></circle>
<circle clip-path="url(#clip812)" style="fill:#c271d2; stroke:none; fill-opacity:0" cx="1601.28" cy="643.285" r="2"></circle>
<path clip-path="url(#clip812)" d="M404.304 179.076 L404.304 744.416 L432.563 744.416 L432.563 179.076 L404.304 179.076 L404.304 179.076  Z" fill="#ac8d18" fill-rule="evenodd" fill-opacity="1"></path>
<polyline clip-path="url(#clip812)" style="stroke:#000000; stroke-linecap:round; stroke-linejoin:round; stroke-width:4; stroke-opacity:1; fill:none" points="404.304,179.076 404.304,744.416 432.563,744.416 432.563,179.076 404.304,179.076 "></polyline>
<path clip-path="url(#clip812)" d="M646.524 381.254 L646.524 744.416 L674.783 744.416 L674.783 381.254 L646.524 381.254 L646.524 381.254  Z" fill="#ac8d18" fill-rule="evenodd" fill-opacity="1"></path>
<polyline clip-path="url(#clip812)" style="stroke:#000000; stroke-linecap:round; stroke-linejoin:round; stroke-width:4; stroke-opacity:1; fill:none" points="646.524,381.254 646.524,744.416 674.783,744.416 674.783,381.254 646.524,381.254 "></polyline>
<path clip-path="url(#clip812)" d="M888.745 456.098 L888.745 744.416 L917.004 744.416 L917.004 456.098 L888.745 456.098 L888.745 456.098  Z" fill="#ac8d18" fill-rule="evenodd" fill-opacity="1"></path>
<polyline clip-path="url(#clip812)" style="stroke:#000000; stroke-linecap:round; stroke-linejoin:round; stroke-width:4; stroke-opacity:1; fill:none" points="888.745,456.098 888.745,744.416 917.004,744.416 917.004,456.098 888.745,456.098 "></polyline>
<path clip-path="url(#clip812)" d="M1130.97 546.799 L1130.97 744.416 L1159.22 744.416 L1159.22 546.799 L1130.97 546.799 L1130.97 546.799  Z" fill="#ac8d18" fill-rule="evenodd" fill-opacity="1"></path>
<polyline clip-path="url(#clip812)" style="stroke:#000000; stroke-linecap:round; stroke-linejoin:round; stroke-width:4; stroke-opacity:1; fill:none" points="1130.97,546.799 1130.97,744.416 1159.22,744.416 1159.22,546.799 1130.97,546.799 "></polyline>
<path clip-path="url(#clip812)" d="M1373.19 589.561 L1373.19 744.416 L1401.44 744.416 L1401.44 589.561 L1373.19 589.561 L1373.19 589.561  Z" fill="#ac8d18" fill-rule="evenodd" fill-opacity="1"></path>
<polyline clip-path="url(#clip812)" style="stroke:#000000; stroke-linecap:round; stroke-linejoin:round; stroke-width:4; stroke-opacity:1; fill:none" points="1373.19,589.561 1373.19,744.416 1401.44,744.416 1401.44,589.561 1373.19,589.561 "></polyline>
<path clip-path="url(#clip812)" d="M1615.41 645.925 L1615.41 744.416 L1643.67 744.416 L1643.67 645.925 L1615.41 645.925 L1615.41 645.925  Z" fill="#ac8d18" fill-rule="evenodd" fill-opacity="1"></path>
<polyline clip-path="url(#clip812)" style="stroke:#000000; stroke-linecap:round; stroke-linejoin:round; stroke-width:4; stroke-opacity:1; fill:none" points="1615.41,645.925 1615.41,744.416 1643.67,744.416 1643.67,645.925 1615.41,645.925 "></polyline>
<circle clip-path="url(#clip812)" style="fill:#ac8d18; stroke:none; fill-opacity:0" cx="418.433" cy="179.076" r="2"></circle>
<circle clip-path="url(#clip812)" style="fill:#ac8d18; stroke:none; fill-opacity:0" cx="660.654" cy="381.254" r="2"></circle>
<circle clip-path="url(#clip812)" style="fill:#ac8d18; stroke:none; fill-opacity:0" cx="902.874" cy="456.098" r="2"></circle>
<circle clip-path="url(#clip812)" style="fill:#ac8d18; stroke:none; fill-opacity:0" cx="1145.09" cy="546.799" r="2"></circle>
<circle clip-path="url(#clip812)" style="fill:#ac8d18; stroke:none; fill-opacity:0" cx="1387.32" cy="589.561" r="2"></circle>
<circle clip-path="url(#clip812)" style="fill:#ac8d18; stroke:none; fill-opacity:0" cx="1629.54" cy="645.925" r="2"></circle>
<path clip-path="url(#clip812)" d="M432.563 106.225 L432.563 744.416 L460.822 744.416 L460.822 106.225 L432.563 106.225 L432.563 106.225  Z" fill="#00a9ad" fill-rule="evenodd" fill-opacity="1"></path>
<polyline clip-path="url(#clip812)" style="stroke:#000000; stroke-linecap:round; stroke-linejoin:round; stroke-width:4; stroke-opacity:1; fill:none" points="432.563,106.225 432.563,744.416 460.822,744.416 460.822,106.225 432.563,106.225 "></polyline>
<path clip-path="url(#clip812)" d="M674.783 315.509 L674.783 744.416 L703.042 744.416 L703.042 315.509 L674.783 315.509 L674.783 315.509  Z" fill="#00a9ad" fill-rule="evenodd" fill-opacity="1"></path>
<polyline clip-path="url(#clip812)" style="stroke:#000000; stroke-linecap:round; stroke-linejoin:round; stroke-width:4; stroke-opacity:1; fill:none" points="674.783,315.509 674.783,744.416 703.042,744.416 703.042,315.509 674.783,315.509 "></polyline>
<path clip-path="url(#clip812)" d="M917.004 439.26 L917.004 744.416 L945.263 744.416 L945.263 439.26 L917.004 439.26 L917.004 439.26  Z" fill="#00a9ad" fill-rule="evenodd" fill-opacity="1"></path>
<polyline clip-path="url(#clip812)" style="stroke:#000000; stroke-linecap:round; stroke-linejoin:round; stroke-width:4; stroke-opacity:1; fill:none" points="917.004,439.26 917.004,744.416 945.263,744.416 945.263,439.26 917.004,439.26 "></polyline>
<path clip-path="url(#clip812)" d="M1159.22 536.58 L1159.22 744.416 L1187.48 744.416 L1187.48 536.58 L1159.22 536.58 L1159.22 536.58  Z" fill="#00a9ad" fill-rule="evenodd" fill-opacity="1"></path>
<polyline clip-path="url(#clip812)" style="stroke:#000000; stroke-linecap:round; stroke-linejoin:round; stroke-width:4; stroke-opacity:1; fill:none" points="1159.22,536.58 1159.22,744.416 1187.48,744.416 1187.48,536.58 1159.22,536.58 "></polyline>
<path clip-path="url(#clip812)" d="M1401.44 598.14 L1401.44 744.416 L1429.7 744.416 L1429.7 598.14 L1401.44 598.14 L1401.44 598.14  Z" fill="#00a9ad" fill-rule="evenodd" fill-opacity="1"></path>
<polyline clip-path="url(#clip812)" style="stroke:#000000; stroke-linecap:round; stroke-linejoin:round; stroke-width:4; stroke-opacity:1; fill:none" points="1401.44,598.14 1401.44,744.416 1429.7,744.416 1429.7,598.14 1401.44,598.14 "></polyline>
<path clip-path="url(#clip812)" d="M1643.67 631.779 L1643.67 744.416 L1671.92 744.416 L1671.92 631.779 L1643.67 631.779 L1643.67 631.779  Z" fill="#00a9ad" fill-rule="evenodd" fill-opacity="1"></path>
<polyline clip-path="url(#clip812)" style="stroke:#000000; stroke-linecap:round; stroke-linejoin:round; stroke-width:4; stroke-opacity:1; fill:none" points="1643.67,631.779 1643.67,744.416 1671.92,744.416 1671.92,631.779 1643.67,631.779 "></polyline>
<circle clip-path="url(#clip812)" style="fill:#00a9ad; stroke:none; fill-opacity:0" cx="446.692" cy="106.225" r="2"></circle>
<circle clip-path="url(#clip812)" style="fill:#00a9ad; stroke:none; fill-opacity:0" cx="688.913" cy="315.509" r="2"></circle>
<circle clip-path="url(#clip812)" style="fill:#00a9ad; stroke:none; fill-opacity:0" cx="931.133" cy="439.26" r="2"></circle>
<circle clip-path="url(#clip812)" style="fill:#00a9ad; stroke:none; fill-opacity:0" cx="1173.35" cy="536.58" r="2"></circle>
<circle clip-path="url(#clip812)" style="fill:#00a9ad; stroke:none; fill-opacity:0" cx="1415.57" cy="598.14" r="2"></circle>
<circle clip-path="url(#clip812)" style="fill:#00a9ad; stroke:none; fill-opacity:0" cx="1657.79" cy="631.779" r="2"></circle>
</svg>