<svg xmlns="http://www.w3.org/2000/svg" xmlns:xlink="http://www.w3.org/1999/xlink" width="450" height="210" viewBox="0 0 1800 840">
<defs>
  <clipPath id="clip010">
    <rect x="0" y="0" width="1800" height="840"></rect>
  </clipPath>
</defs>
<path clip-path="url(#clip010)" d="M0 840 L1800 840 L1800 0 L0 0  Z" fill="#ffffff" fill-rule="evenodd" fill-opacity="1"></path>
<defs>
  <clipPath id="clip011">
    <rect x="360" y="0" width="1261" height="840"></rect>
  </clipPath>
</defs>
<path clip-path="url(#clip010)" d="M150.598 744.416 L1752.76 744.416 L1752.76 105.328 L150.598 105.328  Z" fill="#ffffff" fill-rule="evenodd" fill-opacity="1"></path>
<defs>
  <clipPath id="clip012">
    <rect x="150" y="105" width="1603" height="640"></rect>
  </clipPath>
</defs>
<polyline clip-path="url(#clip012)" style="stroke:#000000; stroke-linecap:round; stroke-linejoin:round; stroke-width:2; stroke-opacity:0.1; fill:none" points="322.632,744.416 322.632,105.328 "></polyline>
<polyline clip-path="url(#clip012)" style="stroke:#000000; stroke-linecap:round; stroke-linejoin:round; stroke-width:2; stroke-opacity:0.1; fill:none" points="574.25,744.416 574.25,105.328 "></polyline>
<polyline clip-path="url(#clip012)" style="stroke:#000000; stroke-linecap:round; stroke-linejoin:round; stroke-width:2; stroke-opacity:0.1; fill:none" points="825.868,744.416 825.868,105.328 "></polyline>
<polyline clip-path="url(#clip012)" style="stroke:#000000; stroke-linecap:round; stroke-linejoin:round; stroke-width:2; stroke-opacity:0.1; fill:none" points="1077.49,744.416 1077.49,105.328 "></polyline>
<polyline clip-path="url(#clip012)" style="stroke:#000000; stroke-linecap:round; stroke-linejoin:round; stroke-width:2; stroke-opacity:0.1; fill:none" points="1329.1,744.416 1329.1,105.328 "></polyline>
<polyline clip-path="url(#clip012)" style="stroke:#000000; stroke-linecap:round; stroke-linejoin:round; stroke-width:2; stroke-opacity:0.1; fill:none" points="1580.72,744.416 1580.72,105.328 "></polyline>
<polyline clip-path="url(#clip012)" style="stroke:#000000; stroke-linecap:round; stroke-linejoin:round; stroke-width:2; stroke-opacity:0.1; fill:none" points="150.598,744.416 1752.76,744.416 "></polyline>
<polyline clip-path="url(#clip012)" style="stroke:#000000; stroke-linecap:round; stroke-linejoin:round; stroke-width:2; stroke-opacity:0.1; fill:none" points="150.598,646.421 1752.76,646.421 "></polyline>
<polyline clip-path="url(#clip012)" style="stroke:#000000; stroke-linecap:round; stroke-linejoin:round; stroke-width:2; stroke-opacity:0.1; fill:none" points="150.598,548.426 1752.76,548.426 "></polyline>
<polyline clip-path="url(#clip012)" style="stroke:#000000; stroke-linecap:round; stroke-linejoin:round; stroke-width:2; stroke-opacity:0.1; fill:none" points="150.598,450.432 1752.76,450.432 "></polyline>
<polyline clip-path="url(#clip012)" style="stroke:#000000; stroke-linecap:round; stroke-linejoin:round; stroke-width:2; stroke-opacity:0.1; fill:none" points="150.598,352.437 1752.76,352.437 "></polyline>
<polyline clip-path="url(#clip012)" style="stroke:#000000; stroke-linecap:round; stroke-linejoin:round; stroke-width:2; stroke-opacity:0.1; fill:none" points="150.598,254.442 1752.76,254.442 "></polyline>
<polyline clip-path="url(#clip012)" style="stroke:#000000; stroke-linecap:round; stroke-linejoin:round; stroke-width:2; stroke-opacity:0.1; fill:none" points="150.598,156.447 1752.76,156.447 "></polyline>
<polyline clip-path="url(#clip010)" style="stroke:#000000; stroke-linecap:round; stroke-linejoin:round; stroke-width:4; stroke-opacity:1; fill:none" points="150.598,744.416 1752.76,744.416 "></polyline>
<polyline clip-path="url(#clip010)" style="stroke:#000000; stroke-linecap:round; stroke-linejoin:round; stroke-width:4; stroke-opacity:1; fill:none" points="322.632,744.416 322.632,725.518 "></polyline>
<polyline clip-path="url(#clip010)" style="stroke:#000000; stroke-linecap:round; stroke-linejoin:round; stroke-width:4; stroke-opacity:1; fill:none" points="574.25,744.416 574.25,725.518 "></polyline>
<polyline clip-path="url(#clip010)" style="stroke:#000000; stroke-linecap:round; stroke-linejoin:round; stroke-width:4; stroke-opacity:1; fill:none" points="825.868,744.416 825.868,725.518 "></polyline>
<polyline clip-path="url(#clip010)" style="stroke:#000000; stroke-linecap:round; stroke-linejoin:round; stroke-width:4; stroke-opacity:1; fill:none" points="1077.49,744.416 1077.49,725.518 "></polyline>
<polyline clip-path="url(#clip010)" style="stroke:#000000; stroke-linecap:round; stroke-linejoin:round; stroke-width:4; stroke-opacity:1; fill:none" points="1329.1,744.416 1329.1,725.518 "></polyline>
<polyline clip-path="url(#clip010)" style="stroke:#000000; stroke-linecap:round; stroke-linejoin:round; stroke-width:4; stroke-opacity:1; fill:none" points="1580.72,744.416 1580.72,725.518 "></polyline>
<path clip-path="url(#clip010)" d="M266.915 798.081 L274.554 798.081 L274.554 771.715 L266.243 773.382 L266.243 769.123 L274.507 767.456 L279.183 767.456 L279.183 798.081 L286.822 798.081 L286.822 802.016 L266.915 802.016 L266.915 798.081 Z" fill="#000000" fill-rule="nonzero" fill-opacity="1"></path><path clip-path="url(#clip010)" d="M306.266 770.535 Q302.655 770.535 300.827 774.099 Q299.021 777.641 299.021 784.771 Q299.021 791.877 300.827 795.442 Q302.655 798.983 306.266 798.983 Q309.901 798.983 311.706 795.442 Q313.535 791.877 313.535 784.771 Q313.535 777.641 311.706 774.099 Q309.901 770.535 306.266 770.535 M306.266 766.831 Q312.076 766.831 315.132 771.437 Q318.211 776.021 318.211 784.771 Q318.211 793.497 315.132 798.104 Q312.076 802.687 306.266 802.687 Q300.456 802.687 297.378 798.104 Q294.322 793.497 294.322 784.771 Q294.322 776.021 297.378 771.437 Q300.456 766.831 306.266 766.831 Z" fill="#000000" fill-rule="nonzero" fill-opacity="1"></path><path clip-path="url(#clip010)" d="M330.456 798.081 L346.775 798.081 L346.775 802.016 L324.831 802.016 L324.831 798.081 Q327.493 795.326 332.076 790.696 Q336.683 786.044 337.863 784.701 Q340.109 782.178 340.988 780.442 Q341.891 778.683 341.891 776.993 Q341.891 774.238 339.947 772.502 Q338.025 770.766 334.924 770.766 Q332.725 770.766 330.271 771.53 Q327.84 772.294 325.063 773.845 L325.063 769.123 Q327.887 767.988 330.34 767.41 Q332.794 766.831 334.831 766.831 Q340.201 766.831 343.396 769.516 Q346.59 772.201 346.59 776.692 Q346.59 778.822 345.78 780.743 Q344.993 782.641 342.887 785.234 Q342.308 785.905 339.206 789.122 Q336.104 792.317 330.456 798.081 Z" fill="#000000" fill-rule="nonzero" fill-opacity="1"></path><path clip-path="url(#clip010)" d="M369.437 771.53 L357.632 789.979 L369.437 789.979 L369.437 771.53 M368.21 767.456 L374.09 767.456 L374.09 789.979 L379.021 789.979 L379.021 793.868 L374.09 793.868 L374.09 802.016 L369.437 802.016 L369.437 793.868 L353.836 793.868 L353.836 789.354 L368.21 767.456 Z" fill="#000000" fill-rule="nonzero" fill-opacity="1"></path><path clip-path="url(#clip010)" d="M522.908 798.081 L539.227 798.081 L539.227 802.016 L517.283 802.016 L517.283 798.081 Q519.945 795.326 524.528 790.696 Q529.135 786.044 530.315 784.701 Q532.56 782.178 533.44 780.442 Q534.343 778.683 534.343 776.993 Q534.343 774.238 532.398 772.502 Q530.477 770.766 527.375 770.766 Q525.176 770.766 522.723 771.53 Q520.292 772.294 517.514 773.845 L517.514 769.123 Q520.338 767.988 522.792 767.41 Q525.246 766.831 527.283 766.831 Q532.653 766.831 535.847 769.516 Q539.042 772.201 539.042 776.692 Q539.042 778.822 538.232 780.743 Q537.445 782.641 535.338 785.234 Q534.759 785.905 531.658 789.122 Q528.556 792.317 522.908 798.081 Z" fill="#000000" fill-rule="nonzero" fill-opacity="1"></path><path clip-path="url(#clip010)" d="M559.042 770.535 Q555.431 770.535 553.602 774.099 Q551.796 777.641 551.796 784.771 Q551.796 791.877 553.602 795.442 Q555.431 798.983 559.042 798.983 Q562.676 798.983 564.482 795.442 Q566.31 791.877 566.31 784.771 Q566.31 777.641 564.482 774.099 Q562.676 770.535 559.042 770.535 M559.042 766.831 Q564.852 766.831 567.907 771.437 Q570.986 776.021 570.986 784.771 Q570.986 793.497 567.907 798.104 Q564.852 802.687 559.042 802.687 Q553.232 802.687 550.153 798.104 Q547.097 793.497 547.097 784.771 Q547.097 776.021 550.153 771.437 Q553.232 766.831 559.042 766.831 Z" fill="#000000" fill-rule="nonzero" fill-opacity="1"></path><path clip-path="url(#clip010)" d="M592.051 771.53 L580.245 789.979 L592.051 789.979 L592.051 771.53 M590.824 767.456 L596.704 767.456 L596.704 789.979 L601.634 789.979 L601.634 793.868 L596.704 793.868 L596.704 802.016 L592.051 802.016 L592.051 793.868 L576.449 793.868 L576.449 789.354 L590.824 767.456 Z" fill="#000000" fill-rule="nonzero" fill-opacity="1"></path><path clip-path="url(#clip010)" d="M619.366 785.604 Q616.032 785.604 614.111 787.386 Q612.213 789.169 612.213 792.294 Q612.213 795.419 614.111 797.201 Q616.032 798.983 619.366 798.983 Q622.699 798.983 624.62 797.201 Q626.541 795.396 626.541 792.294 Q626.541 789.169 624.62 787.386 Q622.722 785.604 619.366 785.604 M614.69 783.613 Q611.68 782.872 609.991 780.812 Q608.324 778.752 608.324 775.789 Q608.324 771.646 611.264 769.238 Q614.227 766.831 619.366 766.831 Q624.528 766.831 627.467 769.238 Q630.407 771.646 630.407 775.789 Q630.407 778.752 628.717 780.812 Q627.051 782.872 624.065 783.613 Q627.444 784.4 629.319 786.692 Q631.217 788.984 631.217 792.294 Q631.217 797.317 628.139 800.002 Q625.083 802.687 619.366 802.687 Q613.648 802.687 610.569 800.002 Q607.514 797.317 607.514 792.294 Q607.514 788.984 609.412 786.692 Q611.31 784.4 614.69 783.613 M612.977 776.229 Q612.977 778.914 614.643 780.419 Q616.333 781.923 619.366 781.923 Q622.375 781.923 624.065 780.419 Q625.778 778.914 625.778 776.229 Q625.778 773.544 624.065 772.039 Q622.375 770.535 619.366 770.535 Q616.333 770.535 614.643 772.039 Q612.977 773.544 612.977 776.229 Z" fill="#000000" fill-rule="nonzero" fill-opacity="1"></path><path clip-path="url(#clip010)" d="M783.797 771.53 L771.991 789.979 L783.797 789.979 L783.797 771.53 M782.57 767.456 L788.449 767.456 L788.449 789.979 L793.38 789.979 L793.38 793.868 L788.449 793.868 L788.449 802.016 L783.797 802.016 L783.797 793.868 L768.195 793.868 L768.195 789.354 L782.57 767.456 Z" fill="#000000" fill-rule="nonzero" fill-opacity="1"></path><path clip-path="url(#clip010)" d="M811.111 770.535 Q807.5 770.535 805.671 774.099 Q803.866 777.641 803.866 784.771 Q803.866 791.877 805.671 795.442 Q807.5 798.983 811.111 798.983 Q814.745 798.983 816.551 795.442 Q818.38 791.877 818.38 784.771 Q818.38 777.641 816.551 774.099 Q814.745 770.535 811.111 770.535 M811.111 766.831 Q816.921 766.831 819.977 771.437 Q823.056 776.021 823.056 784.771 Q823.056 793.497 819.977 798.104 Q816.921 802.687 811.111 802.687 Q805.301 802.687 802.222 798.104 Q799.167 793.497 799.167 784.771 Q799.167 776.021 802.222 771.437 Q805.301 766.831 811.111 766.831 Z" fill="#000000" fill-rule="nonzero" fill-opacity="1"></path><path clip-path="url(#clip010)" d="M831.412 801.298 L831.412 797.039 Q833.171 797.872 834.977 798.312 Q836.782 798.752 838.518 798.752 Q843.148 798.752 845.579 795.65 Q848.032 792.525 848.38 786.183 Q847.037 788.173 844.977 789.238 Q842.917 790.303 840.417 790.303 Q835.231 790.303 832.199 787.178 Q829.19 784.03 829.19 778.59 Q829.19 773.266 832.338 770.048 Q835.486 766.831 840.718 766.831 Q846.713 766.831 849.861 771.437 Q853.032 776.021 853.032 784.771 Q853.032 792.942 849.143 797.826 Q845.278 802.687 838.727 802.687 Q836.968 802.687 835.162 802.34 Q833.356 801.993 831.412 801.298 M840.718 786.646 Q843.866 786.646 845.694 784.493 Q847.546 782.34 847.546 778.59 Q847.546 774.863 845.694 772.71 Q843.866 770.535 840.718 770.535 Q837.569 770.535 835.718 772.71 Q833.889 774.863 833.889 778.59 Q833.889 782.34 835.718 784.493 Q837.569 786.646 840.718 786.646 Z" fill="#000000" fill-rule="nonzero" fill-opacity="1"></path><path clip-path="url(#clip010)" d="M872.014 782.872 Q868.866 782.872 867.014 785.025 Q865.185 787.178 865.185 790.928 Q865.185 794.655 867.014 796.831 Q868.866 798.983 872.014 798.983 Q875.162 798.983 876.99 796.831 Q878.842 794.655 878.842 790.928 Q878.842 787.178 876.99 785.025 Q875.162 782.872 872.014 782.872 M881.296 768.22 L881.296 772.479 Q879.537 771.646 877.731 771.206 Q875.949 770.766 874.19 770.766 Q869.56 770.766 867.106 773.891 Q864.676 777.016 864.328 783.335 Q865.694 781.322 867.754 780.257 Q869.815 779.169 872.291 779.169 Q877.5 779.169 880.509 782.34 Q883.541 785.488 883.541 790.928 Q883.541 796.252 880.393 799.47 Q877.245 802.687 872.014 802.687 Q866.018 802.687 862.847 798.104 Q859.676 793.497 859.676 784.771 Q859.676 776.576 863.565 771.715 Q867.453 766.831 874.004 766.831 Q875.764 766.831 877.546 767.178 Q879.352 767.525 881.296 768.22 Z" fill="#000000" fill-rule="nonzero" fill-opacity="1"></path><path clip-path="url(#clip010)" d="M1033 785.604 Q1029.66 785.604 1027.74 787.386 Q1025.84 789.169 1025.84 792.294 Q1025.84 795.419 1027.74 797.201 Q1029.66 798.983 1033 798.983 Q1036.33 798.983 1038.25 797.201 Q1040.17 795.396 1040.17 792.294 Q1040.17 789.169 1038.25 787.386 Q1036.35 785.604 1033 785.604 M1028.32 783.613 Q1025.31 782.872 1023.62 780.812 Q1021.95 778.752 1021.95 775.789 Q1021.95 771.646 1024.89 769.238 Q1027.86 766.831 1033 766.831 Q1038.16 766.831 1041.1 769.238 Q1044.04 771.646 1044.04 775.789 Q1044.04 778.752 1042.35 780.812 Q1040.68 782.872 1037.69 783.613 Q1041.07 784.4 1042.95 786.692 Q1044.85 788.984 1044.85 792.294 Q1044.85 797.317 1041.77 800.002 Q1038.71 802.687 1033 802.687 Q1027.28 802.687 1024.2 800.002 Q1021.14 797.317 1021.14 792.294 Q1021.14 788.984 1023.04 786.692 Q1024.94 784.4 1028.32 783.613 M1026.61 776.229 Q1026.61 778.914 1028.27 780.419 Q1029.96 781.923 1033 781.923 Q1036 781.923 1037.69 780.419 Q1039.41 778.914 1039.41 776.229 Q1039.41 773.544 1037.69 772.039 Q1036 770.535 1033 770.535 Q1029.96 770.535 1028.27 772.039 Q1026.61 773.544 1026.61 776.229 Z" fill="#000000" fill-rule="nonzero" fill-opacity="1"></path><path clip-path="url(#clip010)" d="M1053.97 798.081 L1061.61 798.081 L1061.61 771.715 L1053.3 773.382 L1053.3 769.123 L1061.56 767.456 L1066.24 767.456 L1066.24 798.081 L1073.87 798.081 L1073.87 802.016 L1053.97 802.016 L1053.97 798.081 Z" fill="#000000" fill-rule="nonzero" fill-opacity="1"></path><path clip-path="url(#clip010)" d="M1083.46 801.298 L1083.46 797.039 Q1085.22 797.872 1087.02 798.312 Q1088.83 798.752 1090.56 798.752 Q1095.19 798.752 1097.62 795.65 Q1100.08 792.525 1100.43 786.183 Q1099.08 788.173 1097.02 789.238 Q1094.96 790.303 1092.46 790.303 Q1087.28 790.303 1084.25 787.178 Q1081.24 784.03 1081.24 778.59 Q1081.24 773.266 1084.38 770.048 Q1087.53 766.831 1092.76 766.831 Q1098.76 766.831 1101.91 771.437 Q1105.08 776.021 1105.08 784.771 Q1105.08 792.942 1101.19 797.826 Q1097.32 802.687 1090.77 802.687 Q1089.01 802.687 1087.21 802.34 Q1085.4 801.993 1083.46 801.298 M1092.76 786.646 Q1095.91 786.646 1097.74 784.493 Q1099.59 782.34 1099.59 778.59 Q1099.59 774.863 1097.74 772.71 Q1095.91 770.535 1092.76 770.535 Q1089.62 770.535 1087.76 772.71 Q1085.94 774.863 1085.94 778.59 Q1085.94 782.34 1087.76 784.493 Q1089.62 786.646 1092.76 786.646 Z" fill="#000000" fill-rule="nonzero" fill-opacity="1"></path><path clip-path="url(#clip010)" d="M1117.51 798.081 L1133.83 798.081 L1133.83 802.016 L1111.88 802.016 L1111.88 798.081 Q1114.55 795.326 1119.13 790.696 Q1123.74 786.044 1124.92 784.701 Q1127.16 782.178 1128.04 780.442 Q1128.94 778.683 1128.94 776.993 Q1128.94 774.238 1127 772.502 Q1125.08 770.766 1121.98 770.766 Q1119.78 770.766 1117.32 771.53 Q1114.89 772.294 1112.12 773.845 L1112.12 769.123 Q1114.94 767.988 1117.39 767.41 Q1119.85 766.831 1121.88 766.831 Q1127.25 766.831 1130.45 769.516 Q1133.64 772.201 1133.64 776.692 Q1133.64 778.822 1132.83 780.743 Q1132.05 782.641 1129.94 785.234 Q1129.36 785.905 1126.26 789.122 Q1123.16 792.317 1117.51 798.081 Z" fill="#000000" fill-rule="nonzero" fill-opacity="1"></path><path clip-path="url(#clip010)" d="M1258.31 798.081 L1265.94 798.081 L1265.94 771.715 L1257.63 773.382 L1257.63 769.123 L1265.9 767.456 L1270.57 767.456 L1270.57 798.081 L1278.21 798.081 L1278.21 802.016 L1258.31 802.016 L1258.31 798.081 Z" fill="#000000" fill-rule="nonzero" fill-opacity="1"></path><path clip-path="url(#clip010)" d="M1298.24 782.872 Q1295.09 782.872 1293.24 785.025 Q1291.41 787.178 1291.41 790.928 Q1291.41 794.655 1293.24 796.831 Q1295.09 798.983 1298.24 798.983 Q1301.38 798.983 1303.21 796.831 Q1305.06 794.655 1305.06 790.928 Q1305.06 787.178 1303.21 785.025 Q1301.38 782.872 1298.24 782.872 M1307.52 768.22 L1307.52 772.479 Q1305.76 771.646 1303.95 771.206 Q1302.17 770.766 1300.41 770.766 Q1295.78 770.766 1293.33 773.891 Q1290.9 777.016 1290.55 783.335 Q1291.92 781.322 1293.98 780.257 Q1296.04 779.169 1298.51 779.169 Q1303.72 779.169 1306.73 782.34 Q1309.76 785.488 1309.76 790.928 Q1309.76 796.252 1306.62 799.47 Q1303.47 802.687 1298.24 802.687 Q1292.24 802.687 1289.07 798.104 Q1285.9 793.497 1285.9 784.771 Q1285.9 776.576 1289.79 771.715 Q1293.68 766.831 1300.23 766.831 Q1301.99 766.831 1303.77 767.178 Q1305.57 767.525 1307.52 768.22 Z" fill="#000000" fill-rule="nonzero" fill-opacity="1"></path><path clip-path="url(#clip010)" d="M1331.99 783.382 Q1335.34 784.099 1337.22 786.368 Q1339.12 788.636 1339.12 791.97 Q1339.12 797.085 1335.6 799.886 Q1332.08 802.687 1325.6 802.687 Q1323.42 802.687 1321.11 802.247 Q1318.81 801.831 1316.36 800.974 L1316.36 796.46 Q1318.31 797.595 1320.62 798.173 Q1322.94 798.752 1325.46 798.752 Q1329.86 798.752 1332.15 797.016 Q1334.46 795.28 1334.46 791.97 Q1334.46 788.914 1332.31 787.201 Q1330.18 785.465 1326.36 785.465 L1322.33 785.465 L1322.33 781.622 L1326.55 781.622 Q1330 781.622 1331.82 780.257 Q1333.65 778.868 1333.65 776.275 Q1333.65 773.613 1331.75 772.201 Q1329.88 770.766 1326.36 770.766 Q1324.44 770.766 1322.24 771.183 Q1320.04 771.599 1317.4 772.479 L1317.4 768.312 Q1320.06 767.572 1322.38 767.201 Q1324.72 766.831 1326.78 766.831 Q1332.1 766.831 1335.2 769.261 Q1338.31 771.669 1338.31 775.789 Q1338.31 778.66 1336.66 780.65 Q1335.02 782.618 1331.99 783.382 Z" fill="#000000" fill-rule="nonzero" fill-opacity="1"></path><path clip-path="url(#clip010)" d="M1357.98 785.604 Q1354.65 785.604 1352.73 787.386 Q1350.83 789.169 1350.83 792.294 Q1350.83 795.419 1352.73 797.201 Q1354.65 798.983 1357.98 798.983 Q1361.31 798.983 1363.24 797.201 Q1365.16 795.396 1365.16 792.294 Q1365.16 789.169 1363.24 787.386 Q1361.34 785.604 1357.98 785.604 M1353.31 783.613 Q1350.3 782.872 1348.61 780.812 Q1346.94 778.752 1346.94 775.789 Q1346.94 771.646 1349.88 769.238 Q1352.84 766.831 1357.98 766.831 Q1363.14 766.831 1366.08 769.238 Q1369.02 771.646 1369.02 775.789 Q1369.02 778.752 1367.33 780.812 Q1365.67 782.872 1362.68 783.613 Q1366.06 784.4 1367.93 786.692 Q1369.83 788.984 1369.83 792.294 Q1369.83 797.317 1366.75 800.002 Q1363.7 802.687 1357.98 802.687 Q1352.26 802.687 1349.19 800.002 Q1346.13 797.317 1346.13 792.294 Q1346.13 788.984 1348.03 786.692 Q1349.93 784.4 1353.31 783.613 M1351.59 776.229 Q1351.59 778.914 1353.26 780.419 Q1354.95 781.923 1357.98 781.923 Q1360.99 781.923 1362.68 780.419 Q1364.39 778.914 1364.39 776.229 Q1364.39 773.544 1362.68 772.039 Q1360.99 770.535 1357.98 770.535 Q1354.95 770.535 1353.26 772.039 Q1351.59 773.544 1351.59 776.229 Z" fill="#000000" fill-rule="nonzero" fill-opacity="1"></path><path clip-path="url(#clip010)" d="M1390.99 771.53 L1379.18 789.979 L1390.99 789.979 L1390.99 771.53 M1389.76 767.456 L1395.64 767.456 L1395.64 789.979 L1400.57 789.979 L1400.57 793.868 L1395.64 793.868 L1395.64 802.016 L1390.99 802.016 L1390.99 793.868 L1375.39 793.868 L1375.39 789.354 L1389.76 767.456 Z" fill="#000000" fill-rule="nonzero" fill-opacity="1"></path><path clip-path="url(#clip010)" d="M1524.37 783.382 Q1527.72 784.099 1529.6 786.368 Q1531.5 788.636 1531.5 791.97 Q1531.5 797.085 1527.98 799.886 Q1524.46 802.687 1517.98 802.687 Q1515.8 802.687 1513.49 802.247 Q1511.2 801.831 1508.74 800.974 L1508.74 796.46 Q1510.69 797.595 1513 798.173 Q1515.32 798.752 1517.84 798.752 Q1522.24 798.752 1524.53 797.016 Q1526.85 795.28 1526.85 791.97 Q1526.85 788.914 1524.69 787.201 Q1522.56 785.465 1518.74 785.465 L1514.72 785.465 L1514.72 781.622 L1518.93 781.622 Q1522.38 781.622 1524.21 780.257 Q1526.03 778.868 1526.03 776.275 Q1526.03 773.613 1524.14 772.201 Q1522.26 770.766 1518.74 770.766 Q1516.82 770.766 1514.62 771.183 Q1512.42 771.599 1509.79 772.479 L1509.79 768.312 Q1512.45 767.572 1514.76 767.201 Q1517.1 766.831 1519.16 766.831 Q1524.48 766.831 1527.59 769.261 Q1530.69 771.669 1530.69 775.789 Q1530.69 778.66 1529.04 780.65 Q1527.4 782.618 1524.37 783.382 Z" fill="#000000" fill-rule="nonzero" fill-opacity="1"></path><path clip-path="url(#clip010)" d="M1544.39 798.081 L1560.71 798.081 L1560.71 802.016 L1538.77 802.016 L1538.77 798.081 Q1541.43 795.326 1546.01 790.696 Q1550.62 786.044 1551.8 784.701 Q1554.04 782.178 1554.92 780.442 Q1555.83 778.683 1555.83 776.993 Q1555.83 774.238 1553.88 772.502 Q1551.96 770.766 1548.86 770.766 Q1546.66 770.766 1544.21 771.53 Q1541.78 772.294 1539 773.845 L1539 769.123 Q1541.82 767.988 1544.28 767.41 Q1546.73 766.831 1548.77 766.831 Q1554.14 766.831 1557.33 769.516 Q1560.53 772.201 1560.53 776.692 Q1560.53 778.822 1559.72 780.743 Q1558.93 782.641 1556.82 785.234 Q1556.24 785.905 1553.14 789.122 Q1550.04 792.317 1544.39 798.081 Z" fill="#000000" fill-rule="nonzero" fill-opacity="1"></path><path clip-path="url(#clip010)" d="M1569.34 767.456 L1591.57 767.456 L1591.57 769.447 L1579.02 802.016 L1574.14 802.016 L1585.94 771.391 L1569.34 771.391 L1569.34 767.456 Z" fill="#000000" fill-rule="nonzero" fill-opacity="1"></path><path clip-path="url(#clip010)" d="M1611.27 782.872 Q1608.12 782.872 1606.27 785.025 Q1604.44 787.178 1604.44 790.928 Q1604.44 794.655 1606.27 796.831 Q1608.12 798.983 1611.27 798.983 Q1614.41 798.983 1616.24 796.831 Q1618.09 794.655 1618.09 790.928 Q1618.09 787.178 1616.24 785.025 Q1614.41 782.872 1611.27 782.872 M1620.55 768.22 L1620.55 772.479 Q1618.79 771.646 1616.98 771.206 Q1615.2 770.766 1613.44 770.766 Q1608.81 770.766 1606.36 773.891 Q1603.93 777.016 1603.58 783.335 Q1604.95 781.322 1607.01 780.257 Q1609.07 779.169 1611.54 779.169 Q1616.75 779.169 1619.76 782.34 Q1622.79 785.488 1622.79 790.928 Q1622.79 796.252 1619.65 799.47 Q1616.5 802.687 1611.27 802.687 Q1605.27 802.687 1602.1 798.104 Q1598.93 793.497 1598.93 784.771 Q1598.93 776.576 1602.82 771.715 Q1606.71 766.831 1613.26 766.831 Q1615.02 766.831 1616.8 767.178 Q1618.6 767.525 1620.55 768.22 Z" fill="#000000" fill-rule="nonzero" fill-opacity="1"></path><path clip-path="url(#clip010)" d="M1640.85 785.604 Q1637.52 785.604 1635.59 787.386 Q1633.7 789.169 1633.7 792.294 Q1633.7 795.419 1635.59 797.201 Q1637.52 798.983 1640.85 798.983 Q1644.18 798.983 1646.1 797.201 Q1648.03 795.396 1648.03 792.294 Q1648.03 789.169 1646.1 787.386 Q1644.21 785.604 1640.85 785.604 M1636.17 783.613 Q1633.16 782.872 1631.47 780.812 Q1629.81 778.752 1629.81 775.789 Q1629.81 771.646 1632.75 769.238 Q1635.71 766.831 1640.85 766.831 Q1646.01 766.831 1648.95 769.238 Q1651.89 771.646 1651.89 775.789 Q1651.89 778.752 1650.2 780.812 Q1648.53 782.872 1645.55 783.613 Q1648.93 784.4 1650.8 786.692 Q1652.7 788.984 1652.7 792.294 Q1652.7 797.317 1649.62 800.002 Q1646.57 802.687 1640.85 802.687 Q1635.13 802.687 1632.05 800.002 Q1629 797.317 1629 792.294 Q1629 788.984 1630.9 786.692 Q1632.79 784.4 1636.17 783.613 M1634.46 776.229 Q1634.46 778.914 1636.13 780.419 Q1637.82 781.923 1640.85 781.923 Q1643.86 781.923 1645.55 780.419 Q1647.26 778.914 1647.26 776.229 Q1647.26 773.544 1645.55 772.039 Q1643.86 770.535 1640.85 770.535 Q1637.82 770.535 1636.13 772.039 Q1634.46 773.544 1634.46 776.229 Z" fill="#000000" fill-rule="nonzero" fill-opacity="1"></path><polyline clip-path="url(#clip010)" style="stroke:#000000; stroke-linecap:round; stroke-linejoin:round; stroke-width:4; stroke-opacity:1; fill:none" points="150.598,744.416 150.598,105.328 "></polyline>
<polyline clip-path="url(#clip010)" style="stroke:#000000; stroke-linecap:round; stroke-linejoin:round; stroke-width:4; stroke-opacity:1; fill:none" points="150.598,744.416 169.496,744.416 "></polyline>
<polyline clip-path="url(#clip010)" style="stroke:#000000; stroke-linecap:round; stroke-linejoin:round; stroke-width:4; stroke-opacity:1; fill:none" points="150.598,646.421 169.496,646.421 "></polyline>
<polyline clip-path="url(#clip010)" style="stroke:#000000; stroke-linecap:round; stroke-linejoin:round; stroke-width:4; stroke-opacity:1; fill:none" points="150.598,548.426 169.496,548.426 "></polyline>
<polyline clip-path="url(#clip010)" style="stroke:#000000; stroke-linecap:round; stroke-linejoin:round; stroke-width:4; stroke-opacity:1; fill:none" points="150.598,450.432 169.496,450.432 "></polyline>
<polyline clip-path="url(#clip010)" style="stroke:#000000; stroke-linecap:round; stroke-linejoin:round; stroke-width:4; stroke-opacity:1; fill:none" points="150.598,352.437 169.496,352.437 "></polyline>
<polyline clip-path="url(#clip010)" style="stroke:#000000; stroke-linecap:round; stroke-linejoin:round; stroke-width:4; stroke-opacity:1; fill:none" points="150.598,254.442 169.496,254.442 "></polyline>
<polyline clip-path="url(#clip010)" style="stroke:#000000; stroke-linecap:round; stroke-linejoin:round; stroke-width:4; stroke-opacity:1; fill:none" points="150.598,156.447 169.496,156.447 "></polyline>
<path clip-path="url(#clip010)" d="M66.4226 730.215 Q62.8115 730.215 60.9828 733.779 Q59.1773 737.321 59.1773 744.451 Q59.1773 751.557 60.9828 755.122 Q62.8115 758.663 66.4226 758.663 Q70.0569 758.663 71.8624 755.122 Q73.6911 751.557 73.6911 744.451 Q73.6911 737.321 71.8624 733.779 Q70.0569 730.215 66.4226 730.215 M66.4226 726.511 Q72.2328 726.511 75.2883 731.117 Q78.367 735.701 78.367 744.451 Q78.367 753.177 75.2883 757.784 Q72.2328 762.367 66.4226 762.367 Q60.6125 762.367 57.5338 757.784 Q54.4782 753.177 54.4782 744.451 Q54.4782 735.701 57.5338 731.117 Q60.6125 726.511 66.4226 726.511 Z" fill="#000000" fill-rule="nonzero" fill-opacity="1"></path><path clip-path="url(#clip010)" d="M86.5845 755.816 L91.4688 755.816 L91.4688 761.696 L86.5845 761.696 L86.5845 755.816 Z" fill="#000000" fill-rule="nonzero" fill-opacity="1"></path><path clip-path="url(#clip010)" d="M111.654 730.215 Q108.043 730.215 106.214 733.779 Q104.409 737.321 104.409 744.451 Q104.409 751.557 106.214 755.122 Q108.043 758.663 111.654 758.663 Q115.288 758.663 117.094 755.122 Q118.922 751.557 118.922 744.451 Q118.922 737.321 117.094 733.779 Q115.288 730.215 111.654 730.215 M111.654 726.511 Q117.464 726.511 120.52 731.117 Q123.598 735.701 123.598 744.451 Q123.598 753.177 120.52 757.784 Q117.464 762.367 111.654 762.367 Q105.844 762.367 102.765 757.784 Q99.7095 753.177 99.7095 744.451 Q99.7095 735.701 102.765 731.117 Q105.844 726.511 111.654 726.511 Z" fill="#000000" fill-rule="nonzero" fill-opacity="1"></path><path clip-path="url(#clip010)" d="M67.6495 632.22 Q64.0384 632.22 62.2097 635.785 Q60.4041 639.326 60.4041 646.456 Q60.4041 653.562 62.2097 657.127 Q64.0384 660.669 67.6495 660.669 Q71.2837 660.669 73.0892 657.127 Q74.9179 653.562 74.9179 646.456 Q74.9179 639.326 73.0892 635.785 Q71.2837 632.22 67.6495 632.22 M67.6495 628.516 Q73.4596 628.516 76.5152 633.123 Q79.5938 637.706 79.5938 646.456 Q79.5938 655.183 76.5152 659.789 Q73.4596 664.372 67.6495 664.372 Q61.8393 664.372 58.7606 659.789 Q55.7051 655.183 55.7051 646.456 Q55.7051 637.706 58.7606 633.123 Q61.8393 628.516 67.6495 628.516 Z" fill="#000000" fill-rule="nonzero" fill-opacity="1"></path><path clip-path="url(#clip010)" d="M87.8114 657.822 L92.6956 657.822 L92.6956 663.701 L87.8114 663.701 L87.8114 657.822 Z" fill="#000000" fill-rule="nonzero" fill-opacity="1"></path><path clip-path="url(#clip010)" d="M103.691 659.766 L111.33 659.766 L111.33 633.4 L103.02 635.067 L103.02 630.808 L111.283 629.141 L115.959 629.141 L115.959 659.766 L123.598 659.766 L123.598 663.701 L103.691 663.701 L103.691 659.766 Z" fill="#000000" fill-rule="nonzero" fill-opacity="1"></path><path clip-path="url(#clip010)" d="M68.0198 534.225 Q64.4087 534.225 62.58 537.79 Q60.7745 541.331 60.7745 548.461 Q60.7745 555.568 62.58 559.132 Q64.4087 562.674 68.0198 562.674 Q71.6541 562.674 73.4596 559.132 Q75.2883 555.568 75.2883 548.461 Q75.2883 541.331 73.4596 537.79 Q71.6541 534.225 68.0198 534.225 M68.0198 530.521 Q73.83 530.521 76.8855 535.128 Q79.9642 539.711 79.9642 548.461 Q79.9642 557.188 76.8855 561.794 Q73.83 566.378 68.0198 566.378 Q62.2097 566.378 59.131 561.794 Q56.0754 557.188 56.0754 548.461 Q56.0754 539.711 59.131 535.128 Q62.2097 530.521 68.0198 530.521 Z" fill="#000000" fill-rule="nonzero" fill-opacity="1"></path><path clip-path="url(#clip010)" d="M88.1818 559.827 L93.066 559.827 L93.066 565.706 L88.1818 565.706 L88.1818 559.827 Z" fill="#000000" fill-rule="nonzero" fill-opacity="1"></path><path clip-path="url(#clip010)" d="M107.279 561.771 L123.598 561.771 L123.598 565.706 L101.654 565.706 L101.654 561.771 Q104.316 559.017 108.899 554.387 Q113.506 549.734 114.686 548.392 Q116.932 545.868 117.811 544.132 Q118.714 542.373 118.714 540.683 Q118.714 537.929 116.77 536.193 Q114.848 534.457 111.746 534.457 Q109.547 534.457 107.094 535.22 Q104.663 535.984 101.885 537.535 L101.885 532.813 Q104.709 531.679 107.163 531.1 Q109.617 530.521 111.654 530.521 Q117.024 530.521 120.219 533.207 Q123.413 535.892 123.413 540.382 Q123.413 542.512 122.603 544.433 Q121.816 546.331 119.709 548.924 Q119.131 549.595 116.029 552.813 Q112.927 556.007 107.279 561.771 Z" fill="#000000" fill-rule="nonzero" fill-opacity="1"></path><path clip-path="url(#clip010)" d="M67.0708 436.23 Q63.4597 436.23 61.631 439.795 Q59.8254 443.337 59.8254 450.466 Q59.8254 457.573 61.631 461.138 Q63.4597 464.679 67.0708 464.679 Q70.705 464.679 72.5105 461.138 Q74.3392 457.573 74.3392 450.466 Q74.3392 443.337 72.5105 439.795 Q70.705 436.23 67.0708 436.23 M67.0708 432.527 Q72.8809 432.527 75.9365 437.133 Q79.0151 441.716 79.0151 450.466 Q79.0151 459.193 75.9365 463.8 Q72.8809 468.383 67.0708 468.383 Q61.2606 468.383 58.1819 463.8 Q55.1264 459.193 55.1264 450.466 Q55.1264 441.716 58.1819 437.133 Q61.2606 432.527 67.0708 432.527 Z" fill="#000000" fill-rule="nonzero" fill-opacity="1"></path><path clip-path="url(#clip010)" d="M87.2327 461.832 L92.1169 461.832 L92.1169 467.712 L87.2327 467.712 L87.2327 461.832 Z" fill="#000000" fill-rule="nonzero" fill-opacity="1"></path><path clip-path="url(#clip010)" d="M116.469 449.077 Q119.825 449.795 121.7 452.064 Q123.598 454.332 123.598 457.665 Q123.598 462.781 120.08 465.582 Q116.561 468.383 110.08 468.383 Q107.904 468.383 105.589 467.943 Q103.297 467.526 100.844 466.67 L100.844 462.156 Q102.788 463.29 105.103 463.869 Q107.418 464.448 109.941 464.448 Q114.339 464.448 116.631 462.712 Q118.945 460.975 118.945 457.665 Q118.945 454.61 116.793 452.897 Q114.663 451.161 110.844 451.161 L106.816 451.161 L106.816 447.318 L111.029 447.318 Q114.478 447.318 116.307 445.952 Q118.135 444.564 118.135 441.971 Q118.135 439.309 116.237 437.897 Q114.362 436.462 110.844 436.462 Q108.922 436.462 106.723 436.878 Q104.524 437.295 101.885 438.175 L101.885 434.008 Q104.547 433.267 106.862 432.897 Q109.2 432.527 111.26 432.527 Q116.584 432.527 119.686 434.957 Q122.788 437.365 122.788 441.485 Q122.788 444.355 121.145 446.346 Q119.501 448.314 116.469 449.077 Z" fill="#000000" fill-rule="nonzero" fill-opacity="1"></path><path clip-path="url(#clip010)" d="M65.9365 338.235 Q62.3254 338.235 60.4967 341.8 Q58.6912 345.342 58.6912 352.472 Q58.6912 359.578 60.4967 363.143 Q62.3254 366.684 65.9365 366.684 Q69.5707 366.684 71.3763 363.143 Q73.205 359.578 73.205 352.472 Q73.205 345.342 71.3763 341.8 Q69.5707 338.235 65.9365 338.235 M65.9365 334.532 Q71.7467 334.532 74.8022 339.138 Q77.8809 343.722 77.8809 352.472 Q77.8809 361.198 74.8022 365.805 Q71.7467 370.388 65.9365 370.388 Q60.1264 370.388 57.0477 365.805 Q53.9921 361.198 53.9921 352.472 Q53.9921 343.722 57.0477 339.138 Q60.1264 334.532 65.9365 334.532 Z" fill="#000000" fill-rule="nonzero" fill-opacity="1"></path><path clip-path="url(#clip010)" d="M86.0984 363.837 L90.9827 363.837 L90.9827 369.717 L86.0984 369.717 L86.0984 363.837 Z" fill="#000000" fill-rule="nonzero" fill-opacity="1"></path><path clip-path="url(#clip010)" d="M114.015 339.231 L102.209 357.68 L114.015 357.68 L114.015 339.231 M112.788 335.157 L118.668 335.157 L118.668 357.68 L123.598 357.68 L123.598 361.569 L118.668 361.569 L118.668 369.717 L114.015 369.717 L114.015 361.569 L98.4132 361.569 L98.4132 357.055 L112.788 335.157 Z" fill="#000000" fill-rule="nonzero" fill-opacity="1"></path><path clip-path="url(#clip010)" d="M67.418 240.241 Q63.8069 240.241 61.9782 243.806 Q60.1726 247.347 60.1726 254.477 Q60.1726 261.583 61.9782 265.148 Q63.8069 268.69 67.418 268.69 Q71.0522 268.69 72.8578 265.148 Q74.6865 261.583 74.6865 254.477 Q74.6865 247.347 72.8578 243.806 Q71.0522 240.241 67.418 240.241 M67.418 236.537 Q73.2281 236.537 76.2837 241.143 Q79.3624 245.727 79.3624 254.477 Q79.3624 263.204 76.2837 267.81 Q73.2281 272.393 67.418 272.393 Q61.6078 272.393 58.5291 267.81 Q55.4736 263.204 55.4736 254.477 Q55.4736 245.727 58.5291 241.143 Q61.6078 236.537 67.418 236.537 Z" fill="#000000" fill-rule="nonzero" fill-opacity="1"></path><path clip-path="url(#clip010)" d="M87.5799 265.842 L92.4641 265.842 L92.4641 271.722 L87.5799 271.722 L87.5799 265.842 Z" fill="#000000" fill-rule="nonzero" fill-opacity="1"></path><path clip-path="url(#clip010)" d="M102.696 237.162 L121.052 237.162 L121.052 241.097 L106.978 241.097 L106.978 249.569 Q107.996 249.222 109.015 249.06 Q110.033 248.875 111.052 248.875 Q116.839 248.875 120.219 252.046 Q123.598 255.217 123.598 260.634 Q123.598 266.213 120.126 269.315 Q116.654 272.393 110.334 272.393 Q108.159 272.393 105.89 272.023 Q103.645 271.653 101.237 270.912 L101.237 266.213 Q103.321 267.347 105.543 267.903 Q107.765 268.458 110.242 268.458 Q114.246 268.458 116.584 266.352 Q118.922 264.245 118.922 260.634 Q118.922 257.023 116.584 254.917 Q114.246 252.81 110.242 252.81 Q108.367 252.81 106.492 253.227 Q104.64 253.643 102.696 254.523 L102.696 237.162 Z" fill="#000000" fill-rule="nonzero" fill-opacity="1"></path><path clip-path="url(#clip010)" d="M66.2606 142.246 Q62.6495 142.246 60.8208 145.811 Q59.0152 149.352 59.0152 156.482 Q59.0152 163.588 60.8208 167.153 Q62.6495 170.695 66.2606 170.695 Q69.8948 170.695 71.7004 167.153 Q73.5291 163.588 73.5291 156.482 Q73.5291 149.352 71.7004 145.811 Q69.8948 142.246 66.2606 142.246 M66.2606 138.542 Q72.0707 138.542 75.1263 143.149 Q78.205 147.732 78.205 156.482 Q78.205 165.209 75.1263 169.815 Q72.0707 174.399 66.2606 174.399 Q60.4504 174.399 57.3717 169.815 Q54.3162 165.209 54.3162 156.482 Q54.3162 147.732 57.3717 143.149 Q60.4504 138.542 66.2606 138.542 Z" fill="#000000" fill-rule="nonzero" fill-opacity="1"></path><path clip-path="url(#clip010)" d="M86.4225 167.848 L91.3067 167.848 L91.3067 173.727 L86.4225 173.727 L86.4225 167.848 Z" fill="#000000" fill-rule="nonzero" fill-opacity="1"></path><path clip-path="url(#clip010)" d="M112.071 154.584 Q108.922 154.584 107.071 156.737 Q105.242 158.889 105.242 162.639 Q105.242 166.366 107.071 168.542 Q108.922 170.695 112.071 170.695 Q115.219 170.695 117.047 168.542 Q118.899 166.366 118.899 162.639 Q118.899 158.889 117.047 156.737 Q115.219 154.584 112.071 154.584 M121.353 139.931 L121.353 144.19 Q119.594 143.357 117.788 142.917 Q116.006 142.477 114.246 142.477 Q109.617 142.477 107.163 145.602 Q104.733 148.727 104.385 155.047 Q105.751 153.033 107.811 151.968 Q109.871 150.88 112.348 150.88 Q117.557 150.88 120.566 154.051 Q123.598 157.2 123.598 162.639 Q123.598 167.963 120.45 171.181 Q117.302 174.399 112.071 174.399 Q106.075 174.399 102.904 169.815 Q99.7326 165.209 99.7326 156.482 Q99.7326 148.288 103.621 143.427 Q107.51 138.542 114.061 138.542 Q115.82 138.542 117.603 138.889 Q119.408 139.237 121.353 139.931 Z" fill="#000000" fill-rule="nonzero" fill-opacity="1"></path><path clip-path="url(#clip010)" d="M657.493 41.3256 Q657.493 43.662 656.059 45.0556 Q654.665 46.4492 652.903 46.4492 Q651.345 46.4492 650.525 45.5475 Q649.705 44.6457 649.705 43.498 Q649.705 43.0061 649.91 42.3913 Q650.115 41.7355 650.566 40.9567 Q651.058 40.1779 652.083 39.604 Q653.108 39.0302 654.501 38.9482 Q654.214 38.6613 654.132 38.6203 Q653.517 38.1284 652.37 37.9644 Q652.206 37.8825 651.632 37.8825 Q648.804 37.8825 645.934 39.9729 Q643.106 42.0224 639.622 45.9164 Q635.236 50.4662 632.408 52.1467 Q644.828 53.7863 644.828 60.9594 Q644.828 62.1481 644.5 63.5827 Q643.844 66.288 643.844 68.2555 Q643.844 72.1905 646.508 72.1905 Q649.091 72.1905 650.73 69.5672 Q652.411 66.9439 653.804 61.8202 Q654.009 60.8775 654.214 60.5905 Q654.419 60.3036 654.993 60.3036 Q656.018 60.3036 656.018 61.1234 Q655.075 65.9191 652.985 69.6082 Q650.32 74.076 646.344 74.076 Q643.024 74.076 640.811 71.7806 Q638.638 69.4442 638.638 65.7552 Q638.638 64.8534 638.966 62.804 Q639.212 61.9842 639.212 61.0414 Q639.212 59.1149 638.147 57.6803 Q637.081 56.2047 635.359 55.4669 Q633.638 54.7291 632.203 54.4011 Q630.809 54.0322 629.457 53.9093 Q625.358 71.2477 624.784 72.3135 Q624.415 73.0513 623.595 73.5431 Q622.776 74.076 621.915 74.076 Q621.095 74.076 620.275 73.5022 Q619.496 72.9693 619.496 71.6986 Q619.496 71.0428 619.824 69.8541 L631.998 21.4868 L632.244 19.8472 Q632.244 19.3553 632.039 19.1094 Q631.875 18.8225 630.891 18.6175 Q629.949 18.4126 628.063 18.4126 Q627.284 18.4126 626.915 18.3716 Q626.588 18.3306 626.301 18.1256 Q626.014 17.8797 626.014 17.3878 Q626.014 16.691 626.301 16.3221 Q626.629 15.9122 626.874 15.8302 Q627.12 15.7483 627.612 15.7073 Q628.309 15.6663 630.645 15.4613 Q632.982 15.2154 634.99 15.0514 Q636.999 14.8875 637.86 14.8875 Q638.351 14.8875 638.597 15.1334 Q638.884 15.3384 638.925 15.5843 L638.966 15.7893 L630.236 51.204 Q633.843 49.7694 639.54 43.416 Q646.139 36.038 651.796 36.038 Q654.46 36.038 655.977 37.6775 Q657.493 39.2761 657.493 41.3256 Z" fill="#000000" fill-rule="nonzero" fill-opacity="1"></path><path clip-path="url(#clip010)" d="M686.106 60.3856 Q686.188 59.3609 687.787 59.3609 L739.228 59.3609 Q741.646 59.3609 741.687 60.3036 Q741.687 61.3283 739.392 61.2873 L688.36 61.2873 Q686.106 61.3283 686.106 60.3856 M686.106 43.9899 Q686.106 42.9651 687.869 43.0061 L739.146 43.0061 Q741.646 43.0061 741.687 43.9899 Q741.687 44.9326 739.556 44.9326 L687.787 44.9326 Q686.106 44.9326 686.106 43.9899 Z" fill="#000000" fill-rule="nonzero" fill-opacity="1"></path><path clip-path="url(#clip010)" d="M774.07 73.1332 Q774.07 71.6166 774.193 71.1658 Q774.357 70.7149 775.013 70.0181 L791.122 52.0648 Q799.934 42.1454 799.934 33.4966 Q799.934 27.8811 796.983 23.8641 Q794.073 19.8472 788.703 19.8472 Q785.014 19.8472 781.899 22.1016 Q778.784 24.356 777.349 28.373 Q777.595 28.291 778.456 28.291 Q780.546 28.291 781.694 29.6026 Q782.883 30.9143 782.883 32.6768 Q782.883 34.9312 781.407 36.038 Q779.973 37.1037 778.538 37.1037 Q777.964 37.1037 777.185 36.9807 Q776.448 36.8577 775.259 35.71 Q774.07 34.5214 774.07 32.4309 Q774.07 26.5694 778.497 21.8967 Q782.965 17.2239 789.769 17.2239 Q797.475 17.2239 802.517 21.8147 Q807.599 26.3645 807.599 33.4966 Q807.599 35.997 806.821 38.2924 Q806.083 40.5468 805.058 42.3093 Q804.074 44.0719 801.369 46.9001 Q798.664 49.7284 796.491 51.7368 Q794.319 53.7453 789.441 58.0082 L780.546 66.6569 L795.671 66.6569 Q803.05 66.6569 803.623 66.0011 Q804.443 64.8124 805.468 58.5411 L807.599 58.5411 L805.222 73.1332 L774.07 73.1332 Z" fill="#000000" fill-rule="nonzero" fill-opacity="1"></path><path clip-path="url(#clip010)" d="M816.831 71.7806 Q815.642 70.428 815.642 68.6654 Q815.642 66.9029 816.79 65.5912 Q817.979 64.2386 820.11 64.2386 Q822.611 64.2386 824.045 66.6569 Q825.48 69.0343 825.48 73.0513 Q825.48 77.3961 823.717 81.4131 Q821.955 85.471 820.233 87.3975 Q818.512 89.324 817.815 89.324 Q816.995 89.324 816.995 88.4223 Q816.995 88.0943 817.569 87.4795 Q823.594 81.0032 823.635 73.0513 Q823.635 71.7806 823.471 71.7806 L823.266 71.9446 Q821.832 73.1332 820.11 73.1332 Q818.02 73.1332 816.831 71.7806 Z" fill="#000000" fill-rule="nonzero" fill-opacity="1"></path><path clip-path="url(#clip010)" d="M891.935 15.7893 L879.844 64.3206 Q879.352 66.493 879.352 68.3375 Q879.352 72.1905 881.852 72.1905 Q883.082 72.1905 884.066 71.4117 Q885.049 70.6329 885.828 68.9933 Q886.607 67.3538 887.099 65.8372 Q887.591 64.2796 888.246 61.8202 Q888.451 60.8365 888.615 60.5905 Q888.82 60.3036 889.394 60.3036 Q890.419 60.3036 890.419 61.1234 Q889.312 66.411 887.878 69.4442 Q885.582 74.076 881.688 74.076 Q878.737 74.076 876.646 72.2725 Q874.556 70.4689 874.064 67.7637 Q868.695 74.076 863.12 74.076 Q858.201 74.076 855.086 70.346 Q851.971 66.575 851.971 60.6315 Q851.971 54.6471 854.922 48.9086 Q857.914 43.1701 862.628 39.604 Q867.342 36.038 872.179 36.038 Q877.302 36.038 879.926 41.4075 L884.967 21.4868 L885.213 19.8472 Q885.213 19.3553 885.008 19.1094 Q884.844 18.8225 883.861 18.6175 Q882.918 18.4126 881.032 18.4126 Q880.254 18.4126 879.885 18.3716 Q879.557 18.3306 879.27 18.1256 Q878.983 17.8797 878.983 17.3878 Q878.983 15.9532 880.172 15.7893 Q888.041 14.8875 890.829 14.8875 Q891.321 14.8875 891.608 15.1334 Q891.894 15.3384 891.894 15.5843 L891.935 15.7893 M878.901 45.2605 Q878.901 44.8916 878.614 43.8669 Q878.327 42.8422 877.671 41.4075 Q877.015 39.9729 875.581 38.9482 Q874.187 37.8825 872.302 37.8825 Q869.76 37.8825 867.096 40.0549 Q864.473 42.2273 862.546 45.9164 Q861.071 48.8676 859.472 55.057 Q857.914 61.2464 857.914 64.3206 Q857.914 66.2061 858.324 67.8866 Q858.775 69.5262 860.046 70.8788 Q861.316 72.1905 863.284 72.1905 Q868.08 72.1905 872.793 66.2471 Q873.695 65.2223 873.9 64.8124 Q874.146 64.3615 874.474 63.1319 L878.655 46.6952 Q878.901 45.4655 878.901 45.2605 Z" fill="#000000" fill-rule="nonzero" fill-opacity="1"></path><path clip-path="url(#clip010)" d="M900.505 97.43 L900.505 95.6223 Q903.633 95.6223 904.35 95.2493 Q905.067 94.8476 905.067 92.9539 L905.067 77.1444 Q905.067 74.9637 904.321 74.4473 Q903.604 73.9308 900.735 73.9308 L900.735 72.0945 L908.941 71.4633 L908.941 93.0113 Q908.941 94.7616 909.572 95.192 Q910.203 95.6223 913.072 95.6223 L913.072 97.43 Q907.076 97.2578 906.961 97.2578 Q906.158 97.2578 900.505 97.43 M902.973 61.22 Q902.973 60.0436 903.862 59.0968 Q904.78 58.1213 906.071 58.1213 Q907.363 58.1213 908.281 59.0107 Q909.199 59.8715 909.199 61.2487 Q909.199 62.5973 908.281 63.4867 Q907.363 64.3475 906.071 64.3475 Q904.723 64.3475 903.833 63.4007 Q902.973 62.4538 902.973 61.22 Z" fill="#000000" fill-rule="nonzero" fill-opacity="1"></path><path clip-path="url(#clip010)" d="M917.089 97.43 L917.089 95.6223 Q920.216 95.6223 920.934 95.2493 Q921.651 94.8476 921.651 92.9539 L921.651 77.2018 Q921.651 75.0211 920.876 74.476 Q920.13 73.9308 917.089 73.9308 L917.089 72.0945 L925.352 71.4633 L925.352 77.6321 Q928.107 71.4633 934.046 71.4633 Q938.465 71.4633 940.215 73.6439 Q941.506 75.1072 941.764 76.7427 Q942.051 78.3782 942.051 82.6246 L942.051 93.8434 Q942.109 95.0772 943.056 95.3641 Q944.002 95.6223 946.642 95.6223 L946.642 97.43 Q940.645 97.2578 940.043 97.2578 Q939.584 97.2578 933.415 97.43 L933.415 95.6223 Q936.542 95.6223 937.26 95.2493 Q938.006 94.8476 938.006 92.9539 L938.006 79.2676 Q938.006 76.2836 937.088 74.5334 Q936.169 72.7544 933.644 72.7544 Q930.603 72.7544 928.164 75.3081 Q925.725 77.8617 925.725 82.1656 L925.725 92.9539 Q925.725 94.8476 926.443 95.2493 Q927.189 95.6223 930.287 95.6223 L930.287 97.43 Q924.291 97.2578 923.717 97.2578 Q923.258 97.2578 917.089 97.43 Z" fill="#000000" fill-rule="nonzero" fill-opacity="1"></path><path clip-path="url(#clip010)" d="M949.608 73.9308 L949.608 72.6397 Q952.305 72.5249 954.084 70.6312 Q955.891 68.7088 956.494 66.356 Q957.125 64.0032 957.182 61.2774 L958.646 61.2774 L958.646 72.0945 L967.053 72.0945 L967.053 73.9308 L958.646 73.9308 L958.646 90.2568 Q958.646 96.5979 962.605 96.5979 Q964.298 96.5979 965.417 94.8763 Q966.536 93.1261 966.536 90.0273 L966.536 86.7851 L967.999 86.7851 L967.999 90.1421 Q967.999 93.3269 966.536 95.7084 Q965.073 98.0899 962.175 98.0899 Q961.113 98.0899 960.052 97.803 Q959.019 97.5447 957.641 96.8561 Q956.293 96.1388 955.432 94.4173 Q954.6 92.667 954.6 90.1421 L954.6 73.9308 L949.608 73.9308 Z" fill="#000000" fill-rule="nonzero" fill-opacity="1"></path><path clip-path="url(#clip010)" d="M981.132 52.1467 Q981.132 37.9644 986.419 26.5284 Q988.674 21.7327 991.83 17.7157 Q994.986 13.6988 997.077 11.9363 Q999.167 10.1737 999.741 10.1737 Q1000.56 10.1737 1000.6 10.9935 Q1000.6 11.4034 999.495 12.4281 Q985.969 26.2005 986.01 52.1467 Q986.01 78.1749 999.167 91.4145 Q1000.6 92.8491 1000.6 93.3 Q1000.6 94.1198 999.741 94.1198 Q999.167 94.1198 997.159 92.4392 Q995.15 90.7586 992.035 86.9056 Q988.92 83.0527 986.665 78.3389 Q981.132 66.9029 981.132 52.1467 Z" fill="#000000" fill-rule="nonzero" fill-opacity="1"></path><path clip-path="url(#clip010)" d="M1058.46 14.8055 L1053.91 33.1687 Q1053.67 34.2754 1053.46 34.5623 Q1053.26 34.8493 1052.69 34.8493 Q1052.23 34.8493 1051.95 34.6443 Q1051.7 34.4394 1051.7 34.2344 L1051.66 34.0295 Q1051.66 33.9065 1051.74 33.2917 Q1051.82 32.6358 1051.91 31.5701 Q1051.99 30.5044 1051.99 29.3157 Q1051.99 22.5935 1048.71 19.4783 Q1045.47 16.3221 1039.9 16.3221 Q1036.04 16.3221 1032.6 18.3716 Q1029.16 20.421 1027.19 23.6592 Q1025.22 26.8564 1025.22 30.2175 Q1025.22 33.2917 1026.78 35.2592 Q1028.34 37.2266 1030.35 37.8825 L1035.96 39.3991 Q1041.86 40.9157 1043.54 41.5715 Q1045.23 42.1863 1046.62 43.58 Q1050.76 47.433 1050.76 53.4174 Q1050.76 58.5821 1047.85 63.5827 Q1044.94 68.5425 1039.94 71.7806 Q1034.94 74.9778 1029.4 74.9778 Q1019.69 74.9778 1015.22 68.9523 L1011.12 73.7071 Q1010.34 74.6089 1010.1 74.7728 Q1009.89 74.9778 1009.61 74.9778 Q1009.24 74.9778 1008.95 74.7318 Q1008.66 74.5269 1008.66 74.158 Q1008.66 73.8711 1011.08 64.2386 Q1013.5 54.6061 1013.7 54.4011 Q1014.03 54.0732 1014.57 54.0732 Q1015.55 54.0732 1015.55 55.016 Q1015.47 55.2619 1015.38 55.5898 Q1014.89 58.5411 1014.89 60.1396 Q1014.89 63.1319 1015.92 65.4273 Q1016.94 67.6817 1018.46 68.9933 Q1020.02 70.264 1022.11 71.0838 Q1024.2 71.8626 1025.96 72.1495 Q1027.72 72.3954 1029.57 72.3954 Q1033.54 72.3954 1037.07 70.1 Q1040.63 67.8046 1042.64 64.2386 Q1044.69 60.6725 1044.69 56.9425 Q1044.69 54.975 1044.16 53.4584 Q1043.63 51.9008 1042.89 51.04 Q1042.19 50.1793 1041 49.5234 Q1039.81 48.8676 1038.99 48.6217 Q1038.22 48.3347 1036.99 48.0478 L1028.01 45.6704 Q1024.4 44.6047 1021.82 41.5305 Q1019.28 38.4563 1019.28 33.7426 Q1019.28 28.7829 1022.19 24.1921 Q1025.14 19.5603 1029.94 16.773 Q1034.77 13.9447 1039.98 13.9447 Q1044.08 13.9447 1047.23 15.5433 Q1050.39 17.1009 1051.99 20.0111 L1056.05 15.2154 Q1056.87 14.2726 1057.03 14.1087 Q1057.23 13.9447 1057.52 13.9447 Q1058.01 13.9447 1058.22 14.2317 Q1058.46 14.5186 1058.46 14.8055 Z" fill="#000000" fill-rule="nonzero" fill-opacity="1"></path><path clip-path="url(#clip010)" d="M1064.65 93.3 Q1064.65 92.8901 1065.72 91.8654 Q1079.25 78.093 1079.25 52.1467 Q1079.25 26.1185 1066.25 12.961 Q1064.65 11.4444 1064.65 10.9935 Q1064.65 10.1737 1065.47 10.1737 Q1066.05 10.1737 1068.06 11.8543 Q1070.1 13.5348 1073.18 17.3878 Q1076.29 21.2408 1078.59 25.9546 Q1084.12 37.3906 1084.12 52.1467 Q1084.12 66.329 1078.84 77.765 Q1076.58 82.5608 1073.42 86.5777 Q1070.27 90.5947 1068.18 92.3572 Q1066.09 94.1198 1065.47 94.1198 Q1064.65 94.1198 1064.65 93.3 Z" fill="#000000" fill-rule="nonzero" fill-opacity="1"></path><path clip-path="url(#clip010)" d="M1120.18 60.3856 Q1120.26 59.3609 1121.86 59.3609 L1173.3 59.3609 Q1175.72 59.3609 1175.76 60.3036 Q1175.76 61.3283 1173.47 61.2873 L1122.43 61.2873 Q1120.18 61.3283 1120.18 60.3856 M1120.18 43.9899 Q1120.18 42.9651 1121.94 43.0061 L1173.22 43.0061 Q1175.72 43.0061 1175.76 43.9899 Q1175.76 44.9326 1173.63 44.9326 L1121.86 44.9326 Q1120.18 44.9326 1120.18 43.9899 Z" fill="#000000" fill-rule="nonzero" fill-opacity="1"></path><path clip-path="url(#clip010)" d="M1208.14 25.2168 L1208.14 22.5935 Q1218.23 22.5935 1223.43 17.2239 Q1224.87 17.2239 1225.11 17.5518 Q1225.36 17.8797 1225.36 19.3963 L1225.36 66.493 Q1225.36 68.9933 1226.59 69.7721 Q1227.82 70.5509 1233.19 70.5509 L1235.85 70.5509 L1235.85 73.1332 Q1232.9 72.8873 1222.24 72.8873 Q1211.59 72.8873 1208.68 73.1332 L1208.68 70.5509 L1211.34 70.5509 Q1216.63 70.5509 1217.9 69.8131 Q1219.17 69.0343 1219.17 66.493 L1219.17 23.0034 Q1214.78 25.2168 1208.14 25.2168 Z" fill="#000000" fill-rule="nonzero" fill-opacity="1"></path><path clip-path="url(#clip010)" d="M1242.29 61.8202 Q1242.29 59.3199 1243.72 58.1312 Q1245.15 56.9425 1247 56.9425 Q1248.93 56.9425 1250.28 58.2132 Q1251.67 59.4428 1251.67 61.6153 Q1251.67 63.9517 1250.03 65.2633 Q1248.43 66.575 1246.14 66.2471 Q1248.15 69.6082 1251.84 71.1248 Q1255.57 72.6414 1259.01 72.6414 Q1262.62 72.6414 1265.53 69.5262 Q1268.48 66.411 1268.48 58.787 Q1268.48 52.3107 1265.94 48.5807 Q1263.44 44.8506 1258.48 44.8506 L1254.79 44.8506 Q1253.52 44.8506 1253.15 44.7277 Q1252.78 44.6047 1252.78 43.9079 Q1252.78 43.0881 1254.05 42.9242 Q1255.32 42.9242 1257.33 42.6782 Q1262.21 42.5143 1264.79 38.2924 Q1267.12 34.3574 1267.12 28.7419 Q1267.12 23.6182 1264.67 21.4868 Q1262.25 19.3143 1259.09 19.3143 Q1256.14 19.3143 1252.9 20.544 Q1249.66 21.7737 1247.9 24.52 Q1253.11 24.52 1253.11 28.7419 Q1253.11 30.5864 1251.92 31.8161 Q1250.77 33.0047 1248.84 33.0047 Q1247 33.0047 1245.77 31.857 Q1244.54 30.6684 1244.54 28.6599 Q1244.54 23.8641 1248.8 20.544 Q1253.11 17.2239 1259.42 17.2239 Q1265.65 17.2239 1270.24 20.503 Q1274.87 23.7822 1274.87 28.8238 Q1274.87 33.7835 1271.59 37.8415 Q1268.31 41.8994 1263.11 43.58 Q1269.5 44.8506 1273.31 49.1955 Q1277.13 53.4994 1277.13 58.787 Q1277.13 65.3453 1271.96 70.182 Q1266.8 74.9778 1259.26 74.9778 Q1252.29 74.9778 1247.29 71.2068 Q1242.29 67.4357 1242.29 61.8202 Z" fill="#000000" fill-rule="nonzero" fill-opacity="1"></path><path clip-path="url(#clip012)" d="M234.566 388.69 L234.566 744.416 L263.921 744.416 L263.921 388.69 L234.566 388.69 L234.566 388.69  Z" fill="#009af9" fill-rule="evenodd" fill-opacity="1"></path>
<polyline clip-path="url(#clip012)" style="stroke:#000000; stroke-linecap:round; stroke-linejoin:round; stroke-width:4; stroke-opacity:1; fill:none" points="234.566,388.69 234.566,744.416 263.921,744.416 263.921,388.69 234.566,388.69 "></polyline>
<path clip-path="url(#clip012)" d="M486.184 446.714 L486.184 744.416 L515.539 744.416 L515.539 446.714 L486.184 446.714 L486.184 446.714  Z" fill="#009af9" fill-rule="evenodd" fill-opacity="1"></path>
<polyline clip-path="url(#clip012)" style="stroke:#000000; stroke-linecap:round; stroke-linejoin:round; stroke-width:4; stroke-opacity:1; fill:none" points="486.184,446.714 486.184,744.416 515.539,744.416 515.539,446.714 486.184,446.714 "></polyline>
<path clip-path="url(#clip012)" d="M737.802 492.832 L737.802 744.416 L767.157 744.416 L767.157 492.832 L737.802 492.832 L737.802 492.832  Z" fill="#009af9" fill-rule="evenodd" fill-opacity="1"></path>
<polyline clip-path="url(#clip012)" style="stroke:#000000; stroke-linecap:round; stroke-linejoin:round; stroke-width:4; stroke-opacity:1; fill:none" points="737.802,492.832 737.802,744.416 767.157,744.416 767.157,492.832 737.802,492.832 "></polyline>
<path clip-path="url(#clip012)" d="M989.42 554.69 L989.42 744.416 L1018.78 744.416 L1018.78 554.69 L989.42 554.69 L989.42 554.69  Z" fill="#009af9" fill-rule="evenodd" fill-opacity="1"></path>
<polyline clip-path="url(#clip012)" style="stroke:#000000; stroke-linecap:round; stroke-linejoin:round; stroke-width:4; stroke-opacity:1; fill:none" points="989.42,554.69 989.42,744.416 1018.78,744.416 1018.78,554.69 989.42,554.69 "></polyline>
<path clip-path="url(#clip012)" d="M1241.04 620.552 L1241.04 744.416 L1270.39 744.416 L1270.39 620.552 L1241.04 620.552 L1241.04 620.552  Z" fill="#009af9" fill-rule="evenodd" fill-opacity="1"></path>
<polyline clip-path="url(#clip012)" style="stroke:#000000; stroke-linecap:round; stroke-linejoin:round; stroke-width:4; stroke-opacity:1; fill:none" points="1241.04,620.552 1241.04,744.416 1270.39,744.416 1270.39,620.552 1241.04,620.552 "></polyline>
<path clip-path="url(#clip012)" d="M1492.66 638.353 L1492.66 744.416 L1522.01 744.416 L1522.01 638.353 L1492.66 638.353 L1492.66 638.353  Z" fill="#009af9" fill-rule="evenodd" fill-opacity="1"></path>
<polyline clip-path="url(#clip012)" style="stroke:#000000; stroke-linecap:round; stroke-linejoin:round; stroke-width:4; stroke-opacity:1; fill:none" points="1492.66,638.353 1492.66,744.416 1522.01,744.416 1522.01,638.353 1492.66,638.353 "></polyline>
<circle clip-path="url(#clip012)" style="fill:#009af9; stroke:none; fill-opacity:0" cx="249.243" cy="388.69" r="2"></circle>
<circle clip-path="url(#clip012)" style="fill:#009af9; stroke:none; fill-opacity:0" cx="500.861" cy="446.714" r="2"></circle>
<circle clip-path="url(#clip012)" style="fill:#009af9; stroke:none; fill-opacity:0" cx="752.479" cy="492.832" r="2"></circle>
<circle clip-path="url(#clip012)" style="fill:#009af9; stroke:none; fill-opacity:0" cx="1004.1" cy="554.69" r="2"></circle>
<circle clip-path="url(#clip012)" style="fill:#009af9; stroke:none; fill-opacity:0" cx="1255.72" cy="620.552" r="2"></circle>
<circle clip-path="url(#clip012)" style="fill:#009af9; stroke:none; fill-opacity:0" cx="1507.33" cy="638.353" r="2"></circle>
<path clip-path="url(#clip012)" d="M263.921 105.328 L263.921 744.416 L293.277 744.416 L293.277 105.328 L263.921 105.328 L263.921 105.328  Z" fill="#e26f46" fill-rule="evenodd" fill-opacity="1"></path>
<polyline clip-path="url(#clip012)" style="stroke:#000000; stroke-linecap:round; stroke-linejoin:round; stroke-width:4; stroke-opacity:1; fill:none" points="263.921,105.328 263.921,744.416 293.277,744.416 293.277,105.328 263.921,105.328 "></polyline>
<path clip-path="url(#clip012)" d="M515.539 173.029 L515.539 744.416 L544.895 744.416 L544.895 173.029 L515.539 173.029 L515.539 173.029  Z" fill="#e26f46" fill-rule="evenodd" fill-opacity="1"></path>
<polyline clip-path="url(#clip012)" style="stroke:#000000; stroke-linecap:round; stroke-linejoin:round; stroke-width:4; stroke-opacity:1; fill:none" points="515.539,173.029 515.539,744.416 544.895,744.416 544.895,173.029 515.539,173.029 "></polyline>
<path clip-path="url(#clip012)" d="M767.157 377.641 L767.157 744.416 L796.513 744.416 L796.513 377.641 L767.157 377.641 L767.157 377.641  Z" fill="#e26f46" fill-rule="evenodd" fill-opacity="1"></path>
<polyline clip-path="url(#clip012)" style="stroke:#000000; stroke-linecap:round; stroke-linejoin:round; stroke-width:4; stroke-opacity:1; fill:none" points="767.157,377.641 767.157,744.416 796.513,744.416 796.513,377.641 767.157,377.641 "></polyline>
<path clip-path="url(#clip012)" d="M1018.78 495.442 L1018.78 744.416 L1048.13 744.416 L1048.13 495.442 L1018.78 495.442 L1018.78 495.442  Z" fill="#e26f46" fill-rule="evenodd" fill-opacity="1"></path>
<polyline clip-path="url(#clip012)" style="stroke:#000000; stroke-linecap:round; stroke-linejoin:round; stroke-width:4; stroke-opacity:1; fill:none" points="1018.78,495.442 1018.78,744.416 1048.13,744.416 1048.13,495.442 1018.78,495.442 "></polyline>
<path clip-path="url(#clip012)" d="M1270.39 513.38 L1270.39 744.416 L1299.75 744.416 L1299.75 513.38 L1270.39 513.38 L1270.39 513.38  Z" fill="#e26f46" fill-rule="evenodd" fill-opacity="1"></path>
<polyline clip-path="url(#clip012)" style="stroke:#000000; stroke-linecap:round; stroke-linejoin:round; stroke-width:4; stroke-opacity:1; fill:none" points="1270.39,513.38 1270.39,744.416 1299.75,744.416 1299.75,513.38 1270.39,513.38 "></polyline>
<path clip-path="url(#clip012)" d="M1522.01 603.426 L1522.01 744.416 L1551.37 744.416 L1551.37 603.426 L1522.01 603.426 L1522.01 603.426  Z" fill="#e26f46" fill-rule="evenodd" fill-opacity="1"></path>
<polyline clip-path="url(#clip012)" style="stroke:#000000; stroke-linecap:round; stroke-linejoin:round; stroke-width:4; stroke-opacity:1; fill:none" points="1522.01,603.426 1522.01,744.416 1551.37,744.416 1551.37,603.426 1522.01,603.426 "></polyline>
<circle clip-path="url(#clip012)" style="fill:#e26f46; stroke:none; fill-opacity:0" cx="530.217" cy="173.029" r="2"></circle>
<circle clip-path="url(#clip012)" style="fill:#e26f46; stroke:none; fill-opacity:0" cx="781.835" cy="377.641" r="2"></circle>
<circle clip-path="url(#clip012)" style="fill:#e26f46; stroke:none; fill-opacity:0" cx="1033.45" cy="495.442" r="2"></circle>
<circle clip-path="url(#clip012)" style="fill:#e26f46; stroke:none; fill-opacity:0" cx="1285.07" cy="513.38" r="2"></circle>
<circle clip-path="url(#clip012)" style="fill:#e26f46; stroke:none; fill-opacity:0" cx="1536.69" cy="603.426" r="2"></circle>
<path clip-path="url(#clip012)" d="M293.277 248.317 L293.277 744.416 L322.632 744.416 L322.632 248.317 L293.277 248.317 L293.277 248.317  Z" fill="#3da44d" fill-rule="evenodd" fill-opacity="1"></path>
<polyline clip-path="url(#clip012)" style="stroke:#000000; stroke-linecap:round; stroke-linejoin:round; stroke-width:4; stroke-opacity:1; fill:none" points="293.277,248.317 293.277,744.416 322.632,744.416 322.632,248.317 293.277,248.317 "></polyline>
<path clip-path="url(#clip012)" d="M544.895 420.549 L544.895 744.416 L574.25 744.416 L574.25 420.549 L544.895 420.549 L544.895 420.549  Z" fill="#3da44d" fill-rule="evenodd" fill-opacity="1"></path>
<polyline clip-path="url(#clip012)" style="stroke:#000000; stroke-linecap:round; stroke-linejoin:round; stroke-width:4; stroke-opacity:1; fill:none" points="544.895,420.549 544.895,744.416 574.25,744.416 574.25,420.549 544.895,420.549 "></polyline>
<path clip-path="url(#clip012)" d="M796.513 513.968 L796.513 744.416 L825.868 744.416 L825.868 513.968 L796.513 513.968 L796.513 513.968  Z" fill="#3da44d" fill-rule="evenodd" fill-opacity="1"></path>
<polyline clip-path="url(#clip012)" style="stroke:#000000; stroke-linecap:round; stroke-linejoin:round; stroke-width:4; stroke-opacity:1; fill:none" points="796.513,513.968 796.513,744.416 825.868,744.416 825.868,513.968 796.513,513.968 "></polyline>
<path clip-path="url(#clip012)" d="M1048.13 578.552 L1048.13 744.416 L1077.49 744.416 L1077.49 578.552 L1048.13 578.552 L1048.13 578.552  Z" fill="#3da44d" fill-rule="evenodd" fill-opacity="1"></path>
<polyline clip-path="url(#clip012)" style="stroke:#000000; stroke-linecap:round; stroke-linejoin:round; stroke-width:4; stroke-opacity:1; fill:none" points="1048.13,578.552 1048.13,744.416 1077.49,744.416 1077.49,578.552 1048.13,578.552 "></polyline>
<path clip-path="url(#clip012)" d="M1299.75 622.97 L1299.75 744.416 L1329.1 744.416 L1329.1 622.97 L1299.75 622.97 L1299.75 622.97  Z" fill="#3da44d" fill-rule="evenodd" fill-opacity="1"></path>
<polyline clip-path="url(#clip012)" style="stroke:#000000; stroke-linecap:round; stroke-linejoin:round; stroke-width:4; stroke-opacity:1; fill:none" points="1299.75,622.97 1299.75,744.416 1329.1,744.416 1329.1,622.97 1299.75,622.97 "></polyline>
<path clip-path="url(#clip012)" d="M1551.37 659.646 L1551.37 744.416 L1580.72 744.416 L1580.72 659.646 L1551.37 659.646 L1551.37 659.646  Z" fill="#3da44d" fill-rule="evenodd" fill-opacity="1"></path>
<polyline clip-path="url(#clip012)" style="stroke:#000000; stroke-linecap:round; stroke-linejoin:round; stroke-width:4; stroke-opacity:1; fill:none" points="1551.37,659.646 1551.37,744.416 1580.72,744.416 1580.72,659.646 1551.37,659.646 "></polyline>
<circle clip-path="url(#clip012)" style="fill:#3da44d; stroke:none; fill-opacity:0" cx="307.954" cy="248.317" r="2"></circle>
<circle clip-path="url(#clip012)" style="fill:#3da44d; stroke:none; fill-opacity:0" cx="559.572" cy="420.549" r="2"></circle>
<circle clip-path="url(#clip012)" style="fill:#3da44d; stroke:none; fill-opacity:0" cx="811.19" cy="513.968" r="2"></circle>
<circle clip-path="url(#clip012)" style="fill:#3da44d; stroke:none; fill-opacity:0" cx="1062.81" cy="578.552" r="2"></circle>
<circle clip-path="url(#clip012)" style="fill:#3da44d; stroke:none; fill-opacity:0" cx="1314.43" cy="622.97" r="2"></circle>
<circle clip-path="url(#clip012)" style="fill:#3da44d; stroke:none; fill-opacity:0" cx="1566.04" cy="659.646" r="2"></circle>
<path clip-path="url(#clip012)" d="M322.632 391.009 L322.632 744.416 L351.987 744.416 L351.987 391.009 L322.632 391.009 L322.632 391.009  Z" fill="#c271d2" fill-rule="evenodd" fill-opacity="1"></path>
<polyline clip-path="url(#clip012)" style="stroke:#000000; stroke-linecap:round; stroke-linejoin:round; stroke-width:4; stroke-opacity:1; fill:none" points="322.632,391.009 322.632,744.416 351.987,744.416 351.987,391.009 322.632,391.009 "></polyline>
<path clip-path="url(#clip012)" d="M574.25 417.369 L574.25 744.416 L603.605 744.416 L603.605 417.369 L574.25 417.369 L574.25 417.369  Z" fill="#c271d2" fill-rule="evenodd" fill-opacity="1"></path>
<polyline clip-path="url(#clip012)" style="stroke:#000000; stroke-linecap:round; stroke-linejoin:round; stroke-width:4; stroke-opacity:1; fill:none" points="574.25,417.369 574.25,744.416 603.605,744.416 603.605,417.369 574.25,417.369 "></polyline>
<path clip-path="url(#clip012)" d="M825.868 479.18 L825.868 744.416 L855.223 744.416 L855.223 479.18 L825.868 479.18 L825.868 479.18  Z" fill="#c271d2" fill-rule="evenodd" fill-opacity="1"></path>
<polyline clip-path="url(#clip012)" style="stroke:#000000; stroke-linecap:round; stroke-linejoin:round; stroke-width:4; stroke-opacity:1; fill:none" points="825.868,479.18 825.868,744.416 855.223,744.416 855.223,479.18 825.868,479.18 "></polyline>
<path clip-path="url(#clip012)" d="M1077.49 574.365 L1077.49 744.416 L1106.84 744.416 L1106.84 574.365 L1077.49 574.365 L1077.49 574.365  Z" fill="#c271d2" fill-rule="evenodd" fill-opacity="1"></path>
<polyline clip-path="url(#clip012)" style="stroke:#000000; stroke-linecap:round; stroke-linejoin:round; stroke-width:4; stroke-opacity:1; fill:none" points="1077.49,574.365 1077.49,744.416 1106.84,744.416 1106.84,574.365 1077.49,574.365 "></polyline>
<path clip-path="url(#clip012)" d="M1329.1 630.786 L1329.1 744.416 L1358.46 744.416 L1358.46 630.786 L1329.1 630.786 L1329.1 630.786  Z" fill="#c271d2" fill-rule="evenodd" fill-opacity="1"></path>
<polyline clip-path="url(#clip012)" style="stroke:#000000; stroke-linecap:round; stroke-linejoin:round; stroke-width:4; stroke-opacity:1; fill:none" points="1329.1,630.786 1329.1,744.416 1358.46,744.416 1358.46,630.786 1329.1,630.786 "></polyline>
<path clip-path="url(#clip012)" d="M1580.72 668.786 L1580.72 744.416 L1610.08 744.416 L1610.08 668.786 L1580.72 668.786 L1580.72 668.786  Z" fill="#c271d2" fill-rule="evenodd" fill-opacity="1"></path>
<polyline clip-path="url(#clip012)" style="stroke:#000000; stroke-linecap:round; stroke-linejoin:round; stroke-width:4; stroke-opacity:1; fill:none" points="1580.72,668.786 1580.72,744.416 1610.08,744.416 1610.08,668.786 1580.72,668.786 "></polyline>
<circle clip-path="url(#clip012)" style="fill:#c271d2; stroke:none; fill-opacity:0" cx="337.31" cy="391.009" r="2"></circle>
<circle clip-path="url(#clip012)" style="fill:#c271d2; stroke:none; fill-opacity:0" cx="588.928" cy="417.369" r="2"></circle>
<circle clip-path="url(#clip012)" style="fill:#c271d2; stroke:none; fill-opacity:0" cx="840.546" cy="479.18" r="2"></circle>
<circle clip-path="url(#clip012)" style="fill:#c271d2; stroke:none; fill-opacity:0" cx="1092.16" cy="574.365" r="2"></circle>
<circle clip-path="url(#clip012)" style="fill:#c271d2; stroke:none; fill-opacity:0" cx="1343.78" cy="630.786" r="2"></circle>
<circle clip-path="url(#clip012)" style="fill:#c271d2; stroke:none; fill-opacity:0" cx="1595.4" cy="668.786" r="2"></circle>
<path clip-path="url(#clip012)" d="M351.987 113.521 L351.987 744.416 L381.343 744.416 L381.343 113.521 L351.987 113.521 L351.987 113.521  Z" fill="#ac8d18" fill-rule="evenodd" fill-opacity="1"></path>
<polyline clip-path="url(#clip012)" style="stroke:#000000; stroke-linecap:round; stroke-linejoin:round; stroke-width:4; stroke-opacity:1; fill:none" points="351.987,113.521 351.987,744.416 381.343,744.416 381.343,113.521 351.987,113.521 "></polyline>
<path clip-path="url(#clip012)" d="M603.605 417.373 L603.605 744.416 L632.961 744.416 L632.961 417.373 L603.605 417.373 L603.605 417.373  Z" fill="#ac8d18" fill-rule="evenodd" fill-opacity="1"></path>
<polyline clip-path="url(#clip012)" style="stroke:#000000; stroke-linecap:round; stroke-linejoin:round; stroke-width:4; stroke-opacity:1; fill:none" points="603.605,417.373 603.605,744.416 632.961,744.416 632.961,417.373 603.605,417.373 "></polyline>
<path clip-path="url(#clip012)" d="M855.223 511.647 L855.223 744.416 L884.579 744.416 L884.579 511.647 L855.223 511.647 L855.223 511.647  Z" fill="#ac8d18" fill-rule="evenodd" fill-opacity="1"></path>
<polyline clip-path="url(#clip012)" style="stroke:#000000; stroke-linecap:round; stroke-linejoin:round; stroke-width:4; stroke-opacity:1; fill:none" points="855.223,511.647 855.223,744.416 884.579,744.416 884.579,511.647 855.223,511.647 "></polyline>
<path clip-path="url(#clip012)" d="M1106.84 571.273 L1106.84 744.416 L1136.2 744.416 L1136.2 571.273 L1106.84 571.273 L1106.84 571.273  Z" fill="#ac8d18" fill-rule="evenodd" fill-opacity="1"></path>
<polyline clip-path="url(#clip012)" style="stroke:#000000; stroke-linecap:round; stroke-linejoin:round; stroke-width:4; stroke-opacity:1; fill:none" points="1106.84,571.273 1106.84,744.416 1136.2,744.416 1136.2,571.273 1106.84,571.273 "></polyline>
<path clip-path="url(#clip012)" d="M1358.46 633.086 L1358.46 744.416 L1387.81 744.416 L1387.81 633.086 L1358.46 633.086 L1358.46 633.086  Z" fill="#ac8d18" fill-rule="evenodd" fill-opacity="1"></path>
<polyline clip-path="url(#clip012)" style="stroke:#000000; stroke-linecap:round; stroke-linejoin:round; stroke-width:4; stroke-opacity:1; fill:none" points="1358.46,633.086 1358.46,744.416 1387.81,744.416 1387.81,633.086 1358.46,633.086 "></polyline>
<path clip-path="url(#clip012)" d="M1610.08 673.554 L1610.08 744.416 L1639.43 744.416 L1639.43 673.554 L1610.08 673.554 L1610.08 673.554  Z" fill="#ac8d18" fill-rule="evenodd" fill-opacity="1"></path>
<polyline clip-path="url(#clip012)" style="stroke:#000000; stroke-linecap:round; stroke-linejoin:round; stroke-width:4; stroke-opacity:1; fill:none" points="1610.08,673.554 1610.08,744.416 1639.43,744.416 1639.43,673.554 1610.08,673.554 "></polyline>
<circle clip-path="url(#clip012)" style="fill:#ac8d18; stroke:none; fill-opacity:0" cx="366.665" cy="113.521" r="2"></circle>
<circle clip-path="url(#clip012)" style="fill:#ac8d18; stroke:none; fill-opacity:0" cx="618.283" cy="417.373" r="2"></circle>
<circle clip-path="url(#clip012)" style="fill:#ac8d18; stroke:none; fill-opacity:0" cx="869.901" cy="511.647" r="2"></circle>
<circle clip-path="url(#clip012)" style="fill:#ac8d18; stroke:none; fill-opacity:0" cx="1121.52" cy="571.273" r="2"></circle>
<circle clip-path="url(#clip012)" style="fill:#ac8d18; stroke:none; fill-opacity:0" cx="1373.14" cy="633.086" r="2"></circle>
<circle clip-path="url(#clip012)" style="fill:#ac8d18; stroke:none; fill-opacity:0" cx="1624.76" cy="673.554" r="2"></circle>
<path clip-path="url(#clip012)" d="M381.343 205.907 L381.343 744.416 L410.698 744.416 L410.698 205.907 L381.343 205.907 L381.343 205.907  Z" fill="#00a9ad" fill-rule="evenodd" fill-opacity="1"></path>
<polyline clip-path="url(#clip012)" style="stroke:#000000; stroke-linecap:round; stroke-linejoin:round; stroke-width:4; stroke-opacity:1; fill:none" points="381.343,205.907 381.343,744.416 410.698,744.416 410.698,205.907 381.343,205.907 "></polyline>
<path clip-path="url(#clip012)" d="M632.961 419.517 L632.961 744.416 L662.316 744.416 L662.316 419.517 L632.961 419.517 L632.961 419.517  Z" fill="#00a9ad" fill-rule="evenodd" fill-opacity="1"></path>
<polyline clip-path="url(#clip012)" style="stroke:#000000; stroke-linecap:round; stroke-linejoin:round; stroke-width:4; stroke-opacity:1; fill:none" points="632.961,419.517 632.961,744.416 662.316,744.416 662.316,419.517 632.961,419.517 "></polyline>
<path clip-path="url(#clip012)" d="M884.579 511.729 L884.579 744.416 L913.934 744.416 L913.934 511.729 L884.579 511.729 L884.579 511.729  Z" fill="#00a9ad" fill-rule="evenodd" fill-opacity="1"></path>
<polyline clip-path="url(#clip012)" style="stroke:#000000; stroke-linecap:round; stroke-linejoin:round; stroke-width:4; stroke-opacity:1; fill:none" points="884.579,511.729 884.579,744.416 913.934,744.416 913.934,511.729 884.579,511.729 "></polyline>
<path clip-path="url(#clip012)" d="M1136.2 569.64 L1136.2 744.416 L1165.55 744.416 L1165.55 569.64 L1136.2 569.64 L1136.2 569.64  Z" fill="#00a9ad" fill-rule="evenodd" fill-opacity="1"></path>
<polyline clip-path="url(#clip012)" style="stroke:#000000; stroke-linecap:round; stroke-linejoin:round; stroke-width:4; stroke-opacity:1; fill:none" points="1136.2,569.64 1136.2,744.416 1165.55,744.416 1165.55,569.64 1136.2,569.64 "></polyline>
<path clip-path="url(#clip012)" d="M1387.81 634.572 L1387.81 744.416 L1417.17 744.416 L1417.17 634.572 L1387.81 634.572 L1387.81 634.572  Z" fill="#00a9ad" fill-rule="evenodd" fill-opacity="1"></path>
<polyline clip-path="url(#clip012)" style="stroke:#000000; stroke-linecap:round; stroke-linejoin:round; stroke-width:4; stroke-opacity:1; fill:none" points="1387.81,634.572 1387.81,744.416 1417.17,744.416 1417.17,634.572 1387.81,634.572 "></polyline>
<path clip-path="url(#clip012)" d="M1639.43 653.015 L1639.43 744.416 L1668.79 744.416 L1668.79 653.015 L1639.43 653.015 L1639.43 653.015  Z" fill="#00a9ad" fill-rule="evenodd" fill-opacity="1"></path>
<polyline clip-path="url(#clip012)" style="stroke:#000000; stroke-linecap:round; stroke-linejoin:round; stroke-width:4; stroke-opacity:1; fill:none" points="1639.43,653.015 1639.43,744.416 1668.79,744.416 1668.79,653.015 1639.43,653.015 "></polyline>
<circle clip-path="url(#clip012)" style="fill:#00a9ad; stroke:none; fill-opacity:0" cx="396.021" cy="205.907" r="2"></circle>
<circle clip-path="url(#clip012)" style="fill:#00a9ad; stroke:none; fill-opacity:0" cx="647.639" cy="419.517" r="2"></circle>
<circle clip-path="url(#clip012)" style="fill:#00a9ad; stroke:none; fill-opacity:0" cx="899.257" cy="511.729" r="2"></circle>
<circle clip-path="url(#clip012)" style="fill:#00a9ad; stroke:none; fill-opacity:0" cx="1150.87" cy="569.64" r="2"></circle>
<circle clip-path="url(#clip012)" style="fill:#00a9ad; stroke:none; fill-opacity:0" cx="1402.49" cy="634.572" r="2"></circle>
<circle clip-path="url(#clip012)" style="fill:#00a9ad; stroke:none; fill-opacity:0" cx="1654.11" cy="653.015" r="2"></circle>
</svg>