<svg xmlns="http://www.w3.org/2000/svg" xmlns:xlink="http://www.w3.org/1999/xlink" width="450" height="210" viewBox="0 0 1800 840">
<defs>
  <clipPath id="clip890">
    <rect x="0" y="0" width="1800" height="840"></rect>
  </clipPath>
</defs>
<path clip-path="url(#clip890)" d="M0 840 L1800 840 L1800 0 L0 0  Z" fill="#ffffff" fill-rule="evenodd" fill-opacity="1"></path>
<defs>
  <clipPath id="clip891">
    <rect x="360" y="0" width="1261" height="840"></rect>
  </clipPath>
</defs>
<path clip-path="url(#clip890)" d="M150.112 744.416 L1752.76 744.416 L1752.76 105.328 L150.112 105.328  Z" fill="#ffffff" fill-rule="evenodd" fill-opacity="1"></path>
<defs>
  <clipPath id="clip892">
    <rect x="150" y="105" width="1604" height="640"></rect>
  </clipPath>
</defs>
<polyline clip-path="url(#clip892)" style="stroke:#000000; stroke-linecap:round; stroke-linejoin:round; stroke-width:2; stroke-opacity:0.1; fill:none" points="322.198,744.416 322.198,105.328 "></polyline>
<polyline clip-path="url(#clip892)" style="stroke:#000000; stroke-linecap:round; stroke-linejoin:round; stroke-width:2; stroke-opacity:0.1; fill:none" points="573.892,744.416 573.892,105.328 "></polyline>
<polyline clip-path="url(#clip892)" style="stroke:#000000; stroke-linecap:round; stroke-linejoin:round; stroke-width:2; stroke-opacity:0.1; fill:none" points="825.587,744.416 825.587,105.328 "></polyline>
<polyline clip-path="url(#clip892)" style="stroke:#000000; stroke-linecap:round; stroke-linejoin:round; stroke-width:2; stroke-opacity:0.1; fill:none" points="1077.28,744.416 1077.28,105.328 "></polyline>
<polyline clip-path="url(#clip892)" style="stroke:#000000; stroke-linecap:round; stroke-linejoin:round; stroke-width:2; stroke-opacity:0.1; fill:none" points="1328.98,744.416 1328.98,105.328 "></polyline>
<polyline clip-path="url(#clip892)" style="stroke:#000000; stroke-linecap:round; stroke-linejoin:round; stroke-width:2; stroke-opacity:0.1; fill:none" points="1580.67,744.416 1580.67,105.328 "></polyline>
<polyline clip-path="url(#clip892)" style="stroke:#000000; stroke-linecap:round; stroke-linejoin:round; stroke-width:2; stroke-opacity:0.1; fill:none" points="150.112,744.416 1752.76,744.416 "></polyline>
<polyline clip-path="url(#clip892)" style="stroke:#000000; stroke-linecap:round; stroke-linejoin:round; stroke-width:2; stroke-opacity:0.1; fill:none" points="150.112,578.372 1752.76,578.372 "></polyline>
<polyline clip-path="url(#clip892)" style="stroke:#000000; stroke-linecap:round; stroke-linejoin:round; stroke-width:2; stroke-opacity:0.1; fill:none" points="150.112,412.328 1752.76,412.328 "></polyline>
<polyline clip-path="url(#clip892)" style="stroke:#000000; stroke-linecap:round; stroke-linejoin:round; stroke-width:2; stroke-opacity:0.1; fill:none" points="150.112,246.284 1752.76,246.284 "></polyline>
<polyline clip-path="url(#clip890)" style="stroke:#000000; stroke-linecap:round; stroke-linejoin:round; stroke-width:4; stroke-opacity:1; fill:none" points="150.112,744.416 1752.76,744.416 "></polyline>
<polyline clip-path="url(#clip890)" style="stroke:#000000; stroke-linecap:round; stroke-linejoin:round; stroke-width:4; stroke-opacity:1; fill:none" points="322.198,744.416 322.198,725.518 "></polyline>
<polyline clip-path="url(#clip890)" style="stroke:#000000; stroke-linecap:round; stroke-linejoin:round; stroke-width:4; stroke-opacity:1; fill:none" points="573.892,744.416 573.892,725.518 "></polyline>
<polyline clip-path="url(#clip890)" style="stroke:#000000; stroke-linecap:round; stroke-linejoin:round; stroke-width:4; stroke-opacity:1; fill:none" points="825.587,744.416 825.587,725.518 "></polyline>
<polyline clip-path="url(#clip890)" style="stroke:#000000; stroke-linecap:round; stroke-linejoin:round; stroke-width:4; stroke-opacity:1; fill:none" points="1077.28,744.416 1077.28,725.518 "></polyline>
<polyline clip-path="url(#clip890)" style="stroke:#000000; stroke-linecap:round; stroke-linejoin:round; stroke-width:4; stroke-opacity:1; fill:none" points="1328.98,744.416 1328.98,725.518 "></polyline>
<polyline clip-path="url(#clip890)" style="stroke:#000000; stroke-linecap:round; stroke-linejoin:round; stroke-width:4; stroke-opacity:1; fill:none" points="1580.67,744.416 1580.67,725.518 "></polyline>
<path clip-path="url(#clip890)" d="M266.481 798.081 L274.12 798.081 L274.12 771.715 L265.809 773.382 L265.809 769.123 L274.073 767.456 L278.749 767.456 L278.749 798.081 L286.388 798.081 L286.388 802.016 L266.481 802.016 L266.481 798.081 Z" fill="#000000" fill-rule="nonzero" fill-opacity="1"></path><path clip-path="url(#clip890)" d="M305.832 770.535 Q302.221 770.535 300.393 774.099 Q298.587 777.641 298.587 784.771 Q298.587 791.877 300.393 795.442 Q302.221 798.983 305.832 798.983 Q309.467 798.983 311.272 795.442 Q313.101 791.877 313.101 784.771 Q313.101 777.641 311.272 774.099 Q309.467 770.535 305.832 770.535 M305.832 766.831 Q311.643 766.831 314.698 771.437 Q317.777 776.021 317.777 784.771 Q317.777 793.497 314.698 798.104 Q311.643 802.687 305.832 802.687 Q300.022 802.687 296.944 798.104 Q293.888 793.497 293.888 784.771 Q293.888 776.021 296.944 771.437 Q300.022 766.831 305.832 766.831 Z" fill="#000000" fill-rule="nonzero" fill-opacity="1"></path><path clip-path="url(#clip890)" d="M330.022 798.081 L346.341 798.081 L346.341 802.016 L324.397 802.016 L324.397 798.081 Q327.059 795.326 331.642 790.696 Q336.249 786.044 337.429 784.701 Q339.675 782.178 340.554 780.442 Q341.457 778.683 341.457 776.993 Q341.457 774.238 339.513 772.502 Q337.592 770.766 334.49 770.766 Q332.291 770.766 329.837 771.53 Q327.406 772.294 324.629 773.845 L324.629 769.123 Q327.453 767.988 329.906 767.41 Q332.36 766.831 334.397 766.831 Q339.767 766.831 342.962 769.516 Q346.156 772.201 346.156 776.692 Q346.156 778.822 345.346 780.743 Q344.559 782.641 342.453 785.234 Q341.874 785.905 338.772 789.122 Q335.67 792.317 330.022 798.081 Z" fill="#000000" fill-rule="nonzero" fill-opacity="1"></path><path clip-path="url(#clip890)" d="M369.003 771.53 L357.198 789.979 L369.003 789.979 L369.003 771.53 M367.777 767.456 L373.656 767.456 L373.656 789.979 L378.587 789.979 L378.587 793.868 L373.656 793.868 L373.656 802.016 L369.003 802.016 L369.003 793.868 L353.402 793.868 L353.402 789.354 L367.777 767.456 Z" fill="#000000" fill-rule="nonzero" fill-opacity="1"></path><path clip-path="url(#clip890)" d="M522.55 798.081 L538.869 798.081 L538.869 802.016 L516.925 802.016 L516.925 798.081 Q519.587 795.326 524.171 790.696 Q528.777 786.044 529.958 784.701 Q532.203 782.178 533.082 780.442 Q533.985 778.683 533.985 776.993 Q533.985 774.238 532.041 772.502 Q530.12 770.766 527.018 770.766 Q524.819 770.766 522.365 771.53 Q519.934 772.294 517.157 773.845 L517.157 769.123 Q519.981 767.988 522.434 767.41 Q524.888 766.831 526.925 766.831 Q532.295 766.831 535.49 769.516 Q538.684 772.201 538.684 776.692 Q538.684 778.822 537.874 780.743 Q537.087 782.641 534.981 785.234 Q534.402 785.905 531.3 789.122 Q528.198 792.317 522.55 798.081 Z" fill="#000000" fill-rule="nonzero" fill-opacity="1"></path><path clip-path="url(#clip890)" d="M558.684 770.535 Q555.073 770.535 553.244 774.099 Q551.439 777.641 551.439 784.771 Q551.439 791.877 553.244 795.442 Q555.073 798.983 558.684 798.983 Q562.318 798.983 564.124 795.442 Q565.953 791.877 565.953 784.771 Q565.953 777.641 564.124 774.099 Q562.318 770.535 558.684 770.535 M558.684 766.831 Q564.494 766.831 567.55 771.437 Q570.629 776.021 570.629 784.771 Q570.629 793.497 567.55 798.104 Q564.494 802.687 558.684 802.687 Q552.874 802.687 549.795 798.104 Q546.74 793.497 546.74 784.771 Q546.74 776.021 549.795 771.437 Q552.874 766.831 558.684 766.831 Z" fill="#000000" fill-rule="nonzero" fill-opacity="1"></path><path clip-path="url(#clip890)" d="M591.693 771.53 L579.888 789.979 L591.693 789.979 L591.693 771.53 M590.466 767.456 L596.346 767.456 L596.346 789.979 L601.277 789.979 L601.277 793.868 L596.346 793.868 L596.346 802.016 L591.693 802.016 L591.693 793.868 L576.092 793.868 L576.092 789.354 L590.466 767.456 Z" fill="#000000" fill-rule="nonzero" fill-opacity="1"></path><path clip-path="url(#clip890)" d="M619.008 785.604 Q615.675 785.604 613.753 787.386 Q611.855 789.169 611.855 792.294 Q611.855 795.419 613.753 797.201 Q615.675 798.983 619.008 798.983 Q622.341 798.983 624.263 797.201 Q626.184 795.396 626.184 792.294 Q626.184 789.169 624.263 787.386 Q622.364 785.604 619.008 785.604 M614.332 783.613 Q611.323 782.872 609.633 780.812 Q607.966 778.752 607.966 775.789 Q607.966 771.646 610.906 769.238 Q613.869 766.831 619.008 766.831 Q624.17 766.831 627.11 769.238 Q630.05 771.646 630.05 775.789 Q630.05 778.752 628.36 780.812 Q626.693 782.872 623.707 783.613 Q627.087 784.4 628.962 786.692 Q630.86 788.984 630.86 792.294 Q630.86 797.317 627.781 800.002 Q624.726 802.687 619.008 802.687 Q613.29 802.687 610.212 800.002 Q607.156 797.317 607.156 792.294 Q607.156 788.984 609.054 786.692 Q610.952 784.4 614.332 783.613 M612.619 776.229 Q612.619 778.914 614.286 780.419 Q615.976 781.923 619.008 781.923 Q622.017 781.923 623.707 780.419 Q625.42 778.914 625.42 776.229 Q625.42 773.544 623.707 772.039 Q622.017 770.535 619.008 770.535 Q615.976 770.535 614.286 772.039 Q612.619 773.544 612.619 776.229 Z" fill="#000000" fill-rule="nonzero" fill-opacity="1"></path><path clip-path="url(#clip890)" d="M783.515 771.53 L771.71 789.979 L783.515 789.979 L783.515 771.53 M782.288 767.456 L788.168 767.456 L788.168 789.979 L793.099 789.979 L793.099 793.868 L788.168 793.868 L788.168 802.016 L783.515 802.016 L783.515 793.868 L767.914 793.868 L767.914 789.354 L782.288 767.456 Z" fill="#000000" fill-rule="nonzero" fill-opacity="1"></path><path clip-path="url(#clip890)" d="M810.83 770.535 Q807.219 770.535 805.39 774.099 Q803.585 777.641 803.585 784.771 Q803.585 791.877 805.39 795.442 Q807.219 798.983 810.83 798.983 Q814.464 798.983 816.27 795.442 Q818.098 791.877 818.098 784.771 Q818.098 777.641 816.27 774.099 Q814.464 770.535 810.83 770.535 M810.83 766.831 Q816.64 766.831 819.696 771.437 Q822.774 776.021 822.774 784.771 Q822.774 793.497 819.696 798.104 Q816.64 802.687 810.83 802.687 Q805.02 802.687 801.941 798.104 Q798.886 793.497 798.886 784.771 Q798.886 776.021 801.941 771.437 Q805.02 766.831 810.83 766.831 Z" fill="#000000" fill-rule="nonzero" fill-opacity="1"></path><path clip-path="url(#clip890)" d="M831.131 801.298 L831.131 797.039 Q832.89 797.872 834.696 798.312 Q836.501 798.752 838.237 798.752 Q842.867 798.752 845.297 795.65 Q847.751 792.525 848.098 786.183 Q846.756 788.173 844.696 789.238 Q842.635 790.303 840.135 790.303 Q834.95 790.303 831.918 787.178 Q828.909 784.03 828.909 778.59 Q828.909 773.266 832.057 770.048 Q835.205 766.831 840.436 766.831 Q846.432 766.831 849.58 771.437 Q852.751 776.021 852.751 784.771 Q852.751 792.942 848.862 797.826 Q844.996 802.687 838.446 802.687 Q836.686 802.687 834.881 802.34 Q833.075 801.993 831.131 801.298 M840.436 786.646 Q843.584 786.646 845.413 784.493 Q847.265 782.34 847.265 778.59 Q847.265 774.863 845.413 772.71 Q843.584 770.535 840.436 770.535 Q837.288 770.535 835.436 772.71 Q833.608 774.863 833.608 778.59 Q833.608 782.34 835.436 784.493 Q837.288 786.646 840.436 786.646 Z" fill="#000000" fill-rule="nonzero" fill-opacity="1"></path><path clip-path="url(#clip890)" d="M871.732 782.872 Q868.584 782.872 866.732 785.025 Q864.904 787.178 864.904 790.928 Q864.904 794.655 866.732 796.831 Q868.584 798.983 871.732 798.983 Q874.881 798.983 876.709 796.831 Q878.561 794.655 878.561 790.928 Q878.561 787.178 876.709 785.025 Q874.881 782.872 871.732 782.872 M881.015 768.22 L881.015 772.479 Q879.256 771.646 877.45 771.206 Q875.668 770.766 873.908 770.766 Q869.279 770.766 866.825 773.891 Q864.394 777.016 864.047 783.335 Q865.413 781.322 867.473 780.257 Q869.533 779.169 872.01 779.169 Q877.218 779.169 880.228 782.34 Q883.26 785.488 883.26 790.928 Q883.26 796.252 880.112 799.47 Q876.964 802.687 871.732 802.687 Q865.737 802.687 862.566 798.104 Q859.395 793.497 859.395 784.771 Q859.395 776.576 863.283 771.715 Q867.172 766.831 873.723 766.831 Q875.482 766.831 877.265 767.178 Q879.07 767.525 881.015 768.22 Z" fill="#000000" fill-rule="nonzero" fill-opacity="1"></path><path clip-path="url(#clip890)" d="M1032.79 785.604 Q1029.46 785.604 1027.54 787.386 Q1025.64 789.169 1025.64 792.294 Q1025.64 795.419 1027.54 797.201 Q1029.46 798.983 1032.79 798.983 Q1036.12 798.983 1038.05 797.201 Q1039.97 795.396 1039.97 792.294 Q1039.97 789.169 1038.05 787.386 Q1036.15 785.604 1032.79 785.604 M1028.11 783.613 Q1025.11 782.872 1023.42 780.812 Q1021.75 778.752 1021.75 775.789 Q1021.75 771.646 1024.69 769.238 Q1027.65 766.831 1032.79 766.831 Q1037.95 766.831 1040.89 769.238 Q1043.83 771.646 1043.83 775.789 Q1043.83 778.752 1042.14 780.812 Q1040.48 782.872 1037.49 783.613 Q1040.87 784.4 1042.74 786.692 Q1044.64 788.984 1044.64 792.294 Q1044.64 797.317 1041.56 800.002 Q1038.51 802.687 1032.79 802.687 Q1027.07 802.687 1023.99 800.002 Q1020.94 797.317 1020.94 792.294 Q1020.94 788.984 1022.84 786.692 Q1024.74 784.4 1028.11 783.613 M1026.4 776.229 Q1026.4 778.914 1028.07 780.419 Q1029.76 781.923 1032.79 781.923 Q1035.8 781.923 1037.49 780.419 Q1039.2 778.914 1039.2 776.229 Q1039.2 773.544 1037.49 772.039 Q1035.8 770.535 1032.79 770.535 Q1029.76 770.535 1028.07 772.039 Q1026.4 773.544 1026.4 776.229 Z" fill="#000000" fill-rule="nonzero" fill-opacity="1"></path><path clip-path="url(#clip890)" d="M1053.76 798.081 L1061.4 798.081 L1061.4 771.715 L1053.09 773.382 L1053.09 769.123 L1061.36 767.456 L1066.03 767.456 L1066.03 798.081 L1073.67 798.081 L1073.67 802.016 L1053.76 802.016 L1053.76 798.081 Z" fill="#000000" fill-rule="nonzero" fill-opacity="1"></path><path clip-path="url(#clip890)" d="M1083.25 801.298 L1083.25 797.039 Q1085.01 797.872 1086.82 798.312 Q1088.62 798.752 1090.36 798.752 Q1094.99 798.752 1097.42 795.65 Q1099.87 792.525 1100.22 786.183 Q1098.88 788.173 1096.82 789.238 Q1094.76 790.303 1092.26 790.303 Q1087.07 790.303 1084.04 787.178 Q1081.03 784.03 1081.03 778.59 Q1081.03 773.266 1084.18 770.048 Q1087.33 766.831 1092.56 766.831 Q1098.55 766.831 1101.7 771.437 Q1104.87 776.021 1104.87 784.771 Q1104.87 792.942 1100.98 797.826 Q1097.12 802.687 1090.57 802.687 Q1088.81 802.687 1087 802.34 Q1085.2 801.993 1083.25 801.298 M1092.56 786.646 Q1095.71 786.646 1097.54 784.493 Q1099.39 782.34 1099.39 778.59 Q1099.39 774.863 1097.54 772.71 Q1095.71 770.535 1092.56 770.535 Q1089.41 770.535 1087.56 772.71 Q1085.73 774.863 1085.73 778.59 Q1085.73 782.34 1087.56 784.493 Q1089.41 786.646 1092.56 786.646 Z" fill="#000000" fill-rule="nonzero" fill-opacity="1"></path><path clip-path="url(#clip890)" d="M1117.3 798.081 L1133.62 798.081 L1133.62 802.016 L1111.68 802.016 L1111.68 798.081 Q1114.34 795.326 1118.92 790.696 Q1123.53 786.044 1124.71 784.701 Q1126.96 782.178 1127.84 780.442 Q1128.74 778.683 1128.74 776.993 Q1128.74 774.238 1126.79 772.502 Q1124.87 770.766 1121.77 770.766 Q1119.57 770.766 1117.12 771.53 Q1114.69 772.294 1111.91 773.845 L1111.91 769.123 Q1114.73 767.988 1117.19 767.41 Q1119.64 766.831 1121.68 766.831 Q1127.05 766.831 1130.24 769.516 Q1133.44 772.201 1133.44 776.692 Q1133.44 778.822 1132.63 780.743 Q1131.84 782.641 1129.73 785.234 Q1129.16 785.905 1126.05 789.122 Q1122.95 792.317 1117.3 798.081 Z" fill="#000000" fill-rule="nonzero" fill-opacity="1"></path><path clip-path="url(#clip890)" d="M1258.18 798.081 L1265.82 798.081 L1265.82 771.715 L1257.51 773.382 L1257.51 769.123 L1265.77 767.456 L1270.45 767.456 L1270.45 798.081 L1278.08 798.081 L1278.08 802.016 L1258.18 802.016 L1258.18 798.081 Z" fill="#000000" fill-rule="nonzero" fill-opacity="1"></path><path clip-path="url(#clip890)" d="M1298.11 782.872 Q1294.96 782.872 1293.11 785.025 Q1291.28 787.178 1291.28 790.928 Q1291.28 794.655 1293.11 796.831 Q1294.96 798.983 1298.11 798.983 Q1301.26 798.983 1303.08 796.831 Q1304.94 794.655 1304.94 790.928 Q1304.94 787.178 1303.08 785.025 Q1301.26 782.872 1298.11 782.872 M1307.39 768.22 L1307.39 772.479 Q1305.63 771.646 1303.83 771.206 Q1302.04 770.766 1300.28 770.766 Q1295.65 770.766 1293.2 773.891 Q1290.77 777.016 1290.42 783.335 Q1291.79 781.322 1293.85 780.257 Q1295.91 779.169 1298.39 779.169 Q1303.59 779.169 1306.6 782.34 Q1309.64 785.488 1309.64 790.928 Q1309.64 796.252 1306.49 799.47 Q1303.34 802.687 1298.11 802.687 Q1292.11 802.687 1288.94 798.104 Q1285.77 793.497 1285.77 784.771 Q1285.77 776.576 1289.66 771.715 Q1293.55 766.831 1300.1 766.831 Q1301.86 766.831 1303.64 767.178 Q1305.45 767.525 1307.39 768.22 Z" fill="#000000" fill-rule="nonzero" fill-opacity="1"></path><path clip-path="url(#clip890)" d="M1331.86 783.382 Q1335.21 784.099 1337.09 786.368 Q1338.99 788.636 1338.99 791.97 Q1338.99 797.085 1335.47 799.886 Q1331.95 802.687 1325.47 802.687 Q1323.29 802.687 1320.98 802.247 Q1318.69 801.831 1316.23 800.974 L1316.23 796.46 Q1318.18 797.595 1320.49 798.173 Q1322.81 798.752 1325.33 798.752 Q1329.73 798.752 1332.02 797.016 Q1334.33 795.28 1334.33 791.97 Q1334.33 788.914 1332.18 787.201 Q1330.05 785.465 1326.23 785.465 L1322.2 785.465 L1322.2 781.622 L1326.42 781.622 Q1329.87 781.622 1331.7 780.257 Q1333.52 778.868 1333.52 776.275 Q1333.52 773.613 1331.63 772.201 Q1329.75 770.766 1326.23 770.766 Q1324.31 770.766 1322.11 771.183 Q1319.91 771.599 1317.27 772.479 L1317.27 768.312 Q1319.94 767.572 1322.25 767.201 Q1324.59 766.831 1326.65 766.831 Q1331.97 766.831 1335.08 769.261 Q1338.18 771.669 1338.18 775.789 Q1338.18 778.66 1336.53 780.65 Q1334.89 782.618 1331.86 783.382 Z" fill="#000000" fill-rule="nonzero" fill-opacity="1"></path><path clip-path="url(#clip890)" d="M1357.85 785.604 Q1354.52 785.604 1352.6 787.386 Q1350.7 789.169 1350.7 792.294 Q1350.7 795.419 1352.6 797.201 Q1354.52 798.983 1357.85 798.983 Q1361.19 798.983 1363.11 797.201 Q1365.03 795.396 1365.03 792.294 Q1365.03 789.169 1363.11 787.386 Q1361.21 785.604 1357.85 785.604 M1353.18 783.613 Q1350.17 782.872 1348.48 780.812 Q1346.81 778.752 1346.81 775.789 Q1346.81 771.646 1349.75 769.238 Q1352.71 766.831 1357.85 766.831 Q1363.01 766.831 1365.95 769.238 Q1368.89 771.646 1368.89 775.789 Q1368.89 778.752 1367.2 780.812 Q1365.54 782.872 1362.55 783.613 Q1365.93 784.4 1367.81 786.692 Q1369.7 788.984 1369.7 792.294 Q1369.7 797.317 1366.63 800.002 Q1363.57 802.687 1357.85 802.687 Q1352.14 802.687 1349.06 800.002 Q1346 797.317 1346 792.294 Q1346 788.984 1347.9 786.692 Q1349.8 784.4 1353.18 783.613 M1351.46 776.229 Q1351.46 778.914 1353.13 780.419 Q1354.82 781.923 1357.85 781.923 Q1360.86 781.923 1362.55 780.419 Q1364.26 778.914 1364.26 776.229 Q1364.26 773.544 1362.55 772.039 Q1360.86 770.535 1357.85 770.535 Q1354.82 770.535 1353.13 772.039 Q1351.46 773.544 1351.46 776.229 Z" fill="#000000" fill-rule="nonzero" fill-opacity="1"></path><path clip-path="url(#clip890)" d="M1390.86 771.53 L1379.06 789.979 L1390.86 789.979 L1390.86 771.53 M1389.63 767.456 L1395.51 767.456 L1395.51 789.979 L1400.45 789.979 L1400.45 793.868 L1395.51 793.868 L1395.51 802.016 L1390.86 802.016 L1390.86 793.868 L1375.26 793.868 L1375.26 789.354 L1389.63 767.456 Z" fill="#000000" fill-rule="nonzero" fill-opacity="1"></path><path clip-path="url(#clip890)" d="M1524.32 783.382 Q1527.67 784.099 1529.55 786.368 Q1531.45 788.636 1531.45 791.97 Q1531.45 797.085 1527.93 799.886 Q1524.41 802.687 1517.93 802.687 Q1515.75 802.687 1513.44 802.247 Q1511.14 801.831 1508.69 800.974 L1508.69 796.46 Q1510.64 797.595 1512.95 798.173 Q1515.27 798.752 1517.79 798.752 Q1522.19 798.752 1524.48 797.016 Q1526.79 795.28 1526.79 791.97 Q1526.79 788.914 1524.64 787.201 Q1522.51 785.465 1518.69 785.465 L1514.66 785.465 L1514.66 781.622 L1518.88 781.622 Q1522.33 781.622 1524.15 780.257 Q1525.98 778.868 1525.98 776.275 Q1525.98 773.613 1524.08 772.201 Q1522.21 770.766 1518.69 770.766 Q1516.77 770.766 1514.57 771.183 Q1512.37 771.599 1509.73 772.479 L1509.73 768.312 Q1512.39 767.572 1514.71 767.201 Q1517.05 766.831 1519.11 766.831 Q1524.43 766.831 1527.53 769.261 Q1530.64 771.669 1530.64 775.789 Q1530.64 778.66 1528.99 780.65 Q1527.35 782.618 1524.32 783.382 Z" fill="#000000" fill-rule="nonzero" fill-opacity="1"></path><path clip-path="url(#clip890)" d="M1544.34 798.081 L1560.66 798.081 L1560.66 802.016 L1538.71 802.016 L1538.71 798.081 Q1541.38 795.326 1545.96 790.696 Q1550.57 786.044 1551.75 784.701 Q1553.99 782.178 1554.87 780.442 Q1555.77 778.683 1555.77 776.993 Q1555.77 774.238 1553.83 772.502 Q1551.91 770.766 1548.81 770.766 Q1546.61 770.766 1544.15 771.53 Q1541.72 772.294 1538.95 773.845 L1538.95 769.123 Q1541.77 767.988 1544.22 767.41 Q1546.68 766.831 1548.71 766.831 Q1554.08 766.831 1557.28 769.516 Q1560.47 772.201 1560.47 776.692 Q1560.47 778.822 1559.66 780.743 Q1558.88 782.641 1556.77 785.234 Q1556.19 785.905 1553.09 789.122 Q1549.99 792.317 1544.34 798.081 Z" fill="#000000" fill-rule="nonzero" fill-opacity="1"></path><path clip-path="url(#clip890)" d="M1569.29 767.456 L1591.51 767.456 L1591.51 769.447 L1578.97 802.016 L1574.08 802.016 L1585.89 771.391 L1569.29 771.391 L1569.29 767.456 Z" fill="#000000" fill-rule="nonzero" fill-opacity="1"></path><path clip-path="url(#clip890)" d="M1611.21 782.872 Q1608.07 782.872 1606.21 785.025 Q1604.39 787.178 1604.39 790.928 Q1604.39 794.655 1606.21 796.831 Q1608.07 798.983 1611.21 798.983 Q1614.36 798.983 1616.19 796.831 Q1618.04 794.655 1618.04 790.928 Q1618.04 787.178 1616.19 785.025 Q1614.36 782.872 1611.21 782.872 M1620.5 768.22 L1620.5 772.479 Q1618.74 771.646 1616.93 771.206 Q1615.15 770.766 1613.39 770.766 Q1608.76 770.766 1606.31 773.891 Q1603.88 777.016 1603.53 783.335 Q1604.89 781.322 1606.95 780.257 Q1609.01 779.169 1611.49 779.169 Q1616.7 779.169 1619.71 782.34 Q1622.74 785.488 1622.74 790.928 Q1622.74 796.252 1619.59 799.47 Q1616.45 802.687 1611.21 802.687 Q1605.22 802.687 1602.05 798.104 Q1598.88 793.497 1598.88 784.771 Q1598.88 776.576 1602.76 771.715 Q1606.65 766.831 1613.2 766.831 Q1614.96 766.831 1616.75 767.178 Q1618.55 767.525 1620.5 768.22 Z" fill="#000000" fill-rule="nonzero" fill-opacity="1"></path><path clip-path="url(#clip890)" d="M1640.8 785.604 Q1637.46 785.604 1635.54 787.386 Q1633.64 789.169 1633.64 792.294 Q1633.64 795.419 1635.54 797.201 Q1637.46 798.983 1640.8 798.983 Q1644.13 798.983 1646.05 797.201 Q1647.97 795.396 1647.97 792.294 Q1647.97 789.169 1646.05 787.386 Q1644.15 785.604 1640.8 785.604 M1636.12 783.613 Q1633.11 782.872 1631.42 780.812 Q1629.76 778.752 1629.76 775.789 Q1629.76 771.646 1632.7 769.238 Q1635.66 766.831 1640.8 766.831 Q1645.96 766.831 1648.9 769.238 Q1651.84 771.646 1651.84 775.789 Q1651.84 778.752 1650.15 780.812 Q1648.48 782.872 1645.5 783.613 Q1648.88 784.4 1650.75 786.692 Q1652.65 788.984 1652.65 792.294 Q1652.65 797.317 1649.57 800.002 Q1646.51 802.687 1640.8 802.687 Q1635.08 802.687 1632 800.002 Q1628.95 797.317 1628.95 792.294 Q1628.95 788.984 1630.84 786.692 Q1632.74 784.4 1636.12 783.613 M1634.41 776.229 Q1634.41 778.914 1636.07 780.419 Q1637.76 781.923 1640.8 781.923 Q1643.81 781.923 1645.5 780.419 Q1647.21 778.914 1647.21 776.229 Q1647.21 773.544 1645.5 772.039 Q1643.81 770.535 1640.8 770.535 Q1637.76 770.535 1636.07 772.039 Q1634.41 773.544 1634.41 776.229 Z" fill="#000000" fill-rule="nonzero" fill-opacity="1"></path><polyline clip-path="url(#clip890)" style="stroke:#000000; stroke-linecap:round; stroke-linejoin:round; stroke-width:4; stroke-opacity:1; fill:none" points="150.112,744.416 150.112,105.328 "></polyline>
<polyline clip-path="url(#clip890)" style="stroke:#000000; stroke-linecap:round; stroke-linejoin:round; stroke-width:4; stroke-opacity:1; fill:none" points="150.112,744.416 169.01,744.416 "></polyline>
<polyline clip-path="url(#clip890)" style="stroke:#000000; stroke-linecap:round; stroke-linejoin:round; stroke-width:4; stroke-opacity:1; fill:none" points="150.112,578.372 169.01,578.372 "></polyline>
<polyline clip-path="url(#clip890)" style="stroke:#000000; stroke-linecap:round; stroke-linejoin:round; stroke-width:4; stroke-opacity:1; fill:none" points="150.112,412.328 169.01,412.328 "></polyline>
<polyline clip-path="url(#clip890)" style="stroke:#000000; stroke-linecap:round; stroke-linejoin:round; stroke-width:4; stroke-opacity:1; fill:none" points="150.112,246.284 169.01,246.284 "></polyline>
<path clip-path="url(#clip890)" d="M65.9365 730.215 Q62.3254 730.215 60.4967 733.779 Q58.6912 737.321 58.6912 744.451 Q58.6912 751.557 60.4967 755.122 Q62.3254 758.663 65.9365 758.663 Q69.5707 758.663 71.3763 755.122 Q73.205 751.557 73.205 744.451 Q73.205 737.321 71.3763 733.779 Q69.5707 730.215 65.9365 730.215 M65.9365 726.511 Q71.7467 726.511 74.8022 731.117 Q77.8809 735.701 77.8809 744.451 Q77.8809 753.177 74.8022 757.784 Q71.7467 762.367 65.9365 762.367 Q60.1264 762.367 57.0477 757.784 Q53.9921 753.177 53.9921 744.451 Q53.9921 735.701 57.0477 731.117 Q60.1264 726.511 65.9365 726.511 Z" fill="#000000" fill-rule="nonzero" fill-opacity="1"></path><path clip-path="url(#clip890)" d="M86.0984 755.816 L90.9827 755.816 L90.9827 761.696 L86.0984 761.696 L86.0984 755.816 Z" fill="#000000" fill-rule="nonzero" fill-opacity="1"></path><path clip-path="url(#clip890)" d="M111.168 730.215 Q107.557 730.215 105.728 733.779 Q103.922 737.321 103.922 744.451 Q103.922 751.557 105.728 755.122 Q107.557 758.663 111.168 758.663 Q114.802 758.663 116.608 755.122 Q118.436 751.557 118.436 744.451 Q118.436 737.321 116.608 733.779 Q114.802 730.215 111.168 730.215 M111.168 726.511 Q116.978 726.511 120.033 731.117 Q123.112 735.701 123.112 744.451 Q123.112 753.177 120.033 757.784 Q116.978 762.367 111.168 762.367 Q105.358 762.367 102.279 757.784 Q99.2234 753.177 99.2234 744.451 Q99.2234 735.701 102.279 731.117 Q105.358 726.511 111.168 726.511 Z" fill="#000000" fill-rule="nonzero" fill-opacity="1"></path><path clip-path="url(#clip890)" d="M67.1634 564.171 Q63.5523 564.171 61.7236 567.735 Q59.918 571.277 59.918 578.407 Q59.918 585.513 61.7236 589.078 Q63.5523 592.62 67.1634 592.62 Q70.7976 592.62 72.6031 589.078 Q74.4318 585.513 74.4318 578.407 Q74.4318 571.277 72.6031 567.735 Q70.7976 564.171 67.1634 564.171 M67.1634 560.467 Q72.9735 560.467 76.029 565.073 Q79.1077 569.657 79.1077 578.407 Q79.1077 587.133 76.029 591.74 Q72.9735 596.323 67.1634 596.323 Q61.3532 596.323 58.2745 591.74 Q55.219 587.133 55.219 578.407 Q55.219 569.657 58.2745 565.073 Q61.3532 560.467 67.1634 560.467 Z" fill="#000000" fill-rule="nonzero" fill-opacity="1"></path><path clip-path="url(#clip890)" d="M87.3253 589.772 L92.2095 589.772 L92.2095 595.652 L87.3253 595.652 L87.3253 589.772 Z" fill="#000000" fill-rule="nonzero" fill-opacity="1"></path><path clip-path="url(#clip890)" d="M103.205 591.717 L110.844 591.717 L110.844 565.351 L102.534 567.018 L102.534 562.759 L110.797 561.092 L115.473 561.092 L115.473 591.717 L123.112 591.717 L123.112 595.652 L103.205 595.652 L103.205 591.717 Z" fill="#000000" fill-rule="nonzero" fill-opacity="1"></path><path clip-path="url(#clip890)" d="M67.5337 398.127 Q63.9226 398.127 62.0939 401.692 Q60.2884 405.233 60.2884 412.363 Q60.2884 419.469 62.0939 423.034 Q63.9226 426.576 67.5337 426.576 Q71.168 426.576 72.9735 423.034 Q74.8022 419.469 74.8022 412.363 Q74.8022 405.233 72.9735 401.692 Q71.168 398.127 67.5337 398.127 M67.5337 394.423 Q73.3439 394.423 76.3994 399.03 Q79.4781 403.613 79.4781 412.363 Q79.4781 421.09 76.3994 425.696 Q73.3439 430.279 67.5337 430.279 Q61.7236 430.279 58.6449 425.696 Q55.5893 421.09 55.5893 412.363 Q55.5893 403.613 58.6449 399.03 Q61.7236 394.423 67.5337 394.423 Z" fill="#000000" fill-rule="nonzero" fill-opacity="1"></path><path clip-path="url(#clip890)" d="M87.6956 423.728 L92.5799 423.728 L92.5799 429.608 L87.6956 429.608 L87.6956 423.728 Z" fill="#000000" fill-rule="nonzero" fill-opacity="1"></path><path clip-path="url(#clip890)" d="M106.793 425.673 L123.112 425.673 L123.112 429.608 L101.168 429.608 L101.168 425.673 Q103.83 422.918 108.413 418.289 Q113.02 413.636 114.2 412.293 Q116.445 409.77 117.325 408.034 Q118.228 406.275 118.228 404.585 Q118.228 401.83 116.283 400.094 Q114.362 398.358 111.26 398.358 Q109.061 398.358 106.608 399.122 Q104.177 399.886 101.399 401.437 L101.399 396.715 Q104.223 395.58 106.677 395.002 Q109.131 394.423 111.168 394.423 Q116.538 394.423 119.733 397.108 Q122.927 399.793 122.927 404.284 Q122.927 406.414 122.117 408.335 Q121.33 410.233 119.223 412.826 Q118.645 413.497 115.543 416.715 Q112.441 419.909 106.793 425.673 Z" fill="#000000" fill-rule="nonzero" fill-opacity="1"></path><path clip-path="url(#clip890)" d="M66.5847 232.083 Q62.9736 232.083 61.1449 235.648 Q59.3393 239.189 59.3393 246.319 Q59.3393 253.425 61.1449 256.99 Q62.9736 260.532 66.5847 260.532 Q70.2189 260.532 72.0244 256.99 Q73.8531 253.425 73.8531 246.319 Q73.8531 239.189 72.0244 235.648 Q70.2189 232.083 66.5847 232.083 M66.5847 228.379 Q72.3948 228.379 75.4503 232.986 Q78.529 237.569 78.529 246.319 Q78.529 255.046 75.4503 259.652 Q72.3948 264.235 66.5847 264.235 Q60.7745 264.235 57.6958 259.652 Q54.6403 255.046 54.6403 246.319 Q54.6403 237.569 57.6958 232.986 Q60.7745 228.379 66.5847 228.379 Z" fill="#000000" fill-rule="nonzero" fill-opacity="1"></path><path clip-path="url(#clip890)" d="M86.7466 257.685 L91.6308 257.685 L91.6308 263.564 L86.7466 263.564 L86.7466 257.685 Z" fill="#000000" fill-rule="nonzero" fill-opacity="1"></path><path clip-path="url(#clip890)" d="M115.983 244.93 Q119.339 245.648 121.214 247.916 Q123.112 250.185 123.112 253.518 Q123.112 258.634 119.594 261.435 Q116.075 264.235 109.594 264.235 Q107.418 264.235 105.103 263.796 Q102.811 263.379 100.358 262.523 L100.358 258.009 Q102.302 259.143 104.617 259.722 Q106.932 260.3 109.455 260.3 Q113.853 260.3 116.145 258.564 Q118.459 256.828 118.459 253.518 Q118.459 250.462 116.307 248.749 Q114.177 247.013 110.358 247.013 L106.33 247.013 L106.33 243.171 L110.543 243.171 Q113.992 243.171 115.82 241.805 Q117.649 240.416 117.649 237.824 Q117.649 235.162 115.751 233.75 Q113.876 232.314 110.358 232.314 Q108.436 232.314 106.237 232.731 Q104.038 233.148 101.399 234.027 L101.399 229.861 Q104.061 229.12 106.376 228.75 Q108.714 228.379 110.774 228.379 Q116.098 228.379 119.2 230.81 Q122.302 233.217 122.302 237.337 Q122.302 240.208 120.658 242.199 Q119.015 244.166 115.983 244.93 Z" fill="#000000" fill-rule="nonzero" fill-opacity="1"></path><path clip-path="url(#clip890)" d="M674.321 41.3256 Q674.321 43.662 672.887 45.0556 Q671.493 46.4492 669.731 46.4492 Q668.173 46.4492 667.353 45.5475 Q666.533 44.6457 666.533 43.498 Q666.533 43.0061 666.738 42.3913 Q666.943 41.7355 667.394 40.9567 Q667.886 40.1779 668.911 39.604 Q669.936 39.0302 671.329 38.9482 Q671.042 38.6613 670.96 38.6203 Q670.345 38.1284 669.198 37.9644 Q669.034 37.8825 668.46 37.8825 Q665.632 37.8825 662.762 39.9729 Q659.934 42.0224 656.45 45.9164 Q652.064 50.4662 649.236 52.1467 Q661.656 53.7863 661.656 60.9594 Q661.656 62.1481 661.328 63.5827 Q660.672 66.288 660.672 68.2555 Q660.672 72.1905 663.336 72.1905 Q665.919 72.1905 667.558 69.5672 Q669.239 66.9439 670.632 61.8202 Q670.837 60.8775 671.042 60.5905 Q671.247 60.3036 671.821 60.3036 Q672.846 60.3036 672.846 61.1234 Q671.903 65.9191 669.813 69.6082 Q667.148 74.076 663.172 74.076 Q659.852 74.076 657.639 71.7806 Q655.466 69.4442 655.466 65.7552 Q655.466 64.8534 655.794 62.804 Q656.04 61.9842 656.04 61.0414 Q656.04 59.1149 654.974 57.6803 Q653.909 56.2047 652.187 55.4669 Q650.466 54.7291 649.031 54.4011 Q647.637 54.0322 646.285 53.9093 Q642.186 71.2477 641.612 72.3135 Q641.243 73.0513 640.423 73.5431 Q639.603 74.076 638.743 74.076 Q637.923 74.076 637.103 73.5022 Q636.324 72.9693 636.324 71.6986 Q636.324 71.0428 636.652 69.8541 L648.826 21.4868 L649.072 19.8472 Q649.072 19.3553 648.867 19.1094 Q648.703 18.8225 647.719 18.6175 Q646.777 18.4126 644.891 18.4126 Q644.112 18.4126 643.743 18.3716 Q643.415 18.3306 643.129 18.1256 Q642.842 17.8797 642.842 17.3878 Q642.842 16.691 643.129 16.3221 Q643.456 15.9122 643.702 15.8302 Q643.948 15.7483 644.44 15.7073 Q645.137 15.6663 647.473 15.4613 Q649.81 15.2154 651.818 15.0514 Q653.827 14.8875 654.688 14.8875 Q655.179 14.8875 655.425 15.1334 Q655.712 15.3384 655.753 15.5843 L655.794 15.7893 L647.064 51.204 Q650.671 49.7694 656.368 43.416 Q662.967 36.038 668.624 36.038 Q671.288 36.038 672.805 37.6775 Q674.321 39.2761 674.321 41.3256 Z" fill="#000000" fill-rule="nonzero" fill-opacity="1"></path><path clip-path="url(#clip890)" d="M702.934 60.3856 Q703.016 59.3609 704.615 59.3609 L756.056 59.3609 Q758.474 59.3609 758.515 60.3036 Q758.515 61.3283 756.22 61.2873 L705.188 61.2873 Q702.934 61.3283 702.934 60.3856 M702.934 43.9899 Q702.934 42.9651 704.696 43.0061 L755.974 43.0061 Q758.474 43.0061 758.515 43.9899 Q758.515 44.9326 756.384 44.9326 L704.615 44.9326 Q702.934 44.9326 702.934 43.9899 Z" fill="#000000" fill-rule="nonzero" fill-opacity="1"></path><path clip-path="url(#clip890)" d="M790.898 59.2789 L790.898 56.6965 L816.68 17.3059 Q817.336 16.2811 818.361 16.3221 Q819.304 16.3221 819.509 16.691 Q819.714 17.0599 819.714 18.4945 L819.714 56.6965 L828.116 56.6965 L828.116 59.2789 L819.714 59.2789 L819.714 66.575 Q819.714 68.9933 820.697 69.7721 Q821.722 70.5509 826.067 70.5509 L827.829 70.5509 L827.829 73.1332 Q824.386 72.8873 816.434 72.8873 Q808.523 72.8873 805.08 73.1332 L805.08 70.5509 L806.843 70.5509 Q811.188 70.5509 812.213 69.8131 Q813.237 69.0343 813.237 66.575 L813.237 59.2789 L790.898 59.2789 M793.275 56.6965 L813.729 56.6965 L813.729 25.3807 L793.275 56.6965 Z" fill="#000000" fill-rule="nonzero" fill-opacity="1"></path><path clip-path="url(#clip890)" d="M833.659 71.7806 Q832.47 70.428 832.47 68.6654 Q832.47 66.9029 833.618 65.5912 Q834.807 64.2386 836.938 64.2386 Q839.439 64.2386 840.873 66.6569 Q842.308 69.0343 842.308 73.0513 Q842.308 77.3961 840.545 81.4131 Q838.783 85.471 837.061 87.3975 Q835.34 89.324 834.643 89.324 Q833.823 89.324 833.823 88.4223 Q833.823 88.0943 834.397 87.4795 Q840.422 81.0032 840.463 73.0513 Q840.463 71.7806 840.299 71.7806 L840.094 71.9446 Q838.66 73.1332 836.938 73.1332 Q834.848 73.1332 833.659 71.7806 Z" fill="#000000" fill-rule="nonzero" fill-opacity="1"></path><path clip-path="url(#clip890)" d="M908.763 15.7893 L896.672 64.3206 Q896.18 66.493 896.18 68.3375 Q896.18 72.1905 898.68 72.1905 Q899.91 72.1905 900.893 71.4117 Q901.877 70.6329 902.656 68.9933 Q903.435 67.3538 903.927 65.8372 Q904.419 64.2796 905.074 61.8202 Q905.279 60.8365 905.443 60.5905 Q905.648 60.3036 906.222 60.3036 Q907.247 60.3036 907.247 61.1234 Q906.14 66.411 904.705 69.4442 Q902.41 74.076 898.516 74.076 Q895.565 74.076 893.474 72.2725 Q891.384 70.4689 890.892 67.7637 Q885.522 74.076 879.948 74.076 Q875.029 74.076 871.914 70.346 Q868.799 66.575 868.799 60.6315 Q868.799 54.6471 871.75 48.9086 Q874.742 43.1701 879.456 39.604 Q884.17 36.038 889.007 36.038 Q894.13 36.038 896.754 41.4075 L901.795 21.4868 L902.041 19.8472 Q902.041 19.3553 901.836 19.1094 Q901.672 18.8225 900.689 18.6175 Q899.746 18.4126 897.86 18.4126 Q897.081 18.4126 896.713 18.3716 Q896.385 18.3306 896.098 18.1256 Q895.811 17.8797 895.811 17.3878 Q895.811 15.9532 896.999 15.7893 Q904.869 14.8875 907.657 14.8875 Q908.149 14.8875 908.436 15.1334 Q908.722 15.3384 908.722 15.5843 L908.763 15.7893 M895.729 45.2605 Q895.729 44.8916 895.442 43.8669 Q895.155 42.8422 894.499 41.4075 Q893.843 39.9729 892.409 38.9482 Q891.015 37.8825 889.13 37.8825 Q886.588 37.8825 883.924 40.0549 Q881.301 42.2273 879.374 45.9164 Q877.898 48.8676 876.3 55.057 Q874.742 61.2464 874.742 64.3206 Q874.742 66.2061 875.152 67.8866 Q875.603 69.5262 876.874 70.8788 Q878.144 72.1905 880.112 72.1905 Q884.908 72.1905 889.621 66.2471 Q890.523 65.2223 890.728 64.8124 Q890.974 64.3615 891.302 63.1319 L895.483 46.6952 Q895.729 45.4655 895.729 45.2605 Z" fill="#000000" fill-rule="nonzero" fill-opacity="1"></path><path clip-path="url(#clip890)" d="M917.333 97.43 L917.333 95.6223 Q920.461 95.6223 921.178 95.2493 Q921.895 94.8476 921.895 92.9539 L921.895 77.1444 Q921.895 74.9637 921.149 74.4473 Q920.432 73.9308 917.563 73.9308 L917.563 72.0945 L925.769 71.4633 L925.769 93.0113 Q925.769 94.7616 926.4 95.192 Q927.031 95.6223 929.9 95.6223 L929.9 97.43 Q923.904 97.2578 923.789 97.2578 Q922.986 97.2578 917.333 97.43 M919.801 61.22 Q919.801 60.0436 920.69 59.0968 Q921.608 58.1213 922.899 58.1213 Q924.191 58.1213 925.109 59.0107 Q926.027 59.8715 926.027 61.2487 Q926.027 62.5973 925.109 63.4867 Q924.191 64.3475 922.899 64.3475 Q921.551 64.3475 920.661 63.4007 Q919.801 62.4538 919.801 61.22 Z" fill="#000000" fill-rule="nonzero" fill-opacity="1"></path><path clip-path="url(#clip890)" d="M933.917 97.43 L933.917 95.6223 Q937.044 95.6223 937.762 95.2493 Q938.479 94.8476 938.479 92.9539 L938.479 77.2018 Q938.479 75.0211 937.704 74.476 Q936.958 73.9308 933.917 73.9308 L933.917 72.0945 L942.18 71.4633 L942.18 77.6321 Q944.935 71.4633 950.874 71.4633 Q955.293 71.4633 957.043 73.6439 Q958.334 75.1072 958.592 76.7427 Q958.879 78.3782 958.879 82.6246 L958.879 93.8434 Q958.937 95.0772 959.884 95.3641 Q960.83 95.6223 963.47 95.6223 L963.47 97.43 Q957.473 97.2578 956.871 97.2578 Q956.412 97.2578 950.243 97.43 L950.243 95.6223 Q953.37 95.6223 954.088 95.2493 Q954.834 94.8476 954.834 92.9539 L954.834 79.2676 Q954.834 76.2836 953.915 74.5334 Q952.997 72.7544 950.472 72.7544 Q947.431 72.7544 944.992 75.3081 Q942.553 77.8617 942.553 82.1656 L942.553 92.9539 Q942.553 94.8476 943.271 95.2493 Q944.017 95.6223 947.115 95.6223 L947.115 97.43 Q941.119 97.2578 940.545 97.2578 Q940.086 97.2578 933.917 97.43 Z" fill="#000000" fill-rule="nonzero" fill-opacity="1"></path><path clip-path="url(#clip890)" d="M966.435 73.9308 L966.435 72.6397 Q969.133 72.5249 970.911 70.6312 Q972.719 68.7088 973.322 66.356 Q973.953 64.0032 974.01 61.2774 L975.474 61.2774 L975.474 72.0945 L983.881 72.0945 L983.881 73.9308 L975.474 73.9308 L975.474 90.2568 Q975.474 96.5979 979.433 96.5979 Q981.126 96.5979 982.245 94.8763 Q983.364 93.1261 983.364 90.0273 L983.364 86.7851 L984.827 86.7851 L984.827 90.1421 Q984.827 93.3269 983.364 95.7084 Q981.901 98.0899 979.003 98.0899 Q977.941 98.0899 976.88 97.803 Q975.847 97.5447 974.469 96.8561 Q973.121 96.1388 972.26 94.4173 Q971.428 92.667 971.428 90.1421 L971.428 73.9308 L966.435 73.9308 Z" fill="#000000" fill-rule="nonzero" fill-opacity="1"></path><path clip-path="url(#clip890)" d="M997.96 52.1467 Q997.96 37.9644 1003.25 26.5284 Q1005.5 21.7327 1008.66 17.7157 Q1011.81 13.6988 1013.9 11.9363 Q1016 10.1737 1016.57 10.1737 Q1017.39 10.1737 1017.43 10.9935 Q1017.43 11.4034 1016.32 12.4281 Q1002.8 26.2005 1002.84 52.1467 Q1002.84 78.1749 1016 91.4145 Q1017.43 92.8491 1017.43 93.3 Q1017.43 94.1198 1016.57 94.1198 Q1016 94.1198 1013.99 92.4392 Q1011.98 90.7586 1008.86 86.9056 Q1005.75 83.0527 1003.49 78.3389 Q997.96 66.9029 997.96 52.1467 Z" fill="#000000" fill-rule="nonzero" fill-opacity="1"></path><path clip-path="url(#clip890)" d="M1075.29 14.8055 L1070.74 33.1687 Q1070.5 34.2754 1070.29 34.5623 Q1070.09 34.8493 1069.51 34.8493 Q1069.06 34.8493 1068.78 34.6443 Q1068.53 34.4394 1068.53 34.2344 L1068.49 34.0295 Q1068.49 33.9065 1068.57 33.2917 Q1068.65 32.6358 1068.73 31.5701 Q1068.82 30.5044 1068.82 29.3157 Q1068.82 22.5935 1065.54 19.4783 Q1062.3 16.3221 1056.72 16.3221 Q1052.87 16.3221 1049.43 18.3716 Q1045.99 20.421 1044.02 23.6592 Q1042.05 26.8564 1042.05 30.2175 Q1042.05 33.2917 1043.61 35.2592 Q1045.17 37.2266 1047.17 37.8825 L1052.79 39.3991 Q1058.69 40.9157 1060.37 41.5715 Q1062.05 42.1863 1063.45 43.58 Q1067.59 47.433 1067.59 53.4174 Q1067.59 58.5821 1064.68 63.5827 Q1061.77 68.5425 1056.77 71.7806 Q1051.76 74.9778 1046.23 74.9778 Q1036.52 74.9778 1032.05 68.9523 L1027.95 73.7071 Q1027.17 74.6089 1026.93 74.7728 Q1026.72 74.9778 1026.43 74.9778 Q1026.06 74.9778 1025.78 74.7318 Q1025.49 74.5269 1025.49 74.158 Q1025.49 73.8711 1027.91 64.2386 Q1030.33 54.6061 1030.53 54.4011 Q1030.86 54.0732 1031.39 54.0732 Q1032.38 54.0732 1032.38 55.016 Q1032.29 55.2619 1032.21 55.5898 Q1031.72 58.5411 1031.72 60.1396 Q1031.72 63.1319 1032.75 65.4273 Q1033.77 67.6817 1035.29 68.9933 Q1036.84 70.264 1038.94 71.0838 Q1041.03 71.8626 1042.79 72.1495 Q1044.55 72.3954 1046.4 72.3954 Q1050.37 72.3954 1053.9 70.1 Q1057.46 67.8046 1059.47 64.2386 Q1061.52 60.6725 1061.52 56.9425 Q1061.52 54.975 1060.99 53.4584 Q1060.45 51.9008 1059.72 51.04 Q1059.02 50.1793 1057.83 49.5234 Q1056.64 48.8676 1055.82 48.6217 Q1055.04 48.3347 1053.81 48.0478 L1044.84 45.6704 Q1041.23 44.6047 1038.65 41.5305 Q1036.11 38.4563 1036.11 33.7426 Q1036.11 28.7829 1039.02 24.1921 Q1041.97 19.5603 1046.76 16.773 Q1051.6 13.9447 1056.81 13.9447 Q1060.91 13.9447 1064.06 15.5433 Q1067.22 17.1009 1068.82 20.0111 L1072.87 15.2154 Q1073.69 14.2726 1073.86 14.1087 Q1074.06 13.9447 1074.35 13.9447 Q1074.84 13.9447 1075.05 14.2317 Q1075.29 14.5186 1075.29 14.8055 Z" fill="#000000" fill-rule="nonzero" fill-opacity="1"></path><path clip-path="url(#clip890)" d="M1081.48 93.3 Q1081.48 92.8901 1082.55 91.8654 Q1096.07 78.093 1096.07 52.1467 Q1096.07 26.1185 1083.08 12.961 Q1081.48 11.4444 1081.48 10.9935 Q1081.48 10.1737 1082.3 10.1737 Q1082.87 10.1737 1084.88 11.8543 Q1086.93 13.5348 1090.01 17.3878 Q1093.12 21.2408 1095.42 25.9546 Q1100.95 37.3906 1100.95 52.1467 Q1100.95 66.329 1095.66 77.765 Q1093.41 82.5608 1090.25 86.5777 Q1087.1 90.5947 1085.01 92.3572 Q1082.92 94.1198 1082.3 94.1198 Q1081.48 94.1198 1081.48 93.3 Z" fill="#000000" fill-rule="nonzero" fill-opacity="1"></path><path clip-path="url(#clip890)" d="M1137.01 60.3856 Q1137.09 59.3609 1138.69 59.3609 L1190.13 59.3609 Q1192.55 59.3609 1192.59 60.3036 Q1192.59 61.3283 1190.29 61.2873 L1139.26 61.2873 Q1137.01 61.3283 1137.01 60.3856 M1137.01 43.9899 Q1137.01 42.9651 1138.77 43.0061 L1190.05 43.0061 Q1192.55 43.0061 1192.59 43.9899 Q1192.59 44.9326 1190.46 44.9326 L1138.69 44.9326 Q1137.01 44.9326 1137.01 43.9899 Z" fill="#000000" fill-rule="nonzero" fill-opacity="1"></path><path clip-path="url(#clip890)" d="M1224.97 46.6132 Q1224.97 33.4146 1231.69 25.3398 Q1238.42 17.2239 1247.06 17.2239 Q1252.11 17.2239 1254.89 19.8062 Q1257.72 22.3475 1257.72 26.2825 Q1257.72 28.4549 1256.45 29.3977 Q1255.18 30.3404 1253.87 30.3404 Q1252.35 30.3404 1251.16 29.3157 Q1249.97 28.291 1249.97 26.4465 Q1249.97 22.6754 1254.61 22.6754 Q1252.43 19.3143 1247.23 19.3143 Q1245.63 19.3143 1243.99 19.8062 Q1242.35 20.2571 1240.22 21.8147 Q1238.09 23.3723 1236.45 25.8316 Q1234.81 28.291 1233.66 32.9228 Q1232.51 37.5546 1232.51 43.58 L1232.51 45.5885 Q1235.96 37.2676 1243.01 37.3086 Q1250.06 37.3086 1254.93 42.6782 Q1259.81 48.0478 1259.81 55.9997 Q1259.81 64.1566 1254.73 69.5672 Q1249.65 74.9778 1242.51 74.9778 Q1239.32 74.9778 1236.41 73.6251 Q1233.54 72.3135 1230.83 69.2803 Q1228.17 66.2471 1226.57 60.4266 Q1224.97 54.6061 1224.97 46.6132 M1232.68 54.1552 Q1232.68 62.3941 1234.19 66.329 Q1234.44 66.9849 1234.97 67.8866 Q1235.55 68.7884 1236.49 69.9771 Q1237.47 71.1248 1239.07 71.9036 Q1240.67 72.6414 1242.51 72.6414 Q1248.13 72.6414 1250.84 67.1898 Q1252.27 64.1566 1252.27 55.9178 Q1252.27 47.515 1250.75 44.4408 Q1248.17 39.2351 1242.92 39.2351 Q1239.4 39.2351 1236.94 41.6535 Q1234.52 44.0719 1233.58 47.31 Q1232.68 50.5482 1232.68 54.1552 Z" fill="#000000" fill-rule="nonzero" fill-opacity="1"></path><path clip-path="url(#clip892)" d="M234.105 213.354 L234.105 744.416 L263.469 744.416 L263.469 213.354 L234.105 213.354 L234.105 213.354  Z" fill="#009af9" fill-rule="evenodd" fill-opacity="1"></path>
<polyline clip-path="url(#clip892)" style="stroke:#000000; stroke-linecap:round; stroke-linejoin:round; stroke-width:4; stroke-opacity:1; fill:none" points="234.105,213.354 234.105,744.416 263.469,744.416 263.469,213.354 234.105,213.354 "></polyline>
<path clip-path="url(#clip892)" d="M485.799 320.191 L485.799 744.416 L515.164 744.416 L515.164 320.191 L485.799 320.191 L485.799 320.191  Z" fill="#009af9" fill-rule="evenodd" fill-opacity="1"></path>
<polyline clip-path="url(#clip892)" style="stroke:#000000; stroke-linecap:round; stroke-linejoin:round; stroke-width:4; stroke-opacity:1; fill:none" points="485.799,320.191 485.799,744.416 515.164,744.416 515.164,320.191 485.799,320.191 "></polyline>
<path clip-path="url(#clip892)" d="M737.494 395.638 L737.494 744.416 L766.858 744.416 L766.858 395.638 L737.494 395.638 L737.494 395.638  Z" fill="#009af9" fill-rule="evenodd" fill-opacity="1"></path>
<polyline clip-path="url(#clip892)" style="stroke:#000000; stroke-linecap:round; stroke-linejoin:round; stroke-width:4; stroke-opacity:1; fill:none" points="737.494,395.638 737.494,744.416 766.858,744.416 766.858,395.638 737.494,395.638 "></polyline>
<path clip-path="url(#clip892)" d="M989.188 537.496 L989.188 744.416 L1018.55 744.416 L1018.55 537.496 L989.188 537.496 L989.188 537.496  Z" fill="#009af9" fill-rule="evenodd" fill-opacity="1"></path>
<polyline clip-path="url(#clip892)" style="stroke:#000000; stroke-linecap:round; stroke-linejoin:round; stroke-width:4; stroke-opacity:1; fill:none" points="989.188,537.496 989.188,744.416 1018.55,744.416 1018.55,537.496 989.188,537.496 "></polyline>
<path clip-path="url(#clip892)" d="M1240.88 588.813 L1240.88 744.416 L1270.25 744.416 L1270.25 588.813 L1240.88 588.813 L1240.88 588.813  Z" fill="#009af9" fill-rule="evenodd" fill-opacity="1"></path>
<polyline clip-path="url(#clip892)" style="stroke:#000000; stroke-linecap:round; stroke-linejoin:round; stroke-width:4; stroke-opacity:1; fill:none" points="1240.88,588.813 1240.88,744.416 1270.25,744.416 1270.25,588.813 1240.88,588.813 "></polyline>
<path clip-path="url(#clip892)" d="M1492.58 640.643 L1492.58 744.416 L1521.94 744.416 L1521.94 640.643 L1492.58 640.643 L1492.58 640.643  Z" fill="#009af9" fill-rule="evenodd" fill-opacity="1"></path>
<polyline clip-path="url(#clip892)" style="stroke:#000000; stroke-linecap:round; stroke-linejoin:round; stroke-width:4; stroke-opacity:1; fill:none" points="1492.58,640.643 1492.58,744.416 1521.94,744.416 1521.94,640.643 1492.58,640.643 "></polyline>
<circle clip-path="url(#clip892)" style="fill:#009af9; stroke:none; fill-opacity:0" cx="248.787" cy="213.354" r="2"></circle>
<circle clip-path="url(#clip892)" style="fill:#009af9; stroke:none; fill-opacity:0" cx="500.482" cy="320.191" r="2"></circle>
<circle clip-path="url(#clip892)" style="fill:#009af9; stroke:none; fill-opacity:0" cx="752.176" cy="395.638" r="2"></circle>
<circle clip-path="url(#clip892)" style="fill:#009af9; stroke:none; fill-opacity:0" cx="1003.87" cy="537.496" r="2"></circle>
<circle clip-path="url(#clip892)" style="fill:#009af9; stroke:none; fill-opacity:0" cx="1255.56" cy="588.813" r="2"></circle>
<circle clip-path="url(#clip892)" style="fill:#009af9; stroke:none; fill-opacity:0" cx="1507.26" cy="640.643" r="2"></circle>
<path clip-path="url(#clip892)" d="M263.469 158.641 L263.469 744.416 L292.834 744.416 L292.834 158.641 L263.469 158.641 L263.469 158.641  Z" fill="#e26f46" fill-rule="evenodd" fill-opacity="1"></path>
<polyline clip-path="url(#clip892)" style="stroke:#000000; stroke-linecap:round; stroke-linejoin:round; stroke-width:4; stroke-opacity:1; fill:none" points="263.469,158.641 263.469,744.416 292.834,744.416 292.834,158.641 263.469,158.641 "></polyline>
<path clip-path="url(#clip892)" d="M515.164 324.527 L515.164 744.416 L544.528 744.416 L544.528 324.527 L515.164 324.527 L515.164 324.527  Z" fill="#e26f46" fill-rule="evenodd" fill-opacity="1"></path>
<polyline clip-path="url(#clip892)" style="stroke:#000000; stroke-linecap:round; stroke-linejoin:round; stroke-width:4; stroke-opacity:1; fill:none" points="515.164,324.527 515.164,744.416 544.528,744.416 544.528,324.527 515.164,324.527 "></polyline>
<path clip-path="url(#clip892)" d="M766.858 491.324 L766.858 744.416 L796.222 744.416 L796.222 491.324 L766.858 491.324 L766.858 491.324  Z" fill="#e26f46" fill-rule="evenodd" fill-opacity="1"></path>
<polyline clip-path="url(#clip892)" style="stroke:#000000; stroke-linecap:round; stroke-linejoin:round; stroke-width:4; stroke-opacity:1; fill:none" points="766.858,491.324 766.858,744.416 796.222,744.416 796.222,491.324 766.858,491.324 "></polyline>
<path clip-path="url(#clip892)" d="M1018.55 573.026 L1018.55 744.416 L1047.92 744.416 L1047.92 573.026 L1018.55 573.026 L1018.55 573.026  Z" fill="#e26f46" fill-rule="evenodd" fill-opacity="1"></path>
<polyline clip-path="url(#clip892)" style="stroke:#000000; stroke-linecap:round; stroke-linejoin:round; stroke-width:4; stroke-opacity:1; fill:none" points="1018.55,573.026 1018.55,744.416 1047.92,744.416 1047.92,573.026 1018.55,573.026 "></polyline>
<path clip-path="url(#clip892)" d="M1270.25 610.904 L1270.25 744.416 L1299.61 744.416 L1299.61 610.904 L1270.25 610.904 L1270.25 610.904  Z" fill="#e26f46" fill-rule="evenodd" fill-opacity="1"></path>
<polyline clip-path="url(#clip892)" style="stroke:#000000; stroke-linecap:round; stroke-linejoin:round; stroke-width:4; stroke-opacity:1; fill:none" points="1270.25,610.904 1270.25,744.416 1299.61,744.416 1299.61,610.904 1270.25,610.904 "></polyline>
<path clip-path="url(#clip892)" d="M1521.94 636.412 L1521.94 744.416 L1551.31 744.416 L1551.31 636.412 L1521.94 636.412 L1521.94 636.412  Z" fill="#e26f46" fill-rule="evenodd" fill-opacity="1"></path>
<polyline clip-path="url(#clip892)" style="stroke:#000000; stroke-linecap:round; stroke-linejoin:round; stroke-width:4; stroke-opacity:1; fill:none" points="1521.94,636.412 1521.94,744.416 1551.31,744.416 1551.31,636.412 1521.94,636.412 "></polyline>
<circle clip-path="url(#clip892)" style="fill:#e26f46; stroke:none; fill-opacity:0" cx="278.152" cy="158.641" r="2"></circle>
<circle clip-path="url(#clip892)" style="fill:#e26f46; stroke:none; fill-opacity:0" cx="529.846" cy="324.527" r="2"></circle>
<circle clip-path="url(#clip892)" style="fill:#e26f46; stroke:none; fill-opacity:0" cx="781.54" cy="491.324" r="2"></circle>
<circle clip-path="url(#clip892)" style="fill:#e26f46; stroke:none; fill-opacity:0" cx="1033.23" cy="573.026" r="2"></circle>
<circle clip-path="url(#clip892)" style="fill:#e26f46; stroke:none; fill-opacity:0" cx="1284.93" cy="610.904" r="2"></circle>
<circle clip-path="url(#clip892)" style="fill:#e26f46; stroke:none; fill-opacity:0" cx="1536.62" cy="636.412" r="2"></circle>
<path clip-path="url(#clip892)" d="M292.834 105.328 L292.834 744.416 L322.198 744.416 L322.198 105.328 L292.834 105.328 L292.834 105.328  Z" fill="#3da44d" fill-rule="evenodd" fill-opacity="1"></path>
<polyline clip-path="url(#clip892)" style="stroke:#000000; stroke-linecap:round; stroke-linejoin:round; stroke-width:4; stroke-opacity:1; fill:none" points="292.834,105.328 292.834,744.416 322.198,744.416 322.198,105.328 292.834,105.328 "></polyline>
<path clip-path="url(#clip892)" d="M544.528 315.85 L544.528 744.416 L573.892 744.416 L573.892 315.85 L544.528 315.85 L544.528 315.85  Z" fill="#3da44d" fill-rule="evenodd" fill-opacity="1"></path>
<polyline clip-path="url(#clip892)" style="stroke:#000000; stroke-linecap:round; stroke-linejoin:round; stroke-width:4; stroke-opacity:1; fill:none" points="544.528,315.85 544.528,744.416 573.892,744.416 573.892,315.85 544.528,315.85 "></polyline>
<path clip-path="url(#clip892)" d="M796.222 464.534 L796.222 744.416 L825.587 744.416 L825.587 464.534 L796.222 464.534 L796.222 464.534  Z" fill="#3da44d" fill-rule="evenodd" fill-opacity="1"></path>
<polyline clip-path="url(#clip892)" style="stroke:#000000; stroke-linecap:round; stroke-linejoin:round; stroke-width:4; stroke-opacity:1; fill:none" points="796.222,464.534 796.222,744.416 825.587,744.416 825.587,464.534 796.222,464.534 "></polyline>
<path clip-path="url(#clip892)" d="M1047.92 560.506 L1047.92 744.416 L1077.28 744.416 L1077.28 560.506 L1047.92 560.506 L1047.92 560.506  Z" fill="#3da44d" fill-rule="evenodd" fill-opacity="1"></path>
<polyline clip-path="url(#clip892)" style="stroke:#000000; stroke-linecap:round; stroke-linejoin:round; stroke-width:4; stroke-opacity:1; fill:none" points="1047.92,560.506 1047.92,744.416 1077.28,744.416 1077.28,560.506 1047.92,560.506 "></polyline>
<path clip-path="url(#clip892)" d="M1299.61 607.017 L1299.61 744.416 L1328.98 744.416 L1328.98 607.017 L1299.61 607.017 L1299.61 607.017  Z" fill="#3da44d" fill-rule="evenodd" fill-opacity="1"></path>
<polyline clip-path="url(#clip892)" style="stroke:#000000; stroke-linecap:round; stroke-linejoin:round; stroke-width:4; stroke-opacity:1; fill:none" points="1299.61,607.017 1299.61,744.416 1328.98,744.416 1328.98,607.017 1299.61,607.017 "></polyline>
<path clip-path="url(#clip892)" d="M1551.31 634.807 L1551.31 744.416 L1580.67 744.416 L1580.67 634.807 L1551.31 634.807 L1551.31 634.807  Z" fill="#3da44d" fill-rule="evenodd" fill-opacity="1"></path>
<polyline clip-path="url(#clip892)" style="stroke:#000000; stroke-linecap:round; stroke-linejoin:round; stroke-width:4; stroke-opacity:1; fill:none" points="1551.31,634.807 1551.31,744.416 1580.67,744.416 1580.67,634.807 1551.31,634.807 "></polyline>
<circle clip-path="url(#clip892)" style="fill:#3da44d; stroke:none; fill-opacity:0" cx="307.516" cy="105.328" r="2"></circle>
<circle clip-path="url(#clip892)" style="fill:#3da44d; stroke:none; fill-opacity:0" cx="559.21" cy="315.85" r="2"></circle>
<circle clip-path="url(#clip892)" style="fill:#3da44d; stroke:none; fill-opacity:0" cx="810.905" cy="464.534" r="2"></circle>
<circle clip-path="url(#clip892)" style="fill:#3da44d; stroke:none; fill-opacity:0" cx="1062.6" cy="560.506" r="2"></circle>
<circle clip-path="url(#clip892)" style="fill:#3da44d; stroke:none; fill-opacity:0" cx="1314.29" cy="607.017" r="2"></circle>
<circle clip-path="url(#clip892)" style="fill:#3da44d; stroke:none; fill-opacity:0" cx="1565.99" cy="634.807" r="2"></circle>
<path clip-path="url(#clip892)" d="M322.198 192.779 L322.198 744.416 L351.562 744.416 L351.562 192.779 L322.198 192.779 L322.198 192.779  Z" fill="#c271d2" fill-rule="evenodd" fill-opacity="1"></path>
<polyline clip-path="url(#clip892)" style="stroke:#000000; stroke-linecap:round; stroke-linejoin:round; stroke-width:4; stroke-opacity:1; fill:none" points="322.198,192.779 322.198,744.416 351.562,744.416 351.562,192.779 322.198,192.779 "></polyline>
<path clip-path="url(#clip892)" d="M573.892 343.653 L573.892 744.416 L603.257 744.416 L603.257 343.653 L573.892 343.653 L573.892 343.653  Z" fill="#c271d2" fill-rule="evenodd" fill-opacity="1"></path>
<polyline clip-path="url(#clip892)" style="stroke:#000000; stroke-linecap:round; stroke-linejoin:round; stroke-width:4; stroke-opacity:1; fill:none" points="573.892,343.653 573.892,744.416 603.257,744.416 603.257,343.653 573.892,343.653 "></polyline>
<path clip-path="url(#clip892)" d="M825.587 432.115 L825.587 744.416 L854.951 744.416 L854.951 432.115 L825.587 432.115 L825.587 432.115  Z" fill="#c271d2" fill-rule="evenodd" fill-opacity="1"></path>
<polyline clip-path="url(#clip892)" style="stroke:#000000; stroke-linecap:round; stroke-linejoin:round; stroke-width:4; stroke-opacity:1; fill:none" points="825.587,432.115 825.587,744.416 854.951,744.416 854.951,432.115 825.587,432.115 "></polyline>
<path clip-path="url(#clip892)" d="M1077.28 552.257 L1077.28 744.416 L1106.65 744.416 L1106.65 552.257 L1077.28 552.257 L1077.28 552.257  Z" fill="#c271d2" fill-rule="evenodd" fill-opacity="1"></path>
<polyline clip-path="url(#clip892)" style="stroke:#000000; stroke-linecap:round; stroke-linejoin:round; stroke-width:4; stroke-opacity:1; fill:none" points="1077.28,552.257 1077.28,744.416 1106.65,744.416 1106.65,552.257 1077.28,552.257 "></polyline>
<path clip-path="url(#clip892)" d="M1328.98 614.383 L1328.98 744.416 L1358.34 744.416 L1358.34 614.383 L1328.98 614.383 L1328.98 614.383  Z" fill="#c271d2" fill-rule="evenodd" fill-opacity="1"></path>
<polyline clip-path="url(#clip892)" style="stroke:#000000; stroke-linecap:round; stroke-linejoin:round; stroke-width:4; stroke-opacity:1; fill:none" points="1328.98,614.383 1328.98,744.416 1358.34,744.416 1358.34,614.383 1328.98,614.383 "></polyline>
<path clip-path="url(#clip892)" d="M1580.67 651.972 L1580.67 744.416 L1610.03 744.416 L1610.03 651.972 L1580.67 651.972 L1580.67 651.972  Z" fill="#c271d2" fill-rule="evenodd" fill-opacity="1"></path>
<polyline clip-path="url(#clip892)" style="stroke:#000000; stroke-linecap:round; stroke-linejoin:round; stroke-width:4; stroke-opacity:1; fill:none" points="1580.67,651.972 1580.67,744.416 1610.03,744.416 1610.03,651.972 1580.67,651.972 "></polyline>
<circle clip-path="url(#clip892)" style="fill:#c271d2; stroke:none; fill-opacity:0" cx="336.88" cy="192.779" r="2"></circle>
<circle clip-path="url(#clip892)" style="fill:#c271d2; stroke:none; fill-opacity:0" cx="588.575" cy="343.653" r="2"></circle>
<circle clip-path="url(#clip892)" style="fill:#c271d2; stroke:none; fill-opacity:0" cx="840.269" cy="432.115" r="2"></circle>
<circle clip-path="url(#clip892)" style="fill:#c271d2; stroke:none; fill-opacity:0" cx="1091.96" cy="552.257" r="2"></circle>
<circle clip-path="url(#clip892)" style="fill:#c271d2; stroke:none; fill-opacity:0" cx="1343.66" cy="614.383" r="2"></circle>
<circle clip-path="url(#clip892)" style="fill:#c271d2; stroke:none; fill-opacity:0" cx="1595.35" cy="651.972" r="2"></circle>
<path clip-path="url(#clip892)" d="M351.562 243.665 L351.562 744.416 L380.927 744.416 L380.927 243.665 L351.562 243.665 L351.562 243.665  Z" fill="#ac8d18" fill-rule="evenodd" fill-opacity="1"></path>
<polyline clip-path="url(#clip892)" style="stroke:#000000; stroke-linecap:round; stroke-linejoin:round; stroke-width:4; stroke-opacity:1; fill:none" points="351.562,243.665 351.562,744.416 380.927,744.416 380.927,243.665 351.562,243.665 "></polyline>
<path clip-path="url(#clip892)" d="M603.257 367.155 L603.257 744.416 L632.621 744.416 L632.621 367.155 L603.257 367.155 L603.257 367.155  Z" fill="#ac8d18" fill-rule="evenodd" fill-opacity="1"></path>
<polyline clip-path="url(#clip892)" style="stroke:#000000; stroke-linecap:round; stroke-linejoin:round; stroke-width:4; stroke-opacity:1; fill:none" points="603.257,367.155 603.257,744.416 632.621,744.416 632.621,367.155 603.257,367.155 "></polyline>
<path clip-path="url(#clip892)" d="M854.951 472.497 L854.951 744.416 L884.316 744.416 L884.316 472.497 L854.951 472.497 L854.951 472.497  Z" fill="#ac8d18" fill-rule="evenodd" fill-opacity="1"></path>
<polyline clip-path="url(#clip892)" style="stroke:#000000; stroke-linecap:round; stroke-linejoin:round; stroke-width:4; stroke-opacity:1; fill:none" points="854.951,472.497 854.951,744.416 884.316,744.416 884.316,472.497 854.951,472.497 "></polyline>
<path clip-path="url(#clip892)" d="M1106.65 551.928 L1106.65 744.416 L1136.01 744.416 L1136.01 551.928 L1106.65 551.928 L1106.65 551.928  Z" fill="#ac8d18" fill-rule="evenodd" fill-opacity="1"></path>
<polyline clip-path="url(#clip892)" style="stroke:#000000; stroke-linecap:round; stroke-linejoin:round; stroke-width:4; stroke-opacity:1; fill:none" points="1106.65,551.928 1106.65,744.416 1136.01,744.416 1136.01,551.928 1106.65,551.928 "></polyline>
<path clip-path="url(#clip892)" d="M1358.34 574.039 L1358.34 744.416 L1387.7 744.416 L1387.7 574.039 L1358.34 574.039 L1358.34 574.039  Z" fill="#ac8d18" fill-rule="evenodd" fill-opacity="1"></path>
<polyline clip-path="url(#clip892)" style="stroke:#000000; stroke-linecap:round; stroke-linejoin:round; stroke-width:4; stroke-opacity:1; fill:none" points="1358.34,574.039 1358.34,744.416 1387.7,744.416 1387.7,574.039 1358.34,574.039 "></polyline>
<path clip-path="url(#clip892)" d="M1610.03 658.964 L1610.03 744.416 L1639.4 744.416 L1639.4 658.964 L1610.03 658.964 L1610.03 658.964  Z" fill="#ac8d18" fill-rule="evenodd" fill-opacity="1"></path>
<polyline clip-path="url(#clip892)" style="stroke:#000000; stroke-linecap:round; stroke-linejoin:round; stroke-width:4; stroke-opacity:1; fill:none" points="1610.03,658.964 1610.03,744.416 1639.4,744.416 1639.4,658.964 1610.03,658.964 "></polyline>
<circle clip-path="url(#clip892)" style="fill:#ac8d18; stroke:none; fill-opacity:0" cx="366.245" cy="243.665" r="2"></circle>
<circle clip-path="url(#clip892)" style="fill:#ac8d18; stroke:none; fill-opacity:0" cx="617.939" cy="367.155" r="2"></circle>
<circle clip-path="url(#clip892)" style="fill:#ac8d18; stroke:none; fill-opacity:0" cx="869.633" cy="472.497" r="2"></circle>
<circle clip-path="url(#clip892)" style="fill:#ac8d18; stroke:none; fill-opacity:0" cx="1121.33" cy="551.928" r="2"></circle>
<circle clip-path="url(#clip892)" style="fill:#ac8d18; stroke:none; fill-opacity:0" cx="1373.02" cy="574.039" r="2"></circle>
<circle clip-path="url(#clip892)" style="fill:#ac8d18; stroke:none; fill-opacity:0" cx="1624.72" cy="658.964" r="2"></circle>
<path clip-path="url(#clip892)" d="M380.927 125.194 L380.927 744.416 L410.291 744.416 L410.291 125.194 L380.927 125.194 L380.927 125.194  Z" fill="#00a9ad" fill-rule="evenodd" fill-opacity="1"></path>
<polyline clip-path="url(#clip892)" style="stroke:#000000; stroke-linecap:round; stroke-linejoin:round; stroke-width:4; stroke-opacity:1; fill:none" points="380.927,125.194 380.927,744.416 410.291,744.416 410.291,125.194 380.927,125.194 "></polyline>
<path clip-path="url(#clip892)" d="M632.621 339.463 L632.621 744.416 L661.985 744.416 L661.985 339.463 L632.621 339.463 L632.621 339.463  Z" fill="#00a9ad" fill-rule="evenodd" fill-opacity="1"></path>
<polyline clip-path="url(#clip892)" style="stroke:#000000; stroke-linecap:round; stroke-linejoin:round; stroke-width:4; stroke-opacity:1; fill:none" points="632.621,339.463 632.621,744.416 661.985,744.416 661.985,339.463 632.621,339.463 "></polyline>
<path clip-path="url(#clip892)" d="M884.316 468.836 L884.316 744.416 L913.68 744.416 L913.68 468.836 L884.316 468.836 L884.316 468.836  Z" fill="#00a9ad" fill-rule="evenodd" fill-opacity="1"></path>
<polyline clip-path="url(#clip892)" style="stroke:#000000; stroke-linecap:round; stroke-linejoin:round; stroke-width:4; stroke-opacity:1; fill:none" points="884.316,468.836 884.316,744.416 913.68,744.416 913.68,468.836 884.316,468.836 "></polyline>
<path clip-path="url(#clip892)" d="M1136.01 559.339 L1136.01 744.416 L1165.37 744.416 L1165.37 559.339 L1136.01 559.339 L1136.01 559.339  Z" fill="#00a9ad" fill-rule="evenodd" fill-opacity="1"></path>
<polyline clip-path="url(#clip892)" style="stroke:#000000; stroke-linecap:round; stroke-linejoin:round; stroke-width:4; stroke-opacity:1; fill:none" points="1136.01,559.339 1136.01,744.416 1165.37,744.416 1165.37,559.339 1136.01,559.339 "></polyline>
<path clip-path="url(#clip892)" d="M1387.7 595.346 L1387.7 744.416 L1417.07 744.416 L1417.07 595.346 L1387.7 595.346 L1387.7 595.346  Z" fill="#00a9ad" fill-rule="evenodd" fill-opacity="1"></path>
<polyline clip-path="url(#clip892)" style="stroke:#000000; stroke-linecap:round; stroke-linejoin:round; stroke-width:4; stroke-opacity:1; fill:none" points="1387.7,595.346 1387.7,744.416 1417.07,744.416 1417.07,595.346 1387.7,595.346 "></polyline>
<path clip-path="url(#clip892)" d="M1639.4 648.576 L1639.4 744.416 L1668.76 744.416 L1668.76 648.576 L1639.4 648.576 L1639.4 648.576  Z" fill="#00a9ad" fill-rule="evenodd" fill-opacity="1"></path>
<polyline clip-path="url(#clip892)" style="stroke:#000000; stroke-linecap:round; stroke-linejoin:round; stroke-width:4; stroke-opacity:1; fill:none" points="1639.4,648.576 1639.4,744.416 1668.76,744.416 1668.76,648.576 1639.4,648.576 "></polyline>
<circle clip-path="url(#clip892)" style="fill:#00a9ad; stroke:none; fill-opacity:0" cx="395.609" cy="125.194" r="2"></circle>
<circle clip-path="url(#clip892)" style="fill:#00a9ad; stroke:none; fill-opacity:0" cx="647.303" cy="339.463" r="2"></circle>
<circle clip-path="url(#clip892)" style="fill:#00a9ad; stroke:none; fill-opacity:0" cx="898.998" cy="468.836" r="2"></circle>
<circle clip-path="url(#clip892)" style="fill:#00a9ad; stroke:none; fill-opacity:0" cx="1150.69" cy="559.339" r="2"></circle>
<circle clip-path="url(#clip892)" style="fill:#00a9ad; stroke:none; fill-opacity:0" cx="1402.39" cy="595.346" r="2"></circle>
<circle clip-path="url(#clip892)" style="fill:#00a9ad; stroke:none; fill-opacity:0" cx="1654.08" cy="648.576" r="2"></circle>
</svg>