<svg xmlns="http://www.w3.org/2000/svg" xmlns:xlink="http://www.w3.org/1999/xlink" width="450" height="190" viewBox="0 0 1800 760">
<defs>
  <clipPath id="clip790">
    <rect x="0" y="0" width="1800" height="760"></rect>
  </clipPath>
</defs>
<path clip-path="url(#clip790)" d="M0 760 L1800 760 L1800 0 L0 0  Z" fill="#ffffff" fill-rule="evenodd" fill-opacity="1"></path>
<defs>
  <clipPath id="clip791">
    <rect x="360" y="0" width="1261" height="760"></rect>
  </clipPath>
</defs>
<path clip-path="url(#clip790)" d="M180.76 667.52 L1752.76 667.52 L1752.76 101.296 L180.76 101.296  Z" fill="#ffffff" fill-rule="evenodd" fill-opacity="1"></path>
<defs>
  <clipPath id="clip792">
    <rect x="180" y="101" width="1573" height="567"></rect>
  </clipPath>
</defs>
<polyline clip-path="url(#clip792)" style="stroke:#000000; stroke-linecap:round; stroke-linejoin:round; stroke-width:2; stroke-opacity:0.1; fill:none" points="349.555,667.52 349.555,101.296 "></polyline>
<polyline clip-path="url(#clip792)" style="stroke:#000000; stroke-linecap:round; stroke-linejoin:round; stroke-width:2; stroke-opacity:0.1; fill:none" points="596.436,667.52 596.436,101.296 "></polyline>
<polyline clip-path="url(#clip792)" style="stroke:#000000; stroke-linecap:round; stroke-linejoin:round; stroke-width:2; stroke-opacity:0.1; fill:none" points="843.317,667.52 843.317,101.296 "></polyline>
<polyline clip-path="url(#clip792)" style="stroke:#000000; stroke-linecap:round; stroke-linejoin:round; stroke-width:2; stroke-opacity:0.1; fill:none" points="1090.2,667.52 1090.2,101.296 "></polyline>
<polyline clip-path="url(#clip792)" style="stroke:#000000; stroke-linecap:round; stroke-linejoin:round; stroke-width:2; stroke-opacity:0.1; fill:none" points="1337.08,667.52 1337.08,101.296 "></polyline>
<polyline clip-path="url(#clip792)" style="stroke:#000000; stroke-linecap:round; stroke-linejoin:round; stroke-width:2; stroke-opacity:0.1; fill:none" points="1583.96,667.52 1583.96,101.296 "></polyline>
<polyline clip-path="url(#clip792)" style="stroke:#000000; stroke-linecap:round; stroke-linejoin:round; stroke-width:2; stroke-opacity:0.1; fill:none" points="180.76,667.52 1752.76,667.52 "></polyline>
<polyline clip-path="url(#clip792)" style="stroke:#000000; stroke-linecap:round; stroke-linejoin:round; stroke-width:2; stroke-opacity:0.1; fill:none" points="180.76,582.485 1752.76,582.485 "></polyline>
<polyline clip-path="url(#clip792)" style="stroke:#000000; stroke-linecap:round; stroke-linejoin:round; stroke-width:2; stroke-opacity:0.1; fill:none" points="180.76,497.45 1752.76,497.45 "></polyline>
<polyline clip-path="url(#clip792)" style="stroke:#000000; stroke-linecap:round; stroke-linejoin:round; stroke-width:2; stroke-opacity:0.1; fill:none" points="180.76,412.415 1752.76,412.415 "></polyline>
<polyline clip-path="url(#clip792)" style="stroke:#000000; stroke-linecap:round; stroke-linejoin:round; stroke-width:2; stroke-opacity:0.1; fill:none" points="180.76,327.379 1752.76,327.379 "></polyline>
<polyline clip-path="url(#clip792)" style="stroke:#000000; stroke-linecap:round; stroke-linejoin:round; stroke-width:2; stroke-opacity:0.1; fill:none" points="180.76,242.344 1752.76,242.344 "></polyline>
<polyline clip-path="url(#clip792)" style="stroke:#000000; stroke-linecap:round; stroke-linejoin:round; stroke-width:2; stroke-opacity:0.1; fill:none" points="180.76,157.309 1752.76,157.309 "></polyline>
<polyline clip-path="url(#clip790)" style="stroke:#000000; stroke-linecap:round; stroke-linejoin:round; stroke-width:4; stroke-opacity:1; fill:none" points="180.76,667.52 1752.76,667.52 "></polyline>
<polyline clip-path="url(#clip790)" style="stroke:#000000; stroke-linecap:round; stroke-linejoin:round; stroke-width:4; stroke-opacity:1; fill:none" points="349.555,667.52 349.555,648.622 "></polyline>
<polyline clip-path="url(#clip790)" style="stroke:#000000; stroke-linecap:round; stroke-linejoin:round; stroke-width:4; stroke-opacity:1; fill:none" points="596.436,667.52 596.436,648.622 "></polyline>
<polyline clip-path="url(#clip790)" style="stroke:#000000; stroke-linecap:round; stroke-linejoin:round; stroke-width:4; stroke-opacity:1; fill:none" points="843.317,667.52 843.317,648.622 "></polyline>
<polyline clip-path="url(#clip790)" style="stroke:#000000; stroke-linecap:round; stroke-linejoin:round; stroke-width:4; stroke-opacity:1; fill:none" points="1090.2,667.52 1090.2,648.622 "></polyline>
<polyline clip-path="url(#clip790)" style="stroke:#000000; stroke-linecap:round; stroke-linejoin:round; stroke-width:4; stroke-opacity:1; fill:none" points="1337.08,667.52 1337.08,648.622 "></polyline>
<polyline clip-path="url(#clip790)" style="stroke:#000000; stroke-linecap:round; stroke-linejoin:round; stroke-width:4; stroke-opacity:1; fill:none" points="1583.96,667.52 1583.96,648.622 "></polyline>
<path clip-path="url(#clip790)" d="M293.838 721.185 L301.477 721.185 L301.477 694.819 L293.167 696.486 L293.167 692.227 L301.43 690.56 L306.106 690.56 L306.106 721.185 L313.745 721.185 L313.745 725.12 L293.838 725.12 L293.838 721.185 Z" fill="#000000" fill-rule="nonzero" fill-opacity="1"></path><path clip-path="url(#clip790)" d="M333.19 693.639 Q329.578 693.639 327.75 697.203 Q325.944 700.745 325.944 707.875 Q325.944 714.981 327.75 718.546 Q329.578 722.087 333.19 722.087 Q336.824 722.087 338.629 718.546 Q340.458 714.981 340.458 707.875 Q340.458 700.745 338.629 697.203 Q336.824 693.639 333.19 693.639 M333.19 689.935 Q339 689.935 342.055 694.541 Q345.134 699.125 345.134 707.875 Q345.134 716.601 342.055 721.208 Q339 725.791 333.19 725.791 Q327.379 725.791 324.301 721.208 Q321.245 716.601 321.245 707.875 Q321.245 699.125 324.301 694.541 Q327.379 689.935 333.19 689.935 Z" fill="#000000" fill-rule="nonzero" fill-opacity="1"></path><path clip-path="url(#clip790)" d="M357.379 721.185 L373.699 721.185 L373.699 725.12 L351.754 725.12 L351.754 721.185 Q354.416 718.43 359 713.8 Q363.606 709.148 364.787 707.805 Q367.032 705.282 367.912 703.546 Q368.814 701.787 368.814 700.097 Q368.814 697.342 366.87 695.606 Q364.949 693.87 361.847 693.87 Q359.648 693.87 357.194 694.634 Q354.764 695.398 351.986 696.949 L351.986 692.227 Q354.81 691.092 357.263 690.514 Q359.717 689.935 361.754 689.935 Q367.125 689.935 370.319 692.62 Q373.513 695.305 373.513 699.796 Q373.513 701.926 372.703 703.847 Q371.916 705.745 369.81 708.338 Q369.231 709.009 366.129 712.226 Q363.027 715.421 357.379 721.185 Z" fill="#000000" fill-rule="nonzero" fill-opacity="1"></path><path clip-path="url(#clip790)" d="M396.361 694.634 L384.555 713.083 L396.361 713.083 L396.361 694.634 M395.134 690.56 L401.013 690.56 L401.013 713.083 L405.944 713.083 L405.944 716.972 L401.013 716.972 L401.013 725.12 L396.361 725.12 L396.361 716.972 L380.759 716.972 L380.759 712.458 L395.134 690.56 Z" fill="#000000" fill-rule="nonzero" fill-opacity="1"></path><path clip-path="url(#clip790)" d="M545.094 721.185 L561.413 721.185 L561.413 725.12 L539.469 725.12 L539.469 721.185 Q542.131 718.43 546.714 713.8 Q551.321 709.148 552.501 707.805 Q554.747 705.282 555.626 703.546 Q556.529 701.787 556.529 700.097 Q556.529 697.342 554.585 695.606 Q552.663 693.87 549.562 693.87 Q547.363 693.87 544.909 694.634 Q542.478 695.398 539.701 696.949 L539.701 692.227 Q542.525 691.092 544.978 690.514 Q547.432 689.935 549.469 689.935 Q554.839 689.935 558.034 692.62 Q561.228 695.305 561.228 699.796 Q561.228 701.926 560.418 703.847 Q559.631 705.745 557.524 708.338 Q556.946 709.009 553.844 712.226 Q550.742 715.421 545.094 721.185 Z" fill="#000000" fill-rule="nonzero" fill-opacity="1"></path><path clip-path="url(#clip790)" d="M581.228 693.639 Q577.617 693.639 575.788 697.203 Q573.983 700.745 573.983 707.875 Q573.983 714.981 575.788 718.546 Q577.617 722.087 581.228 722.087 Q584.862 722.087 586.668 718.546 Q588.497 714.981 588.497 707.875 Q588.497 700.745 586.668 697.203 Q584.862 693.639 581.228 693.639 M581.228 689.935 Q587.038 689.935 590.094 694.541 Q593.172 699.125 593.172 707.875 Q593.172 716.601 590.094 721.208 Q587.038 725.791 581.228 725.791 Q575.418 725.791 572.339 721.208 Q569.284 716.601 569.284 707.875 Q569.284 699.125 572.339 694.541 Q575.418 689.935 581.228 689.935 Z" fill="#000000" fill-rule="nonzero" fill-opacity="1"></path><path clip-path="url(#clip790)" d="M614.237 694.634 L602.432 713.083 L614.237 713.083 L614.237 694.634 M613.01 690.56 L618.89 690.56 L618.89 713.083 L623.82 713.083 L623.82 716.972 L618.89 716.972 L618.89 725.12 L614.237 725.12 L614.237 716.972 L598.635 716.972 L598.635 712.458 L613.01 690.56 Z" fill="#000000" fill-rule="nonzero" fill-opacity="1"></path><path clip-path="url(#clip790)" d="M641.552 708.708 Q638.219 708.708 636.297 710.49 Q634.399 712.273 634.399 715.398 Q634.399 718.523 636.297 720.305 Q638.219 722.087 641.552 722.087 Q644.885 722.087 646.806 720.305 Q648.728 718.5 648.728 715.398 Q648.728 712.273 646.806 710.49 Q644.908 708.708 641.552 708.708 M636.876 706.717 Q633.867 705.976 632.177 703.916 Q630.51 701.856 630.51 698.893 Q630.51 694.75 633.45 692.342 Q636.413 689.935 641.552 689.935 Q646.714 689.935 649.654 692.342 Q652.593 694.75 652.593 698.893 Q652.593 701.856 650.904 703.916 Q649.237 705.976 646.251 706.717 Q649.63 707.504 651.505 709.796 Q653.404 712.088 653.404 715.398 Q653.404 720.421 650.325 723.106 Q647.269 725.791 641.552 725.791 Q635.834 725.791 632.756 723.106 Q629.7 720.421 629.7 715.398 Q629.7 712.088 631.598 709.796 Q633.496 707.504 636.876 706.717 M635.163 699.333 Q635.163 702.018 636.83 703.523 Q638.519 705.027 641.552 705.027 Q644.561 705.027 646.251 703.523 Q647.964 702.018 647.964 699.333 Q647.964 696.648 646.251 695.143 Q644.561 693.639 641.552 693.639 Q638.519 693.639 636.83 695.143 Q635.163 696.648 635.163 699.333 Z" fill="#000000" fill-rule="nonzero" fill-opacity="1"></path><path clip-path="url(#clip790)" d="M801.246 694.634 L789.44 713.083 L801.246 713.083 L801.246 694.634 M800.019 690.56 L805.899 690.56 L805.899 713.083 L810.829 713.083 L810.829 716.972 L805.899 716.972 L805.899 725.12 L801.246 725.12 L801.246 716.972 L785.644 716.972 L785.644 712.458 L800.019 690.56 Z" fill="#000000" fill-rule="nonzero" fill-opacity="1"></path><path clip-path="url(#clip790)" d="M828.561 693.639 Q824.949 693.639 823.121 697.203 Q821.315 700.745 821.315 707.875 Q821.315 714.981 823.121 718.546 Q824.949 722.087 828.561 722.087 Q832.195 722.087 834 718.546 Q835.829 714.981 835.829 707.875 Q835.829 700.745 834 697.203 Q832.195 693.639 828.561 693.639 M828.561 689.935 Q834.371 689.935 837.426 694.541 Q840.505 699.125 840.505 707.875 Q840.505 716.601 837.426 721.208 Q834.371 725.791 828.561 725.791 Q822.75 725.791 819.672 721.208 Q816.616 716.601 816.616 707.875 Q816.616 699.125 819.672 694.541 Q822.75 689.935 828.561 689.935 Z" fill="#000000" fill-rule="nonzero" fill-opacity="1"></path><path clip-path="url(#clip790)" d="M848.861 724.402 L848.861 720.143 Q850.621 720.976 852.426 721.416 Q854.232 721.856 855.968 721.856 Q860.597 721.856 863.028 718.754 Q865.482 715.629 865.829 709.287 Q864.486 711.277 862.426 712.342 Q860.366 713.407 857.866 713.407 Q852.681 713.407 849.648 710.282 Q846.639 707.134 846.639 701.694 Q846.639 696.37 849.787 693.152 Q852.935 689.935 858.167 689.935 Q864.162 689.935 867.31 694.541 Q870.482 699.125 870.482 707.875 Q870.482 716.046 866.593 720.93 Q862.727 725.791 856.176 725.791 Q854.417 725.791 852.611 725.444 Q850.806 725.097 848.861 724.402 M858.167 709.75 Q861.315 709.75 863.144 707.597 Q864.996 705.444 864.996 701.694 Q864.996 697.967 863.144 695.814 Q861.315 693.639 858.167 693.639 Q855.019 693.639 853.167 695.814 Q851.338 697.967 851.338 701.694 Q851.338 705.444 853.167 707.597 Q855.019 709.75 858.167 709.75 Z" fill="#000000" fill-rule="nonzero" fill-opacity="1"></path><path clip-path="url(#clip790)" d="M889.463 705.976 Q886.315 705.976 884.463 708.129 Q882.634 710.282 882.634 714.032 Q882.634 717.759 884.463 719.935 Q886.315 722.087 889.463 722.087 Q892.611 722.087 894.44 719.935 Q896.292 717.759 896.292 714.032 Q896.292 710.282 894.44 708.129 Q892.611 705.976 889.463 705.976 M898.745 691.324 L898.745 695.583 Q896.986 694.75 895.181 694.31 Q893.398 693.87 891.639 693.87 Q887.009 693.87 884.556 696.995 Q882.125 700.12 881.778 706.439 Q883.144 704.426 885.204 703.361 Q887.264 702.273 889.741 702.273 Q894.949 702.273 897.958 705.444 Q900.991 708.592 900.991 714.032 Q900.991 719.356 897.843 722.574 Q894.694 725.791 889.463 725.791 Q883.468 725.791 880.296 721.208 Q877.125 716.601 877.125 707.875 Q877.125 699.68 881.014 694.819 Q884.903 689.935 891.454 689.935 Q893.213 689.935 894.995 690.282 Q896.801 690.629 898.745 691.324 Z" fill="#000000" fill-rule="nonzero" fill-opacity="1"></path><path clip-path="url(#clip790)" d="M1045.71 708.708 Q1042.37 708.708 1040.45 710.49 Q1038.56 712.273 1038.56 715.398 Q1038.56 718.523 1040.45 720.305 Q1042.37 722.087 1045.71 722.087 Q1049.04 722.087 1050.96 720.305 Q1052.88 718.5 1052.88 715.398 Q1052.88 712.273 1050.96 710.49 Q1049.06 708.708 1045.71 708.708 M1041.03 706.717 Q1038.02 705.976 1036.33 703.916 Q1034.67 701.856 1034.67 698.893 Q1034.67 694.75 1037.61 692.342 Q1040.57 689.935 1045.71 689.935 Q1050.87 689.935 1053.81 692.342 Q1056.75 694.75 1056.75 698.893 Q1056.75 701.856 1055.06 703.916 Q1053.39 705.976 1050.41 706.717 Q1053.79 707.504 1055.66 709.796 Q1057.56 712.088 1057.56 715.398 Q1057.56 720.421 1054.48 723.106 Q1051.43 725.791 1045.71 725.791 Q1039.99 725.791 1036.91 723.106 Q1033.86 720.421 1033.86 715.398 Q1033.86 712.088 1035.75 709.796 Q1037.65 707.504 1041.03 706.717 M1039.32 699.333 Q1039.32 702.018 1040.99 703.523 Q1042.68 705.027 1045.71 705.027 Q1048.72 705.027 1050.41 703.523 Q1052.12 702.018 1052.12 699.333 Q1052.12 696.648 1050.41 695.143 Q1048.72 693.639 1045.71 693.639 Q1042.68 693.639 1040.99 695.143 Q1039.32 696.648 1039.32 699.333 Z" fill="#000000" fill-rule="nonzero" fill-opacity="1"></path><path clip-path="url(#clip790)" d="M1066.68 721.185 L1074.32 721.185 L1074.32 694.819 L1066.01 696.486 L1066.01 692.227 L1074.27 690.56 L1078.95 690.56 L1078.95 721.185 L1086.59 721.185 L1086.59 725.12 L1066.68 725.12 L1066.68 721.185 Z" fill="#000000" fill-rule="nonzero" fill-opacity="1"></path><path clip-path="url(#clip790)" d="M1096.17 724.402 L1096.17 720.143 Q1097.93 720.976 1099.74 721.416 Q1101.54 721.856 1103.28 721.856 Q1107.91 721.856 1110.34 718.754 Q1112.79 715.629 1113.14 709.287 Q1111.8 711.277 1109.74 712.342 Q1107.68 713.407 1105.18 713.407 Q1099.99 713.407 1096.96 710.282 Q1093.95 707.134 1093.95 701.694 Q1093.95 696.37 1097.1 693.152 Q1100.24 689.935 1105.48 689.935 Q1111.47 689.935 1114.62 694.541 Q1117.79 699.125 1117.79 707.875 Q1117.79 716.046 1113.9 720.93 Q1110.04 725.791 1103.49 725.791 Q1101.73 725.791 1099.92 725.444 Q1098.12 725.097 1096.17 724.402 M1105.48 709.75 Q1108.62 709.75 1110.45 707.597 Q1112.3 705.444 1112.3 701.694 Q1112.3 697.967 1110.45 695.814 Q1108.62 693.639 1105.48 693.639 Q1102.33 693.639 1100.48 695.814 Q1098.65 697.967 1098.65 701.694 Q1098.65 705.444 1100.48 707.597 Q1102.33 709.75 1105.48 709.75 Z" fill="#000000" fill-rule="nonzero" fill-opacity="1"></path><path clip-path="url(#clip790)" d="M1130.22 721.185 L1146.54 721.185 L1146.54 725.12 L1124.6 725.12 L1124.6 721.185 Q1127.26 718.43 1131.84 713.8 Q1136.45 709.148 1137.63 707.805 Q1139.87 705.282 1140.75 703.546 Q1141.66 701.787 1141.66 700.097 Q1141.66 697.342 1139.71 695.606 Q1137.79 693.87 1134.69 693.87 Q1132.49 693.87 1130.04 694.634 Q1127.61 695.398 1124.83 696.949 L1124.83 692.227 Q1127.65 691.092 1130.11 690.514 Q1132.56 689.935 1134.6 689.935 Q1139.97 689.935 1143.16 692.62 Q1146.36 695.305 1146.36 699.796 Q1146.36 701.926 1145.55 703.847 Q1144.76 705.745 1142.65 708.338 Q1142.07 709.009 1138.97 712.226 Q1135.87 715.421 1130.22 721.185 Z" fill="#000000" fill-rule="nonzero" fill-opacity="1"></path><path clip-path="url(#clip790)" d="M1266.28 721.185 L1273.92 721.185 L1273.92 694.819 L1265.61 696.486 L1265.61 692.227 L1273.87 690.56 L1278.55 690.56 L1278.55 721.185 L1286.19 721.185 L1286.19 725.12 L1266.28 725.12 L1266.28 721.185 Z" fill="#000000" fill-rule="nonzero" fill-opacity="1"></path><path clip-path="url(#clip790)" d="M1306.21 705.976 Q1303.06 705.976 1301.21 708.129 Q1299.38 710.282 1299.38 714.032 Q1299.38 717.759 1301.21 719.935 Q1303.06 722.087 1306.21 722.087 Q1309.36 722.087 1311.19 719.935 Q1313.04 717.759 1313.04 714.032 Q1313.04 710.282 1311.19 708.129 Q1309.36 705.976 1306.21 705.976 M1315.49 691.324 L1315.49 695.583 Q1313.73 694.75 1311.93 694.31 Q1310.15 693.87 1308.39 693.87 Q1303.76 693.87 1301.3 696.995 Q1298.87 700.12 1298.53 706.439 Q1299.89 704.426 1301.95 703.361 Q1304.01 702.273 1306.49 702.273 Q1311.7 702.273 1314.71 705.444 Q1317.74 708.592 1317.74 714.032 Q1317.74 719.356 1314.59 722.574 Q1311.44 725.791 1306.21 725.791 Q1300.22 725.791 1297.05 721.208 Q1293.87 716.601 1293.87 707.875 Q1293.87 699.68 1297.76 694.819 Q1301.65 689.935 1308.2 689.935 Q1309.96 689.935 1311.74 690.282 Q1313.55 690.629 1315.49 691.324 Z" fill="#000000" fill-rule="nonzero" fill-opacity="1"></path><path clip-path="url(#clip790)" d="M1339.96 706.486 Q1343.32 707.203 1345.19 709.472 Q1347.09 711.74 1347.09 715.074 Q1347.09 720.189 1343.57 722.99 Q1340.05 725.791 1333.57 725.791 Q1331.4 725.791 1329.08 725.351 Q1326.79 724.935 1324.34 724.078 L1324.34 719.564 Q1326.28 720.699 1328.6 721.277 Q1330.91 721.856 1333.43 721.856 Q1337.83 721.856 1340.12 720.12 Q1342.44 718.384 1342.44 715.074 Q1342.44 712.018 1340.29 710.305 Q1338.16 708.569 1334.34 708.569 L1330.31 708.569 L1330.31 704.726 L1334.52 704.726 Q1337.97 704.726 1339.8 703.361 Q1341.63 701.972 1341.63 699.379 Q1341.63 696.717 1339.73 695.305 Q1337.86 693.87 1334.34 693.87 Q1332.42 693.87 1330.22 694.287 Q1328.02 694.703 1325.38 695.583 L1325.38 691.416 Q1328.04 690.676 1330.36 690.305 Q1332.69 689.935 1334.75 689.935 Q1340.08 689.935 1343.18 692.365 Q1346.28 694.773 1346.28 698.893 Q1346.28 701.764 1344.64 703.754 Q1342.99 705.722 1339.96 706.486 Z" fill="#000000" fill-rule="nonzero" fill-opacity="1"></path><path clip-path="url(#clip790)" d="M1365.96 708.708 Q1362.62 708.708 1360.7 710.49 Q1358.8 712.273 1358.8 715.398 Q1358.8 718.523 1360.7 720.305 Q1362.62 722.087 1365.96 722.087 Q1369.29 722.087 1371.21 720.305 Q1373.13 718.5 1373.13 715.398 Q1373.13 712.273 1371.21 710.49 Q1369.31 708.708 1365.96 708.708 M1361.28 706.717 Q1358.27 705.976 1356.58 703.916 Q1354.92 701.856 1354.92 698.893 Q1354.92 694.75 1357.86 692.342 Q1360.82 689.935 1365.96 689.935 Q1371.12 689.935 1374.06 692.342 Q1377 694.75 1377 698.893 Q1377 701.856 1375.31 703.916 Q1373.64 705.976 1370.66 706.717 Q1374.04 707.504 1375.91 709.796 Q1377.81 712.088 1377.81 715.398 Q1377.81 720.421 1374.73 723.106 Q1371.67 725.791 1365.96 725.791 Q1360.24 725.791 1357.16 723.106 Q1354.11 720.421 1354.11 715.398 Q1354.11 712.088 1356 709.796 Q1357.9 707.504 1361.28 706.717 M1359.57 699.333 Q1359.57 702.018 1361.23 703.523 Q1362.92 705.027 1365.96 705.027 Q1368.97 705.027 1370.66 703.523 Q1372.37 702.018 1372.37 699.333 Q1372.37 696.648 1370.66 695.143 Q1368.97 693.639 1365.96 693.639 Q1362.92 693.639 1361.23 695.143 Q1359.57 696.648 1359.57 699.333 Z" fill="#000000" fill-rule="nonzero" fill-opacity="1"></path><path clip-path="url(#clip790)" d="M1398.97 694.634 L1387.16 713.083 L1398.97 713.083 L1398.97 694.634 M1397.74 690.56 L1403.62 690.56 L1403.62 713.083 L1408.55 713.083 L1408.55 716.972 L1403.62 716.972 L1403.62 725.12 L1398.97 725.12 L1398.97 716.972 L1383.36 716.972 L1383.36 712.458 L1397.74 690.56 Z" fill="#000000" fill-rule="nonzero" fill-opacity="1"></path><path clip-path="url(#clip790)" d="M1527.61 706.486 Q1530.96 707.203 1532.84 709.472 Q1534.74 711.74 1534.74 715.074 Q1534.74 720.189 1531.22 722.99 Q1527.7 725.791 1521.22 725.791 Q1519.04 725.791 1516.73 725.351 Q1514.44 724.935 1511.98 724.078 L1511.98 719.564 Q1513.93 720.699 1516.24 721.277 Q1518.56 721.856 1521.08 721.856 Q1525.48 721.856 1527.77 720.12 Q1530.08 718.384 1530.08 715.074 Q1530.08 712.018 1527.93 710.305 Q1525.8 708.569 1521.98 708.569 L1517.95 708.569 L1517.95 704.726 L1522.17 704.726 Q1525.62 704.726 1527.44 703.361 Q1529.27 701.972 1529.27 699.379 Q1529.27 696.717 1527.38 695.305 Q1525.5 693.87 1521.98 693.87 Q1520.06 693.87 1517.86 694.287 Q1515.66 694.703 1513.02 695.583 L1513.02 691.416 Q1515.69 690.676 1518 690.305 Q1520.34 689.935 1522.4 689.935 Q1527.72 689.935 1530.82 692.365 Q1533.93 694.773 1533.93 698.893 Q1533.93 701.764 1532.28 703.754 Q1530.64 705.722 1527.61 706.486 Z" fill="#000000" fill-rule="nonzero" fill-opacity="1"></path><path clip-path="url(#clip790)" d="M1547.63 721.185 L1563.95 721.185 L1563.95 725.12 L1542.01 725.12 L1542.01 721.185 Q1544.67 718.43 1549.25 713.8 Q1553.86 709.148 1555.04 707.805 Q1557.28 705.282 1558.16 703.546 Q1559.07 701.787 1559.07 700.097 Q1559.07 697.342 1557.12 695.606 Q1555.2 693.87 1552.1 693.87 Q1549.9 693.87 1547.44 694.634 Q1545.01 695.398 1542.24 696.949 L1542.24 692.227 Q1545.06 691.092 1547.51 690.514 Q1549.97 689.935 1552 689.935 Q1557.38 689.935 1560.57 692.62 Q1563.76 695.305 1563.76 699.796 Q1563.76 701.926 1562.95 703.847 Q1562.17 705.745 1560.06 708.338 Q1559.48 709.009 1556.38 712.226 Q1553.28 715.421 1547.63 721.185 Z" fill="#000000" fill-rule="nonzero" fill-opacity="1"></path><path clip-path="url(#clip790)" d="M1572.58 690.56 L1594.81 690.56 L1594.81 692.551 L1582.26 725.12 L1577.38 725.12 L1589.18 694.495 L1572.58 694.495 L1572.58 690.56 Z" fill="#000000" fill-rule="nonzero" fill-opacity="1"></path><path clip-path="url(#clip790)" d="M1614.5 705.976 Q1611.36 705.976 1609.5 708.129 Q1607.68 710.282 1607.68 714.032 Q1607.68 717.759 1609.5 719.935 Q1611.36 722.087 1614.5 722.087 Q1617.65 722.087 1619.48 719.935 Q1621.33 717.759 1621.33 714.032 Q1621.33 710.282 1619.48 708.129 Q1617.65 705.976 1614.5 705.976 M1623.79 691.324 L1623.79 695.583 Q1622.03 694.75 1620.22 694.31 Q1618.44 693.87 1616.68 693.87 Q1612.05 693.87 1609.6 696.995 Q1607.17 700.12 1606.82 706.439 Q1608.19 704.426 1610.25 703.361 Q1612.31 702.273 1614.78 702.273 Q1619.99 702.273 1623 705.444 Q1626.03 708.592 1626.03 714.032 Q1626.03 719.356 1622.88 722.574 Q1619.74 725.791 1614.5 725.791 Q1608.51 725.791 1605.34 721.208 Q1602.17 716.601 1602.17 707.875 Q1602.17 699.68 1606.06 694.819 Q1609.94 689.935 1616.5 689.935 Q1618.25 689.935 1620.04 690.282 Q1621.84 690.629 1623.79 691.324 Z" fill="#000000" fill-rule="nonzero" fill-opacity="1"></path><path clip-path="url(#clip790)" d="M1644.09 708.708 Q1640.75 708.708 1638.83 710.49 Q1636.94 712.273 1636.94 715.398 Q1636.94 718.523 1638.83 720.305 Q1640.75 722.087 1644.09 722.087 Q1647.42 722.087 1649.34 720.305 Q1651.26 718.5 1651.26 715.398 Q1651.26 712.273 1649.34 710.49 Q1647.44 708.708 1644.09 708.708 M1639.41 706.717 Q1636.4 705.976 1634.71 703.916 Q1633.05 701.856 1633.05 698.893 Q1633.05 694.75 1635.99 692.342 Q1638.95 689.935 1644.09 689.935 Q1649.25 689.935 1652.19 692.342 Q1655.13 694.75 1655.13 698.893 Q1655.13 701.856 1653.44 703.916 Q1651.77 705.976 1648.79 706.717 Q1652.17 707.504 1654.04 709.796 Q1655.94 712.088 1655.94 715.398 Q1655.94 720.421 1652.86 723.106 Q1649.81 725.791 1644.09 725.791 Q1638.37 725.791 1635.29 723.106 Q1632.24 720.421 1632.24 715.398 Q1632.24 712.088 1634.13 709.796 Q1636.03 707.504 1639.41 706.717 M1637.7 699.333 Q1637.7 702.018 1639.37 703.523 Q1641.06 705.027 1644.09 705.027 Q1647.1 705.027 1648.79 703.523 Q1650.5 702.018 1650.5 699.333 Q1650.5 696.648 1648.79 695.143 Q1647.1 693.639 1644.09 693.639 Q1641.06 693.639 1639.37 695.143 Q1637.7 696.648 1637.7 699.333 Z" fill="#000000" fill-rule="nonzero" fill-opacity="1"></path><polyline clip-path="url(#clip790)" style="stroke:#000000; stroke-linecap:round; stroke-linejoin:round; stroke-width:4; stroke-opacity:1; fill:none" points="180.76,667.52 180.76,101.296 "></polyline>
<polyline clip-path="url(#clip790)" style="stroke:#000000; stroke-linecap:round; stroke-linejoin:round; stroke-width:4; stroke-opacity:1; fill:none" points="180.76,667.52 199.658,667.52 "></polyline>
<polyline clip-path="url(#clip790)" style="stroke:#000000; stroke-linecap:round; stroke-linejoin:round; stroke-width:4; stroke-opacity:1; fill:none" points="180.76,582.485 199.658,582.485 "></polyline>
<polyline clip-path="url(#clip790)" style="stroke:#000000; stroke-linecap:round; stroke-linejoin:round; stroke-width:4; stroke-opacity:1; fill:none" points="180.76,497.45 199.658,497.45 "></polyline>
<polyline clip-path="url(#clip790)" style="stroke:#000000; stroke-linecap:round; stroke-linejoin:round; stroke-width:4; stroke-opacity:1; fill:none" points="180.76,412.415 199.658,412.415 "></polyline>
<polyline clip-path="url(#clip790)" style="stroke:#000000; stroke-linecap:round; stroke-linejoin:round; stroke-width:4; stroke-opacity:1; fill:none" points="180.76,327.379 199.658,327.379 "></polyline>
<polyline clip-path="url(#clip790)" style="stroke:#000000; stroke-linecap:round; stroke-linejoin:round; stroke-width:4; stroke-opacity:1; fill:none" points="180.76,242.344 199.658,242.344 "></polyline>
<polyline clip-path="url(#clip790)" style="stroke:#000000; stroke-linecap:round; stroke-linejoin:round; stroke-width:4; stroke-opacity:1; fill:none" points="180.76,157.309 199.658,157.309 "></polyline>
<path clip-path="url(#clip790)" d="M66.4226 653.319 Q62.8115 653.319 60.9828 656.883 Q59.1773 660.425 59.1773 667.555 Q59.1773 674.661 60.9828 678.226 Q62.8115 681.767 66.4226 681.767 Q70.0569 681.767 71.8624 678.226 Q73.6911 674.661 73.6911 667.555 Q73.6911 660.425 71.8624 656.883 Q70.0569 653.319 66.4226 653.319 M66.4226 649.615 Q72.2328 649.615 75.2883 654.221 Q78.367 658.805 78.367 667.555 Q78.367 676.281 75.2883 680.888 Q72.2328 685.471 66.4226 685.471 Q60.6125 685.471 57.5338 680.888 Q54.4782 676.281 54.4782 667.555 Q54.4782 658.805 57.5338 654.221 Q60.6125 649.615 66.4226 649.615 Z" fill="#000000" fill-rule="nonzero" fill-opacity="1"></path><path clip-path="url(#clip790)" d="M86.5845 678.92 L91.4688 678.92 L91.4688 684.8 L86.5845 684.8 L86.5845 678.92 Z" fill="#000000" fill-rule="nonzero" fill-opacity="1"></path><path clip-path="url(#clip790)" d="M111.654 653.319 Q108.043 653.319 106.214 656.883 Q104.409 660.425 104.409 667.555 Q104.409 674.661 106.214 678.226 Q108.043 681.767 111.654 681.767 Q115.288 681.767 117.094 678.226 Q118.922 674.661 118.922 667.555 Q118.922 660.425 117.094 656.883 Q115.288 653.319 111.654 653.319 M111.654 649.615 Q117.464 649.615 120.52 654.221 Q123.598 658.805 123.598 667.555 Q123.598 676.281 120.52 680.888 Q117.464 685.471 111.654 685.471 Q105.844 685.471 102.765 680.888 Q99.7095 676.281 99.7095 667.555 Q99.7095 658.805 102.765 654.221 Q105.844 649.615 111.654 649.615 Z" fill="#000000" fill-rule="nonzero" fill-opacity="1"></path><path clip-path="url(#clip790)" d="M141.816 653.319 Q138.205 653.319 136.376 656.883 Q134.57 660.425 134.57 667.555 Q134.57 674.661 136.376 678.226 Q138.205 681.767 141.816 681.767 Q145.45 681.767 147.256 678.226 Q149.084 674.661 149.084 667.555 Q149.084 660.425 147.256 656.883 Q145.45 653.319 141.816 653.319 M141.816 649.615 Q147.626 649.615 150.681 654.221 Q153.76 658.805 153.76 667.555 Q153.76 676.281 150.681 680.888 Q147.626 685.471 141.816 685.471 Q136.006 685.471 132.927 680.888 Q129.871 676.281 129.871 667.555 Q129.871 658.805 132.927 654.221 Q136.006 649.615 141.816 649.615 Z" fill="#000000" fill-rule="nonzero" fill-opacity="1"></path><path clip-path="url(#clip790)" d="M67.6495 568.283 Q64.0384 568.283 62.2097 571.848 Q60.4041 575.39 60.4041 582.519 Q60.4041 589.626 62.2097 593.191 Q64.0384 596.732 67.6495 596.732 Q71.2837 596.732 73.0892 593.191 Q74.9179 589.626 74.9179 582.519 Q74.9179 575.39 73.0892 571.848 Q71.2837 568.283 67.6495 568.283 M67.6495 564.58 Q73.4596 564.58 76.5152 569.186 Q79.5938 573.77 79.5938 582.519 Q79.5938 591.246 76.5152 595.853 Q73.4596 600.436 67.6495 600.436 Q61.8393 600.436 58.7606 595.853 Q55.7051 591.246 55.7051 582.519 Q55.7051 573.77 58.7606 569.186 Q61.8393 564.58 67.6495 564.58 Z" fill="#000000" fill-rule="nonzero" fill-opacity="1"></path><path clip-path="url(#clip790)" d="M87.8114 593.885 L92.6956 593.885 L92.6956 599.765 L87.8114 599.765 L87.8114 593.885 Z" fill="#000000" fill-rule="nonzero" fill-opacity="1"></path><path clip-path="url(#clip790)" d="M112.881 568.283 Q109.27 568.283 107.441 571.848 Q105.635 575.39 105.635 582.519 Q105.635 589.626 107.441 593.191 Q109.27 596.732 112.881 596.732 Q116.515 596.732 118.32 593.191 Q120.149 589.626 120.149 582.519 Q120.149 575.39 118.32 571.848 Q116.515 568.283 112.881 568.283 M112.881 564.58 Q118.691 564.58 121.746 569.186 Q124.825 573.77 124.825 582.519 Q124.825 591.246 121.746 595.853 Q118.691 600.436 112.881 600.436 Q107.071 600.436 103.992 595.853 Q100.936 591.246 100.936 582.519 Q100.936 573.77 103.992 569.186 Q107.071 564.58 112.881 564.58 Z" fill="#000000" fill-rule="nonzero" fill-opacity="1"></path><path clip-path="url(#clip790)" d="M133.853 595.83 L141.492 595.83 L141.492 569.464 L133.182 571.131 L133.182 566.871 L141.445 565.205 L146.121 565.205 L146.121 595.83 L153.76 595.83 L153.76 599.765 L133.853 599.765 L133.853 595.83 Z" fill="#000000" fill-rule="nonzero" fill-opacity="1"></path><path clip-path="url(#clip790)" d="M68.0198 483.248 Q64.4087 483.248 62.58 486.813 Q60.7745 490.355 60.7745 497.484 Q60.7745 504.591 62.58 508.156 Q64.4087 511.697 68.0198 511.697 Q71.6541 511.697 73.4596 508.156 Q75.2883 504.591 75.2883 497.484 Q75.2883 490.355 73.4596 486.813 Q71.6541 483.248 68.0198 483.248 M68.0198 479.545 Q73.83 479.545 76.8855 484.151 Q79.9642 488.734 79.9642 497.484 Q79.9642 506.211 76.8855 510.818 Q73.83 515.401 68.0198 515.401 Q62.2097 515.401 59.131 510.818 Q56.0754 506.211 56.0754 497.484 Q56.0754 488.734 59.131 484.151 Q62.2097 479.545 68.0198 479.545 Z" fill="#000000" fill-rule="nonzero" fill-opacity="1"></path><path clip-path="url(#clip790)" d="M88.1818 508.85 L93.066 508.85 L93.066 514.73 L88.1818 514.73 L88.1818 508.85 Z" fill="#000000" fill-rule="nonzero" fill-opacity="1"></path><path clip-path="url(#clip790)" d="M113.251 483.248 Q109.64 483.248 107.811 486.813 Q106.006 490.355 106.006 497.484 Q106.006 504.591 107.811 508.156 Q109.64 511.697 113.251 511.697 Q116.885 511.697 118.691 508.156 Q120.52 504.591 120.52 497.484 Q120.52 490.355 118.691 486.813 Q116.885 483.248 113.251 483.248 M113.251 479.545 Q119.061 479.545 122.117 484.151 Q125.195 488.734 125.195 497.484 Q125.195 506.211 122.117 510.818 Q119.061 515.401 113.251 515.401 Q107.441 515.401 104.362 510.818 Q101.307 506.211 101.307 497.484 Q101.307 488.734 104.362 484.151 Q107.441 479.545 113.251 479.545 Z" fill="#000000" fill-rule="nonzero" fill-opacity="1"></path><path clip-path="url(#clip790)" d="M137.441 510.794 L153.76 510.794 L153.76 514.73 L131.816 514.73 L131.816 510.794 Q134.478 508.04 139.061 503.41 Q143.668 498.758 144.848 497.415 Q147.093 494.892 147.973 493.156 Q148.876 491.396 148.876 489.707 Q148.876 486.952 146.931 485.216 Q145.01 483.48 141.908 483.48 Q139.709 483.48 137.256 484.244 Q134.825 485.008 132.047 486.558 L132.047 481.836 Q134.871 480.702 137.325 480.123 Q139.779 479.545 141.816 479.545 Q147.186 479.545 150.38 482.23 Q153.575 484.915 153.575 489.406 Q153.575 491.535 152.765 493.457 Q151.978 495.355 149.871 497.947 Q149.293 498.619 146.191 501.836 Q143.089 505.031 137.441 510.794 Z" fill="#000000" fill-rule="nonzero" fill-opacity="1"></path><path clip-path="url(#clip790)" d="M67.0708 398.213 Q63.4597 398.213 61.631 401.778 Q59.8254 405.32 59.8254 412.449 Q59.8254 419.556 61.631 423.12 Q63.4597 426.662 67.0708 426.662 Q70.705 426.662 72.5105 423.12 Q74.3392 419.556 74.3392 412.449 Q74.3392 405.32 72.5105 401.778 Q70.705 398.213 67.0708 398.213 M67.0708 394.51 Q72.8809 394.51 75.9365 399.116 Q79.0151 403.699 79.0151 412.449 Q79.0151 421.176 75.9365 425.783 Q72.8809 430.366 67.0708 430.366 Q61.2606 430.366 58.1819 425.783 Q55.1264 421.176 55.1264 412.449 Q55.1264 403.699 58.1819 399.116 Q61.2606 394.51 67.0708 394.51 Z" fill="#000000" fill-rule="nonzero" fill-opacity="1"></path><path clip-path="url(#clip790)" d="M87.2327 423.815 L92.1169 423.815 L92.1169 429.695 L87.2327 429.695 L87.2327 423.815 Z" fill="#000000" fill-rule="nonzero" fill-opacity="1"></path><path clip-path="url(#clip790)" d="M112.302 398.213 Q108.691 398.213 106.862 401.778 Q105.057 405.32 105.057 412.449 Q105.057 419.556 106.862 423.12 Q108.691 426.662 112.302 426.662 Q115.936 426.662 117.742 423.12 Q119.57 419.556 119.57 412.449 Q119.57 405.32 117.742 401.778 Q115.936 398.213 112.302 398.213 M112.302 394.51 Q118.112 394.51 121.168 399.116 Q124.246 403.699 124.246 412.449 Q124.246 421.176 121.168 425.783 Q118.112 430.366 112.302 430.366 Q106.492 430.366 103.413 425.783 Q100.358 421.176 100.358 412.449 Q100.358 403.699 103.413 399.116 Q106.492 394.51 112.302 394.51 Z" fill="#000000" fill-rule="nonzero" fill-opacity="1"></path><path clip-path="url(#clip790)" d="M146.631 411.06 Q149.987 411.778 151.862 414.046 Q153.76 416.315 153.76 419.648 Q153.76 424.764 150.242 427.565 Q146.723 430.366 140.242 430.366 Q138.066 430.366 135.751 429.926 Q133.459 429.509 131.006 428.653 L131.006 424.139 Q132.95 425.273 135.265 425.852 Q137.58 426.431 140.103 426.431 Q144.501 426.431 146.793 424.695 Q149.107 422.958 149.107 419.648 Q149.107 416.593 146.955 414.88 Q144.825 413.144 141.006 413.144 L136.978 413.144 L136.978 409.301 L141.191 409.301 Q144.64 409.301 146.468 407.935 Q148.297 406.546 148.297 403.954 Q148.297 401.292 146.399 399.88 Q144.524 398.445 141.006 398.445 Q139.084 398.445 136.885 398.861 Q134.686 399.278 132.047 400.158 L132.047 395.991 Q134.709 395.25 137.024 394.88 Q139.362 394.51 141.422 394.51 Q146.746 394.51 149.848 396.94 Q152.95 399.347 152.95 403.468 Q152.95 406.338 151.306 408.329 Q149.663 410.296 146.631 411.06 Z" fill="#000000" fill-rule="nonzero" fill-opacity="1"></path><path clip-path="url(#clip790)" d="M65.9365 313.178 Q62.3254 313.178 60.4967 316.743 Q58.6912 320.285 58.6912 327.414 Q58.6912 334.521 60.4967 338.085 Q62.3254 341.627 65.9365 341.627 Q69.5707 341.627 71.3763 338.085 Q73.205 334.521 73.205 327.414 Q73.205 320.285 71.3763 316.743 Q69.5707 313.178 65.9365 313.178 M65.9365 309.474 Q71.7467 309.474 74.8022 314.081 Q77.8809 318.664 77.8809 327.414 Q77.8809 336.141 74.8022 340.747 Q71.7467 345.331 65.9365 345.331 Q60.1264 345.331 57.0477 340.747 Q53.9921 336.141 53.9921 327.414 Q53.9921 318.664 57.0477 314.081 Q60.1264 309.474 65.9365 309.474 Z" fill="#000000" fill-rule="nonzero" fill-opacity="1"></path><path clip-path="url(#clip790)" d="M86.0984 338.78 L90.9827 338.78 L90.9827 344.659 L86.0984 344.659 L86.0984 338.78 Z" fill="#000000" fill-rule="nonzero" fill-opacity="1"></path><path clip-path="url(#clip790)" d="M111.168 313.178 Q107.557 313.178 105.728 316.743 Q103.922 320.285 103.922 327.414 Q103.922 334.521 105.728 338.085 Q107.557 341.627 111.168 341.627 Q114.802 341.627 116.608 338.085 Q118.436 334.521 118.436 327.414 Q118.436 320.285 116.608 316.743 Q114.802 313.178 111.168 313.178 M111.168 309.474 Q116.978 309.474 120.033 314.081 Q123.112 318.664 123.112 327.414 Q123.112 336.141 120.033 340.747 Q116.978 345.331 111.168 345.331 Q105.358 345.331 102.279 340.747 Q99.2234 336.141 99.2234 327.414 Q99.2234 318.664 102.279 314.081 Q105.358 309.474 111.168 309.474 Z" fill="#000000" fill-rule="nonzero" fill-opacity="1"></path><path clip-path="url(#clip790)" d="M144.177 314.173 L132.371 332.622 L144.177 332.622 L144.177 314.173 M142.95 310.099 L148.83 310.099 L148.83 332.622 L153.76 332.622 L153.76 336.511 L148.83 336.511 L148.83 344.659 L144.177 344.659 L144.177 336.511 L128.575 336.511 L128.575 331.997 L142.95 310.099 Z" fill="#000000" fill-rule="nonzero" fill-opacity="1"></path><path clip-path="url(#clip790)" d="M67.418 228.143 Q63.8069 228.143 61.9782 231.708 Q60.1726 235.249 60.1726 242.379 Q60.1726 249.485 61.9782 253.05 Q63.8069 256.592 67.418 256.592 Q71.0522 256.592 72.8578 253.05 Q74.6865 249.485 74.6865 242.379 Q74.6865 235.249 72.8578 231.708 Q71.0522 228.143 67.418 228.143 M67.418 224.439 Q73.2281 224.439 76.2837 229.046 Q79.3624 233.629 79.3624 242.379 Q79.3624 251.106 76.2837 255.712 Q73.2281 260.296 67.418 260.296 Q61.6078 260.296 58.5291 255.712 Q55.4736 251.106 55.4736 242.379 Q55.4736 233.629 58.5291 229.046 Q61.6078 224.439 67.418 224.439 Z" fill="#000000" fill-rule="nonzero" fill-opacity="1"></path><path clip-path="url(#clip790)" d="M87.5799 253.745 L92.4641 253.745 L92.4641 259.624 L87.5799 259.624 L87.5799 253.745 Z" fill="#000000" fill-rule="nonzero" fill-opacity="1"></path><path clip-path="url(#clip790)" d="M112.649 228.143 Q109.038 228.143 107.209 231.708 Q105.404 235.249 105.404 242.379 Q105.404 249.485 107.209 253.05 Q109.038 256.592 112.649 256.592 Q116.283 256.592 118.089 253.05 Q119.918 249.485 119.918 242.379 Q119.918 235.249 118.089 231.708 Q116.283 228.143 112.649 228.143 M112.649 224.439 Q118.459 224.439 121.515 229.046 Q124.594 233.629 124.594 242.379 Q124.594 251.106 121.515 255.712 Q118.459 260.296 112.649 260.296 Q106.839 260.296 103.76 255.712 Q100.705 251.106 100.705 242.379 Q100.705 233.629 103.76 229.046 Q106.839 224.439 112.649 224.439 Z" fill="#000000" fill-rule="nonzero" fill-opacity="1"></path><path clip-path="url(#clip790)" d="M132.857 225.064 L151.214 225.064 L151.214 228.999 L137.14 228.999 L137.14 237.472 Q138.158 237.124 139.177 236.962 Q140.195 236.777 141.214 236.777 Q147.001 236.777 150.38 239.948 Q153.76 243.12 153.76 248.536 Q153.76 254.115 150.288 257.217 Q146.816 260.296 140.496 260.296 Q138.32 260.296 136.052 259.925 Q133.807 259.555 131.399 258.814 L131.399 254.115 Q133.482 255.249 135.705 255.805 Q137.927 256.36 140.404 256.36 Q144.408 256.36 146.746 254.254 Q149.084 252.147 149.084 248.536 Q149.084 244.925 146.746 242.819 Q144.408 240.712 140.404 240.712 Q138.529 240.712 136.654 241.129 Q134.802 241.546 132.857 242.425 L132.857 225.064 Z" fill="#000000" fill-rule="nonzero" fill-opacity="1"></path><path clip-path="url(#clip790)" d="M66.2606 143.108 Q62.6495 143.108 60.8208 146.673 Q59.0152 150.214 59.0152 157.344 Q59.0152 164.45 60.8208 168.015 Q62.6495 171.557 66.2606 171.557 Q69.8948 171.557 71.7004 168.015 Q73.5291 164.45 73.5291 157.344 Q73.5291 150.214 71.7004 146.673 Q69.8948 143.108 66.2606 143.108 M66.2606 139.404 Q72.0707 139.404 75.1263 144.011 Q78.205 148.594 78.205 157.344 Q78.205 166.071 75.1263 170.677 Q72.0707 175.26 66.2606 175.26 Q60.4504 175.26 57.3717 170.677 Q54.3162 166.071 54.3162 157.344 Q54.3162 148.594 57.3717 144.011 Q60.4504 139.404 66.2606 139.404 Z" fill="#000000" fill-rule="nonzero" fill-opacity="1"></path><path clip-path="url(#clip790)" d="M86.4225 168.71 L91.3067 168.71 L91.3067 174.589 L86.4225 174.589 L86.4225 168.71 Z" fill="#000000" fill-rule="nonzero" fill-opacity="1"></path><path clip-path="url(#clip790)" d="M111.492 143.108 Q107.881 143.108 106.052 146.673 Q104.246 150.214 104.246 157.344 Q104.246 164.45 106.052 168.015 Q107.881 171.557 111.492 171.557 Q115.126 171.557 116.932 168.015 Q118.76 164.45 118.76 157.344 Q118.76 150.214 116.932 146.673 Q115.126 143.108 111.492 143.108 M111.492 139.404 Q117.302 139.404 120.358 144.011 Q123.436 148.594 123.436 157.344 Q123.436 166.071 120.358 170.677 Q117.302 175.26 111.492 175.26 Q105.682 175.26 102.603 170.677 Q99.5474 166.071 99.5474 157.344 Q99.5474 148.594 102.603 144.011 Q105.682 139.404 111.492 139.404 Z" fill="#000000" fill-rule="nonzero" fill-opacity="1"></path><path clip-path="url(#clip790)" d="M142.232 155.446 Q139.084 155.446 137.232 157.599 Q135.404 159.751 135.404 163.501 Q135.404 167.228 137.232 169.404 Q139.084 171.557 142.232 171.557 Q145.381 171.557 147.209 169.404 Q149.061 167.228 149.061 163.501 Q149.061 159.751 147.209 157.599 Q145.381 155.446 142.232 155.446 M151.515 140.793 L151.515 145.052 Q149.756 144.219 147.95 143.779 Q146.168 143.339 144.408 143.339 Q139.779 143.339 137.325 146.464 Q134.894 149.589 134.547 155.909 Q135.913 153.895 137.973 152.83 Q140.033 151.742 142.51 151.742 Q147.718 151.742 150.728 154.913 Q153.76 158.061 153.76 163.501 Q153.76 168.825 150.612 172.043 Q147.464 175.26 142.232 175.26 Q136.237 175.26 133.066 170.677 Q129.894 166.071 129.894 157.344 Q129.894 149.149 133.783 144.288 Q137.672 139.404 144.223 139.404 Q145.982 139.404 147.765 139.751 Q149.57 140.099 151.515 140.793 Z" fill="#000000" fill-rule="nonzero" fill-opacity="1"></path><path clip-path="url(#clip790)" d="M312.577 34.1734 Q311.322 33.4443 309.823 33.1202 Q308.365 32.7556 306.582 32.7556 Q300.263 32.7556 296.86 36.8875 Q293.498 40.9789 293.498 48.6757 L293.498 72.576 L286.004 72.576 L286.004 27.2059 L293.498 27.2059 L293.498 34.2544 Q295.847 30.1225 299.615 28.1376 Q303.382 26.1121 308.77 26.1121 Q309.539 26.1121 310.471 26.2337 Q311.403 26.3147 312.537 26.5172 L312.577 34.1734 Z" fill="#000000" fill-rule="nonzero" fill-opacity="1"></path><path clip-path="url(#clip790)" d="M341.015 49.7694 Q331.981 49.7694 328.498 51.8354 Q325.014 53.9013 325.014 58.8839 Q325.014 62.8538 327.606 65.2034 Q330.239 67.5124 334.736 67.5124 Q340.934 67.5124 344.661 63.1374 Q348.428 58.7219 348.428 51.4303 L348.428 49.7694 L341.015 49.7694 M355.882 46.6907 L355.882 72.576 L348.428 72.576 L348.428 65.6895 Q345.876 69.8214 342.068 71.8063 Q338.26 73.7508 332.751 73.7508 Q325.783 73.7508 321.652 69.8619 Q317.56 65.9325 317.56 59.3701 Q317.56 51.7138 322.664 47.825 Q327.809 43.9361 337.977 43.9361 L348.428 43.9361 L348.428 43.2069 Q348.428 38.0623 345.025 35.2672 Q341.663 32.4315 335.546 32.4315 Q331.657 32.4315 327.971 33.3632 Q324.285 34.295 320.882 36.1584 L320.882 29.2718 Q324.973 27.692 328.822 26.9223 Q332.67 26.1121 336.316 26.1121 Q346.159 26.1121 351.021 31.2163 Q355.882 36.3204 355.882 46.6907 Z" fill="#000000" fill-rule="nonzero" fill-opacity="1"></path><path clip-path="url(#clip790)" d="M408.948 45.1919 L408.948 72.576 L401.495 72.576 L401.495 45.4349 Q401.495 38.994 398.983 35.7938 Q396.472 32.5936 391.449 32.5936 Q385.413 32.5936 381.929 36.4419 Q378.445 40.2903 378.445 46.9338 L378.445 72.576 L370.951 72.576 L370.951 27.2059 L378.445 27.2059 L378.445 34.2544 Q381.119 30.163 384.724 28.1376 Q388.37 26.1121 393.109 26.1121 Q400.928 26.1121 404.938 30.9732 Q408.948 35.7938 408.948 45.1919 Z" fill="#000000" fill-rule="nonzero" fill-opacity="1"></path><path clip-path="url(#clip790)" d="M453.67 34.0924 L453.67 9.54393 L461.124 9.54393 L461.124 72.576 L453.67 72.576 L453.67 65.7705 Q451.321 69.8214 447.716 71.8063 Q444.151 73.7508 439.128 73.7508 Q430.904 73.7508 425.719 67.1883 Q420.575 60.6258 420.575 49.9314 Q420.575 39.2371 425.719 32.6746 Q430.904 26.1121 439.128 26.1121 Q444.151 26.1121 447.716 28.0971 Q451.321 30.0415 453.67 34.0924 M428.271 49.9314 Q428.271 58.1548 431.634 62.8538 Q435.036 67.5124 440.951 67.5124 Q446.865 67.5124 450.268 62.8538 Q453.67 58.1548 453.67 49.9314 Q453.67 41.7081 450.268 37.0496 Q446.865 32.3505 440.951 32.3505 Q435.036 32.3505 431.634 37.0496 Q428.271 41.7081 428.271 49.9314 Z" fill="#000000" fill-rule="nonzero" fill-opacity="1"></path><path clip-path="url(#clip790)" d="M494.058 32.4315 Q488.063 32.4315 484.579 37.1306 Q481.095 41.7891 481.095 49.9314 Q481.095 58.0738 484.538 62.7728 Q488.022 67.4314 494.058 67.4314 Q500.013 67.4314 503.497 62.7323 Q506.98 58.0333 506.98 49.9314 Q506.98 41.8701 503.497 37.1711 Q500.013 32.4315 494.058 32.4315 M494.058 26.1121 Q503.78 26.1121 509.33 32.4315 Q514.88 38.7509 514.88 49.9314 Q514.88 61.0714 509.33 67.4314 Q503.78 73.7508 494.058 73.7508 Q484.295 73.7508 478.746 67.4314 Q473.236 61.0714 473.236 49.9314 Q473.236 38.7509 478.746 32.4315 Q484.295 26.1121 494.058 26.1121 Z" fill="#000000" fill-rule="nonzero" fill-opacity="1"></path><path clip-path="url(#clip790)" d="M562.559 35.9153 Q565.354 30.8922 569.243 28.5022 Q573.132 26.1121 578.398 26.1121 Q585.487 26.1121 589.335 31.0947 Q593.184 36.0368 593.184 45.1919 L593.184 72.576 L585.689 72.576 L585.689 45.4349 Q585.689 38.913 583.38 35.7533 Q581.071 32.5936 576.332 32.5936 Q570.539 32.5936 567.177 36.4419 Q563.815 40.2903 563.815 46.9338 L563.815 72.576 L556.32 72.576 L556.32 45.4349 Q556.32 38.8725 554.011 35.7533 Q551.702 32.5936 546.882 32.5936 Q541.17 32.5936 537.808 36.4824 Q534.446 40.3308 534.446 46.9338 L534.446 72.576 L526.951 72.576 L526.951 27.2059 L534.446 27.2059 L534.446 34.2544 Q536.998 30.082 540.562 28.0971 Q544.127 26.1121 549.029 26.1121 Q553.971 26.1121 557.414 28.6237 Q560.898 31.1352 562.559 35.9153 Z" fill="#000000" fill-rule="nonzero" fill-opacity="1"></path><path clip-path="url(#clip790)" d="M634.138 9.54393 L641.632 9.54393 L641.632 46.7717 L663.872 27.2059 L673.392 27.2059 L649.329 48.4326 L674.404 72.576 L664.682 72.576 L641.632 50.4176 L641.632 72.576 L634.138 72.576 L634.138 9.54393 Z" fill="#000000" fill-rule="nonzero" fill-opacity="1"></path><path clip-path="url(#clip790)" d="M709.809 34.9026 L761.742 34.9026 L761.742 41.7081 L709.809 41.7081 L709.809 34.9026 M709.809 51.4303 L761.742 51.4303 L761.742 58.3168 L709.809 58.3168 L709.809 51.4303 Z" fill="#000000" fill-rule="nonzero" fill-opacity="1"></path><path clip-path="url(#clip790)" d="M812.824 65.6895 L841.383 65.6895 L841.383 72.576 L802.98 72.576 L802.98 65.6895 Q807.638 60.8689 815.659 52.7671 Q823.721 44.6248 825.787 42.2752 Q829.716 37.8598 831.255 34.8216 Q832.835 31.7429 832.835 28.7857 Q832.835 23.9651 829.432 20.927 Q826.07 17.8888 820.642 17.8888 Q816.794 17.8888 812.5 19.2256 Q808.246 20.5624 803.385 23.2765 L803.385 15.0127 Q808.327 13.0277 812.621 12.015 Q816.915 11.0023 820.48 11.0023 Q829.878 11.0023 835.468 15.7013 Q841.058 20.4004 841.058 28.2591 Q841.058 31.9859 839.641 35.3482 Q838.263 38.6699 834.577 43.2069 Q833.564 44.3817 828.136 50.0125 Q822.708 55.6027 812.824 65.6895 Z" fill="#000000" fill-rule="nonzero" fill-opacity="1"></path><path clip-path="url(#clip790)" d="M859.409 62.2867 L867.956 62.2867 L867.956 69.2543 L861.313 82.2172 L856.087 82.2172 L859.409 69.2543 L859.409 62.2867 Z" fill="#000000" fill-rule="nonzero" fill-opacity="1"></path><path clip-path="url(#clip790)" d="M946.828 14.0809 L946.828 22.0612 Q942.169 19.8332 938.037 18.7395 Q933.905 17.6457 930.057 17.6457 Q923.373 17.6457 919.727 20.2383 Q916.122 22.8309 916.122 27.611 Q916.122 31.6214 918.512 33.6873 Q920.942 35.7128 927.667 36.9686 L932.609 37.9813 Q941.764 39.7232 946.098 44.1387 Q950.473 48.5136 950.473 55.8863 Q950.473 64.6767 944.559 69.2137 Q938.685 73.7508 927.302 73.7508 Q923.008 73.7508 918.147 72.7785 Q913.327 71.8063 908.141 69.9024 L908.141 61.4765 Q913.124 64.2716 917.904 65.6895 Q922.684 67.1073 927.302 67.1073 Q934.31 67.1073 938.118 64.3527 Q941.926 61.598 941.926 56.4939 Q941.926 52.0379 939.171 49.5264 Q936.457 47.0148 930.219 45.759 L925.236 44.7868 Q916.081 42.9639 911.99 39.075 Q907.898 35.1862 907.898 28.2591 Q907.898 20.2383 913.529 15.6203 Q919.2 11.0023 929.125 11.0023 Q933.379 11.0023 937.794 11.7719 Q942.21 12.5416 946.828 14.0809 Z" fill="#000000" fill-rule="nonzero" fill-opacity="1"></path><path clip-path="url(#clip790)" d="M990.253 34.9026 L1042.19 34.9026 L1042.19 41.7081 L990.253 41.7081 L990.253 34.9026 M990.253 51.4303 L1042.19 51.4303 L1042.19 58.3168 L990.253 58.3168 L990.253 51.4303 Z" fill="#000000" fill-rule="nonzero" fill-opacity="1"></path><path clip-path="url(#clip790)" d="M1119.76 80.2727 L1119.76 86.106 L1117.25 86.106 Q1107.16 86.106 1103.72 83.1084 Q1100.32 80.1107 1100.32 71.1582 L1100.32 61.4765 Q1100.32 55.3597 1098.13 53.0101 Q1095.94 50.6606 1090.19 50.6606 L1087.72 50.6606 L1087.72 44.8678 L1090.19 44.8678 Q1095.98 44.8678 1098.13 42.5588 Q1100.32 40.2093 1100.32 34.1734 L1100.32 24.4513 Q1100.32 15.4988 1103.72 12.5416 Q1107.16 9.54393 1117.25 9.54393 L1119.76 9.54393 L1119.76 15.3367 L1117.01 15.3367 Q1111.29 15.3367 1109.55 17.1191 Q1107.81 18.9015 1107.81 24.6133 L1107.81 34.6595 Q1107.81 41.0195 1105.95 43.8956 Q1104.12 46.7717 1099.67 47.7845 Q1104.16 48.8782 1105.99 51.7544 Q1107.81 54.6305 1107.81 60.9499 L1107.81 70.9961 Q1107.81 76.7079 1109.55 78.4903 Q1111.29 80.2727 1117.01 80.2727 L1119.76 80.2727 Z" fill="#000000" fill-rule="nonzero" fill-opacity="1"></path><path clip-path="url(#clip790)" d="M1139.25 71.3202 L1139.25 63.8666 Q1142.32 65.3249 1145.48 66.0946 Q1148.64 66.8642 1151.68 66.8642 Q1159.78 66.8642 1164.04 61.436 Q1168.33 55.9673 1168.94 44.8678 Q1166.59 48.3516 1162.98 50.215 Q1159.38 52.0784 1155 52.0784 Q1145.93 52.0784 1140.62 46.6097 Q1135.36 41.1005 1135.36 31.5808 Q1135.36 22.2638 1140.87 16.633 Q1146.38 11.0023 1155.53 11.0023 Q1166.02 11.0023 1171.53 19.0636 Q1177.08 27.0843 1177.08 42.3968 Q1177.08 56.6965 1170.28 65.2439 Q1163.51 73.7508 1152.05 73.7508 Q1148.97 73.7508 1145.81 73.1431 Q1142.65 72.5355 1139.25 71.3202 M1155.53 45.678 Q1161.04 45.678 1164.24 41.9107 Q1167.48 38.1433 1167.48 31.5808 Q1167.48 25.0589 1164.24 21.2916 Q1161.04 17.4837 1155.53 17.4837 Q1150.02 17.4837 1146.78 21.2916 Q1143.58 25.0589 1143.58 31.5808 Q1143.58 38.1433 1146.78 41.9107 Q1150.02 45.678 1155.53 45.678 Z" fill="#000000" fill-rule="nonzero" fill-opacity="1"></path><path clip-path="url(#clip790)" d="M1192.64 62.2867 L1201.18 62.2867 L1201.18 69.2543 L1194.54 82.2172 L1189.31 82.2172 L1192.64 69.2543 L1192.64 62.2867 Z" fill="#000000" fill-rule="nonzero" fill-opacity="1"></path><path clip-path="url(#clip790)" d="M1245.95 65.6895 L1259.31 65.6895 L1259.31 19.5497 L1244.77 22.4663 L1244.77 15.0127 L1259.23 12.096 L1267.42 12.096 L1267.42 65.6895 L1280.78 65.6895 L1280.78 72.576 L1245.95 72.576 L1245.95 65.6895 Z" fill="#000000" fill-rule="nonzero" fill-opacity="1"></path><path clip-path="url(#clip790)" d="M1298.73 65.6895 L1312.1 65.6895 L1312.1 19.5497 L1297.55 22.4663 L1297.55 15.0127 L1312.02 12.096 L1320.2 12.096 L1320.2 65.6895 L1333.57 65.6895 L1333.57 72.576 L1298.73 72.576 L1298.73 65.6895 Z" fill="#000000" fill-rule="nonzero" fill-opacity="1"></path><path clip-path="url(#clip790)" d="M1350.95 62.2867 L1359.49 62.2867 L1359.49 69.2543 L1352.85 82.2172 L1347.62 82.2172 L1350.95 69.2543 L1350.95 62.2867 Z" fill="#000000" fill-rule="nonzero" fill-opacity="1"></path><path clip-path="url(#clip790)" d="M1377.88 65.6895 L1391.25 65.6895 L1391.25 19.5497 L1376.71 22.4663 L1376.71 15.0127 L1391.17 12.096 L1399.35 12.096 L1399.35 65.6895 L1412.72 65.6895 L1412.72 72.576 L1377.88 72.576 L1377.88 65.6895 Z" fill="#000000" fill-rule="nonzero" fill-opacity="1"></path><path clip-path="url(#clip790)" d="M1436.3 65.6895 L1464.86 65.6895 L1464.86 72.576 L1426.45 72.576 L1426.45 65.6895 Q1431.11 60.8689 1439.13 52.7671 Q1447.2 44.6248 1449.26 42.2752 Q1453.19 37.8598 1454.73 34.8216 Q1456.31 31.7429 1456.31 28.7857 Q1456.31 23.9651 1452.91 20.927 Q1449.54 17.8888 1444.12 17.8888 Q1440.27 17.8888 1435.97 19.2256 Q1431.72 20.5624 1426.86 23.2765 L1426.86 15.0127 Q1431.8 13.0277 1436.1 12.015 Q1440.39 11.0023 1443.95 11.0023 Q1453.35 11.0023 1458.94 15.7013 Q1464.53 20.4004 1464.53 28.2591 Q1464.53 31.9859 1463.12 35.3482 Q1461.74 38.6699 1458.05 43.2069 Q1457.04 44.3817 1451.61 50.0125 Q1446.18 55.6027 1436.3 65.6895 Z" fill="#000000" fill-rule="nonzero" fill-opacity="1"></path><path clip-path="url(#clip790)" d="M1482.88 62.2867 L1491.43 62.2867 L1491.43 69.2543 L1484.79 82.2172 L1479.56 82.2172 L1482.88 69.2543 L1482.88 62.2867 Z" fill="#000000" fill-rule="nonzero" fill-opacity="1"></path><path clip-path="url(#clip790)" d="M1515.45 65.6895 L1544.01 65.6895 L1544.01 72.576 L1505.61 72.576 L1505.61 65.6895 Q1510.27 60.8689 1518.29 52.7671 Q1526.35 44.6248 1528.42 42.2752 Q1532.35 37.8598 1533.88 34.8216 Q1535.46 31.7429 1535.46 28.7857 Q1535.46 23.9651 1532.06 20.927 Q1528.7 17.8888 1523.27 17.8888 Q1519.42 17.8888 1515.13 19.2256 Q1510.88 20.5624 1506.01 23.2765 L1506.01 15.0127 Q1510.96 13.0277 1515.25 12.015 Q1519.54 11.0023 1523.11 11.0023 Q1532.51 11.0023 1538.1 15.7013 Q1543.69 20.4004 1543.69 28.2591 Q1543.69 31.9859 1542.27 35.3482 Q1540.89 38.6699 1537.21 43.2069 Q1536.19 44.3817 1530.77 50.0125 Q1525.34 55.6027 1515.45 65.6895 Z" fill="#000000" fill-rule="nonzero" fill-opacity="1"></path><path clip-path="url(#clip790)" d="M1578.69 17.4837 Q1572.37 17.4837 1569.17 23.7221 Q1566.01 29.92 1566.01 42.3968 Q1566.01 54.833 1569.17 61.0714 Q1572.37 67.2693 1578.69 67.2693 Q1585.05 67.2693 1588.21 61.0714 Q1591.41 54.833 1591.41 42.3968 Q1591.41 29.92 1588.21 23.7221 Q1585.05 17.4837 1578.69 17.4837 M1578.69 11.0023 Q1588.86 11.0023 1594.2 19.0636 Q1599.59 27.0843 1599.59 42.3968 Q1599.59 57.6687 1594.2 65.73 Q1588.86 73.7508 1578.69 73.7508 Q1568.52 73.7508 1563.13 65.73 Q1557.78 57.6687 1557.78 42.3968 Q1557.78 27.0843 1563.13 19.0636 Q1568.52 11.0023 1578.69 11.0023 Z" fill="#000000" fill-rule="nonzero" fill-opacity="1"></path><path clip-path="url(#clip790)" d="M1615.47 80.2727 L1618.31 80.2727 Q1623.98 80.2727 1625.68 78.5308 Q1627.42 76.7889 1627.42 70.9961 L1627.42 60.9499 Q1627.42 54.6305 1629.24 51.7544 Q1631.07 48.8782 1635.56 47.7845 Q1631.07 46.7717 1629.24 43.8956 Q1627.42 41.0195 1627.42 34.6595 L1627.42 24.6133 Q1627.42 18.861 1625.68 17.1191 Q1623.98 15.3367 1618.31 15.3367 L1615.47 15.3367 L1615.47 9.54393 L1618.02 9.54393 Q1628.11 9.54393 1631.47 12.5416 Q1634.87 15.4988 1634.87 24.4513 L1634.87 34.1734 Q1634.87 40.2093 1637.06 42.5588 Q1639.25 44.8678 1645 44.8678 L1647.51 44.8678 L1647.51 50.6606 L1645 50.6606 Q1639.25 50.6606 1637.06 53.0101 Q1634.87 55.3597 1634.87 61.4765 L1634.87 71.1582 Q1634.87 80.1107 1631.47 83.1084 Q1628.11 86.106 1618.02 86.106 L1615.47 86.106 L1615.47 80.2727 Z" fill="#000000" fill-rule="nonzero" fill-opacity="1"></path><path clip-path="url(#clip792)" d="M263.147 548.194 L263.147 667.52 L291.95 667.52 L291.95 548.194 L263.147 548.194 L263.147 548.194  Z" fill="#009af9" fill-rule="evenodd" fill-opacity="1"></path>
<polyline clip-path="url(#clip792)" style="stroke:#000000; stroke-linecap:round; stroke-linejoin:round; stroke-width:4; stroke-opacity:1; fill:none" points="263.147,548.194 263.147,667.52 291.95,667.52 291.95,548.194 263.147,548.194 "></polyline>
<path clip-path="url(#clip792)" d="M510.028 228.042 L510.028 667.52 L538.831 667.52 L538.831 228.042 L510.028 228.042 L510.028 228.042  Z" fill="#009af9" fill-rule="evenodd" fill-opacity="1"></path>
<polyline clip-path="url(#clip792)" style="stroke:#000000; stroke-linecap:round; stroke-linejoin:round; stroke-width:4; stroke-opacity:1; fill:none" points="510.028,228.042 510.028,667.52 538.831,667.52 538.831,228.042 510.028,228.042 "></polyline>
<path clip-path="url(#clip792)" d="M756.909 464.373 L756.909 667.52 L785.712 667.52 L785.712 464.373 L756.909 464.373 L756.909 464.373  Z" fill="#009af9" fill-rule="evenodd" fill-opacity="1"></path>
<polyline clip-path="url(#clip792)" style="stroke:#000000; stroke-linecap:round; stroke-linejoin:round; stroke-width:4; stroke-opacity:1; fill:none" points="756.909,464.373 756.909,667.52 785.712,667.52 785.712,464.373 756.909,464.373 "></polyline>
<path clip-path="url(#clip792)" d="M1003.79 465.533 L1003.79 667.52 L1032.59 667.52 L1032.59 465.533 L1003.79 465.533 L1003.79 465.533  Z" fill="#009af9" fill-rule="evenodd" fill-opacity="1"></path>
<polyline clip-path="url(#clip792)" style="stroke:#000000; stroke-linecap:round; stroke-linejoin:round; stroke-width:4; stroke-opacity:1; fill:none" points="1003.79,465.533 1003.79,667.52 1032.59,667.52 1032.59,465.533 1003.79,465.533 "></polyline>
<path clip-path="url(#clip792)" d="M1250.67 576.134 L1250.67 667.52 L1279.47 667.52 L1279.47 576.134 L1250.67 576.134 L1250.67 576.134  Z" fill="#009af9" fill-rule="evenodd" fill-opacity="1"></path>
<polyline clip-path="url(#clip792)" style="stroke:#000000; stroke-linecap:round; stroke-linejoin:round; stroke-width:4; stroke-opacity:1; fill:none" points="1250.67,576.134 1250.67,667.52 1279.47,667.52 1279.47,576.134 1250.67,576.134 "></polyline>
<path clip-path="url(#clip792)" d="M1497.55 640.16 L1497.55 667.52 L1526.36 667.52 L1526.36 640.16 L1497.55 640.16 L1497.55 640.16  Z" fill="#009af9" fill-rule="evenodd" fill-opacity="1"></path>
<polyline clip-path="url(#clip792)" style="stroke:#000000; stroke-linecap:round; stroke-linejoin:round; stroke-width:4; stroke-opacity:1; fill:none" points="1497.55,640.16 1497.55,667.52 1526.36,667.52 1526.36,640.16 1497.55,640.16 "></polyline>
<circle clip-path="url(#clip792)" style="fill:#009af9; stroke:none; fill-opacity:0" cx="277.548" cy="548.194" r="2"></circle>
<circle clip-path="url(#clip792)" style="fill:#009af9; stroke:none; fill-opacity:0" cx="524.429" cy="228.042" r="2"></circle>
<circle clip-path="url(#clip792)" style="fill:#009af9; stroke:none; fill-opacity:0" cx="771.31" cy="464.373" r="2"></circle>
<circle clip-path="url(#clip792)" style="fill:#009af9; stroke:none; fill-opacity:0" cx="1018.19" cy="465.533" r="2"></circle>
<circle clip-path="url(#clip792)" style="fill:#009af9; stroke:none; fill-opacity:0" cx="1265.07" cy="576.134" r="2"></circle>
<circle clip-path="url(#clip792)" style="fill:#009af9; stroke:none; fill-opacity:0" cx="1511.95" cy="640.16" r="2"></circle>
<path clip-path="url(#clip792)" d="M291.95 621.52 L291.95 667.52 L320.752 667.52 L320.752 621.52 L291.95 621.52 L291.95 621.52  Z" fill="#e26f46" fill-rule="evenodd" fill-opacity="1"></path>
<polyline clip-path="url(#clip792)" style="stroke:#000000; stroke-linecap:round; stroke-linejoin:round; stroke-width:4; stroke-opacity:1; fill:none" points="291.95,621.52 291.95,667.52 320.752,667.52 320.752,621.52 291.95,621.52 "></polyline>
<path clip-path="url(#clip792)" d="M538.831 538.394 L538.831 667.52 L567.634 667.52 L567.634 538.394 L538.831 538.394 L538.831 538.394  Z" fill="#e26f46" fill-rule="evenodd" fill-opacity="1"></path>
<polyline clip-path="url(#clip792)" style="stroke:#000000; stroke-linecap:round; stroke-linejoin:round; stroke-width:4; stroke-opacity:1; fill:none" points="538.831,538.394 538.831,667.52 567.634,667.52 567.634,538.394 538.831,538.394 "></polyline>
<path clip-path="url(#clip792)" d="M785.712 510.685 L785.712 667.52 L814.515 667.52 L814.515 510.685 L785.712 510.685 L785.712 510.685  Z" fill="#e26f46" fill-rule="evenodd" fill-opacity="1"></path>
<polyline clip-path="url(#clip792)" style="stroke:#000000; stroke-linecap:round; stroke-linejoin:round; stroke-width:4; stroke-opacity:1; fill:none" points="785.712,510.685 785.712,667.52 814.515,667.52 814.515,510.685 785.712,510.685 "></polyline>
<path clip-path="url(#clip792)" d="M1032.59 545.321 L1032.59 667.52 L1061.4 667.52 L1061.4 545.321 L1032.59 545.321 L1032.59 545.321  Z" fill="#e26f46" fill-rule="evenodd" fill-opacity="1"></path>
<polyline clip-path="url(#clip792)" style="stroke:#000000; stroke-linecap:round; stroke-linejoin:round; stroke-width:4; stroke-opacity:1; fill:none" points="1032.59,545.321 1032.59,667.52 1061.4,667.52 1061.4,545.321 1032.59,545.321 "></polyline>
<path clip-path="url(#clip792)" d="M1279.47 559.175 L1279.47 667.52 L1308.28 667.52 L1308.28 559.175 L1279.47 559.175 L1279.47 559.175  Z" fill="#e26f46" fill-rule="evenodd" fill-opacity="1"></path>
<polyline clip-path="url(#clip792)" style="stroke:#000000; stroke-linecap:round; stroke-linejoin:round; stroke-width:4; stroke-opacity:1; fill:none" points="1279.47,559.175 1279.47,667.52 1308.28,667.52 1308.28,559.175 1279.47,559.175 "></polyline>
<path clip-path="url(#clip792)" d="M1526.36 550.731 L1526.36 667.52 L1555.16 667.52 L1555.16 550.731 L1526.36 550.731 L1526.36 550.731  Z" fill="#e26f46" fill-rule="evenodd" fill-opacity="1"></path>
<polyline clip-path="url(#clip792)" style="stroke:#000000; stroke-linecap:round; stroke-linejoin:round; stroke-width:4; stroke-opacity:1; fill:none" points="1526.36,550.731 1526.36,667.52 1555.16,667.52 1555.16,550.731 1526.36,550.731 "></polyline>
<circle clip-path="url(#clip792)" style="fill:#e26f46; stroke:none; fill-opacity:0" cx="306.351" cy="621.52" r="2"></circle>
<circle clip-path="url(#clip792)" style="fill:#e26f46; stroke:none; fill-opacity:0" cx="553.232" cy="538.394" r="2"></circle>
<circle clip-path="url(#clip792)" style="fill:#e26f46; stroke:none; fill-opacity:0" cx="800.113" cy="510.685" r="2"></circle>
<circle clip-path="url(#clip792)" style="fill:#e26f46; stroke:none; fill-opacity:0" cx="1046.99" cy="545.321" r="2"></circle>
<circle clip-path="url(#clip792)" style="fill:#e26f46; stroke:none; fill-opacity:0" cx="1293.88" cy="559.175" r="2"></circle>
<circle clip-path="url(#clip792)" style="fill:#e26f46; stroke:none; fill-opacity:0" cx="1540.76" cy="550.731" r="2"></circle>
<path clip-path="url(#clip792)" d="M320.752 275.575 L320.752 667.52 L349.555 667.52 L349.555 275.575 L320.752 275.575 L320.752 275.575  Z" fill="#3da44d" fill-rule="evenodd" fill-opacity="1"></path>
<polyline clip-path="url(#clip792)" style="stroke:#000000; stroke-linecap:round; stroke-linejoin:round; stroke-width:4; stroke-opacity:1; fill:none" points="320.752,275.575 320.752,667.52 349.555,667.52 349.555,275.575 320.752,275.575 "></polyline>
<path clip-path="url(#clip792)" d="M567.634 606.351 L567.634 667.52 L596.436 667.52 L596.436 606.351 L567.634 606.351 L567.634 606.351  Z" fill="#3da44d" fill-rule="evenodd" fill-opacity="1"></path>
<polyline clip-path="url(#clip792)" style="stroke:#000000; stroke-linecap:round; stroke-linejoin:round; stroke-width:4; stroke-opacity:1; fill:none" points="567.634,606.351 567.634,667.52 596.436,667.52 596.436,606.351 567.634,606.351 "></polyline>
<path clip-path="url(#clip792)" d="M814.515 445.493 L814.515 667.52 L843.317 667.52 L843.317 445.493 L814.515 445.493 L814.515 445.493  Z" fill="#3da44d" fill-rule="evenodd" fill-opacity="1"></path>
<polyline clip-path="url(#clip792)" style="stroke:#000000; stroke-linecap:round; stroke-linejoin:round; stroke-width:4; stroke-opacity:1; fill:none" points="814.515,445.493 814.515,667.52 843.317,667.52 843.317,445.493 814.515,445.493 "></polyline>
<path clip-path="url(#clip792)" d="M1061.4 629.57 L1061.4 667.52 L1090.2 667.52 L1090.2 629.57 L1061.4 629.57 L1061.4 629.57  Z" fill="#3da44d" fill-rule="evenodd" fill-opacity="1"></path>
<polyline clip-path="url(#clip792)" style="stroke:#000000; stroke-linecap:round; stroke-linejoin:round; stroke-width:4; stroke-opacity:1; fill:none" points="1061.4,629.57 1061.4,667.52 1090.2,667.52 1090.2,629.57 1061.4,629.57 "></polyline>
<path clip-path="url(#clip792)" d="M1308.28 505.672 L1308.28 667.52 L1337.08 667.52 L1337.08 505.672 L1308.28 505.672 L1308.28 505.672  Z" fill="#3da44d" fill-rule="evenodd" fill-opacity="1"></path>
<polyline clip-path="url(#clip792)" style="stroke:#000000; stroke-linecap:round; stroke-linejoin:round; stroke-width:4; stroke-opacity:1; fill:none" points="1308.28,505.672 1308.28,667.52 1337.08,667.52 1337.08,505.672 1308.28,505.672 "></polyline>
<path clip-path="url(#clip792)" d="M1555.16 597.501 L1555.16 667.52 L1583.96 667.52 L1583.96 597.501 L1555.16 597.501 L1555.16 597.501  Z" fill="#3da44d" fill-rule="evenodd" fill-opacity="1"></path>
<polyline clip-path="url(#clip792)" style="stroke:#000000; stroke-linecap:round; stroke-linejoin:round; stroke-width:4; stroke-opacity:1; fill:none" points="1555.16,597.501 1555.16,667.52 1583.96,667.52 1583.96,597.501 1555.16,597.501 "></polyline>
<circle clip-path="url(#clip792)" style="fill:#3da44d; stroke:none; fill-opacity:0" cx="335.154" cy="275.575" r="2"></circle>
<circle clip-path="url(#clip792)" style="fill:#3da44d; stroke:none; fill-opacity:0" cx="582.035" cy="606.351" r="2"></circle>
<circle clip-path="url(#clip792)" style="fill:#3da44d; stroke:none; fill-opacity:0" cx="828.916" cy="445.493" r="2"></circle>
<circle clip-path="url(#clip792)" style="fill:#3da44d; stroke:none; fill-opacity:0" cx="1075.8" cy="629.57" r="2"></circle>
<circle clip-path="url(#clip792)" style="fill:#3da44d; stroke:none; fill-opacity:0" cx="1322.68" cy="505.672" r="2"></circle>
<circle clip-path="url(#clip792)" style="fill:#3da44d; stroke:none; fill-opacity:0" cx="1569.56" cy="597.501" r="2"></circle>
<path clip-path="url(#clip792)" d="M349.555 607.285 L349.555 667.52 L378.358 667.52 L378.358 607.285 L349.555 607.285 L349.555 607.285  Z" fill="#c271d2" fill-rule="evenodd" fill-opacity="1"></path>
<polyline clip-path="url(#clip792)" style="stroke:#000000; stroke-linecap:round; stroke-linejoin:round; stroke-width:4; stroke-opacity:1; fill:none" points="349.555,607.285 349.555,667.52 378.358,667.52 378.358,607.285 349.555,607.285 "></polyline>
<path clip-path="url(#clip792)" d="M596.436 101.296 L596.436 667.52 L625.239 667.52 L625.239 101.296 L596.436 101.296 L596.436 101.296  Z" fill="#c271d2" fill-rule="evenodd" fill-opacity="1"></path>
<polyline clip-path="url(#clip792)" style="stroke:#000000; stroke-linecap:round; stroke-linejoin:round; stroke-width:4; stroke-opacity:1; fill:none" points="596.436,101.296 596.436,667.52 625.239,667.52 625.239,101.296 596.436,101.296 "></polyline>
<path clip-path="url(#clip792)" d="M843.317 649.998 L843.317 667.52 L872.12 667.52 L872.12 649.998 L843.317 649.998 L843.317 649.998  Z" fill="#c271d2" fill-rule="evenodd" fill-opacity="1"></path>
<polyline clip-path="url(#clip792)" style="stroke:#000000; stroke-linecap:round; stroke-linejoin:round; stroke-width:4; stroke-opacity:1; fill:none" points="843.317,649.998 843.317,667.52 872.12,667.52 872.12,649.998 843.317,649.998 "></polyline>
<path clip-path="url(#clip792)" d="M1090.2 414.525 L1090.2 667.52 L1119 667.52 L1119 414.525 L1090.2 414.525 L1090.2 414.525  Z" fill="#c271d2" fill-rule="evenodd" fill-opacity="1"></path>
<polyline clip-path="url(#clip792)" style="stroke:#000000; stroke-linecap:round; stroke-linejoin:round; stroke-width:4; stroke-opacity:1; fill:none" points="1090.2,414.525 1090.2,667.52 1119,667.52 1119,414.525 1090.2,414.525 "></polyline>
<path clip-path="url(#clip792)" d="M1337.08 564.021 L1337.08 667.52 L1365.88 667.52 L1365.88 564.021 L1337.08 564.021 L1337.08 564.021  Z" fill="#c271d2" fill-rule="evenodd" fill-opacity="1"></path>
<polyline clip-path="url(#clip792)" style="stroke:#000000; stroke-linecap:round; stroke-linejoin:round; stroke-width:4; stroke-opacity:1; fill:none" points="1337.08,564.021 1337.08,667.52 1365.88,667.52 1365.88,564.021 1337.08,564.021 "></polyline>
<path clip-path="url(#clip792)" d="M1583.96 559.233 L1583.96 667.52 L1612.76 667.52 L1612.76 559.233 L1583.96 559.233 L1583.96 559.233  Z" fill="#c271d2" fill-rule="evenodd" fill-opacity="1"></path>
<polyline clip-path="url(#clip792)" style="stroke:#000000; stroke-linecap:round; stroke-linejoin:round; stroke-width:4; stroke-opacity:1; fill:none" points="1583.96,559.233 1583.96,667.52 1612.76,667.52 1612.76,559.233 1583.96,559.233 "></polyline>
<circle clip-path="url(#clip792)" style="fill:#c271d2; stroke:none; fill-opacity:0" cx="363.957" cy="607.285" r="2"></circle>
<circle clip-path="url(#clip792)" style="fill:#c271d2; stroke:none; fill-opacity:0" cx="610.838" cy="101.296" r="2"></circle>
<circle clip-path="url(#clip792)" style="fill:#c271d2; stroke:none; fill-opacity:0" cx="857.719" cy="649.998" r="2"></circle>
<circle clip-path="url(#clip792)" style="fill:#c271d2; stroke:none; fill-opacity:0" cx="1104.6" cy="414.525" r="2"></circle>
<circle clip-path="url(#clip792)" style="fill:#c271d2; stroke:none; fill-opacity:0" cx="1351.48" cy="564.021" r="2"></circle>
<circle clip-path="url(#clip792)" style="fill:#c271d2; stroke:none; fill-opacity:0" cx="1598.36" cy="559.233" r="2"></circle>
<path clip-path="url(#clip792)" d="M378.358 493.054 L378.358 667.52 L407.161 667.52 L407.161 493.054 L378.358 493.054 L378.358 493.054  Z" fill="#ac8d18" fill-rule="evenodd" fill-opacity="1"></path>
<polyline clip-path="url(#clip792)" style="stroke:#000000; stroke-linecap:round; stroke-linejoin:round; stroke-width:4; stroke-opacity:1; fill:none" points="378.358,493.054 378.358,667.52 407.161,667.52 407.161,493.054 378.358,493.054 "></polyline>
<path clip-path="url(#clip792)" d="M625.239 181.638 L625.239 667.52 L654.042 667.52 L654.042 181.638 L625.239 181.638 L625.239 181.638  Z" fill="#ac8d18" fill-rule="evenodd" fill-opacity="1"></path>
<polyline clip-path="url(#clip792)" style="stroke:#000000; stroke-linecap:round; stroke-linejoin:round; stroke-width:4; stroke-opacity:1; fill:none" points="625.239,181.638 625.239,667.52 654.042,667.52 654.042,181.638 625.239,181.638 "></polyline>
<path clip-path="url(#clip792)" d="M872.12 577.986 L872.12 667.52 L900.923 667.52 L900.923 577.986 L872.12 577.986 L872.12 577.986  Z" fill="#ac8d18" fill-rule="evenodd" fill-opacity="1"></path>
<polyline clip-path="url(#clip792)" style="stroke:#000000; stroke-linecap:round; stroke-linejoin:round; stroke-width:4; stroke-opacity:1; fill:none" points="872.12,577.986 872.12,667.52 900.923,667.52 900.923,577.986 872.12,577.986 "></polyline>
<path clip-path="url(#clip792)" d="M1119 417.327 L1119 667.52 L1147.8 667.52 L1147.8 417.327 L1119 417.327 L1119 417.327  Z" fill="#ac8d18" fill-rule="evenodd" fill-opacity="1"></path>
<polyline clip-path="url(#clip792)" style="stroke:#000000; stroke-linecap:round; stroke-linejoin:round; stroke-width:4; stroke-opacity:1; fill:none" points="1119,417.327 1119,667.52 1147.8,667.52 1147.8,417.327 1119,417.327 "></polyline>
<path clip-path="url(#clip792)" d="M1365.88 645.224 L1365.88 667.52 L1394.69 667.52 L1394.69 645.224 L1365.88 645.224 L1365.88 645.224  Z" fill="#ac8d18" fill-rule="evenodd" fill-opacity="1"></path>
<polyline clip-path="url(#clip792)" style="stroke:#000000; stroke-linecap:round; stroke-linejoin:round; stroke-width:4; stroke-opacity:1; fill:none" points="1365.88,645.224 1365.88,667.52 1394.69,667.52 1394.69,645.224 1365.88,645.224 "></polyline>
<path clip-path="url(#clip792)" d="M1612.76 650.889 L1612.76 667.52 L1641.57 667.52 L1641.57 650.889 L1612.76 650.889 L1612.76 650.889  Z" fill="#ac8d18" fill-rule="evenodd" fill-opacity="1"></path>
<polyline clip-path="url(#clip792)" style="stroke:#000000; stroke-linecap:round; stroke-linejoin:round; stroke-width:4; stroke-opacity:1; fill:none" points="1612.76,650.889 1612.76,667.52 1641.57,667.52 1641.57,650.889 1612.76,650.889 "></polyline>
<circle clip-path="url(#clip792)" style="fill:#ac8d18; stroke:none; fill-opacity:0" cx="392.759" cy="493.054" r="2"></circle>
<circle clip-path="url(#clip792)" style="fill:#ac8d18; stroke:none; fill-opacity:0" cx="639.641" cy="181.638" r="2"></circle>
<circle clip-path="url(#clip792)" style="fill:#ac8d18; stroke:none; fill-opacity:0" cx="886.522" cy="577.986" r="2"></circle>
<circle clip-path="url(#clip792)" style="fill:#ac8d18; stroke:none; fill-opacity:0" cx="1133.4" cy="417.327" r="2"></circle>
<circle clip-path="url(#clip792)" style="fill:#ac8d18; stroke:none; fill-opacity:0" cx="1380.28" cy="645.224" r="2"></circle>
<circle clip-path="url(#clip792)" style="fill:#ac8d18; stroke:none; fill-opacity:0" cx="1627.17" cy="650.889" r="2"></circle>
<path clip-path="url(#clip792)" d="M407.161 267.326 L407.161 667.52 L435.964 667.52 L435.964 267.326 L407.161 267.326 L407.161 267.326  Z" fill="#00a9ad" fill-rule="evenodd" fill-opacity="1"></path>
<polyline clip-path="url(#clip792)" style="stroke:#000000; stroke-linecap:round; stroke-linejoin:round; stroke-width:4; stroke-opacity:1; fill:none" points="407.161,267.326 407.161,667.52 435.964,667.52 435.964,267.326 407.161,267.326 "></polyline>
<path clip-path="url(#clip792)" d="M654.042 447.654 L654.042 667.52 L682.845 667.52 L682.845 447.654 L654.042 447.654 L654.042 447.654  Z" fill="#00a9ad" fill-rule="evenodd" fill-opacity="1"></path>
<polyline clip-path="url(#clip792)" style="stroke:#000000; stroke-linecap:round; stroke-linejoin:round; stroke-width:4; stroke-opacity:1; fill:none" points="654.042,447.654 654.042,667.52 682.845,667.52 682.845,447.654 654.042,447.654 "></polyline>
<path clip-path="url(#clip792)" d="M900.923 563.263 L900.923 667.52 L929.726 667.52 L929.726 563.263 L900.923 563.263 L900.923 563.263  Z" fill="#00a9ad" fill-rule="evenodd" fill-opacity="1"></path>
<polyline clip-path="url(#clip792)" style="stroke:#000000; stroke-linecap:round; stroke-linejoin:round; stroke-width:4; stroke-opacity:1; fill:none" points="900.923,563.263 900.923,667.52 929.726,667.52 929.726,563.263 900.923,563.263 "></polyline>
<path clip-path="url(#clip792)" d="M1147.8 475.839 L1147.8 667.52 L1176.61 667.52 L1176.61 475.839 L1147.8 475.839 L1147.8 475.839  Z" fill="#00a9ad" fill-rule="evenodd" fill-opacity="1"></path>
<polyline clip-path="url(#clip792)" style="stroke:#000000; stroke-linecap:round; stroke-linejoin:round; stroke-width:4; stroke-opacity:1; fill:none" points="1147.8,475.839 1147.8,667.52 1176.61,667.52 1176.61,475.839 1147.8,475.839 "></polyline>
<path clip-path="url(#clip792)" d="M1394.69 567.438 L1394.69 667.52 L1423.49 667.52 L1423.49 567.438 L1394.69 567.438 L1394.69 567.438  Z" fill="#00a9ad" fill-rule="evenodd" fill-opacity="1"></path>
<polyline clip-path="url(#clip792)" style="stroke:#000000; stroke-linecap:round; stroke-linejoin:round; stroke-width:4; stroke-opacity:1; fill:none" points="1394.69,567.438 1394.69,667.52 1423.49,667.52 1423.49,567.438 1394.69,567.438 "></polyline>
<path clip-path="url(#clip792)" d="M1641.57 653.753 L1641.57 667.52 L1670.37 667.52 L1670.37 653.753 L1641.57 653.753 L1641.57 653.753  Z" fill="#00a9ad" fill-rule="evenodd" fill-opacity="1"></path>
<polyline clip-path="url(#clip792)" style="stroke:#000000; stroke-linecap:round; stroke-linejoin:round; stroke-width:4; stroke-opacity:1; fill:none" points="1641.57,653.753 1641.57,667.52 1670.37,667.52 1670.37,653.753 1641.57,653.753 "></polyline>
<circle clip-path="url(#clip792)" style="fill:#00a9ad; stroke:none; fill-opacity:0" cx="421.562" cy="267.326" r="2"></circle>
<circle clip-path="url(#clip792)" style="fill:#00a9ad; stroke:none; fill-opacity:0" cx="668.443" cy="447.654" r="2"></circle>
<circle clip-path="url(#clip792)" style="fill:#00a9ad; stroke:none; fill-opacity:0" cx="915.324" cy="563.263" r="2"></circle>
<circle clip-path="url(#clip792)" style="fill:#00a9ad; stroke:none; fill-opacity:0" cx="1162.21" cy="475.839" r="2"></circle>
<circle clip-path="url(#clip792)" style="fill:#00a9ad; stroke:none; fill-opacity:0" cx="1409.09" cy="567.438" r="2"></circle>
<circle clip-path="url(#clip792)" style="fill:#00a9ad; stroke:none; fill-opacity:0" cx="1655.97" cy="653.753" r="2"></circle>
</svg>