<svg xmlns="http://www.w3.org/2000/svg" xmlns:xlink="http://www.w3.org/1999/xlink" width="450" height="190" viewBox="0 0 1800 760">
<defs>
  <clipPath id="clip830">
    <rect x="0" y="0" width="1800" height="760"></rect>
  </clipPath>
</defs>
<path clip-path="url(#clip830)" d="M0 760 L1800 760 L1800 0 L0 0  Z" fill="#ffffff" fill-rule="evenodd" fill-opacity="1"></path>
<defs>
  <clipPath id="clip831">
    <rect x="360" y="0" width="1261" height="760"></rect>
  </clipPath>
</defs>
<path clip-path="url(#clip830)" d="M210.436 667.52 L1752.76 667.52 L1752.76 101.296 L210.436 101.296  Z" fill="#ffffff" fill-rule="evenodd" fill-opacity="1"></path>
<defs>
  <clipPath id="clip832">
    <rect x="210" y="101" width="1543" height="567"></rect>
  </clipPath>
</defs>
<polyline clip-path="url(#clip832)" style="stroke:#000000; stroke-linecap:round; stroke-linejoin:round; stroke-width:2; stroke-opacity:0.1; fill:none" points="376.044,667.52 376.044,101.296 "></polyline>
<polyline clip-path="url(#clip832)" style="stroke:#000000; stroke-linecap:round; stroke-linejoin:round; stroke-width:2; stroke-opacity:0.1; fill:none" points="618.265,667.52 618.265,101.296 "></polyline>
<polyline clip-path="url(#clip832)" style="stroke:#000000; stroke-linecap:round; stroke-linejoin:round; stroke-width:2; stroke-opacity:0.1; fill:none" points="860.486,667.52 860.486,101.296 "></polyline>
<polyline clip-path="url(#clip832)" style="stroke:#000000; stroke-linecap:round; stroke-linejoin:round; stroke-width:2; stroke-opacity:0.1; fill:none" points="1102.71,667.52 1102.71,101.296 "></polyline>
<polyline clip-path="url(#clip832)" style="stroke:#000000; stroke-linecap:round; stroke-linejoin:round; stroke-width:2; stroke-opacity:0.1; fill:none" points="1344.93,667.52 1344.93,101.296 "></polyline>
<polyline clip-path="url(#clip832)" style="stroke:#000000; stroke-linecap:round; stroke-linejoin:round; stroke-width:2; stroke-opacity:0.1; fill:none" points="1587.15,667.52 1587.15,101.296 "></polyline>
<polyline clip-path="url(#clip832)" style="stroke:#000000; stroke-linecap:round; stroke-linejoin:round; stroke-width:2; stroke-opacity:0.1; fill:none" points="210.436,667.52 1752.76,667.52 "></polyline>
<polyline clip-path="url(#clip832)" style="stroke:#000000; stroke-linecap:round; stroke-linejoin:round; stroke-width:2; stroke-opacity:0.1; fill:none" points="210.436,570.387 1752.76,570.387 "></polyline>
<polyline clip-path="url(#clip832)" style="stroke:#000000; stroke-linecap:round; stroke-linejoin:round; stroke-width:2; stroke-opacity:0.1; fill:none" points="210.436,473.253 1752.76,473.253 "></polyline>
<polyline clip-path="url(#clip832)" style="stroke:#000000; stroke-linecap:round; stroke-linejoin:round; stroke-width:2; stroke-opacity:0.1; fill:none" points="210.436,376.12 1752.76,376.12 "></polyline>
<polyline clip-path="url(#clip832)" style="stroke:#000000; stroke-linecap:round; stroke-linejoin:round; stroke-width:2; stroke-opacity:0.1; fill:none" points="210.436,278.987 1752.76,278.987 "></polyline>
<polyline clip-path="url(#clip832)" style="stroke:#000000; stroke-linecap:round; stroke-linejoin:round; stroke-width:2; stroke-opacity:0.1; fill:none" points="210.436,181.854 1752.76,181.854 "></polyline>
<polyline clip-path="url(#clip830)" style="stroke:#000000; stroke-linecap:round; stroke-linejoin:round; stroke-width:4; stroke-opacity:1; fill:none" points="210.436,667.52 1752.76,667.52 "></polyline>
<polyline clip-path="url(#clip830)" style="stroke:#000000; stroke-linecap:round; stroke-linejoin:round; stroke-width:4; stroke-opacity:1; fill:none" points="376.044,667.52 376.044,648.622 "></polyline>
<polyline clip-path="url(#clip830)" style="stroke:#000000; stroke-linecap:round; stroke-linejoin:round; stroke-width:4; stroke-opacity:1; fill:none" points="618.265,667.52 618.265,648.622 "></polyline>
<polyline clip-path="url(#clip830)" style="stroke:#000000; stroke-linecap:round; stroke-linejoin:round; stroke-width:4; stroke-opacity:1; fill:none" points="860.486,667.52 860.486,648.622 "></polyline>
<polyline clip-path="url(#clip830)" style="stroke:#000000; stroke-linecap:round; stroke-linejoin:round; stroke-width:4; stroke-opacity:1; fill:none" points="1102.71,667.52 1102.71,648.622 "></polyline>
<polyline clip-path="url(#clip830)" style="stroke:#000000; stroke-linecap:round; stroke-linejoin:round; stroke-width:4; stroke-opacity:1; fill:none" points="1344.93,667.52 1344.93,648.622 "></polyline>
<polyline clip-path="url(#clip830)" style="stroke:#000000; stroke-linecap:round; stroke-linejoin:round; stroke-width:4; stroke-opacity:1; fill:none" points="1587.15,667.52 1587.15,648.622 "></polyline>
<path clip-path="url(#clip830)" d="M320.327 721.185 L327.966 721.185 L327.966 694.819 L319.656 696.486 L319.656 692.227 L327.92 690.56 L332.596 690.56 L332.596 721.185 L340.235 721.185 L340.235 725.12 L320.327 725.12 L320.327 721.185 Z" fill="#000000" fill-rule="nonzero" fill-opacity="1"></path><path clip-path="url(#clip830)" d="M359.679 693.639 Q356.068 693.639 354.239 697.203 Q352.434 700.745 352.434 707.875 Q352.434 714.981 354.239 718.546 Q356.068 722.087 359.679 722.087 Q363.313 722.087 365.119 718.546 Q366.947 714.981 366.947 707.875 Q366.947 700.745 365.119 697.203 Q363.313 693.639 359.679 693.639 M359.679 689.935 Q365.489 689.935 368.545 694.541 Q371.623 699.125 371.623 707.875 Q371.623 716.601 368.545 721.208 Q365.489 725.791 359.679 725.791 Q353.869 725.791 350.79 721.208 Q347.734 716.601 347.734 707.875 Q347.734 699.125 350.79 694.541 Q353.869 689.935 359.679 689.935 Z" fill="#000000" fill-rule="nonzero" fill-opacity="1"></path><path clip-path="url(#clip830)" d="M383.869 721.185 L400.188 721.185 L400.188 725.12 L378.244 725.12 L378.244 721.185 Q380.906 718.43 385.489 713.8 Q390.095 709.148 391.276 707.805 Q393.521 705.282 394.401 703.546 Q395.304 701.787 395.304 700.097 Q395.304 697.342 393.359 695.606 Q391.438 693.87 388.336 693.87 Q386.137 693.87 383.683 694.634 Q381.253 695.398 378.475 696.949 L378.475 692.227 Q381.299 691.092 383.753 690.514 Q386.206 689.935 388.244 689.935 Q393.614 689.935 396.808 692.62 Q400.003 695.305 400.003 699.796 Q400.003 701.926 399.193 703.847 Q398.405 705.745 396.299 708.338 Q395.72 709.009 392.618 712.226 Q389.517 715.421 383.869 721.185 Z" fill="#000000" fill-rule="nonzero" fill-opacity="1"></path><path clip-path="url(#clip830)" d="M422.85 694.634 L411.044 713.083 L422.85 713.083 L422.85 694.634 M421.623 690.56 L427.503 690.56 L427.503 713.083 L432.433 713.083 L432.433 716.972 L427.503 716.972 L427.503 725.12 L422.85 725.12 L422.85 716.972 L407.248 716.972 L407.248 712.458 L421.623 690.56 Z" fill="#000000" fill-rule="nonzero" fill-opacity="1"></path><path clip-path="url(#clip830)" d="M566.923 721.185 L583.242 721.185 L583.242 725.12 L561.298 725.12 L561.298 721.185 Q563.96 718.43 568.543 713.8 Q573.15 709.148 574.33 707.805 Q576.575 705.282 577.455 703.546 Q578.358 701.787 578.358 700.097 Q578.358 697.342 576.413 695.606 Q574.492 693.87 571.39 693.87 Q569.191 693.87 566.738 694.634 Q564.307 695.398 561.529 696.949 L561.529 692.227 Q564.353 691.092 566.807 690.514 Q569.261 689.935 571.298 689.935 Q576.668 689.935 579.862 692.62 Q583.057 695.305 583.057 699.796 Q583.057 701.926 582.247 703.847 Q581.46 705.745 579.353 708.338 Q578.775 709.009 575.673 712.226 Q572.571 715.421 566.923 721.185 Z" fill="#000000" fill-rule="nonzero" fill-opacity="1"></path><path clip-path="url(#clip830)" d="M603.057 693.639 Q599.446 693.639 597.617 697.203 Q595.811 700.745 595.811 707.875 Q595.811 714.981 597.617 718.546 Q599.446 722.087 603.057 722.087 Q606.691 722.087 608.497 718.546 Q610.325 714.981 610.325 707.875 Q610.325 700.745 608.497 697.203 Q606.691 693.639 603.057 693.639 M603.057 689.935 Q608.867 689.935 611.922 694.541 Q615.001 699.125 615.001 707.875 Q615.001 716.601 611.922 721.208 Q608.867 725.791 603.057 725.791 Q597.247 725.791 594.168 721.208 Q591.112 716.601 591.112 707.875 Q591.112 699.125 594.168 694.541 Q597.247 689.935 603.057 689.935 Z" fill="#000000" fill-rule="nonzero" fill-opacity="1"></path><path clip-path="url(#clip830)" d="M636.066 694.634 L624.26 713.083 L636.066 713.083 L636.066 694.634 M634.839 690.56 L640.719 690.56 L640.719 713.083 L645.649 713.083 L645.649 716.972 L640.719 716.972 L640.719 725.12 L636.066 725.12 L636.066 716.972 L620.464 716.972 L620.464 712.458 L634.839 690.56 Z" fill="#000000" fill-rule="nonzero" fill-opacity="1"></path><path clip-path="url(#clip830)" d="M663.381 708.708 Q660.047 708.708 658.126 710.49 Q656.228 712.273 656.228 715.398 Q656.228 718.523 658.126 720.305 Q660.047 722.087 663.381 722.087 Q666.714 722.087 668.635 720.305 Q670.556 718.5 670.556 715.398 Q670.556 712.273 668.635 710.49 Q666.737 708.708 663.381 708.708 M658.705 706.717 Q655.695 705.976 654.006 703.916 Q652.339 701.856 652.339 698.893 Q652.339 694.75 655.279 692.342 Q658.242 689.935 663.381 689.935 Q668.543 689.935 671.482 692.342 Q674.422 694.75 674.422 698.893 Q674.422 701.856 672.732 703.916 Q671.066 705.976 668.08 706.717 Q671.459 707.504 673.334 709.796 Q675.232 712.088 675.232 715.398 Q675.232 720.421 672.154 723.106 Q669.098 725.791 663.381 725.791 Q657.663 725.791 654.584 723.106 Q651.529 720.421 651.529 715.398 Q651.529 712.088 653.427 709.796 Q655.325 707.504 658.705 706.717 M656.992 699.333 Q656.992 702.018 658.658 703.523 Q660.348 705.027 663.381 705.027 Q666.39 705.027 668.08 703.523 Q669.793 702.018 669.793 699.333 Q669.793 696.648 668.08 695.143 Q666.39 693.639 663.381 693.639 Q660.348 693.639 658.658 695.143 Q656.992 696.648 656.992 699.333 Z" fill="#000000" fill-rule="nonzero" fill-opacity="1"></path><path clip-path="url(#clip830)" d="M818.414 694.634 L806.609 713.083 L818.414 713.083 L818.414 694.634 M817.187 690.56 L823.067 690.56 L823.067 713.083 L827.997 713.083 L827.997 716.972 L823.067 716.972 L823.067 725.12 L818.414 725.12 L818.414 716.972 L802.812 716.972 L802.812 712.458 L817.187 690.56 Z" fill="#000000" fill-rule="nonzero" fill-opacity="1"></path><path clip-path="url(#clip830)" d="M845.729 693.639 Q842.118 693.639 840.289 697.203 Q838.483 700.745 838.483 707.875 Q838.483 714.981 840.289 718.546 Q842.118 722.087 845.729 722.087 Q849.363 722.087 851.169 718.546 Q852.997 714.981 852.997 707.875 Q852.997 700.745 851.169 697.203 Q849.363 693.639 845.729 693.639 M845.729 689.935 Q851.539 689.935 854.594 694.541 Q857.673 699.125 857.673 707.875 Q857.673 716.601 854.594 721.208 Q851.539 725.791 845.729 725.791 Q839.919 725.791 836.84 721.208 Q833.784 716.601 833.784 707.875 Q833.784 699.125 836.84 694.541 Q839.919 689.935 845.729 689.935 Z" fill="#000000" fill-rule="nonzero" fill-opacity="1"></path><path clip-path="url(#clip830)" d="M866.03 724.402 L866.03 720.143 Q867.789 720.976 869.594 721.416 Q871.4 721.856 873.136 721.856 Q877.766 721.856 880.196 718.754 Q882.65 715.629 882.997 709.287 Q881.654 711.277 879.594 712.342 Q877.534 713.407 875.034 713.407 Q869.849 713.407 866.817 710.282 Q863.807 707.134 863.807 701.694 Q863.807 696.37 866.955 693.152 Q870.104 689.935 875.335 689.935 Q881.33 689.935 884.479 694.541 Q887.65 699.125 887.65 707.875 Q887.65 716.046 883.761 720.93 Q879.895 725.791 873.344 725.791 Q871.585 725.791 869.78 725.444 Q867.974 725.097 866.03 724.402 M875.335 709.75 Q878.483 709.75 880.312 707.597 Q882.164 705.444 882.164 701.694 Q882.164 697.967 880.312 695.814 Q878.483 693.639 875.335 693.639 Q872.187 693.639 870.335 695.814 Q868.506 697.967 868.506 701.694 Q868.506 705.444 870.335 707.597 Q872.187 709.75 875.335 709.75 Z" fill="#000000" fill-rule="nonzero" fill-opacity="1"></path><path clip-path="url(#clip830)" d="M906.631 705.976 Q903.483 705.976 901.631 708.129 Q899.803 710.282 899.803 714.032 Q899.803 717.759 901.631 719.935 Q903.483 722.087 906.631 722.087 Q909.779 722.087 911.608 719.935 Q913.46 717.759 913.46 714.032 Q913.46 710.282 911.608 708.129 Q909.779 705.976 906.631 705.976 M915.914 691.324 L915.914 695.583 Q914.154 694.75 912.349 694.31 Q910.566 693.87 908.807 693.87 Q904.178 693.87 901.724 696.995 Q899.293 700.12 898.946 706.439 Q900.312 704.426 902.372 703.361 Q904.432 702.273 906.909 702.273 Q912.117 702.273 915.127 705.444 Q918.159 708.592 918.159 714.032 Q918.159 719.356 915.011 722.574 Q911.863 725.791 906.631 725.791 Q900.636 725.791 897.465 721.208 Q894.293 716.601 894.293 707.875 Q894.293 699.68 898.182 694.819 Q902.071 689.935 908.622 689.935 Q910.381 689.935 912.164 690.282 Q913.969 690.629 915.914 691.324 Z" fill="#000000" fill-rule="nonzero" fill-opacity="1"></path><path clip-path="url(#clip830)" d="M1058.22 708.708 Q1054.88 708.708 1052.96 710.49 Q1051.06 712.273 1051.06 715.398 Q1051.06 718.523 1052.96 720.305 Q1054.88 722.087 1058.22 722.087 Q1061.55 722.087 1063.47 720.305 Q1065.39 718.5 1065.39 715.398 Q1065.39 712.273 1063.47 710.49 Q1061.57 708.708 1058.22 708.708 M1053.54 706.717 Q1050.53 705.976 1048.84 703.916 Q1047.17 701.856 1047.17 698.893 Q1047.17 694.75 1050.11 692.342 Q1053.08 689.935 1058.22 689.935 Q1063.38 689.935 1066.32 692.342 Q1069.26 694.75 1069.26 698.893 Q1069.26 701.856 1067.57 703.916 Q1065.9 705.976 1062.91 706.717 Q1066.29 707.504 1068.17 709.796 Q1070.07 712.088 1070.07 715.398 Q1070.07 720.421 1066.99 723.106 Q1063.93 725.791 1058.22 725.791 Q1052.5 725.791 1049.42 723.106 Q1046.36 720.421 1046.36 715.398 Q1046.36 712.088 1048.26 709.796 Q1050.16 707.504 1053.54 706.717 M1051.83 699.333 Q1051.83 702.018 1053.49 703.523 Q1055.18 705.027 1058.22 705.027 Q1061.22 705.027 1062.91 703.523 Q1064.63 702.018 1064.63 699.333 Q1064.63 696.648 1062.91 695.143 Q1061.22 693.639 1058.22 693.639 Q1055.18 693.639 1053.49 695.143 Q1051.83 696.648 1051.83 699.333 Z" fill="#000000" fill-rule="nonzero" fill-opacity="1"></path><path clip-path="url(#clip830)" d="M1079.19 721.185 L1086.83 721.185 L1086.83 694.819 L1078.52 696.486 L1078.52 692.227 L1086.78 690.56 L1091.46 690.56 L1091.46 721.185 L1099.1 721.185 L1099.1 725.12 L1079.19 725.12 L1079.19 721.185 Z" fill="#000000" fill-rule="nonzero" fill-opacity="1"></path><path clip-path="url(#clip830)" d="M1108.68 724.402 L1108.68 720.143 Q1110.44 720.976 1112.24 721.416 Q1114.05 721.856 1115.78 721.856 Q1120.41 721.856 1122.84 718.754 Q1125.3 715.629 1125.65 709.287 Q1124.3 711.277 1122.24 712.342 Q1120.18 713.407 1117.68 713.407 Q1112.5 713.407 1109.47 710.282 Q1106.46 707.134 1106.46 701.694 Q1106.46 696.37 1109.6 693.152 Q1112.75 689.935 1117.98 689.935 Q1123.98 689.935 1127.13 694.541 Q1130.3 699.125 1130.3 707.875 Q1130.3 716.046 1126.41 720.93 Q1122.54 725.791 1115.99 725.791 Q1114.23 725.791 1112.43 725.444 Q1110.62 725.097 1108.68 724.402 M1117.98 709.75 Q1121.13 709.75 1122.96 707.597 Q1124.81 705.444 1124.81 701.694 Q1124.81 697.967 1122.96 695.814 Q1121.13 693.639 1117.98 693.639 Q1114.84 693.639 1112.98 695.814 Q1111.16 697.967 1111.16 701.694 Q1111.16 705.444 1112.98 707.597 Q1114.84 709.75 1117.98 709.75 Z" fill="#000000" fill-rule="nonzero" fill-opacity="1"></path><path clip-path="url(#clip830)" d="M1142.73 721.185 L1159.05 721.185 L1159.05 725.12 L1137.1 725.12 L1137.1 721.185 Q1139.77 718.43 1144.35 713.8 Q1148.96 709.148 1150.14 707.805 Q1152.38 705.282 1153.26 703.546 Q1154.16 701.787 1154.16 700.097 Q1154.16 697.342 1152.22 695.606 Q1150.3 693.87 1147.2 693.87 Q1145 693.87 1142.54 694.634 Q1140.11 695.398 1137.34 696.949 L1137.34 692.227 Q1140.16 691.092 1142.61 690.514 Q1145.07 689.935 1147.1 689.935 Q1152.47 689.935 1155.67 692.62 Q1158.86 695.305 1158.86 699.796 Q1158.86 701.926 1158.05 703.847 Q1157.27 705.745 1155.16 708.338 Q1154.58 709.009 1151.48 712.226 Q1148.38 715.421 1142.73 721.185 Z" fill="#000000" fill-rule="nonzero" fill-opacity="1"></path><path clip-path="url(#clip830)" d="M1274.13 721.185 L1281.77 721.185 L1281.77 694.819 L1273.46 696.486 L1273.46 692.227 L1281.72 690.56 L1286.4 690.56 L1286.4 721.185 L1294.04 721.185 L1294.04 725.12 L1274.13 725.12 L1274.13 721.185 Z" fill="#000000" fill-rule="nonzero" fill-opacity="1"></path><path clip-path="url(#clip830)" d="M1314.06 705.976 Q1310.91 705.976 1309.06 708.129 Q1307.23 710.282 1307.23 714.032 Q1307.23 717.759 1309.06 719.935 Q1310.91 722.087 1314.06 722.087 Q1317.21 722.087 1319.04 719.935 Q1320.89 717.759 1320.89 714.032 Q1320.89 710.282 1319.04 708.129 Q1317.21 705.976 1314.06 705.976 M1323.34 691.324 L1323.34 695.583 Q1321.58 694.75 1319.78 694.31 Q1317.99 693.87 1316.23 693.87 Q1311.61 693.87 1309.15 696.995 Q1306.72 700.12 1306.37 706.439 Q1307.74 704.426 1309.8 703.361 Q1311.86 702.273 1314.34 702.273 Q1319.54 702.273 1322.55 705.444 Q1325.59 708.592 1325.59 714.032 Q1325.59 719.356 1322.44 722.574 Q1319.29 725.791 1314.06 725.791 Q1308.06 725.791 1304.89 721.208 Q1301.72 716.601 1301.72 707.875 Q1301.72 699.68 1305.61 694.819 Q1309.5 689.935 1316.05 689.935 Q1317.81 689.935 1319.59 690.282 Q1321.4 690.629 1323.34 691.324 Z" fill="#000000" fill-rule="nonzero" fill-opacity="1"></path><path clip-path="url(#clip830)" d="M1347.81 706.486 Q1351.17 707.203 1353.04 709.472 Q1354.94 711.74 1354.94 715.074 Q1354.94 720.189 1351.42 722.99 Q1347.9 725.791 1341.42 725.791 Q1339.24 725.791 1336.93 725.351 Q1334.64 724.935 1332.18 724.078 L1332.18 719.564 Q1334.13 720.699 1336.44 721.277 Q1338.76 721.856 1341.28 721.856 Q1345.68 721.856 1347.97 720.12 Q1350.29 718.384 1350.29 715.074 Q1350.29 712.018 1348.13 710.305 Q1346 708.569 1342.18 708.569 L1338.16 708.569 L1338.16 704.726 L1342.37 704.726 Q1345.82 704.726 1347.65 703.361 Q1349.48 701.972 1349.48 699.379 Q1349.48 696.717 1347.58 695.305 Q1345.7 693.87 1342.18 693.87 Q1340.26 693.87 1338.06 694.287 Q1335.86 694.703 1333.23 695.583 L1333.23 691.416 Q1335.89 690.676 1338.2 690.305 Q1340.54 689.935 1342.6 689.935 Q1347.92 689.935 1351.03 692.365 Q1354.13 694.773 1354.13 698.893 Q1354.13 701.764 1352.48 703.754 Q1350.84 705.722 1347.81 706.486 Z" fill="#000000" fill-rule="nonzero" fill-opacity="1"></path><path clip-path="url(#clip830)" d="M1373.8 708.708 Q1370.47 708.708 1368.55 710.49 Q1366.65 712.273 1366.65 715.398 Q1366.65 718.523 1368.55 720.305 Q1370.47 722.087 1373.8 722.087 Q1377.14 722.087 1379.06 720.305 Q1380.98 718.5 1380.98 715.398 Q1380.98 712.273 1379.06 710.49 Q1377.16 708.708 1373.8 708.708 M1369.13 706.717 Q1366.12 705.976 1364.43 703.916 Q1362.76 701.856 1362.76 698.893 Q1362.76 694.75 1365.7 692.342 Q1368.67 689.935 1373.8 689.935 Q1378.97 689.935 1381.91 692.342 Q1384.85 694.75 1384.85 698.893 Q1384.85 701.856 1383.16 703.916 Q1381.49 705.976 1378.5 706.717 Q1381.88 707.504 1383.76 709.796 Q1385.66 712.088 1385.66 715.398 Q1385.66 720.421 1382.58 723.106 Q1379.52 725.791 1373.8 725.791 Q1368.09 725.791 1365.01 723.106 Q1361.95 720.421 1361.95 715.398 Q1361.95 712.088 1363.85 709.796 Q1365.75 707.504 1369.13 706.717 M1367.42 699.333 Q1367.42 702.018 1369.08 703.523 Q1370.77 705.027 1373.8 705.027 Q1376.81 705.027 1378.5 703.523 Q1380.22 702.018 1380.22 699.333 Q1380.22 696.648 1378.5 695.143 Q1376.81 693.639 1373.8 693.639 Q1370.77 693.639 1369.08 695.143 Q1367.42 696.648 1367.42 699.333 Z" fill="#000000" fill-rule="nonzero" fill-opacity="1"></path><path clip-path="url(#clip830)" d="M1406.81 694.634 L1395.01 713.083 L1406.81 713.083 L1406.81 694.634 M1405.59 690.56 L1411.47 690.56 L1411.47 713.083 L1416.4 713.083 L1416.4 716.972 L1411.47 716.972 L1411.47 725.12 L1406.81 725.12 L1406.81 716.972 L1391.21 716.972 L1391.21 712.458 L1405.59 690.56 Z" fill="#000000" fill-rule="nonzero" fill-opacity="1"></path><path clip-path="url(#clip830)" d="M1530.79 706.486 Q1534.15 707.203 1536.02 709.472 Q1537.92 711.74 1537.92 715.074 Q1537.92 720.189 1534.4 722.99 Q1530.89 725.791 1524.4 725.791 Q1522.23 725.791 1519.91 725.351 Q1517.62 724.935 1515.17 724.078 L1515.17 719.564 Q1517.11 720.699 1519.43 721.277 Q1521.74 721.856 1524.27 721.856 Q1528.66 721.856 1530.96 720.12 Q1533.27 718.384 1533.27 715.074 Q1533.27 712.018 1531.12 710.305 Q1528.99 708.569 1525.17 708.569 L1521.14 708.569 L1521.14 704.726 L1525.35 704.726 Q1528.8 704.726 1530.63 703.361 Q1532.46 701.972 1532.46 699.379 Q1532.46 696.717 1530.56 695.305 Q1528.69 693.87 1525.17 693.87 Q1523.25 693.87 1521.05 694.287 Q1518.85 694.703 1516.21 695.583 L1516.21 691.416 Q1518.87 690.676 1521.19 690.305 Q1523.52 689.935 1525.59 689.935 Q1530.91 689.935 1534.01 692.365 Q1537.11 694.773 1537.11 698.893 Q1537.11 701.764 1535.47 703.754 Q1533.83 705.722 1530.79 706.486 Z" fill="#000000" fill-rule="nonzero" fill-opacity="1"></path><path clip-path="url(#clip830)" d="M1550.82 721.185 L1567.14 721.185 L1567.14 725.12 L1545.19 725.12 L1545.19 721.185 Q1547.85 718.43 1552.44 713.8 Q1557.04 709.148 1558.22 707.805 Q1560.47 705.282 1561.35 703.546 Q1562.25 701.787 1562.25 700.097 Q1562.25 697.342 1560.31 695.606 Q1558.39 693.87 1555.28 693.87 Q1553.08 693.87 1550.63 694.634 Q1548.2 695.398 1545.42 696.949 L1545.42 692.227 Q1548.25 691.092 1550.7 690.514 Q1553.15 689.935 1555.19 689.935 Q1560.56 689.935 1563.76 692.62 Q1566.95 695.305 1566.95 699.796 Q1566.95 701.926 1566.14 703.847 Q1565.35 705.745 1563.25 708.338 Q1562.67 709.009 1559.57 712.226 Q1556.46 715.421 1550.82 721.185 Z" fill="#000000" fill-rule="nonzero" fill-opacity="1"></path><path clip-path="url(#clip830)" d="M1575.77 690.56 L1597.99 690.56 L1597.99 692.551 L1585.45 725.12 L1580.56 725.12 L1592.37 694.495 L1575.77 694.495 L1575.77 690.56 Z" fill="#000000" fill-rule="nonzero" fill-opacity="1"></path><path clip-path="url(#clip830)" d="M1617.69 705.976 Q1614.54 705.976 1612.69 708.129 Q1610.86 710.282 1610.86 714.032 Q1610.86 717.759 1612.69 719.935 Q1614.54 722.087 1617.69 722.087 Q1620.84 722.087 1622.67 719.935 Q1624.52 717.759 1624.52 714.032 Q1624.52 710.282 1622.67 708.129 Q1620.84 705.976 1617.69 705.976 M1626.97 691.324 L1626.97 695.583 Q1625.21 694.75 1623.41 694.31 Q1621.63 693.87 1619.87 693.87 Q1615.24 693.87 1612.78 696.995 Q1610.35 700.12 1610.01 706.439 Q1611.37 704.426 1613.43 703.361 Q1615.49 702.273 1617.97 702.273 Q1623.18 702.273 1626.19 705.444 Q1629.22 708.592 1629.22 714.032 Q1629.22 719.356 1626.07 722.574 Q1622.92 725.791 1617.69 725.791 Q1611.7 725.791 1608.52 721.208 Q1605.35 716.601 1605.35 707.875 Q1605.35 699.68 1609.24 694.819 Q1613.13 689.935 1619.68 689.935 Q1621.44 689.935 1623.22 690.282 Q1625.03 690.629 1626.97 691.324 Z" fill="#000000" fill-rule="nonzero" fill-opacity="1"></path><path clip-path="url(#clip830)" d="M1647.27 708.708 Q1643.94 708.708 1642.02 710.49 Q1640.12 712.273 1640.12 715.398 Q1640.12 718.523 1642.02 720.305 Q1643.94 722.087 1647.27 722.087 Q1650.61 722.087 1652.53 720.305 Q1654.45 718.5 1654.45 715.398 Q1654.45 712.273 1652.53 710.49 Q1650.63 708.708 1647.27 708.708 M1642.6 706.717 Q1639.59 705.976 1637.9 703.916 Q1636.23 701.856 1636.23 698.893 Q1636.23 694.75 1639.17 692.342 Q1642.14 689.935 1647.27 689.935 Q1652.44 689.935 1655.38 692.342 Q1658.32 694.75 1658.32 698.893 Q1658.32 701.856 1656.63 703.916 Q1654.96 705.976 1651.97 706.717 Q1655.35 707.504 1657.23 709.796 Q1659.13 712.088 1659.13 715.398 Q1659.13 720.421 1656.05 723.106 Q1652.99 725.791 1647.27 725.791 Q1641.56 725.791 1638.48 723.106 Q1635.42 720.421 1635.42 715.398 Q1635.42 712.088 1637.32 709.796 Q1639.22 707.504 1642.6 706.717 M1640.89 699.333 Q1640.89 702.018 1642.55 703.523 Q1644.24 705.027 1647.27 705.027 Q1650.28 705.027 1651.97 703.523 Q1653.69 702.018 1653.69 699.333 Q1653.69 696.648 1651.97 695.143 Q1650.28 693.639 1647.27 693.639 Q1644.24 693.639 1642.55 695.143 Q1640.89 696.648 1640.89 699.333 Z" fill="#000000" fill-rule="nonzero" fill-opacity="1"></path><polyline clip-path="url(#clip830)" style="stroke:#000000; stroke-linecap:round; stroke-linejoin:round; stroke-width:4; stroke-opacity:1; fill:none" points="210.436,667.52 210.436,101.296 "></polyline>
<polyline clip-path="url(#clip830)" style="stroke:#000000; stroke-linecap:round; stroke-linejoin:round; stroke-width:4; stroke-opacity:1; fill:none" points="210.436,667.52 229.334,667.52 "></polyline>
<polyline clip-path="url(#clip830)" style="stroke:#000000; stroke-linecap:round; stroke-linejoin:round; stroke-width:4; stroke-opacity:1; fill:none" points="210.436,570.387 229.334,570.387 "></polyline>
<polyline clip-path="url(#clip830)" style="stroke:#000000; stroke-linecap:round; stroke-linejoin:round; stroke-width:4; stroke-opacity:1; fill:none" points="210.436,473.253 229.334,473.253 "></polyline>
<polyline clip-path="url(#clip830)" style="stroke:#000000; stroke-linecap:round; stroke-linejoin:round; stroke-width:4; stroke-opacity:1; fill:none" points="210.436,376.12 229.334,376.12 "></polyline>
<polyline clip-path="url(#clip830)" style="stroke:#000000; stroke-linecap:round; stroke-linejoin:round; stroke-width:4; stroke-opacity:1; fill:none" points="210.436,278.987 229.334,278.987 "></polyline>
<polyline clip-path="url(#clip830)" style="stroke:#000000; stroke-linecap:round; stroke-linejoin:round; stroke-width:4; stroke-opacity:1; fill:none" points="210.436,181.854 229.334,181.854 "></polyline>
<path clip-path="url(#clip830)" d="M65.9365 653.319 Q62.3254 653.319 60.4967 656.883 Q58.6912 660.425 58.6912 667.555 Q58.6912 674.661 60.4967 678.226 Q62.3254 681.767 65.9365 681.767 Q69.5707 681.767 71.3763 678.226 Q73.205 674.661 73.205 667.555 Q73.205 660.425 71.3763 656.883 Q69.5707 653.319 65.9365 653.319 M65.9365 649.615 Q71.7467 649.615 74.8022 654.221 Q77.8809 658.805 77.8809 667.555 Q77.8809 676.281 74.8022 680.888 Q71.7467 685.471 65.9365 685.471 Q60.1264 685.471 57.0477 680.888 Q53.9921 676.281 53.9921 667.555 Q53.9921 658.805 57.0477 654.221 Q60.1264 649.615 65.9365 649.615 Z" fill="#000000" fill-rule="nonzero" fill-opacity="1"></path><path clip-path="url(#clip830)" d="M86.0984 678.92 L90.9827 678.92 L90.9827 684.8 L86.0984 684.8 L86.0984 678.92 Z" fill="#000000" fill-rule="nonzero" fill-opacity="1"></path><path clip-path="url(#clip830)" d="M111.168 653.319 Q107.557 653.319 105.728 656.883 Q103.922 660.425 103.922 667.555 Q103.922 674.661 105.728 678.226 Q107.557 681.767 111.168 681.767 Q114.802 681.767 116.608 678.226 Q118.436 674.661 118.436 667.555 Q118.436 660.425 116.608 656.883 Q114.802 653.319 111.168 653.319 M111.168 649.615 Q116.978 649.615 120.033 654.221 Q123.112 658.805 123.112 667.555 Q123.112 676.281 120.033 680.888 Q116.978 685.471 111.168 685.471 Q105.358 685.471 102.279 680.888 Q99.2234 676.281 99.2234 667.555 Q99.2234 658.805 102.279 654.221 Q105.358 649.615 111.168 649.615 Z" fill="#000000" fill-rule="nonzero" fill-opacity="1"></path><path clip-path="url(#clip830)" d="M141.33 653.319 Q137.719 653.319 135.89 656.883 Q134.084 660.425 134.084 667.555 Q134.084 674.661 135.89 678.226 Q137.719 681.767 141.33 681.767 Q144.964 681.767 146.769 678.226 Q148.598 674.661 148.598 667.555 Q148.598 660.425 146.769 656.883 Q144.964 653.319 141.33 653.319 M141.33 649.615 Q147.14 649.615 150.195 654.221 Q153.274 658.805 153.274 667.555 Q153.274 676.281 150.195 680.888 Q147.14 685.471 141.33 685.471 Q135.519 685.471 132.441 680.888 Q129.385 676.281 129.385 667.555 Q129.385 658.805 132.441 654.221 Q135.519 649.615 141.33 649.615 Z" fill="#000000" fill-rule="nonzero" fill-opacity="1"></path><path clip-path="url(#clip830)" d="M171.491 653.319 Q167.88 653.319 166.052 656.883 Q164.246 660.425 164.246 667.555 Q164.246 674.661 166.052 678.226 Q167.88 681.767 171.491 681.767 Q175.126 681.767 176.931 678.226 Q178.76 674.661 178.76 667.555 Q178.76 660.425 176.931 656.883 Q175.126 653.319 171.491 653.319 M171.491 649.615 Q177.302 649.615 180.357 654.221 Q183.436 658.805 183.436 667.555 Q183.436 676.281 180.357 680.888 Q177.302 685.471 171.491 685.471 Q165.681 685.471 162.603 680.888 Q159.547 676.281 159.547 667.555 Q159.547 658.805 162.603 654.221 Q165.681 649.615 171.491 649.615 Z" fill="#000000" fill-rule="nonzero" fill-opacity="1"></path><path clip-path="url(#clip830)" d="M66.9319 556.185 Q63.3208 556.185 61.4921 559.75 Q59.6865 563.292 59.6865 570.421 Q59.6865 577.528 61.4921 581.093 Q63.3208 584.634 66.9319 584.634 Q70.5661 584.634 72.3717 581.093 Q74.2004 577.528 74.2004 570.421 Q74.2004 563.292 72.3717 559.75 Q70.5661 556.185 66.9319 556.185 M66.9319 552.482 Q72.742 552.482 75.7976 557.088 Q78.8763 561.671 78.8763 570.421 Q78.8763 579.148 75.7976 583.755 Q72.742 588.338 66.9319 588.338 Q61.1217 588.338 58.043 583.755 Q54.9875 579.148 54.9875 570.421 Q54.9875 561.671 58.043 557.088 Q61.1217 552.482 66.9319 552.482 Z" fill="#000000" fill-rule="nonzero" fill-opacity="1"></path><path clip-path="url(#clip830)" d="M87.0938 581.787 L91.978 581.787 L91.978 587.667 L87.0938 587.667 L87.0938 581.787 Z" fill="#000000" fill-rule="nonzero" fill-opacity="1"></path><path clip-path="url(#clip830)" d="M112.163 556.185 Q108.552 556.185 106.723 559.75 Q104.918 563.292 104.918 570.421 Q104.918 577.528 106.723 581.093 Q108.552 584.634 112.163 584.634 Q115.797 584.634 117.603 581.093 Q119.432 577.528 119.432 570.421 Q119.432 563.292 117.603 559.75 Q115.797 556.185 112.163 556.185 M112.163 552.482 Q117.973 552.482 121.029 557.088 Q124.107 561.671 124.107 570.421 Q124.107 579.148 121.029 583.755 Q117.973 588.338 112.163 588.338 Q106.353 588.338 103.274 583.755 Q100.219 579.148 100.219 570.421 Q100.219 561.671 103.274 557.088 Q106.353 552.482 112.163 552.482 Z" fill="#000000" fill-rule="nonzero" fill-opacity="1"></path><path clip-path="url(#clip830)" d="M136.353 583.732 L152.672 583.732 L152.672 587.667 L130.728 587.667 L130.728 583.732 Q133.39 580.977 137.973 576.347 Q142.58 571.695 143.76 570.352 Q146.006 567.829 146.885 566.093 Q147.788 564.333 147.788 562.644 Q147.788 559.889 145.843 558.153 Q143.922 556.417 140.82 556.417 Q138.621 556.417 136.168 557.181 Q133.737 557.945 130.959 559.496 L130.959 554.773 Q133.783 553.639 136.237 553.06 Q138.691 552.482 140.728 552.482 Q146.098 552.482 149.293 555.167 Q152.487 557.852 152.487 562.343 Q152.487 564.472 151.677 566.394 Q150.89 568.292 148.783 570.884 Q148.205 571.556 145.103 574.773 Q142.001 577.968 136.353 583.732 Z" fill="#000000" fill-rule="nonzero" fill-opacity="1"></path><path clip-path="url(#clip830)" d="M162.533 553.107 L180.89 553.107 L180.89 557.042 L166.816 557.042 L166.816 565.514 Q167.834 565.167 168.853 565.005 Q169.871 564.82 170.89 564.82 Q176.677 564.82 180.056 567.991 Q183.436 571.162 183.436 576.579 Q183.436 582.157 179.964 585.259 Q176.491 588.338 170.172 588.338 Q167.996 588.338 165.728 587.968 Q163.482 587.597 161.075 586.857 L161.075 582.157 Q163.158 583.292 165.38 583.847 Q167.603 584.403 170.079 584.403 Q174.084 584.403 176.422 582.296 Q178.76 580.19 178.76 576.579 Q178.76 572.968 176.422 570.861 Q174.084 568.755 170.079 568.755 Q168.204 568.755 166.329 569.171 Q164.478 569.588 162.533 570.468 L162.533 553.107 Z" fill="#000000" fill-rule="nonzero" fill-opacity="1"></path><path clip-path="url(#clip830)" d="M65.9365 459.052 Q62.3254 459.052 60.4967 462.617 Q58.6912 466.159 58.6912 473.288 Q58.6912 480.395 60.4967 483.959 Q62.3254 487.501 65.9365 487.501 Q69.5707 487.501 71.3763 483.959 Q73.205 480.395 73.205 473.288 Q73.205 466.159 71.3763 462.617 Q69.5707 459.052 65.9365 459.052 M65.9365 455.348 Q71.7467 455.348 74.8022 459.955 Q77.8809 464.538 77.8809 473.288 Q77.8809 482.015 74.8022 486.621 Q71.7467 491.205 65.9365 491.205 Q60.1264 491.205 57.0477 486.621 Q53.9921 482.015 53.9921 473.288 Q53.9921 464.538 57.0477 459.955 Q60.1264 455.348 65.9365 455.348 Z" fill="#000000" fill-rule="nonzero" fill-opacity="1"></path><path clip-path="url(#clip830)" d="M86.0984 484.654 L90.9827 484.654 L90.9827 490.533 L86.0984 490.533 L86.0984 484.654 Z" fill="#000000" fill-rule="nonzero" fill-opacity="1"></path><path clip-path="url(#clip830)" d="M111.168 459.052 Q107.557 459.052 105.728 462.617 Q103.922 466.159 103.922 473.288 Q103.922 480.395 105.728 483.959 Q107.557 487.501 111.168 487.501 Q114.802 487.501 116.608 483.959 Q118.436 480.395 118.436 473.288 Q118.436 466.159 116.608 462.617 Q114.802 459.052 111.168 459.052 M111.168 455.348 Q116.978 455.348 120.033 459.955 Q123.112 464.538 123.112 473.288 Q123.112 482.015 120.033 486.621 Q116.978 491.205 111.168 491.205 Q105.358 491.205 102.279 486.621 Q99.2234 482.015 99.2234 473.288 Q99.2234 464.538 102.279 459.955 Q105.358 455.348 111.168 455.348 Z" fill="#000000" fill-rule="nonzero" fill-opacity="1"></path><path clip-path="url(#clip830)" d="M131.376 455.973 L149.732 455.973 L149.732 459.909 L135.658 459.909 L135.658 468.381 Q136.677 468.034 137.695 467.872 Q138.714 467.686 139.732 467.686 Q145.519 467.686 148.899 470.858 Q152.279 474.029 152.279 479.446 Q152.279 485.024 148.806 488.126 Q145.334 491.205 139.015 491.205 Q136.839 491.205 134.57 490.834 Q132.325 490.464 129.918 489.723 L129.918 485.024 Q132.001 486.159 134.223 486.714 Q136.445 487.27 138.922 487.27 Q142.927 487.27 145.265 485.163 Q147.603 483.057 147.603 479.446 Q147.603 475.834 145.265 473.728 Q142.927 471.622 138.922 471.622 Q137.047 471.622 135.172 472.038 Q133.32 472.455 131.376 473.335 L131.376 455.973 Z" fill="#000000" fill-rule="nonzero" fill-opacity="1"></path><path clip-path="url(#clip830)" d="M171.491 459.052 Q167.88 459.052 166.052 462.617 Q164.246 466.159 164.246 473.288 Q164.246 480.395 166.052 483.959 Q167.88 487.501 171.491 487.501 Q175.126 487.501 176.931 483.959 Q178.76 480.395 178.76 473.288 Q178.76 466.159 176.931 462.617 Q175.126 459.052 171.491 459.052 M171.491 455.348 Q177.302 455.348 180.357 459.955 Q183.436 464.538 183.436 473.288 Q183.436 482.015 180.357 486.621 Q177.302 491.205 171.491 491.205 Q165.681 491.205 162.603 486.621 Q159.547 482.015 159.547 473.288 Q159.547 464.538 162.603 459.955 Q165.681 455.348 171.491 455.348 Z" fill="#000000" fill-rule="nonzero" fill-opacity="1"></path><path clip-path="url(#clip830)" d="M66.9319 361.919 Q63.3208 361.919 61.4921 365.484 Q59.6865 369.025 59.6865 376.155 Q59.6865 383.261 61.4921 386.826 Q63.3208 390.368 66.9319 390.368 Q70.5661 390.368 72.3717 386.826 Q74.2004 383.261 74.2004 376.155 Q74.2004 369.025 72.3717 365.484 Q70.5661 361.919 66.9319 361.919 M66.9319 358.215 Q72.742 358.215 75.7976 362.822 Q78.8763 367.405 78.8763 376.155 Q78.8763 384.882 75.7976 389.488 Q72.742 394.072 66.9319 394.072 Q61.1217 394.072 58.043 389.488 Q54.9875 384.882 54.9875 376.155 Q54.9875 367.405 58.043 362.822 Q61.1217 358.215 66.9319 358.215 Z" fill="#000000" fill-rule="nonzero" fill-opacity="1"></path><path clip-path="url(#clip830)" d="M87.0938 387.521 L91.978 387.521 L91.978 393.4 L87.0938 393.4 L87.0938 387.521 Z" fill="#000000" fill-rule="nonzero" fill-opacity="1"></path><path clip-path="url(#clip830)" d="M112.163 361.919 Q108.552 361.919 106.723 365.484 Q104.918 369.025 104.918 376.155 Q104.918 383.261 106.723 386.826 Q108.552 390.368 112.163 390.368 Q115.797 390.368 117.603 386.826 Q119.432 383.261 119.432 376.155 Q119.432 369.025 117.603 365.484 Q115.797 361.919 112.163 361.919 M112.163 358.215 Q117.973 358.215 121.029 362.822 Q124.107 367.405 124.107 376.155 Q124.107 384.882 121.029 389.488 Q117.973 394.072 112.163 394.072 Q106.353 394.072 103.274 389.488 Q100.219 384.882 100.219 376.155 Q100.219 367.405 103.274 362.822 Q106.353 358.215 112.163 358.215 Z" fill="#000000" fill-rule="nonzero" fill-opacity="1"></path><path clip-path="url(#clip830)" d="M131.144 358.84 L153.367 358.84 L153.367 360.831 L140.82 393.4 L135.936 393.4 L147.742 362.775 L131.144 362.775 L131.144 358.84 Z" fill="#000000" fill-rule="nonzero" fill-opacity="1"></path><path clip-path="url(#clip830)" d="M162.533 358.84 L180.89 358.84 L180.89 362.775 L166.816 362.775 L166.816 371.248 Q167.834 370.9 168.853 370.738 Q169.871 370.553 170.89 370.553 Q176.677 370.553 180.056 373.724 Q183.436 376.896 183.436 382.312 Q183.436 387.891 179.964 390.993 Q176.491 394.072 170.172 394.072 Q167.996 394.072 165.728 393.701 Q163.482 393.331 161.075 392.59 L161.075 387.891 Q163.158 389.025 165.38 389.581 Q167.603 390.136 170.079 390.136 Q174.084 390.136 176.422 388.03 Q178.76 385.923 178.76 382.312 Q178.76 378.701 176.422 376.595 Q174.084 374.488 170.079 374.488 Q168.204 374.488 166.329 374.905 Q164.478 375.322 162.533 376.201 L162.533 358.84 Z" fill="#000000" fill-rule="nonzero" fill-opacity="1"></path><path clip-path="url(#clip830)" d="M65.9365 264.786 Q62.3254 264.786 60.4967 268.351 Q58.6912 271.892 58.6912 279.022 Q58.6912 286.128 60.4967 289.693 Q62.3254 293.235 65.9365 293.235 Q69.5707 293.235 71.3763 289.693 Q73.205 286.128 73.205 279.022 Q73.205 271.892 71.3763 268.351 Q69.5707 264.786 65.9365 264.786 M65.9365 261.082 Q71.7467 261.082 74.8022 265.689 Q77.8809 270.272 77.8809 279.022 Q77.8809 287.749 74.8022 292.355 Q71.7467 296.938 65.9365 296.938 Q60.1264 296.938 57.0477 292.355 Q53.9921 287.749 53.9921 279.022 Q53.9921 270.272 57.0477 265.689 Q60.1264 261.082 65.9365 261.082 Z" fill="#000000" fill-rule="nonzero" fill-opacity="1"></path><path clip-path="url(#clip830)" d="M86.0984 290.388 L90.9827 290.388 L90.9827 296.267 L86.0984 296.267 L86.0984 290.388 Z" fill="#000000" fill-rule="nonzero" fill-opacity="1"></path><path clip-path="url(#clip830)" d="M101.978 292.332 L109.617 292.332 L109.617 265.966 L101.307 267.633 L101.307 263.374 L109.571 261.707 L114.246 261.707 L114.246 292.332 L121.885 292.332 L121.885 296.267 L101.978 296.267 L101.978 292.332 Z" fill="#000000" fill-rule="nonzero" fill-opacity="1"></path><path clip-path="url(#clip830)" d="M141.33 264.786 Q137.719 264.786 135.89 268.351 Q134.084 271.892 134.084 279.022 Q134.084 286.128 135.89 289.693 Q137.719 293.235 141.33 293.235 Q144.964 293.235 146.769 289.693 Q148.598 286.128 148.598 279.022 Q148.598 271.892 146.769 268.351 Q144.964 264.786 141.33 264.786 M141.33 261.082 Q147.14 261.082 150.195 265.689 Q153.274 270.272 153.274 279.022 Q153.274 287.749 150.195 292.355 Q147.14 296.938 141.33 296.938 Q135.519 296.938 132.441 292.355 Q129.385 287.749 129.385 279.022 Q129.385 270.272 132.441 265.689 Q135.519 261.082 141.33 261.082 Z" fill="#000000" fill-rule="nonzero" fill-opacity="1"></path><path clip-path="url(#clip830)" d="M171.491 264.786 Q167.88 264.786 166.052 268.351 Q164.246 271.892 164.246 279.022 Q164.246 286.128 166.052 289.693 Q167.88 293.235 171.491 293.235 Q175.126 293.235 176.931 289.693 Q178.76 286.128 178.76 279.022 Q178.76 271.892 176.931 268.351 Q175.126 264.786 171.491 264.786 M171.491 261.082 Q177.302 261.082 180.357 265.689 Q183.436 270.272 183.436 279.022 Q183.436 287.749 180.357 292.355 Q177.302 296.938 171.491 296.938 Q165.681 296.938 162.603 292.355 Q159.547 287.749 159.547 279.022 Q159.547 270.272 162.603 265.689 Q165.681 261.082 171.491 261.082 Z" fill="#000000" fill-rule="nonzero" fill-opacity="1"></path><path clip-path="url(#clip830)" d="M66.9319 167.653 Q63.3208 167.653 61.4921 171.217 Q59.6865 174.759 59.6865 181.889 Q59.6865 188.995 61.4921 192.56 Q63.3208 196.102 66.9319 196.102 Q70.5661 196.102 72.3717 192.56 Q74.2004 188.995 74.2004 181.889 Q74.2004 174.759 72.3717 171.217 Q70.5661 167.653 66.9319 167.653 M66.9319 163.949 Q72.742 163.949 75.7976 168.555 Q78.8763 173.139 78.8763 181.889 Q78.8763 190.615 75.7976 195.222 Q72.742 199.805 66.9319 199.805 Q61.1217 199.805 58.043 195.222 Q54.9875 190.615 54.9875 181.889 Q54.9875 173.139 58.043 168.555 Q61.1217 163.949 66.9319 163.949 Z" fill="#000000" fill-rule="nonzero" fill-opacity="1"></path><path clip-path="url(#clip830)" d="M87.0938 193.254 L91.978 193.254 L91.978 199.134 L87.0938 199.134 L87.0938 193.254 Z" fill="#000000" fill-rule="nonzero" fill-opacity="1"></path><path clip-path="url(#clip830)" d="M102.973 195.199 L110.612 195.199 L110.612 168.833 L102.302 170.5 L102.302 166.241 L110.566 164.574 L115.242 164.574 L115.242 195.199 L122.881 195.199 L122.881 199.134 L102.973 199.134 L102.973 195.199 Z" fill="#000000" fill-rule="nonzero" fill-opacity="1"></path><path clip-path="url(#clip830)" d="M136.353 195.199 L152.672 195.199 L152.672 199.134 L130.728 199.134 L130.728 195.199 Q133.39 192.444 137.973 187.815 Q142.58 183.162 143.76 181.819 Q146.006 179.296 146.885 177.56 Q147.788 175.801 147.788 174.111 Q147.788 171.356 145.843 169.62 Q143.922 167.884 140.82 167.884 Q138.621 167.884 136.168 168.648 Q133.737 169.412 130.959 170.963 L130.959 166.241 Q133.783 165.106 136.237 164.528 Q138.691 163.949 140.728 163.949 Q146.098 163.949 149.293 166.634 Q152.487 169.319 152.487 173.81 Q152.487 175.94 151.677 177.861 Q150.89 179.759 148.783 182.352 Q148.205 183.023 145.103 186.24 Q142.001 189.435 136.353 195.199 Z" fill="#000000" fill-rule="nonzero" fill-opacity="1"></path><path clip-path="url(#clip830)" d="M162.533 164.574 L180.89 164.574 L180.89 168.509 L166.816 168.509 L166.816 176.981 Q167.834 176.634 168.853 176.472 Q169.871 176.287 170.89 176.287 Q176.677 176.287 180.056 179.458 Q183.436 182.629 183.436 188.046 Q183.436 193.625 179.964 196.727 Q176.491 199.805 170.172 199.805 Q167.996 199.805 165.728 199.435 Q163.482 199.064 161.075 198.324 L161.075 193.625 Q163.158 194.759 165.38 195.314 Q167.603 195.87 170.079 195.87 Q174.084 195.87 176.422 193.764 Q178.76 191.657 178.76 188.046 Q178.76 184.435 176.422 182.328 Q174.084 180.222 170.079 180.222 Q168.204 180.222 166.329 180.639 Q164.478 181.055 162.533 181.935 L162.533 164.574 Z" fill="#000000" fill-rule="nonzero" fill-opacity="1"></path><path clip-path="url(#clip830)" d="M129.508 34.1734 Q128.253 33.4443 126.754 33.1202 Q125.296 32.7556 123.513 32.7556 Q117.194 32.7556 113.791 36.8875 Q110.429 40.9789 110.429 48.6757 L110.429 72.576 L102.935 72.576 L102.935 27.2059 L110.429 27.2059 L110.429 34.2544 Q112.778 30.1225 116.546 28.1376 Q120.313 26.1121 125.701 26.1121 Q126.47 26.1121 127.402 26.2337 Q128.334 26.3147 129.468 26.5172 L129.508 34.1734 Z" fill="#000000" fill-rule="nonzero" fill-opacity="1"></path><path clip-path="url(#clip830)" d="M157.946 49.7694 Q148.912 49.7694 145.428 51.8354 Q141.945 53.9013 141.945 58.8839 Q141.945 62.8538 144.537 65.2034 Q147.17 67.5124 151.667 67.5124 Q157.865 67.5124 161.592 63.1374 Q165.359 58.7219 165.359 51.4303 L165.359 49.7694 L157.946 49.7694 M172.813 46.6907 L172.813 72.576 L165.359 72.576 L165.359 65.6895 Q162.807 69.8214 158.999 71.8063 Q155.191 73.7508 149.682 73.7508 Q142.714 73.7508 138.582 69.8619 Q134.491 65.9325 134.491 59.3701 Q134.491 51.7138 139.595 47.825 Q144.74 43.9361 154.908 43.9361 L165.359 43.9361 L165.359 43.2069 Q165.359 38.0623 161.956 35.2672 Q158.594 32.4315 152.477 32.4315 Q148.588 32.4315 144.902 33.3632 Q141.216 34.295 137.813 36.1584 L137.813 29.2718 Q141.904 27.692 145.753 26.9223 Q149.601 26.1121 153.247 26.1121 Q163.09 26.1121 167.952 31.2163 Q172.813 36.3204 172.813 46.6907 Z" fill="#000000" fill-rule="nonzero" fill-opacity="1"></path><path clip-path="url(#clip830)" d="M225.879 45.1919 L225.879 72.576 L218.426 72.576 L218.426 45.4349 Q218.426 38.994 215.914 35.7938 Q213.403 32.5936 208.38 32.5936 Q202.344 32.5936 198.86 36.4419 Q195.376 40.2903 195.376 46.9338 L195.376 72.576 L187.882 72.576 L187.882 27.2059 L195.376 27.2059 L195.376 34.2544 Q198.05 30.163 201.655 28.1376 Q205.301 26.1121 210.04 26.1121 Q217.859 26.1121 221.869 30.9732 Q225.879 35.7938 225.879 45.1919 Z" fill="#000000" fill-rule="nonzero" fill-opacity="1"></path><path clip-path="url(#clip830)" d="M270.601 34.0924 L270.601 9.54393 L278.055 9.54393 L278.055 72.576 L270.601 72.576 L270.601 65.7705 Q268.252 69.8214 264.647 71.8063 Q261.082 73.7508 256.059 73.7508 Q247.835 73.7508 242.65 67.1883 Q237.506 60.6258 237.506 49.9314 Q237.506 39.2371 242.65 32.6746 Q247.835 26.1121 256.059 26.1121 Q261.082 26.1121 264.647 28.0971 Q268.252 30.0415 270.601 34.0924 M245.202 49.9314 Q245.202 58.1548 248.565 62.8538 Q251.967 67.5124 257.882 67.5124 Q263.796 67.5124 267.199 62.8538 Q270.601 58.1548 270.601 49.9314 Q270.601 41.7081 267.199 37.0496 Q263.796 32.3505 257.882 32.3505 Q251.967 32.3505 248.565 37.0496 Q245.202 41.7081 245.202 49.9314 Z" fill="#000000" fill-rule="nonzero" fill-opacity="1"></path><path clip-path="url(#clip830)" d="M310.989 32.4315 Q304.994 32.4315 301.51 37.1306 Q298.026 41.7891 298.026 49.9314 Q298.026 58.0738 301.469 62.7728 Q304.953 67.4314 310.989 67.4314 Q316.944 67.4314 320.428 62.7323 Q323.911 58.0333 323.911 49.9314 Q323.911 41.8701 320.428 37.1711 Q316.944 32.4315 310.989 32.4315 M310.989 26.1121 Q320.711 26.1121 326.261 32.4315 Q331.811 38.7509 331.811 49.9314 Q331.811 61.0714 326.261 67.4314 Q320.711 73.7508 310.989 73.7508 Q301.226 73.7508 295.677 67.4314 Q290.167 61.0714 290.167 49.9314 Q290.167 38.7509 295.677 32.4315 Q301.226 26.1121 310.989 26.1121 Z" fill="#000000" fill-rule="nonzero" fill-opacity="1"></path><path clip-path="url(#clip830)" d="M379.49 35.9153 Q382.285 30.8922 386.174 28.5022 Q390.063 26.1121 395.329 26.1121 Q402.418 26.1121 406.266 31.0947 Q410.115 36.0368 410.115 45.1919 L410.115 72.576 L402.62 72.576 L402.62 45.4349 Q402.62 38.913 400.311 35.7533 Q398.002 32.5936 393.263 32.5936 Q387.47 32.5936 384.108 36.4419 Q380.746 40.2903 380.746 46.9338 L380.746 72.576 L373.251 72.576 L373.251 45.4349 Q373.251 38.8725 370.942 35.7533 Q368.633 32.5936 363.813 32.5936 Q358.101 32.5936 354.739 36.4824 Q351.376 40.3308 351.376 46.9338 L351.376 72.576 L343.882 72.576 L343.882 27.2059 L351.376 27.2059 L351.376 34.2544 Q353.929 30.082 357.493 28.0971 Q361.058 26.1121 365.96 26.1121 Q370.902 26.1121 374.345 28.6237 Q377.829 31.1352 379.49 35.9153 Z" fill="#000000" fill-rule="nonzero" fill-opacity="1"></path><path clip-path="url(#clip830)" d="M451.069 9.54393 L458.563 9.54393 L458.563 46.7717 L480.803 27.2059 L490.322 27.2059 L466.26 48.4326 L491.335 72.576 L481.613 72.576 L458.563 50.4176 L458.563 72.576 L451.069 72.576 L451.069 9.54393 Z" fill="#000000" fill-rule="nonzero" fill-opacity="1"></path><path clip-path="url(#clip830)" d="M526.74 34.9026 L578.673 34.9026 L578.673 41.7081 L526.74 41.7081 L526.74 34.9026 M526.74 51.4303 L578.673 51.4303 L578.673 58.3168 L526.74 58.3168 L526.74 51.4303 Z" fill="#000000" fill-rule="nonzero" fill-opacity="1"></path><path clip-path="url(#clip830)" d="M645.189 19.2256 L624.529 51.5113 L645.189 51.5113 L645.189 19.2256 M643.042 12.096 L653.331 12.096 L653.331 51.5113 L661.959 51.5113 L661.959 58.3168 L653.331 58.3168 L653.331 72.576 L645.189 72.576 L645.189 58.3168 L617.885 58.3168 L617.885 50.4176 L643.042 12.096 Z" fill="#000000" fill-rule="nonzero" fill-opacity="1"></path><path clip-path="url(#clip830)" d="M676.34 62.2867 L684.887 62.2867 L684.887 69.2543 L678.244 82.2172 L673.018 82.2172 L676.34 69.2543 L676.34 62.2867 Z" fill="#000000" fill-rule="nonzero" fill-opacity="1"></path><path clip-path="url(#clip830)" d="M763.759 14.0809 L763.759 22.0612 Q759.1 19.8332 754.968 18.7395 Q750.836 17.6457 746.988 17.6457 Q740.304 17.6457 736.658 20.2383 Q733.053 22.8309 733.053 27.611 Q733.053 31.6214 735.443 33.6873 Q737.873 35.7128 744.598 36.9686 L749.54 37.9813 Q758.695 39.7232 763.029 44.1387 Q767.404 48.5136 767.404 55.8863 Q767.404 64.6767 761.49 69.2137 Q755.616 73.7508 744.233 73.7508 Q739.939 73.7508 735.078 72.7785 Q730.258 71.8063 725.072 69.9024 L725.072 61.4765 Q730.055 64.2716 734.835 65.6895 Q739.615 67.1073 744.233 67.1073 Q751.241 67.1073 755.049 64.3527 Q758.857 61.598 758.857 56.4939 Q758.857 52.0379 756.102 49.5264 Q753.388 47.0148 747.15 45.759 L742.167 44.7868 Q733.012 42.9639 728.921 39.075 Q724.829 35.1862 724.829 28.2591 Q724.829 20.2383 730.46 15.6203 Q736.131 11.0023 746.056 11.0023 Q750.31 11.0023 754.725 11.7719 Q759.14 12.5416 763.759 14.0809 Z" fill="#000000" fill-rule="nonzero" fill-opacity="1"></path><path clip-path="url(#clip830)" d="M807.184 34.9026 L859.117 34.9026 L859.117 41.7081 L807.184 41.7081 L807.184 34.9026 M807.184 51.4303 L859.117 51.4303 L859.117 58.3168 L807.184 58.3168 L807.184 51.4303 Z" fill="#000000" fill-rule="nonzero" fill-opacity="1"></path><path clip-path="url(#clip830)" d="M936.692 80.2727 L936.692 86.106 L934.18 86.106 Q924.093 86.106 920.65 83.1084 Q917.247 80.1107 917.247 71.1582 L917.247 61.4765 Q917.247 55.3597 915.06 53.0101 Q912.872 50.6606 907.12 50.6606 L904.649 50.6606 L904.649 44.8678 L907.12 44.8678 Q912.913 44.8678 915.06 42.5588 Q917.247 40.2093 917.247 34.1734 L917.247 24.4513 Q917.247 15.4988 920.65 12.5416 Q924.093 9.54393 934.18 9.54393 L936.692 9.54393 L936.692 15.3367 L933.937 15.3367 Q928.225 15.3367 926.483 17.1191 Q924.741 18.9015 924.741 24.6133 L924.741 34.6595 Q924.741 41.0195 922.878 43.8956 Q921.055 46.7717 916.599 47.7845 Q921.096 48.8782 922.919 51.7544 Q924.741 54.6305 924.741 60.9499 L924.741 70.9961 Q924.741 76.7079 926.483 78.4903 Q928.225 80.2727 933.937 80.2727 L936.692 80.2727 Z" fill="#000000" fill-rule="nonzero" fill-opacity="1"></path><path clip-path="url(#clip830)" d="M962.982 65.6895 L991.541 65.6895 L991.541 72.576 L953.138 72.576 L953.138 65.6895 Q957.797 60.8689 965.818 52.7671 Q973.879 44.6248 975.945 42.2752 Q979.874 37.8598 981.414 34.8216 Q982.993 31.7429 982.993 28.7857 Q982.993 23.9651 979.591 20.927 Q976.228 17.8888 970.8 17.8888 Q966.952 17.8888 962.658 19.2256 Q958.404 20.5624 953.543 23.2765 L953.543 15.0127 Q958.485 13.0277 962.779 12.015 Q967.073 11.0023 970.638 11.0023 Q980.036 11.0023 985.627 15.7013 Q991.217 20.4004 991.217 28.2591 Q991.217 31.9859 989.799 35.3482 Q988.422 38.6699 984.735 43.2069 Q983.723 44.3817 978.294 50.0125 Q972.866 55.6027 962.982 65.6895 Z" fill="#000000" fill-rule="nonzero" fill-opacity="1"></path><path clip-path="url(#clip830)" d="M1009.57 62.2867 L1018.11 62.2867 L1018.11 69.2543 L1011.47 82.2172 L1006.25 82.2172 L1009.57 69.2543 L1009.57 62.2867 Z" fill="#000000" fill-rule="nonzero" fill-opacity="1"></path><path clip-path="url(#clip830)" d="M1053.6 39.075 Q1048.09 39.075 1044.85 42.8424 Q1041.65 46.6097 1041.65 53.1722 Q1041.65 59.6941 1044.85 63.502 Q1048.09 67.2693 1053.6 67.2693 Q1059.11 67.2693 1062.31 63.502 Q1065.55 59.6941 1065.55 53.1722 Q1065.55 46.6097 1062.31 42.8424 Q1059.11 39.075 1053.6 39.075 M1069.84 13.4328 L1069.84 20.8865 Q1066.77 19.4281 1063.61 18.6585 Q1060.49 17.8888 1057.41 17.8888 Q1049.31 17.8888 1045.01 23.3575 Q1040.76 28.8262 1040.15 39.8852 Q1042.54 36.3609 1046.15 34.4975 Q1049.75 32.5936 1054.09 32.5936 Q1063.2 32.5936 1068.47 38.1433 Q1073.77 43.6525 1073.77 53.1722 Q1073.77 62.4892 1068.26 68.12 Q1062.76 73.7508 1053.6 73.7508 Q1043.11 73.7508 1037.56 65.73 Q1032.01 57.6687 1032.01 42.3968 Q1032.01 28.0566 1038.81 19.5497 Q1045.62 11.0023 1057.08 11.0023 Q1060.16 11.0023 1063.28 11.6099 Q1066.44 12.2175 1069.84 13.4328 Z" fill="#000000" fill-rule="nonzero" fill-opacity="1"></path><path clip-path="url(#clip830)" d="M1088.72 62.2867 L1097.27 62.2867 L1097.27 69.2543 L1090.63 82.2172 L1085.4 82.2172 L1088.72 69.2543 L1088.72 62.2867 Z" fill="#000000" fill-rule="nonzero" fill-opacity="1"></path><path clip-path="url(#clip830)" d="M1114.49 71.3202 L1114.49 63.8666 Q1117.56 65.3249 1120.72 66.0946 Q1123.88 66.8642 1126.92 66.8642 Q1135.02 66.8642 1139.28 61.436 Q1143.57 55.9673 1144.18 44.8678 Q1141.83 48.3516 1138.22 50.215 Q1134.62 52.0784 1130.24 52.0784 Q1121.17 52.0784 1115.86 46.6097 Q1110.6 41.1005 1110.6 31.5808 Q1110.6 22.2638 1116.11 16.633 Q1121.62 11.0023 1130.77 11.0023 Q1141.26 11.0023 1146.77 19.0636 Q1152.32 27.0843 1152.32 42.3968 Q1152.32 56.6965 1145.52 65.2439 Q1138.75 73.7508 1127.29 73.7508 Q1124.21 73.7508 1121.05 73.1431 Q1117.89 72.5355 1114.49 71.3202 M1130.77 45.678 Q1136.28 45.678 1139.48 41.9107 Q1142.72 38.1433 1142.72 31.5808 Q1142.72 25.0589 1139.48 21.2916 Q1136.28 17.4837 1130.77 17.4837 Q1125.26 17.4837 1122.02 21.2916 Q1118.82 25.0589 1118.82 31.5808 Q1118.82 38.1433 1122.02 41.9107 Q1125.26 45.678 1130.77 45.678 Z" fill="#000000" fill-rule="nonzero" fill-opacity="1"></path><path clip-path="url(#clip830)" d="M1167.88 62.2867 L1176.42 62.2867 L1176.42 69.2543 L1169.78 82.2172 L1164.55 82.2172 L1167.88 69.2543 L1167.88 62.2867 Z" fill="#000000" fill-rule="nonzero" fill-opacity="1"></path><path clip-path="url(#clip830)" d="M1194.82 65.6895 L1208.18 65.6895 L1208.18 19.5497 L1193.64 22.4663 L1193.64 15.0127 L1208.1 12.096 L1216.29 12.096 L1216.29 65.6895 L1229.65 65.6895 L1229.65 72.576 L1194.82 72.576 L1194.82 65.6895 Z" fill="#000000" fill-rule="nonzero" fill-opacity="1"></path><path clip-path="url(#clip830)" d="M1263.68 17.4837 Q1257.36 17.4837 1254.16 23.7221 Q1251 29.92 1251 42.3968 Q1251 54.833 1254.16 61.0714 Q1257.36 67.2693 1263.68 67.2693 Q1270.04 67.2693 1273.2 61.0714 Q1276.4 54.833 1276.4 42.3968 Q1276.4 29.92 1273.2 23.7221 Q1270.04 17.4837 1263.68 17.4837 M1263.68 11.0023 Q1273.85 11.0023 1279.2 19.0636 Q1284.58 27.0843 1284.58 42.3968 Q1284.58 57.6687 1279.2 65.73 Q1273.85 73.7508 1263.68 73.7508 Q1253.51 73.7508 1248.13 65.73 Q1242.78 57.6687 1242.78 42.3968 Q1242.78 27.0843 1248.13 19.0636 Q1253.51 11.0023 1263.68 11.0023 Z" fill="#000000" fill-rule="nonzero" fill-opacity="1"></path><path clip-path="url(#clip830)" d="M1299.81 62.2867 L1308.36 62.2867 L1308.36 69.2543 L1301.72 82.2172 L1296.49 82.2172 L1299.81 69.2543 L1299.81 62.2867 Z" fill="#000000" fill-rule="nonzero" fill-opacity="1"></path><path clip-path="url(#clip830)" d="M1326.75 65.6895 L1340.12 65.6895 L1340.12 19.5497 L1325.58 22.4663 L1325.58 15.0127 L1340.04 12.096 L1348.22 12.096 L1348.22 65.6895 L1361.59 65.6895 L1361.59 72.576 L1326.75 72.576 L1326.75 65.6895 Z" fill="#000000" fill-rule="nonzero" fill-opacity="1"></path><path clip-path="url(#clip830)" d="M1379.54 65.6895 L1392.9 65.6895 L1392.9 19.5497 L1378.36 22.4663 L1378.36 15.0127 L1392.82 12.096 L1401.01 12.096 L1401.01 65.6895 L1414.37 65.6895 L1414.37 72.576 L1379.54 72.576 L1379.54 65.6895 Z" fill="#000000" fill-rule="nonzero" fill-opacity="1"></path><path clip-path="url(#clip830)" d="M1431.75 62.2867 L1440.3 62.2867 L1440.3 69.2543 L1433.66 82.2172 L1428.43 82.2172 L1431.75 69.2543 L1431.75 62.2867 Z" fill="#000000" fill-rule="nonzero" fill-opacity="1"></path><path clip-path="url(#clip830)" d="M1458.69 65.6895 L1472.06 65.6895 L1472.06 19.5497 L1457.52 22.4663 L1457.52 15.0127 L1471.98 12.096 L1480.16 12.096 L1480.16 65.6895 L1493.53 65.6895 L1493.53 72.576 L1458.69 72.576 L1458.69 65.6895 Z" fill="#000000" fill-rule="nonzero" fill-opacity="1"></path><path clip-path="url(#clip830)" d="M1517.11 65.6895 L1545.66 65.6895 L1545.66 72.576 L1507.26 72.576 L1507.26 65.6895 Q1511.92 60.8689 1519.94 52.7671 Q1528 44.6248 1530.07 42.2752 Q1534 37.8598 1535.54 34.8216 Q1537.12 31.7429 1537.12 28.7857 Q1537.12 23.9651 1533.71 20.927 Q1530.35 17.8888 1524.92 17.8888 Q1521.08 17.8888 1516.78 19.2256 Q1512.53 20.5624 1507.67 23.2765 L1507.67 15.0127 Q1512.61 13.0277 1516.9 12.015 Q1521.2 11.0023 1524.76 11.0023 Q1534.16 11.0023 1539.75 15.7013 Q1545.34 20.4004 1545.34 28.2591 Q1545.34 31.9859 1543.92 35.3482 Q1542.54 38.6699 1538.86 43.2069 Q1537.85 44.3817 1532.42 50.0125 Q1526.99 55.6027 1517.11 65.6895 Z" fill="#000000" fill-rule="nonzero" fill-opacity="1"></path><path clip-path="url(#clip830)" d="M1563.69 62.2867 L1572.24 62.2867 L1572.24 69.2543 L1565.59 82.2172 L1560.37 82.2172 L1563.69 69.2543 L1563.69 62.2867 Z" fill="#000000" fill-rule="nonzero" fill-opacity="1"></path><path clip-path="url(#clip830)" d="M1590.63 65.6895 L1604 65.6895 L1604 19.5497 L1589.45 22.4663 L1589.45 15.0127 L1603.92 12.096 L1612.1 12.096 L1612.1 65.6895 L1625.47 65.6895 L1625.47 72.576 L1590.63 72.576 L1590.63 65.6895 Z" fill="#000000" fill-rule="nonzero" fill-opacity="1"></path><path clip-path="url(#clip830)" d="M1642.08 12.096 L1674.2 12.096 L1674.2 18.9825 L1649.57 18.9825 L1649.57 33.8088 Q1651.35 33.2012 1653.13 32.9176 Q1654.92 32.5936 1656.7 32.5936 Q1666.83 32.5936 1672.74 38.1433 Q1678.66 43.6931 1678.66 53.1722 Q1678.66 62.9348 1672.58 68.3631 Q1666.5 73.7508 1655.44 73.7508 Q1651.64 73.7508 1647.67 73.1026 Q1643.74 72.4545 1639.52 71.1582 L1639.52 62.9348 Q1643.17 64.9198 1647.06 65.892 Q1650.95 66.8642 1655.28 66.8642 Q1662.29 66.8642 1666.38 63.1779 Q1670.47 59.4916 1670.47 53.1722 Q1670.47 46.8528 1666.38 43.1664 Q1662.29 39.4801 1655.28 39.4801 Q1652 39.4801 1648.72 40.2093 Q1645.48 40.9384 1642.08 42.4778 L1642.08 12.096 Z" fill="#000000" fill-rule="nonzero" fill-opacity="1"></path><path clip-path="url(#clip830)" d="M1695.63 62.2867 L1704.18 62.2867 L1704.18 69.2543 L1697.53 82.2172 L1692.31 82.2172 L1695.63 69.2543 L1695.63 62.2867 Z" fill="#000000" fill-rule="nonzero" fill-opacity="1"></path><path clip-path="url(#clip830)" d="M1722.57 65.6895 L1735.94 65.6895 L1735.94 19.5497 L1721.39 22.4663 L1721.39 15.0127 L1735.85 12.096 L1744.04 12.096 L1744.04 65.6895 L1757.4 65.6895 L1757.4 72.576 L1722.57 72.576 L1722.57 65.6895 Z" fill="#000000" fill-rule="nonzero" fill-opacity="1"></path><path clip-path="url(#clip830)" d="M1792.45 39.075 Q1786.94 39.075 1783.7 42.8424 Q1780.49 46.6097 1780.49 53.1722 Q1780.49 59.6941 1783.7 63.502 Q1786.94 67.2693 1792.45 67.2693 Q1797.95 67.2693 1801.15 63.502 Q1804.4 59.6941 1804.4 53.1722 Q1804.4 46.6097 1801.15 42.8424 Q1797.95 39.075 1792.45 39.075 M1808.69 13.4328 L1808.69 20.8865 Q1805.61 19.4281 1802.45 18.6585 Q1799.33 17.8888 1796.25 17.8888 Q1788.15 17.8888 1783.86 23.3575 Q1779.6 28.8262 1779 39.8852 Q1781.39 36.3609 1784.99 34.4975 Q1788.6 32.5936 1792.93 32.5936 Q1802.05 32.5936 1807.31 38.1433 Q1812.62 43.6525 1812.62 53.1722 Q1812.62 62.4892 1807.11 68.12 Q1801.6 73.7508 1792.45 73.7508 Q1781.95 73.7508 1776.4 65.73 Q1770.85 57.6687 1770.85 42.3968 Q1770.85 28.0566 1777.66 19.5497 Q1784.46 11.0023 1795.93 11.0023 Q1799.01 11.0023 1802.13 11.6099 Q1805.29 12.2175 1808.69 13.4328 Z" fill="#000000" fill-rule="nonzero" fill-opacity="1"></path><path clip-path="url(#clip830)" d="M1828.21 80.2727 L1831.05 80.2727 Q1836.72 80.2727 1838.42 78.5308 Q1840.16 76.7889 1840.16 70.9961 L1840.16 60.9499 Q1840.16 54.6305 1841.99 51.7544 Q1843.81 48.8782 1848.31 47.7845 Q1843.81 46.7717 1841.99 43.8956 Q1840.16 41.0195 1840.16 34.6595 L1840.16 24.6133 Q1840.16 18.861 1838.42 17.1191 Q1836.72 15.3367 1831.05 15.3367 L1828.21 15.3367 L1828.21 9.54393 L1830.77 9.54393 Q1840.85 9.54393 1844.22 12.5416 Q1847.62 15.4988 1847.62 24.4513 L1847.62 34.1734 Q1847.62 40.2093 1849.81 42.5588 Q1851.99 44.8678 1857.75 44.8678 L1860.26 44.8678 L1860.26 50.6606 L1857.75 50.6606 Q1851.99 50.6606 1849.81 53.0101 Q1847.62 55.3597 1847.62 61.4765 L1847.62 71.1582 Q1847.62 80.1107 1844.22 83.1084 Q1840.85 86.106 1830.77 86.106 L1828.21 86.106 L1828.21 80.2727 Z" fill="#000000" fill-rule="nonzero" fill-opacity="1"></path><path clip-path="url(#clip832)" d="M291.267 227.869 L291.267 667.52 L319.526 667.52 L319.526 227.869 L291.267 227.869 L291.267 227.869  Z" fill="#009af9" fill-rule="evenodd" fill-opacity="1"></path>
<polyline clip-path="url(#clip832)" style="stroke:#000000; stroke-linecap:round; stroke-linejoin:round; stroke-width:4; stroke-opacity:1; fill:none" points="291.267,227.869 291.267,667.52 319.526,667.52 319.526,227.869 291.267,227.869 "></polyline>
<path clip-path="url(#clip832)" d="M533.488 370.12 L533.488 667.52 L561.747 667.52 L561.747 370.12 L533.488 370.12 L533.488 370.12  Z" fill="#009af9" fill-rule="evenodd" fill-opacity="1"></path>
<polyline clip-path="url(#clip832)" style="stroke:#000000; stroke-linecap:round; stroke-linejoin:round; stroke-width:4; stroke-opacity:1; fill:none" points="533.488,370.12 533.488,667.52 561.747,667.52 561.747,370.12 533.488,370.12 "></polyline>
<path clip-path="url(#clip832)" d="M775.708 547.934 L775.708 667.52 L803.967 667.52 L803.967 547.934 L775.708 547.934 L775.708 547.934  Z" fill="#009af9" fill-rule="evenodd" fill-opacity="1"></path>
<polyline clip-path="url(#clip832)" style="stroke:#000000; stroke-linecap:round; stroke-linejoin:round; stroke-width:4; stroke-opacity:1; fill:none" points="775.708,547.934 775.708,667.52 803.967,667.52 803.967,547.934 775.708,547.934 "></polyline>
<path clip-path="url(#clip832)" d="M1017.93 441.246 L1017.93 667.52 L1046.19 667.52 L1046.19 441.246 L1017.93 441.246 L1017.93 441.246  Z" fill="#009af9" fill-rule="evenodd" fill-opacity="1"></path>
<polyline clip-path="url(#clip832)" style="stroke:#000000; stroke-linecap:round; stroke-linejoin:round; stroke-width:4; stroke-opacity:1; fill:none" points="1017.93,441.246 1017.93,667.52 1046.19,667.52 1046.19,441.246 1017.93,441.246 "></polyline>
<path clip-path="url(#clip832)" d="M1260.15 627.951 L1260.15 667.52 L1288.41 667.52 L1288.41 627.951 L1260.15 627.951 L1260.15 627.951  Z" fill="#009af9" fill-rule="evenodd" fill-opacity="1"></path>
<polyline clip-path="url(#clip832)" style="stroke:#000000; stroke-linecap:round; stroke-linejoin:round; stroke-width:4; stroke-opacity:1; fill:none" points="1260.15,627.951 1260.15,667.52 1288.41,667.52 1288.41,627.951 1260.15,627.951 "></polyline>
<path clip-path="url(#clip832)" d="M1502.37 658.19 L1502.37 667.52 L1530.63 667.52 L1530.63 658.19 L1502.37 658.19 L1502.37 658.19  Z" fill="#009af9" fill-rule="evenodd" fill-opacity="1"></path>
<polyline clip-path="url(#clip832)" style="stroke:#000000; stroke-linecap:round; stroke-linejoin:round; stroke-width:4; stroke-opacity:1; fill:none" points="1502.37,658.19 1502.37,667.52 1530.63,667.52 1530.63,658.19 1502.37,658.19 "></polyline>
<circle clip-path="url(#clip832)" style="fill:#009af9; stroke:none; fill-opacity:0" cx="305.397" cy="227.869" r="2"></circle>
<circle clip-path="url(#clip832)" style="fill:#009af9; stroke:none; fill-opacity:0" cx="547.617" cy="370.12" r="2"></circle>
<circle clip-path="url(#clip832)" style="fill:#009af9; stroke:none; fill-opacity:0" cx="789.838" cy="547.934" r="2"></circle>
<circle clip-path="url(#clip832)" style="fill:#009af9; stroke:none; fill-opacity:0" cx="1032.06" cy="441.246" r="2"></circle>
<circle clip-path="url(#clip832)" style="fill:#009af9; stroke:none; fill-opacity:0" cx="1274.28" cy="627.951" r="2"></circle>
<circle clip-path="url(#clip832)" style="fill:#009af9; stroke:none; fill-opacity:0" cx="1516.5" cy="658.19" r="2"></circle>
<path clip-path="url(#clip832)" d="M319.526 575.704 L319.526 667.52 L347.785 667.52 L347.785 575.704 L319.526 575.704 L319.526 575.704  Z" fill="#e26f46" fill-rule="evenodd" fill-opacity="1"></path>
<polyline clip-path="url(#clip832)" style="stroke:#000000; stroke-linecap:round; stroke-linejoin:round; stroke-width:4; stroke-opacity:1; fill:none" points="319.526,575.704 319.526,667.52 347.785,667.52 347.785,575.704 319.526,575.704 "></polyline>
<path clip-path="url(#clip832)" d="M561.747 575.704 L561.747 667.52 L590.006 667.52 L590.006 575.704 L561.747 575.704 L561.747 575.704  Z" fill="#e26f46" fill-rule="evenodd" fill-opacity="1"></path>
<polyline clip-path="url(#clip832)" style="stroke:#000000; stroke-linecap:round; stroke-linejoin:round; stroke-width:4; stroke-opacity:1; fill:none" points="561.747,575.704 561.747,667.52 590.006,667.52 590.006,575.704 561.747,575.704 "></polyline>
<path clip-path="url(#clip832)" d="M803.967 576.088 L803.967 667.52 L832.227 667.52 L832.227 576.088 L803.967 576.088 L803.967 576.088  Z" fill="#e26f46" fill-rule="evenodd" fill-opacity="1"></path>
<polyline clip-path="url(#clip832)" style="stroke:#000000; stroke-linecap:round; stroke-linejoin:round; stroke-width:4; stroke-opacity:1; fill:none" points="803.967,576.088 803.967,667.52 832.227,667.52 832.227,576.088 803.967,576.088 "></polyline>
<path clip-path="url(#clip832)" d="M1046.19 602.266 L1046.19 667.52 L1074.45 667.52 L1074.45 602.266 L1046.19 602.266 L1046.19 602.266  Z" fill="#e26f46" fill-rule="evenodd" fill-opacity="1"></path>
<polyline clip-path="url(#clip832)" style="stroke:#000000; stroke-linecap:round; stroke-linejoin:round; stroke-width:4; stroke-opacity:1; fill:none" points="1046.19,602.266 1046.19,667.52 1074.45,667.52 1074.45,602.266 1046.19,602.266 "></polyline>
<path clip-path="url(#clip832)" d="M1288.41 543.365 L1288.41 667.52 L1316.67 667.52 L1316.67 543.365 L1288.41 543.365 L1288.41 543.365  Z" fill="#e26f46" fill-rule="evenodd" fill-opacity="1"></path>
<polyline clip-path="url(#clip832)" style="stroke:#000000; stroke-linecap:round; stroke-linejoin:round; stroke-width:4; stroke-opacity:1; fill:none" points="1288.41,543.365 1288.41,667.52 1316.67,667.52 1316.67,543.365 1288.41,543.365 "></polyline>
<path clip-path="url(#clip832)" d="M1530.63 664.439 L1530.63 667.52 L1558.89 667.52 L1558.89 664.439 L1530.63 664.439 L1530.63 664.439  Z" fill="#e26f46" fill-rule="evenodd" fill-opacity="1"></path>
<polyline clip-path="url(#clip832)" style="stroke:#000000; stroke-linecap:round; stroke-linejoin:round; stroke-width:4; stroke-opacity:1; fill:none" points="1530.63,664.439 1530.63,667.52 1558.89,667.52 1558.89,664.439 1530.63,664.439 "></polyline>
<circle clip-path="url(#clip832)" style="fill:#e26f46; stroke:none; fill-opacity:0" cx="333.656" cy="575.704" r="2"></circle>
<circle clip-path="url(#clip832)" style="fill:#e26f46; stroke:none; fill-opacity:0" cx="575.876" cy="575.704" r="2"></circle>
<circle clip-path="url(#clip832)" style="fill:#e26f46; stroke:none; fill-opacity:0" cx="818.097" cy="576.088" r="2"></circle>
<circle clip-path="url(#clip832)" style="fill:#e26f46; stroke:none; fill-opacity:0" cx="1060.32" cy="602.266" r="2"></circle>
<circle clip-path="url(#clip832)" style="fill:#e26f46; stroke:none; fill-opacity:0" cx="1302.54" cy="543.365" r="2"></circle>
<circle clip-path="url(#clip832)" style="fill:#e26f46; stroke:none; fill-opacity:0" cx="1544.76" cy="664.439" r="2"></circle>
<path clip-path="url(#clip832)" d="M347.785 212.568 L347.785 667.52 L376.044 667.52 L376.044 212.568 L347.785 212.568 L347.785 212.568  Z" fill="#3da44d" fill-rule="evenodd" fill-opacity="1"></path>
<polyline clip-path="url(#clip832)" style="stroke:#000000; stroke-linecap:round; stroke-linejoin:round; stroke-width:4; stroke-opacity:1; fill:none" points="347.785,212.568 347.785,667.52 376.044,667.52 376.044,212.568 347.785,212.568 "></polyline>
<path clip-path="url(#clip832)" d="M590.006 446.492 L590.006 667.52 L618.265 667.52 L618.265 446.492 L590.006 446.492 L590.006 446.492  Z" fill="#3da44d" fill-rule="evenodd" fill-opacity="1"></path>
<polyline clip-path="url(#clip832)" style="stroke:#000000; stroke-linecap:round; stroke-linejoin:round; stroke-width:4; stroke-opacity:1; fill:none" points="590.006,446.492 590.006,667.52 618.265,667.52 618.265,446.492 590.006,446.492 "></polyline>
<path clip-path="url(#clip832)" d="M832.227 576.648 L832.227 667.52 L860.486 667.52 L860.486 576.648 L832.227 576.648 L832.227 576.648  Z" fill="#3da44d" fill-rule="evenodd" fill-opacity="1"></path>
<polyline clip-path="url(#clip832)" style="stroke:#000000; stroke-linecap:round; stroke-linejoin:round; stroke-width:4; stroke-opacity:1; fill:none" points="832.227,576.648 832.227,667.52 860.486,667.52 860.486,576.648 832.227,576.648 "></polyline>
<path clip-path="url(#clip832)" d="M1074.45 524.467 L1074.45 667.52 L1102.71 667.52 L1102.71 524.467 L1074.45 524.467 L1074.45 524.467  Z" fill="#3da44d" fill-rule="evenodd" fill-opacity="1"></path>
<polyline clip-path="url(#clip832)" style="stroke:#000000; stroke-linecap:round; stroke-linejoin:round; stroke-width:4; stroke-opacity:1; fill:none" points="1074.45,524.467 1074.45,667.52 1102.71,667.52 1102.71,524.467 1074.45,524.467 "></polyline>
<path clip-path="url(#clip832)" d="M1316.67 479.179 L1316.67 667.52 L1344.93 667.52 L1344.93 479.179 L1316.67 479.179 L1316.67 479.179  Z" fill="#3da44d" fill-rule="evenodd" fill-opacity="1"></path>
<polyline clip-path="url(#clip832)" style="stroke:#000000; stroke-linecap:round; stroke-linejoin:round; stroke-width:4; stroke-opacity:1; fill:none" points="1316.67,479.179 1316.67,667.52 1344.93,667.52 1344.93,479.179 1316.67,479.179 "></polyline>
<path clip-path="url(#clip832)" d="M1558.89 646.303 L1558.89 667.52 L1587.15 667.52 L1587.15 646.303 L1558.89 646.303 L1558.89 646.303  Z" fill="#3da44d" fill-rule="evenodd" fill-opacity="1"></path>
<polyline clip-path="url(#clip832)" style="stroke:#000000; stroke-linecap:round; stroke-linejoin:round; stroke-width:4; stroke-opacity:1; fill:none" points="1558.89,646.303 1558.89,667.52 1587.15,667.52 1587.15,646.303 1558.89,646.303 "></polyline>
<circle clip-path="url(#clip832)" style="fill:#3da44d; stroke:none; fill-opacity:0" cx="361.915" cy="212.568" r="2"></circle>
<circle clip-path="url(#clip832)" style="fill:#3da44d; stroke:none; fill-opacity:0" cx="604.136" cy="446.492" r="2"></circle>
<circle clip-path="url(#clip832)" style="fill:#3da44d; stroke:none; fill-opacity:0" cx="846.356" cy="576.648" r="2"></circle>
<circle clip-path="url(#clip832)" style="fill:#3da44d; stroke:none; fill-opacity:0" cx="1088.58" cy="524.467" r="2"></circle>
<circle clip-path="url(#clip832)" style="fill:#3da44d; stroke:none; fill-opacity:0" cx="1330.8" cy="479.179" r="2"></circle>
<circle clip-path="url(#clip832)" style="fill:#3da44d; stroke:none; fill-opacity:0" cx="1573.02" cy="646.303" r="2"></circle>
<path clip-path="url(#clip832)" d="M376.044 364.231 L376.044 667.52 L404.304 667.52 L404.304 364.231 L376.044 364.231 L376.044 364.231  Z" fill="#c271d2" fill-rule="evenodd" fill-opacity="1"></path>
<polyline clip-path="url(#clip832)" style="stroke:#000000; stroke-linecap:round; stroke-linejoin:round; stroke-width:4; stroke-opacity:1; fill:none" points="376.044,364.231 376.044,667.52 404.304,667.52 404.304,364.231 376.044,364.231 "></polyline>
<path clip-path="url(#clip832)" d="M618.265 101.296 L618.265 667.52 L646.524 667.52 L646.524 101.296 L618.265 101.296 L618.265 101.296  Z" fill="#c271d2" fill-rule="evenodd" fill-opacity="1"></path>
<polyline clip-path="url(#clip832)" style="stroke:#000000; stroke-linecap:round; stroke-linejoin:round; stroke-width:4; stroke-opacity:1; fill:none" points="618.265,101.296 618.265,667.52 646.524,667.52 646.524,101.296 618.265,101.296 "></polyline>
<path clip-path="url(#clip832)" d="M860.486 338.436 L860.486 667.52 L888.745 667.52 L888.745 338.436 L860.486 338.436 L860.486 338.436  Z" fill="#c271d2" fill-rule="evenodd" fill-opacity="1"></path>
<polyline clip-path="url(#clip832)" style="stroke:#000000; stroke-linecap:round; stroke-linejoin:round; stroke-width:4; stroke-opacity:1; fill:none" points="860.486,338.436 860.486,667.52 888.745,667.52 888.745,338.436 860.486,338.436 "></polyline>
<path clip-path="url(#clip832)" d="M1102.71 555.814 L1102.71 667.52 L1130.97 667.52 L1130.97 555.814 L1102.71 555.814 L1102.71 555.814  Z" fill="#c271d2" fill-rule="evenodd" fill-opacity="1"></path>
<polyline clip-path="url(#clip832)" style="stroke:#000000; stroke-linecap:round; stroke-linejoin:round; stroke-width:4; stroke-opacity:1; fill:none" points="1102.71,555.814 1102.71,667.52 1130.97,667.52 1130.97,555.814 1102.71,555.814 "></polyline>
<path clip-path="url(#clip832)" d="M1344.93 575.576 L1344.93 667.52 L1373.19 667.52 L1373.19 575.576 L1344.93 575.576 L1344.93 575.576  Z" fill="#c271d2" fill-rule="evenodd" fill-opacity="1"></path>
<polyline clip-path="url(#clip832)" style="stroke:#000000; stroke-linecap:round; stroke-linejoin:round; stroke-width:4; stroke-opacity:1; fill:none" points="1344.93,575.576 1344.93,667.52 1373.19,667.52 1373.19,575.576 1344.93,575.576 "></polyline>
<path clip-path="url(#clip832)" d="M1587.15 571.728 L1587.15 667.52 L1615.41 667.52 L1615.41 571.728 L1587.15 571.728 L1587.15 571.728  Z" fill="#c271d2" fill-rule="evenodd" fill-opacity="1"></path>
<polyline clip-path="url(#clip832)" style="stroke:#000000; stroke-linecap:round; stroke-linejoin:round; stroke-width:4; stroke-opacity:1; fill:none" points="1587.15,571.728 1587.15,667.52 1615.41,667.52 1615.41,571.728 1587.15,571.728 "></polyline>
<circle clip-path="url(#clip832)" style="fill:#c271d2; stroke:none; fill-opacity:0" cx="390.174" cy="364.231" r="2"></circle>
<circle clip-path="url(#clip832)" style="fill:#c271d2; stroke:none; fill-opacity:0" cx="632.395" cy="101.296" r="2"></circle>
<circle clip-path="url(#clip832)" style="fill:#c271d2; stroke:none; fill-opacity:0" cx="874.615" cy="338.436" r="2"></circle>
<circle clip-path="url(#clip832)" style="fill:#c271d2; stroke:none; fill-opacity:0" cx="1116.84" cy="555.814" r="2"></circle>
<circle clip-path="url(#clip832)" style="fill:#c271d2; stroke:none; fill-opacity:0" cx="1359.06" cy="575.576" r="2"></circle>
<circle clip-path="url(#clip832)" style="fill:#c271d2; stroke:none; fill-opacity:0" cx="1601.28" cy="571.728" r="2"></circle>
<path clip-path="url(#clip832)" d="M404.304 347.569 L404.304 667.52 L432.563 667.52 L432.563 347.569 L404.304 347.569 L404.304 347.569  Z" fill="#ac8d18" fill-rule="evenodd" fill-opacity="1"></path>
<polyline clip-path="url(#clip832)" style="stroke:#000000; stroke-linecap:round; stroke-linejoin:round; stroke-width:4; stroke-opacity:1; fill:none" points="404.304,347.569 404.304,667.52 432.563,667.52 432.563,347.569 404.304,347.569 "></polyline>
<path clip-path="url(#clip832)" d="M646.524 143.074 L646.524 667.52 L674.783 667.52 L674.783 143.074 L646.524 143.074 L646.524 143.074  Z" fill="#ac8d18" fill-rule="evenodd" fill-opacity="1"></path>
<polyline clip-path="url(#clip832)" style="stroke:#000000; stroke-linecap:round; stroke-linejoin:round; stroke-width:4; stroke-opacity:1; fill:none" points="646.524,143.074 646.524,667.52 674.783,667.52 674.783,143.074 646.524,143.074 "></polyline>
<path clip-path="url(#clip832)" d="M888.745 462.714 L888.745 667.52 L917.004 667.52 L917.004 462.714 L888.745 462.714 L888.745 462.714  Z" fill="#ac8d18" fill-rule="evenodd" fill-opacity="1"></path>
<polyline clip-path="url(#clip832)" style="stroke:#000000; stroke-linecap:round; stroke-linejoin:round; stroke-width:4; stroke-opacity:1; fill:none" points="888.745,462.714 888.745,667.52 917.004,667.52 917.004,462.714 888.745,462.714 "></polyline>
<path clip-path="url(#clip832)" d="M1130.97 654.623 L1130.97 667.52 L1159.22 667.52 L1159.22 654.623 L1130.97 654.623 L1130.97 654.623  Z" fill="#ac8d18" fill-rule="evenodd" fill-opacity="1"></path>
<polyline clip-path="url(#clip832)" style="stroke:#000000; stroke-linecap:round; stroke-linejoin:round; stroke-width:4; stroke-opacity:1; fill:none" points="1130.97,654.623 1130.97,667.52 1159.22,667.52 1159.22,654.623 1130.97,654.623 "></polyline>
<path clip-path="url(#clip832)" d="M1373.19 405.142 L1373.19 667.52 L1401.44 667.52 L1401.44 405.142 L1373.19 405.142 L1373.19 405.142  Z" fill="#ac8d18" fill-rule="evenodd" fill-opacity="1"></path>
<polyline clip-path="url(#clip832)" style="stroke:#000000; stroke-linecap:round; stroke-linejoin:round; stroke-width:4; stroke-opacity:1; fill:none" points="1373.19,405.142 1373.19,667.52 1401.44,667.52 1401.44,405.142 1373.19,405.142 "></polyline>
<path clip-path="url(#clip832)" d="M1615.41 613.249 L1615.41 667.52 L1643.67 667.52 L1643.67 613.249 L1615.41 613.249 L1615.41 613.249  Z" fill="#ac8d18" fill-rule="evenodd" fill-opacity="1"></path>
<polyline clip-path="url(#clip832)" style="stroke:#000000; stroke-linecap:round; stroke-linejoin:round; stroke-width:4; stroke-opacity:1; fill:none" points="1615.41,613.249 1615.41,667.52 1643.67,667.52 1643.67,613.249 1615.41,613.249 "></polyline>
<circle clip-path="url(#clip832)" style="fill:#ac8d18; stroke:none; fill-opacity:0" cx="418.433" cy="347.569" r="2"></circle>
<circle clip-path="url(#clip832)" style="fill:#ac8d18; stroke:none; fill-opacity:0" cx="660.654" cy="143.074" r="2"></circle>
<circle clip-path="url(#clip832)" style="fill:#ac8d18; stroke:none; fill-opacity:0" cx="902.874" cy="462.714" r="2"></circle>
<circle clip-path="url(#clip832)" style="fill:#ac8d18; stroke:none; fill-opacity:0" cx="1145.09" cy="654.623" r="2"></circle>
<circle clip-path="url(#clip832)" style="fill:#ac8d18; stroke:none; fill-opacity:0" cx="1387.32" cy="405.142" r="2"></circle>
<circle clip-path="url(#clip832)" style="fill:#ac8d18; stroke:none; fill-opacity:0" cx="1629.54" cy="613.249" r="2"></circle>
<path clip-path="url(#clip832)" d="M432.563 530.52 L432.563 667.52 L460.822 667.52 L460.822 530.52 L432.563 530.52 L432.563 530.52  Z" fill="#00a9ad" fill-rule="evenodd" fill-opacity="1"></path>
<polyline clip-path="url(#clip832)" style="stroke:#000000; stroke-linecap:round; stroke-linejoin:round; stroke-width:4; stroke-opacity:1; fill:none" points="432.563,530.52 432.563,667.52 460.822,667.52 460.822,530.52 432.563,530.52 "></polyline>
<path clip-path="url(#clip832)" d="M674.783 204.931 L674.783 667.52 L703.042 667.52 L703.042 204.931 L674.783 204.931 L674.783 204.931  Z" fill="#00a9ad" fill-rule="evenodd" fill-opacity="1"></path>
<polyline clip-path="url(#clip832)" style="stroke:#000000; stroke-linecap:round; stroke-linejoin:round; stroke-width:4; stroke-opacity:1; fill:none" points="674.783,204.931 674.783,667.52 703.042,667.52 703.042,204.931 674.783,204.931 "></polyline>
<path clip-path="url(#clip832)" d="M917.004 392.302 L917.004 667.52 L945.263 667.52 L945.263 392.302 L917.004 392.302 L917.004 392.302  Z" fill="#00a9ad" fill-rule="evenodd" fill-opacity="1"></path>
<polyline clip-path="url(#clip832)" style="stroke:#000000; stroke-linecap:round; stroke-linejoin:round; stroke-width:4; stroke-opacity:1; fill:none" points="917.004,392.302 917.004,667.52 945.263,667.52 945.263,392.302 917.004,392.302 "></polyline>
<path clip-path="url(#clip832)" d="M1159.22 474.308 L1159.22 667.52 L1187.48 667.52 L1187.48 474.308 L1159.22 474.308 L1159.22 474.308  Z" fill="#00a9ad" fill-rule="evenodd" fill-opacity="1"></path>
<polyline clip-path="url(#clip832)" style="stroke:#000000; stroke-linecap:round; stroke-linejoin:round; stroke-width:4; stroke-opacity:1; fill:none" points="1159.22,474.308 1159.22,667.52 1187.48,667.52 1187.48,474.308 1159.22,474.308 "></polyline>
<path clip-path="url(#clip832)" d="M1401.44 476.619 L1401.44 667.52 L1429.7 667.52 L1429.7 476.619 L1401.44 476.619 L1401.44 476.619  Z" fill="#00a9ad" fill-rule="evenodd" fill-opacity="1"></path>
<polyline clip-path="url(#clip832)" style="stroke:#000000; stroke-linecap:round; stroke-linejoin:round; stroke-width:4; stroke-opacity:1; fill:none" points="1401.44,476.619 1401.44,667.52 1429.7,667.52 1429.7,476.619 1401.44,476.619 "></polyline>
<path clip-path="url(#clip832)" d="M1643.67 476.619 L1643.67 667.52 L1671.92 667.52 L1671.92 476.619 L1643.67 476.619 L1643.67 476.619  Z" fill="#00a9ad" fill-rule="evenodd" fill-opacity="1"></path>
<polyline clip-path="url(#clip832)" style="stroke:#000000; stroke-linecap:round; stroke-linejoin:round; stroke-width:4; stroke-opacity:1; fill:none" points="1643.67,476.619 1643.67,667.52 1671.92,667.52 1671.92,476.619 1643.67,476.619 "></polyline>
<circle clip-path="url(#clip832)" style="fill:#00a9ad; stroke:none; fill-opacity:0" cx="446.692" cy="530.52" r="2"></circle>
<circle clip-path="url(#clip832)" style="fill:#00a9ad; stroke:none; fill-opacity:0" cx="688.913" cy="204.931" r="2"></circle>
<circle clip-path="url(#clip832)" style="fill:#00a9ad; stroke:none; fill-opacity:0" cx="931.133" cy="392.302" r="2"></circle>
<circle clip-path="url(#clip832)" style="fill:#00a9ad; stroke:none; fill-opacity:0" cx="1173.35" cy="474.308" r="2"></circle>
<circle clip-path="url(#clip832)" style="fill:#00a9ad; stroke:none; fill-opacity:0" cx="1415.57" cy="476.619" r="2"></circle>
<circle clip-path="url(#clip832)" style="fill:#00a9ad; stroke:none; fill-opacity:0" cx="1657.79" cy="476.619" r="2"></circle>
</svg>