<svg xmlns="http://www.w3.org/2000/svg" xmlns:xlink="http://www.w3.org/1999/xlink" width="450" height="190" viewBox="0 0 1800 760">
<defs>
  <clipPath id="clip710">
    <rect x="0" y="0" width="1800" height="760"></rect>
  </clipPath>
</defs>
<path clip-path="url(#clip710)" d="M0 760 L1800 760 L1800 0 L0 0  Z" fill="#ffffff" fill-rule="evenodd" fill-opacity="1"></path>
<defs>
  <clipPath id="clip711">
    <rect x="360" y="0" width="1261" height="760"></rect>
  </clipPath>
</defs>
<path clip-path="url(#clip710)" d="M210.922 667.52 L1752.76 667.52 L1752.76 101.296 L210.922 101.296  Z" fill="#ffffff" fill-rule="evenodd" fill-opacity="1"></path>
<defs>
  <clipPath id="clip712">
    <rect x="210" y="101" width="1543" height="567"></rect>
  </clipPath>
</defs>
<polyline clip-path="url(#clip712)" style="stroke:#000000; stroke-linecap:round; stroke-linejoin:round; stroke-width:2; stroke-opacity:0.1; fill:none" points="376.478,667.52 376.478,101.296 "></polyline>
<polyline clip-path="url(#clip712)" style="stroke:#000000; stroke-linecap:round; stroke-linejoin:round; stroke-width:2; stroke-opacity:0.1; fill:none" points="618.623,667.52 618.623,101.296 "></polyline>
<polyline clip-path="url(#clip712)" style="stroke:#000000; stroke-linecap:round; stroke-linejoin:round; stroke-width:2; stroke-opacity:0.1; fill:none" points="860.767,667.52 860.767,101.296 "></polyline>
<polyline clip-path="url(#clip712)" style="stroke:#000000; stroke-linecap:round; stroke-linejoin:round; stroke-width:2; stroke-opacity:0.1; fill:none" points="1102.91,667.52 1102.91,101.296 "></polyline>
<polyline clip-path="url(#clip712)" style="stroke:#000000; stroke-linecap:round; stroke-linejoin:round; stroke-width:2; stroke-opacity:0.1; fill:none" points="1345.06,667.52 1345.06,101.296 "></polyline>
<polyline clip-path="url(#clip712)" style="stroke:#000000; stroke-linecap:round; stroke-linejoin:round; stroke-width:2; stroke-opacity:0.1; fill:none" points="1587.2,667.52 1587.2,101.296 "></polyline>
<polyline clip-path="url(#clip712)" style="stroke:#000000; stroke-linecap:round; stroke-linejoin:round; stroke-width:2; stroke-opacity:0.1; fill:none" points="210.922,667.52 1752.76,667.52 "></polyline>
<polyline clip-path="url(#clip712)" style="stroke:#000000; stroke-linecap:round; stroke-linejoin:round; stroke-width:2; stroke-opacity:0.1; fill:none" points="210.922,578.293 1752.76,578.293 "></polyline>
<polyline clip-path="url(#clip712)" style="stroke:#000000; stroke-linecap:round; stroke-linejoin:round; stroke-width:2; stroke-opacity:0.1; fill:none" points="210.922,489.066 1752.76,489.066 "></polyline>
<polyline clip-path="url(#clip712)" style="stroke:#000000; stroke-linecap:round; stroke-linejoin:round; stroke-width:2; stroke-opacity:0.1; fill:none" points="210.922,399.84 1752.76,399.84 "></polyline>
<polyline clip-path="url(#clip712)" style="stroke:#000000; stroke-linecap:round; stroke-linejoin:round; stroke-width:2; stroke-opacity:0.1; fill:none" points="210.922,310.613 1752.76,310.613 "></polyline>
<polyline clip-path="url(#clip712)" style="stroke:#000000; stroke-linecap:round; stroke-linejoin:round; stroke-width:2; stroke-opacity:0.1; fill:none" points="210.922,221.386 1752.76,221.386 "></polyline>
<polyline clip-path="url(#clip712)" style="stroke:#000000; stroke-linecap:round; stroke-linejoin:round; stroke-width:2; stroke-opacity:0.1; fill:none" points="210.922,132.159 1752.76,132.159 "></polyline>
<polyline clip-path="url(#clip710)" style="stroke:#000000; stroke-linecap:round; stroke-linejoin:round; stroke-width:4; stroke-opacity:1; fill:none" points="210.922,667.52 1752.76,667.52 "></polyline>
<polyline clip-path="url(#clip710)" style="stroke:#000000; stroke-linecap:round; stroke-linejoin:round; stroke-width:4; stroke-opacity:1; fill:none" points="376.478,667.52 376.478,648.622 "></polyline>
<polyline clip-path="url(#clip710)" style="stroke:#000000; stroke-linecap:round; stroke-linejoin:round; stroke-width:4; stroke-opacity:1; fill:none" points="618.623,667.52 618.623,648.622 "></polyline>
<polyline clip-path="url(#clip710)" style="stroke:#000000; stroke-linecap:round; stroke-linejoin:round; stroke-width:4; stroke-opacity:1; fill:none" points="860.767,667.52 860.767,648.622 "></polyline>
<polyline clip-path="url(#clip710)" style="stroke:#000000; stroke-linecap:round; stroke-linejoin:round; stroke-width:4; stroke-opacity:1; fill:none" points="1102.91,667.52 1102.91,648.622 "></polyline>
<polyline clip-path="url(#clip710)" style="stroke:#000000; stroke-linecap:round; stroke-linejoin:round; stroke-width:4; stroke-opacity:1; fill:none" points="1345.06,667.52 1345.06,648.622 "></polyline>
<polyline clip-path="url(#clip710)" style="stroke:#000000; stroke-linecap:round; stroke-linejoin:round; stroke-width:4; stroke-opacity:1; fill:none" points="1587.2,667.52 1587.2,648.622 "></polyline>
<path clip-path="url(#clip710)" d="M320.761 721.185 L328.4 721.185 L328.4 694.819 L320.09 696.486 L320.09 692.227 L328.354 690.56 L333.03 690.56 L333.03 721.185 L340.668 721.185 L340.668 725.12 L320.761 725.12 L320.761 721.185 Z" fill="#000000" fill-rule="nonzero" fill-opacity="1"></path><path clip-path="url(#clip710)" d="M360.113 693.639 Q356.502 693.639 354.673 697.203 Q352.867 700.745 352.867 707.875 Q352.867 714.981 354.673 718.546 Q356.502 722.087 360.113 722.087 Q363.747 722.087 365.553 718.546 Q367.381 714.981 367.381 707.875 Q367.381 700.745 365.553 697.203 Q363.747 693.639 360.113 693.639 M360.113 689.935 Q365.923 689.935 368.978 694.541 Q372.057 699.125 372.057 707.875 Q372.057 716.601 368.978 721.208 Q365.923 725.791 360.113 725.791 Q354.303 725.791 351.224 721.208 Q348.168 716.601 348.168 707.875 Q348.168 699.125 351.224 694.541 Q354.303 689.935 360.113 689.935 Z" fill="#000000" fill-rule="nonzero" fill-opacity="1"></path><path clip-path="url(#clip710)" d="M384.302 721.185 L400.622 721.185 L400.622 725.12 L378.677 725.12 L378.677 721.185 Q381.339 718.43 385.923 713.8 Q390.529 709.148 391.71 707.805 Q393.955 705.282 394.835 703.546 Q395.738 701.787 395.738 700.097 Q395.738 697.342 393.793 695.606 Q391.872 693.87 388.77 693.87 Q386.571 693.87 384.117 694.634 Q381.687 695.398 378.909 696.949 L378.909 692.227 Q381.733 691.092 384.187 690.514 Q386.64 689.935 388.677 689.935 Q394.048 689.935 397.242 692.62 Q400.437 695.305 400.437 699.796 Q400.437 701.926 399.626 703.847 Q398.839 705.745 396.733 708.338 Q396.154 709.009 393.052 712.226 Q389.951 715.421 384.302 721.185 Z" fill="#000000" fill-rule="nonzero" fill-opacity="1"></path><path clip-path="url(#clip710)" d="M423.284 694.634 L411.478 713.083 L423.284 713.083 L423.284 694.634 M422.057 690.56 L427.936 690.56 L427.936 713.083 L432.867 713.083 L432.867 716.972 L427.936 716.972 L427.936 725.12 L423.284 725.12 L423.284 716.972 L407.682 716.972 L407.682 712.458 L422.057 690.56 Z" fill="#000000" fill-rule="nonzero" fill-opacity="1"></path><path clip-path="url(#clip710)" d="M567.28 721.185 L583.6 721.185 L583.6 725.12 L561.655 725.12 L561.655 721.185 Q564.317 718.43 568.901 713.8 Q573.507 709.148 574.688 707.805 Q576.933 705.282 577.813 703.546 Q578.715 701.787 578.715 700.097 Q578.715 697.342 576.771 695.606 Q574.85 693.87 571.748 693.87 Q569.549 693.87 567.095 694.634 Q564.665 695.398 561.887 696.949 L561.887 692.227 Q564.711 691.092 567.165 690.514 Q569.618 689.935 571.655 689.935 Q577.026 689.935 580.22 692.62 Q583.414 695.305 583.414 699.796 Q583.414 701.926 582.604 703.847 Q581.817 705.745 579.711 708.338 Q579.132 709.009 576.03 712.226 Q572.928 715.421 567.28 721.185 Z" fill="#000000" fill-rule="nonzero" fill-opacity="1"></path><path clip-path="url(#clip710)" d="M603.414 693.639 Q599.803 693.639 597.975 697.203 Q596.169 700.745 596.169 707.875 Q596.169 714.981 597.975 718.546 Q599.803 722.087 603.414 722.087 Q607.049 722.087 608.854 718.546 Q610.683 714.981 610.683 707.875 Q610.683 700.745 608.854 697.203 Q607.049 693.639 603.414 693.639 M603.414 689.935 Q609.225 689.935 612.28 694.541 Q615.359 699.125 615.359 707.875 Q615.359 716.601 612.28 721.208 Q609.225 725.791 603.414 725.791 Q597.604 725.791 594.526 721.208 Q591.47 716.601 591.47 707.875 Q591.47 699.125 594.526 694.541 Q597.604 689.935 603.414 689.935 Z" fill="#000000" fill-rule="nonzero" fill-opacity="1"></path><path clip-path="url(#clip710)" d="M636.423 694.634 L624.618 713.083 L636.423 713.083 L636.423 694.634 M635.197 690.56 L641.076 690.56 L641.076 713.083 L646.007 713.083 L646.007 716.972 L641.076 716.972 L641.076 725.12 L636.423 725.12 L636.423 716.972 L620.822 716.972 L620.822 712.458 L635.197 690.56 Z" fill="#000000" fill-rule="nonzero" fill-opacity="1"></path><path clip-path="url(#clip710)" d="M663.738 708.708 Q660.405 708.708 658.484 710.49 Q656.585 712.273 656.585 715.398 Q656.585 718.523 658.484 720.305 Q660.405 722.087 663.738 722.087 Q667.071 722.087 668.993 720.305 Q670.914 718.5 670.914 715.398 Q670.914 712.273 668.993 710.49 Q667.095 708.708 663.738 708.708 M659.062 706.717 Q656.053 705.976 654.363 703.916 Q652.697 701.856 652.697 698.893 Q652.697 694.75 655.636 692.342 Q658.599 689.935 663.738 689.935 Q668.9 689.935 671.84 692.342 Q674.78 694.75 674.78 698.893 Q674.78 701.856 673.09 703.916 Q671.423 705.976 668.437 706.717 Q671.817 707.504 673.692 709.796 Q675.59 712.088 675.59 715.398 Q675.59 720.421 672.511 723.106 Q669.456 725.791 663.738 725.791 Q658.021 725.791 654.942 723.106 Q651.886 720.421 651.886 715.398 Q651.886 712.088 653.784 709.796 Q655.683 707.504 659.062 706.717 M657.349 699.333 Q657.349 702.018 659.016 703.523 Q660.706 705.027 663.738 705.027 Q666.747 705.027 668.437 703.523 Q670.15 702.018 670.15 699.333 Q670.15 696.648 668.437 695.143 Q666.747 693.639 663.738 693.639 Q660.706 693.639 659.016 695.143 Q657.349 696.648 657.349 699.333 Z" fill="#000000" fill-rule="nonzero" fill-opacity="1"></path><path clip-path="url(#clip710)" d="M818.695 694.634 L806.89 713.083 L818.695 713.083 L818.695 694.634 M817.468 690.56 L823.348 690.56 L823.348 713.083 L828.279 713.083 L828.279 716.972 L823.348 716.972 L823.348 725.12 L818.695 725.12 L818.695 716.972 L803.094 716.972 L803.094 712.458 L817.468 690.56 Z" fill="#000000" fill-rule="nonzero" fill-opacity="1"></path><path clip-path="url(#clip710)" d="M846.01 693.639 Q842.399 693.639 840.57 697.203 Q838.765 700.745 838.765 707.875 Q838.765 714.981 840.57 718.546 Q842.399 722.087 846.01 722.087 Q849.644 722.087 851.45 718.546 Q853.278 714.981 853.278 707.875 Q853.278 700.745 851.45 697.203 Q849.644 693.639 846.01 693.639 M846.01 689.935 Q851.82 689.935 854.876 694.541 Q857.954 699.125 857.954 707.875 Q857.954 716.601 854.876 721.208 Q851.82 725.791 846.01 725.791 Q840.2 725.791 837.121 721.208 Q834.066 716.601 834.066 707.875 Q834.066 699.125 837.121 694.541 Q840.2 689.935 846.01 689.935 Z" fill="#000000" fill-rule="nonzero" fill-opacity="1"></path><path clip-path="url(#clip710)" d="M866.311 724.402 L866.311 720.143 Q868.07 720.976 869.876 721.416 Q871.681 721.856 873.417 721.856 Q878.047 721.856 880.477 718.754 Q882.931 715.629 883.278 709.287 Q881.936 711.277 879.876 712.342 Q877.815 713.407 875.315 713.407 Q870.13 713.407 867.098 710.282 Q864.089 707.134 864.089 701.694 Q864.089 696.37 867.237 693.152 Q870.385 689.935 875.616 689.935 Q881.612 689.935 884.76 694.541 Q887.931 699.125 887.931 707.875 Q887.931 716.046 884.042 720.93 Q880.176 725.791 873.626 725.791 Q871.866 725.791 870.061 725.444 Q868.255 725.097 866.311 724.402 M875.616 709.75 Q878.764 709.75 880.593 707.597 Q882.445 705.444 882.445 701.694 Q882.445 697.967 880.593 695.814 Q878.764 693.639 875.616 693.639 Q872.468 693.639 870.616 695.814 Q868.788 697.967 868.788 701.694 Q868.788 705.444 870.616 707.597 Q872.468 709.75 875.616 709.75 Z" fill="#000000" fill-rule="nonzero" fill-opacity="1"></path><path clip-path="url(#clip710)" d="M906.912 705.976 Q903.764 705.976 901.912 708.129 Q900.084 710.282 900.084 714.032 Q900.084 717.759 901.912 719.935 Q903.764 722.087 906.912 722.087 Q910.061 722.087 911.889 719.935 Q913.741 717.759 913.741 714.032 Q913.741 710.282 911.889 708.129 Q910.061 705.976 906.912 705.976 M916.195 691.324 L916.195 695.583 Q914.436 694.75 912.63 694.31 Q910.848 693.87 909.088 693.87 Q904.459 693.87 902.005 696.995 Q899.575 700.12 899.227 706.439 Q900.593 704.426 902.653 703.361 Q904.713 702.273 907.19 702.273 Q912.399 702.273 915.408 705.444 Q918.44 708.592 918.44 714.032 Q918.44 719.356 915.292 722.574 Q912.144 725.791 906.912 725.791 Q900.917 725.791 897.746 721.208 Q894.575 716.601 894.575 707.875 Q894.575 699.68 898.463 694.819 Q902.352 689.935 908.903 689.935 Q910.662 689.935 912.445 690.282 Q914.25 690.629 916.195 691.324 Z" fill="#000000" fill-rule="nonzero" fill-opacity="1"></path><path clip-path="url(#clip710)" d="M1058.42 708.708 Q1055.09 708.708 1053.17 710.49 Q1051.27 712.273 1051.27 715.398 Q1051.27 718.523 1053.17 720.305 Q1055.09 722.087 1058.42 722.087 Q1061.75 722.087 1063.68 720.305 Q1065.6 718.5 1065.6 715.398 Q1065.6 712.273 1063.68 710.49 Q1061.78 708.708 1058.42 708.708 M1053.74 706.717 Q1050.74 705.976 1049.05 703.916 Q1047.38 701.856 1047.38 698.893 Q1047.38 694.75 1050.32 692.342 Q1053.28 689.935 1058.42 689.935 Q1063.58 689.935 1066.52 692.342 Q1069.46 694.75 1069.46 698.893 Q1069.46 701.856 1067.77 703.916 Q1066.11 705.976 1063.12 706.717 Q1066.5 707.504 1068.37 709.796 Q1070.27 712.088 1070.27 715.398 Q1070.27 720.421 1067.19 723.106 Q1064.14 725.791 1058.42 725.791 Q1052.7 725.791 1049.62 723.106 Q1046.57 720.421 1046.57 715.398 Q1046.57 712.088 1048.47 709.796 Q1050.37 707.504 1053.74 706.717 M1052.03 699.333 Q1052.03 702.018 1053.7 703.523 Q1055.39 705.027 1058.42 705.027 Q1061.43 705.027 1063.12 703.523 Q1064.83 702.018 1064.83 699.333 Q1064.83 696.648 1063.12 695.143 Q1061.43 693.639 1058.42 693.639 Q1055.39 693.639 1053.7 695.143 Q1052.03 696.648 1052.03 699.333 Z" fill="#000000" fill-rule="nonzero" fill-opacity="1"></path><path clip-path="url(#clip710)" d="M1079.39 721.185 L1087.03 721.185 L1087.03 694.819 L1078.72 696.486 L1078.72 692.227 L1086.99 690.56 L1091.66 690.56 L1091.66 721.185 L1099.3 721.185 L1099.3 725.12 L1079.39 725.12 L1079.39 721.185 Z" fill="#000000" fill-rule="nonzero" fill-opacity="1"></path><path clip-path="url(#clip710)" d="M1108.88 724.402 L1108.88 720.143 Q1110.64 720.976 1112.45 721.416 Q1114.25 721.856 1115.99 721.856 Q1120.62 721.856 1123.05 718.754 Q1125.5 715.629 1125.85 709.287 Q1124.51 711.277 1122.45 712.342 Q1120.39 713.407 1117.89 713.407 Q1112.7 713.407 1109.67 710.282 Q1106.66 707.134 1106.66 701.694 Q1106.66 696.37 1109.81 693.152 Q1112.96 689.935 1118.19 689.935 Q1124.18 689.935 1127.33 694.541 Q1130.5 699.125 1130.5 707.875 Q1130.5 716.046 1126.61 720.93 Q1122.75 725.791 1116.2 725.791 Q1114.44 725.791 1112.63 725.444 Q1110.83 725.097 1108.88 724.402 M1118.19 709.75 Q1121.34 709.75 1123.17 707.597 Q1125.02 705.444 1125.02 701.694 Q1125.02 697.967 1123.17 695.814 Q1121.34 693.639 1118.19 693.639 Q1115.04 693.639 1113.19 695.814 Q1111.36 697.967 1111.36 701.694 Q1111.36 705.444 1113.19 707.597 Q1115.04 709.75 1118.19 709.75 Z" fill="#000000" fill-rule="nonzero" fill-opacity="1"></path><path clip-path="url(#clip710)" d="M1142.93 721.185 L1159.25 721.185 L1159.25 725.12 L1137.31 725.12 L1137.31 721.185 Q1139.97 718.43 1144.55 713.8 Q1149.16 709.148 1150.34 707.805 Q1152.59 705.282 1153.47 703.546 Q1154.37 701.787 1154.37 700.097 Q1154.37 697.342 1152.42 695.606 Q1150.5 693.87 1147.4 693.87 Q1145.2 693.87 1142.75 694.634 Q1140.32 695.398 1137.54 696.949 L1137.54 692.227 Q1140.36 691.092 1142.82 690.514 Q1145.27 689.935 1147.31 689.935 Q1152.68 689.935 1155.87 692.62 Q1159.07 695.305 1159.07 699.796 Q1159.07 701.926 1158.26 703.847 Q1157.47 705.745 1155.36 708.338 Q1154.79 709.009 1151.68 712.226 Q1148.58 715.421 1142.93 721.185 Z" fill="#000000" fill-rule="nonzero" fill-opacity="1"></path><path clip-path="url(#clip710)" d="M1274.26 721.185 L1281.9 721.185 L1281.9 694.819 L1273.59 696.486 L1273.59 692.227 L1281.85 690.56 L1286.53 690.56 L1286.53 721.185 L1294.16 721.185 L1294.16 725.12 L1274.26 725.12 L1274.26 721.185 Z" fill="#000000" fill-rule="nonzero" fill-opacity="1"></path><path clip-path="url(#clip710)" d="M1314.19 705.976 Q1311.04 705.976 1309.19 708.129 Q1307.36 710.282 1307.36 714.032 Q1307.36 717.759 1309.19 719.935 Q1311.04 722.087 1314.19 722.087 Q1317.34 722.087 1319.16 719.935 Q1321.02 717.759 1321.02 714.032 Q1321.02 710.282 1319.16 708.129 Q1317.34 705.976 1314.19 705.976 M1323.47 691.324 L1323.47 695.583 Q1321.71 694.75 1319.9 694.31 Q1318.12 693.87 1316.36 693.87 Q1311.73 693.87 1309.28 696.995 Q1306.85 700.12 1306.5 706.439 Q1307.87 704.426 1309.93 703.361 Q1311.99 702.273 1314.47 702.273 Q1319.67 702.273 1322.68 705.444 Q1325.72 708.592 1325.72 714.032 Q1325.72 719.356 1322.57 722.574 Q1319.42 725.791 1314.19 725.791 Q1308.19 725.791 1305.02 721.208 Q1301.85 716.601 1301.85 707.875 Q1301.85 699.68 1305.74 694.819 Q1309.63 689.935 1316.18 689.935 Q1317.94 689.935 1319.72 690.282 Q1321.53 690.629 1323.47 691.324 Z" fill="#000000" fill-rule="nonzero" fill-opacity="1"></path><path clip-path="url(#clip710)" d="M1347.94 706.486 Q1351.29 707.203 1353.17 709.472 Q1355.07 711.74 1355.07 715.074 Q1355.07 720.189 1351.55 722.99 Q1348.03 725.791 1341.55 725.791 Q1339.37 725.791 1337.06 725.351 Q1334.77 724.935 1332.31 724.078 L1332.31 719.564 Q1334.26 720.699 1336.57 721.277 Q1338.89 721.856 1341.41 721.856 Q1345.81 721.856 1348.1 720.12 Q1350.41 718.384 1350.41 715.074 Q1350.41 712.018 1348.26 710.305 Q1346.13 708.569 1342.31 708.569 L1338.28 708.569 L1338.28 704.726 L1342.5 704.726 Q1345.95 704.726 1347.78 703.361 Q1349.6 701.972 1349.6 699.379 Q1349.6 696.717 1347.71 695.305 Q1345.83 693.87 1342.31 693.87 Q1340.39 693.87 1338.19 694.287 Q1335.99 694.703 1333.35 695.583 L1333.35 691.416 Q1336.02 690.676 1338.33 690.305 Q1340.67 689.935 1342.73 689.935 Q1348.05 689.935 1351.15 692.365 Q1354.26 694.773 1354.26 698.893 Q1354.26 701.764 1352.61 703.754 Q1350.97 705.722 1347.94 706.486 Z" fill="#000000" fill-rule="nonzero" fill-opacity="1"></path><path clip-path="url(#clip710)" d="M1373.93 708.708 Q1370.6 708.708 1368.68 710.49 Q1366.78 712.273 1366.78 715.398 Q1366.78 718.523 1368.68 720.305 Q1370.6 722.087 1373.93 722.087 Q1377.27 722.087 1379.19 720.305 Q1381.11 718.5 1381.11 715.398 Q1381.11 712.273 1379.19 710.49 Q1377.29 708.708 1373.93 708.708 M1369.26 706.717 Q1366.25 705.976 1364.56 703.916 Q1362.89 701.856 1362.89 698.893 Q1362.89 694.75 1365.83 692.342 Q1368.79 689.935 1373.93 689.935 Q1379.09 689.935 1382.03 692.342 Q1384.97 694.75 1384.97 698.893 Q1384.97 701.856 1383.28 703.916 Q1381.62 705.976 1378.63 706.717 Q1382.01 707.504 1383.89 709.796 Q1385.78 712.088 1385.78 715.398 Q1385.78 720.421 1382.71 723.106 Q1379.65 725.791 1373.93 725.791 Q1368.21 725.791 1365.14 723.106 Q1362.08 720.421 1362.08 715.398 Q1362.08 712.088 1363.98 709.796 Q1365.88 707.504 1369.26 706.717 M1367.54 699.333 Q1367.54 702.018 1369.21 703.523 Q1370.9 705.027 1373.93 705.027 Q1376.94 705.027 1378.63 703.523 Q1380.34 702.018 1380.34 699.333 Q1380.34 696.648 1378.63 695.143 Q1376.94 693.639 1373.93 693.639 Q1370.9 693.639 1369.21 695.143 Q1367.54 696.648 1367.54 699.333 Z" fill="#000000" fill-rule="nonzero" fill-opacity="1"></path><path clip-path="url(#clip710)" d="M1406.94 694.634 L1395.14 713.083 L1406.94 713.083 L1406.94 694.634 M1405.71 690.56 L1411.59 690.56 L1411.59 713.083 L1416.52 713.083 L1416.52 716.972 L1411.59 716.972 L1411.59 725.12 L1406.94 725.12 L1406.94 716.972 L1391.34 716.972 L1391.34 712.458 L1405.71 690.56 Z" fill="#000000" fill-rule="nonzero" fill-opacity="1"></path><path clip-path="url(#clip710)" d="M1530.85 706.486 Q1534.2 707.203 1536.08 709.472 Q1537.98 711.74 1537.98 715.074 Q1537.98 720.189 1534.46 722.99 Q1530.94 725.791 1524.46 725.791 Q1522.28 725.791 1519.97 725.351 Q1517.67 724.935 1515.22 724.078 L1515.22 719.564 Q1517.17 720.699 1519.48 721.277 Q1521.79 721.856 1524.32 721.856 Q1528.72 721.856 1531.01 720.12 Q1533.32 718.384 1533.32 715.074 Q1533.32 712.018 1531.17 710.305 Q1529.04 708.569 1525.22 708.569 L1521.19 708.569 L1521.19 704.726 L1525.41 704.726 Q1528.85 704.726 1530.68 703.361 Q1532.51 701.972 1532.51 699.379 Q1532.51 696.717 1530.61 695.305 Q1528.74 693.87 1525.22 693.87 Q1523.3 693.87 1521.1 694.287 Q1518.9 694.703 1516.26 695.583 L1516.26 691.416 Q1518.92 690.676 1521.24 690.305 Q1523.58 689.935 1525.64 689.935 Q1530.96 689.935 1534.06 692.365 Q1537.17 694.773 1537.17 698.893 Q1537.17 701.764 1535.52 703.754 Q1533.88 705.722 1530.85 706.486 Z" fill="#000000" fill-rule="nonzero" fill-opacity="1"></path><path clip-path="url(#clip710)" d="M1550.87 721.185 L1567.19 721.185 L1567.19 725.12 L1545.24 725.12 L1545.24 721.185 Q1547.91 718.43 1552.49 713.8 Q1557.1 709.148 1558.28 707.805 Q1560.52 705.282 1561.4 703.546 Q1562.3 701.787 1562.3 700.097 Q1562.3 697.342 1560.36 695.606 Q1558.44 693.87 1555.34 693.87 Q1553.14 693.87 1550.68 694.634 Q1548.25 695.398 1545.48 696.949 L1545.48 692.227 Q1548.3 691.092 1550.75 690.514 Q1553.21 689.935 1555.24 689.935 Q1560.61 689.935 1563.81 692.62 Q1567 695.305 1567 699.796 Q1567 701.926 1566.19 703.847 Q1565.41 705.745 1563.3 708.338 Q1562.72 709.009 1559.62 712.226 Q1556.52 715.421 1550.87 721.185 Z" fill="#000000" fill-rule="nonzero" fill-opacity="1"></path><path clip-path="url(#clip710)" d="M1575.82 690.56 L1598.04 690.56 L1598.04 692.551 L1585.5 725.12 L1580.61 725.12 L1592.42 694.495 L1575.82 694.495 L1575.82 690.56 Z" fill="#000000" fill-rule="nonzero" fill-opacity="1"></path><path clip-path="url(#clip710)" d="M1617.74 705.976 Q1614.6 705.976 1612.74 708.129 Q1610.91 710.282 1610.91 714.032 Q1610.91 717.759 1612.74 719.935 Q1614.6 722.087 1617.74 722.087 Q1620.89 722.087 1622.72 719.935 Q1624.57 717.759 1624.57 714.032 Q1624.57 710.282 1622.72 708.129 Q1620.89 705.976 1617.74 705.976 M1627.03 691.324 L1627.03 695.583 Q1625.27 694.75 1623.46 694.31 Q1621.68 693.87 1619.92 693.87 Q1615.29 693.87 1612.84 696.995 Q1610.41 700.12 1610.06 706.439 Q1611.42 704.426 1613.48 703.361 Q1615.54 702.273 1618.02 702.273 Q1623.23 702.273 1626.24 705.444 Q1629.27 708.592 1629.27 714.032 Q1629.27 719.356 1626.12 722.574 Q1622.97 725.791 1617.74 725.791 Q1611.75 725.791 1608.58 721.208 Q1605.41 716.601 1605.41 707.875 Q1605.41 699.68 1609.29 694.819 Q1613.18 689.935 1619.73 689.935 Q1621.49 689.935 1623.28 690.282 Q1625.08 690.629 1627.03 691.324 Z" fill="#000000" fill-rule="nonzero" fill-opacity="1"></path><path clip-path="url(#clip710)" d="M1647.33 708.708 Q1643.99 708.708 1642.07 710.49 Q1640.17 712.273 1640.17 715.398 Q1640.17 718.523 1642.07 720.305 Q1643.99 722.087 1647.33 722.087 Q1650.66 722.087 1652.58 720.305 Q1654.5 718.5 1654.5 715.398 Q1654.5 712.273 1652.58 710.49 Q1650.68 708.708 1647.33 708.708 M1642.65 706.717 Q1639.64 705.976 1637.95 703.916 Q1636.28 701.856 1636.28 698.893 Q1636.28 694.75 1639.22 692.342 Q1642.19 689.935 1647.33 689.935 Q1652.49 689.935 1655.43 692.342 Q1658.37 694.75 1658.37 698.893 Q1658.37 701.856 1656.68 703.916 Q1655.01 705.976 1652.03 706.717 Q1655.41 707.504 1657.28 709.796 Q1659.18 712.088 1659.18 715.398 Q1659.18 720.421 1656.1 723.106 Q1653.04 725.791 1647.33 725.791 Q1641.61 725.791 1638.53 723.106 Q1635.47 720.421 1635.47 715.398 Q1635.47 712.088 1637.37 709.796 Q1639.27 707.504 1642.65 706.717 M1640.94 699.333 Q1640.94 702.018 1642.6 703.523 Q1644.29 705.027 1647.33 705.027 Q1650.34 705.027 1652.03 703.523 Q1653.74 702.018 1653.74 699.333 Q1653.74 696.648 1652.03 695.143 Q1650.34 693.639 1647.33 693.639 Q1644.29 693.639 1642.6 695.143 Q1640.94 696.648 1640.94 699.333 Z" fill="#000000" fill-rule="nonzero" fill-opacity="1"></path><polyline clip-path="url(#clip710)" style="stroke:#000000; stroke-linecap:round; stroke-linejoin:round; stroke-width:4; stroke-opacity:1; fill:none" points="210.922,667.52 210.922,101.296 "></polyline>
<polyline clip-path="url(#clip710)" style="stroke:#000000; stroke-linecap:round; stroke-linejoin:round; stroke-width:4; stroke-opacity:1; fill:none" points="210.922,667.52 229.82,667.52 "></polyline>
<polyline clip-path="url(#clip710)" style="stroke:#000000; stroke-linecap:round; stroke-linejoin:round; stroke-width:4; stroke-opacity:1; fill:none" points="210.922,578.293 229.82,578.293 "></polyline>
<polyline clip-path="url(#clip710)" style="stroke:#000000; stroke-linecap:round; stroke-linejoin:round; stroke-width:4; stroke-opacity:1; fill:none" points="210.922,489.066 229.82,489.066 "></polyline>
<polyline clip-path="url(#clip710)" style="stroke:#000000; stroke-linecap:round; stroke-linejoin:round; stroke-width:4; stroke-opacity:1; fill:none" points="210.922,399.84 229.82,399.84 "></polyline>
<polyline clip-path="url(#clip710)" style="stroke:#000000; stroke-linecap:round; stroke-linejoin:round; stroke-width:4; stroke-opacity:1; fill:none" points="210.922,310.613 229.82,310.613 "></polyline>
<polyline clip-path="url(#clip710)" style="stroke:#000000; stroke-linecap:round; stroke-linejoin:round; stroke-width:4; stroke-opacity:1; fill:none" points="210.922,221.386 229.82,221.386 "></polyline>
<polyline clip-path="url(#clip710)" style="stroke:#000000; stroke-linecap:round; stroke-linejoin:round; stroke-width:4; stroke-opacity:1; fill:none" points="210.922,132.159 229.82,132.159 "></polyline>
<path clip-path="url(#clip710)" d="M66.4226 653.319 Q62.8115 653.319 60.9828 656.883 Q59.1773 660.425 59.1773 667.555 Q59.1773 674.661 60.9828 678.226 Q62.8115 681.767 66.4226 681.767 Q70.0569 681.767 71.8624 678.226 Q73.6911 674.661 73.6911 667.555 Q73.6911 660.425 71.8624 656.883 Q70.0569 653.319 66.4226 653.319 M66.4226 649.615 Q72.2328 649.615 75.2883 654.221 Q78.367 658.805 78.367 667.555 Q78.367 676.281 75.2883 680.888 Q72.2328 685.471 66.4226 685.471 Q60.6125 685.471 57.5338 680.888 Q54.4782 676.281 54.4782 667.555 Q54.4782 658.805 57.5338 654.221 Q60.6125 649.615 66.4226 649.615 Z" fill="#000000" fill-rule="nonzero" fill-opacity="1"></path><path clip-path="url(#clip710)" d="M86.5845 678.92 L91.4688 678.92 L91.4688 684.8 L86.5845 684.8 L86.5845 678.92 Z" fill="#000000" fill-rule="nonzero" fill-opacity="1"></path><path clip-path="url(#clip710)" d="M111.654 653.319 Q108.043 653.319 106.214 656.883 Q104.409 660.425 104.409 667.555 Q104.409 674.661 106.214 678.226 Q108.043 681.767 111.654 681.767 Q115.288 681.767 117.094 678.226 Q118.922 674.661 118.922 667.555 Q118.922 660.425 117.094 656.883 Q115.288 653.319 111.654 653.319 M111.654 649.615 Q117.464 649.615 120.52 654.221 Q123.598 658.805 123.598 667.555 Q123.598 676.281 120.52 680.888 Q117.464 685.471 111.654 685.471 Q105.844 685.471 102.765 680.888 Q99.7095 676.281 99.7095 667.555 Q99.7095 658.805 102.765 654.221 Q105.844 649.615 111.654 649.615 Z" fill="#000000" fill-rule="nonzero" fill-opacity="1"></path><path clip-path="url(#clip710)" d="M141.816 653.319 Q138.205 653.319 136.376 656.883 Q134.57 660.425 134.57 667.555 Q134.57 674.661 136.376 678.226 Q138.205 681.767 141.816 681.767 Q145.45 681.767 147.256 678.226 Q149.084 674.661 149.084 667.555 Q149.084 660.425 147.256 656.883 Q145.45 653.319 141.816 653.319 M141.816 649.615 Q147.626 649.615 150.681 654.221 Q153.76 658.805 153.76 667.555 Q153.76 676.281 150.681 680.888 Q147.626 685.471 141.816 685.471 Q136.006 685.471 132.927 680.888 Q129.871 676.281 129.871 667.555 Q129.871 658.805 132.927 654.221 Q136.006 649.615 141.816 649.615 Z" fill="#000000" fill-rule="nonzero" fill-opacity="1"></path><path clip-path="url(#clip710)" d="M171.978 653.319 Q168.367 653.319 166.538 656.883 Q164.732 660.425 164.732 667.555 Q164.732 674.661 166.538 678.226 Q168.367 681.767 171.978 681.767 Q175.612 681.767 177.417 678.226 Q179.246 674.661 179.246 667.555 Q179.246 660.425 177.417 656.883 Q175.612 653.319 171.978 653.319 M171.978 649.615 Q177.788 649.615 180.843 654.221 Q183.922 658.805 183.922 667.555 Q183.922 676.281 180.843 680.888 Q177.788 685.471 171.978 685.471 Q166.167 685.471 163.089 680.888 Q160.033 676.281 160.033 667.555 Q160.033 658.805 163.089 654.221 Q166.167 649.615 171.978 649.615 Z" fill="#000000" fill-rule="nonzero" fill-opacity="1"></path><path clip-path="url(#clip710)" d="M68.0198 564.092 Q64.4087 564.092 62.58 567.657 Q60.7745 571.198 60.7745 578.328 Q60.7745 585.434 62.58 588.999 Q64.4087 592.541 68.0198 592.541 Q71.6541 592.541 73.4596 588.999 Q75.2883 585.434 75.2883 578.328 Q75.2883 571.198 73.4596 567.657 Q71.6541 564.092 68.0198 564.092 M68.0198 560.388 Q73.83 560.388 76.8855 564.995 Q79.9642 569.578 79.9642 578.328 Q79.9642 587.055 76.8855 591.661 Q73.83 596.244 68.0198 596.244 Q62.2097 596.244 59.131 591.661 Q56.0754 587.055 56.0754 578.328 Q56.0754 569.578 59.131 564.995 Q62.2097 560.388 68.0198 560.388 Z" fill="#000000" fill-rule="nonzero" fill-opacity="1"></path><path clip-path="url(#clip710)" d="M88.1818 589.694 L93.066 589.694 L93.066 595.573 L88.1818 595.573 L88.1818 589.694 Z" fill="#000000" fill-rule="nonzero" fill-opacity="1"></path><path clip-path="url(#clip710)" d="M113.251 564.092 Q109.64 564.092 107.811 567.657 Q106.006 571.198 106.006 578.328 Q106.006 585.434 107.811 588.999 Q109.64 592.541 113.251 592.541 Q116.885 592.541 118.691 588.999 Q120.52 585.434 120.52 578.328 Q120.52 571.198 118.691 567.657 Q116.885 564.092 113.251 564.092 M113.251 560.388 Q119.061 560.388 122.117 564.995 Q125.195 569.578 125.195 578.328 Q125.195 587.055 122.117 591.661 Q119.061 596.244 113.251 596.244 Q107.441 596.244 104.362 591.661 Q101.307 587.055 101.307 578.328 Q101.307 569.578 104.362 564.995 Q107.441 560.388 113.251 560.388 Z" fill="#000000" fill-rule="nonzero" fill-opacity="1"></path><path clip-path="url(#clip710)" d="M143.413 564.092 Q139.802 564.092 137.973 567.657 Q136.168 571.198 136.168 578.328 Q136.168 585.434 137.973 588.999 Q139.802 592.541 143.413 592.541 Q147.047 592.541 148.853 588.999 Q150.681 585.434 150.681 578.328 Q150.681 571.198 148.853 567.657 Q147.047 564.092 143.413 564.092 M143.413 560.388 Q149.223 560.388 152.279 564.995 Q155.357 569.578 155.357 578.328 Q155.357 587.055 152.279 591.661 Q149.223 596.244 143.413 596.244 Q137.603 596.244 134.524 591.661 Q131.469 587.055 131.469 578.328 Q131.469 569.578 134.524 564.995 Q137.603 560.388 143.413 560.388 Z" fill="#000000" fill-rule="nonzero" fill-opacity="1"></path><path clip-path="url(#clip710)" d="M167.603 591.638 L183.922 591.638 L183.922 595.573 L161.978 595.573 L161.978 591.638 Q164.64 588.883 169.223 584.254 Q173.829 579.601 175.01 578.258 Q177.255 575.735 178.135 573.999 Q179.038 572.24 179.038 570.55 Q179.038 567.795 177.093 566.059 Q175.172 564.323 172.07 564.323 Q169.871 564.323 167.417 565.087 Q164.987 565.851 162.209 567.402 L162.209 562.68 Q165.033 561.546 167.487 560.967 Q169.941 560.388 171.978 560.388 Q177.348 560.388 180.542 563.073 Q183.737 565.758 183.737 570.249 Q183.737 572.379 182.927 574.3 Q182.14 576.198 180.033 578.791 Q179.454 579.462 176.353 582.68 Q173.251 585.874 167.603 591.638 Z" fill="#000000" fill-rule="nonzero" fill-opacity="1"></path><path clip-path="url(#clip710)" d="M65.9365 474.865 Q62.3254 474.865 60.4967 478.43 Q58.6912 481.972 58.6912 489.101 Q58.6912 496.208 60.4967 499.772 Q62.3254 503.314 65.9365 503.314 Q69.5707 503.314 71.3763 499.772 Q73.205 496.208 73.205 489.101 Q73.205 481.972 71.3763 478.43 Q69.5707 474.865 65.9365 474.865 M65.9365 471.161 Q71.7467 471.161 74.8022 475.768 Q77.8809 480.351 77.8809 489.101 Q77.8809 497.828 74.8022 502.434 Q71.7467 507.018 65.9365 507.018 Q60.1264 507.018 57.0477 502.434 Q53.9921 497.828 53.9921 489.101 Q53.9921 480.351 57.0477 475.768 Q60.1264 471.161 65.9365 471.161 Z" fill="#000000" fill-rule="nonzero" fill-opacity="1"></path><path clip-path="url(#clip710)" d="M86.0984 500.467 L90.9827 500.467 L90.9827 506.346 L86.0984 506.346 L86.0984 500.467 Z" fill="#000000" fill-rule="nonzero" fill-opacity="1"></path><path clip-path="url(#clip710)" d="M111.168 474.865 Q107.557 474.865 105.728 478.43 Q103.922 481.972 103.922 489.101 Q103.922 496.208 105.728 499.772 Q107.557 503.314 111.168 503.314 Q114.802 503.314 116.608 499.772 Q118.436 496.208 118.436 489.101 Q118.436 481.972 116.608 478.43 Q114.802 474.865 111.168 474.865 M111.168 471.161 Q116.978 471.161 120.033 475.768 Q123.112 480.351 123.112 489.101 Q123.112 497.828 120.033 502.434 Q116.978 507.018 111.168 507.018 Q105.358 507.018 102.279 502.434 Q99.2234 497.828 99.2234 489.101 Q99.2234 480.351 102.279 475.768 Q105.358 471.161 111.168 471.161 Z" fill="#000000" fill-rule="nonzero" fill-opacity="1"></path><path clip-path="url(#clip710)" d="M141.33 474.865 Q137.719 474.865 135.89 478.43 Q134.084 481.972 134.084 489.101 Q134.084 496.208 135.89 499.772 Q137.719 503.314 141.33 503.314 Q144.964 503.314 146.769 499.772 Q148.598 496.208 148.598 489.101 Q148.598 481.972 146.769 478.43 Q144.964 474.865 141.33 474.865 M141.33 471.161 Q147.14 471.161 150.195 475.768 Q153.274 480.351 153.274 489.101 Q153.274 497.828 150.195 502.434 Q147.14 507.018 141.33 507.018 Q135.519 507.018 132.441 502.434 Q129.385 497.828 129.385 489.101 Q129.385 480.351 132.441 475.768 Q135.519 471.161 141.33 471.161 Z" fill="#000000" fill-rule="nonzero" fill-opacity="1"></path><path clip-path="url(#clip710)" d="M174.339 475.86 L162.533 494.309 L174.339 494.309 L174.339 475.86 M173.112 471.786 L178.991 471.786 L178.991 494.309 L183.922 494.309 L183.922 498.198 L178.991 498.198 L178.991 506.346 L174.339 506.346 L174.339 498.198 L158.737 498.198 L158.737 493.684 L173.112 471.786 Z" fill="#000000" fill-rule="nonzero" fill-opacity="1"></path><path clip-path="url(#clip710)" d="M66.2606 385.638 Q62.6495 385.638 60.8208 389.203 Q59.0152 392.745 59.0152 399.874 Q59.0152 406.981 60.8208 410.546 Q62.6495 414.087 66.2606 414.087 Q69.8948 414.087 71.7004 410.546 Q73.5291 406.981 73.5291 399.874 Q73.5291 392.745 71.7004 389.203 Q69.8948 385.638 66.2606 385.638 M66.2606 381.935 Q72.0707 381.935 75.1263 386.541 Q78.205 391.124 78.205 399.874 Q78.205 408.601 75.1263 413.208 Q72.0707 417.791 66.2606 417.791 Q60.4504 417.791 57.3717 413.208 Q54.3162 408.601 54.3162 399.874 Q54.3162 391.124 57.3717 386.541 Q60.4504 381.935 66.2606 381.935 Z" fill="#000000" fill-rule="nonzero" fill-opacity="1"></path><path clip-path="url(#clip710)" d="M86.4225 411.24 L91.3067 411.24 L91.3067 417.12 L86.4225 417.12 L86.4225 411.24 Z" fill="#000000" fill-rule="nonzero" fill-opacity="1"></path><path clip-path="url(#clip710)" d="M111.492 385.638 Q107.881 385.638 106.052 389.203 Q104.246 392.745 104.246 399.874 Q104.246 406.981 106.052 410.546 Q107.881 414.087 111.492 414.087 Q115.126 414.087 116.932 410.546 Q118.76 406.981 118.76 399.874 Q118.76 392.745 116.932 389.203 Q115.126 385.638 111.492 385.638 M111.492 381.935 Q117.302 381.935 120.358 386.541 Q123.436 391.124 123.436 399.874 Q123.436 408.601 120.358 413.208 Q117.302 417.791 111.492 417.791 Q105.682 417.791 102.603 413.208 Q99.5474 408.601 99.5474 399.874 Q99.5474 391.124 102.603 386.541 Q105.682 381.935 111.492 381.935 Z" fill="#000000" fill-rule="nonzero" fill-opacity="1"></path><path clip-path="url(#clip710)" d="M141.654 385.638 Q138.043 385.638 136.214 389.203 Q134.408 392.745 134.408 399.874 Q134.408 406.981 136.214 410.546 Q138.043 414.087 141.654 414.087 Q145.288 414.087 147.093 410.546 Q148.922 406.981 148.922 399.874 Q148.922 392.745 147.093 389.203 Q145.288 385.638 141.654 385.638 M141.654 381.935 Q147.464 381.935 150.519 386.541 Q153.598 391.124 153.598 399.874 Q153.598 408.601 150.519 413.208 Q147.464 417.791 141.654 417.791 Q135.844 417.791 132.765 413.208 Q129.709 408.601 129.709 399.874 Q129.709 391.124 132.765 386.541 Q135.844 381.935 141.654 381.935 Z" fill="#000000" fill-rule="nonzero" fill-opacity="1"></path><path clip-path="url(#clip710)" d="M172.394 397.976 Q169.246 397.976 167.394 400.129 Q165.566 402.282 165.566 406.032 Q165.566 409.759 167.394 411.934 Q169.246 414.087 172.394 414.087 Q175.542 414.087 177.371 411.934 Q179.223 409.759 179.223 406.032 Q179.223 402.282 177.371 400.129 Q175.542 397.976 172.394 397.976 M181.677 383.324 L181.677 387.583 Q179.917 386.749 178.112 386.31 Q176.329 385.87 174.57 385.87 Q169.941 385.87 167.487 388.995 Q165.056 392.12 164.709 398.439 Q166.075 396.425 168.135 395.36 Q170.195 394.273 172.672 394.273 Q177.88 394.273 180.89 397.444 Q183.922 400.592 183.922 406.032 Q183.922 411.356 180.774 414.573 Q177.626 417.791 172.394 417.791 Q166.399 417.791 163.228 413.208 Q160.056 408.601 160.056 399.874 Q160.056 391.68 163.945 386.819 Q167.834 381.935 174.385 381.935 Q176.144 381.935 177.927 382.282 Q179.732 382.629 181.677 383.324 Z" fill="#000000" fill-rule="nonzero" fill-opacity="1"></path><path clip-path="url(#clip710)" d="M66.5152 296.412 Q62.9041 296.412 61.0754 299.976 Q59.2699 303.518 59.2699 310.648 Q59.2699 317.754 61.0754 321.319 Q62.9041 324.86 66.5152 324.86 Q70.1494 324.86 71.955 321.319 Q73.7837 317.754 73.7837 310.648 Q73.7837 303.518 71.955 299.976 Q70.1494 296.412 66.5152 296.412 M66.5152 292.708 Q72.3254 292.708 75.3809 297.314 Q78.4596 301.898 78.4596 310.648 Q78.4596 319.374 75.3809 323.981 Q72.3254 328.564 66.5152 328.564 Q60.7051 328.564 57.6264 323.981 Q54.5708 319.374 54.5708 310.648 Q54.5708 301.898 57.6264 297.314 Q60.7051 292.708 66.5152 292.708 Z" fill="#000000" fill-rule="nonzero" fill-opacity="1"></path><path clip-path="url(#clip710)" d="M86.6771 322.013 L91.5614 322.013 L91.5614 327.893 L86.6771 327.893 L86.6771 322.013 Z" fill="#000000" fill-rule="nonzero" fill-opacity="1"></path><path clip-path="url(#clip710)" d="M111.746 296.412 Q108.135 296.412 106.307 299.976 Q104.501 303.518 104.501 310.648 Q104.501 317.754 106.307 321.319 Q108.135 324.86 111.746 324.86 Q115.381 324.86 117.186 321.319 Q119.015 317.754 119.015 310.648 Q119.015 303.518 117.186 299.976 Q115.381 296.412 111.746 296.412 M111.746 292.708 Q117.557 292.708 120.612 297.314 Q123.691 301.898 123.691 310.648 Q123.691 319.374 120.612 323.981 Q117.557 328.564 111.746 328.564 Q105.936 328.564 102.858 323.981 Q99.8021 319.374 99.8021 310.648 Q99.8021 301.898 102.858 297.314 Q105.936 292.708 111.746 292.708 Z" fill="#000000" fill-rule="nonzero" fill-opacity="1"></path><path clip-path="url(#clip710)" d="M141.908 296.412 Q138.297 296.412 136.469 299.976 Q134.663 303.518 134.663 310.648 Q134.663 317.754 136.469 321.319 Q138.297 324.86 141.908 324.86 Q145.543 324.86 147.348 321.319 Q149.177 317.754 149.177 310.648 Q149.177 303.518 147.348 299.976 Q145.543 296.412 141.908 296.412 M141.908 292.708 Q147.718 292.708 150.774 297.314 Q153.853 301.898 153.853 310.648 Q153.853 319.374 150.774 323.981 Q147.718 328.564 141.908 328.564 Q136.098 328.564 133.019 323.981 Q129.964 319.374 129.964 310.648 Q129.964 301.898 133.019 297.314 Q136.098 292.708 141.908 292.708 Z" fill="#000000" fill-rule="nonzero" fill-opacity="1"></path><path clip-path="url(#clip710)" d="M172.07 311.481 Q168.737 311.481 166.816 313.263 Q164.917 315.046 164.917 318.171 Q164.917 321.296 166.816 323.078 Q168.737 324.86 172.07 324.86 Q175.404 324.86 177.325 323.078 Q179.246 321.273 179.246 318.171 Q179.246 315.046 177.325 313.263 Q175.427 311.481 172.07 311.481 M167.394 309.49 Q164.385 308.749 162.695 306.689 Q161.029 304.629 161.029 301.666 Q161.029 297.523 163.968 295.115 Q166.931 292.708 172.07 292.708 Q177.232 292.708 180.172 295.115 Q183.112 297.523 183.112 301.666 Q183.112 304.629 181.422 306.689 Q179.755 308.749 176.769 309.49 Q180.149 310.277 182.024 312.569 Q183.922 314.861 183.922 318.171 Q183.922 323.194 180.843 325.879 Q177.788 328.564 172.07 328.564 Q166.353 328.564 163.274 325.879 Q160.218 323.194 160.218 318.171 Q160.218 314.861 162.117 312.569 Q164.015 310.277 167.394 309.49 M165.681 302.106 Q165.681 304.791 167.348 306.296 Q169.038 307.8 172.07 307.8 Q175.079 307.8 176.769 306.296 Q178.482 304.791 178.482 302.106 Q178.482 299.421 176.769 297.916 Q175.079 296.412 172.07 296.412 Q169.038 296.412 167.348 297.916 Q165.681 299.421 165.681 302.106 Z" fill="#000000" fill-rule="nonzero" fill-opacity="1"></path><path clip-path="url(#clip710)" d="M66.4226 207.185 Q62.8115 207.185 60.9828 210.75 Q59.1773 214.291 59.1773 221.421 Q59.1773 228.527 60.9828 232.092 Q62.8115 235.634 66.4226 235.634 Q70.0569 235.634 71.8624 232.092 Q73.6911 228.527 73.6911 221.421 Q73.6911 214.291 71.8624 210.75 Q70.0569 207.185 66.4226 207.185 M66.4226 203.481 Q72.2328 203.481 75.2883 208.088 Q78.367 212.671 78.367 221.421 Q78.367 230.148 75.2883 234.754 Q72.2328 239.337 66.4226 239.337 Q60.6125 239.337 57.5338 234.754 Q54.4782 230.148 54.4782 221.421 Q54.4782 212.671 57.5338 208.088 Q60.6125 203.481 66.4226 203.481 Z" fill="#000000" fill-rule="nonzero" fill-opacity="1"></path><path clip-path="url(#clip710)" d="M86.5845 232.787 L91.4688 232.787 L91.4688 238.666 L86.5845 238.666 L86.5845 232.787 Z" fill="#000000" fill-rule="nonzero" fill-opacity="1"></path><path clip-path="url(#clip710)" d="M111.654 207.185 Q108.043 207.185 106.214 210.75 Q104.409 214.291 104.409 221.421 Q104.409 228.527 106.214 232.092 Q108.043 235.634 111.654 235.634 Q115.288 235.634 117.094 232.092 Q118.922 228.527 118.922 221.421 Q118.922 214.291 117.094 210.75 Q115.288 207.185 111.654 207.185 M111.654 203.481 Q117.464 203.481 120.52 208.088 Q123.598 212.671 123.598 221.421 Q123.598 230.148 120.52 234.754 Q117.464 239.337 111.654 239.337 Q105.844 239.337 102.765 234.754 Q99.7095 230.148 99.7095 221.421 Q99.7095 212.671 102.765 208.088 Q105.844 203.481 111.654 203.481 Z" fill="#000000" fill-rule="nonzero" fill-opacity="1"></path><path clip-path="url(#clip710)" d="M132.626 234.731 L140.265 234.731 L140.265 208.365 L131.955 210.032 L131.955 205.773 L140.219 204.106 L144.894 204.106 L144.894 234.731 L152.533 234.731 L152.533 238.666 L132.626 238.666 L132.626 234.731 Z" fill="#000000" fill-rule="nonzero" fill-opacity="1"></path><path clip-path="url(#clip710)" d="M171.978 207.185 Q168.367 207.185 166.538 210.75 Q164.732 214.291 164.732 221.421 Q164.732 228.527 166.538 232.092 Q168.367 235.634 171.978 235.634 Q175.612 235.634 177.417 232.092 Q179.246 228.527 179.246 221.421 Q179.246 214.291 177.417 210.75 Q175.612 207.185 171.978 207.185 M171.978 203.481 Q177.788 203.481 180.843 208.088 Q183.922 212.671 183.922 221.421 Q183.922 230.148 180.843 234.754 Q177.788 239.337 171.978 239.337 Q166.167 239.337 163.089 234.754 Q160.033 230.148 160.033 221.421 Q160.033 212.671 163.089 208.088 Q166.167 203.481 171.978 203.481 Z" fill="#000000" fill-rule="nonzero" fill-opacity="1"></path><path clip-path="url(#clip710)" d="M68.0198 117.958 Q64.4087 117.958 62.58 121.523 Q60.7745 125.064 60.7745 132.194 Q60.7745 139.301 62.58 142.865 Q64.4087 146.407 68.0198 146.407 Q71.6541 146.407 73.4596 142.865 Q75.2883 139.301 75.2883 132.194 Q75.2883 125.064 73.4596 121.523 Q71.6541 117.958 68.0198 117.958 M68.0198 114.254 Q73.83 114.254 76.8855 118.861 Q79.9642 123.444 79.9642 132.194 Q79.9642 140.921 76.8855 145.527 Q73.83 150.111 68.0198 150.111 Q62.2097 150.111 59.131 145.527 Q56.0754 140.921 56.0754 132.194 Q56.0754 123.444 59.131 118.861 Q62.2097 114.254 68.0198 114.254 Z" fill="#000000" fill-rule="nonzero" fill-opacity="1"></path><path clip-path="url(#clip710)" d="M88.1818 143.56 L93.066 143.56 L93.066 149.439 L88.1818 149.439 L88.1818 143.56 Z" fill="#000000" fill-rule="nonzero" fill-opacity="1"></path><path clip-path="url(#clip710)" d="M113.251 117.958 Q109.64 117.958 107.811 121.523 Q106.006 125.064 106.006 132.194 Q106.006 139.301 107.811 142.865 Q109.64 146.407 113.251 146.407 Q116.885 146.407 118.691 142.865 Q120.52 139.301 120.52 132.194 Q120.52 125.064 118.691 121.523 Q116.885 117.958 113.251 117.958 M113.251 114.254 Q119.061 114.254 122.117 118.861 Q125.195 123.444 125.195 132.194 Q125.195 140.921 122.117 145.527 Q119.061 150.111 113.251 150.111 Q107.441 150.111 104.362 145.527 Q101.307 140.921 101.307 132.194 Q101.307 123.444 104.362 118.861 Q107.441 114.254 113.251 114.254 Z" fill="#000000" fill-rule="nonzero" fill-opacity="1"></path><path clip-path="url(#clip710)" d="M134.223 145.504 L141.862 145.504 L141.862 119.139 L133.552 120.805 L133.552 116.546 L141.816 114.879 L146.492 114.879 L146.492 145.504 L154.13 145.504 L154.13 149.439 L134.223 149.439 L134.223 145.504 Z" fill="#000000" fill-rule="nonzero" fill-opacity="1"></path><path clip-path="url(#clip710)" d="M167.603 145.504 L183.922 145.504 L183.922 149.439 L161.978 149.439 L161.978 145.504 Q164.64 142.75 169.223 138.12 Q173.829 133.467 175.01 132.125 Q177.255 129.602 178.135 127.865 Q179.038 126.106 179.038 124.416 Q179.038 121.662 177.093 119.926 Q175.172 118.19 172.07 118.19 Q169.871 118.19 167.417 118.953 Q164.987 119.717 162.209 121.268 L162.209 116.546 Q165.033 115.412 167.487 114.833 Q169.941 114.254 171.978 114.254 Q177.348 114.254 180.542 116.94 Q183.737 119.625 183.737 124.115 Q183.737 126.245 182.927 128.166 Q182.14 130.064 180.033 132.657 Q179.454 133.328 176.353 136.546 Q173.251 139.74 167.603 145.504 Z" fill="#000000" fill-rule="nonzero" fill-opacity="1"></path><path clip-path="url(#clip710)" d="M854.458 14.0809 L854.458 22.0612 Q849.8 19.8332 845.668 18.7395 Q841.536 17.6457 837.688 17.6457 Q831.004 17.6457 827.358 20.2383 Q823.752 22.8309 823.752 27.611 Q823.752 31.6214 826.142 33.6873 Q828.573 35.7128 835.297 36.9686 L840.24 37.9813 Q849.395 39.7232 853.729 44.1387 Q858.104 48.5136 858.104 55.8863 Q858.104 64.6767 852.19 69.2137 Q846.316 73.7508 834.933 73.7508 Q830.639 73.7508 825.778 72.7785 Q820.957 71.8063 815.772 69.9024 L815.772 61.4765 Q820.755 64.2716 825.535 65.6895 Q830.315 67.1073 834.933 67.1073 Q841.941 67.1073 845.749 64.3527 Q849.557 61.598 849.557 56.4939 Q849.557 52.0379 846.802 49.5264 Q844.088 47.0148 837.85 45.759 L832.867 44.7868 Q823.712 42.9639 819.62 39.075 Q815.529 35.1862 815.529 28.2591 Q815.529 20.2383 821.16 15.6203 Q826.831 11.0023 836.756 11.0023 Q841.009 11.0023 845.425 11.7719 Q849.84 12.5416 854.458 14.0809 Z" fill="#000000" fill-rule="nonzero" fill-opacity="1"></path><path clip-path="url(#clip710)" d="M897.884 34.9026 L949.817 34.9026 L949.817 41.7081 L897.884 41.7081 L897.884 34.9026 M897.884 51.4303 L949.817 51.4303 L949.817 58.3168 L897.884 58.3168 L897.884 51.4303 Z" fill="#000000" fill-rule="nonzero" fill-opacity="1"></path><path clip-path="url(#clip710)" d="M992.108 9.54393 L1009.28 9.54393 L1009.28 15.3367 L999.562 15.3367 L999.562 77.7206 L1009.28 77.7206 L1009.28 83.5134 L992.108 83.5134 L992.108 9.54393 Z" fill="#000000" fill-rule="nonzero" fill-opacity="1"></path><path clip-path="url(#clip710)" d="M1033.27 65.6895 L1061.82 65.6895 L1061.82 72.576 L1023.42 72.576 L1023.42 65.6895 Q1028.08 60.8689 1036.1 52.7671 Q1044.16 44.6248 1046.23 42.2752 Q1050.16 37.8598 1051.7 34.8216 Q1053.28 31.7429 1053.28 28.7857 Q1053.28 23.9651 1049.87 20.927 Q1046.51 17.8888 1041.08 17.8888 Q1037.24 17.8888 1032.94 19.2256 Q1028.69 20.5624 1023.83 23.2765 L1023.83 15.0127 Q1028.77 13.0277 1033.06 12.015 Q1037.36 11.0023 1040.92 11.0023 Q1050.32 11.0023 1055.91 15.7013 Q1061.5 20.4004 1061.5 28.2591 Q1061.5 31.9859 1060.08 35.3482 Q1058.7 38.6699 1055.02 43.2069 Q1054.01 44.3817 1048.58 50.0125 Q1043.15 55.6027 1033.27 65.6895 Z" fill="#000000" fill-rule="nonzero" fill-opacity="1"></path><path clip-path="url(#clip710)" d="M1096.5 17.4837 Q1090.18 17.4837 1086.98 23.7221 Q1083.82 29.92 1083.82 42.3968 Q1083.82 54.833 1086.98 61.0714 Q1090.18 67.2693 1096.5 67.2693 Q1102.86 67.2693 1106.02 61.0714 Q1109.22 54.833 1109.22 42.3968 Q1109.22 29.92 1106.02 23.7221 Q1102.86 17.4837 1096.5 17.4837 M1096.5 11.0023 Q1106.67 11.0023 1112.01 19.0636 Q1117.4 27.0843 1117.4 42.3968 Q1117.4 57.6687 1112.01 65.73 Q1106.67 73.7508 1096.5 73.7508 Q1086.33 73.7508 1080.94 65.73 Q1075.6 57.6687 1075.6 42.3968 Q1075.6 27.0843 1080.94 19.0636 Q1086.33 11.0023 1096.5 11.0023 Z" fill="#000000" fill-rule="nonzero" fill-opacity="1"></path><path clip-path="url(#clip710)" d="M1148.15 9.54393 L1148.15 83.5134 L1130.97 83.5134 L1130.97 77.7206 L1140.65 77.7206 L1140.65 15.3367 L1130.97 15.3367 L1130.97 9.54393 L1148.15 9.54393 Z" fill="#000000" fill-rule="nonzero" fill-opacity="1"></path><path clip-path="url(#clip712)" d="M291.728 368.149 L291.728 667.52 L319.978 667.52 L319.978 368.149 L291.728 368.149 L291.728 368.149  Z" fill="#009af9" fill-rule="evenodd" fill-opacity="1"></path>
<polyline clip-path="url(#clip712)" style="stroke:#000000; stroke-linecap:round; stroke-linejoin:round; stroke-width:4; stroke-opacity:1; fill:none" points="291.728,368.149 291.728,667.52 319.978,667.52 319.978,368.149 291.728,368.149 "></polyline>
<path clip-path="url(#clip712)" d="M533.872 448.163 L533.872 667.52 L562.122 667.52 L562.122 448.163 L533.872 448.163 L533.872 448.163  Z" fill="#009af9" fill-rule="evenodd" fill-opacity="1"></path>
<polyline clip-path="url(#clip712)" style="stroke:#000000; stroke-linecap:round; stroke-linejoin:round; stroke-width:4; stroke-opacity:1; fill:none" points="533.872,448.163 533.872,667.52 562.122,667.52 562.122,448.163 533.872,448.163 "></polyline>
<path clip-path="url(#clip712)" d="M776.016 624.109 L776.016 667.52 L804.267 667.52 L804.267 624.109 L776.016 624.109 L776.016 624.109  Z" fill="#009af9" fill-rule="evenodd" fill-opacity="1"></path>
<polyline clip-path="url(#clip712)" style="stroke:#000000; stroke-linecap:round; stroke-linejoin:round; stroke-width:4; stroke-opacity:1; fill:none" points="776.016,624.109 776.016,667.52 804.267,667.52 804.267,624.109 776.016,624.109 "></polyline>
<path clip-path="url(#clip712)" d="M1018.16 557.736 L1018.16 667.52 L1046.41 667.52 L1046.41 557.736 L1018.16 557.736 L1018.16 557.736  Z" fill="#009af9" fill-rule="evenodd" fill-opacity="1"></path>
<polyline clip-path="url(#clip712)" style="stroke:#000000; stroke-linecap:round; stroke-linejoin:round; stroke-width:4; stroke-opacity:1; fill:none" points="1018.16,557.736 1018.16,667.52 1046.41,667.52 1046.41,557.736 1018.16,557.736 "></polyline>
<path clip-path="url(#clip712)" d="M1260.3 648.302 L1260.3 667.52 L1288.55 667.52 L1288.55 648.302 L1260.3 648.302 L1260.3 648.302  Z" fill="#009af9" fill-rule="evenodd" fill-opacity="1"></path>
<polyline clip-path="url(#clip712)" style="stroke:#000000; stroke-linecap:round; stroke-linejoin:round; stroke-width:4; stroke-opacity:1; fill:none" points="1260.3,648.302 1260.3,667.52 1288.55,667.52 1288.55,648.302 1260.3,648.302 "></polyline>
<path clip-path="url(#clip712)" d="M1502.45 649.977 L1502.45 667.52 L1530.7 667.52 L1530.7 649.977 L1502.45 649.977 L1502.45 649.977  Z" fill="#009af9" fill-rule="evenodd" fill-opacity="1"></path>
<polyline clip-path="url(#clip712)" style="stroke:#000000; stroke-linecap:round; stroke-linejoin:round; stroke-width:4; stroke-opacity:1; fill:none" points="1502.45,649.977 1502.45,667.52 1530.7,667.52 1530.7,649.977 1502.45,649.977 "></polyline>
<circle clip-path="url(#clip712)" style="fill:#009af9; stroke:none; fill-opacity:0" cx="305.853" cy="368.149" r="2"></circle>
<circle clip-path="url(#clip712)" style="fill:#009af9; stroke:none; fill-opacity:0" cx="547.997" cy="448.163" r="2"></circle>
<circle clip-path="url(#clip712)" style="fill:#009af9; stroke:none; fill-opacity:0" cx="790.141" cy="624.109" r="2"></circle>
<circle clip-path="url(#clip712)" style="fill:#009af9; stroke:none; fill-opacity:0" cx="1032.29" cy="557.736" r="2"></circle>
<circle clip-path="url(#clip712)" style="fill:#009af9; stroke:none; fill-opacity:0" cx="1274.43" cy="648.302" r="2"></circle>
<circle clip-path="url(#clip712)" style="fill:#009af9; stroke:none; fill-opacity:0" cx="1516.57" cy="649.977" r="2"></circle>
<path clip-path="url(#clip712)" d="M319.978 550.589 L319.978 667.52 L348.228 667.52 L348.228 550.589 L319.978 550.589 L319.978 550.589  Z" fill="#e26f46" fill-rule="evenodd" fill-opacity="1"></path>
<polyline clip-path="url(#clip712)" style="stroke:#000000; stroke-linecap:round; stroke-linejoin:round; stroke-width:4; stroke-opacity:1; fill:none" points="319.978,550.589 319.978,667.52 348.228,667.52 348.228,550.589 319.978,550.589 "></polyline>
<path clip-path="url(#clip712)" d="M562.122 608.819 L562.122 667.52 L590.372 667.52 L590.372 608.819 L562.122 608.819 L562.122 608.819  Z" fill="#e26f46" fill-rule="evenodd" fill-opacity="1"></path>
<polyline clip-path="url(#clip712)" style="stroke:#000000; stroke-linecap:round; stroke-linejoin:round; stroke-width:4; stroke-opacity:1; fill:none" points="562.122,608.819 562.122,667.52 590.372,667.52 590.372,608.819 562.122,608.819 "></polyline>
<path clip-path="url(#clip712)" d="M804.267 663.278 L804.267 667.52 L832.517 667.52 L832.517 663.278 L804.267 663.278 L804.267 663.278  Z" fill="#e26f46" fill-rule="evenodd" fill-opacity="1"></path>
<polyline clip-path="url(#clip712)" style="stroke:#000000; stroke-linecap:round; stroke-linejoin:round; stroke-width:4; stroke-opacity:1; fill:none" points="804.267,663.278 804.267,667.52 832.517,667.52 832.517,663.278 804.267,663.278 "></polyline>
<path clip-path="url(#clip712)" d="M1046.41 610.18 L1046.41 667.52 L1074.66 667.52 L1074.66 610.18 L1046.41 610.18 L1046.41 610.18  Z" fill="#e26f46" fill-rule="evenodd" fill-opacity="1"></path>
<polyline clip-path="url(#clip712)" style="stroke:#000000; stroke-linecap:round; stroke-linejoin:round; stroke-width:4; stroke-opacity:1; fill:none" points="1046.41,610.18 1046.41,667.52 1074.66,667.52 1074.66,610.18 1046.41,610.18 "></polyline>
<path clip-path="url(#clip712)" d="M1288.55 646.233 L1288.55 667.52 L1316.81 667.52 L1316.81 646.233 L1288.55 646.233 L1288.55 646.233  Z" fill="#e26f46" fill-rule="evenodd" fill-opacity="1"></path>
<polyline clip-path="url(#clip712)" style="stroke:#000000; stroke-linecap:round; stroke-linejoin:round; stroke-width:4; stroke-opacity:1; fill:none" points="1288.55,646.233 1288.55,667.52 1316.81,667.52 1316.81,646.233 1288.55,646.233 "></polyline>
<path clip-path="url(#clip712)" d="M1530.7 646.318 L1530.7 667.52 L1558.95 667.52 L1558.95 646.318 L1530.7 646.318 L1530.7 646.318  Z" fill="#e26f46" fill-rule="evenodd" fill-opacity="1"></path>
<polyline clip-path="url(#clip712)" style="stroke:#000000; stroke-linecap:round; stroke-linejoin:round; stroke-width:4; stroke-opacity:1; fill:none" points="1530.7,646.318 1530.7,667.52 1558.95,667.52 1558.95,646.318 1530.7,646.318 "></polyline>
<circle clip-path="url(#clip712)" style="fill:#e26f46; stroke:none; fill-opacity:0" cx="334.103" cy="550.589" r="2"></circle>
<circle clip-path="url(#clip712)" style="fill:#e26f46; stroke:none; fill-opacity:0" cx="576.247" cy="608.819" r="2"></circle>
<circle clip-path="url(#clip712)" style="fill:#e26f46; stroke:none; fill-opacity:0" cx="818.392" cy="663.278" r="2"></circle>
<circle clip-path="url(#clip712)" style="fill:#e26f46; stroke:none; fill-opacity:0" cx="1060.54" cy="610.18" r="2"></circle>
<circle clip-path="url(#clip712)" style="fill:#e26f46; stroke:none; fill-opacity:0" cx="1302.68" cy="646.233" r="2"></circle>
<circle clip-path="url(#clip712)" style="fill:#e26f46; stroke:none; fill-opacity:0" cx="1544.82" cy="646.318" r="2"></circle>
<path clip-path="url(#clip712)" d="M348.228 425.017 L348.228 667.52 L376.478 667.52 L376.478 425.017 L348.228 425.017 L348.228 425.017  Z" fill="#3da44d" fill-rule="evenodd" fill-opacity="1"></path>
<polyline clip-path="url(#clip712)" style="stroke:#000000; stroke-linecap:round; stroke-linejoin:round; stroke-width:4; stroke-opacity:1; fill:none" points="348.228,425.017 348.228,667.52 376.478,667.52 376.478,425.017 348.228,425.017 "></polyline>
<path clip-path="url(#clip712)" d="M590.372 654.062 L590.372 667.52 L618.623 667.52 L618.623 654.062 L590.372 654.062 L590.372 654.062  Z" fill="#3da44d" fill-rule="evenodd" fill-opacity="1"></path>
<polyline clip-path="url(#clip712)" style="stroke:#000000; stroke-linecap:round; stroke-linejoin:round; stroke-width:4; stroke-opacity:1; fill:none" points="590.372,654.062 590.372,667.52 618.623,667.52 618.623,654.062 590.372,654.062 "></polyline>
<path clip-path="url(#clip712)" d="M832.517 454.603 L832.517 667.52 L860.767 667.52 L860.767 454.603 L832.517 454.603 L832.517 454.603  Z" fill="#3da44d" fill-rule="evenodd" fill-opacity="1"></path>
<polyline clip-path="url(#clip712)" style="stroke:#000000; stroke-linecap:round; stroke-linejoin:round; stroke-width:4; stroke-opacity:1; fill:none" points="832.517,454.603 832.517,667.52 860.767,667.52 860.767,454.603 832.517,454.603 "></polyline>
<path clip-path="url(#clip712)" d="M1074.66 591.8 L1074.66 667.52 L1102.91 667.52 L1102.91 591.8 L1074.66 591.8 L1074.66 591.8  Z" fill="#3da44d" fill-rule="evenodd" fill-opacity="1"></path>
<polyline clip-path="url(#clip712)" style="stroke:#000000; stroke-linecap:round; stroke-linejoin:round; stroke-width:4; stroke-opacity:1; fill:none" points="1074.66,591.8 1074.66,667.52 1102.91,667.52 1102.91,591.8 1074.66,591.8 "></polyline>
<path clip-path="url(#clip712)" d="M1316.81 629.725 L1316.81 667.52 L1345.06 667.52 L1345.06 629.725 L1316.81 629.725 L1316.81 629.725  Z" fill="#3da44d" fill-rule="evenodd" fill-opacity="1"></path>
<polyline clip-path="url(#clip712)" style="stroke:#000000; stroke-linecap:round; stroke-linejoin:round; stroke-width:4; stroke-opacity:1; fill:none" points="1316.81,629.725 1316.81,667.52 1345.06,667.52 1345.06,629.725 1316.81,629.725 "></polyline>
<path clip-path="url(#clip712)" d="M1558.95 637.979 L1558.95 667.52 L1587.2 667.52 L1587.2 637.979 L1558.95 637.979 L1558.95 637.979  Z" fill="#3da44d" fill-rule="evenodd" fill-opacity="1"></path>
<polyline clip-path="url(#clip712)" style="stroke:#000000; stroke-linecap:round; stroke-linejoin:round; stroke-width:4; stroke-opacity:1; fill:none" points="1558.95,637.979 1558.95,667.52 1587.2,667.52 1587.2,637.979 1558.95,637.979 "></polyline>
<circle clip-path="url(#clip712)" style="fill:#3da44d; stroke:none; fill-opacity:0" cx="362.353" cy="425.017" r="2"></circle>
<circle clip-path="url(#clip712)" style="fill:#3da44d; stroke:none; fill-opacity:0" cx="604.498" cy="654.062" r="2"></circle>
<circle clip-path="url(#clip712)" style="fill:#3da44d; stroke:none; fill-opacity:0" cx="846.642" cy="454.603" r="2"></circle>
<circle clip-path="url(#clip712)" style="fill:#3da44d; stroke:none; fill-opacity:0" cx="1088.79" cy="591.8" r="2"></circle>
<circle clip-path="url(#clip712)" style="fill:#3da44d; stroke:none; fill-opacity:0" cx="1330.93" cy="629.725" r="2"></circle>
<circle clip-path="url(#clip712)" style="fill:#3da44d; stroke:none; fill-opacity:0" cx="1573.07" cy="637.979" r="2"></circle>
<path clip-path="url(#clip712)" d="M376.478 468.585 L376.478 667.52 L404.729 667.52 L404.729 468.585 L376.478 468.585 L376.478 468.585  Z" fill="#c271d2" fill-rule="evenodd" fill-opacity="1"></path>
<polyline clip-path="url(#clip712)" style="stroke:#000000; stroke-linecap:round; stroke-linejoin:round; stroke-width:4; stroke-opacity:1; fill:none" points="376.478,468.585 376.478,667.52 404.729,667.52 404.729,468.585 376.478,468.585 "></polyline>
<path clip-path="url(#clip712)" d="M618.623 561.166 L618.623 667.52 L646.873 667.52 L646.873 561.166 L618.623 561.166 L618.623 561.166  Z" fill="#c271d2" fill-rule="evenodd" fill-opacity="1"></path>
<polyline clip-path="url(#clip712)" style="stroke:#000000; stroke-linecap:round; stroke-linejoin:round; stroke-width:4; stroke-opacity:1; fill:none" points="618.623,561.166 618.623,667.52 646.873,667.52 646.873,561.166 618.623,561.166 "></polyline>
<path clip-path="url(#clip712)" d="M860.767 604.734 L860.767 667.52 L889.017 667.52 L889.017 604.734 L860.767 604.734 L860.767 604.734  Z" fill="#c271d2" fill-rule="evenodd" fill-opacity="1"></path>
<polyline clip-path="url(#clip712)" style="stroke:#000000; stroke-linecap:round; stroke-linejoin:round; stroke-width:4; stroke-opacity:1; fill:none" points="860.767,604.734 860.767,667.52 889.017,667.52 889.017,604.734 860.767,604.734 "></polyline>
<path clip-path="url(#clip712)" d="M1102.91 619.03 L1102.91 667.52 L1131.16 667.52 L1131.16 619.03 L1102.91 619.03 L1102.91 619.03  Z" fill="#c271d2" fill-rule="evenodd" fill-opacity="1"></path>
<polyline clip-path="url(#clip712)" style="stroke:#000000; stroke-linecap:round; stroke-linejoin:round; stroke-width:4; stroke-opacity:1; fill:none" points="1102.91,619.03 1102.91,667.52 1131.16,667.52 1131.16,619.03 1102.91,619.03 "></polyline>
<path clip-path="url(#clip712)" d="M1345.06 600.283 L1345.06 667.52 L1373.31 667.52 L1373.31 600.283 L1345.06 600.283 L1345.06 600.283  Z" fill="#c271d2" fill-rule="evenodd" fill-opacity="1"></path>
<polyline clip-path="url(#clip712)" style="stroke:#000000; stroke-linecap:round; stroke-linejoin:round; stroke-width:4; stroke-opacity:1; fill:none" points="1345.06,600.283 1345.06,667.52 1373.31,667.52 1373.31,600.283 1345.06,600.283 "></polyline>
<path clip-path="url(#clip712)" d="M1587.2 630.151 L1587.2 667.52 L1615.45 667.52 L1615.45 630.151 L1587.2 630.151 L1587.2 630.151  Z" fill="#c271d2" fill-rule="evenodd" fill-opacity="1"></path>
<polyline clip-path="url(#clip712)" style="stroke:#000000; stroke-linecap:round; stroke-linejoin:round; stroke-width:4; stroke-opacity:1; fill:none" points="1587.2,630.151 1587.2,667.52 1615.45,667.52 1615.45,630.151 1587.2,630.151 "></polyline>
<circle clip-path="url(#clip712)" style="fill:#c271d2; stroke:none; fill-opacity:0" cx="390.603" cy="468.585" r="2"></circle>
<circle clip-path="url(#clip712)" style="fill:#c271d2; stroke:none; fill-opacity:0" cx="632.748" cy="561.166" r="2"></circle>
<circle clip-path="url(#clip712)" style="fill:#c271d2; stroke:none; fill-opacity:0" cx="874.892" cy="604.734" r="2"></circle>
<circle clip-path="url(#clip712)" style="fill:#c271d2; stroke:none; fill-opacity:0" cx="1117.04" cy="619.03" r="2"></circle>
<circle clip-path="url(#clip712)" style="fill:#c271d2; stroke:none; fill-opacity:0" cx="1359.18" cy="600.283" r="2"></circle>
<circle clip-path="url(#clip712)" style="fill:#c271d2; stroke:none; fill-opacity:0" cx="1601.32" cy="630.151" r="2"></circle>
<path clip-path="url(#clip712)" d="M404.729 101.296 L404.729 667.52 L432.979 667.52 L432.979 101.296 L404.729 101.296 L404.729 101.296  Z" fill="#ac8d18" fill-rule="evenodd" fill-opacity="1"></path>
<polyline clip-path="url(#clip712)" style="stroke:#000000; stroke-linecap:round; stroke-linejoin:round; stroke-width:4; stroke-opacity:1; fill:none" points="404.729,101.296 404.729,667.52 432.979,667.52 432.979,101.296 404.729,101.296 "></polyline>
<path clip-path="url(#clip712)" d="M646.873 318.821 L646.873 667.52 L675.123 667.52 L675.123 318.821 L646.873 318.821 L646.873 318.821  Z" fill="#ac8d18" fill-rule="evenodd" fill-opacity="1"></path>
<polyline clip-path="url(#clip712)" style="stroke:#000000; stroke-linecap:round; stroke-linejoin:round; stroke-width:4; stroke-opacity:1; fill:none" points="646.873,318.821 646.873,667.52 675.123,667.52 675.123,318.821 646.873,318.821 "></polyline>
<path clip-path="url(#clip712)" d="M889.017 415.801 L889.017 667.52 L917.267 667.52 L917.267 415.801 L889.017 415.801 L889.017 415.801  Z" fill="#ac8d18" fill-rule="evenodd" fill-opacity="1"></path>
<polyline clip-path="url(#clip712)" style="stroke:#000000; stroke-linecap:round; stroke-linejoin:round; stroke-width:4; stroke-opacity:1; fill:none" points="889.017,415.801 889.017,667.52 917.267,667.52 917.267,415.801 889.017,415.801 "></polyline>
<path clip-path="url(#clip712)" d="M1131.16 541.765 L1131.16 667.52 L1159.41 667.52 L1159.41 541.765 L1131.16 541.765 L1131.16 541.765  Z" fill="#ac8d18" fill-rule="evenodd" fill-opacity="1"></path>
<polyline clip-path="url(#clip712)" style="stroke:#000000; stroke-linecap:round; stroke-linejoin:round; stroke-width:4; stroke-opacity:1; fill:none" points="1131.16,541.765 1131.16,667.52 1159.41,667.52 1159.41,541.765 1131.16,541.765 "></polyline>
<path clip-path="url(#clip712)" d="M1373.31 662.427 L1373.31 667.52 L1401.56 667.52 L1401.56 662.427 L1373.31 662.427 L1373.31 662.427  Z" fill="#ac8d18" fill-rule="evenodd" fill-opacity="1"></path>
<polyline clip-path="url(#clip712)" style="stroke:#000000; stroke-linecap:round; stroke-linejoin:round; stroke-width:4; stroke-opacity:1; fill:none" points="1373.31,662.427 1373.31,667.52 1401.56,667.52 1401.56,662.427 1373.31,662.427 "></polyline>
<path clip-path="url(#clip712)" d="M1615.45 633.895 L1615.45 667.52 L1643.7 667.52 L1643.7 633.895 L1615.45 633.895 L1615.45 633.895  Z" fill="#ac8d18" fill-rule="evenodd" fill-opacity="1"></path>
<polyline clip-path="url(#clip712)" style="stroke:#000000; stroke-linecap:round; stroke-linejoin:round; stroke-width:4; stroke-opacity:1; fill:none" points="1615.45,633.895 1615.45,667.52 1643.7,667.52 1643.7,633.895 1615.45,633.895 "></polyline>
<circle clip-path="url(#clip712)" style="fill:#ac8d18; stroke:none; fill-opacity:0" cx="418.854" cy="101.296" r="2"></circle>
<circle clip-path="url(#clip712)" style="fill:#ac8d18; stroke:none; fill-opacity:0" cx="660.998" cy="318.821" r="2"></circle>
<circle clip-path="url(#clip712)" style="fill:#ac8d18; stroke:none; fill-opacity:0" cx="903.142" cy="415.801" r="2"></circle>
<circle clip-path="url(#clip712)" style="fill:#ac8d18; stroke:none; fill-opacity:0" cx="1145.29" cy="541.765" r="2"></circle>
<circle clip-path="url(#clip712)" style="fill:#ac8d18; stroke:none; fill-opacity:0" cx="1387.43" cy="662.427" r="2"></circle>
<circle clip-path="url(#clip712)" style="fill:#ac8d18; stroke:none; fill-opacity:0" cx="1629.57" cy="633.895" r="2"></circle>
<path clip-path="url(#clip712)" d="M432.979 487.96 L432.979 667.52 L461.229 667.52 L461.229 487.96 L432.979 487.96 L432.979 487.96  Z" fill="#00a9ad" fill-rule="evenodd" fill-opacity="1"></path>
<polyline clip-path="url(#clip712)" style="stroke:#000000; stroke-linecap:round; stroke-linejoin:round; stroke-width:4; stroke-opacity:1; fill:none" points="432.979,487.96 432.979,667.52 461.229,667.52 461.229,487.96 432.979,487.96 "></polyline>
<path clip-path="url(#clip712)" d="M675.123 480.838 L675.123 667.52 L703.373 667.52 L703.373 480.838 L675.123 480.838 L675.123 480.838  Z" fill="#00a9ad" fill-rule="evenodd" fill-opacity="1"></path>
<polyline clip-path="url(#clip712)" style="stroke:#000000; stroke-linecap:round; stroke-linejoin:round; stroke-width:4; stroke-opacity:1; fill:none" points="675.123,480.838 675.123,667.52 703.373,667.52 703.373,480.838 675.123,480.838 "></polyline>
<path clip-path="url(#clip712)" d="M917.267 628.874 L917.267 667.52 L945.517 667.52 L945.517 628.874 L917.267 628.874 L917.267 628.874  Z" fill="#00a9ad" fill-rule="evenodd" fill-opacity="1"></path>
<polyline clip-path="url(#clip712)" style="stroke:#000000; stroke-linecap:round; stroke-linejoin:round; stroke-width:4; stroke-opacity:1; fill:none" points="917.267,628.874 917.267,667.52 945.517,667.52 945.517,628.874 917.267,628.874 "></polyline>
<path clip-path="url(#clip712)" d="M1159.41 629.555 L1159.41 667.52 L1187.66 667.52 L1187.66 629.555 L1159.41 629.555 L1159.41 629.555  Z" fill="#00a9ad" fill-rule="evenodd" fill-opacity="1"></path>
<polyline clip-path="url(#clip712)" style="stroke:#000000; stroke-linecap:round; stroke-linejoin:round; stroke-width:4; stroke-opacity:1; fill:none" points="1159.41,629.555 1159.41,667.52 1187.66,667.52 1187.66,629.555 1159.41,629.555 "></polyline>
<path clip-path="url(#clip712)" d="M1401.56 659.364 L1401.56 667.52 L1429.81 667.52 L1429.81 659.364 L1401.56 659.364 L1401.56 659.364  Z" fill="#00a9ad" fill-rule="evenodd" fill-opacity="1"></path>
<polyline clip-path="url(#clip712)" style="stroke:#000000; stroke-linecap:round; stroke-linejoin:round; stroke-width:4; stroke-opacity:1; fill:none" points="1401.56,659.364 1401.56,667.52 1429.81,667.52 1429.81,659.364 1401.56,659.364 "></polyline>
<path clip-path="url(#clip712)" d="M1643.7 628.364 L1643.7 667.52 L1671.95 667.52 L1671.95 628.364 L1643.7 628.364 L1643.7 628.364  Z" fill="#00a9ad" fill-rule="evenodd" fill-opacity="1"></path>
<polyline clip-path="url(#clip712)" style="stroke:#000000; stroke-linecap:round; stroke-linejoin:round; stroke-width:4; stroke-opacity:1; fill:none" points="1643.7,628.364 1643.7,667.52 1671.95,667.52 1671.95,628.364 1643.7,628.364 "></polyline>
<circle clip-path="url(#clip712)" style="fill:#00a9ad; stroke:none; fill-opacity:0" cx="447.104" cy="487.96" r="2"></circle>
<circle clip-path="url(#clip712)" style="fill:#00a9ad; stroke:none; fill-opacity:0" cx="689.248" cy="480.838" r="2"></circle>
<circle clip-path="url(#clip712)" style="fill:#00a9ad; stroke:none; fill-opacity:0" cx="931.392" cy="628.874" r="2"></circle>
<circle clip-path="url(#clip712)" style="fill:#00a9ad; stroke:none; fill-opacity:0" cx="1173.54" cy="629.555" r="2"></circle>
<circle clip-path="url(#clip712)" style="fill:#00a9ad; stroke:none; fill-opacity:0" cx="1415.68" cy="659.364" r="2"></circle>
<circle clip-path="url(#clip712)" style="fill:#00a9ad; stroke:none; fill-opacity:0" cx="1657.82" cy="628.364" r="2"></circle>
</svg>