<svg xmlns="http://www.w3.org/2000/svg" xmlns:xlink="http://www.w3.org/1999/xlink" width="450" height="190" viewBox="0 0 1800 760">
<defs>
  <clipPath id="clip670">
    <rect x="0" y="0" width="1800" height="760"></rect>
  </clipPath>
</defs>
<path clip-path="url(#clip670)" d="M0 760 L1800 760 L1800 0 L0 0  Z" fill="#ffffff" fill-rule="evenodd" fill-opacity="1"></path>
<defs>
  <clipPath id="clip671">
    <rect x="360" y="0" width="1261" height="760"></rect>
  </clipPath>
</defs>
<path clip-path="url(#clip670)" d="M180.274 667.52 L1752.76 667.52 L1752.76 101.296 L180.274 101.296  Z" fill="#ffffff" fill-rule="evenodd" fill-opacity="1"></path>
<defs>
  <clipPath id="clip672">
    <rect x="180" y="101" width="1573" height="567"></rect>
  </clipPath>
</defs>
<polyline clip-path="url(#clip672)" style="stroke:#000000; stroke-linecap:round; stroke-linejoin:round; stroke-width:2; stroke-opacity:0.1; fill:none" points="349.121,667.52 349.121,101.296 "></polyline>
<polyline clip-path="url(#clip672)" style="stroke:#000000; stroke-linecap:round; stroke-linejoin:round; stroke-width:2; stroke-opacity:0.1; fill:none" points="596.079,667.52 596.079,101.296 "></polyline>
<polyline clip-path="url(#clip672)" style="stroke:#000000; stroke-linecap:round; stroke-linejoin:round; stroke-width:2; stroke-opacity:0.1; fill:none" points="843.036,667.52 843.036,101.296 "></polyline>
<polyline clip-path="url(#clip672)" style="stroke:#000000; stroke-linecap:round; stroke-linejoin:round; stroke-width:2; stroke-opacity:0.1; fill:none" points="1089.99,667.52 1089.99,101.296 "></polyline>
<polyline clip-path="url(#clip672)" style="stroke:#000000; stroke-linecap:round; stroke-linejoin:round; stroke-width:2; stroke-opacity:0.1; fill:none" points="1336.95,667.52 1336.95,101.296 "></polyline>
<polyline clip-path="url(#clip672)" style="stroke:#000000; stroke-linecap:round; stroke-linejoin:round; stroke-width:2; stroke-opacity:0.1; fill:none" points="1583.91,667.52 1583.91,101.296 "></polyline>
<polyline clip-path="url(#clip672)" style="stroke:#000000; stroke-linecap:round; stroke-linejoin:round; stroke-width:2; stroke-opacity:0.1; fill:none" points="180.274,667.52 1752.76,667.52 "></polyline>
<polyline clip-path="url(#clip672)" style="stroke:#000000; stroke-linecap:round; stroke-linejoin:round; stroke-width:2; stroke-opacity:0.1; fill:none" points="180.274,518.149 1752.76,518.149 "></polyline>
<polyline clip-path="url(#clip672)" style="stroke:#000000; stroke-linecap:round; stroke-linejoin:round; stroke-width:2; stroke-opacity:0.1; fill:none" points="180.274,368.778 1752.76,368.778 "></polyline>
<polyline clip-path="url(#clip672)" style="stroke:#000000; stroke-linecap:round; stroke-linejoin:round; stroke-width:2; stroke-opacity:0.1; fill:none" points="180.274,219.407 1752.76,219.407 "></polyline>
<polyline clip-path="url(#clip670)" style="stroke:#000000; stroke-linecap:round; stroke-linejoin:round; stroke-width:4; stroke-opacity:1; fill:none" points="180.274,667.52 1752.76,667.52 "></polyline>
<polyline clip-path="url(#clip670)" style="stroke:#000000; stroke-linecap:round; stroke-linejoin:round; stroke-width:4; stroke-opacity:1; fill:none" points="349.121,667.52 349.121,648.622 "></polyline>
<polyline clip-path="url(#clip670)" style="stroke:#000000; stroke-linecap:round; stroke-linejoin:round; stroke-width:4; stroke-opacity:1; fill:none" points="596.079,667.52 596.079,648.622 "></polyline>
<polyline clip-path="url(#clip670)" style="stroke:#000000; stroke-linecap:round; stroke-linejoin:round; stroke-width:4; stroke-opacity:1; fill:none" points="843.036,667.52 843.036,648.622 "></polyline>
<polyline clip-path="url(#clip670)" style="stroke:#000000; stroke-linecap:round; stroke-linejoin:round; stroke-width:4; stroke-opacity:1; fill:none" points="1089.99,667.52 1089.99,648.622 "></polyline>
<polyline clip-path="url(#clip670)" style="stroke:#000000; stroke-linecap:round; stroke-linejoin:round; stroke-width:4; stroke-opacity:1; fill:none" points="1336.95,667.52 1336.95,648.622 "></polyline>
<polyline clip-path="url(#clip670)" style="stroke:#000000; stroke-linecap:round; stroke-linejoin:round; stroke-width:4; stroke-opacity:1; fill:none" points="1583.91,667.52 1583.91,648.622 "></polyline>
<path clip-path="url(#clip670)" d="M293.404 721.185 L301.043 721.185 L301.043 694.819 L292.733 696.486 L292.733 692.227 L300.997 690.56 L305.672 690.56 L305.672 721.185 L313.311 721.185 L313.311 725.12 L293.404 725.12 L293.404 721.185 Z" fill="#000000" fill-rule="nonzero" fill-opacity="1"></path><path clip-path="url(#clip670)" d="M332.756 693.639 Q329.145 693.639 327.316 697.203 Q325.51 700.745 325.51 707.875 Q325.51 714.981 327.316 718.546 Q329.145 722.087 332.756 722.087 Q336.39 722.087 338.195 718.546 Q340.024 714.981 340.024 707.875 Q340.024 700.745 338.195 697.203 Q336.39 693.639 332.756 693.639 M332.756 689.935 Q338.566 689.935 341.621 694.541 Q344.7 699.125 344.7 707.875 Q344.7 716.601 341.621 721.208 Q338.566 725.791 332.756 725.791 Q326.945 725.791 323.867 721.208 Q320.811 716.601 320.811 707.875 Q320.811 699.125 323.867 694.541 Q326.945 689.935 332.756 689.935 Z" fill="#000000" fill-rule="nonzero" fill-opacity="1"></path><path clip-path="url(#clip670)" d="M356.945 721.185 L373.265 721.185 L373.265 725.12 L351.32 725.12 L351.32 721.185 Q353.982 718.43 358.566 713.8 Q363.172 709.148 364.353 707.805 Q366.598 705.282 367.478 703.546 Q368.38 701.787 368.38 700.097 Q368.38 697.342 366.436 695.606 Q364.515 693.87 361.413 693.87 Q359.214 693.87 356.76 694.634 Q354.33 695.398 351.552 696.949 L351.552 692.227 Q354.376 691.092 356.83 690.514 Q359.283 689.935 361.32 689.935 Q366.691 689.935 369.885 692.62 Q373.079 695.305 373.079 699.796 Q373.079 701.926 372.269 703.847 Q371.482 705.745 369.376 708.338 Q368.797 709.009 365.695 712.226 Q362.593 715.421 356.945 721.185 Z" fill="#000000" fill-rule="nonzero" fill-opacity="1"></path><path clip-path="url(#clip670)" d="M395.927 694.634 L384.121 713.083 L395.927 713.083 L395.927 694.634 M394.7 690.56 L400.579 690.56 L400.579 713.083 L405.51 713.083 L405.51 716.972 L400.579 716.972 L400.579 725.12 L395.927 725.12 L395.927 716.972 L380.325 716.972 L380.325 712.458 L394.7 690.56 Z" fill="#000000" fill-rule="nonzero" fill-opacity="1"></path><path clip-path="url(#clip670)" d="M544.736 721.185 L561.056 721.185 L561.056 725.12 L539.111 725.12 L539.111 721.185 Q541.773 718.43 546.357 713.8 Q550.963 709.148 552.144 707.805 Q554.389 705.282 555.269 703.546 Q556.172 701.787 556.172 700.097 Q556.172 697.342 554.227 695.606 Q552.306 693.87 549.204 693.87 Q547.005 693.87 544.551 694.634 Q542.121 695.398 539.343 696.949 L539.343 692.227 Q542.167 691.092 544.621 690.514 Q547.074 689.935 549.111 689.935 Q554.482 689.935 557.676 692.62 Q560.871 695.305 560.871 699.796 Q560.871 701.926 560.06 703.847 Q559.273 705.745 557.167 708.338 Q556.588 709.009 553.486 712.226 Q550.385 715.421 544.736 721.185 Z" fill="#000000" fill-rule="nonzero" fill-opacity="1"></path><path clip-path="url(#clip670)" d="M580.871 693.639 Q577.259 693.639 575.431 697.203 Q573.625 700.745 573.625 707.875 Q573.625 714.981 575.431 718.546 Q577.259 722.087 580.871 722.087 Q584.505 722.087 586.31 718.546 Q588.139 714.981 588.139 707.875 Q588.139 700.745 586.31 697.203 Q584.505 693.639 580.871 693.639 M580.871 689.935 Q586.681 689.935 589.736 694.541 Q592.815 699.125 592.815 707.875 Q592.815 716.601 589.736 721.208 Q586.681 725.791 580.871 725.791 Q575.06 725.791 571.982 721.208 Q568.926 716.601 568.926 707.875 Q568.926 699.125 571.982 694.541 Q575.06 689.935 580.871 689.935 Z" fill="#000000" fill-rule="nonzero" fill-opacity="1"></path><path clip-path="url(#clip670)" d="M613.88 694.634 L602.074 713.083 L613.88 713.083 L613.88 694.634 M612.653 690.56 L618.532 690.56 L618.532 713.083 L623.463 713.083 L623.463 716.972 L618.532 716.972 L618.532 725.12 L613.88 725.12 L613.88 716.972 L598.278 716.972 L598.278 712.458 L612.653 690.56 Z" fill="#000000" fill-rule="nonzero" fill-opacity="1"></path><path clip-path="url(#clip670)" d="M641.194 708.708 Q637.861 708.708 635.94 710.49 Q634.042 712.273 634.042 715.398 Q634.042 718.523 635.94 720.305 Q637.861 722.087 641.194 722.087 Q644.528 722.087 646.449 720.305 Q648.37 718.5 648.37 715.398 Q648.37 712.273 646.449 710.49 Q644.551 708.708 641.194 708.708 M636.518 706.717 Q633.509 705.976 631.819 703.916 Q630.153 701.856 630.153 698.893 Q630.153 694.75 633.092 692.342 Q636.055 689.935 641.194 689.935 Q646.356 689.935 649.296 692.342 Q652.236 694.75 652.236 698.893 Q652.236 701.856 650.546 703.916 Q648.879 705.976 645.893 706.717 Q649.273 707.504 651.148 709.796 Q653.046 712.088 653.046 715.398 Q653.046 720.421 649.967 723.106 Q646.912 725.791 641.194 725.791 Q635.477 725.791 632.398 723.106 Q629.342 720.421 629.342 715.398 Q629.342 712.088 631.241 709.796 Q633.139 707.504 636.518 706.717 M634.805 699.333 Q634.805 702.018 636.472 703.523 Q638.162 705.027 641.194 705.027 Q644.203 705.027 645.893 703.523 Q647.606 702.018 647.606 699.333 Q647.606 696.648 645.893 695.143 Q644.203 693.639 641.194 693.639 Q638.162 693.639 636.472 695.143 Q634.805 696.648 634.805 699.333 Z" fill="#000000" fill-rule="nonzero" fill-opacity="1"></path><path clip-path="url(#clip670)" d="M800.965 694.634 L789.159 713.083 L800.965 713.083 L800.965 694.634 M799.738 690.56 L805.617 690.56 L805.617 713.083 L810.548 713.083 L810.548 716.972 L805.617 716.972 L805.617 725.12 L800.965 725.12 L800.965 716.972 L785.363 716.972 L785.363 712.458 L799.738 690.56 Z" fill="#000000" fill-rule="nonzero" fill-opacity="1"></path><path clip-path="url(#clip670)" d="M828.279 693.639 Q824.668 693.639 822.84 697.203 Q821.034 700.745 821.034 707.875 Q821.034 714.981 822.84 718.546 Q824.668 722.087 828.279 722.087 Q831.914 722.087 833.719 718.546 Q835.548 714.981 835.548 707.875 Q835.548 700.745 833.719 697.203 Q831.914 693.639 828.279 693.639 M828.279 689.935 Q834.09 689.935 837.145 694.541 Q840.224 699.125 840.224 707.875 Q840.224 716.601 837.145 721.208 Q834.09 725.791 828.279 725.791 Q822.469 725.791 819.391 721.208 Q816.335 716.601 816.335 707.875 Q816.335 699.125 819.391 694.541 Q822.469 689.935 828.279 689.935 Z" fill="#000000" fill-rule="nonzero" fill-opacity="1"></path><path clip-path="url(#clip670)" d="M848.58 724.402 L848.58 720.143 Q850.339 720.976 852.145 721.416 Q853.951 721.856 855.687 721.856 Q860.316 721.856 862.747 718.754 Q865.2 715.629 865.548 709.287 Q864.205 711.277 862.145 712.342 Q860.085 713.407 857.585 713.407 Q852.4 713.407 849.367 710.282 Q846.358 707.134 846.358 701.694 Q846.358 696.37 849.506 693.152 Q852.654 689.935 857.886 689.935 Q863.881 689.935 867.029 694.541 Q870.2 699.125 870.2 707.875 Q870.2 716.046 866.312 720.93 Q862.446 725.791 855.895 725.791 Q854.136 725.791 852.33 725.444 Q850.525 725.097 848.58 724.402 M857.886 709.75 Q861.034 709.75 862.863 707.597 Q864.714 705.444 864.714 701.694 Q864.714 697.967 862.863 695.814 Q861.034 693.639 857.886 693.639 Q854.738 693.639 852.886 695.814 Q851.057 697.967 851.057 701.694 Q851.057 705.444 852.886 707.597 Q854.738 709.75 857.886 709.75 Z" fill="#000000" fill-rule="nonzero" fill-opacity="1"></path><path clip-path="url(#clip670)" d="M889.182 705.976 Q886.034 705.976 884.182 708.129 Q882.353 710.282 882.353 714.032 Q882.353 717.759 884.182 719.935 Q886.034 722.087 889.182 722.087 Q892.33 722.087 894.159 719.935 Q896.01 717.759 896.01 714.032 Q896.01 710.282 894.159 708.129 Q892.33 705.976 889.182 705.976 M898.464 691.324 L898.464 695.583 Q896.705 694.75 894.899 694.31 Q893.117 693.87 891.358 693.87 Q886.728 693.87 884.274 696.995 Q881.844 700.12 881.497 706.439 Q882.862 704.426 884.923 703.361 Q886.983 702.273 889.46 702.273 Q894.668 702.273 897.677 705.444 Q900.71 708.592 900.71 714.032 Q900.71 719.356 897.561 722.574 Q894.413 725.791 889.182 725.791 Q883.186 725.791 880.015 721.208 Q876.844 716.601 876.844 707.875 Q876.844 699.68 880.733 694.819 Q884.622 689.935 891.173 689.935 Q892.932 689.935 894.714 690.282 Q896.52 690.629 898.464 691.324 Z" fill="#000000" fill-rule="nonzero" fill-opacity="1"></path><path clip-path="url(#clip670)" d="M1045.5 708.708 Q1042.17 708.708 1040.25 710.49 Q1038.35 712.273 1038.35 715.398 Q1038.35 718.523 1040.25 720.305 Q1042.17 722.087 1045.5 722.087 Q1048.84 722.087 1050.76 720.305 Q1052.68 718.5 1052.68 715.398 Q1052.68 712.273 1050.76 710.49 Q1048.86 708.708 1045.5 708.708 M1040.83 706.717 Q1037.82 705.976 1036.13 703.916 Q1034.46 701.856 1034.46 698.893 Q1034.46 694.75 1037.4 692.342 Q1040.36 689.935 1045.5 689.935 Q1050.67 689.935 1053.6 692.342 Q1056.54 694.75 1056.54 698.893 Q1056.54 701.856 1054.85 703.916 Q1053.19 705.976 1050.2 706.717 Q1053.58 707.504 1055.46 709.796 Q1057.35 712.088 1057.35 715.398 Q1057.35 720.421 1054.28 723.106 Q1051.22 725.791 1045.5 725.791 Q1039.79 725.791 1036.71 723.106 Q1033.65 720.421 1033.65 715.398 Q1033.65 712.088 1035.55 709.796 Q1037.45 707.504 1040.83 706.717 M1039.11 699.333 Q1039.11 702.018 1040.78 703.523 Q1042.47 705.027 1045.5 705.027 Q1048.51 705.027 1050.2 703.523 Q1051.92 702.018 1051.92 699.333 Q1051.92 696.648 1050.2 695.143 Q1048.51 693.639 1045.5 693.639 Q1042.47 693.639 1040.78 695.143 Q1039.11 696.648 1039.11 699.333 Z" fill="#000000" fill-rule="nonzero" fill-opacity="1"></path><path clip-path="url(#clip670)" d="M1066.48 721.185 L1074.11 721.185 L1074.11 694.819 L1065.8 696.486 L1065.8 692.227 L1074.07 690.56 L1078.74 690.56 L1078.74 721.185 L1086.38 721.185 L1086.38 725.12 L1066.48 725.12 L1066.48 721.185 Z" fill="#000000" fill-rule="nonzero" fill-opacity="1"></path><path clip-path="url(#clip670)" d="M1095.97 724.402 L1095.97 720.143 Q1097.73 720.976 1099.53 721.416 Q1101.34 721.856 1103.07 721.856 Q1107.7 721.856 1110.13 718.754 Q1112.59 715.629 1112.93 709.287 Q1111.59 711.277 1109.53 712.342 Q1107.47 713.407 1104.97 713.407 Q1099.79 713.407 1096.75 710.282 Q1093.74 707.134 1093.74 701.694 Q1093.74 696.37 1096.89 693.152 Q1100.04 689.935 1105.27 689.935 Q1111.27 689.935 1114.41 694.541 Q1117.59 699.125 1117.59 707.875 Q1117.59 716.046 1113.7 720.93 Q1109.83 725.791 1103.28 725.791 Q1101.52 725.791 1099.72 725.444 Q1097.91 725.097 1095.97 724.402 M1105.27 709.75 Q1108.42 709.75 1110.25 707.597 Q1112.1 705.444 1112.1 701.694 Q1112.1 697.967 1110.25 695.814 Q1108.42 693.639 1105.27 693.639 Q1102.12 693.639 1100.27 695.814 Q1098.44 697.967 1098.44 701.694 Q1098.44 705.444 1100.27 707.597 Q1102.12 709.75 1105.27 709.75 Z" fill="#000000" fill-rule="nonzero" fill-opacity="1"></path><path clip-path="url(#clip670)" d="M1130.02 721.185 L1146.34 721.185 L1146.34 725.12 L1124.39 725.12 L1124.39 721.185 Q1127.05 718.43 1131.64 713.8 Q1136.24 709.148 1137.42 707.805 Q1139.67 705.282 1140.55 703.546 Q1141.45 701.787 1141.45 700.097 Q1141.45 697.342 1139.51 695.606 Q1137.59 693.87 1134.48 693.87 Q1132.29 693.87 1129.83 694.634 Q1127.4 695.398 1124.62 696.949 L1124.62 692.227 Q1127.45 691.092 1129.9 690.514 Q1132.35 689.935 1134.39 689.935 Q1139.76 689.935 1142.96 692.62 Q1146.15 695.305 1146.15 699.796 Q1146.15 701.926 1145.34 703.847 Q1144.55 705.745 1142.45 708.338 Q1141.87 709.009 1138.77 712.226 Q1135.66 715.421 1130.02 721.185 Z" fill="#000000" fill-rule="nonzero" fill-opacity="1"></path><path clip-path="url(#clip670)" d="M1266.15 721.185 L1273.79 721.185 L1273.79 694.819 L1265.48 696.486 L1265.48 692.227 L1273.75 690.56 L1278.42 690.56 L1278.42 721.185 L1286.06 721.185 L1286.06 725.12 L1266.15 725.12 L1266.15 721.185 Z" fill="#000000" fill-rule="nonzero" fill-opacity="1"></path><path clip-path="url(#clip670)" d="M1306.08 705.976 Q1302.94 705.976 1301.08 708.129 Q1299.25 710.282 1299.25 714.032 Q1299.25 717.759 1301.08 719.935 Q1302.94 722.087 1306.08 722.087 Q1309.23 722.087 1311.06 719.935 Q1312.91 717.759 1312.91 714.032 Q1312.91 710.282 1311.06 708.129 Q1309.23 705.976 1306.08 705.976 M1315.37 691.324 L1315.37 695.583 Q1313.61 694.75 1311.8 694.31 Q1310.02 693.87 1308.26 693.87 Q1303.63 693.87 1301.18 696.995 Q1298.75 700.12 1298.4 706.439 Q1299.76 704.426 1301.82 703.361 Q1303.88 702.273 1306.36 702.273 Q1311.57 702.273 1314.58 705.444 Q1317.61 708.592 1317.61 714.032 Q1317.61 719.356 1314.46 722.574 Q1311.31 725.791 1306.08 725.791 Q1300.09 725.791 1296.92 721.208 Q1293.75 716.601 1293.75 707.875 Q1293.75 699.68 1297.63 694.819 Q1301.52 689.935 1308.07 689.935 Q1309.83 689.935 1311.62 690.282 Q1313.42 690.629 1315.37 691.324 Z" fill="#000000" fill-rule="nonzero" fill-opacity="1"></path><path clip-path="url(#clip670)" d="M1339.83 706.486 Q1343.19 707.203 1345.06 709.472 Q1346.96 711.74 1346.96 715.074 Q1346.96 720.189 1343.44 722.99 Q1339.93 725.791 1333.44 725.791 Q1331.27 725.791 1328.95 725.351 Q1326.66 724.935 1324.21 724.078 L1324.21 719.564 Q1326.15 720.699 1328.47 721.277 Q1330.78 721.856 1333.31 721.856 Q1337.7 721.856 1340 720.12 Q1342.31 718.384 1342.31 715.074 Q1342.31 712.018 1340.16 710.305 Q1338.03 708.569 1334.21 708.569 L1330.18 708.569 L1330.18 704.726 L1334.39 704.726 Q1337.84 704.726 1339.67 703.361 Q1341.5 701.972 1341.5 699.379 Q1341.5 696.717 1339.6 695.305 Q1337.73 693.87 1334.21 693.87 Q1332.29 693.87 1330.09 694.287 Q1327.89 694.703 1325.25 695.583 L1325.25 691.416 Q1327.91 690.676 1330.23 690.305 Q1332.56 689.935 1334.62 689.935 Q1339.95 689.935 1343.05 692.365 Q1346.15 694.773 1346.15 698.893 Q1346.15 701.764 1344.51 703.754 Q1342.87 705.722 1339.83 706.486 Z" fill="#000000" fill-rule="nonzero" fill-opacity="1"></path><path clip-path="url(#clip670)" d="M1365.83 708.708 Q1362.49 708.708 1360.57 710.49 Q1358.68 712.273 1358.68 715.398 Q1358.68 718.523 1360.57 720.305 Q1362.49 722.087 1365.83 722.087 Q1369.16 722.087 1371.08 720.305 Q1373 718.5 1373 715.398 Q1373 712.273 1371.08 710.49 Q1369.18 708.708 1365.83 708.708 M1361.15 706.717 Q1358.14 705.976 1356.45 703.916 Q1354.79 701.856 1354.79 698.893 Q1354.79 694.75 1357.73 692.342 Q1360.69 689.935 1365.83 689.935 Q1370.99 689.935 1373.93 692.342 Q1376.87 694.75 1376.87 698.893 Q1376.87 701.856 1375.18 703.916 Q1373.51 705.976 1370.53 706.717 Q1373.91 707.504 1375.78 709.796 Q1377.68 712.088 1377.68 715.398 Q1377.68 720.421 1374.6 723.106 Q1371.55 725.791 1365.83 725.791 Q1360.11 725.791 1357.03 723.106 Q1353.98 720.421 1353.98 715.398 Q1353.98 712.088 1355.87 709.796 Q1357.77 707.504 1361.15 706.717 M1359.44 699.333 Q1359.44 702.018 1361.11 703.523 Q1362.8 705.027 1365.83 705.027 Q1368.84 705.027 1370.53 703.523 Q1372.24 702.018 1372.24 699.333 Q1372.24 696.648 1370.53 695.143 Q1368.84 693.639 1365.83 693.639 Q1362.8 693.639 1361.11 695.143 Q1359.44 696.648 1359.44 699.333 Z" fill="#000000" fill-rule="nonzero" fill-opacity="1"></path><path clip-path="url(#clip670)" d="M1398.84 694.634 L1387.03 713.083 L1398.84 713.083 L1398.84 694.634 M1397.61 690.56 L1403.49 690.56 L1403.49 713.083 L1408.42 713.083 L1408.42 716.972 L1403.49 716.972 L1403.49 725.12 L1398.84 725.12 L1398.84 716.972 L1383.24 716.972 L1383.24 712.458 L1397.61 690.56 Z" fill="#000000" fill-rule="nonzero" fill-opacity="1"></path><path clip-path="url(#clip670)" d="M1527.55 706.486 Q1530.91 707.203 1532.79 709.472 Q1534.68 711.74 1534.68 715.074 Q1534.68 720.189 1531.17 722.99 Q1527.65 725.791 1521.17 725.791 Q1518.99 725.791 1516.68 725.351 Q1514.38 724.935 1511.93 724.078 L1511.93 719.564 Q1513.87 720.699 1516.19 721.277 Q1518.5 721.856 1521.03 721.856 Q1525.43 721.856 1527.72 720.12 Q1530.03 718.384 1530.03 715.074 Q1530.03 712.018 1527.88 710.305 Q1525.75 708.569 1521.93 708.569 L1517.9 708.569 L1517.9 704.726 L1522.11 704.726 Q1525.56 704.726 1527.39 703.361 Q1529.22 701.972 1529.22 699.379 Q1529.22 696.717 1527.32 695.305 Q1525.45 693.87 1521.93 693.87 Q1520.01 693.87 1517.81 694.287 Q1515.61 694.703 1512.97 695.583 L1512.97 691.416 Q1515.63 690.676 1517.95 690.305 Q1520.29 689.935 1522.35 689.935 Q1527.67 689.935 1530.77 692.365 Q1533.87 694.773 1533.87 698.893 Q1533.87 701.764 1532.23 703.754 Q1530.59 705.722 1527.55 706.486 Z" fill="#000000" fill-rule="nonzero" fill-opacity="1"></path><path clip-path="url(#clip670)" d="M1547.58 721.185 L1563.9 721.185 L1563.9 725.12 L1541.95 725.12 L1541.95 721.185 Q1544.61 718.43 1549.2 713.8 Q1553.8 709.148 1554.99 707.805 Q1557.23 705.282 1558.11 703.546 Q1559.01 701.787 1559.01 700.097 Q1559.01 697.342 1557.07 695.606 Q1555.15 693.87 1552.05 693.87 Q1549.85 693.87 1547.39 694.634 Q1544.96 695.398 1542.18 696.949 L1542.18 692.227 Q1545.01 691.092 1547.46 690.514 Q1549.92 689.935 1551.95 689.935 Q1557.32 689.935 1560.52 692.62 Q1563.71 695.305 1563.71 699.796 Q1563.71 701.926 1562.9 703.847 Q1562.11 705.745 1560.01 708.338 Q1559.43 709.009 1556.33 712.226 Q1553.23 715.421 1547.58 721.185 Z" fill="#000000" fill-rule="nonzero" fill-opacity="1"></path><path clip-path="url(#clip670)" d="M1572.53 690.56 L1594.75 690.56 L1594.75 692.551 L1582.21 725.12 L1577.32 725.12 L1589.13 694.495 L1572.53 694.495 L1572.53 690.56 Z" fill="#000000" fill-rule="nonzero" fill-opacity="1"></path><path clip-path="url(#clip670)" d="M1614.45 705.976 Q1611.3 705.976 1609.45 708.129 Q1607.62 710.282 1607.62 714.032 Q1607.62 717.759 1609.45 719.935 Q1611.3 722.087 1614.45 722.087 Q1617.6 722.087 1619.43 719.935 Q1621.28 717.759 1621.28 714.032 Q1621.28 710.282 1619.43 708.129 Q1617.6 705.976 1614.45 705.976 M1623.73 691.324 L1623.73 695.583 Q1621.98 694.75 1620.17 694.31 Q1618.39 693.87 1616.63 693.87 Q1612 693.87 1609.55 696.995 Q1607.11 700.12 1606.77 706.439 Q1608.13 704.426 1610.19 703.361 Q1612.25 702.273 1614.73 702.273 Q1619.94 702.273 1622.95 705.444 Q1625.98 708.592 1625.98 714.032 Q1625.98 719.356 1622.83 722.574 Q1619.68 725.791 1614.45 725.791 Q1608.46 725.791 1605.29 721.208 Q1602.11 716.601 1602.11 707.875 Q1602.11 699.68 1606 694.819 Q1609.89 689.935 1616.44 689.935 Q1618.2 689.935 1619.98 690.282 Q1621.79 690.629 1623.73 691.324 Z" fill="#000000" fill-rule="nonzero" fill-opacity="1"></path><path clip-path="url(#clip670)" d="M1644.04 708.708 Q1640.7 708.708 1638.78 710.49 Q1636.88 712.273 1636.88 715.398 Q1636.88 718.523 1638.78 720.305 Q1640.7 722.087 1644.04 722.087 Q1647.37 722.087 1649.29 720.305 Q1651.21 718.5 1651.21 715.398 Q1651.21 712.273 1649.29 710.49 Q1647.39 708.708 1644.04 708.708 M1639.36 706.717 Q1636.35 705.976 1634.66 703.916 Q1632.99 701.856 1632.99 698.893 Q1632.99 694.75 1635.93 692.342 Q1638.9 689.935 1644.04 689.935 Q1649.2 689.935 1652.14 692.342 Q1655.08 694.75 1655.08 698.893 Q1655.08 701.856 1653.39 703.916 Q1651.72 705.976 1648.73 706.717 Q1652.11 707.504 1653.99 709.796 Q1655.89 712.088 1655.89 715.398 Q1655.89 720.421 1652.81 723.106 Q1649.75 725.791 1644.04 725.791 Q1638.32 725.791 1635.24 723.106 Q1632.18 720.421 1632.18 715.398 Q1632.18 712.088 1634.08 709.796 Q1635.98 707.504 1639.36 706.717 M1637.65 699.333 Q1637.65 702.018 1639.31 703.523 Q1641 705.027 1644.04 705.027 Q1647.04 705.027 1648.73 703.523 Q1650.45 702.018 1650.45 699.333 Q1650.45 696.648 1648.73 695.143 Q1647.04 693.639 1644.04 693.639 Q1641 693.639 1639.31 695.143 Q1637.65 696.648 1637.65 699.333 Z" fill="#000000" fill-rule="nonzero" fill-opacity="1"></path><polyline clip-path="url(#clip670)" style="stroke:#000000; stroke-linecap:round; stroke-linejoin:round; stroke-width:4; stroke-opacity:1; fill:none" points="180.274,667.52 180.274,101.296 "></polyline>
<polyline clip-path="url(#clip670)" style="stroke:#000000; stroke-linecap:round; stroke-linejoin:round; stroke-width:4; stroke-opacity:1; fill:none" points="180.274,667.52 199.172,667.52 "></polyline>
<polyline clip-path="url(#clip670)" style="stroke:#000000; stroke-linecap:round; stroke-linejoin:round; stroke-width:4; stroke-opacity:1; fill:none" points="180.274,518.149 199.172,518.149 "></polyline>
<polyline clip-path="url(#clip670)" style="stroke:#000000; stroke-linecap:round; stroke-linejoin:round; stroke-width:4; stroke-opacity:1; fill:none" points="180.274,368.778 199.172,368.778 "></polyline>
<polyline clip-path="url(#clip670)" style="stroke:#000000; stroke-linecap:round; stroke-linejoin:round; stroke-width:4; stroke-opacity:1; fill:none" points="180.274,219.407 199.172,219.407 "></polyline>
<path clip-path="url(#clip670)" d="M65.9365 653.319 Q62.3254 653.319 60.4967 656.883 Q58.6912 660.425 58.6912 667.555 Q58.6912 674.661 60.4967 678.226 Q62.3254 681.767 65.9365 681.767 Q69.5707 681.767 71.3763 678.226 Q73.205 674.661 73.205 667.555 Q73.205 660.425 71.3763 656.883 Q69.5707 653.319 65.9365 653.319 M65.9365 649.615 Q71.7467 649.615 74.8022 654.221 Q77.8809 658.805 77.8809 667.555 Q77.8809 676.281 74.8022 680.888 Q71.7467 685.471 65.9365 685.471 Q60.1264 685.471 57.0477 680.888 Q53.9921 676.281 53.9921 667.555 Q53.9921 658.805 57.0477 654.221 Q60.1264 649.615 65.9365 649.615 Z" fill="#000000" fill-rule="nonzero" fill-opacity="1"></path><path clip-path="url(#clip670)" d="M86.0984 678.92 L90.9827 678.92 L90.9827 684.8 L86.0984 684.8 L86.0984 678.92 Z" fill="#000000" fill-rule="nonzero" fill-opacity="1"></path><path clip-path="url(#clip670)" d="M111.168 653.319 Q107.557 653.319 105.728 656.883 Q103.922 660.425 103.922 667.555 Q103.922 674.661 105.728 678.226 Q107.557 681.767 111.168 681.767 Q114.802 681.767 116.608 678.226 Q118.436 674.661 118.436 667.555 Q118.436 660.425 116.608 656.883 Q114.802 653.319 111.168 653.319 M111.168 649.615 Q116.978 649.615 120.033 654.221 Q123.112 658.805 123.112 667.555 Q123.112 676.281 120.033 680.888 Q116.978 685.471 111.168 685.471 Q105.358 685.471 102.279 680.888 Q99.2234 676.281 99.2234 667.555 Q99.2234 658.805 102.279 654.221 Q105.358 649.615 111.168 649.615 Z" fill="#000000" fill-rule="nonzero" fill-opacity="1"></path><path clip-path="url(#clip670)" d="M141.33 653.319 Q137.719 653.319 135.89 656.883 Q134.084 660.425 134.084 667.555 Q134.084 674.661 135.89 678.226 Q137.719 681.767 141.33 681.767 Q144.964 681.767 146.769 678.226 Q148.598 674.661 148.598 667.555 Q148.598 660.425 146.769 656.883 Q144.964 653.319 141.33 653.319 M141.33 649.615 Q147.14 649.615 150.195 654.221 Q153.274 658.805 153.274 667.555 Q153.274 676.281 150.195 680.888 Q147.14 685.471 141.33 685.471 Q135.519 685.471 132.441 680.888 Q129.385 676.281 129.385 667.555 Q129.385 658.805 132.441 654.221 Q135.519 649.615 141.33 649.615 Z" fill="#000000" fill-rule="nonzero" fill-opacity="1"></path><path clip-path="url(#clip670)" d="M67.1634 503.948 Q63.5523 503.948 61.7236 507.512 Q59.918 511.054 59.918 518.184 Q59.918 525.29 61.7236 528.855 Q63.5523 532.396 67.1634 532.396 Q70.7976 532.396 72.6031 528.855 Q74.4318 525.29 74.4318 518.184 Q74.4318 511.054 72.6031 507.512 Q70.7976 503.948 67.1634 503.948 M67.1634 500.244 Q72.9735 500.244 76.029 504.85 Q79.1077 509.434 79.1077 518.184 Q79.1077 526.91 76.029 531.517 Q72.9735 536.1 67.1634 536.1 Q61.3532 536.1 58.2745 531.517 Q55.219 526.91 55.219 518.184 Q55.219 509.434 58.2745 504.85 Q61.3532 500.244 67.1634 500.244 Z" fill="#000000" fill-rule="nonzero" fill-opacity="1"></path><path clip-path="url(#clip670)" d="M87.3253 529.549 L92.2095 529.549 L92.2095 535.429 L87.3253 535.429 L87.3253 529.549 Z" fill="#000000" fill-rule="nonzero" fill-opacity="1"></path><path clip-path="url(#clip670)" d="M112.395 503.948 Q108.783 503.948 106.955 507.512 Q105.149 511.054 105.149 518.184 Q105.149 525.29 106.955 528.855 Q108.783 532.396 112.395 532.396 Q116.029 532.396 117.834 528.855 Q119.663 525.29 119.663 518.184 Q119.663 511.054 117.834 507.512 Q116.029 503.948 112.395 503.948 M112.395 500.244 Q118.205 500.244 121.26 504.85 Q124.339 509.434 124.339 518.184 Q124.339 526.91 121.26 531.517 Q118.205 536.1 112.395 536.1 Q106.584 536.1 103.506 531.517 Q100.45 526.91 100.45 518.184 Q100.45 509.434 103.506 504.85 Q106.584 500.244 112.395 500.244 Z" fill="#000000" fill-rule="nonzero" fill-opacity="1"></path><path clip-path="url(#clip670)" d="M133.367 531.494 L141.006 531.494 L141.006 505.128 L132.695 506.795 L132.695 502.535 L140.959 500.869 L145.635 500.869 L145.635 531.494 L153.274 531.494 L153.274 535.429 L133.367 535.429 L133.367 531.494 Z" fill="#000000" fill-rule="nonzero" fill-opacity="1"></path><path clip-path="url(#clip670)" d="M67.5337 354.576 Q63.9226 354.576 62.0939 358.141 Q60.2884 361.683 60.2884 368.812 Q60.2884 375.919 62.0939 379.484 Q63.9226 383.025 67.5337 383.025 Q71.168 383.025 72.9735 379.484 Q74.8022 375.919 74.8022 368.812 Q74.8022 361.683 72.9735 358.141 Q71.168 354.576 67.5337 354.576 M67.5337 350.873 Q73.3439 350.873 76.3994 355.479 Q79.4781 360.063 79.4781 368.812 Q79.4781 377.539 76.3994 382.146 Q73.3439 386.729 67.5337 386.729 Q61.7236 386.729 58.6449 382.146 Q55.5893 377.539 55.5893 368.812 Q55.5893 360.063 58.6449 355.479 Q61.7236 350.873 67.5337 350.873 Z" fill="#000000" fill-rule="nonzero" fill-opacity="1"></path><path clip-path="url(#clip670)" d="M87.6956 380.178 L92.5799 380.178 L92.5799 386.058 L87.6956 386.058 L87.6956 380.178 Z" fill="#000000" fill-rule="nonzero" fill-opacity="1"></path><path clip-path="url(#clip670)" d="M112.765 354.576 Q109.154 354.576 107.325 358.141 Q105.52 361.683 105.52 368.812 Q105.52 375.919 107.325 379.484 Q109.154 383.025 112.765 383.025 Q116.399 383.025 118.205 379.484 Q120.033 375.919 120.033 368.812 Q120.033 361.683 118.205 358.141 Q116.399 354.576 112.765 354.576 M112.765 350.873 Q118.575 350.873 121.631 355.479 Q124.709 360.063 124.709 368.812 Q124.709 377.539 121.631 382.146 Q118.575 386.729 112.765 386.729 Q106.955 386.729 103.876 382.146 Q100.821 377.539 100.821 368.812 Q100.821 360.063 103.876 355.479 Q106.955 350.873 112.765 350.873 Z" fill="#000000" fill-rule="nonzero" fill-opacity="1"></path><path clip-path="url(#clip670)" d="M136.955 382.123 L153.274 382.123 L153.274 386.058 L131.33 386.058 L131.33 382.123 Q133.992 379.368 138.575 374.738 Q143.181 370.086 144.362 368.743 Q146.607 366.22 147.487 364.484 Q148.39 362.725 148.39 361.035 Q148.39 358.28 146.445 356.544 Q144.524 354.808 141.422 354.808 Q139.223 354.808 136.769 355.572 Q134.339 356.336 131.561 357.887 L131.561 353.164 Q134.385 352.03 136.839 351.451 Q139.293 350.873 141.33 350.873 Q146.7 350.873 149.894 353.558 Q153.089 356.243 153.089 360.734 Q153.089 362.863 152.279 364.785 Q151.492 366.683 149.385 369.275 Q148.806 369.947 145.705 373.164 Q142.603 376.359 136.955 382.123 Z" fill="#000000" fill-rule="nonzero" fill-opacity="1"></path><path clip-path="url(#clip670)" d="M66.5847 205.205 Q62.9736 205.205 61.1449 208.77 Q59.3393 212.312 59.3393 219.441 Q59.3393 226.548 61.1449 230.113 Q62.9736 233.654 66.5847 233.654 Q70.2189 233.654 72.0244 230.113 Q73.8531 226.548 73.8531 219.441 Q73.8531 212.312 72.0244 208.77 Q70.2189 205.205 66.5847 205.205 M66.5847 201.502 Q72.3948 201.502 75.4503 206.108 Q78.529 210.691 78.529 219.441 Q78.529 228.168 75.4503 232.775 Q72.3948 237.358 66.5847 237.358 Q60.7745 237.358 57.6958 232.775 Q54.6403 228.168 54.6403 219.441 Q54.6403 210.691 57.6958 206.108 Q60.7745 201.502 66.5847 201.502 Z" fill="#000000" fill-rule="nonzero" fill-opacity="1"></path><path clip-path="url(#clip670)" d="M86.7466 230.807 L91.6308 230.807 L91.6308 236.687 L86.7466 236.687 L86.7466 230.807 Z" fill="#000000" fill-rule="nonzero" fill-opacity="1"></path><path clip-path="url(#clip670)" d="M111.816 205.205 Q108.205 205.205 106.376 208.77 Q104.571 212.312 104.571 219.441 Q104.571 226.548 106.376 230.113 Q108.205 233.654 111.816 233.654 Q115.45 233.654 117.256 230.113 Q119.084 226.548 119.084 219.441 Q119.084 212.312 117.256 208.77 Q115.45 205.205 111.816 205.205 M111.816 201.502 Q117.626 201.502 120.682 206.108 Q123.76 210.691 123.76 219.441 Q123.76 228.168 120.682 232.775 Q117.626 237.358 111.816 237.358 Q106.006 237.358 102.927 232.775 Q99.8715 228.168 99.8715 219.441 Q99.8715 210.691 102.927 206.108 Q106.006 201.502 111.816 201.502 Z" fill="#000000" fill-rule="nonzero" fill-opacity="1"></path><path clip-path="url(#clip670)" d="M146.144 218.053 Q149.501 218.77 151.376 221.039 Q153.274 223.307 153.274 226.64 Q153.274 231.756 149.756 234.557 Q146.237 237.358 139.756 237.358 Q137.58 237.358 135.265 236.918 Q132.973 236.502 130.519 235.645 L130.519 231.131 Q132.464 232.265 134.779 232.844 Q137.094 233.423 139.617 233.423 Q144.015 233.423 146.306 231.687 Q148.621 229.951 148.621 226.64 Q148.621 223.585 146.468 221.872 Q144.339 220.136 140.519 220.136 L136.492 220.136 L136.492 216.293 L140.705 216.293 Q144.154 216.293 145.982 214.928 Q147.811 213.539 147.811 210.946 Q147.811 208.284 145.913 206.872 Q144.038 205.437 140.519 205.437 Q138.598 205.437 136.399 205.854 Q134.2 206.27 131.561 207.15 L131.561 202.983 Q134.223 202.242 136.538 201.872 Q138.876 201.502 140.936 201.502 Q146.26 201.502 149.362 203.932 Q152.464 206.34 152.464 210.46 Q152.464 213.33 150.82 215.321 Q149.177 217.289 146.144 218.053 Z" fill="#000000" fill-rule="nonzero" fill-opacity="1"></path><path clip-path="url(#clip670)" d="M741.183 14.0809 L741.183 22.0612 Q736.525 19.8332 732.393 18.7395 Q728.261 17.6457 724.413 17.6457 Q717.729 17.6457 714.083 20.2383 Q710.478 22.8309 710.478 27.611 Q710.478 31.6214 712.868 33.6873 Q715.298 35.7128 722.023 36.9686 L726.965 37.9813 Q736.12 39.7232 740.454 44.1387 Q744.829 48.5136 744.829 55.8863 Q744.829 64.6767 738.915 69.2137 Q733.041 73.7508 721.658 73.7508 Q717.364 73.7508 712.503 72.7785 Q707.682 71.8063 702.497 69.9024 L702.497 61.4765 Q707.48 64.2716 712.26 65.6895 Q717.04 67.1073 721.658 67.1073 Q728.666 67.1073 732.474 64.3527 Q736.282 61.598 736.282 56.4939 Q736.282 52.0379 733.527 49.5264 Q730.813 47.0148 724.575 45.759 L719.592 44.7868 Q710.437 42.9639 706.346 39.075 Q702.254 35.1862 702.254 28.2591 Q702.254 20.2383 707.885 15.6203 Q713.556 11.0023 723.481 11.0023 Q727.734 11.0023 732.15 11.7719 Q736.565 12.5416 741.183 14.0809 Z" fill="#000000" fill-rule="nonzero" fill-opacity="1"></path><path clip-path="url(#clip670)" d="M784.609 34.9026 L836.542 34.9026 L836.542 41.7081 L784.609 41.7081 L784.609 34.9026 M784.609 51.4303 L836.542 51.4303 L836.542 58.3168 L784.609 58.3168 L784.609 51.4303 Z" fill="#000000" fill-rule="nonzero" fill-opacity="1"></path><path clip-path="url(#clip670)" d="M914.117 80.2727 L914.117 86.106 L911.605 86.106 Q901.518 86.106 898.075 83.1084 Q894.672 80.1107 894.672 71.1582 L894.672 61.4765 Q894.672 55.3597 892.485 53.0101 Q890.297 50.6606 884.545 50.6606 L882.074 50.6606 L882.074 44.8678 L884.545 44.8678 Q890.338 44.8678 892.485 42.5588 Q894.672 40.2093 894.672 34.1734 L894.672 24.4513 Q894.672 15.4988 898.075 12.5416 Q901.518 9.54393 911.605 9.54393 L914.117 9.54393 L914.117 15.3367 L911.362 15.3367 Q905.65 15.3367 903.908 17.1191 Q902.166 18.9015 902.166 24.6133 L902.166 34.6595 Q902.166 41.0195 900.303 43.8956 Q898.48 46.7717 894.024 47.7845 Q898.521 48.8782 900.343 51.7544 Q902.166 54.6305 902.166 60.9499 L902.166 70.9961 Q902.166 76.7079 903.908 78.4903 Q905.65 80.2727 911.362 80.2727 L914.117 80.2727 Z" fill="#000000" fill-rule="nonzero" fill-opacity="1"></path><path clip-path="url(#clip670)" d="M934.776 65.6895 L948.144 65.6895 L948.144 19.5497 L933.601 22.4663 L933.601 15.0127 L948.063 12.096 L956.246 12.096 L956.246 65.6895 L969.614 65.6895 L969.614 72.576 L934.776 72.576 L934.776 65.6895 Z" fill="#000000" fill-rule="nonzero" fill-opacity="1"></path><path clip-path="url(#clip670)" d="M1003.64 17.4837 Q997.322 17.4837 994.122 23.7221 Q990.962 29.92 990.962 42.3968 Q990.962 54.833 994.122 61.0714 Q997.322 67.2693 1003.64 67.2693 Q1010 67.2693 1013.16 61.0714 Q1016.36 54.833 1016.36 42.3968 Q1016.36 29.92 1013.16 23.7221 Q1010 17.4837 1003.64 17.4837 M1003.64 11.0023 Q1013.81 11.0023 1019.16 19.0636 Q1024.54 27.0843 1024.54 42.3968 Q1024.54 57.6687 1019.16 65.73 Q1013.81 73.7508 1003.64 73.7508 Q993.474 73.7508 988.086 65.73 Q982.739 57.6687 982.739 42.3968 Q982.739 27.0843 988.086 19.0636 Q993.474 11.0023 1003.64 11.0023 Z" fill="#000000" fill-rule="nonzero" fill-opacity="1"></path><path clip-path="url(#clip670)" d="M1039.78 62.2867 L1048.32 62.2867 L1048.32 69.2543 L1041.68 82.2172 L1036.45 82.2172 L1039.78 69.2543 L1039.78 62.2867 Z" fill="#000000" fill-rule="nonzero" fill-opacity="1"></path><path clip-path="url(#clip670)" d="M1093.09 65.6895 L1106.45 65.6895 L1106.45 19.5497 L1091.91 22.4663 L1091.91 15.0127 L1106.37 12.096 L1114.56 12.096 L1114.56 65.6895 L1127.92 65.6895 L1127.92 72.576 L1093.09 72.576 L1093.09 65.6895 Z" fill="#000000" fill-rule="nonzero" fill-opacity="1"></path><path clip-path="url(#clip670)" d="M1145.87 65.6895 L1159.24 65.6895 L1159.24 19.5497 L1144.69 22.4663 L1144.69 15.0127 L1159.16 12.096 L1167.34 12.096 L1167.34 65.6895 L1180.71 65.6895 L1180.71 72.576 L1145.87 72.576 L1145.87 65.6895 Z" fill="#000000" fill-rule="nonzero" fill-opacity="1"></path><path clip-path="url(#clip670)" d="M1198.73 80.2727 L1201.57 80.2727 Q1207.24 80.2727 1208.94 78.5308 Q1210.68 76.7889 1210.68 70.9961 L1210.68 60.9499 Q1210.68 54.6305 1212.51 51.7544 Q1214.33 48.8782 1218.83 47.7845 Q1214.33 46.7717 1212.51 43.8956 Q1210.68 41.0195 1210.68 34.6595 L1210.68 24.6133 Q1210.68 18.861 1208.94 17.1191 Q1207.24 15.3367 1201.57 15.3367 L1198.73 15.3367 L1198.73 9.54393 L1201.29 9.54393 Q1211.37 9.54393 1214.73 12.5416 Q1218.14 15.4988 1218.14 24.4513 L1218.14 34.1734 Q1218.14 40.2093 1220.32 42.5588 Q1222.51 44.8678 1228.26 44.8678 L1230.78 44.8678 L1230.78 50.6606 L1228.26 50.6606 Q1222.51 50.6606 1220.32 53.0101 Q1218.14 55.3597 1218.14 61.4765 L1218.14 71.1582 Q1218.14 80.1107 1214.73 83.1084 Q1211.37 86.106 1201.29 86.106 L1198.73 86.106 L1198.73 80.2727 Z" fill="#000000" fill-rule="nonzero" fill-opacity="1"></path><path clip-path="url(#clip672)" d="M262.686 463.146 L262.686 667.52 L291.498 667.52 L291.498 463.146 L262.686 463.146 L262.686 463.146  Z" fill="#009af9" fill-rule="evenodd" fill-opacity="1"></path>
<polyline clip-path="url(#clip672)" style="stroke:#000000; stroke-linecap:round; stroke-linejoin:round; stroke-width:4; stroke-opacity:1; fill:none" points="262.686,463.146 262.686,667.52 291.498,667.52 291.498,463.146 262.686,463.146 "></polyline>
<path clip-path="url(#clip672)" d="M509.644 664.028 L509.644 667.52 L538.455 667.52 L538.455 664.028 L509.644 664.028 L509.644 664.028  Z" fill="#009af9" fill-rule="evenodd" fill-opacity="1"></path>
<polyline clip-path="url(#clip672)" style="stroke:#000000; stroke-linecap:round; stroke-linejoin:round; stroke-width:4; stroke-opacity:1; fill:none" points="509.644,664.028 509.644,667.52 538.455,667.52 538.455,664.028 509.644,664.028 "></polyline>
<path clip-path="url(#clip672)" d="M756.601 640.698 L756.601 667.52 L785.413 667.52 L785.413 640.698 L756.601 640.698 L756.601 640.698  Z" fill="#009af9" fill-rule="evenodd" fill-opacity="1"></path>
<polyline clip-path="url(#clip672)" style="stroke:#000000; stroke-linecap:round; stroke-linejoin:round; stroke-width:4; stroke-opacity:1; fill:none" points="756.601,640.698 756.601,667.52 785.413,667.52 785.413,640.698 756.601,640.698 "></polyline>
<path clip-path="url(#clip672)" d="M1003.56 612.062 L1003.56 667.52 L1032.37 667.52 L1032.37 612.062 L1003.56 612.062 L1003.56 612.062  Z" fill="#009af9" fill-rule="evenodd" fill-opacity="1"></path>
<polyline clip-path="url(#clip672)" style="stroke:#000000; stroke-linecap:round; stroke-linejoin:round; stroke-width:4; stroke-opacity:1; fill:none" points="1003.56,612.062 1003.56,667.52 1032.37,667.52 1032.37,612.062 1003.56,612.062 "></polyline>
<path clip-path="url(#clip672)" d="M1250.52 600.64 L1250.52 667.52 L1279.33 667.52 L1279.33 600.64 L1250.52 600.64 L1250.52 600.64  Z" fill="#009af9" fill-rule="evenodd" fill-opacity="1"></path>
<polyline clip-path="url(#clip672)" style="stroke:#000000; stroke-linecap:round; stroke-linejoin:round; stroke-width:4; stroke-opacity:1; fill:none" points="1250.52,600.64 1250.52,667.52 1279.33,667.52 1279.33,600.64 1250.52,600.64 "></polyline>
<path clip-path="url(#clip672)" d="M1497.47 588.732 L1497.47 667.52 L1526.29 667.52 L1526.29 588.732 L1497.47 588.732 L1497.47 588.732  Z" fill="#009af9" fill-rule="evenodd" fill-opacity="1"></path>
<polyline clip-path="url(#clip672)" style="stroke:#000000; stroke-linecap:round; stroke-linejoin:round; stroke-width:4; stroke-opacity:1; fill:none" points="1497.47,588.732 1497.47,667.52 1526.29,667.52 1526.29,588.732 1497.47,588.732 "></polyline>
<circle clip-path="url(#clip672)" style="fill:#009af9; stroke:none; fill-opacity:0" cx="277.092" cy="463.146" r="2"></circle>
<circle clip-path="url(#clip672)" style="fill:#009af9; stroke:none; fill-opacity:0" cx="524.049" cy="664.028" r="2"></circle>
<circle clip-path="url(#clip672)" style="fill:#009af9; stroke:none; fill-opacity:0" cx="771.007" cy="640.698" r="2"></circle>
<circle clip-path="url(#clip672)" style="fill:#009af9; stroke:none; fill-opacity:0" cx="1017.96" cy="612.062" r="2"></circle>
<circle clip-path="url(#clip672)" style="fill:#009af9; stroke:none; fill-opacity:0" cx="1264.92" cy="600.64" r="2"></circle>
<circle clip-path="url(#clip672)" style="fill:#009af9; stroke:none; fill-opacity:0" cx="1511.88" cy="588.732" r="2"></circle>
<path clip-path="url(#clip672)" d="M291.498 350.919 L291.498 667.52 L320.31 667.52 L320.31 350.919 L291.498 350.919 L291.498 350.919  Z" fill="#e26f46" fill-rule="evenodd" fill-opacity="1"></path>
<polyline clip-path="url(#clip672)" style="stroke:#000000; stroke-linecap:round; stroke-linejoin:round; stroke-width:4; stroke-opacity:1; fill:none" points="291.498,350.919 291.498,667.52 320.31,667.52 320.31,350.919 291.498,350.919 "></polyline>
<path clip-path="url(#clip672)" d="M538.455 365.321 L538.455 667.52 L567.267 667.52 L567.267 365.321 L538.455 365.321 L538.455 365.321  Z" fill="#e26f46" fill-rule="evenodd" fill-opacity="1"></path>
<polyline clip-path="url(#clip672)" style="stroke:#000000; stroke-linecap:round; stroke-linejoin:round; stroke-width:4; stroke-opacity:1; fill:none" points="538.455,365.321 538.455,667.52 567.267,667.52 567.267,365.321 538.455,365.321 "></polyline>
<path clip-path="url(#clip672)" d="M785.413 657.906 L785.413 667.52 L814.225 667.52 L814.225 657.906 L785.413 657.906 L785.413 657.906  Z" fill="#e26f46" fill-rule="evenodd" fill-opacity="1"></path>
<polyline clip-path="url(#clip672)" style="stroke:#000000; stroke-linecap:round; stroke-linejoin:round; stroke-width:4; stroke-opacity:1; fill:none" points="785.413,657.906 785.413,667.52 814.225,667.52 814.225,657.906 785.413,657.906 "></polyline>
<path clip-path="url(#clip672)" d="M1032.37 621.644 L1032.37 667.52 L1061.18 667.52 L1061.18 621.644 L1032.37 621.644 L1032.37 621.644  Z" fill="#e26f46" fill-rule="evenodd" fill-opacity="1"></path>
<polyline clip-path="url(#clip672)" style="stroke:#000000; stroke-linecap:round; stroke-linejoin:round; stroke-width:4; stroke-opacity:1; fill:none" points="1032.37,621.644 1032.37,667.52 1061.18,667.52 1061.18,621.644 1032.37,621.644 "></polyline>
<path clip-path="url(#clip672)" d="M1279.33 566.263 L1279.33 667.52 L1308.14 667.52 L1308.14 566.263 L1279.33 566.263 L1279.33 566.263  Z" fill="#e26f46" fill-rule="evenodd" fill-opacity="1"></path>
<polyline clip-path="url(#clip672)" style="stroke:#000000; stroke-linecap:round; stroke-linejoin:round; stroke-width:4; stroke-opacity:1; fill:none" points="1279.33,566.263 1279.33,667.52 1308.14,667.52 1308.14,566.263 1279.33,566.263 "></polyline>
<path clip-path="url(#clip672)" d="M1526.29 584.23 L1526.29 667.52 L1555.1 667.52 L1555.1 584.23 L1526.29 584.23 L1526.29 584.23  Z" fill="#e26f46" fill-rule="evenodd" fill-opacity="1"></path>
<polyline clip-path="url(#clip672)" style="stroke:#000000; stroke-linecap:round; stroke-linejoin:round; stroke-width:4; stroke-opacity:1; fill:none" points="1526.29,584.23 1526.29,667.52 1555.1,667.52 1555.1,584.23 1526.29,584.23 "></polyline>
<circle clip-path="url(#clip672)" style="fill:#e26f46; stroke:none; fill-opacity:0" cx="305.904" cy="350.919" r="2"></circle>
<circle clip-path="url(#clip672)" style="fill:#e26f46; stroke:none; fill-opacity:0" cx="552.861" cy="365.321" r="2"></circle>
<circle clip-path="url(#clip672)" style="fill:#e26f46; stroke:none; fill-opacity:0" cx="799.819" cy="657.906" r="2"></circle>
<circle clip-path="url(#clip672)" style="fill:#e26f46; stroke:none; fill-opacity:0" cx="1046.78" cy="621.644" r="2"></circle>
<circle clip-path="url(#clip672)" style="fill:#e26f46; stroke:none; fill-opacity:0" cx="1293.73" cy="566.263" r="2"></circle>
<circle clip-path="url(#clip672)" style="fill:#e26f46; stroke:none; fill-opacity:0" cx="1540.69" cy="584.23" r="2"></circle>
<path clip-path="url(#clip672)" d="M320.31 476.862 L320.31 667.52 L349.121 667.52 L349.121 476.862 L320.31 476.862 L320.31 476.862  Z" fill="#3da44d" fill-rule="evenodd" fill-opacity="1"></path>
<polyline clip-path="url(#clip672)" style="stroke:#000000; stroke-linecap:round; stroke-linejoin:round; stroke-width:4; stroke-opacity:1; fill:none" points="320.31,476.862 320.31,667.52 349.121,667.52 349.121,476.862 320.31,476.862 "></polyline>
<path clip-path="url(#clip672)" d="M567.267 101.296 L567.267 667.52 L596.079 667.52 L596.079 101.296 L567.267 101.296 L567.267 101.296  Z" fill="#3da44d" fill-rule="evenodd" fill-opacity="1"></path>
<polyline clip-path="url(#clip672)" style="stroke:#000000; stroke-linecap:round; stroke-linejoin:round; stroke-width:4; stroke-opacity:1; fill:none" points="567.267,101.296 567.267,667.52 596.079,667.52 596.079,101.296 567.267,101.296 "></polyline>
<path clip-path="url(#clip672)" d="M814.225 567.172 L814.225 667.52 L843.036 667.52 L843.036 567.172 L814.225 567.172 L814.225 567.172  Z" fill="#3da44d" fill-rule="evenodd" fill-opacity="1"></path>
<polyline clip-path="url(#clip672)" style="stroke:#000000; stroke-linecap:round; stroke-linejoin:round; stroke-width:4; stroke-opacity:1; fill:none" points="814.225,567.172 814.225,667.52 843.036,667.52 843.036,567.172 814.225,567.172 "></polyline>
<path clip-path="url(#clip672)" d="M1061.18 486.188 L1061.18 667.52 L1089.99 667.52 L1089.99 486.188 L1061.18 486.188 L1061.18 486.188  Z" fill="#3da44d" fill-rule="evenodd" fill-opacity="1"></path>
<polyline clip-path="url(#clip672)" style="stroke:#000000; stroke-linecap:round; stroke-linejoin:round; stroke-width:4; stroke-opacity:1; fill:none" points="1061.18,486.188 1061.18,667.52 1089.99,667.52 1089.99,486.188 1061.18,486.188 "></polyline>
<path clip-path="url(#clip672)" d="M1308.14 503.39 L1308.14 667.52 L1336.95 667.52 L1336.95 503.39 L1308.14 503.39 L1308.14 503.39  Z" fill="#3da44d" fill-rule="evenodd" fill-opacity="1"></path>
<polyline clip-path="url(#clip672)" style="stroke:#000000; stroke-linecap:round; stroke-linejoin:round; stroke-width:4; stroke-opacity:1; fill:none" points="1308.14,503.39 1308.14,667.52 1336.95,667.52 1336.95,503.39 1308.14,503.39 "></polyline>
<path clip-path="url(#clip672)" d="M1555.1 634.016 L1555.1 667.52 L1583.91 667.52 L1583.91 634.016 L1555.1 634.016 L1555.1 634.016  Z" fill="#3da44d" fill-rule="evenodd" fill-opacity="1"></path>
<polyline clip-path="url(#clip672)" style="stroke:#000000; stroke-linecap:round; stroke-linejoin:round; stroke-width:4; stroke-opacity:1; fill:none" points="1555.1,634.016 1555.1,667.52 1583.91,667.52 1583.91,634.016 1555.1,634.016 "></polyline>
<circle clip-path="url(#clip672)" style="fill:#3da44d; stroke:none; fill-opacity:0" cx="334.715" cy="476.862" r="2"></circle>
<circle clip-path="url(#clip672)" style="fill:#3da44d; stroke:none; fill-opacity:0" cx="581.673" cy="101.296" r="2"></circle>
<circle clip-path="url(#clip672)" style="fill:#3da44d; stroke:none; fill-opacity:0" cx="828.63" cy="567.172" r="2"></circle>
<circle clip-path="url(#clip672)" style="fill:#3da44d; stroke:none; fill-opacity:0" cx="1075.59" cy="486.188" r="2"></circle>
<circle clip-path="url(#clip672)" style="fill:#3da44d; stroke:none; fill-opacity:0" cx="1322.55" cy="503.39" r="2"></circle>
<circle clip-path="url(#clip672)" style="fill:#3da44d; stroke:none; fill-opacity:0" cx="1569.5" cy="634.016" r="2"></circle>
<path clip-path="url(#clip672)" d="M349.121 571.362 L349.121 667.52 L377.933 667.52 L377.933 571.362 L349.121 571.362 L349.121 571.362  Z" fill="#c271d2" fill-rule="evenodd" fill-opacity="1"></path>
<polyline clip-path="url(#clip672)" style="stroke:#000000; stroke-linecap:round; stroke-linejoin:round; stroke-width:4; stroke-opacity:1; fill:none" points="349.121,571.362 349.121,667.52 377.933,667.52 377.933,571.362 349.121,571.362 "></polyline>
<path clip-path="url(#clip672)" d="M596.079 553.521 L596.079 667.52 L624.89 667.52 L624.89 553.521 L596.079 553.521 L596.079 553.521  Z" fill="#c271d2" fill-rule="evenodd" fill-opacity="1"></path>
<polyline clip-path="url(#clip672)" style="stroke:#000000; stroke-linecap:round; stroke-linejoin:round; stroke-width:4; stroke-opacity:1; fill:none" points="596.079,553.521 596.079,667.52 624.89,667.52 624.89,553.521 596.079,553.521 "></polyline>
<path clip-path="url(#clip672)" d="M843.036 647.707 L843.036 667.52 L871.848 667.52 L871.848 647.707 L843.036 647.707 L843.036 647.707  Z" fill="#c271d2" fill-rule="evenodd" fill-opacity="1"></path>
<polyline clip-path="url(#clip672)" style="stroke:#000000; stroke-linecap:round; stroke-linejoin:round; stroke-width:4; stroke-opacity:1; fill:none" points="843.036,647.707 843.036,667.52 871.848,667.52 871.848,647.707 843.036,647.707 "></polyline>
<path clip-path="url(#clip672)" d="M1089.99 571.362 L1089.99 667.52 L1118.81 667.52 L1118.81 571.362 L1089.99 571.362 L1089.99 571.362  Z" fill="#c271d2" fill-rule="evenodd" fill-opacity="1"></path>
<polyline clip-path="url(#clip672)" style="stroke:#000000; stroke-linecap:round; stroke-linejoin:round; stroke-width:4; stroke-opacity:1; fill:none" points="1089.99,571.362 1089.99,667.52 1118.81,667.52 1118.81,571.362 1089.99,571.362 "></polyline>
<path clip-path="url(#clip672)" d="M1336.95 556.269 L1336.95 667.52 L1365.76 667.52 L1365.76 556.269 L1336.95 556.269 L1336.95 556.269  Z" fill="#c271d2" fill-rule="evenodd" fill-opacity="1"></path>
<polyline clip-path="url(#clip672)" style="stroke:#000000; stroke-linecap:round; stroke-linejoin:round; stroke-width:4; stroke-opacity:1; fill:none" points="1336.95,556.269 1336.95,667.52 1365.76,667.52 1365.76,556.269 1336.95,556.269 "></polyline>
<path clip-path="url(#clip672)" d="M1583.91 574.708 L1583.91 667.52 L1612.72 667.52 L1612.72 574.708 L1583.91 574.708 L1583.91 574.708  Z" fill="#c271d2" fill-rule="evenodd" fill-opacity="1"></path>
<polyline clip-path="url(#clip672)" style="stroke:#000000; stroke-linecap:round; stroke-linejoin:round; stroke-width:4; stroke-opacity:1; fill:none" points="1583.91,574.708 1583.91,667.52 1612.72,667.52 1612.72,574.708 1583.91,574.708 "></polyline>
<circle clip-path="url(#clip672)" style="fill:#c271d2; stroke:none; fill-opacity:0" cx="363.527" cy="571.362" r="2"></circle>
<circle clip-path="url(#clip672)" style="fill:#c271d2; stroke:none; fill-opacity:0" cx="610.485" cy="553.521" r="2"></circle>
<circle clip-path="url(#clip672)" style="fill:#c271d2; stroke:none; fill-opacity:0" cx="857.442" cy="647.707" r="2"></circle>
<circle clip-path="url(#clip672)" style="fill:#c271d2; stroke:none; fill-opacity:0" cx="1104.4" cy="571.362" r="2"></circle>
<circle clip-path="url(#clip672)" style="fill:#c271d2; stroke:none; fill-opacity:0" cx="1351.36" cy="556.269" r="2"></circle>
<circle clip-path="url(#clip672)" style="fill:#c271d2; stroke:none; fill-opacity:0" cx="1598.31" cy="574.708" r="2"></circle>
<path clip-path="url(#clip672)" d="M377.933 595.017 L377.933 667.52 L406.745 667.52 L406.745 595.017 L377.933 595.017 L377.933 595.017  Z" fill="#ac8d18" fill-rule="evenodd" fill-opacity="1"></path>
<polyline clip-path="url(#clip672)" style="stroke:#000000; stroke-linecap:round; stroke-linejoin:round; stroke-width:4; stroke-opacity:1; fill:none" points="377.933,595.017 377.933,667.52 406.745,667.52 406.745,595.017 377.933,595.017 "></polyline>
<path clip-path="url(#clip672)" d="M624.89 421.252 L624.89 667.52 L653.702 667.52 L653.702 421.252 L624.89 421.252 L624.89 421.252  Z" fill="#ac8d18" fill-rule="evenodd" fill-opacity="1"></path>
<polyline clip-path="url(#clip672)" style="stroke:#000000; stroke-linecap:round; stroke-linejoin:round; stroke-width:4; stroke-opacity:1; fill:none" points="624.89,421.252 624.89,667.52 653.702,667.52 653.702,421.252 624.89,421.252 "></polyline>
<path clip-path="url(#clip672)" d="M871.848 416.825 L871.848 667.52 L900.66 667.52 L900.66 416.825 L871.848 416.825 L871.848 416.825  Z" fill="#ac8d18" fill-rule="evenodd" fill-opacity="1"></path>
<polyline clip-path="url(#clip672)" style="stroke:#000000; stroke-linecap:round; stroke-linejoin:round; stroke-width:4; stroke-opacity:1; fill:none" points="871.848,416.825 871.848,667.52 900.66,667.52 900.66,416.825 871.848,416.825 "></polyline>
<path clip-path="url(#clip672)" d="M1118.81 657 L1118.81 667.52 L1147.62 667.52 L1147.62 657 L1118.81 657 L1118.81 657  Z" fill="#ac8d18" fill-rule="evenodd" fill-opacity="1"></path>
<polyline clip-path="url(#clip672)" style="stroke:#000000; stroke-linecap:round; stroke-linejoin:round; stroke-width:4; stroke-opacity:1; fill:none" points="1118.81,657 1118.81,667.52 1147.62,667.52 1147.62,657 1118.81,657 "></polyline>
<path clip-path="url(#clip672)" d="M1365.76 598.338 L1365.76 667.52 L1394.57 667.52 L1394.57 598.338 L1365.76 598.338 L1365.76 598.338  Z" fill="#ac8d18" fill-rule="evenodd" fill-opacity="1"></path>
<polyline clip-path="url(#clip672)" style="stroke:#000000; stroke-linecap:round; stroke-linejoin:round; stroke-width:4; stroke-opacity:1; fill:none" points="1365.76,598.338 1365.76,667.52 1394.57,667.52 1394.57,598.338 1365.76,598.338 "></polyline>
<path clip-path="url(#clip672)" d="M1612.72 664.748 L1612.72 667.52 L1641.53 667.52 L1641.53 664.748 L1612.72 664.748 L1612.72 664.748  Z" fill="#ac8d18" fill-rule="evenodd" fill-opacity="1"></path>
<polyline clip-path="url(#clip672)" style="stroke:#000000; stroke-linecap:round; stroke-linejoin:round; stroke-width:4; stroke-opacity:1; fill:none" points="1612.72,664.748 1612.72,667.52 1641.53,667.52 1641.53,664.748 1612.72,664.748 "></polyline>
<circle clip-path="url(#clip672)" style="fill:#ac8d18; stroke:none; fill-opacity:0" cx="392.339" cy="595.017" r="2"></circle>
<circle clip-path="url(#clip672)" style="fill:#ac8d18; stroke:none; fill-opacity:0" cx="639.296" cy="421.252" r="2"></circle>
<circle clip-path="url(#clip672)" style="fill:#ac8d18; stroke:none; fill-opacity:0" cx="886.254" cy="416.825" r="2"></circle>
<circle clip-path="url(#clip672)" style="fill:#ac8d18; stroke:none; fill-opacity:0" cx="1133.21" cy="657" r="2"></circle>
<circle clip-path="url(#clip672)" style="fill:#ac8d18; stroke:none; fill-opacity:0" cx="1380.17" cy="598.338" r="2"></circle>
<circle clip-path="url(#clip672)" style="fill:#ac8d18; stroke:none; fill-opacity:0" cx="1627.13" cy="664.748" r="2"></circle>
<path clip-path="url(#clip672)" d="M406.745 283.962 L406.745 667.52 L435.556 667.52 L435.556 283.962 L406.745 283.962 L406.745 283.962  Z" fill="#00a9ad" fill-rule="evenodd" fill-opacity="1"></path>
<polyline clip-path="url(#clip672)" style="stroke:#000000; stroke-linecap:round; stroke-linejoin:round; stroke-width:4; stroke-opacity:1; fill:none" points="406.745,283.962 406.745,667.52 435.556,667.52 435.556,283.962 406.745,283.962 "></polyline>
<path clip-path="url(#clip672)" d="M653.702 409.224 L653.702 667.52 L682.514 667.52 L682.514 409.224 L653.702 409.224 L653.702 409.224  Z" fill="#00a9ad" fill-rule="evenodd" fill-opacity="1"></path>
<polyline clip-path="url(#clip672)" style="stroke:#000000; stroke-linecap:round; stroke-linejoin:round; stroke-width:4; stroke-opacity:1; fill:none" points="653.702,409.224 653.702,667.52 682.514,667.52 682.514,409.224 653.702,409.224 "></polyline>
<path clip-path="url(#clip672)" d="M900.66 431.206 L900.66 667.52 L929.471 667.52 L929.471 431.206 L900.66 431.206 L900.66 431.206  Z" fill="#00a9ad" fill-rule="evenodd" fill-opacity="1"></path>
<polyline clip-path="url(#clip672)" style="stroke:#000000; stroke-linecap:round; stroke-linejoin:round; stroke-width:4; stroke-opacity:1; fill:none" points="900.66,431.206 900.66,667.52 929.471,667.52 929.471,431.206 900.66,431.206 "></polyline>
<path clip-path="url(#clip672)" d="M1147.62 585.075 L1147.62 667.52 L1176.43 667.52 L1176.43 585.075 L1147.62 585.075 L1147.62 585.075  Z" fill="#00a9ad" fill-rule="evenodd" fill-opacity="1"></path>
<polyline clip-path="url(#clip672)" style="stroke:#000000; stroke-linecap:round; stroke-linejoin:round; stroke-width:4; stroke-opacity:1; fill:none" points="1147.62,585.075 1147.62,667.52 1176.43,667.52 1176.43,585.075 1147.62,585.075 "></polyline>
<path clip-path="url(#clip672)" d="M1394.57 542.242 L1394.57 667.52 L1423.39 667.52 L1423.39 542.242 L1394.57 542.242 L1394.57 542.242  Z" fill="#00a9ad" fill-rule="evenodd" fill-opacity="1"></path>
<polyline clip-path="url(#clip672)" style="stroke:#000000; stroke-linecap:round; stroke-linejoin:round; stroke-width:4; stroke-opacity:1; fill:none" points="1394.57,542.242 1394.57,667.52 1423.39,667.52 1423.39,542.242 1394.57,542.242 "></polyline>
<path clip-path="url(#clip672)" d="M1641.53 586.754 L1641.53 667.52 L1670.34 667.52 L1670.34 586.754 L1641.53 586.754 L1641.53 586.754  Z" fill="#00a9ad" fill-rule="evenodd" fill-opacity="1"></path>
<polyline clip-path="url(#clip672)" style="stroke:#000000; stroke-linecap:round; stroke-linejoin:round; stroke-width:4; stroke-opacity:1; fill:none" points="1641.53,586.754 1641.53,667.52 1670.34,667.52 1670.34,586.754 1641.53,586.754 "></polyline>
<circle clip-path="url(#clip672)" style="fill:#00a9ad; stroke:none; fill-opacity:0" cx="421.151" cy="283.962" r="2"></circle>
<circle clip-path="url(#clip672)" style="fill:#00a9ad; stroke:none; fill-opacity:0" cx="668.108" cy="409.224" r="2"></circle>
<circle clip-path="url(#clip672)" style="fill:#00a9ad; stroke:none; fill-opacity:0" cx="915.065" cy="431.206" r="2"></circle>
<circle clip-path="url(#clip672)" style="fill:#00a9ad; stroke:none; fill-opacity:0" cx="1162.02" cy="585.075" r="2"></circle>
<circle clip-path="url(#clip672)" style="fill:#00a9ad; stroke:none; fill-opacity:0" cx="1408.98" cy="542.242" r="2"></circle>
<circle clip-path="url(#clip672)" style="fill:#00a9ad; stroke:none; fill-opacity:0" cx="1655.94" cy="586.754" r="2"></circle>
</svg>