<svg xmlns="http://www.w3.org/2000/svg" xmlns:xlink="http://www.w3.org/1999/xlink" width="450" height="190" viewBox="0 0 1800 760">
<defs>
  <clipPath id="clip630">
    <rect x="0" y="0" width="1800" height="760"></rect>
  </clipPath>
</defs>
<path clip-path="url(#clip630)" d="M0 760 L1800 760 L1800 0 L0 0  Z" fill="#ffffff" fill-rule="evenodd" fill-opacity="1"></path>
<defs>
  <clipPath id="clip631">
    <rect x="360" y="0" width="1261" height="760"></rect>
  </clipPath>
</defs>
<path clip-path="url(#clip630)" d="M180.76 667.52 L1752.76 667.52 L1752.76 101.296 L180.76 101.296  Z" fill="#ffffff" fill-rule="evenodd" fill-opacity="1"></path>
<defs>
  <clipPath id="clip632">
    <rect x="180" y="101" width="1573" height="567"></rect>
  </clipPath>
</defs>
<polyline clip-path="url(#clip632)" style="stroke:#000000; stroke-linecap:round; stroke-linejoin:round; stroke-width:2; stroke-opacity:0.1; fill:none" points="349.555,667.52 349.555,101.296 "></polyline>
<polyline clip-path="url(#clip632)" style="stroke:#000000; stroke-linecap:round; stroke-linejoin:round; stroke-width:2; stroke-opacity:0.1; fill:none" points="596.436,667.52 596.436,101.296 "></polyline>
<polyline clip-path="url(#clip632)" style="stroke:#000000; stroke-linecap:round; stroke-linejoin:round; stroke-width:2; stroke-opacity:0.1; fill:none" points="843.317,667.52 843.317,101.296 "></polyline>
<polyline clip-path="url(#clip632)" style="stroke:#000000; stroke-linecap:round; stroke-linejoin:round; stroke-width:2; stroke-opacity:0.1; fill:none" points="1090.2,667.52 1090.2,101.296 "></polyline>
<polyline clip-path="url(#clip632)" style="stroke:#000000; stroke-linecap:round; stroke-linejoin:round; stroke-width:2; stroke-opacity:0.1; fill:none" points="1337.08,667.52 1337.08,101.296 "></polyline>
<polyline clip-path="url(#clip632)" style="stroke:#000000; stroke-linecap:round; stroke-linejoin:round; stroke-width:2; stroke-opacity:0.1; fill:none" points="1583.96,667.52 1583.96,101.296 "></polyline>
<polyline clip-path="url(#clip632)" style="stroke:#000000; stroke-linecap:round; stroke-linejoin:round; stroke-width:2; stroke-opacity:0.1; fill:none" points="180.76,667.52 1752.76,667.52 "></polyline>
<polyline clip-path="url(#clip632)" style="stroke:#000000; stroke-linecap:round; stroke-linejoin:round; stroke-width:2; stroke-opacity:0.1; fill:none" points="180.76,525.964 1752.76,525.964 "></polyline>
<polyline clip-path="url(#clip632)" style="stroke:#000000; stroke-linecap:round; stroke-linejoin:round; stroke-width:2; stroke-opacity:0.1; fill:none" points="180.76,384.408 1752.76,384.408 "></polyline>
<polyline clip-path="url(#clip632)" style="stroke:#000000; stroke-linecap:round; stroke-linejoin:round; stroke-width:2; stroke-opacity:0.1; fill:none" points="180.76,242.852 1752.76,242.852 "></polyline>
<polyline clip-path="url(#clip630)" style="stroke:#000000; stroke-linecap:round; stroke-linejoin:round; stroke-width:4; stroke-opacity:1; fill:none" points="180.76,667.52 1752.76,667.52 "></polyline>
<polyline clip-path="url(#clip630)" style="stroke:#000000; stroke-linecap:round; stroke-linejoin:round; stroke-width:4; stroke-opacity:1; fill:none" points="349.555,667.52 349.555,648.622 "></polyline>
<polyline clip-path="url(#clip630)" style="stroke:#000000; stroke-linecap:round; stroke-linejoin:round; stroke-width:4; stroke-opacity:1; fill:none" points="596.436,667.52 596.436,648.622 "></polyline>
<polyline clip-path="url(#clip630)" style="stroke:#000000; stroke-linecap:round; stroke-linejoin:round; stroke-width:4; stroke-opacity:1; fill:none" points="843.317,667.52 843.317,648.622 "></polyline>
<polyline clip-path="url(#clip630)" style="stroke:#000000; stroke-linecap:round; stroke-linejoin:round; stroke-width:4; stroke-opacity:1; fill:none" points="1090.2,667.52 1090.2,648.622 "></polyline>
<polyline clip-path="url(#clip630)" style="stroke:#000000; stroke-linecap:round; stroke-linejoin:round; stroke-width:4; stroke-opacity:1; fill:none" points="1337.08,667.52 1337.08,648.622 "></polyline>
<polyline clip-path="url(#clip630)" style="stroke:#000000; stroke-linecap:round; stroke-linejoin:round; stroke-width:4; stroke-opacity:1; fill:none" points="1583.96,667.52 1583.96,648.622 "></polyline>
<path clip-path="url(#clip630)" d="M293.838 721.185 L301.477 721.185 L301.477 694.819 L293.167 696.486 L293.167 692.227 L301.43 690.56 L306.106 690.56 L306.106 721.185 L313.745 721.185 L313.745 725.12 L293.838 725.12 L293.838 721.185 Z" fill="#000000" fill-rule="nonzero" fill-opacity="1"></path><path clip-path="url(#clip630)" d="M333.19 693.639 Q329.578 693.639 327.75 697.203 Q325.944 700.745 325.944 707.875 Q325.944 714.981 327.75 718.546 Q329.578 722.087 333.19 722.087 Q336.824 722.087 338.629 718.546 Q340.458 714.981 340.458 707.875 Q340.458 700.745 338.629 697.203 Q336.824 693.639 333.19 693.639 M333.19 689.935 Q339 689.935 342.055 694.541 Q345.134 699.125 345.134 707.875 Q345.134 716.601 342.055 721.208 Q339 725.791 333.19 725.791 Q327.379 725.791 324.301 721.208 Q321.245 716.601 321.245 707.875 Q321.245 699.125 324.301 694.541 Q327.379 689.935 333.19 689.935 Z" fill="#000000" fill-rule="nonzero" fill-opacity="1"></path><path clip-path="url(#clip630)" d="M357.379 721.185 L373.699 721.185 L373.699 725.12 L351.754 725.12 L351.754 721.185 Q354.416 718.43 359 713.8 Q363.606 709.148 364.787 707.805 Q367.032 705.282 367.912 703.546 Q368.814 701.787 368.814 700.097 Q368.814 697.342 366.87 695.606 Q364.949 693.87 361.847 693.87 Q359.648 693.87 357.194 694.634 Q354.764 695.398 351.986 696.949 L351.986 692.227 Q354.81 691.092 357.263 690.514 Q359.717 689.935 361.754 689.935 Q367.125 689.935 370.319 692.62 Q373.513 695.305 373.513 699.796 Q373.513 701.926 372.703 703.847 Q371.916 705.745 369.81 708.338 Q369.231 709.009 366.129 712.226 Q363.027 715.421 357.379 721.185 Z" fill="#000000" fill-rule="nonzero" fill-opacity="1"></path><path clip-path="url(#clip630)" d="M396.361 694.634 L384.555 713.083 L396.361 713.083 L396.361 694.634 M395.134 690.56 L401.013 690.56 L401.013 713.083 L405.944 713.083 L405.944 716.972 L401.013 716.972 L401.013 725.12 L396.361 725.12 L396.361 716.972 L380.759 716.972 L380.759 712.458 L395.134 690.56 Z" fill="#000000" fill-rule="nonzero" fill-opacity="1"></path><path clip-path="url(#clip630)" d="M545.094 721.185 L561.413 721.185 L561.413 725.12 L539.469 725.12 L539.469 721.185 Q542.131 718.43 546.714 713.8 Q551.321 709.148 552.501 707.805 Q554.747 705.282 555.626 703.546 Q556.529 701.787 556.529 700.097 Q556.529 697.342 554.585 695.606 Q552.663 693.87 549.562 693.87 Q547.363 693.87 544.909 694.634 Q542.478 695.398 539.701 696.949 L539.701 692.227 Q542.525 691.092 544.978 690.514 Q547.432 689.935 549.469 689.935 Q554.839 689.935 558.034 692.62 Q561.228 695.305 561.228 699.796 Q561.228 701.926 560.418 703.847 Q559.631 705.745 557.524 708.338 Q556.946 709.009 553.844 712.226 Q550.742 715.421 545.094 721.185 Z" fill="#000000" fill-rule="nonzero" fill-opacity="1"></path><path clip-path="url(#clip630)" d="M581.228 693.639 Q577.617 693.639 575.788 697.203 Q573.983 700.745 573.983 707.875 Q573.983 714.981 575.788 718.546 Q577.617 722.087 581.228 722.087 Q584.862 722.087 586.668 718.546 Q588.497 714.981 588.497 707.875 Q588.497 700.745 586.668 697.203 Q584.862 693.639 581.228 693.639 M581.228 689.935 Q587.038 689.935 590.094 694.541 Q593.172 699.125 593.172 707.875 Q593.172 716.601 590.094 721.208 Q587.038 725.791 581.228 725.791 Q575.418 725.791 572.339 721.208 Q569.284 716.601 569.284 707.875 Q569.284 699.125 572.339 694.541 Q575.418 689.935 581.228 689.935 Z" fill="#000000" fill-rule="nonzero" fill-opacity="1"></path><path clip-path="url(#clip630)" d="M614.237 694.634 L602.432 713.083 L614.237 713.083 L614.237 694.634 M613.01 690.56 L618.89 690.56 L618.89 713.083 L623.82 713.083 L623.82 716.972 L618.89 716.972 L618.89 725.12 L614.237 725.12 L614.237 716.972 L598.635 716.972 L598.635 712.458 L613.01 690.56 Z" fill="#000000" fill-rule="nonzero" fill-opacity="1"></path><path clip-path="url(#clip630)" d="M641.552 708.708 Q638.219 708.708 636.297 710.49 Q634.399 712.273 634.399 715.398 Q634.399 718.523 636.297 720.305 Q638.219 722.087 641.552 722.087 Q644.885 722.087 646.806 720.305 Q648.728 718.5 648.728 715.398 Q648.728 712.273 646.806 710.49 Q644.908 708.708 641.552 708.708 M636.876 706.717 Q633.867 705.976 632.177 703.916 Q630.51 701.856 630.51 698.893 Q630.51 694.75 633.45 692.342 Q636.413 689.935 641.552 689.935 Q646.714 689.935 649.654 692.342 Q652.593 694.75 652.593 698.893 Q652.593 701.856 650.904 703.916 Q649.237 705.976 646.251 706.717 Q649.63 707.504 651.505 709.796 Q653.404 712.088 653.404 715.398 Q653.404 720.421 650.325 723.106 Q647.269 725.791 641.552 725.791 Q635.834 725.791 632.756 723.106 Q629.7 720.421 629.7 715.398 Q629.7 712.088 631.598 709.796 Q633.496 707.504 636.876 706.717 M635.163 699.333 Q635.163 702.018 636.83 703.523 Q638.519 705.027 641.552 705.027 Q644.561 705.027 646.251 703.523 Q647.964 702.018 647.964 699.333 Q647.964 696.648 646.251 695.143 Q644.561 693.639 641.552 693.639 Q638.519 693.639 636.83 695.143 Q635.163 696.648 635.163 699.333 Z" fill="#000000" fill-rule="nonzero" fill-opacity="1"></path><path clip-path="url(#clip630)" d="M801.246 694.634 L789.44 713.083 L801.246 713.083 L801.246 694.634 M800.019 690.56 L805.899 690.56 L805.899 713.083 L810.829 713.083 L810.829 716.972 L805.899 716.972 L805.899 725.12 L801.246 725.12 L801.246 716.972 L785.644 716.972 L785.644 712.458 L800.019 690.56 Z" fill="#000000" fill-rule="nonzero" fill-opacity="1"></path><path clip-path="url(#clip630)" d="M828.561 693.639 Q824.949 693.639 823.121 697.203 Q821.315 700.745 821.315 707.875 Q821.315 714.981 823.121 718.546 Q824.949 722.087 828.561 722.087 Q832.195 722.087 834 718.546 Q835.829 714.981 835.829 707.875 Q835.829 700.745 834 697.203 Q832.195 693.639 828.561 693.639 M828.561 689.935 Q834.371 689.935 837.426 694.541 Q840.505 699.125 840.505 707.875 Q840.505 716.601 837.426 721.208 Q834.371 725.791 828.561 725.791 Q822.75 725.791 819.672 721.208 Q816.616 716.601 816.616 707.875 Q816.616 699.125 819.672 694.541 Q822.75 689.935 828.561 689.935 Z" fill="#000000" fill-rule="nonzero" fill-opacity="1"></path><path clip-path="url(#clip630)" d="M848.861 724.402 L848.861 720.143 Q850.621 720.976 852.426 721.416 Q854.232 721.856 855.968 721.856 Q860.597 721.856 863.028 718.754 Q865.482 715.629 865.829 709.287 Q864.486 711.277 862.426 712.342 Q860.366 713.407 857.866 713.407 Q852.681 713.407 849.648 710.282 Q846.639 707.134 846.639 701.694 Q846.639 696.37 849.787 693.152 Q852.935 689.935 858.167 689.935 Q864.162 689.935 867.31 694.541 Q870.482 699.125 870.482 707.875 Q870.482 716.046 866.593 720.93 Q862.727 725.791 856.176 725.791 Q854.417 725.791 852.611 725.444 Q850.806 725.097 848.861 724.402 M858.167 709.75 Q861.315 709.75 863.144 707.597 Q864.996 705.444 864.996 701.694 Q864.996 697.967 863.144 695.814 Q861.315 693.639 858.167 693.639 Q855.019 693.639 853.167 695.814 Q851.338 697.967 851.338 701.694 Q851.338 705.444 853.167 707.597 Q855.019 709.75 858.167 709.75 Z" fill="#000000" fill-rule="nonzero" fill-opacity="1"></path><path clip-path="url(#clip630)" d="M889.463 705.976 Q886.315 705.976 884.463 708.129 Q882.634 710.282 882.634 714.032 Q882.634 717.759 884.463 719.935 Q886.315 722.087 889.463 722.087 Q892.611 722.087 894.44 719.935 Q896.292 717.759 896.292 714.032 Q896.292 710.282 894.44 708.129 Q892.611 705.976 889.463 705.976 M898.745 691.324 L898.745 695.583 Q896.986 694.75 895.181 694.31 Q893.398 693.87 891.639 693.87 Q887.009 693.87 884.556 696.995 Q882.125 700.12 881.778 706.439 Q883.144 704.426 885.204 703.361 Q887.264 702.273 889.741 702.273 Q894.949 702.273 897.958 705.444 Q900.991 708.592 900.991 714.032 Q900.991 719.356 897.843 722.574 Q894.694 725.791 889.463 725.791 Q883.468 725.791 880.296 721.208 Q877.125 716.601 877.125 707.875 Q877.125 699.68 881.014 694.819 Q884.903 689.935 891.454 689.935 Q893.213 689.935 894.995 690.282 Q896.801 690.629 898.745 691.324 Z" fill="#000000" fill-rule="nonzero" fill-opacity="1"></path><path clip-path="url(#clip630)" d="M1045.71 708.708 Q1042.37 708.708 1040.45 710.49 Q1038.56 712.273 1038.56 715.398 Q1038.56 718.523 1040.45 720.305 Q1042.37 722.087 1045.71 722.087 Q1049.04 722.087 1050.96 720.305 Q1052.88 718.5 1052.88 715.398 Q1052.88 712.273 1050.96 710.49 Q1049.06 708.708 1045.71 708.708 M1041.03 706.717 Q1038.02 705.976 1036.33 703.916 Q1034.67 701.856 1034.67 698.893 Q1034.67 694.75 1037.61 692.342 Q1040.57 689.935 1045.71 689.935 Q1050.87 689.935 1053.81 692.342 Q1056.75 694.75 1056.75 698.893 Q1056.75 701.856 1055.06 703.916 Q1053.39 705.976 1050.41 706.717 Q1053.79 707.504 1055.66 709.796 Q1057.56 712.088 1057.56 715.398 Q1057.56 720.421 1054.48 723.106 Q1051.43 725.791 1045.71 725.791 Q1039.99 725.791 1036.91 723.106 Q1033.86 720.421 1033.86 715.398 Q1033.86 712.088 1035.75 709.796 Q1037.65 707.504 1041.03 706.717 M1039.32 699.333 Q1039.32 702.018 1040.99 703.523 Q1042.68 705.027 1045.71 705.027 Q1048.72 705.027 1050.41 703.523 Q1052.12 702.018 1052.12 699.333 Q1052.12 696.648 1050.41 695.143 Q1048.72 693.639 1045.71 693.639 Q1042.68 693.639 1040.99 695.143 Q1039.32 696.648 1039.32 699.333 Z" fill="#000000" fill-rule="nonzero" fill-opacity="1"></path><path clip-path="url(#clip630)" d="M1066.68 721.185 L1074.32 721.185 L1074.32 694.819 L1066.01 696.486 L1066.01 692.227 L1074.27 690.56 L1078.95 690.56 L1078.95 721.185 L1086.59 721.185 L1086.59 725.12 L1066.68 725.12 L1066.68 721.185 Z" fill="#000000" fill-rule="nonzero" fill-opacity="1"></path><path clip-path="url(#clip630)" d="M1096.17 724.402 L1096.17 720.143 Q1097.93 720.976 1099.74 721.416 Q1101.54 721.856 1103.28 721.856 Q1107.91 721.856 1110.34 718.754 Q1112.79 715.629 1113.14 709.287 Q1111.8 711.277 1109.74 712.342 Q1107.68 713.407 1105.18 713.407 Q1099.99 713.407 1096.96 710.282 Q1093.95 707.134 1093.95 701.694 Q1093.95 696.37 1097.1 693.152 Q1100.24 689.935 1105.48 689.935 Q1111.47 689.935 1114.62 694.541 Q1117.79 699.125 1117.79 707.875 Q1117.79 716.046 1113.9 720.93 Q1110.04 725.791 1103.49 725.791 Q1101.73 725.791 1099.92 725.444 Q1098.12 725.097 1096.17 724.402 M1105.48 709.75 Q1108.62 709.75 1110.45 707.597 Q1112.3 705.444 1112.3 701.694 Q1112.3 697.967 1110.45 695.814 Q1108.62 693.639 1105.48 693.639 Q1102.33 693.639 1100.48 695.814 Q1098.65 697.967 1098.65 701.694 Q1098.65 705.444 1100.48 707.597 Q1102.33 709.75 1105.48 709.75 Z" fill="#000000" fill-rule="nonzero" fill-opacity="1"></path><path clip-path="url(#clip630)" d="M1130.22 721.185 L1146.54 721.185 L1146.54 725.12 L1124.6 725.12 L1124.6 721.185 Q1127.26 718.43 1131.84 713.8 Q1136.45 709.148 1137.63 707.805 Q1139.87 705.282 1140.75 703.546 Q1141.66 701.787 1141.66 700.097 Q1141.66 697.342 1139.71 695.606 Q1137.79 693.87 1134.69 693.87 Q1132.49 693.87 1130.04 694.634 Q1127.61 695.398 1124.83 696.949 L1124.83 692.227 Q1127.65 691.092 1130.11 690.514 Q1132.56 689.935 1134.6 689.935 Q1139.97 689.935 1143.16 692.62 Q1146.36 695.305 1146.36 699.796 Q1146.36 701.926 1145.55 703.847 Q1144.76 705.745 1142.65 708.338 Q1142.07 709.009 1138.97 712.226 Q1135.87 715.421 1130.22 721.185 Z" fill="#000000" fill-rule="nonzero" fill-opacity="1"></path><path clip-path="url(#clip630)" d="M1266.28 721.185 L1273.92 721.185 L1273.92 694.819 L1265.61 696.486 L1265.61 692.227 L1273.87 690.56 L1278.55 690.56 L1278.55 721.185 L1286.19 721.185 L1286.19 725.12 L1266.28 725.12 L1266.28 721.185 Z" fill="#000000" fill-rule="nonzero" fill-opacity="1"></path><path clip-path="url(#clip630)" d="M1306.21 705.976 Q1303.06 705.976 1301.21 708.129 Q1299.38 710.282 1299.38 714.032 Q1299.38 717.759 1301.21 719.935 Q1303.06 722.087 1306.21 722.087 Q1309.36 722.087 1311.19 719.935 Q1313.04 717.759 1313.04 714.032 Q1313.04 710.282 1311.19 708.129 Q1309.36 705.976 1306.21 705.976 M1315.49 691.324 L1315.49 695.583 Q1313.73 694.75 1311.93 694.31 Q1310.15 693.87 1308.39 693.87 Q1303.76 693.87 1301.3 696.995 Q1298.87 700.12 1298.53 706.439 Q1299.89 704.426 1301.95 703.361 Q1304.01 702.273 1306.49 702.273 Q1311.7 702.273 1314.71 705.444 Q1317.74 708.592 1317.74 714.032 Q1317.74 719.356 1314.59 722.574 Q1311.44 725.791 1306.21 725.791 Q1300.22 725.791 1297.05 721.208 Q1293.87 716.601 1293.87 707.875 Q1293.87 699.68 1297.76 694.819 Q1301.65 689.935 1308.2 689.935 Q1309.96 689.935 1311.74 690.282 Q1313.55 690.629 1315.49 691.324 Z" fill="#000000" fill-rule="nonzero" fill-opacity="1"></path><path clip-path="url(#clip630)" d="M1339.96 706.486 Q1343.32 707.203 1345.19 709.472 Q1347.09 711.74 1347.09 715.074 Q1347.09 720.189 1343.57 722.99 Q1340.05 725.791 1333.57 725.791 Q1331.4 725.791 1329.08 725.351 Q1326.79 724.935 1324.34 724.078 L1324.34 719.564 Q1326.28 720.699 1328.6 721.277 Q1330.91 721.856 1333.43 721.856 Q1337.83 721.856 1340.12 720.12 Q1342.44 718.384 1342.44 715.074 Q1342.44 712.018 1340.29 710.305 Q1338.16 708.569 1334.34 708.569 L1330.31 708.569 L1330.31 704.726 L1334.52 704.726 Q1337.97 704.726 1339.8 703.361 Q1341.63 701.972 1341.63 699.379 Q1341.63 696.717 1339.73 695.305 Q1337.86 693.87 1334.34 693.87 Q1332.42 693.87 1330.22 694.287 Q1328.02 694.703 1325.38 695.583 L1325.38 691.416 Q1328.04 690.676 1330.36 690.305 Q1332.69 689.935 1334.75 689.935 Q1340.08 689.935 1343.18 692.365 Q1346.28 694.773 1346.28 698.893 Q1346.28 701.764 1344.64 703.754 Q1342.99 705.722 1339.96 706.486 Z" fill="#000000" fill-rule="nonzero" fill-opacity="1"></path><path clip-path="url(#clip630)" d="M1365.96 708.708 Q1362.62 708.708 1360.7 710.49 Q1358.8 712.273 1358.8 715.398 Q1358.8 718.523 1360.7 720.305 Q1362.62 722.087 1365.96 722.087 Q1369.29 722.087 1371.21 720.305 Q1373.13 718.5 1373.13 715.398 Q1373.13 712.273 1371.21 710.49 Q1369.31 708.708 1365.96 708.708 M1361.28 706.717 Q1358.27 705.976 1356.58 703.916 Q1354.92 701.856 1354.92 698.893 Q1354.92 694.75 1357.86 692.342 Q1360.82 689.935 1365.96 689.935 Q1371.12 689.935 1374.06 692.342 Q1377 694.75 1377 698.893 Q1377 701.856 1375.31 703.916 Q1373.64 705.976 1370.66 706.717 Q1374.04 707.504 1375.91 709.796 Q1377.81 712.088 1377.81 715.398 Q1377.81 720.421 1374.73 723.106 Q1371.67 725.791 1365.96 725.791 Q1360.24 725.791 1357.16 723.106 Q1354.11 720.421 1354.11 715.398 Q1354.11 712.088 1356 709.796 Q1357.9 707.504 1361.28 706.717 M1359.57 699.333 Q1359.57 702.018 1361.23 703.523 Q1362.92 705.027 1365.96 705.027 Q1368.97 705.027 1370.66 703.523 Q1372.37 702.018 1372.37 699.333 Q1372.37 696.648 1370.66 695.143 Q1368.97 693.639 1365.96 693.639 Q1362.92 693.639 1361.23 695.143 Q1359.57 696.648 1359.57 699.333 Z" fill="#000000" fill-rule="nonzero" fill-opacity="1"></path><path clip-path="url(#clip630)" d="M1398.97 694.634 L1387.16 713.083 L1398.97 713.083 L1398.97 694.634 M1397.74 690.56 L1403.62 690.56 L1403.62 713.083 L1408.55 713.083 L1408.55 716.972 L1403.62 716.972 L1403.62 725.12 L1398.97 725.12 L1398.97 716.972 L1383.36 716.972 L1383.36 712.458 L1397.74 690.56 Z" fill="#000000" fill-rule="nonzero" fill-opacity="1"></path><path clip-path="url(#clip630)" d="M1527.61 706.486 Q1530.96 707.203 1532.84 709.472 Q1534.74 711.74 1534.74 715.074 Q1534.74 720.189 1531.22 722.99 Q1527.7 725.791 1521.22 725.791 Q1519.04 725.791 1516.73 725.351 Q1514.44 724.935 1511.98 724.078 L1511.98 719.564 Q1513.93 720.699 1516.24 721.277 Q1518.56 721.856 1521.08 721.856 Q1525.48 721.856 1527.77 720.12 Q1530.08 718.384 1530.08 715.074 Q1530.08 712.018 1527.93 710.305 Q1525.8 708.569 1521.98 708.569 L1517.95 708.569 L1517.95 704.726 L1522.17 704.726 Q1525.62 704.726 1527.44 703.361 Q1529.27 701.972 1529.27 699.379 Q1529.27 696.717 1527.38 695.305 Q1525.5 693.87 1521.98 693.87 Q1520.06 693.87 1517.86 694.287 Q1515.66 694.703 1513.02 695.583 L1513.02 691.416 Q1515.69 690.676 1518 690.305 Q1520.34 689.935 1522.4 689.935 Q1527.72 689.935 1530.82 692.365 Q1533.93 694.773 1533.93 698.893 Q1533.93 701.764 1532.28 703.754 Q1530.64 705.722 1527.61 706.486 Z" fill="#000000" fill-rule="nonzero" fill-opacity="1"></path><path clip-path="url(#clip630)" d="M1547.63 721.185 L1563.95 721.185 L1563.95 725.12 L1542.01 725.12 L1542.01 721.185 Q1544.67 718.43 1549.25 713.8 Q1553.86 709.148 1555.04 707.805 Q1557.28 705.282 1558.16 703.546 Q1559.07 701.787 1559.07 700.097 Q1559.07 697.342 1557.12 695.606 Q1555.2 693.87 1552.1 693.87 Q1549.9 693.87 1547.44 694.634 Q1545.01 695.398 1542.24 696.949 L1542.24 692.227 Q1545.06 691.092 1547.51 690.514 Q1549.97 689.935 1552 689.935 Q1557.38 689.935 1560.57 692.62 Q1563.76 695.305 1563.76 699.796 Q1563.76 701.926 1562.95 703.847 Q1562.17 705.745 1560.06 708.338 Q1559.48 709.009 1556.38 712.226 Q1553.28 715.421 1547.63 721.185 Z" fill="#000000" fill-rule="nonzero" fill-opacity="1"></path><path clip-path="url(#clip630)" d="M1572.58 690.56 L1594.81 690.56 L1594.81 692.551 L1582.26 725.12 L1577.38 725.12 L1589.18 694.495 L1572.58 694.495 L1572.58 690.56 Z" fill="#000000" fill-rule="nonzero" fill-opacity="1"></path><path clip-path="url(#clip630)" d="M1614.5 705.976 Q1611.36 705.976 1609.5 708.129 Q1607.68 710.282 1607.68 714.032 Q1607.68 717.759 1609.5 719.935 Q1611.36 722.087 1614.5 722.087 Q1617.65 722.087 1619.48 719.935 Q1621.33 717.759 1621.33 714.032 Q1621.33 710.282 1619.48 708.129 Q1617.65 705.976 1614.5 705.976 M1623.79 691.324 L1623.79 695.583 Q1622.03 694.75 1620.22 694.31 Q1618.44 693.87 1616.68 693.87 Q1612.05 693.87 1609.6 696.995 Q1607.17 700.12 1606.82 706.439 Q1608.19 704.426 1610.25 703.361 Q1612.31 702.273 1614.78 702.273 Q1619.99 702.273 1623 705.444 Q1626.03 708.592 1626.03 714.032 Q1626.03 719.356 1622.88 722.574 Q1619.74 725.791 1614.5 725.791 Q1608.51 725.791 1605.34 721.208 Q1602.17 716.601 1602.17 707.875 Q1602.17 699.68 1606.06 694.819 Q1609.94 689.935 1616.5 689.935 Q1618.25 689.935 1620.04 690.282 Q1621.84 690.629 1623.79 691.324 Z" fill="#000000" fill-rule="nonzero" fill-opacity="1"></path><path clip-path="url(#clip630)" d="M1644.09 708.708 Q1640.75 708.708 1638.83 710.49 Q1636.94 712.273 1636.94 715.398 Q1636.94 718.523 1638.83 720.305 Q1640.75 722.087 1644.09 722.087 Q1647.42 722.087 1649.34 720.305 Q1651.26 718.5 1651.26 715.398 Q1651.26 712.273 1649.34 710.49 Q1647.44 708.708 1644.09 708.708 M1639.41 706.717 Q1636.4 705.976 1634.71 703.916 Q1633.05 701.856 1633.05 698.893 Q1633.05 694.75 1635.99 692.342 Q1638.95 689.935 1644.09 689.935 Q1649.25 689.935 1652.19 692.342 Q1655.13 694.75 1655.13 698.893 Q1655.13 701.856 1653.44 703.916 Q1651.77 705.976 1648.79 706.717 Q1652.17 707.504 1654.04 709.796 Q1655.94 712.088 1655.94 715.398 Q1655.94 720.421 1652.86 723.106 Q1649.81 725.791 1644.09 725.791 Q1638.37 725.791 1635.29 723.106 Q1632.24 720.421 1632.24 715.398 Q1632.24 712.088 1634.13 709.796 Q1636.03 707.504 1639.41 706.717 M1637.7 699.333 Q1637.7 702.018 1639.37 703.523 Q1641.06 705.027 1644.09 705.027 Q1647.1 705.027 1648.79 703.523 Q1650.5 702.018 1650.5 699.333 Q1650.5 696.648 1648.79 695.143 Q1647.1 693.639 1644.09 693.639 Q1641.06 693.639 1639.37 695.143 Q1637.7 696.648 1637.7 699.333 Z" fill="#000000" fill-rule="nonzero" fill-opacity="1"></path><polyline clip-path="url(#clip630)" style="stroke:#000000; stroke-linecap:round; stroke-linejoin:round; stroke-width:4; stroke-opacity:1; fill:none" points="180.76,667.52 180.76,101.296 "></polyline>
<polyline clip-path="url(#clip630)" style="stroke:#000000; stroke-linecap:round; stroke-linejoin:round; stroke-width:4; stroke-opacity:1; fill:none" points="180.76,667.52 199.658,667.52 "></polyline>
<polyline clip-path="url(#clip630)" style="stroke:#000000; stroke-linecap:round; stroke-linejoin:round; stroke-width:4; stroke-opacity:1; fill:none" points="180.76,525.964 199.658,525.964 "></polyline>
<polyline clip-path="url(#clip630)" style="stroke:#000000; stroke-linecap:round; stroke-linejoin:round; stroke-width:4; stroke-opacity:1; fill:none" points="180.76,384.408 199.658,384.408 "></polyline>
<polyline clip-path="url(#clip630)" style="stroke:#000000; stroke-linecap:round; stroke-linejoin:round; stroke-width:4; stroke-opacity:1; fill:none" points="180.76,242.852 199.658,242.852 "></polyline>
<path clip-path="url(#clip630)" d="M66.4226 653.319 Q62.8115 653.319 60.9828 656.883 Q59.1773 660.425 59.1773 667.555 Q59.1773 674.661 60.9828 678.226 Q62.8115 681.767 66.4226 681.767 Q70.0569 681.767 71.8624 678.226 Q73.6911 674.661 73.6911 667.555 Q73.6911 660.425 71.8624 656.883 Q70.0569 653.319 66.4226 653.319 M66.4226 649.615 Q72.2328 649.615 75.2883 654.221 Q78.367 658.805 78.367 667.555 Q78.367 676.281 75.2883 680.888 Q72.2328 685.471 66.4226 685.471 Q60.6125 685.471 57.5338 680.888 Q54.4782 676.281 54.4782 667.555 Q54.4782 658.805 57.5338 654.221 Q60.6125 649.615 66.4226 649.615 Z" fill="#000000" fill-rule="nonzero" fill-opacity="1"></path><path clip-path="url(#clip630)" d="M86.5845 678.92 L91.4688 678.92 L91.4688 684.8 L86.5845 684.8 L86.5845 678.92 Z" fill="#000000" fill-rule="nonzero" fill-opacity="1"></path><path clip-path="url(#clip630)" d="M111.654 653.319 Q108.043 653.319 106.214 656.883 Q104.409 660.425 104.409 667.555 Q104.409 674.661 106.214 678.226 Q108.043 681.767 111.654 681.767 Q115.288 681.767 117.094 678.226 Q118.922 674.661 118.922 667.555 Q118.922 660.425 117.094 656.883 Q115.288 653.319 111.654 653.319 M111.654 649.615 Q117.464 649.615 120.52 654.221 Q123.598 658.805 123.598 667.555 Q123.598 676.281 120.52 680.888 Q117.464 685.471 111.654 685.471 Q105.844 685.471 102.765 680.888 Q99.7095 676.281 99.7095 667.555 Q99.7095 658.805 102.765 654.221 Q105.844 649.615 111.654 649.615 Z" fill="#000000" fill-rule="nonzero" fill-opacity="1"></path><path clip-path="url(#clip630)" d="M141.816 653.319 Q138.205 653.319 136.376 656.883 Q134.57 660.425 134.57 667.555 Q134.57 674.661 136.376 678.226 Q138.205 681.767 141.816 681.767 Q145.45 681.767 147.256 678.226 Q149.084 674.661 149.084 667.555 Q149.084 660.425 147.256 656.883 Q145.45 653.319 141.816 653.319 M141.816 649.615 Q147.626 649.615 150.681 654.221 Q153.76 658.805 153.76 667.555 Q153.76 676.281 150.681 680.888 Q147.626 685.471 141.816 685.471 Q136.006 685.471 132.927 680.888 Q129.871 676.281 129.871 667.555 Q129.871 658.805 132.927 654.221 Q136.006 649.615 141.816 649.615 Z" fill="#000000" fill-rule="nonzero" fill-opacity="1"></path><path clip-path="url(#clip630)" d="M68.0198 511.763 Q64.4087 511.763 62.58 515.327 Q60.7745 518.869 60.7745 525.999 Q60.7745 533.105 62.58 536.67 Q64.4087 540.212 68.0198 540.212 Q71.6541 540.212 73.4596 536.67 Q75.2883 533.105 75.2883 525.999 Q75.2883 518.869 73.4596 515.327 Q71.6541 511.763 68.0198 511.763 M68.0198 508.059 Q73.83 508.059 76.8855 512.665 Q79.9642 517.249 79.9642 525.999 Q79.9642 534.725 76.8855 539.332 Q73.83 543.915 68.0198 543.915 Q62.2097 543.915 59.131 539.332 Q56.0754 534.725 56.0754 525.999 Q56.0754 517.249 59.131 512.665 Q62.2097 508.059 68.0198 508.059 Z" fill="#000000" fill-rule="nonzero" fill-opacity="1"></path><path clip-path="url(#clip630)" d="M88.1818 537.364 L93.066 537.364 L93.066 543.244 L88.1818 543.244 L88.1818 537.364 Z" fill="#000000" fill-rule="nonzero" fill-opacity="1"></path><path clip-path="url(#clip630)" d="M113.251 511.763 Q109.64 511.763 107.811 515.327 Q106.006 518.869 106.006 525.999 Q106.006 533.105 107.811 536.67 Q109.64 540.212 113.251 540.212 Q116.885 540.212 118.691 536.67 Q120.52 533.105 120.52 525.999 Q120.52 518.869 118.691 515.327 Q116.885 511.763 113.251 511.763 M113.251 508.059 Q119.061 508.059 122.117 512.665 Q125.195 517.249 125.195 525.999 Q125.195 534.725 122.117 539.332 Q119.061 543.915 113.251 543.915 Q107.441 543.915 104.362 539.332 Q101.307 534.725 101.307 525.999 Q101.307 517.249 104.362 512.665 Q107.441 508.059 113.251 508.059 Z" fill="#000000" fill-rule="nonzero" fill-opacity="1"></path><path clip-path="url(#clip630)" d="M137.441 539.309 L153.76 539.309 L153.76 543.244 L131.816 543.244 L131.816 539.309 Q134.478 536.554 139.061 531.925 Q143.668 527.272 144.848 525.929 Q147.093 523.406 147.973 521.67 Q148.876 519.911 148.876 518.221 Q148.876 515.466 146.931 513.73 Q145.01 511.994 141.908 511.994 Q139.709 511.994 137.256 512.758 Q134.825 513.522 132.047 515.073 L132.047 510.351 Q134.871 509.216 137.325 508.638 Q139.779 508.059 141.816 508.059 Q147.186 508.059 150.38 510.744 Q153.575 513.429 153.575 517.92 Q153.575 520.05 152.765 521.971 Q151.978 523.869 149.871 526.462 Q149.293 527.133 146.191 530.35 Q143.089 533.545 137.441 539.309 Z" fill="#000000" fill-rule="nonzero" fill-opacity="1"></path><path clip-path="url(#clip630)" d="M65.9365 370.207 Q62.3254 370.207 60.4967 373.771 Q58.6912 377.313 58.6912 384.443 Q58.6912 391.549 60.4967 395.114 Q62.3254 398.656 65.9365 398.656 Q69.5707 398.656 71.3763 395.114 Q73.205 391.549 73.205 384.443 Q73.205 377.313 71.3763 373.771 Q69.5707 370.207 65.9365 370.207 M65.9365 366.503 Q71.7467 366.503 74.8022 371.109 Q77.8809 375.693 77.8809 384.443 Q77.8809 393.17 74.8022 397.776 Q71.7467 402.359 65.9365 402.359 Q60.1264 402.359 57.0477 397.776 Q53.9921 393.17 53.9921 384.443 Q53.9921 375.693 57.0477 371.109 Q60.1264 366.503 65.9365 366.503 Z" fill="#000000" fill-rule="nonzero" fill-opacity="1"></path><path clip-path="url(#clip630)" d="M86.0984 395.808 L90.9827 395.808 L90.9827 401.688 L86.0984 401.688 L86.0984 395.808 Z" fill="#000000" fill-rule="nonzero" fill-opacity="1"></path><path clip-path="url(#clip630)" d="M111.168 370.207 Q107.557 370.207 105.728 373.771 Q103.922 377.313 103.922 384.443 Q103.922 391.549 105.728 395.114 Q107.557 398.656 111.168 398.656 Q114.802 398.656 116.608 395.114 Q118.436 391.549 118.436 384.443 Q118.436 377.313 116.608 373.771 Q114.802 370.207 111.168 370.207 M111.168 366.503 Q116.978 366.503 120.033 371.109 Q123.112 375.693 123.112 384.443 Q123.112 393.17 120.033 397.776 Q116.978 402.359 111.168 402.359 Q105.358 402.359 102.279 397.776 Q99.2234 393.17 99.2234 384.443 Q99.2234 375.693 102.279 371.109 Q105.358 366.503 111.168 366.503 Z" fill="#000000" fill-rule="nonzero" fill-opacity="1"></path><path clip-path="url(#clip630)" d="M144.177 371.202 L132.371 389.651 L144.177 389.651 L144.177 371.202 M142.95 367.128 L148.83 367.128 L148.83 389.651 L153.76 389.651 L153.76 393.54 L148.83 393.54 L148.83 401.688 L144.177 401.688 L144.177 393.54 L128.575 393.54 L128.575 389.026 L142.95 367.128 Z" fill="#000000" fill-rule="nonzero" fill-opacity="1"></path><path clip-path="url(#clip630)" d="M66.2606 228.651 Q62.6495 228.651 60.8208 232.216 Q59.0152 235.757 59.0152 242.887 Q59.0152 249.993 60.8208 253.558 Q62.6495 257.1 66.2606 257.1 Q69.8948 257.1 71.7004 253.558 Q73.5291 249.993 73.5291 242.887 Q73.5291 235.757 71.7004 232.216 Q69.8948 228.651 66.2606 228.651 M66.2606 224.947 Q72.0707 224.947 75.1263 229.554 Q78.205 234.137 78.205 242.887 Q78.205 251.614 75.1263 256.22 Q72.0707 260.803 66.2606 260.803 Q60.4504 260.803 57.3717 256.22 Q54.3162 251.614 54.3162 242.887 Q54.3162 234.137 57.3717 229.554 Q60.4504 224.947 66.2606 224.947 Z" fill="#000000" fill-rule="nonzero" fill-opacity="1"></path><path clip-path="url(#clip630)" d="M86.4225 254.252 L91.3067 254.252 L91.3067 260.132 L86.4225 260.132 L86.4225 254.252 Z" fill="#000000" fill-rule="nonzero" fill-opacity="1"></path><path clip-path="url(#clip630)" d="M111.492 228.651 Q107.881 228.651 106.052 232.216 Q104.246 235.757 104.246 242.887 Q104.246 249.993 106.052 253.558 Q107.881 257.1 111.492 257.1 Q115.126 257.1 116.932 253.558 Q118.76 249.993 118.76 242.887 Q118.76 235.757 116.932 232.216 Q115.126 228.651 111.492 228.651 M111.492 224.947 Q117.302 224.947 120.358 229.554 Q123.436 234.137 123.436 242.887 Q123.436 251.614 120.358 256.22 Q117.302 260.803 111.492 260.803 Q105.682 260.803 102.603 256.22 Q99.5474 251.614 99.5474 242.887 Q99.5474 234.137 102.603 229.554 Q105.682 224.947 111.492 224.947 Z" fill="#000000" fill-rule="nonzero" fill-opacity="1"></path><path clip-path="url(#clip630)" d="M142.232 240.989 Q139.084 240.989 137.232 243.141 Q135.404 245.294 135.404 249.044 Q135.404 252.771 137.232 254.947 Q139.084 257.1 142.232 257.1 Q145.381 257.1 147.209 254.947 Q149.061 252.771 149.061 249.044 Q149.061 245.294 147.209 243.141 Q145.381 240.989 142.232 240.989 M151.515 226.336 L151.515 230.595 Q149.756 229.762 147.95 229.322 Q146.168 228.882 144.408 228.882 Q139.779 228.882 137.325 232.007 Q134.894 235.132 134.547 241.452 Q135.913 239.438 137.973 238.373 Q140.033 237.285 142.51 237.285 Q147.718 237.285 150.728 240.456 Q153.76 243.604 153.76 249.044 Q153.76 254.368 150.612 257.586 Q147.464 260.803 142.232 260.803 Q136.237 260.803 133.066 256.22 Q129.894 251.614 129.894 242.887 Q129.894 234.692 133.783 229.831 Q137.672 224.947 144.223 224.947 Q145.982 224.947 147.765 225.294 Q149.57 225.642 151.515 226.336 Z" fill="#000000" fill-rule="nonzero" fill-opacity="1"></path><path clip-path="url(#clip630)" d="M767.818 14.0809 L767.818 22.0612 Q763.16 19.8332 759.028 18.7395 Q754.896 17.6457 751.047 17.6457 Q744.363 17.6457 740.718 20.2383 Q737.112 22.8309 737.112 27.611 Q737.112 31.6214 739.502 33.6873 Q741.933 35.7128 748.657 36.9686 L753.599 37.9813 Q762.754 39.7232 767.089 44.1387 Q771.464 48.5136 771.464 55.8863 Q771.464 64.6767 765.55 69.2137 Q759.676 73.7508 748.293 73.7508 Q743.999 73.7508 739.138 72.7785 Q734.317 71.8063 729.132 69.9024 L729.132 61.4765 Q734.115 64.2716 738.895 65.6895 Q743.675 67.1073 748.293 67.1073 Q755.301 67.1073 759.109 64.3527 Q762.917 61.598 762.917 56.4939 Q762.917 52.0379 760.162 49.5264 Q757.448 47.0148 751.209 45.759 L746.227 44.7868 Q737.072 42.9639 732.98 39.075 Q728.889 35.1862 728.889 28.2591 Q728.889 20.2383 734.52 15.6203 Q740.191 11.0023 750.116 11.0023 Q754.369 11.0023 758.785 11.7719 Q763.2 12.5416 767.818 14.0809 Z" fill="#000000" fill-rule="nonzero" fill-opacity="1"></path><path clip-path="url(#clip630)" d="M811.244 34.9026 L863.176 34.9026 L863.176 41.7081 L811.244 41.7081 L811.244 34.9026 M811.244 51.4303 L863.176 51.4303 L863.176 58.3168 L811.244 58.3168 L811.244 51.4303 Z" fill="#000000" fill-rule="nonzero" fill-opacity="1"></path><path clip-path="url(#clip630)" d="M940.751 80.2727 L940.751 86.106 L938.24 86.106 Q928.153 86.106 924.71 83.1084 Q921.307 80.1107 921.307 71.1582 L921.307 61.4765 Q921.307 55.3597 919.119 53.0101 Q916.932 50.6606 911.18 50.6606 L908.709 50.6606 L908.709 44.8678 L911.18 44.8678 Q916.972 44.8678 919.119 42.5588 Q921.307 40.2093 921.307 34.1734 L921.307 24.4513 Q921.307 15.4988 924.71 12.5416 Q928.153 9.54393 938.24 9.54393 L940.751 9.54393 L940.751 15.3367 L937.997 15.3367 Q932.285 15.3367 930.543 17.1191 Q928.801 18.9015 928.801 24.6133 L928.801 34.6595 Q928.801 41.0195 926.938 43.8956 Q925.115 46.7717 920.659 47.7845 Q925.155 48.8782 926.978 51.7544 Q928.801 54.6305 928.801 60.9499 L928.801 70.9961 Q928.801 76.7079 930.543 78.4903 Q932.285 80.2727 937.997 80.2727 L940.751 80.2727 Z" fill="#000000" fill-rule="nonzero" fill-opacity="1"></path><path clip-path="url(#clip630)" d="M961.411 65.6895 L974.779 65.6895 L974.779 19.5497 L960.236 22.4663 L960.236 15.0127 L974.698 12.096 L982.881 12.096 L982.881 65.6895 L996.249 65.6895 L996.249 72.576 L961.411 72.576 L961.411 65.6895 Z" fill="#000000" fill-rule="nonzero" fill-opacity="1"></path><path clip-path="url(#clip630)" d="M1013.63 62.2867 L1022.17 62.2867 L1022.17 69.2543 L1015.53 82.2172 L1010.31 82.2172 L1013.63 69.2543 L1013.63 62.2867 Z" fill="#000000" fill-rule="nonzero" fill-opacity="1"></path><path clip-path="url(#clip630)" d="M1072.57 65.6895 L1101.13 65.6895 L1101.13 72.576 L1062.72 72.576 L1062.72 65.6895 Q1067.38 60.8689 1075.4 52.7671 Q1083.46 44.6248 1085.53 42.2752 Q1089.46 37.8598 1091 34.8216 Q1092.58 31.7429 1092.58 28.7857 Q1092.58 23.9651 1089.18 20.927 Q1085.81 17.8888 1080.39 17.8888 Q1076.54 17.8888 1072.24 19.2256 Q1067.99 20.5624 1063.13 23.2765 L1063.13 15.0127 Q1068.07 13.0277 1072.37 12.015 Q1076.66 11.0023 1080.22 11.0023 Q1089.62 11.0023 1095.21 15.7013 Q1100.8 20.4004 1100.8 28.2591 Q1100.8 31.9859 1099.38 35.3482 Q1098.01 38.6699 1094.32 43.2069 Q1093.31 44.3817 1087.88 50.0125 Q1082.45 55.6027 1072.57 65.6895 Z" fill="#000000" fill-rule="nonzero" fill-opacity="1"></path><path clip-path="url(#clip630)" d="M1135.8 17.4837 Q1129.48 17.4837 1126.28 23.7221 Q1123.12 29.92 1123.12 42.3968 Q1123.12 54.833 1126.28 61.0714 Q1129.48 67.2693 1135.8 67.2693 Q1142.16 67.2693 1145.32 61.0714 Q1148.52 54.833 1148.52 42.3968 Q1148.52 29.92 1145.32 23.7221 Q1142.16 17.4837 1135.8 17.4837 M1135.8 11.0023 Q1145.97 11.0023 1151.32 19.0636 Q1156.7 27.0843 1156.7 42.3968 Q1156.7 57.6687 1151.32 65.73 Q1145.97 73.7508 1135.8 73.7508 Q1125.63 73.7508 1120.25 65.73 Q1114.9 57.6687 1114.9 42.3968 Q1114.9 27.0843 1120.25 19.0636 Q1125.63 11.0023 1135.8 11.0023 Z" fill="#000000" fill-rule="nonzero" fill-opacity="1"></path><path clip-path="url(#clip630)" d="M1172.58 80.2727 L1175.42 80.2727 Q1181.09 80.2727 1182.79 78.5308 Q1184.53 76.7889 1184.53 70.9961 L1184.53 60.9499 Q1184.53 54.6305 1186.36 51.7544 Q1188.18 48.8782 1192.68 47.7845 Q1188.18 46.7717 1186.36 43.8956 Q1184.53 41.0195 1184.53 34.6595 L1184.53 24.6133 Q1184.53 18.861 1182.79 17.1191 Q1181.09 15.3367 1175.42 15.3367 L1172.58 15.3367 L1172.58 9.54393 L1175.14 9.54393 Q1185.22 9.54393 1188.59 12.5416 Q1191.99 15.4988 1191.99 24.4513 L1191.99 34.1734 Q1191.99 40.2093 1194.18 42.5588 Q1196.36 44.8678 1202.12 44.8678 L1204.63 44.8678 L1204.63 50.6606 L1202.12 50.6606 Q1196.36 50.6606 1194.18 53.0101 Q1191.99 55.3597 1191.99 61.4765 L1191.99 71.1582 Q1191.99 80.1107 1188.59 83.1084 Q1185.22 86.106 1175.14 86.106 L1172.58 86.106 L1172.58 80.2727 Z" fill="#000000" fill-rule="nonzero" fill-opacity="1"></path><path clip-path="url(#clip632)" d="M263.147 508.873 L263.147 667.52 L291.95 667.52 L291.95 508.873 L263.147 508.873 L263.147 508.873  Z" fill="#009af9" fill-rule="evenodd" fill-opacity="1"></path>
<polyline clip-path="url(#clip632)" style="stroke:#000000; stroke-linecap:round; stroke-linejoin:round; stroke-width:4; stroke-opacity:1; fill:none" points="263.147,508.873 263.147,667.52 291.95,667.52 291.95,508.873 263.147,508.873 "></polyline>
<path clip-path="url(#clip632)" d="M510.028 653.801 L510.028 667.52 L538.831 667.52 L538.831 653.801 L510.028 653.801 L510.028 653.801  Z" fill="#009af9" fill-rule="evenodd" fill-opacity="1"></path>
<polyline clip-path="url(#clip632)" style="stroke:#000000; stroke-linecap:round; stroke-linejoin:round; stroke-width:4; stroke-opacity:1; fill:none" points="510.028,653.801 510.028,667.52 538.831,667.52 538.831,653.801 510.028,653.801 "></polyline>
<path clip-path="url(#clip632)" d="M756.909 600.449 L756.909 667.52 L785.712 667.52 L785.712 600.449 L756.909 600.449 L756.909 600.449  Z" fill="#009af9" fill-rule="evenodd" fill-opacity="1"></path>
<polyline clip-path="url(#clip632)" style="stroke:#000000; stroke-linecap:round; stroke-linejoin:round; stroke-width:4; stroke-opacity:1; fill:none" points="756.909,600.449 756.909,667.52 785.712,667.52 785.712,600.449 756.909,600.449 "></polyline>
<path clip-path="url(#clip632)" d="M1003.79 573.774 L1003.79 667.52 L1032.59 667.52 L1032.59 573.774 L1003.79 573.774 L1003.79 573.774  Z" fill="#009af9" fill-rule="evenodd" fill-opacity="1"></path>
<polyline clip-path="url(#clip632)" style="stroke:#000000; stroke-linecap:round; stroke-linejoin:round; stroke-width:4; stroke-opacity:1; fill:none" points="1003.79,573.774 1003.79,667.52 1032.59,667.52 1032.59,573.774 1003.79,573.774 "></polyline>
<path clip-path="url(#clip632)" d="M1250.67 625.836 L1250.67 667.52 L1279.47 667.52 L1279.47 625.836 L1250.67 625.836 L1250.67 625.836  Z" fill="#009af9" fill-rule="evenodd" fill-opacity="1"></path>
<polyline clip-path="url(#clip632)" style="stroke:#000000; stroke-linecap:round; stroke-linejoin:round; stroke-width:4; stroke-opacity:1; fill:none" points="1250.67,625.836 1250.67,667.52 1279.47,667.52 1279.47,625.836 1250.67,625.836 "></polyline>
<path clip-path="url(#clip632)" d="M1497.55 629.177 L1497.55 667.52 L1526.36 667.52 L1526.36 629.177 L1497.55 629.177 L1497.55 629.177  Z" fill="#009af9" fill-rule="evenodd" fill-opacity="1"></path>
<polyline clip-path="url(#clip632)" style="stroke:#000000; stroke-linecap:round; stroke-linejoin:round; stroke-width:4; stroke-opacity:1; fill:none" points="1497.55,629.177 1497.55,667.52 1526.36,667.52 1526.36,629.177 1497.55,629.177 "></polyline>
<circle clip-path="url(#clip632)" style="fill:#009af9; stroke:none; fill-opacity:0" cx="277.548" cy="508.873" r="2"></circle>
<circle clip-path="url(#clip632)" style="fill:#009af9; stroke:none; fill-opacity:0" cx="524.429" cy="653.801" r="2"></circle>
<circle clip-path="url(#clip632)" style="fill:#009af9; stroke:none; fill-opacity:0" cx="771.31" cy="600.449" r="2"></circle>
<circle clip-path="url(#clip632)" style="fill:#009af9; stroke:none; fill-opacity:0" cx="1018.19" cy="573.774" r="2"></circle>
<circle clip-path="url(#clip632)" style="fill:#009af9; stroke:none; fill-opacity:0" cx="1265.07" cy="625.836" r="2"></circle>
<circle clip-path="url(#clip632)" style="fill:#009af9; stroke:none; fill-opacity:0" cx="1511.95" cy="629.177" r="2"></circle>
<path clip-path="url(#clip632)" d="M291.95 -797.046 L291.95 667.52 L320.752 667.52 L320.752 -797.046 L291.95 -797.046 L291.95 -797.046  Z" fill="#e26f46" fill-rule="evenodd" fill-opacity="1"></path>
<polyline clip-path="url(#clip632)" style="stroke:#000000; stroke-linecap:round; stroke-linejoin:round; stroke-width:4; stroke-opacity:1; fill:none" points="291.95,-797.046 291.95,667.52 320.752,667.52 320.752,-797.046 291.95,-797.046 "></polyline>
<path clip-path="url(#clip632)" d="M538.831 198.269 L538.831 667.52 L567.634 667.52 L567.634 198.269 L538.831 198.269 L538.831 198.269  Z" fill="#e26f46" fill-rule="evenodd" fill-opacity="1"></path>
<polyline clip-path="url(#clip632)" style="stroke:#000000; stroke-linecap:round; stroke-linejoin:round; stroke-width:4; stroke-opacity:1; fill:none" points="538.831,198.269 538.831,667.52 567.634,667.52 567.634,198.269 538.831,198.269 "></polyline>
<path clip-path="url(#clip632)" d="M785.712 530.041 L785.712 667.52 L814.515 667.52 L814.515 530.041 L785.712 530.041 L785.712 530.041  Z" fill="#e26f46" fill-rule="evenodd" fill-opacity="1"></path>
<polyline clip-path="url(#clip632)" style="stroke:#000000; stroke-linecap:round; stroke-linejoin:round; stroke-width:4; stroke-opacity:1; fill:none" points="785.712,530.041 785.712,667.52 814.515,667.52 814.515,530.041 785.712,530.041 "></polyline>
<path clip-path="url(#clip632)" d="M1032.59 405.627 L1032.59 667.52 L1061.4 667.52 L1061.4 405.627 L1032.59 405.627 L1032.59 405.627  Z" fill="#e26f46" fill-rule="evenodd" fill-opacity="1"></path>
<polyline clip-path="url(#clip632)" style="stroke:#000000; stroke-linecap:round; stroke-linejoin:round; stroke-width:4; stroke-opacity:1; fill:none" points="1032.59,405.627 1032.59,667.52 1061.4,667.52 1061.4,405.627 1032.59,405.627 "></polyline>
<path clip-path="url(#clip632)" d="M1279.47 576.906 L1279.47 667.52 L1308.28 667.52 L1308.28 576.906 L1279.47 576.906 L1279.47 576.906  Z" fill="#e26f46" fill-rule="evenodd" fill-opacity="1"></path>
<polyline clip-path="url(#clip632)" style="stroke:#000000; stroke-linecap:round; stroke-linejoin:round; stroke-width:4; stroke-opacity:1; fill:none" points="1279.47,576.906 1279.47,667.52 1308.28,667.52 1308.28,576.906 1279.47,576.906 "></polyline>
<path clip-path="url(#clip632)" d="M1526.36 379.916 L1526.36 667.52 L1555.16 667.52 L1555.16 379.916 L1526.36 379.916 L1526.36 379.916  Z" fill="#e26f46" fill-rule="evenodd" fill-opacity="1"></path>
<polyline clip-path="url(#clip632)" style="stroke:#000000; stroke-linecap:round; stroke-linejoin:round; stroke-width:4; stroke-opacity:1; fill:none" points="1526.36,379.916 1526.36,667.52 1555.16,667.52 1555.16,379.916 1526.36,379.916 "></polyline>
<circle clip-path="url(#clip632)" style="fill:#e26f46; stroke:none; fill-opacity:0" cx="553.232" cy="198.269" r="2"></circle>
<circle clip-path="url(#clip632)" style="fill:#e26f46; stroke:none; fill-opacity:0" cx="800.113" cy="530.041" r="2"></circle>
<circle clip-path="url(#clip632)" style="fill:#e26f46; stroke:none; fill-opacity:0" cx="1046.99" cy="405.627" r="2"></circle>
<circle clip-path="url(#clip632)" style="fill:#e26f46; stroke:none; fill-opacity:0" cx="1293.88" cy="576.906" r="2"></circle>
<circle clip-path="url(#clip632)" style="fill:#e26f46; stroke:none; fill-opacity:0" cx="1540.76" cy="379.916" r="2"></circle>
<path clip-path="url(#clip632)" d="M320.752 637.946 L320.752 667.52 L349.555 667.52 L349.555 637.946 L320.752 637.946 L320.752 637.946  Z" fill="#3da44d" fill-rule="evenodd" fill-opacity="1"></path>
<polyline clip-path="url(#clip632)" style="stroke:#000000; stroke-linecap:round; stroke-linejoin:round; stroke-width:4; stroke-opacity:1; fill:none" points="320.752,637.946 320.752,667.52 349.555,667.52 349.555,637.946 320.752,637.946 "></polyline>
<path clip-path="url(#clip632)" d="M567.634 605.965 L567.634 667.52 L596.436 667.52 L596.436 605.965 L567.634 605.965 L567.634 605.965  Z" fill="#3da44d" fill-rule="evenodd" fill-opacity="1"></path>
<polyline clip-path="url(#clip632)" style="stroke:#000000; stroke-linecap:round; stroke-linejoin:round; stroke-width:4; stroke-opacity:1; fill:none" points="567.634,605.965 567.634,667.52 596.436,667.52 596.436,605.965 567.634,605.965 "></polyline>
<path clip-path="url(#clip632)" d="M814.515 502.027 L814.515 667.52 L843.317 667.52 L843.317 502.027 L814.515 502.027 L814.515 502.027  Z" fill="#3da44d" fill-rule="evenodd" fill-opacity="1"></path>
<polyline clip-path="url(#clip632)" style="stroke:#000000; stroke-linecap:round; stroke-linejoin:round; stroke-width:4; stroke-opacity:1; fill:none" points="814.515,502.027 814.515,667.52 843.317,667.52 843.317,502.027 814.515,502.027 "></polyline>
<path clip-path="url(#clip632)" d="M1061.4 422.074 L1061.4 667.52 L1090.2 667.52 L1090.2 422.074 L1061.4 422.074 L1061.4 422.074  Z" fill="#3da44d" fill-rule="evenodd" fill-opacity="1"></path>
<polyline clip-path="url(#clip632)" style="stroke:#000000; stroke-linecap:round; stroke-linejoin:round; stroke-width:4; stroke-opacity:1; fill:none" points="1061.4,422.074 1061.4,667.52 1090.2,667.52 1090.2,422.074 1061.4,422.074 "></polyline>
<path clip-path="url(#clip632)" d="M1308.28 631.95 L1308.28 667.52 L1337.08 667.52 L1337.08 631.95 L1308.28 631.95 L1308.28 631.95  Z" fill="#3da44d" fill-rule="evenodd" fill-opacity="1"></path>
<polyline clip-path="url(#clip632)" style="stroke:#000000; stroke-linecap:round; stroke-linejoin:round; stroke-width:4; stroke-opacity:1; fill:none" points="1308.28,631.95 1308.28,667.52 1337.08,667.52 1337.08,631.95 1308.28,631.95 "></polyline>
<path clip-path="url(#clip632)" d="M1555.16 649.939 L1555.16 667.52 L1583.96 667.52 L1583.96 649.939 L1555.16 649.939 L1555.16 649.939  Z" fill="#3da44d" fill-rule="evenodd" fill-opacity="1"></path>
<polyline clip-path="url(#clip632)" style="stroke:#000000; stroke-linecap:round; stroke-linejoin:round; stroke-width:4; stroke-opacity:1; fill:none" points="1555.16,649.939 1555.16,667.52 1583.96,667.52 1583.96,649.939 1555.16,649.939 "></polyline>
<circle clip-path="url(#clip632)" style="fill:#3da44d; stroke:none; fill-opacity:0" cx="335.154" cy="637.946" r="2"></circle>
<circle clip-path="url(#clip632)" style="fill:#3da44d; stroke:none; fill-opacity:0" cx="582.035" cy="605.965" r="2"></circle>
<circle clip-path="url(#clip632)" style="fill:#3da44d; stroke:none; fill-opacity:0" cx="828.916" cy="502.027" r="2"></circle>
<circle clip-path="url(#clip632)" style="fill:#3da44d; stroke:none; fill-opacity:0" cx="1075.8" cy="422.074" r="2"></circle>
<circle clip-path="url(#clip632)" style="fill:#3da44d; stroke:none; fill-opacity:0" cx="1322.68" cy="631.95" r="2"></circle>
<circle clip-path="url(#clip632)" style="fill:#3da44d; stroke:none; fill-opacity:0" cx="1569.56" cy="649.939" r="2"></circle>
<path clip-path="url(#clip632)" d="M349.555 388.688 L349.555 667.52 L378.358 667.52 L378.358 388.688 L349.555 388.688 L349.555 388.688  Z" fill="#c271d2" fill-rule="evenodd" fill-opacity="1"></path>
<polyline clip-path="url(#clip632)" style="stroke:#000000; stroke-linecap:round; stroke-linejoin:round; stroke-width:4; stroke-opacity:1; fill:none" points="349.555,388.688 349.555,667.52 378.358,667.52 378.358,388.688 349.555,388.688 "></polyline>
<path clip-path="url(#clip632)" d="M596.436 607.081 L596.436 667.52 L625.239 667.52 L625.239 607.081 L596.436 607.081 L596.436 607.081  Z" fill="#c271d2" fill-rule="evenodd" fill-opacity="1"></path>
<polyline clip-path="url(#clip632)" style="stroke:#000000; stroke-linecap:round; stroke-linejoin:round; stroke-width:4; stroke-opacity:1; fill:none" points="596.436,607.081 596.436,667.52 625.239,667.52 625.239,607.081 596.436,607.081 "></polyline>
<path clip-path="url(#clip632)" d="M843.317 565.926 L843.317 667.52 L872.12 667.52 L872.12 565.926 L843.317 565.926 L843.317 565.926  Z" fill="#c271d2" fill-rule="evenodd" fill-opacity="1"></path>
<polyline clip-path="url(#clip632)" style="stroke:#000000; stroke-linecap:round; stroke-linejoin:round; stroke-width:4; stroke-opacity:1; fill:none" points="843.317,565.926 843.317,667.52 872.12,667.52 872.12,565.926 843.317,565.926 "></polyline>
<path clip-path="url(#clip632)" d="M1090.2 657.51 L1090.2 667.52 L1119 667.52 L1119 657.51 L1090.2 657.51 L1090.2 657.51  Z" fill="#c271d2" fill-rule="evenodd" fill-opacity="1"></path>
<polyline clip-path="url(#clip632)" style="stroke:#000000; stroke-linecap:round; stroke-linejoin:round; stroke-width:4; stroke-opacity:1; fill:none" points="1090.2,657.51 1090.2,667.52 1119,667.52 1119,657.51 1090.2,657.51 "></polyline>
<path clip-path="url(#clip632)" d="M1337.08 650.465 L1337.08 667.52 L1365.88 667.52 L1365.88 650.465 L1337.08 650.465 L1337.08 650.465  Z" fill="#c271d2" fill-rule="evenodd" fill-opacity="1"></path>
<polyline clip-path="url(#clip632)" style="stroke:#000000; stroke-linecap:round; stroke-linejoin:round; stroke-width:4; stroke-opacity:1; fill:none" points="1337.08,650.465 1337.08,667.52 1365.88,667.52 1365.88,650.465 1337.08,650.465 "></polyline>
<path clip-path="url(#clip632)" d="M1583.96 653.107 L1583.96 667.52 L1612.76 667.52 L1612.76 653.107 L1583.96 653.107 L1583.96 653.107  Z" fill="#c271d2" fill-rule="evenodd" fill-opacity="1"></path>
<polyline clip-path="url(#clip632)" style="stroke:#000000; stroke-linecap:round; stroke-linejoin:round; stroke-width:4; stroke-opacity:1; fill:none" points="1583.96,653.107 1583.96,667.52 1612.76,667.52 1612.76,653.107 1583.96,653.107 "></polyline>
<circle clip-path="url(#clip632)" style="fill:#c271d2; stroke:none; fill-opacity:0" cx="363.957" cy="388.688" r="2"></circle>
<circle clip-path="url(#clip632)" style="fill:#c271d2; stroke:none; fill-opacity:0" cx="610.838" cy="607.081" r="2"></circle>
<circle clip-path="url(#clip632)" style="fill:#c271d2; stroke:none; fill-opacity:0" cx="857.719" cy="565.926" r="2"></circle>
<circle clip-path="url(#clip632)" style="fill:#c271d2; stroke:none; fill-opacity:0" cx="1104.6" cy="657.51" r="2"></circle>
<circle clip-path="url(#clip632)" style="fill:#c271d2; stroke:none; fill-opacity:0" cx="1351.48" cy="650.465" r="2"></circle>
<circle clip-path="url(#clip632)" style="fill:#c271d2; stroke:none; fill-opacity:0" cx="1598.36" cy="653.107" r="2"></circle>
<path clip-path="url(#clip632)" d="M378.358 620.99 L378.358 667.52 L407.161 667.52 L407.161 620.99 L378.358 620.99 L378.358 620.99  Z" fill="#ac8d18" fill-rule="evenodd" fill-opacity="1"></path>
<polyline clip-path="url(#clip632)" style="stroke:#000000; stroke-linecap:round; stroke-linejoin:round; stroke-width:4; stroke-opacity:1; fill:none" points="378.358,620.99 378.358,667.52 407.161,667.52 407.161,620.99 378.358,620.99 "></polyline>
<path clip-path="url(#clip632)" d="M625.239 628.801 L625.239 667.52 L654.042 667.52 L654.042 628.801 L625.239 628.801 L625.239 628.801  Z" fill="#ac8d18" fill-rule="evenodd" fill-opacity="1"></path>
<polyline clip-path="url(#clip632)" style="stroke:#000000; stroke-linecap:round; stroke-linejoin:round; stroke-width:4; stroke-opacity:1; fill:none" points="625.239,628.801 625.239,667.52 654.042,667.52 654.042,628.801 625.239,628.801 "></polyline>
<path clip-path="url(#clip632)" d="M872.12 606.782 L872.12 667.52 L900.923 667.52 L900.923 606.782 L872.12 606.782 L872.12 606.782  Z" fill="#ac8d18" fill-rule="evenodd" fill-opacity="1"></path>
<polyline clip-path="url(#clip632)" style="stroke:#000000; stroke-linecap:round; stroke-linejoin:round; stroke-width:4; stroke-opacity:1; fill:none" points="872.12,606.782 872.12,667.52 900.923,667.52 900.923,606.782 872.12,606.782 "></polyline>
<path clip-path="url(#clip632)" d="M1119 639.461 L1119 667.52 L1147.8 667.52 L1147.8 639.461 L1119 639.461 L1119 639.461  Z" fill="#ac8d18" fill-rule="evenodd" fill-opacity="1"></path>
<polyline clip-path="url(#clip632)" style="stroke:#000000; stroke-linecap:round; stroke-linejoin:round; stroke-width:4; stroke-opacity:1; fill:none" points="1119,639.461 1119,667.52 1147.8,667.52 1147.8,639.461 1119,639.461 "></polyline>
<path clip-path="url(#clip632)" d="M1365.88 643.009 L1365.88 667.52 L1394.69 667.52 L1394.69 643.009 L1365.88 643.009 L1365.88 643.009  Z" fill="#ac8d18" fill-rule="evenodd" fill-opacity="1"></path>
<polyline clip-path="url(#clip632)" style="stroke:#000000; stroke-linecap:round; stroke-linejoin:round; stroke-width:4; stroke-opacity:1; fill:none" points="1365.88,643.009 1365.88,667.52 1394.69,667.52 1394.69,643.009 1365.88,643.009 "></polyline>
<path clip-path="url(#clip632)" d="M1612.76 659.707 L1612.76 667.52 L1641.57 667.52 L1641.57 659.707 L1612.76 659.707 L1612.76 659.707  Z" fill="#ac8d18" fill-rule="evenodd" fill-opacity="1"></path>
<polyline clip-path="url(#clip632)" style="stroke:#000000; stroke-linecap:round; stroke-linejoin:round; stroke-width:4; stroke-opacity:1; fill:none" points="1612.76,659.707 1612.76,667.52 1641.57,667.52 1641.57,659.707 1612.76,659.707 "></polyline>
<circle clip-path="url(#clip632)" style="fill:#ac8d18; stroke:none; fill-opacity:0" cx="392.759" cy="620.99" r="2"></circle>
<circle clip-path="url(#clip632)" style="fill:#ac8d18; stroke:none; fill-opacity:0" cx="639.641" cy="628.801" r="2"></circle>
<circle clip-path="url(#clip632)" style="fill:#ac8d18; stroke:none; fill-opacity:0" cx="886.522" cy="606.782" r="2"></circle>
<circle clip-path="url(#clip632)" style="fill:#ac8d18; stroke:none; fill-opacity:0" cx="1133.4" cy="639.461" r="2"></circle>
<circle clip-path="url(#clip632)" style="fill:#ac8d18; stroke:none; fill-opacity:0" cx="1380.28" cy="643.009" r="2"></circle>
<circle clip-path="url(#clip632)" style="fill:#ac8d18; stroke:none; fill-opacity:0" cx="1627.17" cy="659.707" r="2"></circle>
<path clip-path="url(#clip632)" d="M407.161 443.038 L407.161 667.52 L435.964 667.52 L435.964 443.038 L407.161 443.038 L407.161 443.038  Z" fill="#00a9ad" fill-rule="evenodd" fill-opacity="1"></path>
<polyline clip-path="url(#clip632)" style="stroke:#000000; stroke-linecap:round; stroke-linejoin:round; stroke-width:4; stroke-opacity:1; fill:none" points="407.161,443.038 407.161,667.52 435.964,667.52 435.964,443.038 407.161,443.038 "></polyline>
<path clip-path="url(#clip632)" d="M654.042 610.236 L654.042 667.52 L682.845 667.52 L682.845 610.236 L654.042 610.236 L654.042 610.236  Z" fill="#00a9ad" fill-rule="evenodd" fill-opacity="1"></path>
<polyline clip-path="url(#clip632)" style="stroke:#000000; stroke-linecap:round; stroke-linejoin:round; stroke-width:4; stroke-opacity:1; fill:none" points="654.042,610.236 654.042,667.52 682.845,667.52 682.845,610.236 654.042,610.236 "></polyline>
<path clip-path="url(#clip632)" d="M900.923 630.362 L900.923 667.52 L929.726 667.52 L929.726 630.362 L900.923 630.362 L900.923 630.362  Z" fill="#00a9ad" fill-rule="evenodd" fill-opacity="1"></path>
<polyline clip-path="url(#clip632)" style="stroke:#000000; stroke-linecap:round; stroke-linejoin:round; stroke-width:4; stroke-opacity:1; fill:none" points="900.923,630.362 900.923,667.52 929.726,667.52 929.726,630.362 900.923,630.362 "></polyline>
<path clip-path="url(#clip632)" d="M1147.8 544.926 L1147.8 667.52 L1176.61 667.52 L1176.61 544.926 L1147.8 544.926 L1147.8 544.926  Z" fill="#00a9ad" fill-rule="evenodd" fill-opacity="1"></path>
<polyline clip-path="url(#clip632)" style="stroke:#000000; stroke-linecap:round; stroke-linejoin:round; stroke-width:4; stroke-opacity:1; fill:none" points="1147.8,544.926 1147.8,667.52 1176.61,667.52 1176.61,544.926 1147.8,544.926 "></polyline>
<path clip-path="url(#clip632)" d="M1394.69 617.883 L1394.69 667.52 L1423.49 667.52 L1423.49 617.883 L1394.69 617.883 L1394.69 617.883  Z" fill="#00a9ad" fill-rule="evenodd" fill-opacity="1"></path>
<polyline clip-path="url(#clip632)" style="stroke:#000000; stroke-linecap:round; stroke-linejoin:round; stroke-width:4; stroke-opacity:1; fill:none" points="1394.69,617.883 1394.69,667.52 1423.49,667.52 1423.49,617.883 1394.69,617.883 "></polyline>
<path clip-path="url(#clip632)" d="M1641.57 577.317 L1641.57 667.52 L1670.37 667.52 L1670.37 577.317 L1641.57 577.317 L1641.57 577.317  Z" fill="#00a9ad" fill-rule="evenodd" fill-opacity="1"></path>
<polyline clip-path="url(#clip632)" style="stroke:#000000; stroke-linecap:round; stroke-linejoin:round; stroke-width:4; stroke-opacity:1; fill:none" points="1641.57,577.317 1641.57,667.52 1670.37,667.52 1670.37,577.317 1641.57,577.317 "></polyline>
<circle clip-path="url(#clip632)" style="fill:#00a9ad; stroke:none; fill-opacity:0" cx="421.562" cy="443.038" r="2"></circle>
<circle clip-path="url(#clip632)" style="fill:#00a9ad; stroke:none; fill-opacity:0" cx="668.443" cy="610.236" r="2"></circle>
<circle clip-path="url(#clip632)" style="fill:#00a9ad; stroke:none; fill-opacity:0" cx="915.324" cy="630.362" r="2"></circle>
<circle clip-path="url(#clip632)" style="fill:#00a9ad; stroke:none; fill-opacity:0" cx="1162.21" cy="544.926" r="2"></circle>
<circle clip-path="url(#clip632)" style="fill:#00a9ad; stroke:none; fill-opacity:0" cx="1409.09" cy="617.883" r="2"></circle>
<circle clip-path="url(#clip632)" style="fill:#00a9ad; stroke:none; fill-opacity:0" cx="1655.97" cy="577.317" r="2"></circle>
</svg>