<svg xmlns="http://www.w3.org/2000/svg" xmlns:xlink="http://www.w3.org/1999/xlink" width="450" height="190" viewBox="0 0 1800 760">
<defs>
  <clipPath id="clip750">
    <rect x="0" y="0" width="1800" height="760"></rect>
  </clipPath>
</defs>
<path clip-path="url(#clip750)" d="M0 760 L1800 760 L1800 0 L0 0  Z" fill="#ffffff" fill-rule="evenodd" fill-opacity="1"></path>
<defs>
  <clipPath id="clip751">
    <rect x="360" y="0" width="1261" height="760"></rect>
  </clipPath>
</defs>
<path clip-path="url(#clip750)" d="M180.76 667.52 L1752.76 667.52 L1752.76 101.296 L180.76 101.296  Z" fill="#ffffff" fill-rule="evenodd" fill-opacity="1"></path>
<defs>
  <clipPath id="clip752">
    <rect x="180" y="101" width="1573" height="567"></rect>
  </clipPath>
</defs>
<polyline clip-path="url(#clip752)" style="stroke:#000000; stroke-linecap:round; stroke-linejoin:round; stroke-width:2; stroke-opacity:0.1; fill:none" points="349.555,667.52 349.555,101.296 "></polyline>
<polyline clip-path="url(#clip752)" style="stroke:#000000; stroke-linecap:round; stroke-linejoin:round; stroke-width:2; stroke-opacity:0.1; fill:none" points="596.436,667.52 596.436,101.296 "></polyline>
<polyline clip-path="url(#clip752)" style="stroke:#000000; stroke-linecap:round; stroke-linejoin:round; stroke-width:2; stroke-opacity:0.1; fill:none" points="843.317,667.52 843.317,101.296 "></polyline>
<polyline clip-path="url(#clip752)" style="stroke:#000000; stroke-linecap:round; stroke-linejoin:round; stroke-width:2; stroke-opacity:0.1; fill:none" points="1090.2,667.52 1090.2,101.296 "></polyline>
<polyline clip-path="url(#clip752)" style="stroke:#000000; stroke-linecap:round; stroke-linejoin:round; stroke-width:2; stroke-opacity:0.1; fill:none" points="1337.08,667.52 1337.08,101.296 "></polyline>
<polyline clip-path="url(#clip752)" style="stroke:#000000; stroke-linecap:round; stroke-linejoin:round; stroke-width:2; stroke-opacity:0.1; fill:none" points="1583.96,667.52 1583.96,101.296 "></polyline>
<polyline clip-path="url(#clip752)" style="stroke:#000000; stroke-linecap:round; stroke-linejoin:round; stroke-width:2; stroke-opacity:0.1; fill:none" points="180.76,667.52 1752.76,667.52 "></polyline>
<polyline clip-path="url(#clip752)" style="stroke:#000000; stroke-linecap:round; stroke-linejoin:round; stroke-width:2; stroke-opacity:0.1; fill:none" points="180.76,544.492 1752.76,544.492 "></polyline>
<polyline clip-path="url(#clip752)" style="stroke:#000000; stroke-linecap:round; stroke-linejoin:round; stroke-width:2; stroke-opacity:0.1; fill:none" points="180.76,421.465 1752.76,421.465 "></polyline>
<polyline clip-path="url(#clip752)" style="stroke:#000000; stroke-linecap:round; stroke-linejoin:round; stroke-width:2; stroke-opacity:0.1; fill:none" points="180.76,298.437 1752.76,298.437 "></polyline>
<polyline clip-path="url(#clip752)" style="stroke:#000000; stroke-linecap:round; stroke-linejoin:round; stroke-width:2; stroke-opacity:0.1; fill:none" points="180.76,175.409 1752.76,175.409 "></polyline>
<polyline clip-path="url(#clip750)" style="stroke:#000000; stroke-linecap:round; stroke-linejoin:round; stroke-width:4; stroke-opacity:1; fill:none" points="180.76,667.52 1752.76,667.52 "></polyline>
<polyline clip-path="url(#clip750)" style="stroke:#000000; stroke-linecap:round; stroke-linejoin:round; stroke-width:4; stroke-opacity:1; fill:none" points="349.555,667.52 349.555,648.622 "></polyline>
<polyline clip-path="url(#clip750)" style="stroke:#000000; stroke-linecap:round; stroke-linejoin:round; stroke-width:4; stroke-opacity:1; fill:none" points="596.436,667.52 596.436,648.622 "></polyline>
<polyline clip-path="url(#clip750)" style="stroke:#000000; stroke-linecap:round; stroke-linejoin:round; stroke-width:4; stroke-opacity:1; fill:none" points="843.317,667.52 843.317,648.622 "></polyline>
<polyline clip-path="url(#clip750)" style="stroke:#000000; stroke-linecap:round; stroke-linejoin:round; stroke-width:4; stroke-opacity:1; fill:none" points="1090.2,667.52 1090.2,648.622 "></polyline>
<polyline clip-path="url(#clip750)" style="stroke:#000000; stroke-linecap:round; stroke-linejoin:round; stroke-width:4; stroke-opacity:1; fill:none" points="1337.08,667.52 1337.08,648.622 "></polyline>
<polyline clip-path="url(#clip750)" style="stroke:#000000; stroke-linecap:round; stroke-linejoin:round; stroke-width:4; stroke-opacity:1; fill:none" points="1583.96,667.52 1583.96,648.622 "></polyline>
<path clip-path="url(#clip750)" d="M293.838 721.185 L301.477 721.185 L301.477 694.819 L293.167 696.486 L293.167 692.227 L301.43 690.56 L306.106 690.56 L306.106 721.185 L313.745 721.185 L313.745 725.12 L293.838 725.12 L293.838 721.185 Z" fill="#000000" fill-rule="nonzero" fill-opacity="1"></path><path clip-path="url(#clip750)" d="M333.19 693.639 Q329.578 693.639 327.75 697.203 Q325.944 700.745 325.944 707.875 Q325.944 714.981 327.75 718.546 Q329.578 722.087 333.19 722.087 Q336.824 722.087 338.629 718.546 Q340.458 714.981 340.458 707.875 Q340.458 700.745 338.629 697.203 Q336.824 693.639 333.19 693.639 M333.19 689.935 Q339 689.935 342.055 694.541 Q345.134 699.125 345.134 707.875 Q345.134 716.601 342.055 721.208 Q339 725.791 333.19 725.791 Q327.379 725.791 324.301 721.208 Q321.245 716.601 321.245 707.875 Q321.245 699.125 324.301 694.541 Q327.379 689.935 333.19 689.935 Z" fill="#000000" fill-rule="nonzero" fill-opacity="1"></path><path clip-path="url(#clip750)" d="M357.379 721.185 L373.699 721.185 L373.699 725.12 L351.754 725.12 L351.754 721.185 Q354.416 718.43 359 713.8 Q363.606 709.148 364.787 707.805 Q367.032 705.282 367.912 703.546 Q368.814 701.787 368.814 700.097 Q368.814 697.342 366.87 695.606 Q364.949 693.87 361.847 693.87 Q359.648 693.87 357.194 694.634 Q354.764 695.398 351.986 696.949 L351.986 692.227 Q354.81 691.092 357.263 690.514 Q359.717 689.935 361.754 689.935 Q367.125 689.935 370.319 692.62 Q373.513 695.305 373.513 699.796 Q373.513 701.926 372.703 703.847 Q371.916 705.745 369.81 708.338 Q369.231 709.009 366.129 712.226 Q363.027 715.421 357.379 721.185 Z" fill="#000000" fill-rule="nonzero" fill-opacity="1"></path><path clip-path="url(#clip750)" d="M396.361 694.634 L384.555 713.083 L396.361 713.083 L396.361 694.634 M395.134 690.56 L401.013 690.56 L401.013 713.083 L405.944 713.083 L405.944 716.972 L401.013 716.972 L401.013 725.12 L396.361 725.12 L396.361 716.972 L380.759 716.972 L380.759 712.458 L395.134 690.56 Z" fill="#000000" fill-rule="nonzero" fill-opacity="1"></path><path clip-path="url(#clip750)" d="M545.094 721.185 L561.413 721.185 L561.413 725.12 L539.469 725.12 L539.469 721.185 Q542.131 718.43 546.714 713.8 Q551.321 709.148 552.501 707.805 Q554.747 705.282 555.626 703.546 Q556.529 701.787 556.529 700.097 Q556.529 697.342 554.585 695.606 Q552.663 693.87 549.562 693.87 Q547.363 693.87 544.909 694.634 Q542.478 695.398 539.701 696.949 L539.701 692.227 Q542.525 691.092 544.978 690.514 Q547.432 689.935 549.469 689.935 Q554.839 689.935 558.034 692.62 Q561.228 695.305 561.228 699.796 Q561.228 701.926 560.418 703.847 Q559.631 705.745 557.524 708.338 Q556.946 709.009 553.844 712.226 Q550.742 715.421 545.094 721.185 Z" fill="#000000" fill-rule="nonzero" fill-opacity="1"></path><path clip-path="url(#clip750)" d="M581.228 693.639 Q577.617 693.639 575.788 697.203 Q573.983 700.745 573.983 707.875 Q573.983 714.981 575.788 718.546 Q577.617 722.087 581.228 722.087 Q584.862 722.087 586.668 718.546 Q588.497 714.981 588.497 707.875 Q588.497 700.745 586.668 697.203 Q584.862 693.639 581.228 693.639 M581.228 689.935 Q587.038 689.935 590.094 694.541 Q593.172 699.125 593.172 707.875 Q593.172 716.601 590.094 721.208 Q587.038 725.791 581.228 725.791 Q575.418 725.791 572.339 721.208 Q569.284 716.601 569.284 707.875 Q569.284 699.125 572.339 694.541 Q575.418 689.935 581.228 689.935 Z" fill="#000000" fill-rule="nonzero" fill-opacity="1"></path><path clip-path="url(#clip750)" d="M614.237 694.634 L602.432 713.083 L614.237 713.083 L614.237 694.634 M613.01 690.56 L618.89 690.56 L618.89 713.083 L623.82 713.083 L623.82 716.972 L618.89 716.972 L618.89 725.12 L614.237 725.12 L614.237 716.972 L598.635 716.972 L598.635 712.458 L613.01 690.56 Z" fill="#000000" fill-rule="nonzero" fill-opacity="1"></path><path clip-path="url(#clip750)" d="M641.552 708.708 Q638.219 708.708 636.297 710.49 Q634.399 712.273 634.399 715.398 Q634.399 718.523 636.297 720.305 Q638.219 722.087 641.552 722.087 Q644.885 722.087 646.806 720.305 Q648.728 718.5 648.728 715.398 Q648.728 712.273 646.806 710.49 Q644.908 708.708 641.552 708.708 M636.876 706.717 Q633.867 705.976 632.177 703.916 Q630.51 701.856 630.51 698.893 Q630.51 694.75 633.45 692.342 Q636.413 689.935 641.552 689.935 Q646.714 689.935 649.654 692.342 Q652.593 694.75 652.593 698.893 Q652.593 701.856 650.904 703.916 Q649.237 705.976 646.251 706.717 Q649.63 707.504 651.505 709.796 Q653.404 712.088 653.404 715.398 Q653.404 720.421 650.325 723.106 Q647.269 725.791 641.552 725.791 Q635.834 725.791 632.756 723.106 Q629.7 720.421 629.7 715.398 Q629.7 712.088 631.598 709.796 Q633.496 707.504 636.876 706.717 M635.163 699.333 Q635.163 702.018 636.83 703.523 Q638.519 705.027 641.552 705.027 Q644.561 705.027 646.251 703.523 Q647.964 702.018 647.964 699.333 Q647.964 696.648 646.251 695.143 Q644.561 693.639 641.552 693.639 Q638.519 693.639 636.83 695.143 Q635.163 696.648 635.163 699.333 Z" fill="#000000" fill-rule="nonzero" fill-opacity="1"></path><path clip-path="url(#clip750)" d="M801.246 694.634 L789.44 713.083 L801.246 713.083 L801.246 694.634 M800.019 690.56 L805.899 690.56 L805.899 713.083 L810.829 713.083 L810.829 716.972 L805.899 716.972 L805.899 725.12 L801.246 725.12 L801.246 716.972 L785.644 716.972 L785.644 712.458 L800.019 690.56 Z" fill="#000000" fill-rule="nonzero" fill-opacity="1"></path><path clip-path="url(#clip750)" d="M828.561 693.639 Q824.949 693.639 823.121 697.203 Q821.315 700.745 821.315 707.875 Q821.315 714.981 823.121 718.546 Q824.949 722.087 828.561 722.087 Q832.195 722.087 834 718.546 Q835.829 714.981 835.829 707.875 Q835.829 700.745 834 697.203 Q832.195 693.639 828.561 693.639 M828.561 689.935 Q834.371 689.935 837.426 694.541 Q840.505 699.125 840.505 707.875 Q840.505 716.601 837.426 721.208 Q834.371 725.791 828.561 725.791 Q822.75 725.791 819.672 721.208 Q816.616 716.601 816.616 707.875 Q816.616 699.125 819.672 694.541 Q822.75 689.935 828.561 689.935 Z" fill="#000000" fill-rule="nonzero" fill-opacity="1"></path><path clip-path="url(#clip750)" d="M848.861 724.402 L848.861 720.143 Q850.621 720.976 852.426 721.416 Q854.232 721.856 855.968 721.856 Q860.597 721.856 863.028 718.754 Q865.482 715.629 865.829 709.287 Q864.486 711.277 862.426 712.342 Q860.366 713.407 857.866 713.407 Q852.681 713.407 849.648 710.282 Q846.639 707.134 846.639 701.694 Q846.639 696.37 849.787 693.152 Q852.935 689.935 858.167 689.935 Q864.162 689.935 867.31 694.541 Q870.482 699.125 870.482 707.875 Q870.482 716.046 866.593 720.93 Q862.727 725.791 856.176 725.791 Q854.417 725.791 852.611 725.444 Q850.806 725.097 848.861 724.402 M858.167 709.75 Q861.315 709.75 863.144 707.597 Q864.996 705.444 864.996 701.694 Q864.996 697.967 863.144 695.814 Q861.315 693.639 858.167 693.639 Q855.019 693.639 853.167 695.814 Q851.338 697.967 851.338 701.694 Q851.338 705.444 853.167 707.597 Q855.019 709.75 858.167 709.75 Z" fill="#000000" fill-rule="nonzero" fill-opacity="1"></path><path clip-path="url(#clip750)" d="M889.463 705.976 Q886.315 705.976 884.463 708.129 Q882.634 710.282 882.634 714.032 Q882.634 717.759 884.463 719.935 Q886.315 722.087 889.463 722.087 Q892.611 722.087 894.44 719.935 Q896.292 717.759 896.292 714.032 Q896.292 710.282 894.44 708.129 Q892.611 705.976 889.463 705.976 M898.745 691.324 L898.745 695.583 Q896.986 694.75 895.181 694.31 Q893.398 693.87 891.639 693.87 Q887.009 693.87 884.556 696.995 Q882.125 700.12 881.778 706.439 Q883.144 704.426 885.204 703.361 Q887.264 702.273 889.741 702.273 Q894.949 702.273 897.958 705.444 Q900.991 708.592 900.991 714.032 Q900.991 719.356 897.843 722.574 Q894.694 725.791 889.463 725.791 Q883.468 725.791 880.296 721.208 Q877.125 716.601 877.125 707.875 Q877.125 699.68 881.014 694.819 Q884.903 689.935 891.454 689.935 Q893.213 689.935 894.995 690.282 Q896.801 690.629 898.745 691.324 Z" fill="#000000" fill-rule="nonzero" fill-opacity="1"></path><path clip-path="url(#clip750)" d="M1045.71 708.708 Q1042.37 708.708 1040.45 710.49 Q1038.56 712.273 1038.56 715.398 Q1038.56 718.523 1040.45 720.305 Q1042.37 722.087 1045.71 722.087 Q1049.04 722.087 1050.96 720.305 Q1052.88 718.5 1052.88 715.398 Q1052.88 712.273 1050.96 710.49 Q1049.06 708.708 1045.71 708.708 M1041.03 706.717 Q1038.02 705.976 1036.33 703.916 Q1034.67 701.856 1034.67 698.893 Q1034.67 694.75 1037.61 692.342 Q1040.57 689.935 1045.71 689.935 Q1050.87 689.935 1053.81 692.342 Q1056.75 694.75 1056.75 698.893 Q1056.75 701.856 1055.06 703.916 Q1053.39 705.976 1050.41 706.717 Q1053.79 707.504 1055.66 709.796 Q1057.56 712.088 1057.56 715.398 Q1057.56 720.421 1054.48 723.106 Q1051.43 725.791 1045.71 725.791 Q1039.99 725.791 1036.91 723.106 Q1033.86 720.421 1033.86 715.398 Q1033.86 712.088 1035.75 709.796 Q1037.65 707.504 1041.03 706.717 M1039.32 699.333 Q1039.32 702.018 1040.99 703.523 Q1042.68 705.027 1045.71 705.027 Q1048.72 705.027 1050.41 703.523 Q1052.12 702.018 1052.12 699.333 Q1052.12 696.648 1050.41 695.143 Q1048.72 693.639 1045.71 693.639 Q1042.68 693.639 1040.99 695.143 Q1039.32 696.648 1039.32 699.333 Z" fill="#000000" fill-rule="nonzero" fill-opacity="1"></path><path clip-path="url(#clip750)" d="M1066.68 721.185 L1074.32 721.185 L1074.32 694.819 L1066.01 696.486 L1066.01 692.227 L1074.27 690.56 L1078.95 690.56 L1078.95 721.185 L1086.59 721.185 L1086.59 725.12 L1066.68 725.12 L1066.68 721.185 Z" fill="#000000" fill-rule="nonzero" fill-opacity="1"></path><path clip-path="url(#clip750)" d="M1096.17 724.402 L1096.17 720.143 Q1097.93 720.976 1099.74 721.416 Q1101.54 721.856 1103.28 721.856 Q1107.91 721.856 1110.34 718.754 Q1112.79 715.629 1113.14 709.287 Q1111.8 711.277 1109.74 712.342 Q1107.68 713.407 1105.18 713.407 Q1099.99 713.407 1096.96 710.282 Q1093.95 707.134 1093.95 701.694 Q1093.95 696.37 1097.1 693.152 Q1100.24 689.935 1105.48 689.935 Q1111.47 689.935 1114.62 694.541 Q1117.79 699.125 1117.79 707.875 Q1117.79 716.046 1113.9 720.93 Q1110.04 725.791 1103.49 725.791 Q1101.73 725.791 1099.92 725.444 Q1098.12 725.097 1096.17 724.402 M1105.48 709.75 Q1108.62 709.75 1110.45 707.597 Q1112.3 705.444 1112.3 701.694 Q1112.3 697.967 1110.45 695.814 Q1108.62 693.639 1105.48 693.639 Q1102.33 693.639 1100.48 695.814 Q1098.65 697.967 1098.65 701.694 Q1098.65 705.444 1100.48 707.597 Q1102.33 709.75 1105.48 709.75 Z" fill="#000000" fill-rule="nonzero" fill-opacity="1"></path><path clip-path="url(#clip750)" d="M1130.22 721.185 L1146.54 721.185 L1146.54 725.12 L1124.6 725.12 L1124.6 721.185 Q1127.26 718.43 1131.84 713.8 Q1136.45 709.148 1137.63 707.805 Q1139.87 705.282 1140.75 703.546 Q1141.66 701.787 1141.66 700.097 Q1141.66 697.342 1139.71 695.606 Q1137.79 693.87 1134.69 693.87 Q1132.49 693.87 1130.04 694.634 Q1127.61 695.398 1124.83 696.949 L1124.83 692.227 Q1127.65 691.092 1130.11 690.514 Q1132.56 689.935 1134.6 689.935 Q1139.97 689.935 1143.16 692.62 Q1146.36 695.305 1146.36 699.796 Q1146.36 701.926 1145.55 703.847 Q1144.76 705.745 1142.65 708.338 Q1142.07 709.009 1138.97 712.226 Q1135.87 715.421 1130.22 721.185 Z" fill="#000000" fill-rule="nonzero" fill-opacity="1"></path><path clip-path="url(#clip750)" d="M1266.28 721.185 L1273.92 721.185 L1273.92 694.819 L1265.61 696.486 L1265.61 692.227 L1273.87 690.56 L1278.55 690.56 L1278.55 721.185 L1286.19 721.185 L1286.19 725.12 L1266.28 725.12 L1266.28 721.185 Z" fill="#000000" fill-rule="nonzero" fill-opacity="1"></path><path clip-path="url(#clip750)" d="M1306.21 705.976 Q1303.06 705.976 1301.21 708.129 Q1299.38 710.282 1299.38 714.032 Q1299.38 717.759 1301.21 719.935 Q1303.06 722.087 1306.21 722.087 Q1309.36 722.087 1311.19 719.935 Q1313.04 717.759 1313.04 714.032 Q1313.04 710.282 1311.19 708.129 Q1309.36 705.976 1306.21 705.976 M1315.49 691.324 L1315.49 695.583 Q1313.73 694.75 1311.93 694.31 Q1310.15 693.87 1308.39 693.87 Q1303.76 693.87 1301.3 696.995 Q1298.87 700.12 1298.53 706.439 Q1299.89 704.426 1301.95 703.361 Q1304.01 702.273 1306.49 702.273 Q1311.7 702.273 1314.71 705.444 Q1317.74 708.592 1317.74 714.032 Q1317.74 719.356 1314.59 722.574 Q1311.44 725.791 1306.21 725.791 Q1300.22 725.791 1297.05 721.208 Q1293.87 716.601 1293.87 707.875 Q1293.87 699.68 1297.76 694.819 Q1301.65 689.935 1308.2 689.935 Q1309.96 689.935 1311.74 690.282 Q1313.55 690.629 1315.49 691.324 Z" fill="#000000" fill-rule="nonzero" fill-opacity="1"></path><path clip-path="url(#clip750)" d="M1339.96 706.486 Q1343.32 707.203 1345.19 709.472 Q1347.09 711.74 1347.09 715.074 Q1347.09 720.189 1343.57 722.99 Q1340.05 725.791 1333.57 725.791 Q1331.4 725.791 1329.08 725.351 Q1326.79 724.935 1324.34 724.078 L1324.34 719.564 Q1326.28 720.699 1328.6 721.277 Q1330.91 721.856 1333.43 721.856 Q1337.83 721.856 1340.12 720.12 Q1342.44 718.384 1342.44 715.074 Q1342.44 712.018 1340.29 710.305 Q1338.16 708.569 1334.34 708.569 L1330.31 708.569 L1330.31 704.726 L1334.52 704.726 Q1337.97 704.726 1339.8 703.361 Q1341.63 701.972 1341.63 699.379 Q1341.63 696.717 1339.73 695.305 Q1337.86 693.87 1334.34 693.87 Q1332.42 693.87 1330.22 694.287 Q1328.02 694.703 1325.38 695.583 L1325.38 691.416 Q1328.04 690.676 1330.36 690.305 Q1332.69 689.935 1334.75 689.935 Q1340.08 689.935 1343.18 692.365 Q1346.28 694.773 1346.28 698.893 Q1346.28 701.764 1344.64 703.754 Q1342.99 705.722 1339.96 706.486 Z" fill="#000000" fill-rule="nonzero" fill-opacity="1"></path><path clip-path="url(#clip750)" d="M1365.96 708.708 Q1362.62 708.708 1360.7 710.49 Q1358.8 712.273 1358.8 715.398 Q1358.8 718.523 1360.7 720.305 Q1362.62 722.087 1365.96 722.087 Q1369.29 722.087 1371.21 720.305 Q1373.13 718.5 1373.13 715.398 Q1373.13 712.273 1371.21 710.49 Q1369.31 708.708 1365.96 708.708 M1361.28 706.717 Q1358.27 705.976 1356.58 703.916 Q1354.92 701.856 1354.92 698.893 Q1354.92 694.75 1357.86 692.342 Q1360.82 689.935 1365.96 689.935 Q1371.12 689.935 1374.06 692.342 Q1377 694.75 1377 698.893 Q1377 701.856 1375.31 703.916 Q1373.64 705.976 1370.66 706.717 Q1374.04 707.504 1375.91 709.796 Q1377.81 712.088 1377.81 715.398 Q1377.81 720.421 1374.73 723.106 Q1371.67 725.791 1365.96 725.791 Q1360.24 725.791 1357.16 723.106 Q1354.11 720.421 1354.11 715.398 Q1354.11 712.088 1356 709.796 Q1357.9 707.504 1361.28 706.717 M1359.57 699.333 Q1359.57 702.018 1361.23 703.523 Q1362.92 705.027 1365.96 705.027 Q1368.97 705.027 1370.66 703.523 Q1372.37 702.018 1372.37 699.333 Q1372.37 696.648 1370.66 695.143 Q1368.97 693.639 1365.96 693.639 Q1362.92 693.639 1361.23 695.143 Q1359.57 696.648 1359.57 699.333 Z" fill="#000000" fill-rule="nonzero" fill-opacity="1"></path><path clip-path="url(#clip750)" d="M1398.97 694.634 L1387.16 713.083 L1398.97 713.083 L1398.97 694.634 M1397.74 690.56 L1403.62 690.56 L1403.62 713.083 L1408.55 713.083 L1408.55 716.972 L1403.62 716.972 L1403.62 725.12 L1398.97 725.12 L1398.97 716.972 L1383.36 716.972 L1383.36 712.458 L1397.74 690.56 Z" fill="#000000" fill-rule="nonzero" fill-opacity="1"></path><path clip-path="url(#clip750)" d="M1527.61 706.486 Q1530.96 707.203 1532.84 709.472 Q1534.74 711.74 1534.74 715.074 Q1534.74 720.189 1531.22 722.99 Q1527.7 725.791 1521.22 725.791 Q1519.04 725.791 1516.73 725.351 Q1514.44 724.935 1511.98 724.078 L1511.98 719.564 Q1513.93 720.699 1516.24 721.277 Q1518.56 721.856 1521.08 721.856 Q1525.48 721.856 1527.77 720.12 Q1530.08 718.384 1530.08 715.074 Q1530.08 712.018 1527.93 710.305 Q1525.8 708.569 1521.98 708.569 L1517.95 708.569 L1517.95 704.726 L1522.17 704.726 Q1525.62 704.726 1527.44 703.361 Q1529.27 701.972 1529.27 699.379 Q1529.27 696.717 1527.38 695.305 Q1525.5 693.87 1521.98 693.87 Q1520.06 693.87 1517.86 694.287 Q1515.66 694.703 1513.02 695.583 L1513.02 691.416 Q1515.69 690.676 1518 690.305 Q1520.34 689.935 1522.4 689.935 Q1527.72 689.935 1530.82 692.365 Q1533.93 694.773 1533.93 698.893 Q1533.93 701.764 1532.28 703.754 Q1530.64 705.722 1527.61 706.486 Z" fill="#000000" fill-rule="nonzero" fill-opacity="1"></path><path clip-path="url(#clip750)" d="M1547.63 721.185 L1563.95 721.185 L1563.95 725.12 L1542.01 725.12 L1542.01 721.185 Q1544.67 718.43 1549.25 713.8 Q1553.86 709.148 1555.04 707.805 Q1557.28 705.282 1558.16 703.546 Q1559.07 701.787 1559.07 700.097 Q1559.07 697.342 1557.12 695.606 Q1555.2 693.87 1552.1 693.87 Q1549.9 693.87 1547.44 694.634 Q1545.01 695.398 1542.24 696.949 L1542.24 692.227 Q1545.06 691.092 1547.51 690.514 Q1549.97 689.935 1552 689.935 Q1557.38 689.935 1560.57 692.62 Q1563.76 695.305 1563.76 699.796 Q1563.76 701.926 1562.95 703.847 Q1562.17 705.745 1560.06 708.338 Q1559.48 709.009 1556.38 712.226 Q1553.28 715.421 1547.63 721.185 Z" fill="#000000" fill-rule="nonzero" fill-opacity="1"></path><path clip-path="url(#clip750)" d="M1572.58 690.56 L1594.81 690.56 L1594.81 692.551 L1582.26 725.12 L1577.38 725.12 L1589.18 694.495 L1572.58 694.495 L1572.58 690.56 Z" fill="#000000" fill-rule="nonzero" fill-opacity="1"></path><path clip-path="url(#clip750)" d="M1614.5 705.976 Q1611.36 705.976 1609.5 708.129 Q1607.68 710.282 1607.68 714.032 Q1607.68 717.759 1609.5 719.935 Q1611.36 722.087 1614.5 722.087 Q1617.65 722.087 1619.48 719.935 Q1621.33 717.759 1621.33 714.032 Q1621.33 710.282 1619.48 708.129 Q1617.65 705.976 1614.5 705.976 M1623.79 691.324 L1623.79 695.583 Q1622.03 694.75 1620.22 694.31 Q1618.44 693.87 1616.68 693.87 Q1612.05 693.87 1609.6 696.995 Q1607.17 700.12 1606.82 706.439 Q1608.19 704.426 1610.25 703.361 Q1612.31 702.273 1614.78 702.273 Q1619.99 702.273 1623 705.444 Q1626.03 708.592 1626.03 714.032 Q1626.03 719.356 1622.88 722.574 Q1619.74 725.791 1614.5 725.791 Q1608.51 725.791 1605.34 721.208 Q1602.17 716.601 1602.17 707.875 Q1602.17 699.68 1606.06 694.819 Q1609.94 689.935 1616.5 689.935 Q1618.25 689.935 1620.04 690.282 Q1621.84 690.629 1623.79 691.324 Z" fill="#000000" fill-rule="nonzero" fill-opacity="1"></path><path clip-path="url(#clip750)" d="M1644.09 708.708 Q1640.75 708.708 1638.83 710.49 Q1636.94 712.273 1636.94 715.398 Q1636.94 718.523 1638.83 720.305 Q1640.75 722.087 1644.09 722.087 Q1647.42 722.087 1649.34 720.305 Q1651.26 718.5 1651.26 715.398 Q1651.26 712.273 1649.34 710.49 Q1647.44 708.708 1644.09 708.708 M1639.41 706.717 Q1636.4 705.976 1634.71 703.916 Q1633.05 701.856 1633.05 698.893 Q1633.05 694.75 1635.99 692.342 Q1638.95 689.935 1644.09 689.935 Q1649.25 689.935 1652.19 692.342 Q1655.13 694.75 1655.13 698.893 Q1655.13 701.856 1653.44 703.916 Q1651.77 705.976 1648.79 706.717 Q1652.17 707.504 1654.04 709.796 Q1655.94 712.088 1655.94 715.398 Q1655.94 720.421 1652.86 723.106 Q1649.81 725.791 1644.09 725.791 Q1638.37 725.791 1635.29 723.106 Q1632.24 720.421 1632.24 715.398 Q1632.24 712.088 1634.13 709.796 Q1636.03 707.504 1639.41 706.717 M1637.7 699.333 Q1637.7 702.018 1639.37 703.523 Q1641.06 705.027 1644.09 705.027 Q1647.1 705.027 1648.79 703.523 Q1650.5 702.018 1650.5 699.333 Q1650.5 696.648 1648.79 695.143 Q1647.1 693.639 1644.09 693.639 Q1641.06 693.639 1639.37 695.143 Q1637.7 696.648 1637.7 699.333 Z" fill="#000000" fill-rule="nonzero" fill-opacity="1"></path><polyline clip-path="url(#clip750)" style="stroke:#000000; stroke-linecap:round; stroke-linejoin:round; stroke-width:4; stroke-opacity:1; fill:none" points="180.76,667.52 180.76,101.296 "></polyline>
<polyline clip-path="url(#clip750)" style="stroke:#000000; stroke-linecap:round; stroke-linejoin:round; stroke-width:4; stroke-opacity:1; fill:none" points="180.76,667.52 199.658,667.52 "></polyline>
<polyline clip-path="url(#clip750)" style="stroke:#000000; stroke-linecap:round; stroke-linejoin:round; stroke-width:4; stroke-opacity:1; fill:none" points="180.76,544.492 199.658,544.492 "></polyline>
<polyline clip-path="url(#clip750)" style="stroke:#000000; stroke-linecap:round; stroke-linejoin:round; stroke-width:4; stroke-opacity:1; fill:none" points="180.76,421.465 199.658,421.465 "></polyline>
<polyline clip-path="url(#clip750)" style="stroke:#000000; stroke-linecap:round; stroke-linejoin:round; stroke-width:4; stroke-opacity:1; fill:none" points="180.76,298.437 199.658,298.437 "></polyline>
<polyline clip-path="url(#clip750)" style="stroke:#000000; stroke-linecap:round; stroke-linejoin:round; stroke-width:4; stroke-opacity:1; fill:none" points="180.76,175.409 199.658,175.409 "></polyline>
<path clip-path="url(#clip750)" d="M66.4226 653.319 Q62.8115 653.319 60.9828 656.883 Q59.1773 660.425 59.1773 667.555 Q59.1773 674.661 60.9828 678.226 Q62.8115 681.767 66.4226 681.767 Q70.0569 681.767 71.8624 678.226 Q73.6911 674.661 73.6911 667.555 Q73.6911 660.425 71.8624 656.883 Q70.0569 653.319 66.4226 653.319 M66.4226 649.615 Q72.2328 649.615 75.2883 654.221 Q78.367 658.805 78.367 667.555 Q78.367 676.281 75.2883 680.888 Q72.2328 685.471 66.4226 685.471 Q60.6125 685.471 57.5338 680.888 Q54.4782 676.281 54.4782 667.555 Q54.4782 658.805 57.5338 654.221 Q60.6125 649.615 66.4226 649.615 Z" fill="#000000" fill-rule="nonzero" fill-opacity="1"></path><path clip-path="url(#clip750)" d="M86.5845 678.92 L91.4688 678.92 L91.4688 684.8 L86.5845 684.8 L86.5845 678.92 Z" fill="#000000" fill-rule="nonzero" fill-opacity="1"></path><path clip-path="url(#clip750)" d="M111.654 653.319 Q108.043 653.319 106.214 656.883 Q104.409 660.425 104.409 667.555 Q104.409 674.661 106.214 678.226 Q108.043 681.767 111.654 681.767 Q115.288 681.767 117.094 678.226 Q118.922 674.661 118.922 667.555 Q118.922 660.425 117.094 656.883 Q115.288 653.319 111.654 653.319 M111.654 649.615 Q117.464 649.615 120.52 654.221 Q123.598 658.805 123.598 667.555 Q123.598 676.281 120.52 680.888 Q117.464 685.471 111.654 685.471 Q105.844 685.471 102.765 680.888 Q99.7095 676.281 99.7095 667.555 Q99.7095 658.805 102.765 654.221 Q105.844 649.615 111.654 649.615 Z" fill="#000000" fill-rule="nonzero" fill-opacity="1"></path><path clip-path="url(#clip750)" d="M141.816 653.319 Q138.205 653.319 136.376 656.883 Q134.57 660.425 134.57 667.555 Q134.57 674.661 136.376 678.226 Q138.205 681.767 141.816 681.767 Q145.45 681.767 147.256 678.226 Q149.084 674.661 149.084 667.555 Q149.084 660.425 147.256 656.883 Q145.45 653.319 141.816 653.319 M141.816 649.615 Q147.626 649.615 150.681 654.221 Q153.76 658.805 153.76 667.555 Q153.76 676.281 150.681 680.888 Q147.626 685.471 141.816 685.471 Q136.006 685.471 132.927 680.888 Q129.871 676.281 129.871 667.555 Q129.871 658.805 132.927 654.221 Q136.006 649.615 141.816 649.615 Z" fill="#000000" fill-rule="nonzero" fill-opacity="1"></path><path clip-path="url(#clip750)" d="M68.0198 530.291 Q64.4087 530.291 62.58 533.856 Q60.7745 537.397 60.7745 544.527 Q60.7745 551.633 62.58 555.198 Q64.4087 558.74 68.0198 558.74 Q71.6541 558.74 73.4596 555.198 Q75.2883 551.633 75.2883 544.527 Q75.2883 537.397 73.4596 533.856 Q71.6541 530.291 68.0198 530.291 M68.0198 526.587 Q73.83 526.587 76.8855 531.194 Q79.9642 535.777 79.9642 544.527 Q79.9642 553.254 76.8855 557.86 Q73.83 562.444 68.0198 562.444 Q62.2097 562.444 59.131 557.86 Q56.0754 553.254 56.0754 544.527 Q56.0754 535.777 59.131 531.194 Q62.2097 526.587 68.0198 526.587 Z" fill="#000000" fill-rule="nonzero" fill-opacity="1"></path><path clip-path="url(#clip750)" d="M88.1818 555.893 L93.066 555.893 L93.066 561.772 L88.1818 561.772 L88.1818 555.893 Z" fill="#000000" fill-rule="nonzero" fill-opacity="1"></path><path clip-path="url(#clip750)" d="M113.251 530.291 Q109.64 530.291 107.811 533.856 Q106.006 537.397 106.006 544.527 Q106.006 551.633 107.811 555.198 Q109.64 558.74 113.251 558.74 Q116.885 558.74 118.691 555.198 Q120.52 551.633 120.52 544.527 Q120.52 537.397 118.691 533.856 Q116.885 530.291 113.251 530.291 M113.251 526.587 Q119.061 526.587 122.117 531.194 Q125.195 535.777 125.195 544.527 Q125.195 553.254 122.117 557.86 Q119.061 562.444 113.251 562.444 Q107.441 562.444 104.362 557.86 Q101.307 553.254 101.307 544.527 Q101.307 535.777 104.362 531.194 Q107.441 526.587 113.251 526.587 Z" fill="#000000" fill-rule="nonzero" fill-opacity="1"></path><path clip-path="url(#clip750)" d="M137.441 557.837 L153.76 557.837 L153.76 561.772 L131.816 561.772 L131.816 557.837 Q134.478 555.082 139.061 550.453 Q143.668 545.8 144.848 544.458 Q147.093 541.934 147.973 540.198 Q148.876 538.439 148.876 536.749 Q148.876 533.995 146.931 532.259 Q145.01 530.522 141.908 530.522 Q139.709 530.522 137.256 531.286 Q134.825 532.05 132.047 533.601 L132.047 528.879 Q134.871 527.745 137.325 527.166 Q139.779 526.587 141.816 526.587 Q147.186 526.587 150.38 529.272 Q153.575 531.958 153.575 536.448 Q153.575 538.578 152.765 540.499 Q151.978 542.397 149.871 544.99 Q149.293 545.661 146.191 548.879 Q143.089 552.073 137.441 557.837 Z" fill="#000000" fill-rule="nonzero" fill-opacity="1"></path><path clip-path="url(#clip750)" d="M65.9365 407.263 Q62.3254 407.263 60.4967 410.828 Q58.6912 414.37 58.6912 421.499 Q58.6912 428.606 60.4967 432.171 Q62.3254 435.712 65.9365 435.712 Q69.5707 435.712 71.3763 432.171 Q73.205 428.606 73.205 421.499 Q73.205 414.37 71.3763 410.828 Q69.5707 407.263 65.9365 407.263 M65.9365 403.56 Q71.7467 403.56 74.8022 408.166 Q77.8809 412.749 77.8809 421.499 Q77.8809 430.226 74.8022 434.833 Q71.7467 439.416 65.9365 439.416 Q60.1264 439.416 57.0477 434.833 Q53.9921 430.226 53.9921 421.499 Q53.9921 412.749 57.0477 408.166 Q60.1264 403.56 65.9365 403.56 Z" fill="#000000" fill-rule="nonzero" fill-opacity="1"></path><path clip-path="url(#clip750)" d="M86.0984 432.865 L90.9827 432.865 L90.9827 438.745 L86.0984 438.745 L86.0984 432.865 Z" fill="#000000" fill-rule="nonzero" fill-opacity="1"></path><path clip-path="url(#clip750)" d="M111.168 407.263 Q107.557 407.263 105.728 410.828 Q103.922 414.37 103.922 421.499 Q103.922 428.606 105.728 432.171 Q107.557 435.712 111.168 435.712 Q114.802 435.712 116.608 432.171 Q118.436 428.606 118.436 421.499 Q118.436 414.37 116.608 410.828 Q114.802 407.263 111.168 407.263 M111.168 403.56 Q116.978 403.56 120.033 408.166 Q123.112 412.749 123.112 421.499 Q123.112 430.226 120.033 434.833 Q116.978 439.416 111.168 439.416 Q105.358 439.416 102.279 434.833 Q99.2234 430.226 99.2234 421.499 Q99.2234 412.749 102.279 408.166 Q105.358 403.56 111.168 403.56 Z" fill="#000000" fill-rule="nonzero" fill-opacity="1"></path><path clip-path="url(#clip750)" d="M144.177 408.259 L132.371 426.708 L144.177 426.708 L144.177 408.259 M142.95 404.185 L148.83 404.185 L148.83 426.708 L153.76 426.708 L153.76 430.597 L148.83 430.597 L148.83 438.745 L144.177 438.745 L144.177 430.597 L128.575 430.597 L128.575 426.083 L142.95 404.185 Z" fill="#000000" fill-rule="nonzero" fill-opacity="1"></path><path clip-path="url(#clip750)" d="M66.2606 284.236 Q62.6495 284.236 60.8208 287.801 Q59.0152 291.342 59.0152 298.472 Q59.0152 305.578 60.8208 309.143 Q62.6495 312.685 66.2606 312.685 Q69.8948 312.685 71.7004 309.143 Q73.5291 305.578 73.5291 298.472 Q73.5291 291.342 71.7004 287.801 Q69.8948 284.236 66.2606 284.236 M66.2606 280.532 Q72.0707 280.532 75.1263 285.139 Q78.205 289.722 78.205 298.472 Q78.205 307.199 75.1263 311.805 Q72.0707 316.388 66.2606 316.388 Q60.4504 316.388 57.3717 311.805 Q54.3162 307.199 54.3162 298.472 Q54.3162 289.722 57.3717 285.139 Q60.4504 280.532 66.2606 280.532 Z" fill="#000000" fill-rule="nonzero" fill-opacity="1"></path><path clip-path="url(#clip750)" d="M86.4225 309.837 L91.3067 309.837 L91.3067 315.717 L86.4225 315.717 L86.4225 309.837 Z" fill="#000000" fill-rule="nonzero" fill-opacity="1"></path><path clip-path="url(#clip750)" d="M111.492 284.236 Q107.881 284.236 106.052 287.801 Q104.246 291.342 104.246 298.472 Q104.246 305.578 106.052 309.143 Q107.881 312.685 111.492 312.685 Q115.126 312.685 116.932 309.143 Q118.76 305.578 118.76 298.472 Q118.76 291.342 116.932 287.801 Q115.126 284.236 111.492 284.236 M111.492 280.532 Q117.302 280.532 120.358 285.139 Q123.436 289.722 123.436 298.472 Q123.436 307.199 120.358 311.805 Q117.302 316.388 111.492 316.388 Q105.682 316.388 102.603 311.805 Q99.5474 307.199 99.5474 298.472 Q99.5474 289.722 102.603 285.139 Q105.682 280.532 111.492 280.532 Z" fill="#000000" fill-rule="nonzero" fill-opacity="1"></path><path clip-path="url(#clip750)" d="M142.232 296.574 Q139.084 296.574 137.232 298.726 Q135.404 300.879 135.404 304.629 Q135.404 308.356 137.232 310.532 Q139.084 312.685 142.232 312.685 Q145.381 312.685 147.209 310.532 Q149.061 308.356 149.061 304.629 Q149.061 300.879 147.209 298.726 Q145.381 296.574 142.232 296.574 M151.515 281.921 L151.515 286.18 Q149.756 285.347 147.95 284.907 Q146.168 284.467 144.408 284.467 Q139.779 284.467 137.325 287.592 Q134.894 290.717 134.547 297.037 Q135.913 295.023 137.973 293.958 Q140.033 292.87 142.51 292.87 Q147.718 292.87 150.728 296.041 Q153.76 299.189 153.76 304.629 Q153.76 309.953 150.612 313.171 Q147.464 316.388 142.232 316.388 Q136.237 316.388 133.066 311.805 Q129.894 307.199 129.894 298.472 Q129.894 290.277 133.783 285.416 Q137.672 280.532 144.223 280.532 Q145.982 280.532 147.765 280.879 Q149.57 281.226 151.515 281.921 Z" fill="#000000" fill-rule="nonzero" fill-opacity="1"></path><path clip-path="url(#clip750)" d="M66.5152 161.208 Q62.9041 161.208 61.0754 164.773 Q59.2699 168.315 59.2699 175.444 Q59.2699 182.551 61.0754 186.115 Q62.9041 189.657 66.5152 189.657 Q70.1494 189.657 71.955 186.115 Q73.7837 182.551 73.7837 175.444 Q73.7837 168.315 71.955 164.773 Q70.1494 161.208 66.5152 161.208 M66.5152 157.504 Q72.3254 157.504 75.3809 162.111 Q78.4596 166.694 78.4596 175.444 Q78.4596 184.171 75.3809 188.777 Q72.3254 193.361 66.5152 193.361 Q60.7051 193.361 57.6264 188.777 Q54.5708 184.171 54.5708 175.444 Q54.5708 166.694 57.6264 162.111 Q60.7051 157.504 66.5152 157.504 Z" fill="#000000" fill-rule="nonzero" fill-opacity="1"></path><path clip-path="url(#clip750)" d="M86.6771 186.81 L91.5614 186.81 L91.5614 192.689 L86.6771 192.689 L86.6771 186.81 Z" fill="#000000" fill-rule="nonzero" fill-opacity="1"></path><path clip-path="url(#clip750)" d="M111.746 161.208 Q108.135 161.208 106.307 164.773 Q104.501 168.315 104.501 175.444 Q104.501 182.551 106.307 186.115 Q108.135 189.657 111.746 189.657 Q115.381 189.657 117.186 186.115 Q119.015 182.551 119.015 175.444 Q119.015 168.315 117.186 164.773 Q115.381 161.208 111.746 161.208 M111.746 157.504 Q117.557 157.504 120.612 162.111 Q123.691 166.694 123.691 175.444 Q123.691 184.171 120.612 188.777 Q117.557 193.361 111.746 193.361 Q105.936 193.361 102.858 188.777 Q99.8021 184.171 99.8021 175.444 Q99.8021 166.694 102.858 162.111 Q105.936 157.504 111.746 157.504 Z" fill="#000000" fill-rule="nonzero" fill-opacity="1"></path><path clip-path="url(#clip750)" d="M141.908 176.277 Q138.575 176.277 136.654 178.06 Q134.756 179.842 134.756 182.967 Q134.756 186.092 136.654 187.875 Q138.575 189.657 141.908 189.657 Q145.242 189.657 147.163 187.875 Q149.084 186.069 149.084 182.967 Q149.084 179.842 147.163 178.06 Q145.265 176.277 141.908 176.277 M137.232 174.287 Q134.223 173.546 132.533 171.486 Q130.867 169.426 130.867 166.463 Q130.867 162.319 133.807 159.912 Q136.769 157.504 141.908 157.504 Q147.07 157.504 150.01 159.912 Q152.95 162.319 152.95 166.463 Q152.95 169.426 151.26 171.486 Q149.593 173.546 146.607 174.287 Q149.987 175.074 151.862 177.365 Q153.76 179.657 153.76 182.967 Q153.76 187.99 150.681 190.676 Q147.626 193.361 141.908 193.361 Q136.191 193.361 133.112 190.676 Q130.057 187.99 130.057 182.967 Q130.057 179.657 131.955 177.365 Q133.853 175.074 137.232 174.287 M135.519 166.903 Q135.519 169.588 137.186 171.092 Q138.876 172.597 141.908 172.597 Q144.918 172.597 146.607 171.092 Q148.32 169.588 148.32 166.903 Q148.32 164.217 146.607 162.713 Q144.918 161.208 141.908 161.208 Q138.876 161.208 137.186 162.713 Q135.519 164.217 135.519 166.903 Z" fill="#000000" fill-rule="nonzero" fill-opacity="1"></path><path clip-path="url(#clip750)" d="M556.746 14.0809 L556.746 22.0612 Q552.087 19.8332 547.955 18.7395 Q543.823 17.6457 539.975 17.6457 Q533.291 17.6457 529.645 20.2383 Q526.04 22.8309 526.04 27.611 Q526.04 31.6214 528.43 33.6873 Q530.86 35.7128 537.585 36.9686 L542.527 37.9813 Q551.682 39.7232 556.017 44.1387 Q560.392 48.5136 560.392 55.8863 Q560.392 64.6767 554.477 69.2137 Q548.603 73.7508 537.22 73.7508 Q532.926 73.7508 528.065 72.7785 Q523.245 71.8063 518.06 69.9024 L518.06 61.4765 Q523.042 64.2716 527.822 65.6895 Q532.602 67.1073 537.22 67.1073 Q544.228 67.1073 548.036 64.3527 Q551.844 61.598 551.844 56.4939 Q551.844 52.0379 549.09 49.5264 Q546.375 47.0148 540.137 45.759 L535.154 44.7868 Q525.999 42.9639 521.908 39.075 Q517.817 35.1862 517.817 28.2591 Q517.817 20.2383 523.447 15.6203 Q529.119 11.0023 539.043 11.0023 Q543.297 11.0023 547.712 11.7719 Q552.128 12.5416 556.746 14.0809 Z" fill="#000000" fill-rule="nonzero" fill-opacity="1"></path><path clip-path="url(#clip750)" d="M600.171 34.9026 L652.104 34.9026 L652.104 41.7081 L600.171 41.7081 L600.171 34.9026 M600.171 51.4303 L652.104 51.4303 L652.104 58.3168 L600.171 58.3168 L600.171 51.4303 Z" fill="#000000" fill-rule="nonzero" fill-opacity="1"></path><path clip-path="url(#clip750)" d="M729.679 80.2727 L729.679 86.106 L727.167 86.106 Q717.081 86.106 713.637 83.1084 Q710.234 80.1107 710.234 71.1582 L710.234 61.4765 Q710.234 55.3597 708.047 53.0101 Q705.86 50.6606 700.107 50.6606 L697.636 50.6606 L697.636 44.8678 L700.107 44.8678 Q705.9 44.8678 708.047 42.5588 Q710.234 40.2093 710.234 34.1734 L710.234 24.4513 Q710.234 15.4988 713.637 12.5416 Q717.081 9.54393 727.167 9.54393 L729.679 9.54393 L729.679 15.3367 L726.924 15.3367 Q721.212 15.3367 719.471 17.1191 Q717.729 18.9015 717.729 24.6133 L717.729 34.6595 Q717.729 41.0195 715.865 43.8956 Q714.042 46.7717 709.586 47.7845 Q714.083 48.8782 715.906 51.7544 Q717.729 54.6305 717.729 60.9499 L717.729 70.9961 Q717.729 76.7079 719.471 78.4903 Q721.212 80.2727 726.924 80.2727 L729.679 80.2727 Z" fill="#000000" fill-rule="nonzero" fill-opacity="1"></path><path clip-path="url(#clip750)" d="M750.338 65.6895 L763.706 65.6895 L763.706 19.5497 L749.164 22.4663 L749.164 15.0127 L763.625 12.096 L771.808 12.096 L771.808 65.6895 L785.176 65.6895 L785.176 72.576 L750.338 72.576 L750.338 65.6895 Z" fill="#000000" fill-rule="nonzero" fill-opacity="1"></path><path clip-path="url(#clip750)" d="M802.555 62.2867 L811.102 62.2867 L811.102 69.2543 L804.459 82.2172 L799.233 82.2172 L802.555 69.2543 L802.555 62.2867 Z" fill="#000000" fill-rule="nonzero" fill-opacity="1"></path><path clip-path="url(#clip750)" d="M854.528 12.096 L886.651 12.096 L886.651 18.9825 L862.022 18.9825 L862.022 33.8088 Q863.804 33.2012 865.587 32.9176 Q867.369 32.5936 869.151 32.5936 Q879.279 32.5936 885.193 38.1433 Q891.107 43.6931 891.107 53.1722 Q891.107 62.9348 885.031 68.3631 Q878.955 73.7508 867.896 73.7508 Q864.088 73.7508 860.118 73.1026 Q856.189 72.4545 851.976 71.1582 L851.976 62.9348 Q855.621 64.9198 859.51 65.892 Q863.399 66.8642 867.734 66.8642 Q874.742 66.8642 878.833 63.1779 Q882.925 59.4916 882.925 53.1722 Q882.925 46.8528 878.833 43.1664 Q874.742 39.4801 867.734 39.4801 Q864.452 39.4801 861.171 40.2093 Q857.93 40.9384 854.528 42.4778 L854.528 12.096 Z" fill="#000000" fill-rule="nonzero" fill-opacity="1"></path><path clip-path="url(#clip750)" d="M908.081 62.2867 L916.628 62.2867 L916.628 69.2543 L909.985 82.2172 L904.759 82.2172 L908.081 69.2543 L908.081 62.2867 Z" fill="#000000" fill-rule="nonzero" fill-opacity="1"></path><path clip-path="url(#clip750)" d="M961.391 65.6895 L974.759 65.6895 L974.759 19.5497 L960.216 22.4663 L960.216 15.0127 L974.678 12.096 L982.86 12.096 L982.86 65.6895 L996.228 65.6895 L996.228 72.576 L961.391 72.576 L961.391 65.6895 Z" fill="#000000" fill-rule="nonzero" fill-opacity="1"></path><path clip-path="url(#clip750)" d="M1030.26 17.4837 Q1023.94 17.4837 1020.74 23.7221 Q1017.58 29.92 1017.58 42.3968 Q1017.58 54.833 1020.74 61.0714 Q1023.94 67.2693 1030.26 67.2693 Q1036.62 67.2693 1039.78 61.0714 Q1042.98 54.833 1042.98 42.3968 Q1042.98 29.92 1039.78 23.7221 Q1036.62 17.4837 1030.26 17.4837 M1030.26 11.0023 Q1040.42 11.0023 1045.77 19.0636 Q1051.16 27.0843 1051.16 42.3968 Q1051.16 57.6687 1045.77 65.73 Q1040.42 73.7508 1030.26 73.7508 Q1020.09 73.7508 1014.7 65.73 Q1009.35 57.6687 1009.35 42.3968 Q1009.35 27.0843 1014.7 19.0636 Q1020.09 11.0023 1030.26 11.0023 Z" fill="#000000" fill-rule="nonzero" fill-opacity="1"></path><path clip-path="url(#clip750)" d="M1066.39 62.2867 L1074.94 62.2867 L1074.94 69.2543 L1068.29 82.2172 L1063.07 82.2172 L1066.39 69.2543 L1066.39 62.2867 Z" fill="#000000" fill-rule="nonzero" fill-opacity="1"></path><path clip-path="url(#clip750)" d="M1119.7 65.6895 L1133.07 65.6895 L1133.07 19.5497 L1118.53 22.4663 L1118.53 15.0127 L1132.99 12.096 L1141.17 12.096 L1141.17 65.6895 L1154.54 65.6895 L1154.54 72.576 L1119.7 72.576 L1119.7 65.6895 Z" fill="#000000" fill-rule="nonzero" fill-opacity="1"></path><path clip-path="url(#clip750)" d="M1171.15 12.096 L1203.27 12.096 L1203.27 18.9825 L1178.64 18.9825 L1178.64 33.8088 Q1180.42 33.2012 1182.21 32.9176 Q1183.99 32.5936 1185.77 32.5936 Q1195.9 32.5936 1201.81 38.1433 Q1207.73 43.6931 1207.73 53.1722 Q1207.73 62.9348 1201.65 68.3631 Q1195.57 73.7508 1184.51 73.7508 Q1180.71 73.7508 1176.74 73.1026 Q1172.81 72.4545 1168.59 71.1582 L1168.59 62.9348 Q1172.24 64.9198 1176.13 65.892 Q1180.02 66.8642 1184.35 66.8642 Q1191.36 66.8642 1195.45 63.1779 Q1199.54 59.4916 1199.54 53.1722 Q1199.54 46.8528 1195.45 43.1664 Q1191.36 39.4801 1184.35 39.4801 Q1181.07 39.4801 1177.79 40.2093 Q1174.55 40.9384 1171.15 42.4778 L1171.15 12.096 Z" fill="#000000" fill-rule="nonzero" fill-opacity="1"></path><path clip-path="url(#clip750)" d="M1224.7 62.2867 L1233.25 62.2867 L1233.25 69.2543 L1226.6 82.2172 L1221.38 82.2172 L1224.7 69.2543 L1224.7 62.2867 Z" fill="#000000" fill-rule="nonzero" fill-opacity="1"></path><path clip-path="url(#clip750)" d="M1283.64 65.6895 L1312.2 65.6895 L1312.2 72.576 L1273.8 72.576 L1273.8 65.6895 Q1278.45 60.8689 1286.48 52.7671 Q1294.54 44.6248 1296.6 42.2752 Q1300.53 37.8598 1302.07 34.8216 Q1303.65 31.7429 1303.65 28.7857 Q1303.65 23.9651 1300.25 20.927 Q1296.89 17.8888 1291.46 17.8888 Q1287.61 17.8888 1283.32 19.2256 Q1279.06 20.5624 1274.2 23.2765 L1274.2 15.0127 Q1279.14 13.0277 1283.44 12.015 Q1287.73 11.0023 1291.3 11.0023 Q1300.69 11.0023 1306.28 15.7013 Q1311.87 20.4004 1311.87 28.2591 Q1311.87 31.9859 1310.46 35.3482 Q1309.08 38.6699 1305.39 43.2069 Q1304.38 44.3817 1298.95 50.0125 Q1293.52 55.6027 1283.64 65.6895 Z" fill="#000000" fill-rule="nonzero" fill-opacity="1"></path><path clip-path="url(#clip750)" d="M1346.87 17.4837 Q1340.56 17.4837 1337.35 23.7221 Q1334.2 29.92 1334.2 42.3968 Q1334.2 54.833 1337.35 61.0714 Q1340.56 67.2693 1346.87 67.2693 Q1353.23 67.2693 1356.39 61.0714 Q1359.59 54.833 1359.59 42.3968 Q1359.59 29.92 1356.39 23.7221 Q1353.23 17.4837 1346.87 17.4837 M1346.87 11.0023 Q1357.04 11.0023 1362.39 19.0636 Q1367.78 27.0843 1367.78 42.3968 Q1367.78 57.6687 1362.39 65.73 Q1357.04 73.7508 1346.87 73.7508 Q1336.71 73.7508 1331.32 65.73 Q1325.97 57.6687 1325.97 42.3968 Q1325.97 27.0843 1331.32 19.0636 Q1336.71 11.0023 1346.87 11.0023 Z" fill="#000000" fill-rule="nonzero" fill-opacity="1"></path><path clip-path="url(#clip750)" d="M1383.66 80.2727 L1386.49 80.2727 Q1392.16 80.2727 1393.87 78.5308 Q1395.61 76.7889 1395.61 70.9961 L1395.61 60.9499 Q1395.61 54.6305 1397.43 51.7544 Q1399.25 48.8782 1403.75 47.7845 Q1399.25 46.7717 1397.43 43.8956 Q1395.61 41.0195 1395.61 34.6595 L1395.61 24.6133 Q1395.61 18.861 1393.87 17.1191 Q1392.16 15.3367 1386.49 15.3367 L1383.66 15.3367 L1383.66 9.54393 L1386.21 9.54393 Q1396.3 9.54393 1399.66 12.5416 Q1403.06 15.4988 1403.06 24.4513 L1403.06 34.1734 Q1403.06 40.2093 1405.25 42.5588 Q1407.44 44.8678 1413.19 44.8678 L1415.7 44.8678 L1415.7 50.6606 L1413.19 50.6606 Q1407.44 50.6606 1405.25 53.0101 Q1403.06 55.3597 1403.06 61.4765 L1403.06 71.1582 Q1403.06 80.1107 1399.66 83.1084 Q1396.3 86.106 1386.21 86.106 L1383.66 86.106 L1383.66 80.2727 Z" fill="#000000" fill-rule="nonzero" fill-opacity="1"></path><path clip-path="url(#clip752)" d="M263.147 317.958 L263.147 667.52 L291.95 667.52 L291.95 317.958 L263.147 317.958 L263.147 317.958  Z" fill="#009af9" fill-rule="evenodd" fill-opacity="1"></path>
<polyline clip-path="url(#clip752)" style="stroke:#000000; stroke-linecap:round; stroke-linejoin:round; stroke-width:4; stroke-opacity:1; fill:none" points="263.147,317.958 263.147,667.52 291.95,667.52 291.95,317.958 263.147,317.958 "></polyline>
<path clip-path="url(#clip752)" d="M510.028 641.346 L510.028 667.52 L538.831 667.52 L538.831 641.346 L510.028 641.346 L510.028 641.346  Z" fill="#009af9" fill-rule="evenodd" fill-opacity="1"></path>
<polyline clip-path="url(#clip752)" style="stroke:#000000; stroke-linecap:round; stroke-linejoin:round; stroke-width:4; stroke-opacity:1; fill:none" points="510.028,641.346 510.028,667.52 538.831,667.52 538.831,641.346 510.028,641.346 "></polyline>
<path clip-path="url(#clip752)" d="M756.909 550.393 L756.909 667.52 L785.712 667.52 L785.712 550.393 L756.909 550.393 L756.909 550.393  Z" fill="#009af9" fill-rule="evenodd" fill-opacity="1"></path>
<polyline clip-path="url(#clip752)" style="stroke:#000000; stroke-linecap:round; stroke-linejoin:round; stroke-width:4; stroke-opacity:1; fill:none" points="756.909,550.393 756.909,667.52 785.712,667.52 785.712,550.393 756.909,550.393 "></polyline>
<path clip-path="url(#clip752)" d="M1003.79 403.858 L1003.79 667.52 L1032.59 667.52 L1032.59 403.858 L1003.79 403.858 L1003.79 403.858  Z" fill="#009af9" fill-rule="evenodd" fill-opacity="1"></path>
<polyline clip-path="url(#clip752)" style="stroke:#000000; stroke-linecap:round; stroke-linejoin:round; stroke-width:4; stroke-opacity:1; fill:none" points="1003.79,403.858 1003.79,667.52 1032.59,667.52 1032.59,403.858 1003.79,403.858 "></polyline>
<path clip-path="url(#clip752)" d="M1250.67 646.399 L1250.67 667.52 L1279.47 667.52 L1279.47 646.399 L1250.67 646.399 L1250.67 646.399  Z" fill="#009af9" fill-rule="evenodd" fill-opacity="1"></path>
<polyline clip-path="url(#clip752)" style="stroke:#000000; stroke-linecap:round; stroke-linejoin:round; stroke-width:4; stroke-opacity:1; fill:none" points="1250.67,646.399 1250.67,667.52 1279.47,667.52 1279.47,646.399 1250.67,646.399 "></polyline>
<path clip-path="url(#clip752)" d="M1497.55 640.638 L1497.55 667.52 L1526.36 667.52 L1526.36 640.638 L1497.55 640.638 L1497.55 640.638  Z" fill="#009af9" fill-rule="evenodd" fill-opacity="1"></path>
<polyline clip-path="url(#clip752)" style="stroke:#000000; stroke-linecap:round; stroke-linejoin:round; stroke-width:4; stroke-opacity:1; fill:none" points="1497.55,640.638 1497.55,667.52 1526.36,667.52 1526.36,640.638 1497.55,640.638 "></polyline>
<circle clip-path="url(#clip752)" style="fill:#009af9; stroke:none; fill-opacity:0" cx="277.548" cy="317.958" r="2"></circle>
<circle clip-path="url(#clip752)" style="fill:#009af9; stroke:none; fill-opacity:0" cx="524.429" cy="641.346" r="2"></circle>
<circle clip-path="url(#clip752)" style="fill:#009af9; stroke:none; fill-opacity:0" cx="771.31" cy="550.393" r="2"></circle>
<circle clip-path="url(#clip752)" style="fill:#009af9; stroke:none; fill-opacity:0" cx="1018.19" cy="403.858" r="2"></circle>
<circle clip-path="url(#clip752)" style="fill:#009af9; stroke:none; fill-opacity:0" cx="1265.07" cy="646.399" r="2"></circle>
<circle clip-path="url(#clip752)" style="fill:#009af9; stroke:none; fill-opacity:0" cx="1511.95" cy="640.638" r="2"></circle>
<path clip-path="url(#clip752)" d="M291.95 413.12 L291.95 667.52 L320.752 667.52 L320.752 413.12 L291.95 413.12 L291.95 413.12  Z" fill="#e26f46" fill-rule="evenodd" fill-opacity="1"></path>
<polyline clip-path="url(#clip752)" style="stroke:#000000; stroke-linecap:round; stroke-linejoin:round; stroke-width:4; stroke-opacity:1; fill:none" points="291.95,413.12 291.95,667.52 320.752,667.52 320.752,413.12 291.95,413.12 "></polyline>
<path clip-path="url(#clip752)" d="M538.831 579.653 L538.831 667.52 L567.634 667.52 L567.634 579.653 L538.831 579.653 L538.831 579.653  Z" fill="#e26f46" fill-rule="evenodd" fill-opacity="1"></path>
<polyline clip-path="url(#clip752)" style="stroke:#000000; stroke-linecap:round; stroke-linejoin:round; stroke-width:4; stroke-opacity:1; fill:none" points="538.831,579.653 538.831,667.52 567.634,667.52 567.634,579.653 538.831,579.653 "></polyline>
<path clip-path="url(#clip752)" d="M785.712 660.225 L785.712 667.52 L814.515 667.52 L814.515 660.225 L785.712 660.225 L785.712 660.225  Z" fill="#e26f46" fill-rule="evenodd" fill-opacity="1"></path>
<polyline clip-path="url(#clip752)" style="stroke:#000000; stroke-linecap:round; stroke-linejoin:round; stroke-width:4; stroke-opacity:1; fill:none" points="785.712,660.225 785.712,667.52 814.515,667.52 814.515,660.225 785.712,660.225 "></polyline>
<path clip-path="url(#clip752)" d="M1032.59 651.025 L1032.59 667.52 L1061.4 667.52 L1061.4 651.025 L1032.59 651.025 L1032.59 651.025  Z" fill="#e26f46" fill-rule="evenodd" fill-opacity="1"></path>
<polyline clip-path="url(#clip752)" style="stroke:#000000; stroke-linecap:round; stroke-linejoin:round; stroke-width:4; stroke-opacity:1; fill:none" points="1032.59,651.025 1032.59,667.52 1061.4,667.52 1061.4,651.025 1032.59,651.025 "></polyline>
<path clip-path="url(#clip752)" d="M1279.47 523.43 L1279.47 667.52 L1308.28 667.52 L1308.28 523.43 L1279.47 523.43 L1279.47 523.43  Z" fill="#e26f46" fill-rule="evenodd" fill-opacity="1"></path>
<polyline clip-path="url(#clip752)" style="stroke:#000000; stroke-linecap:round; stroke-linejoin:round; stroke-width:4; stroke-opacity:1; fill:none" points="1279.47,523.43 1279.47,667.52 1308.28,667.52 1308.28,523.43 1279.47,523.43 "></polyline>
<path clip-path="url(#clip752)" d="M1526.36 664.686 L1526.36 667.52 L1555.16 667.52 L1555.16 664.686 L1526.36 664.686 L1526.36 664.686  Z" fill="#e26f46" fill-rule="evenodd" fill-opacity="1"></path>
<polyline clip-path="url(#clip752)" style="stroke:#000000; stroke-linecap:round; stroke-linejoin:round; stroke-width:4; stroke-opacity:1; fill:none" points="1526.36,664.686 1526.36,667.52 1555.16,667.52 1555.16,664.686 1526.36,664.686 "></polyline>
<circle clip-path="url(#clip752)" style="fill:#e26f46; stroke:none; fill-opacity:0" cx="306.351" cy="413.12" r="2"></circle>
<circle clip-path="url(#clip752)" style="fill:#e26f46; stroke:none; fill-opacity:0" cx="553.232" cy="579.653" r="2"></circle>
<circle clip-path="url(#clip752)" style="fill:#e26f46; stroke:none; fill-opacity:0" cx="800.113" cy="660.225" r="2"></circle>
<circle clip-path="url(#clip752)" style="fill:#e26f46; stroke:none; fill-opacity:0" cx="1046.99" cy="651.025" r="2"></circle>
<circle clip-path="url(#clip752)" style="fill:#e26f46; stroke:none; fill-opacity:0" cx="1293.88" cy="523.43" r="2"></circle>
<circle clip-path="url(#clip752)" style="fill:#e26f46; stroke:none; fill-opacity:0" cx="1540.76" cy="664.686" r="2"></circle>
<path clip-path="url(#clip752)" d="M320.752 617.446 L320.752 667.52 L349.555 667.52 L349.555 617.446 L320.752 617.446 L320.752 617.446  Z" fill="#3da44d" fill-rule="evenodd" fill-opacity="1"></path>
<polyline clip-path="url(#clip752)" style="stroke:#000000; stroke-linecap:round; stroke-linejoin:round; stroke-width:4; stroke-opacity:1; fill:none" points="320.752,617.446 320.752,667.52 349.555,667.52 349.555,617.446 320.752,617.446 "></polyline>
<path clip-path="url(#clip752)" d="M567.634 595.244 L567.634 667.52 L596.436 667.52 L596.436 595.244 L567.634 595.244 L567.634 595.244  Z" fill="#3da44d" fill-rule="evenodd" fill-opacity="1"></path>
<polyline clip-path="url(#clip752)" style="stroke:#000000; stroke-linecap:round; stroke-linejoin:round; stroke-width:4; stroke-opacity:1; fill:none" points="567.634,595.244 567.634,667.52 596.436,667.52 596.436,595.244 567.634,595.244 "></polyline>
<path clip-path="url(#clip752)" d="M814.515 662.089 L814.515 667.52 L843.317 667.52 L843.317 662.089 L814.515 662.089 L814.515 662.089  Z" fill="#3da44d" fill-rule="evenodd" fill-opacity="1"></path>
<polyline clip-path="url(#clip752)" style="stroke:#000000; stroke-linecap:round; stroke-linejoin:round; stroke-width:4; stroke-opacity:1; fill:none" points="814.515,662.089 814.515,667.52 843.317,667.52 843.317,662.089 814.515,662.089 "></polyline>
<path clip-path="url(#clip752)" d="M1061.4 639.887 L1061.4 667.52 L1090.2 667.52 L1090.2 639.887 L1061.4 639.887 L1061.4 639.887  Z" fill="#3da44d" fill-rule="evenodd" fill-opacity="1"></path>
<polyline clip-path="url(#clip752)" style="stroke:#000000; stroke-linecap:round; stroke-linejoin:round; stroke-width:4; stroke-opacity:1; fill:none" points="1061.4,639.887 1061.4,667.52 1090.2,667.52 1090.2,639.887 1061.4,639.887 "></polyline>
<path clip-path="url(#clip752)" d="M1308.28 650.988 L1308.28 667.52 L1337.08 667.52 L1337.08 650.988 L1308.28 650.988 L1308.28 650.988  Z" fill="#3da44d" fill-rule="evenodd" fill-opacity="1"></path>
<polyline clip-path="url(#clip752)" style="stroke:#000000; stroke-linecap:round; stroke-linejoin:round; stroke-width:4; stroke-opacity:1; fill:none" points="1308.28,650.988 1308.28,667.52 1337.08,667.52 1337.08,650.988 1308.28,650.988 "></polyline>
<path clip-path="url(#clip752)" d="M1555.16 555.003 L1555.16 667.52 L1583.96 667.52 L1583.96 555.003 L1555.16 555.003 L1555.16 555.003  Z" fill="#3da44d" fill-rule="evenodd" fill-opacity="1"></path>
<polyline clip-path="url(#clip752)" style="stroke:#000000; stroke-linecap:round; stroke-linejoin:round; stroke-width:4; stroke-opacity:1; fill:none" points="1555.16,555.003 1555.16,667.52 1583.96,667.52 1583.96,555.003 1555.16,555.003 "></polyline>
<circle clip-path="url(#clip752)" style="fill:#3da44d; stroke:none; fill-opacity:0" cx="335.154" cy="617.446" r="2"></circle>
<circle clip-path="url(#clip752)" style="fill:#3da44d; stroke:none; fill-opacity:0" cx="582.035" cy="595.244" r="2"></circle>
<circle clip-path="url(#clip752)" style="fill:#3da44d; stroke:none; fill-opacity:0" cx="828.916" cy="662.089" r="2"></circle>
<circle clip-path="url(#clip752)" style="fill:#3da44d; stroke:none; fill-opacity:0" cx="1075.8" cy="639.887" r="2"></circle>
<circle clip-path="url(#clip752)" style="fill:#3da44d; stroke:none; fill-opacity:0" cx="1322.68" cy="650.988" r="2"></circle>
<circle clip-path="url(#clip752)" style="fill:#3da44d; stroke:none; fill-opacity:0" cx="1569.56" cy="555.003" r="2"></circle>
<path clip-path="url(#clip752)" d="M349.555 571.916 L349.555 667.52 L378.358 667.52 L378.358 571.916 L349.555 571.916 L349.555 571.916  Z" fill="#c271d2" fill-rule="evenodd" fill-opacity="1"></path>
<polyline clip-path="url(#clip752)" style="stroke:#000000; stroke-linecap:round; stroke-linejoin:round; stroke-width:4; stroke-opacity:1; fill:none" points="349.555,571.916 349.555,667.52 378.358,667.52 378.358,571.916 349.555,571.916 "></polyline>
<path clip-path="url(#clip752)" d="M596.436 318.699 L596.436 667.52 L625.239 667.52 L625.239 318.699 L596.436 318.699 L596.436 318.699  Z" fill="#c271d2" fill-rule="evenodd" fill-opacity="1"></path>
<polyline clip-path="url(#clip752)" style="stroke:#000000; stroke-linecap:round; stroke-linejoin:round; stroke-width:4; stroke-opacity:1; fill:none" points="596.436,318.699 596.436,667.52 625.239,667.52 625.239,318.699 596.436,318.699 "></polyline>
<path clip-path="url(#clip752)" d="M843.317 583.238 L843.317 667.52 L872.12 667.52 L872.12 583.238 L843.317 583.238 L843.317 583.238  Z" fill="#c271d2" fill-rule="evenodd" fill-opacity="1"></path>
<polyline clip-path="url(#clip752)" style="stroke:#000000; stroke-linecap:round; stroke-linejoin:round; stroke-width:4; stroke-opacity:1; fill:none" points="843.317,583.238 843.317,667.52 872.12,667.52 872.12,583.238 843.317,583.238 "></polyline>
<path clip-path="url(#clip752)" d="M1090.2 646.727 L1090.2 667.52 L1119 667.52 L1119 646.727 L1090.2 646.727 L1090.2 646.727  Z" fill="#c271d2" fill-rule="evenodd" fill-opacity="1"></path>
<polyline clip-path="url(#clip752)" style="stroke:#000000; stroke-linecap:round; stroke-linejoin:round; stroke-width:4; stroke-opacity:1; fill:none" points="1090.2,646.727 1090.2,667.52 1119,667.52 1119,646.727 1090.2,646.727 "></polyline>
<path clip-path="url(#clip752)" d="M1337.08 628.209 L1337.08 667.52 L1365.88 667.52 L1365.88 628.209 L1337.08 628.209 L1337.08 628.209  Z" fill="#c271d2" fill-rule="evenodd" fill-opacity="1"></path>
<polyline clip-path="url(#clip752)" style="stroke:#000000; stroke-linecap:round; stroke-linejoin:round; stroke-width:4; stroke-opacity:1; fill:none" points="1337.08,628.209 1337.08,667.52 1365.88,667.52 1365.88,628.209 1337.08,628.209 "></polyline>
<path clip-path="url(#clip752)" d="M1583.96 664.504 L1583.96 667.52 L1612.76 667.52 L1612.76 664.504 L1583.96 664.504 L1583.96 664.504  Z" fill="#c271d2" fill-rule="evenodd" fill-opacity="1"></path>
<polyline clip-path="url(#clip752)" style="stroke:#000000; stroke-linecap:round; stroke-linejoin:round; stroke-width:4; stroke-opacity:1; fill:none" points="1583.96,664.504 1583.96,667.52 1612.76,667.52 1612.76,664.504 1583.96,664.504 "></polyline>
<circle clip-path="url(#clip752)" style="fill:#c271d2; stroke:none; fill-opacity:0" cx="363.957" cy="571.916" r="2"></circle>
<circle clip-path="url(#clip752)" style="fill:#c271d2; stroke:none; fill-opacity:0" cx="610.838" cy="318.699" r="2"></circle>
<circle clip-path="url(#clip752)" style="fill:#c271d2; stroke:none; fill-opacity:0" cx="857.719" cy="583.238" r="2"></circle>
<circle clip-path="url(#clip752)" style="fill:#c271d2; stroke:none; fill-opacity:0" cx="1104.6" cy="646.727" r="2"></circle>
<circle clip-path="url(#clip752)" style="fill:#c271d2; stroke:none; fill-opacity:0" cx="1351.48" cy="628.209" r="2"></circle>
<circle clip-path="url(#clip752)" style="fill:#c271d2; stroke:none; fill-opacity:0" cx="1598.36" cy="664.504" r="2"></circle>
<path clip-path="url(#clip752)" d="M378.358 101.296 L378.358 667.52 L407.161 667.52 L407.161 101.296 L378.358 101.296 L378.358 101.296  Z" fill="#ac8d18" fill-rule="evenodd" fill-opacity="1"></path>
<polyline clip-path="url(#clip752)" style="stroke:#000000; stroke-linecap:round; stroke-linejoin:round; stroke-width:4; stroke-opacity:1; fill:none" points="378.358,101.296 378.358,667.52 407.161,667.52 407.161,101.296 378.358,101.296 "></polyline>
<path clip-path="url(#clip752)" d="M625.239 463.651 L625.239 667.52 L654.042 667.52 L654.042 463.651 L625.239 463.651 L625.239 463.651  Z" fill="#ac8d18" fill-rule="evenodd" fill-opacity="1"></path>
<polyline clip-path="url(#clip752)" style="stroke:#000000; stroke-linecap:round; stroke-linejoin:round; stroke-width:4; stroke-opacity:1; fill:none" points="625.239,463.651 625.239,667.52 654.042,667.52 654.042,463.651 625.239,463.651 "></polyline>
<path clip-path="url(#clip752)" d="M872.12 317.958 L872.12 667.52 L900.923 667.52 L900.923 317.958 L872.12 317.958 L872.12 317.958  Z" fill="#ac8d18" fill-rule="evenodd" fill-opacity="1"></path>
<polyline clip-path="url(#clip752)" style="stroke:#000000; stroke-linecap:round; stroke-linejoin:round; stroke-width:4; stroke-opacity:1; fill:none" points="872.12,317.958 872.12,667.52 900.923,667.52 900.923,317.958 872.12,317.958 "></polyline>
<path clip-path="url(#clip752)" d="M1119 470.732 L1119 667.52 L1147.8 667.52 L1147.8 470.732 L1119 470.732 L1119 470.732  Z" fill="#ac8d18" fill-rule="evenodd" fill-opacity="1"></path>
<polyline clip-path="url(#clip752)" style="stroke:#000000; stroke-linecap:round; stroke-linejoin:round; stroke-width:4; stroke-opacity:1; fill:none" points="1119,470.732 1119,667.52 1147.8,667.52 1147.8,470.732 1119,470.732 "></polyline>
<path clip-path="url(#clip752)" d="M1365.88 553.985 L1365.88 667.52 L1394.69 667.52 L1394.69 553.985 L1365.88 553.985 L1365.88 553.985  Z" fill="#ac8d18" fill-rule="evenodd" fill-opacity="1"></path>
<polyline clip-path="url(#clip752)" style="stroke:#000000; stroke-linecap:round; stroke-linejoin:round; stroke-width:4; stroke-opacity:1; fill:none" points="1365.88,553.985 1365.88,667.52 1394.69,667.52 1394.69,553.985 1365.88,553.985 "></polyline>
<path clip-path="url(#clip752)" d="M1612.76 609.921 L1612.76 667.52 L1641.57 667.52 L1641.57 609.921 L1612.76 609.921 L1612.76 609.921  Z" fill="#ac8d18" fill-rule="evenodd" fill-opacity="1"></path>
<polyline clip-path="url(#clip752)" style="stroke:#000000; stroke-linecap:round; stroke-linejoin:round; stroke-width:4; stroke-opacity:1; fill:none" points="1612.76,609.921 1612.76,667.52 1641.57,667.52 1641.57,609.921 1612.76,609.921 "></polyline>
<circle clip-path="url(#clip752)" style="fill:#ac8d18; stroke:none; fill-opacity:0" cx="392.759" cy="101.296" r="2"></circle>
<circle clip-path="url(#clip752)" style="fill:#ac8d18; stroke:none; fill-opacity:0" cx="639.641" cy="463.651" r="2"></circle>
<circle clip-path="url(#clip752)" style="fill:#ac8d18; stroke:none; fill-opacity:0" cx="886.522" cy="317.958" r="2"></circle>
<circle clip-path="url(#clip752)" style="fill:#ac8d18; stroke:none; fill-opacity:0" cx="1133.4" cy="470.732" r="2"></circle>
<circle clip-path="url(#clip752)" style="fill:#ac8d18; stroke:none; fill-opacity:0" cx="1380.28" cy="553.985" r="2"></circle>
<circle clip-path="url(#clip752)" style="fill:#ac8d18; stroke:none; fill-opacity:0" cx="1627.17" cy="609.921" r="2"></circle>
<path clip-path="url(#clip752)" d="M407.161 317.958 L407.161 667.52 L435.964 667.52 L435.964 317.958 L407.161 317.958 L407.161 317.958  Z" fill="#00a9ad" fill-rule="evenodd" fill-opacity="1"></path>
<polyline clip-path="url(#clip752)" style="stroke:#000000; stroke-linecap:round; stroke-linejoin:round; stroke-width:4; stroke-opacity:1; fill:none" points="407.161,317.958 407.161,667.52 435.964,667.52 435.964,317.958 407.161,317.958 "></polyline>
<path clip-path="url(#clip752)" d="M654.042 502.109 L654.042 667.52 L682.845 667.52 L682.845 502.109 L654.042 502.109 L654.042 502.109  Z" fill="#00a9ad" fill-rule="evenodd" fill-opacity="1"></path>
<polyline clip-path="url(#clip752)" style="stroke:#000000; stroke-linecap:round; stroke-linejoin:round; stroke-width:4; stroke-opacity:1; fill:none" points="654.042,502.109 654.042,667.52 682.845,667.52 682.845,502.109 654.042,502.109 "></polyline>
<path clip-path="url(#clip752)" d="M900.923 666.9 L900.923 667.52 L929.726 667.52 L929.726 666.9 L900.923 666.9 L900.923 666.9  Z" fill="#00a9ad" fill-rule="evenodd" fill-opacity="1"></path>
<polyline clip-path="url(#clip752)" style="stroke:#000000; stroke-linecap:round; stroke-linejoin:round; stroke-width:4; stroke-opacity:1; fill:none" points="900.923,666.9 900.923,667.52 929.726,667.52 929.726,666.9 900.923,666.9 "></polyline>
<path clip-path="url(#clip752)" d="M1147.8 543.307 L1147.8 667.52 L1176.61 667.52 L1176.61 543.307 L1147.8 543.307 L1147.8 543.307  Z" fill="#00a9ad" fill-rule="evenodd" fill-opacity="1"></path>
<polyline clip-path="url(#clip752)" style="stroke:#000000; stroke-linecap:round; stroke-linejoin:round; stroke-width:4; stroke-opacity:1; fill:none" points="1147.8,543.307 1147.8,667.52 1176.61,667.52 1176.61,543.307 1147.8,543.307 "></polyline>
<path clip-path="url(#clip752)" d="M1394.69 626.942 L1394.69 667.52 L1423.49 667.52 L1423.49 626.942 L1394.69 626.942 L1394.69 626.942  Z" fill="#00a9ad" fill-rule="evenodd" fill-opacity="1"></path>
<polyline clip-path="url(#clip752)" style="stroke:#000000; stroke-linecap:round; stroke-linejoin:round; stroke-width:4; stroke-opacity:1; fill:none" points="1394.69,626.942 1394.69,667.52 1423.49,667.52 1423.49,626.942 1394.69,626.942 "></polyline>
<path clip-path="url(#clip752)" d="M1641.57 635.954 L1641.57 667.52 L1670.37 667.52 L1670.37 635.954 L1641.57 635.954 L1641.57 635.954  Z" fill="#00a9ad" fill-rule="evenodd" fill-opacity="1"></path>
<polyline clip-path="url(#clip752)" style="stroke:#000000; stroke-linecap:round; stroke-linejoin:round; stroke-width:4; stroke-opacity:1; fill:none" points="1641.57,635.954 1641.57,667.52 1670.37,667.52 1670.37,635.954 1641.57,635.954 "></polyline>
<circle clip-path="url(#clip752)" style="fill:#00a9ad; stroke:none; fill-opacity:0" cx="421.562" cy="317.958" r="2"></circle>
<circle clip-path="url(#clip752)" style="fill:#00a9ad; stroke:none; fill-opacity:0" cx="668.443" cy="502.109" r="2"></circle>
<circle clip-path="url(#clip752)" style="fill:#00a9ad; stroke:none; fill-opacity:0" cx="915.324" cy="666.9" r="2"></circle>
<circle clip-path="url(#clip752)" style="fill:#00a9ad; stroke:none; fill-opacity:0" cx="1162.21" cy="543.307" r="2"></circle>
<circle clip-path="url(#clip752)" style="fill:#00a9ad; stroke:none; fill-opacity:0" cx="1409.09" cy="626.942" r="2"></circle>
<circle clip-path="url(#clip752)" style="fill:#00a9ad; stroke:none; fill-opacity:0" cx="1655.97" cy="635.954" r="2"></circle>
</svg>