<svg xmlns="http://www.w3.org/2000/svg" xmlns:xlink="http://www.w3.org/1999/xlink" width="800" height="150" viewBox="0 0 3200 600">
<defs>
  <clipPath id="clip280">
    <rect x="0" y="0" width="3200" height="600"></rect>
  </clipPath>
</defs>
<path clip-path="url(#clip280)" d="M0 600 L3200 600 L3200 0 L0 0  Z" fill="#ffffff" fill-rule="evenodd" fill-opacity="1"></path>
<defs>
  <clipPath id="clip281">
    <rect x="640" y="0" width="2241" height="600"></rect>
  </clipPath>
</defs>
<path clip-path="url(#clip280)" d="M194.274 521.288 L3152.76 521.288 L3152.76 47.2441 L194.274 47.2441  Z" fill="#ffffff" fill-rule="evenodd" fill-opacity="1"></path>
<defs>
  <clipPath id="clip282">
    <rect x="194" y="47" width="2959" height="475"></rect>
  </clipPath>
</defs>
<polyline clip-path="url(#clip282)" style="stroke:#000000; stroke-linecap:round; stroke-linejoin:round; stroke-width:2; stroke-opacity:0.1; fill:none" points="658.598,521.288 658.598,47.2441 "></polyline>
<polyline clip-path="url(#clip282)" style="stroke:#000000; stroke-linecap:round; stroke-linejoin:round; stroke-width:2; stroke-opacity:0.1; fill:none" points="1292.92,521.288 1292.92,47.2441 "></polyline>
<polyline clip-path="url(#clip282)" style="stroke:#000000; stroke-linecap:round; stroke-linejoin:round; stroke-width:2; stroke-opacity:0.1; fill:none" points="1927.24,521.288 1927.24,47.2441 "></polyline>
<polyline clip-path="url(#clip282)" style="stroke:#000000; stroke-linecap:round; stroke-linejoin:round; stroke-width:2; stroke-opacity:0.1; fill:none" points="2561.57,521.288 2561.57,47.2441 "></polyline>
<polyline clip-path="url(#clip282)" style="stroke:#000000; stroke-linecap:round; stroke-linejoin:round; stroke-width:2; stroke-opacity:0.1; fill:none" points="194.274,462.976 3152.76,462.976 "></polyline>
<polyline clip-path="url(#clip282)" style="stroke:#000000; stroke-linecap:round; stroke-linejoin:round; stroke-width:2; stroke-opacity:0.1; fill:none" points="194.274,379.052 3152.76,379.052 "></polyline>
<polyline clip-path="url(#clip282)" style="stroke:#000000; stroke-linecap:round; stroke-linejoin:round; stroke-width:2; stroke-opacity:0.1; fill:none" points="194.274,295.127 3152.76,295.127 "></polyline>
<polyline clip-path="url(#clip282)" style="stroke:#000000; stroke-linecap:round; stroke-linejoin:round; stroke-width:2; stroke-opacity:0.1; fill:none" points="194.274,211.202 3152.76,211.202 "></polyline>
<polyline clip-path="url(#clip282)" style="stroke:#000000; stroke-linecap:round; stroke-linejoin:round; stroke-width:2; stroke-opacity:0.1; fill:none" points="194.274,127.277 3152.76,127.277 "></polyline>
<polyline clip-path="url(#clip280)" style="stroke:#000000; stroke-linecap:round; stroke-linejoin:round; stroke-width:4; stroke-opacity:1; fill:none" points="194.274,521.288 3152.76,521.288 "></polyline>
<polyline clip-path="url(#clip280)" style="stroke:#000000; stroke-linecap:round; stroke-linejoin:round; stroke-width:4; stroke-opacity:1; fill:none" points="658.598,521.288 658.598,502.39 "></polyline>
<polyline clip-path="url(#clip280)" style="stroke:#000000; stroke-linecap:round; stroke-linejoin:round; stroke-width:4; stroke-opacity:1; fill:none" points="1292.92,521.288 1292.92,502.39 "></polyline>
<polyline clip-path="url(#clip280)" style="stroke:#000000; stroke-linecap:round; stroke-linejoin:round; stroke-width:4; stroke-opacity:1; fill:none" points="1927.24,521.288 1927.24,502.39 "></polyline>
<polyline clip-path="url(#clip280)" style="stroke:#000000; stroke-linecap:round; stroke-linejoin:round; stroke-width:4; stroke-opacity:1; fill:none" points="2561.57,521.288 2561.57,502.39 "></polyline>
<path clip-path="url(#clip280)" d="M633.286 586.153 L640.925 586.153 L640.925 559.787 L632.615 561.454 L632.615 557.195 L640.879 555.528 L645.554 555.528 L645.554 586.153 L653.193 586.153 L653.193 590.088 L633.286 590.088 L633.286 586.153 Z" fill="#000000" fill-rule="nonzero" fill-opacity="1"></path><path clip-path="url(#clip280)" d="M672.638 558.607 Q669.027 558.607 667.198 562.171 Q665.392 565.713 665.392 572.843 Q665.392 579.949 667.198 583.514 Q669.027 587.055 672.638 587.055 Q676.272 587.055 678.077 583.514 Q679.906 579.949 679.906 572.843 Q679.906 565.713 678.077 562.171 Q676.272 558.607 672.638 558.607 M672.638 554.903 Q678.448 554.903 681.503 559.509 Q684.582 564.093 684.582 572.843 Q684.582 581.569 681.503 586.176 Q678.448 590.759 672.638 590.759 Q666.827 590.759 663.749 586.176 Q660.693 581.569 660.693 572.843 Q660.693 564.093 663.749 559.509 Q666.827 554.903 672.638 554.903 Z" fill="#000000" fill-rule="nonzero" fill-opacity="1"></path><path clip-path="url(#clip280)" d="M1268.11 586.153 L1275.75 586.153 L1275.75 559.787 L1267.44 561.454 L1267.44 557.195 L1275.7 555.528 L1280.37 555.528 L1280.37 586.153 L1288.01 586.153 L1288.01 590.088 L1268.11 590.088 L1268.11 586.153 Z" fill="#000000" fill-rule="nonzero" fill-opacity="1"></path><path clip-path="url(#clip280)" d="M1297.5 555.528 L1315.86 555.528 L1315.86 559.463 L1301.79 559.463 L1301.79 567.935 Q1302.81 567.588 1303.82 567.426 Q1304.84 567.241 1305.86 567.241 Q1311.65 567.241 1315.03 570.412 Q1318.41 573.583 1318.41 579 Q1318.41 584.579 1314.93 587.68 Q1311.46 590.759 1305.14 590.759 Q1302.97 590.759 1300.7 590.389 Q1298.45 590.018 1296.05 589.278 L1296.05 584.579 Q1298.13 585.713 1300.35 586.268 Q1302.57 586.824 1305.05 586.824 Q1309.06 586.824 1311.39 584.718 Q1313.73 582.611 1313.73 579 Q1313.73 575.389 1311.39 573.282 Q1309.06 571.176 1305.05 571.176 Q1303.18 571.176 1301.3 571.593 Q1299.45 572.009 1297.5 572.889 L1297.5 555.528 Z" fill="#000000" fill-rule="nonzero" fill-opacity="1"></path><path clip-path="url(#clip280)" d="M1906.02 586.153 L1922.34 586.153 L1922.34 590.088 L1900.39 590.088 L1900.39 586.153 Q1903.05 583.398 1907.64 578.768 Q1912.24 574.116 1913.42 572.773 Q1915.67 570.25 1916.55 568.514 Q1917.45 566.755 1917.45 565.065 Q1917.45 562.31 1915.51 560.574 Q1913.59 558.838 1910.48 558.838 Q1908.29 558.838 1905.83 559.602 Q1903.4 560.366 1900.62 561.917 L1900.62 557.195 Q1903.45 556.06 1905.9 555.482 Q1908.36 554.903 1910.39 554.903 Q1915.76 554.903 1918.96 557.588 Q1922.15 560.273 1922.15 564.764 Q1922.15 566.894 1921.34 568.815 Q1920.55 570.713 1918.45 573.306 Q1917.87 573.977 1914.77 577.194 Q1911.67 580.389 1906.02 586.153 Z" fill="#000000" fill-rule="nonzero" fill-opacity="1"></path><path clip-path="url(#clip280)" d="M1942.15 558.607 Q1938.54 558.607 1936.71 562.171 Q1934.91 565.713 1934.91 572.843 Q1934.91 579.949 1936.71 583.514 Q1938.54 587.055 1942.15 587.055 Q1945.79 587.055 1947.59 583.514 Q1949.42 579.949 1949.42 572.843 Q1949.42 565.713 1947.59 562.171 Q1945.79 558.607 1942.15 558.607 M1942.15 554.903 Q1947.96 554.903 1951.02 559.509 Q1954.1 564.093 1954.1 572.843 Q1954.1 581.569 1951.02 586.176 Q1947.96 590.759 1942.15 590.759 Q1936.34 590.759 1933.26 586.176 Q1930.21 581.569 1930.21 572.843 Q1930.21 564.093 1933.26 559.509 Q1936.34 554.903 1942.15 554.903 Z" fill="#000000" fill-rule="nonzero" fill-opacity="1"></path><path clip-path="url(#clip280)" d="M2540.84 586.153 L2557.16 586.153 L2557.16 590.088 L2535.21 590.088 L2535.21 586.153 Q2537.87 583.398 2542.46 578.768 Q2547.06 574.116 2548.25 572.773 Q2550.49 570.25 2551.37 568.514 Q2552.27 566.755 2552.27 565.065 Q2552.27 562.31 2550.33 560.574 Q2548.41 558.838 2545.31 558.838 Q2543.11 558.838 2540.65 559.602 Q2538.22 560.366 2535.44 561.917 L2535.44 557.195 Q2538.27 556.06 2540.72 555.482 Q2543.18 554.903 2545.21 554.903 Q2550.58 554.903 2553.78 557.588 Q2556.97 560.273 2556.97 564.764 Q2556.97 566.894 2556.16 568.815 Q2555.37 570.713 2553.27 573.306 Q2552.69 573.977 2549.59 577.194 Q2546.49 580.389 2540.84 586.153 Z" fill="#000000" fill-rule="nonzero" fill-opacity="1"></path><path clip-path="url(#clip280)" d="M2567.02 555.528 L2585.37 555.528 L2585.37 559.463 L2571.3 559.463 L2571.3 567.935 Q2572.32 567.588 2573.34 567.426 Q2574.36 567.241 2575.37 567.241 Q2581.16 567.241 2584.54 570.412 Q2587.92 573.583 2587.92 579 Q2587.92 584.579 2584.45 587.68 Q2580.98 590.759 2574.66 590.759 Q2572.48 590.759 2570.21 590.389 Q2567.97 590.018 2565.56 589.278 L2565.56 584.579 Q2567.64 585.713 2569.87 586.268 Q2572.09 586.824 2574.56 586.824 Q2578.57 586.824 2580.91 584.718 Q2583.25 582.611 2583.25 579 Q2583.25 575.389 2580.91 573.282 Q2578.57 571.176 2574.56 571.176 Q2572.69 571.176 2570.81 571.593 Q2568.96 572.009 2567.02 572.889 L2567.02 555.528 Z" fill="#000000" fill-rule="nonzero" fill-opacity="1"></path><polyline clip-path="url(#clip280)" style="stroke:#000000; stroke-linecap:round; stroke-linejoin:round; stroke-width:4; stroke-opacity:1; fill:none" points="194.274,521.288 194.274,47.2441 "></polyline>
<polyline clip-path="url(#clip280)" style="stroke:#000000; stroke-linecap:round; stroke-linejoin:round; stroke-width:4; stroke-opacity:1; fill:none" points="194.274,462.976 213.172,462.976 "></polyline>
<polyline clip-path="url(#clip280)" style="stroke:#000000; stroke-linecap:round; stroke-linejoin:round; stroke-width:4; stroke-opacity:1; fill:none" points="194.274,379.052 213.172,379.052 "></polyline>
<polyline clip-path="url(#clip280)" style="stroke:#000000; stroke-linecap:round; stroke-linejoin:round; stroke-width:4; stroke-opacity:1; fill:none" points="194.274,295.127 213.172,295.127 "></polyline>
<polyline clip-path="url(#clip280)" style="stroke:#000000; stroke-linecap:round; stroke-linejoin:round; stroke-width:4; stroke-opacity:1; fill:none" points="194.274,211.202 213.172,211.202 "></polyline>
<polyline clip-path="url(#clip280)" style="stroke:#000000; stroke-linecap:round; stroke-linejoin:round; stroke-width:4; stroke-opacity:1; fill:none" points="194.274,127.277 213.172,127.277 "></polyline>
<path clip-path="url(#clip280)" d="M59.8393 448.775 Q56.2282 448.775 54.3995 452.34 Q52.5939 455.882 52.5939 463.011 Q52.5939 470.118 54.3995 473.682 Q56.2282 477.224 59.8393 477.224 Q63.4735 477.224 65.2791 473.682 Q67.1078 470.118 67.1078 463.011 Q67.1078 455.882 65.2791 452.34 Q63.4735 448.775 59.8393 448.775 M59.8393 445.071 Q65.6494 445.071 68.705 449.678 Q71.7837 454.261 71.7837 463.011 Q71.7837 471.738 68.705 476.344 Q65.6494 480.928 59.8393 480.928 Q54.0291 480.928 50.9504 476.344 Q47.8949 471.738 47.8949 463.011 Q47.8949 454.261 50.9504 449.678 Q54.0291 445.071 59.8393 445.071 Z" fill="#000000" fill-rule="nonzero" fill-opacity="1"></path><path clip-path="url(#clip280)" d="M80.0012 474.377 L84.8854 474.377 L84.8854 480.256 L80.0012 480.256 L80.0012 474.377 Z" fill="#000000" fill-rule="nonzero" fill-opacity="1"></path><path clip-path="url(#clip280)" d="M105.071 448.775 Q101.459 448.775 99.6307 452.34 Q97.8252 455.882 97.8252 463.011 Q97.8252 470.118 99.6307 473.682 Q101.459 477.224 105.071 477.224 Q108.705 477.224 110.51 473.682 Q112.339 470.118 112.339 463.011 Q112.339 455.882 110.51 452.34 Q108.705 448.775 105.071 448.775 M105.071 445.071 Q110.881 445.071 113.936 449.678 Q117.015 454.261 117.015 463.011 Q117.015 471.738 113.936 476.344 Q110.881 480.928 105.071 480.928 Q99.2604 480.928 96.1817 476.344 Q93.1261 471.738 93.1261 463.011 Q93.1261 454.261 96.1817 449.678 Q99.2604 445.071 105.071 445.071 Z" fill="#000000" fill-rule="nonzero" fill-opacity="1"></path><path clip-path="url(#clip280)" d="M124.052 445.696 L146.274 445.696 L146.274 447.687 L133.728 480.256 L128.844 480.256 L140.649 449.632 L124.052 449.632 L124.052 445.696 Z" fill="#000000" fill-rule="nonzero" fill-opacity="1"></path><path clip-path="url(#clip280)" d="M59.0291 364.85 Q55.418 364.85 53.5893 368.415 Q51.7838 371.957 51.7838 379.086 Q51.7838 386.193 53.5893 389.758 Q55.418 393.299 59.0291 393.299 Q62.6633 393.299 64.4689 389.758 Q66.2976 386.193 66.2976 379.086 Q66.2976 371.957 64.4689 368.415 Q62.6633 364.85 59.0291 364.85 M59.0291 361.147 Q64.8393 361.147 67.8948 365.753 Q70.9735 370.336 70.9735 379.086 Q70.9735 387.813 67.8948 392.42 Q64.8393 397.003 59.0291 397.003 Q53.2189 397.003 50.1403 392.42 Q47.0847 387.813 47.0847 379.086 Q47.0847 370.336 50.1403 365.753 Q53.2189 361.147 59.0291 361.147 Z" fill="#000000" fill-rule="nonzero" fill-opacity="1"></path><path clip-path="url(#clip280)" d="M79.191 390.452 L84.0753 390.452 L84.0753 396.332 L79.191 396.332 L79.191 390.452 Z" fill="#000000" fill-rule="nonzero" fill-opacity="1"></path><path clip-path="url(#clip280)" d="M104.26 364.85 Q100.649 364.85 98.8206 368.415 Q97.015 371.957 97.015 379.086 Q97.015 386.193 98.8206 389.758 Q100.649 393.299 104.26 393.299 Q107.895 393.299 109.7 389.758 Q111.529 386.193 111.529 379.086 Q111.529 371.957 109.7 368.415 Q107.895 364.85 104.26 364.85 M104.26 361.147 Q110.07 361.147 113.126 365.753 Q116.205 370.336 116.205 379.086 Q116.205 387.813 113.126 392.42 Q110.07 397.003 104.26 397.003 Q98.4502 397.003 95.3715 392.42 Q92.316 387.813 92.316 379.086 Q92.316 370.336 95.3715 365.753 Q98.4502 361.147 104.26 361.147 Z" fill="#000000" fill-rule="nonzero" fill-opacity="1"></path><path clip-path="url(#clip280)" d="M134.422 379.92 Q131.089 379.92 129.168 381.702 Q127.269 383.484 127.269 386.609 Q127.269 389.734 129.168 391.517 Q131.089 393.299 134.422 393.299 Q137.756 393.299 139.677 391.517 Q141.598 389.711 141.598 386.609 Q141.598 383.484 139.677 381.702 Q137.779 379.92 134.422 379.92 M129.746 377.929 Q126.737 377.188 125.047 375.128 Q123.381 373.068 123.381 370.105 Q123.381 365.961 126.32 363.554 Q129.283 361.147 134.422 361.147 Q139.584 361.147 142.524 363.554 Q145.464 365.961 145.464 370.105 Q145.464 373.068 143.774 375.128 Q142.107 377.188 139.121 377.929 Q142.501 378.716 144.376 381.008 Q146.274 383.299 146.274 386.609 Q146.274 391.633 143.195 394.318 Q140.14 397.003 134.422 397.003 Q128.705 397.003 125.626 394.318 Q122.57 391.633 122.57 386.609 Q122.57 383.299 124.469 381.008 Q126.367 378.716 129.746 377.929 M128.033 370.545 Q128.033 373.23 129.7 374.735 Q131.39 376.239 134.422 376.239 Q137.431 376.239 139.121 374.735 Q140.834 373.23 140.834 370.545 Q140.834 367.86 139.121 366.355 Q137.431 364.85 134.422 364.85 Q131.39 364.85 129.7 366.355 Q128.033 367.86 128.033 370.545 Z" fill="#000000" fill-rule="nonzero" fill-opacity="1"></path><path clip-path="url(#clip280)" d="M59.1217 280.926 Q55.5106 280.926 53.6819 284.49 Q51.8764 288.032 51.8764 295.162 Q51.8764 302.268 53.6819 305.833 Q55.5106 309.374 59.1217 309.374 Q62.7559 309.374 64.5615 305.833 Q66.3902 302.268 66.3902 295.162 Q66.3902 288.032 64.5615 284.49 Q62.7559 280.926 59.1217 280.926 M59.1217 277.222 Q64.9318 277.222 67.9874 281.828 Q71.0661 286.412 71.0661 295.162 Q71.0661 303.888 67.9874 308.495 Q64.9318 313.078 59.1217 313.078 Q53.3115 313.078 50.2328 308.495 Q47.1773 303.888 47.1773 295.162 Q47.1773 286.412 50.2328 281.828 Q53.3115 277.222 59.1217 277.222 Z" fill="#000000" fill-rule="nonzero" fill-opacity="1"></path><path clip-path="url(#clip280)" d="M79.2836 306.527 L84.1679 306.527 L84.1679 312.407 L79.2836 312.407 L79.2836 306.527 Z" fill="#000000" fill-rule="nonzero" fill-opacity="1"></path><path clip-path="url(#clip280)" d="M104.353 280.926 Q100.742 280.926 98.9131 284.49 Q97.1076 288.032 97.1076 295.162 Q97.1076 302.268 98.9131 305.833 Q100.742 309.374 104.353 309.374 Q107.987 309.374 109.793 305.833 Q111.621 302.268 111.621 295.162 Q111.621 288.032 109.793 284.49 Q107.987 280.926 104.353 280.926 M104.353 277.222 Q110.163 277.222 113.219 281.828 Q116.297 286.412 116.297 295.162 Q116.297 303.888 113.219 308.495 Q110.163 313.078 104.353 313.078 Q98.5428 313.078 95.4641 308.495 Q92.4085 303.888 92.4085 295.162 Q92.4085 286.412 95.4641 281.828 Q98.5428 277.222 104.353 277.222 Z" fill="#000000" fill-rule="nonzero" fill-opacity="1"></path><path clip-path="url(#clip280)" d="M124.654 311.689 L124.654 307.43 Q126.413 308.263 128.219 308.703 Q130.024 309.143 131.76 309.143 Q136.39 309.143 138.82 306.041 Q141.274 302.916 141.621 296.574 Q140.279 298.564 138.218 299.629 Q136.158 300.694 133.658 300.694 Q128.473 300.694 125.441 297.569 Q122.432 294.421 122.432 288.981 Q122.432 283.657 125.58 280.439 Q128.728 277.222 133.959 277.222 Q139.955 277.222 143.103 281.828 Q146.274 286.412 146.274 295.162 Q146.274 303.333 142.385 308.217 Q138.519 313.078 131.969 313.078 Q130.209 313.078 128.404 312.731 Q126.598 312.384 124.654 311.689 M133.959 297.037 Q137.107 297.037 138.936 294.884 Q140.788 292.731 140.788 288.981 Q140.788 285.254 138.936 283.101 Q137.107 280.926 133.959 280.926 Q130.811 280.926 128.959 283.101 Q127.131 285.254 127.131 288.981 Q127.131 292.731 128.959 294.884 Q130.811 297.037 133.959 297.037 Z" fill="#000000" fill-rule="nonzero" fill-opacity="1"></path><path clip-path="url(#clip280)" d="M58.9365 197.001 Q55.3254 197.001 53.4967 200.565 Q51.6912 204.107 51.6912 211.237 Q51.6912 218.343 53.4967 221.908 Q55.3254 225.45 58.9365 225.45 Q62.5707 225.45 64.3763 221.908 Q66.205 218.343 66.205 211.237 Q66.205 204.107 64.3763 200.565 Q62.5707 197.001 58.9365 197.001 M58.9365 193.297 Q64.7467 193.297 67.8022 197.903 Q70.8809 202.487 70.8809 211.237 Q70.8809 219.964 67.8022 224.57 Q64.7467 229.153 58.9365 229.153 Q53.1264 229.153 50.0477 224.57 Q46.9921 219.964 46.9921 211.237 Q46.9921 202.487 50.0477 197.903 Q53.1264 193.297 58.9365 193.297 Z" fill="#000000" fill-rule="nonzero" fill-opacity="1"></path><path clip-path="url(#clip280)" d="M79.0984 222.602 L83.9827 222.602 L83.9827 228.482 L79.0984 228.482 L79.0984 222.602 Z" fill="#000000" fill-rule="nonzero" fill-opacity="1"></path><path clip-path="url(#clip280)" d="M94.978 224.547 L102.617 224.547 L102.617 198.181 L94.3067 199.848 L94.3067 195.589 L102.571 193.922 L107.246 193.922 L107.246 224.547 L114.885 224.547 L114.885 228.482 L94.978 228.482 L94.978 224.547 Z" fill="#000000" fill-rule="nonzero" fill-opacity="1"></path><path clip-path="url(#clip280)" d="M134.33 197.001 Q130.719 197.001 128.89 200.565 Q127.084 204.107 127.084 211.237 Q127.084 218.343 128.89 221.908 Q130.719 225.45 134.33 225.45 Q137.964 225.45 139.769 221.908 Q141.598 218.343 141.598 211.237 Q141.598 204.107 139.769 200.565 Q137.964 197.001 134.33 197.001 M134.33 193.297 Q140.14 193.297 143.195 197.903 Q146.274 202.487 146.274 211.237 Q146.274 219.964 143.195 224.57 Q140.14 229.153 134.33 229.153 Q128.519 229.153 125.441 224.57 Q122.385 219.964 122.385 211.237 Q122.385 202.487 125.441 197.903 Q128.519 193.297 134.33 193.297 Z" fill="#000000" fill-rule="nonzero" fill-opacity="1"></path><path clip-path="url(#clip280)" d="M60.1634 113.076 Q56.5523 113.076 54.7236 116.641 Q52.918 120.182 52.918 127.312 Q52.918 134.418 54.7236 137.983 Q56.5523 141.525 60.1634 141.525 Q63.7976 141.525 65.6031 137.983 Q67.4318 134.418 67.4318 127.312 Q67.4318 120.182 65.6031 116.641 Q63.7976 113.076 60.1634 113.076 M60.1634 109.372 Q65.9735 109.372 69.029 113.979 Q72.1077 118.562 72.1077 127.312 Q72.1077 136.039 69.029 140.645 Q65.9735 145.228 60.1634 145.228 Q54.3532 145.228 51.2745 140.645 Q48.219 136.039 48.219 127.312 Q48.219 118.562 51.2745 113.979 Q54.3532 109.372 60.1634 109.372 Z" fill="#000000" fill-rule="nonzero" fill-opacity="1"></path><path clip-path="url(#clip280)" d="M80.3253 138.678 L85.2095 138.678 L85.2095 144.557 L80.3253 144.557 L80.3253 138.678 Z" fill="#000000" fill-rule="nonzero" fill-opacity="1"></path><path clip-path="url(#clip280)" d="M96.2048 140.622 L103.844 140.622 L103.844 114.256 L95.5335 115.923 L95.5335 111.664 L103.797 109.997 L108.473 109.997 L108.473 140.622 L116.112 140.622 L116.112 144.557 L96.2048 144.557 L96.2048 140.622 Z" fill="#000000" fill-rule="nonzero" fill-opacity="1"></path><path clip-path="url(#clip280)" d="M126.367 140.622 L134.006 140.622 L134.006 114.256 L125.695 115.923 L125.695 111.664 L133.959 109.997 L138.635 109.997 L138.635 140.622 L146.274 140.622 L146.274 144.557 L126.367 144.557 L126.367 140.622 Z" fill="#000000" fill-rule="nonzero" fill-opacity="1"></path><polyline clip-path="url(#clip282)" style="stroke:#1cb219; stroke-linecap:round; stroke-linejoin:round; stroke-width:4; stroke-opacity:1; fill:none" points="278.005,66.0639 531.734,159.772 785.463,213.709 1039.19,244.857 1292.92,262.854 1546.65,273.256 1800.38,279.267 2054.11,282.741 2307.84,284.748 2561.57,285.909 2815.3,286.579 3069.03,286.967 "></polyline>
<circle clip-path="url(#clip282)" cx="278.005" cy="60.6604" r="14.4" fill="#1cb219" fill-rule="evenodd" fill-opacity="0.8" stroke="#000000" stroke-opacity="0.8" stroke-width="0.6"></circle>
<circle clip-path="url(#clip282)" cx="531.734" cy="163.198" r="14.4" fill="#1cb219" fill-rule="evenodd" fill-opacity="0.8" stroke="#000000" stroke-opacity="0.8" stroke-width="0.6"></circle>
<circle clip-path="url(#clip282)" cx="785.463" cy="219.357" r="14.4" fill="#1cb219" fill-rule="evenodd" fill-opacity="0.8" stroke="#000000" stroke-opacity="0.8" stroke-width="0.6"></circle>
<circle clip-path="url(#clip282)" cx="1039.19" cy="250.142" r="14.4" fill="#1cb219" fill-rule="evenodd" fill-opacity="0.8" stroke="#000000" stroke-opacity="0.8" stroke-width="0.6"></circle>
<circle clip-path="url(#clip282)" cx="1292.92" cy="267.018" r="14.4" fill="#1cb219" fill-rule="evenodd" fill-opacity="0.8" stroke="#000000" stroke-opacity="0.8" stroke-width="0.6"></circle>
<circle clip-path="url(#clip282)" cx="1546.65" cy="276.27" r="14.4" fill="#1cb219" fill-rule="evenodd" fill-opacity="0.8" stroke="#000000" stroke-opacity="0.8" stroke-width="0.6"></circle>
<circle clip-path="url(#clip282)" cx="1800.38" cy="281.342" r="14.4" fill="#1cb219" fill-rule="evenodd" fill-opacity="0.8" stroke="#000000" stroke-opacity="0.8" stroke-width="0.6"></circle>
<circle clip-path="url(#clip282)" cx="2054.11" cy="284.123" r="14.4" fill="#1cb219" fill-rule="evenodd" fill-opacity="0.8" stroke="#000000" stroke-opacity="0.8" stroke-width="0.6"></circle>
<circle clip-path="url(#clip282)" cx="2307.84" cy="285.647" r="14.4" fill="#1cb219" fill-rule="evenodd" fill-opacity="0.8" stroke="#000000" stroke-opacity="0.8" stroke-width="0.6"></circle>
<circle clip-path="url(#clip282)" cx="2561.57" cy="286.483" r="14.4" fill="#1cb219" fill-rule="evenodd" fill-opacity="0.8" stroke="#000000" stroke-opacity="0.8" stroke-width="0.6"></circle>
<circle clip-path="url(#clip282)" cx="2815.3" cy="286.941" r="14.4" fill="#1cb219" fill-rule="evenodd" fill-opacity="0.8" stroke="#000000" stroke-opacity="0.8" stroke-width="0.6"></circle>
<circle clip-path="url(#clip282)" cx="3069.03" cy="287.193" r="14.4" fill="#1cb219" fill-rule="evenodd" fill-opacity="0.8" stroke="#000000" stroke-opacity="0.8" stroke-width="0.6"></circle>
<polyline clip-path="url(#clip282)" style="stroke:#54b219; stroke-linecap:round; stroke-linejoin:round; stroke-width:4; stroke-opacity:1; fill:none" points="278.005,507.872 531.734,415.104 785.463,361.272 1039.19,330.137 1292.92,312.14 1546.65,301.739 1800.38,295.728 2054.11,292.254 2307.84,290.246 2561.57,289.086 2815.3,288.415 3069.03,288.028 "></polyline>
<circle clip-path="url(#clip282)" cx="278.005" cy="469.991" r="14.4" fill="#54b219" fill-rule="evenodd" fill-opacity="0.8" stroke="#000000" stroke-opacity="0.8" stroke-width="0.6"></circle>
<circle clip-path="url(#clip282)" cx="531.734" cy="387.574" r="14.4" fill="#54b219" fill-rule="evenodd" fill-opacity="0.8" stroke="#000000" stroke-opacity="0.8" stroke-width="0.6"></circle>
<circle clip-path="url(#clip282)" cx="785.463" cy="342.363" r="14.4" fill="#54b219" fill-rule="evenodd" fill-opacity="0.8" stroke="#000000" stroke-opacity="0.8" stroke-width="0.6"></circle>
<circle clip-path="url(#clip282)" cx="1039.19" cy="317.576" r="14.4" fill="#54b219" fill-rule="evenodd" fill-opacity="0.8" stroke="#000000" stroke-opacity="0.8" stroke-width="0.6"></circle>
<circle clip-path="url(#clip282)" cx="1292.92" cy="303.987" r="14.4" fill="#54b219" fill-rule="evenodd" fill-opacity="0.8" stroke="#000000" stroke-opacity="0.8" stroke-width="0.6"></circle>
<circle clip-path="url(#clip282)" cx="1546.65" cy="296.537" r="14.4" fill="#54b219" fill-rule="evenodd" fill-opacity="0.8" stroke="#000000" stroke-opacity="0.8" stroke-width="0.6"></circle>
<circle clip-path="url(#clip282)" cx="1800.38" cy="292.453" r="14.4" fill="#54b219" fill-rule="evenodd" fill-opacity="0.8" stroke="#000000" stroke-opacity="0.8" stroke-width="0.6"></circle>
<circle clip-path="url(#clip282)" cx="2054.11" cy="290.214" r="14.4" fill="#54b219" fill-rule="evenodd" fill-opacity="0.8" stroke="#000000" stroke-opacity="0.8" stroke-width="0.6"></circle>
<circle clip-path="url(#clip282)" cx="2307.84" cy="288.987" r="14.4" fill="#54b219" fill-rule="evenodd" fill-opacity="0.8" stroke="#000000" stroke-opacity="0.8" stroke-width="0.6"></circle>
<circle clip-path="url(#clip282)" cx="2561.57" cy="288.314" r="14.4" fill="#54b219" fill-rule="evenodd" fill-opacity="0.8" stroke="#000000" stroke-opacity="0.8" stroke-width="0.6"></circle>
<circle clip-path="url(#clip282)" cx="2815.3" cy="287.945" r="14.4" fill="#54b219" fill-rule="evenodd" fill-opacity="0.8" stroke="#000000" stroke-opacity="0.8" stroke-width="0.6"></circle>
<circle clip-path="url(#clip282)" cx="3069.03" cy="287.743" r="14.4" fill="#54b219" fill-rule="evenodd" fill-opacity="0.8" stroke="#000000" stroke-opacity="0.8" stroke-width="0.6"></circle>
<polyline clip-path="url(#clip282)" style="stroke:#4fb219; stroke-linecap:round; stroke-linejoin:round; stroke-width:4; stroke-opacity:1; fill:none" points="278.005,288.556 531.734,287.615 785.463,287.51 1039.19,287.499 1292.92,287.497 1546.65,287.497 1800.38,287.497 2054.11,287.497 2307.84,287.497 2561.57,287.497 2815.3,287.497 3069.03,287.497 "></polyline>
<circle clip-path="url(#clip282)" cx="278.005" cy="275.131" r="14.4" fill="#4fb219" fill-rule="evenodd" fill-opacity="0.8" stroke="#000000" stroke-opacity="0.8" stroke-width="0.6"></circle>
<circle clip-path="url(#clip282)" cx="531.734" cy="280.645" r="14.4" fill="#4fb219" fill-rule="evenodd" fill-opacity="0.8" stroke="#000000" stroke-opacity="0.8" stroke-width="0.6"></circle>
<circle clip-path="url(#clip282)" cx="785.463" cy="283.737" r="14.4" fill="#4fb219" fill-rule="evenodd" fill-opacity="0.8" stroke="#000000" stroke-opacity="0.8" stroke-width="0.6"></circle>
<circle clip-path="url(#clip282)" cx="1039.19" cy="285.436" r="14.4" fill="#4fb219" fill-rule="evenodd" fill-opacity="0.8" stroke="#000000" stroke-opacity="0.8" stroke-width="0.6"></circle>
<circle clip-path="url(#clip282)" cx="1292.92" cy="286.367" r="14.4" fill="#4fb219" fill-rule="evenodd" fill-opacity="0.8" stroke="#000000" stroke-opacity="0.8" stroke-width="0.6"></circle>
<circle clip-path="url(#clip282)" cx="1546.65" cy="286.878" r="14.4" fill="#4fb219" fill-rule="evenodd" fill-opacity="0.8" stroke="#000000" stroke-opacity="0.8" stroke-width="0.6"></circle>
<circle clip-path="url(#clip282)" cx="1800.38" cy="287.158" r="14.4" fill="#4fb219" fill-rule="evenodd" fill-opacity="0.8" stroke="#000000" stroke-opacity="0.8" stroke-width="0.6"></circle>
<circle clip-path="url(#clip282)" cx="2054.11" cy="287.311" r="14.4" fill="#4fb219" fill-rule="evenodd" fill-opacity="0.8" stroke="#000000" stroke-opacity="0.8" stroke-width="0.6"></circle>
<circle clip-path="url(#clip282)" cx="2307.84" cy="287.395" r="14.4" fill="#4fb219" fill-rule="evenodd" fill-opacity="0.8" stroke="#000000" stroke-opacity="0.8" stroke-width="0.6"></circle>
<circle clip-path="url(#clip282)" cx="2561.57" cy="287.441" r="14.4" fill="#4fb219" fill-rule="evenodd" fill-opacity="0.8" stroke="#000000" stroke-opacity="0.8" stroke-width="0.6"></circle>
<circle clip-path="url(#clip282)" cx="2815.3" cy="287.467" r="14.4" fill="#4fb219" fill-rule="evenodd" fill-opacity="0.8" stroke="#000000" stroke-opacity="0.8" stroke-width="0.6"></circle>
<circle clip-path="url(#clip282)" cx="3069.03" cy="287.48" r="14.4" fill="#4fb219" fill-rule="evenodd" fill-opacity="0.8" stroke="#000000" stroke-opacity="0.8" stroke-width="0.6"></circle>
</svg>