<svg xmlns="http://www.w3.org/2000/svg" xmlns:xlink="http://www.w3.org/1999/xlink" width="650" height="160" viewBox="0 0 2600 640">
<defs>
  <clipPath id="clip120">
    <rect x="0" y="0" width="2600" height="640"></rect>
  </clipPath>
</defs>
<path clip-path="url(#clip120)" d="M0 640 L2600 640 L2600 0 L0 0  Z" fill="#ffffff" fill-rule="evenodd" fill-opacity="1"></path>
<defs>
  <clipPath id="clip121">
    <rect x="520" y="0" width="1821" height="640"></rect>
  </clipPath>
</defs>
<path clip-path="url(#clip120)" d="M248.598 557.847 L2552.76 557.847 L2552.76 47.2441 L248.598 47.2441  Z" fill="#ffffff" fill-rule="evenodd" fill-opacity="1"></path>
<defs>
  <clipPath id="clip122">
    <rect x="248" y="47" width="2305" height="512"></rect>
  </clipPath>
</defs>
<polyline clip-path="url(#clip122)" style="stroke:#000000; stroke-linecap:round; stroke-linejoin:round; stroke-width:2; stroke-opacity:0.1; fill:none" points="564.625,557.847 564.625,47.2441 "></polyline>
<polyline clip-path="url(#clip122)" style="stroke:#000000; stroke-linecap:round; stroke-linejoin:round; stroke-width:2; stroke-opacity:0.1; fill:none" points="982.651,557.847 982.651,47.2441 "></polyline>
<polyline clip-path="url(#clip122)" style="stroke:#000000; stroke-linecap:round; stroke-linejoin:round; stroke-width:2; stroke-opacity:0.1; fill:none" points="1400.68,557.847 1400.68,47.2441 "></polyline>
<polyline clip-path="url(#clip122)" style="stroke:#000000; stroke-linecap:round; stroke-linejoin:round; stroke-width:2; stroke-opacity:0.1; fill:none" points="1818.7,557.847 1818.7,47.2441 "></polyline>
<polyline clip-path="url(#clip122)" style="stroke:#000000; stroke-linecap:round; stroke-linejoin:round; stroke-width:2; stroke-opacity:0.1; fill:none" points="2236.73,557.847 2236.73,47.2441 "></polyline>
<polyline clip-path="url(#clip122)" style="stroke:#000000; stroke-linecap:round; stroke-linejoin:round; stroke-width:2; stroke-opacity:0.1; fill:none" points="248.598,515.849 2552.76,515.849 "></polyline>
<polyline clip-path="url(#clip122)" style="stroke:#000000; stroke-linecap:round; stroke-linejoin:round; stroke-width:2; stroke-opacity:0.1; fill:none" points="248.598,436.164 2552.76,436.164 "></polyline>
<polyline clip-path="url(#clip122)" style="stroke:#000000; stroke-linecap:round; stroke-linejoin:round; stroke-width:2; stroke-opacity:0.1; fill:none" points="248.598,356.478 2552.76,356.478 "></polyline>
<polyline clip-path="url(#clip122)" style="stroke:#000000; stroke-linecap:round; stroke-linejoin:round; stroke-width:2; stroke-opacity:0.1; fill:none" points="248.598,276.793 2552.76,276.793 "></polyline>
<polyline clip-path="url(#clip122)" style="stroke:#000000; stroke-linecap:round; stroke-linejoin:round; stroke-width:2; stroke-opacity:0.1; fill:none" points="248.598,197.107 2552.76,197.107 "></polyline>
<polyline clip-path="url(#clip122)" style="stroke:#000000; stroke-linecap:round; stroke-linejoin:round; stroke-width:2; stroke-opacity:0.1; fill:none" points="248.598,117.422 2552.76,117.422 "></polyline>
<polyline clip-path="url(#clip120)" style="stroke:#000000; stroke-linecap:round; stroke-linejoin:round; stroke-width:4; stroke-opacity:1; fill:none" points="248.598,557.847 2552.76,557.847 "></polyline>
<polyline clip-path="url(#clip120)" style="stroke:#000000; stroke-linecap:round; stroke-linejoin:round; stroke-width:4; stroke-opacity:1; fill:none" points="564.625,557.847 564.625,538.95 "></polyline>
<polyline clip-path="url(#clip120)" style="stroke:#000000; stroke-linecap:round; stroke-linejoin:round; stroke-width:4; stroke-opacity:1; fill:none" points="982.651,557.847 982.651,538.95 "></polyline>
<polyline clip-path="url(#clip120)" style="stroke:#000000; stroke-linecap:round; stroke-linejoin:round; stroke-width:4; stroke-opacity:1; fill:none" points="1400.68,557.847 1400.68,538.95 "></polyline>
<polyline clip-path="url(#clip120)" style="stroke:#000000; stroke-linecap:round; stroke-linejoin:round; stroke-width:4; stroke-opacity:1; fill:none" points="1818.7,557.847 1818.7,538.95 "></polyline>
<polyline clip-path="url(#clip120)" style="stroke:#000000; stroke-linecap:round; stroke-linejoin:round; stroke-width:4; stroke-opacity:1; fill:none" points="2236.73,557.847 2236.73,538.95 "></polyline>
<path clip-path="url(#clip120)" d="M539.313 617.912 L546.952 617.912 L546.952 591.546 L538.642 593.213 L538.642 588.954 L546.905 587.287 L551.581 587.287 L551.581 617.912 L559.22 617.912 L559.22 621.847 L539.313 621.847 L539.313 617.912 Z" fill="#000000" fill-rule="nonzero" fill-opacity="1"></path><path clip-path="url(#clip120)" d="M578.665 590.366 Q575.053 590.366 573.225 593.931 Q571.419 597.472 571.419 604.602 Q571.419 611.708 573.225 615.273 Q575.053 618.815 578.665 618.815 Q582.299 618.815 584.104 615.273 Q585.933 611.708 585.933 604.602 Q585.933 597.472 584.104 593.931 Q582.299 590.366 578.665 590.366 M578.665 586.662 Q584.475 586.662 587.53 591.269 Q590.609 595.852 590.609 604.602 Q590.609 613.329 587.53 617.935 Q584.475 622.519 578.665 622.519 Q572.854 622.519 569.776 617.935 Q566.72 613.329 566.72 604.602 Q566.72 595.852 569.776 591.269 Q572.854 586.662 578.665 586.662 Z" fill="#000000" fill-rule="nonzero" fill-opacity="1"></path><path clip-path="url(#clip120)" d="M957.836 617.912 L965.475 617.912 L965.475 591.546 L957.165 593.213 L957.165 588.954 L965.429 587.287 L970.105 587.287 L970.105 617.912 L977.744 617.912 L977.744 621.847 L957.836 621.847 L957.836 617.912 Z" fill="#000000" fill-rule="nonzero" fill-opacity="1"></path><path clip-path="url(#clip120)" d="M987.234 587.287 L1005.59 587.287 L1005.59 591.222 L991.517 591.222 L991.517 599.695 Q992.535 599.347 993.554 599.185 Q994.572 599 995.591 599 Q1001.38 599 1004.76 602.171 Q1008.14 605.343 1008.14 610.759 Q1008.14 616.338 1004.66 619.44 Q1001.19 622.519 994.873 622.519 Q992.697 622.519 990.429 622.148 Q988.183 621.778 985.776 621.037 L985.776 616.338 Q987.859 617.472 990.082 618.028 Q992.304 618.583 994.781 618.583 Q998.785 618.583 1001.12 616.477 Q1003.46 614.37 1003.46 610.759 Q1003.46 607.148 1001.12 605.042 Q998.785 602.935 994.781 602.935 Q992.906 602.935 991.031 603.352 Q989.179 603.769 987.234 604.648 L987.234 587.287 Z" fill="#000000" fill-rule="nonzero" fill-opacity="1"></path><path clip-path="url(#clip120)" d="M1379.45 617.912 L1395.77 617.912 L1395.77 621.847 L1373.83 621.847 L1373.83 617.912 Q1376.49 615.157 1381.07 610.528 Q1385.68 605.875 1386.86 604.533 Q1389.1 602.009 1389.98 600.273 Q1390.89 598.514 1390.89 596.824 Q1390.89 594.07 1388.94 592.334 Q1387.02 590.597 1383.92 590.597 Q1381.72 590.597 1379.26 591.361 Q1376.83 592.125 1374.06 593.676 L1374.06 588.954 Q1376.88 587.82 1379.33 587.241 Q1381.79 586.662 1383.83 586.662 Q1389.2 586.662 1392.39 589.347 Q1395.58 592.033 1395.58 596.523 Q1395.58 598.653 1394.77 600.574 Q1393.99 602.472 1391.88 605.065 Q1391.3 605.736 1388.2 608.954 Q1385.1 612.148 1379.45 617.912 Z" fill="#000000" fill-rule="nonzero" fill-opacity="1"></path><path clip-path="url(#clip120)" d="M1415.58 590.366 Q1411.97 590.366 1410.14 593.931 Q1408.34 597.472 1408.34 604.602 Q1408.34 611.708 1410.14 615.273 Q1411.97 618.815 1415.58 618.815 Q1419.22 618.815 1421.02 615.273 Q1422.85 611.708 1422.85 604.602 Q1422.85 597.472 1421.02 593.931 Q1419.22 590.366 1415.58 590.366 M1415.58 586.662 Q1421.39 586.662 1424.45 591.269 Q1427.53 595.852 1427.53 604.602 Q1427.53 613.329 1424.45 617.935 Q1421.39 622.519 1415.58 622.519 Q1409.77 622.519 1406.7 617.935 Q1403.64 613.329 1403.64 604.602 Q1403.64 595.852 1406.7 591.269 Q1409.77 586.662 1415.58 586.662 Z" fill="#000000" fill-rule="nonzero" fill-opacity="1"></path><path clip-path="url(#clip120)" d="M1797.97 617.912 L1814.29 617.912 L1814.29 621.847 L1792.35 621.847 L1792.35 617.912 Q1795.01 615.157 1799.59 610.528 Q1804.2 605.875 1805.38 604.533 Q1807.63 602.009 1808.51 600.273 Q1809.41 598.514 1809.41 596.824 Q1809.41 594.07 1807.46 592.334 Q1805.54 590.597 1802.44 590.597 Q1800.24 590.597 1797.79 591.361 Q1795.36 592.125 1792.58 593.676 L1792.58 588.954 Q1795.4 587.82 1797.86 587.241 Q1800.31 586.662 1802.35 586.662 Q1807.72 586.662 1810.91 589.347 Q1814.11 592.033 1814.11 596.523 Q1814.11 598.653 1813.3 600.574 Q1812.51 602.472 1810.4 605.065 Q1809.83 605.736 1806.72 608.954 Q1803.62 612.148 1797.97 617.912 Z" fill="#000000" fill-rule="nonzero" fill-opacity="1"></path><path clip-path="url(#clip120)" d="M1824.15 587.287 L1842.51 587.287 L1842.51 591.222 L1828.44 591.222 L1828.44 599.695 Q1829.45 599.347 1830.47 599.185 Q1831.49 599 1832.51 599 Q1838.3 599 1841.68 602.171 Q1845.06 605.343 1845.06 610.759 Q1845.06 616.338 1841.58 619.44 Q1838.11 622.519 1831.79 622.519 Q1829.62 622.519 1827.35 622.148 Q1825.1 621.778 1822.7 621.037 L1822.7 616.338 Q1824.78 617.472 1827 618.028 Q1829.22 618.583 1831.7 618.583 Q1835.7 618.583 1838.04 616.477 Q1840.38 614.37 1840.38 610.759 Q1840.38 607.148 1838.04 605.042 Q1835.7 602.935 1831.7 602.935 Q1829.83 602.935 1827.95 603.352 Q1826.1 603.769 1824.15 604.648 L1824.15 587.287 Z" fill="#000000" fill-rule="nonzero" fill-opacity="1"></path><path clip-path="url(#clip120)" d="M2225.57 603.213 Q2228.93 603.931 2230.8 606.199 Q2232.7 608.468 2232.7 611.801 Q2232.7 616.917 2229.18 619.718 Q2225.66 622.519 2219.18 622.519 Q2217.01 622.519 2214.69 622.079 Q2212.4 621.662 2209.95 620.806 L2209.95 616.292 Q2211.89 617.426 2214.21 618.005 Q2216.52 618.583 2219.04 618.583 Q2223.44 618.583 2225.73 616.847 Q2228.05 615.111 2228.05 611.801 Q2228.05 608.745 2225.9 607.033 Q2223.77 605.296 2219.95 605.296 L2215.92 605.296 L2215.92 601.454 L2220.13 601.454 Q2223.58 601.454 2225.41 600.088 Q2227.24 598.699 2227.24 596.107 Q2227.24 593.445 2225.34 592.033 Q2223.46 590.597 2219.95 590.597 Q2218.02 590.597 2215.83 591.014 Q2213.63 591.431 2210.99 592.31 L2210.99 588.144 Q2213.65 587.403 2215.96 587.033 Q2218.3 586.662 2220.36 586.662 Q2225.69 586.662 2228.79 589.093 Q2231.89 591.5 2231.89 595.621 Q2231.89 598.491 2230.25 600.482 Q2228.6 602.449 2225.57 603.213 Z" fill="#000000" fill-rule="nonzero" fill-opacity="1"></path><path clip-path="url(#clip120)" d="M2251.57 590.366 Q2247.96 590.366 2246.13 593.931 Q2244.32 597.472 2244.32 604.602 Q2244.32 611.708 2246.13 615.273 Q2247.96 618.815 2251.57 618.815 Q2255.2 618.815 2257.01 615.273 Q2258.83 611.708 2258.83 604.602 Q2258.83 597.472 2257.01 593.931 Q2255.2 590.366 2251.57 590.366 M2251.57 586.662 Q2257.38 586.662 2260.43 591.269 Q2263.51 595.852 2263.51 604.602 Q2263.51 613.329 2260.43 617.935 Q2257.38 622.519 2251.57 622.519 Q2245.76 622.519 2242.68 617.935 Q2239.62 613.329 2239.62 604.602 Q2239.62 595.852 2242.68 591.269 Q2245.76 586.662 2251.57 586.662 Z" fill="#000000" fill-rule="nonzero" fill-opacity="1"></path><polyline clip-path="url(#clip120)" style="stroke:#000000; stroke-linecap:round; stroke-linejoin:round; stroke-width:4; stroke-opacity:1; fill:none" points="248.598,557.847 248.598,47.2441 "></polyline>
<polyline clip-path="url(#clip120)" style="stroke:#000000; stroke-linecap:round; stroke-linejoin:round; stroke-width:4; stroke-opacity:1; fill:none" points="248.598,515.849 267.495,515.849 "></polyline>
<polyline clip-path="url(#clip120)" style="stroke:#000000; stroke-linecap:round; stroke-linejoin:round; stroke-width:4; stroke-opacity:1; fill:none" points="248.598,436.164 267.495,436.164 "></polyline>
<polyline clip-path="url(#clip120)" style="stroke:#000000; stroke-linecap:round; stroke-linejoin:round; stroke-width:4; stroke-opacity:1; fill:none" points="248.598,356.478 267.495,356.478 "></polyline>
<polyline clip-path="url(#clip120)" style="stroke:#000000; stroke-linecap:round; stroke-linejoin:round; stroke-width:4; stroke-opacity:1; fill:none" points="248.598,276.793 267.495,276.793 "></polyline>
<polyline clip-path="url(#clip120)" style="stroke:#000000; stroke-linecap:round; stroke-linejoin:round; stroke-width:4; stroke-opacity:1; fill:none" points="248.598,197.107 267.495,197.107 "></polyline>
<polyline clip-path="url(#clip120)" style="stroke:#000000; stroke-linecap:round; stroke-linejoin:round; stroke-width:4; stroke-opacity:1; fill:none" points="248.598,117.422 267.495,117.422 "></polyline>
<path clip-path="url(#clip120)" d="M62.9319 501.648 Q59.3208 501.648 57.4921 505.213 Q55.6865 508.754 55.6865 515.884 Q55.6865 522.99 57.4921 526.555 Q59.3208 530.097 62.9319 530.097 Q66.5661 530.097 68.3717 526.555 Q70.2004 522.99 70.2004 515.884 Q70.2004 508.754 68.3717 505.213 Q66.5661 501.648 62.9319 501.648 M62.9319 497.944 Q68.742 497.944 71.7976 502.551 Q74.8763 507.134 74.8763 515.884 Q74.8763 524.611 71.7976 529.217 Q68.742 533.8 62.9319 533.8 Q57.1217 533.8 54.043 529.217 Q50.9875 524.611 50.9875 515.884 Q50.9875 507.134 54.043 502.551 Q57.1217 497.944 62.9319 497.944 Z" fill="#000000" fill-rule="nonzero" fill-opacity="1"></path><path clip-path="url(#clip120)" d="M83.0938 527.25 L87.978 527.25 L87.978 533.129 L83.0938 533.129 L83.0938 527.25 Z" fill="#000000" fill-rule="nonzero" fill-opacity="1"></path><path clip-path="url(#clip120)" d="M108.163 501.648 Q104.552 501.648 102.723 505.213 Q100.918 508.754 100.918 515.884 Q100.918 522.99 102.723 526.555 Q104.552 530.097 108.163 530.097 Q111.797 530.097 113.603 526.555 Q115.432 522.99 115.432 515.884 Q115.432 508.754 113.603 505.213 Q111.797 501.648 108.163 501.648 M108.163 497.944 Q113.973 497.944 117.029 502.551 Q120.107 507.134 120.107 515.884 Q120.107 524.611 117.029 529.217 Q113.973 533.8 108.163 533.8 Q102.353 533.8 99.2743 529.217 Q96.2187 524.611 96.2187 515.884 Q96.2187 507.134 99.2743 502.551 Q102.353 497.944 108.163 497.944 Z" fill="#000000" fill-rule="nonzero" fill-opacity="1"></path><path clip-path="url(#clip120)" d="M138.325 501.648 Q134.714 501.648 132.885 505.213 Q131.08 508.754 131.08 515.884 Q131.08 522.99 132.885 526.555 Q134.714 530.097 138.325 530.097 Q141.959 530.097 143.765 526.555 Q145.593 522.99 145.593 515.884 Q145.593 508.754 143.765 505.213 Q141.959 501.648 138.325 501.648 M138.325 497.944 Q144.135 497.944 147.191 502.551 Q150.269 507.134 150.269 515.884 Q150.269 524.611 147.191 529.217 Q144.135 533.8 138.325 533.8 Q132.515 533.8 129.436 529.217 Q126.381 524.611 126.381 515.884 Q126.381 507.134 129.436 502.551 Q132.515 497.944 138.325 497.944 Z" fill="#000000" fill-rule="nonzero" fill-opacity="1"></path><path clip-path="url(#clip120)" d="M168.487 501.648 Q164.876 501.648 163.047 505.213 Q161.242 508.754 161.242 515.884 Q161.242 522.99 163.047 526.555 Q164.876 530.097 168.487 530.097 Q172.121 530.097 173.927 526.555 Q175.755 522.99 175.755 515.884 Q175.755 508.754 173.927 505.213 Q172.121 501.648 168.487 501.648 M168.487 497.944 Q174.297 497.944 177.353 502.551 Q180.431 507.134 180.431 515.884 Q180.431 524.611 177.353 529.217 Q174.297 533.8 168.487 533.8 Q162.677 533.8 159.598 529.217 Q156.542 524.611 156.542 515.884 Q156.542 507.134 159.598 502.551 Q162.677 497.944 168.487 497.944 Z" fill="#000000" fill-rule="nonzero" fill-opacity="1"></path><path clip-path="url(#clip120)" d="M188.695 498.569 L207.051 498.569 L207.051 502.504 L192.977 502.504 L192.977 510.977 Q193.996 510.629 195.014 510.467 Q196.033 510.282 197.052 510.282 Q202.839 510.282 206.218 513.453 Q209.598 516.625 209.598 522.041 Q209.598 527.62 206.126 530.722 Q202.653 533.8 196.334 533.8 Q194.158 533.8 191.89 533.43 Q189.644 533.06 187.237 532.319 L187.237 527.62 Q189.32 528.754 191.542 529.31 Q193.765 529.865 196.241 529.865 Q200.246 529.865 202.584 527.759 Q204.922 525.652 204.922 522.041 Q204.922 518.43 202.584 516.324 Q200.246 514.217 196.241 514.217 Q194.366 514.217 192.491 514.634 Q190.64 515.051 188.695 515.93 L188.695 498.569 Z" fill="#000000" fill-rule="nonzero" fill-opacity="1"></path><path clip-path="url(#clip120)" d="M61.9365 421.962 Q58.3254 421.962 56.4967 425.527 Q54.6912 429.069 54.6912 436.198 Q54.6912 443.305 56.4967 446.87 Q58.3254 450.411 61.9365 450.411 Q65.5707 450.411 67.3763 446.87 Q69.205 443.305 69.205 436.198 Q69.205 429.069 67.3763 425.527 Q65.5707 421.962 61.9365 421.962 M61.9365 418.259 Q67.7467 418.259 70.8022 422.865 Q73.8809 427.448 73.8809 436.198 Q73.8809 444.925 70.8022 449.532 Q67.7467 454.115 61.9365 454.115 Q56.1264 454.115 53.0477 449.532 Q49.9921 444.925 49.9921 436.198 Q49.9921 427.448 53.0477 422.865 Q56.1264 418.259 61.9365 418.259 Z" fill="#000000" fill-rule="nonzero" fill-opacity="1"></path><path clip-path="url(#clip120)" d="M82.0984 447.564 L86.9827 447.564 L86.9827 453.444 L82.0984 453.444 L82.0984 447.564 Z" fill="#000000" fill-rule="nonzero" fill-opacity="1"></path><path clip-path="url(#clip120)" d="M107.168 421.962 Q103.557 421.962 101.728 425.527 Q99.9224 429.069 99.9224 436.198 Q99.9224 443.305 101.728 446.87 Q103.557 450.411 107.168 450.411 Q110.802 450.411 112.608 446.87 Q114.436 443.305 114.436 436.198 Q114.436 429.069 112.608 425.527 Q110.802 421.962 107.168 421.962 M107.168 418.259 Q112.978 418.259 116.033 422.865 Q119.112 427.448 119.112 436.198 Q119.112 444.925 116.033 449.532 Q112.978 454.115 107.168 454.115 Q101.358 454.115 98.2789 449.532 Q95.2234 444.925 95.2234 436.198 Q95.2234 427.448 98.2789 422.865 Q101.358 418.259 107.168 418.259 Z" fill="#000000" fill-rule="nonzero" fill-opacity="1"></path><path clip-path="url(#clip120)" d="M137.33 421.962 Q133.719 421.962 131.89 425.527 Q130.084 429.069 130.084 436.198 Q130.084 443.305 131.89 446.87 Q133.719 450.411 137.33 450.411 Q140.964 450.411 142.769 446.87 Q144.598 443.305 144.598 436.198 Q144.598 429.069 142.769 425.527 Q140.964 421.962 137.33 421.962 M137.33 418.259 Q143.14 418.259 146.195 422.865 Q149.274 427.448 149.274 436.198 Q149.274 444.925 146.195 449.532 Q143.14 454.115 137.33 454.115 Q131.519 454.115 128.441 449.532 Q125.385 444.925 125.385 436.198 Q125.385 427.448 128.441 422.865 Q131.519 418.259 137.33 418.259 Z" fill="#000000" fill-rule="nonzero" fill-opacity="1"></path><path clip-path="url(#clip120)" d="M158.302 449.509 L165.941 449.509 L165.941 423.143 L157.63 424.81 L157.63 420.55 L165.894 418.884 L170.57 418.884 L170.57 449.509 L178.209 449.509 L178.209 453.444 L158.302 453.444 L158.302 449.509 Z" fill="#000000" fill-rule="nonzero" fill-opacity="1"></path><path clip-path="url(#clip120)" d="M197.653 421.962 Q194.042 421.962 192.214 425.527 Q190.408 429.069 190.408 436.198 Q190.408 443.305 192.214 446.87 Q194.042 450.411 197.653 450.411 Q201.288 450.411 203.093 446.87 Q204.922 443.305 204.922 436.198 Q204.922 429.069 203.093 425.527 Q201.288 421.962 197.653 421.962 M197.653 418.259 Q203.464 418.259 206.519 422.865 Q209.598 427.448 209.598 436.198 Q209.598 444.925 206.519 449.532 Q203.464 454.115 197.653 454.115 Q191.843 454.115 188.765 449.532 Q185.709 444.925 185.709 436.198 Q185.709 427.448 188.765 422.865 Q191.843 418.259 197.653 418.259 Z" fill="#000000" fill-rule="nonzero" fill-opacity="1"></path><path clip-path="url(#clip120)" d="M62.9319 342.277 Q59.3208 342.277 57.4921 345.842 Q55.6865 349.383 55.6865 356.513 Q55.6865 363.619 57.4921 367.184 Q59.3208 370.726 62.9319 370.726 Q66.5661 370.726 68.3717 367.184 Q70.2004 363.619 70.2004 356.513 Q70.2004 349.383 68.3717 345.842 Q66.5661 342.277 62.9319 342.277 M62.9319 338.573 Q68.742 338.573 71.7976 343.18 Q74.8763 347.763 74.8763 356.513 Q74.8763 365.24 71.7976 369.846 Q68.742 374.429 62.9319 374.429 Q57.1217 374.429 54.043 369.846 Q50.9875 365.24 50.9875 356.513 Q50.9875 347.763 54.043 343.18 Q57.1217 338.573 62.9319 338.573 Z" fill="#000000" fill-rule="nonzero" fill-opacity="1"></path><path clip-path="url(#clip120)" d="M83.0938 367.879 L87.978 367.879 L87.978 373.758 L83.0938 373.758 L83.0938 367.879 Z" fill="#000000" fill-rule="nonzero" fill-opacity="1"></path><path clip-path="url(#clip120)" d="M108.163 342.277 Q104.552 342.277 102.723 345.842 Q100.918 349.383 100.918 356.513 Q100.918 363.619 102.723 367.184 Q104.552 370.726 108.163 370.726 Q111.797 370.726 113.603 367.184 Q115.432 363.619 115.432 356.513 Q115.432 349.383 113.603 345.842 Q111.797 342.277 108.163 342.277 M108.163 338.573 Q113.973 338.573 117.029 343.18 Q120.107 347.763 120.107 356.513 Q120.107 365.24 117.029 369.846 Q113.973 374.429 108.163 374.429 Q102.353 374.429 99.2743 369.846 Q96.2187 365.24 96.2187 356.513 Q96.2187 347.763 99.2743 343.18 Q102.353 338.573 108.163 338.573 Z" fill="#000000" fill-rule="nonzero" fill-opacity="1"></path><path clip-path="url(#clip120)" d="M138.325 342.277 Q134.714 342.277 132.885 345.842 Q131.08 349.383 131.08 356.513 Q131.08 363.619 132.885 367.184 Q134.714 370.726 138.325 370.726 Q141.959 370.726 143.765 367.184 Q145.593 363.619 145.593 356.513 Q145.593 349.383 143.765 345.842 Q141.959 342.277 138.325 342.277 M138.325 338.573 Q144.135 338.573 147.191 343.18 Q150.269 347.763 150.269 356.513 Q150.269 365.24 147.191 369.846 Q144.135 374.429 138.325 374.429 Q132.515 374.429 129.436 369.846 Q126.381 365.24 126.381 356.513 Q126.381 347.763 129.436 343.18 Q132.515 338.573 138.325 338.573 Z" fill="#000000" fill-rule="nonzero" fill-opacity="1"></path><path clip-path="url(#clip120)" d="M159.297 369.823 L166.936 369.823 L166.936 343.457 L158.626 345.124 L158.626 340.865 L166.89 339.198 L171.566 339.198 L171.566 369.823 L179.204 369.823 L179.204 373.758 L159.297 373.758 L159.297 369.823 Z" fill="#000000" fill-rule="nonzero" fill-opacity="1"></path><path clip-path="url(#clip120)" d="M188.695 339.198 L207.051 339.198 L207.051 343.133 L192.977 343.133 L192.977 351.606 Q193.996 351.258 195.014 351.096 Q196.033 350.911 197.052 350.911 Q202.839 350.911 206.218 354.082 Q209.598 357.254 209.598 362.67 Q209.598 368.249 206.126 371.351 Q202.653 374.429 196.334 374.429 Q194.158 374.429 191.89 374.059 Q189.644 373.689 187.237 372.948 L187.237 368.249 Q189.32 369.383 191.542 369.939 Q193.765 370.494 196.241 370.494 Q200.246 370.494 202.584 368.388 Q204.922 366.281 204.922 362.67 Q204.922 359.059 202.584 356.953 Q200.246 354.846 196.241 354.846 Q194.366 354.846 192.491 355.263 Q190.64 355.68 188.695 356.559 L188.695 339.198 Z" fill="#000000" fill-rule="nonzero" fill-opacity="1"></path><path clip-path="url(#clip120)" d="M61.9365 262.591 Q58.3254 262.591 56.4967 266.156 Q54.6912 269.698 54.6912 276.827 Q54.6912 283.934 56.4967 287.499 Q58.3254 291.04 61.9365 291.04 Q65.5707 291.04 67.3763 287.499 Q69.205 283.934 69.205 276.827 Q69.205 269.698 67.3763 266.156 Q65.5707 262.591 61.9365 262.591 M61.9365 258.888 Q67.7467 258.888 70.8022 263.494 Q73.8809 268.077 73.8809 276.827 Q73.8809 285.554 70.8022 290.161 Q67.7467 294.744 61.9365 294.744 Q56.1264 294.744 53.0477 290.161 Q49.9921 285.554 49.9921 276.827 Q49.9921 268.077 53.0477 263.494 Q56.1264 258.888 61.9365 258.888 Z" fill="#000000" fill-rule="nonzero" fill-opacity="1"></path><path clip-path="url(#clip120)" d="M82.0984 288.193 L86.9827 288.193 L86.9827 294.073 L82.0984 294.073 L82.0984 288.193 Z" fill="#000000" fill-rule="nonzero" fill-opacity="1"></path><path clip-path="url(#clip120)" d="M107.168 262.591 Q103.557 262.591 101.728 266.156 Q99.9224 269.698 99.9224 276.827 Q99.9224 283.934 101.728 287.499 Q103.557 291.04 107.168 291.04 Q110.802 291.04 112.608 287.499 Q114.436 283.934 114.436 276.827 Q114.436 269.698 112.608 266.156 Q110.802 262.591 107.168 262.591 M107.168 258.888 Q112.978 258.888 116.033 263.494 Q119.112 268.077 119.112 276.827 Q119.112 285.554 116.033 290.161 Q112.978 294.744 107.168 294.744 Q101.358 294.744 98.2789 290.161 Q95.2234 285.554 95.2234 276.827 Q95.2234 268.077 98.2789 263.494 Q101.358 258.888 107.168 258.888 Z" fill="#000000" fill-rule="nonzero" fill-opacity="1"></path><path clip-path="url(#clip120)" d="M137.33 262.591 Q133.719 262.591 131.89 266.156 Q130.084 269.698 130.084 276.827 Q130.084 283.934 131.89 287.499 Q133.719 291.04 137.33 291.04 Q140.964 291.04 142.769 287.499 Q144.598 283.934 144.598 276.827 Q144.598 269.698 142.769 266.156 Q140.964 262.591 137.33 262.591 M137.33 258.888 Q143.14 258.888 146.195 263.494 Q149.274 268.077 149.274 276.827 Q149.274 285.554 146.195 290.161 Q143.14 294.744 137.33 294.744 Q131.519 294.744 128.441 290.161 Q125.385 285.554 125.385 276.827 Q125.385 268.077 128.441 263.494 Q131.519 258.888 137.33 258.888 Z" fill="#000000" fill-rule="nonzero" fill-opacity="1"></path><path clip-path="url(#clip120)" d="M161.519 290.137 L177.839 290.137 L177.839 294.073 L155.894 294.073 L155.894 290.137 Q158.556 287.383 163.14 282.753 Q167.746 278.101 168.927 276.758 Q171.172 274.235 172.052 272.499 Q172.954 270.739 172.954 269.05 Q172.954 266.295 171.01 264.559 Q169.089 262.823 165.987 262.823 Q163.788 262.823 161.334 263.587 Q158.904 264.351 156.126 265.902 L156.126 261.179 Q158.95 260.045 161.404 259.466 Q163.857 258.888 165.894 258.888 Q171.265 258.888 174.459 261.573 Q177.653 264.258 177.653 268.749 Q177.653 270.878 176.843 272.8 Q176.056 274.698 173.95 277.29 Q173.371 277.962 170.269 281.179 Q167.167 284.374 161.519 290.137 Z" fill="#000000" fill-rule="nonzero" fill-opacity="1"></path><path clip-path="url(#clip120)" d="M197.653 262.591 Q194.042 262.591 192.214 266.156 Q190.408 269.698 190.408 276.827 Q190.408 283.934 192.214 287.499 Q194.042 291.04 197.653 291.04 Q201.288 291.04 203.093 287.499 Q204.922 283.934 204.922 276.827 Q204.922 269.698 203.093 266.156 Q201.288 262.591 197.653 262.591 M197.653 258.888 Q203.464 258.888 206.519 263.494 Q209.598 268.077 209.598 276.827 Q209.598 285.554 206.519 290.161 Q203.464 294.744 197.653 294.744 Q191.843 294.744 188.765 290.161 Q185.709 285.554 185.709 276.827 Q185.709 268.077 188.765 263.494 Q191.843 258.888 197.653 258.888 Z" fill="#000000" fill-rule="nonzero" fill-opacity="1"></path><path clip-path="url(#clip120)" d="M62.9319 182.906 Q59.3208 182.906 57.4921 186.471 Q55.6865 190.012 55.6865 197.142 Q55.6865 204.248 57.4921 207.813 Q59.3208 211.355 62.9319 211.355 Q66.5661 211.355 68.3717 207.813 Q70.2004 204.248 70.2004 197.142 Q70.2004 190.012 68.3717 186.471 Q66.5661 182.906 62.9319 182.906 M62.9319 179.202 Q68.742 179.202 71.7976 183.809 Q74.8763 188.392 74.8763 197.142 Q74.8763 205.869 71.7976 210.475 Q68.742 215.058 62.9319 215.058 Q57.1217 215.058 54.043 210.475 Q50.9875 205.869 50.9875 197.142 Q50.9875 188.392 54.043 183.809 Q57.1217 179.202 62.9319 179.202 Z" fill="#000000" fill-rule="nonzero" fill-opacity="1"></path><path clip-path="url(#clip120)" d="M83.0938 208.508 L87.978 208.508 L87.978 214.387 L83.0938 214.387 L83.0938 208.508 Z" fill="#000000" fill-rule="nonzero" fill-opacity="1"></path><path clip-path="url(#clip120)" d="M108.163 182.906 Q104.552 182.906 102.723 186.471 Q100.918 190.012 100.918 197.142 Q100.918 204.248 102.723 207.813 Q104.552 211.355 108.163 211.355 Q111.797 211.355 113.603 207.813 Q115.432 204.248 115.432 197.142 Q115.432 190.012 113.603 186.471 Q111.797 182.906 108.163 182.906 M108.163 179.202 Q113.973 179.202 117.029 183.809 Q120.107 188.392 120.107 197.142 Q120.107 205.869 117.029 210.475 Q113.973 215.058 108.163 215.058 Q102.353 215.058 99.2743 210.475 Q96.2187 205.869 96.2187 197.142 Q96.2187 188.392 99.2743 183.809 Q102.353 179.202 108.163 179.202 Z" fill="#000000" fill-rule="nonzero" fill-opacity="1"></path><path clip-path="url(#clip120)" d="M138.325 182.906 Q134.714 182.906 132.885 186.471 Q131.08 190.012 131.08 197.142 Q131.08 204.248 132.885 207.813 Q134.714 211.355 138.325 211.355 Q141.959 211.355 143.765 207.813 Q145.593 204.248 145.593 197.142 Q145.593 190.012 143.765 186.471 Q141.959 182.906 138.325 182.906 M138.325 179.202 Q144.135 179.202 147.191 183.809 Q150.269 188.392 150.269 197.142 Q150.269 205.869 147.191 210.475 Q144.135 215.058 138.325 215.058 Q132.515 215.058 129.436 210.475 Q126.381 205.869 126.381 197.142 Q126.381 188.392 129.436 183.809 Q132.515 179.202 138.325 179.202 Z" fill="#000000" fill-rule="nonzero" fill-opacity="1"></path><path clip-path="url(#clip120)" d="M162.515 210.452 L178.834 210.452 L178.834 214.387 L156.89 214.387 L156.89 210.452 Q159.552 207.697 164.135 203.068 Q168.741 198.415 169.922 197.072 Q172.167 194.549 173.047 192.813 Q173.95 191.054 173.95 189.364 Q173.95 186.61 172.005 184.873 Q170.084 183.137 166.982 183.137 Q164.783 183.137 162.329 183.901 Q159.899 184.665 157.121 186.216 L157.121 181.494 Q159.945 180.36 162.399 179.781 Q164.853 179.202 166.89 179.202 Q172.26 179.202 175.454 181.887 Q178.649 184.572 178.649 189.063 Q178.649 191.193 177.839 193.114 Q177.052 195.012 174.945 197.605 Q174.366 198.276 171.265 201.494 Q168.163 204.688 162.515 210.452 Z" fill="#000000" fill-rule="nonzero" fill-opacity="1"></path><path clip-path="url(#clip120)" d="M188.695 179.827 L207.051 179.827 L207.051 183.762 L192.977 183.762 L192.977 192.234 Q193.996 191.887 195.014 191.725 Q196.033 191.54 197.052 191.54 Q202.839 191.54 206.218 194.711 Q209.598 197.883 209.598 203.299 Q209.598 208.878 206.126 211.98 Q202.653 215.058 196.334 215.058 Q194.158 215.058 191.89 214.688 Q189.644 214.318 187.237 213.577 L187.237 208.878 Q189.32 210.012 191.542 210.568 Q193.765 211.123 196.241 211.123 Q200.246 211.123 202.584 209.017 Q204.922 206.91 204.922 203.299 Q204.922 199.688 202.584 197.582 Q200.246 195.475 196.241 195.475 Q194.366 195.475 192.491 195.892 Q190.64 196.309 188.695 197.188 L188.695 179.827 Z" fill="#000000" fill-rule="nonzero" fill-opacity="1"></path><path clip-path="url(#clip120)" d="M61.9365 103.22 Q58.3254 103.22 56.4967 106.785 Q54.6912 110.327 54.6912 117.456 Q54.6912 124.563 56.4967 128.128 Q58.3254 131.669 61.9365 131.669 Q65.5707 131.669 67.3763 128.128 Q69.205 124.563 69.205 117.456 Q69.205 110.327 67.3763 106.785 Q65.5707 103.22 61.9365 103.22 M61.9365 99.5166 Q67.7467 99.5166 70.8022 104.123 Q73.8809 108.706 73.8809 117.456 Q73.8809 126.183 70.8022 130.79 Q67.7467 135.373 61.9365 135.373 Q56.1264 135.373 53.0477 130.79 Q49.9921 126.183 49.9921 117.456 Q49.9921 108.706 53.0477 104.123 Q56.1264 99.5166 61.9365 99.5166 Z" fill="#000000" fill-rule="nonzero" fill-opacity="1"></path><path clip-path="url(#clip120)" d="M82.0984 128.822 L86.9827 128.822 L86.9827 134.702 L82.0984 134.702 L82.0984 128.822 Z" fill="#000000" fill-rule="nonzero" fill-opacity="1"></path><path clip-path="url(#clip120)" d="M107.168 103.22 Q103.557 103.22 101.728 106.785 Q99.9224 110.327 99.9224 117.456 Q99.9224 124.563 101.728 128.128 Q103.557 131.669 107.168 131.669 Q110.802 131.669 112.608 128.128 Q114.436 124.563 114.436 117.456 Q114.436 110.327 112.608 106.785 Q110.802 103.22 107.168 103.22 M107.168 99.5166 Q112.978 99.5166 116.033 104.123 Q119.112 108.706 119.112 117.456 Q119.112 126.183 116.033 130.79 Q112.978 135.373 107.168 135.373 Q101.358 135.373 98.2789 130.79 Q95.2234 126.183 95.2234 117.456 Q95.2234 108.706 98.2789 104.123 Q101.358 99.5166 107.168 99.5166 Z" fill="#000000" fill-rule="nonzero" fill-opacity="1"></path><path clip-path="url(#clip120)" d="M137.33 103.22 Q133.719 103.22 131.89 106.785 Q130.084 110.327 130.084 117.456 Q130.084 124.563 131.89 128.128 Q133.719 131.669 137.33 131.669 Q140.964 131.669 142.769 128.128 Q144.598 124.563 144.598 117.456 Q144.598 110.327 142.769 106.785 Q140.964 103.22 137.33 103.22 M137.33 99.5166 Q143.14 99.5166 146.195 104.123 Q149.274 108.706 149.274 117.456 Q149.274 126.183 146.195 130.79 Q143.14 135.373 137.33 135.373 Q131.519 135.373 128.441 130.79 Q125.385 126.183 125.385 117.456 Q125.385 108.706 128.441 104.123 Q131.519 99.5166 137.33 99.5166 Z" fill="#000000" fill-rule="nonzero" fill-opacity="1"></path><path clip-path="url(#clip120)" d="M171.658 116.067 Q175.015 116.785 176.89 119.054 Q178.788 121.322 178.788 124.655 Q178.788 129.771 175.269 132.572 Q171.751 135.373 165.269 135.373 Q163.093 135.373 160.779 134.933 Q158.487 134.516 156.033 133.66 L156.033 129.146 Q157.978 130.28 160.292 130.859 Q162.607 131.438 165.13 131.438 Q169.529 131.438 171.82 129.702 Q174.135 127.966 174.135 124.655 Q174.135 121.6 171.982 119.887 Q169.853 118.151 166.033 118.151 L162.005 118.151 L162.005 114.308 L166.218 114.308 Q169.667 114.308 171.496 112.942 Q173.325 111.554 173.325 108.961 Q173.325 106.299 171.427 104.887 Q169.552 103.452 166.033 103.452 Q164.112 103.452 161.913 103.868 Q159.714 104.285 157.075 105.165 L157.075 100.998 Q159.737 100.257 162.052 99.887 Q164.39 99.5166 166.45 99.5166 Q171.774 99.5166 174.876 101.947 Q177.978 104.355 177.978 108.475 Q177.978 111.345 176.334 113.336 Q174.691 115.304 171.658 116.067 Z" fill="#000000" fill-rule="nonzero" fill-opacity="1"></path><path clip-path="url(#clip120)" d="M197.653 103.22 Q194.042 103.22 192.214 106.785 Q190.408 110.327 190.408 117.456 Q190.408 124.563 192.214 128.128 Q194.042 131.669 197.653 131.669 Q201.288 131.669 203.093 128.128 Q204.922 124.563 204.922 117.456 Q204.922 110.327 203.093 106.785 Q201.288 103.22 197.653 103.22 M197.653 99.5166 Q203.464 99.5166 206.519 104.123 Q209.598 108.706 209.598 117.456 Q209.598 126.183 206.519 130.79 Q203.464 135.373 197.653 135.373 Q191.843 135.373 188.765 130.79 Q185.709 126.183 185.709 117.456 Q185.709 108.706 188.765 104.123 Q191.843 99.5166 197.653 99.5166 Z" fill="#000000" fill-rule="nonzero" fill-opacity="1"></path><polyline clip-path="url(#clip122)" style="stroke:#ad5e1e; stroke-linecap:round; stroke-linejoin:round; stroke-width:6.4; stroke-opacity:1; fill:none" points="313.81,519.291 481.02,513.424 648.23,509.485 815.441,506.555 982.651,504.219 1149.86,502.272 1317.07,500.603 1484.28,499.147 1651.49,497.865 1818.7,496.73 1985.91,495.724 2153.12,494.832 2320.33,494.041 2487.54,493.341 "></polyline>
<circle clip-path="url(#clip122)" cx="313.81" cy="515.219" r="14.4" fill="#ad5e1e" fill-rule="evenodd" fill-opacity="0.8" stroke="#000000" stroke-opacity="0.8" stroke-width="0.64"></circle>
<circle clip-path="url(#clip122)" cx="481.02" cy="511.283" r="14.4" fill="#ad5e1e" fill-rule="evenodd" fill-opacity="0.8" stroke="#000000" stroke-opacity="0.8" stroke-width="0.64"></circle>
<circle clip-path="url(#clip122)" cx="648.23" cy="508.571" r="14.4" fill="#ad5e1e" fill-rule="evenodd" fill-opacity="0.8" stroke="#000000" stroke-opacity="0.8" stroke-width="0.64"></circle>
<circle clip-path="url(#clip122)" cx="815.441" cy="506.354" r="14.4" fill="#ad5e1e" fill-rule="evenodd" fill-opacity="0.8" stroke="#000000" stroke-opacity="0.8" stroke-width="0.64"></circle>
<circle clip-path="url(#clip122)" cx="982.651" cy="504.406" r="14.4" fill="#ad5e1e" fill-rule="evenodd" fill-opacity="0.8" stroke="#000000" stroke-opacity="0.8" stroke-width="0.64"></circle>
<circle clip-path="url(#clip122)" cx="1149.86" cy="502.651" r="14.4" fill="#ad5e1e" fill-rule="evenodd" fill-opacity="0.8" stroke="#000000" stroke-opacity="0.8" stroke-width="0.64"></circle>
<circle clip-path="url(#clip122)" cx="1317.07" cy="501.058" r="14.4" fill="#ad5e1e" fill-rule="evenodd" fill-opacity="0.8" stroke="#000000" stroke-opacity="0.8" stroke-width="0.64"></circle>
<circle clip-path="url(#clip122)" cx="1484.28" cy="499.615" r="14.4" fill="#ad5e1e" fill-rule="evenodd" fill-opacity="0.8" stroke="#000000" stroke-opacity="0.8" stroke-width="0.64"></circle>
<circle clip-path="url(#clip122)" cx="1651.49" cy="498.309" r="14.4" fill="#ad5e1e" fill-rule="evenodd" fill-opacity="0.8" stroke="#000000" stroke-opacity="0.8" stroke-width="0.64"></circle>
<circle clip-path="url(#clip122)" cx="1818.7" cy="497.133" r="14.4" fill="#ad5e1e" fill-rule="evenodd" fill-opacity="0.8" stroke="#000000" stroke-opacity="0.8" stroke-width="0.64"></circle>
<circle clip-path="url(#clip122)" cx="1985.91" cy="496.079" r="14.4" fill="#ad5e1e" fill-rule="evenodd" fill-opacity="0.8" stroke="#000000" stroke-opacity="0.8" stroke-width="0.64"></circle>
<circle clip-path="url(#clip122)" cx="2153.12" cy="495.136" r="14.4" fill="#ad5e1e" fill-rule="evenodd" fill-opacity="0.8" stroke="#000000" stroke-opacity="0.8" stroke-width="0.64"></circle>
<circle clip-path="url(#clip122)" cx="2320.33" cy="494.298" r="14.4" fill="#ad5e1e" fill-rule="evenodd" fill-opacity="0.8" stroke="#000000" stroke-opacity="0.8" stroke-width="0.64"></circle>
<circle clip-path="url(#clip122)" cx="2487.54" cy="493.553" r="14.4" fill="#ad5e1e" fill-rule="evenodd" fill-opacity="0.8" stroke="#000000" stroke-opacity="0.8" stroke-width="0.64"></circle>
<polyline clip-path="url(#clip122)" style="stroke:#ad7d1e; stroke-linecap:round; stroke-linejoin:round; stroke-width:6.4; stroke-opacity:1; fill:none" points="313.81,541.356 481.02,543.04 648.23,543.396 815.441,543.025 982.651,542.291 1149.86,541.401 1317.07,540.468 1484.28,539.553 1651.49,538.685 1818.7,537.878 1985.91,537.139 2153.12,536.467 2320.33,535.86 2487.54,535.315 "></polyline>
<circle clip-path="url(#clip122)" cx="313.81" cy="537.703" r="14.4" fill="#ad7d1e" fill-rule="evenodd" fill-opacity="0.8" stroke="#000000" stroke-opacity="0.8" stroke-width="0.64"></circle>
<circle clip-path="url(#clip122)" cx="481.02" cy="539.987" r="14.4" fill="#ad7d1e" fill-rule="evenodd" fill-opacity="0.8" stroke="#000000" stroke-opacity="0.8" stroke-width="0.64"></circle>
<circle clip-path="url(#clip122)" cx="648.23" cy="540.737" r="14.4" fill="#ad7d1e" fill-rule="evenodd" fill-opacity="0.8" stroke="#000000" stroke-opacity="0.8" stroke-width="0.64"></circle>
<circle clip-path="url(#clip122)" cx="815.441" cy="540.641" r="14.4" fill="#ad7d1e" fill-rule="evenodd" fill-opacity="0.8" stroke="#000000" stroke-opacity="0.8" stroke-width="0.64"></circle>
<circle clip-path="url(#clip122)" cx="982.651" cy="540.123" r="14.4" fill="#ad7d1e" fill-rule="evenodd" fill-opacity="0.8" stroke="#000000" stroke-opacity="0.8" stroke-width="0.64"></circle>
<circle clip-path="url(#clip122)" cx="1149.86" cy="539.417" r="14.4" fill="#ad7d1e" fill-rule="evenodd" fill-opacity="0.8" stroke="#000000" stroke-opacity="0.8" stroke-width="0.64"></circle>
<circle clip-path="url(#clip122)" cx="1317.07" cy="538.648" r="14.4" fill="#ad7d1e" fill-rule="evenodd" fill-opacity="0.8" stroke="#000000" stroke-opacity="0.8" stroke-width="0.64"></circle>
<circle clip-path="url(#clip122)" cx="1484.28" cy="537.883" r="14.4" fill="#ad7d1e" fill-rule="evenodd" fill-opacity="0.8" stroke="#000000" stroke-opacity="0.8" stroke-width="0.64"></circle>
<circle clip-path="url(#clip122)" cx="1651.49" cy="537.154" r="14.4" fill="#ad7d1e" fill-rule="evenodd" fill-opacity="0.8" stroke="#000000" stroke-opacity="0.8" stroke-width="0.64"></circle>
<circle clip-path="url(#clip122)" cx="1818.7" cy="536.478" r="14.4" fill="#ad7d1e" fill-rule="evenodd" fill-opacity="0.8" stroke="#000000" stroke-opacity="0.8" stroke-width="0.64"></circle>
<circle clip-path="url(#clip122)" cx="1985.91" cy="535.861" r="14.4" fill="#ad7d1e" fill-rule="evenodd" fill-opacity="0.8" stroke="#000000" stroke-opacity="0.8" stroke-width="0.64"></circle>
<circle clip-path="url(#clip122)" cx="2153.12" cy="535.304" r="14.4" fill="#ad7d1e" fill-rule="evenodd" fill-opacity="0.8" stroke="#000000" stroke-opacity="0.8" stroke-width="0.64"></circle>
<circle clip-path="url(#clip122)" cx="2320.33" cy="534.804" r="14.4" fill="#ad7d1e" fill-rule="evenodd" fill-opacity="0.8" stroke="#000000" stroke-opacity="0.8" stroke-width="0.64"></circle>
<circle clip-path="url(#clip122)" cx="2487.54" cy="534.359" r="14.4" fill="#ad7d1e" fill-rule="evenodd" fill-opacity="0.8" stroke="#000000" stroke-opacity="0.8" stroke-width="0.64"></circle>
<polyline clip-path="url(#clip122)" style="stroke:#61ad1e; stroke-linecap:round; stroke-linejoin:round; stroke-width:6.4; stroke-opacity:1; fill:none" points="313.81,469.342 481.02,467.077 648.23,466.703 815.441,467.355 982.651,468.546 1149.86,470.002 1317.07,471.56 1484.28,473.124 1651.49,474.636 1818.7,476.063 1985.91,477.388 2153.12,478.602 2320.33,479.705 2487.54,480.7 "></polyline>
<circle clip-path="url(#clip122)" cx="313.81" cy="436.737" r="14.4" fill="#61ad1e" fill-rule="evenodd" fill-opacity="0.8" stroke="#000000" stroke-opacity="0.8" stroke-width="0.64"></circle>
<circle clip-path="url(#clip122)" cx="481.02" cy="438.279" r="14.4" fill="#61ad1e" fill-rule="evenodd" fill-opacity="0.8" stroke="#000000" stroke-opacity="0.8" stroke-width="0.64"></circle>
<circle clip-path="url(#clip122)" cx="648.23" cy="441.416" r="14.4" fill="#61ad1e" fill-rule="evenodd" fill-opacity="0.8" stroke="#000000" stroke-opacity="0.8" stroke-width="0.64"></circle>
<circle clip-path="url(#clip122)" cx="815.441" cy="445.196" r="14.4" fill="#61ad1e" fill-rule="evenodd" fill-opacity="0.8" stroke="#000000" stroke-opacity="0.8" stroke-width="0.64"></circle>
<circle clip-path="url(#clip122)" cx="982.651" cy="449.17" r="14.4" fill="#61ad1e" fill-rule="evenodd" fill-opacity="0.8" stroke="#000000" stroke-opacity="0.8" stroke-width="0.64"></circle>
<circle clip-path="url(#clip122)" cx="1149.86" cy="453.097" r="14.4" fill="#61ad1e" fill-rule="evenodd" fill-opacity="0.8" stroke="#000000" stroke-opacity="0.8" stroke-width="0.64"></circle>
<circle clip-path="url(#clip122)" cx="1317.07" cy="456.846" r="14.4" fill="#61ad1e" fill-rule="evenodd" fill-opacity="0.8" stroke="#000000" stroke-opacity="0.8" stroke-width="0.64"></circle>
<circle clip-path="url(#clip122)" cx="1484.28" cy="460.343" r="14.4" fill="#61ad1e" fill-rule="evenodd" fill-opacity="0.8" stroke="#000000" stroke-opacity="0.8" stroke-width="0.64"></circle>
<circle clip-path="url(#clip122)" cx="1651.49" cy="463.555" r="14.4" fill="#61ad1e" fill-rule="evenodd" fill-opacity="0.8" stroke="#000000" stroke-opacity="0.8" stroke-width="0.64"></circle>
<circle clip-path="url(#clip122)" cx="1818.7" cy="466.471" r="14.4" fill="#61ad1e" fill-rule="evenodd" fill-opacity="0.8" stroke="#000000" stroke-opacity="0.8" stroke-width="0.64"></circle>
<circle clip-path="url(#clip122)" cx="1985.91" cy="469.094" r="14.4" fill="#61ad1e" fill-rule="evenodd" fill-opacity="0.8" stroke="#000000" stroke-opacity="0.8" stroke-width="0.64"></circle>
<circle clip-path="url(#clip122)" cx="2153.12" cy="471.44" r="14.4" fill="#61ad1e" fill-rule="evenodd" fill-opacity="0.8" stroke="#000000" stroke-opacity="0.8" stroke-width="0.64"></circle>
<circle clip-path="url(#clip122)" cx="2320.33" cy="473.524" r="14.4" fill="#61ad1e" fill-rule="evenodd" fill-opacity="0.8" stroke="#000000" stroke-opacity="0.8" stroke-width="0.64"></circle>
<circle clip-path="url(#clip122)" cx="2487.54" cy="475.37" r="14.4" fill="#61ad1e" fill-rule="evenodd" fill-opacity="0.8" stroke="#000000" stroke-opacity="0.8" stroke-width="0.64"></circle>
<polyline clip-path="url(#clip122)" style="stroke:#adab1e; stroke-linecap:round; stroke-linejoin:round; stroke-width:6.4; stroke-opacity:1; fill:none" points="313.81,289.048 481.02,310.999 648.23,333.48 815.441,354.206 982.651,372.61 1149.86,388.667 1317.07,402.544 1484.28,414.477 1651.49,424.711 1818.7,433.481 1985.91,440.996 2153.12,447.442 2320.33,452.975 2487.54,457.73 "></polyline>
<circle clip-path="url(#clip122)" cx="313.81" cy="61.6951" r="14.4" fill="#adab1e" fill-rule="evenodd" fill-opacity="0.8" stroke="#000000" stroke-opacity="0.8" stroke-width="0.64"></circle>
<circle clip-path="url(#clip122)" cx="481.02" cy="129.343" r="14.4" fill="#adab1e" fill-rule="evenodd" fill-opacity="0.8" stroke="#000000" stroke-opacity="0.8" stroke-width="0.64"></circle>
<circle clip-path="url(#clip122)" cx="648.23" cy="188.634" r="14.4" fill="#adab1e" fill-rule="evenodd" fill-opacity="0.8" stroke="#000000" stroke-opacity="0.8" stroke-width="0.64"></circle>
<circle clip-path="url(#clip122)" cx="815.441" cy="238.69" r="14.4" fill="#adab1e" fill-rule="evenodd" fill-opacity="0.8" stroke="#000000" stroke-opacity="0.8" stroke-width="0.64"></circle>
<circle clip-path="url(#clip122)" cx="982.651" cy="280.254" r="14.4" fill="#adab1e" fill-rule="evenodd" fill-opacity="0.8" stroke="#000000" stroke-opacity="0.8" stroke-width="0.64"></circle>
<circle clip-path="url(#clip122)" cx="1149.86" cy="314.513" r="14.4" fill="#adab1e" fill-rule="evenodd" fill-opacity="0.8" stroke="#000000" stroke-opacity="0.8" stroke-width="0.64"></circle>
<circle clip-path="url(#clip122)" cx="1317.07" cy="342.692" r="14.4" fill="#adab1e" fill-rule="evenodd" fill-opacity="0.8" stroke="#000000" stroke-opacity="0.8" stroke-width="0.64"></circle>
<circle clip-path="url(#clip122)" cx="1484.28" cy="365.893" r="14.4" fill="#adab1e" fill-rule="evenodd" fill-opacity="0.8" stroke="#000000" stroke-opacity="0.8" stroke-width="0.64"></circle>
<circle clip-path="url(#clip122)" cx="1651.49" cy="385.047" r="14.4" fill="#adab1e" fill-rule="evenodd" fill-opacity="0.8" stroke="#000000" stroke-opacity="0.8" stroke-width="0.64"></circle>
<circle clip-path="url(#clip122)" cx="1818.7" cy="400.92" r="14.4" fill="#adab1e" fill-rule="evenodd" fill-opacity="0.8" stroke="#000000" stroke-opacity="0.8" stroke-width="0.64"></circle>
<circle clip-path="url(#clip122)" cx="1985.91" cy="414.128" r="14.4" fill="#adab1e" fill-rule="evenodd" fill-opacity="0.8" stroke="#000000" stroke-opacity="0.8" stroke-width="0.64"></circle>
<circle clip-path="url(#clip122)" cx="2153.12" cy="425.164" r="14.4" fill="#adab1e" fill-rule="evenodd" fill-opacity="0.8" stroke="#000000" stroke-opacity="0.8" stroke-width="0.64"></circle>
<circle clip-path="url(#clip122)" cx="2320.33" cy="434.423" r="14.4" fill="#adab1e" fill-rule="evenodd" fill-opacity="0.8" stroke="#000000" stroke-opacity="0.8" stroke-width="0.64"></circle>
<circle clip-path="url(#clip122)" cx="2487.54" cy="442.222" r="14.4" fill="#adab1e" fill-rule="evenodd" fill-opacity="0.8" stroke="#000000" stroke-opacity="0.8" stroke-width="0.64"></circle>
<path clip-path="url(#clip120)" d="M2084.45 323.464 L2475.95 323.464 L2475.95 64.2642 L2084.45 64.2642  Z" fill="#ffffff" fill-rule="evenodd" fill-opacity="1"></path>
<polyline clip-path="url(#clip120)" style="stroke:#000000; stroke-linecap:round; stroke-linejoin:round; stroke-width:4; stroke-opacity:1; fill:none" points="2084.45,323.464 2475.95,323.464 2475.95,64.2642 2084.45,64.2642 2084.45,323.464 "></polyline>
<polyline clip-path="url(#clip120)" style="stroke:#ad5e1e; stroke-linecap:round; stroke-linejoin:round; stroke-width:6.4; stroke-opacity:1; fill:none" points="2110.05,116.104 2263.66,116.104 "></polyline>
<path clip-path="url(#clip120)" d="M2312.1 92.6822 L2305.19 120.414 Q2304.91 121.656 2304.91 122.71 Q2304.91 124.911 2306.34 124.911 Q2307.04 124.911 2307.6 124.466 Q2308.17 124.021 2308.61 123.084 Q2309.06 122.148 2309.34 121.281 Q2309.62 120.391 2309.99 118.986 Q2310.11 118.423 2310.2 118.283 Q2310.32 118.119 2310.65 118.119 Q2311.23 118.119 2311.23 118.587 Q2310.6 121.609 2309.78 123.342 Q2308.47 125.989 2306.24 125.989 Q2304.56 125.989 2303.36 124.958 Q2302.17 123.928 2301.89 122.382 Q2298.82 125.989 2295.63 125.989 Q2292.82 125.989 2291.04 123.857 Q2289.26 121.703 2289.26 118.306 Q2289.26 114.887 2290.95 111.607 Q2292.66 108.328 2295.35 106.291 Q2298.05 104.253 2300.81 104.253 Q2303.74 104.253 2305.24 107.321 L2308.12 95.9379 L2308.26 95.001 Q2308.26 94.7199 2308.14 94.5794 Q2308.05 94.4154 2307.49 94.2983 Q2306.95 94.1812 2305.87 94.1812 Q2305.43 94.1812 2305.21 94.1578 Q2305.03 94.1343 2304.86 94.0172 Q2304.7 93.8767 2304.7 93.5956 Q2304.7 92.7758 2305.38 92.6822 Q2309.88 92.1669 2311.47 92.1669 Q2311.75 92.1669 2311.91 92.3074 Q2312.08 92.4245 2312.08 92.565 L2312.1 92.6822 M2304.65 109.523 Q2304.65 109.312 2304.49 108.727 Q2304.32 108.141 2303.95 107.321 Q2303.57 106.501 2302.75 105.916 Q2301.96 105.307 2300.88 105.307 Q2299.43 105.307 2297.91 106.548 Q2296.41 107.79 2295.31 109.898 Q2294.46 111.584 2293.55 115.121 Q2292.66 118.658 2292.66 120.414 Q2292.66 121.492 2292.89 122.452 Q2293.15 123.389 2293.88 124.162 Q2294.6 124.911 2295.73 124.911 Q2298.47 124.911 2301.16 121.515 Q2301.68 120.93 2301.79 120.695 Q2301.94 120.438 2302.12 119.735 L2304.51 110.343 Q2304.65 109.64 2304.65 109.523 Z" fill="#000000" fill-rule="nonzero" fill-opacity="1"></path><path clip-path="url(#clip120)" d="M2316.98 139.336 L2316.98 138.303 Q2318.77 138.303 2319.18 138.09 Q2319.59 137.861 2319.59 136.778 L2319.59 127.744 Q2319.59 126.498 2319.16 126.203 Q2318.75 125.908 2317.11 125.908 L2317.11 124.859 L2321.8 124.498 L2321.8 136.811 Q2321.8 137.811 2322.16 138.057 Q2322.52 138.303 2324.16 138.303 L2324.16 139.336 Q2320.74 139.238 2320.67 139.238 Q2320.21 139.238 2316.98 139.336 M2318.39 118.645 Q2318.39 117.973 2318.9 117.431 Q2319.42 116.874 2320.16 116.874 Q2320.9 116.874 2321.42 117.382 Q2321.95 117.874 2321.95 118.661 Q2321.95 119.432 2321.42 119.94 Q2320.9 120.432 2320.16 120.432 Q2319.39 120.432 2318.88 119.891 Q2318.39 119.35 2318.39 118.645 Z" fill="#000000" fill-rule="nonzero" fill-opacity="1"></path><path clip-path="url(#clip120)" d="M2326.45 139.336 L2326.45 138.303 Q2328.24 138.303 2328.65 138.09 Q2329.06 137.861 2329.06 136.778 L2329.06 127.777 Q2329.06 126.531 2328.62 126.22 Q2328.19 125.908 2326.45 125.908 L2326.45 124.859 L2331.18 124.498 L2331.18 128.023 Q2332.75 124.498 2336.14 124.498 Q2338.67 124.498 2339.67 125.744 Q2340.41 126.58 2340.56 127.515 Q2340.72 128.449 2340.72 130.876 L2340.72 137.287 Q2340.75 137.992 2341.29 138.156 Q2341.83 138.303 2343.34 138.303 L2343.34 139.336 Q2339.92 139.238 2339.57 139.238 Q2339.31 139.238 2335.78 139.336 L2335.78 138.303 Q2337.57 138.303 2337.98 138.09 Q2338.41 137.861 2338.41 136.778 L2338.41 128.958 Q2338.41 127.252 2337.88 126.252 Q2337.36 125.236 2335.92 125.236 Q2334.18 125.236 2332.78 126.695 Q2331.39 128.154 2331.39 130.614 L2331.39 136.778 Q2331.39 137.861 2331.8 138.09 Q2332.23 138.303 2334 138.303 L2334 139.336 Q2330.57 139.238 2330.24 139.238 Q2329.98 139.238 2326.45 139.336 Z" fill="#000000" fill-rule="nonzero" fill-opacity="1"></path><path clip-path="url(#clip120)" d="M2345.03 125.908 L2345.03 125.17 Q2346.57 125.105 2347.59 124.023 Q2348.62 122.924 2348.97 121.58 Q2349.33 120.235 2349.36 118.678 L2350.2 118.678 L2350.2 124.859 L2355 124.859 L2355 125.908 L2350.2 125.908 L2350.2 135.237 Q2350.2 138.861 2352.46 138.861 Q2353.43 138.861 2354.07 137.877 Q2354.71 136.877 2354.71 135.106 L2354.71 133.253 L2355.54 133.253 L2355.54 135.172 Q2355.54 136.992 2354.71 138.352 Q2353.87 139.713 2352.21 139.713 Q2351.61 139.713 2351 139.549 Q2350.41 139.402 2349.62 139.008 Q2348.85 138.598 2348.36 137.615 Q2347.88 136.614 2347.88 135.172 L2347.88 125.908 L2345.03 125.908 Z" fill="#000000" fill-rule="nonzero" fill-opacity="1"></path><path clip-path="url(#clip120)" d="M2376.35 118.166 Q2376.4 117.58 2377.31 117.58 L2406.7 117.58 Q2408.09 117.58 2408.11 118.119 Q2408.11 118.704 2406.8 118.681 L2377.64 118.681 Q2376.35 118.704 2376.35 118.166 M2376.35 108.797 Q2376.35 108.211 2377.36 108.235 L2406.66 108.235 Q2408.09 108.235 2408.11 108.797 Q2408.11 109.336 2406.89 109.336 L2377.31 109.336 Q2376.35 109.336 2376.35 108.797 Z" fill="#000000" fill-rule="nonzero" fill-opacity="1"></path><path clip-path="url(#clip120)" d="M2426.6 117.721 Q2426.6 116.292 2427.37 115.753 Q2428.15 115.191 2428.97 115.191 Q2430.07 115.191 2430.7 115.894 Q2431.35 116.573 2431.35 117.533 Q2431.35 118.494 2430.7 119.196 Q2430.07 119.876 2428.97 119.876 Q2428.43 119.876 2428.15 119.782 Q2428.78 121.984 2430.7 123.576 Q2432.64 125.169 2435.2 125.169 Q2438.41 125.169 2440.33 122.054 Q2441.47 120.04 2441.47 115.472 Q2441.47 111.444 2440.61 109.429 Q2439.27 106.361 2436.53 106.361 Q2432.64 106.361 2430.35 109.71 Q2430.07 110.132 2429.74 110.155 Q2429.27 110.155 2429.15 109.898 Q2429.06 109.617 2429.06 108.89 L2429.06 94.6965 Q2429.06 93.5488 2429.53 93.5488 Q2429.72 93.5488 2430.11 93.6893 Q2433.14 95.0244 2436.48 95.0478 Q2439.93 95.0478 2443.02 93.6425 Q2443.25 93.5019 2443.39 93.5019 Q2443.86 93.5019 2443.89 94.0407 Q2443.89 94.228 2443.49 94.7902 Q2443.11 95.3289 2442.29 96.055 Q2441.47 96.7577 2440.42 97.4369 Q2439.37 98.1162 2437.82 98.5846 Q2436.3 99.0296 2434.61 99.0296 Q2432.6 99.0296 2430.54 98.3972 L2430.54 107.743 Q2433.02 105.307 2436.62 105.307 Q2440.47 105.307 2443.11 108.399 Q2445.76 111.49 2445.76 115.8 Q2445.76 120.321 2442.62 123.412 Q2439.51 126.504 2435.29 126.504 Q2431.45 126.504 2429.01 123.764 Q2426.6 121.023 2426.6 117.721 Z" fill="#000000" fill-rule="nonzero" fill-opacity="1"></path><polyline clip-path="url(#clip120)" style="stroke:#ad7d1e; stroke-linecap:round; stroke-linejoin:round; stroke-width:6.4; stroke-opacity:1; fill:none" points="2110.05,167.944 2263.66,167.944 "></polyline>
<path clip-path="url(#clip120)" d="M2312.1 144.522 L2305.19 172.254 Q2304.91 173.496 2304.91 174.55 Q2304.91 176.751 2306.34 176.751 Q2307.04 176.751 2307.6 176.306 Q2308.17 175.861 2308.61 174.924 Q2309.06 173.988 2309.34 173.121 Q2309.62 172.231 2309.99 170.826 Q2310.11 170.263 2310.2 170.123 Q2310.32 169.959 2310.65 169.959 Q2311.23 169.959 2311.23 170.427 Q2310.6 173.449 2309.78 175.182 Q2308.47 177.829 2306.24 177.829 Q2304.56 177.829 2303.36 176.798 Q2302.17 175.768 2301.89 174.222 Q2298.82 177.829 2295.63 177.829 Q2292.82 177.829 2291.04 175.697 Q2289.26 173.543 2289.26 170.146 Q2289.26 166.727 2290.95 163.447 Q2292.66 160.168 2295.35 158.131 Q2298.05 156.093 2300.81 156.093 Q2303.74 156.093 2305.24 159.161 L2308.12 147.778 L2308.26 146.841 Q2308.26 146.56 2308.14 146.419 Q2308.05 146.255 2307.49 146.138 Q2306.95 146.021 2305.87 146.021 Q2305.43 146.021 2305.21 145.998 Q2305.03 145.974 2304.86 145.857 Q2304.7 145.717 2304.7 145.436 Q2304.7 144.616 2305.38 144.522 Q2309.88 144.007 2311.47 144.007 Q2311.75 144.007 2311.91 144.147 Q2312.08 144.265 2312.08 144.405 L2312.1 144.522 M2304.65 161.363 Q2304.65 161.152 2304.49 160.567 Q2304.32 159.981 2303.95 159.161 Q2303.57 158.341 2302.75 157.756 Q2301.96 157.147 2300.88 157.147 Q2299.43 157.147 2297.91 158.388 Q2296.41 159.63 2295.31 161.738 Q2294.46 163.424 2293.55 166.961 Q2292.66 170.498 2292.66 172.254 Q2292.66 173.332 2292.89 174.292 Q2293.15 175.229 2293.88 176.002 Q2294.6 176.751 2295.73 176.751 Q2298.47 176.751 2301.16 173.355 Q2301.68 172.77 2301.79 172.535 Q2301.94 172.278 2302.12 171.575 L2304.51 162.183 Q2304.65 161.48 2304.65 161.363 Z" fill="#000000" fill-rule="nonzero" fill-opacity="1"></path><path clip-path="url(#clip120)" d="M2316.98 191.176 L2316.98 190.143 Q2318.77 190.143 2319.18 189.93 Q2319.59 189.701 2319.59 188.618 L2319.59 179.584 Q2319.59 178.338 2319.16 178.043 Q2318.75 177.748 2317.11 177.748 L2317.11 176.699 L2321.8 176.338 L2321.8 188.651 Q2321.8 189.651 2322.16 189.897 Q2322.52 190.143 2324.16 190.143 L2324.16 191.176 Q2320.74 191.078 2320.67 191.078 Q2320.21 191.078 2316.98 191.176 M2318.39 170.485 Q2318.39 169.813 2318.9 169.271 Q2319.42 168.714 2320.16 168.714 Q2320.9 168.714 2321.42 169.222 Q2321.95 169.714 2321.95 170.501 Q2321.95 171.272 2321.42 171.78 Q2320.9 172.272 2320.16 172.272 Q2319.39 172.272 2318.88 171.731 Q2318.39 171.19 2318.39 170.485 Z" fill="#000000" fill-rule="nonzero" fill-opacity="1"></path><path clip-path="url(#clip120)" d="M2326.45 191.176 L2326.45 190.143 Q2328.24 190.143 2328.65 189.93 Q2329.06 189.701 2329.06 188.618 L2329.06 179.617 Q2329.06 178.371 2328.62 178.06 Q2328.19 177.748 2326.45 177.748 L2326.45 176.699 L2331.18 176.338 L2331.18 179.863 Q2332.75 176.338 2336.14 176.338 Q2338.67 176.338 2339.67 177.584 Q2340.41 178.42 2340.56 179.355 Q2340.72 180.289 2340.72 182.716 L2340.72 189.127 Q2340.75 189.832 2341.29 189.996 Q2341.83 190.143 2343.34 190.143 L2343.34 191.176 Q2339.92 191.078 2339.57 191.078 Q2339.31 191.078 2335.78 191.176 L2335.78 190.143 Q2337.57 190.143 2337.98 189.93 Q2338.41 189.701 2338.41 188.618 L2338.41 180.798 Q2338.41 179.092 2337.88 178.092 Q2337.36 177.076 2335.92 177.076 Q2334.18 177.076 2332.78 178.535 Q2331.39 179.994 2331.39 182.454 L2331.39 188.618 Q2331.39 189.701 2331.8 189.93 Q2332.23 190.143 2334 190.143 L2334 191.176 Q2330.57 191.078 2330.24 191.078 Q2329.98 191.078 2326.45 191.176 Z" fill="#000000" fill-rule="nonzero" fill-opacity="1"></path><path clip-path="url(#clip120)" d="M2345.03 177.748 L2345.03 177.01 Q2346.57 176.945 2347.59 175.863 Q2348.62 174.764 2348.97 173.42 Q2349.33 172.075 2349.36 170.518 L2350.2 170.518 L2350.2 176.699 L2355 176.699 L2355 177.748 L2350.2 177.748 L2350.2 187.077 Q2350.2 190.701 2352.46 190.701 Q2353.43 190.701 2354.07 189.717 Q2354.71 188.717 2354.71 186.946 L2354.71 185.093 L2355.54 185.093 L2355.54 187.012 Q2355.54 188.832 2354.71 190.192 Q2353.87 191.553 2352.21 191.553 Q2351.61 191.553 2351 191.389 Q2350.41 191.242 2349.62 190.848 Q2348.85 190.438 2348.36 189.455 Q2347.88 188.454 2347.88 187.012 L2347.88 177.748 L2345.03 177.748 Z" fill="#000000" fill-rule="nonzero" fill-opacity="1"></path><path clip-path="url(#clip120)" d="M2376.35 170.006 Q2376.4 169.42 2377.31 169.42 L2406.7 169.42 Q2408.09 169.42 2408.11 169.959 Q2408.11 170.544 2406.8 170.521 L2377.64 170.521 Q2376.35 170.544 2376.35 170.006 M2376.35 160.637 Q2376.35 160.051 2377.36 160.075 L2406.66 160.075 Q2408.09 160.075 2408.11 160.637 Q2408.11 161.176 2406.89 161.176 L2377.31 161.176 Q2376.35 161.176 2376.35 160.637 Z" fill="#000000" fill-rule="nonzero" fill-opacity="1"></path><path clip-path="url(#clip120)" d="M2426.6 162.136 Q2426.6 154.594 2430.44 149.98 Q2434.28 145.342 2439.22 145.342 Q2442.11 145.342 2443.7 146.818 Q2445.31 148.27 2445.31 150.518 Q2445.31 151.76 2444.59 152.298 Q2443.86 152.837 2443.11 152.837 Q2442.25 152.837 2441.57 152.252 Q2440.89 151.666 2440.89 150.612 Q2440.89 148.457 2443.53 148.457 Q2442.29 146.536 2439.32 146.536 Q2438.41 146.536 2437.47 146.818 Q2436.53 147.075 2435.31 147.965 Q2434.1 148.855 2433.16 150.261 Q2432.22 151.666 2431.57 154.313 Q2430.91 156.959 2430.91 160.403 L2430.91 161.55 Q2432.88 156.796 2436.91 156.819 Q2440.93 156.819 2443.72 159.887 Q2446.51 162.956 2446.51 167.5 Q2446.51 172.161 2443.6 175.252 Q2440.7 178.344 2436.62 178.344 Q2434.8 178.344 2433.14 177.571 Q2431.5 176.822 2429.95 175.088 Q2428.43 173.355 2427.51 170.029 Q2426.6 166.703 2426.6 162.136 M2431 166.446 Q2431 171.153 2431.87 173.402 Q2432.01 173.777 2432.32 174.292 Q2432.64 174.807 2433.18 175.487 Q2433.74 176.142 2434.66 176.587 Q2435.57 177.009 2436.62 177.009 Q2439.83 177.009 2441.38 173.894 Q2442.2 172.161 2442.2 167.453 Q2442.2 162.651 2441.33 160.894 Q2439.86 157.92 2436.86 157.92 Q2434.84 157.92 2433.44 159.302 Q2432.06 160.684 2431.52 162.534 Q2431 164.384 2431 166.446 Z" fill="#000000" fill-rule="nonzero" fill-opacity="1"></path><polyline clip-path="url(#clip120)" style="stroke:#61ad1e; stroke-linecap:round; stroke-linejoin:round; stroke-width:6.4; stroke-opacity:1; fill:none" points="2110.05,219.784 2263.66,219.784 "></polyline>
<path clip-path="url(#clip120)" d="M2312.1 196.362 L2305.19 224.094 Q2304.91 225.336 2304.91 226.39 Q2304.91 228.591 2306.34 228.591 Q2307.04 228.591 2307.6 228.146 Q2308.17 227.701 2308.61 226.764 Q2309.06 225.828 2309.34 224.961 Q2309.62 224.071 2309.99 222.666 Q2310.11 222.103 2310.2 221.963 Q2310.32 221.799 2310.65 221.799 Q2311.23 221.799 2311.23 222.267 Q2310.6 225.289 2309.78 227.022 Q2308.47 229.669 2306.24 229.669 Q2304.56 229.669 2303.36 228.638 Q2302.17 227.608 2301.89 226.062 Q2298.82 229.669 2295.63 229.669 Q2292.82 229.669 2291.04 227.537 Q2289.26 225.383 2289.26 221.986 Q2289.26 218.567 2290.95 215.287 Q2292.66 212.008 2295.35 209.971 Q2298.05 207.933 2300.81 207.933 Q2303.74 207.933 2305.24 211.001 L2308.12 199.618 L2308.26 198.681 Q2308.26 198.4 2308.14 198.259 Q2308.05 198.095 2307.49 197.978 Q2306.95 197.861 2305.87 197.861 Q2305.43 197.861 2305.21 197.838 Q2305.03 197.814 2304.86 197.697 Q2304.7 197.557 2304.7 197.276 Q2304.7 196.456 2305.38 196.362 Q2309.88 195.847 2311.47 195.847 Q2311.75 195.847 2311.91 195.987 Q2312.08 196.105 2312.08 196.245 L2312.1 196.362 M2304.65 213.203 Q2304.65 212.992 2304.49 212.407 Q2304.32 211.821 2303.95 211.001 Q2303.57 210.181 2302.75 209.596 Q2301.96 208.987 2300.88 208.987 Q2299.43 208.987 2297.91 210.228 Q2296.41 211.47 2295.31 213.578 Q2294.46 215.264 2293.55 218.801 Q2292.66 222.338 2292.66 224.094 Q2292.66 225.172 2292.89 226.132 Q2293.15 227.069 2293.88 227.842 Q2294.6 228.591 2295.73 228.591 Q2298.47 228.591 2301.16 225.195 Q2301.68 224.61 2301.79 224.375 Q2301.94 224.118 2302.12 223.415 L2304.51 214.023 Q2304.65 213.32 2304.65 213.203 Z" fill="#000000" fill-rule="nonzero" fill-opacity="1"></path><path clip-path="url(#clip120)" d="M2316.98 243.016 L2316.98 241.983 Q2318.77 241.983 2319.18 241.77 Q2319.59 241.541 2319.59 240.458 L2319.59 231.424 Q2319.59 230.178 2319.16 229.883 Q2318.75 229.588 2317.11 229.588 L2317.11 228.539 L2321.8 228.178 L2321.8 240.491 Q2321.8 241.491 2322.16 241.737 Q2322.52 241.983 2324.16 241.983 L2324.16 243.016 Q2320.74 242.918 2320.67 242.918 Q2320.21 242.918 2316.98 243.016 M2318.39 222.325 Q2318.39 221.653 2318.9 221.111 Q2319.42 220.554 2320.16 220.554 Q2320.9 220.554 2321.42 221.062 Q2321.95 221.554 2321.95 222.341 Q2321.95 223.112 2321.42 223.62 Q2320.9 224.112 2320.16 224.112 Q2319.39 224.112 2318.88 223.571 Q2318.39 223.03 2318.39 222.325 Z" fill="#000000" fill-rule="nonzero" fill-opacity="1"></path><path clip-path="url(#clip120)" d="M2326.45 243.016 L2326.45 241.983 Q2328.24 241.983 2328.65 241.77 Q2329.06 241.541 2329.06 240.458 L2329.06 231.457 Q2329.06 230.211 2328.62 229.9 Q2328.19 229.588 2326.45 229.588 L2326.45 228.539 L2331.18 228.178 L2331.18 231.703 Q2332.75 228.178 2336.14 228.178 Q2338.67 228.178 2339.67 229.424 Q2340.41 230.26 2340.56 231.195 Q2340.72 232.129 2340.72 234.556 L2340.72 240.967 Q2340.75 241.672 2341.29 241.836 Q2341.83 241.983 2343.34 241.983 L2343.34 243.016 Q2339.92 242.918 2339.57 242.918 Q2339.31 242.918 2335.78 243.016 L2335.78 241.983 Q2337.57 241.983 2337.98 241.77 Q2338.41 241.541 2338.41 240.458 L2338.41 232.638 Q2338.41 230.932 2337.88 229.932 Q2337.36 228.916 2335.92 228.916 Q2334.18 228.916 2332.78 230.375 Q2331.39 231.834 2331.39 234.294 L2331.39 240.458 Q2331.39 241.541 2331.8 241.77 Q2332.23 241.983 2334 241.983 L2334 243.016 Q2330.57 242.918 2330.24 242.918 Q2329.98 242.918 2326.45 243.016 Z" fill="#000000" fill-rule="nonzero" fill-opacity="1"></path><path clip-path="url(#clip120)" d="M2345.03 229.588 L2345.03 228.85 Q2346.57 228.785 2347.59 227.703 Q2348.62 226.604 2348.97 225.26 Q2349.33 223.915 2349.36 222.358 L2350.2 222.358 L2350.2 228.539 L2355 228.539 L2355 229.588 L2350.2 229.588 L2350.2 238.917 Q2350.2 242.541 2352.46 242.541 Q2353.43 242.541 2354.07 241.557 Q2354.71 240.557 2354.71 238.786 L2354.71 236.933 L2355.54 236.933 L2355.54 238.852 Q2355.54 240.672 2354.71 242.032 Q2353.87 243.393 2352.21 243.393 Q2351.61 243.393 2351 243.229 Q2350.41 243.082 2349.62 242.688 Q2348.85 242.278 2348.36 241.295 Q2347.88 240.294 2347.88 238.852 L2347.88 229.588 L2345.03 229.588 Z" fill="#000000" fill-rule="nonzero" fill-opacity="1"></path><path clip-path="url(#clip120)" d="M2376.35 221.846 Q2376.4 221.26 2377.31 221.26 L2406.7 221.26 Q2408.09 221.26 2408.11 221.799 Q2408.11 222.384 2406.8 222.361 L2377.64 222.361 Q2376.35 222.384 2376.35 221.846 M2376.35 212.477 Q2376.35 211.891 2377.36 211.915 L2406.66 211.915 Q2408.09 211.915 2408.11 212.477 Q2408.11 213.016 2406.89 213.016 L2377.31 213.016 Q2376.35 213.016 2376.35 212.477 Z" fill="#000000" fill-rule="nonzero" fill-opacity="1"></path><path clip-path="url(#clip120)" d="M2426.6 221.213 L2426.6 219.738 L2441.33 197.229 Q2441.71 196.643 2442.29 196.667 Q2442.83 196.667 2442.95 196.877 Q2443.07 197.088 2443.07 197.908 L2443.07 219.738 L2447.87 219.738 L2447.87 221.213 L2443.07 221.213 L2443.07 225.383 Q2443.07 226.764 2443.63 227.21 Q2444.21 227.655 2446.7 227.655 L2447.7 227.655 L2447.7 229.13 Q2445.74 228.99 2441.19 228.99 Q2436.67 228.99 2434.7 229.13 L2434.7 227.655 L2435.71 227.655 Q2438.19 227.655 2438.78 227.233 Q2439.37 226.788 2439.37 225.383 L2439.37 221.213 L2426.6 221.213 M2427.96 219.738 L2439.65 219.738 L2439.65 201.843 L2427.96 219.738 Z" fill="#000000" fill-rule="nonzero" fill-opacity="1"></path><polyline clip-path="url(#clip120)" style="stroke:#adab1e; stroke-linecap:round; stroke-linejoin:round; stroke-width:6.4; stroke-opacity:1; fill:none" points="2110.05,271.624 2263.66,271.624 "></polyline>
<path clip-path="url(#clip120)" d="M2312.1 248.202 L2305.19 275.934 Q2304.91 277.176 2304.91 278.23 Q2304.91 280.431 2306.34 280.431 Q2307.04 280.431 2307.6 279.986 Q2308.17 279.541 2308.61 278.604 Q2309.06 277.668 2309.34 276.801 Q2309.62 275.911 2309.99 274.506 Q2310.11 273.943 2310.2 273.803 Q2310.32 273.639 2310.65 273.639 Q2311.23 273.639 2311.23 274.107 Q2310.6 277.129 2309.78 278.862 Q2308.47 281.509 2306.24 281.509 Q2304.56 281.509 2303.36 280.478 Q2302.17 279.448 2301.89 277.902 Q2298.82 281.509 2295.63 281.509 Q2292.82 281.509 2291.04 279.377 Q2289.26 277.223 2289.26 273.826 Q2289.26 270.407 2290.95 267.127 Q2292.66 263.848 2295.35 261.811 Q2298.05 259.773 2300.81 259.773 Q2303.74 259.773 2305.24 262.841 L2308.12 251.458 L2308.26 250.521 Q2308.26 250.24 2308.14 250.099 Q2308.05 249.935 2307.49 249.818 Q2306.95 249.701 2305.87 249.701 Q2305.43 249.701 2305.21 249.678 Q2305.03 249.654 2304.86 249.537 Q2304.7 249.397 2304.7 249.116 Q2304.7 248.296 2305.38 248.202 Q2309.88 247.687 2311.47 247.687 Q2311.75 247.687 2311.91 247.827 Q2312.08 247.945 2312.08 248.085 L2312.1 248.202 M2304.65 265.043 Q2304.65 264.832 2304.49 264.247 Q2304.32 263.661 2303.95 262.841 Q2303.57 262.021 2302.75 261.436 Q2301.96 260.827 2300.88 260.827 Q2299.43 260.827 2297.91 262.068 Q2296.41 263.31 2295.31 265.418 Q2294.46 267.104 2293.55 270.641 Q2292.66 274.178 2292.66 275.934 Q2292.66 277.012 2292.89 277.972 Q2293.15 278.909 2293.88 279.682 Q2294.6 280.431 2295.73 280.431 Q2298.47 280.431 2301.16 277.035 Q2301.68 276.45 2301.79 276.215 Q2301.94 275.958 2302.12 275.255 L2304.51 265.863 Q2304.65 265.16 2304.65 265.043 Z" fill="#000000" fill-rule="nonzero" fill-opacity="1"></path><path clip-path="url(#clip120)" d="M2316.98 294.856 L2316.98 293.823 Q2318.77 293.823 2319.18 293.61 Q2319.59 293.381 2319.59 292.298 L2319.59 283.264 Q2319.59 282.018 2319.16 281.723 Q2318.75 281.428 2317.11 281.428 L2317.11 280.379 L2321.8 280.018 L2321.8 292.331 Q2321.8 293.331 2322.16 293.577 Q2322.52 293.823 2324.16 293.823 L2324.16 294.856 Q2320.74 294.758 2320.67 294.758 Q2320.21 294.758 2316.98 294.856 M2318.39 274.165 Q2318.39 273.493 2318.9 272.951 Q2319.42 272.394 2320.16 272.394 Q2320.9 272.394 2321.42 272.902 Q2321.95 273.394 2321.95 274.181 Q2321.95 274.952 2321.42 275.46 Q2320.9 275.952 2320.16 275.952 Q2319.39 275.952 2318.88 275.411 Q2318.39 274.87 2318.39 274.165 Z" fill="#000000" fill-rule="nonzero" fill-opacity="1"></path><path clip-path="url(#clip120)" d="M2326.45 294.856 L2326.45 293.823 Q2328.24 293.823 2328.65 293.61 Q2329.06 293.381 2329.06 292.298 L2329.06 283.297 Q2329.06 282.051 2328.62 281.74 Q2328.19 281.428 2326.45 281.428 L2326.45 280.379 L2331.18 280.018 L2331.18 283.543 Q2332.75 280.018 2336.14 280.018 Q2338.67 280.018 2339.67 281.264 Q2340.41 282.1 2340.56 283.035 Q2340.72 283.969 2340.72 286.396 L2340.72 292.807 Q2340.75 293.512 2341.29 293.676 Q2341.83 293.823 2343.34 293.823 L2343.34 294.856 Q2339.92 294.758 2339.57 294.758 Q2339.31 294.758 2335.78 294.856 L2335.78 293.823 Q2337.57 293.823 2337.98 293.61 Q2338.41 293.381 2338.41 292.298 L2338.41 284.478 Q2338.41 282.772 2337.88 281.772 Q2337.36 280.756 2335.92 280.756 Q2334.18 280.756 2332.78 282.215 Q2331.39 283.674 2331.39 286.134 L2331.39 292.298 Q2331.39 293.381 2331.8 293.61 Q2332.23 293.823 2334 293.823 L2334 294.856 Q2330.57 294.758 2330.24 294.758 Q2329.98 294.758 2326.45 294.856 Z" fill="#000000" fill-rule="nonzero" fill-opacity="1"></path><path clip-path="url(#clip120)" d="M2345.03 281.428 L2345.03 280.69 Q2346.57 280.625 2347.59 279.543 Q2348.62 278.444 2348.97 277.1 Q2349.33 275.755 2349.36 274.198 L2350.2 274.198 L2350.2 280.379 L2355 280.379 L2355 281.428 L2350.2 281.428 L2350.2 290.757 Q2350.2 294.381 2352.46 294.381 Q2353.43 294.381 2354.07 293.397 Q2354.71 292.397 2354.71 290.626 L2354.71 288.773 L2355.54 288.773 L2355.54 290.692 Q2355.54 292.512 2354.71 293.872 Q2353.87 295.233 2352.21 295.233 Q2351.61 295.233 2351 295.069 Q2350.41 294.922 2349.62 294.528 Q2348.85 294.118 2348.36 293.135 Q2347.88 292.134 2347.88 290.692 L2347.88 281.428 L2345.03 281.428 Z" fill="#000000" fill-rule="nonzero" fill-opacity="1"></path><path clip-path="url(#clip120)" d="M2376.35 273.686 Q2376.4 273.1 2377.31 273.1 L2406.7 273.1 Q2408.09 273.1 2408.11 273.639 Q2408.11 274.224 2406.8 274.201 L2377.64 274.201 Q2376.35 274.224 2376.35 273.686 M2376.35 264.317 Q2376.35 263.731 2377.36 263.755 L2406.66 263.755 Q2408.09 263.755 2408.11 264.317 Q2408.11 264.856 2406.89 264.856 L2377.31 264.856 Q2376.35 264.856 2376.35 264.317 Z" fill="#000000" fill-rule="nonzero" fill-opacity="1"></path><path clip-path="url(#clip120)" d="M2426.6 274.506 Q2426.6 273.077 2427.42 272.398 Q2428.24 271.718 2429.29 271.718 Q2430.39 271.718 2431.17 272.444 Q2431.96 273.147 2431.96 274.388 Q2431.96 275.724 2431.03 276.473 Q2430.11 277.223 2428.8 277.035 Q2429.95 278.956 2432.06 279.822 Q2434.19 280.689 2436.16 280.689 Q2438.22 280.689 2439.88 278.909 Q2441.57 277.129 2441.57 272.772 Q2441.57 269.072 2440.11 266.94 Q2438.69 264.809 2435.85 264.809 L2433.74 264.809 Q2433.02 264.809 2432.81 264.738 Q2432.6 264.668 2432.6 264.27 Q2432.6 263.801 2433.32 263.708 Q2434.05 263.708 2435.2 263.567 Q2437.98 263.474 2439.46 261.061 Q2440.79 258.813 2440.79 255.604 Q2440.79 252.676 2439.39 251.458 Q2438.01 250.216 2436.2 250.216 Q2434.52 250.216 2432.67 250.919 Q2430.82 251.622 2429.81 253.191 Q2432.78 253.191 2432.78 255.604 Q2432.78 256.658 2432.1 257.36 Q2431.45 258.04 2430.35 258.04 Q2429.29 258.04 2428.59 257.384 Q2427.89 256.704 2427.89 255.557 Q2427.89 252.816 2430.32 250.919 Q2432.78 249.022 2436.39 249.022 Q2439.95 249.022 2442.57 250.896 Q2445.22 252.77 2445.22 255.65 Q2445.22 258.485 2443.35 260.803 Q2441.47 263.122 2438.5 264.083 Q2442.15 264.809 2444.33 267.291 Q2446.51 269.751 2446.51 272.772 Q2446.51 276.52 2443.56 279.284 Q2440.61 282.024 2436.3 282.024 Q2432.32 282.024 2429.46 279.869 Q2426.6 277.714 2426.6 274.506 Z" fill="#000000" fill-rule="nonzero" fill-opacity="1"></path></svg>