<svg xmlns="http://www.w3.org/2000/svg" xmlns:xlink="http://www.w3.org/1999/xlink" width="650" height="160" viewBox="0 0 2600 640">
<defs>
  <clipPath id="clip200">
    <rect x="0" y="0" width="2600" height="640"></rect>
  </clipPath>
</defs>
<path clip-path="url(#clip200)" d="M0 640 L2600 640 L2600 0 L0 0  Z" fill="#ffffff" fill-rule="evenodd" fill-opacity="1"></path>
<defs>
  <clipPath id="clip201">
    <rect x="520" y="0" width="1821" height="640"></rect>
  </clipPath>
</defs>
<path clip-path="url(#clip200)" d="M188.76 557.847 L2552.76 557.847 L2552.76 47.2441 L188.76 47.2441  Z" fill="#ffffff" fill-rule="evenodd" fill-opacity="1"></path>
<defs>
  <clipPath id="clip202">
    <rect x="188" y="47" width="2365" height="512"></rect>
  </clipPath>
</defs>
<polyline clip-path="url(#clip202)" style="stroke:#000000; stroke-linecap:round; stroke-linejoin:round; stroke-width:2; stroke-opacity:0.1; fill:none" points="512.995,557.847 512.995,47.2441 "></polyline>
<polyline clip-path="url(#clip202)" style="stroke:#000000; stroke-linecap:round; stroke-linejoin:round; stroke-width:2; stroke-opacity:0.1; fill:none" points="941.876,557.847 941.876,47.2441 "></polyline>
<polyline clip-path="url(#clip202)" style="stroke:#000000; stroke-linecap:round; stroke-linejoin:round; stroke-width:2; stroke-opacity:0.1; fill:none" points="1370.76,557.847 1370.76,47.2441 "></polyline>
<polyline clip-path="url(#clip202)" style="stroke:#000000; stroke-linecap:round; stroke-linejoin:round; stroke-width:2; stroke-opacity:0.1; fill:none" points="1799.64,557.847 1799.64,47.2441 "></polyline>
<polyline clip-path="url(#clip202)" style="stroke:#000000; stroke-linecap:round; stroke-linejoin:round; stroke-width:2; stroke-opacity:0.1; fill:none" points="2228.52,557.847 2228.52,47.2441 "></polyline>
<polyline clip-path="url(#clip202)" style="stroke:#000000; stroke-linecap:round; stroke-linejoin:round; stroke-width:2; stroke-opacity:0.1; fill:none" points="188.76,455.574 2552.76,455.574 "></polyline>
<polyline clip-path="url(#clip202)" style="stroke:#000000; stroke-linecap:round; stroke-linejoin:round; stroke-width:2; stroke-opacity:0.1; fill:none" points="188.76,337.493 2552.76,337.493 "></polyline>
<polyline clip-path="url(#clip202)" style="stroke:#000000; stroke-linecap:round; stroke-linejoin:round; stroke-width:2; stroke-opacity:0.1; fill:none" points="188.76,219.412 2552.76,219.412 "></polyline>
<polyline clip-path="url(#clip202)" style="stroke:#000000; stroke-linecap:round; stroke-linejoin:round; stroke-width:2; stroke-opacity:0.1; fill:none" points="188.76,101.332 2552.76,101.332 "></polyline>
<polyline clip-path="url(#clip200)" style="stroke:#000000; stroke-linecap:round; stroke-linejoin:round; stroke-width:4; stroke-opacity:1; fill:none" points="188.76,557.847 2552.76,557.847 "></polyline>
<polyline clip-path="url(#clip200)" style="stroke:#000000; stroke-linecap:round; stroke-linejoin:round; stroke-width:4; stroke-opacity:1; fill:none" points="512.995,557.847 512.995,538.95 "></polyline>
<polyline clip-path="url(#clip200)" style="stroke:#000000; stroke-linecap:round; stroke-linejoin:round; stroke-width:4; stroke-opacity:1; fill:none" points="941.876,557.847 941.876,538.95 "></polyline>
<polyline clip-path="url(#clip200)" style="stroke:#000000; stroke-linecap:round; stroke-linejoin:round; stroke-width:4; stroke-opacity:1; fill:none" points="1370.76,557.847 1370.76,538.95 "></polyline>
<polyline clip-path="url(#clip200)" style="stroke:#000000; stroke-linecap:round; stroke-linejoin:round; stroke-width:4; stroke-opacity:1; fill:none" points="1799.64,557.847 1799.64,538.95 "></polyline>
<polyline clip-path="url(#clip200)" style="stroke:#000000; stroke-linecap:round; stroke-linejoin:round; stroke-width:4; stroke-opacity:1; fill:none" points="2228.52,557.847 2228.52,538.95 "></polyline>
<path clip-path="url(#clip200)" d="M487.682 617.912 L495.321 617.912 L495.321 591.546 L487.011 593.213 L487.011 588.954 L495.275 587.287 L499.951 587.287 L499.951 617.912 L507.59 617.912 L507.59 621.847 L487.682 621.847 L487.682 617.912 Z" fill="#000000" fill-rule="nonzero" fill-opacity="1"></path><path clip-path="url(#clip200)" d="M527.034 590.366 Q523.423 590.366 521.594 593.931 Q519.789 597.472 519.789 604.602 Q519.789 611.708 521.594 615.273 Q523.423 618.815 527.034 618.815 Q530.668 618.815 532.474 615.273 Q534.302 611.708 534.302 604.602 Q534.302 597.472 532.474 593.931 Q530.668 590.366 527.034 590.366 M527.034 586.662 Q532.844 586.662 535.9 591.269 Q538.978 595.852 538.978 604.602 Q538.978 613.329 535.9 617.935 Q532.844 622.519 527.034 622.519 Q521.224 622.519 518.145 617.935 Q515.09 613.329 515.09 604.602 Q515.09 595.852 518.145 591.269 Q521.224 586.662 527.034 586.662 Z" fill="#000000" fill-rule="nonzero" fill-opacity="1"></path><path clip-path="url(#clip200)" d="M917.062 617.912 L924.7 617.912 L924.7 591.546 L916.39 593.213 L916.39 588.954 L924.654 587.287 L929.33 587.287 L929.33 617.912 L936.969 617.912 L936.969 621.847 L917.062 621.847 L917.062 617.912 Z" fill="#000000" fill-rule="nonzero" fill-opacity="1"></path><path clip-path="url(#clip200)" d="M946.46 587.287 L964.816 587.287 L964.816 591.222 L950.742 591.222 L950.742 599.695 Q951.761 599.347 952.779 599.185 Q953.798 599 954.816 599 Q960.603 599 963.983 602.171 Q967.362 605.343 967.362 610.759 Q967.362 616.338 963.89 619.44 Q960.418 622.519 954.098 622.519 Q951.923 622.519 949.654 622.148 Q947.409 621.778 945.001 621.037 L945.001 616.338 Q947.085 617.472 949.307 618.028 Q951.529 618.583 954.006 618.583 Q958.011 618.583 960.348 616.477 Q962.686 614.37 962.686 610.759 Q962.686 607.148 960.348 605.042 Q958.011 602.935 954.006 602.935 Q952.131 602.935 950.256 603.352 Q948.404 603.769 946.46 604.648 L946.46 587.287 Z" fill="#000000" fill-rule="nonzero" fill-opacity="1"></path><path clip-path="url(#clip200)" d="M1349.53 617.912 L1365.85 617.912 L1365.85 621.847 L1343.91 621.847 L1343.91 617.912 Q1346.57 615.157 1351.15 610.528 Q1355.76 605.875 1356.94 604.533 Q1359.18 602.009 1360.06 600.273 Q1360.97 598.514 1360.97 596.824 Q1360.97 594.07 1359.02 592.334 Q1357.1 590.597 1354 590.597 Q1351.8 590.597 1349.35 591.361 Q1346.92 592.125 1344.14 593.676 L1344.14 588.954 Q1346.96 587.82 1349.42 587.241 Q1351.87 586.662 1353.91 586.662 Q1359.28 586.662 1362.47 589.347 Q1365.67 592.033 1365.67 596.523 Q1365.67 598.653 1364.86 600.574 Q1364.07 602.472 1361.96 605.065 Q1361.38 605.736 1358.28 608.954 Q1355.18 612.148 1349.53 617.912 Z" fill="#000000" fill-rule="nonzero" fill-opacity="1"></path><path clip-path="url(#clip200)" d="M1385.67 590.366 Q1382.05 590.366 1380.23 593.931 Q1378.42 597.472 1378.42 604.602 Q1378.42 611.708 1380.23 615.273 Q1382.05 618.815 1385.67 618.815 Q1389.3 618.815 1391.11 615.273 Q1392.93 611.708 1392.93 604.602 Q1392.93 597.472 1391.11 593.931 Q1389.3 590.366 1385.67 590.366 M1385.67 586.662 Q1391.48 586.662 1394.53 591.269 Q1397.61 595.852 1397.61 604.602 Q1397.61 613.329 1394.53 617.935 Q1391.48 622.519 1385.67 622.519 Q1379.86 622.519 1376.78 617.935 Q1373.72 613.329 1373.72 604.602 Q1373.72 595.852 1376.78 591.269 Q1379.86 586.662 1385.67 586.662 Z" fill="#000000" fill-rule="nonzero" fill-opacity="1"></path><path clip-path="url(#clip200)" d="M1778.91 617.912 L1795.23 617.912 L1795.23 621.847 L1773.29 621.847 L1773.29 617.912 Q1775.95 615.157 1780.53 610.528 Q1785.14 605.875 1786.32 604.533 Q1788.56 602.009 1789.44 600.273 Q1790.35 598.514 1790.35 596.824 Q1790.35 594.07 1788.4 592.334 Q1786.48 590.597 1783.38 590.597 Q1781.18 590.597 1778.73 591.361 Q1776.29 592.125 1773.52 593.676 L1773.52 588.954 Q1776.34 587.82 1778.79 587.241 Q1781.25 586.662 1783.29 586.662 Q1788.66 586.662 1791.85 589.347 Q1795.04 592.033 1795.04 596.523 Q1795.04 598.653 1794.23 600.574 Q1793.45 602.472 1791.34 605.065 Q1790.76 605.736 1787.66 608.954 Q1784.56 612.148 1778.91 617.912 Z" fill="#000000" fill-rule="nonzero" fill-opacity="1"></path><path clip-path="url(#clip200)" d="M1805.09 587.287 L1823.45 587.287 L1823.45 591.222 L1809.37 591.222 L1809.37 599.695 Q1810.39 599.347 1811.41 599.185 Q1812.43 599 1813.45 599 Q1819.23 599 1822.61 602.171 Q1825.99 605.343 1825.99 610.759 Q1825.99 616.338 1822.52 619.44 Q1819.05 622.519 1812.73 622.519 Q1810.55 622.519 1808.29 622.148 Q1806.04 621.778 1803.63 621.037 L1803.63 616.338 Q1805.72 617.472 1807.94 618.028 Q1810.16 618.583 1812.64 618.583 Q1816.64 618.583 1818.98 616.477 Q1821.32 614.37 1821.32 610.759 Q1821.32 607.148 1818.98 605.042 Q1816.64 602.935 1812.64 602.935 Q1810.76 602.935 1808.89 603.352 Q1807.04 603.769 1805.09 604.648 L1805.09 587.287 Z" fill="#000000" fill-rule="nonzero" fill-opacity="1"></path><path clip-path="url(#clip200)" d="M2217.36 603.213 Q2220.72 603.931 2222.6 606.199 Q2224.49 608.468 2224.49 611.801 Q2224.49 616.917 2220.98 619.718 Q2217.46 622.519 2210.98 622.519 Q2208.8 622.519 2206.48 622.079 Q2204.19 621.662 2201.74 620.806 L2201.74 616.292 Q2203.68 617.426 2206 618.005 Q2208.31 618.583 2210.84 618.583 Q2215.23 618.583 2217.53 616.847 Q2219.84 615.111 2219.84 611.801 Q2219.84 608.745 2217.69 607.033 Q2215.56 605.296 2211.74 605.296 L2207.71 605.296 L2207.71 601.454 L2211.92 601.454 Q2215.37 601.454 2217.2 600.088 Q2219.03 598.699 2219.03 596.107 Q2219.03 593.445 2217.13 592.033 Q2215.26 590.597 2211.74 590.597 Q2209.82 590.597 2207.62 591.014 Q2205.42 591.431 2202.78 592.31 L2202.78 588.144 Q2205.44 587.403 2207.76 587.033 Q2210.1 586.662 2212.16 586.662 Q2217.48 586.662 2220.58 589.093 Q2223.68 591.5 2223.68 595.621 Q2223.68 598.491 2222.04 600.482 Q2220.4 602.449 2217.36 603.213 Z" fill="#000000" fill-rule="nonzero" fill-opacity="1"></path><path clip-path="url(#clip200)" d="M2243.36 590.366 Q2239.75 590.366 2237.92 593.931 Q2236.11 597.472 2236.11 604.602 Q2236.11 611.708 2237.92 615.273 Q2239.75 618.815 2243.36 618.815 Q2246.99 618.815 2248.8 615.273 Q2250.63 611.708 2250.63 604.602 Q2250.63 597.472 2248.8 593.931 Q2246.99 590.366 2243.36 590.366 M2243.36 586.662 Q2249.17 586.662 2252.22 591.269 Q2255.3 595.852 2255.3 604.602 Q2255.3 613.329 2252.22 617.935 Q2249.17 622.519 2243.36 622.519 Q2237.55 622.519 2234.47 617.935 Q2231.41 613.329 2231.41 604.602 Q2231.41 595.852 2234.47 591.269 Q2237.55 586.662 2243.36 586.662 Z" fill="#000000" fill-rule="nonzero" fill-opacity="1"></path><polyline clip-path="url(#clip200)" style="stroke:#000000; stroke-linecap:round; stroke-linejoin:round; stroke-width:4; stroke-opacity:1; fill:none" points="188.76,557.847 188.76,47.2441 "></polyline>
<polyline clip-path="url(#clip200)" style="stroke:#000000; stroke-linecap:round; stroke-linejoin:round; stroke-width:4; stroke-opacity:1; fill:none" points="188.76,455.574 207.658,455.574 "></polyline>
<polyline clip-path="url(#clip200)" style="stroke:#000000; stroke-linecap:round; stroke-linejoin:round; stroke-width:4; stroke-opacity:1; fill:none" points="188.76,337.493 207.658,337.493 "></polyline>
<polyline clip-path="url(#clip200)" style="stroke:#000000; stroke-linecap:round; stroke-linejoin:round; stroke-width:4; stroke-opacity:1; fill:none" points="188.76,219.412 207.658,219.412 "></polyline>
<polyline clip-path="url(#clip200)" style="stroke:#000000; stroke-linecap:round; stroke-linejoin:round; stroke-width:4; stroke-opacity:1; fill:none" points="188.76,101.332 207.658,101.332 "></polyline>
<path clip-path="url(#clip200)" d="M64.0198 441.372 Q60.4087 441.372 58.58 444.937 Q56.7745 448.479 56.7745 455.608 Q56.7745 462.715 58.58 466.28 Q60.4087 469.821 64.0198 469.821 Q67.6541 469.821 69.4596 466.28 Q71.2883 462.715 71.2883 455.608 Q71.2883 448.479 69.4596 444.937 Q67.6541 441.372 64.0198 441.372 M64.0198 437.669 Q69.83 437.669 72.8855 442.275 Q75.9642 446.859 75.9642 455.608 Q75.9642 464.335 72.8855 468.942 Q69.83 473.525 64.0198 473.525 Q58.2097 473.525 55.131 468.942 Q52.0754 464.335 52.0754 455.608 Q52.0754 446.859 55.131 442.275 Q58.2097 437.669 64.0198 437.669 Z" fill="#000000" fill-rule="nonzero" fill-opacity="1"></path><path clip-path="url(#clip200)" d="M84.1818 466.974 L89.066 466.974 L89.066 472.854 L84.1818 472.854 L84.1818 466.974 Z" fill="#000000" fill-rule="nonzero" fill-opacity="1"></path><path clip-path="url(#clip200)" d="M109.251 441.372 Q105.64 441.372 103.811 444.937 Q102.006 448.479 102.006 455.608 Q102.006 462.715 103.811 466.28 Q105.64 469.821 109.251 469.821 Q112.885 469.821 114.691 466.28 Q116.52 462.715 116.52 455.608 Q116.52 448.479 114.691 444.937 Q112.885 441.372 109.251 441.372 M109.251 437.669 Q115.061 437.669 118.117 442.275 Q121.195 446.859 121.195 455.608 Q121.195 464.335 118.117 468.942 Q115.061 473.525 109.251 473.525 Q103.441 473.525 100.362 468.942 Q97.3067 464.335 97.3067 455.608 Q97.3067 446.859 100.362 442.275 Q103.441 437.669 109.251 437.669 Z" fill="#000000" fill-rule="nonzero" fill-opacity="1"></path><path clip-path="url(#clip200)" d="M133.441 468.919 L149.76 468.919 L149.76 472.854 L127.816 472.854 L127.816 468.919 Q130.478 466.164 135.061 461.534 Q139.668 456.882 140.848 455.539 Q143.093 453.016 143.973 451.28 Q144.876 449.521 144.876 447.831 Q144.876 445.076 142.931 443.34 Q141.01 441.604 137.908 441.604 Q135.709 441.604 133.256 442.368 Q130.825 443.132 128.047 444.683 L128.047 439.96 Q130.871 438.826 133.325 438.247 Q135.779 437.669 137.816 437.669 Q143.186 437.669 146.38 440.354 Q149.575 443.039 149.575 447.53 Q149.575 449.659 148.765 451.581 Q147.978 453.479 145.871 456.071 Q145.293 456.743 142.191 459.96 Q139.089 463.155 133.441 468.919 Z" fill="#000000" fill-rule="nonzero" fill-opacity="1"></path><path clip-path="url(#clip200)" d="M61.9365 323.292 Q58.3254 323.292 56.4967 326.857 Q54.6912 330.398 54.6912 337.528 Q54.6912 344.634 56.4967 348.199 Q58.3254 351.741 61.9365 351.741 Q65.5707 351.741 67.3763 348.199 Q69.205 344.634 69.205 337.528 Q69.205 330.398 67.3763 326.857 Q65.5707 323.292 61.9365 323.292 M61.9365 319.588 Q67.7467 319.588 70.8022 324.194 Q73.8809 328.778 73.8809 337.528 Q73.8809 346.255 70.8022 350.861 Q67.7467 355.444 61.9365 355.444 Q56.1264 355.444 53.0477 350.861 Q49.9921 346.255 49.9921 337.528 Q49.9921 328.778 53.0477 324.194 Q56.1264 319.588 61.9365 319.588 Z" fill="#000000" fill-rule="nonzero" fill-opacity="1"></path><path clip-path="url(#clip200)" d="M82.0984 348.893 L86.9827 348.893 L86.9827 354.773 L82.0984 354.773 L82.0984 348.893 Z" fill="#000000" fill-rule="nonzero" fill-opacity="1"></path><path clip-path="url(#clip200)" d="M107.168 323.292 Q103.557 323.292 101.728 326.857 Q99.9224 330.398 99.9224 337.528 Q99.9224 344.634 101.728 348.199 Q103.557 351.741 107.168 351.741 Q110.802 351.741 112.608 348.199 Q114.436 344.634 114.436 337.528 Q114.436 330.398 112.608 326.857 Q110.802 323.292 107.168 323.292 M107.168 319.588 Q112.978 319.588 116.033 324.194 Q119.112 328.778 119.112 337.528 Q119.112 346.255 116.033 350.861 Q112.978 355.444 107.168 355.444 Q101.358 355.444 98.2789 350.861 Q95.2234 346.255 95.2234 337.528 Q95.2234 328.778 98.2789 324.194 Q101.358 319.588 107.168 319.588 Z" fill="#000000" fill-rule="nonzero" fill-opacity="1"></path><path clip-path="url(#clip200)" d="M140.177 324.287 L128.371 342.736 L140.177 342.736 L140.177 324.287 M138.95 320.213 L144.83 320.213 L144.83 342.736 L149.76 342.736 L149.76 346.625 L144.83 346.625 L144.83 354.773 L140.177 354.773 L140.177 346.625 L124.575 346.625 L124.575 342.111 L138.95 320.213 Z" fill="#000000" fill-rule="nonzero" fill-opacity="1"></path><path clip-path="url(#clip200)" d="M62.2606 205.211 Q58.6495 205.211 56.8208 208.776 Q55.0152 212.317 55.0152 219.447 Q55.0152 226.553 56.8208 230.118 Q58.6495 233.66 62.2606 233.66 Q65.8948 233.66 67.7004 230.118 Q69.5291 226.553 69.5291 219.447 Q69.5291 212.317 67.7004 208.776 Q65.8948 205.211 62.2606 205.211 M62.2606 201.507 Q68.0707 201.507 71.1263 206.114 Q74.205 210.697 74.205 219.447 Q74.205 228.174 71.1263 232.78 Q68.0707 237.364 62.2606 237.364 Q56.4504 237.364 53.3717 232.78 Q50.3162 228.174 50.3162 219.447 Q50.3162 210.697 53.3717 206.114 Q56.4504 201.507 62.2606 201.507 Z" fill="#000000" fill-rule="nonzero" fill-opacity="1"></path><path clip-path="url(#clip200)" d="M82.4225 230.813 L87.3067 230.813 L87.3067 236.692 L82.4225 236.692 L82.4225 230.813 Z" fill="#000000" fill-rule="nonzero" fill-opacity="1"></path><path clip-path="url(#clip200)" d="M107.492 205.211 Q103.881 205.211 102.052 208.776 Q100.246 212.317 100.246 219.447 Q100.246 226.553 102.052 230.118 Q103.881 233.66 107.492 233.66 Q111.126 233.66 112.932 230.118 Q114.76 226.553 114.76 219.447 Q114.76 212.317 112.932 208.776 Q111.126 205.211 107.492 205.211 M107.492 201.507 Q113.302 201.507 116.358 206.114 Q119.436 210.697 119.436 219.447 Q119.436 228.174 116.358 232.78 Q113.302 237.364 107.492 237.364 Q101.682 237.364 98.603 232.78 Q95.5474 228.174 95.5474 219.447 Q95.5474 210.697 98.603 206.114 Q101.682 201.507 107.492 201.507 Z" fill="#000000" fill-rule="nonzero" fill-opacity="1"></path><path clip-path="url(#clip200)" d="M138.232 217.549 Q135.084 217.549 133.232 219.702 Q131.404 221.854 131.404 225.604 Q131.404 229.331 133.232 231.507 Q135.084 233.66 138.232 233.66 Q141.381 233.66 143.209 231.507 Q145.061 229.331 145.061 225.604 Q145.061 221.854 143.209 219.702 Q141.381 217.549 138.232 217.549 M147.515 202.896 L147.515 207.155 Q145.756 206.322 143.95 205.882 Q142.168 205.442 140.408 205.442 Q135.779 205.442 133.325 208.567 Q130.894 211.692 130.547 218.012 Q131.913 215.998 133.973 214.933 Q136.033 213.845 138.51 213.845 Q143.718 213.845 146.728 217.017 Q149.76 220.165 149.76 225.604 Q149.76 230.928 146.612 234.146 Q143.464 237.364 138.232 237.364 Q132.237 237.364 129.066 232.78 Q125.894 228.174 125.894 219.447 Q125.894 211.253 129.783 206.392 Q133.672 201.507 140.223 201.507 Q141.982 201.507 143.765 201.855 Q145.57 202.202 147.515 202.896 Z" fill="#000000" fill-rule="nonzero" fill-opacity="1"></path><path clip-path="url(#clip200)" d="M62.5152 87.1303 Q58.9041 87.1303 57.0754 90.6951 Q55.2699 94.2368 55.2699 101.366 Q55.2699 108.473 57.0754 112.038 Q58.9041 115.579 62.5152 115.579 Q66.1494 115.579 67.955 112.038 Q69.7837 108.473 69.7837 101.366 Q69.7837 94.2368 67.955 90.6951 Q66.1494 87.1303 62.5152 87.1303 M62.5152 83.4266 Q68.3254 83.4266 71.3809 88.0331 Q74.4596 92.6164 74.4596 101.366 Q74.4596 110.093 71.3809 114.7 Q68.3254 119.283 62.5152 119.283 Q56.7051 119.283 53.6264 114.7 Q50.5708 110.093 50.5708 101.366 Q50.5708 92.6164 53.6264 88.0331 Q56.7051 83.4266 62.5152 83.4266 Z" fill="#000000" fill-rule="nonzero" fill-opacity="1"></path><path clip-path="url(#clip200)" d="M82.6771 112.732 L87.5614 112.732 L87.5614 118.612 L82.6771 118.612 L82.6771 112.732 Z" fill="#000000" fill-rule="nonzero" fill-opacity="1"></path><path clip-path="url(#clip200)" d="M107.746 87.1303 Q104.135 87.1303 102.307 90.6951 Q100.501 94.2368 100.501 101.366 Q100.501 108.473 102.307 112.038 Q104.135 115.579 107.746 115.579 Q111.381 115.579 113.186 112.038 Q115.015 108.473 115.015 101.366 Q115.015 94.2368 113.186 90.6951 Q111.381 87.1303 107.746 87.1303 M107.746 83.4266 Q113.557 83.4266 116.612 88.0331 Q119.691 92.6164 119.691 101.366 Q119.691 110.093 116.612 114.7 Q113.557 119.283 107.746 119.283 Q101.936 119.283 98.8576 114.7 Q95.8021 110.093 95.8021 101.366 Q95.8021 92.6164 98.8576 88.0331 Q101.936 83.4266 107.746 83.4266 Z" fill="#000000" fill-rule="nonzero" fill-opacity="1"></path><path clip-path="url(#clip200)" d="M137.908 102.2 Q134.575 102.2 132.654 103.982 Q130.756 105.764 130.756 108.889 Q130.756 112.014 132.654 113.797 Q134.575 115.579 137.908 115.579 Q141.242 115.579 143.163 113.797 Q145.084 111.991 145.084 108.889 Q145.084 105.764 143.163 103.982 Q141.265 102.2 137.908 102.2 M133.232 100.209 Q130.223 99.4682 128.533 97.408 Q126.867 95.3479 126.867 92.3849 Q126.867 88.2414 129.807 85.834 Q132.769 83.4266 137.908 83.4266 Q143.07 83.4266 146.01 85.834 Q148.95 88.2414 148.95 92.3849 Q148.95 95.3479 147.26 97.408 Q145.593 99.4682 142.607 100.209 Q145.987 100.996 147.862 103.288 Q149.76 105.579 149.76 108.889 Q149.76 113.913 146.681 116.598 Q143.626 119.283 137.908 119.283 Q132.191 119.283 129.112 116.598 Q126.057 113.913 126.057 108.889 Q126.057 105.579 127.955 103.288 Q129.853 100.996 133.232 100.209 M131.519 92.8247 Q131.519 95.5099 133.186 97.0145 Q134.876 98.5191 137.908 98.5191 Q140.918 98.5191 142.607 97.0145 Q144.32 95.5099 144.32 92.8247 Q144.32 90.1396 142.607 88.6349 Q140.918 87.1303 137.908 87.1303 Q134.876 87.1303 133.186 88.6349 Q131.519 90.1396 131.519 92.8247 Z" fill="#000000" fill-rule="nonzero" fill-opacity="1"></path><polyline clip-path="url(#clip202)" style="stroke:#1ead65; stroke-linecap:round; stroke-linejoin:round; stroke-width:6.4; stroke-opacity:1; fill:none" points="255.666,91.231 427.218,116.191 598.771,140.806 770.324,163.055 941.876,182.679 1113.43,199.853 1284.98,214.846 1456.53,227.924 1628.09,239.328 1799.64,249.272 1971.19,257.942 2142.75,265.502 2314.3,272.093 2485.85,277.84 "></polyline>
<circle clip-path="url(#clip202)" cx="255.666" cy="61.6951" r="14.4" fill="#1ead65" fill-rule="evenodd" fill-opacity="0.8" stroke="#000000" stroke-opacity="0.8" stroke-width="0.64"></circle>
<circle clip-path="url(#clip202)" cx="427.218" cy="95.1572" r="14.4" fill="#1ead65" fill-rule="evenodd" fill-opacity="0.8" stroke="#000000" stroke-opacity="0.8" stroke-width="0.64"></circle>
<circle clip-path="url(#clip202)" cx="598.771" cy="125.073" r="14.4" fill="#1ead65" fill-rule="evenodd" fill-opacity="0.8" stroke="#000000" stroke-opacity="0.8" stroke-width="0.64"></circle>
<circle clip-path="url(#clip202)" cx="770.324" cy="150.944" r="14.4" fill="#1ead65" fill-rule="evenodd" fill-opacity="0.8" stroke="#000000" stroke-opacity="0.8" stroke-width="0.64"></circle>
<circle clip-path="url(#clip202)" cx="941.876" cy="173.205" r="14.4" fill="#1ead65" fill-rule="evenodd" fill-opacity="0.8" stroke="#000000" stroke-opacity="0.8" stroke-width="0.64"></circle>
<circle clip-path="url(#clip202)" cx="1113.43" cy="192.384" r="14.4" fill="#1ead65" fill-rule="evenodd" fill-opacity="0.8" stroke="#000000" stroke-opacity="0.8" stroke-width="0.64"></circle>
<circle clip-path="url(#clip202)" cx="1284.98" cy="208.944" r="14.4" fill="#1ead65" fill-rule="evenodd" fill-opacity="0.8" stroke="#000000" stroke-opacity="0.8" stroke-width="0.64"></circle>
<circle clip-path="url(#clip202)" cx="1456.53" cy="223.266" r="14.4" fill="#1ead65" fill-rule="evenodd" fill-opacity="0.8" stroke="#000000" stroke-opacity="0.8" stroke-width="0.64"></circle>
<circle clip-path="url(#clip202)" cx="1628.09" cy="235.67" r="14.4" fill="#1ead65" fill-rule="evenodd" fill-opacity="0.8" stroke="#000000" stroke-opacity="0.8" stroke-width="0.64"></circle>
<circle clip-path="url(#clip202)" cx="1799.64" cy="246.419" r="14.4" fill="#1ead65" fill-rule="evenodd" fill-opacity="0.8" stroke="#000000" stroke-opacity="0.8" stroke-width="0.64"></circle>
<circle clip-path="url(#clip202)" cx="1971.19" cy="255.741" r="14.4" fill="#1ead65" fill-rule="evenodd" fill-opacity="0.8" stroke="#000000" stroke-opacity="0.8" stroke-width="0.64"></circle>
<circle clip-path="url(#clip202)" cx="2142.75" cy="263.828" r="14.4" fill="#1ead65" fill-rule="evenodd" fill-opacity="0.8" stroke="#000000" stroke-opacity="0.8" stroke-width="0.64"></circle>
<circle clip-path="url(#clip202)" cx="2314.3" cy="270.844" r="14.4" fill="#1ead65" fill-rule="evenodd" fill-opacity="0.8" stroke="#000000" stroke-opacity="0.8" stroke-width="0.64"></circle>
<circle clip-path="url(#clip202)" cx="2485.85" cy="276.933" r="14.4" fill="#1ead65" fill-rule="evenodd" fill-opacity="0.8" stroke="#000000" stroke-opacity="0.8" stroke-width="0.64"></circle>
<polyline clip-path="url(#clip202)" style="stroke:#34ad1e; stroke-linecap:round; stroke-linejoin:round; stroke-width:6.4; stroke-opacity:1; fill:none" points="255.666,543.396 427.218,517.803 598.771,493.117 770.324,470.86 941.876,451.236 1113.43,434.062 1284.98,419.069 1456.53,405.991 1628.09,394.586 1799.64,384.642 1971.19,375.972 2142.75,368.413 2314.3,361.821 2485.85,356.074 "></polyline>
<circle clip-path="url(#clip202)" cx="255.666" cy="539.808" r="14.4" fill="#34ad1e" fill-rule="evenodd" fill-opacity="0.8" stroke="#000000" stroke-opacity="0.8" stroke-width="0.64"></circle>
<circle clip-path="url(#clip202)" cx="427.218" cy="511.622" r="14.4" fill="#34ad1e" fill-rule="evenodd" fill-opacity="0.8" stroke="#000000" stroke-opacity="0.8" stroke-width="0.64"></circle>
<circle clip-path="url(#clip202)" cx="598.771" cy="485.999" r="14.4" fill="#34ad1e" fill-rule="evenodd" fill-opacity="0.8" stroke="#000000" stroke-opacity="0.8" stroke-width="0.64"></circle>
<circle clip-path="url(#clip202)" cx="770.324" cy="463.585" r="14.4" fill="#34ad1e" fill-rule="evenodd" fill-opacity="0.8" stroke="#000000" stroke-opacity="0.8" stroke-width="0.64"></circle>
<circle clip-path="url(#clip202)" cx="941.876" cy="444.143" r="14.4" fill="#34ad1e" fill-rule="evenodd" fill-opacity="0.8" stroke="#000000" stroke-opacity="0.8" stroke-width="0.64"></circle>
<circle clip-path="url(#clip202)" cx="1113.43" cy="427.299" r="14.4" fill="#34ad1e" fill-rule="evenodd" fill-opacity="0.8" stroke="#000000" stroke-opacity="0.8" stroke-width="0.64"></circle>
<circle clip-path="url(#clip202)" cx="1284.98" cy="412.703" r="14.4" fill="#34ad1e" fill-rule="evenodd" fill-opacity="0.8" stroke="#000000" stroke-opacity="0.8" stroke-width="0.64"></circle>
<circle clip-path="url(#clip202)" cx="1456.53" cy="400.047" r="14.4" fill="#34ad1e" fill-rule="evenodd" fill-opacity="0.8" stroke="#000000" stroke-opacity="0.8" stroke-width="0.64"></circle>
<circle clip-path="url(#clip202)" cx="1628.09" cy="389.07" r="14.4" fill="#34ad1e" fill-rule="evenodd" fill-opacity="0.8" stroke="#000000" stroke-opacity="0.8" stroke-width="0.64"></circle>
<circle clip-path="url(#clip202)" cx="1799.64" cy="379.546" r="14.4" fill="#34ad1e" fill-rule="evenodd" fill-opacity="0.8" stroke="#000000" stroke-opacity="0.8" stroke-width="0.64"></circle>
<circle clip-path="url(#clip202)" cx="1971.19" cy="371.282" r="14.4" fill="#34ad1e" fill-rule="evenodd" fill-opacity="0.8" stroke="#000000" stroke-opacity="0.8" stroke-width="0.64"></circle>
<circle clip-path="url(#clip202)" cx="2142.75" cy="364.11" r="14.4" fill="#34ad1e" fill-rule="evenodd" fill-opacity="0.8" stroke="#000000" stroke-opacity="0.8" stroke-width="0.64"></circle>
<circle clip-path="url(#clip202)" cx="2314.3" cy="357.885" r="14.4" fill="#34ad1e" fill-rule="evenodd" fill-opacity="0.8" stroke="#000000" stroke-opacity="0.8" stroke-width="0.64"></circle>
<circle clip-path="url(#clip202)" cx="2485.85" cy="352.482" r="14.4" fill="#34ad1e" fill-rule="evenodd" fill-opacity="0.8" stroke="#000000" stroke-opacity="0.8" stroke-width="0.64"></circle>
<polyline clip-path="url(#clip202)" style="stroke:#52ad1e; stroke-linecap:round; stroke-linejoin:round; stroke-width:6.4; stroke-opacity:1; fill:none" points="255.666,312.364 427.218,287.561 598.771,277.642 770.324,275.07 941.876,276.128 1113.43,278.894 1284.98,282.354 1456.53,285.97 1628.09,289.468 1799.64,292.717 1971.19,295.665 2142.75,298.302 2314.3,300.639 2485.85,302.699 "></polyline>
<circle clip-path="url(#clip202)" cx="255.666" cy="286.979" r="14.4" fill="#52ad1e" fill-rule="evenodd" fill-opacity="0.8" stroke="#000000" stroke-opacity="0.8" stroke-width="0.64"></circle>
<circle clip-path="url(#clip202)" cx="427.218" cy="268.654" r="14.4" fill="#52ad1e" fill-rule="evenodd" fill-opacity="0.8" stroke="#000000" stroke-opacity="0.8" stroke-width="0.64"></circle>
<circle clip-path="url(#clip202)" cx="598.771" cy="263.341" r="14.4" fill="#52ad1e" fill-rule="evenodd" fill-opacity="0.8" stroke="#000000" stroke-opacity="0.8" stroke-width="0.64"></circle>
<circle clip-path="url(#clip202)" cx="770.324" cy="264.079" r="14.4" fill="#52ad1e" fill-rule="evenodd" fill-opacity="0.8" stroke="#000000" stroke-opacity="0.8" stroke-width="0.64"></circle>
<circle clip-path="url(#clip202)" cx="941.876" cy="267.566" r="14.4" fill="#52ad1e" fill-rule="evenodd" fill-opacity="0.8" stroke="#000000" stroke-opacity="0.8" stroke-width="0.64"></circle>
<circle clip-path="url(#clip202)" cx="1113.43" cy="272.147" r="14.4" fill="#52ad1e" fill-rule="evenodd" fill-opacity="0.8" stroke="#000000" stroke-opacity="0.8" stroke-width="0.64"></circle>
<circle clip-path="url(#clip202)" cx="1284.98" cy="276.983" r="14.4" fill="#52ad1e" fill-rule="evenodd" fill-opacity="0.8" stroke="#000000" stroke-opacity="0.8" stroke-width="0.64"></circle>
<circle clip-path="url(#clip202)" cx="1456.53" cy="281.658" r="14.4" fill="#52ad1e" fill-rule="evenodd" fill-opacity="0.8" stroke="#000000" stroke-opacity="0.8" stroke-width="0.64"></circle>
<circle clip-path="url(#clip202)" cx="1628.09" cy="285.983" r="14.4" fill="#52ad1e" fill-rule="evenodd" fill-opacity="0.8" stroke="#000000" stroke-opacity="0.8" stroke-width="0.64"></circle>
<circle clip-path="url(#clip202)" cx="1799.64" cy="289.884" r="14.4" fill="#52ad1e" fill-rule="evenodd" fill-opacity="0.8" stroke="#000000" stroke-opacity="0.8" stroke-width="0.64"></circle>
<circle clip-path="url(#clip202)" cx="1971.19" cy="293.354" r="14.4" fill="#52ad1e" fill-rule="evenodd" fill-opacity="0.8" stroke="#000000" stroke-opacity="0.8" stroke-width="0.64"></circle>
<circle clip-path="url(#clip202)" cx="2142.75" cy="296.411" r="14.4" fill="#52ad1e" fill-rule="evenodd" fill-opacity="0.8" stroke="#000000" stroke-opacity="0.8" stroke-width="0.64"></circle>
<circle clip-path="url(#clip202)" cx="2314.3" cy="299.091" r="14.4" fill="#52ad1e" fill-rule="evenodd" fill-opacity="0.8" stroke="#000000" stroke-opacity="0.8" stroke-width="0.64"></circle>
<circle clip-path="url(#clip202)" cx="2485.85" cy="301.431" r="14.4" fill="#52ad1e" fill-rule="evenodd" fill-opacity="0.8" stroke="#000000" stroke-opacity="0.8" stroke-width="0.64"></circle>
<polyline clip-path="url(#clip202)" style="stroke:#a1ad1e; stroke-linecap:round; stroke-linejoin:round; stroke-width:6.4; stroke-opacity:1; fill:none" points="255.666,469.841 427.218,432.221 598.771,405.915 770.324,387.536 941.876,374.369 1113.43,364.604 1284.98,357.099 1456.53,351.145 1628.09,346.296 1799.64,342.266 1971.19,338.867 2142.75,335.97 2314.3,333.482 2485.85,331.335 "></polyline>
<circle clip-path="url(#clip202)" cx="255.666" cy="455.174" r="14.4" fill="#a1ad1e" fill-rule="evenodd" fill-opacity="0.8" stroke="#000000" stroke-opacity="0.8" stroke-width="0.64"></circle>
<circle clip-path="url(#clip202)" cx="427.218" cy="418.327" r="14.4" fill="#a1ad1e" fill-rule="evenodd" fill-opacity="0.8" stroke="#000000" stroke-opacity="0.8" stroke-width="0.64"></circle>
<circle clip-path="url(#clip202)" cx="598.771" cy="394.043" r="14.4" fill="#a1ad1e" fill-rule="evenodd" fill-opacity="0.8" stroke="#000000" stroke-opacity="0.8" stroke-width="0.64"></circle>
<circle clip-path="url(#clip202)" cx="770.324" cy="377.677" r="14.4" fill="#a1ad1e" fill-rule="evenodd" fill-opacity="0.8" stroke="#000000" stroke-opacity="0.8" stroke-width="0.64"></circle>
<circle clip-path="url(#clip202)" cx="941.876" cy="366.192" r="14.4" fill="#a1ad1e" fill-rule="evenodd" fill-opacity="0.8" stroke="#000000" stroke-opacity="0.8" stroke-width="0.64"></circle>
<circle clip-path="url(#clip202)" cx="1113.43" cy="357.757" r="14.4" fill="#a1ad1e" fill-rule="evenodd" fill-opacity="0.8" stroke="#000000" stroke-opacity="0.8" stroke-width="0.64"></circle>
<circle clip-path="url(#clip202)" cx="1284.98" cy="351.294" r="14.4" fill="#a1ad1e" fill-rule="evenodd" fill-opacity="0.8" stroke="#000000" stroke-opacity="0.8" stroke-width="0.64"></circle>
<circle clip-path="url(#clip202)" cx="1456.53" cy="346.163" r="14.4" fill="#a1ad1e" fill-rule="evenodd" fill-opacity="0.8" stroke="#000000" stroke-opacity="0.8" stroke-width="0.64"></circle>
<circle clip-path="url(#clip202)" cx="1628.09" cy="341.974" r="14.4" fill="#a1ad1e" fill-rule="evenodd" fill-opacity="0.8" stroke="#000000" stroke-opacity="0.8" stroke-width="0.64"></circle>
<circle clip-path="url(#clip202)" cx="1799.64" cy="338.487" r="14.4" fill="#a1ad1e" fill-rule="evenodd" fill-opacity="0.8" stroke="#000000" stroke-opacity="0.8" stroke-width="0.64"></circle>
<circle clip-path="url(#clip202)" cx="1971.19" cy="335.542" r="14.4" fill="#a1ad1e" fill-rule="evenodd" fill-opacity="0.8" stroke="#000000" stroke-opacity="0.8" stroke-width="0.64"></circle>
<circle clip-path="url(#clip202)" cx="2142.75" cy="333.031" r="14.4" fill="#a1ad1e" fill-rule="evenodd" fill-opacity="0.8" stroke="#000000" stroke-opacity="0.8" stroke-width="0.64"></circle>
<circle clip-path="url(#clip202)" cx="2314.3" cy="330.878" r="14.4" fill="#a1ad1e" fill-rule="evenodd" fill-opacity="0.8" stroke="#000000" stroke-opacity="0.8" stroke-width="0.64"></circle>
<circle clip-path="url(#clip202)" cx="2485.85" cy="329.023" r="14.4" fill="#a1ad1e" fill-rule="evenodd" fill-opacity="0.8" stroke="#000000" stroke-opacity="0.8" stroke-width="0.64"></circle>
<path clip-path="url(#clip200)" d="M2056.15 323.464 L2473.96 323.464 L2473.96 64.2642 L2056.15 64.2642  Z" fill="#ffffff" fill-rule="evenodd" fill-opacity="1"></path>
<polyline clip-path="url(#clip200)" style="stroke:#000000; stroke-linecap:round; stroke-linejoin:round; stroke-width:4; stroke-opacity:1; fill:none" points="2056.15,323.464 2473.96,323.464 2473.96,64.2642 2056.15,64.2642 2056.15,323.464 "></polyline>
<polyline clip-path="url(#clip200)" style="stroke:#1ead65; stroke-linecap:round; stroke-linejoin:round; stroke-width:6.4; stroke-opacity:1; fill:none" points="2082.42,116.104 2240.02,116.104 "></polyline>
<path clip-path="url(#clip200)" d="M2289.12 92.6822 L2282.21 120.414 Q2281.93 121.656 2281.93 122.71 Q2281.93 124.911 2283.36 124.911 Q2284.06 124.911 2284.63 124.466 Q2285.19 124.021 2285.63 123.084 Q2286.08 122.148 2286.36 121.281 Q2286.64 120.391 2287.02 118.986 Q2287.13 118.423 2287.23 118.283 Q2287.34 118.119 2287.67 118.119 Q2288.26 118.119 2288.26 118.587 Q2287.63 121.609 2286.81 123.342 Q2285.49 125.989 2283.27 125.989 Q2281.58 125.989 2280.39 124.958 Q2279.19 123.928 2278.91 122.382 Q2275.84 125.989 2272.66 125.989 Q2269.85 125.989 2268.07 123.857 Q2266.29 121.703 2266.29 118.306 Q2266.29 114.887 2267.97 111.607 Q2269.68 108.328 2272.38 106.291 Q2275.07 104.253 2277.83 104.253 Q2280.76 104.253 2282.26 107.321 L2285.14 95.9379 L2285.28 95.001 Q2285.28 94.7199 2285.17 94.5794 Q2285.07 94.4154 2284.51 94.2983 Q2283.97 94.1812 2282.89 94.1812 Q2282.45 94.1812 2282.24 94.1578 Q2282.05 94.1343 2281.89 94.0172 Q2281.72 93.8767 2281.72 93.5956 Q2281.72 92.7758 2282.4 92.6822 Q2286.9 92.1669 2288.49 92.1669 Q2288.77 92.1669 2288.94 92.3074 Q2289.1 92.4245 2289.1 92.565 L2289.12 92.6822 M2281.68 109.523 Q2281.68 109.312 2281.51 108.727 Q2281.35 108.141 2280.97 107.321 Q2280.6 106.501 2279.78 105.916 Q2278.98 105.307 2277.9 105.307 Q2276.45 105.307 2274.93 106.548 Q2273.43 107.79 2272.33 109.898 Q2271.49 111.584 2270.57 115.121 Q2269.68 118.658 2269.68 120.414 Q2269.68 121.492 2269.92 122.452 Q2270.18 123.389 2270.9 124.162 Q2271.63 124.911 2272.75 124.911 Q2275.49 124.911 2278.19 121.515 Q2278.7 120.93 2278.82 120.695 Q2278.96 120.438 2279.15 119.735 L2281.54 110.343 Q2281.68 109.64 2281.68 109.523 Z" fill="#000000" fill-rule="nonzero" fill-opacity="1"></path><path clip-path="url(#clip200)" d="M2294 139.336 L2294 138.303 Q2295.79 138.303 2296.2 138.09 Q2296.61 137.861 2296.61 136.778 L2296.61 127.744 Q2296.61 126.498 2296.19 126.203 Q2295.78 125.908 2294.14 125.908 L2294.14 124.859 L2298.83 124.498 L2298.83 136.811 Q2298.83 137.811 2299.19 138.057 Q2299.55 138.303 2301.19 138.303 L2301.19 139.336 Q2297.76 139.238 2297.69 139.238 Q2297.23 139.238 2294 139.336 M2295.41 118.645 Q2295.41 117.973 2295.92 117.431 Q2296.45 116.874 2297.19 116.874 Q2297.92 116.874 2298.45 117.382 Q2298.97 117.874 2298.97 118.661 Q2298.97 119.432 2298.45 119.94 Q2297.92 120.432 2297.19 120.432 Q2296.42 120.432 2295.91 119.891 Q2295.41 119.35 2295.41 118.645 Z" fill="#000000" fill-rule="nonzero" fill-opacity="1"></path><path clip-path="url(#clip200)" d="M2303.48 139.336 L2303.48 138.303 Q2305.27 138.303 2305.68 138.09 Q2306.09 137.861 2306.09 136.778 L2306.09 127.777 Q2306.09 126.531 2305.64 126.22 Q2305.22 125.908 2303.48 125.908 L2303.48 124.859 L2308.2 124.498 L2308.2 128.023 Q2309.77 124.498 2313.17 124.498 Q2315.69 124.498 2316.69 125.744 Q2317.43 126.58 2317.58 127.515 Q2317.74 128.449 2317.74 130.876 L2317.74 137.287 Q2317.78 137.992 2318.32 138.156 Q2318.86 138.303 2320.37 138.303 L2320.37 139.336 Q2316.94 139.238 2316.6 139.238 Q2316.33 139.238 2312.81 139.336 L2312.81 138.303 Q2314.59 138.303 2315 138.09 Q2315.43 137.861 2315.43 136.778 L2315.43 128.958 Q2315.43 127.252 2314.91 126.252 Q2314.38 125.236 2312.94 125.236 Q2311.2 125.236 2309.81 126.695 Q2308.41 128.154 2308.41 130.614 L2308.41 136.778 Q2308.41 137.861 2308.82 138.09 Q2309.25 138.303 2311.02 138.303 L2311.02 139.336 Q2307.59 139.238 2307.27 139.238 Q2307 139.238 2303.48 139.336 Z" fill="#000000" fill-rule="nonzero" fill-opacity="1"></path><path clip-path="url(#clip200)" d="M2322.06 125.908 L2322.06 125.17 Q2323.6 125.105 2324.61 124.023 Q2325.65 122.924 2325.99 121.58 Q2326.35 120.235 2326.38 118.678 L2327.22 118.678 L2327.22 124.859 L2332.02 124.859 L2332.02 125.908 L2327.22 125.908 L2327.22 135.237 Q2327.22 138.861 2329.48 138.861 Q2330.45 138.861 2331.09 137.877 Q2331.73 136.877 2331.73 135.106 L2331.73 133.253 L2332.57 133.253 L2332.57 135.172 Q2332.57 136.992 2331.73 138.352 Q2330.89 139.713 2329.24 139.713 Q2328.63 139.713 2328.02 139.549 Q2327.43 139.402 2326.65 139.008 Q2325.88 138.598 2325.38 137.615 Q2324.91 136.614 2324.91 135.172 L2324.91 125.908 L2322.06 125.908 Z" fill="#000000" fill-rule="nonzero" fill-opacity="1"></path><path clip-path="url(#clip200)" d="M2353.37 118.166 Q2353.42 117.58 2354.33 117.58 L2383.73 117.58 Q2385.11 117.58 2385.13 118.119 Q2385.13 118.704 2383.82 118.681 L2354.66 118.681 Q2353.37 118.704 2353.37 118.166 M2353.37 108.797 Q2353.37 108.211 2354.38 108.235 L2383.68 108.235 Q2385.11 108.235 2385.13 108.797 Q2385.13 109.336 2383.92 109.336 L2354.33 109.336 Q2353.37 109.336 2353.37 108.797 Z" fill="#000000" fill-rule="nonzero" fill-opacity="1"></path><path clip-path="url(#clip200)" d="M2403.62 117.533 L2403.62 116.058 L2418.36 93.5488 Q2418.73 92.9632 2419.32 92.9866 Q2419.86 92.9866 2419.97 93.1974 Q2420.09 93.4082 2420.09 94.228 L2420.09 116.058 L2424.89 116.058 L2424.89 117.533 L2420.09 117.533 L2420.09 121.703 Q2420.09 123.084 2420.65 123.53 Q2421.24 123.975 2423.72 123.975 L2424.73 123.975 L2424.73 125.45 Q2422.76 125.31 2418.22 125.31 Q2413.7 125.31 2411.73 125.45 L2411.73 123.975 L2412.74 123.975 Q2415.22 123.975 2415.8 123.553 Q2416.39 123.108 2416.39 121.703 L2416.39 117.533 L2403.62 117.533 M2404.98 116.058 L2416.67 116.058 L2416.67 98.163 L2404.98 116.058 Z" fill="#000000" fill-rule="nonzero" fill-opacity="1"></path><polyline clip-path="url(#clip200)" style="stroke:#34ad1e; stroke-linecap:round; stroke-linejoin:round; stroke-width:6.4; stroke-opacity:1; fill:none" points="2082.42,167.944 2240.02,167.944 "></polyline>
<path clip-path="url(#clip200)" d="M2289.12 144.522 L2282.21 172.254 Q2281.93 173.496 2281.93 174.55 Q2281.93 176.751 2283.36 176.751 Q2284.06 176.751 2284.63 176.306 Q2285.19 175.861 2285.63 174.924 Q2286.08 173.988 2286.36 173.121 Q2286.64 172.231 2287.02 170.826 Q2287.13 170.263 2287.23 170.123 Q2287.34 169.959 2287.67 169.959 Q2288.26 169.959 2288.26 170.427 Q2287.63 173.449 2286.81 175.182 Q2285.49 177.829 2283.27 177.829 Q2281.58 177.829 2280.39 176.798 Q2279.19 175.768 2278.91 174.222 Q2275.84 177.829 2272.66 177.829 Q2269.85 177.829 2268.07 175.697 Q2266.29 173.543 2266.29 170.146 Q2266.29 166.727 2267.97 163.447 Q2269.68 160.168 2272.38 158.131 Q2275.07 156.093 2277.83 156.093 Q2280.76 156.093 2282.26 159.161 L2285.14 147.778 L2285.28 146.841 Q2285.28 146.56 2285.17 146.419 Q2285.07 146.255 2284.51 146.138 Q2283.97 146.021 2282.89 146.021 Q2282.45 146.021 2282.24 145.998 Q2282.05 145.974 2281.89 145.857 Q2281.72 145.717 2281.72 145.436 Q2281.72 144.616 2282.4 144.522 Q2286.9 144.007 2288.49 144.007 Q2288.77 144.007 2288.94 144.147 Q2289.1 144.265 2289.1 144.405 L2289.12 144.522 M2281.68 161.363 Q2281.68 161.152 2281.51 160.567 Q2281.35 159.981 2280.97 159.161 Q2280.6 158.341 2279.78 157.756 Q2278.98 157.147 2277.9 157.147 Q2276.45 157.147 2274.93 158.388 Q2273.43 159.63 2272.33 161.738 Q2271.49 163.424 2270.57 166.961 Q2269.68 170.498 2269.68 172.254 Q2269.68 173.332 2269.92 174.292 Q2270.18 175.229 2270.9 176.002 Q2271.63 176.751 2272.75 176.751 Q2275.49 176.751 2278.19 173.355 Q2278.7 172.77 2278.82 172.535 Q2278.96 172.278 2279.15 171.575 L2281.54 162.183 Q2281.68 161.48 2281.68 161.363 Z" fill="#000000" fill-rule="nonzero" fill-opacity="1"></path><path clip-path="url(#clip200)" d="M2294 191.176 L2294 190.143 Q2295.79 190.143 2296.2 189.93 Q2296.61 189.701 2296.61 188.618 L2296.61 179.584 Q2296.61 178.338 2296.19 178.043 Q2295.78 177.748 2294.14 177.748 L2294.14 176.699 L2298.83 176.338 L2298.83 188.651 Q2298.83 189.651 2299.19 189.897 Q2299.55 190.143 2301.19 190.143 L2301.19 191.176 Q2297.76 191.078 2297.69 191.078 Q2297.23 191.078 2294 191.176 M2295.41 170.485 Q2295.41 169.813 2295.92 169.271 Q2296.45 168.714 2297.19 168.714 Q2297.92 168.714 2298.45 169.222 Q2298.97 169.714 2298.97 170.501 Q2298.97 171.272 2298.45 171.78 Q2297.92 172.272 2297.19 172.272 Q2296.42 172.272 2295.91 171.731 Q2295.41 171.19 2295.41 170.485 Z" fill="#000000" fill-rule="nonzero" fill-opacity="1"></path><path clip-path="url(#clip200)" d="M2303.48 191.176 L2303.48 190.143 Q2305.27 190.143 2305.68 189.93 Q2306.09 189.701 2306.09 188.618 L2306.09 179.617 Q2306.09 178.371 2305.64 178.06 Q2305.22 177.748 2303.48 177.748 L2303.48 176.699 L2308.2 176.338 L2308.2 179.863 Q2309.77 176.338 2313.17 176.338 Q2315.69 176.338 2316.69 177.584 Q2317.43 178.42 2317.58 179.355 Q2317.74 180.289 2317.74 182.716 L2317.74 189.127 Q2317.78 189.832 2318.32 189.996 Q2318.86 190.143 2320.37 190.143 L2320.37 191.176 Q2316.94 191.078 2316.6 191.078 Q2316.33 191.078 2312.81 191.176 L2312.81 190.143 Q2314.59 190.143 2315 189.93 Q2315.43 189.701 2315.43 188.618 L2315.43 180.798 Q2315.43 179.092 2314.91 178.092 Q2314.38 177.076 2312.94 177.076 Q2311.2 177.076 2309.81 178.535 Q2308.41 179.994 2308.41 182.454 L2308.41 188.618 Q2308.41 189.701 2308.82 189.93 Q2309.25 190.143 2311.02 190.143 L2311.02 191.176 Q2307.59 191.078 2307.27 191.078 Q2307 191.078 2303.48 191.176 Z" fill="#000000" fill-rule="nonzero" fill-opacity="1"></path><path clip-path="url(#clip200)" d="M2322.06 177.748 L2322.06 177.01 Q2323.6 176.945 2324.61 175.863 Q2325.65 174.764 2325.99 173.42 Q2326.35 172.075 2326.38 170.518 L2327.22 170.518 L2327.22 176.699 L2332.02 176.699 L2332.02 177.748 L2327.22 177.748 L2327.22 187.077 Q2327.22 190.701 2329.48 190.701 Q2330.45 190.701 2331.09 189.717 Q2331.73 188.717 2331.73 186.946 L2331.73 185.093 L2332.57 185.093 L2332.57 187.012 Q2332.57 188.832 2331.73 190.192 Q2330.89 191.553 2329.24 191.553 Q2328.63 191.553 2328.02 191.389 Q2327.43 191.242 2326.65 190.848 Q2325.88 190.438 2325.38 189.455 Q2324.91 188.454 2324.91 187.012 L2324.91 177.748 L2322.06 177.748 Z" fill="#000000" fill-rule="nonzero" fill-opacity="1"></path><path clip-path="url(#clip200)" d="M2353.37 170.006 Q2353.42 169.42 2354.33 169.42 L2383.73 169.42 Q2385.11 169.42 2385.13 169.959 Q2385.13 170.544 2383.82 170.521 L2354.66 170.521 Q2353.37 170.544 2353.37 170.006 M2353.37 160.637 Q2353.37 160.051 2354.38 160.075 L2383.68 160.075 Q2385.11 160.075 2385.13 160.637 Q2385.13 161.176 2383.92 161.176 L2354.33 161.176 Q2353.37 161.176 2353.37 160.637 Z" fill="#000000" fill-rule="nonzero" fill-opacity="1"></path><path clip-path="url(#clip200)" d="M2403.62 149.909 L2403.62 148.41 Q2409.39 148.41 2412.36 145.342 Q2413.18 145.342 2413.32 145.529 Q2413.46 145.717 2413.46 146.583 L2413.46 173.496 Q2413.46 174.924 2414.16 175.37 Q2414.87 175.815 2417.93 175.815 L2419.46 175.815 L2419.46 177.29 Q2417.77 177.15 2411.68 177.15 Q2405.59 177.15 2403.93 177.29 L2403.93 175.815 L2405.45 175.815 Q2408.47 175.815 2409.2 175.393 Q2409.92 174.948 2409.92 173.496 L2409.92 148.645 Q2407.42 149.909 2403.62 149.909 Z" fill="#000000" fill-rule="nonzero" fill-opacity="1"></path><path clip-path="url(#clip200)" d="M2421.04 162.136 Q2421.04 154.594 2424.88 149.98 Q2428.72 145.342 2433.67 145.342 Q2436.55 145.342 2438.14 146.818 Q2439.75 148.27 2439.75 150.518 Q2439.75 151.76 2439.03 152.298 Q2438.3 152.837 2437.55 152.837 Q2436.69 152.837 2436.01 152.252 Q2435.33 151.666 2435.33 150.612 Q2435.33 148.457 2437.97 148.457 Q2436.73 146.536 2433.76 146.536 Q2432.85 146.536 2431.91 146.818 Q2430.97 147.075 2429.75 147.965 Q2428.54 148.855 2427.6 150.261 Q2426.66 151.666 2426.01 154.313 Q2425.35 156.959 2425.35 160.403 L2425.35 161.55 Q2427.32 156.796 2431.35 156.819 Q2435.37 156.819 2438.16 159.887 Q2440.95 162.956 2440.95 167.5 Q2440.95 172.161 2438.05 175.252 Q2435.14 178.344 2431.07 178.344 Q2429.24 178.344 2427.58 177.571 Q2425.94 176.822 2424.39 175.088 Q2422.87 173.355 2421.95 170.029 Q2421.04 166.703 2421.04 162.136 M2425.44 166.446 Q2425.44 171.153 2426.31 173.402 Q2426.45 173.777 2426.76 174.292 Q2427.08 174.807 2427.62 175.487 Q2428.18 176.142 2429.1 176.587 Q2430.01 177.009 2431.07 177.009 Q2434.27 177.009 2435.82 173.894 Q2436.64 172.161 2436.64 167.453 Q2436.64 162.651 2435.77 160.894 Q2434.3 157.92 2431.3 157.92 Q2429.29 157.92 2427.88 159.302 Q2426.5 160.684 2425.96 162.534 Q2425.44 164.384 2425.44 166.446 Z" fill="#000000" fill-rule="nonzero" fill-opacity="1"></path><polyline clip-path="url(#clip200)" style="stroke:#52ad1e; stroke-linecap:round; stroke-linejoin:round; stroke-width:6.4; stroke-opacity:1; fill:none" points="2082.42,219.784 2240.02,219.784 "></polyline>
<path clip-path="url(#clip200)" d="M2289.12 196.362 L2282.21 224.094 Q2281.93 225.336 2281.93 226.39 Q2281.93 228.591 2283.36 228.591 Q2284.06 228.591 2284.63 228.146 Q2285.19 227.701 2285.63 226.764 Q2286.08 225.828 2286.36 224.961 Q2286.64 224.071 2287.02 222.666 Q2287.13 222.103 2287.23 221.963 Q2287.34 221.799 2287.67 221.799 Q2288.26 221.799 2288.26 222.267 Q2287.63 225.289 2286.81 227.022 Q2285.49 229.669 2283.27 229.669 Q2281.58 229.669 2280.39 228.638 Q2279.19 227.608 2278.91 226.062 Q2275.84 229.669 2272.66 229.669 Q2269.85 229.669 2268.07 227.537 Q2266.29 225.383 2266.29 221.986 Q2266.29 218.567 2267.97 215.287 Q2269.68 212.008 2272.38 209.971 Q2275.07 207.933 2277.83 207.933 Q2280.76 207.933 2282.26 211.001 L2285.14 199.618 L2285.28 198.681 Q2285.28 198.4 2285.17 198.259 Q2285.07 198.095 2284.51 197.978 Q2283.97 197.861 2282.89 197.861 Q2282.45 197.861 2282.24 197.838 Q2282.05 197.814 2281.89 197.697 Q2281.72 197.557 2281.72 197.276 Q2281.72 196.456 2282.4 196.362 Q2286.9 195.847 2288.49 195.847 Q2288.77 195.847 2288.94 195.987 Q2289.1 196.105 2289.1 196.245 L2289.12 196.362 M2281.68 213.203 Q2281.68 212.992 2281.51 212.407 Q2281.35 211.821 2280.97 211.001 Q2280.6 210.181 2279.78 209.596 Q2278.98 208.987 2277.9 208.987 Q2276.45 208.987 2274.93 210.228 Q2273.43 211.47 2272.33 213.578 Q2271.49 215.264 2270.57 218.801 Q2269.68 222.338 2269.68 224.094 Q2269.68 225.172 2269.92 226.132 Q2270.18 227.069 2270.9 227.842 Q2271.63 228.591 2272.75 228.591 Q2275.49 228.591 2278.19 225.195 Q2278.7 224.61 2278.82 224.375 Q2278.96 224.118 2279.15 223.415 L2281.54 214.023 Q2281.68 213.32 2281.68 213.203 Z" fill="#000000" fill-rule="nonzero" fill-opacity="1"></path><path clip-path="url(#clip200)" d="M2294 243.016 L2294 241.983 Q2295.79 241.983 2296.2 241.77 Q2296.61 241.541 2296.61 240.458 L2296.61 231.424 Q2296.61 230.178 2296.19 229.883 Q2295.78 229.588 2294.14 229.588 L2294.14 228.539 L2298.83 228.178 L2298.83 240.491 Q2298.83 241.491 2299.19 241.737 Q2299.55 241.983 2301.19 241.983 L2301.19 243.016 Q2297.76 242.918 2297.69 242.918 Q2297.23 242.918 2294 243.016 M2295.41 222.325 Q2295.41 221.653 2295.92 221.111 Q2296.45 220.554 2297.19 220.554 Q2297.92 220.554 2298.45 221.062 Q2298.97 221.554 2298.97 222.341 Q2298.97 223.112 2298.45 223.62 Q2297.92 224.112 2297.19 224.112 Q2296.42 224.112 2295.91 223.571 Q2295.41 223.03 2295.41 222.325 Z" fill="#000000" fill-rule="nonzero" fill-opacity="1"></path><path clip-path="url(#clip200)" d="M2303.48 243.016 L2303.48 241.983 Q2305.27 241.983 2305.68 241.77 Q2306.09 241.541 2306.09 240.458 L2306.09 231.457 Q2306.09 230.211 2305.64 229.9 Q2305.22 229.588 2303.48 229.588 L2303.48 228.539 L2308.2 228.178 L2308.2 231.703 Q2309.77 228.178 2313.17 228.178 Q2315.69 228.178 2316.69 229.424 Q2317.43 230.26 2317.58 231.195 Q2317.74 232.129 2317.74 234.556 L2317.74 240.967 Q2317.78 241.672 2318.32 241.836 Q2318.86 241.983 2320.37 241.983 L2320.37 243.016 Q2316.94 242.918 2316.6 242.918 Q2316.33 242.918 2312.81 243.016 L2312.81 241.983 Q2314.59 241.983 2315 241.77 Q2315.43 241.541 2315.43 240.458 L2315.43 232.638 Q2315.43 230.932 2314.91 229.932 Q2314.38 228.916 2312.94 228.916 Q2311.2 228.916 2309.81 230.375 Q2308.41 231.834 2308.41 234.294 L2308.41 240.458 Q2308.41 241.541 2308.82 241.77 Q2309.25 241.983 2311.02 241.983 L2311.02 243.016 Q2307.59 242.918 2307.27 242.918 Q2307 242.918 2303.48 243.016 Z" fill="#000000" fill-rule="nonzero" fill-opacity="1"></path><path clip-path="url(#clip200)" d="M2322.06 229.588 L2322.06 228.85 Q2323.6 228.785 2324.61 227.703 Q2325.65 226.604 2325.99 225.26 Q2326.35 223.915 2326.38 222.358 L2327.22 222.358 L2327.22 228.539 L2332.02 228.539 L2332.02 229.588 L2327.22 229.588 L2327.22 238.917 Q2327.22 242.541 2329.48 242.541 Q2330.45 242.541 2331.09 241.557 Q2331.73 240.557 2331.73 238.786 L2331.73 236.933 L2332.57 236.933 L2332.57 238.852 Q2332.57 240.672 2331.73 242.032 Q2330.89 243.393 2329.24 243.393 Q2328.63 243.393 2328.02 243.229 Q2327.43 243.082 2326.65 242.688 Q2325.88 242.278 2325.38 241.295 Q2324.91 240.294 2324.91 238.852 L2324.91 229.588 L2322.06 229.588 Z" fill="#000000" fill-rule="nonzero" fill-opacity="1"></path><path clip-path="url(#clip200)" d="M2353.37 221.846 Q2353.42 221.26 2354.33 221.26 L2383.73 221.26 Q2385.11 221.26 2385.13 221.799 Q2385.13 222.384 2383.82 222.361 L2354.66 222.361 Q2353.37 222.384 2353.37 221.846 M2353.37 212.477 Q2353.37 211.891 2354.38 211.915 L2383.68 211.915 Q2385.11 211.915 2385.13 212.477 Q2385.13 213.016 2383.92 213.016 L2354.33 213.016 Q2353.37 213.016 2353.37 212.477 Z" fill="#000000" fill-rule="nonzero" fill-opacity="1"></path><path clip-path="url(#clip200)" d="M2403.62 221.893 Q2403.62 216.529 2410.53 213.062 Q2407.56 211.048 2407.02 210.462 Q2404.91 208.12 2404.91 205.192 Q2404.91 201.843 2407.44 199.524 Q2409.99 197.182 2413.6 197.182 Q2417.04 197.182 2419.64 199.173 Q2422.24 201.164 2422.24 204.326 Q2422.24 208.776 2416.44 211.774 Q2420.28 214.163 2421.19 215.17 Q2423.53 217.77 2423.53 221.073 Q2423.53 224.914 2420.58 227.561 Q2417.63 230.184 2413.55 230.184 Q2409.57 230.184 2406.6 227.865 Q2403.62 225.547 2403.62 221.893 M2406.01 221.893 Q2406.01 224.867 2408.24 226.858 Q2410.49 228.849 2413.6 228.849 Q2416.62 228.849 2418.87 227.116 Q2421.14 225.383 2421.14 222.806 Q2421.14 221.799 2420.79 220.932 Q2420.46 220.066 2419.79 219.386 Q2419.13 218.684 2418.71 218.379 Q2418.31 218.051 2417.54 217.513 L2411.63 213.788 Q2406.01 216.904 2406.01 221.893 M2407.02 203.319 Q2407.02 205.614 2409.43 207.207 L2415.38 211.048 Q2420.14 208.261 2420.14 204.326 Q2420.14 201.773 2418.19 200.086 Q2416.25 198.376 2413.55 198.376 Q2410.91 198.376 2408.96 199.782 Q2407.02 201.164 2407.02 203.319 Z" fill="#000000" fill-rule="nonzero" fill-opacity="1"></path><polyline clip-path="url(#clip200)" style="stroke:#a1ad1e; stroke-linecap:round; stroke-linejoin:round; stroke-width:6.4; stroke-opacity:1; fill:none" points="2082.42,271.624 2240.02,271.624 "></polyline>
<path clip-path="url(#clip200)" d="M2289.12 248.202 L2282.21 275.934 Q2281.93 277.176 2281.93 278.23 Q2281.93 280.431 2283.36 280.431 Q2284.06 280.431 2284.63 279.986 Q2285.19 279.541 2285.63 278.604 Q2286.08 277.668 2286.36 276.801 Q2286.64 275.911 2287.02 274.506 Q2287.13 273.943 2287.23 273.803 Q2287.34 273.639 2287.67 273.639 Q2288.26 273.639 2288.26 274.107 Q2287.63 277.129 2286.81 278.862 Q2285.49 281.509 2283.27 281.509 Q2281.58 281.509 2280.39 280.478 Q2279.19 279.448 2278.91 277.902 Q2275.84 281.509 2272.66 281.509 Q2269.85 281.509 2268.07 279.377 Q2266.29 277.223 2266.29 273.826 Q2266.29 270.407 2267.97 267.127 Q2269.68 263.848 2272.38 261.811 Q2275.07 259.773 2277.83 259.773 Q2280.76 259.773 2282.26 262.841 L2285.14 251.458 L2285.28 250.521 Q2285.28 250.24 2285.17 250.099 Q2285.07 249.935 2284.51 249.818 Q2283.97 249.701 2282.89 249.701 Q2282.45 249.701 2282.24 249.678 Q2282.05 249.654 2281.89 249.537 Q2281.72 249.397 2281.72 249.116 Q2281.72 248.296 2282.4 248.202 Q2286.9 247.687 2288.49 247.687 Q2288.77 247.687 2288.94 247.827 Q2289.1 247.945 2289.1 248.085 L2289.12 248.202 M2281.68 265.043 Q2281.68 264.832 2281.51 264.247 Q2281.35 263.661 2280.97 262.841 Q2280.6 262.021 2279.78 261.436 Q2278.98 260.827 2277.9 260.827 Q2276.45 260.827 2274.93 262.068 Q2273.43 263.31 2272.33 265.418 Q2271.49 267.104 2270.57 270.641 Q2269.68 274.178 2269.68 275.934 Q2269.68 277.012 2269.92 277.972 Q2270.18 278.909 2270.9 279.682 Q2271.63 280.431 2272.75 280.431 Q2275.49 280.431 2278.19 277.035 Q2278.7 276.45 2278.82 276.215 Q2278.96 275.958 2279.15 275.255 L2281.54 265.863 Q2281.68 265.16 2281.68 265.043 Z" fill="#000000" fill-rule="nonzero" fill-opacity="1"></path><path clip-path="url(#clip200)" d="M2294 294.856 L2294 293.823 Q2295.79 293.823 2296.2 293.61 Q2296.61 293.381 2296.61 292.298 L2296.61 283.264 Q2296.61 282.018 2296.19 281.723 Q2295.78 281.428 2294.14 281.428 L2294.14 280.379 L2298.83 280.018 L2298.83 292.331 Q2298.83 293.331 2299.19 293.577 Q2299.55 293.823 2301.19 293.823 L2301.19 294.856 Q2297.76 294.758 2297.69 294.758 Q2297.23 294.758 2294 294.856 M2295.41 274.165 Q2295.41 273.493 2295.92 272.951 Q2296.45 272.394 2297.19 272.394 Q2297.92 272.394 2298.45 272.902 Q2298.97 273.394 2298.97 274.181 Q2298.97 274.952 2298.45 275.46 Q2297.92 275.952 2297.19 275.952 Q2296.42 275.952 2295.91 275.411 Q2295.41 274.87 2295.41 274.165 Z" fill="#000000" fill-rule="nonzero" fill-opacity="1"></path><path clip-path="url(#clip200)" d="M2303.48 294.856 L2303.48 293.823 Q2305.27 293.823 2305.68 293.61 Q2306.09 293.381 2306.09 292.298 L2306.09 283.297 Q2306.09 282.051 2305.64 281.74 Q2305.22 281.428 2303.48 281.428 L2303.48 280.379 L2308.2 280.018 L2308.2 283.543 Q2309.77 280.018 2313.17 280.018 Q2315.69 280.018 2316.69 281.264 Q2317.43 282.1 2317.58 283.035 Q2317.74 283.969 2317.74 286.396 L2317.74 292.807 Q2317.78 293.512 2318.32 293.676 Q2318.86 293.823 2320.37 293.823 L2320.37 294.856 Q2316.94 294.758 2316.6 294.758 Q2316.33 294.758 2312.81 294.856 L2312.81 293.823 Q2314.59 293.823 2315 293.61 Q2315.43 293.381 2315.43 292.298 L2315.43 284.478 Q2315.43 282.772 2314.91 281.772 Q2314.38 280.756 2312.94 280.756 Q2311.2 280.756 2309.81 282.215 Q2308.41 283.674 2308.41 286.134 L2308.41 292.298 Q2308.41 293.381 2308.82 293.61 Q2309.25 293.823 2311.02 293.823 L2311.02 294.856 Q2307.59 294.758 2307.27 294.758 Q2307 294.758 2303.48 294.856 Z" fill="#000000" fill-rule="nonzero" fill-opacity="1"></path><path clip-path="url(#clip200)" d="M2322.06 281.428 L2322.06 280.69 Q2323.6 280.625 2324.61 279.543 Q2325.65 278.444 2325.99 277.1 Q2326.35 275.755 2326.38 274.198 L2327.22 274.198 L2327.22 280.379 L2332.02 280.379 L2332.02 281.428 L2327.22 281.428 L2327.22 290.757 Q2327.22 294.381 2329.48 294.381 Q2330.45 294.381 2331.09 293.397 Q2331.73 292.397 2331.73 290.626 L2331.73 288.773 L2332.57 288.773 L2332.57 290.692 Q2332.57 292.512 2331.73 293.872 Q2330.89 295.233 2329.24 295.233 Q2328.63 295.233 2328.02 295.069 Q2327.43 294.922 2326.65 294.528 Q2325.88 294.118 2325.38 293.135 Q2324.91 292.134 2324.91 290.692 L2324.91 281.428 L2322.06 281.428 Z" fill="#000000" fill-rule="nonzero" fill-opacity="1"></path><path clip-path="url(#clip200)" d="M2353.37 273.686 Q2353.42 273.1 2354.33 273.1 L2383.73 273.1 Q2385.11 273.1 2385.13 273.639 Q2385.13 274.224 2383.82 274.201 L2354.66 274.201 Q2353.37 274.224 2353.37 273.686 M2353.37 264.317 Q2353.37 263.731 2354.38 263.755 L2383.68 263.755 Q2385.11 263.755 2385.13 264.317 Q2385.13 264.856 2383.92 264.856 L2354.33 264.856 Q2353.37 264.856 2353.37 264.317 Z" fill="#000000" fill-rule="nonzero" fill-opacity="1"></path><path clip-path="url(#clip200)" d="M2403.62 253.589 L2403.62 252.09 Q2409.39 252.09 2412.36 249.022 Q2413.18 249.022 2413.32 249.209 Q2413.46 249.397 2413.46 250.263 L2413.46 277.176 Q2413.46 278.604 2414.16 279.05 Q2414.87 279.495 2417.93 279.495 L2419.46 279.495 L2419.46 280.97 Q2417.77 280.83 2411.68 280.83 Q2405.59 280.83 2403.93 280.97 L2403.93 279.495 L2405.45 279.495 Q2408.47 279.495 2409.2 279.073 Q2409.92 278.628 2409.92 277.176 L2409.92 252.325 Q2407.42 253.589 2403.62 253.589 Z" fill="#000000" fill-rule="nonzero" fill-opacity="1"></path><path clip-path="url(#clip200)" d="M2423.94 280.97 Q2423.94 280.104 2424.01 279.846 Q2424.1 279.588 2424.48 279.19 L2433.68 268.931 Q2438.72 263.263 2438.72 258.321 Q2438.72 255.112 2437.03 252.816 Q2435.37 250.521 2432.3 250.521 Q2430.19 250.521 2428.41 251.809 Q2426.63 253.097 2425.81 255.393 Q2425.96 255.346 2426.45 255.346 Q2427.64 255.346 2428.3 256.096 Q2428.98 256.845 2428.98 257.852 Q2428.98 259.14 2428.13 259.773 Q2427.31 260.382 2426.49 260.382 Q2426.17 260.382 2425.72 260.312 Q2425.3 260.241 2424.62 259.585 Q2423.94 258.906 2423.94 257.712 Q2423.94 254.362 2426.47 251.692 Q2429.02 249.022 2432.91 249.022 Q2437.31 249.022 2440.2 251.645 Q2443.1 254.245 2443.1 258.321 Q2443.1 259.749 2442.66 261.061 Q2442.23 262.349 2441.65 263.356 Q2441.09 264.364 2439.54 265.98 Q2437.99 267.596 2436.75 268.744 Q2435.51 269.891 2432.72 272.327 L2427.64 277.269 L2436.28 277.269 Q2440.5 277.269 2440.83 276.895 Q2441.3 276.215 2441.88 272.632 L2443.1 272.632 L2441.74 280.97 L2423.94 280.97 Z" fill="#000000" fill-rule="nonzero" fill-opacity="1"></path></svg>