<svg xmlns="http://www.w3.org/2000/svg" xmlns:xlink="http://www.w3.org/1999/xlink" width="650" height="160" viewBox="0 0 2600 640">
<defs>
  <clipPath id="clip040">
    <rect x="0" y="0" width="2600" height="640"></rect>
  </clipPath>
</defs>
<path clip-path="url(#clip040)" d="M0 640 L2600 640 L2600 0 L0 0  Z" fill="#ffffff" fill-rule="evenodd" fill-opacity="1"></path>
<defs>
  <clipPath id="clip041">
    <rect x="520" y="0" width="1821" height="640"></rect>
  </clipPath>
</defs>
<path clip-path="url(#clip040)" d="M188.76 557.847 L2552.76 557.847 L2552.76 47.2441 L188.76 47.2441  Z" fill="#ffffff" fill-rule="evenodd" fill-opacity="1"></path>
<defs>
  <clipPath id="clip042">
    <rect x="188" y="47" width="2365" height="512"></rect>
  </clipPath>
</defs>
<polyline clip-path="url(#clip042)" style="stroke:#000000; stroke-linecap:round; stroke-linejoin:round; stroke-width:2; stroke-opacity:0.1; fill:none" points="255.666,557.847 255.666,47.2441 "></polyline>
<polyline clip-path="url(#clip042)" style="stroke:#000000; stroke-linecap:round; stroke-linejoin:round; stroke-width:2; stroke-opacity:0.1; fill:none" points="952.598,557.847 952.598,47.2441 "></polyline>
<polyline clip-path="url(#clip042)" style="stroke:#000000; stroke-linecap:round; stroke-linejoin:round; stroke-width:2; stroke-opacity:0.1; fill:none" points="1649.53,557.847 1649.53,47.2441 "></polyline>
<polyline clip-path="url(#clip042)" style="stroke:#000000; stroke-linecap:round; stroke-linejoin:round; stroke-width:2; stroke-opacity:0.1; fill:none" points="2346.46,557.847 2346.46,47.2441 "></polyline>
<polyline clip-path="url(#clip042)" style="stroke:#000000; stroke-linecap:round; stroke-linejoin:round; stroke-width:2; stroke-opacity:0.1; fill:none" points="188.76,471.676 2552.76,471.676 "></polyline>
<polyline clip-path="url(#clip042)" style="stroke:#000000; stroke-linecap:round; stroke-linejoin:round; stroke-width:2; stroke-opacity:0.1; fill:none" points="188.76,369.732 2552.76,369.732 "></polyline>
<polyline clip-path="url(#clip042)" style="stroke:#000000; stroke-linecap:round; stroke-linejoin:round; stroke-width:2; stroke-opacity:0.1; fill:none" points="188.76,267.787 2552.76,267.787 "></polyline>
<polyline clip-path="url(#clip042)" style="stroke:#000000; stroke-linecap:round; stroke-linejoin:round; stroke-width:2; stroke-opacity:0.1; fill:none" points="188.76,165.842 2552.76,165.842 "></polyline>
<polyline clip-path="url(#clip042)" style="stroke:#000000; stroke-linecap:round; stroke-linejoin:round; stroke-width:2; stroke-opacity:0.1; fill:none" points="188.76,63.8976 2552.76,63.8976 "></polyline>
<polyline clip-path="url(#clip040)" style="stroke:#000000; stroke-linecap:round; stroke-linejoin:round; stroke-width:4; stroke-opacity:1; fill:none" points="188.76,557.847 2552.76,557.847 "></polyline>
<polyline clip-path="url(#clip040)" style="stroke:#000000; stroke-linecap:round; stroke-linejoin:round; stroke-width:4; stroke-opacity:1; fill:none" points="255.666,557.847 255.666,538.95 "></polyline>
<polyline clip-path="url(#clip040)" style="stroke:#000000; stroke-linecap:round; stroke-linejoin:round; stroke-width:4; stroke-opacity:1; fill:none" points="952.598,557.847 952.598,538.95 "></polyline>
<polyline clip-path="url(#clip040)" style="stroke:#000000; stroke-linecap:round; stroke-linejoin:round; stroke-width:4; stroke-opacity:1; fill:none" points="1649.53,557.847 1649.53,538.95 "></polyline>
<polyline clip-path="url(#clip040)" style="stroke:#000000; stroke-linecap:round; stroke-linejoin:round; stroke-width:4; stroke-opacity:1; fill:none" points="2346.46,557.847 2346.46,538.95 "></polyline>
<path clip-path="url(#clip040)" d="M245.943 587.287 L264.3 587.287 L264.3 591.222 L250.226 591.222 L250.226 599.695 Q251.244 599.347 252.263 599.185 Q253.281 599 254.3 599 Q260.087 599 263.467 602.171 Q266.846 605.343 266.846 610.759 Q266.846 616.338 263.374 619.44 Q259.902 622.519 253.582 622.519 Q251.406 622.519 249.138 622.148 Q246.893 621.778 244.485 621.037 L244.485 616.338 Q246.568 617.472 248.791 618.028 Q251.013 618.583 253.49 618.583 Q257.494 618.583 259.832 616.477 Q262.17 614.37 262.17 610.759 Q262.17 607.148 259.832 605.042 Q257.494 602.935 253.49 602.935 Q251.615 602.935 249.74 603.352 Q247.888 603.769 245.943 604.648 L245.943 587.287 Z" fill="#000000" fill-rule="nonzero" fill-opacity="1"></path><path clip-path="url(#clip040)" d="M927.286 617.912 L934.925 617.912 L934.925 591.546 L926.615 593.213 L926.615 588.954 L934.879 587.287 L939.554 587.287 L939.554 617.912 L947.193 617.912 L947.193 621.847 L927.286 621.847 L927.286 617.912 Z" fill="#000000" fill-rule="nonzero" fill-opacity="1"></path><path clip-path="url(#clip040)" d="M966.638 590.366 Q963.027 590.366 961.198 593.931 Q959.392 597.472 959.392 604.602 Q959.392 611.708 961.198 615.273 Q963.027 618.815 966.638 618.815 Q970.272 618.815 972.077 615.273 Q973.906 611.708 973.906 604.602 Q973.906 597.472 972.077 593.931 Q970.272 590.366 966.638 590.366 M966.638 586.662 Q972.448 586.662 975.503 591.269 Q978.582 595.852 978.582 604.602 Q978.582 613.329 975.503 617.935 Q972.448 622.519 966.638 622.519 Q960.827 622.519 957.749 617.935 Q954.693 613.329 954.693 604.602 Q954.693 595.852 957.749 591.269 Q960.827 586.662 966.638 586.662 Z" fill="#000000" fill-rule="nonzero" fill-opacity="1"></path><path clip-path="url(#clip040)" d="M1624.72 617.912 L1632.36 617.912 L1632.36 591.546 L1624.05 593.213 L1624.05 588.954 L1632.31 587.287 L1636.98 587.287 L1636.98 617.912 L1644.62 617.912 L1644.62 621.847 L1624.72 621.847 L1624.72 617.912 Z" fill="#000000" fill-rule="nonzero" fill-opacity="1"></path><path clip-path="url(#clip040)" d="M1654.11 587.287 L1672.47 587.287 L1672.47 591.222 L1658.4 591.222 L1658.4 599.695 Q1659.42 599.347 1660.43 599.185 Q1661.45 599 1662.47 599 Q1668.26 599 1671.64 602.171 Q1675.02 605.343 1675.02 610.759 Q1675.02 616.338 1671.54 619.44 Q1668.07 622.519 1661.75 622.519 Q1659.58 622.519 1657.31 622.148 Q1655.06 621.778 1652.66 621.037 L1652.66 616.338 Q1654.74 617.472 1656.96 618.028 Q1659.18 618.583 1661.66 618.583 Q1665.67 618.583 1668 616.477 Q1670.34 614.37 1670.34 610.759 Q1670.34 607.148 1668 605.042 Q1665.67 602.935 1661.66 602.935 Q1659.79 602.935 1657.91 603.352 Q1656.06 603.769 1654.11 604.648 L1654.11 587.287 Z" fill="#000000" fill-rule="nonzero" fill-opacity="1"></path><path clip-path="url(#clip040)" d="M2325.24 617.912 L2341.56 617.912 L2341.56 621.847 L2319.61 621.847 L2319.61 617.912 Q2322.27 615.157 2326.86 610.528 Q2331.46 605.875 2332.64 604.533 Q2334.89 602.009 2335.77 600.273 Q2336.67 598.514 2336.67 596.824 Q2336.67 594.07 2334.73 592.334 Q2332.81 590.597 2329.7 590.597 Q2327.51 590.597 2325.05 591.361 Q2322.62 592.125 2319.84 593.676 L2319.84 588.954 Q2322.67 587.82 2325.12 587.241 Q2327.58 586.662 2329.61 586.662 Q2334.98 586.662 2338.18 589.347 Q2341.37 592.033 2341.37 596.523 Q2341.37 598.653 2340.56 600.574 Q2339.77 602.472 2337.67 605.065 Q2337.09 605.736 2333.99 608.954 Q2330.89 612.148 2325.24 617.912 Z" fill="#000000" fill-rule="nonzero" fill-opacity="1"></path><path clip-path="url(#clip040)" d="M2361.37 590.366 Q2357.76 590.366 2355.93 593.931 Q2354.13 597.472 2354.13 604.602 Q2354.13 611.708 2355.93 615.273 Q2357.76 618.815 2361.37 618.815 Q2365.01 618.815 2366.81 615.273 Q2368.64 611.708 2368.64 604.602 Q2368.64 597.472 2366.81 593.931 Q2365.01 590.366 2361.37 590.366 M2361.37 586.662 Q2367.18 586.662 2370.24 591.269 Q2373.32 595.852 2373.32 604.602 Q2373.32 613.329 2370.24 617.935 Q2367.18 622.519 2361.37 622.519 Q2355.56 622.519 2352.48 617.935 Q2349.43 613.329 2349.43 604.602 Q2349.43 595.852 2352.48 591.269 Q2355.56 586.662 2361.37 586.662 Z" fill="#000000" fill-rule="nonzero" fill-opacity="1"></path><polyline clip-path="url(#clip040)" style="stroke:#000000; stroke-linecap:round; stroke-linejoin:round; stroke-width:4; stroke-opacity:1; fill:none" points="188.76,557.847 188.76,47.2441 "></polyline>
<polyline clip-path="url(#clip040)" style="stroke:#000000; stroke-linecap:round; stroke-linejoin:round; stroke-width:4; stroke-opacity:1; fill:none" points="188.76,471.676 207.658,471.676 "></polyline>
<polyline clip-path="url(#clip040)" style="stroke:#000000; stroke-linecap:round; stroke-linejoin:round; stroke-width:4; stroke-opacity:1; fill:none" points="188.76,369.732 207.658,369.732 "></polyline>
<polyline clip-path="url(#clip040)" style="stroke:#000000; stroke-linecap:round; stroke-linejoin:round; stroke-width:4; stroke-opacity:1; fill:none" points="188.76,267.787 207.658,267.787 "></polyline>
<polyline clip-path="url(#clip040)" style="stroke:#000000; stroke-linecap:round; stroke-linejoin:round; stroke-width:4; stroke-opacity:1; fill:none" points="188.76,165.842 207.658,165.842 "></polyline>
<polyline clip-path="url(#clip040)" style="stroke:#000000; stroke-linecap:round; stroke-linejoin:round; stroke-width:4; stroke-opacity:1; fill:none" points="188.76,63.8976 207.658,63.8976 "></polyline>
<path clip-path="url(#clip040)" d="M62.2606 457.475 Q58.6495 457.475 56.8208 461.04 Q55.0152 464.582 55.0152 471.711 Q55.0152 478.818 56.8208 482.382 Q58.6495 485.924 62.2606 485.924 Q65.8948 485.924 67.7004 482.382 Q69.5291 478.818 69.5291 471.711 Q69.5291 464.582 67.7004 461.04 Q65.8948 457.475 62.2606 457.475 M62.2606 453.771 Q68.0707 453.771 71.1263 458.378 Q74.205 462.961 74.205 471.711 Q74.205 480.438 71.1263 485.044 Q68.0707 489.628 62.2606 489.628 Q56.4504 489.628 53.3717 485.044 Q50.3162 480.438 50.3162 471.711 Q50.3162 462.961 53.3717 458.378 Q56.4504 453.771 62.2606 453.771 Z" fill="#000000" fill-rule="nonzero" fill-opacity="1"></path><path clip-path="url(#clip040)" d="M82.4225 483.077 L87.3067 483.077 L87.3067 488.956 L82.4225 488.956 L82.4225 483.077 Z" fill="#000000" fill-rule="nonzero" fill-opacity="1"></path><path clip-path="url(#clip040)" d="M107.492 457.475 Q103.881 457.475 102.052 461.04 Q100.246 464.582 100.246 471.711 Q100.246 478.818 102.052 482.382 Q103.881 485.924 107.492 485.924 Q111.126 485.924 112.932 482.382 Q114.76 478.818 114.76 471.711 Q114.76 464.582 112.932 461.04 Q111.126 457.475 107.492 457.475 M107.492 453.771 Q113.302 453.771 116.358 458.378 Q119.436 462.961 119.436 471.711 Q119.436 480.438 116.358 485.044 Q113.302 489.628 107.492 489.628 Q101.682 489.628 98.603 485.044 Q95.5474 480.438 95.5474 471.711 Q95.5474 462.961 98.603 458.378 Q101.682 453.771 107.492 453.771 Z" fill="#000000" fill-rule="nonzero" fill-opacity="1"></path><path clip-path="url(#clip040)" d="M138.232 469.813 Q135.084 469.813 133.232 471.966 Q131.404 474.119 131.404 477.869 Q131.404 481.595 133.232 483.771 Q135.084 485.924 138.232 485.924 Q141.381 485.924 143.209 483.771 Q145.061 481.595 145.061 477.869 Q145.061 474.119 143.209 471.966 Q141.381 469.813 138.232 469.813 M147.515 455.16 L147.515 459.42 Q145.756 458.586 143.95 458.146 Q142.168 457.707 140.408 457.707 Q135.779 457.707 133.325 460.832 Q130.894 463.957 130.547 470.276 Q131.913 468.262 133.973 467.197 Q136.033 466.109 138.51 466.109 Q143.718 466.109 146.728 469.281 Q149.76 472.429 149.76 477.869 Q149.76 483.193 146.612 486.41 Q143.464 489.628 138.232 489.628 Q132.237 489.628 129.066 485.044 Q125.894 480.438 125.894 471.711 Q125.894 463.517 129.783 458.656 Q133.672 453.771 140.223 453.771 Q141.982 453.771 143.765 454.119 Q145.57 454.466 147.515 455.16 Z" fill="#000000" fill-rule="nonzero" fill-opacity="1"></path><path clip-path="url(#clip040)" d="M62.5152 355.53 Q58.9041 355.53 57.0754 359.095 Q55.2699 362.637 55.2699 369.766 Q55.2699 376.873 57.0754 380.438 Q58.9041 383.979 62.5152 383.979 Q66.1494 383.979 67.955 380.438 Q69.7837 376.873 69.7837 369.766 Q69.7837 362.637 67.955 359.095 Q66.1494 355.53 62.5152 355.53 M62.5152 351.827 Q68.3254 351.827 71.3809 356.433 Q74.4596 361.017 74.4596 369.766 Q74.4596 378.493 71.3809 383.1 Q68.3254 387.683 62.5152 387.683 Q56.7051 387.683 53.6264 383.1 Q50.5708 378.493 50.5708 369.766 Q50.5708 361.017 53.6264 356.433 Q56.7051 351.827 62.5152 351.827 Z" fill="#000000" fill-rule="nonzero" fill-opacity="1"></path><path clip-path="url(#clip040)" d="M82.6771 381.132 L87.5614 381.132 L87.5614 387.012 L82.6771 387.012 L82.6771 381.132 Z" fill="#000000" fill-rule="nonzero" fill-opacity="1"></path><path clip-path="url(#clip040)" d="M107.746 355.53 Q104.135 355.53 102.307 359.095 Q100.501 362.637 100.501 369.766 Q100.501 376.873 102.307 380.438 Q104.135 383.979 107.746 383.979 Q111.381 383.979 113.186 380.438 Q115.015 376.873 115.015 369.766 Q115.015 362.637 113.186 359.095 Q111.381 355.53 107.746 355.53 M107.746 351.827 Q113.557 351.827 116.612 356.433 Q119.691 361.017 119.691 369.766 Q119.691 378.493 116.612 383.1 Q113.557 387.683 107.746 387.683 Q101.936 387.683 98.8576 383.1 Q95.8021 378.493 95.8021 369.766 Q95.8021 361.017 98.8576 356.433 Q101.936 351.827 107.746 351.827 Z" fill="#000000" fill-rule="nonzero" fill-opacity="1"></path><path clip-path="url(#clip040)" d="M137.908 370.6 Q134.575 370.6 132.654 372.382 Q130.756 374.165 130.756 377.29 Q130.756 380.415 132.654 382.197 Q134.575 383.979 137.908 383.979 Q141.242 383.979 143.163 382.197 Q145.084 380.391 145.084 377.29 Q145.084 374.165 143.163 372.382 Q141.265 370.6 137.908 370.6 M133.232 368.609 Q130.223 367.868 128.533 365.808 Q126.867 363.748 126.867 360.785 Q126.867 356.642 129.807 354.234 Q132.769 351.827 137.908 351.827 Q143.07 351.827 146.01 354.234 Q148.95 356.642 148.95 360.785 Q148.95 363.748 147.26 365.808 Q145.593 367.868 142.607 368.609 Q145.987 369.396 147.862 371.688 Q149.76 373.979 149.76 377.29 Q149.76 382.313 146.681 384.998 Q143.626 387.683 137.908 387.683 Q132.191 387.683 129.112 384.998 Q126.057 382.313 126.057 377.29 Q126.057 373.979 127.955 371.688 Q129.853 369.396 133.232 368.609 M131.519 361.225 Q131.519 363.91 133.186 365.415 Q134.876 366.919 137.908 366.919 Q140.918 366.919 142.607 365.415 Q144.32 363.91 144.32 361.225 Q144.32 358.54 142.607 357.035 Q140.918 355.53 137.908 355.53 Q134.876 355.53 133.186 357.035 Q131.519 358.54 131.519 361.225 Z" fill="#000000" fill-rule="nonzero" fill-opacity="1"></path><path clip-path="url(#clip040)" d="M62.4226 253.586 Q58.8115 253.586 56.9828 257.151 Q55.1773 260.692 55.1773 267.822 Q55.1773 274.928 56.9828 278.493 Q58.8115 282.035 62.4226 282.035 Q66.0569 282.035 67.8624 278.493 Q69.6911 274.928 69.6911 267.822 Q69.6911 260.692 67.8624 257.151 Q66.0569 253.586 62.4226 253.586 M62.4226 249.882 Q68.2328 249.882 71.2883 254.489 Q74.367 259.072 74.367 267.822 Q74.367 276.549 71.2883 281.155 Q68.2328 285.738 62.4226 285.738 Q56.6125 285.738 53.5338 281.155 Q50.4782 276.549 50.4782 267.822 Q50.4782 259.072 53.5338 254.489 Q56.6125 249.882 62.4226 249.882 Z" fill="#000000" fill-rule="nonzero" fill-opacity="1"></path><path clip-path="url(#clip040)" d="M82.5845 279.187 L87.4688 279.187 L87.4688 285.067 L82.5845 285.067 L82.5845 279.187 Z" fill="#000000" fill-rule="nonzero" fill-opacity="1"></path><path clip-path="url(#clip040)" d="M98.4641 281.132 L106.103 281.132 L106.103 254.766 L97.7928 256.433 L97.7928 252.174 L106.057 250.507 L110.733 250.507 L110.733 281.132 L118.371 281.132 L118.371 285.067 L98.4641 285.067 L98.4641 281.132 Z" fill="#000000" fill-rule="nonzero" fill-opacity="1"></path><path clip-path="url(#clip040)" d="M137.816 253.586 Q134.205 253.586 132.376 257.151 Q130.57 260.692 130.57 267.822 Q130.57 274.928 132.376 278.493 Q134.205 282.035 137.816 282.035 Q141.45 282.035 143.256 278.493 Q145.084 274.928 145.084 267.822 Q145.084 260.692 143.256 257.151 Q141.45 253.586 137.816 253.586 M137.816 249.882 Q143.626 249.882 146.681 254.489 Q149.76 259.072 149.76 267.822 Q149.76 276.549 146.681 281.155 Q143.626 285.738 137.816 285.738 Q132.006 285.738 128.927 281.155 Q125.871 276.549 125.871 267.822 Q125.871 259.072 128.927 254.489 Q132.006 249.882 137.816 249.882 Z" fill="#000000" fill-rule="nonzero" fill-opacity="1"></path><path clip-path="url(#clip040)" d="M64.0198 151.641 Q60.4087 151.641 58.58 155.206 Q56.7745 158.747 56.7745 165.877 Q56.7745 172.984 58.58 176.548 Q60.4087 180.09 64.0198 180.09 Q67.6541 180.09 69.4596 176.548 Q71.2883 172.984 71.2883 165.877 Q71.2883 158.747 69.4596 155.206 Q67.6541 151.641 64.0198 151.641 M64.0198 147.937 Q69.83 147.937 72.8855 152.544 Q75.9642 157.127 75.9642 165.877 Q75.9642 174.604 72.8855 179.21 Q69.83 183.794 64.0198 183.794 Q58.2097 183.794 55.131 179.21 Q52.0754 174.604 52.0754 165.877 Q52.0754 157.127 55.131 152.544 Q58.2097 147.937 64.0198 147.937 Z" fill="#000000" fill-rule="nonzero" fill-opacity="1"></path><path clip-path="url(#clip040)" d="M84.1818 177.243 L89.066 177.243 L89.066 183.122 L84.1818 183.122 L84.1818 177.243 Z" fill="#000000" fill-rule="nonzero" fill-opacity="1"></path><path clip-path="url(#clip040)" d="M100.061 179.187 L107.7 179.187 L107.7 152.822 L99.39 154.488 L99.39 150.229 L107.654 148.562 L112.33 148.562 L112.33 179.187 L119.969 179.187 L119.969 183.122 L100.061 183.122 L100.061 179.187 Z" fill="#000000" fill-rule="nonzero" fill-opacity="1"></path><path clip-path="url(#clip040)" d="M133.441 179.187 L149.76 179.187 L149.76 183.122 L127.816 183.122 L127.816 179.187 Q130.478 176.433 135.061 171.803 Q139.668 167.15 140.848 165.808 Q143.093 163.284 143.973 161.548 Q144.876 159.789 144.876 158.099 Q144.876 155.345 142.931 153.609 Q141.01 151.873 137.908 151.873 Q135.709 151.873 133.256 152.636 Q130.825 153.4 128.047 154.951 L128.047 150.229 Q130.871 149.095 133.325 148.516 Q135.779 147.937 137.816 147.937 Q143.186 147.937 146.38 150.623 Q149.575 153.308 149.575 157.798 Q149.575 159.928 148.765 161.849 Q147.978 163.747 145.871 166.34 Q145.293 167.011 142.191 170.229 Q139.089 173.423 133.441 179.187 Z" fill="#000000" fill-rule="nonzero" fill-opacity="1"></path><path clip-path="url(#clip040)" d="M61.9365 49.6963 Q58.3254 49.6963 56.4967 53.2611 Q54.6912 56.8028 54.6912 63.9324 Q54.6912 71.0388 56.4967 74.6036 Q58.3254 78.1452 61.9365 78.1452 Q65.5707 78.1452 67.3763 74.6036 Q69.205 71.0388 69.205 63.9324 Q69.205 56.8028 67.3763 53.2611 Q65.5707 49.6963 61.9365 49.6963 M61.9365 45.9926 Q67.7467 45.9926 70.8022 50.5991 Q73.8809 55.1824 73.8809 63.9324 Q73.8809 72.6592 70.8022 77.2656 Q67.7467 81.8489 61.9365 81.8489 Q56.1264 81.8489 53.0477 77.2656 Q49.9921 72.6592 49.9921 63.9324 Q49.9921 55.1824 53.0477 50.5991 Q56.1264 45.9926 61.9365 45.9926 Z" fill="#000000" fill-rule="nonzero" fill-opacity="1"></path><path clip-path="url(#clip040)" d="M82.0984 75.298 L86.9827 75.298 L86.9827 81.1776 L82.0984 81.1776 L82.0984 75.298 Z" fill="#000000" fill-rule="nonzero" fill-opacity="1"></path><path clip-path="url(#clip040)" d="M97.978 77.2425 L105.617 77.2425 L105.617 50.8769 L97.3067 52.5435 L97.3067 48.2843 L105.571 46.6176 L110.246 46.6176 L110.246 77.2425 L117.885 77.2425 L117.885 81.1776 L97.978 81.1776 L97.978 77.2425 Z" fill="#000000" fill-rule="nonzero" fill-opacity="1"></path><path clip-path="url(#clip040)" d="M140.177 50.6917 L128.371 69.1407 L140.177 69.1407 L140.177 50.6917 M138.95 46.6176 L144.83 46.6176 L144.83 69.1407 L149.76 69.1407 L149.76 73.0295 L144.83 73.0295 L144.83 81.1776 L140.177 81.1776 L140.177 73.0295 L124.575 73.0295 L124.575 68.5157 L138.95 46.6176 Z" fill="#000000" fill-rule="nonzero" fill-opacity="1"></path><polyline clip-path="url(#clip042)" style="stroke:#61ad1e; stroke-linecap:round; stroke-linejoin:round; stroke-width:6.4; stroke-opacity:1; fill:none" points="255.666,79.0883 534.439,179.636 813.212,236.551 1091.98,269.31 1370.76,288.227 1649.53,299.159 1928.3,305.476 2207.08,309.127 2485.85,311.237 "></polyline>
<circle clip-path="url(#clip042)" cx="255.666" cy="61.6951" r="14.4" fill="#61ad1e" fill-rule="evenodd" fill-opacity="0.8" stroke="#000000" stroke-opacity="0.8" stroke-width="0.64"></circle>
<circle clip-path="url(#clip042)" cx="534.439" cy="176.355" r="14.4" fill="#61ad1e" fill-rule="evenodd" fill-opacity="0.8" stroke="#000000" stroke-opacity="0.8" stroke-width="0.64"></circle>
<circle clip-path="url(#clip042)" cx="813.212" cy="238.631" r="14.4" fill="#61ad1e" fill-rule="evenodd" fill-opacity="0.8" stroke="#000000" stroke-opacity="0.8" stroke-width="0.64"></circle>
<circle clip-path="url(#clip042)" cx="1091.98" cy="272.74" r="14.4" fill="#61ad1e" fill-rule="evenodd" fill-opacity="0.8" stroke="#000000" stroke-opacity="0.8" stroke-width="0.64"></circle>
<circle clip-path="url(#clip042)" cx="1370.76" cy="291.437" r="14.4" fill="#61ad1e" fill-rule="evenodd" fill-opacity="0.8" stroke="#000000" stroke-opacity="0.8" stroke-width="0.64"></circle>
<circle clip-path="url(#clip042)" cx="1649.53" cy="301.687" r="14.4" fill="#61ad1e" fill-rule="evenodd" fill-opacity="0.8" stroke="#000000" stroke-opacity="0.8" stroke-width="0.64"></circle>
<circle clip-path="url(#clip042)" cx="1928.3" cy="307.307" r="14.4" fill="#61ad1e" fill-rule="evenodd" fill-opacity="0.8" stroke="#000000" stroke-opacity="0.8" stroke-width="0.64"></circle>
<circle clip-path="url(#clip042)" cx="2207.08" cy="310.387" r="14.4" fill="#61ad1e" fill-rule="evenodd" fill-opacity="0.8" stroke="#000000" stroke-opacity="0.8" stroke-width="0.64"></circle>
<circle clip-path="url(#clip042)" cx="2485.85" cy="312.076" r="14.4" fill="#61ad1e" fill-rule="evenodd" fill-opacity="0.8" stroke="#000000" stroke-opacity="0.8" stroke-width="0.64"></circle>
<polyline clip-path="url(#clip042)" style="stroke:#5ead1e; stroke-linecap:round; stroke-linejoin:round; stroke-width:6.4; stroke-opacity:1; fill:none" points="255.666,543.396 534.439,447.971 813.212,391.628 1091.98,358.933 1370.76,340.023 1649.53,329.092 1928.3,322.775 2207.08,319.124 2485.85,317.015 "></polyline>
<circle clip-path="url(#clip042)" cx="255.666" cy="515.717" r="14.4" fill="#5ead1e" fill-rule="evenodd" fill-opacity="0.8" stroke="#000000" stroke-opacity="0.8" stroke-width="0.64"></circle>
<circle clip-path="url(#clip042)" cx="534.439" cy="424.965" r="14.4" fill="#5ead1e" fill-rule="evenodd" fill-opacity="0.8" stroke="#000000" stroke-opacity="0.8" stroke-width="0.64"></circle>
<circle clip-path="url(#clip042)" cx="813.212" cy="374.908" r="14.4" fill="#5ead1e" fill-rule="evenodd" fill-opacity="0.8" stroke="#000000" stroke-opacity="0.8" stroke-width="0.64"></circle>
<circle clip-path="url(#clip042)" cx="1091.98" cy="347.449" r="14.4" fill="#5ead1e" fill-rule="evenodd" fill-opacity="0.8" stroke="#000000" stroke-opacity="0.8" stroke-width="0.64"></circle>
<circle clip-path="url(#clip042)" cx="1370.76" cy="332.394" r="14.4" fill="#5ead1e" fill-rule="evenodd" fill-opacity="0.8" stroke="#000000" stroke-opacity="0.8" stroke-width="0.64"></circle>
<circle clip-path="url(#clip042)" cx="1649.53" cy="324.141" r="14.4" fill="#5ead1e" fill-rule="evenodd" fill-opacity="0.8" stroke="#000000" stroke-opacity="0.8" stroke-width="0.64"></circle>
<circle clip-path="url(#clip042)" cx="1928.3" cy="319.616" r="14.4" fill="#5ead1e" fill-rule="evenodd" fill-opacity="0.8" stroke="#000000" stroke-opacity="0.8" stroke-width="0.64"></circle>
<circle clip-path="url(#clip042)" cx="2207.08" cy="317.136" r="14.4" fill="#5ead1e" fill-rule="evenodd" fill-opacity="0.8" stroke="#000000" stroke-opacity="0.8" stroke-width="0.64"></circle>
<circle clip-path="url(#clip042)" cx="2485.85" cy="315.776" r="14.4" fill="#5ead1e" fill-rule="evenodd" fill-opacity="0.8" stroke="#000000" stroke-opacity="0.8" stroke-width="0.64"></circle>
<polyline clip-path="url(#clip042)" style="stroke:#25ad1e; stroke-linecap:round; stroke-linejoin:round; stroke-width:6.4; stroke-opacity:1; fill:none" points="255.666,319.892 534.439,314.769 813.212,314.197 1091.98,314.134 1370.76,314.126 1649.53,314.126 1928.3,314.126 2207.08,314.126 2485.85,314.126 "></polyline>
<circle clip-path="url(#clip042)" cx="255.666" cy="301.857" r="14.4" fill="#25ad1e" fill-rule="evenodd" fill-opacity="0.8" stroke="#000000" stroke-opacity="0.8" stroke-width="0.64"></circle>
<circle clip-path="url(#clip042)" cx="534.439" cy="306.615" r="14.4" fill="#25ad1e" fill-rule="evenodd" fill-opacity="0.8" stroke="#000000" stroke-opacity="0.8" stroke-width="0.64"></circle>
<circle clip-path="url(#clip042)" cx="813.212" cy="309.964" r="14.4" fill="#25ad1e" fill-rule="evenodd" fill-opacity="0.8" stroke="#000000" stroke-opacity="0.8" stroke-width="0.64"></circle>
<circle clip-path="url(#clip042)" cx="1091.98" cy="311.842" r="14.4" fill="#25ad1e" fill-rule="evenodd" fill-opacity="0.8" stroke="#000000" stroke-opacity="0.8" stroke-width="0.64"></circle>
<circle clip-path="url(#clip042)" cx="1370.76" cy="312.873" r="14.4" fill="#25ad1e" fill-rule="evenodd" fill-opacity="0.8" stroke="#000000" stroke-opacity="0.8" stroke-width="0.64"></circle>
<circle clip-path="url(#clip042)" cx="1649.53" cy="313.439" r="14.4" fill="#25ad1e" fill-rule="evenodd" fill-opacity="0.8" stroke="#000000" stroke-opacity="0.8" stroke-width="0.64"></circle>
<circle clip-path="url(#clip042)" cx="1928.3" cy="313.749" r="14.4" fill="#25ad1e" fill-rule="evenodd" fill-opacity="0.8" stroke="#000000" stroke-opacity="0.8" stroke-width="0.64"></circle>
<circle clip-path="url(#clip042)" cx="2207.08" cy="313.919" r="14.4" fill="#25ad1e" fill-rule="evenodd" fill-opacity="0.8" stroke="#000000" stroke-opacity="0.8" stroke-width="0.64"></circle>
<circle clip-path="url(#clip042)" cx="2485.85" cy="314.012" r="14.4" fill="#25ad1e" fill-rule="evenodd" fill-opacity="0.8" stroke="#000000" stroke-opacity="0.8" stroke-width="0.64"></circle>
<path clip-path="url(#clip040)" d="M2076.47 271.624 L2473.96 271.624 L2473.96 64.2642 L2076.47 64.2642  Z" fill="#ffffff" fill-rule="evenodd" fill-opacity="1"></path>
<polyline clip-path="url(#clip040)" style="stroke:#000000; stroke-linecap:round; stroke-linejoin:round; stroke-width:4; stroke-opacity:1; fill:none" points="2076.47,271.624 2473.96,271.624 2473.96,64.2642 2076.47,64.2642 2076.47,271.624 "></polyline>
<polyline clip-path="url(#clip040)" style="stroke:#61ad1e; stroke-linecap:round; stroke-linejoin:round; stroke-width:6.4; stroke-opacity:1; fill:none" points="2102.74,116.104 2260.34,116.104 "></polyline>
<path clip-path="url(#clip040)" d="M2309.44 92.6822 L2302.53 120.414 Q2302.25 121.656 2302.25 122.71 Q2302.25 124.911 2303.68 124.911 Q2304.38 124.911 2304.94 124.466 Q2305.51 124.021 2305.95 123.084 Q2306.4 122.148 2306.68 121.281 Q2306.96 120.391 2307.33 118.986 Q2307.45 118.423 2307.54 118.283 Q2307.66 118.119 2307.99 118.119 Q2308.57 118.119 2308.57 118.587 Q2307.94 121.609 2307.12 123.342 Q2305.81 125.989 2303.59 125.989 Q2301.9 125.989 2300.7 124.958 Q2299.51 123.928 2299.23 122.382 Q2296.16 125.989 2292.97 125.989 Q2290.16 125.989 2288.38 123.857 Q2286.6 121.703 2286.6 118.306 Q2286.6 114.887 2288.29 111.607 Q2290 108.328 2292.69 106.291 Q2295.39 104.253 2298.15 104.253 Q2301.08 104.253 2302.58 107.321 L2305.46 95.9379 L2305.6 95.001 Q2305.6 94.7199 2305.48 94.5794 Q2305.39 94.4154 2304.83 94.2983 Q2304.29 94.1812 2303.21 94.1812 Q2302.77 94.1812 2302.55 94.1578 Q2302.37 94.1343 2302.2 94.0172 Q2302.04 93.8767 2302.04 93.5956 Q2302.04 92.7758 2302.72 92.6822 Q2307.22 92.1669 2308.81 92.1669 Q2309.09 92.1669 2309.25 92.3074 Q2309.42 92.4245 2309.42 92.565 L2309.44 92.6822 M2301.99 109.523 Q2301.99 109.312 2301.83 108.727 Q2301.66 108.141 2301.29 107.321 Q2300.92 106.501 2300.1 105.916 Q2299.3 105.307 2298.22 105.307 Q2296.77 105.307 2295.25 106.548 Q2293.75 107.79 2292.65 109.898 Q2291.8 111.584 2290.89 115.121 Q2290 118.658 2290 120.414 Q2290 121.492 2290.23 122.452 Q2290.49 123.389 2291.22 124.162 Q2291.94 124.911 2293.07 124.911 Q2295.81 124.911 2298.5 121.515 Q2299.02 120.93 2299.14 120.695 Q2299.28 120.438 2299.46 119.735 L2301.85 110.343 Q2301.99 109.64 2301.99 109.523 Z" fill="#000000" fill-rule="nonzero" fill-opacity="1"></path><path clip-path="url(#clip040)" d="M2314.32 139.336 L2314.32 138.303 Q2316.11 138.303 2316.52 138.09 Q2316.93 137.861 2316.93 136.778 L2316.93 127.744 Q2316.93 126.498 2316.5 126.203 Q2316.09 125.908 2314.45 125.908 L2314.45 124.859 L2319.14 124.498 L2319.14 136.811 Q2319.14 137.811 2319.5 138.057 Q2319.86 138.303 2321.5 138.303 L2321.5 139.336 Q2318.08 139.238 2318.01 139.238 Q2317.55 139.238 2314.32 139.336 M2315.73 118.645 Q2315.73 117.973 2316.24 117.431 Q2316.76 116.874 2317.5 116.874 Q2318.24 116.874 2318.76 117.382 Q2319.29 117.874 2319.29 118.661 Q2319.29 119.432 2318.76 119.94 Q2318.24 120.432 2317.5 120.432 Q2316.73 120.432 2316.22 119.891 Q2315.73 119.35 2315.73 118.645 Z" fill="#000000" fill-rule="nonzero" fill-opacity="1"></path><path clip-path="url(#clip040)" d="M2323.8 139.336 L2323.8 138.303 Q2325.58 138.303 2325.99 138.09 Q2326.4 137.861 2326.4 136.778 L2326.4 127.777 Q2326.4 126.531 2325.96 126.22 Q2325.53 125.908 2323.8 125.908 L2323.8 124.859 L2328.52 124.498 L2328.52 128.023 Q2330.09 124.498 2333.49 124.498 Q2336.01 124.498 2337.01 125.744 Q2337.75 126.58 2337.9 127.515 Q2338.06 128.449 2338.06 130.876 L2338.06 137.287 Q2338.09 137.992 2338.63 138.156 Q2339.17 138.303 2340.68 138.303 L2340.68 139.336 Q2337.26 139.238 2336.91 139.238 Q2336.65 139.238 2333.12 139.336 L2333.12 138.303 Q2334.91 138.303 2335.32 138.09 Q2335.75 137.861 2335.75 136.778 L2335.75 128.958 Q2335.75 127.252 2335.22 126.252 Q2334.7 125.236 2333.26 125.236 Q2331.52 125.236 2330.12 126.695 Q2328.73 128.154 2328.73 130.614 L2328.73 136.778 Q2328.73 137.861 2329.14 138.09 Q2329.57 138.303 2331.34 138.303 L2331.34 139.336 Q2327.91 139.238 2327.58 139.238 Q2327.32 139.238 2323.8 139.336 Z" fill="#000000" fill-rule="nonzero" fill-opacity="1"></path><path clip-path="url(#clip040)" d="M2342.37 125.908 L2342.37 125.17 Q2343.91 125.105 2344.93 124.023 Q2345.96 122.924 2346.31 121.58 Q2346.67 120.235 2346.7 118.678 L2347.54 118.678 L2347.54 124.859 L2352.34 124.859 L2352.34 125.908 L2347.54 125.908 L2347.54 135.237 Q2347.54 138.861 2349.8 138.861 Q2350.77 138.861 2351.41 137.877 Q2352.05 136.877 2352.05 135.106 L2352.05 133.253 L2352.88 133.253 L2352.88 135.172 Q2352.88 136.992 2352.05 138.352 Q2351.21 139.713 2349.55 139.713 Q2348.95 139.713 2348.34 139.549 Q2347.75 139.402 2346.96 139.008 Q2346.19 138.598 2345.7 137.615 Q2345.23 136.614 2345.23 135.172 L2345.23 125.908 L2342.37 125.908 Z" fill="#000000" fill-rule="nonzero" fill-opacity="1"></path><path clip-path="url(#clip040)" d="M2373.69 118.166 Q2373.74 117.58 2374.65 117.58 L2404.04 117.58 Q2405.43 117.58 2405.45 118.119 Q2405.45 118.704 2404.14 118.681 L2374.98 118.681 Q2373.69 118.704 2373.69 118.166 M2373.69 108.797 Q2373.69 108.211 2374.7 108.235 L2404 108.235 Q2405.43 108.235 2405.45 108.797 Q2405.45 109.336 2404.23 109.336 L2374.65 109.336 Q2373.69 109.336 2373.69 108.797 Z" fill="#000000" fill-rule="nonzero" fill-opacity="1"></path><path clip-path="url(#clip040)" d="M2423.94 118.986 Q2423.94 117.557 2424.76 116.878 Q2425.58 116.198 2426.63 116.198 Q2427.74 116.198 2428.51 116.924 Q2429.3 117.627 2429.3 118.868 Q2429.3 120.204 2428.37 120.953 Q2427.45 121.703 2426.14 121.515 Q2427.29 123.436 2429.4 124.302 Q2431.53 125.169 2433.5 125.169 Q2435.56 125.169 2437.22 123.389 Q2438.91 121.609 2438.91 117.252 Q2438.91 113.552 2437.46 111.42 Q2436.03 109.289 2433.19 109.289 L2431.08 109.289 Q2430.36 109.289 2430.15 109.218 Q2429.94 109.148 2429.94 108.75 Q2429.94 108.281 2430.66 108.188 Q2431.39 108.188 2432.54 108.047 Q2435.32 107.954 2436.8 105.541 Q2438.13 103.293 2438.13 100.084 Q2438.13 97.1558 2436.73 95.9379 Q2435.35 94.6965 2433.54 94.6965 Q2431.86 94.6965 2430.01 95.3992 Q2428.16 96.1018 2427.15 97.6711 Q2430.12 97.6711 2430.12 100.084 Q2430.12 101.138 2429.45 101.84 Q2428.79 102.52 2427.69 102.52 Q2426.63 102.52 2425.93 101.864 Q2425.23 101.184 2425.23 100.037 Q2425.23 97.2964 2427.66 95.3992 Q2430.12 93.5019 2433.73 93.5019 Q2437.29 93.5019 2439.91 95.3757 Q2442.56 97.2495 2442.56 100.13 Q2442.56 102.965 2440.69 105.283 Q2438.81 107.602 2435.84 108.563 Q2439.49 109.289 2441.67 111.771 Q2443.85 114.231 2443.85 117.252 Q2443.85 121 2440.9 123.764 Q2437.95 126.504 2433.64 126.504 Q2429.66 126.504 2426.8 124.349 Q2423.94 122.194 2423.94 118.986 Z" fill="#000000" fill-rule="nonzero" fill-opacity="1"></path><polyline clip-path="url(#clip040)" style="stroke:#5ead1e; stroke-linecap:round; stroke-linejoin:round; stroke-width:6.4; stroke-opacity:1; fill:none" points="2102.74,167.944 2260.34,167.944 "></polyline>
<path clip-path="url(#clip040)" d="M2309.44 144.522 L2302.53 172.254 Q2302.25 173.496 2302.25 174.55 Q2302.25 176.751 2303.68 176.751 Q2304.38 176.751 2304.94 176.306 Q2305.51 175.861 2305.95 174.924 Q2306.4 173.988 2306.68 173.121 Q2306.96 172.231 2307.33 170.826 Q2307.45 170.263 2307.54 170.123 Q2307.66 169.959 2307.99 169.959 Q2308.57 169.959 2308.57 170.427 Q2307.94 173.449 2307.12 175.182 Q2305.81 177.829 2303.59 177.829 Q2301.9 177.829 2300.7 176.798 Q2299.51 175.768 2299.23 174.222 Q2296.16 177.829 2292.97 177.829 Q2290.16 177.829 2288.38 175.697 Q2286.6 173.543 2286.6 170.146 Q2286.6 166.727 2288.29 163.447 Q2290 160.168 2292.69 158.131 Q2295.39 156.093 2298.15 156.093 Q2301.08 156.093 2302.58 159.161 L2305.46 147.778 L2305.6 146.841 Q2305.6 146.56 2305.48 146.419 Q2305.39 146.255 2304.83 146.138 Q2304.29 146.021 2303.21 146.021 Q2302.77 146.021 2302.55 145.998 Q2302.37 145.974 2302.2 145.857 Q2302.04 145.717 2302.04 145.436 Q2302.04 144.616 2302.72 144.522 Q2307.22 144.007 2308.81 144.007 Q2309.09 144.007 2309.25 144.147 Q2309.42 144.265 2309.42 144.405 L2309.44 144.522 M2301.99 161.363 Q2301.99 161.152 2301.83 160.567 Q2301.66 159.981 2301.29 159.161 Q2300.92 158.341 2300.1 157.756 Q2299.3 157.147 2298.22 157.147 Q2296.77 157.147 2295.25 158.388 Q2293.75 159.63 2292.65 161.738 Q2291.8 163.424 2290.89 166.961 Q2290 170.498 2290 172.254 Q2290 173.332 2290.23 174.292 Q2290.49 175.229 2291.22 176.002 Q2291.94 176.751 2293.07 176.751 Q2295.81 176.751 2298.5 173.355 Q2299.02 172.77 2299.14 172.535 Q2299.28 172.278 2299.46 171.575 L2301.85 162.183 Q2301.99 161.48 2301.99 161.363 Z" fill="#000000" fill-rule="nonzero" fill-opacity="1"></path><path clip-path="url(#clip040)" d="M2314.32 191.176 L2314.32 190.143 Q2316.11 190.143 2316.52 189.93 Q2316.93 189.701 2316.93 188.618 L2316.93 179.584 Q2316.93 178.338 2316.5 178.043 Q2316.09 177.748 2314.45 177.748 L2314.45 176.699 L2319.14 176.338 L2319.14 188.651 Q2319.14 189.651 2319.5 189.897 Q2319.86 190.143 2321.5 190.143 L2321.5 191.176 Q2318.08 191.078 2318.01 191.078 Q2317.55 191.078 2314.32 191.176 M2315.73 170.485 Q2315.73 169.813 2316.24 169.271 Q2316.76 168.714 2317.5 168.714 Q2318.24 168.714 2318.76 169.222 Q2319.29 169.714 2319.29 170.501 Q2319.29 171.272 2318.76 171.78 Q2318.24 172.272 2317.5 172.272 Q2316.73 172.272 2316.22 171.731 Q2315.73 171.19 2315.73 170.485 Z" fill="#000000" fill-rule="nonzero" fill-opacity="1"></path><path clip-path="url(#clip040)" d="M2323.8 191.176 L2323.8 190.143 Q2325.58 190.143 2325.99 189.93 Q2326.4 189.701 2326.4 188.618 L2326.4 179.617 Q2326.4 178.371 2325.96 178.06 Q2325.53 177.748 2323.8 177.748 L2323.8 176.699 L2328.52 176.338 L2328.52 179.863 Q2330.09 176.338 2333.49 176.338 Q2336.01 176.338 2337.01 177.584 Q2337.75 178.42 2337.9 179.355 Q2338.06 180.289 2338.06 182.716 L2338.06 189.127 Q2338.09 189.832 2338.63 189.996 Q2339.17 190.143 2340.68 190.143 L2340.68 191.176 Q2337.26 191.078 2336.91 191.078 Q2336.65 191.078 2333.12 191.176 L2333.12 190.143 Q2334.91 190.143 2335.32 189.93 Q2335.75 189.701 2335.75 188.618 L2335.75 180.798 Q2335.75 179.092 2335.22 178.092 Q2334.7 177.076 2333.26 177.076 Q2331.52 177.076 2330.12 178.535 Q2328.73 179.994 2328.73 182.454 L2328.73 188.618 Q2328.73 189.701 2329.14 189.93 Q2329.57 190.143 2331.34 190.143 L2331.34 191.176 Q2327.91 191.078 2327.58 191.078 Q2327.32 191.078 2323.8 191.176 Z" fill="#000000" fill-rule="nonzero" fill-opacity="1"></path><path clip-path="url(#clip040)" d="M2342.37 177.748 L2342.37 177.01 Q2343.91 176.945 2344.93 175.863 Q2345.96 174.764 2346.31 173.42 Q2346.67 172.075 2346.7 170.518 L2347.54 170.518 L2347.54 176.699 L2352.34 176.699 L2352.34 177.748 L2347.54 177.748 L2347.54 187.077 Q2347.54 190.701 2349.8 190.701 Q2350.77 190.701 2351.41 189.717 Q2352.05 188.717 2352.05 186.946 L2352.05 185.093 L2352.88 185.093 L2352.88 187.012 Q2352.88 188.832 2352.05 190.192 Q2351.21 191.553 2349.55 191.553 Q2348.95 191.553 2348.34 191.389 Q2347.75 191.242 2346.96 190.848 Q2346.19 190.438 2345.7 189.455 Q2345.23 188.454 2345.23 187.012 L2345.23 177.748 L2342.37 177.748 Z" fill="#000000" fill-rule="nonzero" fill-opacity="1"></path><path clip-path="url(#clip040)" d="M2373.69 170.006 Q2373.74 169.42 2374.65 169.42 L2404.04 169.42 Q2405.43 169.42 2405.45 169.959 Q2405.45 170.544 2404.14 170.521 L2374.98 170.521 Q2373.69 170.544 2373.69 170.006 M2373.69 160.637 Q2373.69 160.051 2374.7 160.075 L2404 160.075 Q2405.43 160.075 2405.45 160.637 Q2405.45 161.176 2404.23 161.176 L2374.65 161.176 Q2373.69 161.176 2373.69 160.637 Z" fill="#000000" fill-rule="nonzero" fill-opacity="1"></path><path clip-path="url(#clip040)" d="M2423.94 162.136 Q2423.94 154.594 2427.78 149.98 Q2431.62 145.342 2436.57 145.342 Q2439.45 145.342 2441.04 146.818 Q2442.66 148.27 2442.66 150.518 Q2442.66 151.76 2441.93 152.298 Q2441.2 152.837 2440.45 152.837 Q2439.59 152.837 2438.91 152.252 Q2438.23 151.666 2438.23 150.612 Q2438.23 148.457 2440.88 148.457 Q2439.63 146.536 2436.66 146.536 Q2435.75 146.536 2434.81 146.818 Q2433.87 147.075 2432.65 147.965 Q2431.44 148.855 2430.5 150.261 Q2429.56 151.666 2428.91 154.313 Q2428.25 156.959 2428.25 160.403 L2428.25 161.55 Q2430.22 156.796 2434.25 156.819 Q2438.28 156.819 2441.06 159.887 Q2443.85 162.956 2443.85 167.5 Q2443.85 172.161 2440.95 175.252 Q2438.04 178.344 2433.97 178.344 Q2432.14 178.344 2430.48 177.571 Q2428.84 176.822 2427.29 175.088 Q2425.77 173.355 2424.85 170.029 Q2423.94 166.703 2423.94 162.136 M2428.34 166.446 Q2428.34 171.153 2429.21 173.402 Q2429.35 173.777 2429.66 174.292 Q2429.98 174.807 2430.52 175.487 Q2431.08 176.142 2432 176.587 Q2432.91 177.009 2433.97 177.009 Q2437.17 177.009 2438.72 173.894 Q2439.54 172.161 2439.54 167.453 Q2439.54 162.651 2438.67 160.894 Q2437.2 157.92 2434.2 157.92 Q2432.19 157.92 2430.78 159.302 Q2429.4 160.684 2428.86 162.534 Q2428.34 164.384 2428.34 166.446 Z" fill="#000000" fill-rule="nonzero" fill-opacity="1"></path><polyline clip-path="url(#clip040)" style="stroke:#25ad1e; stroke-linecap:round; stroke-linejoin:round; stroke-width:6.4; stroke-opacity:1; fill:none" points="2102.74,219.784 2260.34,219.784 "></polyline>
<path clip-path="url(#clip040)" d="M2309.44 196.362 L2302.53 224.094 Q2302.25 225.336 2302.25 226.39 Q2302.25 228.591 2303.68 228.591 Q2304.38 228.591 2304.94 228.146 Q2305.51 227.701 2305.95 226.764 Q2306.4 225.828 2306.68 224.961 Q2306.96 224.071 2307.33 222.666 Q2307.45 222.103 2307.54 221.963 Q2307.66 221.799 2307.99 221.799 Q2308.57 221.799 2308.57 222.267 Q2307.94 225.289 2307.12 227.022 Q2305.81 229.669 2303.59 229.669 Q2301.9 229.669 2300.7 228.638 Q2299.51 227.608 2299.23 226.062 Q2296.16 229.669 2292.97 229.669 Q2290.16 229.669 2288.38 227.537 Q2286.6 225.383 2286.6 221.986 Q2286.6 218.567 2288.29 215.287 Q2290 212.008 2292.69 209.971 Q2295.39 207.933 2298.15 207.933 Q2301.08 207.933 2302.58 211.001 L2305.46 199.618 L2305.6 198.681 Q2305.6 198.4 2305.48 198.259 Q2305.39 198.095 2304.83 197.978 Q2304.29 197.861 2303.21 197.861 Q2302.77 197.861 2302.55 197.838 Q2302.37 197.814 2302.2 197.697 Q2302.04 197.557 2302.04 197.276 Q2302.04 196.456 2302.72 196.362 Q2307.22 195.847 2308.81 195.847 Q2309.09 195.847 2309.25 195.987 Q2309.42 196.105 2309.42 196.245 L2309.44 196.362 M2301.99 213.203 Q2301.99 212.992 2301.83 212.407 Q2301.66 211.821 2301.29 211.001 Q2300.92 210.181 2300.1 209.596 Q2299.3 208.987 2298.22 208.987 Q2296.77 208.987 2295.25 210.228 Q2293.75 211.47 2292.65 213.578 Q2291.8 215.264 2290.89 218.801 Q2290 222.338 2290 224.094 Q2290 225.172 2290.23 226.132 Q2290.49 227.069 2291.22 227.842 Q2291.94 228.591 2293.07 228.591 Q2295.81 228.591 2298.5 225.195 Q2299.02 224.61 2299.14 224.375 Q2299.28 224.118 2299.46 223.415 L2301.85 214.023 Q2301.99 213.32 2301.99 213.203 Z" fill="#000000" fill-rule="nonzero" fill-opacity="1"></path><path clip-path="url(#clip040)" d="M2314.32 243.016 L2314.32 241.983 Q2316.11 241.983 2316.52 241.77 Q2316.93 241.541 2316.93 240.458 L2316.93 231.424 Q2316.93 230.178 2316.5 229.883 Q2316.09 229.588 2314.45 229.588 L2314.45 228.539 L2319.14 228.178 L2319.14 240.491 Q2319.14 241.491 2319.5 241.737 Q2319.86 241.983 2321.5 241.983 L2321.5 243.016 Q2318.08 242.918 2318.01 242.918 Q2317.55 242.918 2314.32 243.016 M2315.73 222.325 Q2315.73 221.653 2316.24 221.111 Q2316.76 220.554 2317.5 220.554 Q2318.24 220.554 2318.76 221.062 Q2319.29 221.554 2319.29 222.341 Q2319.29 223.112 2318.76 223.62 Q2318.24 224.112 2317.5 224.112 Q2316.73 224.112 2316.22 223.571 Q2315.73 223.03 2315.73 222.325 Z" fill="#000000" fill-rule="nonzero" fill-opacity="1"></path><path clip-path="url(#clip040)" d="M2323.8 243.016 L2323.8 241.983 Q2325.58 241.983 2325.99 241.77 Q2326.4 241.541 2326.4 240.458 L2326.4 231.457 Q2326.4 230.211 2325.96 229.9 Q2325.53 229.588 2323.8 229.588 L2323.8 228.539 L2328.52 228.178 L2328.52 231.703 Q2330.09 228.178 2333.49 228.178 Q2336.01 228.178 2337.01 229.424 Q2337.75 230.26 2337.9 231.195 Q2338.06 232.129 2338.06 234.556 L2338.06 240.967 Q2338.09 241.672 2338.63 241.836 Q2339.17 241.983 2340.68 241.983 L2340.68 243.016 Q2337.26 242.918 2336.91 242.918 Q2336.65 242.918 2333.12 243.016 L2333.12 241.983 Q2334.91 241.983 2335.32 241.77 Q2335.75 241.541 2335.75 240.458 L2335.75 232.638 Q2335.75 230.932 2335.22 229.932 Q2334.7 228.916 2333.26 228.916 Q2331.52 228.916 2330.12 230.375 Q2328.73 231.834 2328.73 234.294 L2328.73 240.458 Q2328.73 241.541 2329.14 241.77 Q2329.57 241.983 2331.34 241.983 L2331.34 243.016 Q2327.91 242.918 2327.58 242.918 Q2327.32 242.918 2323.8 243.016 Z" fill="#000000" fill-rule="nonzero" fill-opacity="1"></path><path clip-path="url(#clip040)" d="M2342.37 229.588 L2342.37 228.85 Q2343.91 228.785 2344.93 227.703 Q2345.96 226.604 2346.31 225.26 Q2346.67 223.915 2346.7 222.358 L2347.54 222.358 L2347.54 228.539 L2352.34 228.539 L2352.34 229.588 L2347.54 229.588 L2347.54 238.917 Q2347.54 242.541 2349.8 242.541 Q2350.77 242.541 2351.41 241.557 Q2352.05 240.557 2352.05 238.786 L2352.05 236.933 L2352.88 236.933 L2352.88 238.852 Q2352.88 240.672 2352.05 242.032 Q2351.21 243.393 2349.55 243.393 Q2348.95 243.393 2348.34 243.229 Q2347.75 243.082 2346.96 242.688 Q2346.19 242.278 2345.7 241.295 Q2345.23 240.294 2345.23 238.852 L2345.23 229.588 L2342.37 229.588 Z" fill="#000000" fill-rule="nonzero" fill-opacity="1"></path><path clip-path="url(#clip040)" d="M2373.69 221.846 Q2373.74 221.26 2374.65 221.26 L2404.04 221.26 Q2405.43 221.26 2405.45 221.799 Q2405.45 222.384 2404.14 222.361 L2374.98 222.361 Q2373.69 222.384 2373.69 221.846 M2373.69 212.477 Q2373.69 211.891 2374.7 211.915 L2404 211.915 Q2405.43 211.915 2405.45 212.477 Q2405.45 213.016 2404.23 213.016 L2374.65 213.016 Q2373.69 213.016 2373.69 212.477 Z" fill="#000000" fill-rule="nonzero" fill-opacity="1"></path><path clip-path="url(#clip040)" d="M2423.94 221.213 L2423.94 219.738 L2438.67 197.229 Q2439.05 196.643 2439.63 196.667 Q2440.17 196.667 2440.29 196.877 Q2440.41 197.088 2440.41 197.908 L2440.41 219.738 L2445.21 219.738 L2445.21 221.213 L2440.41 221.213 L2440.41 225.383 Q2440.41 226.764 2440.97 227.21 Q2441.55 227.655 2444.04 227.655 L2445.04 227.655 L2445.04 229.13 Q2443.08 228.99 2438.53 228.99 Q2434.01 228.99 2432.04 229.13 L2432.04 227.655 L2433.05 227.655 Q2435.53 227.655 2436.12 227.233 Q2436.71 226.788 2436.71 225.383 L2436.71 221.213 L2423.94 221.213 M2425.3 219.738 L2436.99 219.738 L2436.99 201.843 L2425.3 219.738 Z" fill="#000000" fill-rule="nonzero" fill-opacity="1"></path></svg>