<svg xmlns="http://www.w3.org/2000/svg" xmlns:xlink="http://www.w3.org/1999/xlink" width="650" height="160" viewBox="0 0 2600 640">
<defs>
  <clipPath id="clip080">
    <rect x="0" y="0" width="2600" height="640"></rect>
  </clipPath>
</defs>
<path clip-path="url(#clip080)" d="M0 640 L2600 640 L2600 0 L0 0  Z" fill="#ffffff" fill-rule="evenodd" fill-opacity="1"></path>
<defs>
  <clipPath id="clip081">
    <rect x="520" y="0" width="1821" height="640"></rect>
  </clipPath>
</defs>
<path clip-path="url(#clip080)" d="M248.598 557.847 L2552.76 557.847 L2552.76 47.2441 L248.598 47.2441  Z" fill="#ffffff" fill-rule="evenodd" fill-opacity="1"></path>
<defs>
  <clipPath id="clip082">
    <rect x="248" y="47" width="2305" height="512"></rect>
  </clipPath>
</defs>
<polyline clip-path="url(#clip082)" style="stroke:#000000; stroke-linecap:round; stroke-linejoin:round; stroke-width:2; stroke-opacity:0.1; fill:none" points="313.81,557.847 313.81,47.2441 "></polyline>
<polyline clip-path="url(#clip082)" style="stroke:#000000; stroke-linecap:round; stroke-linejoin:round; stroke-width:2; stroke-opacity:0.1; fill:none" points="993.102,557.847 993.102,47.2441 "></polyline>
<polyline clip-path="url(#clip082)" style="stroke:#000000; stroke-linecap:round; stroke-linejoin:round; stroke-width:2; stroke-opacity:0.1; fill:none" points="1672.39,557.847 1672.39,47.2441 "></polyline>
<polyline clip-path="url(#clip082)" style="stroke:#000000; stroke-linecap:round; stroke-linejoin:round; stroke-width:2; stroke-opacity:0.1; fill:none" points="2351.69,557.847 2351.69,47.2441 "></polyline>
<polyline clip-path="url(#clip082)" style="stroke:#000000; stroke-linecap:round; stroke-linejoin:round; stroke-width:2; stroke-opacity:0.1; fill:none" points="248.598,501.305 2552.76,501.305 "></polyline>
<polyline clip-path="url(#clip082)" style="stroke:#000000; stroke-linecap:round; stroke-linejoin:round; stroke-width:2; stroke-opacity:0.1; fill:none" points="248.598,430.106 2552.76,430.106 "></polyline>
<polyline clip-path="url(#clip082)" style="stroke:#000000; stroke-linecap:round; stroke-linejoin:round; stroke-width:2; stroke-opacity:0.1; fill:none" points="248.598,358.907 2552.76,358.907 "></polyline>
<polyline clip-path="url(#clip082)" style="stroke:#000000; stroke-linecap:round; stroke-linejoin:round; stroke-width:2; stroke-opacity:0.1; fill:none" points="248.598,287.707 2552.76,287.707 "></polyline>
<polyline clip-path="url(#clip082)" style="stroke:#000000; stroke-linecap:round; stroke-linejoin:round; stroke-width:2; stroke-opacity:0.1; fill:none" points="248.598,216.508 2552.76,216.508 "></polyline>
<polyline clip-path="url(#clip082)" style="stroke:#000000; stroke-linecap:round; stroke-linejoin:round; stroke-width:2; stroke-opacity:0.1; fill:none" points="248.598,145.309 2552.76,145.309 "></polyline>
<polyline clip-path="url(#clip082)" style="stroke:#000000; stroke-linecap:round; stroke-linejoin:round; stroke-width:2; stroke-opacity:0.1; fill:none" points="248.598,74.1095 2552.76,74.1095 "></polyline>
<polyline clip-path="url(#clip080)" style="stroke:#000000; stroke-linecap:round; stroke-linejoin:round; stroke-width:4; stroke-opacity:1; fill:none" points="248.598,557.847 2552.76,557.847 "></polyline>
<polyline clip-path="url(#clip080)" style="stroke:#000000; stroke-linecap:round; stroke-linejoin:round; stroke-width:4; stroke-opacity:1; fill:none" points="313.81,557.847 313.81,538.95 "></polyline>
<polyline clip-path="url(#clip080)" style="stroke:#000000; stroke-linecap:round; stroke-linejoin:round; stroke-width:4; stroke-opacity:1; fill:none" points="993.102,557.847 993.102,538.95 "></polyline>
<polyline clip-path="url(#clip080)" style="stroke:#000000; stroke-linecap:round; stroke-linejoin:round; stroke-width:4; stroke-opacity:1; fill:none" points="1672.39,557.847 1672.39,538.95 "></polyline>
<polyline clip-path="url(#clip080)" style="stroke:#000000; stroke-linecap:round; stroke-linejoin:round; stroke-width:4; stroke-opacity:1; fill:none" points="2351.69,557.847 2351.69,538.95 "></polyline>
<path clip-path="url(#clip080)" d="M304.088 587.287 L322.444 587.287 L322.444 591.222 L308.37 591.222 L308.37 599.695 Q309.389 599.347 310.407 599.185 Q311.426 599 312.444 599 Q318.231 599 321.611 602.171 Q324.99 605.343 324.99 610.759 Q324.99 616.338 321.518 619.44 Q318.046 622.519 311.726 622.519 Q309.551 622.519 307.282 622.148 Q305.037 621.778 302.629 621.037 L302.629 616.338 Q304.713 617.472 306.935 618.028 Q309.157 618.583 311.634 618.583 Q315.638 618.583 317.976 616.477 Q320.314 614.37 320.314 610.759 Q320.314 607.148 317.976 605.042 Q315.638 602.935 311.634 602.935 Q309.759 602.935 307.884 603.352 Q306.032 603.769 304.088 604.648 L304.088 587.287 Z" fill="#000000" fill-rule="nonzero" fill-opacity="1"></path><path clip-path="url(#clip080)" d="M967.789 617.912 L975.428 617.912 L975.428 591.546 L967.118 593.213 L967.118 588.954 L975.382 587.287 L980.058 587.287 L980.058 617.912 L987.697 617.912 L987.697 621.847 L967.789 621.847 L967.789 617.912 Z" fill="#000000" fill-rule="nonzero" fill-opacity="1"></path><path clip-path="url(#clip080)" d="M1007.14 590.366 Q1003.53 590.366 1001.7 593.931 Q999.896 597.472 999.896 604.602 Q999.896 611.708 1001.7 615.273 Q1003.53 618.815 1007.14 618.815 Q1010.78 618.815 1012.58 615.273 Q1014.41 611.708 1014.41 604.602 Q1014.41 597.472 1012.58 593.931 Q1010.78 590.366 1007.14 590.366 M1007.14 586.662 Q1012.95 586.662 1016.01 591.269 Q1019.09 595.852 1019.09 604.602 Q1019.09 613.329 1016.01 617.935 Q1012.95 622.519 1007.14 622.519 Q1001.33 622.519 998.252 617.935 Q995.197 613.329 995.197 604.602 Q995.197 595.852 998.252 591.269 Q1001.33 586.662 1007.14 586.662 Z" fill="#000000" fill-rule="nonzero" fill-opacity="1"></path><path clip-path="url(#clip080)" d="M1647.58 617.912 L1655.22 617.912 L1655.22 591.546 L1646.91 593.213 L1646.91 588.954 L1655.17 587.287 L1659.85 587.287 L1659.85 617.912 L1667.49 617.912 L1667.49 621.847 L1647.58 621.847 L1647.58 617.912 Z" fill="#000000" fill-rule="nonzero" fill-opacity="1"></path><path clip-path="url(#clip080)" d="M1676.98 587.287 L1695.33 587.287 L1695.33 591.222 L1681.26 591.222 L1681.26 599.695 Q1682.28 599.347 1683.3 599.185 Q1684.31 599 1685.33 599 Q1691.12 599 1694.5 602.171 Q1697.88 605.343 1697.88 610.759 Q1697.88 616.338 1694.41 619.44 Q1690.94 622.519 1684.62 622.519 Q1682.44 622.519 1680.17 622.148 Q1677.93 621.778 1675.52 621.037 L1675.52 616.338 Q1677.6 617.472 1679.82 618.028 Q1682.05 618.583 1684.52 618.583 Q1688.53 618.583 1690.87 616.477 Q1693.2 614.37 1693.2 610.759 Q1693.2 607.148 1690.87 605.042 Q1688.53 602.935 1684.52 602.935 Q1682.65 602.935 1680.77 603.352 Q1678.92 603.769 1676.98 604.648 L1676.98 587.287 Z" fill="#000000" fill-rule="nonzero" fill-opacity="1"></path><path clip-path="url(#clip080)" d="M2330.46 617.912 L2346.78 617.912 L2346.78 621.847 L2324.83 621.847 L2324.83 617.912 Q2327.5 615.157 2332.08 610.528 Q2336.69 605.875 2337.87 604.533 Q2340.11 602.009 2340.99 600.273 Q2341.89 598.514 2341.89 596.824 Q2341.89 594.07 2339.95 592.334 Q2338.03 590.597 2334.93 590.597 Q2332.73 590.597 2330.27 591.361 Q2327.84 592.125 2325.07 593.676 L2325.07 588.954 Q2327.89 587.82 2330.34 587.241 Q2332.8 586.662 2334.83 586.662 Q2340.2 586.662 2343.4 589.347 Q2346.59 592.033 2346.59 596.523 Q2346.59 598.653 2345.78 600.574 Q2345 602.472 2342.89 605.065 Q2342.31 605.736 2339.21 608.954 Q2336.11 612.148 2330.46 617.912 Z" fill="#000000" fill-rule="nonzero" fill-opacity="1"></path><path clip-path="url(#clip080)" d="M2366.59 590.366 Q2362.98 590.366 2361.15 593.931 Q2359.35 597.472 2359.35 604.602 Q2359.35 611.708 2361.15 615.273 Q2362.98 618.815 2366.59 618.815 Q2370.23 618.815 2372.03 615.273 Q2373.86 611.708 2373.86 604.602 Q2373.86 597.472 2372.03 593.931 Q2370.23 590.366 2366.59 590.366 M2366.59 586.662 Q2372.4 586.662 2375.46 591.269 Q2378.54 595.852 2378.54 604.602 Q2378.54 613.329 2375.46 617.935 Q2372.4 622.519 2366.59 622.519 Q2360.78 622.519 2357.7 617.935 Q2354.65 613.329 2354.65 604.602 Q2354.65 595.852 2357.7 591.269 Q2360.78 586.662 2366.59 586.662 Z" fill="#000000" fill-rule="nonzero" fill-opacity="1"></path><polyline clip-path="url(#clip080)" style="stroke:#000000; stroke-linecap:round; stroke-linejoin:round; stroke-width:4; stroke-opacity:1; fill:none" points="248.598,557.847 248.598,47.2441 "></polyline>
<polyline clip-path="url(#clip080)" style="stroke:#000000; stroke-linecap:round; stroke-linejoin:round; stroke-width:4; stroke-opacity:1; fill:none" points="248.598,501.305 267.495,501.305 "></polyline>
<polyline clip-path="url(#clip080)" style="stroke:#000000; stroke-linecap:round; stroke-linejoin:round; stroke-width:4; stroke-opacity:1; fill:none" points="248.598,430.106 267.495,430.106 "></polyline>
<polyline clip-path="url(#clip080)" style="stroke:#000000; stroke-linecap:round; stroke-linejoin:round; stroke-width:4; stroke-opacity:1; fill:none" points="248.598,358.907 267.495,358.907 "></polyline>
<polyline clip-path="url(#clip080)" style="stroke:#000000; stroke-linecap:round; stroke-linejoin:round; stroke-width:4; stroke-opacity:1; fill:none" points="248.598,287.707 267.495,287.707 "></polyline>
<polyline clip-path="url(#clip080)" style="stroke:#000000; stroke-linecap:round; stroke-linejoin:round; stroke-width:4; stroke-opacity:1; fill:none" points="248.598,216.508 267.495,216.508 "></polyline>
<polyline clip-path="url(#clip080)" style="stroke:#000000; stroke-linecap:round; stroke-linejoin:round; stroke-width:4; stroke-opacity:1; fill:none" points="248.598,145.309 267.495,145.309 "></polyline>
<polyline clip-path="url(#clip080)" style="stroke:#000000; stroke-linecap:round; stroke-linejoin:round; stroke-width:4; stroke-opacity:1; fill:none" points="248.598,74.1095 267.495,74.1095 "></polyline>
<path clip-path="url(#clip080)" d="M62.9319 487.104 Q59.3208 487.104 57.4921 490.669 Q55.6865 494.21 55.6865 501.34 Q55.6865 508.446 57.4921 512.011 Q59.3208 515.553 62.9319 515.553 Q66.5661 515.553 68.3717 512.011 Q70.2004 508.446 70.2004 501.34 Q70.2004 494.21 68.3717 490.669 Q66.5661 487.104 62.9319 487.104 M62.9319 483.4 Q68.742 483.4 71.7976 488.007 Q74.8763 492.59 74.8763 501.34 Q74.8763 510.067 71.7976 514.673 Q68.742 519.257 62.9319 519.257 Q57.1217 519.257 54.043 514.673 Q50.9875 510.067 50.9875 501.34 Q50.9875 492.59 54.043 488.007 Q57.1217 483.4 62.9319 483.4 Z" fill="#000000" fill-rule="nonzero" fill-opacity="1"></path><path clip-path="url(#clip080)" d="M83.0938 512.706 L87.978 512.706 L87.978 518.585 L83.0938 518.585 L83.0938 512.706 Z" fill="#000000" fill-rule="nonzero" fill-opacity="1"></path><path clip-path="url(#clip080)" d="M108.163 487.104 Q104.552 487.104 102.723 490.669 Q100.918 494.21 100.918 501.34 Q100.918 508.446 102.723 512.011 Q104.552 515.553 108.163 515.553 Q111.797 515.553 113.603 512.011 Q115.432 508.446 115.432 501.34 Q115.432 494.21 113.603 490.669 Q111.797 487.104 108.163 487.104 M108.163 483.4 Q113.973 483.4 117.029 488.007 Q120.107 492.59 120.107 501.34 Q120.107 510.067 117.029 514.673 Q113.973 519.257 108.163 519.257 Q102.353 519.257 99.2743 514.673 Q96.2187 510.067 96.2187 501.34 Q96.2187 492.59 99.2743 488.007 Q102.353 483.4 108.163 483.4 Z" fill="#000000" fill-rule="nonzero" fill-opacity="1"></path><path clip-path="url(#clip080)" d="M129.135 514.65 L136.774 514.65 L136.774 488.285 L128.464 489.951 L128.464 485.692 L136.728 484.025 L141.404 484.025 L141.404 514.65 L149.043 514.65 L149.043 518.585 L129.135 518.585 L129.135 514.65 Z" fill="#000000" fill-rule="nonzero" fill-opacity="1"></path><path clip-path="url(#clip080)" d="M157.306 484.025 L179.528 484.025 L179.528 486.016 L166.982 518.585 L162.098 518.585 L173.903 487.96 L157.306 487.96 L157.306 484.025 Z" fill="#000000" fill-rule="nonzero" fill-opacity="1"></path><path clip-path="url(#clip080)" d="M188.695 484.025 L207.051 484.025 L207.051 487.96 L192.977 487.96 L192.977 496.433 Q193.996 496.085 195.014 495.923 Q196.033 495.738 197.052 495.738 Q202.839 495.738 206.218 498.91 Q209.598 502.081 209.598 507.497 Q209.598 513.076 206.126 516.178 Q202.653 519.257 196.334 519.257 Q194.158 519.257 191.89 518.886 Q189.644 518.516 187.237 517.775 L187.237 513.076 Q189.32 514.21 191.542 514.766 Q193.765 515.321 196.241 515.321 Q200.246 515.321 202.584 513.215 Q204.922 511.109 204.922 507.497 Q204.922 503.886 202.584 501.78 Q200.246 499.673 196.241 499.673 Q194.366 499.673 192.491 500.09 Q190.64 500.507 188.695 501.386 L188.695 484.025 Z" fill="#000000" fill-rule="nonzero" fill-opacity="1"></path><path clip-path="url(#clip080)" d="M61.9365 415.905 Q58.3254 415.905 56.4967 419.469 Q54.6912 423.011 54.6912 430.141 Q54.6912 437.247 56.4967 440.812 Q58.3254 444.354 61.9365 444.354 Q65.5707 444.354 67.3763 440.812 Q69.205 437.247 69.205 430.141 Q69.205 423.011 67.3763 419.469 Q65.5707 415.905 61.9365 415.905 M61.9365 412.201 Q67.7467 412.201 70.8022 416.807 Q73.8809 421.391 73.8809 430.141 Q73.8809 438.868 70.8022 443.474 Q67.7467 448.057 61.9365 448.057 Q56.1264 448.057 53.0477 443.474 Q49.9921 438.868 49.9921 430.141 Q49.9921 421.391 53.0477 416.807 Q56.1264 412.201 61.9365 412.201 Z" fill="#000000" fill-rule="nonzero" fill-opacity="1"></path><path clip-path="url(#clip080)" d="M82.0984 441.506 L86.9827 441.506 L86.9827 447.386 L82.0984 447.386 L82.0984 441.506 Z" fill="#000000" fill-rule="nonzero" fill-opacity="1"></path><path clip-path="url(#clip080)" d="M107.168 415.905 Q103.557 415.905 101.728 419.469 Q99.9224 423.011 99.9224 430.141 Q99.9224 437.247 101.728 440.812 Q103.557 444.354 107.168 444.354 Q110.802 444.354 112.608 440.812 Q114.436 437.247 114.436 430.141 Q114.436 423.011 112.608 419.469 Q110.802 415.905 107.168 415.905 M107.168 412.201 Q112.978 412.201 116.033 416.807 Q119.112 421.391 119.112 430.141 Q119.112 438.868 116.033 443.474 Q112.978 448.057 107.168 448.057 Q101.358 448.057 98.2789 443.474 Q95.2234 438.868 95.2234 430.141 Q95.2234 421.391 98.2789 416.807 Q101.358 412.201 107.168 412.201 Z" fill="#000000" fill-rule="nonzero" fill-opacity="1"></path><path clip-path="url(#clip080)" d="M131.357 443.451 L147.677 443.451 L147.677 447.386 L125.732 447.386 L125.732 443.451 Q128.394 440.696 132.978 436.067 Q137.584 431.414 138.765 430.071 Q141.01 427.548 141.89 425.812 Q142.793 424.053 142.793 422.363 Q142.793 419.608 140.848 417.872 Q138.927 416.136 135.825 416.136 Q133.626 416.136 131.172 416.9 Q128.742 417.664 125.964 419.215 L125.964 414.493 Q128.788 413.358 131.242 412.78 Q133.695 412.201 135.732 412.201 Q141.103 412.201 144.297 414.886 Q147.492 417.571 147.492 422.062 Q147.492 424.192 146.681 426.113 Q145.894 428.011 143.788 430.604 Q143.209 431.275 140.107 434.493 Q137.006 437.687 131.357 443.451 Z" fill="#000000" fill-rule="nonzero" fill-opacity="1"></path><path clip-path="url(#clip080)" d="M167.491 415.905 Q163.88 415.905 162.052 419.469 Q160.246 423.011 160.246 430.141 Q160.246 437.247 162.052 440.812 Q163.88 444.354 167.491 444.354 Q171.126 444.354 172.931 440.812 Q174.76 437.247 174.76 430.141 Q174.76 423.011 172.931 419.469 Q171.126 415.905 167.491 415.905 M167.491 412.201 Q173.302 412.201 176.357 416.807 Q179.436 421.391 179.436 430.141 Q179.436 438.868 176.357 443.474 Q173.302 448.057 167.491 448.057 Q161.681 448.057 158.603 443.474 Q155.547 438.868 155.547 430.141 Q155.547 421.391 158.603 416.807 Q161.681 412.201 167.491 412.201 Z" fill="#000000" fill-rule="nonzero" fill-opacity="1"></path><path clip-path="url(#clip080)" d="M197.653 415.905 Q194.042 415.905 192.214 419.469 Q190.408 423.011 190.408 430.141 Q190.408 437.247 192.214 440.812 Q194.042 444.354 197.653 444.354 Q201.288 444.354 203.093 440.812 Q204.922 437.247 204.922 430.141 Q204.922 423.011 203.093 419.469 Q201.288 415.905 197.653 415.905 M197.653 412.201 Q203.464 412.201 206.519 416.807 Q209.598 421.391 209.598 430.141 Q209.598 438.868 206.519 443.474 Q203.464 448.057 197.653 448.057 Q191.843 448.057 188.765 443.474 Q185.709 438.868 185.709 430.141 Q185.709 421.391 188.765 416.807 Q191.843 412.201 197.653 412.201 Z" fill="#000000" fill-rule="nonzero" fill-opacity="1"></path><path clip-path="url(#clip080)" d="M62.9319 344.705 Q59.3208 344.705 57.4921 348.27 Q55.6865 351.812 55.6865 358.941 Q55.6865 366.048 57.4921 369.613 Q59.3208 373.154 62.9319 373.154 Q66.5661 373.154 68.3717 369.613 Q70.2004 366.048 70.2004 358.941 Q70.2004 351.812 68.3717 348.27 Q66.5661 344.705 62.9319 344.705 M62.9319 341.002 Q68.742 341.002 71.7976 345.608 Q74.8763 350.191 74.8763 358.941 Q74.8763 367.668 71.7976 372.275 Q68.742 376.858 62.9319 376.858 Q57.1217 376.858 54.043 372.275 Q50.9875 367.668 50.9875 358.941 Q50.9875 350.191 54.043 345.608 Q57.1217 341.002 62.9319 341.002 Z" fill="#000000" fill-rule="nonzero" fill-opacity="1"></path><path clip-path="url(#clip080)" d="M83.0938 370.307 L87.978 370.307 L87.978 376.187 L83.0938 376.187 L83.0938 370.307 Z" fill="#000000" fill-rule="nonzero" fill-opacity="1"></path><path clip-path="url(#clip080)" d="M108.163 344.705 Q104.552 344.705 102.723 348.27 Q100.918 351.812 100.918 358.941 Q100.918 366.048 102.723 369.613 Q104.552 373.154 108.163 373.154 Q111.797 373.154 113.603 369.613 Q115.432 366.048 115.432 358.941 Q115.432 351.812 113.603 348.27 Q111.797 344.705 108.163 344.705 M108.163 341.002 Q113.973 341.002 117.029 345.608 Q120.107 350.191 120.107 358.941 Q120.107 367.668 117.029 372.275 Q113.973 376.858 108.163 376.858 Q102.353 376.858 99.2743 372.275 Q96.2187 367.668 96.2187 358.941 Q96.2187 350.191 99.2743 345.608 Q102.353 341.002 108.163 341.002 Z" fill="#000000" fill-rule="nonzero" fill-opacity="1"></path><path clip-path="url(#clip080)" d="M132.353 372.252 L148.672 372.252 L148.672 376.187 L126.728 376.187 L126.728 372.252 Q129.39 369.497 133.973 364.867 Q138.58 360.215 139.76 358.872 Q142.006 356.349 142.885 354.613 Q143.788 352.853 143.788 351.164 Q143.788 348.409 141.843 346.673 Q139.922 344.937 136.82 344.937 Q134.621 344.937 132.168 345.701 Q129.737 346.465 126.959 348.016 L126.959 343.293 Q129.783 342.159 132.237 341.58 Q134.691 341.002 136.728 341.002 Q142.098 341.002 145.293 343.687 Q148.487 346.372 148.487 350.863 Q148.487 352.992 147.677 354.914 Q146.89 356.812 144.783 359.404 Q144.205 360.076 141.103 363.293 Q138.001 366.488 132.353 372.252 Z" fill="#000000" fill-rule="nonzero" fill-opacity="1"></path><path clip-path="url(#clip080)" d="M162.515 372.252 L178.834 372.252 L178.834 376.187 L156.89 376.187 L156.89 372.252 Q159.552 369.497 164.135 364.867 Q168.741 360.215 169.922 358.872 Q172.167 356.349 173.047 354.613 Q173.95 352.853 173.95 351.164 Q173.95 348.409 172.005 346.673 Q170.084 344.937 166.982 344.937 Q164.783 344.937 162.329 345.701 Q159.899 346.465 157.121 348.016 L157.121 343.293 Q159.945 342.159 162.399 341.58 Q164.853 341.002 166.89 341.002 Q172.26 341.002 175.454 343.687 Q178.649 346.372 178.649 350.863 Q178.649 352.992 177.839 354.914 Q177.052 356.812 174.945 359.404 Q174.366 360.076 171.265 363.293 Q168.163 366.488 162.515 372.252 Z" fill="#000000" fill-rule="nonzero" fill-opacity="1"></path><path clip-path="url(#clip080)" d="M188.695 341.627 L207.051 341.627 L207.051 345.562 L192.977 345.562 L192.977 354.034 Q193.996 353.687 195.014 353.525 Q196.033 353.34 197.052 353.34 Q202.839 353.34 206.218 356.511 Q209.598 359.682 209.598 365.099 Q209.598 370.677 206.126 373.779 Q202.653 376.858 196.334 376.858 Q194.158 376.858 191.89 376.488 Q189.644 376.117 187.237 375.377 L187.237 370.677 Q189.32 371.812 191.542 372.367 Q193.765 372.923 196.241 372.923 Q200.246 372.923 202.584 370.816 Q204.922 368.71 204.922 365.099 Q204.922 361.488 202.584 359.381 Q200.246 357.275 196.241 357.275 Q194.366 357.275 192.491 357.691 Q190.64 358.108 188.695 358.988 L188.695 341.627 Z" fill="#000000" fill-rule="nonzero" fill-opacity="1"></path><path clip-path="url(#clip080)" d="M61.9365 273.506 Q58.3254 273.506 56.4967 277.071 Q54.6912 280.613 54.6912 287.742 Q54.6912 294.849 56.4967 298.413 Q58.3254 301.955 61.9365 301.955 Q65.5707 301.955 67.3763 298.413 Q69.205 294.849 69.205 287.742 Q69.205 280.613 67.3763 277.071 Q65.5707 273.506 61.9365 273.506 M61.9365 269.802 Q67.7467 269.802 70.8022 274.409 Q73.8809 278.992 73.8809 287.742 Q73.8809 296.469 70.8022 301.075 Q67.7467 305.659 61.9365 305.659 Q56.1264 305.659 53.0477 301.075 Q49.9921 296.469 49.9921 287.742 Q49.9921 278.992 53.0477 274.409 Q56.1264 269.802 61.9365 269.802 Z" fill="#000000" fill-rule="nonzero" fill-opacity="1"></path><path clip-path="url(#clip080)" d="M82.0984 299.108 L86.9827 299.108 L86.9827 304.987 L82.0984 304.987 L82.0984 299.108 Z" fill="#000000" fill-rule="nonzero" fill-opacity="1"></path><path clip-path="url(#clip080)" d="M107.168 273.506 Q103.557 273.506 101.728 277.071 Q99.9224 280.613 99.9224 287.742 Q99.9224 294.849 101.728 298.413 Q103.557 301.955 107.168 301.955 Q110.802 301.955 112.608 298.413 Q114.436 294.849 114.436 287.742 Q114.436 280.613 112.608 277.071 Q110.802 273.506 107.168 273.506 M107.168 269.802 Q112.978 269.802 116.033 274.409 Q119.112 278.992 119.112 287.742 Q119.112 296.469 116.033 301.075 Q112.978 305.659 107.168 305.659 Q101.358 305.659 98.2789 301.075 Q95.2234 296.469 95.2234 287.742 Q95.2234 278.992 98.2789 274.409 Q101.358 269.802 107.168 269.802 Z" fill="#000000" fill-rule="nonzero" fill-opacity="1"></path><path clip-path="url(#clip080)" d="M131.357 301.052 L147.677 301.052 L147.677 304.987 L125.732 304.987 L125.732 301.052 Q128.394 298.298 132.978 293.668 Q137.584 289.015 138.765 287.673 Q141.01 285.15 141.89 283.413 Q142.793 281.654 142.793 279.964 Q142.793 277.21 140.848 275.474 Q138.927 273.738 135.825 273.738 Q133.626 273.738 131.172 274.501 Q128.742 275.265 125.964 276.816 L125.964 272.094 Q128.788 270.96 131.242 270.381 Q133.695 269.802 135.732 269.802 Q141.103 269.802 144.297 272.488 Q147.492 275.173 147.492 279.663 Q147.492 281.793 146.681 283.714 Q145.894 285.613 143.788 288.205 Q143.209 288.876 140.107 292.094 Q137.006 295.288 131.357 301.052 Z" fill="#000000" fill-rule="nonzero" fill-opacity="1"></path><path clip-path="url(#clip080)" d="M157.538 270.427 L175.894 270.427 L175.894 274.363 L161.82 274.363 L161.82 282.835 Q162.839 282.488 163.857 282.325 Q164.876 282.14 165.894 282.14 Q171.681 282.14 175.061 285.312 Q178.441 288.483 178.441 293.899 Q178.441 299.478 174.968 302.58 Q171.496 305.659 165.177 305.659 Q163.001 305.659 160.732 305.288 Q158.487 304.918 156.08 304.177 L156.08 299.478 Q158.163 300.612 160.385 301.168 Q162.607 301.724 165.084 301.724 Q169.089 301.724 171.427 299.617 Q173.765 297.511 173.765 293.899 Q173.765 290.288 171.427 288.182 Q169.089 286.075 165.084 286.075 Q163.209 286.075 161.334 286.492 Q159.482 286.909 157.538 287.788 L157.538 270.427 Z" fill="#000000" fill-rule="nonzero" fill-opacity="1"></path><path clip-path="url(#clip080)" d="M197.653 273.506 Q194.042 273.506 192.214 277.071 Q190.408 280.613 190.408 287.742 Q190.408 294.849 192.214 298.413 Q194.042 301.955 197.653 301.955 Q201.288 301.955 203.093 298.413 Q204.922 294.849 204.922 287.742 Q204.922 280.613 203.093 277.071 Q201.288 273.506 197.653 273.506 M197.653 269.802 Q203.464 269.802 206.519 274.409 Q209.598 278.992 209.598 287.742 Q209.598 296.469 206.519 301.075 Q203.464 305.659 197.653 305.659 Q191.843 305.659 188.765 301.075 Q185.709 296.469 185.709 287.742 Q185.709 278.992 188.765 274.409 Q191.843 269.802 197.653 269.802 Z" fill="#000000" fill-rule="nonzero" fill-opacity="1"></path><path clip-path="url(#clip080)" d="M62.9319 202.307 Q59.3208 202.307 57.4921 205.872 Q55.6865 209.413 55.6865 216.543 Q55.6865 223.649 57.4921 227.214 Q59.3208 230.756 62.9319 230.756 Q66.5661 230.756 68.3717 227.214 Q70.2004 223.649 70.2004 216.543 Q70.2004 209.413 68.3717 205.872 Q66.5661 202.307 62.9319 202.307 M62.9319 198.603 Q68.742 198.603 71.7976 203.21 Q74.8763 207.793 74.8763 216.543 Q74.8763 225.27 71.7976 229.876 Q68.742 234.459 62.9319 234.459 Q57.1217 234.459 54.043 229.876 Q50.9875 225.27 50.9875 216.543 Q50.9875 207.793 54.043 203.21 Q57.1217 198.603 62.9319 198.603 Z" fill="#000000" fill-rule="nonzero" fill-opacity="1"></path><path clip-path="url(#clip080)" d="M83.0938 227.908 L87.978 227.908 L87.978 233.788 L83.0938 233.788 L83.0938 227.908 Z" fill="#000000" fill-rule="nonzero" fill-opacity="1"></path><path clip-path="url(#clip080)" d="M108.163 202.307 Q104.552 202.307 102.723 205.872 Q100.918 209.413 100.918 216.543 Q100.918 223.649 102.723 227.214 Q104.552 230.756 108.163 230.756 Q111.797 230.756 113.603 227.214 Q115.432 223.649 115.432 216.543 Q115.432 209.413 113.603 205.872 Q111.797 202.307 108.163 202.307 M108.163 198.603 Q113.973 198.603 117.029 203.21 Q120.107 207.793 120.107 216.543 Q120.107 225.27 117.029 229.876 Q113.973 234.459 108.163 234.459 Q102.353 234.459 99.2743 229.876 Q96.2187 225.27 96.2187 216.543 Q96.2187 207.793 99.2743 203.21 Q102.353 198.603 108.163 198.603 Z" fill="#000000" fill-rule="nonzero" fill-opacity="1"></path><path clip-path="url(#clip080)" d="M132.353 229.853 L148.672 229.853 L148.672 233.788 L126.728 233.788 L126.728 229.853 Q129.39 227.098 133.973 222.469 Q138.58 217.816 139.76 216.473 Q142.006 213.95 142.885 212.214 Q143.788 210.455 143.788 208.765 Q143.788 206.01 141.843 204.274 Q139.922 202.538 136.82 202.538 Q134.621 202.538 132.168 203.302 Q129.737 204.066 126.959 205.617 L126.959 200.895 Q129.783 199.76 132.237 199.182 Q134.691 198.603 136.728 198.603 Q142.098 198.603 145.293 201.288 Q148.487 203.973 148.487 208.464 Q148.487 210.594 147.677 212.515 Q146.89 214.413 144.783 217.006 Q144.205 217.677 141.103 220.895 Q138.001 224.089 132.353 229.853 Z" fill="#000000" fill-rule="nonzero" fill-opacity="1"></path><path clip-path="url(#clip080)" d="M157.306 199.228 L179.528 199.228 L179.528 201.219 L166.982 233.788 L162.098 233.788 L173.903 203.163 L157.306 203.163 L157.306 199.228 Z" fill="#000000" fill-rule="nonzero" fill-opacity="1"></path><path clip-path="url(#clip080)" d="M188.695 199.228 L207.051 199.228 L207.051 203.163 L192.977 203.163 L192.977 211.635 Q193.996 211.288 195.014 211.126 Q196.033 210.941 197.052 210.941 Q202.839 210.941 206.218 214.112 Q209.598 217.284 209.598 222.7 Q209.598 228.279 206.126 231.381 Q202.653 234.459 196.334 234.459 Q194.158 234.459 191.89 234.089 Q189.644 233.719 187.237 232.978 L187.237 228.279 Q189.32 229.413 191.542 229.969 Q193.765 230.524 196.241 230.524 Q200.246 230.524 202.584 228.418 Q204.922 226.311 204.922 222.7 Q204.922 219.089 202.584 216.983 Q200.246 214.876 196.241 214.876 Q194.366 214.876 192.491 215.293 Q190.64 215.709 188.695 216.589 L188.695 199.228 Z" fill="#000000" fill-rule="nonzero" fill-opacity="1"></path><path clip-path="url(#clip080)" d="M61.9365 131.107 Q58.3254 131.107 56.4967 134.672 Q54.6912 138.214 54.6912 145.344 Q54.6912 152.45 56.4967 156.015 Q58.3254 159.556 61.9365 159.556 Q65.5707 159.556 67.3763 156.015 Q69.205 152.45 69.205 145.344 Q69.205 138.214 67.3763 134.672 Q65.5707 131.107 61.9365 131.107 M61.9365 127.404 Q67.7467 127.404 70.8022 132.01 Q73.8809 136.594 73.8809 145.344 Q73.8809 154.07 70.8022 158.677 Q67.7467 163.26 61.9365 163.26 Q56.1264 163.26 53.0477 158.677 Q49.9921 154.07 49.9921 145.344 Q49.9921 136.594 53.0477 132.01 Q56.1264 127.404 61.9365 127.404 Z" fill="#000000" fill-rule="nonzero" fill-opacity="1"></path><path clip-path="url(#clip080)" d="M82.0984 156.709 L86.9827 156.709 L86.9827 162.589 L82.0984 162.589 L82.0984 156.709 Z" fill="#000000" fill-rule="nonzero" fill-opacity="1"></path><path clip-path="url(#clip080)" d="M107.168 131.107 Q103.557 131.107 101.728 134.672 Q99.9224 138.214 99.9224 145.344 Q99.9224 152.45 101.728 156.015 Q103.557 159.556 107.168 159.556 Q110.802 159.556 112.608 156.015 Q114.436 152.45 114.436 145.344 Q114.436 138.214 112.608 134.672 Q110.802 131.107 107.168 131.107 M107.168 127.404 Q112.978 127.404 116.033 132.01 Q119.112 136.594 119.112 145.344 Q119.112 154.07 116.033 158.677 Q112.978 163.26 107.168 163.26 Q101.358 163.26 98.2789 158.677 Q95.2234 154.07 95.2234 145.344 Q95.2234 136.594 98.2789 132.01 Q101.358 127.404 107.168 127.404 Z" fill="#000000" fill-rule="nonzero" fill-opacity="1"></path><path clip-path="url(#clip080)" d="M141.496 143.955 Q144.853 144.672 146.728 146.941 Q148.626 149.209 148.626 152.543 Q148.626 157.658 145.107 160.459 Q141.589 163.26 135.107 163.26 Q132.931 163.26 130.617 162.82 Q128.325 162.404 125.871 161.547 L125.871 157.033 Q127.816 158.168 130.131 158.746 Q132.445 159.325 134.969 159.325 Q139.367 159.325 141.658 157.589 Q143.973 155.853 143.973 152.543 Q143.973 149.487 141.82 147.774 Q139.691 146.038 135.871 146.038 L131.844 146.038 L131.844 142.195 L136.056 142.195 Q139.506 142.195 141.334 140.83 Q143.163 139.441 143.163 136.848 Q143.163 134.186 141.265 132.774 Q139.39 131.339 135.871 131.339 Q133.95 131.339 131.751 131.756 Q129.552 132.172 126.913 133.052 L126.913 128.885 Q129.575 128.145 131.89 127.774 Q134.228 127.404 136.288 127.404 Q141.612 127.404 144.714 129.834 Q147.816 132.242 147.816 136.362 Q147.816 139.232 146.172 141.223 Q144.529 143.191 141.496 143.955 Z" fill="#000000" fill-rule="nonzero" fill-opacity="1"></path><path clip-path="url(#clip080)" d="M167.491 131.107 Q163.88 131.107 162.052 134.672 Q160.246 138.214 160.246 145.344 Q160.246 152.45 162.052 156.015 Q163.88 159.556 167.491 159.556 Q171.126 159.556 172.931 156.015 Q174.76 152.45 174.76 145.344 Q174.76 138.214 172.931 134.672 Q171.126 131.107 167.491 131.107 M167.491 127.404 Q173.302 127.404 176.357 132.01 Q179.436 136.594 179.436 145.344 Q179.436 154.07 176.357 158.677 Q173.302 163.26 167.491 163.26 Q161.681 163.26 158.603 158.677 Q155.547 154.07 155.547 145.344 Q155.547 136.594 158.603 132.01 Q161.681 127.404 167.491 127.404 Z" fill="#000000" fill-rule="nonzero" fill-opacity="1"></path><path clip-path="url(#clip080)" d="M197.653 131.107 Q194.042 131.107 192.214 134.672 Q190.408 138.214 190.408 145.344 Q190.408 152.45 192.214 156.015 Q194.042 159.556 197.653 159.556 Q201.288 159.556 203.093 156.015 Q204.922 152.45 204.922 145.344 Q204.922 138.214 203.093 134.672 Q201.288 131.107 197.653 131.107 M197.653 127.404 Q203.464 127.404 206.519 132.01 Q209.598 136.594 209.598 145.344 Q209.598 154.07 206.519 158.677 Q203.464 163.26 197.653 163.26 Q191.843 163.26 188.765 158.677 Q185.709 154.07 185.709 145.344 Q185.709 136.594 188.765 132.01 Q191.843 127.404 197.653 127.404 Z" fill="#000000" fill-rule="nonzero" fill-opacity="1"></path><path clip-path="url(#clip080)" d="M62.9319 59.9082 Q59.3208 59.9082 57.4921 63.473 Q55.6865 67.0146 55.6865 74.1442 Q55.6865 81.2506 57.4921 84.8154 Q59.3208 88.3571 62.9319 88.3571 Q66.5661 88.3571 68.3717 84.8154 Q70.2004 81.2506 70.2004 74.1442 Q70.2004 67.0146 68.3717 63.473 Q66.5661 59.9082 62.9319 59.9082 M62.9319 56.2045 Q68.742 56.2045 71.7976 60.8109 Q74.8763 65.3942 74.8763 74.1442 Q74.8763 82.871 71.7976 87.4775 Q68.742 92.0608 62.9319 92.0608 Q57.1217 92.0608 54.043 87.4775 Q50.9875 82.871 50.9875 74.1442 Q50.9875 65.3942 54.043 60.8109 Q57.1217 56.2045 62.9319 56.2045 Z" fill="#000000" fill-rule="nonzero" fill-opacity="1"></path><path clip-path="url(#clip080)" d="M83.0938 85.5099 L87.978 85.5099 L87.978 91.3895 L83.0938 91.3895 L83.0938 85.5099 Z" fill="#000000" fill-rule="nonzero" fill-opacity="1"></path><path clip-path="url(#clip080)" d="M108.163 59.9082 Q104.552 59.9082 102.723 63.473 Q100.918 67.0146 100.918 74.1442 Q100.918 81.2506 102.723 84.8154 Q104.552 88.3571 108.163 88.3571 Q111.797 88.3571 113.603 84.8154 Q115.432 81.2506 115.432 74.1442 Q115.432 67.0146 113.603 63.473 Q111.797 59.9082 108.163 59.9082 M108.163 56.2045 Q113.973 56.2045 117.029 60.8109 Q120.107 65.3942 120.107 74.1442 Q120.107 82.871 117.029 87.4775 Q113.973 92.0608 108.163 92.0608 Q102.353 92.0608 99.2743 87.4775 Q96.2187 82.871 96.2187 74.1442 Q96.2187 65.3942 99.2743 60.8109 Q102.353 56.2045 108.163 56.2045 Z" fill="#000000" fill-rule="nonzero" fill-opacity="1"></path><path clip-path="url(#clip080)" d="M142.492 72.7553 Q145.848 73.4729 147.723 75.7414 Q149.621 78.0099 149.621 81.3432 Q149.621 86.4589 146.103 89.2599 Q142.584 92.0608 136.103 92.0608 Q133.927 92.0608 131.612 91.621 Q129.32 91.2043 126.867 90.3478 L126.867 85.8339 Q128.811 86.9682 131.126 87.5469 Q133.441 88.1256 135.964 88.1256 Q140.362 88.1256 142.654 86.3895 Q144.968 84.6534 144.968 81.3432 Q144.968 78.2877 142.816 76.5747 Q140.686 74.8386 136.867 74.8386 L132.839 74.8386 L132.839 70.9961 L137.052 70.9961 Q140.501 70.9961 142.33 69.6303 Q144.158 68.2414 144.158 65.6489 Q144.158 62.9868 142.26 61.5748 Q140.385 60.1396 136.867 60.1396 Q134.945 60.1396 132.746 60.5563 Q130.547 60.973 127.908 61.8526 L127.908 57.686 Q130.57 56.9452 132.885 56.5748 Q135.223 56.2045 137.283 56.2045 Q142.607 56.2045 145.709 58.635 Q148.811 61.0424 148.811 65.1628 Q148.811 68.0331 147.168 70.0238 Q145.524 71.9914 142.492 72.7553 Z" fill="#000000" fill-rule="nonzero" fill-opacity="1"></path><path clip-path="url(#clip080)" d="M162.515 87.4543 L178.834 87.4543 L178.834 91.3895 L156.89 91.3895 L156.89 87.4543 Q159.552 84.6997 164.135 80.0701 Q168.741 75.4173 169.922 74.0748 Q172.167 71.5516 173.047 69.8155 Q173.95 68.0563 173.95 66.3665 Q173.95 63.6118 172.005 61.8757 Q170.084 60.1396 166.982 60.1396 Q164.783 60.1396 162.329 60.9035 Q159.899 61.6674 157.121 63.2183 L157.121 58.4961 Q159.945 57.3619 162.399 56.7832 Q164.853 56.2045 166.89 56.2045 Q172.26 56.2045 175.454 58.8896 Q178.649 61.5748 178.649 66.0655 Q178.649 68.1952 177.839 70.1164 Q177.052 72.0146 174.945 74.6072 Q174.366 75.2784 171.265 78.496 Q168.163 81.6905 162.515 87.4543 Z" fill="#000000" fill-rule="nonzero" fill-opacity="1"></path><path clip-path="url(#clip080)" d="M188.695 56.8295 L207.051 56.8295 L207.051 60.7646 L192.977 60.7646 L192.977 69.2368 Q193.996 68.8896 195.014 68.7276 Q196.033 68.5424 197.052 68.5424 Q202.839 68.5424 206.218 71.7137 Q209.598 74.8849 209.598 80.3016 Q209.598 85.8802 206.126 88.9821 Q202.653 92.0608 196.334 92.0608 Q194.158 92.0608 191.89 91.6904 Q189.644 91.32 187.237 90.5793 L187.237 85.8802 Q189.32 87.0145 191.542 87.57 Q193.765 88.1256 196.241 88.1256 Q200.246 88.1256 202.584 86.0191 Q204.922 83.9127 204.922 80.3016 Q204.922 76.6905 202.584 74.584 Q200.246 72.4775 196.241 72.4775 Q194.366 72.4775 192.491 72.8942 Q190.64 73.3109 188.695 74.1905 L188.695 56.8295 Z" fill="#000000" fill-rule="nonzero" fill-opacity="1"></path><polyline clip-path="url(#clip082)" style="stroke:#ad891e; stroke-linecap:round; stroke-linejoin:round; stroke-width:6.4; stroke-opacity:1; fill:none" points="313.81,448.047 585.527,419.259 857.243,403.918 1128.96,395.182 1400.68,390.147 1672.39,387.238 1944.11,385.558 2215.83,384.586 2487.54,384.025 "></polyline>
<circle clip-path="url(#clip082)" cx="313.81" cy="443.04" r="14.4" fill="#ad891e" fill-rule="evenodd" fill-opacity="0.8" stroke="#000000" stroke-opacity="0.8" stroke-width="0.64"></circle>
<circle clip-path="url(#clip082)" cx="585.527" cy="418.756" r="14.4" fill="#ad891e" fill-rule="evenodd" fill-opacity="0.8" stroke="#000000" stroke-opacity="0.8" stroke-width="0.64"></circle>
<circle clip-path="url(#clip082)" cx="857.243" cy="403.105" r="14.4" fill="#ad891e" fill-rule="evenodd" fill-opacity="0.8" stroke="#000000" stroke-opacity="0.8" stroke-width="0.64"></circle>
<circle clip-path="url(#clip082)" cx="1128.96" cy="394.208" r="14.4" fill="#ad891e" fill-rule="evenodd" fill-opacity="0.8" stroke="#000000" stroke-opacity="0.8" stroke-width="0.64"></circle>
<circle clip-path="url(#clip082)" cx="1400.68" cy="389.276" r="14.4" fill="#ad891e" fill-rule="evenodd" fill-opacity="0.8" stroke="#000000" stroke-opacity="0.8" stroke-width="0.64"></circle>
<circle clip-path="url(#clip082)" cx="1672.39" cy="386.56" r="14.4" fill="#ad891e" fill-rule="evenodd" fill-opacity="0.8" stroke="#000000" stroke-opacity="0.8" stroke-width="0.64"></circle>
<circle clip-path="url(#clip082)" cx="1944.11" cy="385.068" r="14.4" fill="#ad891e" fill-rule="evenodd" fill-opacity="0.8" stroke="#000000" stroke-opacity="0.8" stroke-width="0.64"></circle>
<circle clip-path="url(#clip082)" cx="2215.83" cy="384.25" r="14.4" fill="#ad891e" fill-rule="evenodd" fill-opacity="0.8" stroke="#000000" stroke-opacity="0.8" stroke-width="0.64"></circle>
<circle clip-path="url(#clip082)" cx="2487.54" cy="383.801" r="14.4" fill="#ad891e" fill-rule="evenodd" fill-opacity="0.8" stroke="#000000" stroke-opacity="0.8" stroke-width="0.64"></circle>
<polyline clip-path="url(#clip082)" style="stroke:#1ead47; stroke-linecap:round; stroke-linejoin:round; stroke-width:6.4; stroke-opacity:1; fill:none" points="313.81,543.396 585.527,473.145 857.243,437.544 1128.96,416.107 1400.68,402.878 1672.39,394.837 1944.11,390.035 2215.83,387.204 2487.54,385.548 "></polyline>
<circle clip-path="url(#clip082)" cx="313.81" cy="502.418" r="14.4" fill="#1ead47" fill-rule="evenodd" fill-opacity="0.8" stroke="#000000" stroke-opacity="0.8" stroke-width="0.64"></circle>
<circle clip-path="url(#clip082)" cx="585.527" cy="454.209" r="14.4" fill="#1ead47" fill-rule="evenodd" fill-opacity="0.8" stroke="#000000" stroke-opacity="0.8" stroke-width="0.64"></circle>
<circle clip-path="url(#clip082)" cx="857.243" cy="425.007" r="14.4" fill="#1ead47" fill-rule="evenodd" fill-opacity="0.8" stroke="#000000" stroke-opacity="0.8" stroke-width="0.64"></circle>
<circle clip-path="url(#clip082)" cx="1128.96" cy="407.05" r="14.4" fill="#1ead47" fill-rule="evenodd" fill-opacity="0.8" stroke="#000000" stroke-opacity="0.8" stroke-width="0.64"></circle>
<circle clip-path="url(#clip082)" cx="1400.68" cy="396.557" r="14.4" fill="#1ead47" fill-rule="evenodd" fill-opacity="0.8" stroke="#000000" stroke-opacity="0.8" stroke-width="0.64"></circle>
<circle clip-path="url(#clip082)" cx="1672.39" cy="390.617" r="14.4" fill="#1ead47" fill-rule="evenodd" fill-opacity="0.8" stroke="#000000" stroke-opacity="0.8" stroke-width="0.64"></circle>
<circle clip-path="url(#clip082)" cx="1944.11" cy="387.31" r="14.4" fill="#1ead47" fill-rule="evenodd" fill-opacity="0.8" stroke="#000000" stroke-opacity="0.8" stroke-width="0.64"></circle>
<circle clip-path="url(#clip082)" cx="2215.83" cy="385.484" r="14.4" fill="#1ead47" fill-rule="evenodd" fill-opacity="0.8" stroke="#000000" stroke-opacity="0.8" stroke-width="0.64"></circle>
<circle clip-path="url(#clip082)" cx="2487.54" cy="384.479" r="14.4" fill="#1ead47" fill-rule="evenodd" fill-opacity="0.8" stroke="#000000" stroke-opacity="0.8" stroke-width="0.64"></circle>
<polyline clip-path="url(#clip082)" style="stroke:#9aad1e; stroke-linecap:round; stroke-linejoin:round; stroke-width:6.4; stroke-opacity:1; fill:none" points="313.81,197.98 585.527,276.274 857.243,321.385 1128.96,347.491 1400.68,362.585 1672.39,371.31 1944.11,376.352 2215.83,379.266 2487.54,380.95 "></polyline>
<circle clip-path="url(#clip082)" cx="313.81" cy="61.6951" r="14.4" fill="#9aad1e" fill-rule="evenodd" fill-opacity="0.8" stroke="#000000" stroke-opacity="0.8" stroke-width="0.64"></circle>
<circle clip-path="url(#clip082)" cx="585.527" cy="190.77" r="14.4" fill="#9aad1e" fill-rule="evenodd" fill-opacity="0.8" stroke="#000000" stroke-opacity="0.8" stroke-width="0.64"></circle>
<circle clip-path="url(#clip082)" cx="857.243" cy="274.822" r="14.4" fill="#9aad1e" fill-rule="evenodd" fill-opacity="0.8" stroke="#000000" stroke-opacity="0.8" stroke-width="0.64"></circle>
<circle clip-path="url(#clip082)" cx="1128.96" cy="323.198" r="14.4" fill="#9aad1e" fill-rule="evenodd" fill-opacity="0.8" stroke="#000000" stroke-opacity="0.8" stroke-width="0.64"></circle>
<circle clip-path="url(#clip082)" cx="1400.68" cy="350.187" r="14.4" fill="#9aad1e" fill-rule="evenodd" fill-opacity="0.8" stroke="#000000" stroke-opacity="0.8" stroke-width="0.64"></circle>
<circle clip-path="url(#clip082)" cx="1672.39" cy="365.09" r="14.4" fill="#9aad1e" fill-rule="evenodd" fill-opacity="0.8" stroke="#000000" stroke-opacity="0.8" stroke-width="0.64"></circle>
<circle clip-path="url(#clip082)" cx="1944.11" cy="373.288" r="14.4" fill="#9aad1e" fill-rule="evenodd" fill-opacity="0.8" stroke="#000000" stroke-opacity="0.8" stroke-width="0.64"></circle>
<circle clip-path="url(#clip082)" cx="2215.83" cy="377.789" r="14.4" fill="#9aad1e" fill-rule="evenodd" fill-opacity="0.8" stroke="#000000" stroke-opacity="0.8" stroke-width="0.64"></circle>
<circle clip-path="url(#clip082)" cx="2487.54" cy="380.258" r="14.4" fill="#9aad1e" fill-rule="evenodd" fill-opacity="0.8" stroke="#000000" stroke-opacity="0.8" stroke-width="0.64"></circle>
<path clip-path="url(#clip080)" d="M2084.45 271.624 L2475.95 271.624 L2475.95 64.2642 L2084.45 64.2642  Z" fill="#ffffff" fill-rule="evenodd" fill-opacity="1"></path>
<polyline clip-path="url(#clip080)" style="stroke:#000000; stroke-linecap:round; stroke-linejoin:round; stroke-width:4; stroke-opacity:1; fill:none" points="2084.45,271.624 2475.95,271.624 2475.95,64.2642 2084.45,64.2642 2084.45,271.624 "></polyline>
<polyline clip-path="url(#clip080)" style="stroke:#ad891e; stroke-linecap:round; stroke-linejoin:round; stroke-width:6.4; stroke-opacity:1; fill:none" points="2110.05,116.104 2263.66,116.104 "></polyline>
<path clip-path="url(#clip080)" d="M2312.1 92.6822 L2305.19 120.414 Q2304.91 121.656 2304.91 122.71 Q2304.91 124.911 2306.34 124.911 Q2307.04 124.911 2307.6 124.466 Q2308.17 124.021 2308.61 123.084 Q2309.06 122.148 2309.34 121.281 Q2309.62 120.391 2309.99 118.986 Q2310.11 118.423 2310.2 118.283 Q2310.32 118.119 2310.65 118.119 Q2311.23 118.119 2311.23 118.587 Q2310.6 121.609 2309.78 123.342 Q2308.47 125.989 2306.24 125.989 Q2304.56 125.989 2303.36 124.958 Q2302.17 123.928 2301.89 122.382 Q2298.82 125.989 2295.63 125.989 Q2292.82 125.989 2291.04 123.857 Q2289.26 121.703 2289.26 118.306 Q2289.26 114.887 2290.95 111.607 Q2292.66 108.328 2295.35 106.291 Q2298.05 104.253 2300.81 104.253 Q2303.74 104.253 2305.24 107.321 L2308.12 95.9379 L2308.26 95.001 Q2308.26 94.7199 2308.14 94.5794 Q2308.05 94.4154 2307.49 94.2983 Q2306.95 94.1812 2305.87 94.1812 Q2305.43 94.1812 2305.21 94.1578 Q2305.03 94.1343 2304.86 94.0172 Q2304.7 93.8767 2304.7 93.5956 Q2304.7 92.7758 2305.38 92.6822 Q2309.88 92.1669 2311.47 92.1669 Q2311.75 92.1669 2311.91 92.3074 Q2312.08 92.4245 2312.08 92.565 L2312.1 92.6822 M2304.65 109.523 Q2304.65 109.312 2304.49 108.727 Q2304.32 108.141 2303.95 107.321 Q2303.57 106.501 2302.75 105.916 Q2301.96 105.307 2300.88 105.307 Q2299.43 105.307 2297.91 106.548 Q2296.41 107.79 2295.31 109.898 Q2294.46 111.584 2293.55 115.121 Q2292.66 118.658 2292.66 120.414 Q2292.66 121.492 2292.89 122.452 Q2293.15 123.389 2293.88 124.162 Q2294.6 124.911 2295.73 124.911 Q2298.47 124.911 2301.16 121.515 Q2301.68 120.93 2301.79 120.695 Q2301.94 120.438 2302.12 119.735 L2304.51 110.343 Q2304.65 109.64 2304.65 109.523 Z" fill="#000000" fill-rule="nonzero" fill-opacity="1"></path><path clip-path="url(#clip080)" d="M2316.98 139.336 L2316.98 138.303 Q2318.77 138.303 2319.18 138.09 Q2319.59 137.861 2319.59 136.778 L2319.59 127.744 Q2319.59 126.498 2319.16 126.203 Q2318.75 125.908 2317.11 125.908 L2317.11 124.859 L2321.8 124.498 L2321.8 136.811 Q2321.8 137.811 2322.16 138.057 Q2322.52 138.303 2324.16 138.303 L2324.16 139.336 Q2320.74 139.238 2320.67 139.238 Q2320.21 139.238 2316.98 139.336 M2318.39 118.645 Q2318.39 117.973 2318.9 117.431 Q2319.42 116.874 2320.16 116.874 Q2320.9 116.874 2321.42 117.382 Q2321.95 117.874 2321.95 118.661 Q2321.95 119.432 2321.42 119.94 Q2320.9 120.432 2320.16 120.432 Q2319.39 120.432 2318.88 119.891 Q2318.39 119.35 2318.39 118.645 Z" fill="#000000" fill-rule="nonzero" fill-opacity="1"></path><path clip-path="url(#clip080)" d="M2326.45 139.336 L2326.45 138.303 Q2328.24 138.303 2328.65 138.09 Q2329.06 137.861 2329.06 136.778 L2329.06 127.777 Q2329.06 126.531 2328.62 126.22 Q2328.19 125.908 2326.45 125.908 L2326.45 124.859 L2331.18 124.498 L2331.18 128.023 Q2332.75 124.498 2336.14 124.498 Q2338.67 124.498 2339.67 125.744 Q2340.41 126.58 2340.56 127.515 Q2340.72 128.449 2340.72 130.876 L2340.72 137.287 Q2340.75 137.992 2341.29 138.156 Q2341.83 138.303 2343.34 138.303 L2343.34 139.336 Q2339.92 139.238 2339.57 139.238 Q2339.31 139.238 2335.78 139.336 L2335.78 138.303 Q2337.57 138.303 2337.98 138.09 Q2338.41 137.861 2338.41 136.778 L2338.41 128.958 Q2338.41 127.252 2337.88 126.252 Q2337.36 125.236 2335.92 125.236 Q2334.18 125.236 2332.78 126.695 Q2331.39 128.154 2331.39 130.614 L2331.39 136.778 Q2331.39 137.861 2331.8 138.09 Q2332.23 138.303 2334 138.303 L2334 139.336 Q2330.57 139.238 2330.24 139.238 Q2329.98 139.238 2326.45 139.336 Z" fill="#000000" fill-rule="nonzero" fill-opacity="1"></path><path clip-path="url(#clip080)" d="M2345.03 125.908 L2345.03 125.17 Q2346.57 125.105 2347.59 124.023 Q2348.62 122.924 2348.97 121.58 Q2349.33 120.235 2349.36 118.678 L2350.2 118.678 L2350.2 124.859 L2355 124.859 L2355 125.908 L2350.2 125.908 L2350.2 135.237 Q2350.2 138.861 2352.46 138.861 Q2353.43 138.861 2354.07 137.877 Q2354.71 136.877 2354.71 135.106 L2354.71 133.253 L2355.54 133.253 L2355.54 135.172 Q2355.54 136.992 2354.71 138.352 Q2353.87 139.713 2352.21 139.713 Q2351.61 139.713 2351 139.549 Q2350.41 139.402 2349.62 139.008 Q2348.85 138.598 2348.36 137.615 Q2347.88 136.614 2347.88 135.172 L2347.88 125.908 L2345.03 125.908 Z" fill="#000000" fill-rule="nonzero" fill-opacity="1"></path><path clip-path="url(#clip080)" d="M2376.35 118.166 Q2376.4 117.58 2377.31 117.58 L2406.7 117.58 Q2408.09 117.58 2408.11 118.119 Q2408.11 118.704 2406.8 118.681 L2377.64 118.681 Q2376.35 118.704 2376.35 118.166 M2376.35 108.797 Q2376.35 108.211 2377.36 108.235 L2406.66 108.235 Q2408.09 108.235 2408.11 108.797 Q2408.11 109.336 2406.89 109.336 L2377.31 109.336 Q2376.35 109.336 2376.35 108.797 Z" fill="#000000" fill-rule="nonzero" fill-opacity="1"></path><path clip-path="url(#clip080)" d="M2426.6 117.721 Q2426.6 116.292 2427.37 115.753 Q2428.15 115.191 2428.97 115.191 Q2430.07 115.191 2430.7 115.894 Q2431.35 116.573 2431.35 117.533 Q2431.35 118.494 2430.7 119.196 Q2430.07 119.876 2428.97 119.876 Q2428.43 119.876 2428.15 119.782 Q2428.78 121.984 2430.7 123.576 Q2432.64 125.169 2435.2 125.169 Q2438.41 125.169 2440.33 122.054 Q2441.47 120.04 2441.47 115.472 Q2441.47 111.444 2440.61 109.429 Q2439.27 106.361 2436.53 106.361 Q2432.64 106.361 2430.35 109.71 Q2430.07 110.132 2429.74 110.155 Q2429.27 110.155 2429.15 109.898 Q2429.06 109.617 2429.06 108.89 L2429.06 94.6965 Q2429.06 93.5488 2429.53 93.5488 Q2429.72 93.5488 2430.11 93.6893 Q2433.14 95.0244 2436.48 95.0478 Q2439.93 95.0478 2443.02 93.6425 Q2443.25 93.5019 2443.39 93.5019 Q2443.86 93.5019 2443.89 94.0407 Q2443.89 94.228 2443.49 94.7902 Q2443.11 95.3289 2442.29 96.055 Q2441.47 96.7577 2440.42 97.4369 Q2439.37 98.1162 2437.82 98.5846 Q2436.3 99.0296 2434.61 99.0296 Q2432.6 99.0296 2430.54 98.3972 L2430.54 107.743 Q2433.02 105.307 2436.62 105.307 Q2440.47 105.307 2443.11 108.399 Q2445.76 111.49 2445.76 115.8 Q2445.76 120.321 2442.62 123.412 Q2439.51 126.504 2435.29 126.504 Q2431.45 126.504 2429.01 123.764 Q2426.6 121.023 2426.6 117.721 Z" fill="#000000" fill-rule="nonzero" fill-opacity="1"></path><polyline clip-path="url(#clip080)" style="stroke:#1ead47; stroke-linecap:round; stroke-linejoin:round; stroke-width:6.4; stroke-opacity:1; fill:none" points="2110.05,167.944 2263.66,167.944 "></polyline>
<path clip-path="url(#clip080)" d="M2312.1 144.522 L2305.19 172.254 Q2304.91 173.496 2304.91 174.55 Q2304.91 176.751 2306.34 176.751 Q2307.04 176.751 2307.6 176.306 Q2308.17 175.861 2308.61 174.924 Q2309.06 173.988 2309.34 173.121 Q2309.62 172.231 2309.99 170.826 Q2310.11 170.263 2310.2 170.123 Q2310.32 169.959 2310.65 169.959 Q2311.23 169.959 2311.23 170.427 Q2310.6 173.449 2309.78 175.182 Q2308.47 177.829 2306.24 177.829 Q2304.56 177.829 2303.36 176.798 Q2302.17 175.768 2301.89 174.222 Q2298.82 177.829 2295.63 177.829 Q2292.82 177.829 2291.04 175.697 Q2289.26 173.543 2289.26 170.146 Q2289.26 166.727 2290.95 163.447 Q2292.66 160.168 2295.35 158.131 Q2298.05 156.093 2300.81 156.093 Q2303.74 156.093 2305.24 159.161 L2308.12 147.778 L2308.26 146.841 Q2308.26 146.56 2308.14 146.419 Q2308.05 146.255 2307.49 146.138 Q2306.95 146.021 2305.87 146.021 Q2305.43 146.021 2305.21 145.998 Q2305.03 145.974 2304.86 145.857 Q2304.7 145.717 2304.7 145.436 Q2304.7 144.616 2305.38 144.522 Q2309.88 144.007 2311.47 144.007 Q2311.75 144.007 2311.91 144.147 Q2312.08 144.265 2312.08 144.405 L2312.1 144.522 M2304.65 161.363 Q2304.65 161.152 2304.49 160.567 Q2304.32 159.981 2303.95 159.161 Q2303.57 158.341 2302.75 157.756 Q2301.96 157.147 2300.88 157.147 Q2299.43 157.147 2297.91 158.388 Q2296.41 159.63 2295.31 161.738 Q2294.46 163.424 2293.55 166.961 Q2292.66 170.498 2292.66 172.254 Q2292.66 173.332 2292.89 174.292 Q2293.15 175.229 2293.88 176.002 Q2294.6 176.751 2295.73 176.751 Q2298.47 176.751 2301.16 173.355 Q2301.68 172.77 2301.79 172.535 Q2301.94 172.278 2302.12 171.575 L2304.51 162.183 Q2304.65 161.48 2304.65 161.363 Z" fill="#000000" fill-rule="nonzero" fill-opacity="1"></path><path clip-path="url(#clip080)" d="M2316.98 191.176 L2316.98 190.143 Q2318.77 190.143 2319.18 189.93 Q2319.59 189.701 2319.59 188.618 L2319.59 179.584 Q2319.59 178.338 2319.16 178.043 Q2318.75 177.748 2317.11 177.748 L2317.11 176.699 L2321.8 176.338 L2321.8 188.651 Q2321.8 189.651 2322.16 189.897 Q2322.52 190.143 2324.16 190.143 L2324.16 191.176 Q2320.74 191.078 2320.67 191.078 Q2320.21 191.078 2316.98 191.176 M2318.39 170.485 Q2318.39 169.813 2318.9 169.271 Q2319.42 168.714 2320.16 168.714 Q2320.9 168.714 2321.42 169.222 Q2321.95 169.714 2321.95 170.501 Q2321.95 171.272 2321.42 171.78 Q2320.9 172.272 2320.16 172.272 Q2319.39 172.272 2318.88 171.731 Q2318.39 171.19 2318.39 170.485 Z" fill="#000000" fill-rule="nonzero" fill-opacity="1"></path><path clip-path="url(#clip080)" d="M2326.45 191.176 L2326.45 190.143 Q2328.24 190.143 2328.65 189.93 Q2329.06 189.701 2329.06 188.618 L2329.06 179.617 Q2329.06 178.371 2328.62 178.06 Q2328.19 177.748 2326.45 177.748 L2326.45 176.699 L2331.18 176.338 L2331.18 179.863 Q2332.75 176.338 2336.14 176.338 Q2338.67 176.338 2339.67 177.584 Q2340.41 178.42 2340.56 179.355 Q2340.72 180.289 2340.72 182.716 L2340.72 189.127 Q2340.75 189.832 2341.29 189.996 Q2341.83 190.143 2343.34 190.143 L2343.34 191.176 Q2339.92 191.078 2339.57 191.078 Q2339.31 191.078 2335.78 191.176 L2335.78 190.143 Q2337.57 190.143 2337.98 189.93 Q2338.41 189.701 2338.41 188.618 L2338.41 180.798 Q2338.41 179.092 2337.88 178.092 Q2337.36 177.076 2335.92 177.076 Q2334.18 177.076 2332.78 178.535 Q2331.39 179.994 2331.39 182.454 L2331.39 188.618 Q2331.39 189.701 2331.8 189.93 Q2332.23 190.143 2334 190.143 L2334 191.176 Q2330.57 191.078 2330.24 191.078 Q2329.98 191.078 2326.45 191.176 Z" fill="#000000" fill-rule="nonzero" fill-opacity="1"></path><path clip-path="url(#clip080)" d="M2345.03 177.748 L2345.03 177.01 Q2346.57 176.945 2347.59 175.863 Q2348.62 174.764 2348.97 173.42 Q2349.33 172.075 2349.36 170.518 L2350.2 170.518 L2350.2 176.699 L2355 176.699 L2355 177.748 L2350.2 177.748 L2350.2 187.077 Q2350.2 190.701 2352.46 190.701 Q2353.43 190.701 2354.07 189.717 Q2354.71 188.717 2354.71 186.946 L2354.71 185.093 L2355.54 185.093 L2355.54 187.012 Q2355.54 188.832 2354.71 190.192 Q2353.87 191.553 2352.21 191.553 Q2351.61 191.553 2351 191.389 Q2350.41 191.242 2349.62 190.848 Q2348.85 190.438 2348.36 189.455 Q2347.88 188.454 2347.88 187.012 L2347.88 177.748 L2345.03 177.748 Z" fill="#000000" fill-rule="nonzero" fill-opacity="1"></path><path clip-path="url(#clip080)" d="M2376.35 170.006 Q2376.4 169.42 2377.31 169.42 L2406.7 169.42 Q2408.09 169.42 2408.11 169.959 Q2408.11 170.544 2406.8 170.521 L2377.64 170.521 Q2376.35 170.544 2376.35 170.006 M2376.35 160.637 Q2376.35 160.051 2377.36 160.075 L2406.66 160.075 Q2408.09 160.075 2408.11 160.637 Q2408.11 161.176 2406.89 161.176 L2377.31 161.176 Q2376.35 161.176 2376.35 160.637 Z" fill="#000000" fill-rule="nonzero" fill-opacity="1"></path><path clip-path="url(#clip080)" d="M2426.6 162.136 Q2426.6 154.594 2430.44 149.98 Q2434.28 145.342 2439.22 145.342 Q2442.11 145.342 2443.7 146.818 Q2445.31 148.27 2445.31 150.518 Q2445.31 151.76 2444.59 152.298 Q2443.86 152.837 2443.11 152.837 Q2442.25 152.837 2441.57 152.252 Q2440.89 151.666 2440.89 150.612 Q2440.89 148.457 2443.53 148.457 Q2442.29 146.536 2439.32 146.536 Q2438.41 146.536 2437.47 146.818 Q2436.53 147.075 2435.31 147.965 Q2434.1 148.855 2433.16 150.261 Q2432.22 151.666 2431.57 154.313 Q2430.91 156.959 2430.91 160.403 L2430.91 161.55 Q2432.88 156.796 2436.91 156.819 Q2440.93 156.819 2443.72 159.887 Q2446.51 162.956 2446.51 167.5 Q2446.51 172.161 2443.6 175.252 Q2440.7 178.344 2436.62 178.344 Q2434.8 178.344 2433.14 177.571 Q2431.5 176.822 2429.95 175.088 Q2428.43 173.355 2427.51 170.029 Q2426.6 166.703 2426.6 162.136 M2431 166.446 Q2431 171.153 2431.87 173.402 Q2432.01 173.777 2432.32 174.292 Q2432.64 174.807 2433.18 175.487 Q2433.74 176.142 2434.66 176.587 Q2435.57 177.009 2436.62 177.009 Q2439.83 177.009 2441.38 173.894 Q2442.2 172.161 2442.2 167.453 Q2442.2 162.651 2441.33 160.894 Q2439.86 157.92 2436.86 157.92 Q2434.84 157.92 2433.44 159.302 Q2432.06 160.684 2431.52 162.534 Q2431 164.384 2431 166.446 Z" fill="#000000" fill-rule="nonzero" fill-opacity="1"></path><polyline clip-path="url(#clip080)" style="stroke:#9aad1e; stroke-linecap:round; stroke-linejoin:round; stroke-width:6.4; stroke-opacity:1; fill:none" points="2110.05,219.784 2263.66,219.784 "></polyline>
<path clip-path="url(#clip080)" d="M2312.1 196.362 L2305.19 224.094 Q2304.91 225.336 2304.91 226.39 Q2304.91 228.591 2306.34 228.591 Q2307.04 228.591 2307.6 228.146 Q2308.17 227.701 2308.61 226.764 Q2309.06 225.828 2309.34 224.961 Q2309.62 224.071 2309.99 222.666 Q2310.11 222.103 2310.2 221.963 Q2310.32 221.799 2310.65 221.799 Q2311.23 221.799 2311.23 222.267 Q2310.6 225.289 2309.78 227.022 Q2308.47 229.669 2306.24 229.669 Q2304.56 229.669 2303.36 228.638 Q2302.17 227.608 2301.89 226.062 Q2298.82 229.669 2295.63 229.669 Q2292.82 229.669 2291.04 227.537 Q2289.26 225.383 2289.26 221.986 Q2289.26 218.567 2290.95 215.287 Q2292.66 212.008 2295.35 209.971 Q2298.05 207.933 2300.81 207.933 Q2303.74 207.933 2305.24 211.001 L2308.12 199.618 L2308.26 198.681 Q2308.26 198.4 2308.14 198.259 Q2308.05 198.095 2307.49 197.978 Q2306.95 197.861 2305.87 197.861 Q2305.43 197.861 2305.21 197.838 Q2305.03 197.814 2304.86 197.697 Q2304.7 197.557 2304.7 197.276 Q2304.7 196.456 2305.38 196.362 Q2309.88 195.847 2311.47 195.847 Q2311.75 195.847 2311.91 195.987 Q2312.08 196.105 2312.08 196.245 L2312.1 196.362 M2304.65 213.203 Q2304.65 212.992 2304.49 212.407 Q2304.32 211.821 2303.95 211.001 Q2303.57 210.181 2302.75 209.596 Q2301.96 208.987 2300.88 208.987 Q2299.43 208.987 2297.91 210.228 Q2296.41 211.47 2295.31 213.578 Q2294.46 215.264 2293.55 218.801 Q2292.66 222.338 2292.66 224.094 Q2292.66 225.172 2292.89 226.132 Q2293.15 227.069 2293.88 227.842 Q2294.6 228.591 2295.73 228.591 Q2298.47 228.591 2301.16 225.195 Q2301.68 224.61 2301.79 224.375 Q2301.94 224.118 2302.12 223.415 L2304.51 214.023 Q2304.65 213.32 2304.65 213.203 Z" fill="#000000" fill-rule="nonzero" fill-opacity="1"></path><path clip-path="url(#clip080)" d="M2316.98 243.016 L2316.98 241.983 Q2318.77 241.983 2319.18 241.77 Q2319.59 241.541 2319.59 240.458 L2319.59 231.424 Q2319.59 230.178 2319.16 229.883 Q2318.75 229.588 2317.11 229.588 L2317.11 228.539 L2321.8 228.178 L2321.8 240.491 Q2321.8 241.491 2322.16 241.737 Q2322.52 241.983 2324.16 241.983 L2324.16 243.016 Q2320.74 242.918 2320.67 242.918 Q2320.21 242.918 2316.98 243.016 M2318.39 222.325 Q2318.39 221.653 2318.9 221.111 Q2319.42 220.554 2320.16 220.554 Q2320.9 220.554 2321.42 221.062 Q2321.95 221.554 2321.95 222.341 Q2321.95 223.112 2321.42 223.62 Q2320.9 224.112 2320.16 224.112 Q2319.39 224.112 2318.88 223.571 Q2318.39 223.03 2318.39 222.325 Z" fill="#000000" fill-rule="nonzero" fill-opacity="1"></path><path clip-path="url(#clip080)" d="M2326.45 243.016 L2326.45 241.983 Q2328.24 241.983 2328.65 241.77 Q2329.06 241.541 2329.06 240.458 L2329.06 231.457 Q2329.06 230.211 2328.62 229.9 Q2328.19 229.588 2326.45 229.588 L2326.45 228.539 L2331.18 228.178 L2331.18 231.703 Q2332.75 228.178 2336.14 228.178 Q2338.67 228.178 2339.67 229.424 Q2340.41 230.26 2340.56 231.195 Q2340.72 232.129 2340.72 234.556 L2340.72 240.967 Q2340.75 241.672 2341.29 241.836 Q2341.83 241.983 2343.34 241.983 L2343.34 243.016 Q2339.92 242.918 2339.57 242.918 Q2339.31 242.918 2335.78 243.016 L2335.78 241.983 Q2337.57 241.983 2337.98 241.77 Q2338.41 241.541 2338.41 240.458 L2338.41 232.638 Q2338.41 230.932 2337.88 229.932 Q2337.36 228.916 2335.92 228.916 Q2334.18 228.916 2332.78 230.375 Q2331.39 231.834 2331.39 234.294 L2331.39 240.458 Q2331.39 241.541 2331.8 241.77 Q2332.23 241.983 2334 241.983 L2334 243.016 Q2330.57 242.918 2330.24 242.918 Q2329.98 242.918 2326.45 243.016 Z" fill="#000000" fill-rule="nonzero" fill-opacity="1"></path><path clip-path="url(#clip080)" d="M2345.03 229.588 L2345.03 228.85 Q2346.57 228.785 2347.59 227.703 Q2348.62 226.604 2348.97 225.26 Q2349.33 223.915 2349.36 222.358 L2350.2 222.358 L2350.2 228.539 L2355 228.539 L2355 229.588 L2350.2 229.588 L2350.2 238.917 Q2350.2 242.541 2352.46 242.541 Q2353.43 242.541 2354.07 241.557 Q2354.71 240.557 2354.71 238.786 L2354.71 236.933 L2355.54 236.933 L2355.54 238.852 Q2355.54 240.672 2354.71 242.032 Q2353.87 243.393 2352.21 243.393 Q2351.61 243.393 2351 243.229 Q2350.41 243.082 2349.62 242.688 Q2348.85 242.278 2348.36 241.295 Q2347.88 240.294 2347.88 238.852 L2347.88 229.588 L2345.03 229.588 Z" fill="#000000" fill-rule="nonzero" fill-opacity="1"></path><path clip-path="url(#clip080)" d="M2376.35 221.846 Q2376.4 221.26 2377.31 221.26 L2406.7 221.26 Q2408.09 221.26 2408.11 221.799 Q2408.11 222.384 2406.8 222.361 L2377.64 222.361 Q2376.35 222.384 2376.35 221.846 M2376.35 212.477 Q2376.35 211.891 2377.36 211.915 L2406.66 211.915 Q2408.09 211.915 2408.11 212.477 Q2408.11 213.016 2406.89 213.016 L2377.31 213.016 Q2376.35 213.016 2376.35 212.477 Z" fill="#000000" fill-rule="nonzero" fill-opacity="1"></path><path clip-path="url(#clip080)" d="M2426.6 229.13 Q2426.6 228.264 2426.67 228.006 Q2426.76 227.748 2427.14 227.35 L2436.34 217.091 Q2441.38 211.423 2441.38 206.481 Q2441.38 203.272 2439.69 200.976 Q2438.03 198.681 2434.96 198.681 Q2432.85 198.681 2431.07 199.969 Q2429.29 201.257 2428.47 203.553 Q2428.61 203.506 2429.11 203.506 Q2430.3 203.506 2430.96 204.256 Q2431.64 205.005 2431.64 206.012 Q2431.64 207.3 2430.79 207.933 Q2429.97 208.542 2429.15 208.542 Q2428.83 208.542 2428.38 208.472 Q2427.96 208.401 2427.28 207.745 Q2426.6 207.066 2426.6 205.872 Q2426.6 202.522 2429.13 199.852 Q2431.68 197.182 2435.57 197.182 Q2439.97 197.182 2442.86 199.805 Q2445.76 202.405 2445.76 206.481 Q2445.76 207.909 2445.31 209.221 Q2444.89 210.509 2444.31 211.516 Q2443.75 212.524 2442.2 214.14 Q2440.65 215.756 2439.41 216.904 Q2438.17 218.051 2435.38 220.487 L2430.3 225.429 L2438.94 225.429 Q2443.16 225.429 2443.49 225.055 Q2443.96 224.375 2444.54 220.792 L2445.76 220.792 L2444.4 229.13 L2426.6 229.13 Z" fill="#000000" fill-rule="nonzero" fill-opacity="1"></path></svg>