<svg xmlns="http://www.w3.org/2000/svg" xmlns:xlink="http://www.w3.org/1999/xlink" width="800" height="320" viewBox="0 0 3200 1280">
<defs>
  <clipPath id="clip800">
    <rect x="0" y="0" width="3200" height="1280"></rect>
  </clipPath>
</defs>
<path clip-path="url(#clip800)" d="M0 1280 L3200 1280 L3200 0 L0 0  Z" fill="#ffffff" fill-rule="evenodd" fill-opacity="1"></path>
<defs>
  <clipPath id="clip801">
    <rect x="640" y="0" width="2241" height="1280"></rect>
  </clipPath>
</defs>
<path clip-path="url(#clip800)" d="M232.098 1176.1 L3152.76 1176.1 L3152.76 99.2801 L232.098 99.2801  Z" fill="#ffffff" fill-rule="evenodd" fill-opacity="1"></path>
<defs>
  <clipPath id="clip802">
    <rect x="232" y="99" width="2922" height="1078"></rect>
  </clipPath>
</defs>
<polyline clip-path="url(#clip802)" style="stroke:#000000; stroke-linecap:round; stroke-linejoin:round; stroke-width:2; stroke-opacity:0.1; fill:none" points="314.758,1176.1 314.758,99.2801 "></polyline>
<polyline clip-path="url(#clip802)" style="stroke:#000000; stroke-linecap:round; stroke-linejoin:round; stroke-width:2; stroke-opacity:0.1; fill:none" points="865.826,1176.1 865.826,99.2801 "></polyline>
<polyline clip-path="url(#clip802)" style="stroke:#000000; stroke-linecap:round; stroke-linejoin:round; stroke-width:2; stroke-opacity:0.1; fill:none" points="1416.89,1176.1 1416.89,99.2801 "></polyline>
<polyline clip-path="url(#clip802)" style="stroke:#000000; stroke-linecap:round; stroke-linejoin:round; stroke-width:2; stroke-opacity:0.1; fill:none" points="1967.96,1176.1 1967.96,99.2801 "></polyline>
<polyline clip-path="url(#clip802)" style="stroke:#000000; stroke-linecap:round; stroke-linejoin:round; stroke-width:2; stroke-opacity:0.1; fill:none" points="2519.03,1176.1 2519.03,99.2801 "></polyline>
<polyline clip-path="url(#clip802)" style="stroke:#000000; stroke-linecap:round; stroke-linejoin:round; stroke-width:2; stroke-opacity:0.1; fill:none" points="3070.1,1176.1 3070.1,99.2801 "></polyline>
<polyline clip-path="url(#clip802)" style="stroke:#000000; stroke-linecap:round; stroke-linejoin:round; stroke-width:2; stroke-opacity:0.1; fill:none" points="232.098,942.01 3152.76,942.01 "></polyline>
<polyline clip-path="url(#clip802)" style="stroke:#000000; stroke-linecap:round; stroke-linejoin:round; stroke-width:2; stroke-opacity:0.1; fill:none" points="232.098,707.919 3152.76,707.919 "></polyline>
<polyline clip-path="url(#clip802)" style="stroke:#000000; stroke-linecap:round; stroke-linejoin:round; stroke-width:2; stroke-opacity:0.1; fill:none" points="232.098,473.827 3152.76,473.827 "></polyline>
<polyline clip-path="url(#clip802)" style="stroke:#000000; stroke-linecap:round; stroke-linejoin:round; stroke-width:2; stroke-opacity:0.1; fill:none" points="232.098,239.735 3152.76,239.735 "></polyline>
<polyline clip-path="url(#clip800)" style="stroke:#000000; stroke-linecap:round; stroke-linejoin:round; stroke-width:4; stroke-opacity:1; fill:none" points="232.098,1176.1 3152.76,1176.1 "></polyline>
<polyline clip-path="url(#clip800)" style="stroke:#000000; stroke-linecap:round; stroke-linejoin:round; stroke-width:4; stroke-opacity:1; fill:none" points="314.758,1176.1 314.758,1157.2 "></polyline>
<polyline clip-path="url(#clip800)" style="stroke:#000000; stroke-linecap:round; stroke-linejoin:round; stroke-width:4; stroke-opacity:1; fill:none" points="865.826,1176.1 865.826,1157.2 "></polyline>
<polyline clip-path="url(#clip800)" style="stroke:#000000; stroke-linecap:round; stroke-linejoin:round; stroke-width:4; stroke-opacity:1; fill:none" points="1416.89,1176.1 1416.89,1157.2 "></polyline>
<polyline clip-path="url(#clip800)" style="stroke:#000000; stroke-linecap:round; stroke-linejoin:round; stroke-width:4; stroke-opacity:1; fill:none" points="1967.96,1176.1 1967.96,1157.2 "></polyline>
<polyline clip-path="url(#clip800)" style="stroke:#000000; stroke-linecap:round; stroke-linejoin:round; stroke-width:4; stroke-opacity:1; fill:none" points="2519.03,1176.1 2519.03,1157.2 "></polyline>
<polyline clip-path="url(#clip800)" style="stroke:#000000; stroke-linecap:round; stroke-linejoin:round; stroke-width:4; stroke-opacity:1; fill:none" points="3070.1,1176.1 3070.1,1157.2 "></polyline>
<path clip-path="url(#clip800)" d="M288.299 1256.63 L304.618 1256.63 L304.618 1260.56 L282.674 1260.56 L282.674 1256.63 Q285.336 1253.87 289.919 1249.24 Q294.526 1244.59 295.706 1243.25 Q297.952 1240.72 298.831 1238.99 Q299.734 1237.23 299.734 1235.54 Q299.734 1232.78 297.79 1231.05 Q295.868 1229.31 292.767 1229.31 Q290.568 1229.31 288.114 1230.08 Q285.683 1230.84 282.906 1232.39 L282.906 1227.67 Q285.73 1226.53 288.183 1225.96 Q290.637 1225.38 292.674 1225.38 Q298.044 1225.38 301.239 1228.06 Q304.433 1230.75 304.433 1235.24 Q304.433 1237.37 303.623 1239.29 Q302.836 1241.19 300.73 1243.78 Q300.151 1244.45 297.049 1247.67 Q293.947 1250.86 288.299 1256.63 Z" fill="#000000" fill-rule="nonzero" fill-opacity="1"></path><path clip-path="url(#clip800)" d="M305.164 1229.95 L311.37 1229.95 L311.37 1208.53 L304.618 1209.89 L304.618 1206.43 L311.333 1205.07 L315.132 1205.07 L315.132 1229.95 L321.339 1229.95 L321.339 1233.15 L305.164 1233.15 L305.164 1229.95 Z" fill="#000000" fill-rule="nonzero" fill-opacity="1"></path><path clip-path="url(#clip800)" d="M337.137 1207.57 Q334.203 1207.57 332.717 1210.47 Q331.25 1213.35 331.25 1219.14 Q331.25 1224.91 332.717 1227.81 Q334.203 1230.69 337.137 1230.69 Q340.09 1230.69 341.557 1227.81 Q343.043 1224.91 343.043 1219.14 Q343.043 1213.35 341.557 1210.47 Q340.09 1207.57 337.137 1207.57 M337.137 1204.56 Q341.858 1204.56 344.34 1208.31 Q346.842 1212.03 346.842 1219.14 Q346.842 1226.23 344.34 1229.97 Q341.858 1233.7 337.137 1233.7 Q332.416 1233.7 329.915 1229.97 Q327.432 1226.23 327.432 1219.14 Q327.432 1212.03 329.915 1208.31 Q332.416 1204.56 337.137 1204.56 Z" fill="#000000" fill-rule="nonzero" fill-opacity="1"></path><path clip-path="url(#clip800)" d="M839.865 1256.63 L856.184 1256.63 L856.184 1260.56 L834.24 1260.56 L834.24 1256.63 Q836.902 1253.87 841.485 1249.24 Q846.092 1244.59 847.272 1243.25 Q849.518 1240.72 850.397 1238.99 Q851.3 1237.23 851.3 1235.54 Q851.3 1232.78 849.356 1231.05 Q847.434 1229.31 844.333 1229.31 Q842.134 1229.31 839.68 1230.08 Q837.249 1230.84 834.472 1232.39 L834.472 1227.67 Q837.296 1226.53 839.749 1225.96 Q842.203 1225.38 844.24 1225.38 Q849.61 1225.38 852.805 1228.06 Q855.999 1230.75 855.999 1235.24 Q855.999 1237.37 855.189 1239.29 Q854.402 1241.19 852.296 1243.78 Q851.717 1244.45 848.615 1247.67 Q845.513 1250.86 839.865 1256.63 Z" fill="#000000" fill-rule="nonzero" fill-opacity="1"></path><path clip-path="url(#clip800)" d="M856.73 1229.95 L862.936 1229.95 L862.936 1208.53 L856.184 1209.89 L856.184 1206.43 L862.899 1205.07 L866.698 1205.07 L866.698 1229.95 L872.905 1229.95 L872.905 1233.15 L856.73 1233.15 L856.73 1229.95 Z" fill="#000000" fill-rule="nonzero" fill-opacity="1"></path><path clip-path="url(#clip800)" d="M881.236 1229.95 L887.443 1229.95 L887.443 1208.53 L880.691 1209.89 L880.691 1206.43 L887.405 1205.07 L891.204 1205.07 L891.204 1229.95 L897.411 1229.95 L897.411 1233.15 L881.236 1233.15 L881.236 1229.95 Z" fill="#000000" fill-rule="nonzero" fill-opacity="1"></path><path clip-path="url(#clip800)" d="M1391.08 1256.63 L1407.4 1256.63 L1407.4 1260.56 L1385.46 1260.56 L1385.46 1256.63 Q1388.12 1253.87 1392.7 1249.24 Q1397.31 1244.59 1398.49 1243.25 Q1400.74 1240.72 1401.62 1238.99 Q1402.52 1237.23 1402.52 1235.54 Q1402.52 1232.78 1400.57 1231.05 Q1398.65 1229.31 1395.55 1229.31 Q1393.35 1229.31 1390.9 1230.08 Q1388.47 1230.84 1385.69 1232.39 L1385.69 1227.67 Q1388.51 1226.53 1390.97 1225.96 Q1393.42 1225.38 1395.46 1225.38 Q1400.83 1225.38 1404.02 1228.06 Q1407.22 1230.75 1407.22 1235.24 Q1407.22 1237.37 1406.41 1239.29 Q1405.62 1241.19 1403.51 1243.78 Q1402.93 1244.45 1399.83 1247.67 Q1396.73 1250.86 1391.08 1256.63 Z" fill="#000000" fill-rule="nonzero" fill-opacity="1"></path><path clip-path="url(#clip800)" d="M1407.95 1229.95 L1414.15 1229.95 L1414.15 1208.53 L1407.4 1209.89 L1407.4 1206.43 L1414.12 1205.07 L1417.92 1205.07 L1417.92 1229.95 L1424.12 1229.95 L1424.12 1233.15 L1407.95 1233.15 L1407.95 1229.95 Z" fill="#000000" fill-rule="nonzero" fill-opacity="1"></path><path clip-path="url(#clip800)" d="M1435.07 1229.95 L1448.33 1229.95 L1448.33 1233.15 L1430.5 1233.15 L1430.5 1229.95 Q1432.66 1227.72 1436.39 1223.95 Q1440.13 1220.17 1441.09 1219.08 Q1442.91 1217.03 1443.63 1215.62 Q1444.36 1214.19 1444.36 1212.82 Q1444.36 1210.58 1442.78 1209.17 Q1441.22 1207.76 1438.7 1207.76 Q1436.91 1207.76 1434.92 1208.38 Q1432.94 1209 1430.69 1210.26 L1430.69 1206.43 Q1432.98 1205.5 1434.97 1205.03 Q1436.97 1204.56 1438.62 1204.56 Q1442.99 1204.56 1445.58 1206.75 Q1448.18 1208.93 1448.18 1212.58 Q1448.18 1214.31 1447.52 1215.87 Q1446.88 1217.41 1445.17 1219.52 Q1444.7 1220.06 1442.18 1222.68 Q1439.66 1225.27 1435.07 1229.95 Z" fill="#000000" fill-rule="nonzero" fill-opacity="1"></path><path clip-path="url(#clip800)" d="M1941.77 1256.63 L1958.08 1256.63 L1958.08 1260.56 L1936.14 1260.56 L1936.14 1256.63 Q1938.8 1253.87 1943.39 1249.24 Q1947.99 1244.59 1949.17 1243.25 Q1951.42 1240.72 1952.3 1238.99 Q1953.2 1237.23 1953.2 1235.54 Q1953.2 1232.78 1951.26 1231.05 Q1949.33 1229.31 1946.23 1229.31 Q1944.03 1229.31 1941.58 1230.08 Q1939.15 1230.84 1936.37 1232.39 L1936.37 1227.67 Q1939.2 1226.53 1941.65 1225.96 Q1944.1 1225.38 1946.14 1225.38 Q1951.51 1225.38 1954.7 1228.06 Q1957.9 1230.75 1957.9 1235.24 Q1957.9 1237.37 1957.09 1239.29 Q1956.3 1241.19 1954.2 1243.78 Q1953.62 1244.45 1950.52 1247.67 Q1947.41 1250.86 1941.77 1256.63 Z" fill="#000000" fill-rule="nonzero" fill-opacity="1"></path><path clip-path="url(#clip800)" d="M1958.63 1229.95 L1964.84 1229.95 L1964.84 1208.53 L1958.08 1209.89 L1958.08 1206.43 L1964.8 1205.07 L1968.6 1205.07 L1968.6 1229.95 L1974.8 1229.95 L1974.8 1233.15 L1958.63 1233.15 L1958.63 1229.95 Z" fill="#000000" fill-rule="nonzero" fill-opacity="1"></path><path clip-path="url(#clip800)" d="M1993.99 1218.01 Q1996.72 1218.59 1998.24 1220.44 Q1999.78 1222.28 1999.78 1224.99 Q1999.78 1229.15 1996.92 1231.42 Q1994.06 1233.7 1988.8 1233.7 Q1987.03 1233.7 1985.15 1233.34 Q1983.29 1233 1981.29 1232.31 L1981.29 1228.64 Q1982.87 1229.56 1984.75 1230.03 Q1986.63 1230.5 1988.68 1230.5 Q1992.26 1230.5 1994.12 1229.09 Q1996 1227.68 1996 1224.99 Q1996 1222.51 1994.25 1221.11 Q1992.52 1219.7 1989.42 1219.7 L1986.15 1219.7 L1986.15 1216.58 L1989.57 1216.58 Q1992.37 1216.58 1993.86 1215.47 Q1995.34 1214.34 1995.34 1212.24 Q1995.34 1210.07 1993.8 1208.93 Q1992.28 1207.76 1989.42 1207.76 Q1987.86 1207.76 1986.07 1208.1 Q1984.28 1208.44 1982.14 1209.15 L1982.14 1205.77 Q1984.3 1205.17 1986.18 1204.86 Q1988.08 1204.56 1989.76 1204.56 Q1994.08 1204.56 1996.6 1206.54 Q1999.12 1208.49 1999.12 1211.84 Q1999.12 1214.17 1997.79 1215.79 Q1996.45 1217.39 1993.99 1218.01 Z" fill="#000000" fill-rule="nonzero" fill-opacity="1"></path><path clip-path="url(#clip800)" d="M2492.37 1256.63 L2508.69 1256.63 L2508.69 1260.56 L2486.75 1260.56 L2486.75 1256.63 Q2489.41 1253.87 2493.99 1249.24 Q2498.6 1244.59 2499.78 1243.25 Q2502.02 1240.72 2502.9 1238.99 Q2503.81 1237.23 2503.81 1235.54 Q2503.81 1232.78 2501.86 1231.05 Q2499.94 1229.31 2496.84 1229.31 Q2494.64 1229.31 2492.19 1230.08 Q2489.76 1230.84 2486.98 1232.39 L2486.98 1227.67 Q2489.8 1226.53 2492.26 1225.96 Q2494.71 1225.38 2496.75 1225.38 Q2502.12 1225.38 2505.31 1228.06 Q2508.51 1230.75 2508.51 1235.24 Q2508.51 1237.37 2507.7 1239.29 Q2506.91 1241.19 2504.8 1243.78 Q2504.22 1244.45 2501.12 1247.67 Q2498.02 1250.86 2492.37 1256.63 Z" fill="#000000" fill-rule="nonzero" fill-opacity="1"></path><path clip-path="url(#clip800)" d="M2509.24 1229.95 L2515.44 1229.95 L2515.44 1208.53 L2508.69 1209.89 L2508.69 1206.43 L2515.41 1205.07 L2519.2 1205.07 L2519.2 1229.95 L2525.41 1229.95 L2525.41 1233.15 L2509.24 1233.15 L2509.24 1229.95 Z" fill="#000000" fill-rule="nonzero" fill-opacity="1"></path><path clip-path="url(#clip800)" d="M2543.52 1208.38 L2533.93 1223.37 L2543.52 1223.37 L2543.52 1208.38 M2542.53 1205.07 L2547.3 1205.07 L2547.3 1223.37 L2551.31 1223.37 L2551.31 1226.53 L2547.3 1226.53 L2547.3 1233.15 L2543.52 1233.15 L2543.52 1226.53 L2530.85 1226.53 L2530.85 1222.86 L2542.53 1205.07 Z" fill="#000000" fill-rule="nonzero" fill-opacity="1"></path><path clip-path="url(#clip800)" d="M3044.04 1256.63 L3060.36 1256.63 L3060.36 1260.56 L3038.42 1260.56 L3038.42 1256.63 Q3041.08 1253.87 3045.66 1249.24 Q3050.27 1244.59 3051.45 1243.25 Q3053.69 1240.72 3054.57 1238.99 Q3055.48 1237.23 3055.48 1235.54 Q3055.48 1232.78 3053.53 1231.05 Q3051.61 1229.31 3048.51 1229.31 Q3046.31 1229.31 3043.86 1230.08 Q3041.43 1230.84 3038.65 1232.39 L3038.65 1227.67 Q3041.47 1226.53 3043.93 1225.96 Q3046.38 1225.38 3048.42 1225.38 Q3053.79 1225.38 3056.98 1228.06 Q3060.18 1230.75 3060.18 1235.24 Q3060.18 1237.37 3059.37 1239.29 Q3058.58 1241.19 3056.47 1243.78 Q3055.89 1244.45 3052.79 1247.67 Q3049.69 1250.86 3044.04 1256.63 Z" fill="#000000" fill-rule="nonzero" fill-opacity="1"></path><path clip-path="url(#clip800)" d="M3060.91 1229.95 L3067.11 1229.95 L3067.11 1208.53 L3060.36 1209.89 L3060.36 1206.43 L3067.07 1205.07 L3070.87 1205.07 L3070.87 1229.95 L3077.08 1229.95 L3077.08 1233.15 L3060.91 1233.15 L3060.91 1229.95 Z" fill="#000000" fill-rule="nonzero" fill-opacity="1"></path><path clip-path="url(#clip800)" d="M3084.79 1205.07 L3099.71 1205.07 L3099.71 1208.27 L3088.27 1208.27 L3088.27 1215.15 Q3089.1 1214.87 3089.93 1214.74 Q3090.75 1214.59 3091.58 1214.59 Q3096.28 1214.59 3099.03 1217.16 Q3101.78 1219.74 3101.78 1224.14 Q3101.78 1228.68 3098.95 1231.2 Q3096.13 1233.7 3091 1233.7 Q3089.23 1233.7 3087.39 1233.4 Q3085.56 1233.1 3083.61 1232.49 L3083.61 1228.68 Q3085.3 1229.6 3087.11 1230.05 Q3088.91 1230.5 3090.92 1230.5 Q3094.18 1230.5 3096.08 1228.79 Q3097.98 1227.08 3097.98 1224.14 Q3097.98 1221.21 3096.08 1219.5 Q3094.18 1217.79 3090.92 1217.79 Q3089.4 1217.79 3087.88 1218.12 Q3086.37 1218.46 3084.79 1219.18 L3084.79 1205.07 Z" fill="#000000" fill-rule="nonzero" fill-opacity="1"></path><polyline clip-path="url(#clip800)" style="stroke:#000000; stroke-linecap:round; stroke-linejoin:round; stroke-width:4; stroke-opacity:1; fill:none" points="232.098,1176.1 232.098,99.2801 "></polyline>
<polyline clip-path="url(#clip800)" style="stroke:#000000; stroke-linecap:round; stroke-linejoin:round; stroke-width:4; stroke-opacity:1; fill:none" points="232.098,942.01 250.996,942.01 "></polyline>
<polyline clip-path="url(#clip800)" style="stroke:#000000; stroke-linecap:round; stroke-linejoin:round; stroke-width:4; stroke-opacity:1; fill:none" points="232.098,707.919 250.996,707.919 "></polyline>
<polyline clip-path="url(#clip800)" style="stroke:#000000; stroke-linecap:round; stroke-linejoin:round; stroke-width:4; stroke-opacity:1; fill:none" points="232.098,473.827 250.996,473.827 "></polyline>
<polyline clip-path="url(#clip800)" style="stroke:#000000; stroke-linecap:round; stroke-linejoin:round; stroke-width:4; stroke-opacity:1; fill:none" points="232.098,239.735 250.996,239.735 "></polyline>
<path clip-path="url(#clip800)" d="M46.9921 942.462 L76.6679 942.462 L76.6679 946.397 L46.9921 946.397 L46.9921 942.462 Z" fill="#000000" fill-rule="nonzero" fill-opacity="1"></path><path clip-path="url(#clip800)" d="M96.7604 927.809 Q93.1493 927.809 91.3206 931.374 Q89.515 934.915 89.515 942.045 Q89.515 949.151 91.3206 952.716 Q93.1493 956.258 96.7604 956.258 Q100.395 956.258 102.2 952.716 Q104.029 949.151 104.029 942.045 Q104.029 934.915 102.2 931.374 Q100.395 927.809 96.7604 927.809 M96.7604 924.105 Q102.571 924.105 105.626 928.712 Q108.705 933.295 108.705 942.045 Q108.705 950.772 105.626 955.378 Q102.571 959.962 96.7604 959.962 Q90.9502 959.962 87.8715 955.378 Q84.816 950.772 84.816 942.045 Q84.816 933.295 87.8715 928.712 Q90.9502 924.105 96.7604 924.105 Z" fill="#000000" fill-rule="nonzero" fill-opacity="1"></path><path clip-path="url(#clip800)" d="M116.922 953.411 L121.807 953.411 L121.807 959.29 L116.922 959.29 L116.922 953.411 Z" fill="#000000" fill-rule="nonzero" fill-opacity="1"></path><path clip-path="url(#clip800)" d="M132.802 955.355 L140.441 955.355 L140.441 928.989 L132.131 930.656 L132.131 926.397 L140.394 924.73 L145.07 924.73 L145.07 955.355 L152.709 955.355 L152.709 959.29 L132.802 959.29 L132.802 955.355 Z" fill="#000000" fill-rule="nonzero" fill-opacity="1"></path><path clip-path="url(#clip800)" d="M172.153 927.809 Q168.542 927.809 166.714 931.374 Q164.908 934.915 164.908 942.045 Q164.908 949.151 166.714 952.716 Q168.542 956.258 172.153 956.258 Q175.788 956.258 177.593 952.716 Q179.422 949.151 179.422 942.045 Q179.422 934.915 177.593 931.374 Q175.788 927.809 172.153 927.809 M172.153 924.105 Q177.964 924.105 181.019 928.712 Q184.098 933.295 184.098 942.045 Q184.098 950.772 181.019 955.378 Q177.964 959.962 172.153 959.962 Q166.343 959.962 163.265 955.378 Q160.209 950.772 160.209 942.045 Q160.209 933.295 163.265 928.712 Q166.343 924.105 172.153 924.105 Z" fill="#000000" fill-rule="nonzero" fill-opacity="1"></path><path clip-path="url(#clip800)" d="M47.9875 708.37 L77.6633 708.37 L77.6633 712.305 L47.9875 712.305 L47.9875 708.37 Z" fill="#000000" fill-rule="nonzero" fill-opacity="1"></path><path clip-path="url(#clip800)" d="M97.7557 693.717 Q94.1447 693.717 92.316 697.282 Q90.5104 700.824 90.5104 707.953 Q90.5104 715.06 92.316 718.625 Q94.1447 722.166 97.7557 722.166 Q101.39 722.166 103.196 718.625 Q105.024 715.06 105.024 707.953 Q105.024 700.824 103.196 697.282 Q101.39 693.717 97.7557 693.717 M97.7557 690.014 Q103.566 690.014 106.621 694.62 Q109.7 699.203 109.7 707.953 Q109.7 716.68 106.621 721.287 Q103.566 725.87 97.7557 725.87 Q91.9456 725.87 88.8669 721.287 Q85.8114 716.68 85.8114 707.953 Q85.8114 699.203 88.8669 694.62 Q91.9456 690.014 97.7557 690.014 Z" fill="#000000" fill-rule="nonzero" fill-opacity="1"></path><path clip-path="url(#clip800)" d="M117.918 719.319 L122.802 719.319 L122.802 725.199 L117.918 725.199 L117.918 719.319 Z" fill="#000000" fill-rule="nonzero" fill-opacity="1"></path><path clip-path="url(#clip800)" d="M142.987 693.717 Q139.376 693.717 137.547 697.282 Q135.742 700.824 135.742 707.953 Q135.742 715.06 137.547 718.625 Q139.376 722.166 142.987 722.166 Q146.621 722.166 148.427 718.625 Q150.255 715.06 150.255 707.953 Q150.255 700.824 148.427 697.282 Q146.621 693.717 142.987 693.717 M142.987 690.014 Q148.797 690.014 151.853 694.62 Q154.931 699.203 154.931 707.953 Q154.931 716.68 151.853 721.287 Q148.797 725.87 142.987 725.87 Q137.177 725.87 134.098 721.287 Q131.043 716.68 131.043 707.953 Q131.043 699.203 134.098 694.62 Q137.177 690.014 142.987 690.014 Z" fill="#000000" fill-rule="nonzero" fill-opacity="1"></path><path clip-path="url(#clip800)" d="M163.195 690.639 L181.552 690.639 L181.552 694.574 L167.478 694.574 L167.478 703.046 Q168.496 702.699 169.515 702.537 Q170.533 702.351 171.552 702.351 Q177.339 702.351 180.718 705.523 Q184.098 708.694 184.098 714.111 Q184.098 719.689 180.626 722.791 Q177.153 725.87 170.834 725.87 Q168.658 725.87 166.39 725.499 Q164.144 725.129 161.737 724.388 L161.737 719.689 Q163.82 720.824 166.042 721.379 Q168.265 721.935 170.741 721.935 Q174.746 721.935 177.084 719.828 Q179.422 717.722 179.422 714.111 Q179.422 710.5 177.084 708.393 Q174.746 706.287 170.741 706.287 Q168.866 706.287 166.991 706.703 Q165.14 707.12 163.195 708 L163.195 690.639 Z" fill="#000000" fill-rule="nonzero" fill-opacity="1"></path><path clip-path="url(#clip800)" d="M96.7604 459.626 Q93.1493 459.626 91.3206 463.19 Q89.515 466.732 89.515 473.862 Q89.515 480.968 91.3206 484.533 Q93.1493 488.074 96.7604 488.074 Q100.395 488.074 102.2 484.533 Q104.029 480.968 104.029 473.862 Q104.029 466.732 102.2 463.19 Q100.395 459.626 96.7604 459.626 M96.7604 455.922 Q102.571 455.922 105.626 460.528 Q108.705 465.112 108.705 473.862 Q108.705 482.588 105.626 487.195 Q102.571 491.778 96.7604 491.778 Q90.9502 491.778 87.8715 487.195 Q84.816 482.588 84.816 473.862 Q84.816 465.112 87.8715 460.528 Q90.9502 455.922 96.7604 455.922 Z" fill="#000000" fill-rule="nonzero" fill-opacity="1"></path><path clip-path="url(#clip800)" d="M116.922 485.227 L121.807 485.227 L121.807 491.107 L116.922 491.107 L116.922 485.227 Z" fill="#000000" fill-rule="nonzero" fill-opacity="1"></path><path clip-path="url(#clip800)" d="M141.992 459.626 Q138.381 459.626 136.552 463.19 Q134.746 466.732 134.746 473.862 Q134.746 480.968 136.552 484.533 Q138.381 488.074 141.992 488.074 Q145.626 488.074 147.431 484.533 Q149.26 480.968 149.26 473.862 Q149.26 466.732 147.431 463.19 Q145.626 459.626 141.992 459.626 M141.992 455.922 Q147.802 455.922 150.857 460.528 Q153.936 465.112 153.936 473.862 Q153.936 482.588 150.857 487.195 Q147.802 491.778 141.992 491.778 Q136.181 491.778 133.103 487.195 Q130.047 482.588 130.047 473.862 Q130.047 465.112 133.103 460.528 Q136.181 455.922 141.992 455.922 Z" fill="#000000" fill-rule="nonzero" fill-opacity="1"></path><path clip-path="url(#clip800)" d="M172.153 459.626 Q168.542 459.626 166.714 463.19 Q164.908 466.732 164.908 473.862 Q164.908 480.968 166.714 484.533 Q168.542 488.074 172.153 488.074 Q175.788 488.074 177.593 484.533 Q179.422 480.968 179.422 473.862 Q179.422 466.732 177.593 463.19 Q175.788 459.626 172.153 459.626 M172.153 455.922 Q177.964 455.922 181.019 460.528 Q184.098 465.112 184.098 473.862 Q184.098 482.588 181.019 487.195 Q177.964 491.778 172.153 491.778 Q166.343 491.778 163.265 487.195 Q160.209 482.588 160.209 473.862 Q160.209 465.112 163.265 460.528 Q166.343 455.922 172.153 455.922 Z" fill="#000000" fill-rule="nonzero" fill-opacity="1"></path><path clip-path="url(#clip800)" d="M97.7557 225.534 Q94.1447 225.534 92.316 229.099 Q90.5104 232.64 90.5104 239.77 Q90.5104 246.876 92.316 250.441 Q94.1447 253.983 97.7557 253.983 Q101.39 253.983 103.196 250.441 Q105.024 246.876 105.024 239.77 Q105.024 232.64 103.196 229.099 Q101.39 225.534 97.7557 225.534 M97.7557 221.83 Q103.566 221.83 106.621 226.437 Q109.7 231.02 109.7 239.77 Q109.7 248.497 106.621 253.103 Q103.566 257.686 97.7557 257.686 Q91.9456 257.686 88.8669 253.103 Q85.8114 248.497 85.8114 239.77 Q85.8114 231.02 88.8669 226.437 Q91.9456 221.83 97.7557 221.83 Z" fill="#000000" fill-rule="nonzero" fill-opacity="1"></path><path clip-path="url(#clip800)" d="M117.918 251.136 L122.802 251.136 L122.802 257.015 L117.918 257.015 L117.918 251.136 Z" fill="#000000" fill-rule="nonzero" fill-opacity="1"></path><path clip-path="url(#clip800)" d="M142.987 225.534 Q139.376 225.534 137.547 229.099 Q135.742 232.64 135.742 239.77 Q135.742 246.876 137.547 250.441 Q139.376 253.983 142.987 253.983 Q146.621 253.983 148.427 250.441 Q150.255 246.876 150.255 239.77 Q150.255 232.64 148.427 229.099 Q146.621 225.534 142.987 225.534 M142.987 221.83 Q148.797 221.83 151.853 226.437 Q154.931 231.02 154.931 239.77 Q154.931 248.497 151.853 253.103 Q148.797 257.686 142.987 257.686 Q137.177 257.686 134.098 253.103 Q131.043 248.497 131.043 239.77 Q131.043 231.02 134.098 226.437 Q137.177 221.83 142.987 221.83 Z" fill="#000000" fill-rule="nonzero" fill-opacity="1"></path><path clip-path="url(#clip800)" d="M163.195 222.455 L181.552 222.455 L181.552 226.39 L167.478 226.39 L167.478 234.862 Q168.496 234.515 169.515 234.353 Q170.533 234.168 171.552 234.168 Q177.339 234.168 180.718 237.339 Q184.098 240.511 184.098 245.927 Q184.098 251.506 180.626 254.608 Q177.153 257.686 170.834 257.686 Q168.658 257.686 166.39 257.316 Q164.144 256.946 161.737 256.205 L161.737 251.506 Q163.82 252.64 166.042 253.196 Q168.265 253.751 170.741 253.751 Q174.746 253.751 177.084 251.645 Q179.422 249.538 179.422 245.927 Q179.422 242.316 177.084 240.21 Q174.746 238.103 170.741 238.103 Q168.866 238.103 166.991 238.52 Q165.14 238.937 163.195 239.816 L163.195 222.455 Z" fill="#000000" fill-rule="nonzero" fill-opacity="1"></path><path clip-path="url(#clip800)" d="M1282.41 14.0809 L1282.41 22.0612 Q1277.76 19.8332 1273.62 18.7395 Q1269.49 17.6457 1265.64 17.6457 Q1258.96 17.6457 1255.31 20.2383 Q1251.71 22.8309 1251.71 27.611 Q1251.71 31.6214 1254.1 33.6873 Q1256.53 35.7128 1263.25 36.9686 L1268.2 37.9813 Q1277.35 39.7232 1281.69 44.1387 Q1286.06 48.5136 1286.06 55.8863 Q1286.06 64.6767 1280.15 69.2137 Q1274.27 73.7508 1262.89 73.7508 Q1258.6 73.7508 1253.73 72.7785 Q1248.91 71.8063 1243.73 69.9024 L1243.73 61.4765 Q1248.71 64.2716 1253.49 65.6895 Q1258.27 67.1073 1262.89 67.1073 Q1269.9 67.1073 1273.71 64.3527 Q1277.51 61.598 1277.51 56.4939 Q1277.51 52.0379 1274.76 49.5264 Q1272.04 47.0148 1265.81 45.759 L1260.82 44.7868 Q1251.67 42.9639 1247.58 39.075 Q1243.49 35.1862 1243.49 28.2591 Q1243.49 20.2383 1249.12 15.6203 Q1254.79 11.0023 1264.71 11.0023 Q1268.97 11.0023 1273.38 11.7719 Q1277.8 12.5416 1282.41 14.0809 Z" fill="#000000" fill-rule="nonzero" fill-opacity="1"></path><path clip-path="url(#clip800)" d="M1325.84 34.9026 L1377.77 34.9026 L1377.77 41.7081 L1325.84 41.7081 L1325.84 34.9026 M1325.84 51.4303 L1377.77 51.4303 L1377.77 58.3168 L1325.84 58.3168 L1325.84 51.4303 Z" fill="#000000" fill-rule="nonzero" fill-opacity="1"></path><path clip-path="url(#clip800)" d="M1455.35 80.2727 L1455.35 86.106 L1452.84 86.106 Q1442.75 86.106 1439.31 83.1084 Q1435.9 80.1107 1435.9 71.1582 L1435.9 61.4765 Q1435.9 55.3597 1433.72 53.0101 Q1431.53 50.6606 1425.78 50.6606 L1423.31 50.6606 L1423.31 44.8678 L1425.78 44.8678 Q1431.57 44.8678 1433.72 42.5588 Q1435.9 40.2093 1435.9 34.1734 L1435.9 24.4513 Q1435.9 15.4988 1439.31 12.5416 Q1442.75 9.54393 1452.84 9.54393 L1455.35 9.54393 L1455.35 15.3367 L1452.59 15.3367 Q1446.88 15.3367 1445.14 17.1191 Q1443.4 18.9015 1443.4 24.6133 L1443.4 34.6595 Q1443.4 41.0195 1441.53 43.8956 Q1439.71 46.7717 1435.26 47.7845 Q1439.75 48.8782 1441.57 51.7544 Q1443.4 54.6305 1443.4 60.9499 L1443.4 70.9961 Q1443.4 76.7079 1445.14 78.4903 Q1446.88 80.2727 1452.59 80.2727 L1455.35 80.2727 Z" fill="#000000" fill-rule="nonzero" fill-opacity="1"></path><path clip-path="url(#clip800)" d="M1476.01 65.6895 L1489.38 65.6895 L1489.38 19.5497 L1474.83 22.4663 L1474.83 15.0127 L1489.29 12.096 L1497.48 12.096 L1497.48 65.6895 L1510.85 65.6895 L1510.85 72.576 L1476.01 72.576 L1476.01 65.6895 Z" fill="#000000" fill-rule="nonzero" fill-opacity="1"></path><path clip-path="url(#clip800)" d="M1528.22 62.2867 L1536.77 62.2867 L1536.77 69.2543 L1530.13 82.2172 L1524.9 82.2172 L1528.22 69.2543 L1528.22 62.2867 Z" fill="#000000" fill-rule="nonzero" fill-opacity="1"></path><path clip-path="url(#clip800)" d="M1580.2 12.096 L1612.32 12.096 L1612.32 18.9825 L1587.69 18.9825 L1587.69 33.8088 Q1589.47 33.2012 1591.26 32.9176 Q1593.04 32.5936 1594.82 32.5936 Q1604.95 32.5936 1610.86 38.1433 Q1616.78 43.6931 1616.78 53.1722 Q1616.78 62.9348 1610.7 68.3631 Q1604.62 73.7508 1593.56 73.7508 Q1589.76 73.7508 1585.79 73.1026 Q1581.86 72.4545 1577.64 71.1582 L1577.64 62.9348 Q1581.29 64.9198 1585.18 65.892 Q1589.07 66.8642 1593.4 66.8642 Q1600.41 66.8642 1604.5 63.1779 Q1608.59 59.4916 1608.59 53.1722 Q1608.59 46.8528 1604.5 43.1664 Q1600.41 39.4801 1593.4 39.4801 Q1590.12 39.4801 1586.84 40.2093 Q1583.6 40.9384 1580.2 42.4778 L1580.2 12.096 Z" fill="#000000" fill-rule="nonzero" fill-opacity="1"></path><path clip-path="url(#clip800)" d="M1633.75 62.2867 L1642.3 62.2867 L1642.3 69.2543 L1635.65 82.2172 L1630.43 82.2172 L1633.75 69.2543 L1633.75 62.2867 Z" fill="#000000" fill-rule="nonzero" fill-opacity="1"></path><path clip-path="url(#clip800)" d="M1687.06 65.6895 L1700.43 65.6895 L1700.43 19.5497 L1685.88 22.4663 L1685.88 15.0127 L1700.35 12.096 L1708.53 12.096 L1708.53 65.6895 L1721.9 65.6895 L1721.9 72.576 L1687.06 72.576 L1687.06 65.6895 Z" fill="#000000" fill-rule="nonzero" fill-opacity="1"></path><path clip-path="url(#clip800)" d="M1755.92 17.4837 Q1749.61 17.4837 1746.41 23.7221 Q1743.25 29.92 1743.25 42.3968 Q1743.25 54.833 1746.41 61.0714 Q1749.61 67.2693 1755.92 67.2693 Q1762.28 67.2693 1765.44 61.0714 Q1768.64 54.833 1768.64 42.3968 Q1768.64 29.92 1765.44 23.7221 Q1762.28 17.4837 1755.92 17.4837 M1755.92 11.0023 Q1766.09 11.0023 1771.44 19.0636 Q1776.83 27.0843 1776.83 42.3968 Q1776.83 57.6687 1771.44 65.73 Q1766.09 73.7508 1755.92 73.7508 Q1745.76 73.7508 1740.37 65.73 Q1735.02 57.6687 1735.02 42.3968 Q1735.02 27.0843 1740.37 19.0636 Q1745.76 11.0023 1755.92 11.0023 Z" fill="#000000" fill-rule="nonzero" fill-opacity="1"></path><path clip-path="url(#clip800)" d="M1792.06 62.2867 L1800.61 62.2867 L1800.61 69.2543 L1793.96 82.2172 L1788.74 82.2172 L1792.06 69.2543 L1792.06 62.2867 Z" fill="#000000" fill-rule="nonzero" fill-opacity="1"></path><path clip-path="url(#clip800)" d="M1845.37 65.6895 L1858.74 65.6895 L1858.74 19.5497 L1844.19 22.4663 L1844.19 15.0127 L1858.66 12.096 L1866.84 12.096 L1866.84 65.6895 L1880.21 65.6895 L1880.21 72.576 L1845.37 72.576 L1845.37 65.6895 Z" fill="#000000" fill-rule="nonzero" fill-opacity="1"></path><path clip-path="url(#clip800)" d="M1896.82 12.096 L1928.94 12.096 L1928.94 18.9825 L1904.31 18.9825 L1904.31 33.8088 Q1906.09 33.2012 1907.87 32.9176 Q1909.66 32.5936 1911.44 32.5936 Q1921.57 32.5936 1927.48 38.1433 Q1933.39 43.6931 1933.39 53.1722 Q1933.39 62.9348 1927.32 68.3631 Q1921.24 73.7508 1910.18 73.7508 Q1906.38 73.7508 1902.41 73.1026 Q1898.48 72.4545 1894.26 71.1582 L1894.26 62.9348 Q1897.91 64.9198 1901.8 65.892 Q1905.69 66.8642 1910.02 66.8642 Q1917.03 66.8642 1921.12 63.1779 Q1925.21 59.4916 1925.21 53.1722 Q1925.21 46.8528 1921.12 43.1664 Q1917.03 39.4801 1910.02 39.4801 Q1906.74 39.4801 1903.46 40.2093 Q1900.22 40.9384 1896.82 42.4778 L1896.82 12.096 Z" fill="#000000" fill-rule="nonzero" fill-opacity="1"></path><path clip-path="url(#clip800)" d="M1950.37 62.2867 L1958.92 62.2867 L1958.92 69.2543 L1952.27 82.2172 L1947.05 82.2172 L1950.37 69.2543 L1950.37 62.2867 Z" fill="#000000" fill-rule="nonzero" fill-opacity="1"></path><path clip-path="url(#clip800)" d="M2009.31 65.6895 L2037.87 65.6895 L2037.87 72.576 L1999.47 72.576 L1999.47 65.6895 Q2004.12 60.8689 2012.14 52.7671 Q2020.21 44.6248 2022.27 42.2752 Q2026.2 37.8598 2027.74 34.8216 Q2029.32 31.7429 2029.32 28.7857 Q2029.32 23.9651 2025.92 20.927 Q2022.56 17.8888 2017.13 17.8888 Q2013.28 17.8888 2008.98 19.2256 Q2004.73 20.5624 1999.87 23.2765 L1999.87 15.0127 Q2004.81 13.0277 2009.11 12.015 Q2013.4 11.0023 2016.97 11.0023 Q2026.36 11.0023 2031.95 15.7013 Q2037.54 20.4004 2037.54 28.2591 Q2037.54 31.9859 2036.13 35.3482 Q2034.75 38.6699 2031.06 43.2069 Q2030.05 44.3817 2024.62 50.0125 Q2019.19 55.6027 2009.31 65.6895 Z" fill="#000000" fill-rule="nonzero" fill-opacity="1"></path><path clip-path="url(#clip800)" d="M2072.54 17.4837 Q2066.22 17.4837 2063.02 23.7221 Q2059.86 29.92 2059.86 42.3968 Q2059.86 54.833 2063.02 61.0714 Q2066.22 67.2693 2072.54 67.2693 Q2078.9 67.2693 2082.06 61.0714 Q2085.26 54.833 2085.26 42.3968 Q2085.26 29.92 2082.06 23.7221 Q2078.9 17.4837 2072.54 17.4837 M2072.54 11.0023 Q2082.71 11.0023 2088.06 19.0636 Q2093.45 27.0843 2093.45 42.3968 Q2093.45 57.6687 2088.06 65.73 Q2082.71 73.7508 2072.54 73.7508 Q2062.38 73.7508 2056.99 65.73 Q2051.64 57.6687 2051.64 42.3968 Q2051.64 27.0843 2056.99 19.0636 Q2062.38 11.0023 2072.54 11.0023 Z" fill="#000000" fill-rule="nonzero" fill-opacity="1"></path><path clip-path="url(#clip800)" d="M2109.33 80.2727 L2112.16 80.2727 Q2117.83 80.2727 2119.53 78.5308 Q2121.28 76.7889 2121.28 70.9961 L2121.28 60.9499 Q2121.28 54.6305 2123.1 51.7544 Q2124.92 48.8782 2129.42 47.7845 Q2124.92 46.7717 2123.1 43.8956 Q2121.28 41.0195 2121.28 34.6595 L2121.28 24.6133 Q2121.28 18.861 2119.53 17.1191 Q2117.83 15.3367 2112.16 15.3367 L2109.33 15.3367 L2109.33 9.54393 L2111.88 9.54393 Q2121.96 9.54393 2125.33 12.5416 Q2128.73 15.4988 2128.73 24.4513 L2128.73 34.1734 Q2128.73 40.2093 2130.92 42.5588 Q2133.1 44.8678 2138.86 44.8678 L2141.37 44.8678 L2141.37 50.6606 L2138.86 50.6606 Q2133.1 50.6606 2130.92 53.0101 Q2128.73 55.3597 2128.73 61.4765 L2128.73 71.1582 Q2128.73 80.1107 2125.33 83.1084 Q2121.96 86.106 2111.88 86.106 L2109.33 86.106 L2109.33 80.2727 Z" fill="#000000" fill-rule="nonzero" fill-opacity="1"></path><path clip-path="url(#clip802)" d="M314.758 874.535 L865.826 1077.26 L1416.89 787.838 L1967.96 614.961 L2519.03 774.255 L3070.1 772.724 L3070.1 747.955 L2519.03 673.354 L1967.96 463.45 L1416.89 513.63 L865.826 362.66 L314.758 73.1186  Z" fill="#7e99f4" fill-rule="evenodd" fill-opacity="0.25"></path>
<polyline clip-path="url(#clip802)" style="stroke:#7e99f4; stroke-linecap:round; stroke-linejoin:round; stroke-width:10.8; stroke-opacity:1; fill:none" points="314.758,473.827 865.826,719.958 1416.89,650.734 1967.96,539.206 2519.03,723.804 3070.1,760.339 "></polyline>
<polyline clip-path="url(#clip802)" style="stroke:#e26f46; stroke-linecap:round; stroke-linejoin:round; stroke-width:7.2; stroke-opacity:0.8; fill:none" stroke-dasharray="29, 18" points="314.758,546.255 865.826,673.004 1416.89,745.431 1967.96,727.325 2519.03,849.547 3070.1,742.036 "></polyline>
<path clip-path="url(#clip802)" d="M314.758 1216.92 L865.826 975.637 L1416.89 882.293 L1967.96 825.48 L2519.03 766.015 L3070.1 840.167 L3070.1 810.865 L2519.03 688.578 L1967.96 612.215 L1416.89 589.198 L865.826 614.14 L314.758 339.057  Z" fill="#cc7c71" fill-rule="evenodd" fill-opacity="0.25"></path>
<polyline clip-path="url(#clip802)" style="stroke:#cc7c71; stroke-linecap:round; stroke-linejoin:round; stroke-width:10.8; stroke-opacity:1; fill:none" stroke-dasharray="43, 22, 5, 22" points="314.758,777.99 865.826,794.888 1416.89,735.745 1967.96,718.847 2519.03,727.296 3070.1,825.516 "></polyline>
<polyline clip-path="url(#clip802)" style="stroke:#c271d2; stroke-linecap:round; stroke-linejoin:round; stroke-width:7.2; stroke-opacity:0.8; fill:none" stroke-dasharray="29, 18" points="314.758,667.114 865.826,1005.37 1416.89,804.027 1967.96,755.705 2519.03,769.799 3070.1,737.584 "></polyline>
<polyline clip-path="url(#clip802)" style="stroke:#ac8d18; stroke-linecap:round; stroke-linejoin:round; stroke-width:7.2; stroke-opacity:0.8; fill:none" stroke-dasharray="29, 18" points="314.758,1170.83 865.826,584.714 1416.89,473.827 1967.96,889.655 2519.03,826.291 3070.1,783.718 "></polyline>
<polyline clip-path="url(#clip802)" style="stroke:#00a9ad; stroke-linecap:round; stroke-linejoin:round; stroke-width:7.2; stroke-opacity:0.8; fill:none" stroke-dasharray="29, 18" points="314.758,473.827 865.826,865.774 1416.89,740.351 1967.96,834.418 2519.03,708.995 3070.1,715.854 "></polyline>
<polyline clip-path="url(#clip802)" style="stroke:#000000; stroke-linecap:round; stroke-linejoin:round; stroke-width:8; stroke-opacity:1; fill:none" stroke-dasharray="4, 8" points="-2688.56,739.879 6073.41,739.879 "></polyline>
<path clip-path="url(#clip800)" d="M720.13 238.854 L3055.4 238.854 L3055.4 135.174 L720.13 135.174  Z" fill="#ffffff" fill-rule="evenodd" fill-opacity="1"></path>
<polyline clip-path="url(#clip800)" style="stroke:#000000; stroke-linecap:round; stroke-linejoin:round; stroke-width:4; stroke-opacity:1; fill:none" points="720.13,238.854 3055.4,238.854 3055.4,135.174 720.13,135.174 720.13,238.854 "></polyline>
<polyline clip-path="url(#clip800)" style="stroke:#7e99f4; stroke-linecap:round; stroke-linejoin:round; stroke-width:10.8; stroke-opacity:1; fill:none" points="752.581,187.014 947.292,187.014 "></polyline>
<path clip-path="url(#clip800)" d="M979.744 169.734 L999.605 169.734 L999.605 173.669 L984.42 173.669 L984.42 183.854 L998.123 183.854 L998.123 187.79 L984.42 187.79 L984.42 204.294 L979.744 204.294 L979.744 169.734 Z" fill="#000000" fill-rule="nonzero" fill-opacity="1"></path><path clip-path="url(#clip800)" d="M1032.89 172.396 L1032.89 177.327 Q1030.53 175.128 1027.85 174.04 Q1025.18 172.952 1022.17 172.952 Q1016.25 172.952 1013.1 176.586 Q1009.95 180.197 1009.95 187.049 Q1009.95 193.878 1013.1 197.512 Q1016.25 201.123 1022.17 201.123 Q1025.18 201.123 1027.85 200.035 Q1030.53 198.947 1032.89 196.748 L1032.89 201.632 Q1030.44 203.299 1027.68 204.132 Q1024.95 204.965 1021.9 204.965 Q1014.05 204.965 1009.54 200.174 Q1005.02 195.359 1005.02 187.049 Q1005.02 178.716 1009.54 173.924 Q1014.05 169.109 1021.9 169.109 Q1025 169.109 1027.73 169.943 Q1030.48 170.753 1032.89 172.396 Z" fill="#000000" fill-rule="nonzero" fill-opacity="1"></path><path clip-path="url(#clip800)" d="M1060.83 170.868 L1060.83 175.429 Q1058.17 174.155 1055.81 173.53 Q1053.45 172.905 1051.25 172.905 Q1047.43 172.905 1045.35 174.387 Q1043.29 175.868 1043.29 178.6 Q1043.29 180.892 1044.65 182.072 Q1046.04 183.229 1049.88 183.947 L1052.71 184.526 Q1057.94 185.521 1060.41 188.044 Q1062.91 190.544 1062.91 194.757 Q1062.91 199.78 1059.53 202.373 Q1056.18 204.965 1049.67 204.965 Q1047.22 204.965 1044.44 204.41 Q1041.69 203.854 1038.72 202.766 L1038.72 197.952 Q1041.57 199.549 1044.3 200.359 Q1047.04 201.169 1049.67 201.169 Q1053.68 201.169 1055.85 199.595 Q1058.03 198.021 1058.03 195.104 Q1058.03 192.558 1056.46 191.123 Q1054.91 189.688 1051.34 188.97 L1048.49 188.415 Q1043.26 187.373 1040.92 185.151 Q1038.59 182.929 1038.59 178.97 Q1038.59 174.387 1041.8 171.748 Q1045.04 169.109 1050.72 169.109 Q1053.15 169.109 1055.67 169.549 Q1058.19 169.989 1060.83 170.868 Z" fill="#000000" fill-rule="nonzero" fill-opacity="1"></path><polyline clip-path="url(#clip800)" style="stroke:#e26f46; stroke-linecap:round; stroke-linejoin:round; stroke-width:7.2; stroke-opacity:0.8; fill:none" stroke-dasharray="29, 18" points="1136.38,187.014 1331.1,187.014 "></polyline>
<path clip-path="url(#clip800)" d="M1382.46 182.304 L1382.46 168.276 L1386.72 168.276 L1386.72 204.294 L1382.46 204.294 L1382.46 200.405 Q1381.12 202.72 1379.06 203.854 Q1377.02 204.965 1374.15 204.965 Q1369.45 204.965 1366.49 201.215 Q1363.55 197.466 1363.55 191.354 Q1363.55 185.243 1366.49 181.493 Q1369.45 177.743 1374.15 177.743 Q1377.02 177.743 1379.06 178.878 Q1381.12 179.989 1382.46 182.304 M1367.95 191.354 Q1367.95 196.053 1369.87 198.739 Q1371.81 201.401 1375.19 201.401 Q1378.57 201.401 1380.51 198.739 Q1382.46 196.053 1382.46 191.354 Q1382.46 186.655 1380.51 183.993 Q1378.57 181.308 1375.19 181.308 Q1371.81 181.308 1369.87 183.993 Q1367.95 186.655 1367.95 191.354 Z" fill="#000000" fill-rule="nonzero" fill-opacity="1"></path><path clip-path="url(#clip800)" d="M1396.05 182.767 L1425.72 182.767 L1425.72 186.655 L1396.05 186.655 L1396.05 182.767 M1396.05 192.211 L1425.72 192.211 L1425.72 196.146 L1396.05 196.146 L1396.05 192.211 Z" fill="#000000" fill-rule="nonzero" fill-opacity="1"></path><path clip-path="url(#clip800)" d="M1435.86 169.734 L1454.22 169.734 L1454.22 173.669 L1440.14 173.669 L1440.14 182.142 Q1441.16 181.794 1442.18 181.632 Q1443.2 181.447 1444.22 181.447 Q1450 181.447 1453.38 184.618 Q1456.76 187.79 1456.76 193.206 Q1456.76 198.785 1453.29 201.887 Q1449.82 204.965 1443.5 204.965 Q1441.32 204.965 1439.06 204.595 Q1436.81 204.225 1434.4 203.484 L1434.4 198.785 Q1436.49 199.919 1438.71 200.475 Q1440.93 201.03 1443.41 201.03 Q1447.41 201.03 1449.75 198.924 Q1452.09 196.817 1452.09 193.206 Q1452.09 189.595 1449.75 187.489 Q1447.41 185.382 1443.41 185.382 Q1441.53 185.382 1439.66 185.799 Q1437.81 186.216 1435.86 187.095 L1435.86 169.734 Z" fill="#000000" fill-rule="nonzero" fill-opacity="1"></path><polyline clip-path="url(#clip800)" style="stroke:#cc7c71; stroke-linecap:round; stroke-linejoin:round; stroke-width:10.8; stroke-opacity:1; fill:none" stroke-dasharray="43, 22, 5, 22" points="1520.19,187.014 1714.9,187.014 "></polyline>
<path clip-path="url(#clip800)" d="M1766.26 182.304 L1766.26 168.276 L1770.52 168.276 L1770.52 204.294 L1766.26 204.294 L1766.26 200.405 Q1764.92 202.72 1762.86 203.854 Q1760.82 204.965 1757.95 204.965 Q1753.25 204.965 1750.29 201.215 Q1747.35 197.466 1747.35 191.354 Q1747.35 185.243 1750.29 181.493 Q1753.25 177.743 1757.95 177.743 Q1760.82 177.743 1762.86 178.878 Q1764.92 179.989 1766.26 182.304 M1751.75 191.354 Q1751.75 196.053 1753.67 198.739 Q1755.61 201.401 1758.99 201.401 Q1762.37 201.401 1764.32 198.739 Q1766.26 196.053 1766.26 191.354 Q1766.26 186.655 1764.32 183.993 Q1762.37 181.308 1758.99 181.308 Q1755.61 181.308 1753.67 183.993 Q1751.75 186.655 1751.75 191.354 Z" fill="#000000" fill-rule="nonzero" fill-opacity="1"></path><path clip-path="url(#clip800)" d="M1779.85 182.767 L1809.53 182.767 L1809.53 186.655 L1779.85 186.655 L1779.85 182.767 M1779.85 192.211 L1809.53 192.211 L1809.53 196.146 L1779.85 196.146 L1779.85 192.211 Z" fill="#000000" fill-rule="nonzero" fill-opacity="1"></path><path clip-path="url(#clip800)" d="M1819.76 203.577 L1819.76 199.317 Q1821.52 200.151 1823.32 200.591 Q1825.13 201.03 1826.86 201.03 Q1831.49 201.03 1833.92 197.928 Q1836.38 194.803 1836.72 188.461 Q1835.38 190.452 1833.32 191.516 Q1831.26 192.581 1828.76 192.581 Q1823.58 192.581 1820.54 189.456 Q1817.53 186.308 1817.53 180.868 Q1817.53 175.544 1820.68 172.327 Q1823.83 169.109 1829.06 169.109 Q1835.06 169.109 1838.21 173.716 Q1841.38 178.299 1841.38 187.049 Q1841.38 195.22 1837.49 200.104 Q1833.62 204.965 1827.07 204.965 Q1825.31 204.965 1823.51 204.618 Q1821.7 204.271 1819.76 203.577 M1829.06 188.924 Q1832.21 188.924 1834.04 186.771 Q1835.89 184.618 1835.89 180.868 Q1835.89 177.142 1834.04 174.989 Q1832.21 172.813 1829.06 172.813 Q1825.91 172.813 1824.06 174.989 Q1822.23 177.142 1822.23 180.868 Q1822.23 184.618 1824.06 186.771 Q1825.91 188.924 1829.06 188.924 Z" fill="#000000" fill-rule="nonzero" fill-opacity="1"></path><polyline clip-path="url(#clip800)" style="stroke:#c271d2; stroke-linecap:round; stroke-linejoin:round; stroke-width:7.2; stroke-opacity:0.8; fill:none" stroke-dasharray="29, 18" points="1903.99,187.014 2098.7,187.014 "></polyline>
<path clip-path="url(#clip800)" d="M2150.07 182.304 L2150.07 168.276 L2154.32 168.276 L2154.32 204.294 L2150.07 204.294 L2150.07 200.405 Q2148.72 202.72 2146.66 203.854 Q2144.63 204.965 2141.76 204.965 Q2137.06 204.965 2134.09 201.215 Q2131.15 197.466 2131.15 191.354 Q2131.15 185.243 2134.09 181.493 Q2137.06 177.743 2141.76 177.743 Q2144.63 177.743 2146.66 178.878 Q2148.72 179.989 2150.07 182.304 M2135.55 191.354 Q2135.55 196.053 2137.47 198.739 Q2139.42 201.401 2142.8 201.401 Q2146.18 201.401 2148.12 198.739 Q2150.07 196.053 2150.07 191.354 Q2150.07 186.655 2148.12 183.993 Q2146.18 181.308 2142.8 181.308 Q2139.42 181.308 2137.47 183.993 Q2135.55 186.655 2135.55 191.354 Z" fill="#000000" fill-rule="nonzero" fill-opacity="1"></path><path clip-path="url(#clip800)" d="M2163.65 182.767 L2193.33 182.767 L2193.33 186.655 L2163.65 186.655 L2163.65 182.767 M2163.65 192.211 L2193.33 192.211 L2193.33 196.146 L2163.65 196.146 L2163.65 192.211 Z" fill="#000000" fill-rule="nonzero" fill-opacity="1"></path><path clip-path="url(#clip800)" d="M2204.23 200.359 L2211.87 200.359 L2211.87 173.993 L2203.56 175.66 L2203.56 171.401 L2211.82 169.734 L2216.5 169.734 L2216.5 200.359 L2224.14 200.359 L2224.14 204.294 L2204.23 204.294 L2204.23 200.359 Z" fill="#000000" fill-rule="nonzero" fill-opacity="1"></path><path clip-path="url(#clip800)" d="M2233.63 169.734 L2251.99 169.734 L2251.99 173.669 L2237.91 173.669 L2237.91 182.142 Q2238.93 181.794 2239.95 181.632 Q2240.97 181.447 2241.99 181.447 Q2247.77 181.447 2251.15 184.618 Q2254.53 187.79 2254.53 193.206 Q2254.53 198.785 2251.06 201.887 Q2247.59 204.965 2241.27 204.965 Q2239.09 204.965 2236.82 204.595 Q2234.58 204.225 2232.17 203.484 L2232.17 198.785 Q2234.25 199.919 2236.48 200.475 Q2238.7 201.03 2241.18 201.03 Q2245.18 201.03 2247.52 198.924 Q2249.86 196.817 2249.86 193.206 Q2249.86 189.595 2247.52 187.489 Q2245.18 185.382 2241.18 185.382 Q2239.3 185.382 2237.43 185.799 Q2235.57 186.216 2233.63 187.095 L2233.63 169.734 Z" fill="#000000" fill-rule="nonzero" fill-opacity="1"></path><polyline clip-path="url(#clip800)" style="stroke:#ac8d18; stroke-linecap:round; stroke-linejoin:round; stroke-width:7.2; stroke-opacity:0.8; fill:none" stroke-dasharray="29, 18" points="2287.79,187.014 2482.5,187.014 "></polyline>
<path clip-path="url(#clip800)" d="M2533.87 182.304 L2533.87 168.276 L2538.13 168.276 L2538.13 204.294 L2533.87 204.294 L2533.87 200.405 Q2532.53 202.72 2530.47 203.854 Q2528.43 204.965 2525.56 204.965 Q2520.86 204.965 2517.9 201.215 Q2514.96 197.466 2514.96 191.354 Q2514.96 185.243 2517.9 181.493 Q2520.86 177.743 2525.56 177.743 Q2528.43 177.743 2530.47 178.878 Q2532.53 179.989 2533.87 182.304 M2519.35 191.354 Q2519.35 196.053 2521.28 198.739 Q2523.22 201.401 2526.6 201.401 Q2529.98 201.401 2531.92 198.739 Q2533.87 196.053 2533.87 191.354 Q2533.87 186.655 2531.92 183.993 Q2529.98 181.308 2526.6 181.308 Q2523.22 181.308 2521.28 183.993 Q2519.35 186.655 2519.35 191.354 Z" fill="#000000" fill-rule="nonzero" fill-opacity="1"></path><path clip-path="url(#clip800)" d="M2547.46 182.767 L2577.13 182.767 L2577.13 186.655 L2547.46 186.655 L2547.46 182.767 M2547.46 192.211 L2577.13 192.211 L2577.13 196.146 L2547.46 196.146 L2547.46 192.211 Z" fill="#000000" fill-rule="nonzero" fill-opacity="1"></path><path clip-path="url(#clip800)" d="M2588.03 200.359 L2595.67 200.359 L2595.67 173.993 L2587.36 175.66 L2587.36 171.401 L2595.63 169.734 L2600.3 169.734 L2600.3 200.359 L2607.94 200.359 L2607.94 204.294 L2588.03 204.294 L2588.03 200.359 Z" fill="#000000" fill-rule="nonzero" fill-opacity="1"></path><path clip-path="url(#clip800)" d="M2617.53 203.577 L2617.53 199.317 Q2619.28 200.151 2621.09 200.591 Q2622.9 201.03 2624.63 201.03 Q2629.26 201.03 2631.69 197.928 Q2634.15 194.803 2634.49 188.461 Q2633.15 190.452 2631.09 191.516 Q2629.03 192.581 2626.53 192.581 Q2621.34 192.581 2618.31 189.456 Q2615.3 186.308 2615.3 180.868 Q2615.3 175.544 2618.45 172.327 Q2621.6 169.109 2626.83 169.109 Q2632.83 169.109 2635.97 173.716 Q2639.15 178.299 2639.15 187.049 Q2639.15 195.22 2635.26 200.104 Q2631.39 204.965 2624.84 204.965 Q2623.08 204.965 2621.28 204.618 Q2619.47 204.271 2617.53 203.577 M2626.83 188.924 Q2629.98 188.924 2631.81 186.771 Q2633.66 184.618 2633.66 180.868 Q2633.66 177.142 2631.81 174.989 Q2629.98 172.813 2626.83 172.813 Q2623.68 172.813 2621.83 174.989 Q2620 177.142 2620 180.868 Q2620 184.618 2621.83 186.771 Q2623.68 188.924 2626.83 188.924 Z" fill="#000000" fill-rule="nonzero" fill-opacity="1"></path><polyline clip-path="url(#clip800)" style="stroke:#00a9ad; stroke-linecap:round; stroke-linejoin:round; stroke-width:7.2; stroke-opacity:0.8; fill:none" stroke-dasharray="29, 18" points="2671.6,187.014 2866.31,187.014 "></polyline>
<path clip-path="url(#clip800)" d="M2917.67 182.304 L2917.67 168.276 L2921.93 168.276 L2921.93 204.294 L2917.67 204.294 L2917.67 200.405 Q2916.33 202.72 2914.27 203.854 Q2912.23 204.965 2909.36 204.965 Q2904.66 204.965 2901.7 201.215 Q2898.76 197.466 2898.76 191.354 Q2898.76 185.243 2901.7 181.493 Q2904.66 177.743 2909.36 177.743 Q2912.23 177.743 2914.27 178.878 Q2916.33 179.989 2917.67 182.304 M2903.16 191.354 Q2903.16 196.053 2905.08 198.739 Q2907.02 201.401 2910.4 201.401 Q2913.78 201.401 2915.73 198.739 Q2917.67 196.053 2917.67 191.354 Q2917.67 186.655 2915.73 183.993 Q2913.78 181.308 2910.4 181.308 Q2907.02 181.308 2905.08 183.993 Q2903.16 186.655 2903.16 191.354 Z" fill="#000000" fill-rule="nonzero" fill-opacity="1"></path><path clip-path="url(#clip800)" d="M2931.26 182.767 L2960.94 182.767 L2960.94 186.655 L2931.26 186.655 L2931.26 182.767 M2931.26 192.211 L2960.94 192.211 L2960.94 196.146 L2931.26 196.146 L2931.26 192.211 Z" fill="#000000" fill-rule="nonzero" fill-opacity="1"></path><path clip-path="url(#clip800)" d="M2975.06 200.359 L2991.37 200.359 L2991.37 204.294 L2969.43 204.294 L2969.43 200.359 Q2972.09 197.604 2976.68 192.975 Q2981.28 188.322 2982.46 186.979 Q2984.71 184.456 2985.59 182.72 Q2986.49 180.961 2986.49 179.271 Q2986.49 176.517 2984.55 174.78 Q2982.63 173.044 2979.52 173.044 Q2977.32 173.044 2974.87 173.808 Q2972.44 174.572 2969.66 176.123 L2969.66 171.401 Q2972.49 170.267 2974.94 169.688 Q2977.39 169.109 2979.43 169.109 Q2984.8 169.109 2988 171.794 Q2991.19 174.48 2991.19 178.97 Q2991.19 181.1 2990.38 183.021 Q2989.59 184.919 2987.49 187.512 Q2986.91 188.183 2983.81 191.401 Q2980.7 194.595 2975.06 200.359 Z" fill="#000000" fill-rule="nonzero" fill-opacity="1"></path><path clip-path="url(#clip800)" d="M3015.36 185.66 Q3018.71 186.378 3020.59 188.646 Q3022.49 190.915 3022.49 194.248 Q3022.49 199.364 3018.97 202.165 Q3015.45 204.965 3008.97 204.965 Q3006.79 204.965 3004.48 204.526 Q3002.19 204.109 2999.73 203.253 L2999.73 198.739 Q3001.68 199.873 3003.99 200.452 Q3006.31 201.03 3008.83 201.03 Q3013.23 201.03 3015.52 199.294 Q3017.83 197.558 3017.83 194.248 Q3017.83 191.192 3015.68 189.479 Q3013.55 187.743 3009.73 187.743 L3005.7 187.743 L3005.7 183.901 L3009.92 183.901 Q3013.37 183.901 3015.19 182.535 Q3017.02 181.146 3017.02 178.554 Q3017.02 175.892 3015.12 174.48 Q3013.25 173.044 3009.73 173.044 Q3007.81 173.044 3005.61 173.461 Q3003.41 173.878 3000.77 174.757 L3000.77 170.591 Q3003.44 169.85 3005.75 169.48 Q3008.09 169.109 3010.15 169.109 Q3015.47 169.109 3018.57 171.54 Q3021.68 173.947 3021.68 178.067 Q3021.68 180.938 3020.03 182.929 Q3018.39 184.896 3015.36 185.66 Z" fill="#000000" fill-rule="nonzero" fill-opacity="1"></path></svg>