<svg xmlns="http://www.w3.org/2000/svg" xmlns:xlink="http://www.w3.org/1999/xlink" width="800" height="320" viewBox="0 0 3200 1280">
<defs>
  <clipPath id="clip600">
    <rect x="0" y="0" width="3200" height="1280"></rect>
  </clipPath>
</defs>
<path clip-path="url(#clip600)" d="M0 1280 L3200 1280 L3200 0 L0 0  Z" fill="#ffffff" fill-rule="evenodd" fill-opacity="1"></path>
<defs>
  <clipPath id="clip601">
    <rect x="640" y="0" width="2241" height="1280"></rect>
  </clipPath>
</defs>
<path clip-path="url(#clip600)" d="M232.584 1176.1 L3152.76 1176.1 L3152.76 99.2801 L232.584 99.2801  Z" fill="#ffffff" fill-rule="evenodd" fill-opacity="1"></path>
<defs>
  <clipPath id="clip602">
    <rect x="232" y="99" width="2921" height="1078"></rect>
  </clipPath>
</defs>
<polyline clip-path="url(#clip602)" style="stroke:#000000; stroke-linecap:round; stroke-linejoin:round; stroke-width:2; stroke-opacity:0.1; fill:none" points="315.23,1176.1 315.23,99.2801 "></polyline>
<polyline clip-path="url(#clip602)" style="stroke:#000000; stroke-linecap:round; stroke-linejoin:round; stroke-width:2; stroke-opacity:0.1; fill:none" points="866.206,1176.1 866.206,99.2801 "></polyline>
<polyline clip-path="url(#clip602)" style="stroke:#000000; stroke-linecap:round; stroke-linejoin:round; stroke-width:2; stroke-opacity:0.1; fill:none" points="1417.18,1176.1 1417.18,99.2801 "></polyline>
<polyline clip-path="url(#clip602)" style="stroke:#000000; stroke-linecap:round; stroke-linejoin:round; stroke-width:2; stroke-opacity:0.1; fill:none" points="1968.16,1176.1 1968.16,99.2801 "></polyline>
<polyline clip-path="url(#clip602)" style="stroke:#000000; stroke-linecap:round; stroke-linejoin:round; stroke-width:2; stroke-opacity:0.1; fill:none" points="2519.13,1176.1 2519.13,99.2801 "></polyline>
<polyline clip-path="url(#clip602)" style="stroke:#000000; stroke-linecap:round; stroke-linejoin:round; stroke-width:2; stroke-opacity:0.1; fill:none" points="3070.11,1176.1 3070.11,99.2801 "></polyline>
<polyline clip-path="url(#clip602)" style="stroke:#000000; stroke-linecap:round; stroke-linejoin:round; stroke-width:2; stroke-opacity:0.1; fill:none" points="232.584,1022.27 3152.76,1022.27 "></polyline>
<polyline clip-path="url(#clip602)" style="stroke:#000000; stroke-linecap:round; stroke-linejoin:round; stroke-width:2; stroke-opacity:0.1; fill:none" points="232.584,714.607 3152.76,714.607 "></polyline>
<polyline clip-path="url(#clip602)" style="stroke:#000000; stroke-linecap:round; stroke-linejoin:round; stroke-width:2; stroke-opacity:0.1; fill:none" points="232.584,406.944 3152.76,406.944 "></polyline>
<polyline clip-path="url(#clip602)" style="stroke:#000000; stroke-linecap:round; stroke-linejoin:round; stroke-width:2; stroke-opacity:0.1; fill:none" points="232.584,99.2801 3152.76,99.2801 "></polyline>
<polyline clip-path="url(#clip600)" style="stroke:#000000; stroke-linecap:round; stroke-linejoin:round; stroke-width:4; stroke-opacity:1; fill:none" points="232.584,1176.1 3152.76,1176.1 "></polyline>
<polyline clip-path="url(#clip600)" style="stroke:#000000; stroke-linecap:round; stroke-linejoin:round; stroke-width:4; stroke-opacity:1; fill:none" points="315.23,1176.1 315.23,1157.2 "></polyline>
<polyline clip-path="url(#clip600)" style="stroke:#000000; stroke-linecap:round; stroke-linejoin:round; stroke-width:4; stroke-opacity:1; fill:none" points="866.206,1176.1 866.206,1157.2 "></polyline>
<polyline clip-path="url(#clip600)" style="stroke:#000000; stroke-linecap:round; stroke-linejoin:round; stroke-width:4; stroke-opacity:1; fill:none" points="1417.18,1176.1 1417.18,1157.2 "></polyline>
<polyline clip-path="url(#clip600)" style="stroke:#000000; stroke-linecap:round; stroke-linejoin:round; stroke-width:4; stroke-opacity:1; fill:none" points="1968.16,1176.1 1968.16,1157.2 "></polyline>
<polyline clip-path="url(#clip600)" style="stroke:#000000; stroke-linecap:round; stroke-linejoin:round; stroke-width:4; stroke-opacity:1; fill:none" points="2519.13,1176.1 2519.13,1157.2 "></polyline>
<polyline clip-path="url(#clip600)" style="stroke:#000000; stroke-linecap:round; stroke-linejoin:round; stroke-width:4; stroke-opacity:1; fill:none" points="3070.11,1176.1 3070.11,1157.2 "></polyline>
<path clip-path="url(#clip600)" d="M288.771 1256.63 L305.091 1256.63 L305.091 1260.56 L283.146 1260.56 L283.146 1256.63 Q285.808 1253.87 290.392 1249.24 Q294.998 1244.59 296.179 1243.25 Q298.424 1240.72 299.304 1238.99 Q300.207 1237.23 300.207 1235.54 Q300.207 1232.78 298.262 1231.05 Q296.341 1229.31 293.239 1229.31 Q291.04 1229.31 288.586 1230.08 Q286.156 1230.84 283.378 1232.39 L283.378 1227.67 Q286.202 1226.53 288.656 1225.96 Q291.109 1225.38 293.146 1225.38 Q298.517 1225.38 301.711 1228.06 Q304.906 1230.75 304.906 1235.24 Q304.906 1237.37 304.095 1239.29 Q303.308 1241.19 301.202 1243.78 Q300.623 1244.45 297.521 1247.67 Q294.42 1250.86 288.771 1256.63 Z" fill="#000000" fill-rule="nonzero" fill-opacity="1"></path><path clip-path="url(#clip600)" d="M305.636 1229.95 L311.843 1229.95 L311.843 1208.53 L305.091 1209.89 L305.091 1206.43 L311.805 1205.07 L315.604 1205.07 L315.604 1229.95 L321.811 1229.95 L321.811 1233.15 L305.636 1233.15 L305.636 1229.95 Z" fill="#000000" fill-rule="nonzero" fill-opacity="1"></path><path clip-path="url(#clip600)" d="M337.609 1207.57 Q334.675 1207.57 333.19 1210.47 Q331.723 1213.35 331.723 1219.14 Q331.723 1224.91 333.19 1227.81 Q334.675 1230.69 337.609 1230.69 Q340.562 1230.69 342.029 1227.81 Q343.515 1224.91 343.515 1219.14 Q343.515 1213.35 342.029 1210.47 Q340.562 1207.57 337.609 1207.57 M337.609 1204.56 Q342.33 1204.56 344.813 1208.31 Q347.314 1212.03 347.314 1219.14 Q347.314 1226.23 344.813 1229.97 Q342.33 1233.7 337.609 1233.7 Q332.889 1233.7 330.387 1229.97 Q327.905 1226.23 327.905 1219.14 Q327.905 1212.03 330.387 1208.31 Q332.889 1204.56 337.609 1204.56 Z" fill="#000000" fill-rule="nonzero" fill-opacity="1"></path><path clip-path="url(#clip600)" d="M840.246 1256.63 L856.565 1256.63 L856.565 1260.56 L834.621 1260.56 L834.621 1256.63 Q837.283 1253.87 841.866 1249.24 Q846.473 1244.59 847.653 1243.25 Q849.898 1240.72 850.778 1238.99 Q851.681 1237.23 851.681 1235.54 Q851.681 1232.78 849.736 1231.05 Q847.815 1229.31 844.713 1229.31 Q842.514 1229.31 840.06 1230.08 Q837.63 1230.84 834.852 1232.39 L834.852 1227.67 Q837.676 1226.53 840.13 1225.96 Q842.584 1225.38 844.621 1225.38 Q849.991 1225.38 853.185 1228.06 Q856.38 1230.75 856.38 1235.24 Q856.38 1237.37 855.57 1239.29 Q854.783 1241.19 852.676 1243.78 Q852.097 1244.45 848.996 1247.67 Q845.894 1250.86 840.246 1256.63 Z" fill="#000000" fill-rule="nonzero" fill-opacity="1"></path><path clip-path="url(#clip600)" d="M857.11 1229.95 L863.317 1229.95 L863.317 1208.53 L856.565 1209.89 L856.565 1206.43 L863.279 1205.07 L867.079 1205.07 L867.079 1229.95 L873.285 1229.95 L873.285 1233.15 L857.11 1233.15 L857.11 1229.95 Z" fill="#000000" fill-rule="nonzero" fill-opacity="1"></path><path clip-path="url(#clip600)" d="M881.617 1229.95 L887.824 1229.95 L887.824 1208.53 L881.072 1209.89 L881.072 1206.43 L887.786 1205.07 L891.585 1205.07 L891.585 1229.95 L897.792 1229.95 L897.792 1233.15 L881.617 1233.15 L881.617 1229.95 Z" fill="#000000" fill-rule="nonzero" fill-opacity="1"></path><path clip-path="url(#clip600)" d="M1391.37 1256.63 L1407.69 1256.63 L1407.69 1260.56 L1385.75 1260.56 L1385.75 1256.63 Q1388.41 1253.87 1392.99 1249.24 Q1397.6 1244.59 1398.78 1243.25 Q1401.02 1240.72 1401.9 1238.99 Q1402.81 1237.23 1402.81 1235.54 Q1402.81 1232.78 1400.86 1231.05 Q1398.94 1229.31 1395.84 1229.31 Q1393.64 1229.31 1391.19 1230.08 Q1388.76 1230.84 1385.98 1232.39 L1385.98 1227.67 Q1388.8 1226.53 1391.26 1225.96 Q1393.71 1225.38 1395.75 1225.38 Q1401.12 1225.38 1404.31 1228.06 Q1407.51 1230.75 1407.51 1235.24 Q1407.51 1237.37 1406.7 1239.29 Q1405.91 1241.19 1403.8 1243.78 Q1403.22 1244.45 1400.12 1247.67 Q1397.02 1250.86 1391.37 1256.63 Z" fill="#000000" fill-rule="nonzero" fill-opacity="1"></path><path clip-path="url(#clip600)" d="M1408.24 1229.95 L1414.44 1229.95 L1414.44 1208.53 L1407.69 1209.89 L1407.69 1206.43 L1414.41 1205.07 L1418.2 1205.07 L1418.2 1229.95 L1424.41 1229.95 L1424.41 1233.15 L1408.24 1233.15 L1408.24 1229.95 Z" fill="#000000" fill-rule="nonzero" fill-opacity="1"></path><path clip-path="url(#clip600)" d="M1435.36 1229.95 L1448.62 1229.95 L1448.62 1233.15 L1430.79 1233.15 L1430.79 1229.95 Q1432.95 1227.72 1436.67 1223.95 Q1440.42 1220.17 1441.38 1219.08 Q1443.2 1217.03 1443.92 1215.62 Q1444.65 1214.19 1444.65 1212.82 Q1444.65 1210.58 1443.07 1209.17 Q1441.51 1207.76 1438.99 1207.76 Q1437.2 1207.76 1435.21 1208.38 Q1433.23 1209 1430.98 1210.26 L1430.98 1206.43 Q1433.27 1205.5 1435.26 1205.03 Q1437.26 1204.56 1438.91 1204.56 Q1443.28 1204.56 1445.87 1206.75 Q1448.47 1208.93 1448.47 1212.58 Q1448.47 1214.31 1447.81 1215.87 Q1447.17 1217.41 1445.46 1219.52 Q1444.99 1220.06 1442.47 1222.68 Q1439.95 1225.27 1435.36 1229.95 Z" fill="#000000" fill-rule="nonzero" fill-opacity="1"></path><path clip-path="url(#clip600)" d="M1941.96 1256.63 L1958.28 1256.63 L1958.28 1260.56 L1936.34 1260.56 L1936.34 1256.63 Q1939 1253.87 1943.58 1249.24 Q1948.19 1244.59 1949.37 1243.25 Q1951.61 1240.72 1952.49 1238.99 Q1953.4 1237.23 1953.4 1235.54 Q1953.4 1232.78 1951.45 1231.05 Q1949.53 1229.31 1946.43 1229.31 Q1944.23 1229.31 1941.78 1230.08 Q1939.35 1230.84 1936.57 1232.39 L1936.57 1227.67 Q1939.39 1226.53 1941.85 1225.96 Q1944.3 1225.38 1946.34 1225.38 Q1951.71 1225.38 1954.9 1228.06 Q1958.1 1230.75 1958.1 1235.24 Q1958.1 1237.37 1957.29 1239.29 Q1956.5 1241.19 1954.39 1243.78 Q1953.81 1244.45 1950.71 1247.67 Q1947.61 1250.86 1941.96 1256.63 Z" fill="#000000" fill-rule="nonzero" fill-opacity="1"></path><path clip-path="url(#clip600)" d="M1958.83 1229.95 L1965.03 1229.95 L1965.03 1208.53 L1958.28 1209.89 L1958.28 1206.43 L1965 1205.07 L1968.8 1205.07 L1968.8 1229.95 L1975 1229.95 L1975 1233.15 L1958.83 1233.15 L1958.83 1229.95 Z" fill="#000000" fill-rule="nonzero" fill-opacity="1"></path><path clip-path="url(#clip600)" d="M1994.19 1218.01 Q1996.91 1218.59 1998.44 1220.44 Q1999.98 1222.28 1999.98 1224.99 Q1999.98 1229.15 1997.12 1231.42 Q1994.26 1233.7 1988.99 1233.7 Q1987.23 1233.7 1985.35 1233.34 Q1983.48 1233 1981.49 1232.31 L1981.49 1228.64 Q1983.07 1229.56 1984.95 1230.03 Q1986.83 1230.5 1988.88 1230.5 Q1992.46 1230.5 1994.32 1229.09 Q1996.2 1227.68 1996.2 1224.99 Q1996.2 1222.51 1994.45 1221.11 Q1992.72 1219.7 1989.62 1219.7 L1986.34 1219.7 L1986.34 1216.58 L1989.77 1216.58 Q1992.57 1216.58 1994.05 1215.47 Q1995.54 1214.34 1995.54 1212.24 Q1995.54 1210.07 1994 1208.93 Q1992.47 1207.76 1989.62 1207.76 Q1988.05 1207.76 1986.27 1208.1 Q1984.48 1208.44 1982.34 1209.15 L1982.34 1205.77 Q1984.5 1205.17 1986.38 1204.86 Q1988.28 1204.56 1989.95 1204.56 Q1994.28 1204.56 1996.8 1206.54 Q1999.32 1208.49 1999.32 1211.84 Q1999.32 1214.17 1997.98 1215.79 Q1996.65 1217.39 1994.19 1218.01 Z" fill="#000000" fill-rule="nonzero" fill-opacity="1"></path><path clip-path="url(#clip600)" d="M2492.48 1256.63 L2508.8 1256.63 L2508.8 1260.56 L2486.85 1260.56 L2486.85 1256.63 Q2489.51 1253.87 2494.1 1249.24 Q2498.7 1244.59 2499.88 1243.25 Q2502.13 1240.72 2503.01 1238.99 Q2503.91 1237.23 2503.91 1235.54 Q2503.91 1232.78 2501.97 1231.05 Q2500.05 1229.31 2496.94 1229.31 Q2494.75 1229.31 2492.29 1230.08 Q2489.86 1230.84 2487.08 1232.39 L2487.08 1227.67 Q2489.91 1226.53 2492.36 1225.96 Q2494.82 1225.38 2496.85 1225.38 Q2502.22 1225.38 2505.42 1228.06 Q2508.61 1230.75 2508.61 1235.24 Q2508.61 1237.37 2507.8 1239.29 Q2507.01 1241.19 2504.91 1243.78 Q2504.33 1244.45 2501.23 1247.67 Q2498.13 1250.86 2492.48 1256.63 Z" fill="#000000" fill-rule="nonzero" fill-opacity="1"></path><path clip-path="url(#clip600)" d="M2509.34 1229.95 L2515.55 1229.95 L2515.55 1208.53 L2508.8 1209.89 L2508.8 1206.43 L2515.51 1205.07 L2519.31 1205.07 L2519.31 1229.95 L2525.52 1229.95 L2525.52 1233.15 L2509.34 1233.15 L2509.34 1229.95 Z" fill="#000000" fill-rule="nonzero" fill-opacity="1"></path><path clip-path="url(#clip600)" d="M2543.63 1208.38 L2534.04 1223.37 L2543.63 1223.37 L2543.63 1208.38 M2542.63 1205.07 L2547.41 1205.07 L2547.41 1223.37 L2551.42 1223.37 L2551.42 1226.53 L2547.41 1226.53 L2547.41 1233.15 L2543.63 1233.15 L2543.63 1226.53 L2530.95 1226.53 L2530.95 1222.86 L2542.63 1205.07 Z" fill="#000000" fill-rule="nonzero" fill-opacity="1"></path><path clip-path="url(#clip600)" d="M3044.05 1256.63 L3060.37 1256.63 L3060.37 1260.56 L3038.43 1260.56 L3038.43 1256.63 Q3041.09 1253.87 3045.68 1249.24 Q3050.28 1244.59 3051.46 1243.25 Q3053.71 1240.72 3054.59 1238.99 Q3055.49 1237.23 3055.49 1235.54 Q3055.49 1232.78 3053.55 1231.05 Q3051.62 1229.31 3048.52 1229.31 Q3046.32 1229.31 3043.87 1230.08 Q3041.44 1230.84 3038.66 1232.39 L3038.66 1227.67 Q3041.49 1226.53 3043.94 1225.96 Q3046.39 1225.38 3048.43 1225.38 Q3053.8 1225.38 3056.99 1228.06 Q3060.19 1230.75 3060.19 1235.24 Q3060.19 1237.37 3059.38 1239.29 Q3058.59 1241.19 3056.49 1243.78 Q3055.91 1244.45 3052.8 1247.67 Q3049.7 1250.86 3044.05 1256.63 Z" fill="#000000" fill-rule="nonzero" fill-opacity="1"></path><path clip-path="url(#clip600)" d="M3060.92 1229.95 L3067.13 1229.95 L3067.13 1208.53 L3060.37 1209.89 L3060.37 1206.43 L3067.09 1205.07 L3070.89 1205.07 L3070.89 1229.95 L3077.09 1229.95 L3077.09 1233.15 L3060.92 1233.15 L3060.92 1229.95 Z" fill="#000000" fill-rule="nonzero" fill-opacity="1"></path><path clip-path="url(#clip600)" d="M3084.81 1205.07 L3099.72 1205.07 L3099.72 1208.27 L3088.29 1208.27 L3088.29 1215.15 Q3089.11 1214.87 3089.94 1214.74 Q3090.77 1214.59 3091.6 1214.59 Q3096.3 1214.59 3099.04 1217.16 Q3101.79 1219.74 3101.79 1224.14 Q3101.79 1228.68 3098.97 1231.2 Q3096.15 1233.7 3091.01 1233.7 Q3089.24 1233.7 3087.4 1233.4 Q3085.58 1233.1 3083.62 1232.49 L3083.62 1228.68 Q3085.31 1229.6 3087.12 1230.05 Q3088.92 1230.5 3090.94 1230.5 Q3094.19 1230.5 3096.09 1228.79 Q3097.99 1227.08 3097.99 1224.14 Q3097.99 1221.21 3096.09 1219.5 Q3094.19 1217.79 3090.94 1217.79 Q3089.41 1217.79 3087.89 1218.12 Q3086.39 1218.46 3084.81 1219.18 L3084.81 1205.07 Z" fill="#000000" fill-rule="nonzero" fill-opacity="1"></path><polyline clip-path="url(#clip600)" style="stroke:#000000; stroke-linecap:round; stroke-linejoin:round; stroke-width:4; stroke-opacity:1; fill:none" points="232.584,1176.1 232.584,99.2801 "></polyline>
<polyline clip-path="url(#clip600)" style="stroke:#000000; stroke-linecap:round; stroke-linejoin:round; stroke-width:4; stroke-opacity:1; fill:none" points="232.584,1022.27 251.482,1022.27 "></polyline>
<polyline clip-path="url(#clip600)" style="stroke:#000000; stroke-linecap:round; stroke-linejoin:round; stroke-width:4; stroke-opacity:1; fill:none" points="232.584,714.607 251.482,714.607 "></polyline>
<polyline clip-path="url(#clip600)" style="stroke:#000000; stroke-linecap:round; stroke-linejoin:round; stroke-width:4; stroke-opacity:1; fill:none" points="232.584,406.944 251.482,406.944 "></polyline>
<polyline clip-path="url(#clip600)" style="stroke:#000000; stroke-linecap:round; stroke-linejoin:round; stroke-width:4; stroke-opacity:1; fill:none" points="232.584,99.2801 251.482,99.2801 "></polyline>
<path clip-path="url(#clip600)" d="M47.3162 1022.72 L76.992 1022.72 L76.992 1026.66 L47.3162 1026.66 L47.3162 1022.72 Z" fill="#000000" fill-rule="nonzero" fill-opacity="1"></path><path clip-path="url(#clip600)" d="M97.0845 1008.07 Q93.4734 1008.07 91.6447 1011.63 Q89.8391 1015.18 89.8391 1022.3 Q89.8391 1029.41 91.6447 1032.98 Q93.4734 1036.52 97.0845 1036.52 Q100.719 1036.52 102.524 1032.98 Q104.353 1029.41 104.353 1022.3 Q104.353 1015.18 102.524 1011.63 Q100.719 1008.07 97.0845 1008.07 M97.0845 1004.37 Q102.895 1004.37 105.95 1008.97 Q109.029 1013.56 109.029 1022.3 Q109.029 1031.03 105.95 1035.64 Q102.895 1040.22 97.0845 1040.22 Q91.2743 1040.22 88.1956 1035.64 Q85.1401 1031.03 85.1401 1022.3 Q85.1401 1013.56 88.1956 1008.97 Q91.2743 1004.37 97.0845 1004.37 Z" fill="#000000" fill-rule="nonzero" fill-opacity="1"></path><path clip-path="url(#clip600)" d="M117.246 1033.67 L122.131 1033.67 L122.131 1039.55 L117.246 1039.55 L117.246 1033.67 Z" fill="#000000" fill-rule="nonzero" fill-opacity="1"></path><path clip-path="url(#clip600)" d="M142.316 1008.07 Q138.705 1008.07 136.876 1011.63 Q135.07 1015.18 135.07 1022.3 Q135.07 1029.41 136.876 1032.98 Q138.705 1036.52 142.316 1036.52 Q145.95 1036.52 147.755 1032.98 Q149.584 1029.41 149.584 1022.3 Q149.584 1015.18 147.755 1011.63 Q145.95 1008.07 142.316 1008.07 M142.316 1004.37 Q148.126 1004.37 151.181 1008.97 Q154.26 1013.56 154.26 1022.3 Q154.26 1031.03 151.181 1035.64 Q148.126 1040.22 142.316 1040.22 Q136.506 1040.22 133.427 1035.64 Q130.371 1031.03 130.371 1022.3 Q130.371 1013.56 133.427 1008.97 Q136.506 1004.37 142.316 1004.37 Z" fill="#000000" fill-rule="nonzero" fill-opacity="1"></path><path clip-path="url(#clip600)" d="M173.056 1020.41 Q169.908 1020.41 168.056 1022.56 Q166.228 1024.71 166.228 1028.46 Q166.228 1032.19 168.056 1034.37 Q169.908 1036.52 173.056 1036.52 Q176.204 1036.52 178.033 1034.37 Q179.885 1032.19 179.885 1028.46 Q179.885 1024.71 178.033 1022.56 Q176.204 1020.41 173.056 1020.41 M182.339 1005.75 L182.339 1010.01 Q180.579 1009.18 178.774 1008.74 Q176.991 1008.3 175.232 1008.3 Q170.603 1008.3 168.149 1011.43 Q165.718 1014.55 165.371 1020.87 Q166.737 1018.86 168.797 1017.79 Q170.857 1016.7 173.334 1016.7 Q178.542 1016.7 181.552 1019.87 Q184.584 1023.02 184.584 1028.46 Q184.584 1033.79 181.436 1037 Q178.288 1040.22 173.056 1040.22 Q167.061 1040.22 163.89 1035.64 Q160.718 1031.03 160.718 1022.3 Q160.718 1014.11 164.607 1009.25 Q168.496 1004.37 175.047 1004.37 Q176.806 1004.37 178.589 1004.71 Q180.394 1005.06 182.339 1005.75 Z" fill="#000000" fill-rule="nonzero" fill-opacity="1"></path><path clip-path="url(#clip600)" d="M46.9921 715.058 L76.6679 715.058 L76.6679 718.993 L46.9921 718.993 L46.9921 715.058 Z" fill="#000000" fill-rule="nonzero" fill-opacity="1"></path><path clip-path="url(#clip600)" d="M96.7604 700.406 Q93.1493 700.406 91.3206 703.97 Q89.515 707.512 89.515 714.642 Q89.515 721.748 91.3206 725.313 Q93.1493 728.854 96.7604 728.854 Q100.395 728.854 102.2 725.313 Q104.029 721.748 104.029 714.642 Q104.029 707.512 102.2 703.97 Q100.395 700.406 96.7604 700.406 M96.7604 696.702 Q102.571 696.702 105.626 701.308 Q108.705 705.892 108.705 714.642 Q108.705 723.368 105.626 727.975 Q102.571 732.558 96.7604 732.558 Q90.9502 732.558 87.8715 727.975 Q84.816 723.368 84.816 714.642 Q84.816 705.892 87.8715 701.308 Q90.9502 696.702 96.7604 696.702 Z" fill="#000000" fill-rule="nonzero" fill-opacity="1"></path><path clip-path="url(#clip600)" d="M116.922 726.007 L121.807 726.007 L121.807 731.887 L116.922 731.887 L116.922 726.007 Z" fill="#000000" fill-rule="nonzero" fill-opacity="1"></path><path clip-path="url(#clip600)" d="M141.992 700.406 Q138.381 700.406 136.552 703.97 Q134.746 707.512 134.746 714.642 Q134.746 721.748 136.552 725.313 Q138.381 728.854 141.992 728.854 Q145.626 728.854 147.431 725.313 Q149.26 721.748 149.26 714.642 Q149.26 707.512 147.431 703.97 Q145.626 700.406 141.992 700.406 M141.992 696.702 Q147.802 696.702 150.857 701.308 Q153.936 705.892 153.936 714.642 Q153.936 723.368 150.857 727.975 Q147.802 732.558 141.992 732.558 Q136.181 732.558 133.103 727.975 Q130.047 723.368 130.047 714.642 Q130.047 705.892 133.103 701.308 Q136.181 696.702 141.992 696.702 Z" fill="#000000" fill-rule="nonzero" fill-opacity="1"></path><path clip-path="url(#clip600)" d="M175.001 701.401 L163.195 719.85 L175.001 719.85 L175.001 701.401 M173.774 697.327 L179.653 697.327 L179.653 719.85 L184.584 719.85 L184.584 723.739 L179.653 723.739 L179.653 731.887 L175.001 731.887 L175.001 723.739 L159.399 723.739 L159.399 719.225 L173.774 697.327 Z" fill="#000000" fill-rule="nonzero" fill-opacity="1"></path><path clip-path="url(#clip600)" d="M49.0754 407.395 L78.7512 407.395 L78.7512 411.33 L49.0754 411.33 L49.0754 407.395 Z" fill="#000000" fill-rule="nonzero" fill-opacity="1"></path><path clip-path="url(#clip600)" d="M98.8437 392.742 Q95.2326 392.742 93.4039 396.307 Q91.5984 399.849 91.5984 406.978 Q91.5984 414.085 93.4039 417.649 Q95.2326 421.191 98.8437 421.191 Q102.478 421.191 104.283 417.649 Q106.112 414.085 106.112 406.978 Q106.112 399.849 104.283 396.307 Q102.478 392.742 98.8437 392.742 M98.8437 389.039 Q104.654 389.039 107.709 393.645 Q110.788 398.228 110.788 406.978 Q110.788 415.705 107.709 420.311 Q104.654 424.895 98.8437 424.895 Q93.0335 424.895 89.9549 420.311 Q86.8993 415.705 86.8993 406.978 Q86.8993 398.228 89.9549 393.645 Q93.0335 389.039 98.8437 389.039 Z" fill="#000000" fill-rule="nonzero" fill-opacity="1"></path><path clip-path="url(#clip600)" d="M119.006 418.344 L123.89 418.344 L123.89 424.224 L119.006 424.224 L119.006 418.344 Z" fill="#000000" fill-rule="nonzero" fill-opacity="1"></path><path clip-path="url(#clip600)" d="M144.075 392.742 Q140.464 392.742 138.635 396.307 Q136.83 399.849 136.83 406.978 Q136.83 414.085 138.635 417.649 Q140.464 421.191 144.075 421.191 Q147.709 421.191 149.515 417.649 Q151.343 414.085 151.343 406.978 Q151.343 399.849 149.515 396.307 Q147.709 392.742 144.075 392.742 M144.075 389.039 Q149.885 389.039 152.941 393.645 Q156.019 398.228 156.019 406.978 Q156.019 415.705 152.941 420.311 Q149.885 424.895 144.075 424.895 Q138.265 424.895 135.186 420.311 Q132.131 415.705 132.131 406.978 Q132.131 398.228 135.186 393.645 Q138.265 389.039 144.075 389.039 Z" fill="#000000" fill-rule="nonzero" fill-opacity="1"></path><path clip-path="url(#clip600)" d="M168.265 420.288 L184.584 420.288 L184.584 424.224 L162.64 424.224 L162.64 420.288 Q165.302 417.534 169.885 412.904 Q174.491 408.251 175.672 406.909 Q177.917 404.386 178.797 402.65 Q179.7 400.89 179.7 399.2 Q179.7 396.446 177.755 394.71 Q175.834 392.974 172.732 392.974 Q170.533 392.974 168.079 393.738 Q165.649 394.501 162.871 396.052 L162.871 391.33 Q165.695 390.196 168.149 389.617 Q170.603 389.039 172.64 389.039 Q178.01 389.039 181.204 391.724 Q184.399 394.409 184.399 398.9 Q184.399 401.029 183.589 402.95 Q182.802 404.849 180.695 407.441 Q180.116 408.112 177.015 411.33 Q173.913 414.524 168.265 420.288 Z" fill="#000000" fill-rule="nonzero" fill-opacity="1"></path><path clip-path="url(#clip600)" d="M97.2465 85.0788 Q93.6354 85.0788 91.8067 88.6436 Q90.0012 92.1853 90.0012 99.3148 Q90.0012 106.421 91.8067 109.986 Q93.6354 113.528 97.2465 113.528 Q100.881 113.528 102.686 109.986 Q104.515 106.421 104.515 99.3148 Q104.515 92.1853 102.686 88.6436 Q100.881 85.0788 97.2465 85.0788 M97.2465 81.3751 Q103.057 81.3751 106.112 85.9816 Q109.191 90.5649 109.191 99.3148 Q109.191 108.042 106.112 112.648 Q103.057 117.231 97.2465 117.231 Q91.4363 117.231 88.3576 112.648 Q85.3021 108.042 85.3021 99.3148 Q85.3021 90.5649 88.3576 85.9816 Q91.4363 81.3751 97.2465 81.3751 Z" fill="#000000" fill-rule="nonzero" fill-opacity="1"></path><path clip-path="url(#clip600)" d="M117.408 110.681 L122.293 110.681 L122.293 116.56 L117.408 116.56 L117.408 110.681 Z" fill="#000000" fill-rule="nonzero" fill-opacity="1"></path><path clip-path="url(#clip600)" d="M142.478 85.0788 Q138.867 85.0788 137.038 88.6436 Q135.232 92.1853 135.232 99.3148 Q135.232 106.421 137.038 109.986 Q138.867 113.528 142.478 113.528 Q146.112 113.528 147.918 109.986 Q149.746 106.421 149.746 99.3148 Q149.746 92.1853 147.918 88.6436 Q146.112 85.0788 142.478 85.0788 M142.478 81.3751 Q148.288 81.3751 151.343 85.9816 Q154.422 90.5649 154.422 99.3148 Q154.422 108.042 151.343 112.648 Q148.288 117.231 142.478 117.231 Q136.668 117.231 133.589 112.648 Q130.533 108.042 130.533 99.3148 Q130.533 90.5649 133.589 85.9816 Q136.668 81.3751 142.478 81.3751 Z" fill="#000000" fill-rule="nonzero" fill-opacity="1"></path><path clip-path="url(#clip600)" d="M172.64 85.0788 Q169.029 85.0788 167.2 88.6436 Q165.394 92.1853 165.394 99.3148 Q165.394 106.421 167.2 109.986 Q169.029 113.528 172.64 113.528 Q176.274 113.528 178.079 109.986 Q179.908 106.421 179.908 99.3148 Q179.908 92.1853 178.079 88.6436 Q176.274 85.0788 172.64 85.0788 M172.64 81.3751 Q178.45 81.3751 181.505 85.9816 Q184.584 90.5649 184.584 99.3148 Q184.584 108.042 181.505 112.648 Q178.45 117.231 172.64 117.231 Q166.829 117.231 163.751 112.648 Q160.695 108.042 160.695 99.3148 Q160.695 90.5649 163.751 85.9816 Q166.829 81.3751 172.64 81.3751 Z" fill="#000000" fill-rule="nonzero" fill-opacity="1"></path><path clip-path="url(#clip600)" d="M1493.73 14.0809 L1493.73 22.0612 Q1489.07 19.8332 1484.94 18.7395 Q1480.81 17.6457 1476.96 17.6457 Q1470.28 17.6457 1466.63 20.2383 Q1463.02 22.8309 1463.02 27.611 Q1463.02 31.6214 1465.41 33.6873 Q1467.84 35.7128 1474.57 36.9686 L1479.51 37.9813 Q1488.67 39.7232 1493 44.1387 Q1497.38 48.5136 1497.38 55.8863 Q1497.38 64.6767 1491.46 69.2137 Q1485.59 73.7508 1474.2 73.7508 Q1469.91 73.7508 1465.05 72.7785 Q1460.23 71.8063 1455.04 69.9024 L1455.04 61.4765 Q1460.03 64.2716 1464.81 65.6895 Q1469.59 67.1073 1474.2 67.1073 Q1481.21 67.1073 1485.02 64.3527 Q1488.83 61.598 1488.83 56.4939 Q1488.83 52.0379 1486.07 49.5264 Q1483.36 47.0148 1477.12 45.759 L1472.14 44.7868 Q1462.98 42.9639 1458.89 39.075 Q1454.8 35.1862 1454.8 28.2591 Q1454.8 20.2383 1460.43 15.6203 Q1466.1 11.0023 1476.03 11.0023 Q1480.28 11.0023 1484.7 11.7719 Q1489.11 12.5416 1493.73 14.0809 Z" fill="#000000" fill-rule="nonzero" fill-opacity="1"></path><path clip-path="url(#clip600)" d="M1537.16 34.9026 L1589.09 34.9026 L1589.09 41.7081 L1537.16 41.7081 L1537.16 34.9026 M1537.16 51.4303 L1589.09 51.4303 L1589.09 58.3168 L1537.16 58.3168 L1537.16 51.4303 Z" fill="#000000" fill-rule="nonzero" fill-opacity="1"></path><path clip-path="url(#clip600)" d="M1666.66 80.2727 L1666.66 86.106 L1664.15 86.106 Q1654.06 86.106 1650.62 83.1084 Q1647.22 80.1107 1647.22 71.1582 L1647.22 61.4765 Q1647.22 55.3597 1645.03 53.0101 Q1642.84 50.6606 1637.09 50.6606 L1634.62 50.6606 L1634.62 44.8678 L1637.09 44.8678 Q1642.88 44.8678 1645.03 42.5588 Q1647.22 40.2093 1647.22 34.1734 L1647.22 24.4513 Q1647.22 15.4988 1650.62 12.5416 Q1654.06 9.54393 1664.15 9.54393 L1666.66 9.54393 L1666.66 15.3367 L1663.91 15.3367 Q1658.2 15.3367 1656.45 17.1191 Q1654.71 18.9015 1654.71 24.6133 L1654.71 34.6595 Q1654.71 41.0195 1652.85 43.8956 Q1651.03 46.7717 1646.57 47.7845 Q1651.07 48.8782 1652.89 51.7544 Q1654.71 54.6305 1654.71 60.9499 L1654.71 70.9961 Q1654.71 76.7079 1656.45 78.4903 Q1658.2 80.2727 1663.91 80.2727 L1666.66 80.2727 Z" fill="#000000" fill-rule="nonzero" fill-opacity="1"></path><path clip-path="url(#clip600)" d="M1687.32 65.6895 L1700.69 65.6895 L1700.69 19.5497 L1686.15 22.4663 L1686.15 15.0127 L1700.61 12.096 L1708.79 12.096 L1708.79 65.6895 L1722.16 65.6895 L1722.16 72.576 L1687.32 72.576 L1687.32 65.6895 Z" fill="#000000" fill-rule="nonzero" fill-opacity="1"></path><path clip-path="url(#clip600)" d="M1739.54 62.2867 L1748.09 62.2867 L1748.09 69.2543 L1741.44 82.2172 L1736.22 82.2172 L1739.54 69.2543 L1739.54 62.2867 Z" fill="#000000" fill-rule="nonzero" fill-opacity="1"></path><path clip-path="url(#clip600)" d="M1798.48 65.6895 L1827.04 65.6895 L1827.04 72.576 L1788.64 72.576 L1788.64 65.6895 Q1793.29 60.8689 1801.32 52.7671 Q1809.38 44.6248 1811.44 42.2752 Q1815.37 37.8598 1816.91 34.8216 Q1818.49 31.7429 1818.49 28.7857 Q1818.49 23.9651 1815.09 20.927 Q1811.73 17.8888 1806.3 17.8888 Q1802.45 17.8888 1798.16 19.2256 Q1793.9 20.5624 1789.04 23.2765 L1789.04 15.0127 Q1793.98 13.0277 1798.28 12.015 Q1802.57 11.0023 1806.14 11.0023 Q1815.53 11.0023 1821.12 15.7013 Q1826.71 20.4004 1826.71 28.2591 Q1826.71 31.9859 1825.3 35.3482 Q1823.92 38.6699 1820.23 43.2069 Q1819.22 44.3817 1813.79 50.0125 Q1808.36 55.6027 1798.48 65.6895 Z" fill="#000000" fill-rule="nonzero" fill-opacity="1"></path><path clip-path="url(#clip600)" d="M1861.71 17.4837 Q1855.39 17.4837 1852.19 23.7221 Q1849.03 29.92 1849.03 42.3968 Q1849.03 54.833 1852.19 61.0714 Q1855.39 67.2693 1861.71 67.2693 Q1868.07 67.2693 1871.23 61.0714 Q1874.43 54.833 1874.43 42.3968 Q1874.43 29.92 1871.23 23.7221 Q1868.07 17.4837 1861.71 17.4837 M1861.71 11.0023 Q1871.88 11.0023 1877.23 19.0636 Q1882.62 27.0843 1882.62 42.3968 Q1882.62 57.6687 1877.23 65.73 Q1871.88 73.7508 1861.71 73.7508 Q1851.55 73.7508 1846.16 65.73 Q1840.81 57.6687 1840.81 42.3968 Q1840.81 27.0843 1846.16 19.0636 Q1851.55 11.0023 1861.71 11.0023 Z" fill="#000000" fill-rule="nonzero" fill-opacity="1"></path><path clip-path="url(#clip600)" d="M1898.5 80.2727 L1901.33 80.2727 Q1907 80.2727 1908.7 78.5308 Q1910.45 76.7889 1910.45 70.9961 L1910.45 60.9499 Q1910.45 54.6305 1912.27 51.7544 Q1914.09 48.8782 1918.59 47.7845 Q1914.09 46.7717 1912.27 43.8956 Q1910.45 41.0195 1910.45 34.6595 L1910.45 24.6133 Q1910.45 18.861 1908.7 17.1191 Q1907 15.3367 1901.33 15.3367 L1898.5 15.3367 L1898.5 9.54393 L1901.05 9.54393 Q1911.14 9.54393 1914.5 12.5416 Q1917.9 15.4988 1917.9 24.4513 L1917.9 34.1734 Q1917.9 40.2093 1920.09 42.5588 Q1922.28 44.8678 1928.03 44.8678 L1930.54 44.8678 L1930.54 50.6606 L1928.03 50.6606 Q1922.28 50.6606 1920.09 53.0101 Q1917.9 55.3597 1917.9 61.4765 L1917.9 71.1582 Q1917.9 80.1107 1914.5 83.1084 Q1911.14 86.106 1901.05 86.106 L1898.5 86.106 L1898.5 80.2727 Z" fill="#000000" fill-rule="nonzero" fill-opacity="1"></path><path clip-path="url(#clip602)" d="M315.23 1129.62 L866.206 596.557 L1417.18 459.326 L1968.16 352.065 L2519.13 630.259 L3070.11 444.051 L3070.11 432.405 L2519.13 594.065 L1968.16 283.56 L1417.18 292.255 L866.206 386.935 L315.23 603.129  Z" fill="#7e99f4" fill-rule="evenodd" fill-opacity="0.25"></path>
<polyline clip-path="url(#clip602)" style="stroke:#7e99f4; stroke-linecap:round; stroke-linejoin:round; stroke-width:10.8; stroke-opacity:1; fill:none" points="315.23,866.373 866.206,491.746 1417.18,375.79 1968.16,317.812 2519.13,612.162 3070.11,438.228 "></polyline>
<polyline clip-path="url(#clip602)" style="stroke:#e26f46; stroke-linecap:round; stroke-linejoin:round; stroke-width:7.2; stroke-opacity:0.9; fill:none" stroke-dasharray="29, 18" points="315.23,3704.71 866.206,1541.45 1417.18,820.366 1968.16,1090.77 2519.13,324.62 3070.11,-103.525 "></polyline>
<polyline clip-path="url(#clip602)" style="stroke:#3da44d; stroke-linecap:round; stroke-linejoin:round; stroke-width:7.2; stroke-opacity:0.9; fill:none" stroke-dasharray="29, 18" points="315.23,585.841 866.206,655.35 1417.18,881.253 1968.16,1055.03 2519.13,598.874 3070.11,559.775 "></polyline>
<polyline clip-path="url(#clip602)" style="stroke:#c271d2; stroke-linecap:round; stroke-linejoin:round; stroke-width:7.2; stroke-opacity:0.9; fill:none" stroke-dasharray="29, 18" points="315.23,-84.4607 866.206,390.203 1417.18,742.373 1968.16,543.32 2519.13,558.632 3070.11,552.89 "></polyline>
<path clip-path="url(#clip602)" d="M315.23 800.11 L866.206 782.787 L1417.18 514.541 L1968.16 522.361 L2519.13 604.228 L3070.11 514.683 L3070.11 494.484 L2519.13 545.445 L1968.16 398.797 L1417.18 264.569 L866.206 428.646 L315.23 40.7605  Z" fill="#cc7c71" fill-rule="evenodd" fill-opacity="0.25"></path>
<polyline clip-path="url(#clip602)" style="stroke:#cc7c71; stroke-linecap:round; stroke-linejoin:round; stroke-width:10.8; stroke-opacity:1; fill:none" stroke-dasharray="43, 22, 5, 22" points="315.23,420.435 866.206,605.717 1417.18,389.555 1968.16,460.579 2519.13,574.837 3070.11,504.584 "></polyline>
<polyline clip-path="url(#clip602)" style="stroke:#00a9ad; stroke-linecap:round; stroke-linejoin:round; stroke-width:7.2; stroke-opacity:0.9; fill:none" stroke-dasharray="29, 18" points="315.23,33.6657 866.206,646.067 1417.18,602.324 1968.16,255.114 2519.13,413.683 3070.11,325.513 "></polyline>
<polyline clip-path="url(#clip602)" style="stroke:#000000; stroke-linecap:round; stroke-linejoin:round; stroke-width:8; stroke-opacity:1; fill:none" stroke-dasharray="4, 8" points="-2687.59,521.564 6072.93,521.564 "></polyline>
<path clip-path="url(#clip600)" d="M720.411 1140.21 L3055.42 1140.21 L3055.42 1036.53 L720.411 1036.53  Z" fill="#ffffff" fill-rule="evenodd" fill-opacity="1"></path>
<polyline clip-path="url(#clip600)" style="stroke:#000000; stroke-linecap:round; stroke-linejoin:round; stroke-width:4; stroke-opacity:1; fill:none" points="720.411,1140.21 3055.42,1140.21 3055.42,1036.53 720.411,1036.53 720.411,1140.21 "></polyline>
<polyline clip-path="url(#clip600)" style="stroke:#7e99f4; stroke-linecap:round; stroke-linejoin:round; stroke-width:10.8; stroke-opacity:1; fill:none" points="752.857,1088.37 947.535,1088.37 "></polyline>
<path clip-path="url(#clip600)" d="M979.981 1071.09 L999.842 1071.09 L999.842 1075.02 L984.657 1075.02 L984.657 1085.21 L998.361 1085.21 L998.361 1089.14 L984.657 1089.14 L984.657 1105.65 L979.981 1105.65 L979.981 1071.09 Z" fill="#000000" fill-rule="nonzero" fill-opacity="1"></path><path clip-path="url(#clip600)" d="M1033.13 1073.75 L1033.13 1078.68 Q1030.77 1076.48 1028.08 1075.39 Q1025.42 1074.31 1022.41 1074.31 Q1016.49 1074.31 1013.34 1077.94 Q1010.19 1081.55 1010.19 1088.4 Q1010.19 1095.23 1013.34 1098.87 Q1016.49 1102.48 1022.41 1102.48 Q1025.42 1102.48 1028.08 1101.39 Q1030.77 1100.3 1033.13 1098.1 L1033.13 1102.99 Q1030.68 1104.65 1027.92 1105.49 Q1025.19 1106.32 1022.13 1106.32 Q1014.29 1106.32 1009.77 1101.53 Q1005.26 1096.71 1005.26 1088.4 Q1005.26 1080.07 1009.77 1075.28 Q1014.29 1070.46 1022.13 1070.46 Q1025.24 1070.46 1027.97 1071.3 Q1030.72 1072.11 1033.13 1073.75 Z" fill="#000000" fill-rule="nonzero" fill-opacity="1"></path><path clip-path="url(#clip600)" d="M1061.07 1072.22 L1061.07 1076.78 Q1058.41 1075.51 1056.05 1074.88 Q1053.68 1074.26 1051.49 1074.26 Q1047.67 1074.26 1045.58 1075.74 Q1043.52 1077.22 1043.52 1079.95 Q1043.52 1082.25 1044.89 1083.43 Q1046.28 1084.58 1050.12 1085.3 L1052.94 1085.88 Q1058.18 1086.87 1060.65 1089.4 Q1063.15 1091.9 1063.15 1096.11 Q1063.15 1101.13 1059.77 1103.73 Q1056.42 1106.32 1049.91 1106.32 Q1047.46 1106.32 1044.68 1105.76 Q1041.93 1105.21 1038.96 1104.12 L1038.96 1099.31 Q1041.81 1100.9 1044.54 1101.71 Q1047.27 1102.52 1049.91 1102.52 Q1053.92 1102.52 1056.09 1100.95 Q1058.27 1099.37 1058.27 1096.46 Q1058.27 1093.91 1056.69 1092.48 Q1055.14 1091.04 1051.58 1090.32 L1048.73 1089.77 Q1043.5 1088.73 1041.16 1086.5 Q1038.82 1084.28 1038.82 1080.32 Q1038.82 1075.74 1042.04 1073.1 Q1045.28 1070.46 1050.95 1070.46 Q1053.38 1070.46 1055.91 1070.9 Q1058.43 1071.34 1061.07 1072.22 Z" fill="#000000" fill-rule="nonzero" fill-opacity="1"></path><polyline clip-path="url(#clip600)" style="stroke:#e26f46; stroke-linecap:round; stroke-linejoin:round; stroke-width:7.2; stroke-opacity:0.9; fill:none" stroke-dasharray="29, 18" points="1136.62,1088.37 1331.3,1088.37 "></polyline>
<path clip-path="url(#clip600)" d="M1382.65 1083.66 L1382.65 1069.63 L1386.91 1069.63 L1386.91 1105.65 L1382.65 1105.65 L1382.65 1101.76 Q1381.31 1104.07 1379.25 1105.21 Q1377.21 1106.32 1374.34 1106.32 Q1369.64 1106.32 1366.68 1102.57 Q1363.74 1098.82 1363.74 1092.71 Q1363.74 1086.6 1366.68 1082.85 Q1369.64 1079.1 1374.34 1079.1 Q1377.21 1079.1 1379.25 1080.23 Q1381.31 1081.34 1382.65 1083.66 M1368.14 1092.71 Q1368.14 1097.41 1370.06 1100.09 Q1372.01 1102.75 1375.38 1102.75 Q1378.76 1102.75 1380.71 1100.09 Q1382.65 1097.41 1382.65 1092.71 Q1382.65 1088.01 1380.71 1085.35 Q1378.76 1082.66 1375.38 1082.66 Q1372.01 1082.66 1370.06 1085.35 Q1368.14 1088.01 1368.14 1092.71 Z" fill="#000000" fill-rule="nonzero" fill-opacity="1"></path><path clip-path="url(#clip600)" d="M1396.24 1084.12 L1425.92 1084.12 L1425.92 1088.01 L1396.24 1088.01 L1396.24 1084.12 M1396.24 1093.56 L1425.92 1093.56 L1425.92 1097.5 L1396.24 1097.5 L1396.24 1093.56 Z" fill="#000000" fill-rule="nonzero" fill-opacity="1"></path><path clip-path="url(#clip600)" d="M1436.06 1071.09 L1454.41 1071.09 L1454.41 1075.02 L1440.34 1075.02 L1440.34 1083.5 Q1441.36 1083.15 1442.38 1082.99 Q1443.39 1082.8 1444.41 1082.8 Q1450.2 1082.8 1453.58 1085.97 Q1456.96 1089.14 1456.96 1094.56 Q1456.96 1100.14 1453.49 1103.24 Q1450.01 1106.32 1443.69 1106.32 Q1441.52 1106.32 1439.25 1105.95 Q1437 1105.58 1434.6 1104.84 L1434.6 1100.14 Q1436.68 1101.27 1438.9 1101.83 Q1441.13 1102.38 1443.6 1102.38 Q1447.61 1102.38 1449.94 1100.28 Q1452.28 1098.17 1452.28 1094.56 Q1452.28 1090.95 1449.94 1088.84 Q1447.61 1086.74 1443.6 1086.74 Q1441.73 1086.74 1439.85 1087.15 Q1438 1087.57 1436.06 1088.45 L1436.06 1071.09 Z" fill="#000000" fill-rule="nonzero" fill-opacity="1"></path><polyline clip-path="url(#clip600)" style="stroke:#3da44d; stroke-linecap:round; stroke-linejoin:round; stroke-width:7.2; stroke-opacity:0.9; fill:none" stroke-dasharray="29, 18" points="1520.38,1088.37 1715.06,1088.37 "></polyline>
<path clip-path="url(#clip600)" d="M1766.41 1083.66 L1766.41 1069.63 L1770.67 1069.63 L1770.67 1105.65 L1766.41 1105.65 L1766.41 1101.76 Q1765.07 1104.07 1763.01 1105.21 Q1760.97 1106.32 1758.1 1106.32 Q1753.4 1106.32 1750.44 1102.57 Q1747.5 1098.82 1747.5 1092.71 Q1747.5 1086.6 1750.44 1082.85 Q1753.4 1079.1 1758.1 1079.1 Q1760.97 1079.1 1763.01 1080.23 Q1765.07 1081.34 1766.41 1083.66 M1751.9 1092.71 Q1751.9 1097.41 1753.82 1100.09 Q1755.77 1102.75 1759.14 1102.75 Q1762.52 1102.75 1764.47 1100.09 Q1766.41 1097.41 1766.41 1092.71 Q1766.41 1088.01 1764.47 1085.35 Q1762.52 1082.66 1759.14 1082.66 Q1755.77 1082.66 1753.82 1085.35 Q1751.9 1088.01 1751.9 1092.71 Z" fill="#000000" fill-rule="nonzero" fill-opacity="1"></path><path clip-path="url(#clip600)" d="M1780 1084.12 L1809.68 1084.12 L1809.68 1088.01 L1780 1088.01 L1780 1084.12 M1780 1093.56 L1809.68 1093.56 L1809.68 1097.5 L1780 1097.5 L1780 1093.56 Z" fill="#000000" fill-rule="nonzero" fill-opacity="1"></path><path clip-path="url(#clip600)" d="M1819.91 1104.93 L1819.91 1100.67 Q1821.67 1101.5 1823.47 1101.94 Q1825.28 1102.38 1827.01 1102.38 Q1831.64 1102.38 1834.07 1099.28 Q1836.53 1096.16 1836.88 1089.81 Q1835.53 1091.81 1833.47 1092.87 Q1831.41 1093.93 1828.91 1093.93 Q1823.73 1093.93 1820.7 1090.81 Q1817.69 1087.66 1817.69 1082.22 Q1817.69 1076.9 1820.83 1073.68 Q1823.98 1070.46 1829.21 1070.46 Q1835.21 1070.46 1838.36 1075.07 Q1841.53 1079.65 1841.53 1088.4 Q1841.53 1096.57 1837.64 1101.46 Q1833.77 1106.32 1827.22 1106.32 Q1825.46 1106.32 1823.66 1105.97 Q1821.85 1105.62 1819.91 1104.93 M1829.21 1090.28 Q1832.36 1090.28 1834.19 1088.12 Q1836.04 1085.97 1836.04 1082.22 Q1836.04 1078.5 1834.19 1076.34 Q1832.36 1074.17 1829.21 1074.17 Q1826.07 1074.17 1824.21 1076.34 Q1822.39 1078.5 1822.39 1082.22 Q1822.39 1085.97 1824.21 1088.12 Q1826.07 1090.28 1829.21 1090.28 Z" fill="#000000" fill-rule="nonzero" fill-opacity="1"></path><polyline clip-path="url(#clip600)" style="stroke:#c271d2; stroke-linecap:round; stroke-linejoin:round; stroke-width:7.2; stroke-opacity:0.9; fill:none" stroke-dasharray="29, 18" points="1904.14,1088.37 2098.82,1088.37 "></polyline>
<path clip-path="url(#clip600)" d="M2150.17 1083.66 L2150.17 1069.63 L2154.43 1069.63 L2154.43 1105.65 L2150.17 1105.65 L2150.17 1101.76 Q2148.83 1104.07 2146.77 1105.21 Q2144.73 1106.32 2141.86 1106.32 Q2137.16 1106.32 2134.2 1102.57 Q2131.26 1098.82 2131.26 1092.71 Q2131.26 1086.6 2134.2 1082.85 Q2137.16 1079.1 2141.86 1079.1 Q2144.73 1079.1 2146.77 1080.23 Q2148.83 1081.34 2150.17 1083.66 M2135.66 1092.71 Q2135.66 1097.41 2137.58 1100.09 Q2139.53 1102.75 2142.9 1102.75 Q2146.28 1102.75 2148.23 1100.09 Q2150.17 1097.41 2150.17 1092.71 Q2150.17 1088.01 2148.23 1085.35 Q2146.28 1082.66 2142.9 1082.66 Q2139.53 1082.66 2137.58 1085.35 Q2135.66 1088.01 2135.66 1092.71 Z" fill="#000000" fill-rule="nonzero" fill-opacity="1"></path><path clip-path="url(#clip600)" d="M2163.76 1084.12 L2193.44 1084.12 L2193.44 1088.01 L2163.76 1088.01 L2163.76 1084.12 M2163.76 1093.56 L2193.44 1093.56 L2193.44 1097.5 L2163.76 1097.5 L2163.76 1093.56 Z" fill="#000000" fill-rule="nonzero" fill-opacity="1"></path><path clip-path="url(#clip600)" d="M2204.34 1101.71 L2211.98 1101.71 L2211.98 1075.35 L2203.67 1077.01 L2203.67 1072.75 L2211.93 1071.09 L2216.61 1071.09 L2216.61 1101.71 L2224.25 1101.71 L2224.25 1105.65 L2204.34 1105.65 L2204.34 1101.71 Z" fill="#000000" fill-rule="nonzero" fill-opacity="1"></path><path clip-path="url(#clip600)" d="M2233.74 1071.09 L2252.09 1071.09 L2252.09 1075.02 L2238.02 1075.02 L2238.02 1083.5 Q2239.04 1083.15 2240.06 1082.99 Q2241.08 1082.8 2242.09 1082.8 Q2247.88 1082.8 2251.26 1085.97 Q2254.64 1089.14 2254.64 1094.56 Q2254.64 1100.14 2251.17 1103.24 Q2247.7 1106.32 2241.38 1106.32 Q2239.2 1106.32 2236.93 1105.95 Q2234.69 1105.58 2232.28 1104.84 L2232.28 1100.14 Q2234.36 1101.27 2236.58 1101.83 Q2238.81 1102.38 2241.28 1102.38 Q2245.29 1102.38 2247.63 1100.28 Q2249.96 1098.17 2249.96 1094.56 Q2249.96 1090.95 2247.63 1088.84 Q2245.29 1086.74 2241.28 1086.74 Q2239.41 1086.74 2237.53 1087.15 Q2235.68 1087.57 2233.74 1088.45 L2233.74 1071.09 Z" fill="#000000" fill-rule="nonzero" fill-opacity="1"></path><polyline clip-path="url(#clip600)" style="stroke:#cc7c71; stroke-linecap:round; stroke-linejoin:round; stroke-width:10.8; stroke-opacity:1; fill:none" stroke-dasharray="43, 22, 5, 22" points="2287.9,1088.37 2482.57,1088.37 "></polyline>
<path clip-path="url(#clip600)" d="M2533.93 1083.66 L2533.93 1069.63 L2538.19 1069.63 L2538.19 1105.65 L2533.93 1105.65 L2533.93 1101.76 Q2532.59 1104.07 2530.53 1105.21 Q2528.49 1106.32 2525.62 1106.32 Q2520.92 1106.32 2517.96 1102.57 Q2515.02 1098.82 2515.02 1092.71 Q2515.02 1086.6 2517.96 1082.85 Q2520.92 1079.1 2525.62 1079.1 Q2528.49 1079.1 2530.53 1080.23 Q2532.59 1081.34 2533.93 1083.66 M2519.42 1092.71 Q2519.42 1097.41 2521.34 1100.09 Q2523.29 1102.75 2526.66 1102.75 Q2530.04 1102.75 2531.99 1100.09 Q2533.93 1097.41 2533.93 1092.71 Q2533.93 1088.01 2531.99 1085.35 Q2530.04 1082.66 2526.66 1082.66 Q2523.29 1082.66 2521.34 1085.35 Q2519.42 1088.01 2519.42 1092.71 Z" fill="#000000" fill-rule="nonzero" fill-opacity="1"></path><path clip-path="url(#clip600)" d="M2547.52 1084.12 L2577.2 1084.12 L2577.2 1088.01 L2547.52 1088.01 L2547.52 1084.12 M2547.52 1093.56 L2577.2 1093.56 L2577.2 1097.5 L2547.52 1097.5 L2547.52 1093.56 Z" fill="#000000" fill-rule="nonzero" fill-opacity="1"></path><path clip-path="url(#clip600)" d="M2588.1 1101.71 L2595.74 1101.71 L2595.74 1075.35 L2587.43 1077.01 L2587.43 1072.75 L2595.69 1071.09 L2600.37 1071.09 L2600.37 1101.71 L2608.01 1101.71 L2608.01 1105.65 L2588.1 1105.65 L2588.1 1101.71 Z" fill="#000000" fill-rule="nonzero" fill-opacity="1"></path><path clip-path="url(#clip600)" d="M2617.59 1104.93 L2617.59 1100.67 Q2619.35 1101.5 2621.16 1101.94 Q2622.96 1102.38 2624.7 1102.38 Q2629.33 1102.38 2631.76 1099.28 Q2634.21 1096.16 2634.56 1089.81 Q2633.22 1091.81 2631.15 1092.87 Q2629.09 1093.93 2626.59 1093.93 Q2621.41 1093.93 2618.38 1090.81 Q2615.37 1087.66 2615.37 1082.22 Q2615.37 1076.9 2618.52 1073.68 Q2621.66 1070.46 2626.9 1070.46 Q2632.89 1070.46 2636.04 1075.07 Q2639.21 1079.65 2639.21 1088.4 Q2639.21 1096.57 2635.32 1101.46 Q2631.46 1106.32 2624.91 1106.32 Q2623.15 1106.32 2621.34 1105.97 Q2619.53 1105.62 2617.59 1104.93 M2626.9 1090.28 Q2630.04 1090.28 2631.87 1088.12 Q2633.72 1085.97 2633.72 1082.22 Q2633.72 1078.5 2631.87 1076.34 Q2630.04 1074.17 2626.9 1074.17 Q2623.75 1074.17 2621.9 1076.34 Q2620.07 1078.5 2620.07 1082.22 Q2620.07 1085.97 2621.9 1088.12 Q2623.75 1090.28 2626.9 1090.28 Z" fill="#000000" fill-rule="nonzero" fill-opacity="1"></path><polyline clip-path="url(#clip600)" style="stroke:#00a9ad; stroke-linecap:round; stroke-linejoin:round; stroke-width:7.2; stroke-opacity:0.9; fill:none" stroke-dasharray="29, 18" points="2671.66,1088.37 2866.33,1088.37 "></polyline>
<path clip-path="url(#clip600)" d="M2917.69 1083.66 L2917.69 1069.63 L2921.95 1069.63 L2921.95 1105.65 L2917.69 1105.65 L2917.69 1101.76 Q2916.35 1104.07 2914.29 1105.21 Q2912.25 1106.32 2909.38 1106.32 Q2904.68 1106.32 2901.72 1102.57 Q2898.78 1098.82 2898.78 1092.71 Q2898.78 1086.6 2901.72 1082.85 Q2904.68 1079.1 2909.38 1079.1 Q2912.25 1079.1 2914.29 1080.23 Q2916.35 1081.34 2917.69 1083.66 M2903.18 1092.71 Q2903.18 1097.41 2905.1 1100.09 Q2907.05 1102.75 2910.42 1102.75 Q2913.8 1102.75 2915.75 1100.09 Q2917.69 1097.41 2917.69 1092.71 Q2917.69 1088.01 2915.75 1085.35 Q2913.8 1082.66 2910.42 1082.66 Q2907.05 1082.66 2905.1 1085.35 Q2903.18 1088.01 2903.18 1092.71 Z" fill="#000000" fill-rule="nonzero" fill-opacity="1"></path><path clip-path="url(#clip600)" d="M2931.28 1084.12 L2960.96 1084.12 L2960.96 1088.01 L2931.28 1088.01 L2931.28 1084.12 M2931.28 1093.56 L2960.96 1093.56 L2960.96 1097.5 L2931.28 1097.5 L2931.28 1093.56 Z" fill="#000000" fill-rule="nonzero" fill-opacity="1"></path><path clip-path="url(#clip600)" d="M2975.08 1101.71 L2991.4 1101.71 L2991.4 1105.65 L2969.45 1105.65 L2969.45 1101.71 Q2972.11 1098.96 2976.7 1094.33 Q2981.3 1089.68 2982.48 1088.33 Q2984.73 1085.81 2985.61 1084.07 Q2986.51 1082.31 2986.51 1080.62 Q2986.51 1077.87 2984.57 1076.13 Q2982.65 1074.4 2979.54 1074.4 Q2977.35 1074.4 2974.89 1075.16 Q2972.46 1075.93 2969.68 1077.48 L2969.68 1072.75 Q2972.51 1071.62 2974.96 1071.04 Q2977.42 1070.46 2979.45 1070.46 Q2984.82 1070.46 2988.02 1073.15 Q2991.21 1075.83 2991.21 1080.32 Q2991.21 1082.45 2990.4 1084.37 Q2989.61 1086.27 2987.51 1088.87 Q2986.93 1089.54 2983.83 1092.75 Q2980.73 1095.95 2975.08 1101.71 Z" fill="#000000" fill-rule="nonzero" fill-opacity="1"></path><path clip-path="url(#clip600)" d="M3015.38 1087.01 Q3018.73 1087.73 3020.61 1090 Q3022.51 1092.27 3022.51 1095.6 Q3022.51 1100.72 3018.99 1103.52 Q3015.47 1106.32 3008.99 1106.32 Q3006.81 1106.32 3004.5 1105.88 Q3002.21 1105.46 2999.75 1104.61 L2999.75 1100.09 Q3001.7 1101.23 3004.01 1101.81 Q3006.33 1102.38 3008.85 1102.38 Q3013.25 1102.38 3015.54 1100.65 Q3017.85 1098.91 3017.85 1095.6 Q3017.85 1092.55 3015.7 1090.83 Q3013.57 1089.1 3009.75 1089.1 L3005.73 1089.1 L3005.73 1085.25 L3009.94 1085.25 Q3013.39 1085.25 3015.22 1083.89 Q3017.04 1082.5 3017.04 1079.91 Q3017.04 1077.25 3015.15 1075.83 Q3013.27 1074.4 3009.75 1074.4 Q3007.83 1074.4 3005.63 1074.81 Q3003.43 1075.23 3000.79 1076.11 L3000.79 1071.94 Q3003.46 1071.2 3005.77 1070.83 Q3008.11 1070.46 3010.17 1070.46 Q3015.49 1070.46 3018.6 1072.89 Q3021.7 1075.3 3021.7 1079.42 Q3021.7 1082.29 3020.05 1084.28 Q3018.41 1086.25 3015.38 1087.01 Z" fill="#000000" fill-rule="nonzero" fill-opacity="1"></path></svg>