<svg xmlns="http://www.w3.org/2000/svg" xmlns:xlink="http://www.w3.org/1999/xlink" width="800" height="320" viewBox="0 0 3200 1280">
<defs>
  <clipPath id="clip840">
    <rect x="0" y="0" width="3200" height="1280"></rect>
  </clipPath>
</defs>
<path clip-path="url(#clip840)" d="M0 1280 L3200 1280 L3200 0 L0 0  Z" fill="#ffffff" fill-rule="evenodd" fill-opacity="1"></path>
<defs>
  <clipPath id="clip841">
    <rect x="640" y="0" width="2241" height="1280"></rect>
  </clipPath>
</defs>
<path clip-path="url(#clip840)" d="M232.098 1176.1 L3152.76 1176.1 L3152.76 99.2801 L232.098 99.2801  Z" fill="#ffffff" fill-rule="evenodd" fill-opacity="1"></path>
<defs>
  <clipPath id="clip842">
    <rect x="232" y="99" width="2922" height="1078"></rect>
  </clipPath>
</defs>
<polyline clip-path="url(#clip842)" style="stroke:#000000; stroke-linecap:round; stroke-linejoin:round; stroke-width:2; stroke-opacity:0.1; fill:none" points="314.758,1176.1 314.758,99.2801 "></polyline>
<polyline clip-path="url(#clip842)" style="stroke:#000000; stroke-linecap:round; stroke-linejoin:round; stroke-width:2; stroke-opacity:0.1; fill:none" points="865.826,1176.1 865.826,99.2801 "></polyline>
<polyline clip-path="url(#clip842)" style="stroke:#000000; stroke-linecap:round; stroke-linejoin:round; stroke-width:2; stroke-opacity:0.1; fill:none" points="1416.89,1176.1 1416.89,99.2801 "></polyline>
<polyline clip-path="url(#clip842)" style="stroke:#000000; stroke-linecap:round; stroke-linejoin:round; stroke-width:2; stroke-opacity:0.1; fill:none" points="1967.96,1176.1 1967.96,99.2801 "></polyline>
<polyline clip-path="url(#clip842)" style="stroke:#000000; stroke-linecap:round; stroke-linejoin:round; stroke-width:2; stroke-opacity:0.1; fill:none" points="2519.03,1176.1 2519.03,99.2801 "></polyline>
<polyline clip-path="url(#clip842)" style="stroke:#000000; stroke-linecap:round; stroke-linejoin:round; stroke-width:2; stroke-opacity:0.1; fill:none" points="3070.1,1176.1 3070.1,99.2801 "></polyline>
<polyline clip-path="url(#clip842)" style="stroke:#000000; stroke-linecap:round; stroke-linejoin:round; stroke-width:2; stroke-opacity:0.1; fill:none" points="232.098,942.01 3152.76,942.01 "></polyline>
<polyline clip-path="url(#clip842)" style="stroke:#000000; stroke-linecap:round; stroke-linejoin:round; stroke-width:2; stroke-opacity:0.1; fill:none" points="232.098,707.919 3152.76,707.919 "></polyline>
<polyline clip-path="url(#clip842)" style="stroke:#000000; stroke-linecap:round; stroke-linejoin:round; stroke-width:2; stroke-opacity:0.1; fill:none" points="232.098,473.827 3152.76,473.827 "></polyline>
<polyline clip-path="url(#clip842)" style="stroke:#000000; stroke-linecap:round; stroke-linejoin:round; stroke-width:2; stroke-opacity:0.1; fill:none" points="232.098,239.735 3152.76,239.735 "></polyline>
<polyline clip-path="url(#clip840)" style="stroke:#000000; stroke-linecap:round; stroke-linejoin:round; stroke-width:4; stroke-opacity:1; fill:none" points="232.098,1176.1 3152.76,1176.1 "></polyline>
<polyline clip-path="url(#clip840)" style="stroke:#000000; stroke-linecap:round; stroke-linejoin:round; stroke-width:4; stroke-opacity:1; fill:none" points="314.758,1176.1 314.758,1157.2 "></polyline>
<polyline clip-path="url(#clip840)" style="stroke:#000000; stroke-linecap:round; stroke-linejoin:round; stroke-width:4; stroke-opacity:1; fill:none" points="865.826,1176.1 865.826,1157.2 "></polyline>
<polyline clip-path="url(#clip840)" style="stroke:#000000; stroke-linecap:round; stroke-linejoin:round; stroke-width:4; stroke-opacity:1; fill:none" points="1416.89,1176.1 1416.89,1157.2 "></polyline>
<polyline clip-path="url(#clip840)" style="stroke:#000000; stroke-linecap:round; stroke-linejoin:round; stroke-width:4; stroke-opacity:1; fill:none" points="1967.96,1176.1 1967.96,1157.2 "></polyline>
<polyline clip-path="url(#clip840)" style="stroke:#000000; stroke-linecap:round; stroke-linejoin:round; stroke-width:4; stroke-opacity:1; fill:none" points="2519.03,1176.1 2519.03,1157.2 "></polyline>
<polyline clip-path="url(#clip840)" style="stroke:#000000; stroke-linecap:round; stroke-linejoin:round; stroke-width:4; stroke-opacity:1; fill:none" points="3070.1,1176.1 3070.1,1157.2 "></polyline>
<path clip-path="url(#clip840)" d="M288.299 1256.63 L304.618 1256.63 L304.618 1260.56 L282.674 1260.56 L282.674 1256.63 Q285.336 1253.87 289.919 1249.24 Q294.526 1244.59 295.706 1243.25 Q297.952 1240.72 298.831 1238.99 Q299.734 1237.23 299.734 1235.54 Q299.734 1232.78 297.79 1231.05 Q295.868 1229.31 292.767 1229.31 Q290.568 1229.31 288.114 1230.08 Q285.683 1230.84 282.906 1232.39 L282.906 1227.67 Q285.73 1226.53 288.183 1225.96 Q290.637 1225.38 292.674 1225.38 Q298.044 1225.38 301.239 1228.06 Q304.433 1230.75 304.433 1235.24 Q304.433 1237.37 303.623 1239.29 Q302.836 1241.19 300.73 1243.78 Q300.151 1244.45 297.049 1247.67 Q293.947 1250.86 288.299 1256.63 Z" fill="#000000" fill-rule="nonzero" fill-opacity="1"></path><path clip-path="url(#clip840)" d="M305.164 1229.95 L311.37 1229.95 L311.37 1208.53 L304.618 1209.89 L304.618 1206.43 L311.333 1205.07 L315.132 1205.07 L315.132 1229.95 L321.339 1229.95 L321.339 1233.15 L305.164 1233.15 L305.164 1229.95 Z" fill="#000000" fill-rule="nonzero" fill-opacity="1"></path><path clip-path="url(#clip840)" d="M337.137 1207.57 Q334.203 1207.57 332.717 1210.47 Q331.25 1213.35 331.25 1219.14 Q331.25 1224.91 332.717 1227.81 Q334.203 1230.69 337.137 1230.69 Q340.09 1230.69 341.557 1227.81 Q343.043 1224.91 343.043 1219.14 Q343.043 1213.35 341.557 1210.47 Q340.09 1207.57 337.137 1207.57 M337.137 1204.56 Q341.858 1204.56 344.34 1208.31 Q346.842 1212.03 346.842 1219.14 Q346.842 1226.23 344.34 1229.97 Q341.858 1233.7 337.137 1233.7 Q332.416 1233.7 329.915 1229.97 Q327.432 1226.23 327.432 1219.14 Q327.432 1212.03 329.915 1208.31 Q332.416 1204.56 337.137 1204.56 Z" fill="#000000" fill-rule="nonzero" fill-opacity="1"></path><path clip-path="url(#clip840)" d="M839.865 1256.63 L856.184 1256.63 L856.184 1260.56 L834.24 1260.56 L834.24 1256.63 Q836.902 1253.87 841.485 1249.24 Q846.092 1244.59 847.272 1243.25 Q849.518 1240.72 850.397 1238.99 Q851.3 1237.23 851.3 1235.54 Q851.3 1232.78 849.356 1231.05 Q847.434 1229.31 844.333 1229.31 Q842.134 1229.31 839.68 1230.08 Q837.249 1230.84 834.472 1232.39 L834.472 1227.67 Q837.296 1226.53 839.749 1225.96 Q842.203 1225.38 844.24 1225.38 Q849.61 1225.38 852.805 1228.06 Q855.999 1230.75 855.999 1235.24 Q855.999 1237.37 855.189 1239.29 Q854.402 1241.19 852.296 1243.78 Q851.717 1244.45 848.615 1247.67 Q845.513 1250.86 839.865 1256.63 Z" fill="#000000" fill-rule="nonzero" fill-opacity="1"></path><path clip-path="url(#clip840)" d="M856.73 1229.95 L862.936 1229.95 L862.936 1208.53 L856.184 1209.89 L856.184 1206.43 L862.899 1205.07 L866.698 1205.07 L866.698 1229.95 L872.905 1229.95 L872.905 1233.15 L856.73 1233.15 L856.73 1229.95 Z" fill="#000000" fill-rule="nonzero" fill-opacity="1"></path><path clip-path="url(#clip840)" d="M881.236 1229.95 L887.443 1229.95 L887.443 1208.53 L880.691 1209.89 L880.691 1206.43 L887.405 1205.07 L891.204 1205.07 L891.204 1229.95 L897.411 1229.95 L897.411 1233.15 L881.236 1233.15 L881.236 1229.95 Z" fill="#000000" fill-rule="nonzero" fill-opacity="1"></path><path clip-path="url(#clip840)" d="M1391.08 1256.63 L1407.4 1256.63 L1407.4 1260.56 L1385.46 1260.56 L1385.46 1256.63 Q1388.12 1253.87 1392.7 1249.24 Q1397.31 1244.59 1398.49 1243.25 Q1400.74 1240.72 1401.62 1238.99 Q1402.52 1237.23 1402.52 1235.54 Q1402.52 1232.78 1400.57 1231.05 Q1398.65 1229.31 1395.55 1229.31 Q1393.35 1229.31 1390.9 1230.08 Q1388.47 1230.84 1385.69 1232.39 L1385.69 1227.67 Q1388.51 1226.53 1390.97 1225.96 Q1393.42 1225.38 1395.46 1225.38 Q1400.83 1225.38 1404.02 1228.06 Q1407.22 1230.75 1407.22 1235.24 Q1407.22 1237.37 1406.41 1239.29 Q1405.62 1241.19 1403.51 1243.78 Q1402.93 1244.45 1399.83 1247.67 Q1396.73 1250.86 1391.08 1256.63 Z" fill="#000000" fill-rule="nonzero" fill-opacity="1"></path><path clip-path="url(#clip840)" d="M1407.95 1229.95 L1414.15 1229.95 L1414.15 1208.53 L1407.4 1209.89 L1407.4 1206.43 L1414.12 1205.07 L1417.92 1205.07 L1417.92 1229.95 L1424.12 1229.95 L1424.12 1233.15 L1407.95 1233.15 L1407.95 1229.95 Z" fill="#000000" fill-rule="nonzero" fill-opacity="1"></path><path clip-path="url(#clip840)" d="M1435.07 1229.95 L1448.33 1229.95 L1448.33 1233.15 L1430.5 1233.15 L1430.5 1229.95 Q1432.66 1227.72 1436.39 1223.95 Q1440.13 1220.17 1441.09 1219.08 Q1442.91 1217.03 1443.63 1215.62 Q1444.36 1214.19 1444.36 1212.82 Q1444.36 1210.58 1442.78 1209.17 Q1441.22 1207.76 1438.7 1207.76 Q1436.91 1207.76 1434.92 1208.38 Q1432.94 1209 1430.69 1210.26 L1430.69 1206.43 Q1432.98 1205.5 1434.97 1205.03 Q1436.97 1204.56 1438.62 1204.56 Q1442.99 1204.56 1445.58 1206.75 Q1448.18 1208.93 1448.18 1212.58 Q1448.18 1214.31 1447.52 1215.87 Q1446.88 1217.41 1445.17 1219.52 Q1444.7 1220.06 1442.18 1222.68 Q1439.66 1225.27 1435.07 1229.95 Z" fill="#000000" fill-rule="nonzero" fill-opacity="1"></path><path clip-path="url(#clip840)" d="M1941.77 1256.63 L1958.08 1256.63 L1958.08 1260.56 L1936.14 1260.56 L1936.14 1256.63 Q1938.8 1253.87 1943.39 1249.24 Q1947.99 1244.59 1949.17 1243.25 Q1951.42 1240.72 1952.3 1238.99 Q1953.2 1237.23 1953.2 1235.54 Q1953.2 1232.78 1951.26 1231.05 Q1949.33 1229.31 1946.23 1229.31 Q1944.03 1229.31 1941.58 1230.08 Q1939.15 1230.84 1936.37 1232.39 L1936.37 1227.67 Q1939.2 1226.53 1941.65 1225.96 Q1944.1 1225.38 1946.14 1225.38 Q1951.51 1225.38 1954.7 1228.06 Q1957.9 1230.75 1957.9 1235.24 Q1957.9 1237.37 1957.09 1239.29 Q1956.3 1241.19 1954.2 1243.78 Q1953.62 1244.45 1950.52 1247.67 Q1947.41 1250.86 1941.77 1256.63 Z" fill="#000000" fill-rule="nonzero" fill-opacity="1"></path><path clip-path="url(#clip840)" d="M1958.63 1229.95 L1964.84 1229.95 L1964.84 1208.53 L1958.08 1209.89 L1958.08 1206.43 L1964.8 1205.07 L1968.6 1205.07 L1968.6 1229.95 L1974.8 1229.95 L1974.8 1233.15 L1958.63 1233.15 L1958.63 1229.95 Z" fill="#000000" fill-rule="nonzero" fill-opacity="1"></path><path clip-path="url(#clip840)" d="M1993.99 1218.01 Q1996.72 1218.59 1998.24 1220.44 Q1999.78 1222.28 1999.78 1224.99 Q1999.78 1229.15 1996.92 1231.42 Q1994.06 1233.7 1988.8 1233.7 Q1987.03 1233.7 1985.15 1233.34 Q1983.29 1233 1981.29 1232.31 L1981.29 1228.64 Q1982.87 1229.56 1984.75 1230.03 Q1986.63 1230.5 1988.68 1230.5 Q1992.26 1230.5 1994.12 1229.09 Q1996 1227.68 1996 1224.99 Q1996 1222.51 1994.25 1221.11 Q1992.52 1219.7 1989.42 1219.7 L1986.15 1219.7 L1986.15 1216.58 L1989.57 1216.58 Q1992.37 1216.58 1993.86 1215.47 Q1995.34 1214.34 1995.34 1212.24 Q1995.34 1210.07 1993.8 1208.93 Q1992.28 1207.76 1989.42 1207.76 Q1987.86 1207.76 1986.07 1208.1 Q1984.28 1208.44 1982.14 1209.15 L1982.14 1205.77 Q1984.3 1205.17 1986.18 1204.86 Q1988.08 1204.56 1989.76 1204.56 Q1994.08 1204.56 1996.6 1206.54 Q1999.12 1208.49 1999.12 1211.84 Q1999.12 1214.17 1997.79 1215.79 Q1996.45 1217.39 1993.99 1218.01 Z" fill="#000000" fill-rule="nonzero" fill-opacity="1"></path><path clip-path="url(#clip840)" d="M2492.37 1256.63 L2508.69 1256.63 L2508.69 1260.56 L2486.75 1260.56 L2486.75 1256.63 Q2489.41 1253.87 2493.99 1249.24 Q2498.6 1244.59 2499.78 1243.25 Q2502.02 1240.72 2502.9 1238.99 Q2503.81 1237.23 2503.81 1235.54 Q2503.81 1232.78 2501.86 1231.05 Q2499.94 1229.31 2496.84 1229.31 Q2494.64 1229.31 2492.19 1230.08 Q2489.76 1230.84 2486.98 1232.39 L2486.98 1227.67 Q2489.8 1226.53 2492.26 1225.96 Q2494.71 1225.38 2496.75 1225.38 Q2502.12 1225.38 2505.31 1228.06 Q2508.51 1230.75 2508.51 1235.24 Q2508.51 1237.37 2507.7 1239.29 Q2506.91 1241.19 2504.8 1243.78 Q2504.22 1244.45 2501.12 1247.67 Q2498.02 1250.86 2492.37 1256.63 Z" fill="#000000" fill-rule="nonzero" fill-opacity="1"></path><path clip-path="url(#clip840)" d="M2509.24 1229.95 L2515.44 1229.95 L2515.44 1208.53 L2508.69 1209.89 L2508.69 1206.43 L2515.41 1205.07 L2519.2 1205.07 L2519.2 1229.95 L2525.41 1229.95 L2525.41 1233.15 L2509.24 1233.15 L2509.24 1229.95 Z" fill="#000000" fill-rule="nonzero" fill-opacity="1"></path><path clip-path="url(#clip840)" d="M2543.52 1208.38 L2533.93 1223.37 L2543.52 1223.37 L2543.52 1208.38 M2542.53 1205.07 L2547.3 1205.07 L2547.3 1223.37 L2551.31 1223.37 L2551.31 1226.53 L2547.3 1226.53 L2547.3 1233.15 L2543.52 1233.15 L2543.52 1226.53 L2530.85 1226.53 L2530.85 1222.86 L2542.53 1205.07 Z" fill="#000000" fill-rule="nonzero" fill-opacity="1"></path><path clip-path="url(#clip840)" d="M3044.04 1256.63 L3060.36 1256.63 L3060.36 1260.56 L3038.42 1260.56 L3038.42 1256.63 Q3041.08 1253.87 3045.66 1249.24 Q3050.27 1244.59 3051.45 1243.25 Q3053.69 1240.72 3054.57 1238.99 Q3055.48 1237.23 3055.48 1235.54 Q3055.48 1232.78 3053.53 1231.05 Q3051.61 1229.31 3048.51 1229.31 Q3046.31 1229.31 3043.86 1230.08 Q3041.43 1230.84 3038.65 1232.39 L3038.65 1227.67 Q3041.47 1226.53 3043.93 1225.96 Q3046.38 1225.38 3048.42 1225.38 Q3053.79 1225.38 3056.98 1228.06 Q3060.18 1230.75 3060.18 1235.24 Q3060.18 1237.37 3059.37 1239.29 Q3058.58 1241.19 3056.47 1243.78 Q3055.89 1244.45 3052.79 1247.67 Q3049.69 1250.86 3044.04 1256.63 Z" fill="#000000" fill-rule="nonzero" fill-opacity="1"></path><path clip-path="url(#clip840)" d="M3060.91 1229.95 L3067.11 1229.95 L3067.11 1208.53 L3060.36 1209.89 L3060.36 1206.43 L3067.07 1205.07 L3070.87 1205.07 L3070.87 1229.95 L3077.08 1229.95 L3077.08 1233.15 L3060.91 1233.15 L3060.91 1229.95 Z" fill="#000000" fill-rule="nonzero" fill-opacity="1"></path><path clip-path="url(#clip840)" d="M3084.79 1205.07 L3099.71 1205.07 L3099.71 1208.27 L3088.27 1208.27 L3088.27 1215.15 Q3089.1 1214.87 3089.93 1214.74 Q3090.75 1214.59 3091.58 1214.59 Q3096.28 1214.59 3099.03 1217.16 Q3101.78 1219.74 3101.78 1224.14 Q3101.78 1228.68 3098.95 1231.2 Q3096.13 1233.7 3091 1233.7 Q3089.23 1233.7 3087.39 1233.4 Q3085.56 1233.1 3083.61 1232.49 L3083.61 1228.68 Q3085.3 1229.6 3087.11 1230.05 Q3088.91 1230.5 3090.92 1230.5 Q3094.18 1230.5 3096.08 1228.79 Q3097.98 1227.08 3097.98 1224.14 Q3097.98 1221.21 3096.08 1219.5 Q3094.18 1217.79 3090.92 1217.79 Q3089.4 1217.79 3087.88 1218.12 Q3086.37 1218.46 3084.79 1219.18 L3084.79 1205.07 Z" fill="#000000" fill-rule="nonzero" fill-opacity="1"></path><polyline clip-path="url(#clip840)" style="stroke:#000000; stroke-linecap:round; stroke-linejoin:round; stroke-width:4; stroke-opacity:1; fill:none" points="232.098,1176.1 232.098,99.2801 "></polyline>
<polyline clip-path="url(#clip840)" style="stroke:#000000; stroke-linecap:round; stroke-linejoin:round; stroke-width:4; stroke-opacity:1; fill:none" points="232.098,942.01 250.996,942.01 "></polyline>
<polyline clip-path="url(#clip840)" style="stroke:#000000; stroke-linecap:round; stroke-linejoin:round; stroke-width:4; stroke-opacity:1; fill:none" points="232.098,707.919 250.996,707.919 "></polyline>
<polyline clip-path="url(#clip840)" style="stroke:#000000; stroke-linecap:round; stroke-linejoin:round; stroke-width:4; stroke-opacity:1; fill:none" points="232.098,473.827 250.996,473.827 "></polyline>
<polyline clip-path="url(#clip840)" style="stroke:#000000; stroke-linecap:round; stroke-linejoin:round; stroke-width:4; stroke-opacity:1; fill:none" points="232.098,239.735 250.996,239.735 "></polyline>
<path clip-path="url(#clip840)" d="M46.9921 942.462 L76.6679 942.462 L76.6679 946.397 L46.9921 946.397 L46.9921 942.462 Z" fill="#000000" fill-rule="nonzero" fill-opacity="1"></path><path clip-path="url(#clip840)" d="M96.7604 927.809 Q93.1493 927.809 91.3206 931.374 Q89.515 934.915 89.515 942.045 Q89.515 949.151 91.3206 952.716 Q93.1493 956.258 96.7604 956.258 Q100.395 956.258 102.2 952.716 Q104.029 949.151 104.029 942.045 Q104.029 934.915 102.2 931.374 Q100.395 927.809 96.7604 927.809 M96.7604 924.105 Q102.571 924.105 105.626 928.712 Q108.705 933.295 108.705 942.045 Q108.705 950.772 105.626 955.378 Q102.571 959.962 96.7604 959.962 Q90.9502 959.962 87.8715 955.378 Q84.816 950.772 84.816 942.045 Q84.816 933.295 87.8715 928.712 Q90.9502 924.105 96.7604 924.105 Z" fill="#000000" fill-rule="nonzero" fill-opacity="1"></path><path clip-path="url(#clip840)" d="M116.922 953.411 L121.807 953.411 L121.807 959.29 L116.922 959.29 L116.922 953.411 Z" fill="#000000" fill-rule="nonzero" fill-opacity="1"></path><path clip-path="url(#clip840)" d="M132.802 955.355 L140.441 955.355 L140.441 928.989 L132.131 930.656 L132.131 926.397 L140.394 924.73 L145.07 924.73 L145.07 955.355 L152.709 955.355 L152.709 959.29 L132.802 959.29 L132.802 955.355 Z" fill="#000000" fill-rule="nonzero" fill-opacity="1"></path><path clip-path="url(#clip840)" d="M172.153 927.809 Q168.542 927.809 166.714 931.374 Q164.908 934.915 164.908 942.045 Q164.908 949.151 166.714 952.716 Q168.542 956.258 172.153 956.258 Q175.788 956.258 177.593 952.716 Q179.422 949.151 179.422 942.045 Q179.422 934.915 177.593 931.374 Q175.788 927.809 172.153 927.809 M172.153 924.105 Q177.964 924.105 181.019 928.712 Q184.098 933.295 184.098 942.045 Q184.098 950.772 181.019 955.378 Q177.964 959.962 172.153 959.962 Q166.343 959.962 163.265 955.378 Q160.209 950.772 160.209 942.045 Q160.209 933.295 163.265 928.712 Q166.343 924.105 172.153 924.105 Z" fill="#000000" fill-rule="nonzero" fill-opacity="1"></path><path clip-path="url(#clip840)" d="M47.9875 708.37 L77.6633 708.37 L77.6633 712.305 L47.9875 712.305 L47.9875 708.37 Z" fill="#000000" fill-rule="nonzero" fill-opacity="1"></path><path clip-path="url(#clip840)" d="M97.7557 693.717 Q94.1447 693.717 92.316 697.282 Q90.5104 700.824 90.5104 707.953 Q90.5104 715.06 92.316 718.625 Q94.1447 722.166 97.7557 722.166 Q101.39 722.166 103.196 718.625 Q105.024 715.06 105.024 707.953 Q105.024 700.824 103.196 697.282 Q101.39 693.717 97.7557 693.717 M97.7557 690.014 Q103.566 690.014 106.621 694.62 Q109.7 699.203 109.7 707.953 Q109.7 716.68 106.621 721.287 Q103.566 725.87 97.7557 725.87 Q91.9456 725.87 88.8669 721.287 Q85.8114 716.68 85.8114 707.953 Q85.8114 699.203 88.8669 694.62 Q91.9456 690.014 97.7557 690.014 Z" fill="#000000" fill-rule="nonzero" fill-opacity="1"></path><path clip-path="url(#clip840)" d="M117.918 719.319 L122.802 719.319 L122.802 725.199 L117.918 725.199 L117.918 719.319 Z" fill="#000000" fill-rule="nonzero" fill-opacity="1"></path><path clip-path="url(#clip840)" d="M142.987 693.717 Q139.376 693.717 137.547 697.282 Q135.742 700.824 135.742 707.953 Q135.742 715.06 137.547 718.625 Q139.376 722.166 142.987 722.166 Q146.621 722.166 148.427 718.625 Q150.255 715.06 150.255 707.953 Q150.255 700.824 148.427 697.282 Q146.621 693.717 142.987 693.717 M142.987 690.014 Q148.797 690.014 151.853 694.62 Q154.931 699.203 154.931 707.953 Q154.931 716.68 151.853 721.287 Q148.797 725.87 142.987 725.87 Q137.177 725.87 134.098 721.287 Q131.043 716.68 131.043 707.953 Q131.043 699.203 134.098 694.62 Q137.177 690.014 142.987 690.014 Z" fill="#000000" fill-rule="nonzero" fill-opacity="1"></path><path clip-path="url(#clip840)" d="M163.195 690.639 L181.552 690.639 L181.552 694.574 L167.478 694.574 L167.478 703.046 Q168.496 702.699 169.515 702.537 Q170.533 702.351 171.552 702.351 Q177.339 702.351 180.718 705.523 Q184.098 708.694 184.098 714.111 Q184.098 719.689 180.626 722.791 Q177.153 725.87 170.834 725.87 Q168.658 725.87 166.39 725.499 Q164.144 725.129 161.737 724.388 L161.737 719.689 Q163.82 720.824 166.042 721.379 Q168.265 721.935 170.741 721.935 Q174.746 721.935 177.084 719.828 Q179.422 717.722 179.422 714.111 Q179.422 710.5 177.084 708.393 Q174.746 706.287 170.741 706.287 Q168.866 706.287 166.991 706.703 Q165.14 707.12 163.195 708 L163.195 690.639 Z" fill="#000000" fill-rule="nonzero" fill-opacity="1"></path><path clip-path="url(#clip840)" d="M96.7604 459.626 Q93.1493 459.626 91.3206 463.19 Q89.515 466.732 89.515 473.862 Q89.515 480.968 91.3206 484.533 Q93.1493 488.074 96.7604 488.074 Q100.395 488.074 102.2 484.533 Q104.029 480.968 104.029 473.862 Q104.029 466.732 102.2 463.19 Q100.395 459.626 96.7604 459.626 M96.7604 455.922 Q102.571 455.922 105.626 460.528 Q108.705 465.112 108.705 473.862 Q108.705 482.588 105.626 487.195 Q102.571 491.778 96.7604 491.778 Q90.9502 491.778 87.8715 487.195 Q84.816 482.588 84.816 473.862 Q84.816 465.112 87.8715 460.528 Q90.9502 455.922 96.7604 455.922 Z" fill="#000000" fill-rule="nonzero" fill-opacity="1"></path><path clip-path="url(#clip840)" d="M116.922 485.227 L121.807 485.227 L121.807 491.107 L116.922 491.107 L116.922 485.227 Z" fill="#000000" fill-rule="nonzero" fill-opacity="1"></path><path clip-path="url(#clip840)" d="M141.992 459.626 Q138.381 459.626 136.552 463.19 Q134.746 466.732 134.746 473.862 Q134.746 480.968 136.552 484.533 Q138.381 488.074 141.992 488.074 Q145.626 488.074 147.431 484.533 Q149.26 480.968 149.26 473.862 Q149.26 466.732 147.431 463.19 Q145.626 459.626 141.992 459.626 M141.992 455.922 Q147.802 455.922 150.857 460.528 Q153.936 465.112 153.936 473.862 Q153.936 482.588 150.857 487.195 Q147.802 491.778 141.992 491.778 Q136.181 491.778 133.103 487.195 Q130.047 482.588 130.047 473.862 Q130.047 465.112 133.103 460.528 Q136.181 455.922 141.992 455.922 Z" fill="#000000" fill-rule="nonzero" fill-opacity="1"></path><path clip-path="url(#clip840)" d="M172.153 459.626 Q168.542 459.626 166.714 463.19 Q164.908 466.732 164.908 473.862 Q164.908 480.968 166.714 484.533 Q168.542 488.074 172.153 488.074 Q175.788 488.074 177.593 484.533 Q179.422 480.968 179.422 473.862 Q179.422 466.732 177.593 463.19 Q175.788 459.626 172.153 459.626 M172.153 455.922 Q177.964 455.922 181.019 460.528 Q184.098 465.112 184.098 473.862 Q184.098 482.588 181.019 487.195 Q177.964 491.778 172.153 491.778 Q166.343 491.778 163.265 487.195 Q160.209 482.588 160.209 473.862 Q160.209 465.112 163.265 460.528 Q166.343 455.922 172.153 455.922 Z" fill="#000000" fill-rule="nonzero" fill-opacity="1"></path><path clip-path="url(#clip840)" d="M97.7557 225.534 Q94.1447 225.534 92.316 229.099 Q90.5104 232.64 90.5104 239.77 Q90.5104 246.876 92.316 250.441 Q94.1447 253.983 97.7557 253.983 Q101.39 253.983 103.196 250.441 Q105.024 246.876 105.024 239.77 Q105.024 232.64 103.196 229.099 Q101.39 225.534 97.7557 225.534 M97.7557 221.83 Q103.566 221.83 106.621 226.437 Q109.7 231.02 109.7 239.77 Q109.7 248.497 106.621 253.103 Q103.566 257.686 97.7557 257.686 Q91.9456 257.686 88.8669 253.103 Q85.8114 248.497 85.8114 239.77 Q85.8114 231.02 88.8669 226.437 Q91.9456 221.83 97.7557 221.83 Z" fill="#000000" fill-rule="nonzero" fill-opacity="1"></path><path clip-path="url(#clip840)" d="M117.918 251.136 L122.802 251.136 L122.802 257.015 L117.918 257.015 L117.918 251.136 Z" fill="#000000" fill-rule="nonzero" fill-opacity="1"></path><path clip-path="url(#clip840)" d="M142.987 225.534 Q139.376 225.534 137.547 229.099 Q135.742 232.64 135.742 239.77 Q135.742 246.876 137.547 250.441 Q139.376 253.983 142.987 253.983 Q146.621 253.983 148.427 250.441 Q150.255 246.876 150.255 239.77 Q150.255 232.64 148.427 229.099 Q146.621 225.534 142.987 225.534 M142.987 221.83 Q148.797 221.83 151.853 226.437 Q154.931 231.02 154.931 239.77 Q154.931 248.497 151.853 253.103 Q148.797 257.686 142.987 257.686 Q137.177 257.686 134.098 253.103 Q131.043 248.497 131.043 239.77 Q131.043 231.02 134.098 226.437 Q137.177 221.83 142.987 221.83 Z" fill="#000000" fill-rule="nonzero" fill-opacity="1"></path><path clip-path="url(#clip840)" d="M163.195 222.455 L181.552 222.455 L181.552 226.39 L167.478 226.39 L167.478 234.862 Q168.496 234.515 169.515 234.353 Q170.533 234.168 171.552 234.168 Q177.339 234.168 180.718 237.339 Q184.098 240.511 184.098 245.927 Q184.098 251.506 180.626 254.608 Q177.153 257.686 170.834 257.686 Q168.658 257.686 166.39 257.316 Q164.144 256.946 161.737 256.205 L161.737 251.506 Q163.82 252.64 166.042 253.196 Q168.265 253.751 170.741 253.751 Q174.746 253.751 177.084 251.645 Q179.422 249.538 179.422 245.927 Q179.422 242.316 177.084 240.21 Q174.746 238.103 170.741 238.103 Q168.866 238.103 166.991 238.52 Q165.14 238.937 163.195 239.816 L163.195 222.455 Z" fill="#000000" fill-rule="nonzero" fill-opacity="1"></path><path clip-path="url(#clip840)" d="M1038.25 34.1734 Q1036.99 33.4443 1035.49 33.1202 Q1034.03 32.7556 1032.25 32.7556 Q1025.93 32.7556 1022.53 36.8875 Q1019.17 40.9789 1019.17 48.6757 L1019.17 72.576 L1011.67 72.576 L1011.67 27.2059 L1019.17 27.2059 L1019.17 34.2544 Q1021.52 30.1225 1025.28 28.1376 Q1029.05 26.1121 1034.44 26.1121 Q1035.21 26.1121 1036.14 26.2337 Q1037.07 26.3147 1038.21 26.5172 L1038.25 34.1734 Z" fill="#000000" fill-rule="nonzero" fill-opacity="1"></path><path clip-path="url(#clip840)" d="M1066.68 49.7694 Q1057.65 49.7694 1054.17 51.8354 Q1050.68 53.9013 1050.68 58.8839 Q1050.68 62.8538 1053.28 65.2034 Q1055.91 67.5124 1060.4 67.5124 Q1066.6 67.5124 1070.33 63.1374 Q1074.1 58.7219 1074.1 51.4303 L1074.1 49.7694 L1066.68 49.7694 M1081.55 46.6907 L1081.55 72.576 L1074.1 72.576 L1074.1 65.6895 Q1071.54 69.8214 1067.74 71.8063 Q1063.93 73.7508 1058.42 73.7508 Q1051.45 73.7508 1047.32 69.8619 Q1043.23 65.9325 1043.23 59.3701 Q1043.23 51.7138 1048.33 47.825 Q1053.48 43.9361 1063.65 43.9361 L1074.1 43.9361 L1074.1 43.2069 Q1074.1 38.0623 1070.69 35.2672 Q1067.33 32.4315 1061.21 32.4315 Q1057.33 32.4315 1053.64 33.3632 Q1049.95 34.295 1046.55 36.1584 L1046.55 29.2718 Q1050.64 27.692 1054.49 26.9223 Q1058.34 26.1121 1061.98 26.1121 Q1071.83 26.1121 1076.69 31.2163 Q1081.55 36.3204 1081.55 46.6907 Z" fill="#000000" fill-rule="nonzero" fill-opacity="1"></path><path clip-path="url(#clip840)" d="M1134.62 45.1919 L1134.62 72.576 L1127.16 72.576 L1127.16 45.4349 Q1127.16 38.994 1124.65 35.7938 Q1122.14 32.5936 1117.12 32.5936 Q1111.08 32.5936 1107.6 36.4419 Q1104.11 40.2903 1104.11 46.9338 L1104.11 72.576 L1096.62 72.576 L1096.62 27.2059 L1104.11 27.2059 L1104.11 34.2544 Q1106.79 30.163 1110.39 28.1376 Q1114.04 26.1121 1118.78 26.1121 Q1126.6 26.1121 1130.61 30.9732 Q1134.62 35.7938 1134.62 45.1919 Z" fill="#000000" fill-rule="nonzero" fill-opacity="1"></path><path clip-path="url(#clip840)" d="M1179.34 34.0924 L1179.34 9.54393 L1186.79 9.54393 L1186.79 72.576 L1179.34 72.576 L1179.34 65.7705 Q1176.99 69.8214 1173.38 71.8063 Q1169.82 73.7508 1164.8 73.7508 Q1156.57 73.7508 1151.39 67.1883 Q1146.24 60.6258 1146.24 49.9314 Q1146.24 39.2371 1151.39 32.6746 Q1156.57 26.1121 1164.8 26.1121 Q1169.82 26.1121 1173.38 28.0971 Q1176.99 30.0415 1179.34 34.0924 M1153.94 49.9314 Q1153.94 58.1548 1157.3 62.8538 Q1160.71 67.5124 1166.62 67.5124 Q1172.53 67.5124 1175.94 62.8538 Q1179.34 58.1548 1179.34 49.9314 Q1179.34 41.7081 1175.94 37.0496 Q1172.53 32.3505 1166.62 32.3505 Q1160.71 32.3505 1157.3 37.0496 Q1153.94 41.7081 1153.94 49.9314 Z" fill="#000000" fill-rule="nonzero" fill-opacity="1"></path><path clip-path="url(#clip840)" d="M1219.73 32.4315 Q1213.73 32.4315 1210.25 37.1306 Q1206.76 41.7891 1206.76 49.9314 Q1206.76 58.0738 1210.21 62.7728 Q1213.69 67.4314 1219.73 67.4314 Q1225.68 67.4314 1229.17 62.7323 Q1232.65 58.0333 1232.65 49.9314 Q1232.65 41.8701 1229.17 37.1711 Q1225.68 32.4315 1219.73 32.4315 M1219.73 26.1121 Q1229.45 26.1121 1235 32.4315 Q1240.55 38.7509 1240.55 49.9314 Q1240.55 61.0714 1235 67.4314 Q1229.45 73.7508 1219.73 73.7508 Q1209.96 73.7508 1204.41 67.4314 Q1198.91 61.0714 1198.91 49.9314 Q1198.91 38.7509 1204.41 32.4315 Q1209.96 26.1121 1219.73 26.1121 Z" fill="#000000" fill-rule="nonzero" fill-opacity="1"></path><path clip-path="url(#clip840)" d="M1288.23 35.9153 Q1291.02 30.8922 1294.91 28.5022 Q1298.8 26.1121 1304.07 26.1121 Q1311.16 26.1121 1315 31.0947 Q1318.85 36.0368 1318.85 45.1919 L1318.85 72.576 L1311.36 72.576 L1311.36 45.4349 Q1311.36 38.913 1309.05 35.7533 Q1306.74 32.5936 1302 32.5936 Q1296.21 32.5936 1292.85 36.4419 Q1289.48 40.2903 1289.48 46.9338 L1289.48 72.576 L1281.99 72.576 L1281.99 45.4349 Q1281.99 38.8725 1279.68 35.7533 Q1277.37 32.5936 1272.55 32.5936 Q1266.84 32.5936 1263.48 36.4824 Q1260.11 40.3308 1260.11 46.9338 L1260.11 72.576 L1252.62 72.576 L1252.62 27.2059 L1260.11 27.2059 L1260.11 34.2544 Q1262.67 30.082 1266.23 28.0971 Q1269.8 26.1121 1274.7 26.1121 Q1279.64 26.1121 1283.08 28.6237 Q1286.57 31.1352 1288.23 35.9153 Z" fill="#000000" fill-rule="nonzero" fill-opacity="1"></path><path clip-path="url(#clip840)" d="M1359.81 9.54393 L1367.3 9.54393 L1367.3 46.7717 L1389.54 27.2059 L1399.06 27.2059 L1375 48.4326 L1400.07 72.576 L1390.35 72.576 L1367.3 50.4176 L1367.3 72.576 L1359.81 72.576 L1359.81 9.54393 Z" fill="#000000" fill-rule="nonzero" fill-opacity="1"></path><path clip-path="url(#clip840)" d="M1435.48 34.9026 L1487.41 34.9026 L1487.41 41.7081 L1435.48 41.7081 L1435.48 34.9026 M1435.48 51.4303 L1487.41 51.4303 L1487.41 58.3168 L1435.48 58.3168 L1435.48 51.4303 Z" fill="#000000" fill-rule="nonzero" fill-opacity="1"></path><path clip-path="url(#clip840)" d="M1538.49 65.6895 L1567.05 65.6895 L1567.05 72.576 L1528.65 72.576 L1528.65 65.6895 Q1533.31 60.8689 1541.33 52.7671 Q1549.39 44.6248 1551.46 42.2752 Q1555.38 37.8598 1556.92 34.8216 Q1558.5 31.7429 1558.5 28.7857 Q1558.5 23.9651 1555.1 20.927 Q1551.74 17.8888 1546.31 17.8888 Q1542.46 17.8888 1538.17 19.2256 Q1533.92 20.5624 1529.05 23.2765 L1529.05 15.0127 Q1534 13.0277 1538.29 12.015 Q1542.58 11.0023 1546.15 11.0023 Q1555.55 11.0023 1561.14 15.7013 Q1566.73 20.4004 1566.73 28.2591 Q1566.73 31.9859 1565.31 35.3482 Q1563.93 38.6699 1560.25 43.2069 Q1559.23 44.3817 1553.8 50.0125 Q1548.38 55.6027 1538.49 65.6895 Z" fill="#000000" fill-rule="nonzero" fill-opacity="1"></path><path clip-path="url(#clip840)" d="M1585.08 62.2867 L1593.63 62.2867 L1593.63 69.2543 L1586.98 82.2172 L1581.76 82.2172 L1585.08 69.2543 L1585.08 62.2867 Z" fill="#000000" fill-rule="nonzero" fill-opacity="1"></path><path clip-path="url(#clip840)" d="M1672.5 14.0809 L1672.5 22.0612 Q1667.84 19.8332 1663.71 18.7395 Q1659.57 17.6457 1655.73 17.6457 Q1649.04 17.6457 1645.4 20.2383 Q1641.79 22.8309 1641.79 27.611 Q1641.79 31.6214 1644.18 33.6873 Q1646.61 35.7128 1653.34 36.9686 L1658.28 37.9813 Q1667.43 39.7232 1671.77 44.1387 Q1676.14 48.5136 1676.14 55.8863 Q1676.14 64.6767 1670.23 69.2137 Q1664.35 73.7508 1652.97 73.7508 Q1648.68 73.7508 1643.82 72.7785 Q1639 71.8063 1633.81 69.9024 L1633.81 61.4765 Q1638.79 64.2716 1643.57 65.6895 Q1648.35 67.1073 1652.97 67.1073 Q1659.98 67.1073 1663.79 64.3527 Q1667.59 61.598 1667.59 56.4939 Q1667.59 52.0379 1664.84 49.5264 Q1662.13 47.0148 1655.89 45.759 L1650.91 44.7868 Q1641.75 42.9639 1637.66 39.075 Q1633.57 35.1862 1633.57 28.2591 Q1633.57 20.2383 1639.2 15.6203 Q1644.87 11.0023 1654.79 11.0023 Q1659.05 11.0023 1663.46 11.7719 Q1667.88 12.5416 1672.5 14.0809 Z" fill="#000000" fill-rule="nonzero" fill-opacity="1"></path><path clip-path="url(#clip840)" d="M1715.92 34.9026 L1767.85 34.9026 L1767.85 41.7081 L1715.92 41.7081 L1715.92 34.9026 M1715.92 51.4303 L1767.85 51.4303 L1767.85 58.3168 L1715.92 58.3168 L1715.92 51.4303 Z" fill="#000000" fill-rule="nonzero" fill-opacity="1"></path><path clip-path="url(#clip840)" d="M1845.43 80.2727 L1845.43 86.106 L1842.92 86.106 Q1832.83 86.106 1829.39 83.1084 Q1825.99 80.1107 1825.99 71.1582 L1825.99 61.4765 Q1825.99 55.3597 1823.8 53.0101 Q1821.61 50.6606 1815.86 50.6606 L1813.39 50.6606 L1813.39 44.8678 L1815.86 44.8678 Q1821.65 44.8678 1823.8 42.5588 Q1825.99 40.2093 1825.99 34.1734 L1825.99 24.4513 Q1825.99 15.4988 1829.39 12.5416 Q1832.83 9.54393 1842.92 9.54393 L1845.43 9.54393 L1845.43 15.3367 L1842.67 15.3367 Q1836.96 15.3367 1835.22 17.1191 Q1833.48 18.9015 1833.48 24.6133 L1833.48 34.6595 Q1833.48 41.0195 1831.62 43.8956 Q1829.79 46.7717 1825.34 47.7845 Q1829.83 48.8782 1831.66 51.7544 Q1833.48 54.6305 1833.48 60.9499 L1833.48 70.9961 Q1833.48 76.7079 1835.22 78.4903 Q1836.96 80.2727 1842.67 80.2727 L1845.43 80.2727 Z" fill="#000000" fill-rule="nonzero" fill-opacity="1"></path><path clip-path="url(#clip840)" d="M1864.91 71.3202 L1864.91 63.8666 Q1867.99 65.3249 1871.15 66.0946 Q1874.31 66.8642 1877.35 66.8642 Q1885.45 66.8642 1889.71 61.436 Q1894 55.9673 1894.61 44.8678 Q1892.26 48.3516 1888.65 50.215 Q1885.05 52.0784 1880.67 52.0784 Q1871.6 52.0784 1866.29 46.6097 Q1861.03 41.1005 1861.03 31.5808 Q1861.03 22.2638 1866.53 16.633 Q1872.04 11.0023 1881.2 11.0023 Q1891.69 11.0023 1897.2 19.0636 Q1902.75 27.0843 1902.75 42.3968 Q1902.75 56.6965 1895.94 65.2439 Q1889.18 73.7508 1877.72 73.7508 Q1874.64 73.7508 1871.48 73.1431 Q1868.32 72.5355 1864.91 71.3202 M1881.2 45.678 Q1886.71 45.678 1889.91 41.9107 Q1893.15 38.1433 1893.15 31.5808 Q1893.15 25.0589 1889.91 21.2916 Q1886.71 17.4837 1881.2 17.4837 Q1875.69 17.4837 1872.45 21.2916 Q1869.25 25.0589 1869.25 31.5808 Q1869.25 38.1433 1872.45 41.9107 Q1875.69 45.678 1881.2 45.678 Z" fill="#000000" fill-rule="nonzero" fill-opacity="1"></path><path clip-path="url(#clip840)" d="M1918.31 62.2867 L1926.85 62.2867 L1926.85 69.2543 L1920.21 82.2172 L1914.98 82.2172 L1918.31 69.2543 L1918.31 62.2867 Z" fill="#000000" fill-rule="nonzero" fill-opacity="1"></path><path clip-path="url(#clip840)" d="M1971.62 65.6895 L1984.98 65.6895 L1984.98 19.5497 L1970.44 22.4663 L1970.44 15.0127 L1984.9 12.096 L1993.09 12.096 L1993.09 65.6895 L2006.45 65.6895 L2006.45 72.576 L1971.62 72.576 L1971.62 65.6895 Z" fill="#000000" fill-rule="nonzero" fill-opacity="1"></path><path clip-path="url(#clip840)" d="M2024.4 65.6895 L2037.77 65.6895 L2037.77 19.5497 L2023.22 22.4663 L2023.22 15.0127 L2037.69 12.096 L2045.87 12.096 L2045.87 65.6895 L2059.24 65.6895 L2059.24 72.576 L2024.4 72.576 L2024.4 65.6895 Z" fill="#000000" fill-rule="nonzero" fill-opacity="1"></path><path clip-path="url(#clip840)" d="M2076.61 62.2867 L2085.16 62.2867 L2085.16 69.2543 L2078.52 82.2172 L2073.29 82.2172 L2076.61 69.2543 L2076.61 62.2867 Z" fill="#000000" fill-rule="nonzero" fill-opacity="1"></path><path clip-path="url(#clip840)" d="M2103.55 65.6895 L2116.92 65.6895 L2116.92 19.5497 L2102.38 22.4663 L2102.38 15.0127 L2116.84 12.096 L2125.02 12.096 L2125.02 65.6895 L2138.39 65.6895 L2138.39 72.576 L2103.55 72.576 L2103.55 65.6895 Z" fill="#000000" fill-rule="nonzero" fill-opacity="1"></path><path clip-path="url(#clip840)" d="M2161.97 65.6895 L2190.53 65.6895 L2190.53 72.576 L2152.12 72.576 L2152.12 65.6895 Q2156.78 60.8689 2164.8 52.7671 Q2172.86 44.6248 2174.93 42.2752 Q2178.86 37.8598 2180.4 34.8216 Q2181.98 31.7429 2181.98 28.7857 Q2181.98 23.9651 2178.58 20.927 Q2175.21 17.8888 2169.79 17.8888 Q2165.94 17.8888 2161.64 19.2256 Q2157.39 20.5624 2152.53 23.2765 L2152.53 15.0127 Q2157.47 13.0277 2161.76 12.015 Q2166.06 11.0023 2169.62 11.0023 Q2179.02 11.0023 2184.61 15.7013 Q2190.2 20.4004 2190.2 28.2591 Q2190.2 31.9859 2188.78 35.3482 Q2187.41 38.6699 2183.72 43.2069 Q2182.71 44.3817 2177.28 50.0125 Q2171.85 55.6027 2161.97 65.6895 Z" fill="#000000" fill-rule="nonzero" fill-opacity="1"></path><path clip-path="url(#clip840)" d="M2208.55 62.2867 L2217.1 62.2867 L2217.1 69.2543 L2210.46 82.2172 L2205.23 82.2172 L2208.55 69.2543 L2208.55 62.2867 Z" fill="#000000" fill-rule="nonzero" fill-opacity="1"></path><path clip-path="url(#clip840)" d="M2241.12 65.6895 L2269.68 65.6895 L2269.68 72.576 L2231.28 72.576 L2231.28 65.6895 Q2235.94 60.8689 2243.96 52.7671 Q2252.02 44.6248 2254.08 42.2752 Q2258.01 37.8598 2259.55 34.8216 Q2261.13 31.7429 2261.13 28.7857 Q2261.13 23.9651 2257.73 20.927 Q2254.37 17.8888 2248.94 17.8888 Q2245.09 17.8888 2240.8 19.2256 Q2236.54 20.5624 2231.68 23.2765 L2231.68 15.0127 Q2236.63 13.0277 2240.92 12.015 Q2245.21 11.0023 2248.78 11.0023 Q2258.18 11.0023 2263.77 15.7013 Q2269.36 20.4004 2269.36 28.2591 Q2269.36 31.9859 2267.94 35.3482 Q2266.56 38.6699 2262.88 43.2069 Q2261.86 44.3817 2256.43 50.0125 Q2251.01 55.6027 2241.12 65.6895 Z" fill="#000000" fill-rule="nonzero" fill-opacity="1"></path><path clip-path="url(#clip840)" d="M2304.36 17.4837 Q2298.04 17.4837 2294.84 23.7221 Q2291.68 29.92 2291.68 42.3968 Q2291.68 54.833 2294.84 61.0714 Q2298.04 67.2693 2304.36 67.2693 Q2310.72 67.2693 2313.88 61.0714 Q2317.08 54.833 2317.08 42.3968 Q2317.08 29.92 2313.88 23.7221 Q2310.72 17.4837 2304.36 17.4837 M2304.36 11.0023 Q2314.52 11.0023 2319.87 19.0636 Q2325.26 27.0843 2325.26 42.3968 Q2325.26 57.6687 2319.87 65.73 Q2314.52 73.7508 2304.36 73.7508 Q2294.19 73.7508 2288.8 65.73 Q2283.45 57.6687 2283.45 42.3968 Q2283.45 27.0843 2288.8 19.0636 Q2294.19 11.0023 2304.36 11.0023 Z" fill="#000000" fill-rule="nonzero" fill-opacity="1"></path><path clip-path="url(#clip840)" d="M2341.14 80.2727 L2343.97 80.2727 Q2349.65 80.2727 2351.35 78.5308 Q2353.09 76.7889 2353.09 70.9961 L2353.09 60.9499 Q2353.09 54.6305 2354.91 51.7544 Q2356.73 48.8782 2361.23 47.7845 Q2356.73 46.7717 2354.91 43.8956 Q2353.09 41.0195 2353.09 34.6595 L2353.09 24.6133 Q2353.09 18.861 2351.35 17.1191 Q2349.65 15.3367 2343.97 15.3367 L2341.14 15.3367 L2341.14 9.54393 L2343.69 9.54393 Q2353.78 9.54393 2357.14 12.5416 Q2360.54 15.4988 2360.54 24.4513 L2360.54 34.1734 Q2360.54 40.2093 2362.73 42.5588 Q2364.92 44.8678 2370.67 44.8678 L2373.18 44.8678 L2373.18 50.6606 L2370.67 50.6606 Q2364.92 50.6606 2362.73 53.0101 Q2360.54 55.3597 2360.54 61.4765 L2360.54 71.1582 Q2360.54 80.1107 2357.14 83.1084 Q2353.78 86.106 2343.69 86.106 L2341.14 86.106 L2341.14 80.2727 Z" fill="#000000" fill-rule="nonzero" fill-opacity="1"></path><path clip-path="url(#clip842)" d="M314.758 935.233 L865.826 1146.89 L1416.89 652.78 L1967.96 766.516 L2519.03 584.083 L3070.1 623.11 L3070.1 609.133 L2519.03 517.403 L1967.96 658.017 L1416.89 325.64 L865.826 539.154 L314.758 135.486  Z" fill="#7e99f4" fill-rule="evenodd" fill-opacity="0.25"></path>
<polyline clip-path="url(#clip842)" style="stroke:#7e99f4; stroke-linecap:round; stroke-linejoin:round; stroke-width:10.8; stroke-opacity:1; fill:none" points="314.758,535.36 865.826,843.024 1416.89,489.21 1967.96,712.267 2519.03,550.743 3070.1,616.122 "></polyline>
<polyline clip-path="url(#clip842)" style="stroke:#e26f46; stroke-linecap:round; stroke-linejoin:round; stroke-width:7.2; stroke-opacity:0.8; fill:none" stroke-dasharray="29, 18" points="314.758,626.384 865.826,672.152 1416.89,687.407 1967.96,668.338 2519.03,660.71 3070.1,536.757 "></polyline>
<polyline clip-path="url(#clip842)" style="stroke:#3da44d; stroke-linecap:round; stroke-linejoin:round; stroke-width:7.2; stroke-opacity:0.8; fill:none" stroke-dasharray="29, 18" points="314.758,816.853 865.826,567.38 1416.89,723.301 1967.96,621.952 2519.03,690.168 3070.1,562.507 "></polyline>
<polyline clip-path="url(#clip842)" style="stroke:#c271d2; stroke-linecap:round; stroke-linejoin:round; stroke-width:7.2; stroke-opacity:0.8; fill:none" stroke-dasharray="29, 18" points="314.758,567.894 865.826,912.807 1416.89,591.411 1967.96,740.351 2519.03,658.042 3070.1,541.438 "></polyline>
<path clip-path="url(#clip842)" d="M314.758 840.765 L865.826 509.192 L1416.89 712.413 L1967.96 785.68 L2519.03 621.839 L3070.1 633.553 L3070.1 586.875 L2519.03 555.725 L1967.96 691.936 L1416.89 391.112 L865.826 157.893 L314.758 169.237  Z" fill="#cc7c71" fill-rule="evenodd" fill-opacity="0.25"></path>
<polyline clip-path="url(#clip842)" style="stroke:#cc7c71; stroke-linecap:round; stroke-linejoin:round; stroke-width:10.8; stroke-opacity:1; fill:none" stroke-dasharray="43, 22, 5, 22" points="314.758,505.001 865.826,333.543 1416.89,551.763 1967.96,738.808 2519.03,588.782 3070.1,610.214 "></polyline>
<polyline clip-path="url(#clip842)" style="stroke:#00a9ad; stroke-linecap:round; stroke-linejoin:round; stroke-width:7.2; stroke-opacity:0.8; fill:none" stroke-dasharray="29, 18" points="314.758,380.72 865.826,722.111 1416.89,543.657 1967.96,706.593 2519.03,656.16 3070.1,608.637 "></polyline>
<polyline clip-path="url(#clip842)" style="stroke:#000000; stroke-linecap:round; stroke-linejoin:round; stroke-width:8; stroke-opacity:1; fill:none" stroke-dasharray="4, 8" points="-2688.56,601.058 6073.41,601.058 "></polyline>
<path clip-path="url(#clip840)" d="M720.13 1140.21 L3055.4 1140.21 L3055.4 1036.53 L720.13 1036.53  Z" fill="#ffffff" fill-rule="evenodd" fill-opacity="1"></path>
<polyline clip-path="url(#clip840)" style="stroke:#000000; stroke-linecap:round; stroke-linejoin:round; stroke-width:4; stroke-opacity:1; fill:none" points="720.13,1140.21 3055.4,1140.21 3055.4,1036.53 720.13,1036.53 720.13,1140.21 "></polyline>
<polyline clip-path="url(#clip840)" style="stroke:#7e99f4; stroke-linecap:round; stroke-linejoin:round; stroke-width:10.8; stroke-opacity:1; fill:none" points="752.581,1088.37 947.292,1088.37 "></polyline>
<path clip-path="url(#clip840)" d="M979.744 1071.09 L999.605 1071.09 L999.605 1075.02 L984.42 1075.02 L984.42 1085.21 L998.123 1085.21 L998.123 1089.14 L984.42 1089.14 L984.42 1105.65 L979.744 1105.65 L979.744 1071.09 Z" fill="#000000" fill-rule="nonzero" fill-opacity="1"></path><path clip-path="url(#clip840)" d="M1032.89 1073.75 L1032.89 1078.68 Q1030.53 1076.48 1027.85 1075.39 Q1025.18 1074.31 1022.17 1074.31 Q1016.25 1074.31 1013.1 1077.94 Q1009.95 1081.55 1009.95 1088.4 Q1009.95 1095.23 1013.1 1098.87 Q1016.25 1102.48 1022.17 1102.48 Q1025.18 1102.48 1027.85 1101.39 Q1030.53 1100.3 1032.89 1098.1 L1032.89 1102.99 Q1030.44 1104.65 1027.68 1105.49 Q1024.95 1106.32 1021.9 1106.32 Q1014.05 1106.32 1009.54 1101.53 Q1005.02 1096.71 1005.02 1088.4 Q1005.02 1080.07 1009.54 1075.28 Q1014.05 1070.46 1021.9 1070.46 Q1025 1070.46 1027.73 1071.3 Q1030.48 1072.11 1032.89 1073.75 Z" fill="#000000" fill-rule="nonzero" fill-opacity="1"></path><path clip-path="url(#clip840)" d="M1060.83 1072.22 L1060.83 1076.78 Q1058.17 1075.51 1055.81 1074.88 Q1053.45 1074.26 1051.25 1074.26 Q1047.43 1074.26 1045.35 1075.74 Q1043.29 1077.22 1043.29 1079.95 Q1043.29 1082.25 1044.65 1083.43 Q1046.04 1084.58 1049.88 1085.3 L1052.71 1085.88 Q1057.94 1086.87 1060.41 1089.4 Q1062.91 1091.9 1062.91 1096.11 Q1062.91 1101.13 1059.53 1103.73 Q1056.18 1106.32 1049.67 1106.32 Q1047.22 1106.32 1044.44 1105.76 Q1041.69 1105.21 1038.72 1104.12 L1038.72 1099.31 Q1041.57 1100.9 1044.3 1101.71 Q1047.04 1102.52 1049.67 1102.52 Q1053.68 1102.52 1055.85 1100.95 Q1058.03 1099.37 1058.03 1096.46 Q1058.03 1093.91 1056.46 1092.48 Q1054.91 1091.04 1051.34 1090.32 L1048.49 1089.77 Q1043.26 1088.73 1040.92 1086.5 Q1038.59 1084.28 1038.59 1080.32 Q1038.59 1075.74 1041.8 1073.1 Q1045.04 1070.46 1050.72 1070.46 Q1053.15 1070.46 1055.67 1070.9 Q1058.19 1071.34 1060.83 1072.22 Z" fill="#000000" fill-rule="nonzero" fill-opacity="1"></path><polyline clip-path="url(#clip840)" style="stroke:#e26f46; stroke-linecap:round; stroke-linejoin:round; stroke-width:7.2; stroke-opacity:0.8; fill:none" stroke-dasharray="29, 18" points="1136.38,1088.37 1331.1,1088.37 "></polyline>
<path clip-path="url(#clip840)" d="M1382.46 1083.66 L1382.46 1069.63 L1386.72 1069.63 L1386.72 1105.65 L1382.46 1105.65 L1382.46 1101.76 Q1381.12 1104.07 1379.06 1105.21 Q1377.02 1106.32 1374.15 1106.32 Q1369.45 1106.32 1366.49 1102.57 Q1363.55 1098.82 1363.55 1092.71 Q1363.55 1086.6 1366.49 1082.85 Q1369.45 1079.1 1374.15 1079.1 Q1377.02 1079.1 1379.06 1080.23 Q1381.12 1081.34 1382.46 1083.66 M1367.95 1092.71 Q1367.95 1097.41 1369.87 1100.09 Q1371.81 1102.75 1375.19 1102.75 Q1378.57 1102.75 1380.51 1100.09 Q1382.46 1097.41 1382.46 1092.71 Q1382.46 1088.01 1380.51 1085.35 Q1378.57 1082.66 1375.19 1082.66 Q1371.81 1082.66 1369.87 1085.35 Q1367.95 1088.01 1367.95 1092.71 Z" fill="#000000" fill-rule="nonzero" fill-opacity="1"></path><path clip-path="url(#clip840)" d="M1396.05 1084.12 L1425.72 1084.12 L1425.72 1088.01 L1396.05 1088.01 L1396.05 1084.12 M1396.05 1093.56 L1425.72 1093.56 L1425.72 1097.5 L1396.05 1097.5 L1396.05 1093.56 Z" fill="#000000" fill-rule="nonzero" fill-opacity="1"></path><path clip-path="url(#clip840)" d="M1435.86 1071.09 L1454.22 1071.09 L1454.22 1075.02 L1440.14 1075.02 L1440.14 1083.5 Q1441.16 1083.15 1442.18 1082.99 Q1443.2 1082.8 1444.22 1082.8 Q1450 1082.8 1453.38 1085.97 Q1456.76 1089.14 1456.76 1094.56 Q1456.76 1100.14 1453.29 1103.24 Q1449.82 1106.32 1443.5 1106.32 Q1441.32 1106.32 1439.06 1105.95 Q1436.81 1105.58 1434.4 1104.84 L1434.4 1100.14 Q1436.49 1101.27 1438.71 1101.83 Q1440.93 1102.38 1443.41 1102.38 Q1447.41 1102.38 1449.75 1100.28 Q1452.09 1098.17 1452.09 1094.56 Q1452.09 1090.95 1449.75 1088.84 Q1447.41 1086.74 1443.41 1086.74 Q1441.53 1086.74 1439.66 1087.15 Q1437.81 1087.57 1435.86 1088.45 L1435.86 1071.09 Z" fill="#000000" fill-rule="nonzero" fill-opacity="1"></path><polyline clip-path="url(#clip840)" style="stroke:#3da44d; stroke-linecap:round; stroke-linejoin:round; stroke-width:7.2; stroke-opacity:0.8; fill:none" stroke-dasharray="29, 18" points="1520.19,1088.37 1714.9,1088.37 "></polyline>
<path clip-path="url(#clip840)" d="M1766.26 1083.66 L1766.26 1069.63 L1770.52 1069.63 L1770.52 1105.65 L1766.26 1105.65 L1766.26 1101.76 Q1764.92 1104.07 1762.86 1105.21 Q1760.82 1106.32 1757.95 1106.32 Q1753.25 1106.32 1750.29 1102.57 Q1747.35 1098.82 1747.35 1092.71 Q1747.35 1086.6 1750.29 1082.85 Q1753.25 1079.1 1757.95 1079.1 Q1760.82 1079.1 1762.86 1080.23 Q1764.92 1081.34 1766.26 1083.66 M1751.75 1092.71 Q1751.75 1097.41 1753.67 1100.09 Q1755.61 1102.75 1758.99 1102.75 Q1762.37 1102.75 1764.32 1100.09 Q1766.26 1097.41 1766.26 1092.71 Q1766.26 1088.01 1764.32 1085.35 Q1762.37 1082.66 1758.99 1082.66 Q1755.61 1082.66 1753.67 1085.35 Q1751.75 1088.01 1751.75 1092.71 Z" fill="#000000" fill-rule="nonzero" fill-opacity="1"></path><path clip-path="url(#clip840)" d="M1779.85 1084.12 L1809.53 1084.12 L1809.53 1088.01 L1779.85 1088.01 L1779.85 1084.12 M1779.85 1093.56 L1809.53 1093.56 L1809.53 1097.5 L1779.85 1097.5 L1779.85 1093.56 Z" fill="#000000" fill-rule="nonzero" fill-opacity="1"></path><path clip-path="url(#clip840)" d="M1819.76 1104.93 L1819.76 1100.67 Q1821.52 1101.5 1823.32 1101.94 Q1825.13 1102.38 1826.86 1102.38 Q1831.49 1102.38 1833.92 1099.28 Q1836.38 1096.16 1836.72 1089.81 Q1835.38 1091.81 1833.32 1092.87 Q1831.26 1093.93 1828.76 1093.93 Q1823.58 1093.93 1820.54 1090.81 Q1817.53 1087.66 1817.53 1082.22 Q1817.53 1076.9 1820.68 1073.68 Q1823.83 1070.46 1829.06 1070.46 Q1835.06 1070.46 1838.21 1075.07 Q1841.38 1079.65 1841.38 1088.4 Q1841.38 1096.57 1837.49 1101.46 Q1833.62 1106.32 1827.07 1106.32 Q1825.31 1106.32 1823.51 1105.97 Q1821.7 1105.62 1819.76 1104.93 M1829.06 1090.28 Q1832.21 1090.28 1834.04 1088.12 Q1835.89 1085.97 1835.89 1082.22 Q1835.89 1078.5 1834.04 1076.34 Q1832.21 1074.17 1829.06 1074.17 Q1825.91 1074.17 1824.06 1076.34 Q1822.23 1078.5 1822.23 1082.22 Q1822.23 1085.97 1824.06 1088.12 Q1825.91 1090.28 1829.06 1090.28 Z" fill="#000000" fill-rule="nonzero" fill-opacity="1"></path><polyline clip-path="url(#clip840)" style="stroke:#c271d2; stroke-linecap:round; stroke-linejoin:round; stroke-width:7.2; stroke-opacity:0.8; fill:none" stroke-dasharray="29, 18" points="1903.99,1088.37 2098.7,1088.37 "></polyline>
<path clip-path="url(#clip840)" d="M2150.07 1083.66 L2150.07 1069.63 L2154.32 1069.63 L2154.32 1105.65 L2150.07 1105.65 L2150.07 1101.76 Q2148.72 1104.07 2146.66 1105.21 Q2144.63 1106.32 2141.76 1106.32 Q2137.06 1106.32 2134.09 1102.57 Q2131.15 1098.82 2131.15 1092.71 Q2131.15 1086.6 2134.09 1082.85 Q2137.06 1079.1 2141.76 1079.1 Q2144.63 1079.1 2146.66 1080.23 Q2148.72 1081.34 2150.07 1083.66 M2135.55 1092.71 Q2135.55 1097.41 2137.47 1100.09 Q2139.42 1102.75 2142.8 1102.75 Q2146.18 1102.75 2148.12 1100.09 Q2150.07 1097.41 2150.07 1092.71 Q2150.07 1088.01 2148.12 1085.35 Q2146.18 1082.66 2142.8 1082.66 Q2139.42 1082.66 2137.47 1085.35 Q2135.55 1088.01 2135.55 1092.71 Z" fill="#000000" fill-rule="nonzero" fill-opacity="1"></path><path clip-path="url(#clip840)" d="M2163.65 1084.12 L2193.33 1084.12 L2193.33 1088.01 L2163.65 1088.01 L2163.65 1084.12 M2163.65 1093.56 L2193.33 1093.56 L2193.33 1097.5 L2163.65 1097.5 L2163.65 1093.56 Z" fill="#000000" fill-rule="nonzero" fill-opacity="1"></path><path clip-path="url(#clip840)" d="M2204.23 1101.71 L2211.87 1101.71 L2211.87 1075.35 L2203.56 1077.01 L2203.56 1072.75 L2211.82 1071.09 L2216.5 1071.09 L2216.5 1101.71 L2224.14 1101.71 L2224.14 1105.65 L2204.23 1105.65 L2204.23 1101.71 Z" fill="#000000" fill-rule="nonzero" fill-opacity="1"></path><path clip-path="url(#clip840)" d="M2233.63 1071.09 L2251.99 1071.09 L2251.99 1075.02 L2237.91 1075.02 L2237.91 1083.5 Q2238.93 1083.15 2239.95 1082.99 Q2240.97 1082.8 2241.99 1082.8 Q2247.77 1082.8 2251.15 1085.97 Q2254.53 1089.14 2254.53 1094.56 Q2254.53 1100.14 2251.06 1103.24 Q2247.59 1106.32 2241.27 1106.32 Q2239.09 1106.32 2236.82 1105.95 Q2234.58 1105.58 2232.17 1104.84 L2232.17 1100.14 Q2234.25 1101.27 2236.48 1101.83 Q2238.7 1102.38 2241.18 1102.38 Q2245.18 1102.38 2247.52 1100.28 Q2249.86 1098.17 2249.86 1094.56 Q2249.86 1090.95 2247.52 1088.84 Q2245.18 1086.74 2241.18 1086.74 Q2239.3 1086.74 2237.43 1087.15 Q2235.57 1087.57 2233.63 1088.45 L2233.63 1071.09 Z" fill="#000000" fill-rule="nonzero" fill-opacity="1"></path><polyline clip-path="url(#clip840)" style="stroke:#cc7c71; stroke-linecap:round; stroke-linejoin:round; stroke-width:10.8; stroke-opacity:1; fill:none" stroke-dasharray="43, 22, 5, 22" points="2287.79,1088.37 2482.5,1088.37 "></polyline>
<path clip-path="url(#clip840)" d="M2533.87 1083.66 L2533.87 1069.63 L2538.13 1069.63 L2538.13 1105.65 L2533.87 1105.65 L2533.87 1101.76 Q2532.53 1104.07 2530.47 1105.21 Q2528.43 1106.32 2525.56 1106.32 Q2520.86 1106.32 2517.9 1102.57 Q2514.96 1098.82 2514.96 1092.71 Q2514.96 1086.6 2517.9 1082.85 Q2520.86 1079.1 2525.56 1079.1 Q2528.43 1079.1 2530.47 1080.23 Q2532.53 1081.34 2533.87 1083.66 M2519.35 1092.71 Q2519.35 1097.41 2521.28 1100.09 Q2523.22 1102.75 2526.6 1102.75 Q2529.98 1102.75 2531.92 1100.09 Q2533.87 1097.41 2533.87 1092.71 Q2533.87 1088.01 2531.92 1085.35 Q2529.98 1082.66 2526.6 1082.66 Q2523.22 1082.66 2521.28 1085.35 Q2519.35 1088.01 2519.35 1092.71 Z" fill="#000000" fill-rule="nonzero" fill-opacity="1"></path><path clip-path="url(#clip840)" d="M2547.46 1084.12 L2577.13 1084.12 L2577.13 1088.01 L2547.46 1088.01 L2547.46 1084.12 M2547.46 1093.56 L2577.13 1093.56 L2577.13 1097.5 L2547.46 1097.5 L2547.46 1093.56 Z" fill="#000000" fill-rule="nonzero" fill-opacity="1"></path><path clip-path="url(#clip840)" d="M2588.03 1101.71 L2595.67 1101.71 L2595.67 1075.35 L2587.36 1077.01 L2587.36 1072.75 L2595.63 1071.09 L2600.3 1071.09 L2600.3 1101.71 L2607.94 1101.71 L2607.94 1105.65 L2588.03 1105.65 L2588.03 1101.71 Z" fill="#000000" fill-rule="nonzero" fill-opacity="1"></path><path clip-path="url(#clip840)" d="M2617.53 1104.93 L2617.53 1100.67 Q2619.28 1101.5 2621.09 1101.94 Q2622.9 1102.38 2624.63 1102.38 Q2629.26 1102.38 2631.69 1099.28 Q2634.15 1096.16 2634.49 1089.81 Q2633.15 1091.81 2631.09 1092.87 Q2629.03 1093.93 2626.53 1093.93 Q2621.34 1093.93 2618.31 1090.81 Q2615.3 1087.66 2615.3 1082.22 Q2615.3 1076.9 2618.45 1073.68 Q2621.6 1070.46 2626.83 1070.46 Q2632.83 1070.46 2635.97 1075.07 Q2639.15 1079.65 2639.15 1088.4 Q2639.15 1096.57 2635.26 1101.46 Q2631.39 1106.32 2624.84 1106.32 Q2623.08 1106.32 2621.28 1105.97 Q2619.47 1105.62 2617.53 1104.93 M2626.83 1090.28 Q2629.98 1090.28 2631.81 1088.12 Q2633.66 1085.97 2633.66 1082.22 Q2633.66 1078.5 2631.81 1076.34 Q2629.98 1074.17 2626.83 1074.17 Q2623.68 1074.17 2621.83 1076.34 Q2620 1078.5 2620 1082.22 Q2620 1085.97 2621.83 1088.12 Q2623.68 1090.28 2626.83 1090.28 Z" fill="#000000" fill-rule="nonzero" fill-opacity="1"></path><polyline clip-path="url(#clip840)" style="stroke:#00a9ad; stroke-linecap:round; stroke-linejoin:round; stroke-width:7.2; stroke-opacity:0.8; fill:none" stroke-dasharray="29, 18" points="2671.6,1088.37 2866.31,1088.37 "></polyline>
<path clip-path="url(#clip840)" d="M2917.67 1083.66 L2917.67 1069.63 L2921.93 1069.63 L2921.93 1105.65 L2917.67 1105.65 L2917.67 1101.76 Q2916.33 1104.07 2914.27 1105.21 Q2912.23 1106.32 2909.36 1106.32 Q2904.66 1106.32 2901.7 1102.57 Q2898.76 1098.82 2898.76 1092.71 Q2898.76 1086.6 2901.7 1082.85 Q2904.66 1079.1 2909.36 1079.1 Q2912.23 1079.1 2914.27 1080.23 Q2916.33 1081.34 2917.67 1083.66 M2903.16 1092.71 Q2903.16 1097.41 2905.08 1100.09 Q2907.02 1102.75 2910.4 1102.75 Q2913.78 1102.75 2915.73 1100.09 Q2917.67 1097.41 2917.67 1092.71 Q2917.67 1088.01 2915.73 1085.35 Q2913.78 1082.66 2910.4 1082.66 Q2907.02 1082.66 2905.08 1085.35 Q2903.16 1088.01 2903.16 1092.71 Z" fill="#000000" fill-rule="nonzero" fill-opacity="1"></path><path clip-path="url(#clip840)" d="M2931.26 1084.12 L2960.94 1084.12 L2960.94 1088.01 L2931.26 1088.01 L2931.26 1084.12 M2931.26 1093.56 L2960.94 1093.56 L2960.94 1097.5 L2931.26 1097.5 L2931.26 1093.56 Z" fill="#000000" fill-rule="nonzero" fill-opacity="1"></path><path clip-path="url(#clip840)" d="M2975.06 1101.71 L2991.37 1101.71 L2991.37 1105.65 L2969.43 1105.65 L2969.43 1101.71 Q2972.09 1098.96 2976.68 1094.33 Q2981.28 1089.68 2982.46 1088.33 Q2984.71 1085.81 2985.59 1084.07 Q2986.49 1082.31 2986.49 1080.62 Q2986.49 1077.87 2984.55 1076.13 Q2982.63 1074.4 2979.52 1074.4 Q2977.32 1074.4 2974.87 1075.16 Q2972.44 1075.93 2969.66 1077.48 L2969.66 1072.75 Q2972.49 1071.62 2974.94 1071.04 Q2977.39 1070.46 2979.43 1070.46 Q2984.8 1070.46 2988 1073.15 Q2991.19 1075.83 2991.19 1080.32 Q2991.19 1082.45 2990.38 1084.37 Q2989.59 1086.27 2987.49 1088.87 Q2986.91 1089.54 2983.81 1092.75 Q2980.7 1095.95 2975.06 1101.71 Z" fill="#000000" fill-rule="nonzero" fill-opacity="1"></path><path clip-path="url(#clip840)" d="M3015.36 1087.01 Q3018.71 1087.73 3020.59 1090 Q3022.49 1092.27 3022.49 1095.6 Q3022.49 1100.72 3018.97 1103.52 Q3015.45 1106.32 3008.97 1106.32 Q3006.79 1106.32 3004.48 1105.88 Q3002.19 1105.46 2999.73 1104.61 L2999.73 1100.09 Q3001.68 1101.23 3003.99 1101.81 Q3006.31 1102.38 3008.83 1102.38 Q3013.23 1102.38 3015.52 1100.65 Q3017.83 1098.91 3017.83 1095.6 Q3017.83 1092.55 3015.68 1090.83 Q3013.55 1089.1 3009.73 1089.1 L3005.7 1089.1 L3005.7 1085.25 L3009.92 1085.25 Q3013.37 1085.25 3015.19 1083.89 Q3017.02 1082.5 3017.02 1079.91 Q3017.02 1077.25 3015.12 1075.83 Q3013.25 1074.4 3009.73 1074.4 Q3007.81 1074.4 3005.61 1074.81 Q3003.41 1075.23 3000.77 1076.11 L3000.77 1071.94 Q3003.44 1071.2 3005.75 1070.83 Q3008.09 1070.46 3010.15 1070.46 Q3015.47 1070.46 3018.57 1072.89 Q3021.68 1075.3 3021.68 1079.42 Q3021.68 1082.29 3020.03 1084.28 Q3018.39 1086.25 3015.36 1087.01 Z" fill="#000000" fill-rule="nonzero" fill-opacity="1"></path></svg>