<svg xmlns="http://www.w3.org/2000/svg" xmlns:xlink="http://www.w3.org/1999/xlink" width="800" height="320" viewBox="0 0 3200 1280">
<defs>
  <clipPath id="clip680">
    <rect x="0" y="0" width="3200" height="1280"></rect>
  </clipPath>
</defs>
<path clip-path="url(#clip680)" d="M0 1280 L3200 1280 L3200 0 L0 0  Z" fill="#ffffff" fill-rule="evenodd" fill-opacity="1"></path>
<defs>
  <clipPath id="clip681">
    <rect x="640" y="0" width="2241" height="1280"></rect>
  </clipPath>
</defs>
<path clip-path="url(#clip680)" d="M292.422 1176.1 L3152.76 1176.1 L3152.76 99.2801 L292.422 99.2801  Z" fill="#ffffff" fill-rule="evenodd" fill-opacity="1"></path>
<defs>
  <clipPath id="clip682">
    <rect x="292" y="99" width="2861" height="1078"></rect>
  </clipPath>
</defs>
<polyline clip-path="url(#clip682)" style="stroke:#000000; stroke-linecap:round; stroke-linejoin:round; stroke-width:2; stroke-opacity:0.1; fill:none" points="373.374,1176.1 373.374,99.2801 "></polyline>
<polyline clip-path="url(#clip682)" style="stroke:#000000; stroke-linecap:round; stroke-linejoin:round; stroke-width:2; stroke-opacity:0.1; fill:none" points="913.06,1176.1 913.06,99.2801 "></polyline>
<polyline clip-path="url(#clip682)" style="stroke:#000000; stroke-linecap:round; stroke-linejoin:round; stroke-width:2; stroke-opacity:0.1; fill:none" points="1452.75,1176.1 1452.75,99.2801 "></polyline>
<polyline clip-path="url(#clip682)" style="stroke:#000000; stroke-linecap:round; stroke-linejoin:round; stroke-width:2; stroke-opacity:0.1; fill:none" points="1992.43,1176.1 1992.43,99.2801 "></polyline>
<polyline clip-path="url(#clip682)" style="stroke:#000000; stroke-linecap:round; stroke-linejoin:round; stroke-width:2; stroke-opacity:0.1; fill:none" points="2532.12,1176.1 2532.12,99.2801 "></polyline>
<polyline clip-path="url(#clip682)" style="stroke:#000000; stroke-linecap:round; stroke-linejoin:round; stroke-width:2; stroke-opacity:0.1; fill:none" points="3071.8,1176.1 3071.8,99.2801 "></polyline>
<polyline clip-path="url(#clip682)" style="stroke:#000000; stroke-linecap:round; stroke-linejoin:round; stroke-width:2; stroke-opacity:0.1; fill:none" points="292.422,1176.1 3152.76,1176.1 "></polyline>
<polyline clip-path="url(#clip682)" style="stroke:#000000; stroke-linecap:round; stroke-linejoin:round; stroke-width:2; stroke-opacity:0.1; fill:none" points="292.422,983.812 3152.76,983.812 "></polyline>
<polyline clip-path="url(#clip682)" style="stroke:#000000; stroke-linecap:round; stroke-linejoin:round; stroke-width:2; stroke-opacity:0.1; fill:none" points="292.422,791.523 3152.76,791.523 "></polyline>
<polyline clip-path="url(#clip682)" style="stroke:#000000; stroke-linecap:round; stroke-linejoin:round; stroke-width:2; stroke-opacity:0.1; fill:none" points="292.422,599.233 3152.76,599.233 "></polyline>
<polyline clip-path="url(#clip682)" style="stroke:#000000; stroke-linecap:round; stroke-linejoin:round; stroke-width:2; stroke-opacity:0.1; fill:none" points="292.422,406.944 3152.76,406.944 "></polyline>
<polyline clip-path="url(#clip682)" style="stroke:#000000; stroke-linecap:round; stroke-linejoin:round; stroke-width:2; stroke-opacity:0.1; fill:none" points="292.422,214.654 3152.76,214.654 "></polyline>
<polyline clip-path="url(#clip680)" style="stroke:#000000; stroke-linecap:round; stroke-linejoin:round; stroke-width:4; stroke-opacity:1; fill:none" points="292.422,1176.1 3152.76,1176.1 "></polyline>
<polyline clip-path="url(#clip680)" style="stroke:#000000; stroke-linecap:round; stroke-linejoin:round; stroke-width:4; stroke-opacity:1; fill:none" points="373.374,1176.1 373.374,1157.2 "></polyline>
<polyline clip-path="url(#clip680)" style="stroke:#000000; stroke-linecap:round; stroke-linejoin:round; stroke-width:4; stroke-opacity:1; fill:none" points="913.06,1176.1 913.06,1157.2 "></polyline>
<polyline clip-path="url(#clip680)" style="stroke:#000000; stroke-linecap:round; stroke-linejoin:round; stroke-width:4; stroke-opacity:1; fill:none" points="1452.75,1176.1 1452.75,1157.2 "></polyline>
<polyline clip-path="url(#clip680)" style="stroke:#000000; stroke-linecap:round; stroke-linejoin:round; stroke-width:4; stroke-opacity:1; fill:none" points="1992.43,1176.1 1992.43,1157.2 "></polyline>
<polyline clip-path="url(#clip680)" style="stroke:#000000; stroke-linecap:round; stroke-linejoin:round; stroke-width:4; stroke-opacity:1; fill:none" points="2532.12,1176.1 2532.12,1157.2 "></polyline>
<polyline clip-path="url(#clip680)" style="stroke:#000000; stroke-linecap:round; stroke-linejoin:round; stroke-width:4; stroke-opacity:1; fill:none" points="3071.8,1176.1 3071.8,1157.2 "></polyline>
<path clip-path="url(#clip680)" d="M346.916 1256.63 L363.235 1256.63 L363.235 1260.56 L341.291 1260.56 L341.291 1256.63 Q343.953 1253.87 348.536 1249.24 Q353.142 1244.59 354.323 1243.25 Q356.568 1240.72 357.448 1238.99 Q358.351 1237.23 358.351 1235.54 Q358.351 1232.78 356.406 1231.05 Q354.485 1229.31 351.383 1229.31 Q349.184 1229.31 346.73 1230.08 Q344.3 1230.84 341.522 1232.39 L341.522 1227.67 Q344.346 1226.53 346.8 1225.96 Q349.254 1225.38 351.291 1225.38 Q356.661 1225.38 359.855 1228.06 Q363.05 1230.75 363.05 1235.24 Q363.05 1237.37 362.24 1239.29 Q361.453 1241.19 359.346 1243.78 Q358.767 1244.45 355.666 1247.67 Q352.564 1250.86 346.916 1256.63 Z" fill="#000000" fill-rule="nonzero" fill-opacity="1"></path><path clip-path="url(#clip680)" d="M363.78 1229.95 L369.987 1229.95 L369.987 1208.53 L363.235 1209.89 L363.235 1206.43 L369.949 1205.07 L373.748 1205.07 L373.748 1229.95 L379.955 1229.95 L379.955 1233.15 L363.78 1233.15 L363.78 1229.95 Z" fill="#000000" fill-rule="nonzero" fill-opacity="1"></path><path clip-path="url(#clip680)" d="M395.754 1207.57 Q392.82 1207.57 391.334 1210.47 Q389.867 1213.35 389.867 1219.14 Q389.867 1224.91 391.334 1227.81 Q392.82 1230.69 395.754 1230.69 Q398.706 1230.69 400.173 1227.81 Q401.659 1224.91 401.659 1219.14 Q401.659 1213.35 400.173 1210.47 Q398.706 1207.57 395.754 1207.57 M395.754 1204.56 Q400.474 1204.56 402.957 1208.31 Q405.458 1212.03 405.458 1219.14 Q405.458 1226.23 402.957 1229.97 Q400.474 1233.7 395.754 1233.7 Q391.033 1233.7 388.531 1229.97 Q386.049 1226.23 386.049 1219.14 Q386.049 1212.03 388.531 1208.31 Q391.033 1204.56 395.754 1204.56 Z" fill="#000000" fill-rule="nonzero" fill-opacity="1"></path><path clip-path="url(#clip680)" d="M887.1 1256.63 L903.419 1256.63 L903.419 1260.56 L881.475 1260.56 L881.475 1256.63 Q884.137 1253.87 888.72 1249.24 Q893.327 1244.59 894.507 1243.25 Q896.752 1240.72 897.632 1238.99 Q898.535 1237.23 898.535 1235.54 Q898.535 1232.78 896.59 1231.05 Q894.669 1229.31 891.567 1229.31 Q889.368 1229.31 886.915 1230.08 Q884.484 1230.84 881.706 1232.39 L881.706 1227.67 Q884.53 1226.53 886.984 1225.96 Q889.438 1225.38 891.475 1225.38 Q896.845 1225.38 900.039 1228.06 Q903.234 1230.75 903.234 1235.24 Q903.234 1237.37 902.424 1239.29 Q901.637 1241.19 899.53 1243.78 Q898.951 1244.45 895.85 1247.67 Q892.748 1250.86 887.1 1256.63 Z" fill="#000000" fill-rule="nonzero" fill-opacity="1"></path><path clip-path="url(#clip680)" d="M903.964 1229.95 L910.171 1229.95 L910.171 1208.53 L903.419 1209.89 L903.419 1206.43 L910.133 1205.07 L913.933 1205.07 L913.933 1229.95 L920.139 1229.95 L920.139 1233.15 L903.964 1233.15 L903.964 1229.95 Z" fill="#000000" fill-rule="nonzero" fill-opacity="1"></path><path clip-path="url(#clip680)" d="M928.471 1229.95 L934.678 1229.95 L934.678 1208.53 L927.926 1209.89 L927.926 1206.43 L934.64 1205.07 L938.439 1205.07 L938.439 1229.95 L944.646 1229.95 L944.646 1233.15 L928.471 1233.15 L928.471 1229.95 Z" fill="#000000" fill-rule="nonzero" fill-opacity="1"></path><path clip-path="url(#clip680)" d="M1426.94 1256.63 L1443.26 1256.63 L1443.26 1260.56 L1421.31 1260.56 L1421.31 1256.63 Q1423.97 1253.87 1428.56 1249.24 Q1433.16 1244.59 1434.34 1243.25 Q1436.59 1240.72 1437.47 1238.99 Q1438.37 1237.23 1438.37 1235.54 Q1438.37 1232.78 1436.43 1231.05 Q1434.51 1229.31 1431.4 1229.31 Q1429.2 1229.31 1426.75 1230.08 Q1424.32 1230.84 1421.54 1232.39 L1421.54 1227.67 Q1424.37 1226.53 1426.82 1225.96 Q1429.27 1225.38 1431.31 1225.38 Q1436.68 1225.38 1439.88 1228.06 Q1443.07 1230.75 1443.07 1235.24 Q1443.07 1237.37 1442.26 1239.29 Q1441.47 1241.19 1439.37 1243.78 Q1438.79 1244.45 1435.69 1247.67 Q1432.58 1250.86 1426.94 1256.63 Z" fill="#000000" fill-rule="nonzero" fill-opacity="1"></path><path clip-path="url(#clip680)" d="M1443.8 1229.95 L1450.01 1229.95 L1450.01 1208.53 L1443.26 1209.89 L1443.26 1206.43 L1449.97 1205.07 L1453.77 1205.07 L1453.77 1229.95 L1459.98 1229.95 L1459.98 1233.15 L1443.8 1233.15 L1443.8 1229.95 Z" fill="#000000" fill-rule="nonzero" fill-opacity="1"></path><path clip-path="url(#clip680)" d="M1470.92 1229.95 L1484.18 1229.95 L1484.18 1233.15 L1466.35 1233.15 L1466.35 1229.95 Q1468.51 1227.72 1472.24 1223.95 Q1475.98 1220.17 1476.94 1219.08 Q1478.76 1217.03 1479.48 1215.62 Q1480.21 1214.19 1480.21 1212.82 Q1480.21 1210.58 1478.63 1209.17 Q1477.07 1207.76 1474.55 1207.76 Q1472.76 1207.76 1470.77 1208.38 Q1468.8 1209 1466.54 1210.26 L1466.54 1206.43 Q1468.83 1205.5 1470.83 1205.03 Q1472.82 1204.56 1474.48 1204.56 Q1478.84 1204.56 1481.43 1206.75 Q1484.03 1208.93 1484.03 1212.58 Q1484.03 1214.31 1483.37 1215.87 Q1482.73 1217.41 1481.02 1219.52 Q1480.55 1220.06 1478.03 1222.68 Q1475.51 1225.27 1470.92 1229.95 Z" fill="#000000" fill-rule="nonzero" fill-opacity="1"></path><path clip-path="url(#clip680)" d="M1966.24 1256.63 L1982.56 1256.63 L1982.56 1260.56 L1960.61 1260.56 L1960.61 1256.63 Q1963.27 1253.87 1967.86 1249.24 Q1972.46 1244.59 1973.64 1243.25 Q1975.89 1240.72 1976.77 1238.99 Q1977.67 1237.23 1977.67 1235.54 Q1977.67 1232.78 1975.73 1231.05 Q1973.81 1229.31 1970.7 1229.31 Q1968.5 1229.31 1966.05 1230.08 Q1963.62 1230.84 1960.84 1232.39 L1960.84 1227.67 Q1963.67 1226.53 1966.12 1225.96 Q1968.57 1225.38 1970.61 1225.38 Q1975.98 1225.38 1979.18 1228.06 Q1982.37 1230.75 1982.37 1235.24 Q1982.37 1237.37 1981.56 1239.29 Q1980.77 1241.19 1978.67 1243.78 Q1978.09 1244.45 1974.99 1247.67 Q1971.88 1250.86 1966.24 1256.63 Z" fill="#000000" fill-rule="nonzero" fill-opacity="1"></path><path clip-path="url(#clip680)" d="M1983.1 1229.95 L1989.31 1229.95 L1989.31 1208.53 L1982.56 1209.89 L1982.56 1206.43 L1989.27 1205.07 L1993.07 1205.07 L1993.07 1229.95 L1999.28 1229.95 L1999.28 1233.15 L1983.1 1233.15 L1983.1 1229.95 Z" fill="#000000" fill-rule="nonzero" fill-opacity="1"></path><path clip-path="url(#clip680)" d="M2018.46 1218.01 Q2021.19 1218.59 2022.71 1220.44 Q2024.25 1222.28 2024.25 1224.99 Q2024.25 1229.15 2021.39 1231.42 Q2018.53 1233.7 2013.27 1233.7 Q2011.5 1233.7 2009.62 1233.34 Q2007.76 1233 2005.76 1232.31 L2005.76 1228.64 Q2007.34 1229.56 2009.22 1230.03 Q2011.11 1230.5 2013.16 1230.5 Q2016.73 1230.5 2018.59 1229.09 Q2020.47 1227.68 2020.47 1224.99 Q2020.47 1222.51 2018.72 1221.11 Q2016.99 1219.7 2013.89 1219.7 L2010.62 1219.7 L2010.62 1216.58 L2014.04 1216.58 Q2016.84 1216.58 2018.33 1215.47 Q2019.81 1214.34 2019.81 1212.24 Q2019.81 1210.07 2018.27 1208.93 Q2016.75 1207.76 2013.89 1207.76 Q2012.33 1207.76 2010.54 1208.1 Q2008.75 1208.44 2006.61 1209.15 L2006.61 1205.77 Q2008.77 1205.17 2010.65 1204.86 Q2012.55 1204.56 2014.23 1204.56 Q2018.55 1204.56 2021.07 1206.54 Q2023.59 1208.49 2023.59 1211.84 Q2023.59 1214.17 2022.26 1215.79 Q2020.92 1217.39 2018.46 1218.01 Z" fill="#000000" fill-rule="nonzero" fill-opacity="1"></path><path clip-path="url(#clip680)" d="M2505.46 1256.63 L2521.78 1256.63 L2521.78 1260.56 L2499.84 1260.56 L2499.84 1256.63 Q2502.5 1253.87 2507.08 1249.24 Q2511.69 1244.59 2512.87 1243.25 Q2515.11 1240.72 2515.99 1238.99 Q2516.9 1237.23 2516.9 1235.54 Q2516.9 1232.78 2514.95 1231.05 Q2513.03 1229.31 2509.93 1229.31 Q2507.73 1229.31 2505.28 1230.08 Q2502.85 1230.84 2500.07 1232.39 L2500.07 1227.67 Q2502.89 1226.53 2505.35 1225.96 Q2507.8 1225.38 2509.84 1225.38 Q2515.21 1225.38 2518.4 1228.06 Q2521.6 1230.75 2521.6 1235.24 Q2521.6 1237.37 2520.78 1239.29 Q2520 1241.19 2517.89 1243.78 Q2517.31 1244.45 2514.21 1247.67 Q2511.11 1250.86 2505.46 1256.63 Z" fill="#000000" fill-rule="nonzero" fill-opacity="1"></path><path clip-path="url(#clip680)" d="M2522.33 1229.95 L2528.53 1229.95 L2528.53 1208.53 L2521.78 1209.89 L2521.78 1206.43 L2528.49 1205.07 L2532.29 1205.07 L2532.29 1229.95 L2538.5 1229.95 L2538.5 1233.15 L2522.33 1233.15 L2522.33 1229.95 Z" fill="#000000" fill-rule="nonzero" fill-opacity="1"></path><path clip-path="url(#clip680)" d="M2556.61 1208.38 L2547.02 1223.37 L2556.61 1223.37 L2556.61 1208.38 M2555.62 1205.07 L2560.39 1205.07 L2560.39 1223.37 L2564.4 1223.37 L2564.4 1226.53 L2560.39 1226.53 L2560.39 1233.15 L2556.61 1233.15 L2556.61 1226.53 L2543.94 1226.53 L2543.94 1222.86 L2555.62 1205.07 Z" fill="#000000" fill-rule="nonzero" fill-opacity="1"></path><path clip-path="url(#clip680)" d="M3045.75 1256.63 L3062.07 1256.63 L3062.07 1260.56 L3040.12 1260.56 L3040.12 1256.63 Q3042.79 1253.87 3047.37 1249.24 Q3051.98 1244.59 3053.16 1243.25 Q3055.4 1240.72 3056.28 1238.99 Q3057.18 1237.23 3057.18 1235.54 Q3057.18 1232.78 3055.24 1231.05 Q3053.32 1229.31 3050.22 1229.31 Q3048.02 1229.31 3045.56 1230.08 Q3043.13 1230.84 3040.36 1232.39 L3040.36 1227.67 Q3043.18 1226.53 3045.63 1225.96 Q3048.09 1225.38 3050.12 1225.38 Q3055.49 1225.38 3058.69 1228.06 Q3061.88 1230.75 3061.88 1235.24 Q3061.88 1237.37 3061.07 1239.29 Q3060.29 1241.19 3058.18 1243.78 Q3057.6 1244.45 3054.5 1247.67 Q3051.4 1250.86 3045.75 1256.63 Z" fill="#000000" fill-rule="nonzero" fill-opacity="1"></path><path clip-path="url(#clip680)" d="M3062.61 1229.95 L3068.82 1229.95 L3068.82 1208.53 L3062.07 1209.89 L3062.07 1206.43 L3068.78 1205.07 L3072.58 1205.07 L3072.58 1229.95 L3078.79 1229.95 L3078.79 1233.15 L3062.61 1233.15 L3062.61 1229.95 Z" fill="#000000" fill-rule="nonzero" fill-opacity="1"></path><path clip-path="url(#clip680)" d="M3086.5 1205.07 L3101.41 1205.07 L3101.41 1208.27 L3089.98 1208.27 L3089.98 1215.15 Q3090.81 1214.87 3091.63 1214.74 Q3092.46 1214.59 3093.29 1214.59 Q3097.99 1214.59 3100.74 1217.16 Q3103.48 1219.74 3103.48 1224.14 Q3103.48 1228.68 3100.66 1231.2 Q3097.84 1233.7 3092.71 1233.7 Q3090.94 1233.7 3089.09 1233.4 Q3087.27 1233.1 3085.31 1232.49 L3085.31 1228.68 Q3087.01 1229.6 3088.81 1230.05 Q3090.62 1230.5 3092.63 1230.5 Q3095.88 1230.5 3097.78 1228.79 Q3099.68 1227.08 3099.68 1224.14 Q3099.68 1221.21 3097.78 1219.5 Q3095.88 1217.79 3092.63 1217.79 Q3091.11 1217.79 3089.58 1218.12 Q3088.08 1218.46 3086.5 1219.18 L3086.5 1205.07 Z" fill="#000000" fill-rule="nonzero" fill-opacity="1"></path><polyline clip-path="url(#clip680)" style="stroke:#000000; stroke-linecap:round; stroke-linejoin:round; stroke-width:4; stroke-opacity:1; fill:none" points="292.422,1176.1 292.422,99.2801 "></polyline>
<polyline clip-path="url(#clip680)" style="stroke:#000000; stroke-linecap:round; stroke-linejoin:round; stroke-width:4; stroke-opacity:1; fill:none" points="292.422,1176.1 311.319,1176.1 "></polyline>
<polyline clip-path="url(#clip680)" style="stroke:#000000; stroke-linecap:round; stroke-linejoin:round; stroke-width:4; stroke-opacity:1; fill:none" points="292.422,983.812 311.319,983.812 "></polyline>
<polyline clip-path="url(#clip680)" style="stroke:#000000; stroke-linecap:round; stroke-linejoin:round; stroke-width:4; stroke-opacity:1; fill:none" points="292.422,791.523 311.319,791.523 "></polyline>
<polyline clip-path="url(#clip680)" style="stroke:#000000; stroke-linecap:round; stroke-linejoin:round; stroke-width:4; stroke-opacity:1; fill:none" points="292.422,599.233 311.319,599.233 "></polyline>
<polyline clip-path="url(#clip680)" style="stroke:#000000; stroke-linecap:round; stroke-linejoin:round; stroke-width:4; stroke-opacity:1; fill:none" points="292.422,406.944 311.319,406.944 "></polyline>
<polyline clip-path="url(#clip680)" style="stroke:#000000; stroke-linecap:round; stroke-linejoin:round; stroke-width:4; stroke-opacity:1; fill:none" points="292.422,214.654 311.319,214.654 "></polyline>
<path clip-path="url(#clip680)" d="M46.9921 1176.55 L76.6679 1176.55 L76.6679 1180.49 L46.9921 1180.49 L46.9921 1176.55 Z" fill="#000000" fill-rule="nonzero" fill-opacity="1"></path><path clip-path="url(#clip680)" d="M96.7604 1161.9 Q93.1493 1161.9 91.3206 1165.47 Q89.515 1169.01 89.515 1176.14 Q89.515 1183.24 91.3206 1186.81 Q93.1493 1190.35 96.7604 1190.35 Q100.395 1190.35 102.2 1186.81 Q104.029 1183.24 104.029 1176.14 Q104.029 1169.01 102.2 1165.47 Q100.395 1161.9 96.7604 1161.9 M96.7604 1158.2 Q102.571 1158.2 105.626 1162.8 Q108.705 1167.39 108.705 1176.14 Q108.705 1184.86 105.626 1189.47 Q102.571 1194.05 96.7604 1194.05 Q90.9502 1194.05 87.8715 1189.47 Q84.816 1184.86 84.816 1176.14 Q84.816 1167.39 87.8715 1162.8 Q90.9502 1158.2 96.7604 1158.2 Z" fill="#000000" fill-rule="nonzero" fill-opacity="1"></path><path clip-path="url(#clip680)" d="M116.922 1187.5 L121.807 1187.5 L121.807 1193.38 L116.922 1193.38 L116.922 1187.5 Z" fill="#000000" fill-rule="nonzero" fill-opacity="1"></path><path clip-path="url(#clip680)" d="M141.992 1161.9 Q138.381 1161.9 136.552 1165.47 Q134.746 1169.01 134.746 1176.14 Q134.746 1183.24 136.552 1186.81 Q138.381 1190.35 141.992 1190.35 Q145.626 1190.35 147.431 1186.81 Q149.26 1183.24 149.26 1176.14 Q149.26 1169.01 147.431 1165.47 Q145.626 1161.9 141.992 1161.9 M141.992 1158.2 Q147.802 1158.2 150.857 1162.8 Q153.936 1167.39 153.936 1176.14 Q153.936 1184.86 150.857 1189.47 Q147.802 1194.05 141.992 1194.05 Q136.181 1194.05 133.103 1189.47 Q130.047 1184.86 130.047 1176.14 Q130.047 1167.39 133.103 1162.8 Q136.181 1158.2 141.992 1158.2 Z" fill="#000000" fill-rule="nonzero" fill-opacity="1"></path><path clip-path="url(#clip680)" d="M162.2 1158.82 L180.556 1158.82 L180.556 1162.76 L166.482 1162.76 L166.482 1171.23 Q167.501 1170.88 168.519 1170.72 Q169.538 1170.53 170.556 1170.53 Q176.343 1170.53 179.723 1173.71 Q183.103 1176.88 183.103 1182.29 Q183.103 1187.87 179.63 1190.97 Q176.158 1194.05 169.839 1194.05 Q167.663 1194.05 165.394 1193.68 Q163.149 1193.31 160.742 1192.57 L160.742 1187.87 Q162.825 1189.01 165.047 1189.56 Q167.269 1190.12 169.746 1190.12 Q173.751 1190.12 176.089 1188.01 Q178.427 1185.91 178.427 1182.29 Q178.427 1178.68 176.089 1176.58 Q173.751 1174.47 169.746 1174.47 Q167.871 1174.47 165.996 1174.89 Q164.144 1175.3 162.2 1176.18 L162.2 1158.82 Z" fill="#000000" fill-rule="nonzero" fill-opacity="1"></path><path clip-path="url(#clip680)" d="M202.315 1161.9 Q198.704 1161.9 196.876 1165.47 Q195.07 1169.01 195.07 1176.14 Q195.07 1183.24 196.876 1186.81 Q198.704 1190.35 202.315 1190.35 Q205.95 1190.35 207.755 1186.81 Q209.584 1183.24 209.584 1176.14 Q209.584 1169.01 207.755 1165.47 Q205.95 1161.9 202.315 1161.9 M202.315 1158.2 Q208.126 1158.2 211.181 1162.8 Q214.26 1167.39 214.26 1176.14 Q214.26 1184.86 211.181 1189.47 Q208.126 1194.05 202.315 1194.05 Q196.505 1194.05 193.427 1189.47 Q190.371 1184.86 190.371 1176.14 Q190.371 1167.39 193.427 1162.8 Q196.505 1158.2 202.315 1158.2 Z" fill="#000000" fill-rule="nonzero" fill-opacity="1"></path><path clip-path="url(#clip680)" d="M232.477 1161.9 Q228.866 1161.9 227.037 1165.47 Q225.232 1169.01 225.232 1176.14 Q225.232 1183.24 227.037 1186.81 Q228.866 1190.35 232.477 1190.35 Q236.111 1190.35 237.917 1186.81 Q239.746 1183.24 239.746 1176.14 Q239.746 1169.01 237.917 1165.47 Q236.111 1161.9 232.477 1161.9 M232.477 1158.2 Q238.287 1158.2 241.343 1162.8 Q244.422 1167.39 244.422 1176.14 Q244.422 1184.86 241.343 1189.47 Q238.287 1194.05 232.477 1194.05 Q226.667 1194.05 223.588 1189.47 Q220.533 1184.86 220.533 1176.14 Q220.533 1167.39 223.588 1162.8 Q226.667 1158.2 232.477 1158.2 Z" fill="#000000" fill-rule="nonzero" fill-opacity="1"></path><path clip-path="url(#clip680)" d="M47.9875 984.264 L77.6633 984.264 L77.6633 988.199 L47.9875 988.199 L47.9875 984.264 Z" fill="#000000" fill-rule="nonzero" fill-opacity="1"></path><path clip-path="url(#clip680)" d="M97.7557 969.611 Q94.1447 969.611 92.316 973.176 Q90.5104 976.717 90.5104 983.847 Q90.5104 990.954 92.316 994.518 Q94.1447 998.06 97.7557 998.06 Q101.39 998.06 103.196 994.518 Q105.024 990.954 105.024 983.847 Q105.024 976.717 103.196 973.176 Q101.39 969.611 97.7557 969.611 M97.7557 965.907 Q103.566 965.907 106.621 970.514 Q109.7 975.097 109.7 983.847 Q109.7 992.574 106.621 997.18 Q103.566 1001.76 97.7557 1001.76 Q91.9456 1001.76 88.8669 997.18 Q85.8114 992.574 85.8114 983.847 Q85.8114 975.097 88.8669 970.514 Q91.9456 965.907 97.7557 965.907 Z" fill="#000000" fill-rule="nonzero" fill-opacity="1"></path><path clip-path="url(#clip680)" d="M117.918 995.213 L122.802 995.213 L122.802 1001.09 L117.918 1001.09 L117.918 995.213 Z" fill="#000000" fill-rule="nonzero" fill-opacity="1"></path><path clip-path="url(#clip680)" d="M142.987 969.611 Q139.376 969.611 137.547 973.176 Q135.742 976.717 135.742 983.847 Q135.742 990.954 137.547 994.518 Q139.376 998.06 142.987 998.06 Q146.621 998.06 148.427 994.518 Q150.255 990.954 150.255 983.847 Q150.255 976.717 148.427 973.176 Q146.621 969.611 142.987 969.611 M142.987 965.907 Q148.797 965.907 151.853 970.514 Q154.931 975.097 154.931 983.847 Q154.931 992.574 151.853 997.18 Q148.797 1001.76 142.987 1001.76 Q137.177 1001.76 134.098 997.18 Q131.043 992.574 131.043 983.847 Q131.043 975.097 134.098 970.514 Q137.177 965.907 142.987 965.907 Z" fill="#000000" fill-rule="nonzero" fill-opacity="1"></path><path clip-path="url(#clip680)" d="M175.996 970.606 L164.191 989.055 L175.996 989.055 L175.996 970.606 M174.769 966.532 L180.649 966.532 L180.649 989.055 L185.579 989.055 L185.579 992.944 L180.649 992.944 L180.649 1001.09 L175.996 1001.09 L175.996 992.944 L160.394 992.944 L160.394 988.43 L174.769 966.532 Z" fill="#000000" fill-rule="nonzero" fill-opacity="1"></path><path clip-path="url(#clip680)" d="M192.13 966.532 L214.352 966.532 L214.352 968.523 L201.806 1001.09 L196.922 1001.09 L208.727 970.468 L192.13 970.468 L192.13 966.532 Z" fill="#000000" fill-rule="nonzero" fill-opacity="1"></path><path clip-path="url(#clip680)" d="M223.519 966.532 L241.875 966.532 L241.875 970.468 L227.801 970.468 L227.801 978.94 Q228.82 978.592 229.838 978.43 Q230.857 978.245 231.875 978.245 Q237.662 978.245 241.042 981.417 Q244.422 984.588 244.422 990.004 Q244.422 995.583 240.949 998.685 Q237.477 1001.76 231.158 1001.76 Q228.982 1001.76 226.713 1001.39 Q224.468 1001.02 222.061 1000.28 L222.061 995.583 Q224.144 996.717 226.366 997.273 Q228.588 997.828 231.065 997.828 Q235.07 997.828 237.408 995.722 Q239.746 993.616 239.746 990.004 Q239.746 986.393 237.408 984.287 Q235.07 982.18 231.065 982.18 Q229.19 982.18 227.315 982.597 Q225.463 983.014 223.519 983.893 L223.519 966.532 Z" fill="#000000" fill-rule="nonzero" fill-opacity="1"></path><path clip-path="url(#clip680)" d="M46.9921 791.974 L76.6679 791.974 L76.6679 795.909 L46.9921 795.909 L46.9921 791.974 Z" fill="#000000" fill-rule="nonzero" fill-opacity="1"></path><path clip-path="url(#clip680)" d="M96.7604 777.321 Q93.1493 777.321 91.3206 780.886 Q89.515 784.428 89.515 791.557 Q89.515 798.664 91.3206 802.229 Q93.1493 805.77 96.7604 805.77 Q100.395 805.77 102.2 802.229 Q104.029 798.664 104.029 791.557 Q104.029 784.428 102.2 780.886 Q100.395 777.321 96.7604 777.321 M96.7604 773.618 Q102.571 773.618 105.626 778.224 Q108.705 782.807 108.705 791.557 Q108.705 800.284 105.626 804.891 Q102.571 809.474 96.7604 809.474 Q90.9502 809.474 87.8715 804.891 Q84.816 800.284 84.816 791.557 Q84.816 782.807 87.8715 778.224 Q90.9502 773.618 96.7604 773.618 Z" fill="#000000" fill-rule="nonzero" fill-opacity="1"></path><path clip-path="url(#clip680)" d="M116.922 802.923 L121.807 802.923 L121.807 808.803 L116.922 808.803 L116.922 802.923 Z" fill="#000000" fill-rule="nonzero" fill-opacity="1"></path><path clip-path="url(#clip680)" d="M141.992 777.321 Q138.381 777.321 136.552 780.886 Q134.746 784.428 134.746 791.557 Q134.746 798.664 136.552 802.229 Q138.381 805.77 141.992 805.77 Q145.626 805.77 147.431 802.229 Q149.26 798.664 149.26 791.557 Q149.26 784.428 147.431 780.886 Q145.626 777.321 141.992 777.321 M141.992 773.618 Q147.802 773.618 150.857 778.224 Q153.936 782.807 153.936 791.557 Q153.936 800.284 150.857 804.891 Q147.802 809.474 141.992 809.474 Q136.181 809.474 133.103 804.891 Q130.047 800.284 130.047 791.557 Q130.047 782.807 133.103 778.224 Q136.181 773.618 141.992 773.618 Z" fill="#000000" fill-rule="nonzero" fill-opacity="1"></path><path clip-path="url(#clip680)" d="M175.001 778.317 L163.195 796.766 L175.001 796.766 L175.001 778.317 M173.774 774.243 L179.653 774.243 L179.653 796.766 L184.584 796.766 L184.584 800.655 L179.653 800.655 L179.653 808.803 L175.001 808.803 L175.001 800.655 L159.399 800.655 L159.399 796.141 L173.774 774.243 Z" fill="#000000" fill-rule="nonzero" fill-opacity="1"></path><path clip-path="url(#clip680)" d="M192.362 774.243 L210.718 774.243 L210.718 778.178 L196.644 778.178 L196.644 786.65 Q197.663 786.303 198.681 786.141 Q199.7 785.956 200.718 785.956 Q206.505 785.956 209.885 789.127 Q213.264 792.298 213.264 797.715 Q213.264 803.293 209.792 806.395 Q206.32 809.474 200.001 809.474 Q197.825 809.474 195.556 809.104 Q193.311 808.733 190.903 807.993 L190.903 803.293 Q192.987 804.428 195.209 804.983 Q197.431 805.539 199.908 805.539 Q203.913 805.539 206.251 803.432 Q208.588 801.326 208.588 797.715 Q208.588 794.104 206.251 791.997 Q203.913 789.891 199.908 789.891 Q198.033 789.891 196.158 790.307 Q194.306 790.724 192.362 791.604 L192.362 774.243 Z" fill="#000000" fill-rule="nonzero" fill-opacity="1"></path><path clip-path="url(#clip680)" d="M232.477 777.321 Q228.866 777.321 227.037 780.886 Q225.232 784.428 225.232 791.557 Q225.232 798.664 227.037 802.229 Q228.866 805.77 232.477 805.77 Q236.111 805.77 237.917 802.229 Q239.746 798.664 239.746 791.557 Q239.746 784.428 237.917 780.886 Q236.111 777.321 232.477 777.321 M232.477 773.618 Q238.287 773.618 241.343 778.224 Q244.422 782.807 244.422 791.557 Q244.422 800.284 241.343 804.891 Q238.287 809.474 232.477 809.474 Q226.667 809.474 223.588 804.891 Q220.533 800.284 220.533 791.557 Q220.533 782.807 223.588 778.224 Q226.667 773.618 232.477 773.618 Z" fill="#000000" fill-rule="nonzero" fill-opacity="1"></path><path clip-path="url(#clip680)" d="M47.9875 599.685 L77.6633 599.685 L77.6633 603.62 L47.9875 603.62 L47.9875 599.685 Z" fill="#000000" fill-rule="nonzero" fill-opacity="1"></path><path clip-path="url(#clip680)" d="M97.7557 585.032 Q94.1447 585.032 92.316 588.597 Q90.5104 592.138 90.5104 599.268 Q90.5104 606.374 92.316 609.939 Q94.1447 613.481 97.7557 613.481 Q101.39 613.481 103.196 609.939 Q105.024 606.374 105.024 599.268 Q105.024 592.138 103.196 588.597 Q101.39 585.032 97.7557 585.032 M97.7557 581.328 Q103.566 581.328 106.621 585.935 Q109.7 590.518 109.7 599.268 Q109.7 607.995 106.621 612.601 Q103.566 617.184 97.7557 617.184 Q91.9456 617.184 88.8669 612.601 Q85.8114 607.995 85.8114 599.268 Q85.8114 590.518 88.8669 585.935 Q91.9456 581.328 97.7557 581.328 Z" fill="#000000" fill-rule="nonzero" fill-opacity="1"></path><path clip-path="url(#clip680)" d="M117.918 610.634 L122.802 610.634 L122.802 616.513 L117.918 616.513 L117.918 610.634 Z" fill="#000000" fill-rule="nonzero" fill-opacity="1"></path><path clip-path="url(#clip680)" d="M142.987 585.032 Q139.376 585.032 137.547 588.597 Q135.742 592.138 135.742 599.268 Q135.742 606.374 137.547 609.939 Q139.376 613.481 142.987 613.481 Q146.621 613.481 148.427 609.939 Q150.255 606.374 150.255 599.268 Q150.255 592.138 148.427 588.597 Q146.621 585.032 142.987 585.032 M142.987 581.328 Q148.797 581.328 151.853 585.935 Q154.931 590.518 154.931 599.268 Q154.931 607.995 151.853 612.601 Q148.797 617.184 142.987 617.184 Q137.177 617.184 134.098 612.601 Q131.043 607.995 131.043 599.268 Q131.043 590.518 134.098 585.935 Q137.177 581.328 142.987 581.328 Z" fill="#000000" fill-rule="nonzero" fill-opacity="1"></path><path clip-path="url(#clip680)" d="M175.996 586.027 L164.191 604.476 L175.996 604.476 L175.996 586.027 M174.769 581.953 L180.649 581.953 L180.649 604.476 L185.579 604.476 L185.579 608.365 L180.649 608.365 L180.649 616.513 L175.996 616.513 L175.996 608.365 L160.394 608.365 L160.394 603.851 L174.769 581.953 Z" fill="#000000" fill-rule="nonzero" fill-opacity="1"></path><path clip-path="url(#clip680)" d="M197.339 612.578 L213.658 612.578 L213.658 616.513 L191.714 616.513 L191.714 612.578 Q194.376 609.823 198.959 605.194 Q203.565 600.541 204.746 599.198 Q206.991 596.675 207.871 594.939 Q208.774 593.18 208.774 591.49 Q208.774 588.735 206.829 586.999 Q204.908 585.263 201.806 585.263 Q199.607 585.263 197.153 586.027 Q194.723 586.791 191.945 588.342 L191.945 583.62 Q194.769 582.486 197.223 581.907 Q199.676 581.328 201.714 581.328 Q207.084 581.328 210.278 584.013 Q213.473 586.698 213.473 591.189 Q213.473 593.319 212.663 595.24 Q211.876 597.138 209.769 599.731 Q209.19 600.402 206.088 603.62 Q202.987 606.814 197.339 612.578 Z" fill="#000000" fill-rule="nonzero" fill-opacity="1"></path><path clip-path="url(#clip680)" d="M223.519 581.953 L241.875 581.953 L241.875 585.888 L227.801 585.888 L227.801 594.36 Q228.82 594.013 229.838 593.851 Q230.857 593.666 231.875 593.666 Q237.662 593.666 241.042 596.837 Q244.422 600.009 244.422 605.425 Q244.422 611.004 240.949 614.106 Q237.477 617.184 231.158 617.184 Q228.982 617.184 226.713 616.814 Q224.468 616.444 222.061 615.703 L222.061 611.004 Q224.144 612.138 226.366 612.694 Q228.588 613.249 231.065 613.249 Q235.07 613.249 237.408 611.143 Q239.746 609.036 239.746 605.425 Q239.746 601.814 237.408 599.708 Q235.07 597.601 231.065 597.601 Q229.19 597.601 227.315 598.018 Q225.463 598.435 223.519 599.314 L223.519 581.953 Z" fill="#000000" fill-rule="nonzero" fill-opacity="1"></path><path clip-path="url(#clip680)" d="M46.9921 407.395 L76.6679 407.395 L76.6679 411.33 L46.9921 411.33 L46.9921 407.395 Z" fill="#000000" fill-rule="nonzero" fill-opacity="1"></path><path clip-path="url(#clip680)" d="M96.7604 392.742 Q93.1493 392.742 91.3206 396.307 Q89.515 399.849 89.515 406.978 Q89.515 414.085 91.3206 417.649 Q93.1493 421.191 96.7604 421.191 Q100.395 421.191 102.2 417.649 Q104.029 414.085 104.029 406.978 Q104.029 399.849 102.2 396.307 Q100.395 392.742 96.7604 392.742 M96.7604 389.039 Q102.571 389.039 105.626 393.645 Q108.705 398.228 108.705 406.978 Q108.705 415.705 105.626 420.311 Q102.571 424.895 96.7604 424.895 Q90.9502 424.895 87.8715 420.311 Q84.816 415.705 84.816 406.978 Q84.816 398.228 87.8715 393.645 Q90.9502 389.039 96.7604 389.039 Z" fill="#000000" fill-rule="nonzero" fill-opacity="1"></path><path clip-path="url(#clip680)" d="M116.922 418.344 L121.807 418.344 L121.807 424.224 L116.922 424.224 L116.922 418.344 Z" fill="#000000" fill-rule="nonzero" fill-opacity="1"></path><path clip-path="url(#clip680)" d="M141.992 392.742 Q138.381 392.742 136.552 396.307 Q134.746 399.849 134.746 406.978 Q134.746 414.085 136.552 417.649 Q138.381 421.191 141.992 421.191 Q145.626 421.191 147.431 417.649 Q149.26 414.085 149.26 406.978 Q149.26 399.849 147.431 396.307 Q145.626 392.742 141.992 392.742 M141.992 389.039 Q147.802 389.039 150.857 393.645 Q153.936 398.228 153.936 406.978 Q153.936 415.705 150.857 420.311 Q147.802 424.895 141.992 424.895 Q136.181 424.895 133.103 420.311 Q130.047 415.705 130.047 406.978 Q130.047 398.228 133.103 393.645 Q136.181 389.039 141.992 389.039 Z" fill="#000000" fill-rule="nonzero" fill-opacity="1"></path><path clip-path="url(#clip680)" d="M175.001 393.738 L163.195 412.187 L175.001 412.187 L175.001 393.738 M173.774 389.664 L179.653 389.664 L179.653 412.187 L184.584 412.187 L184.584 416.075 L179.653 416.075 L179.653 424.224 L175.001 424.224 L175.001 416.075 L159.399 416.075 L159.399 411.562 L173.774 389.664 Z" fill="#000000" fill-rule="nonzero" fill-opacity="1"></path><path clip-path="url(#clip680)" d="M202.315 392.742 Q198.704 392.742 196.876 396.307 Q195.07 399.849 195.07 406.978 Q195.07 414.085 196.876 417.649 Q198.704 421.191 202.315 421.191 Q205.95 421.191 207.755 417.649 Q209.584 414.085 209.584 406.978 Q209.584 399.849 207.755 396.307 Q205.95 392.742 202.315 392.742 M202.315 389.039 Q208.126 389.039 211.181 393.645 Q214.26 398.228 214.26 406.978 Q214.26 415.705 211.181 420.311 Q208.126 424.895 202.315 424.895 Q196.505 424.895 193.427 420.311 Q190.371 415.705 190.371 406.978 Q190.371 398.228 193.427 393.645 Q196.505 389.039 202.315 389.039 Z" fill="#000000" fill-rule="nonzero" fill-opacity="1"></path><path clip-path="url(#clip680)" d="M232.477 392.742 Q228.866 392.742 227.037 396.307 Q225.232 399.849 225.232 406.978 Q225.232 414.085 227.037 417.649 Q228.866 421.191 232.477 421.191 Q236.111 421.191 237.917 417.649 Q239.746 414.085 239.746 406.978 Q239.746 399.849 237.917 396.307 Q236.111 392.742 232.477 392.742 M232.477 389.039 Q238.287 389.039 241.343 393.645 Q244.422 398.228 244.422 406.978 Q244.422 415.705 241.343 420.311 Q238.287 424.895 232.477 424.895 Q226.667 424.895 223.588 420.311 Q220.533 415.705 220.533 406.978 Q220.533 398.228 223.588 393.645 Q226.667 389.039 232.477 389.039 Z" fill="#000000" fill-rule="nonzero" fill-opacity="1"></path><path clip-path="url(#clip680)" d="M47.9875 215.105 L77.6633 215.105 L77.6633 219.04 L47.9875 219.04 L47.9875 215.105 Z" fill="#000000" fill-rule="nonzero" fill-opacity="1"></path><path clip-path="url(#clip680)" d="M97.7557 200.453 Q94.1447 200.453 92.316 204.017 Q90.5104 207.559 90.5104 214.689 Q90.5104 221.795 92.316 225.36 Q94.1447 228.902 97.7557 228.902 Q101.39 228.902 103.196 225.36 Q105.024 221.795 105.024 214.689 Q105.024 207.559 103.196 204.017 Q101.39 200.453 97.7557 200.453 M97.7557 196.749 Q103.566 196.749 106.621 201.355 Q109.7 205.939 109.7 214.689 Q109.7 223.415 106.621 228.022 Q103.566 232.605 97.7557 232.605 Q91.9456 232.605 88.8669 228.022 Q85.8114 223.415 85.8114 214.689 Q85.8114 205.939 88.8669 201.355 Q91.9456 196.749 97.7557 196.749 Z" fill="#000000" fill-rule="nonzero" fill-opacity="1"></path><path clip-path="url(#clip680)" d="M117.918 226.054 L122.802 226.054 L122.802 231.934 L117.918 231.934 L117.918 226.054 Z" fill="#000000" fill-rule="nonzero" fill-opacity="1"></path><path clip-path="url(#clip680)" d="M142.987 200.453 Q139.376 200.453 137.547 204.017 Q135.742 207.559 135.742 214.689 Q135.742 221.795 137.547 225.36 Q139.376 228.902 142.987 228.902 Q146.621 228.902 148.427 225.36 Q150.255 221.795 150.255 214.689 Q150.255 207.559 148.427 204.017 Q146.621 200.453 142.987 200.453 M142.987 196.749 Q148.797 196.749 151.853 201.355 Q154.931 205.939 154.931 214.689 Q154.931 223.415 151.853 228.022 Q148.797 232.605 142.987 232.605 Q137.177 232.605 134.098 228.022 Q131.043 223.415 131.043 214.689 Q131.043 205.939 134.098 201.355 Q137.177 196.749 142.987 196.749 Z" fill="#000000" fill-rule="nonzero" fill-opacity="1"></path><path clip-path="url(#clip680)" d="M177.316 213.3 Q180.672 214.017 182.547 216.286 Q184.445 218.554 184.445 221.888 Q184.445 227.003 180.927 229.804 Q177.408 232.605 170.927 232.605 Q168.751 232.605 166.436 232.165 Q164.144 231.749 161.691 230.892 L161.691 226.378 Q163.635 227.513 165.95 228.091 Q168.265 228.67 170.788 228.67 Q175.186 228.67 177.478 226.934 Q179.792 225.198 179.792 221.888 Q179.792 218.832 177.64 217.119 Q175.51 215.383 171.691 215.383 L167.663 215.383 L167.663 211.54 L171.876 211.54 Q175.325 211.54 177.153 210.175 Q178.982 208.786 178.982 206.193 Q178.982 203.531 177.084 202.119 Q175.209 200.684 171.691 200.684 Q169.769 200.684 167.57 201.101 Q165.371 201.517 162.732 202.397 L162.732 198.23 Q165.394 197.49 167.709 197.119 Q170.047 196.749 172.107 196.749 Q177.431 196.749 180.533 199.179 Q183.635 201.587 183.635 205.707 Q183.635 208.578 181.991 210.568 Q180.348 212.536 177.316 213.3 Z" fill="#000000" fill-rule="nonzero" fill-opacity="1"></path><path clip-path="url(#clip680)" d="M192.13 197.374 L214.352 197.374 L214.352 199.365 L201.806 231.934 L196.922 231.934 L208.727 201.309 L192.13 201.309 L192.13 197.374 Z" fill="#000000" fill-rule="nonzero" fill-opacity="1"></path><path clip-path="url(#clip680)" d="M223.519 197.374 L241.875 197.374 L241.875 201.309 L227.801 201.309 L227.801 209.781 Q228.82 209.434 229.838 209.272 Q230.857 209.087 231.875 209.087 Q237.662 209.087 241.042 212.258 Q244.422 215.429 244.422 220.846 Q244.422 226.425 240.949 229.526 Q237.477 232.605 231.158 232.605 Q228.982 232.605 226.713 232.235 Q224.468 231.864 222.061 231.124 L222.061 226.425 Q224.144 227.559 226.366 228.114 Q228.588 228.67 231.065 228.67 Q235.07 228.67 237.408 226.564 Q239.746 224.457 239.746 220.846 Q239.746 217.235 237.408 215.128 Q235.07 213.022 231.065 213.022 Q229.19 213.022 227.315 213.439 Q225.463 213.855 223.519 214.735 L223.519 197.374 Z" fill="#000000" fill-rule="nonzero" fill-opacity="1"></path><path clip-path="url(#clip680)" d="M1595.21 14.0809 L1595.21 22.0612 Q1590.55 19.8332 1586.42 18.7395 Q1582.29 17.6457 1578.44 17.6457 Q1571.75 17.6457 1568.11 20.2383 Q1564.5 22.8309 1564.5 27.611 Q1564.5 31.6214 1566.89 33.6873 Q1569.32 35.7128 1576.05 36.9686 L1580.99 37.9813 Q1590.14 39.7232 1594.48 44.1387 Q1598.85 48.5136 1598.85 55.8863 Q1598.85 64.6767 1592.94 69.2137 Q1587.07 73.7508 1575.68 73.7508 Q1571.39 73.7508 1566.53 72.7785 Q1561.71 71.8063 1556.52 69.9024 L1556.52 61.4765 Q1561.5 64.2716 1566.28 65.6895 Q1571.06 67.1073 1575.68 67.1073 Q1582.69 67.1073 1586.5 64.3527 Q1590.31 61.598 1590.31 56.4939 Q1590.31 52.0379 1587.55 49.5264 Q1584.84 47.0148 1578.6 45.759 L1573.62 44.7868 Q1564.46 42.9639 1560.37 39.075 Q1556.28 35.1862 1556.28 28.2591 Q1556.28 20.2383 1561.91 15.6203 Q1567.58 11.0023 1577.51 11.0023 Q1581.76 11.0023 1586.17 11.7719 Q1590.59 12.5416 1595.21 14.0809 Z" fill="#000000" fill-rule="nonzero" fill-opacity="1"></path><path clip-path="url(#clip680)" d="M1638.63 34.9026 L1690.57 34.9026 L1690.57 41.7081 L1638.63 41.7081 L1638.63 34.9026 M1638.63 51.4303 L1690.57 51.4303 L1690.57 58.3168 L1638.63 58.3168 L1638.63 51.4303 Z" fill="#000000" fill-rule="nonzero" fill-opacity="1"></path><path clip-path="url(#clip680)" d="M1732.86 9.54393 L1750.03 9.54393 L1750.03 15.3367 L1740.31 15.3367 L1740.31 77.7206 L1750.03 77.7206 L1750.03 83.5134 L1732.86 83.5134 L1732.86 9.54393 Z" fill="#000000" fill-rule="nonzero" fill-opacity="1"></path><path clip-path="url(#clip680)" d="M1774.01 65.6895 L1802.57 65.6895 L1802.57 72.576 L1764.17 72.576 L1764.17 65.6895 Q1768.83 60.8689 1776.85 52.7671 Q1784.91 44.6248 1786.98 42.2752 Q1790.91 37.8598 1792.45 34.8216 Q1794.03 31.7429 1794.03 28.7857 Q1794.03 23.9651 1790.62 20.927 Q1787.26 17.8888 1781.83 17.8888 Q1777.98 17.8888 1773.69 19.2256 Q1769.44 20.5624 1764.58 23.2765 L1764.58 15.0127 Q1769.52 13.0277 1773.81 12.015 Q1778.11 11.0023 1781.67 11.0023 Q1791.07 11.0023 1796.66 15.7013 Q1802.25 20.4004 1802.25 28.2591 Q1802.25 31.9859 1800.83 35.3482 Q1799.45 38.6699 1795.77 43.2069 Q1794.76 44.3817 1789.33 50.0125 Q1783.9 55.6027 1774.01 65.6895 Z" fill="#000000" fill-rule="nonzero" fill-opacity="1"></path><path clip-path="url(#clip680)" d="M1837.25 17.4837 Q1830.93 17.4837 1827.73 23.7221 Q1824.57 29.92 1824.57 42.3968 Q1824.57 54.833 1827.73 61.0714 Q1830.93 67.2693 1837.25 67.2693 Q1843.61 67.2693 1846.77 61.0714 Q1849.97 54.833 1849.97 42.3968 Q1849.97 29.92 1846.77 23.7221 Q1843.61 17.4837 1837.25 17.4837 M1837.25 11.0023 Q1847.42 11.0023 1852.76 19.0636 Q1858.15 27.0843 1858.15 42.3968 Q1858.15 57.6687 1852.76 65.73 Q1847.42 73.7508 1837.25 73.7508 Q1827.08 73.7508 1821.69 65.73 Q1816.35 57.6687 1816.35 42.3968 Q1816.35 27.0843 1821.69 19.0636 Q1827.08 11.0023 1837.25 11.0023 Z" fill="#000000" fill-rule="nonzero" fill-opacity="1"></path><path clip-path="url(#clip680)" d="M1888.9 9.54393 L1888.9 83.5134 L1871.72 83.5134 L1871.72 77.7206 L1881.4 77.7206 L1881.4 15.3367 L1871.72 15.3367 L1871.72 9.54393 L1888.9 9.54393 Z" fill="#000000" fill-rule="nonzero" fill-opacity="1"></path><path clip-path="url(#clip682)" d="M373.374 188.371 L913.06 1049.06 L1452.75 579.945 L1992.43 463.873 L2532.12 683.529 L3071.8 616.049 L3071.8 612.275 L2532.12 671.548 L1992.43 446.393 L1452.75 559.182 L913.06 996.12 L373.374 68.1768  Z" fill="#7e99f4" fill-rule="evenodd" fill-opacity="0.25"></path>
<polyline clip-path="url(#clip682)" style="stroke:#7e99f4; stroke-linecap:round; stroke-linejoin:round; stroke-width:10.8; stroke-opacity:1; fill:none" points="373.374,128.274 913.06,1022.59 1452.75,569.563 1992.43,455.133 2532.12,677.539 3071.8,614.162 "></polyline>
<path clip-path="url(#clip682)" d="M373.374 515.031 L913.06 770.488 L1452.75 664.828 L1992.43 752.071 L2532.12 613.107 L3071.8 609.191 L3071.8 606.516 L2532.12 602.307 L1992.43 734.454 L1452.75 638.608 L913.06 720.732 L373.374 370.589  Z" fill="#cc7c71" fill-rule="evenodd" fill-opacity="0.25"></path>
<polyline clip-path="url(#clip682)" style="stroke:#cc7c71; stroke-linecap:round; stroke-linejoin:round; stroke-width:10.8; stroke-opacity:1; fill:none" stroke-dasharray="43, 22, 5, 22" points="373.374,442.81 913.06,745.61 1452.75,651.718 1992.43,743.263 2532.12,607.707 3071.8,607.854 "></polyline>
<polyline clip-path="url(#clip682)" style="stroke:#3da44d; stroke-linecap:round; stroke-linejoin:round; stroke-width:7.2; stroke-opacity:0.8; fill:none" stroke-dasharray="29, 18" points="373.374,1062.49 913.06,621.204 1452.75,277.326 1992.43,774.951 2532.12,579.246 3071.8,593.476 "></polyline>
<polyline clip-path="url(#clip682)" style="stroke:#c271d2; stroke-linecap:round; stroke-linejoin:round; stroke-width:7.2; stroke-opacity:0.8; fill:none" stroke-dasharray="29, 18" points="373.374,987.38 913.06,827.765 1452.75,752.652 1992.43,728.005 2532.12,528.486 3071.8,579.98 "></polyline>
<polyline clip-path="url(#clip682)" style="stroke:#ac8d18; stroke-linecap:round; stroke-linejoin:round; stroke-width:7.2; stroke-opacity:0.8; fill:none" stroke-dasharray="29, 18" points="373.374,-331.794 913.06,1245.58 1452.75,210.429 1992.43,861.214 2532.12,653.185 3071.8,586.435 "></polyline>
<polyline clip-path="url(#clip682)" style="stroke:#00a9ad; stroke-linecap:round; stroke-linejoin:round; stroke-width:7.2; stroke-opacity:0.8; fill:none" stroke-dasharray="29, 18" points="373.374,334.835 913.06,966.255 1452.75,577.779 1992.43,578.953 2532.12,658.467 3071.8,576.899 "></polyline>
<polyline clip-path="url(#clip682)" style="stroke:#000000; stroke-linecap:round; stroke-linejoin:round; stroke-width:8; stroke-opacity:1; fill:none" stroke-dasharray="4, 8" points="-2567.91,644.406 6013.09,644.406 "></polyline>
<path clip-path="url(#clip680)" d="M754.983 1140.21 L3057.41 1140.21 L3057.41 1036.53 L754.983 1036.53  Z" fill="#ffffff" fill-rule="evenodd" fill-opacity="1"></path>
<polyline clip-path="url(#clip680)" style="stroke:#000000; stroke-linecap:round; stroke-linejoin:round; stroke-width:4; stroke-opacity:1; fill:none" points="754.983,1140.21 3057.41,1140.21 3057.41,1036.53 754.983,1036.53 754.983,1140.21 "></polyline>
<polyline clip-path="url(#clip680)" style="stroke:#7e99f4; stroke-linecap:round; stroke-linejoin:round; stroke-width:10.8; stroke-opacity:1; fill:none" points="786.765,1088.37 977.454,1088.37 "></polyline>
<path clip-path="url(#clip680)" d="M1009.24 1071.09 L1029.1 1071.09 L1029.1 1075.02 L1013.91 1075.02 L1013.91 1085.21 L1027.61 1085.21 L1027.61 1089.14 L1013.91 1089.14 L1013.91 1105.65 L1009.24 1105.65 L1009.24 1071.09 Z" fill="#000000" fill-rule="nonzero" fill-opacity="1"></path><path clip-path="url(#clip680)" d="M1062.38 1073.75 L1062.38 1078.68 Q1060.02 1076.48 1057.34 1075.39 Q1054.67 1074.31 1051.67 1074.31 Q1045.74 1074.31 1042.59 1077.94 Q1039.44 1081.55 1039.44 1088.4 Q1039.44 1095.23 1042.59 1098.87 Q1045.74 1102.48 1051.67 1102.48 Q1054.67 1102.48 1057.34 1101.39 Q1060.02 1100.3 1062.38 1098.1 L1062.38 1102.99 Q1059.93 1104.65 1057.17 1105.49 Q1054.44 1106.32 1051.39 1106.32 Q1043.54 1106.32 1039.03 1101.53 Q1034.51 1096.71 1034.51 1088.4 Q1034.51 1080.07 1039.03 1075.28 Q1043.54 1070.46 1051.39 1070.46 Q1054.49 1070.46 1057.22 1071.3 Q1059.98 1072.11 1062.38 1073.75 Z" fill="#000000" fill-rule="nonzero" fill-opacity="1"></path><path clip-path="url(#clip680)" d="M1090.32 1072.22 L1090.32 1076.78 Q1087.66 1075.51 1085.3 1074.88 Q1082.94 1074.26 1080.74 1074.26 Q1076.92 1074.26 1074.84 1075.74 Q1072.78 1077.22 1072.78 1079.95 Q1072.78 1082.25 1074.14 1083.43 Q1075.53 1084.58 1079.37 1085.3 L1082.2 1085.88 Q1087.43 1086.87 1089.91 1089.4 Q1092.41 1091.9 1092.41 1096.11 Q1092.41 1101.13 1089.03 1103.73 Q1085.67 1106.32 1079.17 1106.32 Q1076.71 1106.32 1073.93 1105.76 Q1071.18 1105.21 1068.22 1104.12 L1068.22 1099.31 Q1071.06 1100.9 1073.8 1101.71 Q1076.53 1102.52 1079.17 1102.52 Q1083.17 1102.52 1085.35 1100.95 Q1087.52 1099.37 1087.52 1096.46 Q1087.52 1093.91 1085.95 1092.48 Q1084.4 1091.04 1080.83 1090.32 L1077.98 1089.77 Q1072.75 1088.73 1070.42 1086.5 Q1068.08 1084.28 1068.08 1080.32 Q1068.08 1075.74 1071.3 1073.1 Q1074.54 1070.46 1080.21 1070.46 Q1082.64 1070.46 1085.16 1070.9 Q1087.68 1071.34 1090.32 1072.22 Z" fill="#000000" fill-rule="nonzero" fill-opacity="1"></path><polyline clip-path="url(#clip680)" style="stroke:#cc7c71; stroke-linecap:round; stroke-linejoin:round; stroke-width:10.8; stroke-opacity:1; fill:none" stroke-dasharray="43, 22, 5, 22" points="1165.21,1088.37 1355.89,1088.37 "></polyline>
<path clip-path="url(#clip680)" d="M1406.59 1083.66 L1406.59 1069.63 L1410.85 1069.63 L1410.85 1105.65 L1406.59 1105.65 L1406.59 1101.76 Q1405.25 1104.07 1403.19 1105.21 Q1401.15 1106.32 1398.28 1106.32 Q1393.58 1106.32 1390.62 1102.57 Q1387.68 1098.82 1387.68 1092.71 Q1387.68 1086.6 1390.62 1082.85 Q1393.58 1079.1 1398.28 1079.1 Q1401.15 1079.1 1403.19 1080.23 Q1405.25 1081.34 1406.59 1083.66 M1392.07 1092.71 Q1392.07 1097.41 1394 1100.09 Q1395.94 1102.75 1399.32 1102.75 Q1402.7 1102.75 1404.64 1100.09 Q1406.59 1097.41 1406.59 1092.71 Q1406.59 1088.01 1404.64 1085.35 Q1402.7 1082.66 1399.32 1082.66 Q1395.94 1082.66 1394 1085.35 Q1392.07 1088.01 1392.07 1092.71 Z" fill="#000000" fill-rule="nonzero" fill-opacity="1"></path><path clip-path="url(#clip680)" d="M1420.18 1084.12 L1449.85 1084.12 L1449.85 1088.01 L1420.18 1088.01 L1420.18 1084.12 M1420.18 1093.56 L1449.85 1093.56 L1449.85 1097.5 L1420.18 1097.5 L1420.18 1093.56 Z" fill="#000000" fill-rule="nonzero" fill-opacity="1"></path><path clip-path="url(#clip680)" d="M1459.99 1071.09 L1478.35 1071.09 L1478.35 1075.02 L1464.27 1075.02 L1464.27 1083.5 Q1465.29 1083.15 1466.31 1082.99 Q1467.33 1082.8 1468.35 1082.8 Q1474.13 1082.8 1477.51 1085.97 Q1480.89 1089.14 1480.89 1094.56 Q1480.89 1100.14 1477.42 1103.24 Q1473.95 1106.32 1467.63 1106.32 Q1465.45 1106.32 1463.19 1105.95 Q1460.94 1105.58 1458.53 1104.84 L1458.53 1100.14 Q1460.62 1101.27 1462.84 1101.83 Q1465.06 1102.38 1467.54 1102.38 Q1471.54 1102.38 1473.88 1100.28 Q1476.22 1098.17 1476.22 1094.56 Q1476.22 1090.95 1473.88 1088.84 Q1471.54 1086.74 1467.54 1086.74 Q1465.66 1086.74 1463.79 1087.15 Q1461.94 1087.57 1459.99 1088.45 L1459.99 1071.09 Z" fill="#000000" fill-rule="nonzero" fill-opacity="1"></path><polyline clip-path="url(#clip680)" style="stroke:#3da44d; stroke-linecap:round; stroke-linejoin:round; stroke-width:7.2; stroke-opacity:0.8; fill:none" stroke-dasharray="29, 18" points="1543.65,1088.37 1734.34,1088.37 "></polyline>
<path clip-path="url(#clip680)" d="M1785.03 1083.66 L1785.03 1069.63 L1789.29 1069.63 L1789.29 1105.65 L1785.03 1105.65 L1785.03 1101.76 Q1783.69 1104.07 1781.63 1105.21 Q1779.59 1106.32 1776.72 1106.32 Q1772.02 1106.32 1769.06 1102.57 Q1766.12 1098.82 1766.12 1092.71 Q1766.12 1086.6 1769.06 1082.85 Q1772.02 1079.1 1776.72 1079.1 Q1779.59 1079.1 1781.63 1080.23 Q1783.69 1081.34 1785.03 1083.66 M1770.52 1092.71 Q1770.52 1097.41 1772.44 1100.09 Q1774.38 1102.75 1777.76 1102.75 Q1781.14 1102.75 1783.09 1100.09 Q1785.03 1097.41 1785.03 1092.71 Q1785.03 1088.01 1783.09 1085.35 Q1781.14 1082.66 1777.76 1082.66 Q1774.38 1082.66 1772.44 1085.35 Q1770.52 1088.01 1770.52 1092.71 Z" fill="#000000" fill-rule="nonzero" fill-opacity="1"></path><path clip-path="url(#clip680)" d="M1798.62 1084.12 L1828.29 1084.12 L1828.29 1088.01 L1798.62 1088.01 L1798.62 1084.12 M1798.62 1093.56 L1828.29 1093.56 L1828.29 1097.5 L1798.62 1097.5 L1798.62 1093.56 Z" fill="#000000" fill-rule="nonzero" fill-opacity="1"></path><path clip-path="url(#clip680)" d="M1838.52 1104.93 L1838.52 1100.67 Q1840.28 1101.5 1842.09 1101.94 Q1843.89 1102.38 1845.63 1102.38 Q1850.26 1102.38 1852.69 1099.28 Q1855.14 1096.16 1855.49 1089.81 Q1854.15 1091.81 1852.09 1092.87 Q1850.03 1093.93 1847.53 1093.93 Q1842.34 1093.93 1839.31 1090.81 Q1836.3 1087.66 1836.3 1082.22 Q1836.3 1076.9 1839.45 1073.68 Q1842.6 1070.46 1847.83 1070.46 Q1853.83 1070.46 1856.97 1075.07 Q1860.14 1079.65 1860.14 1088.4 Q1860.14 1096.57 1856.26 1101.46 Q1852.39 1106.32 1845.84 1106.32 Q1844.08 1106.32 1842.27 1105.97 Q1840.47 1105.62 1838.52 1104.93 M1847.83 1090.28 Q1850.98 1090.28 1852.81 1088.12 Q1854.66 1085.97 1854.66 1082.22 Q1854.66 1078.5 1852.81 1076.34 Q1850.98 1074.17 1847.83 1074.17 Q1844.68 1074.17 1842.83 1076.34 Q1841 1078.5 1841 1082.22 Q1841 1085.97 1842.83 1088.12 Q1844.68 1090.28 1847.83 1090.28 Z" fill="#000000" fill-rule="nonzero" fill-opacity="1"></path><polyline clip-path="url(#clip680)" style="stroke:#c271d2; stroke-linecap:round; stroke-linejoin:round; stroke-width:7.2; stroke-opacity:0.8; fill:none" stroke-dasharray="29, 18" points="1922.09,1088.37 2112.78,1088.37 "></polyline>
<path clip-path="url(#clip680)" d="M2163.47 1083.66 L2163.47 1069.63 L2167.73 1069.63 L2167.73 1105.65 L2163.47 1105.65 L2163.47 1101.76 Q2162.13 1104.07 2160.07 1105.21 Q2158.03 1106.32 2155.16 1106.32 Q2150.46 1106.32 2147.5 1102.57 Q2144.56 1098.82 2144.56 1092.71 Q2144.56 1086.6 2147.5 1082.85 Q2150.46 1079.1 2155.16 1079.1 Q2158.03 1079.1 2160.07 1080.23 Q2162.13 1081.34 2163.47 1083.66 M2148.96 1092.71 Q2148.96 1097.41 2150.88 1100.09 Q2152.82 1102.75 2156.2 1102.75 Q2159.58 1102.75 2161.53 1100.09 Q2163.47 1097.41 2163.47 1092.71 Q2163.47 1088.01 2161.53 1085.35 Q2159.58 1082.66 2156.2 1082.66 Q2152.82 1082.66 2150.88 1085.35 Q2148.96 1088.01 2148.96 1092.71 Z" fill="#000000" fill-rule="nonzero" fill-opacity="1"></path><path clip-path="url(#clip680)" d="M2177.06 1084.12 L2206.73 1084.12 L2206.73 1088.01 L2177.06 1088.01 L2177.06 1084.12 M2177.06 1093.56 L2206.73 1093.56 L2206.73 1097.5 L2177.06 1097.5 L2177.06 1093.56 Z" fill="#000000" fill-rule="nonzero" fill-opacity="1"></path><path clip-path="url(#clip680)" d="M2217.64 1101.71 L2225.28 1101.71 L2225.28 1075.35 L2216.97 1077.01 L2216.97 1072.75 L2225.23 1071.09 L2229.91 1071.09 L2229.91 1101.71 L2237.54 1101.71 L2237.54 1105.65 L2217.64 1105.65 L2217.64 1101.71 Z" fill="#000000" fill-rule="nonzero" fill-opacity="1"></path><path clip-path="url(#clip680)" d="M2247.03 1071.09 L2265.39 1071.09 L2265.39 1075.02 L2251.32 1075.02 L2251.32 1083.5 Q2252.34 1083.15 2253.35 1082.99 Q2254.37 1082.8 2255.39 1082.8 Q2261.18 1082.8 2264.56 1085.97 Q2267.94 1089.14 2267.94 1094.56 Q2267.94 1100.14 2264.47 1103.24 Q2260.99 1106.32 2254.67 1106.32 Q2252.5 1106.32 2250.23 1105.95 Q2247.98 1105.58 2245.58 1104.84 L2245.58 1100.14 Q2247.66 1101.27 2249.88 1101.83 Q2252.1 1102.38 2254.58 1102.38 Q2258.59 1102.38 2260.92 1100.28 Q2263.26 1098.17 2263.26 1094.56 Q2263.26 1090.95 2260.92 1088.84 Q2258.59 1086.74 2254.58 1086.74 Q2252.71 1086.74 2250.83 1087.15 Q2248.98 1087.57 2247.03 1088.45 L2247.03 1071.09 Z" fill="#000000" fill-rule="nonzero" fill-opacity="1"></path><polyline clip-path="url(#clip680)" style="stroke:#ac8d18; stroke-linecap:round; stroke-linejoin:round; stroke-width:7.2; stroke-opacity:0.8; fill:none" stroke-dasharray="29, 18" points="2300.53,1088.37 2491.22,1088.37 "></polyline>
<path clip-path="url(#clip680)" d="M2541.91 1083.66 L2541.91 1069.63 L2546.17 1069.63 L2546.17 1105.65 L2541.91 1105.65 L2541.91 1101.76 Q2540.57 1104.07 2538.51 1105.21 Q2536.47 1106.32 2533.6 1106.32 Q2528.9 1106.32 2525.94 1102.57 Q2523 1098.82 2523 1092.71 Q2523 1086.6 2525.94 1082.85 Q2528.9 1079.1 2533.6 1079.1 Q2536.47 1079.1 2538.51 1080.23 Q2540.57 1081.34 2541.91 1083.66 M2527.4 1092.71 Q2527.4 1097.41 2529.32 1100.09 Q2531.26 1102.75 2534.64 1102.75 Q2538.02 1102.75 2539.97 1100.09 Q2541.91 1097.41 2541.91 1092.71 Q2541.91 1088.01 2539.97 1085.35 Q2538.02 1082.66 2534.64 1082.66 Q2531.26 1082.66 2529.32 1085.35 Q2527.4 1088.01 2527.4 1092.71 Z" fill="#000000" fill-rule="nonzero" fill-opacity="1"></path><path clip-path="url(#clip680)" d="M2555.5 1084.12 L2585.18 1084.12 L2585.18 1088.01 L2555.5 1088.01 L2555.5 1084.12 M2555.5 1093.56 L2585.18 1093.56 L2585.18 1097.5 L2555.5 1097.5 L2555.5 1093.56 Z" fill="#000000" fill-rule="nonzero" fill-opacity="1"></path><path clip-path="url(#clip680)" d="M2596.08 1101.71 L2603.72 1101.71 L2603.72 1075.35 L2595.41 1077.01 L2595.41 1072.75 L2603.67 1071.09 L2608.35 1071.09 L2608.35 1101.71 L2615.99 1101.71 L2615.99 1105.65 L2596.08 1105.65 L2596.08 1101.71 Z" fill="#000000" fill-rule="nonzero" fill-opacity="1"></path><path clip-path="url(#clip680)" d="M2625.57 1104.93 L2625.57 1100.67 Q2627.33 1101.5 2629.13 1101.94 Q2630.94 1102.38 2632.68 1102.38 Q2637.3 1102.38 2639.74 1099.28 Q2642.19 1096.16 2642.54 1089.81 Q2641.19 1091.81 2639.13 1092.87 Q2637.07 1093.93 2634.57 1093.93 Q2629.39 1093.93 2626.36 1090.81 Q2623.35 1087.66 2623.35 1082.22 Q2623.35 1076.9 2626.49 1073.68 Q2629.64 1070.46 2634.87 1070.46 Q2640.87 1070.46 2644.02 1075.07 Q2647.19 1079.65 2647.19 1088.4 Q2647.19 1096.57 2643.3 1101.46 Q2639.43 1106.32 2632.88 1106.32 Q2631.12 1106.32 2629.32 1105.97 Q2627.51 1105.62 2625.57 1104.93 M2634.87 1090.28 Q2638.02 1090.28 2639.85 1088.12 Q2641.7 1085.97 2641.7 1082.22 Q2641.7 1078.5 2639.85 1076.34 Q2638.02 1074.17 2634.87 1074.17 Q2631.73 1074.17 2629.87 1076.34 Q2628.05 1078.5 2628.05 1082.22 Q2628.05 1085.97 2629.87 1088.12 Q2631.73 1090.28 2634.87 1090.28 Z" fill="#000000" fill-rule="nonzero" fill-opacity="1"></path><polyline clip-path="url(#clip680)" style="stroke:#00a9ad; stroke-linecap:round; stroke-linejoin:round; stroke-width:7.2; stroke-opacity:0.8; fill:none" stroke-dasharray="29, 18" points="2678.97,1088.37 2869.66,1088.37 "></polyline>
<path clip-path="url(#clip680)" d="M2920.35 1083.66 L2920.35 1069.63 L2924.61 1069.63 L2924.61 1105.65 L2920.35 1105.65 L2920.35 1101.76 Q2919.01 1104.07 2916.95 1105.21 Q2914.91 1106.32 2912.04 1106.32 Q2907.34 1106.32 2904.38 1102.57 Q2901.44 1098.82 2901.44 1092.71 Q2901.44 1086.6 2904.38 1082.85 Q2907.34 1079.1 2912.04 1079.1 Q2914.91 1079.1 2916.95 1080.23 Q2919.01 1081.34 2920.35 1083.66 M2905.84 1092.71 Q2905.84 1097.41 2907.76 1100.09 Q2909.7 1102.75 2913.08 1102.75 Q2916.46 1102.75 2918.41 1100.09 Q2920.35 1097.41 2920.35 1092.71 Q2920.35 1088.01 2918.41 1085.35 Q2916.46 1082.66 2913.08 1082.66 Q2909.7 1082.66 2907.76 1085.35 Q2905.84 1088.01 2905.84 1092.71 Z" fill="#000000" fill-rule="nonzero" fill-opacity="1"></path><path clip-path="url(#clip680)" d="M2933.94 1084.12 L2963.62 1084.12 L2963.62 1088.01 L2933.94 1088.01 L2933.94 1084.12 M2933.94 1093.56 L2963.62 1093.56 L2963.62 1097.5 L2933.94 1097.5 L2933.94 1093.56 Z" fill="#000000" fill-rule="nonzero" fill-opacity="1"></path><path clip-path="url(#clip680)" d="M2977.74 1101.71 L2994.06 1101.71 L2994.06 1105.65 L2972.11 1105.65 L2972.11 1101.71 Q2974.77 1098.96 2979.36 1094.33 Q2983.96 1089.68 2985.14 1088.33 Q2987.39 1085.81 2988.27 1084.07 Q2989.17 1082.31 2989.17 1080.62 Q2989.17 1077.87 2987.23 1076.13 Q2985.31 1074.4 2982.2 1074.4 Q2980.01 1074.4 2977.55 1075.16 Q2975.12 1075.93 2972.34 1077.48 L2972.34 1072.75 Q2975.17 1071.62 2977.62 1071.04 Q2980.07 1070.46 2982.11 1070.46 Q2987.48 1070.46 2990.68 1073.15 Q2993.87 1075.83 2993.87 1080.32 Q2993.87 1082.45 2993.06 1084.37 Q2992.27 1086.27 2990.17 1088.87 Q2989.59 1089.54 2986.49 1092.75 Q2983.38 1095.95 2977.74 1101.71 Z" fill="#000000" fill-rule="nonzero" fill-opacity="1"></path><path clip-path="url(#clip680)" d="M3018.04 1087.01 Q3021.39 1087.73 3023.27 1090 Q3025.17 1092.27 3025.17 1095.6 Q3025.17 1100.72 3021.65 1103.52 Q3018.13 1106.32 3011.65 1106.32 Q3009.47 1106.32 3007.16 1105.88 Q3004.87 1105.46 3002.41 1104.61 L3002.41 1100.09 Q3004.36 1101.23 3006.67 1101.81 Q3008.99 1102.38 3011.51 1102.38 Q3015.91 1102.38 3018.2 1100.65 Q3020.51 1098.91 3020.51 1095.6 Q3020.51 1092.55 3018.36 1090.83 Q3016.23 1089.1 3012.41 1089.1 L3008.38 1089.1 L3008.38 1085.25 L3012.6 1085.25 Q3016.05 1085.25 3017.88 1083.89 Q3019.7 1082.5 3019.7 1079.91 Q3019.7 1077.25 3017.81 1075.83 Q3015.93 1074.4 3012.41 1074.4 Q3010.49 1074.4 3008.29 1074.81 Q3006.09 1075.23 3003.45 1076.11 L3003.45 1071.94 Q3006.12 1071.2 3008.43 1070.83 Q3010.77 1070.46 3012.83 1070.46 Q3018.15 1070.46 3021.25 1072.89 Q3024.36 1075.3 3024.36 1079.42 Q3024.36 1082.29 3022.71 1084.28 Q3021.07 1086.25 3018.04 1087.01 Z" fill="#000000" fill-rule="nonzero" fill-opacity="1"></path></svg>