<svg xmlns="http://www.w3.org/2000/svg" xmlns:xlink="http://www.w3.org/1999/xlink" width="800" height="320" viewBox="0 0 3200 1280">
<defs>
  <clipPath id="clip000">
    <rect x="0" y="0" width="3200" height="1280"></rect>
  </clipPath>
</defs>
<path clip-path="url(#clip000)" d="M0 1280 L3200 1280 L3200 0 L0 0  Z" fill="#ffffff" fill-rule="evenodd" fill-opacity="1"></path>
<defs>
  <clipPath id="clip001">
    <rect x="640" y="0" width="2241" height="1280"></rect>
  </clipPath>
</defs>
<path clip-path="url(#clip000)" d="M200.709 1176.1 L3152.76 1176.1 L3152.76 99.2801 L200.709 99.2801  Z" fill="#ffffff" fill-rule="evenodd" fill-opacity="1"></path>
<defs>
  <clipPath id="clip002">
    <rect x="200" y="99" width="2953" height="1078"></rect>
  </clipPath>
</defs>
<polyline clip-path="url(#clip002)" style="stroke:#000000; stroke-linecap:round; stroke-linejoin:round; stroke-width:2; stroke-opacity:0.1; fill:none" points="284.258,1176.1 284.258,99.2801 "></polyline>
<polyline clip-path="url(#clip002)" style="stroke:#000000; stroke-linecap:round; stroke-linejoin:round; stroke-width:2; stroke-opacity:0.1; fill:none" points="841.248,1176.1 841.248,99.2801 "></polyline>
<polyline clip-path="url(#clip002)" style="stroke:#000000; stroke-linecap:round; stroke-linejoin:round; stroke-width:2; stroke-opacity:0.1; fill:none" points="1398.24,1176.1 1398.24,99.2801 "></polyline>
<polyline clip-path="url(#clip002)" style="stroke:#000000; stroke-linecap:round; stroke-linejoin:round; stroke-width:2; stroke-opacity:0.1; fill:none" points="1955.23,1176.1 1955.23,99.2801 "></polyline>
<polyline clip-path="url(#clip002)" style="stroke:#000000; stroke-linecap:round; stroke-linejoin:round; stroke-width:2; stroke-opacity:0.1; fill:none" points="2512.22,1176.1 2512.22,99.2801 "></polyline>
<polyline clip-path="url(#clip002)" style="stroke:#000000; stroke-linecap:round; stroke-linejoin:round; stroke-width:2; stroke-opacity:0.1; fill:none" points="3069.21,1176.1 3069.21,99.2801 "></polyline>
<polyline clip-path="url(#clip002)" style="stroke:#000000; stroke-linecap:round; stroke-linejoin:round; stroke-width:2; stroke-opacity:0.1; fill:none" points="200.709,1127.16 3152.76,1127.16 "></polyline>
<polyline clip-path="url(#clip002)" style="stroke:#000000; stroke-linecap:round; stroke-linejoin:round; stroke-width:2; stroke-opacity:0.1; fill:none" points="200.709,882.423 3152.76,882.423 "></polyline>
<polyline clip-path="url(#clip002)" style="stroke:#000000; stroke-linecap:round; stroke-linejoin:round; stroke-width:2; stroke-opacity:0.1; fill:none" points="200.709,637.691 3152.76,637.691 "></polyline>
<polyline clip-path="url(#clip002)" style="stroke:#000000; stroke-linecap:round; stroke-linejoin:round; stroke-width:2; stroke-opacity:0.1; fill:none" points="200.709,392.959 3152.76,392.959 "></polyline>
<polyline clip-path="url(#clip002)" style="stroke:#000000; stroke-linecap:round; stroke-linejoin:round; stroke-width:2; stroke-opacity:0.1; fill:none" points="200.709,148.227 3152.76,148.227 "></polyline>
<polyline clip-path="url(#clip000)" style="stroke:#000000; stroke-linecap:round; stroke-linejoin:round; stroke-width:4; stroke-opacity:1; fill:none" points="200.709,1176.1 3152.76,1176.1 "></polyline>
<polyline clip-path="url(#clip000)" style="stroke:#000000; stroke-linecap:round; stroke-linejoin:round; stroke-width:4; stroke-opacity:1; fill:none" points="284.258,1176.1 284.258,1157.2 "></polyline>
<polyline clip-path="url(#clip000)" style="stroke:#000000; stroke-linecap:round; stroke-linejoin:round; stroke-width:4; stroke-opacity:1; fill:none" points="841.248,1176.1 841.248,1157.2 "></polyline>
<polyline clip-path="url(#clip000)" style="stroke:#000000; stroke-linecap:round; stroke-linejoin:round; stroke-width:4; stroke-opacity:1; fill:none" points="1398.24,1176.1 1398.24,1157.2 "></polyline>
<polyline clip-path="url(#clip000)" style="stroke:#000000; stroke-linecap:round; stroke-linejoin:round; stroke-width:4; stroke-opacity:1; fill:none" points="1955.23,1176.1 1955.23,1157.2 "></polyline>
<polyline clip-path="url(#clip000)" style="stroke:#000000; stroke-linecap:round; stroke-linejoin:round; stroke-width:4; stroke-opacity:1; fill:none" points="2512.22,1176.1 2512.22,1157.2 "></polyline>
<polyline clip-path="url(#clip000)" style="stroke:#000000; stroke-linecap:round; stroke-linejoin:round; stroke-width:4; stroke-opacity:1; fill:none" points="3069.21,1176.1 3069.21,1157.2 "></polyline>
<path clip-path="url(#clip000)" d="M257.799 1256.63 L274.118 1256.63 L274.118 1260.56 L252.174 1260.56 L252.174 1256.63 Q254.836 1253.87 259.419 1249.24 Q264.026 1244.59 265.206 1243.25 Q267.451 1240.72 268.331 1238.99 Q269.234 1237.23 269.234 1235.54 Q269.234 1232.78 267.289 1231.05 Q265.368 1229.31 262.266 1229.31 Q260.067 1229.31 257.614 1230.08 Q255.183 1230.84 252.405 1232.39 L252.405 1227.67 Q255.229 1226.53 257.683 1225.96 Q260.137 1225.38 262.174 1225.38 Q267.544 1225.38 270.738 1228.06 Q273.933 1230.75 273.933 1235.24 Q273.933 1237.37 273.123 1239.29 Q272.336 1241.19 270.229 1243.78 Q269.651 1244.45 266.549 1247.67 Q263.447 1250.86 257.799 1256.63 Z" fill="#000000" fill-rule="nonzero" fill-opacity="1"></path><path clip-path="url(#clip000)" d="M274.664 1229.95 L280.87 1229.95 L280.87 1208.53 L274.118 1209.89 L274.118 1206.43 L280.832 1205.07 L284.632 1205.07 L284.632 1229.95 L290.838 1229.95 L290.838 1233.15 L274.664 1233.15 L274.664 1229.95 Z" fill="#000000" fill-rule="nonzero" fill-opacity="1"></path><path clip-path="url(#clip000)" d="M306.637 1207.57 Q303.703 1207.57 302.217 1210.47 Q300.75 1213.35 300.75 1219.14 Q300.75 1224.91 302.217 1227.81 Q303.703 1230.69 306.637 1230.69 Q309.59 1230.69 311.057 1227.81 Q312.542 1224.91 312.542 1219.14 Q312.542 1213.35 311.057 1210.47 Q309.59 1207.57 306.637 1207.57 M306.637 1204.56 Q311.357 1204.56 313.84 1208.31 Q316.342 1212.03 316.342 1219.14 Q316.342 1226.23 313.84 1229.97 Q311.357 1233.7 306.637 1233.7 Q301.916 1233.7 299.415 1229.97 Q296.932 1226.23 296.932 1219.14 Q296.932 1212.03 299.415 1208.31 Q301.916 1204.56 306.637 1204.56 Z" fill="#000000" fill-rule="nonzero" fill-opacity="1"></path><path clip-path="url(#clip000)" d="M815.287 1256.63 L831.606 1256.63 L831.606 1260.56 L809.662 1260.56 L809.662 1256.63 Q812.324 1253.87 816.907 1249.24 Q821.514 1244.59 822.694 1243.25 Q824.94 1240.72 825.819 1238.99 Q826.722 1237.23 826.722 1235.54 Q826.722 1232.78 824.778 1231.05 Q822.856 1229.31 819.755 1229.31 Q817.556 1229.31 815.102 1230.08 Q812.671 1230.84 809.894 1232.39 L809.894 1227.67 Q812.718 1226.53 815.171 1225.96 Q817.625 1225.38 819.662 1225.38 Q825.032 1225.38 828.227 1228.06 Q831.421 1230.75 831.421 1235.24 Q831.421 1237.37 830.611 1239.29 Q829.824 1241.19 827.718 1243.78 Q827.139 1244.45 824.037 1247.67 Q820.935 1250.86 815.287 1256.63 Z" fill="#000000" fill-rule="nonzero" fill-opacity="1"></path><path clip-path="url(#clip000)" d="M832.152 1229.95 L838.358 1229.95 L838.358 1208.53 L831.606 1209.89 L831.606 1206.43 L838.321 1205.07 L842.12 1205.07 L842.12 1229.95 L848.327 1229.95 L848.327 1233.15 L832.152 1233.15 L832.152 1229.95 Z" fill="#000000" fill-rule="nonzero" fill-opacity="1"></path><path clip-path="url(#clip000)" d="M856.658 1229.95 L862.865 1229.95 L862.865 1208.53 L856.113 1209.89 L856.113 1206.43 L862.827 1205.07 L866.627 1205.07 L866.627 1229.95 L872.833 1229.95 L872.833 1233.15 L856.658 1233.15 L856.658 1229.95 Z" fill="#000000" fill-rule="nonzero" fill-opacity="1"></path><path clip-path="url(#clip000)" d="M1372.43 1256.63 L1388.75 1256.63 L1388.75 1260.56 L1366.8 1260.56 L1366.8 1256.63 Q1369.46 1253.87 1374.05 1249.24 Q1378.65 1244.59 1379.83 1243.25 Q1382.08 1240.72 1382.96 1238.99 Q1383.86 1237.23 1383.86 1235.54 Q1383.86 1232.78 1381.92 1231.05 Q1380 1229.31 1376.9 1229.31 Q1374.7 1229.31 1372.24 1230.08 Q1369.81 1230.84 1367.03 1232.39 L1367.03 1227.67 Q1369.86 1226.53 1372.31 1225.96 Q1374.77 1225.38 1376.8 1225.38 Q1382.17 1225.38 1385.37 1228.06 Q1388.56 1230.75 1388.56 1235.24 Q1388.56 1237.37 1387.75 1239.29 Q1386.96 1241.19 1384.86 1243.78 Q1384.28 1244.45 1381.18 1247.67 Q1378.08 1250.86 1372.43 1256.63 Z" fill="#000000" fill-rule="nonzero" fill-opacity="1"></path><path clip-path="url(#clip000)" d="M1389.29 1229.95 L1395.5 1229.95 L1395.5 1208.53 L1388.75 1209.89 L1388.75 1206.43 L1395.46 1205.07 L1399.26 1205.07 L1399.26 1229.95 L1405.47 1229.95 L1405.47 1233.15 L1389.29 1233.15 L1389.29 1229.95 Z" fill="#000000" fill-rule="nonzero" fill-opacity="1"></path><path clip-path="url(#clip000)" d="M1416.41 1229.95 L1429.67 1229.95 L1429.67 1233.15 L1411.84 1233.15 L1411.84 1229.95 Q1414.01 1227.72 1417.73 1223.95 Q1421.47 1220.17 1422.43 1219.08 Q1424.26 1217.03 1424.97 1215.62 Q1425.7 1214.19 1425.7 1212.82 Q1425.7 1210.58 1424.12 1209.17 Q1422.56 1207.76 1420.04 1207.76 Q1418.26 1207.76 1416.26 1208.38 Q1414.29 1209 1412.03 1210.26 L1412.03 1206.43 Q1414.33 1205.5 1416.32 1205.03 Q1418.31 1204.56 1419.97 1204.56 Q1424.33 1204.56 1426.93 1206.75 Q1429.52 1208.93 1429.52 1212.58 Q1429.52 1214.31 1428.86 1215.87 Q1428.22 1217.41 1426.51 1219.52 Q1426.04 1220.06 1423.52 1222.68 Q1421 1225.27 1416.41 1229.95 Z" fill="#000000" fill-rule="nonzero" fill-opacity="1"></path><path clip-path="url(#clip000)" d="M1929.03 1256.63 L1945.35 1256.63 L1945.35 1260.56 L1923.41 1260.56 L1923.41 1256.63 Q1926.07 1253.87 1930.65 1249.24 Q1935.26 1244.59 1936.44 1243.25 Q1938.68 1240.72 1939.56 1238.99 Q1940.47 1237.23 1940.47 1235.54 Q1940.47 1232.78 1938.52 1231.05 Q1936.6 1229.31 1933.5 1229.31 Q1931.3 1229.31 1928.85 1230.08 Q1926.42 1230.84 1923.64 1232.39 L1923.64 1227.67 Q1926.46 1226.53 1928.92 1225.96 Q1931.37 1225.38 1933.41 1225.38 Q1938.78 1225.38 1941.97 1228.06 Q1945.17 1230.75 1945.17 1235.24 Q1945.17 1237.37 1944.36 1239.29 Q1943.57 1241.19 1941.46 1243.78 Q1940.88 1244.45 1937.78 1247.67 Q1934.68 1250.86 1929.03 1256.63 Z" fill="#000000" fill-rule="nonzero" fill-opacity="1"></path><path clip-path="url(#clip000)" d="M1945.9 1229.95 L1952.1 1229.95 L1952.1 1208.53 L1945.35 1209.89 L1945.35 1206.43 L1952.07 1205.07 L1955.86 1205.07 L1955.86 1229.95 L1962.07 1229.95 L1962.07 1233.15 L1945.9 1233.15 L1945.9 1229.95 Z" fill="#000000" fill-rule="nonzero" fill-opacity="1"></path><path clip-path="url(#clip000)" d="M1981.26 1218.01 Q1983.98 1218.59 1985.51 1220.44 Q1987.05 1222.28 1987.05 1224.99 Q1987.05 1229.15 1984.19 1231.42 Q1981.33 1233.7 1976.06 1233.7 Q1974.3 1233.7 1972.42 1233.34 Q1970.55 1233 1968.56 1232.31 L1968.56 1228.64 Q1970.14 1229.56 1972.02 1230.03 Q1973.9 1230.5 1975.95 1230.5 Q1979.52 1230.5 1981.39 1229.09 Q1983.27 1227.68 1983.27 1224.99 Q1983.27 1222.51 1981.52 1221.11 Q1979.79 1219.7 1976.69 1219.7 L1973.41 1219.7 L1973.41 1216.58 L1976.84 1216.58 Q1979.64 1216.58 1981.12 1215.47 Q1982.61 1214.34 1982.61 1212.24 Q1982.61 1210.07 1981.07 1208.93 Q1979.54 1207.76 1976.69 1207.76 Q1975.12 1207.76 1973.34 1208.1 Q1971.55 1208.44 1969.41 1209.15 L1969.41 1205.77 Q1971.57 1205.17 1973.45 1204.86 Q1975.35 1204.56 1977.02 1204.56 Q1981.35 1204.56 1983.87 1206.54 Q1986.39 1208.49 1986.39 1211.84 Q1986.39 1214.17 1985.05 1215.79 Q1983.72 1217.39 1981.26 1218.01 Z" fill="#000000" fill-rule="nonzero" fill-opacity="1"></path><path clip-path="url(#clip000)" d="M2485.56 1256.63 L2501.88 1256.63 L2501.88 1260.56 L2479.94 1260.56 L2479.94 1256.63 Q2482.6 1253.87 2487.18 1249.24 Q2491.79 1244.59 2492.97 1243.25 Q2495.21 1240.72 2496.09 1238.99 Q2497 1237.23 2497 1235.54 Q2497 1232.78 2495.05 1231.05 Q2493.13 1229.31 2490.03 1229.31 Q2487.83 1229.31 2485.38 1230.08 Q2482.95 1230.84 2480.17 1232.39 L2480.17 1227.67 Q2482.99 1226.53 2485.45 1225.96 Q2487.9 1225.38 2489.94 1225.38 Q2495.31 1225.38 2498.5 1228.06 Q2501.7 1230.75 2501.7 1235.24 Q2501.7 1237.37 2500.89 1239.29 Q2500.1 1241.19 2497.99 1243.78 Q2497.41 1244.45 2494.31 1247.67 Q2491.21 1250.86 2485.56 1256.63 Z" fill="#000000" fill-rule="nonzero" fill-opacity="1"></path><path clip-path="url(#clip000)" d="M2502.43 1229.95 L2508.63 1229.95 L2508.63 1208.53 L2501.88 1209.89 L2501.88 1206.43 L2508.59 1205.07 L2512.39 1205.07 L2512.39 1229.95 L2518.6 1229.95 L2518.6 1233.15 L2502.43 1233.15 L2502.43 1229.95 Z" fill="#000000" fill-rule="nonzero" fill-opacity="1"></path><path clip-path="url(#clip000)" d="M2536.71 1208.38 L2527.12 1223.37 L2536.71 1223.37 L2536.71 1208.38 M2535.72 1205.07 L2540.49 1205.07 L2540.49 1223.37 L2544.5 1223.37 L2544.5 1226.53 L2540.49 1226.53 L2540.49 1233.15 L2536.71 1233.15 L2536.71 1226.53 L2524.04 1226.53 L2524.04 1222.86 L2535.72 1205.07 Z" fill="#000000" fill-rule="nonzero" fill-opacity="1"></path><path clip-path="url(#clip000)" d="M3043.15 1256.63 L3059.47 1256.63 L3059.47 1260.56 L3037.53 1260.56 L3037.53 1256.63 Q3040.19 1253.87 3044.77 1249.24 Q3049.38 1244.59 3050.56 1243.25 Q3052.81 1240.72 3053.69 1238.99 Q3054.59 1237.23 3054.59 1235.54 Q3054.59 1232.78 3052.64 1231.05 Q3050.72 1229.31 3047.62 1229.31 Q3045.42 1229.31 3042.97 1230.08 Q3040.54 1230.84 3037.76 1232.39 L3037.76 1227.67 Q3040.58 1226.53 3043.04 1225.96 Q3045.49 1225.38 3047.53 1225.38 Q3052.9 1225.38 3056.09 1228.06 Q3059.29 1230.75 3059.29 1235.24 Q3059.29 1237.37 3058.48 1239.29 Q3057.69 1241.19 3055.58 1243.78 Q3055 1244.45 3051.9 1247.67 Q3048.8 1250.86 3043.15 1256.63 Z" fill="#000000" fill-rule="nonzero" fill-opacity="1"></path><path clip-path="url(#clip000)" d="M3060.02 1229.95 L3066.22 1229.95 L3066.22 1208.53 L3059.47 1209.89 L3059.47 1206.43 L3066.19 1205.07 L3069.99 1205.07 L3069.99 1229.95 L3076.19 1229.95 L3076.19 1233.15 L3060.02 1233.15 L3060.02 1229.95 Z" fill="#000000" fill-rule="nonzero" fill-opacity="1"></path><path clip-path="url(#clip000)" d="M3083.9 1205.07 L3098.82 1205.07 L3098.82 1208.27 L3087.38 1208.27 L3087.38 1215.15 Q3088.21 1214.87 3089.04 1214.74 Q3089.87 1214.59 3090.69 1214.59 Q3095.4 1214.59 3098.14 1217.16 Q3100.89 1219.74 3100.89 1224.14 Q3100.89 1228.68 3098.07 1231.2 Q3095.24 1233.7 3090.11 1233.7 Q3088.34 1233.7 3086.5 1233.4 Q3084.67 1233.1 3082.72 1232.49 L3082.72 1228.68 Q3084.41 1229.6 3086.22 1230.05 Q3088.02 1230.5 3090.03 1230.5 Q3093.29 1230.5 3095.19 1228.79 Q3097.09 1227.08 3097.09 1224.14 Q3097.09 1221.21 3095.19 1219.5 Q3093.29 1217.79 3090.03 1217.79 Q3088.51 1217.79 3086.99 1218.12 Q3085.48 1218.46 3083.9 1219.18 L3083.9 1205.07 Z" fill="#000000" fill-rule="nonzero" fill-opacity="1"></path><polyline clip-path="url(#clip000)" style="stroke:#000000; stroke-linecap:round; stroke-linejoin:round; stroke-width:4; stroke-opacity:1; fill:none" points="200.709,1176.1 200.709,99.2801 "></polyline>
<polyline clip-path="url(#clip000)" style="stroke:#000000; stroke-linecap:round; stroke-linejoin:round; stroke-width:4; stroke-opacity:1; fill:none" points="200.709,1127.16 219.607,1127.16 "></polyline>
<polyline clip-path="url(#clip000)" style="stroke:#000000; stroke-linecap:round; stroke-linejoin:round; stroke-width:4; stroke-opacity:1; fill:none" points="200.709,882.423 219.607,882.423 "></polyline>
<polyline clip-path="url(#clip000)" style="stroke:#000000; stroke-linecap:round; stroke-linejoin:round; stroke-width:4; stroke-opacity:1; fill:none" points="200.709,637.691 219.607,637.691 "></polyline>
<polyline clip-path="url(#clip000)" style="stroke:#000000; stroke-linecap:round; stroke-linejoin:round; stroke-width:4; stroke-opacity:1; fill:none" points="200.709,392.959 219.607,392.959 "></polyline>
<polyline clip-path="url(#clip000)" style="stroke:#000000; stroke-linecap:round; stroke-linejoin:round; stroke-width:4; stroke-opacity:1; fill:none" points="200.709,148.227 219.607,148.227 "></polyline>
<path clip-path="url(#clip000)" d="M47.3625 1127.61 L77.0383 1127.61 L77.0383 1131.54 L47.3625 1131.54 L47.3625 1127.61 Z" fill="#000000" fill-rule="nonzero" fill-opacity="1"></path><path clip-path="url(#clip000)" d="M97.1307 1112.95 Q93.5197 1112.95 91.691 1116.52 Q89.8854 1120.06 89.8854 1127.19 Q89.8854 1134.3 91.691 1137.86 Q93.5197 1141.4 97.1307 1141.4 Q100.765 1141.4 102.571 1137.86 Q104.399 1134.3 104.399 1127.19 Q104.399 1120.06 102.571 1116.52 Q100.765 1112.95 97.1307 1112.95 M97.1307 1109.25 Q102.941 1109.25 105.996 1113.86 Q109.075 1118.44 109.075 1127.19 Q109.075 1135.92 105.996 1140.52 Q102.941 1145.11 97.1307 1145.11 Q91.3206 1145.11 88.2419 1140.52 Q85.1864 1135.92 85.1864 1127.19 Q85.1864 1118.44 88.2419 1113.86 Q91.3206 1109.25 97.1307 1109.25 Z" fill="#000000" fill-rule="nonzero" fill-opacity="1"></path><path clip-path="url(#clip000)" d="M117.293 1138.56 L122.177 1138.56 L122.177 1144.44 L117.293 1144.44 L117.293 1138.56 Z" fill="#000000" fill-rule="nonzero" fill-opacity="1"></path><path clip-path="url(#clip000)" d="M136.39 1140.5 L152.709 1140.5 L152.709 1144.44 L130.765 1144.44 L130.765 1140.5 Q133.427 1137.75 138.01 1133.12 Q142.617 1128.46 143.797 1127.12 Q146.043 1124.6 146.922 1122.86 Q147.825 1121.1 147.825 1119.41 Q147.825 1116.66 145.88 1114.92 Q143.959 1113.19 140.857 1113.19 Q138.658 1113.19 136.205 1113.95 Q133.774 1114.71 130.996 1116.26 L130.996 1111.54 Q133.82 1110.41 136.274 1109.83 Q138.728 1109.25 140.765 1109.25 Q146.135 1109.25 149.33 1111.94 Q152.524 1114.62 152.524 1119.11 Q152.524 1121.24 151.714 1123.16 Q150.927 1125.06 148.82 1127.65 Q148.242 1128.32 145.14 1131.54 Q142.038 1134.74 136.39 1140.5 Z" fill="#000000" fill-rule="nonzero" fill-opacity="1"></path><path clip-path="url(#clip000)" d="M46.9921 882.875 L76.6679 882.875 L76.6679 886.81 L46.9921 886.81 L46.9921 882.875 Z" fill="#000000" fill-rule="nonzero" fill-opacity="1"></path><path clip-path="url(#clip000)" d="M96.7604 868.222 Q93.1493 868.222 91.3206 871.787 Q89.515 875.328 89.515 882.458 Q89.515 889.564 91.3206 893.129 Q93.1493 896.671 96.7604 896.671 Q100.395 896.671 102.2 893.129 Q104.029 889.564 104.029 882.458 Q104.029 875.328 102.2 871.787 Q100.395 868.222 96.7604 868.222 M96.7604 864.518 Q102.571 864.518 105.626 869.125 Q108.705 873.708 108.705 882.458 Q108.705 891.185 105.626 895.791 Q102.571 900.375 96.7604 900.375 Q90.9502 900.375 87.8715 895.791 Q84.816 891.185 84.816 882.458 Q84.816 873.708 87.8715 869.125 Q90.9502 864.518 96.7604 864.518 Z" fill="#000000" fill-rule="nonzero" fill-opacity="1"></path><path clip-path="url(#clip000)" d="M116.922 893.824 L121.807 893.824 L121.807 899.703 L116.922 899.703 L116.922 893.824 Z" fill="#000000" fill-rule="nonzero" fill-opacity="1"></path><path clip-path="url(#clip000)" d="M132.802 895.768 L140.441 895.768 L140.441 869.403 L132.131 871.069 L132.131 866.81 L140.394 865.143 L145.07 865.143 L145.07 895.768 L152.709 895.768 L152.709 899.703 L132.802 899.703 L132.802 895.768 Z" fill="#000000" fill-rule="nonzero" fill-opacity="1"></path><path clip-path="url(#clip000)" d="M95.5335 623.49 Q91.9224 623.49 90.0937 627.055 Q88.2882 630.596 88.2882 637.726 Q88.2882 644.832 90.0937 648.397 Q91.9224 651.939 95.5335 651.939 Q99.1678 651.939 100.973 648.397 Q102.802 644.832 102.802 637.726 Q102.802 630.596 100.973 627.055 Q99.1678 623.49 95.5335 623.49 M95.5335 619.786 Q101.344 619.786 104.399 624.393 Q107.478 628.976 107.478 637.726 Q107.478 646.453 104.399 651.059 Q101.344 655.642 95.5335 655.642 Q89.7234 655.642 86.6447 651.059 Q83.5892 646.453 83.5892 637.726 Q83.5892 628.976 86.6447 624.393 Q89.7234 619.786 95.5335 619.786 Z" fill="#000000" fill-rule="nonzero" fill-opacity="1"></path><path clip-path="url(#clip000)" d="M115.695 649.091 L120.58 649.091 L120.58 654.971 L115.695 654.971 L115.695 649.091 Z" fill="#000000" fill-rule="nonzero" fill-opacity="1"></path><path clip-path="url(#clip000)" d="M140.765 623.49 Q137.154 623.49 135.325 627.055 Q133.519 630.596 133.519 637.726 Q133.519 644.832 135.325 648.397 Q137.154 651.939 140.765 651.939 Q144.399 651.939 146.205 648.397 Q148.033 644.832 148.033 637.726 Q148.033 630.596 146.205 627.055 Q144.399 623.49 140.765 623.49 M140.765 619.786 Q146.575 619.786 149.63 624.393 Q152.709 628.976 152.709 637.726 Q152.709 646.453 149.63 651.059 Q146.575 655.642 140.765 655.642 Q134.955 655.642 131.876 651.059 Q128.82 646.453 128.82 637.726 Q128.82 628.976 131.876 624.393 Q134.955 619.786 140.765 619.786 Z" fill="#000000" fill-rule="nonzero" fill-opacity="1"></path><path clip-path="url(#clip000)" d="M96.7604 378.757 Q93.1493 378.757 91.3206 382.322 Q89.515 385.864 89.515 392.994 Q89.515 400.1 91.3206 403.665 Q93.1493 407.206 96.7604 407.206 Q100.395 407.206 102.2 403.665 Q104.029 400.1 104.029 392.994 Q104.029 385.864 102.2 382.322 Q100.395 378.757 96.7604 378.757 M96.7604 375.054 Q102.571 375.054 105.626 379.66 Q108.705 384.244 108.705 392.994 Q108.705 401.72 105.626 406.327 Q102.571 410.91 96.7604 410.91 Q90.9502 410.91 87.8715 406.327 Q84.816 401.72 84.816 392.994 Q84.816 384.244 87.8715 379.66 Q90.9502 375.054 96.7604 375.054 Z" fill="#000000" fill-rule="nonzero" fill-opacity="1"></path><path clip-path="url(#clip000)" d="M116.922 404.359 L121.807 404.359 L121.807 410.239 L116.922 410.239 L116.922 404.359 Z" fill="#000000" fill-rule="nonzero" fill-opacity="1"></path><path clip-path="url(#clip000)" d="M132.802 406.304 L140.441 406.304 L140.441 379.938 L132.131 381.605 L132.131 377.345 L140.394 375.679 L145.07 375.679 L145.07 406.304 L152.709 406.304 L152.709 410.239 L132.802 410.239 L132.802 406.304 Z" fill="#000000" fill-rule="nonzero" fill-opacity="1"></path><path clip-path="url(#clip000)" d="M97.1307 134.025 Q93.5197 134.025 91.691 137.59 Q89.8854 141.132 89.8854 148.261 Q89.8854 155.368 91.691 158.933 Q93.5197 162.474 97.1307 162.474 Q100.765 162.474 102.571 158.933 Q104.399 155.368 104.399 148.261 Q104.399 141.132 102.571 137.59 Q100.765 134.025 97.1307 134.025 M97.1307 130.322 Q102.941 130.322 105.996 134.928 Q109.075 139.511 109.075 148.261 Q109.075 156.988 105.996 161.595 Q102.941 166.178 97.1307 166.178 Q91.3206 166.178 88.2419 161.595 Q85.1864 156.988 85.1864 148.261 Q85.1864 139.511 88.2419 134.928 Q91.3206 130.322 97.1307 130.322 Z" fill="#000000" fill-rule="nonzero" fill-opacity="1"></path><path clip-path="url(#clip000)" d="M117.293 159.627 L122.177 159.627 L122.177 165.507 L117.293 165.507 L117.293 159.627 Z" fill="#000000" fill-rule="nonzero" fill-opacity="1"></path><path clip-path="url(#clip000)" d="M136.39 161.571 L152.709 161.571 L152.709 165.507 L130.765 165.507 L130.765 161.571 Q133.427 158.817 138.01 154.187 Q142.617 149.534 143.797 148.192 Q146.043 145.669 146.922 143.933 Q147.825 142.173 147.825 140.484 Q147.825 137.729 145.88 135.993 Q143.959 134.257 140.857 134.257 Q138.658 134.257 136.205 135.021 Q133.774 135.785 130.996 137.335 L130.996 132.613 Q133.82 131.479 136.274 130.9 Q138.728 130.322 140.765 130.322 Q146.135 130.322 149.33 133.007 Q152.524 135.692 152.524 140.183 Q152.524 142.312 151.714 144.234 Q150.927 146.132 148.82 148.724 Q148.242 149.396 145.14 152.613 Q142.038 155.808 136.39 161.571 Z" fill="#000000" fill-rule="nonzero" fill-opacity="1"></path><path clip-path="url(#clip000)" d="M824.645 34.1734 Q823.389 33.4443 821.89 33.1202 Q820.432 32.7556 818.65 32.7556 Q812.33 32.7556 808.928 36.8875 Q805.565 40.9789 805.565 48.6757 L805.565 72.576 L798.071 72.576 L798.071 27.2059 L805.565 27.2059 L805.565 34.2544 Q807.915 30.1225 811.682 28.1376 Q815.45 26.1121 820.837 26.1121 Q821.607 26.1121 822.539 26.2337 Q823.47 26.3147 824.605 26.5172 L824.645 34.1734 Z" fill="#000000" fill-rule="nonzero" fill-opacity="1"></path><path clip-path="url(#clip000)" d="M853.082 49.7694 Q844.049 49.7694 840.565 51.8354 Q837.081 53.9013 837.081 58.8839 Q837.081 62.8538 839.674 65.2034 Q842.307 67.5124 846.804 67.5124 Q853.001 67.5124 856.728 63.1374 Q860.496 58.7219 860.496 51.4303 L860.496 49.7694 L853.082 49.7694 M867.949 46.6907 L867.949 72.576 L860.496 72.576 L860.496 65.6895 Q857.944 69.8214 854.136 71.8063 Q850.328 73.7508 844.819 73.7508 Q837.851 73.7508 833.719 69.8619 Q829.628 65.9325 829.628 59.3701 Q829.628 51.7138 834.732 47.825 Q839.876 43.9361 850.044 43.9361 L860.496 43.9361 L860.496 43.2069 Q860.496 38.0623 857.093 35.2672 Q853.731 32.4315 847.614 32.4315 Q843.725 32.4315 840.039 33.3632 Q836.352 34.295 832.949 36.1584 L832.949 29.2718 Q837.041 27.692 840.889 26.9223 Q844.738 26.1121 848.383 26.1121 Q858.227 26.1121 863.088 31.2163 Q867.949 36.3204 867.949 46.6907 Z" fill="#000000" fill-rule="nonzero" fill-opacity="1"></path><path clip-path="url(#clip000)" d="M921.016 45.1919 L921.016 72.576 L913.562 72.576 L913.562 45.4349 Q913.562 38.994 911.051 35.7938 Q908.539 32.5936 903.516 32.5936 Q897.48 32.5936 893.997 36.4419 Q890.513 40.2903 890.513 46.9338 L890.513 72.576 L883.019 72.576 L883.019 27.2059 L890.513 27.2059 L890.513 34.2544 Q893.186 30.163 896.792 28.1376 Q900.437 26.1121 905.177 26.1121 Q912.995 26.1121 917.006 30.9732 Q921.016 35.7938 921.016 45.1919 Z" fill="#000000" fill-rule="nonzero" fill-opacity="1"></path><path clip-path="url(#clip000)" d="M965.738 34.0924 L965.738 9.54393 L973.192 9.54393 L973.192 72.576 L965.738 72.576 L965.738 65.7705 Q963.389 69.8214 959.783 71.8063 Q956.218 73.7508 951.195 73.7508 Q942.972 73.7508 937.787 67.1883 Q932.642 60.6258 932.642 49.9314 Q932.642 39.2371 937.787 32.6746 Q942.972 26.1121 951.195 26.1121 Q956.218 26.1121 959.783 28.0971 Q963.389 30.0415 965.738 34.0924 M940.339 49.9314 Q940.339 58.1548 943.701 62.8538 Q947.104 67.5124 953.018 67.5124 Q958.933 67.5124 962.335 62.8538 Q965.738 58.1548 965.738 49.9314 Q965.738 41.7081 962.335 37.0496 Q958.933 32.3505 953.018 32.3505 Q947.104 32.3505 943.701 37.0496 Q940.339 41.7081 940.339 49.9314 Z" fill="#000000" fill-rule="nonzero" fill-opacity="1"></path><path clip-path="url(#clip000)" d="M1006.13 32.4315 Q1000.13 32.4315 996.646 37.1306 Q993.163 41.7891 993.163 49.9314 Q993.163 58.0738 996.606 62.7728 Q1000.09 67.4314 1006.13 67.4314 Q1012.08 67.4314 1015.56 62.7323 Q1019.05 58.0333 1019.05 49.9314 Q1019.05 41.8701 1015.56 37.1711 Q1012.08 32.4315 1006.13 32.4315 M1006.13 26.1121 Q1015.85 26.1121 1021.4 32.4315 Q1026.95 38.7509 1026.95 49.9314 Q1026.95 61.0714 1021.4 67.4314 Q1015.85 73.7508 1006.13 73.7508 Q996.363 73.7508 990.813 67.4314 Q985.304 61.0714 985.304 49.9314 Q985.304 38.7509 990.813 32.4315 Q996.363 26.1121 1006.13 26.1121 Z" fill="#000000" fill-rule="nonzero" fill-opacity="1"></path><path clip-path="url(#clip000)" d="M1074.63 35.9153 Q1077.42 30.8922 1081.31 28.5022 Q1085.2 26.1121 1090.47 26.1121 Q1097.55 26.1121 1101.4 31.0947 Q1105.25 36.0368 1105.25 45.1919 L1105.25 72.576 L1097.76 72.576 L1097.76 45.4349 Q1097.76 38.913 1095.45 35.7533 Q1093.14 32.5936 1088.4 32.5936 Q1082.61 32.5936 1079.24 36.4419 Q1075.88 40.2903 1075.88 46.9338 L1075.88 72.576 L1068.39 72.576 L1068.39 45.4349 Q1068.39 38.8725 1066.08 35.7533 Q1063.77 32.5936 1058.95 32.5936 Q1053.24 32.5936 1049.88 36.4824 Q1046.51 40.3308 1046.51 46.9338 L1046.51 72.576 L1039.02 72.576 L1039.02 27.2059 L1046.51 27.2059 L1046.51 34.2544 Q1049.07 30.082 1052.63 28.0971 Q1056.19 26.1121 1061.1 26.1121 Q1066.04 26.1121 1069.48 28.6237 Q1072.97 31.1352 1074.63 35.9153 Z" fill="#000000" fill-rule="nonzero" fill-opacity="1"></path><path clip-path="url(#clip000)" d="M1146.21 9.54393 L1153.7 9.54393 L1153.7 46.7717 L1175.94 27.2059 L1185.46 27.2059 L1161.4 48.4326 L1186.47 72.576 L1176.75 72.576 L1153.7 50.4176 L1153.7 72.576 L1146.21 72.576 L1146.21 9.54393 Z" fill="#000000" fill-rule="nonzero" fill-opacity="1"></path><path clip-path="url(#clip000)" d="M1221.88 34.9026 L1273.81 34.9026 L1273.81 41.7081 L1221.88 41.7081 L1221.88 34.9026 M1221.88 51.4303 L1273.81 51.4303 L1273.81 58.3168 L1221.88 58.3168 L1221.88 51.4303 Z" fill="#000000" fill-rule="nonzero" fill-opacity="1"></path><path clip-path="url(#clip000)" d="M1340.33 19.2256 L1319.67 51.5113 L1340.33 51.5113 L1340.33 19.2256 M1338.18 12.096 L1348.47 12.096 L1348.47 51.5113 L1357.1 51.5113 L1357.1 58.3168 L1348.47 58.3168 L1348.47 72.576 L1340.33 72.576 L1340.33 58.3168 L1313.02 58.3168 L1313.02 50.4176 L1338.18 12.096 Z" fill="#000000" fill-rule="nonzero" fill-opacity="1"></path><path clip-path="url(#clip000)" d="M1371.48 62.2867 L1380.02 62.2867 L1380.02 69.2543 L1373.38 82.2172 L1368.15 82.2172 L1371.48 69.2543 L1371.48 62.2867 Z" fill="#000000" fill-rule="nonzero" fill-opacity="1"></path><path clip-path="url(#clip000)" d="M1458.9 14.0809 L1458.9 22.0612 Q1454.24 19.8332 1450.1 18.7395 Q1445.97 17.6457 1442.12 17.6457 Q1435.44 17.6457 1431.79 20.2383 Q1428.19 22.8309 1428.19 27.611 Q1428.19 31.6214 1430.58 33.6873 Q1433.01 35.7128 1439.73 36.9686 L1444.68 37.9813 Q1453.83 39.7232 1458.17 44.1387 Q1462.54 48.5136 1462.54 55.8863 Q1462.54 64.6767 1456.63 69.2137 Q1450.75 73.7508 1439.37 73.7508 Q1435.08 73.7508 1430.21 72.7785 Q1425.39 71.8063 1420.21 69.9024 L1420.21 61.4765 Q1425.19 64.2716 1429.97 65.6895 Q1434.75 67.1073 1439.37 67.1073 Q1446.38 67.1073 1450.19 64.3527 Q1453.99 61.598 1453.99 56.4939 Q1453.99 52.0379 1451.24 49.5264 Q1448.52 47.0148 1442.29 45.759 L1437.3 44.7868 Q1428.15 42.9639 1424.06 39.075 Q1419.97 35.1862 1419.97 28.2591 Q1419.97 20.2383 1425.6 15.6203 Q1431.27 11.0023 1441.19 11.0023 Q1445.45 11.0023 1449.86 11.7719 Q1454.28 12.5416 1458.9 14.0809 Z" fill="#000000" fill-rule="nonzero" fill-opacity="1"></path><path clip-path="url(#clip000)" d="M1502.32 34.9026 L1554.25 34.9026 L1554.25 41.7081 L1502.32 41.7081 L1502.32 34.9026 M1502.32 51.4303 L1554.25 51.4303 L1554.25 58.3168 L1502.32 58.3168 L1502.32 51.4303 Z" fill="#000000" fill-rule="nonzero" fill-opacity="1"></path><path clip-path="url(#clip000)" d="M1631.83 80.2727 L1631.83 86.106 L1629.32 86.106 Q1619.23 86.106 1615.79 83.1084 Q1612.38 80.1107 1612.38 71.1582 L1612.38 61.4765 Q1612.38 55.3597 1610.2 53.0101 Q1608.01 50.6606 1602.26 50.6606 L1599.79 50.6606 L1599.79 44.8678 L1602.26 44.8678 Q1608.05 44.8678 1610.2 42.5588 Q1612.38 40.2093 1612.38 34.1734 L1612.38 24.4513 Q1612.38 15.4988 1615.79 12.5416 Q1619.23 9.54393 1629.32 9.54393 L1631.83 9.54393 L1631.83 15.3367 L1629.07 15.3367 Q1623.36 15.3367 1621.62 17.1191 Q1619.88 18.9015 1619.88 24.6133 L1619.88 34.6595 Q1619.88 41.0195 1618.01 43.8956 Q1616.19 46.7717 1611.74 47.7845 Q1616.23 48.8782 1618.06 51.7544 Q1619.88 54.6305 1619.88 60.9499 L1619.88 70.9961 Q1619.88 76.7079 1621.62 78.4903 Q1623.36 80.2727 1629.07 80.2727 L1631.83 80.2727 Z" fill="#000000" fill-rule="nonzero" fill-opacity="1"></path><path clip-path="url(#clip000)" d="M1658.12 65.6895 L1686.68 65.6895 L1686.68 72.576 L1648.27 72.576 L1648.27 65.6895 Q1652.93 60.8689 1660.95 52.7671 Q1669.02 44.6248 1671.08 42.2752 Q1675.01 37.8598 1676.55 34.8216 Q1678.13 31.7429 1678.13 28.7857 Q1678.13 23.9651 1674.73 20.927 Q1671.37 17.8888 1665.94 17.8888 Q1662.09 17.8888 1657.79 19.2256 Q1653.54 20.5624 1648.68 23.2765 L1648.68 15.0127 Q1653.62 13.0277 1657.92 12.015 Q1662.21 11.0023 1665.77 11.0023 Q1675.17 11.0023 1680.76 15.7013 Q1686.35 20.4004 1686.35 28.2591 Q1686.35 31.9859 1684.94 35.3482 Q1683.56 38.6699 1679.87 43.2069 Q1678.86 44.3817 1673.43 50.0125 Q1668 55.6027 1658.12 65.6895 Z" fill="#000000" fill-rule="nonzero" fill-opacity="1"></path><path clip-path="url(#clip000)" d="M1704.7 62.2867 L1713.25 62.2867 L1713.25 69.2543 L1706.61 82.2172 L1701.38 82.2172 L1704.7 69.2543 L1704.7 62.2867 Z" fill="#000000" fill-rule="nonzero" fill-opacity="1"></path><path clip-path="url(#clip000)" d="M1748.74 39.075 Q1743.23 39.075 1739.99 42.8424 Q1736.79 46.6097 1736.79 53.1722 Q1736.79 59.6941 1739.99 63.502 Q1743.23 67.2693 1748.74 67.2693 Q1754.25 67.2693 1757.45 63.502 Q1760.69 59.6941 1760.69 53.1722 Q1760.69 46.6097 1757.45 42.8424 Q1754.25 39.075 1748.74 39.075 M1764.98 13.4328 L1764.98 20.8865 Q1761.9 19.4281 1758.74 18.6585 Q1755.62 17.8888 1752.55 17.8888 Q1744.44 17.8888 1740.15 23.3575 Q1735.9 28.8262 1735.29 39.8852 Q1737.68 36.3609 1741.28 34.4975 Q1744.89 32.5936 1749.22 32.5936 Q1758.34 32.5936 1763.6 38.1433 Q1768.91 43.6525 1768.91 53.1722 Q1768.91 62.4892 1763.4 68.12 Q1757.89 73.7508 1748.74 73.7508 Q1738.25 73.7508 1732.7 65.73 Q1727.15 57.6687 1727.15 42.3968 Q1727.15 28.0566 1733.95 19.5497 Q1740.76 11.0023 1752.22 11.0023 Q1755.3 11.0023 1758.42 11.6099 Q1761.58 12.2175 1764.98 13.4328 Z" fill="#000000" fill-rule="nonzero" fill-opacity="1"></path><path clip-path="url(#clip000)" d="M1783.86 62.2867 L1792.41 62.2867 L1792.41 69.2543 L1785.76 82.2172 L1780.54 82.2172 L1783.86 69.2543 L1783.86 62.2867 Z" fill="#000000" fill-rule="nonzero" fill-opacity="1"></path><path clip-path="url(#clip000)" d="M1809.62 71.3202 L1809.62 63.8666 Q1812.7 65.3249 1815.86 66.0946 Q1819.02 66.8642 1822.06 66.8642 Q1830.16 66.8642 1834.41 61.436 Q1838.71 55.9673 1839.32 44.8678 Q1836.97 48.3516 1833.36 50.215 Q1829.76 52.0784 1825.38 52.0784 Q1816.31 52.0784 1811 46.6097 Q1805.73 41.1005 1805.73 31.5808 Q1805.73 22.2638 1811.24 16.633 Q1816.75 11.0023 1825.91 11.0023 Q1836.4 11.0023 1841.91 19.0636 Q1847.46 27.0843 1847.46 42.3968 Q1847.46 56.6965 1840.65 65.2439 Q1833.89 73.7508 1822.42 73.7508 Q1819.34 73.7508 1816.18 73.1431 Q1813.03 72.5355 1809.62 71.3202 M1825.91 45.678 Q1831.42 45.678 1834.62 41.9107 Q1837.86 38.1433 1837.86 31.5808 Q1837.86 25.0589 1834.62 21.2916 Q1831.42 17.4837 1825.91 17.4837 Q1820.4 17.4837 1817.16 21.2916 Q1813.96 25.0589 1813.96 31.5808 Q1813.96 38.1433 1817.16 41.9107 Q1820.4 45.678 1825.91 45.678 Z" fill="#000000" fill-rule="nonzero" fill-opacity="1"></path><path clip-path="url(#clip000)" d="M1863.01 62.2867 L1871.56 62.2867 L1871.56 69.2543 L1864.92 82.2172 L1859.69 82.2172 L1863.01 69.2543 L1863.01 62.2867 Z" fill="#000000" fill-rule="nonzero" fill-opacity="1"></path><path clip-path="url(#clip000)" d="M1889.95 65.6895 L1903.32 65.6895 L1903.32 19.5497 L1888.78 22.4663 L1888.78 15.0127 L1903.24 12.096 L1911.42 12.096 L1911.42 65.6895 L1924.79 65.6895 L1924.79 72.576 L1889.95 72.576 L1889.95 65.6895 Z" fill="#000000" fill-rule="nonzero" fill-opacity="1"></path><path clip-path="url(#clip000)" d="M1958.82 17.4837 Q1952.5 17.4837 1949.3 23.7221 Q1946.14 29.92 1946.14 42.3968 Q1946.14 54.833 1949.3 61.0714 Q1952.5 67.2693 1958.82 67.2693 Q1965.18 67.2693 1968.34 61.0714 Q1971.54 54.833 1971.54 42.3968 Q1971.54 29.92 1968.34 23.7221 Q1965.18 17.4837 1958.82 17.4837 M1958.82 11.0023 Q1968.99 11.0023 1974.33 19.0636 Q1979.72 27.0843 1979.72 42.3968 Q1979.72 57.6687 1974.33 65.73 Q1968.99 73.7508 1958.82 73.7508 Q1948.65 73.7508 1943.26 65.73 Q1937.91 57.6687 1937.91 42.3968 Q1937.91 27.0843 1943.26 19.0636 Q1948.65 11.0023 1958.82 11.0023 Z" fill="#000000" fill-rule="nonzero" fill-opacity="1"></path><path clip-path="url(#clip000)" d="M1994.95 62.2867 L2003.5 62.2867 L2003.5 69.2543 L1996.86 82.2172 L1991.63 82.2172 L1994.95 69.2543 L1994.95 62.2867 Z" fill="#000000" fill-rule="nonzero" fill-opacity="1"></path><path clip-path="url(#clip000)" d="M2021.89 65.6895 L2035.26 65.6895 L2035.26 19.5497 L2020.72 22.4663 L2020.72 15.0127 L2035.18 12.096 L2043.36 12.096 L2043.36 65.6895 L2056.73 65.6895 L2056.73 72.576 L2021.89 72.576 L2021.89 65.6895 Z" fill="#000000" fill-rule="nonzero" fill-opacity="1"></path><path clip-path="url(#clip000)" d="M2074.67 65.6895 L2088.04 65.6895 L2088.04 19.5497 L2073.5 22.4663 L2073.5 15.0127 L2087.96 12.096 L2096.14 12.096 L2096.14 65.6895 L2109.51 65.6895 L2109.51 72.576 L2074.67 72.576 L2074.67 65.6895 Z" fill="#000000" fill-rule="nonzero" fill-opacity="1"></path><path clip-path="url(#clip000)" d="M2126.89 62.2867 L2135.44 62.2867 L2135.44 69.2543 L2128.79 82.2172 L2123.57 82.2172 L2126.89 69.2543 L2126.89 62.2867 Z" fill="#000000" fill-rule="nonzero" fill-opacity="1"></path><path clip-path="url(#clip000)" d="M2153.83 65.6895 L2167.2 65.6895 L2167.2 19.5497 L2152.65 22.4663 L2152.65 15.0127 L2167.11 12.096 L2175.3 12.096 L2175.3 65.6895 L2188.67 65.6895 L2188.67 72.576 L2153.83 72.576 L2153.83 65.6895 Z" fill="#000000" fill-rule="nonzero" fill-opacity="1"></path><path clip-path="url(#clip000)" d="M2212.24 65.6895 L2240.8 65.6895 L2240.8 72.576 L2202.4 72.576 L2202.4 65.6895 Q2207.06 60.8689 2215.08 52.7671 Q2223.14 44.6248 2225.2 42.2752 Q2229.13 37.8598 2230.67 34.8216 Q2232.25 31.7429 2232.25 28.7857 Q2232.25 23.9651 2228.85 20.927 Q2225.49 17.8888 2220.06 17.8888 Q2216.21 17.8888 2211.92 19.2256 Q2207.66 20.5624 2202.8 23.2765 L2202.8 15.0127 Q2207.75 13.0277 2212.04 12.015 Q2216.33 11.0023 2219.9 11.0023 Q2229.3 11.0023 2234.89 15.7013 Q2240.48 20.4004 2240.48 28.2591 Q2240.48 31.9859 2239.06 35.3482 Q2237.68 38.6699 2234 43.2069 Q2232.98 44.3817 2227.55 50.0125 Q2222.13 55.6027 2212.24 65.6895 Z" fill="#000000" fill-rule="nonzero" fill-opacity="1"></path><path clip-path="url(#clip000)" d="M2258.83 62.2867 L2267.37 62.2867 L2267.37 69.2543 L2260.73 82.2172 L2255.51 82.2172 L2258.83 69.2543 L2258.83 62.2867 Z" fill="#000000" fill-rule="nonzero" fill-opacity="1"></path><path clip-path="url(#clip000)" d="M2285.77 65.6895 L2299.13 65.6895 L2299.13 19.5497 L2284.59 22.4663 L2284.59 15.0127 L2299.05 12.096 L2307.24 12.096 L2307.24 65.6895 L2320.6 65.6895 L2320.6 72.576 L2285.77 72.576 L2285.77 65.6895 Z" fill="#000000" fill-rule="nonzero" fill-opacity="1"></path><path clip-path="url(#clip000)" d="M2337.21 12.096 L2369.34 12.096 L2369.34 18.9825 L2344.71 18.9825 L2344.71 33.8088 Q2346.49 33.2012 2348.27 32.9176 Q2350.05 32.5936 2351.84 32.5936 Q2361.96 32.5936 2367.88 38.1433 Q2373.79 43.6931 2373.79 53.1722 Q2373.79 62.9348 2367.72 68.3631 Q2361.64 73.7508 2350.58 73.7508 Q2346.77 73.7508 2342.8 73.1026 Q2338.87 72.4545 2334.66 71.1582 L2334.66 62.9348 Q2338.31 64.9198 2342.19 65.892 Q2346.08 66.8642 2350.42 66.8642 Q2357.43 66.8642 2361.52 63.1779 Q2365.61 59.4916 2365.61 53.1722 Q2365.61 46.8528 2361.52 43.1664 Q2357.43 39.4801 2350.42 39.4801 Q2347.14 39.4801 2343.86 40.2093 Q2340.61 40.9384 2337.21 42.4778 L2337.21 12.096 Z" fill="#000000" fill-rule="nonzero" fill-opacity="1"></path><path clip-path="url(#clip000)" d="M2390.77 62.2867 L2399.31 62.2867 L2399.31 69.2543 L2392.67 82.2172 L2387.44 82.2172 L2390.77 69.2543 L2390.77 62.2867 Z" fill="#000000" fill-rule="nonzero" fill-opacity="1"></path><path clip-path="url(#clip000)" d="M2417.7 65.6895 L2431.07 65.6895 L2431.07 19.5497 L2416.53 22.4663 L2416.53 15.0127 L2430.99 12.096 L2439.17 12.096 L2439.17 65.6895 L2452.54 65.6895 L2452.54 72.576 L2417.7 72.576 L2417.7 65.6895 Z" fill="#000000" fill-rule="nonzero" fill-opacity="1"></path><path clip-path="url(#clip000)" d="M2487.58 39.075 Q2482.07 39.075 2478.83 42.8424 Q2475.63 46.6097 2475.63 53.1722 Q2475.63 59.6941 2478.83 63.502 Q2482.07 67.2693 2487.58 67.2693 Q2493.09 67.2693 2496.29 63.502 Q2499.53 59.6941 2499.53 53.1722 Q2499.53 46.6097 2496.29 42.8424 Q2493.09 39.075 2487.58 39.075 M2503.83 13.4328 L2503.83 20.8865 Q2500.75 19.4281 2497.59 18.6585 Q2494.47 17.8888 2491.39 17.8888 Q2483.29 17.8888 2478.99 23.3575 Q2474.74 28.8262 2474.13 39.8852 Q2476.52 36.3609 2480.13 34.4975 Q2483.73 32.5936 2488.07 32.5936 Q2497.18 32.5936 2502.45 38.1433 Q2507.76 43.6525 2507.76 53.1722 Q2507.76 62.4892 2502.25 68.12 Q2496.74 73.7508 2487.58 73.7508 Q2477.09 73.7508 2471.54 65.73 Q2465.99 57.6687 2465.99 42.3968 Q2465.99 28.0566 2472.8 19.5497 Q2479.6 11.0023 2491.07 11.0023 Q2494.14 11.0023 2497.26 11.6099 Q2500.42 12.2175 2503.83 13.4328 Z" fill="#000000" fill-rule="nonzero" fill-opacity="1"></path><path clip-path="url(#clip000)" d="M2523.35 80.2727 L2526.19 80.2727 Q2531.86 80.2727 2533.56 78.5308 Q2535.3 76.7889 2535.3 70.9961 L2535.3 60.9499 Q2535.3 54.6305 2537.12 51.7544 Q2538.95 48.8782 2543.44 47.7845 Q2538.95 46.7717 2537.12 43.8956 Q2535.3 41.0195 2535.3 34.6595 L2535.3 24.6133 Q2535.3 18.861 2533.56 17.1191 Q2531.86 15.3367 2526.19 15.3367 L2523.35 15.3367 L2523.35 9.54393 L2525.9 9.54393 Q2535.99 9.54393 2539.35 12.5416 Q2542.76 15.4988 2542.76 24.4513 L2542.76 34.1734 Q2542.76 40.2093 2544.94 42.5588 Q2547.13 44.8678 2552.88 44.8678 L2555.39 44.8678 L2555.39 50.6606 L2552.88 50.6606 Q2547.13 50.6606 2544.94 53.0101 Q2542.76 55.3597 2542.76 61.4765 L2542.76 71.1582 Q2542.76 80.1107 2539.35 83.1084 Q2535.99 86.106 2525.9 86.106 L2523.35 86.106 L2523.35 80.2727 Z" fill="#000000" fill-rule="nonzero" fill-opacity="1"></path><path clip-path="url(#clip002)" d="M284.258 2068.02 L841.248 1399.35 L1398.24 1007.76 L1955.23 930.407 L2512.22 720.83 L3069.21 658.424 L3069.21 588.957 L2512.22 588.153 L1955.23 613.781 L1398.24 402.024 L841.248 234.439 L284.258 -255.029  Z" fill="#7e99f4" fill-rule="evenodd" fill-opacity="0.25"></path>
<polyline clip-path="url(#clip002)" style="stroke:#7e99f4; stroke-linecap:round; stroke-linejoin:round; stroke-width:12.8; stroke-opacity:1; fill:none" points="284.258,906.498 841.248,816.896 1398.24,704.893 1955.23,772.094 2512.22,654.491 3069.21,623.691 "></polyline>
<path clip-path="url(#clip002)" d="M284.258 1450.68 L841.248 1303.88 L1398.24 924.672 L1955.23 761.959 L2512.22 753.179 L3069.21 662.17 L3069.21 600.845 L2512.22 662.363 L1955.23 579.381 L1398.24 449.647 L841.248 -160.416 L284.258 -307.213  Z" fill="#cc7c71" fill-rule="evenodd" fill-opacity="0.25"></path>
<polyline clip-path="url(#clip002)" style="stroke:#cc7c71; stroke-linecap:round; stroke-linejoin:round; stroke-width:13.6; stroke-opacity:1; fill:none" stroke-dasharray="54, 27, 7, 27" points="284.258,571.733 841.248,571.733 1398.24,687.159 1955.23,670.67 2512.22,707.771 3069.21,631.508 "></polyline>
<polyline clip-path="url(#clip002)" style="stroke:#3da44d; stroke-linecap:round; stroke-linejoin:round; stroke-width:7.2; stroke-opacity:0.8; fill:none" stroke-dasharray="29, 18" points="284.258,342.998 841.248,490.345 1398.24,686.807 1955.23,539.46 2512.22,748.201 3069.21,616.203 "></polyline>
<polyline clip-path="url(#clip002)" style="stroke:#c271d2; stroke-linecap:round; stroke-linejoin:round; stroke-width:7.2; stroke-opacity:0.8; fill:none" stroke-dasharray="29, 18" points="284.258,438.529 841.248,986.225 1398.24,836.853 1955.23,699.929 2512.22,687.482 3069.21,569.229 "></polyline>
<polyline clip-path="url(#clip002)" style="stroke:#ac8d18; stroke-linecap:round; stroke-linejoin:round; stroke-width:7.2; stroke-opacity:0.8; fill:none" stroke-dasharray="29, 18" points="284.258,831.1 841.248,299.225 1398.24,758.572 1955.23,637.691 2512.22,794.836 3069.21,595.383 "></polyline>
<polyline clip-path="url(#clip002)" style="stroke:#00a9ad; stroke-linecap:round; stroke-linejoin:round; stroke-width:7.2; stroke-opacity:0.8; fill:none" stroke-dasharray="29, 18" points="284.258,543.272 841.248,920.947 1398.24,802.924 1955.23,507.865 2512.22,749.813 3069.21,749.813 "></polyline>
<polyline clip-path="url(#clip002)" style="stroke:#000000; stroke-linecap:round; stroke-linejoin:round; stroke-width:8; stroke-opacity:1; fill:none" stroke-dasharray="4, 8" points="-2751.34,629.567 6104.8,629.567 "></polyline>
<path clip-path="url(#clip000)" d="M701.994 238.854 L3054.35 238.854 L3054.35 135.174 L701.994 135.174  Z" fill="#ffffff" fill-rule="evenodd" fill-opacity="1"></path>
<polyline clip-path="url(#clip000)" style="stroke:#000000; stroke-linecap:round; stroke-linejoin:round; stroke-width:4; stroke-opacity:1; fill:none" points="701.994,238.854 3054.35,238.854 3054.35,135.174 701.994,135.174 701.994,238.854 "></polyline>
<polyline clip-path="url(#clip000)" style="stroke:#7e99f4; stroke-linecap:round; stroke-linejoin:round; stroke-width:12.8; stroke-opacity:1; fill:none" points="734.795,187.014 931.598,187.014 "></polyline>
<path clip-path="url(#clip000)" d="M964.398 169.734 L984.259 169.734 L984.259 173.669 L969.074 173.669 L969.074 183.854 L982.778 183.854 L982.778 187.79 L969.074 187.79 L969.074 204.294 L964.398 204.294 L964.398 169.734 Z" fill="#000000" fill-rule="nonzero" fill-opacity="1"></path><path clip-path="url(#clip000)" d="M1017.55 172.396 L1017.55 177.327 Q1015.18 175.128 1012.5 174.04 Q1009.84 172.952 1006.83 172.952 Q1000.9 172.952 997.754 176.586 Q994.606 180.197 994.606 187.049 Q994.606 193.878 997.754 197.512 Q1000.9 201.123 1006.83 201.123 Q1009.84 201.123 1012.5 200.035 Q1015.18 198.947 1017.55 196.748 L1017.55 201.632 Q1015.09 203.299 1012.34 204.132 Q1009.61 204.965 1006.55 204.965 Q998.704 204.965 994.19 200.174 Q989.676 195.359 989.676 187.049 Q989.676 178.716 994.19 173.924 Q998.704 169.109 1006.55 169.109 Q1009.65 169.109 1012.38 169.943 Q1015.14 170.753 1017.55 172.396 Z" fill="#000000" fill-rule="nonzero" fill-opacity="1"></path><path clip-path="url(#clip000)" d="M1045.49 170.868 L1045.49 175.429 Q1042.82 174.155 1040.46 173.53 Q1038.1 172.905 1035.9 172.905 Q1032.08 172.905 1030 174.387 Q1027.94 175.868 1027.94 178.6 Q1027.94 180.892 1029.31 182.072 Q1030.69 183.229 1034.54 183.947 L1037.36 184.526 Q1042.59 185.521 1045.07 188.044 Q1047.57 190.544 1047.57 194.757 Q1047.57 199.78 1044.19 202.373 Q1040.83 204.965 1034.33 204.965 Q1031.87 204.965 1029.1 204.41 Q1026.34 203.854 1023.38 202.766 L1023.38 197.952 Q1026.23 199.549 1028.96 200.359 Q1031.69 201.169 1034.33 201.169 Q1038.33 201.169 1040.51 199.595 Q1042.68 198.021 1042.68 195.104 Q1042.68 192.558 1041.11 191.123 Q1039.56 189.688 1035.99 188.97 L1033.15 188.415 Q1027.92 187.373 1025.58 185.151 Q1023.24 182.929 1023.24 178.97 Q1023.24 174.387 1026.46 171.748 Q1029.7 169.109 1035.37 169.109 Q1037.8 169.109 1040.32 169.549 Q1042.85 169.989 1045.49 170.868 Z" fill="#000000" fill-rule="nonzero" fill-opacity="1"></path><polyline clip-path="url(#clip000)" style="stroke:#cc7c71; stroke-linecap:round; stroke-linejoin:round; stroke-width:13.6; stroke-opacity:1; fill:none" stroke-dasharray="54, 27, 7, 27" points="1121.39,187.014 1318.19,187.014 "></polyline>
<path clip-path="url(#clip000)" d="M1369.9 182.304 L1369.9 168.276 L1374.16 168.276 L1374.16 204.294 L1369.9 204.294 L1369.9 200.405 Q1368.56 202.72 1366.5 203.854 Q1364.46 204.965 1361.59 204.965 Q1356.89 204.965 1353.93 201.215 Q1350.99 197.466 1350.99 191.354 Q1350.99 185.243 1353.93 181.493 Q1356.89 177.743 1361.59 177.743 Q1364.46 177.743 1366.5 178.878 Q1368.56 179.989 1369.9 182.304 M1355.39 191.354 Q1355.39 196.053 1357.31 198.739 Q1359.26 201.401 1362.63 201.401 Q1366.01 201.401 1367.96 198.739 Q1369.9 196.053 1369.9 191.354 Q1369.9 186.655 1367.96 183.993 Q1366.01 181.308 1362.63 181.308 Q1359.26 181.308 1357.31 183.993 Q1355.39 186.655 1355.39 191.354 Z" fill="#000000" fill-rule="nonzero" fill-opacity="1"></path><path clip-path="url(#clip000)" d="M1383.49 182.767 L1413.17 182.767 L1413.17 186.655 L1383.49 186.655 L1383.49 182.767 M1383.49 192.211 L1413.17 192.211 L1413.17 196.146 L1383.49 196.146 L1383.49 192.211 Z" fill="#000000" fill-rule="nonzero" fill-opacity="1"></path><path clip-path="url(#clip000)" d="M1423.31 169.734 L1441.66 169.734 L1441.66 173.669 L1427.59 173.669 L1427.59 182.142 Q1428.61 181.794 1429.63 181.632 Q1430.64 181.447 1431.66 181.447 Q1437.45 181.447 1440.83 184.618 Q1444.21 187.79 1444.21 193.206 Q1444.21 198.785 1440.74 201.887 Q1437.26 204.965 1430.94 204.965 Q1428.77 204.965 1426.5 204.595 Q1424.25 204.225 1421.85 203.484 L1421.85 198.785 Q1423.93 199.919 1426.15 200.475 Q1428.38 201.03 1430.85 201.03 Q1434.86 201.03 1437.19 198.924 Q1439.53 196.817 1439.53 193.206 Q1439.53 189.595 1437.19 187.489 Q1434.86 185.382 1430.85 185.382 Q1428.98 185.382 1427.1 185.799 Q1425.25 186.216 1423.31 187.095 L1423.31 169.734 Z" fill="#000000" fill-rule="nonzero" fill-opacity="1"></path><polyline clip-path="url(#clip000)" style="stroke:#3da44d; stroke-linecap:round; stroke-linejoin:round; stroke-width:7.2; stroke-opacity:0.8; fill:none" stroke-dasharray="29, 18" points="1507.98,187.014 1704.78,187.014 "></polyline>
<path clip-path="url(#clip000)" d="M1756.5 182.304 L1756.5 168.276 L1760.76 168.276 L1760.76 204.294 L1756.5 204.294 L1756.5 200.405 Q1755.15 202.72 1753.09 203.854 Q1751.06 204.965 1748.19 204.965 Q1743.49 204.965 1740.52 201.215 Q1737.58 197.466 1737.58 191.354 Q1737.58 185.243 1740.52 181.493 Q1743.49 177.743 1748.19 177.743 Q1751.06 177.743 1753.09 178.878 Q1755.15 179.989 1756.5 182.304 M1741.98 191.354 Q1741.98 196.053 1743.9 198.739 Q1745.85 201.401 1749.23 201.401 Q1752.61 201.401 1754.55 198.739 Q1756.5 196.053 1756.5 191.354 Q1756.5 186.655 1754.55 183.993 Q1752.61 181.308 1749.23 181.308 Q1745.85 181.308 1743.9 183.993 Q1741.98 186.655 1741.98 191.354 Z" fill="#000000" fill-rule="nonzero" fill-opacity="1"></path><path clip-path="url(#clip000)" d="M1770.08 182.767 L1799.76 182.767 L1799.76 186.655 L1770.08 186.655 L1770.08 182.767 M1770.08 192.211 L1799.76 192.211 L1799.76 196.146 L1770.08 196.146 L1770.08 192.211 Z" fill="#000000" fill-rule="nonzero" fill-opacity="1"></path><path clip-path="url(#clip000)" d="M1809.99 203.577 L1809.99 199.317 Q1811.75 200.151 1813.56 200.591 Q1815.36 201.03 1817.1 201.03 Q1821.73 201.03 1824.16 197.928 Q1826.61 194.803 1826.96 188.461 Q1825.62 190.452 1823.56 191.516 Q1821.5 192.581 1819 192.581 Q1813.81 192.581 1810.78 189.456 Q1807.77 186.308 1807.77 180.868 Q1807.77 175.544 1810.92 172.327 Q1814.07 169.109 1819.3 169.109 Q1825.29 169.109 1828.44 173.716 Q1831.61 178.299 1831.61 187.049 Q1831.61 195.22 1827.72 200.104 Q1823.86 204.965 1817.31 204.965 Q1815.55 204.965 1813.74 204.618 Q1811.94 204.271 1809.99 203.577 M1819.3 188.924 Q1822.45 188.924 1824.27 186.771 Q1826.13 184.618 1826.13 180.868 Q1826.13 177.142 1824.27 174.989 Q1822.45 172.813 1819.3 172.813 Q1816.15 172.813 1814.3 174.989 Q1812.47 177.142 1812.47 180.868 Q1812.47 184.618 1814.3 186.771 Q1816.15 188.924 1819.3 188.924 Z" fill="#000000" fill-rule="nonzero" fill-opacity="1"></path><polyline clip-path="url(#clip000)" style="stroke:#c271d2; stroke-linecap:round; stroke-linejoin:round; stroke-width:7.2; stroke-opacity:0.8; fill:none" stroke-dasharray="29, 18" points="1894.57,187.014 2091.38,187.014 "></polyline>
<path clip-path="url(#clip000)" d="M2143.09 182.304 L2143.09 168.276 L2147.35 168.276 L2147.35 204.294 L2143.09 204.294 L2143.09 200.405 Q2141.75 202.72 2139.69 203.854 Q2137.65 204.965 2134.78 204.965 Q2130.08 204.965 2127.12 201.215 Q2124.18 197.466 2124.18 191.354 Q2124.18 185.243 2127.12 181.493 Q2130.08 177.743 2134.78 177.743 Q2137.65 177.743 2139.69 178.878 Q2141.75 179.989 2143.09 182.304 M2128.58 191.354 Q2128.58 196.053 2130.5 198.739 Q2132.44 201.401 2135.82 201.401 Q2139.2 201.401 2141.15 198.739 Q2143.09 196.053 2143.09 191.354 Q2143.09 186.655 2141.15 183.993 Q2139.2 181.308 2135.82 181.308 Q2132.44 181.308 2130.5 183.993 Q2128.58 186.655 2128.58 191.354 Z" fill="#000000" fill-rule="nonzero" fill-opacity="1"></path><path clip-path="url(#clip000)" d="M2156.68 182.767 L2186.35 182.767 L2186.35 186.655 L2156.68 186.655 L2156.68 182.767 M2156.68 192.211 L2186.35 192.211 L2186.35 196.146 L2156.68 196.146 L2156.68 192.211 Z" fill="#000000" fill-rule="nonzero" fill-opacity="1"></path><path clip-path="url(#clip000)" d="M2197.26 200.359 L2204.9 200.359 L2204.9 173.993 L2196.59 175.66 L2196.59 171.401 L2204.85 169.734 L2209.52 169.734 L2209.52 200.359 L2217.16 200.359 L2217.16 204.294 L2197.26 204.294 L2197.26 200.359 Z" fill="#000000" fill-rule="nonzero" fill-opacity="1"></path><path clip-path="url(#clip000)" d="M2226.65 169.734 L2245.01 169.734 L2245.01 173.669 L2230.94 173.669 L2230.94 182.142 Q2231.96 181.794 2232.97 181.632 Q2233.99 181.447 2235.01 181.447 Q2240.8 181.447 2244.18 184.618 Q2247.56 187.79 2247.56 193.206 Q2247.56 198.785 2244.08 201.887 Q2240.61 204.965 2234.29 204.965 Q2232.12 204.965 2229.85 204.595 Q2227.6 204.225 2225.2 203.484 L2225.2 198.785 Q2227.28 199.919 2229.5 200.475 Q2231.72 201.03 2234.2 201.03 Q2238.21 201.03 2240.54 198.924 Q2242.88 196.817 2242.88 193.206 Q2242.88 189.595 2240.54 187.489 Q2238.21 185.382 2234.2 185.382 Q2232.33 185.382 2230.45 185.799 Q2228.6 186.216 2226.65 187.095 L2226.65 169.734 Z" fill="#000000" fill-rule="nonzero" fill-opacity="1"></path><polyline clip-path="url(#clip000)" style="stroke:#ac8d18; stroke-linecap:round; stroke-linejoin:round; stroke-width:7.2; stroke-opacity:0.8; fill:none" stroke-dasharray="29, 18" points="2281.17,187.014 2477.97,187.014 "></polyline>
<path clip-path="url(#clip000)" d="M2529.68 182.304 L2529.68 168.276 L2533.94 168.276 L2533.94 204.294 L2529.68 204.294 L2529.68 200.405 Q2528.34 202.72 2526.28 203.854 Q2524.24 204.965 2521.37 204.965 Q2516.67 204.965 2513.71 201.215 Q2510.77 197.466 2510.77 191.354 Q2510.77 185.243 2513.71 181.493 Q2516.67 177.743 2521.37 177.743 Q2524.24 177.743 2526.28 178.878 Q2528.34 179.989 2529.68 182.304 M2515.17 191.354 Q2515.17 196.053 2517.09 198.739 Q2519.04 201.401 2522.41 201.401 Q2525.79 201.401 2527.74 198.739 Q2529.68 196.053 2529.68 191.354 Q2529.68 186.655 2527.74 183.993 Q2525.79 181.308 2522.41 181.308 Q2519.04 181.308 2517.09 183.993 Q2515.17 186.655 2515.17 191.354 Z" fill="#000000" fill-rule="nonzero" fill-opacity="1"></path><path clip-path="url(#clip000)" d="M2543.27 182.767 L2572.95 182.767 L2572.95 186.655 L2543.27 186.655 L2543.27 182.767 M2543.27 192.211 L2572.95 192.211 L2572.95 196.146 L2543.27 196.146 L2543.27 192.211 Z" fill="#000000" fill-rule="nonzero" fill-opacity="1"></path><path clip-path="url(#clip000)" d="M2583.85 200.359 L2591.49 200.359 L2591.49 173.993 L2583.18 175.66 L2583.18 171.401 L2591.44 169.734 L2596.12 169.734 L2596.12 200.359 L2603.76 200.359 L2603.76 204.294 L2583.85 204.294 L2583.85 200.359 Z" fill="#000000" fill-rule="nonzero" fill-opacity="1"></path><path clip-path="url(#clip000)" d="M2613.34 203.577 L2613.34 199.317 Q2615.1 200.151 2616.91 200.591 Q2618.71 201.03 2620.45 201.03 Q2625.08 201.03 2627.51 197.928 Q2629.96 194.803 2630.31 188.461 Q2628.97 190.452 2626.91 191.516 Q2624.84 192.581 2622.34 192.581 Q2617.16 192.581 2614.13 189.456 Q2611.12 186.308 2611.12 180.868 Q2611.12 175.544 2614.27 172.327 Q2617.41 169.109 2622.65 169.109 Q2628.64 169.109 2631.79 173.716 Q2634.96 178.299 2634.96 187.049 Q2634.96 195.22 2631.07 200.104 Q2627.21 204.965 2620.66 204.965 Q2618.9 204.965 2617.09 204.618 Q2615.28 204.271 2613.34 203.577 M2622.65 188.924 Q2625.79 188.924 2627.62 186.771 Q2629.47 184.618 2629.47 180.868 Q2629.47 177.142 2627.62 174.989 Q2625.79 172.813 2622.65 172.813 Q2619.5 172.813 2617.65 174.989 Q2615.82 177.142 2615.82 180.868 Q2615.82 184.618 2617.65 186.771 Q2619.5 188.924 2622.65 188.924 Z" fill="#000000" fill-rule="nonzero" fill-opacity="1"></path><polyline clip-path="url(#clip000)" style="stroke:#00a9ad; stroke-linecap:round; stroke-linejoin:round; stroke-width:7.2; stroke-opacity:0.8; fill:none" stroke-dasharray="29, 18" points="2667.76,187.014 2864.56,187.014 "></polyline>
<path clip-path="url(#clip000)" d="M2916.28 182.304 L2916.28 168.276 L2920.54 168.276 L2920.54 204.294 L2916.28 204.294 L2916.28 200.405 Q2914.93 202.72 2912.87 203.854 Q2910.84 204.965 2907.97 204.965 Q2903.27 204.965 2900.3 201.215 Q2897.36 197.466 2897.36 191.354 Q2897.36 185.243 2900.3 181.493 Q2903.27 177.743 2907.97 177.743 Q2910.84 177.743 2912.87 178.878 Q2914.93 179.989 2916.28 182.304 M2901.76 191.354 Q2901.76 196.053 2903.68 198.739 Q2905.63 201.401 2909.01 201.401 Q2912.39 201.401 2914.33 198.739 Q2916.28 196.053 2916.28 191.354 Q2916.28 186.655 2914.33 183.993 Q2912.39 181.308 2909.01 181.308 Q2905.63 181.308 2903.68 183.993 Q2901.76 186.655 2901.76 191.354 Z" fill="#000000" fill-rule="nonzero" fill-opacity="1"></path><path clip-path="url(#clip000)" d="M2929.86 182.767 L2959.54 182.767 L2959.54 186.655 L2929.86 186.655 L2929.86 182.767 M2929.86 192.211 L2959.54 192.211 L2959.54 196.146 L2929.86 196.146 L2929.86 192.211 Z" fill="#000000" fill-rule="nonzero" fill-opacity="1"></path><path clip-path="url(#clip000)" d="M2973.66 200.359 L2989.98 200.359 L2989.98 204.294 L2968.04 204.294 L2968.04 200.359 Q2970.7 197.604 2975.28 192.975 Q2979.89 188.322 2981.07 186.979 Q2983.31 184.456 2984.19 182.72 Q2985.1 180.961 2985.1 179.271 Q2985.1 176.517 2983.15 174.78 Q2981.23 173.044 2978.13 173.044 Q2975.93 173.044 2973.48 173.808 Q2971.04 174.572 2968.27 176.123 L2968.27 171.401 Q2971.09 170.267 2973.54 169.688 Q2976 169.109 2978.04 169.109 Q2983.41 169.109 2986.6 171.794 Q2989.79 174.48 2989.79 178.97 Q2989.79 181.1 2988.98 183.021 Q2988.2 184.919 2986.09 187.512 Q2985.51 188.183 2982.41 191.401 Q2979.31 194.595 2973.66 200.359 Z" fill="#000000" fill-rule="nonzero" fill-opacity="1"></path><path clip-path="url(#clip000)" d="M3013.96 185.66 Q3017.32 186.378 3019.19 188.646 Q3021.09 190.915 3021.09 194.248 Q3021.09 199.364 3017.57 202.165 Q3014.05 204.965 3007.57 204.965 Q3005.4 204.965 3003.08 204.526 Q3000.79 204.109 2998.34 203.253 L2998.34 198.739 Q3000.28 199.873 3002.6 200.452 Q3004.91 201.03 3007.43 201.03 Q3011.83 201.03 3014.12 199.294 Q3016.44 197.558 3016.44 194.248 Q3016.44 191.192 3014.29 189.479 Q3012.16 187.743 3008.34 187.743 L3004.31 187.743 L3004.31 183.901 L3008.52 183.901 Q3011.97 183.901 3013.8 182.535 Q3015.63 181.146 3015.63 178.554 Q3015.63 175.892 3013.73 174.48 Q3011.85 173.044 3008.34 173.044 Q3006.42 173.044 3004.22 173.461 Q3002.02 173.878 2999.38 174.757 L2999.38 170.591 Q3002.04 169.85 3004.35 169.48 Q3006.69 169.109 3008.75 169.109 Q3014.08 169.109 3017.18 171.54 Q3020.28 173.947 3020.28 178.067 Q3020.28 180.938 3018.64 182.929 Q3016.99 184.896 3013.96 185.66 Z" fill="#000000" fill-rule="nonzero" fill-opacity="1"></path></svg>