<svg xmlns="http://www.w3.org/2000/svg" xmlns:xlink="http://www.w3.org/1999/xlink" width="800" height="320" viewBox="0 0 3200 1280">
<defs>
  <clipPath id="clip640">
    <rect x="0" y="0" width="3200" height="1280"></rect>
  </clipPath>
</defs>
<path clip-path="url(#clip640)" d="M0 1280 L3200 1280 L3200 0 L0 0  Z" fill="#ffffff" fill-rule="evenodd" fill-opacity="1"></path>
<defs>
  <clipPath id="clip641">
    <rect x="640" y="0" width="2241" height="1280"></rect>
  </clipPath>
</defs>
<path clip-path="url(#clip640)" d="M194.76 1176.1 L3152.76 1176.1 L3152.76 99.2801 L194.76 99.2801  Z" fill="#ffffff" fill-rule="evenodd" fill-opacity="1"></path>
<defs>
  <clipPath id="clip642">
    <rect x="194" y="99" width="2959" height="1078"></rect>
  </clipPath>
</defs>
<polyline clip-path="url(#clip642)" style="stroke:#000000; stroke-linecap:round; stroke-linejoin:round; stroke-width:2; stroke-opacity:0.1; fill:none" points="278.477,1176.1 278.477,99.2801 "></polyline>
<polyline clip-path="url(#clip642)" style="stroke:#000000; stroke-linecap:round; stroke-linejoin:round; stroke-width:2; stroke-opacity:0.1; fill:none" points="836.589,1176.1 836.589,99.2801 "></polyline>
<polyline clip-path="url(#clip642)" style="stroke:#000000; stroke-linecap:round; stroke-linejoin:round; stroke-width:2; stroke-opacity:0.1; fill:none" points="1394.7,1176.1 1394.7,99.2801 "></polyline>
<polyline clip-path="url(#clip642)" style="stroke:#000000; stroke-linecap:round; stroke-linejoin:round; stroke-width:2; stroke-opacity:0.1; fill:none" points="1952.81,1176.1 1952.81,99.2801 "></polyline>
<polyline clip-path="url(#clip642)" style="stroke:#000000; stroke-linecap:round; stroke-linejoin:round; stroke-width:2; stroke-opacity:0.1; fill:none" points="2510.93,1176.1 2510.93,99.2801 "></polyline>
<polyline clip-path="url(#clip642)" style="stroke:#000000; stroke-linecap:round; stroke-linejoin:round; stroke-width:2; stroke-opacity:0.1; fill:none" points="3069.04,1176.1 3069.04,99.2801 "></polyline>
<polyline clip-path="url(#clip642)" style="stroke:#000000; stroke-linecap:round; stroke-linejoin:round; stroke-width:2; stroke-opacity:0.1; fill:none" points="194.76,1176.1 3152.76,1176.1 "></polyline>
<polyline clip-path="url(#clip642)" style="stroke:#000000; stroke-linecap:round; stroke-linejoin:round; stroke-width:2; stroke-opacity:0.1; fill:none" points="194.76,996.632 3152.76,996.632 "></polyline>
<polyline clip-path="url(#clip642)" style="stroke:#000000; stroke-linecap:round; stroke-linejoin:round; stroke-width:2; stroke-opacity:0.1; fill:none" points="194.76,817.161 3152.76,817.161 "></polyline>
<polyline clip-path="url(#clip642)" style="stroke:#000000; stroke-linecap:round; stroke-linejoin:round; stroke-width:2; stroke-opacity:0.1; fill:none" points="194.76,637.691 3152.76,637.691 "></polyline>
<polyline clip-path="url(#clip642)" style="stroke:#000000; stroke-linecap:round; stroke-linejoin:round; stroke-width:2; stroke-opacity:0.1; fill:none" points="194.76,458.221 3152.76,458.221 "></polyline>
<polyline clip-path="url(#clip642)" style="stroke:#000000; stroke-linecap:round; stroke-linejoin:round; stroke-width:2; stroke-opacity:0.1; fill:none" points="194.76,278.75 3152.76,278.75 "></polyline>
<polyline clip-path="url(#clip640)" style="stroke:#000000; stroke-linecap:round; stroke-linejoin:round; stroke-width:4; stroke-opacity:1; fill:none" points="194.76,1176.1 3152.76,1176.1 "></polyline>
<polyline clip-path="url(#clip640)" style="stroke:#000000; stroke-linecap:round; stroke-linejoin:round; stroke-width:4; stroke-opacity:1; fill:none" points="278.477,1176.1 278.477,1157.2 "></polyline>
<polyline clip-path="url(#clip640)" style="stroke:#000000; stroke-linecap:round; stroke-linejoin:round; stroke-width:4; stroke-opacity:1; fill:none" points="836.589,1176.1 836.589,1157.2 "></polyline>
<polyline clip-path="url(#clip640)" style="stroke:#000000; stroke-linecap:round; stroke-linejoin:round; stroke-width:4; stroke-opacity:1; fill:none" points="1394.7,1176.1 1394.7,1157.2 "></polyline>
<polyline clip-path="url(#clip640)" style="stroke:#000000; stroke-linecap:round; stroke-linejoin:round; stroke-width:4; stroke-opacity:1; fill:none" points="1952.81,1176.1 1952.81,1157.2 "></polyline>
<polyline clip-path="url(#clip640)" style="stroke:#000000; stroke-linecap:round; stroke-linejoin:round; stroke-width:4; stroke-opacity:1; fill:none" points="2510.93,1176.1 2510.93,1157.2 "></polyline>
<polyline clip-path="url(#clip640)" style="stroke:#000000; stroke-linecap:round; stroke-linejoin:round; stroke-width:4; stroke-opacity:1; fill:none" points="3069.04,1176.1 3069.04,1157.2 "></polyline>
<path clip-path="url(#clip640)" d="M252.018 1256.63 L268.337 1256.63 L268.337 1260.56 L246.393 1260.56 L246.393 1256.63 Q249.055 1253.87 253.638 1249.24 Q258.245 1244.59 259.425 1243.25 Q261.671 1240.72 262.55 1238.99 Q263.453 1237.23 263.453 1235.54 Q263.453 1232.78 261.509 1231.05 Q259.587 1229.31 256.486 1229.31 Q254.287 1229.31 251.833 1230.08 Q249.402 1230.84 246.625 1232.39 L246.625 1227.67 Q249.449 1226.53 251.902 1225.96 Q254.356 1225.38 256.393 1225.38 Q261.763 1225.38 264.958 1228.06 Q268.152 1230.75 268.152 1235.24 Q268.152 1237.37 267.342 1239.29 Q266.555 1241.19 264.449 1243.78 Q263.87 1244.45 260.768 1247.67 Q257.666 1250.86 252.018 1256.63 Z" fill="#000000" fill-rule="nonzero" fill-opacity="1"></path><path clip-path="url(#clip640)" d="M268.883 1229.95 L275.089 1229.95 L275.089 1208.53 L268.337 1209.89 L268.337 1206.43 L275.052 1205.07 L278.851 1205.07 L278.851 1229.95 L285.058 1229.95 L285.058 1233.15 L268.883 1233.15 L268.883 1229.95 Z" fill="#000000" fill-rule="nonzero" fill-opacity="1"></path><path clip-path="url(#clip640)" d="M300.856 1207.57 Q297.922 1207.57 296.436 1210.47 Q294.969 1213.35 294.969 1219.14 Q294.969 1224.91 296.436 1227.81 Q297.922 1230.69 300.856 1230.69 Q303.809 1230.69 305.276 1227.81 Q306.762 1224.91 306.762 1219.14 Q306.762 1213.35 305.276 1210.47 Q303.809 1207.57 300.856 1207.57 M300.856 1204.56 Q305.577 1204.56 308.059 1208.31 Q310.561 1212.03 310.561 1219.14 Q310.561 1226.23 308.059 1229.97 Q305.577 1233.7 300.856 1233.7 Q296.135 1233.7 293.634 1229.97 Q291.151 1226.23 291.151 1219.14 Q291.151 1212.03 293.634 1208.31 Q296.135 1204.56 300.856 1204.56 Z" fill="#000000" fill-rule="nonzero" fill-opacity="1"></path><path clip-path="url(#clip640)" d="M810.629 1256.63 L826.948 1256.63 L826.948 1260.56 L805.004 1260.56 L805.004 1256.63 Q807.666 1253.87 812.249 1249.24 Q816.856 1244.59 818.036 1243.25 Q820.282 1240.72 821.161 1238.99 Q822.064 1237.23 822.064 1235.54 Q822.064 1232.78 820.12 1231.05 Q818.198 1229.31 815.096 1229.31 Q812.897 1229.31 810.444 1230.08 Q808.013 1230.84 805.235 1232.39 L805.235 1227.67 Q808.059 1226.53 810.513 1225.96 Q812.967 1225.38 815.004 1225.38 Q820.374 1225.38 823.569 1228.06 Q826.763 1230.75 826.763 1235.24 Q826.763 1237.37 825.953 1239.29 Q825.166 1241.19 823.059 1243.78 Q822.481 1244.45 819.379 1247.67 Q816.277 1250.86 810.629 1256.63 Z" fill="#000000" fill-rule="nonzero" fill-opacity="1"></path><path clip-path="url(#clip640)" d="M827.494 1229.95 L833.7 1229.95 L833.7 1208.53 L826.948 1209.89 L826.948 1206.43 L833.663 1205.07 L837.462 1205.07 L837.462 1229.95 L843.668 1229.95 L843.668 1233.15 L827.494 1233.15 L827.494 1229.95 Z" fill="#000000" fill-rule="nonzero" fill-opacity="1"></path><path clip-path="url(#clip640)" d="M852 1229.95 L858.207 1229.95 L858.207 1208.53 L851.455 1209.89 L851.455 1206.43 L858.169 1205.07 L861.968 1205.07 L861.968 1229.95 L868.175 1229.95 L868.175 1233.15 L852 1233.15 L852 1229.95 Z" fill="#000000" fill-rule="nonzero" fill-opacity="1"></path><path clip-path="url(#clip640)" d="M1368.89 1256.63 L1385.21 1256.63 L1385.21 1260.56 L1363.27 1260.56 L1363.27 1256.63 Q1365.93 1253.87 1370.51 1249.24 Q1375.12 1244.59 1376.3 1243.25 Q1378.54 1240.72 1379.42 1238.99 Q1380.33 1237.23 1380.33 1235.54 Q1380.33 1232.78 1378.38 1231.05 Q1376.46 1229.31 1373.36 1229.31 Q1371.16 1229.31 1368.71 1230.08 Q1366.28 1230.84 1363.5 1232.39 L1363.5 1227.67 Q1366.32 1226.53 1368.78 1225.96 Q1371.23 1225.38 1373.27 1225.38 Q1378.64 1225.38 1381.83 1228.06 Q1385.03 1230.75 1385.03 1235.24 Q1385.03 1237.37 1384.22 1239.29 Q1383.43 1241.19 1381.32 1243.78 Q1380.74 1244.45 1377.64 1247.67 Q1374.54 1250.86 1368.89 1256.63 Z" fill="#000000" fill-rule="nonzero" fill-opacity="1"></path><path clip-path="url(#clip640)" d="M1385.76 1229.95 L1391.96 1229.95 L1391.96 1208.53 L1385.21 1209.89 L1385.21 1206.43 L1391.93 1205.07 L1395.72 1205.07 L1395.72 1229.95 L1401.93 1229.95 L1401.93 1233.15 L1385.76 1233.15 L1385.76 1229.95 Z" fill="#000000" fill-rule="nonzero" fill-opacity="1"></path><path clip-path="url(#clip640)" d="M1412.88 1229.95 L1426.14 1229.95 L1426.14 1233.15 L1408.31 1233.15 L1408.31 1229.95 Q1410.47 1227.72 1414.19 1223.95 Q1417.94 1220.17 1418.9 1219.08 Q1420.72 1217.03 1421.43 1215.62 Q1422.17 1214.19 1422.17 1212.82 Q1422.17 1210.58 1420.59 1209.17 Q1419.03 1207.76 1416.51 1207.76 Q1414.72 1207.76 1412.73 1208.38 Q1410.75 1209 1408.5 1210.26 L1408.5 1206.43 Q1410.79 1205.5 1412.78 1205.03 Q1414.78 1204.56 1416.43 1204.56 Q1420.8 1204.56 1423.39 1206.75 Q1425.99 1208.93 1425.99 1212.58 Q1425.99 1214.31 1425.33 1215.87 Q1424.69 1217.41 1422.98 1219.52 Q1422.51 1220.06 1419.99 1222.68 Q1417.47 1225.27 1412.88 1229.95 Z" fill="#000000" fill-rule="nonzero" fill-opacity="1"></path><path clip-path="url(#clip640)" d="M1926.62 1256.63 L1942.94 1256.63 L1942.94 1260.56 L1920.99 1260.56 L1920.99 1256.63 Q1923.66 1253.87 1928.24 1249.24 Q1932.85 1244.59 1934.03 1243.25 Q1936.27 1240.72 1937.15 1238.99 Q1938.05 1237.23 1938.05 1235.54 Q1938.05 1232.78 1936.11 1231.05 Q1934.19 1229.31 1931.09 1229.31 Q1928.89 1229.31 1926.43 1230.08 Q1924 1230.84 1921.23 1232.39 L1921.23 1227.67 Q1924.05 1226.53 1926.5 1225.96 Q1928.96 1225.38 1930.99 1225.38 Q1936.36 1225.38 1939.56 1228.06 Q1942.75 1230.75 1942.75 1235.24 Q1942.75 1237.37 1941.94 1239.29 Q1941.16 1241.19 1939.05 1243.78 Q1938.47 1244.45 1935.37 1247.67 Q1932.27 1250.86 1926.62 1256.63 Z" fill="#000000" fill-rule="nonzero" fill-opacity="1"></path><path clip-path="url(#clip640)" d="M1943.48 1229.95 L1949.69 1229.95 L1949.69 1208.53 L1942.94 1209.89 L1942.94 1206.43 L1949.65 1205.07 L1953.45 1205.07 L1953.45 1229.95 L1959.66 1229.95 L1959.66 1233.15 L1943.48 1233.15 L1943.48 1229.95 Z" fill="#000000" fill-rule="nonzero" fill-opacity="1"></path><path clip-path="url(#clip640)" d="M1978.84 1218.01 Q1981.57 1218.59 1983.09 1220.44 Q1984.63 1222.28 1984.63 1224.99 Q1984.63 1229.15 1981.78 1231.42 Q1978.92 1233.7 1973.65 1233.7 Q1971.88 1233.7 1970 1233.34 Q1968.14 1233 1966.15 1232.31 L1966.15 1228.64 Q1967.73 1229.56 1969.61 1230.03 Q1971.49 1230.5 1973.54 1230.5 Q1977.11 1230.5 1978.97 1229.09 Q1980.85 1227.68 1980.85 1224.99 Q1980.85 1222.51 1979.11 1221.11 Q1977.37 1219.7 1974.27 1219.7 L1971 1219.7 L1971 1216.58 L1974.42 1216.58 Q1977.22 1216.58 1978.71 1215.47 Q1980.2 1214.34 1980.2 1212.24 Q1980.2 1210.07 1978.65 1208.93 Q1977.13 1207.76 1974.27 1207.76 Q1972.71 1207.76 1970.92 1208.1 Q1969.14 1208.44 1966.99 1209.15 L1966.99 1205.77 Q1969.16 1205.17 1971.04 1204.86 Q1972.94 1204.56 1974.61 1204.56 Q1978.94 1204.56 1981.46 1206.54 Q1983.98 1208.49 1983.98 1211.84 Q1983.98 1214.17 1982.64 1215.79 Q1981.31 1217.39 1978.84 1218.01 Z" fill="#000000" fill-rule="nonzero" fill-opacity="1"></path><path clip-path="url(#clip640)" d="M2484.27 1256.63 L2500.59 1256.63 L2500.59 1260.56 L2478.65 1260.56 L2478.65 1256.63 Q2481.31 1253.87 2485.89 1249.24 Q2490.5 1244.59 2491.68 1243.25 Q2493.92 1240.72 2494.8 1238.99 Q2495.71 1237.23 2495.71 1235.54 Q2495.71 1232.78 2493.76 1231.05 Q2491.84 1229.31 2488.74 1229.31 Q2486.54 1229.31 2484.09 1230.08 Q2481.65 1230.84 2478.88 1232.39 L2478.88 1227.67 Q2481.7 1226.53 2484.15 1225.96 Q2486.61 1225.38 2488.65 1225.38 Q2494.02 1225.38 2497.21 1228.06 Q2500.4 1230.75 2500.4 1235.24 Q2500.4 1237.37 2499.59 1239.29 Q2498.81 1241.19 2496.7 1243.78 Q2496.12 1244.45 2493.02 1247.67 Q2489.92 1250.86 2484.27 1256.63 Z" fill="#000000" fill-rule="nonzero" fill-opacity="1"></path><path clip-path="url(#clip640)" d="M2501.14 1229.95 L2507.34 1229.95 L2507.34 1208.53 L2500.59 1209.89 L2500.59 1206.43 L2507.3 1205.07 L2511.1 1205.07 L2511.1 1229.95 L2517.31 1229.95 L2517.31 1233.15 L2501.14 1233.15 L2501.14 1229.95 Z" fill="#000000" fill-rule="nonzero" fill-opacity="1"></path><path clip-path="url(#clip640)" d="M2535.42 1208.38 L2525.83 1223.37 L2535.42 1223.37 L2535.42 1208.38 M2534.42 1205.07 L2539.2 1205.07 L2539.2 1223.37 L2543.21 1223.37 L2543.21 1226.53 L2539.2 1226.53 L2539.2 1233.15 L2535.42 1233.15 L2535.42 1226.53 L2522.75 1226.53 L2522.75 1222.86 L2534.42 1205.07 Z" fill="#000000" fill-rule="nonzero" fill-opacity="1"></path><path clip-path="url(#clip640)" d="M3042.98 1256.63 L3059.3 1256.63 L3059.3 1260.56 L3037.36 1260.56 L3037.36 1256.63 Q3040.02 1253.87 3044.6 1249.24 Q3049.21 1244.59 3050.39 1243.25 Q3052.64 1240.72 3053.52 1238.99 Q3054.42 1237.23 3054.42 1235.54 Q3054.42 1232.78 3052.48 1231.05 Q3050.55 1229.31 3047.45 1229.31 Q3045.25 1229.31 3042.8 1230.08 Q3040.37 1230.84 3037.59 1232.39 L3037.59 1227.67 Q3040.42 1226.53 3042.87 1225.96 Q3045.32 1225.38 3047.36 1225.38 Q3052.73 1225.38 3055.92 1228.06 Q3059.12 1230.75 3059.12 1235.24 Q3059.12 1237.37 3058.31 1239.29 Q3057.52 1241.19 3055.41 1243.78 Q3054.84 1244.45 3051.73 1247.67 Q3048.63 1250.86 3042.98 1256.63 Z" fill="#000000" fill-rule="nonzero" fill-opacity="1"></path><path clip-path="url(#clip640)" d="M3059.85 1229.95 L3066.06 1229.95 L3066.06 1208.53 L3059.3 1209.89 L3059.3 1206.43 L3066.02 1205.07 L3069.82 1205.07 L3069.82 1229.95 L3076.02 1229.95 L3076.02 1233.15 L3059.85 1233.15 L3059.85 1229.95 Z" fill="#000000" fill-rule="nonzero" fill-opacity="1"></path><path clip-path="url(#clip640)" d="M3083.74 1205.07 L3098.65 1205.07 L3098.65 1208.27 L3087.21 1208.27 L3087.21 1215.15 Q3088.04 1214.87 3088.87 1214.74 Q3089.7 1214.59 3090.52 1214.59 Q3095.23 1214.59 3097.97 1217.16 Q3100.72 1219.74 3100.72 1224.14 Q3100.72 1228.68 3097.9 1231.2 Q3095.08 1233.7 3089.94 1233.7 Q3088.17 1233.7 3086.33 1233.4 Q3084.51 1233.1 3082.55 1232.49 L3082.55 1228.68 Q3084.24 1229.6 3086.05 1230.05 Q3087.85 1230.5 3089.87 1230.5 Q3093.12 1230.5 3095.02 1228.79 Q3096.92 1227.08 3096.92 1224.14 Q3096.92 1221.21 3095.02 1219.5 Q3093.12 1217.79 3089.87 1217.79 Q3088.34 1217.79 3086.82 1218.12 Q3085.31 1218.46 3083.74 1219.18 L3083.74 1205.07 Z" fill="#000000" fill-rule="nonzero" fill-opacity="1"></path><polyline clip-path="url(#clip640)" style="stroke:#000000; stroke-linecap:round; stroke-linejoin:round; stroke-width:4; stroke-opacity:1; fill:none" points="194.76,1176.1 194.76,99.2801 "></polyline>
<polyline clip-path="url(#clip640)" style="stroke:#000000; stroke-linecap:round; stroke-linejoin:round; stroke-width:4; stroke-opacity:1; fill:none" points="194.76,1176.1 213.658,1176.1 "></polyline>
<polyline clip-path="url(#clip640)" style="stroke:#000000; stroke-linecap:round; stroke-linejoin:round; stroke-width:4; stroke-opacity:1; fill:none" points="194.76,996.632 213.658,996.632 "></polyline>
<polyline clip-path="url(#clip640)" style="stroke:#000000; stroke-linecap:round; stroke-linejoin:round; stroke-width:4; stroke-opacity:1; fill:none" points="194.76,817.161 213.658,817.161 "></polyline>
<polyline clip-path="url(#clip640)" style="stroke:#000000; stroke-linecap:round; stroke-linejoin:round; stroke-width:4; stroke-opacity:1; fill:none" points="194.76,637.691 213.658,637.691 "></polyline>
<polyline clip-path="url(#clip640)" style="stroke:#000000; stroke-linecap:round; stroke-linejoin:round; stroke-width:4; stroke-opacity:1; fill:none" points="194.76,458.221 213.658,458.221 "></polyline>
<polyline clip-path="url(#clip640)" style="stroke:#000000; stroke-linecap:round; stroke-linejoin:round; stroke-width:4; stroke-opacity:1; fill:none" points="194.76,278.75 213.658,278.75 "></polyline>
<path clip-path="url(#clip640)" d="M61.0198 1161.9 Q57.4087 1161.9 55.58 1165.47 Q53.7745 1169.01 53.7745 1176.14 Q53.7745 1183.24 55.58 1186.81 Q57.4087 1190.35 61.0198 1190.35 Q64.6541 1190.35 66.4596 1186.81 Q68.2883 1183.24 68.2883 1176.14 Q68.2883 1169.01 66.4596 1165.47 Q64.6541 1161.9 61.0198 1161.9 M61.0198 1158.2 Q66.83 1158.2 69.8855 1162.8 Q72.9642 1167.39 72.9642 1176.14 Q72.9642 1184.86 69.8855 1189.47 Q66.83 1194.05 61.0198 1194.05 Q55.2097 1194.05 52.131 1189.47 Q49.0754 1184.86 49.0754 1176.14 Q49.0754 1167.39 52.131 1162.8 Q55.2097 1158.2 61.0198 1158.2 Z" fill="#000000" fill-rule="nonzero" fill-opacity="1"></path><path clip-path="url(#clip640)" d="M81.1818 1187.5 L86.066 1187.5 L86.066 1193.38 L81.1818 1193.38 L81.1818 1187.5 Z" fill="#000000" fill-rule="nonzero" fill-opacity="1"></path><path clip-path="url(#clip640)" d="M106.251 1161.9 Q102.64 1161.9 100.811 1165.47 Q99.0057 1169.01 99.0057 1176.14 Q99.0057 1183.24 100.811 1186.81 Q102.64 1190.35 106.251 1190.35 Q109.885 1190.35 111.691 1186.81 Q113.52 1183.24 113.52 1176.14 Q113.52 1169.01 111.691 1165.47 Q109.885 1161.9 106.251 1161.9 M106.251 1158.2 Q112.061 1158.2 115.117 1162.8 Q118.195 1167.39 118.195 1176.14 Q118.195 1184.86 115.117 1189.47 Q112.061 1194.05 106.251 1194.05 Q100.441 1194.05 97.3622 1189.47 Q94.3067 1184.86 94.3067 1176.14 Q94.3067 1167.39 97.3622 1162.8 Q100.441 1158.2 106.251 1158.2 Z" fill="#000000" fill-rule="nonzero" fill-opacity="1"></path><path clip-path="url(#clip640)" d="M130.441 1189.45 L146.76 1189.45 L146.76 1193.38 L124.816 1193.38 L124.816 1189.45 Q127.478 1186.69 132.061 1182.06 Q136.668 1177.41 137.848 1176.07 Q140.093 1173.54 140.973 1171.81 Q141.876 1170.05 141.876 1168.36 Q141.876 1165.6 139.931 1163.87 Q138.01 1162.13 134.908 1162.13 Q132.709 1162.13 130.256 1162.9 Q127.825 1163.66 125.047 1165.21 L125.047 1160.49 Q127.871 1159.35 130.325 1158.78 Q132.779 1158.2 134.816 1158.2 Q140.186 1158.2 143.38 1160.88 Q146.575 1163.57 146.575 1168.06 Q146.575 1170.19 145.765 1172.11 Q144.978 1174.01 142.871 1176.6 Q142.293 1177.27 139.191 1180.49 Q136.089 1183.68 130.441 1189.45 Z" fill="#000000" fill-rule="nonzero" fill-opacity="1"></path><path clip-path="url(#clip640)" d="M60.0708 982.43 Q56.4597 982.43 54.631 985.995 Q52.8254 989.537 52.8254 996.666 Q52.8254 1003.77 54.631 1007.34 Q56.4597 1010.88 60.0708 1010.88 Q63.705 1010.88 65.5105 1007.34 Q67.3392 1003.77 67.3392 996.666 Q67.3392 989.537 65.5105 985.995 Q63.705 982.43 60.0708 982.43 M60.0708 978.727 Q65.8809 978.727 68.9365 983.333 Q72.0151 987.916 72.0151 996.666 Q72.0151 1005.39 68.9365 1010 Q65.8809 1014.58 60.0708 1014.58 Q54.2606 1014.58 51.1819 1010 Q48.1264 1005.39 48.1264 996.666 Q48.1264 987.916 51.1819 983.333 Q54.2606 978.727 60.0708 978.727 Z" fill="#000000" fill-rule="nonzero" fill-opacity="1"></path><path clip-path="url(#clip640)" d="M80.2327 1008.03 L85.1169 1008.03 L85.1169 1013.91 L80.2327 1013.91 L80.2327 1008.03 Z" fill="#000000" fill-rule="nonzero" fill-opacity="1"></path><path clip-path="url(#clip640)" d="M105.302 982.43 Q101.691 982.43 99.8622 985.995 Q98.0567 989.537 98.0567 996.666 Q98.0567 1003.77 99.8622 1007.34 Q101.691 1010.88 105.302 1010.88 Q108.936 1010.88 110.742 1007.34 Q112.57 1003.77 112.57 996.666 Q112.57 989.537 110.742 985.995 Q108.936 982.43 105.302 982.43 M105.302 978.727 Q111.112 978.727 114.168 983.333 Q117.246 987.916 117.246 996.666 Q117.246 1005.39 114.168 1010 Q111.112 1014.58 105.302 1014.58 Q99.4918 1014.58 96.4132 1010 Q93.3576 1005.39 93.3576 996.666 Q93.3576 987.916 96.4132 983.333 Q99.4918 978.727 105.302 978.727 Z" fill="#000000" fill-rule="nonzero" fill-opacity="1"></path><path clip-path="url(#clip640)" d="M139.631 995.277 Q142.987 995.995 144.862 998.264 Q146.76 1000.53 146.76 1003.87 Q146.76 1008.98 143.242 1011.78 Q139.723 1014.58 133.242 1014.58 Q131.066 1014.58 128.751 1014.14 Q126.459 1013.73 124.006 1012.87 L124.006 1008.36 Q125.95 1009.49 128.265 1010.07 Q130.58 1010.65 133.103 1010.65 Q137.501 1010.65 139.793 1008.91 Q142.107 1007.18 142.107 1003.87 Q142.107 1000.81 139.955 999.097 Q137.825 997.361 134.006 997.361 L129.978 997.361 L129.978 993.518 L134.191 993.518 Q137.64 993.518 139.468 992.153 Q141.297 990.764 141.297 988.171 Q141.297 985.509 139.399 984.097 Q137.524 982.662 134.006 982.662 Q132.084 982.662 129.885 983.078 Q127.686 983.495 125.047 984.375 L125.047 980.208 Q127.709 979.467 130.024 979.097 Q132.362 978.727 134.422 978.727 Q139.746 978.727 142.848 981.157 Q145.95 983.565 145.95 987.685 Q145.95 990.555 144.306 992.546 Q142.663 994.514 139.631 995.277 Z" fill="#000000" fill-rule="nonzero" fill-opacity="1"></path><path clip-path="url(#clip640)" d="M58.9365 802.96 Q55.3254 802.96 53.4967 806.525 Q51.6912 810.066 51.6912 817.196 Q51.6912 824.303 53.4967 827.867 Q55.3254 831.409 58.9365 831.409 Q62.5707 831.409 64.3763 827.867 Q66.205 824.303 66.205 817.196 Q66.205 810.066 64.3763 806.525 Q62.5707 802.96 58.9365 802.96 M58.9365 799.256 Q64.7467 799.256 67.8022 803.863 Q70.8809 808.446 70.8809 817.196 Q70.8809 825.923 67.8022 830.529 Q64.7467 835.113 58.9365 835.113 Q53.1264 835.113 50.0477 830.529 Q46.9921 825.923 46.9921 817.196 Q46.9921 808.446 50.0477 803.863 Q53.1264 799.256 58.9365 799.256 Z" fill="#000000" fill-rule="nonzero" fill-opacity="1"></path><path clip-path="url(#clip640)" d="M79.0984 828.562 L83.9827 828.562 L83.9827 834.441 L79.0984 834.441 L79.0984 828.562 Z" fill="#000000" fill-rule="nonzero" fill-opacity="1"></path><path clip-path="url(#clip640)" d="M104.168 802.96 Q100.557 802.96 98.728 806.525 Q96.9224 810.066 96.9224 817.196 Q96.9224 824.303 98.728 827.867 Q100.557 831.409 104.168 831.409 Q107.802 831.409 109.608 827.867 Q111.436 824.303 111.436 817.196 Q111.436 810.066 109.608 806.525 Q107.802 802.96 104.168 802.96 M104.168 799.256 Q109.978 799.256 113.033 803.863 Q116.112 808.446 116.112 817.196 Q116.112 825.923 113.033 830.529 Q109.978 835.113 104.168 835.113 Q98.3576 835.113 95.2789 830.529 Q92.2234 825.923 92.2234 817.196 Q92.2234 808.446 95.2789 803.863 Q98.3576 799.256 104.168 799.256 Z" fill="#000000" fill-rule="nonzero" fill-opacity="1"></path><path clip-path="url(#clip640)" d="M137.177 803.955 L125.371 822.404 L137.177 822.404 L137.177 803.955 M135.95 799.881 L141.83 799.881 L141.83 822.404 L146.76 822.404 L146.76 826.293 L141.83 826.293 L141.83 834.441 L137.177 834.441 L137.177 826.293 L121.575 826.293 L121.575 821.779 L135.95 799.881 Z" fill="#000000" fill-rule="nonzero" fill-opacity="1"></path><path clip-path="url(#clip640)" d="M60.418 623.49 Q56.8069 623.49 54.9782 627.055 Q53.1726 630.596 53.1726 637.726 Q53.1726 644.832 54.9782 648.397 Q56.8069 651.939 60.418 651.939 Q64.0522 651.939 65.8578 648.397 Q67.6865 644.832 67.6865 637.726 Q67.6865 630.596 65.8578 627.055 Q64.0522 623.49 60.418 623.49 M60.418 619.786 Q66.2281 619.786 69.2837 624.393 Q72.3624 628.976 72.3624 637.726 Q72.3624 646.453 69.2837 651.059 Q66.2281 655.642 60.418 655.642 Q54.6078 655.642 51.5291 651.059 Q48.4736 646.453 48.4736 637.726 Q48.4736 628.976 51.5291 624.393 Q54.6078 619.786 60.418 619.786 Z" fill="#000000" fill-rule="nonzero" fill-opacity="1"></path><path clip-path="url(#clip640)" d="M80.5799 649.091 L85.4641 649.091 L85.4641 654.971 L80.5799 654.971 L80.5799 649.091 Z" fill="#000000" fill-rule="nonzero" fill-opacity="1"></path><path clip-path="url(#clip640)" d="M105.649 623.49 Q102.038 623.49 100.209 627.055 Q98.4039 630.596 98.4039 637.726 Q98.4039 644.832 100.209 648.397 Q102.038 651.939 105.649 651.939 Q109.283 651.939 111.089 648.397 Q112.918 644.832 112.918 637.726 Q112.918 630.596 111.089 627.055 Q109.283 623.49 105.649 623.49 M105.649 619.786 Q111.459 619.786 114.515 624.393 Q117.594 628.976 117.594 637.726 Q117.594 646.453 114.515 651.059 Q111.459 655.642 105.649 655.642 Q99.8391 655.642 96.7604 651.059 Q93.7048 646.453 93.7048 637.726 Q93.7048 628.976 96.7604 624.393 Q99.8391 619.786 105.649 619.786 Z" fill="#000000" fill-rule="nonzero" fill-opacity="1"></path><path clip-path="url(#clip640)" d="M125.857 620.411 L144.214 620.411 L144.214 624.346 L130.14 624.346 L130.14 632.818 Q131.158 632.471 132.177 632.309 Q133.195 632.124 134.214 632.124 Q140.001 632.124 143.38 635.295 Q146.76 638.466 146.76 643.883 Q146.76 649.462 143.288 652.564 Q139.816 655.642 133.496 655.642 Q131.32 655.642 129.052 655.272 Q126.807 654.902 124.399 654.161 L124.399 649.462 Q126.482 650.596 128.705 651.152 Q130.927 651.707 133.404 651.707 Q137.408 651.707 139.746 649.601 Q142.084 647.494 142.084 643.883 Q142.084 640.272 139.746 638.166 Q137.408 636.059 133.404 636.059 Q131.529 636.059 129.654 636.476 Q127.802 636.892 125.857 637.772 L125.857 620.411 Z" fill="#000000" fill-rule="nonzero" fill-opacity="1"></path><path clip-path="url(#clip640)" d="M59.2606 444.019 Q55.6495 444.019 53.8208 447.584 Q52.0152 451.126 52.0152 458.255 Q52.0152 465.362 53.8208 468.927 Q55.6495 472.468 59.2606 472.468 Q62.8948 472.468 64.7004 468.927 Q66.5291 465.362 66.5291 458.255 Q66.5291 451.126 64.7004 447.584 Q62.8948 444.019 59.2606 444.019 M59.2606 440.316 Q65.0707 440.316 68.1263 444.922 Q71.205 449.506 71.205 458.255 Q71.205 466.982 68.1263 471.589 Q65.0707 476.172 59.2606 476.172 Q53.4504 476.172 50.3717 471.589 Q47.3162 466.982 47.3162 458.255 Q47.3162 449.506 50.3717 444.922 Q53.4504 440.316 59.2606 440.316 Z" fill="#000000" fill-rule="nonzero" fill-opacity="1"></path><path clip-path="url(#clip640)" d="M79.4225 469.621 L84.3067 469.621 L84.3067 475.501 L79.4225 475.501 L79.4225 469.621 Z" fill="#000000" fill-rule="nonzero" fill-opacity="1"></path><path clip-path="url(#clip640)" d="M104.492 444.019 Q100.881 444.019 99.052 447.584 Q97.2465 451.126 97.2465 458.255 Q97.2465 465.362 99.052 468.927 Q100.881 472.468 104.492 472.468 Q108.126 472.468 109.932 468.927 Q111.76 465.362 111.76 458.255 Q111.76 451.126 109.932 447.584 Q108.126 444.019 104.492 444.019 M104.492 440.316 Q110.302 440.316 113.358 444.922 Q116.436 449.506 116.436 458.255 Q116.436 466.982 113.358 471.589 Q110.302 476.172 104.492 476.172 Q98.6817 476.172 95.603 471.589 Q92.5474 466.982 92.5474 458.255 Q92.5474 449.506 95.603 444.922 Q98.6817 440.316 104.492 440.316 Z" fill="#000000" fill-rule="nonzero" fill-opacity="1"></path><path clip-path="url(#clip640)" d="M135.232 456.357 Q132.084 456.357 130.232 458.51 Q128.404 460.663 128.404 464.413 Q128.404 468.14 130.232 470.316 Q132.084 472.468 135.232 472.468 Q138.381 472.468 140.209 470.316 Q142.061 468.14 142.061 464.413 Q142.061 460.663 140.209 458.51 Q138.381 456.357 135.232 456.357 M144.515 441.705 L144.515 445.964 Q142.756 445.131 140.95 444.691 Q139.168 444.251 137.408 444.251 Q132.779 444.251 130.325 447.376 Q127.894 450.501 127.547 456.82 Q128.913 454.806 130.973 453.742 Q133.033 452.654 135.51 452.654 Q140.718 452.654 143.728 455.825 Q146.76 458.973 146.76 464.413 Q146.76 469.737 143.612 472.954 Q140.464 476.172 135.232 476.172 Q129.237 476.172 126.066 471.589 Q122.894 466.982 122.894 458.255 Q122.894 450.061 126.783 445.2 Q130.672 440.316 137.223 440.316 Q138.982 440.316 140.765 440.663 Q142.57 441.01 144.515 441.705 Z" fill="#000000" fill-rule="nonzero" fill-opacity="1"></path><path clip-path="url(#clip640)" d="M60.3254 264.549 Q56.7143 264.549 54.8856 268.114 Q53.0801 271.656 53.0801 278.785 Q53.0801 285.892 54.8856 289.456 Q56.7143 292.998 60.3254 292.998 Q63.9596 292.998 65.7652 289.456 Q67.5939 285.892 67.5939 278.785 Q67.5939 271.656 65.7652 268.114 Q63.9596 264.549 60.3254 264.549 M60.3254 260.845 Q66.1355 260.845 69.1911 265.452 Q72.2698 270.035 72.2698 278.785 Q72.2698 287.512 69.1911 292.118 Q66.1355 296.702 60.3254 296.702 Q54.5152 296.702 51.4365 292.118 Q48.381 287.512 48.381 278.785 Q48.381 270.035 51.4365 265.452 Q54.5152 260.845 60.3254 260.845 Z" fill="#000000" fill-rule="nonzero" fill-opacity="1"></path><path clip-path="url(#clip640)" d="M80.4873 290.151 L85.3715 290.151 L85.3715 296.03 L80.4873 296.03 L80.4873 290.151 Z" fill="#000000" fill-rule="nonzero" fill-opacity="1"></path><path clip-path="url(#clip640)" d="M105.557 264.549 Q101.946 264.549 100.117 268.114 Q98.3113 271.656 98.3113 278.785 Q98.3113 285.892 100.117 289.456 Q101.946 292.998 105.557 292.998 Q109.191 292.998 110.996 289.456 Q112.825 285.892 112.825 278.785 Q112.825 271.656 110.996 268.114 Q109.191 264.549 105.557 264.549 M105.557 260.845 Q111.367 260.845 114.422 265.452 Q117.501 270.035 117.501 278.785 Q117.501 287.512 114.422 292.118 Q111.367 296.702 105.557 296.702 Q99.7465 296.702 96.6678 292.118 Q93.6122 287.512 93.6122 278.785 Q93.6122 270.035 96.6678 265.452 Q99.7465 260.845 105.557 260.845 Z" fill="#000000" fill-rule="nonzero" fill-opacity="1"></path><path clip-path="url(#clip640)" d="M124.538 261.47 L146.76 261.47 L146.76 263.461 L134.214 296.03 L129.33 296.03 L141.135 265.406 L124.538 265.406 L124.538 261.47 Z" fill="#000000" fill-rule="nonzero" fill-opacity="1"></path><path clip-path="url(#clip640)" d="M1448.43 14.0809 L1448.43 22.0612 Q1443.77 19.8332 1439.64 18.7395 Q1435.5 17.6457 1431.66 17.6457 Q1424.97 17.6457 1421.33 20.2383 Q1417.72 22.8309 1417.72 27.611 Q1417.72 31.6214 1420.11 33.6873 Q1422.54 35.7128 1429.27 36.9686 L1434.21 37.9813 Q1443.36 39.7232 1447.7 44.1387 Q1452.07 48.5136 1452.07 55.8863 Q1452.07 64.6767 1446.16 69.2137 Q1440.28 73.7508 1428.9 73.7508 Q1424.61 73.7508 1419.75 72.7785 Q1414.93 71.8063 1409.74 69.9024 L1409.74 61.4765 Q1414.72 64.2716 1419.5 65.6895 Q1424.28 67.1073 1428.9 67.1073 Q1435.91 67.1073 1439.72 64.3527 Q1443.52 61.598 1443.52 56.4939 Q1443.52 52.0379 1440.77 49.5264 Q1438.06 47.0148 1431.82 45.759 L1426.84 44.7868 Q1417.68 42.9639 1413.59 39.075 Q1409.5 35.1862 1409.5 28.2591 Q1409.5 20.2383 1415.13 15.6203 Q1420.8 11.0023 1430.72 11.0023 Q1434.98 11.0023 1439.39 11.7719 Q1443.81 12.5416 1448.43 14.0809 Z" fill="#000000" fill-rule="nonzero" fill-opacity="1"></path><path clip-path="url(#clip640)" d="M1491.85 34.9026 L1543.78 34.9026 L1543.78 41.7081 L1491.85 41.7081 L1491.85 34.9026 M1491.85 51.4303 L1543.78 51.4303 L1543.78 58.3168 L1491.85 58.3168 L1491.85 51.4303 Z" fill="#000000" fill-rule="nonzero" fill-opacity="1"></path><path clip-path="url(#clip640)" d="M1621.36 80.2727 L1621.36 86.106 L1618.85 86.106 Q1608.76 86.106 1605.32 83.1084 Q1601.92 80.1107 1601.92 71.1582 L1601.92 61.4765 Q1601.92 55.3597 1599.73 53.0101 Q1597.54 50.6606 1591.79 50.6606 L1589.32 50.6606 L1589.32 44.8678 L1591.79 44.8678 Q1597.58 44.8678 1599.73 42.5588 Q1601.92 40.2093 1601.92 34.1734 L1601.92 24.4513 Q1601.92 15.4988 1605.32 12.5416 Q1608.76 9.54393 1618.85 9.54393 L1621.36 9.54393 L1621.36 15.3367 L1618.6 15.3367 Q1612.89 15.3367 1611.15 17.1191 Q1609.41 18.9015 1609.41 24.6133 L1609.41 34.6595 Q1609.41 41.0195 1607.55 43.8956 Q1605.72 46.7717 1601.27 47.7845 Q1605.76 48.8782 1607.59 51.7544 Q1609.41 54.6305 1609.41 60.9499 L1609.41 70.9961 Q1609.41 76.7079 1611.15 78.4903 Q1612.89 80.2727 1618.6 80.2727 L1621.36 80.2727 Z" fill="#000000" fill-rule="nonzero" fill-opacity="1"></path><path clip-path="url(#clip640)" d="M1642.02 65.6895 L1655.39 65.6895 L1655.39 19.5497 L1640.84 22.4663 L1640.84 15.0127 L1655.31 12.096 L1663.49 12.096 L1663.49 65.6895 L1676.86 65.6895 L1676.86 72.576 L1642.02 72.576 L1642.02 65.6895 Z" fill="#000000" fill-rule="nonzero" fill-opacity="1"></path><path clip-path="url(#clip640)" d="M1710.88 17.4837 Q1704.57 17.4837 1701.36 23.7221 Q1698.21 29.92 1698.21 42.3968 Q1698.21 54.833 1701.36 61.0714 Q1704.57 67.2693 1710.88 67.2693 Q1717.24 67.2693 1720.4 61.0714 Q1723.6 54.833 1723.6 42.3968 Q1723.6 29.92 1720.4 23.7221 Q1717.24 17.4837 1710.88 17.4837 M1710.88 11.0023 Q1721.05 11.0023 1726.4 19.0636 Q1731.79 27.0843 1731.79 42.3968 Q1731.79 57.6687 1726.4 65.73 Q1721.05 73.7508 1710.88 73.7508 Q1700.72 73.7508 1695.33 65.73 Q1689.98 57.6687 1689.98 42.3968 Q1689.98 27.0843 1695.33 19.0636 Q1700.72 11.0023 1710.88 11.0023 Z" fill="#000000" fill-rule="nonzero" fill-opacity="1"></path><path clip-path="url(#clip640)" d="M1747.02 62.2867 L1755.57 62.2867 L1755.57 69.2543 L1748.92 82.2172 L1743.7 82.2172 L1747.02 69.2543 L1747.02 62.2867 Z" fill="#000000" fill-rule="nonzero" fill-opacity="1"></path><path clip-path="url(#clip640)" d="M1800.33 65.6895 L1813.7 65.6895 L1813.7 19.5497 L1799.15 22.4663 L1799.15 15.0127 L1813.62 12.096 L1821.8 12.096 L1821.8 65.6895 L1835.17 65.6895 L1835.17 72.576 L1800.33 72.576 L1800.33 65.6895 Z" fill="#000000" fill-rule="nonzero" fill-opacity="1"></path><path clip-path="url(#clip640)" d="M1853.11 65.6895 L1866.48 65.6895 L1866.48 19.5497 L1851.94 22.4663 L1851.94 15.0127 L1866.4 12.096 L1874.58 12.096 L1874.58 65.6895 L1887.95 65.6895 L1887.95 72.576 L1853.11 72.576 L1853.11 65.6895 Z" fill="#000000" fill-rule="nonzero" fill-opacity="1"></path><path clip-path="url(#clip640)" d="M1905.98 80.2727 L1908.81 80.2727 Q1914.48 80.2727 1916.18 78.5308 Q1917.93 76.7889 1917.93 70.9961 L1917.93 60.9499 Q1917.93 54.6305 1919.75 51.7544 Q1921.57 48.8782 1926.07 47.7845 Q1921.57 46.7717 1919.75 43.8956 Q1917.93 41.0195 1917.93 34.6595 L1917.93 24.6133 Q1917.93 18.861 1916.18 17.1191 Q1914.48 15.3367 1908.81 15.3367 L1905.98 15.3367 L1905.98 9.54393 L1908.53 9.54393 Q1918.61 9.54393 1921.98 12.5416 Q1925.38 15.4988 1925.38 24.4513 L1925.38 34.1734 Q1925.38 40.2093 1927.57 42.5588 Q1929.75 44.8678 1935.51 44.8678 L1938.02 44.8678 L1938.02 50.6606 L1935.51 50.6606 Q1929.75 50.6606 1927.57 53.0101 Q1925.38 55.3597 1925.38 61.4765 L1925.38 71.1582 Q1925.38 80.1107 1921.98 83.1084 Q1918.61 86.106 1908.53 86.106 L1905.98 86.106 L1905.98 80.2727 Z" fill="#000000" fill-rule="nonzero" fill-opacity="1"></path><path clip-path="url(#clip642)" d="M278.477 1124.99 L836.589 849.524 L1394.7 777.48 L1952.81 655.663 L2510.93 788.912 L3069.04 791.776 L3069.04 769.396 L2510.93 743.643 L1952.81 582.913 L1394.7 658.816 L836.589 513.929 L278.477 737.968  Z" fill="#7e99f4" fill-rule="evenodd" fill-opacity="0.25"></path>
<polyline clip-path="url(#clip642)" style="stroke:#7e99f4; stroke-linecap:round; stroke-linejoin:round; stroke-width:10.8; stroke-opacity:1; fill:none" points="278.477,931.477 836.589,681.726 1394.7,718.148 1952.81,619.288 2510.93,766.277 3069.04,780.586 "></polyline>
<path clip-path="url(#clip642)" d="M278.477 1267.65 L836.589 464.054 L1394.7 743.164 L1952.81 762.547 L2510.93 587.871 L3069.04 794.554 L3069.04 777.435 L2510.93 540.65 L1952.81 719.537 L1394.7 605.576 L836.589 181.602 L278.477 864.991  Z" fill="#cc7c71" fill-rule="evenodd" fill-opacity="0.25"></path>
<polyline clip-path="url(#clip642)" style="stroke:#cc7c71; stroke-linecap:round; stroke-linejoin:round; stroke-width:10.8; stroke-opacity:1; fill:none" stroke-dasharray="43, 22, 5, 22" points="278.477,1066.32 836.589,322.828 1394.7,674.37 1952.81,741.042 2510.93,564.261 3069.04,785.995 "></polyline>
<polyline clip-path="url(#clip642)" style="stroke:#3da44d; stroke-linecap:round; stroke-linejoin:round; stroke-width:7.2; stroke-opacity:0.8; fill:none" stroke-dasharray="29, 18" points="278.477,914.998 836.589,5.59967 1394.7,806.49 1952.81,468.05 2510.93,488.718 3069.04,645.666 "></polyline>
<polyline clip-path="url(#clip642)" style="stroke:#c271d2; stroke-linecap:round; stroke-linejoin:round; stroke-width:7.2; stroke-opacity:0.8; fill:none" stroke-dasharray="29, 18" points="278.477,570.387 836.589,548.951 1394.7,709.726 1952.81,570.387 2510.93,819.59 3069.04,574.407 "></polyline>
<polyline clip-path="url(#clip642)" style="stroke:#ac8d18; stroke-linecap:round; stroke-linejoin:round; stroke-width:7.2; stroke-opacity:0.8; fill:none" stroke-dasharray="29, 18" points="278.477,598.809 836.589,981.814 1394.7,987.133 1952.81,673.282 2510.93,602.798 3069.04,682.591 "></polyline>
<polyline clip-path="url(#clip642)" style="stroke:#00a9ad; stroke-linecap:round; stroke-linejoin:round; stroke-width:7.2; stroke-opacity:0.8; fill:none" stroke-dasharray="29, 18" points="278.477,225.074 836.589,996.265 1394.7,969.854 1952.81,784.98 2510.93,535.399 3069.04,588.881 "></polyline>
<polyline clip-path="url(#clip642)" style="stroke:#000000; stroke-linecap:round; stroke-linejoin:round; stroke-width:8; stroke-opacity:1; fill:none" stroke-dasharray="4, 8" points="-2763.24,685.921 6110.75,685.921 "></polyline>
<path clip-path="url(#clip640)" d="M698.557 1140.21 L3054.16 1140.21 L3054.16 1036.53 L698.557 1036.53  Z" fill="#ffffff" fill-rule="evenodd" fill-opacity="1"></path>
<polyline clip-path="url(#clip640)" style="stroke:#000000; stroke-linecap:round; stroke-linejoin:round; stroke-width:4; stroke-opacity:1; fill:none" points="698.557,1140.21 3054.16,1140.21 3054.16,1036.53 698.557,1036.53 698.557,1140.21 "></polyline>
<polyline clip-path="url(#clip640)" style="stroke:#7e99f4; stroke-linecap:round; stroke-linejoin:round; stroke-width:10.8; stroke-opacity:1; fill:none" points="731.423,1088.37 928.623,1088.37 "></polyline>
<path clip-path="url(#clip640)" d="M961.49 1071.09 L981.351 1071.09 L981.351 1075.02 L966.166 1075.02 L966.166 1085.21 L979.869 1085.21 L979.869 1089.14 L966.166 1089.14 L966.166 1105.65 L961.49 1105.65 L961.49 1071.09 Z" fill="#000000" fill-rule="nonzero" fill-opacity="1"></path><path clip-path="url(#clip640)" d="M1014.64 1073.75 L1014.64 1078.68 Q1012.28 1076.48 1009.59 1075.39 Q1006.93 1074.31 1003.92 1074.31 Q997.994 1074.31 994.846 1077.94 Q991.698 1081.55 991.698 1088.4 Q991.698 1095.23 994.846 1098.87 Q997.994 1102.48 1003.92 1102.48 Q1006.93 1102.48 1009.59 1101.39 Q1012.28 1100.3 1014.64 1098.1 L1014.64 1102.99 Q1012.18 1104.65 1009.43 1105.49 Q1006.7 1106.32 1003.64 1106.32 Q995.795 1106.32 991.281 1101.53 Q986.767 1096.71 986.767 1088.4 Q986.767 1080.07 991.281 1075.28 Q995.795 1070.46 1003.64 1070.46 Q1006.74 1070.46 1009.48 1071.3 Q1012.23 1072.11 1014.64 1073.75 Z" fill="#000000" fill-rule="nonzero" fill-opacity="1"></path><path clip-path="url(#clip640)" d="M1042.58 1072.22 L1042.58 1076.78 Q1039.92 1075.51 1037.55 1074.88 Q1035.19 1074.26 1032.99 1074.26 Q1029.17 1074.26 1027.09 1075.74 Q1025.03 1077.22 1025.03 1079.95 Q1025.03 1082.25 1026.4 1083.43 Q1027.79 1084.58 1031.63 1085.3 L1034.45 1085.88 Q1039.68 1086.87 1042.16 1089.4 Q1044.66 1091.9 1044.66 1096.11 Q1044.66 1101.13 1041.28 1103.73 Q1037.92 1106.32 1031.42 1106.32 Q1028.97 1106.32 1026.19 1105.76 Q1023.43 1105.21 1020.47 1104.12 L1020.47 1099.31 Q1023.32 1100.9 1026.05 1101.71 Q1028.78 1102.52 1031.42 1102.52 Q1035.42 1102.52 1037.6 1100.95 Q1039.78 1099.37 1039.78 1096.46 Q1039.78 1093.91 1038.2 1092.48 Q1036.65 1091.04 1033.09 1090.32 L1030.24 1089.77 Q1025.01 1088.73 1022.67 1086.5 Q1020.33 1084.28 1020.33 1080.32 Q1020.33 1075.74 1023.55 1073.1 Q1026.79 1070.46 1032.46 1070.46 Q1034.89 1070.46 1037.42 1070.9 Q1039.94 1071.34 1042.58 1072.22 Z" fill="#000000" fill-rule="nonzero" fill-opacity="1"></path><polyline clip-path="url(#clip640)" style="stroke:#cc7c71; stroke-linecap:round; stroke-linejoin:round; stroke-width:10.8; stroke-opacity:1; fill:none" stroke-dasharray="43, 22, 5, 22" points="1118.55,1088.37 1315.75,1088.37 "></polyline>
<path clip-path="url(#clip640)" d="M1367.52 1083.66 L1367.52 1069.63 L1371.78 1069.63 L1371.78 1105.65 L1367.52 1105.65 L1367.52 1101.76 Q1366.18 1104.07 1364.12 1105.21 Q1362.08 1106.32 1359.21 1106.32 Q1354.51 1106.32 1351.55 1102.57 Q1348.61 1098.82 1348.61 1092.71 Q1348.61 1086.6 1351.55 1082.85 Q1354.51 1079.1 1359.21 1079.1 Q1362.08 1079.1 1364.12 1080.23 Q1366.18 1081.34 1367.52 1083.66 M1353.01 1092.71 Q1353.01 1097.41 1354.93 1100.09 Q1356.88 1102.75 1360.26 1102.75 Q1363.63 1102.75 1365.58 1100.09 Q1367.52 1097.41 1367.52 1092.71 Q1367.52 1088.01 1365.58 1085.35 Q1363.63 1082.66 1360.26 1082.66 Q1356.88 1082.66 1354.93 1085.35 Q1353.01 1088.01 1353.01 1092.71 Z" fill="#000000" fill-rule="nonzero" fill-opacity="1"></path><path clip-path="url(#clip640)" d="M1381.11 1084.12 L1410.79 1084.12 L1410.79 1088.01 L1381.11 1088.01 L1381.11 1084.12 M1381.11 1093.56 L1410.79 1093.56 L1410.79 1097.5 L1381.11 1097.5 L1381.11 1093.56 Z" fill="#000000" fill-rule="nonzero" fill-opacity="1"></path><path clip-path="url(#clip640)" d="M1420.93 1071.09 L1439.28 1071.09 L1439.28 1075.02 L1425.21 1075.02 L1425.21 1083.5 Q1426.23 1083.15 1427.25 1082.99 Q1428.26 1082.8 1429.28 1082.8 Q1435.07 1082.8 1438.45 1085.97 Q1441.83 1089.14 1441.83 1094.56 Q1441.83 1100.14 1438.36 1103.24 Q1434.88 1106.32 1428.57 1106.32 Q1426.39 1106.32 1424.12 1105.95 Q1421.88 1105.58 1419.47 1104.84 L1419.47 1100.14 Q1421.55 1101.27 1423.77 1101.83 Q1426 1102.38 1428.47 1102.38 Q1432.48 1102.38 1434.82 1100.28 Q1437.15 1098.17 1437.15 1094.56 Q1437.15 1090.95 1434.82 1088.84 Q1432.48 1086.74 1428.47 1086.74 Q1426.6 1086.74 1424.72 1087.15 Q1422.87 1087.57 1420.93 1088.45 L1420.93 1071.09 Z" fill="#000000" fill-rule="nonzero" fill-opacity="1"></path><polyline clip-path="url(#clip640)" style="stroke:#3da44d; stroke-linecap:round; stroke-linejoin:round; stroke-width:7.2; stroke-opacity:0.8; fill:none" stroke-dasharray="29, 18" points="1505.67,1088.37 1702.87,1088.37 "></polyline>
<path clip-path="url(#clip640)" d="M1754.65 1083.66 L1754.65 1069.63 L1758.91 1069.63 L1758.91 1105.65 L1754.65 1105.65 L1754.65 1101.76 Q1753.3 1104.07 1751.24 1105.21 Q1749.21 1106.32 1746.34 1106.32 Q1741.64 1106.32 1738.67 1102.57 Q1735.73 1098.82 1735.73 1092.71 Q1735.73 1086.6 1738.67 1082.85 Q1741.64 1079.1 1746.34 1079.1 Q1749.21 1079.1 1751.24 1080.23 Q1753.3 1081.34 1754.65 1083.66 M1740.13 1092.71 Q1740.13 1097.41 1742.05 1100.09 Q1744 1102.75 1747.38 1102.75 Q1750.76 1102.75 1752.7 1100.09 Q1754.65 1097.41 1754.65 1092.71 Q1754.65 1088.01 1752.7 1085.35 Q1750.76 1082.66 1747.38 1082.66 Q1744 1082.66 1742.05 1085.35 Q1740.13 1088.01 1740.13 1092.71 Z" fill="#000000" fill-rule="nonzero" fill-opacity="1"></path><path clip-path="url(#clip640)" d="M1768.23 1084.12 L1797.91 1084.12 L1797.91 1088.01 L1768.23 1088.01 L1768.23 1084.12 M1768.23 1093.56 L1797.91 1093.56 L1797.91 1097.5 L1768.23 1097.5 L1768.23 1093.56 Z" fill="#000000" fill-rule="nonzero" fill-opacity="1"></path><path clip-path="url(#clip640)" d="M1808.14 1104.93 L1808.14 1100.67 Q1809.9 1101.5 1811.71 1101.94 Q1813.51 1102.38 1815.25 1102.38 Q1819.88 1102.38 1822.31 1099.28 Q1824.76 1096.16 1825.11 1089.81 Q1823.77 1091.81 1821.71 1092.87 Q1819.65 1093.93 1817.15 1093.93 Q1811.96 1093.93 1808.93 1090.81 Q1805.92 1087.66 1805.92 1082.22 Q1805.92 1076.9 1809.07 1073.68 Q1812.22 1070.46 1817.45 1070.46 Q1823.44 1070.46 1826.59 1075.07 Q1829.76 1079.65 1829.76 1088.4 Q1829.76 1096.57 1825.87 1101.46 Q1822.01 1106.32 1815.46 1106.32 Q1813.7 1106.32 1811.89 1105.97 Q1810.09 1105.62 1808.14 1104.93 M1817.45 1090.28 Q1820.59 1090.28 1822.42 1088.12 Q1824.28 1085.97 1824.28 1082.22 Q1824.28 1078.5 1822.42 1076.34 Q1820.59 1074.17 1817.45 1074.17 Q1814.3 1074.17 1812.45 1076.34 Q1810.62 1078.5 1810.62 1082.22 Q1810.62 1085.97 1812.45 1088.12 Q1814.3 1090.28 1817.45 1090.28 Z" fill="#000000" fill-rule="nonzero" fill-opacity="1"></path><polyline clip-path="url(#clip640)" style="stroke:#c271d2; stroke-linecap:round; stroke-linejoin:round; stroke-width:7.2; stroke-opacity:0.8; fill:none" stroke-dasharray="29, 18" points="1892.79,1088.37 2089.99,1088.37 "></polyline>
<path clip-path="url(#clip640)" d="M2141.77 1083.66 L2141.77 1069.63 L2146.03 1069.63 L2146.03 1105.65 L2141.77 1105.65 L2141.77 1101.76 Q2140.43 1104.07 2138.37 1105.21 Q2136.33 1106.32 2133.46 1106.32 Q2128.76 1106.32 2125.8 1102.57 Q2122.86 1098.82 2122.86 1092.71 Q2122.86 1086.6 2125.8 1082.85 Q2128.76 1079.1 2133.46 1079.1 Q2136.33 1079.1 2138.37 1080.23 Q2140.43 1081.34 2141.77 1083.66 M2127.25 1092.71 Q2127.25 1097.41 2129.18 1100.09 Q2131.12 1102.75 2134.5 1102.75 Q2137.88 1102.75 2139.82 1100.09 Q2141.77 1097.41 2141.77 1092.71 Q2141.77 1088.01 2139.82 1085.35 Q2137.88 1082.66 2134.5 1082.66 Q2131.12 1082.66 2129.18 1085.35 Q2127.25 1088.01 2127.25 1092.71 Z" fill="#000000" fill-rule="nonzero" fill-opacity="1"></path><path clip-path="url(#clip640)" d="M2155.36 1084.12 L2185.03 1084.12 L2185.03 1088.01 L2155.36 1088.01 L2155.36 1084.12 M2155.36 1093.56 L2185.03 1093.56 L2185.03 1097.5 L2155.36 1097.5 L2155.36 1093.56 Z" fill="#000000" fill-rule="nonzero" fill-opacity="1"></path><path clip-path="url(#clip640)" d="M2195.93 1101.71 L2203.57 1101.71 L2203.57 1075.35 L2195.26 1077.01 L2195.26 1072.75 L2203.53 1071.09 L2208.2 1071.09 L2208.2 1101.71 L2215.84 1101.71 L2215.84 1105.65 L2195.93 1105.65 L2195.93 1101.71 Z" fill="#000000" fill-rule="nonzero" fill-opacity="1"></path><path clip-path="url(#clip640)" d="M2225.33 1071.09 L2243.69 1071.09 L2243.69 1075.02 L2229.61 1075.02 L2229.61 1083.5 Q2230.63 1083.15 2231.65 1082.99 Q2232.67 1082.8 2233.69 1082.8 Q2239.48 1082.8 2242.86 1085.97 Q2246.24 1089.14 2246.24 1094.56 Q2246.24 1100.14 2242.76 1103.24 Q2239.29 1106.32 2232.97 1106.32 Q2230.8 1106.32 2228.53 1105.95 Q2226.28 1105.58 2223.87 1104.84 L2223.87 1100.14 Q2225.96 1101.27 2228.18 1101.83 Q2230.4 1102.38 2232.88 1102.38 Q2236.88 1102.38 2239.22 1100.28 Q2241.56 1098.17 2241.56 1094.56 Q2241.56 1090.95 2239.22 1088.84 Q2236.88 1086.74 2232.88 1086.74 Q2231 1086.74 2229.13 1087.15 Q2227.28 1087.57 2225.33 1088.45 L2225.33 1071.09 Z" fill="#000000" fill-rule="nonzero" fill-opacity="1"></path><polyline clip-path="url(#clip640)" style="stroke:#ac8d18; stroke-linecap:round; stroke-linejoin:round; stroke-width:7.2; stroke-opacity:0.8; fill:none" stroke-dasharray="29, 18" points="2279.91,1088.37 2477.11,1088.37 "></polyline>
<path clip-path="url(#clip640)" d="M2528.89 1083.66 L2528.89 1069.63 L2533.15 1069.63 L2533.15 1105.65 L2528.89 1105.65 L2528.89 1101.76 Q2527.55 1104.07 2525.49 1105.21 Q2523.45 1106.32 2520.58 1106.32 Q2515.88 1106.32 2512.92 1102.57 Q2509.98 1098.82 2509.98 1092.71 Q2509.98 1086.6 2512.92 1082.85 Q2515.88 1079.1 2520.58 1079.1 Q2523.45 1079.1 2525.49 1080.23 Q2527.55 1081.34 2528.89 1083.66 M2514.38 1092.71 Q2514.38 1097.41 2516.3 1100.09 Q2518.24 1102.75 2521.62 1102.75 Q2525 1102.75 2526.95 1100.09 Q2528.89 1097.41 2528.89 1092.71 Q2528.89 1088.01 2526.95 1085.35 Q2525 1082.66 2521.62 1082.66 Q2518.24 1082.66 2516.3 1085.35 Q2514.38 1088.01 2514.38 1092.71 Z" fill="#000000" fill-rule="nonzero" fill-opacity="1"></path><path clip-path="url(#clip640)" d="M2542.48 1084.12 L2572.15 1084.12 L2572.15 1088.01 L2542.48 1088.01 L2542.48 1084.12 M2542.48 1093.56 L2572.15 1093.56 L2572.15 1097.5 L2542.48 1097.5 L2542.48 1093.56 Z" fill="#000000" fill-rule="nonzero" fill-opacity="1"></path><path clip-path="url(#clip640)" d="M2583.06 1101.71 L2590.7 1101.71 L2590.7 1075.35 L2582.39 1077.01 L2582.39 1072.75 L2590.65 1071.09 L2595.32 1071.09 L2595.32 1101.71 L2602.96 1101.71 L2602.96 1105.65 L2583.06 1105.65 L2583.06 1101.71 Z" fill="#000000" fill-rule="nonzero" fill-opacity="1"></path><path clip-path="url(#clip640)" d="M2612.55 1104.93 L2612.55 1100.67 Q2614.31 1101.5 2616.11 1101.94 Q2617.92 1102.38 2619.65 1102.38 Q2624.28 1102.38 2626.71 1099.28 Q2629.17 1096.16 2629.51 1089.81 Q2628.17 1091.81 2626.11 1092.87 Q2624.05 1093.93 2621.55 1093.93 Q2616.37 1093.93 2613.33 1090.81 Q2610.32 1087.66 2610.32 1082.22 Q2610.32 1076.9 2613.47 1073.68 Q2616.62 1070.46 2621.85 1070.46 Q2627.85 1070.46 2631 1075.07 Q2634.17 1079.65 2634.17 1088.4 Q2634.17 1096.57 2630.28 1101.46 Q2626.41 1106.32 2619.86 1106.32 Q2618.1 1106.32 2616.3 1105.97 Q2614.49 1105.62 2612.55 1104.93 M2621.85 1090.28 Q2625 1090.28 2626.83 1088.12 Q2628.68 1085.97 2628.68 1082.22 Q2628.68 1078.5 2626.83 1076.34 Q2625 1074.17 2621.85 1074.17 Q2618.7 1074.17 2616.85 1076.34 Q2615.02 1078.5 2615.02 1082.22 Q2615.02 1085.97 2616.85 1088.12 Q2618.7 1090.28 2621.85 1090.28 Z" fill="#000000" fill-rule="nonzero" fill-opacity="1"></path><polyline clip-path="url(#clip640)" style="stroke:#00a9ad; stroke-linecap:round; stroke-linejoin:round; stroke-width:7.2; stroke-opacity:0.8; fill:none" stroke-dasharray="29, 18" points="2667.03,1088.37 2864.23,1088.37 "></polyline>
<path clip-path="url(#clip640)" d="M2916.01 1083.66 L2916.01 1069.63 L2920.27 1069.63 L2920.27 1105.65 L2916.01 1105.65 L2916.01 1101.76 Q2914.67 1104.07 2912.61 1105.21 Q2910.57 1106.32 2907.7 1106.32 Q2903 1106.32 2900.04 1102.57 Q2897.1 1098.82 2897.1 1092.71 Q2897.1 1086.6 2900.04 1082.85 Q2903 1079.1 2907.7 1079.1 Q2910.57 1079.1 2912.61 1080.23 Q2914.67 1081.34 2916.01 1083.66 M2901.5 1092.71 Q2901.5 1097.41 2903.42 1100.09 Q2905.36 1102.75 2908.74 1102.75 Q2912.12 1102.75 2914.07 1100.09 Q2916.01 1097.41 2916.01 1092.71 Q2916.01 1088.01 2914.07 1085.35 Q2912.12 1082.66 2908.74 1082.66 Q2905.36 1082.66 2903.42 1085.35 Q2901.5 1088.01 2901.5 1092.71 Z" fill="#000000" fill-rule="nonzero" fill-opacity="1"></path><path clip-path="url(#clip640)" d="M2929.6 1084.12 L2959.28 1084.12 L2959.28 1088.01 L2929.6 1088.01 L2929.6 1084.12 M2929.6 1093.56 L2959.28 1093.56 L2959.28 1097.5 L2929.6 1097.5 L2929.6 1093.56 Z" fill="#000000" fill-rule="nonzero" fill-opacity="1"></path><path clip-path="url(#clip640)" d="M2973.4 1101.71 L2989.72 1101.71 L2989.72 1105.65 L2967.77 1105.65 L2967.77 1101.71 Q2970.43 1098.96 2975.02 1094.33 Q2979.62 1089.68 2980.8 1088.33 Q2983.05 1085.81 2983.93 1084.07 Q2984.83 1082.31 2984.83 1080.62 Q2984.83 1077.87 2982.89 1076.13 Q2980.97 1074.4 2977.86 1074.4 Q2975.66 1074.4 2973.21 1075.16 Q2970.78 1075.93 2968 1077.48 L2968 1072.75 Q2970.83 1071.62 2973.28 1071.04 Q2975.73 1070.46 2977.77 1070.46 Q2983.14 1070.46 2986.34 1073.15 Q2989.53 1075.83 2989.53 1080.32 Q2989.53 1082.45 2988.72 1084.37 Q2987.93 1086.27 2985.83 1088.87 Q2985.25 1089.54 2982.15 1092.75 Q2979.04 1095.95 2973.4 1101.71 Z" fill="#000000" fill-rule="nonzero" fill-opacity="1"></path><path clip-path="url(#clip640)" d="M3013.7 1087.01 Q3017.05 1087.73 3018.93 1090 Q3020.83 1092.27 3020.83 1095.6 Q3020.83 1100.72 3017.31 1103.52 Q3013.79 1106.32 3007.31 1106.32 Q3005.13 1106.32 3002.82 1105.88 Q3000.53 1105.46 2998.07 1104.61 L2998.07 1100.09 Q3000.02 1101.23 3002.33 1101.81 Q3004.65 1102.38 3007.17 1102.38 Q3011.57 1102.38 3013.86 1100.65 Q3016.17 1098.91 3016.17 1095.6 Q3016.17 1092.55 3014.02 1090.83 Q3011.89 1089.1 3008.07 1089.1 L3004.04 1089.1 L3004.04 1085.25 L3008.26 1085.25 Q3011.71 1085.25 3013.53 1083.89 Q3015.36 1082.5 3015.36 1079.91 Q3015.36 1077.25 3013.47 1075.83 Q3011.59 1074.4 3008.07 1074.4 Q3006.15 1074.4 3003.95 1074.81 Q3001.75 1075.23 2999.11 1076.11 L2999.11 1071.94 Q3001.78 1071.2 3004.09 1070.83 Q3006.43 1070.46 3008.49 1070.46 Q3013.81 1070.46 3016.91 1072.89 Q3020.02 1075.3 3020.02 1079.42 Q3020.02 1082.29 3018.37 1084.28 Q3016.73 1086.25 3013.7 1087.01 Z" fill="#000000" fill-rule="nonzero" fill-opacity="1"></path></svg>