<svg xmlns="http://www.w3.org/2000/svg" xmlns:xlink="http://www.w3.org/1999/xlink" width="800" height="600" viewBox="0 0 3200 2400">
<defs>
  <clipPath id="clip120">
    <rect x="0" y="0" width="3200" height="2400"></rect>
  </clipPath>
</defs>
<path clip-path="url(#clip120)" d="M0 2400 L3200 2400 L3200 0 L0 0  Z" fill="#ffffff" fill-rule="evenodd" fill-opacity="1"></path>
<defs>
  <clipPath id="clip121">
    <rect x="640" y="0" width="2241" height="2241"></rect>
  </clipPath>
</defs>
<path clip-path="url(#clip120)" d="M233.806 2191.1 L3152.76 2191.1 L3152.76 47.2441 L233.806 47.2441  Z" fill="#ffffff" fill-rule="evenodd" fill-opacity="1"></path>
<defs>
  <clipPath id="clip122">
    <rect x="233" y="47" width="2920" height="2145"></rect>
  </clipPath>
</defs>
<polyline clip-path="url(#clip122)" style="stroke:#000000; stroke-linecap:round; stroke-linejoin:round; stroke-width:2; stroke-opacity:0.1; fill:none" points="316.418,2191.1 316.418,47.2441 "></polyline>
<polyline clip-path="url(#clip122)" style="stroke:#000000; stroke-linecap:round; stroke-linejoin:round; stroke-width:2; stroke-opacity:0.1; fill:none" points="856.399,2191.1 856.399,47.2441 "></polyline>
<polyline clip-path="url(#clip122)" style="stroke:#000000; stroke-linecap:round; stroke-linejoin:round; stroke-width:2; stroke-opacity:0.1; fill:none" points="1396.38,2191.1 1396.38,47.2441 "></polyline>
<polyline clip-path="url(#clip122)" style="stroke:#000000; stroke-linecap:round; stroke-linejoin:round; stroke-width:2; stroke-opacity:0.1; fill:none" points="1936.36,2191.1 1936.36,47.2441 "></polyline>
<polyline clip-path="url(#clip122)" style="stroke:#000000; stroke-linecap:round; stroke-linejoin:round; stroke-width:2; stroke-opacity:0.1; fill:none" points="2476.34,2191.1 2476.34,47.2441 "></polyline>
<polyline clip-path="url(#clip122)" style="stroke:#000000; stroke-linecap:round; stroke-linejoin:round; stroke-width:2; stroke-opacity:0.1; fill:none" points="3016.32,2191.1 3016.32,47.2441 "></polyline>
<polyline clip-path="url(#clip122)" style="stroke:#000000; stroke-linecap:round; stroke-linejoin:round; stroke-width:2; stroke-opacity:0.1; fill:none" points="233.806,1983.43 3152.76,1983.43 "></polyline>
<polyline clip-path="url(#clip122)" style="stroke:#000000; stroke-linecap:round; stroke-linejoin:round; stroke-width:2; stroke-opacity:0.1; fill:none" points="233.806,1613.39 3152.76,1613.39 "></polyline>
<polyline clip-path="url(#clip122)" style="stroke:#000000; stroke-linecap:round; stroke-linejoin:round; stroke-width:2; stroke-opacity:0.1; fill:none" points="233.806,1243.36 3152.76,1243.36 "></polyline>
<polyline clip-path="url(#clip122)" style="stroke:#000000; stroke-linecap:round; stroke-linejoin:round; stroke-width:2; stroke-opacity:0.1; fill:none" points="233.806,873.33 3152.76,873.33 "></polyline>
<polyline clip-path="url(#clip122)" style="stroke:#000000; stroke-linecap:round; stroke-linejoin:round; stroke-width:2; stroke-opacity:0.1; fill:none" points="233.806,503.298 3152.76,503.298 "></polyline>
<polyline clip-path="url(#clip122)" style="stroke:#000000; stroke-linecap:round; stroke-linejoin:round; stroke-width:2; stroke-opacity:0.1; fill:none" points="233.806,133.266 3152.76,133.266 "></polyline>
<polyline clip-path="url(#clip120)" style="stroke:#000000; stroke-linecap:round; stroke-linejoin:round; stroke-width:4; stroke-opacity:1; fill:none" points="233.806,2191.1 3152.76,2191.1 "></polyline>
<polyline clip-path="url(#clip120)" style="stroke:#000000; stroke-linecap:round; stroke-linejoin:round; stroke-width:4; stroke-opacity:1; fill:none" points="316.418,2191.1 316.418,2172.2 "></polyline>
<polyline clip-path="url(#clip120)" style="stroke:#000000; stroke-linecap:round; stroke-linejoin:round; stroke-width:4; stroke-opacity:1; fill:none" points="856.399,2191.1 856.399,2172.2 "></polyline>
<polyline clip-path="url(#clip120)" style="stroke:#000000; stroke-linecap:round; stroke-linejoin:round; stroke-width:4; stroke-opacity:1; fill:none" points="1396.38,2191.1 1396.38,2172.2 "></polyline>
<polyline clip-path="url(#clip120)" style="stroke:#000000; stroke-linecap:round; stroke-linejoin:round; stroke-width:4; stroke-opacity:1; fill:none" points="1936.36,2191.1 1936.36,2172.2 "></polyline>
<polyline clip-path="url(#clip120)" style="stroke:#000000; stroke-linecap:round; stroke-linejoin:round; stroke-width:4; stroke-opacity:1; fill:none" points="2476.34,2191.1 2476.34,2172.2 "></polyline>
<polyline clip-path="url(#clip120)" style="stroke:#000000; stroke-linecap:round; stroke-linejoin:round; stroke-width:4; stroke-opacity:1; fill:none" points="3016.32,2191.1 3016.32,2172.2 "></polyline>
<path clip-path="url(#clip120)" d="M289.959 2271.63 L306.278 2271.63 L306.278 2275.56 L284.334 2275.56 L284.334 2271.63 Q286.996 2268.87 291.579 2264.24 Q296.186 2259.59 297.367 2258.25 Q299.612 2255.72 300.491 2253.99 Q301.394 2252.23 301.394 2250.54 Q301.394 2247.78 299.45 2246.05 Q297.529 2244.31 294.427 2244.31 Q292.228 2244.31 289.774 2245.08 Q287.343 2245.84 284.566 2247.39 L284.566 2242.67 Q287.39 2241.53 289.843 2240.95 Q292.297 2240.38 294.334 2240.38 Q299.704 2240.38 302.899 2243.06 Q306.093 2245.75 306.093 2250.24 Q306.093 2252.37 305.283 2254.29 Q304.496 2256.19 302.39 2258.78 Q301.811 2259.45 298.709 2262.67 Q295.607 2265.86 289.959 2271.63 Z" fill="#000000" fill-rule="nonzero" fill-opacity="1"></path><path clip-path="url(#clip120)" d="M306.824 2244.95 L313.03 2244.95 L313.03 2223.53 L306.278 2224.89 L306.278 2221.43 L312.993 2220.07 L316.792 2220.07 L316.792 2244.95 L322.999 2244.95 L322.999 2248.15 L306.824 2248.15 L306.824 2244.95 Z" fill="#000000" fill-rule="nonzero" fill-opacity="1"></path><path clip-path="url(#clip120)" d="M338.797 2222.57 Q335.863 2222.57 334.377 2225.47 Q332.91 2228.35 332.91 2234.14 Q332.91 2239.91 334.377 2242.81 Q335.863 2245.69 338.797 2245.69 Q341.75 2245.69 343.217 2242.81 Q344.703 2239.91 344.703 2234.14 Q344.703 2228.35 343.217 2225.47 Q341.75 2222.57 338.797 2222.57 M338.797 2219.56 Q343.518 2219.56 346 2223.31 Q348.502 2227.03 348.502 2234.14 Q348.502 2241.23 346 2244.97 Q343.518 2248.7 338.797 2248.7 Q334.076 2248.7 331.575 2244.97 Q329.092 2241.23 329.092 2234.14 Q329.092 2227.03 331.575 2223.31 Q334.076 2219.56 338.797 2219.56 Z" fill="#000000" fill-rule="nonzero" fill-opacity="1"></path><path clip-path="url(#clip120)" d="M830.438 2271.63 L846.757 2271.63 L846.757 2275.56 L824.813 2275.56 L824.813 2271.63 Q827.475 2268.87 832.058 2264.24 Q836.665 2259.59 837.845 2258.25 Q840.091 2255.72 840.97 2253.99 Q841.873 2252.23 841.873 2250.54 Q841.873 2247.78 839.929 2246.05 Q838.007 2244.31 834.906 2244.31 Q832.707 2244.31 830.253 2245.08 Q827.822 2245.84 825.045 2247.39 L825.045 2242.67 Q827.869 2241.53 830.322 2240.95 Q832.776 2240.38 834.813 2240.38 Q840.183 2240.38 843.378 2243.06 Q846.572 2245.75 846.572 2250.24 Q846.572 2252.37 845.762 2254.29 Q844.975 2256.19 842.869 2258.78 Q842.29 2259.45 839.188 2262.67 Q836.086 2265.86 830.438 2271.63 Z" fill="#000000" fill-rule="nonzero" fill-opacity="1"></path><path clip-path="url(#clip120)" d="M847.303 2244.95 L853.509 2244.95 L853.509 2223.53 L846.757 2224.89 L846.757 2221.43 L853.472 2220.07 L857.271 2220.07 L857.271 2244.95 L863.478 2244.95 L863.478 2248.15 L847.303 2248.15 L847.303 2244.95 Z" fill="#000000" fill-rule="nonzero" fill-opacity="1"></path><path clip-path="url(#clip120)" d="M871.809 2244.95 L878.016 2244.95 L878.016 2223.53 L871.264 2224.89 L871.264 2221.43 L877.978 2220.07 L881.777 2220.07 L881.777 2244.95 L887.984 2244.95 L887.984 2248.15 L871.809 2248.15 L871.809 2244.95 Z" fill="#000000" fill-rule="nonzero" fill-opacity="1"></path><path clip-path="url(#clip120)" d="M1370.57 2271.63 L1386.89 2271.63 L1386.89 2275.56 L1364.94 2275.56 L1364.94 2271.63 Q1367.61 2268.87 1372.19 2264.24 Q1376.8 2259.59 1377.98 2258.25 Q1380.22 2255.72 1381.1 2253.99 Q1382 2252.23 1382 2250.54 Q1382 2247.78 1380.06 2246.05 Q1378.14 2244.31 1375.04 2244.31 Q1372.84 2244.31 1370.38 2245.08 Q1367.95 2245.84 1365.18 2247.39 L1365.18 2242.67 Q1368 2241.53 1370.45 2240.95 Q1372.91 2240.38 1374.94 2240.38 Q1380.31 2240.38 1383.51 2243.06 Q1386.7 2245.75 1386.7 2250.24 Q1386.7 2252.37 1385.89 2254.29 Q1385.11 2256.19 1383 2258.78 Q1382.42 2259.45 1379.32 2262.67 Q1376.22 2265.86 1370.57 2271.63 Z" fill="#000000" fill-rule="nonzero" fill-opacity="1"></path><path clip-path="url(#clip120)" d="M1387.43 2244.95 L1393.64 2244.95 L1393.64 2223.53 L1386.89 2224.89 L1386.89 2221.43 L1393.6 2220.07 L1397.4 2220.07 L1397.4 2244.95 L1403.61 2244.95 L1403.61 2248.15 L1387.43 2248.15 L1387.43 2244.95 Z" fill="#000000" fill-rule="nonzero" fill-opacity="1"></path><path clip-path="url(#clip120)" d="M1414.55 2244.95 L1427.81 2244.95 L1427.81 2248.15 L1409.98 2248.15 L1409.98 2244.95 Q1412.15 2242.72 1415.87 2238.95 Q1419.61 2235.17 1420.57 2234.08 Q1422.4 2232.03 1423.11 2230.62 Q1423.85 2229.19 1423.85 2227.82 Q1423.85 2225.58 1422.27 2224.17 Q1420.7 2222.76 1418.18 2222.76 Q1416.4 2222.76 1414.4 2223.38 Q1412.43 2224 1410.17 2225.26 L1410.17 2221.43 Q1412.47 2220.5 1414.46 2220.03 Q1416.45 2219.56 1418.11 2219.56 Q1422.47 2219.56 1425.07 2221.74 Q1427.66 2223.93 1427.66 2227.58 Q1427.66 2229.31 1427.01 2230.87 Q1426.37 2232.41 1424.65 2234.52 Q1424.18 2235.06 1421.66 2237.67 Q1419.14 2240.27 1414.55 2244.95 Z" fill="#000000" fill-rule="nonzero" fill-opacity="1"></path><path clip-path="url(#clip120)" d="M1910.16 2271.63 L1926.48 2271.63 L1926.48 2275.56 L1904.54 2275.56 L1904.54 2271.63 Q1907.2 2268.87 1911.78 2264.24 Q1916.39 2259.59 1917.57 2258.25 Q1919.82 2255.72 1920.7 2253.99 Q1921.6 2252.23 1921.6 2250.54 Q1921.6 2247.78 1919.65 2246.05 Q1917.73 2244.31 1914.63 2244.31 Q1912.43 2244.31 1909.98 2245.08 Q1907.55 2245.84 1904.77 2247.39 L1904.77 2242.67 Q1907.59 2241.53 1910.05 2240.95 Q1912.5 2240.38 1914.54 2240.38 Q1919.91 2240.38 1923.1 2243.06 Q1926.3 2245.75 1926.3 2250.24 Q1926.3 2252.37 1925.49 2254.29 Q1924.7 2256.19 1922.59 2258.78 Q1922.02 2259.45 1918.91 2262.67 Q1915.81 2265.86 1910.16 2271.63 Z" fill="#000000" fill-rule="nonzero" fill-opacity="1"></path><path clip-path="url(#clip120)" d="M1927.03 2244.95 L1933.24 2244.95 L1933.24 2223.53 L1926.48 2224.89 L1926.48 2221.43 L1933.2 2220.07 L1937 2220.07 L1937 2244.95 L1943.2 2244.95 L1943.2 2248.15 L1927.03 2248.15 L1927.03 2244.95 Z" fill="#000000" fill-rule="nonzero" fill-opacity="1"></path><path clip-path="url(#clip120)" d="M1962.39 2233.01 Q1965.11 2233.59 1966.64 2235.44 Q1968.18 2237.28 1968.18 2239.99 Q1968.18 2244.14 1965.32 2246.42 Q1962.46 2248.7 1957.2 2248.7 Q1955.43 2248.7 1953.55 2248.34 Q1951.69 2248 1949.69 2247.3 L1949.69 2243.64 Q1951.27 2244.56 1953.15 2245.03 Q1955.03 2245.5 1957.08 2245.5 Q1960.66 2245.5 1962.52 2244.09 Q1964.4 2242.68 1964.4 2239.99 Q1964.4 2237.51 1962.65 2236.11 Q1960.92 2234.7 1957.82 2234.7 L1954.54 2234.7 L1954.54 2231.58 L1957.97 2231.58 Q1960.77 2231.58 1962.26 2230.47 Q1963.74 2229.34 1963.74 2227.24 Q1963.74 2225.07 1962.2 2223.93 Q1960.68 2222.76 1957.82 2222.76 Q1956.26 2222.76 1954.47 2223.1 Q1952.68 2223.44 1950.54 2224.15 L1950.54 2220.77 Q1952.7 2220.16 1954.58 2219.86 Q1956.48 2219.56 1958.16 2219.56 Q1962.48 2219.56 1965 2221.54 Q1967.52 2223.49 1967.52 2226.84 Q1967.52 2229.17 1966.19 2230.79 Q1964.85 2232.39 1962.39 2233.01 Z" fill="#000000" fill-rule="nonzero" fill-opacity="1"></path><path clip-path="url(#clip120)" d="M2449.68 2271.63 L2466 2271.63 L2466 2275.56 L2444.06 2275.56 L2444.06 2271.63 Q2446.72 2268.87 2451.3 2264.24 Q2455.91 2259.59 2457.09 2258.25 Q2459.34 2255.72 2460.22 2253.99 Q2461.12 2252.23 2461.12 2250.54 Q2461.12 2247.78 2459.17 2246.05 Q2457.25 2244.31 2454.15 2244.31 Q2451.95 2244.31 2449.5 2245.08 Q2447.07 2245.84 2444.29 2247.39 L2444.29 2242.67 Q2447.11 2241.53 2449.57 2240.95 Q2452.02 2240.38 2454.06 2240.38 Q2459.43 2240.38 2462.62 2243.06 Q2465.82 2245.75 2465.82 2250.24 Q2465.82 2252.37 2465.01 2254.29 Q2464.22 2256.19 2462.11 2258.78 Q2461.54 2259.45 2458.43 2262.67 Q2455.33 2265.86 2449.68 2271.63 Z" fill="#000000" fill-rule="nonzero" fill-opacity="1"></path><path clip-path="url(#clip120)" d="M2466.55 2244.95 L2472.76 2244.95 L2472.76 2223.53 L2466 2224.89 L2466 2221.43 L2472.72 2220.07 L2476.52 2220.07 L2476.52 2244.95 L2482.72 2244.95 L2482.72 2248.15 L2466.55 2248.15 L2466.55 2244.95 Z" fill="#000000" fill-rule="nonzero" fill-opacity="1"></path><path clip-path="url(#clip120)" d="M2500.84 2223.38 L2491.24 2238.37 L2500.84 2238.37 L2500.84 2223.38 M2499.84 2220.07 L2504.62 2220.07 L2504.62 2238.37 L2508.62 2238.37 L2508.62 2241.53 L2504.62 2241.53 L2504.62 2248.15 L2500.84 2248.15 L2500.84 2241.53 L2488.16 2241.53 L2488.16 2237.86 L2499.84 2220.07 Z" fill="#000000" fill-rule="nonzero" fill-opacity="1"></path><path clip-path="url(#clip120)" d="M2990.27 2271.63 L3006.59 2271.63 L3006.59 2275.56 L2984.64 2275.56 L2984.64 2271.63 Q2987.3 2268.87 2991.89 2264.24 Q2996.49 2259.59 2997.67 2258.25 Q2999.92 2255.72 3000.8 2253.99 Q3001.7 2252.23 3001.7 2250.54 Q3001.7 2247.78 2999.76 2246.05 Q2997.84 2244.31 2994.73 2244.31 Q2992.53 2244.31 2990.08 2245.08 Q2987.65 2245.84 2984.87 2247.39 L2984.87 2242.67 Q2987.7 2241.53 2990.15 2240.95 Q2992.6 2240.38 2994.64 2240.38 Q3000.01 2240.38 3003.21 2243.06 Q3006.4 2245.75 3006.4 2250.24 Q3006.4 2252.37 3005.59 2254.29 Q3004.8 2256.19 3002.7 2258.78 Q3002.12 2259.45 2999.02 2262.67 Q2995.91 2265.86 2990.27 2271.63 Z" fill="#000000" fill-rule="nonzero" fill-opacity="1"></path><path clip-path="url(#clip120)" d="M3007.13 2244.95 L3013.34 2244.95 L3013.34 2223.53 L3006.59 2224.89 L3006.59 2221.43 L3013.3 2220.07 L3017.1 2220.07 L3017.1 2244.95 L3023.31 2244.95 L3023.31 2248.15 L3007.13 2248.15 L3007.13 2244.95 Z" fill="#000000" fill-rule="nonzero" fill-opacity="1"></path><path clip-path="url(#clip120)" d="M3031.02 2220.07 L3045.93 2220.07 L3045.93 2223.27 L3034.5 2223.27 L3034.5 2230.15 Q3035.32 2229.87 3036.15 2229.74 Q3036.98 2229.59 3037.81 2229.59 Q3042.51 2229.59 3045.25 2232.16 Q3048 2234.74 3048 2239.14 Q3048 2243.67 3045.18 2246.19 Q3042.36 2248.7 3037.22 2248.7 Q3035.46 2248.7 3033.61 2248.4 Q3031.79 2248.09 3029.83 2247.49 L3029.83 2243.67 Q3031.52 2244.6 3033.33 2245.05 Q3035.14 2245.5 3037.15 2245.5 Q3040.4 2245.5 3042.3 2243.79 Q3044.2 2242.08 3044.2 2239.14 Q3044.2 2236.21 3042.3 2234.5 Q3040.4 2232.78 3037.15 2232.78 Q3035.62 2232.78 3034.1 2233.12 Q3032.6 2233.46 3031.02 2234.18 L3031.02 2220.07 Z" fill="#000000" fill-rule="nonzero" fill-opacity="1"></path><path clip-path="url(#clip120)" d="M1586.5 2331.79 L1586.5 2337.33 Q1584.01 2336.06 1581.34 2335.42 Q1578.67 2334.78 1575.8 2334.78 Q1571.44 2334.78 1569.25 2336.12 Q1567.08 2337.46 1567.08 2340.13 Q1567.08 2342.17 1568.64 2343.35 Q1570.2 2344.49 1574.91 2345.54 L1576.92 2345.99 Q1583.15 2347.32 1585.76 2349.78 Q1588.41 2352.19 1588.41 2356.56 Q1588.41 2361.52 1584.46 2364.42 Q1580.54 2367.31 1573.67 2367.31 Q1570.8 2367.31 1567.69 2366.74 Q1564.6 2366.2 1561.16 2365.09 L1561.16 2359.04 Q1564.41 2360.72 1567.56 2361.58 Q1570.71 2362.41 1573.8 2362.41 Q1577.93 2362.41 1580.16 2361.01 Q1582.39 2359.58 1582.39 2357 Q1582.39 2354.61 1580.77 2353.34 Q1579.18 2352.07 1573.73 2350.89 L1571.7 2350.41 Q1566.25 2349.27 1563.83 2346.91 Q1561.42 2344.52 1561.42 2340.39 Q1561.42 2335.36 1564.98 2332.62 Q1568.55 2329.88 1575.1 2329.88 Q1578.35 2329.88 1581.21 2330.36 Q1584.08 2330.84 1586.5 2331.79 Z" fill="#000000" fill-rule="nonzero" fill-opacity="1"></path><path clip-path="url(#clip120)" d="M1613.93 2348.47 Q1606.83 2348.47 1604.1 2350.09 Q1601.36 2351.72 1601.36 2355.63 Q1601.36 2358.75 1603.4 2360.6 Q1605.47 2362.41 1609 2362.41 Q1613.87 2362.41 1616.8 2358.97 Q1619.76 2355.5 1619.76 2349.78 L1619.76 2348.47 L1613.93 2348.47 M1625.61 2346.05 L1625.61 2366.39 L1619.76 2366.39 L1619.76 2360.98 Q1617.75 2364.23 1614.76 2365.79 Q1611.77 2367.31 1607.44 2367.31 Q1601.97 2367.31 1598.72 2364.26 Q1595.5 2361.17 1595.5 2356.01 Q1595.5 2350 1599.51 2346.94 Q1603.56 2343.89 1611.55 2343.89 L1619.76 2343.89 L1619.76 2343.31 Q1619.76 2339.27 1617.08 2337.08 Q1614.44 2334.85 1609.64 2334.85 Q1606.58 2334.85 1603.68 2335.58 Q1600.79 2336.31 1598.11 2337.78 L1598.11 2332.37 Q1601.33 2331.12 1604.35 2330.52 Q1607.38 2329.88 1610.24 2329.88 Q1617.97 2329.88 1621.79 2333.89 Q1625.61 2337.9 1625.61 2346.05 Z" fill="#000000" fill-rule="nonzero" fill-opacity="1"></path><path clip-path="url(#clip120)" d="M1665.43 2337.59 Q1667.63 2333.64 1670.68 2331.76 Q1673.74 2329.88 1677.88 2329.88 Q1683.45 2329.88 1686.47 2333.8 Q1689.49 2337.68 1689.49 2344.87 L1689.49 2366.39 L1683.61 2366.39 L1683.61 2345.06 Q1683.61 2339.94 1681.79 2337.46 Q1679.98 2334.98 1676.25 2334.98 Q1671.7 2334.98 1669.06 2338 Q1666.42 2341.02 1666.42 2346.24 L1666.42 2366.39 L1660.53 2366.39 L1660.53 2345.06 Q1660.53 2339.91 1658.72 2337.46 Q1656.9 2334.98 1653.11 2334.98 Q1648.63 2334.98 1645.98 2338.03 Q1643.34 2341.05 1643.34 2346.24 L1643.34 2366.39 L1637.45 2366.39 L1637.45 2330.74 L1643.34 2330.74 L1643.34 2336.28 Q1645.35 2333 1648.15 2331.44 Q1650.95 2329.88 1654.8 2329.88 Q1658.68 2329.88 1661.39 2331.86 Q1664.13 2333.83 1665.43 2337.59 Z" fill="#000000" fill-rule="nonzero" fill-opacity="1"></path><path clip-path="url(#clip120)" d="M1706.84 2361.04 L1706.84 2379.95 L1700.95 2379.95 L1700.95 2330.74 L1706.84 2330.74 L1706.84 2336.15 Q1708.69 2332.97 1711.49 2331.44 Q1714.32 2329.88 1718.23 2329.88 Q1724.73 2329.88 1728.77 2335.04 Q1732.84 2340.2 1732.84 2348.6 Q1732.84 2357 1728.77 2362.16 Q1724.73 2367.31 1718.23 2367.31 Q1714.32 2367.31 1711.49 2365.79 Q1708.69 2364.23 1706.84 2361.04 M1726.76 2348.6 Q1726.76 2342.14 1724.09 2338.48 Q1721.45 2334.78 1716.8 2334.78 Q1712.16 2334.78 1709.48 2338.48 Q1706.84 2342.14 1706.84 2348.6 Q1706.84 2355.06 1709.48 2358.75 Q1712.16 2362.41 1716.8 2362.41 Q1721.45 2362.41 1724.09 2358.75 Q1726.76 2355.06 1726.76 2348.6 Z" fill="#000000" fill-rule="nonzero" fill-opacity="1"></path><path clip-path="url(#clip120)" d="M1742.55 2316.86 L1748.41 2316.86 L1748.41 2366.39 L1742.55 2366.39 L1742.55 2316.86 Z" fill="#000000" fill-rule="nonzero" fill-opacity="1"></path><path clip-path="url(#clip120)" d="M1791.15 2347.1 L1791.15 2349.97 L1764.23 2349.97 Q1764.61 2356.01 1767.86 2359.2 Q1771.13 2362.35 1776.96 2362.35 Q1780.33 2362.35 1783.48 2361.52 Q1786.67 2360.69 1789.79 2359.04 L1789.79 2364.58 Q1786.63 2365.91 1783.32 2366.61 Q1780.01 2367.31 1776.61 2367.31 Q1768.08 2367.31 1763.08 2362.35 Q1758.12 2357.38 1758.12 2348.92 Q1758.12 2340.16 1762.83 2335.04 Q1767.57 2329.88 1775.59 2329.88 Q1782.78 2329.88 1786.95 2334.53 Q1791.15 2339.14 1791.15 2347.1 M1785.3 2345.38 Q1785.23 2340.58 1782.59 2337.71 Q1779.98 2334.85 1775.65 2334.85 Q1770.75 2334.85 1767.79 2337.62 Q1764.86 2340.39 1764.42 2345.42 L1785.3 2345.38 Z" fill="#000000" fill-rule="nonzero" fill-opacity="1"></path><path clip-path="url(#clip120)" d="M1823.49 2331.79 L1823.49 2337.33 Q1821.01 2336.06 1818.34 2335.42 Q1815.66 2334.78 1812.8 2334.78 Q1808.44 2334.78 1806.24 2336.12 Q1804.08 2337.46 1804.08 2340.13 Q1804.08 2342.17 1805.64 2343.35 Q1807.2 2344.49 1811.91 2345.54 L1813.91 2345.99 Q1820.15 2347.32 1822.76 2349.78 Q1825.4 2352.19 1825.4 2356.56 Q1825.4 2361.52 1821.45 2364.42 Q1817.54 2367.31 1810.66 2367.31 Q1807.8 2367.31 1804.68 2366.74 Q1801.59 2366.2 1798.16 2365.09 L1798.16 2359.04 Q1801.4 2360.72 1804.55 2361.58 Q1807.7 2362.41 1810.79 2362.41 Q1814.93 2362.41 1817.16 2361.01 Q1819.39 2359.58 1819.39 2357 Q1819.39 2354.61 1817.76 2353.34 Q1816.17 2352.07 1810.73 2350.89 L1808.69 2350.41 Q1803.25 2349.27 1800.83 2346.91 Q1798.41 2344.52 1798.41 2340.39 Q1798.41 2335.36 1801.98 2332.62 Q1805.54 2329.88 1812.1 2329.88 Q1815.34 2329.88 1818.21 2330.36 Q1821.07 2330.84 1823.49 2331.79 Z" fill="#000000" fill-rule="nonzero" fill-opacity="1"></path><polyline clip-path="url(#clip120)" style="stroke:#000000; stroke-linecap:round; stroke-linejoin:round; stroke-width:4; stroke-opacity:1; fill:none" points="233.806,2191.1 233.806,47.2441 "></polyline>
<polyline clip-path="url(#clip120)" style="stroke:#000000; stroke-linecap:round; stroke-linejoin:round; stroke-width:4; stroke-opacity:1; fill:none" points="233.806,1983.43 252.704,1983.43 "></polyline>
<polyline clip-path="url(#clip120)" style="stroke:#000000; stroke-linecap:round; stroke-linejoin:round; stroke-width:4; stroke-opacity:1; fill:none" points="233.806,1613.39 252.704,1613.39 "></polyline>
<polyline clip-path="url(#clip120)" style="stroke:#000000; stroke-linecap:round; stroke-linejoin:round; stroke-width:4; stroke-opacity:1; fill:none" points="233.806,1243.36 252.704,1243.36 "></polyline>
<polyline clip-path="url(#clip120)" style="stroke:#000000; stroke-linecap:round; stroke-linejoin:round; stroke-width:4; stroke-opacity:1; fill:none" points="233.806,873.33 252.704,873.33 "></polyline>
<polyline clip-path="url(#clip120)" style="stroke:#000000; stroke-linecap:round; stroke-linejoin:round; stroke-width:4; stroke-opacity:1; fill:none" points="233.806,503.298 252.704,503.298 "></polyline>
<polyline clip-path="url(#clip120)" style="stroke:#000000; stroke-linecap:round; stroke-linejoin:round; stroke-width:4; stroke-opacity:1; fill:none" points="233.806,133.266 252.704,133.266 "></polyline>
<path clip-path="url(#clip120)" d="M129.857 1969.22 Q126.246 1969.22 124.418 1972.79 Q122.612 1976.33 122.612 1983.46 Q122.612 1990.57 124.418 1994.13 Q126.246 1997.67 129.857 1997.67 Q133.492 1997.67 135.297 1994.13 Q137.126 1990.57 137.126 1983.46 Q137.126 1976.33 135.297 1972.79 Q133.492 1969.22 129.857 1969.22 M129.857 1965.52 Q135.668 1965.52 138.723 1970.13 Q141.802 1974.71 141.802 1983.46 Q141.802 1992.19 138.723 1996.79 Q135.668 2001.38 129.857 2001.38 Q124.047 2001.38 120.969 1996.79 Q117.913 1992.19 117.913 1983.46 Q117.913 1974.71 120.969 1970.13 Q124.047 1965.52 129.857 1965.52 Z" fill="#000000" fill-rule="nonzero" fill-opacity="1"></path><path clip-path="url(#clip120)" d="M150.019 1994.83 L154.904 1994.83 L154.904 2000.71 L150.019 2000.71 L150.019 1994.83 Z" fill="#000000" fill-rule="nonzero" fill-opacity="1"></path><path clip-path="url(#clip120)" d="M165.899 1996.77 L173.538 1996.77 L173.538 1970.41 L165.228 1972.07 L165.228 1967.81 L173.492 1966.15 L178.167 1966.15 L178.167 1996.77 L185.806 1996.77 L185.806 2000.71 L165.899 2000.71 L165.899 1996.77 Z" fill="#000000" fill-rule="nonzero" fill-opacity="1"></path><path clip-path="url(#clip120)" d="M130.228 1599.19 Q126.617 1599.19 124.788 1602.76 Q122.983 1606.3 122.983 1613.43 Q122.983 1620.54 124.788 1624.1 Q126.617 1627.64 130.228 1627.64 Q133.862 1627.64 135.668 1624.1 Q137.496 1620.54 137.496 1613.43 Q137.496 1606.3 135.668 1602.76 Q133.862 1599.19 130.228 1599.19 M130.228 1595.49 Q136.038 1595.49 139.094 1600.1 Q142.172 1604.68 142.172 1613.43 Q142.172 1622.16 139.094 1626.76 Q136.038 1631.35 130.228 1631.35 Q124.418 1631.35 121.339 1626.76 Q118.283 1622.16 118.283 1613.43 Q118.283 1604.68 121.339 1600.1 Q124.418 1595.49 130.228 1595.49 Z" fill="#000000" fill-rule="nonzero" fill-opacity="1"></path><path clip-path="url(#clip120)" d="M150.39 1624.79 L155.274 1624.79 L155.274 1630.67 L150.39 1630.67 L150.39 1624.79 Z" fill="#000000" fill-rule="nonzero" fill-opacity="1"></path><path clip-path="url(#clip120)" d="M169.487 1626.74 L185.806 1626.74 L185.806 1630.67 L163.862 1630.67 L163.862 1626.74 Q166.524 1623.98 171.107 1619.35 Q175.714 1614.7 176.894 1613.36 Q179.14 1610.84 180.019 1609.1 Q180.922 1607.34 180.922 1605.65 Q180.922 1602.9 178.978 1601.16 Q177.056 1599.42 173.954 1599.42 Q171.755 1599.42 169.302 1600.19 Q166.871 1600.95 164.093 1602.5 L164.093 1597.78 Q166.917 1596.65 169.371 1596.07 Q171.825 1595.49 173.862 1595.49 Q179.232 1595.49 182.427 1598.17 Q185.621 1600.86 185.621 1605.35 Q185.621 1607.48 184.811 1609.4 Q184.024 1611.3 181.917 1613.89 Q181.339 1614.56 178.237 1617.78 Q175.135 1620.98 169.487 1626.74 Z" fill="#000000" fill-rule="nonzero" fill-opacity="1"></path><path clip-path="url(#clip120)" d="M129.279 1229.16 Q125.668 1229.16 123.839 1232.73 Q122.033 1236.27 122.033 1243.4 Q122.033 1250.5 123.839 1254.07 Q125.668 1257.61 129.279 1257.61 Q132.913 1257.61 134.719 1254.07 Q136.547 1250.5 136.547 1243.4 Q136.547 1236.27 134.719 1232.73 Q132.913 1229.16 129.279 1229.16 M129.279 1225.46 Q135.089 1225.46 138.144 1230.06 Q141.223 1234.65 141.223 1243.4 Q141.223 1252.12 138.144 1256.73 Q135.089 1261.31 129.279 1261.31 Q123.469 1261.31 120.39 1256.73 Q117.334 1252.12 117.334 1243.4 Q117.334 1234.65 120.39 1230.06 Q123.469 1225.46 129.279 1225.46 Z" fill="#000000" fill-rule="nonzero" fill-opacity="1"></path><path clip-path="url(#clip120)" d="M149.441 1254.76 L154.325 1254.76 L154.325 1260.64 L149.441 1260.64 L149.441 1254.76 Z" fill="#000000" fill-rule="nonzero" fill-opacity="1"></path><path clip-path="url(#clip120)" d="M178.677 1242.01 Q182.033 1242.73 183.908 1244.99 Q185.806 1247.26 185.806 1250.6 Q185.806 1255.71 182.288 1258.51 Q178.769 1261.31 172.288 1261.31 Q170.112 1261.31 167.797 1260.87 Q165.505 1260.46 163.052 1259.6 L163.052 1255.09 Q164.996 1256.22 167.311 1256.8 Q169.626 1257.38 172.149 1257.38 Q176.547 1257.38 178.839 1255.64 Q181.154 1253.91 181.154 1250.6 Q181.154 1247.54 179.001 1245.83 Q176.871 1244.09 173.052 1244.09 L169.024 1244.09 L169.024 1240.25 L173.237 1240.25 Q176.686 1240.25 178.515 1238.88 Q180.343 1237.49 180.343 1234.9 Q180.343 1232.24 178.445 1230.83 Q176.57 1229.39 173.052 1229.39 Q171.13 1229.39 168.931 1229.81 Q166.732 1230.23 164.093 1231.11 L164.093 1226.94 Q166.755 1226.2 169.07 1225.83 Q171.408 1225.46 173.468 1225.46 Q178.792 1225.46 181.894 1227.89 Q184.996 1230.3 184.996 1234.42 Q184.996 1237.29 183.353 1239.28 Q181.709 1241.24 178.677 1242.01 Z" fill="#000000" fill-rule="nonzero" fill-opacity="1"></path><path clip-path="url(#clip120)" d="M128.145 859.129 Q124.533 859.129 122.705 862.694 Q120.899 866.235 120.899 873.365 Q120.899 880.471 122.705 884.036 Q124.533 887.578 128.145 887.578 Q131.779 887.578 133.584 884.036 Q135.413 880.471 135.413 873.365 Q135.413 866.235 133.584 862.694 Q131.779 859.129 128.145 859.129 M128.145 855.425 Q133.955 855.425 137.01 860.032 Q140.089 864.615 140.089 873.365 Q140.089 882.092 137.01 886.698 Q133.955 891.281 128.145 891.281 Q122.334 891.281 119.256 886.698 Q116.2 882.092 116.2 873.365 Q116.2 864.615 119.256 860.032 Q122.334 855.425 128.145 855.425 Z" fill="#000000" fill-rule="nonzero" fill-opacity="1"></path><path clip-path="url(#clip120)" d="M148.306 884.731 L153.191 884.731 L153.191 890.61 L148.306 890.61 L148.306 884.731 Z" fill="#000000" fill-rule="nonzero" fill-opacity="1"></path><path clip-path="url(#clip120)" d="M176.223 860.124 L164.417 878.573 L176.223 878.573 L176.223 860.124 M174.996 856.05 L180.876 856.05 L180.876 878.573 L185.806 878.573 L185.806 882.462 L180.876 882.462 L180.876 890.61 L176.223 890.61 L176.223 882.462 L160.621 882.462 L160.621 877.948 L174.996 856.05 Z" fill="#000000" fill-rule="nonzero" fill-opacity="1"></path><path clip-path="url(#clip120)" d="M129.626 489.097 Q126.015 489.097 124.186 492.662 Q122.381 496.203 122.381 503.333 Q122.381 510.439 124.186 514.004 Q126.015 517.546 129.626 517.546 Q133.26 517.546 135.066 514.004 Q136.894 510.439 136.894 503.333 Q136.894 496.203 135.066 492.662 Q133.26 489.097 129.626 489.097 M129.626 485.393 Q135.436 485.393 138.492 490 Q141.57 494.583 141.57 503.333 Q141.57 512.06 138.492 516.666 Q135.436 521.249 129.626 521.249 Q123.816 521.249 120.737 516.666 Q117.682 512.06 117.682 503.333 Q117.682 494.583 120.737 490 Q123.816 485.393 129.626 485.393 Z" fill="#000000" fill-rule="nonzero" fill-opacity="1"></path><path clip-path="url(#clip120)" d="M149.788 514.699 L154.672 514.699 L154.672 520.578 L149.788 520.578 L149.788 514.699 Z" fill="#000000" fill-rule="nonzero" fill-opacity="1"></path><path clip-path="url(#clip120)" d="M164.904 486.018 L183.26 486.018 L183.26 489.953 L169.186 489.953 L169.186 498.425 Q170.204 498.078 171.223 497.916 Q172.242 497.731 173.26 497.731 Q179.047 497.731 182.427 500.902 Q185.806 504.074 185.806 509.49 Q185.806 515.069 182.334 518.171 Q178.862 521.249 172.542 521.249 Q170.367 521.249 168.098 520.879 Q165.853 520.509 163.445 519.768 L163.445 515.069 Q165.529 516.203 167.751 516.759 Q169.973 517.314 172.45 517.314 Q176.454 517.314 178.792 515.208 Q181.13 513.101 181.13 509.49 Q181.13 505.879 178.792 503.773 Q176.454 501.666 172.45 501.666 Q170.575 501.666 168.7 502.083 Q166.848 502.5 164.904 503.379 L164.904 486.018 Z" fill="#000000" fill-rule="nonzero" fill-opacity="1"></path><path clip-path="url(#clip120)" d="M128.469 119.065 Q124.858 119.065 123.029 122.63 Q121.223 126.171 121.223 133.301 Q121.223 140.407 123.029 143.972 Q124.858 147.514 128.469 147.514 Q132.103 147.514 133.908 143.972 Q135.737 140.407 135.737 133.301 Q135.737 126.171 133.908 122.63 Q132.103 119.065 128.469 119.065 M128.469 115.361 Q134.279 115.361 137.334 119.968 Q140.413 124.551 140.413 133.301 Q140.413 142.028 137.334 146.634 Q134.279 151.217 128.469 151.217 Q122.658 151.217 119.58 146.634 Q116.524 142.028 116.524 133.301 Q116.524 124.551 119.58 119.968 Q122.658 115.361 128.469 115.361 Z" fill="#000000" fill-rule="nonzero" fill-opacity="1"></path><path clip-path="url(#clip120)" d="M148.631 144.667 L153.515 144.667 L153.515 150.546 L148.631 150.546 L148.631 144.667 Z" fill="#000000" fill-rule="nonzero" fill-opacity="1"></path><path clip-path="url(#clip120)" d="M174.279 131.403 Q171.13 131.403 169.279 133.556 Q167.45 135.708 167.45 139.458 Q167.45 143.185 169.279 145.361 Q171.13 147.514 174.279 147.514 Q177.427 147.514 179.255 145.361 Q181.107 143.185 181.107 139.458 Q181.107 135.708 179.255 133.556 Q177.427 131.403 174.279 131.403 M183.561 116.75 L183.561 121.009 Q181.802 120.176 179.996 119.736 Q178.214 119.296 176.454 119.296 Q171.825 119.296 169.371 122.421 Q166.941 125.546 166.593 131.866 Q167.959 129.852 170.019 128.787 Q172.079 127.699 174.556 127.699 Q179.765 127.699 182.774 130.87 Q185.806 134.018 185.806 139.458 Q185.806 144.782 182.658 148 Q179.51 151.217 174.279 151.217 Q168.283 151.217 165.112 146.634 Q161.941 142.028 161.941 133.301 Q161.941 125.106 165.83 120.245 Q169.718 115.361 176.269 115.361 Q178.029 115.361 179.811 115.708 Q181.616 116.056 183.561 116.75 Z" fill="#000000" fill-rule="nonzero" fill-opacity="1"></path><path clip-path="url(#clip120)" d="M6.42416 1378.8 L6.42416 1348.75 L11.835 1348.75 L11.835 1372.37 L25.9032 1372.37 L25.9032 1349.74 L31.3141 1349.74 L31.3141 1372.37 L48.5333 1372.37 L48.5333 1348.18 L53.9442 1348.18 L53.9442 1378.8 L6.42416 1378.8 Z" fill="#000000" fill-rule="nonzero" fill-opacity="1"></path><path clip-path="url(#clip120)" d="M19.3465 1315.14 L24.8847 1315.14 Q23.6116 1317.62 22.975 1320.3 Q22.3384 1322.97 22.3384 1325.84 Q22.3384 1330.2 23.6752 1332.39 Q25.012 1334.56 27.6856 1334.56 Q29.7226 1334.56 30.9003 1333 Q32.0461 1331.44 33.0965 1326.73 L33.5421 1324.72 Q34.8789 1318.48 37.3297 1315.87 Q39.7486 1313.23 44.1091 1313.23 Q49.0744 1313.23 51.9708 1317.18 Q54.8672 1321.09 54.8672 1327.97 Q54.8672 1330.83 54.2943 1333.95 Q53.7532 1337.04 52.6392 1340.48 L46.5918 1340.48 Q48.2787 1337.23 49.138 1334.08 Q49.9656 1330.93 49.9656 1327.84 Q49.9656 1323.7 48.5651 1321.47 Q47.1329 1319.25 44.5547 1319.25 Q42.1676 1319.25 40.8945 1320.87 Q39.6213 1322.46 38.4437 1327.9 L37.9662 1329.94 Q36.8204 1335.38 34.4651 1337.8 Q32.078 1340.22 27.9402 1340.22 Q22.9113 1340.22 20.1741 1336.66 Q17.4368 1333.09 17.4368 1326.54 Q17.4368 1323.29 17.9143 1320.42 Q18.3917 1317.56 19.3465 1315.14 Z" fill="#000000" fill-rule="nonzero" fill-opacity="1"></path><path clip-path="url(#clip120)" d="M8.17473 1298.11 L18.2962 1298.11 L18.2962 1286.05 L22.8477 1286.05 L22.8477 1298.11 L42.1994 1298.11 Q46.5599 1298.11 47.8013 1296.94 Q49.0426 1295.73 49.0426 1292.07 L49.0426 1286.05 L53.9442 1286.05 L53.9442 1292.07 Q53.9442 1298.84 51.4297 1301.42 Q48.8834 1304 42.1994 1304 L22.8477 1304 L22.8477 1308.3 L18.2962 1308.3 L18.2962 1304 L8.17473 1304 L8.17473 1298.11 Z" fill="#000000" fill-rule="nonzero" fill-opacity="1"></path><path clip-path="url(#clip120)" d="M18.2962 1278.35 L18.2962 1272.49 L53.9442 1272.49 L53.9442 1278.35 L18.2962 1278.35 M4.41896 1278.35 L4.41896 1272.49 L11.835 1272.49 L11.835 1278.35 L4.41896 1278.35 Z" fill="#000000" fill-rule="nonzero" fill-opacity="1"></path><path clip-path="url(#clip120)" d="M25.1393 1232.48 Q21.1926 1230.29 19.3147 1227.23 Q17.4368 1224.17 17.4368 1220.04 Q17.4368 1214.47 21.3517 1211.44 Q25.2348 1208.42 32.4281 1208.42 L53.9442 1208.42 L53.9442 1214.31 L32.619 1214.31 Q27.4946 1214.31 25.012 1216.12 Q22.5294 1217.94 22.5294 1221.66 Q22.5294 1226.21 25.5531 1228.85 Q28.5768 1231.5 33.7967 1231.5 L53.9442 1231.5 L53.9442 1237.38 L32.619 1237.38 Q27.4628 1237.38 25.012 1239.2 Q22.5294 1241.01 22.5294 1244.8 Q22.5294 1249.29 25.5849 1251.93 Q28.6086 1254.57 33.7967 1254.57 L53.9442 1254.57 L53.9442 1260.46 L18.2962 1260.46 L18.2962 1254.57 L23.8344 1254.57 Q20.556 1252.57 18.9964 1249.77 Q17.4368 1246.96 17.4368 1243.11 Q17.4368 1239.23 19.4102 1236.52 Q21.3836 1233.79 25.1393 1232.48 Z" fill="#000000" fill-rule="nonzero" fill-opacity="1"></path><path clip-path="url(#clip120)" d="M36.0247 1180.54 Q36.0247 1187.64 37.6479 1190.37 Q39.2712 1193.11 43.1861 1193.11 Q46.3053 1193.11 48.1514 1191.07 Q49.9656 1189 49.9656 1185.47 Q49.9656 1180.6 46.5281 1177.67 Q43.0588 1174.71 37.3297 1174.71 L36.0247 1174.71 L36.0247 1180.54 M33.6057 1168.86 L53.9442 1168.86 L53.9442 1174.71 L48.5333 1174.71 Q51.7798 1176.72 53.3394 1179.71 Q54.8672 1182.7 54.8672 1187.03 Q54.8672 1192.51 51.8116 1195.75 Q48.7243 1198.97 43.5681 1198.97 Q37.5525 1198.97 34.4969 1194.96 Q31.4414 1190.91 31.4414 1182.93 L31.4414 1174.71 L30.8685 1174.71 Q26.8262 1174.71 24.6301 1177.39 Q22.4021 1180.03 22.4021 1184.83 Q22.4021 1187.89 23.1341 1190.79 Q23.8662 1193.68 25.3303 1196.36 L19.9195 1196.36 Q18.6781 1193.14 18.0734 1190.12 Q17.4368 1187.09 17.4368 1184.23 Q17.4368 1176.5 21.4472 1172.68 Q25.4576 1168.86 33.6057 1168.86 Z" fill="#000000" fill-rule="nonzero" fill-opacity="1"></path><path clip-path="url(#clip120)" d="M8.17473 1151 L18.2962 1151 L18.2962 1138.94 L22.8477 1138.94 L22.8477 1151 L42.1994 1151 Q46.5599 1151 47.8013 1149.82 Q49.0426 1148.61 49.0426 1144.95 L49.0426 1138.94 L53.9442 1138.94 L53.9442 1144.95 Q53.9442 1151.73 51.4297 1154.31 Q48.8834 1156.89 42.1994 1156.89 L22.8477 1156.89 L22.8477 1161.19 L18.2962 1161.19 L18.2962 1156.89 L8.17473 1156.89 L8.17473 1151 Z" fill="#000000" fill-rule="nonzero" fill-opacity="1"></path><path clip-path="url(#clip120)" d="M18.2962 1131.24 L18.2962 1125.38 L53.9442 1125.38 L53.9442 1131.24 L18.2962 1131.24 M4.41896 1131.24 L4.41896 1125.38 L11.835 1125.38 L11.835 1131.24 L4.41896 1131.24 Z" fill="#000000" fill-rule="nonzero" fill-opacity="1"></path><path clip-path="url(#clip120)" d="M22.4021 1099.31 Q22.4021 1104.02 26.0942 1106.76 Q29.7545 1109.5 36.152 1109.5 Q42.5495 1109.5 46.2417 1106.79 Q49.9019 1104.05 49.9019 1099.31 Q49.9019 1094.63 46.2098 1091.9 Q42.5177 1089.16 36.152 1089.16 Q29.8181 1089.16 26.126 1091.9 Q22.4021 1094.63 22.4021 1099.31 M17.4368 1099.31 Q17.4368 1091.67 22.4021 1087.31 Q27.3673 1082.95 36.152 1082.95 Q44.9049 1082.95 49.9019 1087.31 Q54.8672 1091.67 54.8672 1099.31 Q54.8672 1106.98 49.9019 1111.34 Q44.9049 1115.67 36.152 1115.67 Q27.3673 1115.67 22.4021 1111.34 Q17.4368 1106.98 17.4368 1099.31 Z" fill="#000000" fill-rule="nonzero" fill-opacity="1"></path><path clip-path="url(#clip120)" d="M32.4281 1043.61 L53.9442 1043.61 L53.9442 1049.47 L32.619 1049.47 Q27.5583 1049.47 25.0438 1051.44 Q22.5294 1053.41 22.5294 1057.36 Q22.5294 1062.1 25.5531 1064.84 Q28.5768 1067.58 33.7967 1067.58 L53.9442 1067.58 L53.9442 1073.47 L18.2962 1073.47 L18.2962 1067.58 L23.8344 1067.58 Q20.6197 1065.48 19.0283 1062.65 Q17.4368 1059.78 17.4368 1056.06 Q17.4368 1049.91 21.2563 1046.76 Q25.0438 1043.61 32.4281 1043.61 Z" fill="#000000" fill-rule="nonzero" fill-opacity="1"></path><path clip-path="url(#clip120)" d="M34.6561 980.719 L37.5206 980.719 L37.5206 1007.65 Q43.5681 1007.26 46.7509 1004.02 Q49.9019 1000.74 49.9019 994.914 Q49.9019 991.54 49.0744 988.389 Q48.2469 985.206 46.5918 982.087 L52.1299 982.087 Q53.4667 985.238 54.167 988.548 Q54.8672 991.859 54.8672 995.264 Q54.8672 1003.79 49.9019 1008.79 Q44.9367 1013.76 36.4703 1013.76 Q27.7174 1013.76 22.5931 1009.05 Q17.4368 1004.3 17.4368 996.283 Q17.4368 989.089 22.0838 984.92 Q26.6989 980.719 34.6561 980.719 M32.9373 986.575 Q28.1312 986.639 25.2666 989.28 Q22.4021 991.89 22.4021 996.219 Q22.4021 1001.12 25.1712 1004.08 Q27.9402 1007.01 32.9692 1007.45 L32.9373 986.575 Z" fill="#000000" fill-rule="nonzero" fill-opacity="1"></path><path clip-path="url(#clip120)" d="M23.7707 950.45 Q23.1978 951.436 22.9432 952.614 Q22.6567 953.76 22.6567 955.16 Q22.6567 960.125 25.9032 962.799 Q29.1179 965.441 35.1653 965.441 L53.9442 965.441 L53.9442 971.329 L18.2962 971.329 L18.2962 965.441 L23.8344 965.441 Q20.5879 963.595 19.0283 960.635 Q17.4368 957.675 17.4368 953.441 Q17.4368 952.837 17.5323 952.105 Q17.596 951.373 17.7551 950.481 L23.7707 950.45 Z" fill="#000000" fill-rule="nonzero" fill-opacity="1"></path><path clip-path="url(#clip120)" d="M23.7707 924.796 Q23.1978 925.783 22.9432 926.96 Q22.6567 928.106 22.6567 929.506 Q22.6567 934.472 25.9032 937.145 Q29.1179 939.787 35.1653 939.787 L53.9442 939.787 L53.9442 945.675 L18.2962 945.675 L18.2962 939.787 L23.8344 939.787 Q20.5879 937.941 19.0283 934.981 Q17.4368 932.021 17.4368 927.788 Q17.4368 927.183 17.5323 926.451 Q17.596 925.719 17.7551 924.828 L23.7707 924.796 Z" fill="#000000" fill-rule="nonzero" fill-opacity="1"></path><path clip-path="url(#clip120)" d="M22.4021 906.272 Q22.4021 910.982 26.0942 913.719 Q29.7545 916.457 36.152 916.457 Q42.5495 916.457 46.2417 913.751 Q49.9019 911.014 49.9019 906.272 Q49.9019 901.593 46.2098 898.856 Q42.5177 896.118 36.152 896.118 Q29.8181 896.118 26.126 898.856 Q22.4021 901.593 22.4021 906.272 M17.4368 906.272 Q17.4368 898.633 22.4021 894.272 Q27.3673 889.912 36.152 889.912 Q44.9049 889.912 49.9019 894.272 Q54.8672 898.633 54.8672 906.272 Q54.8672 913.942 49.9019 918.303 Q44.9049 922.631 36.152 922.631 Q27.3673 922.631 22.4021 918.303 Q17.4368 913.942 17.4368 906.272 Z" fill="#000000" fill-rule="nonzero" fill-opacity="1"></path><path clip-path="url(#clip120)" d="M23.7707 859.547 Q23.1978 860.534 22.9432 861.712 Q22.6567 862.857 22.6567 864.258 Q22.6567 869.223 25.9032 871.897 Q29.1179 874.539 35.1653 874.539 L53.9442 874.539 L53.9442 880.427 L18.2962 880.427 L18.2962 874.539 L23.8344 874.539 Q20.5879 872.693 19.0283 869.732 Q17.4368 866.772 17.4368 862.539 Q17.4368 861.934 17.5323 861.202 Q17.596 860.47 17.7551 859.579 L23.7707 859.547 Z" fill="#000000" fill-rule="nonzero" fill-opacity="1"></path><polyline clip-path="url(#clip122)" style="stroke:#009af9; stroke-linecap:round; stroke-linejoin:round; stroke-width:12; stroke-opacity:1; fill:none" points="316.418,107.919 856.399,993.516 1396.38,1402.83 1773.67,1661.13 2098.54,1661.13 2367.96,1846.45 2638.22,1975.46 2854.1,1983.58 3070.14,1993.42 "></polyline>
<circle clip-path="url(#clip122)" cx="316.418" cy="107.919" r="23.4" fill="#009af9" fill-rule="evenodd" fill-opacity="1" stroke="#000000" stroke-opacity="1" stroke-width="4.8"></circle>
<circle clip-path="url(#clip122)" cx="856.399" cy="993.516" r="23.4" fill="#009af9" fill-rule="evenodd" fill-opacity="1" stroke="#000000" stroke-opacity="1" stroke-width="4.8"></circle>
<circle clip-path="url(#clip122)" cx="1396.38" cy="1402.83" r="23.4" fill="#009af9" fill-rule="evenodd" fill-opacity="1" stroke="#000000" stroke-opacity="1" stroke-width="4.8"></circle>
<circle clip-path="url(#clip122)" cx="1773.67" cy="1661.13" r="23.4" fill="#009af9" fill-rule="evenodd" fill-opacity="1" stroke="#000000" stroke-opacity="1" stroke-width="4.8"></circle>
<circle clip-path="url(#clip122)" cx="2098.54" cy="1661.13" r="23.4" fill="#009af9" fill-rule="evenodd" fill-opacity="1" stroke="#000000" stroke-opacity="1" stroke-width="4.8"></circle>
<circle clip-path="url(#clip122)" cx="2367.96" cy="1846.45" r="23.4" fill="#009af9" fill-rule="evenodd" fill-opacity="1" stroke="#000000" stroke-opacity="1" stroke-width="4.8"></circle>
<circle clip-path="url(#clip122)" cx="2638.22" cy="1975.46" r="23.4" fill="#009af9" fill-rule="evenodd" fill-opacity="1" stroke="#000000" stroke-opacity="1" stroke-width="4.8"></circle>
<circle clip-path="url(#clip122)" cx="2854.1" cy="1983.58" r="23.4" fill="#009af9" fill-rule="evenodd" fill-opacity="1" stroke="#000000" stroke-opacity="1" stroke-width="4.8"></circle>
<circle clip-path="url(#clip122)" cx="3070.14" cy="1993.42" r="23.4" fill="#009af9" fill-rule="evenodd" fill-opacity="1" stroke="#000000" stroke-opacity="1" stroke-width="4.8"></circle>
<polyline clip-path="url(#clip122)" style="stroke:#e26f46; stroke-linecap:round; stroke-linejoin:round; stroke-width:12; stroke-opacity:1; fill:none" stroke-dasharray="48, 24, 6, 24" points="316.418,992.469 856.399,1470.43 1396.38,1747.47 1773.67,1842.61 2098.54,1898.75 2367.96,2062.01 2638.22,2019.43 2854.1,2092.55 3070.14,2130.43 "></polyline>
<path clip-path="url(#clip122)" d="M316.418 966.469 L290.418 992.469 L316.418 1018.47 L342.418 992.469 L316.418 966.469 Z" fill="#e26f46" fill-rule="evenodd" fill-opacity="1" stroke="#000000" stroke-opacity="1" stroke-width="4.8"></path>
<path clip-path="url(#clip122)" d="M856.399 1444.43 L830.399 1470.43 L856.399 1496.43 L882.399 1470.43 L856.399 1444.43 Z" fill="#e26f46" fill-rule="evenodd" fill-opacity="1" stroke="#000000" stroke-opacity="1" stroke-width="4.8"></path>
<path clip-path="url(#clip122)" d="M1396.38 1721.47 L1370.38 1747.47 L1396.38 1773.47 L1422.38 1747.47 L1396.38 1721.47 Z" fill="#e26f46" fill-rule="evenodd" fill-opacity="1" stroke="#000000" stroke-opacity="1" stroke-width="4.8"></path>
<path clip-path="url(#clip122)" d="M1773.67 1816.61 L1747.67 1842.61 L1773.67 1868.61 L1799.67 1842.61 L1773.67 1816.61 Z" fill="#e26f46" fill-rule="evenodd" fill-opacity="1" stroke="#000000" stroke-opacity="1" stroke-width="4.8"></path>
<path clip-path="url(#clip122)" d="M2098.54 1872.75 L2072.54 1898.75 L2098.54 1924.75 L2124.54 1898.75 L2098.54 1872.75 Z" fill="#e26f46" fill-rule="evenodd" fill-opacity="1" stroke="#000000" stroke-opacity="1" stroke-width="4.8"></path>
<path clip-path="url(#clip122)" d="M2367.96 2036.01 L2341.96 2062.01 L2367.96 2088.01 L2393.96 2062.01 L2367.96 2036.01 Z" fill="#e26f46" fill-rule="evenodd" fill-opacity="1" stroke="#000000" stroke-opacity="1" stroke-width="4.8"></path>
<path clip-path="url(#clip122)" d="M2638.22 1993.43 L2612.22 2019.43 L2638.22 2045.43 L2664.22 2019.43 L2638.22 1993.43 Z" fill="#e26f46" fill-rule="evenodd" fill-opacity="1" stroke="#000000" stroke-opacity="1" stroke-width="4.8"></path>
<path clip-path="url(#clip122)" d="M2854.1 2066.55 L2828.1 2092.55 L2854.1 2118.55 L2880.1 2092.55 L2854.1 2066.55 Z" fill="#e26f46" fill-rule="evenodd" fill-opacity="1" stroke="#000000" stroke-opacity="1" stroke-width="4.8"></path>
<path clip-path="url(#clip122)" d="M3070.14 2104.43 L3044.14 2130.43 L3070.14 2156.43 L3096.14 2130.43 L3070.14 2104.43 Z" fill="#e26f46" fill-rule="evenodd" fill-opacity="1" stroke="#000000" stroke-opacity="1" stroke-width="4.8"></path>
<polyline clip-path="url(#clip122)" style="stroke:#3da44d; stroke-linecap:round; stroke-linejoin:round; stroke-width:6; stroke-opacity:0.5; fill:none" stroke-dasharray="3, 6" points="316.418,862.075 856.399,1270.06 1396.38,1743.03 1773.67,1774.56 2098.54,1879.21 2367.96,1995.35 2638.22,2043.58 2854.1,2016.69 3070.14,2117.13 "></polyline>
<polyline clip-path="url(#clip122)" style="stroke:#c271d2; stroke-linecap:round; stroke-linejoin:round; stroke-width:6; stroke-opacity:0.5; fill:none" stroke-dasharray="3, 6" points="316.418,669.095 856.399,1178.48 1396.38,1508.98 1773.67,1682.71 2098.54,1845.14 2367.96,1920.29 2638.22,1986.93 2854.1,2022.78 3070.14,2050.48 "></polyline>
<polyline clip-path="url(#clip122)" style="stroke:#ac8d18; stroke-linecap:round; stroke-linejoin:round; stroke-width:6; stroke-opacity:0.5; fill:none" stroke-dasharray="3, 6" points="316.418,617.641 856.399,1106.77 1396.38,1448.93 1773.67,1646.43 2098.54,1764.7 2367.96,1919.5 2638.22,2032.94 2854.1,2063.43 3070.14,2066.91 "></polyline>
<polyline clip-path="url(#clip122)" style="stroke:#00a9ad; stroke-linecap:round; stroke-linejoin:round; stroke-width:6; stroke-opacity:0.5; fill:none" stroke-dasharray="3, 6" points="316.418,656.002 856.399,1286.07 1396.38,1481.23 1773.67,1679.22 2098.54,1763.5 2367.96,1891.73 2638.22,1950.3 2854.1,2068.86 3070.14,2031.74 "></polyline>
<path clip-path="url(#clip120)" d="M2560.21 481.586 L3055.46 481.586 L3055.46 118.706 L2560.21 118.706  Z" fill="#ffffff" fill-rule="evenodd" fill-opacity="1"></path>
<polyline clip-path="url(#clip120)" style="stroke:#000000; stroke-linecap:round; stroke-linejoin:round; stroke-width:4; stroke-opacity:1; fill:none" points="2560.21,481.586 3055.46,481.586 3055.46,118.706 2560.21,118.706 2560.21,481.586 "></polyline>
<polyline clip-path="url(#clip120)" style="stroke:#009af9; stroke-linecap:round; stroke-linejoin:round; stroke-width:12; stroke-opacity:1; fill:none" points="2592.64,170.546 2787.24,170.546 "></polyline>
<circle clip-path="url(#clip120)" cx="2689.94" cy="170.546" r="21.3943" fill="#009af9" fill-rule="evenodd" fill-opacity="1" stroke="#000000" stroke-opacity="1" stroke-width="4.38857"></circle>
<path clip-path="url(#clip120)" d="M2819.67 153.266 L2839.53 153.266 L2839.53 157.201 L2824.35 157.201 L2824.35 167.386 L2838.05 167.386 L2838.05 171.321 L2824.35 171.321 L2824.35 187.826 L2819.67 187.826 L2819.67 153.266 Z" fill="#000000" fill-rule="nonzero" fill-opacity="1"></path><path clip-path="url(#clip120)" d="M2872.82 155.928 L2872.82 160.859 Q2870.46 158.659 2867.77 157.572 Q2865.11 156.484 2862.1 156.484 Q2856.17 156.484 2853.03 160.118 Q2849.88 163.729 2849.88 170.581 Q2849.88 177.409 2853.03 181.044 Q2856.17 184.655 2862.1 184.655 Q2865.11 184.655 2867.77 183.567 Q2870.46 182.479 2872.82 180.28 L2872.82 185.164 Q2870.36 186.831 2867.61 187.664 Q2864.88 188.497 2861.82 188.497 Q2853.97 188.497 2849.46 183.706 Q2844.95 178.891 2844.95 170.581 Q2844.95 162.247 2849.46 157.456 Q2853.97 152.641 2861.82 152.641 Q2864.92 152.641 2867.66 153.474 Q2870.41 154.285 2872.82 155.928 Z" fill="#000000" fill-rule="nonzero" fill-opacity="1"></path><path clip-path="url(#clip120)" d="M2900.76 154.4 L2900.76 158.96 Q2898.09 157.687 2895.73 157.062 Q2893.37 156.437 2891.17 156.437 Q2887.35 156.437 2885.27 157.919 Q2883.21 159.4 2883.21 162.132 Q2883.21 164.423 2884.58 165.604 Q2885.97 166.761 2889.81 167.479 L2892.63 168.058 Q2897.86 169.053 2900.34 171.576 Q2902.84 174.076 2902.84 178.289 Q2902.84 183.312 2899.46 185.905 Q2896.1 188.497 2889.6 188.497 Q2887.15 188.497 2884.37 187.942 Q2881.61 187.386 2878.65 186.298 L2878.65 181.483 Q2881.5 183.081 2884.23 183.891 Q2886.96 184.701 2889.6 184.701 Q2893.6 184.701 2895.78 183.127 Q2897.96 181.553 2897.96 178.636 Q2897.96 176.09 2896.38 174.655 Q2894.83 173.22 2891.27 172.502 L2888.42 171.946 Q2883.19 170.905 2880.85 168.683 Q2878.51 166.46 2878.51 162.502 Q2878.51 157.919 2881.73 155.28 Q2884.97 152.641 2890.64 152.641 Q2893.07 152.641 2895.59 153.081 Q2898.12 153.521 2900.76 154.4 Z" fill="#000000" fill-rule="nonzero" fill-opacity="1"></path><path clip-path="url(#clip120)" d="M2942.08 165.835 L2942.08 151.808 L2946.34 151.808 L2946.34 187.826 L2942.08 187.826 L2942.08 183.937 Q2940.73 186.252 2938.67 187.386 Q2936.64 188.497 2933.77 188.497 Q2929.07 188.497 2926.1 184.747 Q2923.16 180.997 2923.16 174.886 Q2923.16 168.775 2926.1 165.025 Q2929.07 161.275 2933.77 161.275 Q2936.64 161.275 2938.67 162.409 Q2940.73 163.521 2942.08 165.835 M2927.56 174.886 Q2927.56 179.585 2929.48 182.27 Q2931.43 184.932 2934.81 184.932 Q2938.19 184.932 2940.13 182.27 Q2942.08 179.585 2942.08 174.886 Q2942.08 170.187 2940.13 167.525 Q2938.19 164.84 2934.81 164.84 Q2931.43 164.84 2929.48 167.525 Q2927.56 170.187 2927.56 174.886 Z" fill="#000000" fill-rule="nonzero" fill-opacity="1"></path><path clip-path="url(#clip120)" d="M2966.89 174.794 Q2961.73 174.794 2959.74 175.974 Q2957.75 177.155 2957.75 180.002 Q2957.75 182.27 2959.23 183.613 Q2960.73 184.932 2963.3 184.932 Q2966.84 184.932 2968.97 182.433 Q2971.13 179.909 2971.13 175.743 L2971.13 174.794 L2966.89 174.794 M2975.39 173.034 L2975.39 187.826 L2971.13 187.826 L2971.13 183.891 Q2969.67 186.252 2967.49 187.386 Q2965.32 188.497 2962.17 188.497 Q2958.19 188.497 2955.83 186.275 Q2953.49 184.03 2953.49 180.28 Q2953.49 175.905 2956.4 173.683 Q2959.34 171.46 2965.15 171.46 L2971.13 171.46 L2971.13 171.044 Q2971.13 168.104 2969.18 166.507 Q2967.26 164.886 2963.77 164.886 Q2961.54 164.886 2959.44 165.419 Q2957.33 165.951 2955.39 167.016 L2955.39 163.081 Q2957.72 162.178 2959.92 161.738 Q2962.12 161.275 2964.21 161.275 Q2969.83 161.275 2972.61 164.192 Q2975.39 167.109 2975.39 173.034 Z" fill="#000000" fill-rule="nonzero" fill-opacity="1"></path><path clip-path="url(#clip120)" d="M2988.37 154.539 L2988.37 161.9 L2997.15 161.9 L2997.15 165.21 L2988.37 165.21 L2988.37 179.284 Q2988.37 182.456 2989.23 183.358 Q2990.11 184.261 2992.77 184.261 L2997.15 184.261 L2997.15 187.826 L2992.77 187.826 Q2987.84 187.826 2985.96 185.997 Q2984.09 184.145 2984.09 179.284 L2984.09 165.21 L2980.96 165.21 L2980.96 161.9 L2984.09 161.9 L2984.09 154.539 L2988.37 154.539 Z" fill="#000000" fill-rule="nonzero" fill-opacity="1"></path><path clip-path="url(#clip120)" d="M3014.53 174.794 Q3009.37 174.794 3007.38 175.974 Q3005.39 177.155 3005.39 180.002 Q3005.39 182.27 3006.87 183.613 Q3008.37 184.932 3010.94 184.932 Q3014.48 184.932 3016.61 182.433 Q3018.77 179.909 3018.77 175.743 L3018.77 174.794 L3014.53 174.794 M3023.02 173.034 L3023.02 187.826 L3018.77 187.826 L3018.77 183.891 Q3017.31 186.252 3015.13 187.386 Q3012.96 188.497 3009.81 188.497 Q3005.83 188.497 3003.46 186.275 Q3001.13 184.03 3001.13 180.28 Q3001.13 175.905 3004.04 173.683 Q3006.98 171.46 3012.79 171.46 L3018.77 171.46 L3018.77 171.044 Q3018.77 168.104 3016.82 166.507 Q3014.9 164.886 3011.4 164.886 Q3009.18 164.886 3007.08 165.419 Q3004.97 165.951 3003.02 167.016 L3003.02 163.081 Q3005.36 162.178 3007.56 161.738 Q3009.76 161.275 3011.84 161.275 Q3017.47 161.275 3020.25 164.192 Q3023.02 167.109 3023.02 173.034 Z" fill="#000000" fill-rule="nonzero" fill-opacity="1"></path><polyline clip-path="url(#clip120)" style="stroke:#e26f46; stroke-linecap:round; stroke-linejoin:round; stroke-width:12; stroke-opacity:1; fill:none" stroke-dasharray="48, 24, 6, 24" points="2592.64,222.386 2787.24,222.386 "></polyline>
<path clip-path="url(#clip120)" d="M2689.94 198.615 L2666.17 222.386 L2689.94 246.157 L2713.71 222.386 L2689.94 198.615 Z" fill="#e26f46" fill-rule="evenodd" fill-opacity="1" stroke="#000000" stroke-opacity="1" stroke-width="4.38857"></path>
<path clip-path="url(#clip120)" d="M2838.58 217.675 L2838.58 203.648 L2842.84 203.648 L2842.84 239.666 L2838.58 239.666 L2838.58 235.777 Q2837.24 238.092 2835.18 239.226 Q2833.14 240.337 2830.27 240.337 Q2825.57 240.337 2822.61 236.587 Q2819.67 232.837 2819.67 226.726 Q2819.67 220.615 2822.61 216.865 Q2825.57 213.115 2830.27 213.115 Q2833.14 213.115 2835.18 214.249 Q2837.24 215.361 2838.58 217.675 M2824.07 226.726 Q2824.07 231.425 2825.99 234.11 Q2827.93 236.772 2831.31 236.772 Q2834.69 236.772 2836.64 234.11 Q2838.58 231.425 2838.58 226.726 Q2838.58 222.027 2836.64 219.365 Q2834.69 216.68 2831.31 216.68 Q2827.93 216.68 2825.99 219.365 Q2824.07 222.027 2824.07 226.726 Z" fill="#000000" fill-rule="nonzero" fill-opacity="1"></path><path clip-path="url(#clip120)" d="M2867.24 218.138 L2896.91 218.138 L2896.91 222.027 L2867.24 222.027 L2867.24 218.138 M2867.24 227.583 L2896.91 227.583 L2896.91 231.518 L2867.24 231.518 L2867.24 227.583 Z" fill="#000000" fill-rule="nonzero" fill-opacity="1"></path><path clip-path="url(#clip120)" d="M2936.24 221.032 Q2939.6 221.749 2941.47 224.018 Q2943.37 226.286 2943.37 229.62 Q2943.37 234.735 2939.85 237.536 Q2936.34 240.337 2929.85 240.337 Q2927.68 240.337 2925.36 239.897 Q2923.07 239.481 2920.62 238.624 L2920.62 234.11 Q2922.56 235.245 2924.88 235.823 Q2927.19 236.402 2929.72 236.402 Q2934.11 236.402 2936.4 234.666 Q2938.72 232.93 2938.72 229.62 Q2938.72 226.564 2936.57 224.851 Q2934.44 223.115 2930.62 223.115 L2926.59 223.115 L2926.59 219.273 L2930.8 219.273 Q2934.25 219.273 2936.08 217.907 Q2937.91 216.518 2937.91 213.925 Q2937.91 211.263 2936.01 209.851 Q2934.14 208.416 2930.62 208.416 Q2928.7 208.416 2926.5 208.833 Q2924.3 209.249 2921.66 210.129 L2921.66 205.962 Q2924.32 205.222 2926.64 204.851 Q2928.97 204.481 2931.03 204.481 Q2936.36 204.481 2939.46 206.912 Q2942.56 209.319 2942.56 213.439 Q2942.56 216.31 2940.92 218.3 Q2939.28 220.268 2936.24 221.032 Z" fill="#000000" fill-rule="nonzero" fill-opacity="1"></path><polyline clip-path="url(#clip120)" style="stroke:#3da44d; stroke-linecap:round; stroke-linejoin:round; stroke-width:6; stroke-opacity:0.5; fill:none" stroke-dasharray="3, 6" points="2592.64,274.226 2787.24,274.226 "></polyline>
<path clip-path="url(#clip120)" d="M2838.58 269.515 L2838.58 255.488 L2842.84 255.488 L2842.84 291.506 L2838.58 291.506 L2838.58 287.617 Q2837.24 289.932 2835.18 291.066 Q2833.14 292.177 2830.27 292.177 Q2825.57 292.177 2822.61 288.427 Q2819.67 284.677 2819.67 278.566 Q2819.67 272.455 2822.61 268.705 Q2825.57 264.955 2830.27 264.955 Q2833.14 264.955 2835.18 266.089 Q2837.24 267.201 2838.58 269.515 M2824.07 278.566 Q2824.07 283.265 2825.99 285.95 Q2827.93 288.612 2831.31 288.612 Q2834.69 288.612 2836.64 285.95 Q2838.58 283.265 2838.58 278.566 Q2838.58 273.867 2836.64 271.205 Q2834.69 268.52 2831.31 268.52 Q2827.93 268.52 2825.99 271.205 Q2824.07 273.867 2824.07 278.566 Z" fill="#000000" fill-rule="nonzero" fill-opacity="1"></path><path clip-path="url(#clip120)" d="M2867.24 269.978 L2896.91 269.978 L2896.91 273.867 L2867.24 273.867 L2867.24 269.978 M2867.24 279.423 L2896.91 279.423 L2896.91 283.358 L2867.24 283.358 L2867.24 279.423 Z" fill="#000000" fill-rule="nonzero" fill-opacity="1"></path><path clip-path="url(#clip120)" d="M2922.12 256.946 L2940.48 256.946 L2940.48 260.881 L2926.4 260.881 L2926.4 269.353 Q2927.42 269.006 2928.44 268.844 Q2929.46 268.659 2930.48 268.659 Q2936.27 268.659 2939.65 271.83 Q2943.03 275.001 2943.03 280.418 Q2943.03 285.997 2939.55 289.099 Q2936.08 292.177 2929.76 292.177 Q2927.59 292.177 2925.32 291.807 Q2923.07 291.437 2920.66 290.696 L2920.66 285.997 Q2922.75 287.131 2924.97 287.687 Q2927.19 288.242 2929.67 288.242 Q2933.67 288.242 2936.01 286.136 Q2938.35 284.029 2938.35 280.418 Q2938.35 276.807 2936.01 274.701 Q2933.67 272.594 2929.67 272.594 Q2927.79 272.594 2925.92 273.011 Q2924.07 273.427 2922.12 274.307 L2922.12 256.946 Z" fill="#000000" fill-rule="nonzero" fill-opacity="1"></path><polyline clip-path="url(#clip120)" style="stroke:#c271d2; stroke-linecap:round; stroke-linejoin:round; stroke-width:6; stroke-opacity:0.5; fill:none" stroke-dasharray="3, 6" points="2592.64,326.066 2787.24,326.066 "></polyline>
<path clip-path="url(#clip120)" d="M2838.58 321.355 L2838.58 307.328 L2842.84 307.328 L2842.84 343.346 L2838.58 343.346 L2838.58 339.457 Q2837.24 341.772 2835.18 342.906 Q2833.14 344.017 2830.27 344.017 Q2825.57 344.017 2822.61 340.267 Q2819.67 336.517 2819.67 330.406 Q2819.67 324.295 2822.61 320.545 Q2825.57 316.795 2830.27 316.795 Q2833.14 316.795 2835.18 317.929 Q2837.24 319.041 2838.58 321.355 M2824.07 330.406 Q2824.07 335.105 2825.99 337.79 Q2827.93 340.452 2831.31 340.452 Q2834.69 340.452 2836.64 337.79 Q2838.58 335.105 2838.58 330.406 Q2838.58 325.707 2836.64 323.045 Q2834.69 320.36 2831.31 320.36 Q2827.93 320.36 2825.99 323.045 Q2824.07 325.707 2824.07 330.406 Z" fill="#000000" fill-rule="nonzero" fill-opacity="1"></path><path clip-path="url(#clip120)" d="M2867.24 321.818 L2896.91 321.818 L2896.91 325.707 L2867.24 325.707 L2867.24 321.818 M2867.24 331.263 L2896.91 331.263 L2896.91 335.198 L2867.24 335.198 L2867.24 331.263 Z" fill="#000000" fill-rule="nonzero" fill-opacity="1"></path><path clip-path="url(#clip120)" d="M2920.9 308.786 L2943.12 308.786 L2943.12 310.777 L2930.57 343.346 L2925.69 343.346 L2937.49 312.721 L2920.9 312.721 L2920.9 308.786 Z" fill="#000000" fill-rule="nonzero" fill-opacity="1"></path><polyline clip-path="url(#clip120)" style="stroke:#ac8d18; stroke-linecap:round; stroke-linejoin:round; stroke-width:6; stroke-opacity:0.5; fill:none" stroke-dasharray="3, 6" points="2592.64,377.906 2787.24,377.906 "></polyline>
<path clip-path="url(#clip120)" d="M2838.58 373.195 L2838.58 359.168 L2842.84 359.168 L2842.84 395.186 L2838.58 395.186 L2838.58 391.297 Q2837.24 393.612 2835.18 394.746 Q2833.14 395.857 2830.27 395.857 Q2825.57 395.857 2822.61 392.107 Q2819.67 388.357 2819.67 382.246 Q2819.67 376.135 2822.61 372.385 Q2825.57 368.635 2830.27 368.635 Q2833.14 368.635 2835.18 369.769 Q2837.24 370.881 2838.58 373.195 M2824.07 382.246 Q2824.07 386.945 2825.99 389.63 Q2827.93 392.292 2831.31 392.292 Q2834.69 392.292 2836.64 389.63 Q2838.58 386.945 2838.58 382.246 Q2838.58 377.547 2836.64 374.885 Q2834.69 372.2 2831.31 372.2 Q2827.93 372.2 2825.99 374.885 Q2824.07 377.547 2824.07 382.246 Z" fill="#000000" fill-rule="nonzero" fill-opacity="1"></path><path clip-path="url(#clip120)" d="M2867.24 373.658 L2896.91 373.658 L2896.91 377.547 L2867.24 377.547 L2867.24 373.658 M2867.24 383.103 L2896.91 383.103 L2896.91 387.038 L2867.24 387.038 L2867.24 383.103 Z" fill="#000000" fill-rule="nonzero" fill-opacity="1"></path><path clip-path="url(#clip120)" d="M2922.22 394.468 L2922.22 390.209 Q2923.97 391.043 2925.78 391.482 Q2927.59 391.922 2929.32 391.922 Q2933.95 391.922 2936.38 388.82 Q2938.84 385.695 2939.18 379.353 Q2937.84 381.343 2935.78 382.408 Q2933.72 383.473 2931.22 383.473 Q2926.03 383.473 2923 380.348 Q2919.99 377.2 2919.99 371.76 Q2919.99 366.436 2923.14 363.219 Q2926.29 360.001 2931.52 360.001 Q2937.52 360.001 2940.66 364.607 Q2943.84 369.191 2943.84 377.941 Q2943.84 386.112 2939.95 390.996 Q2936.08 395.857 2929.53 395.857 Q2927.77 395.857 2925.97 395.51 Q2924.16 395.163 2922.22 394.468 M2931.52 379.816 Q2934.67 379.816 2936.5 377.663 Q2938.35 375.51 2938.35 371.76 Q2938.35 368.033 2936.5 365.881 Q2934.67 363.705 2931.52 363.705 Q2928.37 363.705 2926.52 365.881 Q2924.69 368.033 2924.69 371.76 Q2924.69 375.51 2926.52 377.663 Q2928.37 379.816 2931.52 379.816 Z" fill="#000000" fill-rule="nonzero" fill-opacity="1"></path><polyline clip-path="url(#clip120)" style="stroke:#00a9ad; stroke-linecap:round; stroke-linejoin:round; stroke-width:6; stroke-opacity:0.5; fill:none" stroke-dasharray="3, 6" points="2592.64,429.746 2787.24,429.746 "></polyline>
<path clip-path="url(#clip120)" d="M2838.58 425.035 L2838.58 411.008 L2842.84 411.008 L2842.84 447.026 L2838.58 447.026 L2838.58 443.137 Q2837.24 445.452 2835.18 446.586 Q2833.14 447.697 2830.27 447.697 Q2825.57 447.697 2822.61 443.947 Q2819.67 440.197 2819.67 434.086 Q2819.67 427.975 2822.61 424.225 Q2825.57 420.475 2830.27 420.475 Q2833.14 420.475 2835.18 421.609 Q2837.24 422.721 2838.58 425.035 M2824.07 434.086 Q2824.07 438.785 2825.99 441.47 Q2827.93 444.132 2831.31 444.132 Q2834.69 444.132 2836.64 441.47 Q2838.58 438.785 2838.58 434.086 Q2838.58 429.387 2836.64 426.725 Q2834.69 424.04 2831.31 424.04 Q2827.93 424.04 2825.99 426.725 Q2824.07 429.387 2824.07 434.086 Z" fill="#000000" fill-rule="nonzero" fill-opacity="1"></path><path clip-path="url(#clip120)" d="M2867.24 425.498 L2896.91 425.498 L2896.91 429.387 L2867.24 429.387 L2867.24 425.498 M2867.24 434.943 L2896.91 434.943 L2896.91 438.878 L2867.24 438.878 L2867.24 434.943 Z" fill="#000000" fill-rule="nonzero" fill-opacity="1"></path><path clip-path="url(#clip120)" d="M2922.89 443.091 L2930.53 443.091 L2930.53 416.725 L2922.22 418.392 L2922.22 414.133 L2930.48 412.466 L2935.15 412.466 L2935.15 443.091 L2942.79 443.091 L2942.79 447.026 L2922.89 447.026 L2922.89 443.091 Z" fill="#000000" fill-rule="nonzero" fill-opacity="1"></path><path clip-path="url(#clip120)" d="M2953.05 443.091 L2960.69 443.091 L2960.69 416.725 L2952.38 418.392 L2952.38 414.133 L2960.64 412.466 L2965.32 412.466 L2965.32 443.091 L2972.96 443.091 L2972.96 447.026 L2953.05 447.026 L2953.05 443.091 Z" fill="#000000" fill-rule="nonzero" fill-opacity="1"></path></svg>