<svg xmlns="http://www.w3.org/2000/svg" xmlns:xlink="http://www.w3.org/1999/xlink" width="900" height="600" viewBox="0 0 3600 2400">
<defs>
  <clipPath id="clip040">
    <rect x="0" y="0" width="3600" height="2400"></rect>
  </clipPath>
</defs>
<path clip-path="url(#clip040)" d="M0 2400 L3600 2400 L3600 0 L0 0  Z" fill="#ffffff" fill-rule="evenodd" fill-opacity="1"></path>
<defs>
  <clipPath id="clip041">
    <rect x="720" y="0" width="2521" height="2400"></rect>
  </clipPath>
</defs>
<path clip-path="url(#clip040)" d="M283.869 2189.94 L3552.76 2189.94 L3552.76 47.2441 L283.869 47.2441  Z" fill="#ffffff" fill-rule="evenodd" fill-opacity="1"></path>
<defs>
  <clipPath id="clip042">
    <rect x="283" y="47" width="3270" height="2144"></rect>
  </clipPath>
</defs>
<polyline clip-path="url(#clip042)" style="stroke:#000000; stroke-linecap:round; stroke-linejoin:round; stroke-width:2; stroke-opacity:0.1; fill:none" points="376.385,2189.94 376.385,47.2441 "></polyline>
<polyline clip-path="url(#clip042)" style="stroke:#000000; stroke-linecap:round; stroke-linejoin:round; stroke-width:2; stroke-opacity:0.1; fill:none" points="981.101,2189.94 981.101,47.2441 "></polyline>
<polyline clip-path="url(#clip042)" style="stroke:#000000; stroke-linecap:round; stroke-linejoin:round; stroke-width:2; stroke-opacity:0.1; fill:none" points="1585.82,2189.94 1585.82,47.2441 "></polyline>
<polyline clip-path="url(#clip042)" style="stroke:#000000; stroke-linecap:round; stroke-linejoin:round; stroke-width:2; stroke-opacity:0.1; fill:none" points="2190.53,2189.94 2190.53,47.2441 "></polyline>
<polyline clip-path="url(#clip042)" style="stroke:#000000; stroke-linecap:round; stroke-linejoin:round; stroke-width:2; stroke-opacity:0.1; fill:none" points="2795.25,2189.94 2795.25,47.2441 "></polyline>
<polyline clip-path="url(#clip042)" style="stroke:#000000; stroke-linecap:round; stroke-linejoin:round; stroke-width:2; stroke-opacity:0.1; fill:none" points="3399.96,2189.94 3399.96,47.2441 "></polyline>
<polyline clip-path="url(#clip042)" style="stroke:#000000; stroke-linecap:round; stroke-linejoin:round; stroke-width:2; stroke-opacity:0.1; fill:none" points="283.869,2189.94 3552.76,2189.94 "></polyline>
<polyline clip-path="url(#clip042)" style="stroke:#000000; stroke-linecap:round; stroke-linejoin:round; stroke-width:2; stroke-opacity:0.1; fill:none" points="283.869,1483.39 3552.76,1483.39 "></polyline>
<polyline clip-path="url(#clip042)" style="stroke:#000000; stroke-linecap:round; stroke-linejoin:round; stroke-width:2; stroke-opacity:0.1; fill:none" points="283.869,919.219 3552.76,919.219 "></polyline>
<polyline clip-path="url(#clip042)" style="stroke:#000000; stroke-linecap:round; stroke-linejoin:round; stroke-width:2; stroke-opacity:0.1; fill:none" points="283.869,449.56 3552.76,449.56 "></polyline>
<polyline clip-path="url(#clip042)" style="stroke:#000000; stroke-linecap:round; stroke-linejoin:round; stroke-width:2; stroke-opacity:0.1; fill:none" points="283.869,47.2441 3552.76,47.2441 "></polyline>
<polyline clip-path="url(#clip042)" style="stroke:#000000; stroke-linecap:round; stroke-linejoin:round; stroke-width:2; stroke-opacity:0.1; fill:none" points="283.869,-304.642 3552.76,-304.642 "></polyline>
<polyline clip-path="url(#clip042)" style="stroke:#000000; stroke-linecap:round; stroke-linejoin:round; stroke-width:2; stroke-opacity:0.1; fill:none" points="283.869,-617.343 3552.76,-617.343 "></polyline>
<polyline clip-path="url(#clip040)" style="stroke:#000000; stroke-linecap:round; stroke-linejoin:round; stroke-width:4; stroke-opacity:1; fill:none" points="283.869,2189.94 3552.76,2189.94 "></polyline>
<polyline clip-path="url(#clip040)" style="stroke:#000000; stroke-linecap:round; stroke-linejoin:round; stroke-width:4; stroke-opacity:1; fill:none" points="376.385,2189.94 376.385,2171.04 "></polyline>
<polyline clip-path="url(#clip040)" style="stroke:#000000; stroke-linecap:round; stroke-linejoin:round; stroke-width:4; stroke-opacity:1; fill:none" points="981.101,2189.94 981.101,2171.04 "></polyline>
<polyline clip-path="url(#clip040)" style="stroke:#000000; stroke-linecap:round; stroke-linejoin:round; stroke-width:4; stroke-opacity:1; fill:none" points="1585.82,2189.94 1585.82,2171.04 "></polyline>
<polyline clip-path="url(#clip040)" style="stroke:#000000; stroke-linecap:round; stroke-linejoin:round; stroke-width:4; stroke-opacity:1; fill:none" points="2190.53,2189.94 2190.53,2171.04 "></polyline>
<polyline clip-path="url(#clip040)" style="stroke:#000000; stroke-linecap:round; stroke-linejoin:round; stroke-width:4; stroke-opacity:1; fill:none" points="2795.25,2189.94 2795.25,2171.04 "></polyline>
<polyline clip-path="url(#clip040)" style="stroke:#000000; stroke-linecap:round; stroke-linejoin:round; stroke-width:4; stroke-opacity:1; fill:none" points="3399.96,2189.94 3399.96,2171.04 "></polyline>
<path clip-path="url(#clip040)" d="M349.926 2273.66 L366.245 2273.66 L366.245 2277.6 L344.301 2277.6 L344.301 2273.66 Q346.963 2270.91 351.546 2266.28 Q356.153 2261.62 357.333 2260.28 Q359.579 2257.76 360.458 2256.02 Q361.361 2254.26 361.361 2252.57 Q361.361 2249.82 359.417 2248.08 Q357.495 2246.35 354.393 2246.35 Q352.194 2246.35 349.741 2247.11 Q347.31 2247.87 344.532 2249.43 L344.532 2244.7 Q347.356 2243.57 349.81 2242.99 Q352.264 2242.41 354.301 2242.41 Q359.671 2242.41 362.866 2245.1 Q366.06 2247.78 366.06 2252.27 Q366.06 2254.4 365.25 2256.32 Q364.463 2258.22 362.356 2260.81 Q361.778 2261.49 358.676 2264.7 Q355.574 2267.9 349.926 2273.66 Z" fill="#000000" fill-rule="nonzero" fill-opacity="1"></path><path clip-path="url(#clip040)" d="M366.791 2246.99 L372.997 2246.99 L372.997 2225.57 L366.245 2226.92 L366.245 2223.46 L372.96 2222.11 L376.759 2222.11 L376.759 2246.99 L382.965 2246.99 L382.965 2250.19 L366.791 2250.19 L366.791 2246.99 Z" fill="#000000" fill-rule="nonzero" fill-opacity="1"></path><path clip-path="url(#clip040)" d="M398.764 2224.61 Q395.83 2224.61 394.344 2227.5 Q392.877 2230.38 392.877 2236.17 Q392.877 2241.95 394.344 2244.84 Q395.83 2247.72 398.764 2247.72 Q401.717 2247.72 403.184 2244.84 Q404.669 2241.95 404.669 2236.17 Q404.669 2230.38 403.184 2227.5 Q401.717 2224.61 398.764 2224.61 M398.764 2221.6 Q403.485 2221.6 405.967 2225.34 Q408.469 2229.07 408.469 2236.17 Q408.469 2243.26 405.967 2247.01 Q403.485 2250.73 398.764 2250.73 Q394.043 2250.73 391.542 2247.01 Q389.059 2243.26 389.059 2236.17 Q389.059 2229.07 391.542 2225.34 Q394.043 2221.6 398.764 2221.6 Z" fill="#000000" fill-rule="nonzero" fill-opacity="1"></path><path clip-path="url(#clip040)" d="M955.14 2273.66 L971.459 2273.66 L971.459 2277.6 L949.515 2277.6 L949.515 2273.66 Q952.177 2270.91 956.76 2266.28 Q961.367 2261.62 962.548 2260.28 Q964.793 2257.76 965.672 2256.02 Q966.575 2254.26 966.575 2252.57 Q966.575 2249.82 964.631 2248.08 Q962.71 2246.35 959.608 2246.35 Q957.409 2246.35 954.955 2247.11 Q952.524 2247.87 949.747 2249.43 L949.747 2244.7 Q952.571 2243.57 955.024 2242.99 Q957.478 2242.41 959.515 2242.41 Q964.885 2242.41 968.08 2245.1 Q971.274 2247.78 971.274 2252.27 Q971.274 2254.4 970.464 2256.32 Q969.677 2258.22 967.571 2260.81 Q966.992 2261.49 963.89 2264.7 Q960.788 2267.9 955.14 2273.66 Z" fill="#000000" fill-rule="nonzero" fill-opacity="1"></path><path clip-path="url(#clip040)" d="M972.005 2246.99 L978.211 2246.99 L978.211 2225.57 L971.459 2226.92 L971.459 2223.46 L978.174 2222.11 L981.973 2222.11 L981.973 2246.99 L988.18 2246.99 L988.18 2250.19 L972.005 2250.19 L972.005 2246.99 Z" fill="#000000" fill-rule="nonzero" fill-opacity="1"></path><path clip-path="url(#clip040)" d="M996.511 2246.99 L1002.72 2246.99 L1002.72 2225.57 L995.966 2226.92 L995.966 2223.46 L1002.68 2222.11 L1006.48 2222.11 L1006.48 2246.99 L1012.69 2246.99 L1012.69 2250.19 L996.511 2250.19 L996.511 2246.99 Z" fill="#000000" fill-rule="nonzero" fill-opacity="1"></path><path clip-path="url(#clip040)" d="M1560.01 2273.66 L1576.33 2273.66 L1576.33 2277.6 L1554.38 2277.6 L1554.38 2273.66 Q1557.04 2270.91 1561.63 2266.28 Q1566.23 2261.62 1567.41 2260.28 Q1569.66 2257.76 1570.54 2256.02 Q1571.44 2254.26 1571.44 2252.57 Q1571.44 2249.82 1569.5 2248.08 Q1567.58 2246.35 1564.47 2246.35 Q1562.28 2246.35 1559.82 2247.11 Q1557.39 2247.87 1554.61 2249.43 L1554.61 2244.7 Q1557.44 2243.57 1559.89 2242.99 Q1562.34 2242.41 1564.38 2242.41 Q1569.75 2242.41 1572.95 2245.1 Q1576.14 2247.78 1576.14 2252.27 Q1576.14 2254.4 1575.33 2256.32 Q1574.54 2258.22 1572.44 2260.81 Q1571.86 2261.49 1568.76 2264.7 Q1565.65 2267.9 1560.01 2273.66 Z" fill="#000000" fill-rule="nonzero" fill-opacity="1"></path><path clip-path="url(#clip040)" d="M1576.87 2246.99 L1583.08 2246.99 L1583.08 2225.57 L1576.33 2226.92 L1576.33 2223.46 L1583.04 2222.11 L1586.84 2222.11 L1586.84 2246.99 L1593.05 2246.99 L1593.05 2250.19 L1576.87 2250.19 L1576.87 2246.99 Z" fill="#000000" fill-rule="nonzero" fill-opacity="1"></path><path clip-path="url(#clip040)" d="M1603.99 2246.99 L1617.25 2246.99 L1617.25 2250.19 L1599.42 2250.19 L1599.42 2246.99 Q1601.58 2244.75 1605.31 2240.99 Q1609.05 2237.21 1610.01 2236.12 Q1611.83 2234.07 1612.55 2232.66 Q1613.28 2231.23 1613.28 2229.86 Q1613.28 2227.62 1611.7 2226.21 Q1610.14 2224.8 1607.62 2224.8 Q1605.84 2224.8 1603.84 2225.42 Q1601.87 2226.04 1599.61 2227.3 L1599.61 2223.46 Q1601.9 2222.54 1603.9 2222.07 Q1605.89 2221.6 1607.55 2221.6 Q1611.91 2221.6 1614.51 2223.78 Q1617.1 2225.96 1617.1 2229.61 Q1617.1 2231.34 1616.44 2232.9 Q1615.8 2234.44 1614.09 2236.55 Q1613.62 2237.1 1611.1 2239.71 Q1608.58 2242.31 1603.99 2246.99 Z" fill="#000000" fill-rule="nonzero" fill-opacity="1"></path><path clip-path="url(#clip040)" d="M2164.34 2273.66 L2180.66 2273.66 L2180.66 2277.6 L2158.71 2277.6 L2158.71 2273.66 Q2161.37 2270.91 2165.96 2266.28 Q2170.56 2261.62 2171.74 2260.28 Q2173.99 2257.76 2174.87 2256.02 Q2175.77 2254.26 2175.77 2252.57 Q2175.77 2249.82 2173.83 2248.08 Q2171.91 2246.35 2168.8 2246.35 Q2166.61 2246.35 2164.15 2247.11 Q2161.72 2247.87 2158.94 2249.43 L2158.94 2244.7 Q2161.77 2243.57 2164.22 2242.99 Q2166.67 2242.41 2168.71 2242.41 Q2174.08 2242.41 2177.28 2245.1 Q2180.47 2247.78 2180.47 2252.27 Q2180.47 2254.4 2179.66 2256.32 Q2178.87 2258.22 2176.77 2260.81 Q2176.19 2261.49 2173.09 2264.7 Q2169.98 2267.9 2164.34 2273.66 Z" fill="#000000" fill-rule="nonzero" fill-opacity="1"></path><path clip-path="url(#clip040)" d="M2181.2 2246.99 L2187.41 2246.99 L2187.41 2225.57 L2180.66 2226.92 L2180.66 2223.46 L2187.37 2222.11 L2191.17 2222.11 L2191.17 2246.99 L2197.38 2246.99 L2197.38 2250.19 L2181.2 2250.19 L2181.2 2246.99 Z" fill="#000000" fill-rule="nonzero" fill-opacity="1"></path><path clip-path="url(#clip040)" d="M2216.56 2235.05 Q2219.29 2235.63 2220.81 2237.47 Q2222.35 2239.32 2222.35 2242.02 Q2222.35 2246.18 2219.49 2248.46 Q2216.64 2250.73 2211.37 2250.73 Q2209.6 2250.73 2207.72 2250.37 Q2205.86 2250.04 2203.86 2249.34 L2203.86 2245.67 Q2205.44 2246.59 2207.33 2247.06 Q2209.21 2247.53 2211.26 2247.53 Q2214.83 2247.53 2216.69 2246.12 Q2218.57 2244.71 2218.57 2242.02 Q2218.57 2239.54 2216.82 2238.15 Q2215.09 2236.74 2211.99 2236.74 L2208.72 2236.74 L2208.72 2233.62 L2212.14 2233.62 Q2214.94 2233.62 2216.43 2232.51 Q2217.91 2231.38 2217.91 2229.27 Q2217.91 2227.11 2216.37 2225.96 Q2214.85 2224.8 2211.99 2224.8 Q2210.43 2224.8 2208.64 2225.13 Q2206.86 2225.47 2204.71 2226.19 L2204.71 2222.8 Q2206.87 2222.2 2208.76 2221.9 Q2210.65 2221.6 2212.33 2221.6 Q2216.65 2221.6 2219.17 2223.57 Q2221.69 2225.53 2221.69 2228.88 Q2221.69 2231.21 2220.36 2232.83 Q2219.02 2234.43 2216.56 2235.05 Z" fill="#000000" fill-rule="nonzero" fill-opacity="1"></path><path clip-path="url(#clip040)" d="M2768.59 2273.66 L2784.91 2273.66 L2784.91 2277.6 L2762.97 2277.6 L2762.97 2273.66 Q2765.63 2270.91 2770.21 2266.28 Q2774.82 2261.62 2776 2260.28 Q2778.24 2257.76 2779.12 2256.02 Q2780.03 2254.26 2780.03 2252.57 Q2780.03 2249.82 2778.08 2248.08 Q2776.16 2246.35 2773.06 2246.35 Q2770.86 2246.35 2768.41 2247.11 Q2765.98 2247.87 2763.2 2249.43 L2763.2 2244.7 Q2766.02 2243.57 2768.48 2242.99 Q2770.93 2242.41 2772.97 2242.41 Q2778.34 2242.41 2781.53 2245.1 Q2784.73 2247.78 2784.73 2252.27 Q2784.73 2254.4 2783.92 2256.32 Q2783.13 2258.22 2781.02 2260.81 Q2780.44 2261.49 2777.34 2264.7 Q2774.24 2267.9 2768.59 2273.66 Z" fill="#000000" fill-rule="nonzero" fill-opacity="1"></path><path clip-path="url(#clip040)" d="M2785.46 2246.99 L2791.66 2246.99 L2791.66 2225.57 L2784.91 2226.92 L2784.91 2223.46 L2791.63 2222.11 L2795.42 2222.11 L2795.42 2246.99 L2801.63 2246.99 L2801.63 2250.19 L2785.46 2250.19 L2785.46 2246.99 Z" fill="#000000" fill-rule="nonzero" fill-opacity="1"></path><path clip-path="url(#clip040)" d="M2819.74 2225.42 L2810.15 2240.41 L2819.74 2240.41 L2819.74 2225.42 M2818.75 2222.11 L2823.52 2222.11 L2823.52 2240.41 L2827.53 2240.41 L2827.53 2243.57 L2823.52 2243.57 L2823.52 2250.19 L2819.74 2250.19 L2819.74 2243.57 L2807.07 2243.57 L2807.07 2239.9 L2818.75 2222.11 Z" fill="#000000" fill-rule="nonzero" fill-opacity="1"></path><path clip-path="url(#clip040)" d="M3373.91 2273.66 L3390.23 2273.66 L3390.23 2277.6 L3368.28 2277.6 L3368.28 2273.66 Q3370.95 2270.91 3375.53 2266.28 Q3380.14 2261.62 3381.32 2260.28 Q3383.56 2257.76 3384.44 2256.02 Q3385.34 2254.26 3385.34 2252.57 Q3385.34 2249.82 3383.4 2248.08 Q3381.48 2246.35 3378.38 2246.35 Q3376.18 2246.35 3373.72 2247.11 Q3371.29 2247.87 3368.52 2249.43 L3368.52 2244.7 Q3371.34 2243.57 3373.79 2242.99 Q3376.25 2242.41 3378.28 2242.41 Q3383.66 2242.41 3386.85 2245.1 Q3390.04 2247.78 3390.04 2252.27 Q3390.04 2254.4 3389.23 2256.32 Q3388.45 2258.22 3386.34 2260.81 Q3385.76 2261.49 3382.66 2264.7 Q3379.56 2267.9 3373.91 2273.66 Z" fill="#000000" fill-rule="nonzero" fill-opacity="1"></path><path clip-path="url(#clip040)" d="M3390.77 2246.99 L3396.98 2246.99 L3396.98 2225.57 L3390.23 2226.92 L3390.23 2223.46 L3396.94 2222.11 L3400.74 2222.11 L3400.74 2246.99 L3406.95 2246.99 L3406.95 2250.19 L3390.77 2250.19 L3390.77 2246.99 Z" fill="#000000" fill-rule="nonzero" fill-opacity="1"></path><path clip-path="url(#clip040)" d="M3414.66 2222.11 L3429.57 2222.11 L3429.57 2225.3 L3418.14 2225.3 L3418.14 2232.19 Q3418.97 2231.91 3419.79 2231.77 Q3420.62 2231.62 3421.45 2231.62 Q3426.15 2231.62 3428.9 2234.2 Q3431.64 2236.78 3431.64 2241.18 Q3431.64 2245.71 3428.82 2248.23 Q3426 2250.73 3420.87 2250.73 Q3419.1 2250.73 3417.26 2250.43 Q3415.43 2250.13 3413.48 2249.53 L3413.48 2245.71 Q3415.17 2246.63 3416.97 2247.08 Q3418.78 2247.53 3420.79 2247.53 Q3424.05 2247.53 3425.95 2245.82 Q3427.84 2244.11 3427.84 2241.18 Q3427.84 2238.24 3425.95 2236.53 Q3424.05 2234.82 3420.79 2234.82 Q3419.27 2234.82 3417.74 2235.16 Q3416.24 2235.5 3414.66 2236.21 L3414.66 2222.11 Z" fill="#000000" fill-rule="nonzero" fill-opacity="1"></path><path clip-path="url(#clip040)" d="M1782.4 2342.74 L1782.4 2349.79 Q1779.24 2348.17 1775.84 2347.36 Q1772.44 2346.55 1768.79 2346.55 Q1763.24 2346.55 1760.45 2348.25 Q1757.69 2349.95 1757.69 2353.36 Q1757.69 2355.95 1759.68 2357.45 Q1761.66 2358.91 1767.66 2360.24 L1770.21 2360.81 Q1778.15 2362.51 1781.47 2365.63 Q1784.84 2368.71 1784.84 2374.26 Q1784.84 2380.58 1779.81 2384.27 Q1774.83 2387.95 1766.08 2387.95 Q1762.43 2387.95 1758.46 2387.22 Q1754.53 2386.53 1750.16 2385.12 L1750.16 2377.42 Q1754.29 2379.57 1758.3 2380.66 Q1762.31 2381.71 1766.24 2381.71 Q1771.51 2381.71 1774.34 2379.93 Q1777.18 2378.11 1777.18 2374.83 Q1777.18 2371.79 1775.11 2370.17 Q1773.09 2368.55 1766.16 2367.05 L1763.57 2366.44 Q1756.64 2364.98 1753.56 2361.99 Q1750.48 2358.95 1750.48 2353.68 Q1750.48 2347.28 1755.02 2343.8 Q1759.56 2340.31 1767.9 2340.31 Q1772.03 2340.31 1775.68 2340.92 Q1779.33 2341.53 1782.4 2342.74 Z" fill="#000000" fill-rule="nonzero" fill-opacity="1"></path><path clip-path="url(#clip040)" d="M1817.32 2363.97 Q1808.29 2363.97 1804.81 2366.04 Q1801.32 2368.1 1801.32 2373.09 Q1801.32 2377.06 1803.91 2379.4 Q1806.55 2381.71 1811.04 2381.71 Q1817.24 2381.71 1820.97 2377.34 Q1824.74 2372.92 1824.74 2365.63 L1824.74 2363.97 L1817.32 2363.97 M1832.19 2360.89 L1832.19 2386.78 L1824.74 2386.78 L1824.74 2379.89 Q1822.18 2384.02 1818.38 2386.01 Q1814.57 2387.95 1809.06 2387.95 Q1802.09 2387.95 1797.96 2384.06 Q1793.87 2380.13 1793.87 2373.57 Q1793.87 2365.92 1798.97 2362.03 Q1804.12 2358.14 1814.29 2358.14 L1824.74 2358.14 L1824.74 2357.41 Q1824.74 2352.26 1821.33 2349.47 Q1817.97 2346.63 1811.85 2346.63 Q1807.97 2346.63 1804.28 2347.56 Q1800.59 2348.5 1797.19 2350.36 L1797.19 2343.47 Q1801.28 2341.89 1805.13 2341.12 Q1808.98 2340.31 1812.62 2340.31 Q1822.47 2340.31 1827.33 2345.42 Q1832.19 2350.52 1832.19 2360.89 Z" fill="#000000" fill-rule="nonzero" fill-opacity="1"></path><path clip-path="url(#clip040)" d="M1882.87 2350.12 Q1885.66 2345.09 1889.55 2342.7 Q1893.44 2340.31 1898.71 2340.31 Q1905.8 2340.31 1909.64 2345.3 Q1913.49 2350.24 1913.49 2359.39 L1913.49 2386.78 L1906 2386.78 L1906 2359.64 Q1906 2353.11 1903.69 2349.95 Q1901.38 2346.8 1896.64 2346.8 Q1890.85 2346.8 1887.49 2350.64 Q1884.12 2354.49 1884.12 2361.14 L1884.12 2386.78 L1876.63 2386.78 L1876.63 2359.64 Q1876.63 2353.07 1874.32 2349.95 Q1872.01 2346.8 1867.19 2346.8 Q1861.48 2346.8 1858.12 2350.68 Q1854.75 2354.53 1854.75 2361.14 L1854.75 2386.78 L1847.26 2386.78 L1847.26 2341.41 L1854.75 2341.41 L1854.75 2348.46 Q1857.31 2344.28 1860.87 2342.3 Q1864.44 2340.31 1869.34 2340.31 Q1874.28 2340.31 1877.72 2342.83 Q1881.21 2345.34 1882.87 2350.12 Z" fill="#000000" fill-rule="nonzero" fill-opacity="1"></path><path clip-path="url(#clip040)" d="M1935.57 2379.97 L1935.57 2404.03 L1928.08 2404.03 L1928.08 2341.41 L1935.57 2341.41 L1935.57 2348.29 Q1937.92 2344.24 1941.48 2342.3 Q1945.09 2340.31 1950.07 2340.31 Q1958.34 2340.31 1963.48 2346.88 Q1968.67 2353.44 1968.67 2364.13 Q1968.67 2374.83 1963.48 2381.39 Q1958.34 2387.95 1950.07 2387.95 Q1945.09 2387.95 1941.48 2386.01 Q1937.92 2384.02 1935.57 2379.97 M1960.93 2364.13 Q1960.93 2355.91 1957.53 2351.25 Q1954.16 2346.55 1948.25 2346.55 Q1942.33 2346.55 1938.93 2351.25 Q1935.57 2355.91 1935.57 2364.13 Q1935.57 2372.36 1938.93 2377.06 Q1942.33 2381.71 1948.25 2381.71 Q1954.16 2381.71 1957.53 2377.06 Q1960.93 2372.36 1960.93 2364.13 Z" fill="#000000" fill-rule="nonzero" fill-opacity="1"></path><path clip-path="url(#clip040)" d="M1981.02 2323.75 L1988.47 2323.75 L1988.47 2386.78 L1981.02 2386.78 L1981.02 2323.75 Z" fill="#000000" fill-rule="nonzero" fill-opacity="1"></path><path clip-path="url(#clip040)" d="M2042.88 2362.23 L2042.88 2365.87 L2008.61 2365.87 Q2009.09 2373.57 2013.23 2377.62 Q2017.4 2381.63 2024.81 2381.63 Q2029.1 2381.63 2033.12 2380.58 Q2037.17 2379.53 2041.14 2377.42 L2041.14 2384.47 Q2037.13 2386.17 2032.91 2387.06 Q2028.7 2387.95 2024.37 2387.95 Q2013.51 2387.95 2007.15 2381.63 Q2000.83 2375.31 2000.83 2364.54 Q2000.83 2353.4 2006.82 2346.88 Q2012.86 2340.31 2023.07 2340.31 Q2032.22 2340.31 2037.53 2346.23 Q2042.88 2352.1 2042.88 2362.23 M2035.42 2360.04 Q2035.34 2353.92 2031.98 2350.28 Q2028.66 2346.63 2023.15 2346.63 Q2016.91 2346.63 2013.14 2350.16 Q2009.42 2353.68 2008.85 2360.08 L2035.42 2360.04 Z" fill="#000000" fill-rule="nonzero" fill-opacity="1"></path><path clip-path="url(#clip040)" d="M2084.03 2342.74 L2084.03 2349.79 Q2080.88 2348.17 2077.47 2347.36 Q2074.07 2346.55 2070.42 2346.55 Q2064.87 2346.55 2062.08 2348.25 Q2059.32 2349.95 2059.32 2353.36 Q2059.32 2355.95 2061.31 2357.45 Q2063.29 2358.91 2069.29 2360.24 L2071.84 2360.81 Q2079.78 2362.51 2083.1 2365.63 Q2086.47 2368.71 2086.47 2374.26 Q2086.47 2380.58 2081.44 2384.27 Q2076.46 2387.95 2067.71 2387.95 Q2064.06 2387.95 2060.09 2387.22 Q2056.16 2386.53 2051.79 2385.12 L2051.79 2377.42 Q2055.92 2379.57 2059.93 2380.66 Q2063.94 2381.71 2067.87 2381.71 Q2073.14 2381.71 2075.97 2379.93 Q2078.81 2378.11 2078.81 2374.83 Q2078.81 2371.79 2076.74 2370.17 Q2074.72 2368.55 2067.79 2367.05 L2065.2 2366.44 Q2058.27 2364.98 2055.19 2361.99 Q2052.11 2358.95 2052.11 2353.68 Q2052.11 2347.28 2056.65 2343.8 Q2061.19 2340.31 2069.53 2340.31 Q2073.66 2340.31 2077.31 2340.92 Q2080.96 2341.53 2084.03 2342.74 Z" fill="#000000" fill-rule="nonzero" fill-opacity="1"></path><polyline clip-path="url(#clip040)" style="stroke:#000000; stroke-linecap:round; stroke-linejoin:round; stroke-width:4; stroke-opacity:1; fill:none" points="283.869,2189.94 283.869,47.2441 "></polyline>
<polyline clip-path="url(#clip040)" style="stroke:#000000; stroke-linecap:round; stroke-linejoin:round; stroke-width:4; stroke-opacity:1; fill:none" points="283.869,2189.94 302.767,2189.94 "></polyline>
<polyline clip-path="url(#clip040)" style="stroke:#000000; stroke-linecap:round; stroke-linejoin:round; stroke-width:4; stroke-opacity:1; fill:none" points="283.869,1483.39 302.767,1483.39 "></polyline>
<polyline clip-path="url(#clip040)" style="stroke:#000000; stroke-linecap:round; stroke-linejoin:round; stroke-width:4; stroke-opacity:1; fill:none" points="283.869,919.219 302.767,919.219 "></polyline>
<polyline clip-path="url(#clip040)" style="stroke:#000000; stroke-linecap:round; stroke-linejoin:round; stroke-width:4; stroke-opacity:1; fill:none" points="283.869,449.56 302.767,449.56 "></polyline>
<polyline clip-path="url(#clip040)" style="stroke:#000000; stroke-linecap:round; stroke-linejoin:round; stroke-width:4; stroke-opacity:1; fill:none" points="283.869,47.2441 302.767,47.2441 "></polyline>
<polyline clip-path="url(#clip040)" style="stroke:#000000; stroke-linecap:round; stroke-linejoin:round; stroke-width:4; stroke-opacity:1; fill:none" points="283.869,-304.642 302.767,-304.642 "></polyline>
<polyline clip-path="url(#clip040)" style="stroke:#000000; stroke-linecap:round; stroke-linejoin:round; stroke-width:4; stroke-opacity:1; fill:none" points="283.869,-617.343 302.767,-617.343 "></polyline>
<path clip-path="url(#clip040)" d="M156.3 2200.97 Q156.581 2201.25 156.581 2201.65 Q156.581 2202.05 156.3 2202.33 Q156.019 2202.61 155.621 2202.61 L125.593 2202.61 Q125.195 2202.61 124.914 2202.33 Q124.633 2202.05 124.633 2201.65 Q124.633 2201.25 124.914 2200.97 Q125.195 2200.69 125.593 2200.69 L155.621 2200.69 Q156.019 2200.69 156.3 2200.97 Z" fill="#000000" fill-rule="nonzero" fill-opacity="1"></path><path clip-path="url(#clip040)" d="M161.586 2213.64 Q161.586 2212.77 161.656 2212.52 Q161.75 2212.26 162.124 2211.86 L171.329 2201.6 Q176.365 2195.93 176.365 2190.99 Q176.365 2187.78 174.679 2185.49 Q173.016 2183.19 169.948 2183.19 Q167.84 2183.19 166.059 2184.48 Q164.279 2185.77 163.46 2188.06 Q163.6 2188.02 164.092 2188.02 Q165.286 2188.02 165.942 2188.77 Q166.622 2189.52 166.622 2190.52 Q166.622 2191.81 165.778 2192.44 Q164.959 2193.05 164.139 2193.05 Q163.811 2193.05 163.366 2192.98 Q162.944 2192.91 162.265 2192.26 Q161.586 2191.58 161.586 2190.38 Q161.586 2187.03 164.115 2184.36 Q166.668 2181.69 170.557 2181.69 Q174.96 2181.69 177.841 2184.32 Q180.745 2186.92 180.745 2190.99 Q180.745 2192.42 180.3 2193.73 Q179.879 2195.02 179.293 2196.03 Q178.731 2197.03 177.185 2198.65 Q175.639 2200.27 174.398 2201.41 Q173.156 2202.56 170.369 2205 L165.286 2209.94 L173.929 2209.94 Q178.145 2209.94 178.473 2209.57 Q178.942 2208.89 179.527 2205.3 L180.745 2205.3 L179.387 2213.64 L161.586 2213.64 Z" fill="#000000" fill-rule="nonzero" fill-opacity="1"></path><path clip-path="url(#clip040)" d="M185.667 2169.59 L185.667 2168.54 Q189.7 2168.54 191.782 2166.39 Q192.356 2166.39 192.455 2166.53 Q192.553 2166.66 192.553 2167.26 L192.553 2186.1 Q192.553 2187.1 193.045 2187.41 Q193.537 2187.73 195.684 2187.73 L196.75 2187.73 L196.75 2188.76 Q195.57 2188.66 191.307 2188.66 Q187.044 2188.66 185.88 2188.76 L185.88 2187.73 L186.946 2187.73 Q189.061 2187.73 189.569 2187.43 Q190.077 2187.12 190.077 2186.1 L190.077 2168.71 Q188.323 2169.59 185.667 2169.59 Z" fill="#000000" fill-rule="nonzero" fill-opacity="1"></path><path clip-path="url(#clip040)" d="M199.39 2188.22 Q198.882 2187.68 198.882 2186.97 Q198.882 2186.27 199.39 2185.76 Q199.898 2185.23 200.669 2185.23 Q201.407 2185.23 201.899 2185.72 Q202.407 2186.2 202.407 2186.99 Q202.407 2187.76 201.866 2188.27 Q201.341 2188.76 200.669 2188.76 Q199.898 2188.76 199.39 2188.22 Z" fill="#000000" fill-rule="nonzero" fill-opacity="1"></path><path clip-path="url(#clip040)" d="M208.121 2183.22 L208.121 2182.18 L218.434 2166.43 Q218.697 2166.02 219.106 2166.03 Q219.484 2166.03 219.566 2166.18 Q219.648 2166.33 219.648 2166.9 L219.648 2182.18 L223.009 2182.18 L223.009 2183.22 L219.648 2183.22 L219.648 2186.13 Q219.648 2187.1 220.041 2187.41 Q220.451 2187.73 222.189 2187.73 L222.894 2187.73 L222.894 2188.76 Q221.517 2188.66 218.336 2188.66 Q215.171 2188.66 213.794 2188.76 L213.794 2187.73 L214.499 2187.73 Q216.237 2187.73 216.647 2187.43 Q217.057 2187.12 217.057 2186.13 L217.057 2183.22 L208.121 2183.22 M209.072 2182.18 L217.254 2182.18 L217.254 2169.66 L209.072 2182.18 Z" fill="#000000" fill-rule="nonzero" fill-opacity="1"></path><path clip-path="url(#clip040)" d="M156.3 1494.66 Q156.581 1494.94 156.581 1495.34 Q156.581 1495.73 156.3 1496.02 Q156.019 1496.3 155.621 1496.3 L125.593 1496.3 Q125.195 1496.3 124.914 1496.02 Q124.633 1495.73 124.633 1495.34 Q124.633 1494.94 124.914 1494.66 Q125.195 1494.38 125.593 1494.38 L155.621 1494.38 Q156.019 1494.38 156.3 1494.66 Z" fill="#000000" fill-rule="nonzero" fill-opacity="1"></path><path clip-path="url(#clip040)" d="M161.586 1507.33 Q161.586 1506.46 161.656 1506.2 Q161.75 1505.95 162.124 1505.55 L171.329 1495.29 Q176.365 1489.62 176.365 1484.68 Q176.365 1481.47 174.679 1479.17 Q173.016 1476.88 169.948 1476.88 Q167.84 1476.88 166.059 1478.17 Q164.279 1479.46 163.46 1481.75 Q163.6 1481.7 164.092 1481.7 Q165.286 1481.7 165.942 1482.45 Q166.622 1483.2 166.622 1484.21 Q166.622 1485.5 165.778 1486.13 Q164.959 1486.74 164.139 1486.74 Q163.811 1486.74 163.366 1486.67 Q162.944 1486.6 162.265 1485.94 Q161.586 1485.26 161.586 1484.07 Q161.586 1480.72 164.115 1478.05 Q166.668 1475.38 170.557 1475.38 Q174.96 1475.38 177.841 1478 Q180.745 1480.6 180.745 1484.68 Q180.745 1486.11 180.3 1487.42 Q179.879 1488.71 179.293 1489.72 Q178.731 1490.72 177.185 1492.34 Q175.639 1493.95 174.398 1495.1 Q173.156 1496.25 170.369 1498.69 L165.286 1503.63 L173.929 1503.63 Q178.145 1503.63 178.473 1503.25 Q178.942 1502.57 179.527 1498.99 L180.745 1498.99 L179.387 1507.33 L161.586 1507.33 Z" fill="#000000" fill-rule="nonzero" fill-opacity="1"></path><path clip-path="url(#clip040)" d="M185.667 1462.43 L185.667 1461.38 Q189.7 1461.38 191.782 1459.23 Q192.356 1459.23 192.455 1459.36 Q192.553 1459.49 192.553 1460.1 L192.553 1478.94 Q192.553 1479.94 193.045 1480.25 Q193.537 1480.56 195.684 1480.56 L196.75 1480.56 L196.75 1481.59 Q195.57 1481.5 191.307 1481.5 Q187.044 1481.5 185.88 1481.59 L185.88 1480.56 L186.946 1480.56 Q189.061 1480.56 189.569 1480.27 Q190.077 1479.95 190.077 1478.94 L190.077 1461.54 Q188.323 1462.43 185.667 1462.43 Z" fill="#000000" fill-rule="nonzero" fill-opacity="1"></path><path clip-path="url(#clip040)" d="M199.39 1481.05 Q198.882 1480.51 198.882 1479.81 Q198.882 1479.1 199.39 1478.59 Q199.898 1478.07 200.669 1478.07 Q201.407 1478.07 201.899 1478.56 Q202.407 1479.04 202.407 1479.82 Q202.407 1480.59 201.866 1481.1 Q201.341 1481.59 200.669 1481.59 Q199.898 1481.59 199.39 1481.05 Z" fill="#000000" fill-rule="nonzero" fill-opacity="1"></path><path clip-path="url(#clip040)" d="M208.121 1476.53 Q208.121 1472.77 212.958 1470.35 Q210.876 1468.94 210.499 1468.53 Q209.023 1466.89 209.023 1464.84 Q209.023 1462.49 210.794 1460.87 Q212.581 1459.23 215.106 1459.23 Q217.516 1459.23 219.336 1460.62 Q221.156 1462.02 221.156 1464.23 Q221.156 1467.35 217.09 1469.45 Q219.779 1471.12 220.418 1471.82 Q222.058 1473.64 222.058 1475.95 Q222.058 1478.64 219.992 1480.5 Q217.926 1482.33 215.073 1482.33 Q212.286 1482.33 210.204 1480.71 Q208.121 1479.09 208.121 1476.53 M209.794 1476.53 Q209.794 1478.61 211.351 1480 Q212.925 1481.4 215.106 1481.4 Q217.221 1481.4 218.795 1480.18 Q220.385 1478.97 220.385 1477.17 Q220.385 1476.46 220.139 1475.86 Q219.91 1475.25 219.434 1474.77 Q218.975 1474.28 218.68 1474.07 Q218.401 1473.84 217.86 1473.46 L213.729 1470.86 Q209.794 1473.04 209.794 1476.53 M210.499 1463.53 Q210.499 1465.13 212.187 1466.25 L216.352 1468.94 Q219.68 1466.99 219.68 1464.23 Q219.68 1462.44 218.319 1461.26 Q216.959 1460.07 215.073 1460.07 Q213.22 1460.07 211.86 1461.05 Q210.499 1462.02 210.499 1463.53 Z" fill="#000000" fill-rule="nonzero" fill-opacity="1"></path><path clip-path="url(#clip040)" d="M152.887 930.119 Q153.168 930.4 153.168 930.799 Q153.168 931.197 152.887 931.478 Q152.606 931.759 152.208 931.759 L122.18 931.759 Q121.782 931.759 121.501 931.478 Q121.22 931.197 121.22 930.799 Q121.22 930.4 121.501 930.119 Q121.782 929.838 122.18 929.838 L152.208 929.838 Q152.606 929.838 152.887 930.119 Z" fill="#000000" fill-rule="nonzero" fill-opacity="1"></path><path clip-path="url(#clip040)" d="M158.173 942.791 Q158.173 941.924 158.244 941.667 Q158.337 941.409 158.712 941.011 L167.917 930.752 Q172.953 925.083 172.953 920.141 Q172.953 916.932 171.266 914.637 Q169.603 912.342 166.535 912.342 Q164.427 912.342 162.647 913.63 Q160.867 914.918 160.047 917.214 Q160.188 917.167 160.679 917.167 Q161.874 917.167 162.53 917.916 Q163.209 918.666 163.209 919.673 Q163.209 920.961 162.366 921.593 Q161.546 922.202 160.726 922.202 Q160.398 922.202 159.953 922.132 Q159.532 922.062 158.852 921.406 Q158.173 920.727 158.173 919.532 Q158.173 916.183 160.703 913.513 Q163.256 910.843 167.144 910.843 Q171.547 910.843 174.428 913.466 Q177.333 916.066 177.333 920.141 Q177.333 921.57 176.888 922.882 Q176.466 924.17 175.881 925.177 Q175.318 926.184 173.773 927.8 Q172.227 929.417 170.985 930.564 Q169.744 931.712 166.957 934.148 L161.874 939.09 L170.517 939.09 Q174.733 939.09 175.061 938.715 Q175.529 938.036 176.115 934.452 L177.333 934.452 L175.974 942.791 L158.173 942.791 Z" fill="#000000" fill-rule="nonzero" fill-opacity="1"></path><path clip-path="url(#clip040)" d="M182.254 917.795 Q182.254 917.188 182.303 917.008 Q182.369 916.827 182.631 916.549 L189.075 909.367 Q192.6 905.4 192.6 901.94 Q192.6 899.694 191.419 898.087 Q190.255 896.48 188.107 896.48 Q186.632 896.48 185.386 897.382 Q184.14 898.284 183.566 899.891 Q183.664 899.858 184.009 899.858 Q184.845 899.858 185.304 900.382 Q185.779 900.907 185.779 901.612 Q185.779 902.514 185.189 902.957 Q184.615 903.383 184.041 903.383 Q183.812 903.383 183.5 903.334 Q183.205 903.285 182.73 902.825 Q182.254 902.35 182.254 901.514 Q182.254 899.169 184.025 897.3 Q185.812 895.431 188.534 895.431 Q191.616 895.431 193.633 897.267 Q195.666 899.087 195.666 901.94 Q195.666 902.94 195.354 903.858 Q195.059 904.76 194.649 905.465 Q194.256 906.17 193.174 907.301 Q192.092 908.433 191.223 909.236 Q190.354 910.04 188.403 911.745 L184.845 915.204 L190.895 915.204 Q193.846 915.204 194.075 914.942 Q194.403 914.466 194.813 911.958 L195.666 911.958 L194.715 917.795 L182.254 917.795 Z" fill="#000000" fill-rule="nonzero" fill-opacity="1"></path><path clip-path="url(#clip040)" d="M199.39 917.254 Q198.882 916.713 198.882 916.008 Q198.882 915.303 199.39 914.794 Q199.898 914.27 200.669 914.27 Q201.407 914.27 201.899 914.762 Q202.407 915.237 202.407 916.024 Q202.407 916.795 201.866 917.303 Q201.341 917.795 200.669 917.795 Q199.898 917.795 199.39 917.254 Z" fill="#000000" fill-rule="nonzero" fill-opacity="1"></path><path clip-path="url(#clip040)" d="M208.121 917.795 Q208.121 917.188 208.171 917.008 Q208.236 916.827 208.498 916.549 L214.942 909.367 Q218.467 905.4 218.467 901.94 Q218.467 899.694 217.287 898.087 Q216.122 896.48 213.975 896.48 Q212.499 896.48 211.253 897.382 Q210.007 898.284 209.433 899.891 Q209.531 899.858 209.876 899.858 Q210.712 899.858 211.171 900.382 Q211.646 900.907 211.646 901.612 Q211.646 902.514 211.056 902.957 Q210.482 903.383 209.908 903.383 Q209.679 903.383 209.367 903.334 Q209.072 903.285 208.597 902.825 Q208.121 902.35 208.121 901.514 Q208.121 899.169 209.892 897.3 Q211.679 895.431 214.401 895.431 Q217.483 895.431 219.5 897.267 Q221.533 899.087 221.533 901.94 Q221.533 902.94 221.222 903.858 Q220.926 904.76 220.517 905.465 Q220.123 906.17 219.041 907.301 Q217.959 908.433 217.09 909.236 Q216.221 910.04 214.27 911.745 L210.712 915.204 L216.762 915.204 Q219.713 915.204 219.943 914.942 Q220.271 914.466 220.68 911.958 L221.533 911.958 L220.582 917.795 L208.121 917.795 Z" fill="#000000" fill-rule="nonzero" fill-opacity="1"></path><path clip-path="url(#clip040)" d="M152.887 460.83 Q153.168 461.111 153.168 461.509 Q153.168 461.907 152.887 462.188 Q152.606 462.469 152.208 462.469 L122.18 462.469 Q121.782 462.469 121.501 462.188 Q121.22 461.907 121.22 461.509 Q121.22 461.111 121.501 460.83 Q121.782 460.549 122.18 460.549 L152.208 460.549 Q152.606 460.549 152.887 460.83 Z" fill="#000000" fill-rule="nonzero" fill-opacity="1"></path><path clip-path="url(#clip040)" d="M158.173 473.501 Q158.173 472.635 158.244 472.377 Q158.337 472.12 158.712 471.721 L167.917 461.462 Q172.953 455.794 172.953 450.852 Q172.953 447.643 171.266 445.348 Q169.603 443.052 166.535 443.052 Q164.427 443.052 162.647 444.341 Q160.867 445.629 160.047 447.924 Q160.188 447.877 160.679 447.877 Q161.874 447.877 162.53 448.627 Q163.209 449.376 163.209 450.384 Q163.209 451.672 162.366 452.304 Q161.546 452.913 160.726 452.913 Q160.398 452.913 159.953 452.843 Q159.532 452.773 158.852 452.117 Q158.173 451.438 158.173 450.243 Q158.173 446.894 160.703 444.223 Q163.256 441.553 167.144 441.553 Q171.547 441.553 174.428 444.177 Q177.333 446.776 177.333 450.852 Q177.333 452.281 176.888 453.592 Q176.466 454.881 175.881 455.888 Q175.318 456.895 173.773 458.511 Q172.227 460.127 170.985 461.275 Q169.744 462.423 166.957 464.859 L161.874 469.801 L170.517 469.801 Q174.733 469.801 175.061 469.426 Q175.529 468.747 176.115 465.163 L177.333 465.163 L175.974 473.501 L158.173 473.501 Z" fill="#000000" fill-rule="nonzero" fill-opacity="1"></path><path clip-path="url(#clip040)" d="M182.254 447.767 Q182.254 447.16 182.303 446.98 Q182.369 446.8 182.631 446.521 L189.075 439.34 Q192.6 435.372 192.6 431.912 Q192.6 429.666 191.419 428.059 Q190.255 426.453 188.107 426.453 Q186.632 426.453 185.386 427.354 Q184.14 428.256 183.566 429.863 Q183.664 429.83 184.009 429.83 Q184.845 429.83 185.304 430.355 Q185.779 430.88 185.779 431.585 Q185.779 432.486 185.189 432.929 Q184.615 433.355 184.041 433.355 Q183.812 433.355 183.5 433.306 Q183.205 433.257 182.73 432.798 Q182.254 432.322 182.254 431.486 Q182.254 429.142 184.025 427.272 Q185.812 425.403 188.534 425.403 Q191.616 425.403 193.633 427.24 Q195.666 429.06 195.666 431.912 Q195.666 432.913 195.354 433.831 Q195.059 434.733 194.649 435.438 Q194.256 436.143 193.174 437.274 Q192.092 438.405 191.223 439.209 Q190.354 440.012 188.403 441.717 L184.845 445.177 L190.895 445.177 Q193.846 445.177 194.075 444.914 Q194.403 444.439 194.813 441.93 L195.666 441.93 L194.715 447.767 L182.254 447.767 Z" fill="#000000" fill-rule="nonzero" fill-opacity="1"></path><path clip-path="url(#clip040)" d="M199.39 447.226 Q198.882 446.685 198.882 445.98 Q198.882 445.275 199.39 444.767 Q199.898 444.242 200.669 444.242 Q201.407 444.242 201.899 444.734 Q202.407 445.209 202.407 445.996 Q202.407 446.767 201.866 447.275 Q201.341 447.767 200.669 447.767 Q199.898 447.767 199.39 447.226 Z" fill="#000000" fill-rule="nonzero" fill-opacity="1"></path><path clip-path="url(#clip040)" d="M208.121 437.159 Q208.121 431.88 210.81 428.65 Q213.499 425.403 216.959 425.403 Q218.975 425.403 220.09 426.436 Q221.222 427.453 221.222 429.027 Q221.222 429.896 220.713 430.273 Q220.205 430.65 219.68 430.65 Q219.074 430.65 218.598 430.24 Q218.123 429.83 218.123 429.092 Q218.123 427.584 219.975 427.584 Q219.106 426.24 217.024 426.24 Q216.385 426.24 215.729 426.436 Q215.073 426.617 214.221 427.24 Q213.368 427.863 212.712 428.846 Q212.056 429.83 211.597 431.683 Q211.138 433.536 211.138 435.946 L211.138 436.749 Q212.515 433.421 215.335 433.437 Q218.156 433.437 220.107 435.585 Q222.058 437.733 222.058 440.914 Q222.058 444.176 220.025 446.341 Q217.992 448.505 215.139 448.505 Q213.86 448.505 212.696 447.964 Q211.548 447.439 210.466 446.226 Q209.4 445.013 208.761 442.684 Q208.121 440.356 208.121 437.159 M211.204 440.176 Q211.204 443.471 211.81 445.045 Q211.909 445.308 212.122 445.668 Q212.351 446.029 212.729 446.505 Q213.122 446.964 213.761 447.275 Q214.401 447.57 215.139 447.57 Q217.385 447.57 218.467 445.39 Q219.041 444.176 219.041 440.881 Q219.041 437.52 218.434 436.29 Q217.401 434.208 215.303 434.208 Q213.893 434.208 212.909 435.175 Q211.942 436.143 211.564 437.438 Q211.204 438.733 211.204 440.176 Z" fill="#000000" fill-rule="nonzero" fill-opacity="1"></path><path clip-path="url(#clip040)" d="M152.887 58.514 Q153.168 58.795 153.168 59.1932 Q153.168 59.5914 152.887 59.8725 Q152.606 60.1535 152.208 60.1535 L122.18 60.1535 Q121.782 60.1535 121.501 59.8725 Q121.22 59.5914 121.22 59.1932 Q121.22 58.795 121.501 58.514 Q121.782 58.2329 122.18 58.2329 L152.208 58.2329 Q152.606 58.2329 152.887 58.514 Z" fill="#000000" fill-rule="nonzero" fill-opacity="1"></path><path clip-path="url(#clip040)" d="M158.173 71.1855 Q158.173 70.3189 158.244 70.0612 Q158.337 69.8036 158.712 69.4054 L167.917 59.1464 Q172.953 53.4781 172.953 48.536 Q172.953 45.3271 171.266 43.0317 Q169.603 40.7363 166.535 40.7363 Q164.427 40.7363 162.647 42.0246 Q160.867 43.3128 160.047 45.6082 Q160.188 45.5613 160.679 45.5613 Q161.874 45.5613 162.53 46.3109 Q163.209 47.0604 163.209 48.0675 Q163.209 49.3558 162.366 49.9882 Q161.546 50.5972 160.726 50.5972 Q160.398 50.5972 159.953 50.5269 Q159.532 50.4566 158.852 49.8008 Q158.173 49.1216 158.173 47.927 Q158.173 44.5776 160.703 41.9074 Q163.256 39.2373 167.144 39.2373 Q171.547 39.2373 174.428 41.8606 Q177.333 44.4605 177.333 48.536 Q177.333 49.9648 176.888 51.2764 Q176.466 52.5647 175.881 53.5718 Q175.318 54.579 173.773 56.1951 Q172.227 57.8113 170.985 58.959 Q169.744 60.1067 166.957 62.5426 L161.874 67.4848 L170.517 67.4848 Q174.733 67.4848 175.061 67.11 Q175.529 66.4307 176.115 62.8471 L177.333 62.8471 L175.974 71.1855 L158.173 71.1855 Z" fill="#000000" fill-rule="nonzero" fill-opacity="1"></path><path clip-path="url(#clip040)" d="M182.254 40.9259 Q182.254 39.9258 182.828 39.4503 Q183.402 38.9748 184.14 38.9748 Q184.91 38.9748 185.451 39.4831 Q186.009 39.975 186.009 40.8439 Q186.009 41.7785 185.353 42.3031 Q184.714 42.8278 183.795 42.6966 Q184.599 44.0411 186.074 44.6477 Q187.566 45.2544 188.944 45.2544 Q190.386 45.2544 191.551 44.0083 Q192.731 42.7622 192.731 39.7126 Q192.731 37.1221 191.715 35.6301 Q190.714 34.1381 188.73 34.1381 L187.255 34.1381 Q186.747 34.1381 186.599 34.0889 Q186.451 34.0397 186.451 33.761 Q186.451 33.4331 186.96 33.3675 Q187.468 33.3675 188.271 33.2691 Q190.222 33.2035 191.255 31.5148 Q192.19 29.9408 192.19 27.6946 Q192.19 25.6451 191.206 24.7925 Q190.239 23.9236 188.976 23.9236 Q187.796 23.9236 186.501 24.4154 Q185.205 24.9073 184.5 26.0058 Q186.583 26.0058 186.583 27.6946 Q186.583 28.4324 186.107 28.9242 Q185.648 29.3997 184.877 29.3997 Q184.14 29.3997 183.648 28.9406 Q183.156 28.4652 183.156 27.6618 Q183.156 25.7435 184.861 24.4154 Q186.583 23.0874 189.108 23.0874 Q191.6 23.0874 193.436 24.399 Q195.289 25.7107 195.289 27.7274 Q195.289 29.7112 193.977 31.3344 Q192.665 32.9576 190.583 33.6298 Q193.141 34.1381 194.666 35.876 Q196.191 37.5976 196.191 39.7126 Q196.191 42.3359 194.125 44.2706 Q192.059 46.1889 189.042 46.1889 Q186.255 46.1889 184.254 44.6805 Q182.254 43.1721 182.254 40.9259 Z" fill="#000000" fill-rule="nonzero" fill-opacity="1"></path><path clip-path="url(#clip040)" d="M199.39 44.9101 Q198.882 44.369 198.882 43.664 Q198.882 42.959 199.39 42.4507 Q199.898 41.926 200.669 41.926 Q201.407 41.926 201.899 42.4179 Q202.407 42.8934 202.407 43.6804 Q202.407 44.451 201.866 44.9593 Q201.341 45.4511 200.669 45.4511 Q199.898 45.4511 199.39 44.9101 Z" fill="#000000" fill-rule="nonzero" fill-opacity="1"></path><path clip-path="url(#clip040)" d="M208.121 34.7119 Q208.121 29.7768 209.367 27.0879 Q211.105 23.0874 215.204 23.0874 Q216.073 23.0874 216.975 23.3333 Q217.893 23.5629 219.041 24.4646 Q220.205 25.3664 220.91 26.842 Q222.254 29.6948 222.254 34.7119 Q222.254 39.6143 221.008 42.2868 Q219.188 46.1889 215.171 46.1889 Q213.663 46.1889 212.122 45.4183 Q210.597 44.6477 209.63 42.795 Q208.121 40.0241 208.121 34.7119 M210.909 34.302 Q210.909 39.3683 211.269 41.385 Q211.679 43.5656 212.794 44.5166 Q213.925 45.4511 215.171 45.4511 Q216.516 45.4511 217.631 44.451 Q218.762 43.4345 219.106 41.2538 Q219.484 39.106 219.467 34.302 Q219.467 29.6293 219.139 27.7602 Q218.697 25.5795 217.516 24.7106 Q216.352 23.8252 215.171 23.8252 Q214.729 23.8252 214.253 23.9563 Q213.794 24.0875 213.122 24.4646 Q212.45 24.8417 211.925 25.7763 Q211.417 26.7108 211.171 28.1209 Q210.909 29.9408 210.909 34.302 Z" fill="#000000" fill-rule="nonzero" fill-opacity="1"></path><path clip-path="url(#clip040)" d="M152.887 -293.24 Q153.168 -292.959 153.168 -292.56 Q153.168 -292.162 152.887 -291.881 Q152.606 -291.6 152.208 -291.6 L122.18 -291.6 Q121.782 -291.6 121.501 -291.881 Q121.22 -292.162 121.22 -292.56 Q121.22 -292.959 121.501 -293.24 Q121.782 -293.521 122.18 -293.521 L152.208 -293.521 Q152.606 -293.521 152.887 -293.24 Z" fill="#000000" fill-rule="nonzero" fill-opacity="1"></path><path clip-path="url(#clip040)" d="M158.173 -280.568 Q158.173 -281.435 158.244 -281.692 Q158.337 -281.95 158.712 -282.348 L167.917 -292.607 Q172.953 -298.275 172.953 -303.218 Q172.953 -306.426 171.266 -308.722 Q169.603 -311.017 166.535 -311.017 Q164.427 -311.017 162.647 -309.729 Q160.867 -308.441 160.047 -306.145 Q160.188 -306.192 160.679 -306.192 Q161.874 -306.192 162.53 -305.443 Q163.209 -304.693 163.209 -303.686 Q163.209 -302.398 162.366 -301.765 Q161.546 -301.156 160.726 -301.156 Q160.398 -301.156 159.953 -301.227 Q159.532 -301.297 158.852 -301.953 Q158.173 -302.632 158.173 -303.827 Q158.173 -307.176 160.703 -309.846 Q163.256 -312.516 167.144 -312.516 Q171.547 -312.516 174.428 -309.893 Q177.333 -307.293 177.333 -303.218 Q177.333 -301.789 176.888 -300.477 Q176.466 -299.189 175.881 -298.182 Q175.318 -297.175 173.773 -295.558 Q172.227 -293.942 170.985 -292.795 Q169.744 -291.647 166.957 -289.211 L161.874 -284.269 L170.517 -284.269 Q174.733 -284.269 175.061 -284.644 Q175.529 -285.323 176.115 -288.906 L177.333 -288.906 L175.974 -280.568 L158.173 -280.568 Z" fill="#000000" fill-rule="nonzero" fill-opacity="1"></path><path clip-path="url(#clip040)" d="M182.254 -310.714 Q182.254 -311.715 182.828 -312.19 Q183.402 -312.666 184.14 -312.666 Q184.91 -312.666 185.451 -312.157 Q186.009 -311.665 186.009 -310.796 Q186.009 -309.862 185.353 -309.337 Q184.714 -308.813 183.795 -308.944 Q184.599 -307.599 186.074 -306.993 Q187.566 -306.386 188.944 -306.386 Q190.386 -306.386 191.551 -307.632 Q192.731 -308.878 192.731 -311.928 Q192.731 -314.518 191.715 -316.01 Q190.714 -317.502 188.73 -317.502 L187.255 -317.502 Q186.747 -317.502 186.599 -317.551 Q186.451 -317.601 186.451 -317.879 Q186.451 -318.207 186.96 -318.273 Q187.468 -318.273 188.271 -318.371 Q190.222 -318.437 191.255 -320.126 Q192.19 -321.7 192.19 -323.946 Q192.19 -325.995 191.206 -326.848 Q190.239 -327.717 188.976 -327.717 Q187.796 -327.717 186.501 -327.225 Q185.205 -326.733 184.5 -325.635 Q186.583 -325.635 186.583 -323.946 Q186.583 -323.208 186.107 -322.716 Q185.648 -322.241 184.877 -322.241 Q184.14 -322.241 183.648 -322.7 Q183.156 -323.175 183.156 -323.979 Q183.156 -325.897 184.861 -327.225 Q186.583 -328.553 189.108 -328.553 Q191.6 -328.553 193.436 -327.241 Q195.289 -325.93 195.289 -323.913 Q195.289 -321.929 193.977 -320.306 Q192.665 -318.683 190.583 -318.011 Q193.141 -317.502 194.666 -315.764 Q196.191 -314.043 196.191 -311.928 Q196.191 -309.304 194.125 -307.37 Q192.059 -305.451 189.042 -305.451 Q186.255 -305.451 184.254 -306.96 Q182.254 -308.468 182.254 -310.714 Z" fill="#000000" fill-rule="nonzero" fill-opacity="1"></path><path clip-path="url(#clip040)" d="M199.39 -306.73 Q198.882 -307.271 198.882 -307.976 Q198.882 -308.681 199.39 -309.19 Q199.898 -309.714 200.669 -309.714 Q201.407 -309.714 201.899 -309.222 Q202.407 -308.747 202.407 -307.96 Q202.407 -307.189 201.866 -306.681 Q201.341 -306.189 200.669 -306.189 Q199.898 -306.189 199.39 -306.73 Z" fill="#000000" fill-rule="nonzero" fill-opacity="1"></path><path clip-path="url(#clip040)" d="M208.121 -311.731 L208.121 -312.764 L218.434 -328.52 Q218.697 -328.93 219.106 -328.914 Q219.484 -328.914 219.566 -328.766 Q219.648 -328.619 219.648 -328.045 L219.648 -312.764 L223.009 -312.764 L223.009 -311.731 L219.648 -311.731 L219.648 -308.813 Q219.648 -307.845 220.041 -307.534 Q220.451 -307.222 222.189 -307.222 L222.894 -307.222 L222.894 -306.189 Q221.517 -306.288 218.336 -306.288 Q215.171 -306.288 213.794 -306.189 L213.794 -307.222 L214.499 -307.222 Q216.237 -307.222 216.647 -307.517 Q217.057 -307.829 217.057 -308.813 L217.057 -311.731 L208.121 -311.731 M209.072 -312.764 L217.254 -312.764 L217.254 -325.29 L209.072 -312.764 Z" fill="#000000" fill-rule="nonzero" fill-opacity="1"></path><path clip-path="url(#clip040)" d="M152.887 -606.073 Q153.168 -605.792 153.168 -605.394 Q153.168 -604.996 152.887 -604.715 Q152.606 -604.434 152.208 -604.434 L122.18 -604.434 Q121.782 -604.434 121.501 -604.715 Q121.22 -604.996 121.22 -605.394 Q121.22 -605.792 121.501 -606.073 Q121.782 -606.354 122.18 -606.354 L152.208 -606.354 Q152.606 -606.354 152.887 -606.073 Z" fill="#000000" fill-rule="nonzero" fill-opacity="1"></path><path clip-path="url(#clip040)" d="M158.173 -593.402 Q158.173 -594.268 158.244 -594.526 Q158.337 -594.784 158.712 -595.182 L167.917 -605.441 Q172.953 -611.109 172.953 -616.051 Q172.953 -619.26 171.266 -621.555 Q169.603 -623.851 166.535 -623.851 Q164.427 -623.851 162.647 -622.563 Q160.867 -621.274 160.047 -618.979 Q160.188 -619.026 160.679 -619.026 Q161.874 -619.026 162.53 -618.276 Q163.209 -617.527 163.209 -616.52 Q163.209 -615.231 162.366 -614.599 Q161.546 -613.99 160.726 -613.99 Q160.398 -613.99 159.953 -614.06 Q159.532 -614.13 158.852 -614.786 Q158.173 -615.466 158.173 -616.66 Q158.173 -620.01 160.703 -622.68 Q163.256 -625.35 167.144 -625.35 Q171.547 -625.35 174.428 -622.727 Q177.333 -620.127 177.333 -616.051 Q177.333 -614.622 176.888 -613.311 Q176.466 -612.022 175.881 -611.015 Q175.318 -610.008 173.773 -608.392 Q172.227 -606.776 170.985 -605.628 Q169.744 -604.48 166.957 -602.045 L161.874 -597.102 L170.517 -597.102 Q174.733 -597.102 175.061 -597.477 Q175.529 -598.156 176.115 -601.74 L177.333 -601.74 L175.974 -593.402 L158.173 -593.402 Z" fill="#000000" fill-rule="nonzero" fill-opacity="1"></path><path clip-path="url(#clip040)" d="M182.254 -623.661 Q182.254 -624.661 182.828 -625.137 Q183.402 -625.612 184.14 -625.612 Q184.91 -625.612 185.451 -625.104 Q186.009 -624.612 186.009 -623.743 Q186.009 -622.809 185.353 -622.284 Q184.714 -621.759 183.795 -621.89 Q184.599 -620.546 186.074 -619.939 Q187.566 -619.333 188.944 -619.333 Q190.386 -619.333 191.551 -620.579 Q192.731 -621.825 192.731 -624.875 Q192.731 -627.465 191.715 -628.957 Q190.714 -630.449 188.73 -630.449 L187.255 -630.449 Q186.747 -630.449 186.599 -630.498 Q186.451 -630.547 186.451 -630.826 Q186.451 -631.154 186.96 -631.22 Q187.468 -631.22 188.271 -631.318 Q190.222 -631.384 191.255 -633.072 Q192.19 -634.646 192.19 -636.893 Q192.19 -638.942 191.206 -639.795 Q190.239 -640.664 188.976 -640.664 Q187.796 -640.664 186.501 -640.172 Q185.205 -639.68 184.5 -638.581 Q186.583 -638.581 186.583 -636.893 Q186.583 -636.155 186.107 -635.663 Q185.648 -635.187 184.877 -635.187 Q184.14 -635.187 183.648 -635.646 Q183.156 -636.122 183.156 -636.925 Q183.156 -638.844 184.861 -640.172 Q186.583 -641.5 189.108 -641.5 Q191.6 -641.5 193.436 -640.188 Q195.289 -638.876 195.289 -636.86 Q195.289 -634.876 193.977 -633.253 Q192.665 -631.63 190.583 -630.957 Q193.141 -630.449 194.666 -628.711 Q196.191 -626.99 196.191 -624.875 Q196.191 -622.251 194.125 -620.316 Q192.059 -618.398 189.042 -618.398 Q186.255 -618.398 184.254 -619.907 Q182.254 -621.415 182.254 -623.661 Z" fill="#000000" fill-rule="nonzero" fill-opacity="1"></path><path clip-path="url(#clip040)" d="M199.39 -619.677 Q198.882 -620.218 198.882 -620.923 Q198.882 -621.628 199.39 -622.136 Q199.898 -622.661 200.669 -622.661 Q201.407 -622.661 201.899 -622.169 Q202.407 -621.694 202.407 -620.907 Q202.407 -620.136 201.866 -619.628 Q201.341 -619.136 200.669 -619.136 Q199.898 -619.136 199.39 -619.677 Z" fill="#000000" fill-rule="nonzero" fill-opacity="1"></path><path clip-path="url(#clip040)" d="M208.121 -624.202 Q208.121 -627.957 212.958 -630.383 Q210.876 -631.793 210.499 -632.203 Q209.023 -633.843 209.023 -635.892 Q209.023 -638.237 210.794 -639.86 Q212.581 -641.5 215.106 -641.5 Q217.516 -641.5 219.336 -640.106 Q221.156 -638.712 221.156 -636.499 Q221.156 -633.384 217.09 -631.285 Q219.779 -629.613 220.418 -628.908 Q222.058 -627.088 222.058 -624.776 Q222.058 -622.087 219.992 -620.235 Q217.926 -618.398 215.073 -618.398 Q212.286 -618.398 210.204 -620.021 Q208.121 -621.645 208.121 -624.202 M209.794 -624.202 Q209.794 -622.12 211.351 -620.726 Q212.925 -619.333 215.106 -619.333 Q217.221 -619.333 218.795 -620.546 Q220.385 -621.759 220.385 -623.563 Q220.385 -624.268 220.139 -624.875 Q219.91 -625.481 219.434 -625.957 Q218.975 -626.448 218.68 -626.662 Q218.401 -626.891 217.86 -627.268 L213.729 -629.875 Q209.794 -627.695 209.794 -624.202 M210.499 -637.204 Q210.499 -635.597 212.187 -634.482 L216.352 -631.793 Q219.68 -633.745 219.68 -636.499 Q219.68 -638.286 218.319 -639.467 Q216.959 -640.664 215.073 -640.664 Q213.22 -640.664 211.86 -639.68 Q210.499 -638.712 210.499 -637.204 Z" fill="#000000" fill-rule="nonzero" fill-opacity="1"></path><path clip-path="url(#clip040)" d="M-11.4038 1459.7 L-11.4038 1421.46 L-4.51731 1421.46 L-4.51731 1451.51 L13.3877 1451.51 L13.3877 1422.71 L20.2742 1422.71 L20.2742 1451.51 L42.1896 1451.51 L42.1896 1420.73 L49.0762 1420.73 L49.0762 1459.7 L-11.4038 1459.7 Z" fill="#000000" fill-rule="nonzero" fill-opacity="1"></path><path clip-path="url(#clip040)" d="M5.04283 1378.68 L12.0914 1378.68 Q10.471 1381.84 9.66086 1385.24 Q8.85068 1388.64 8.85068 1392.29 Q8.85068 1397.84 10.5521 1400.63 Q12.2534 1403.39 15.6562 1403.39 Q18.2488 1403.39 19.7476 1401.4 Q21.2059 1399.42 22.5427 1393.42 L23.1099 1390.87 Q24.8112 1382.93 27.9304 1379.61 Q31.0091 1376.25 36.5589 1376.25 Q42.8783 1376.25 46.5646 1381.27 Q50.2509 1386.25 50.2509 1395 Q50.2509 1398.65 49.5218 1402.62 Q48.8331 1406.55 47.4153 1410.92 L39.7186 1410.92 Q41.8655 1406.79 42.9593 1402.78 Q44.0125 1398.77 44.0125 1394.84 Q44.0125 1389.58 42.2301 1386.74 Q40.4072 1383.9 37.126 1383.9 Q34.0878 1383.9 32.4675 1385.97 Q30.8471 1388 29.3483 1394.92 L28.7406 1397.52 Q27.2823 1404.44 24.2846 1407.52 Q21.2464 1410.6 15.9803 1410.6 Q9.57984 1410.6 6.09606 1406.06 Q2.61229 1401.53 2.61229 1393.18 Q2.61229 1389.05 3.21992 1385.4 Q3.82756 1381.76 5.04283 1378.68 Z" fill="#000000" fill-rule="nonzero" fill-opacity="1"></path><path clip-path="url(#clip040)" d="M-9.17585 1357.01 L3.70603 1357.01 L3.70603 1341.65 L9.49882 1341.65 L9.49882 1357.01 L34.1283 1357.01 Q39.6781 1357.01 41.2579 1355.51 Q42.8378 1353.97 42.8378 1349.31 L42.8378 1341.65 L49.0762 1341.65 L49.0762 1349.31 Q49.0762 1357.94 45.8759 1361.22 Q42.6352 1364.5 34.1283 1364.5 L9.49882 1364.5 L9.49882 1369.97 L3.70603 1369.97 L3.70603 1364.5 L-9.17585 1364.5 L-9.17585 1357.01 Z" fill="#000000" fill-rule="nonzero" fill-opacity="1"></path><path clip-path="url(#clip040)" d="M3.70603 1331.85 L3.70603 1324.4 L49.0762 1324.4 L49.0762 1331.85 L3.70603 1331.85 M-13.9559 1331.85 L-13.9559 1324.4 L-4.51731 1324.4 L-4.51731 1331.85 L-13.9559 1331.85 Z" fill="#000000" fill-rule="nonzero" fill-opacity="1"></path><path clip-path="url(#clip040)" d="M12.4155 1273.48 Q7.39235 1270.68 5.00232 1266.79 Q2.61229 1262.9 2.61229 1257.64 Q2.61229 1250.55 7.5949 1246.7 Q12.537 1242.85 21.692 1242.85 L49.0762 1242.85 L49.0762 1250.35 L21.9351 1250.35 Q15.4131 1250.35 12.2534 1252.66 Q9.09373 1254.96 9.09373 1259.7 Q9.09373 1265.5 12.9421 1268.86 Q16.7905 1272.22 23.4339 1272.22 L49.0762 1272.22 L49.0762 1279.72 L21.9351 1279.72 Q15.3726 1279.72 12.2534 1282.02 Q9.09373 1284.33 9.09373 1289.15 Q9.09373 1294.87 12.9826 1298.23 Q16.831 1301.59 23.4339 1301.59 L49.0762 1301.59 L49.0762 1309.08 L3.70603 1309.08 L3.70603 1301.59 L10.7546 1301.59 Q6.58217 1299.04 4.59723 1295.47 Q2.61229 1291.91 2.61229 1287.01 Q2.61229 1282.06 5.12385 1278.62 Q7.63541 1275.14 12.4155 1273.48 Z" fill="#000000" fill-rule="nonzero" fill-opacity="1"></path><path clip-path="url(#clip040)" d="M26.2696 1207.37 Q26.2696 1216.4 28.3355 1219.88 Q30.4015 1223.37 35.3841 1223.37 Q39.354 1223.37 41.7035 1220.77 Q44.0125 1218.14 44.0125 1213.64 Q44.0125 1207.45 39.6376 1203.72 Q35.2221 1199.95 27.9304 1199.95 L26.2696 1199.95 L26.2696 1207.37 M23.1909 1192.5 L49.0762 1192.5 L49.0762 1199.95 L42.1896 1199.95 Q46.3215 1202.5 48.3065 1206.31 Q50.2509 1210.12 50.2509 1215.63 Q50.2509 1222.6 46.3621 1226.73 Q42.4327 1230.82 35.8702 1230.82 Q28.214 1230.82 24.3251 1225.72 Q20.4363 1220.57 20.4363 1210.4 L20.4363 1199.95 L19.7071 1199.95 Q14.5625 1199.95 11.7673 1203.36 Q8.9317 1206.72 8.9317 1212.83 Q8.9317 1216.72 9.8634 1220.41 Q10.7951 1224.1 12.6585 1227.5 L5.77199 1227.5 Q4.19214 1223.41 3.42247 1219.56 Q2.61229 1215.71 2.61229 1212.06 Q2.61229 1202.22 7.71643 1197.36 Q12.8206 1192.5 23.1909 1192.5 Z" fill="#000000" fill-rule="nonzero" fill-opacity="1"></path><path clip-path="url(#clip040)" d="M-9.17585 1169.77 L3.70603 1169.77 L3.70603 1154.42 L9.49882 1154.42 L9.49882 1169.77 L34.1283 1169.77 Q39.6781 1169.77 41.2579 1168.27 Q42.8378 1166.74 42.8378 1162.08 L42.8378 1154.42 L49.0762 1154.42 L49.0762 1162.08 Q49.0762 1170.71 45.8759 1173.99 Q42.6352 1177.27 34.1283 1177.27 L9.49882 1177.27 L9.49882 1182.74 L3.70603 1182.74 L3.70603 1177.27 L-9.17585 1177.27 L-9.17585 1169.77 Z" fill="#000000" fill-rule="nonzero" fill-opacity="1"></path><path clip-path="url(#clip040)" d="M3.70603 1144.62 L3.70603 1137.16 L49.0762 1137.16 L49.0762 1144.62 L3.70603 1144.62 M-13.9559 1144.62 L-13.9559 1137.16 L-4.51731 1137.16 L-4.51731 1144.62 L-13.9559 1144.62 Z" fill="#000000" fill-rule="nonzero" fill-opacity="1"></path><path clip-path="url(#clip040)" d="M8.9317 1103.99 Q8.9317 1109.98 13.6307 1113.47 Q18.2893 1116.95 26.4316 1116.95 Q34.5739 1116.95 39.273 1113.51 Q43.9315 1110.02 43.9315 1103.99 Q43.9315 1098.03 39.2325 1094.55 Q34.5334 1091.06 26.4316 1091.06 Q18.3703 1091.06 13.6713 1094.55 Q8.9317 1098.03 8.9317 1103.99 M2.61229 1103.99 Q2.61229 1094.26 8.9317 1088.71 Q15.2511 1083.17 26.4316 1083.17 Q37.5716 1083.17 43.9315 1088.71 Q50.2509 1094.26 50.2509 1103.99 Q50.2509 1113.75 43.9315 1119.3 Q37.5716 1124.81 26.4316 1124.81 Q15.2511 1124.81 8.9317 1119.3 Q2.61229 1113.75 2.61229 1103.99 Z" fill="#000000" fill-rule="nonzero" fill-opacity="1"></path><path clip-path="url(#clip040)" d="M21.692 1033.1 L49.0762 1033.1 L49.0762 1040.55 L21.9351 1040.55 Q15.4942 1040.55 12.2939 1043.06 Q9.09373 1045.57 9.09373 1050.6 Q9.09373 1056.63 12.9421 1060.12 Q16.7905 1063.6 23.4339 1063.6 L49.0762 1063.6 L49.0762 1071.09 L3.70603 1071.09 L3.70603 1063.6 L10.7546 1063.6 Q6.66319 1060.93 4.63774 1057.32 Q2.61229 1053.67 2.61229 1048.94 Q2.61229 1041.12 7.47337 1037.11 Q12.2939 1033.1 21.692 1033.1 Z" fill="#000000" fill-rule="nonzero" fill-opacity="1"></path><path clip-path="url(#clip040)" d="M3.70603 997.205 L3.70603 989.306 L41.7845 975.128 L3.70603 960.949 L3.70603 953.05 L49.0762 970.064 L49.0762 980.191 L3.70603 997.205 Z" fill="#000000" fill-rule="nonzero" fill-opacity="1"></path><path clip-path="url(#clip040)" d="M26.2696 922.142 Q26.2696 931.175 28.3355 934.659 Q30.4015 938.143 35.3841 938.143 Q39.354 938.143 41.7035 935.55 Q44.0125 932.917 44.0125 928.421 Q44.0125 922.223 39.6376 918.496 Q35.2221 914.729 27.9304 914.729 L26.2696 914.729 L26.2696 922.142 M23.1909 907.275 L49.0762 907.275 L49.0762 914.729 L42.1896 914.729 Q46.3215 917.281 48.3065 921.089 Q50.2509 924.896 50.2509 930.406 Q50.2509 937.373 46.3621 941.505 Q42.4327 945.597 35.8702 945.597 Q28.214 945.597 24.3251 940.492 Q20.4363 935.348 20.4363 925.18 L20.4363 914.729 L19.7071 914.729 Q14.5625 914.729 11.7673 918.131 Q8.9317 921.494 8.9317 927.61 Q8.9317 931.499 9.8634 935.186 Q10.7951 938.872 12.6585 942.275 L5.77199 942.275 Q4.19214 938.183 3.42247 934.335 Q2.61229 930.487 2.61229 926.841 Q2.61229 916.997 7.71643 912.136 Q12.8206 907.275 23.1909 907.275 Z" fill="#000000" fill-rule="nonzero" fill-opacity="1"></path><path clip-path="url(#clip040)" d="M-13.9559 891.922 L-13.9559 884.468 L49.0762 884.468 L49.0762 891.922 L-13.9559 891.922 Z" fill="#000000" fill-rule="nonzero" fill-opacity="1"></path><path clip-path="url(#clip040)" d="M31.1712 869.642 L3.70603 869.642 L3.70603 862.188 L30.8876 862.188 Q37.3285 862.188 40.5693 859.677 Q43.7695 857.165 43.7695 852.142 Q43.7695 846.106 39.9211 842.623 Q36.0728 839.098 29.4293 839.098 L3.70603 839.098 L3.70603 831.645 L49.0762 831.645 L49.0762 839.098 L42.1086 839.098 Q46.2405 841.812 48.266 845.418 Q50.2509 848.982 50.2509 853.722 Q50.2509 861.54 45.3898 865.591 Q40.5287 869.642 31.1712 869.642 M2.61229 850.886 L2.61229 850.886 Z" fill="#000000" fill-rule="nonzero" fill-opacity="1"></path><path clip-path="url(#clip040)" d="M24.5277 777.484 L28.1735 777.484 L28.1735 811.755 Q35.8702 811.269 39.9211 807.137 Q43.9315 802.964 43.9315 795.551 Q43.9315 791.257 42.8783 787.247 Q41.825 783.196 39.7186 779.226 L46.7671 779.226 Q48.4685 783.236 49.3597 787.449 Q50.2509 791.662 50.2509 795.997 Q50.2509 806.853 43.9315 813.213 Q37.6121 819.532 26.8367 819.532 Q15.6967 819.532 9.17475 813.537 Q2.61229 807.501 2.61229 797.293 Q2.61229 788.138 8.52661 782.831 Q14.4004 777.484 24.5277 777.484 M22.3402 784.938 Q16.2233 785.019 12.5775 788.381 Q8.9317 791.703 8.9317 797.212 Q8.9317 803.45 12.456 807.218 Q15.9803 810.944 22.3807 811.512 L22.3402 784.938 Z" fill="#000000" fill-rule="nonzero" fill-opacity="1"></path><polyline clip-path="url(#clip042)" style="stroke:#4485c7; stroke-linecap:round; stroke-linejoin:round; stroke-width:12; stroke-opacity:1; fill:none" points="376.385,1981.56 981.101,1096.96 1585.82,719.066 2008.33,831.238 2372.16,831.238 2673.87,1053.74 2976.53,702.059 3218.29,814.443 3460.24,713.038 "></polyline>
<circle clip-path="url(#clip042)" cx="376.385" cy="1981.56" r="23.4" fill="#4485c7" fill-rule="evenodd" fill-opacity="1" stroke="#000000" stroke-opacity="1" stroke-width="4.8"></circle>
<circle clip-path="url(#clip042)" cx="981.101" cy="1096.96" r="23.4" fill="#4485c7" fill-rule="evenodd" fill-opacity="1" stroke="#000000" stroke-opacity="1" stroke-width="4.8"></circle>
<circle clip-path="url(#clip042)" cx="1585.82" cy="719.066" r="23.4" fill="#4485c7" fill-rule="evenodd" fill-opacity="1" stroke="#000000" stroke-opacity="1" stroke-width="4.8"></circle>
<circle clip-path="url(#clip042)" cx="2008.33" cy="831.238" r="23.4" fill="#4485c7" fill-rule="evenodd" fill-opacity="1" stroke="#000000" stroke-opacity="1" stroke-width="4.8"></circle>
<circle clip-path="url(#clip042)" cx="2372.16" cy="831.238" r="23.4" fill="#4485c7" fill-rule="evenodd" fill-opacity="1" stroke="#000000" stroke-opacity="1" stroke-width="4.8"></circle>
<circle clip-path="url(#clip042)" cx="2673.87" cy="1053.74" r="23.4" fill="#4485c7" fill-rule="evenodd" fill-opacity="1" stroke="#000000" stroke-opacity="1" stroke-width="4.8"></circle>
<circle clip-path="url(#clip042)" cx="2976.53" cy="702.059" r="23.4" fill="#4485c7" fill-rule="evenodd" fill-opacity="1" stroke="#000000" stroke-opacity="1" stroke-width="4.8"></circle>
<circle clip-path="url(#clip042)" cx="3218.29" cy="814.443" r="23.4" fill="#4485c7" fill-rule="evenodd" fill-opacity="1" stroke="#000000" stroke-opacity="1" stroke-width="4.8"></circle>
<circle clip-path="url(#clip042)" cx="3460.24" cy="713.038" r="23.4" fill="#4485c7" fill-rule="evenodd" fill-opacity="1" stroke="#000000" stroke-opacity="1" stroke-width="4.8"></circle>
<polyline clip-path="url(#clip042)" style="stroke:#d4562e; stroke-linecap:round; stroke-linejoin:round; stroke-width:12; stroke-opacity:1; fill:none" stroke-dasharray="48, 24, 6, 24" points="376.385,631.71 981.101,533.678 1585.82,780.714 2008.33,699.953 2372.16,754.258 2673.87,740.628 2976.53,651.082 3218.29,769.871 3460.24,730.054 "></polyline>
<path clip-path="url(#clip042)" d="M376.385 605.71 L350.385 631.71 L376.385 657.71 L402.385 631.71 L376.385 605.71 Z" fill="#d4562e" fill-rule="evenodd" fill-opacity="1" stroke="#000000" stroke-opacity="1" stroke-width="4.8"></path>
<path clip-path="url(#clip042)" d="M981.101 507.678 L955.101 533.678 L981.101 559.678 L1007.1 533.678 L981.101 507.678 Z" fill="#d4562e" fill-rule="evenodd" fill-opacity="1" stroke="#000000" stroke-opacity="1" stroke-width="4.8"></path>
<path clip-path="url(#clip042)" d="M1585.82 754.714 L1559.82 780.714 L1585.82 806.714 L1611.82 780.714 L1585.82 754.714 Z" fill="#d4562e" fill-rule="evenodd" fill-opacity="1" stroke="#000000" stroke-opacity="1" stroke-width="4.8"></path>
<path clip-path="url(#clip042)" d="M2008.33 673.953 L1982.33 699.953 L2008.33 725.953 L2034.33 699.953 L2008.33 673.953 Z" fill="#d4562e" fill-rule="evenodd" fill-opacity="1" stroke="#000000" stroke-opacity="1" stroke-width="4.8"></path>
<path clip-path="url(#clip042)" d="M2372.16 728.258 L2346.16 754.258 L2372.16 780.258 L2398.16 754.258 L2372.16 728.258 Z" fill="#d4562e" fill-rule="evenodd" fill-opacity="1" stroke="#000000" stroke-opacity="1" stroke-width="4.8"></path>
<path clip-path="url(#clip042)" d="M2673.87 714.628 L2647.87 740.628 L2673.87 766.628 L2699.87 740.628 L2673.87 714.628 Z" fill="#d4562e" fill-rule="evenodd" fill-opacity="1" stroke="#000000" stroke-opacity="1" stroke-width="4.8"></path>
<path clip-path="url(#clip042)" d="M2976.53 625.082 L2950.53 651.082 L2976.53 677.082 L3002.53 651.082 L2976.53 625.082 Z" fill="#d4562e" fill-rule="evenodd" fill-opacity="1" stroke="#000000" stroke-opacity="1" stroke-width="4.8"></path>
<path clip-path="url(#clip042)" d="M3218.29 743.871 L3192.29 769.871 L3218.29 795.871 L3244.29 769.871 L3218.29 743.871 Z" fill="#d4562e" fill-rule="evenodd" fill-opacity="1" stroke="#000000" stroke-opacity="1" stroke-width="4.8"></path>
<path clip-path="url(#clip042)" d="M3460.24 704.054 L3434.24 730.054 L3460.24 756.054 L3486.24 730.054 L3460.24 704.054 Z" fill="#d4562e" fill-rule="evenodd" fill-opacity="1" stroke="#000000" stroke-opacity="1" stroke-width="4.8"></path>
<polyline clip-path="url(#clip042)" style="stroke:#3da44d; stroke-linecap:round; stroke-linejoin:round; stroke-width:6; stroke-opacity:0.5; fill:none" stroke-dasharray="3, 6" points="376.385,1018.48 981.101,1017.52 1585.82,435.267 2008.33,748.24 2372.16,785.994 2673.87,673.197 2976.53,513.398 3218.29,782.076 3460.24,854.718 "></polyline>
<polyline clip-path="url(#clip042)" style="stroke:#c271d2; stroke-linecap:round; stroke-linejoin:round; stroke-width:6; stroke-opacity:0.5; fill:none" stroke-dasharray="3, 6" points="376.385,993.744 981.101,651.338 1585.82,516.162 2008.33,740.02 2372.16,472.016 2673.87,762.041 2976.53,822.964 3218.29,595.64 3460.24,691.617 "></polyline>
<polyline clip-path="url(#clip042)" style="stroke:#ac8d18; stroke-linecap:round; stroke-linejoin:round; stroke-width:6; stroke-opacity:0.5; fill:none" stroke-dasharray="3, 6" points="376.385,-1507.67 981.101,934.342 1585.82,903.888 2008.33,738.476 2372.16,553.027 2673.87,670.276 2976.53,592.05 3218.29,857.125 3460.24,770.38 "></polyline>
<polyline clip-path="url(#clip042)" style="stroke:#00a9ad; stroke-linecap:round; stroke-linejoin:round; stroke-width:6; stroke-opacity:0.5; fill:none" stroke-dasharray="3, 6" points="376.385,918.427 981.101,739.994 1585.82,541.692 2008.33,645.898 2372.16,968.692 2673.87,652.036 2976.53,752.99 3218.29,730.939 3460.24,671.961 "></polyline>
<polyline clip-path="url(#clip042)" style="stroke:#000000; stroke-linecap:round; stroke-linejoin:round; stroke-width:8; stroke-opacity:1; fill:none" stroke-dasharray="32, 20" points="-2985.02,737.855 6821.64,737.855 "></polyline>
<path clip-path="url(#clip040)" d="M2709.2 2118.51 L3443.79 2118.51 L3443.79 1703.79 L2709.2 1703.79  Z" fill="#ffffff" fill-rule="evenodd" fill-opacity="1"></path>
<polyline clip-path="url(#clip040)" style="stroke:#000000; stroke-linecap:round; stroke-linejoin:round; stroke-width:4; stroke-opacity:1; fill:none" points="2709.2,2118.51 3443.79,2118.51 3443.79,1703.79 2709.2,1703.79 2709.2,2118.51 "></polyline>
<polyline clip-path="url(#clip040)" style="stroke:#4485c7; stroke-linecap:round; stroke-linejoin:round; stroke-width:12; stroke-opacity:1; fill:none" points="2745.52,1755.63 2963.44,1755.63 "></polyline>
<circle clip-path="url(#clip040)" cx="2854.48" cy="1755.63" r="21.3943" fill="#4485c7" fill-rule="evenodd" fill-opacity="1" stroke="#000000" stroke-opacity="1" stroke-width="4.38857"></circle>
<path clip-path="url(#clip040)" d="M2999.77 1738.35 L3019.63 1738.35 L3019.63 1742.29 L3004.44 1742.29 L3004.44 1752.47 L3018.15 1752.47 L3018.15 1756.41 L3004.44 1756.41 L3004.44 1772.91 L2999.77 1772.91 L2999.77 1738.35 Z" fill="#000000" fill-rule="nonzero" fill-opacity="1"></path><path clip-path="url(#clip040)" d="M3052.91 1741.02 L3052.91 1745.95 Q3050.55 1743.75 3047.87 1742.66 Q3045.21 1741.57 3042.2 1741.57 Q3036.27 1741.57 3033.12 1745.21 Q3029.97 1748.82 3029.97 1755.67 Q3029.97 1762.5 3033.12 1766.13 Q3036.27 1769.74 3042.2 1769.74 Q3045.21 1769.74 3047.87 1768.65 Q3050.55 1767.57 3052.91 1765.37 L3052.91 1770.25 Q3050.46 1771.92 3047.71 1772.75 Q3044.97 1773.58 3041.92 1773.58 Q3034.07 1773.58 3029.56 1768.79 Q3025.04 1763.98 3025.04 1755.67 Q3025.04 1747.33 3029.56 1742.54 Q3034.07 1737.73 3041.92 1737.73 Q3045.02 1737.73 3047.75 1738.56 Q3050.51 1739.37 3052.91 1741.02 Z" fill="#000000" fill-rule="nonzero" fill-opacity="1"></path><path clip-path="url(#clip040)" d="M3080.85 1739.49 L3080.85 1744.05 Q3078.19 1742.77 3075.83 1742.15 Q3073.47 1741.52 3071.27 1741.52 Q3067.45 1741.52 3065.37 1743.01 Q3063.31 1744.49 3063.31 1747.22 Q3063.31 1749.51 3064.67 1750.69 Q3066.06 1751.85 3069.9 1752.57 L3072.73 1753.15 Q3077.96 1754.14 3080.44 1756.66 Q3082.94 1759.16 3082.94 1763.38 Q3082.94 1768.4 3079.56 1770.99 Q3076.2 1773.58 3069.7 1773.58 Q3067.24 1773.58 3064.46 1773.03 Q3061.71 1772.47 3058.75 1771.39 L3058.75 1766.57 Q3061.59 1768.17 3064.33 1768.98 Q3067.06 1769.79 3069.7 1769.79 Q3073.7 1769.79 3075.88 1768.21 Q3078.05 1766.64 3078.05 1763.72 Q3078.05 1761.18 3076.48 1759.74 Q3074.93 1758.31 3071.36 1757.59 L3068.52 1757.03 Q3063.28 1755.99 3060.95 1753.77 Q3058.61 1751.55 3058.61 1747.59 Q3058.61 1743.01 3061.83 1740.37 Q3065.07 1737.73 3070.74 1737.73 Q3073.17 1737.73 3075.69 1738.17 Q3078.21 1738.61 3080.85 1739.49 Z" fill="#000000" fill-rule="nonzero" fill-opacity="1"></path><path clip-path="url(#clip040)" d="M3122.17 1750.92 L3122.17 1736.9 L3126.43 1736.9 L3126.43 1772.91 L3122.17 1772.91 L3122.17 1769.02 Q3120.83 1771.34 3118.77 1772.47 Q3116.73 1773.58 3113.86 1773.58 Q3109.16 1773.58 3106.2 1769.83 Q3103.26 1766.08 3103.26 1759.97 Q3103.26 1753.86 3106.2 1750.11 Q3109.16 1746.36 3113.86 1746.36 Q3116.73 1746.36 3118.77 1747.5 Q3120.83 1748.61 3122.17 1750.92 M3107.66 1759.97 Q3107.66 1764.67 3109.58 1767.36 Q3111.52 1770.02 3114.9 1770.02 Q3118.28 1770.02 3120.23 1767.36 Q3122.17 1764.67 3122.17 1759.97 Q3122.17 1755.27 3120.23 1752.61 Q3118.28 1749.93 3114.9 1749.93 Q3111.52 1749.93 3109.58 1752.61 Q3107.66 1755.27 3107.66 1759.97 Z" fill="#000000" fill-rule="nonzero" fill-opacity="1"></path><path clip-path="url(#clip040)" d="M3146.99 1759.88 Q3141.83 1759.88 3139.83 1761.06 Q3137.84 1762.24 3137.84 1765.09 Q3137.84 1767.36 3139.33 1768.7 Q3140.83 1770.02 3143.4 1770.02 Q3146.94 1770.02 3149.07 1767.52 Q3151.22 1765 3151.22 1760.83 L3151.22 1759.88 L3146.99 1759.88 M3155.48 1758.12 L3155.48 1772.91 L3151.22 1772.91 L3151.22 1768.98 Q3149.77 1771.34 3147.59 1772.47 Q3145.41 1773.58 3142.27 1773.58 Q3138.28 1773.58 3135.92 1771.36 Q3133.58 1769.12 3133.58 1765.37 Q3133.58 1760.99 3136.5 1758.77 Q3139.44 1756.55 3145.25 1756.55 L3151.22 1756.55 L3151.22 1756.13 Q3151.22 1753.19 3149.28 1751.59 Q3147.36 1749.97 3143.86 1749.97 Q3141.64 1749.97 3139.53 1750.51 Q3137.43 1751.04 3135.48 1752.1 L3135.48 1748.17 Q3137.82 1747.27 3140.02 1746.83 Q3142.22 1746.36 3144.3 1746.36 Q3149.93 1746.36 3152.7 1749.28 Q3155.48 1752.2 3155.48 1758.12 Z" fill="#000000" fill-rule="nonzero" fill-opacity="1"></path><path clip-path="url(#clip040)" d="M3168.47 1739.63 L3168.47 1746.99 L3177.24 1746.99 L3177.24 1750.3 L3168.47 1750.3 L3168.47 1764.37 Q3168.47 1767.54 3169.33 1768.45 Q3170.2 1769.35 3172.87 1769.35 L3177.24 1769.35 L3177.24 1772.91 L3172.87 1772.91 Q3167.94 1772.91 3166.06 1771.08 Q3164.19 1769.23 3164.19 1764.37 L3164.19 1750.3 L3161.06 1750.3 L3161.06 1746.99 L3164.19 1746.99 L3164.19 1739.63 L3168.47 1739.63 Z" fill="#000000" fill-rule="nonzero" fill-opacity="1"></path><path clip-path="url(#clip040)" d="M3194.63 1759.88 Q3189.46 1759.88 3187.47 1761.06 Q3185.48 1762.24 3185.48 1765.09 Q3185.48 1767.36 3186.96 1768.7 Q3188.47 1770.02 3191.04 1770.02 Q3194.58 1770.02 3196.71 1767.52 Q3198.86 1765 3198.86 1760.83 L3198.86 1759.88 L3194.63 1759.88 M3203.12 1758.12 L3203.12 1772.91 L3198.86 1772.91 L3198.86 1768.98 Q3197.4 1771.34 3195.23 1772.47 Q3193.05 1773.58 3189.9 1773.58 Q3185.92 1773.58 3183.56 1771.36 Q3181.22 1769.12 3181.22 1765.37 Q3181.22 1760.99 3184.14 1758.77 Q3187.08 1756.55 3192.89 1756.55 L3198.86 1756.55 L3198.86 1756.13 Q3198.86 1753.19 3196.92 1751.59 Q3195 1749.97 3191.5 1749.97 Q3189.28 1749.97 3187.17 1750.51 Q3185.07 1751.04 3183.12 1752.1 L3183.12 1748.17 Q3185.46 1747.27 3187.66 1746.83 Q3189.86 1746.36 3191.94 1746.36 Q3197.57 1746.36 3200.34 1749.28 Q3203.12 1752.2 3203.12 1758.12 Z" fill="#000000" fill-rule="nonzero" fill-opacity="1"></path><polyline clip-path="url(#clip040)" style="stroke:#d4562e; stroke-linecap:round; stroke-linejoin:round; stroke-width:12; stroke-opacity:1; fill:none" stroke-dasharray="48, 24, 6, 24" points="2745.52,1807.47 2963.44,1807.47 "></polyline>
<path clip-path="url(#clip040)" d="M2854.48 1783.7 L2830.71 1807.47 L2854.48 1831.24 L2878.25 1807.47 L2854.48 1783.7 Z" fill="#d4562e" fill-rule="evenodd" fill-opacity="1" stroke="#000000" stroke-opacity="1" stroke-width="4.38857"></path>
<path clip-path="url(#clip040)" d="M3018.68 1802.76 L3018.68 1788.74 L3022.94 1788.74 L3022.94 1824.75 L3018.68 1824.75 L3018.68 1820.86 Q3017.34 1823.18 3015.28 1824.31 Q3013.24 1825.42 3010.37 1825.42 Q3005.67 1825.42 3002.71 1821.67 Q2999.77 1817.92 2999.77 1811.81 Q2999.77 1805.7 3002.71 1801.95 Q3005.67 1798.2 3010.37 1798.2 Q3013.24 1798.2 3015.28 1799.34 Q3017.34 1800.45 3018.68 1802.76 M3004.16 1811.81 Q3004.16 1816.51 3006.09 1819.2 Q3008.03 1821.86 3011.41 1821.86 Q3014.79 1821.86 3016.73 1819.2 Q3018.68 1816.51 3018.68 1811.81 Q3018.68 1807.11 3016.73 1804.45 Q3014.79 1801.77 3011.41 1801.77 Q3008.03 1801.77 3006.09 1804.45 Q3004.16 1807.11 3004.16 1811.81 Z" fill="#000000" fill-rule="nonzero" fill-opacity="1"></path><path clip-path="url(#clip040)" d="M3047.34 1803.23 L3077.01 1803.23 L3077.01 1807.11 L3047.34 1807.11 L3047.34 1803.23 M3047.34 1812.67 L3077.01 1812.67 L3077.01 1816.61 L3047.34 1816.61 L3047.34 1812.67 Z" fill="#000000" fill-rule="nonzero" fill-opacity="1"></path><path clip-path="url(#clip040)" d="M3116.34 1806.12 Q3119.7 1806.84 3121.57 1809.11 Q3123.47 1811.37 3123.47 1814.71 Q3123.47 1819.82 3119.95 1822.62 Q3116.43 1825.42 3109.95 1825.42 Q3107.77 1825.42 3105.46 1824.99 Q3103.17 1824.57 3100.71 1823.71 L3100.71 1819.2 Q3102.66 1820.33 3104.97 1820.91 Q3107.29 1821.49 3109.81 1821.49 Q3114.21 1821.49 3116.5 1819.75 Q3118.82 1818.02 3118.82 1814.71 Q3118.82 1811.65 3116.66 1809.94 Q3114.53 1808.2 3110.71 1808.2 L3106.69 1808.2 L3106.69 1804.36 L3110.9 1804.36 Q3114.35 1804.36 3116.18 1802.99 Q3118.01 1801.61 3118.01 1799.01 Q3118.01 1796.35 3116.11 1794.94 Q3114.23 1793.5 3110.71 1793.5 Q3108.79 1793.5 3106.59 1793.92 Q3104.39 1794.34 3101.76 1795.22 L3101.76 1791.05 Q3104.42 1790.31 3106.73 1789.94 Q3109.07 1789.57 3111.13 1789.57 Q3116.46 1789.57 3119.56 1792 Q3122.66 1794.41 3122.66 1798.53 Q3122.66 1801.4 3121.02 1803.39 Q3119.37 1805.36 3116.34 1806.12 Z" fill="#000000" fill-rule="nonzero" fill-opacity="1"></path><polyline clip-path="url(#clip040)" style="stroke:#3da44d; stroke-linecap:round; stroke-linejoin:round; stroke-width:6; stroke-opacity:0.5; fill:none" stroke-dasharray="3, 6" points="2745.52,1859.31 2963.44,1859.31 "></polyline>
<path clip-path="url(#clip040)" d="M3018.68 1854.6 L3018.68 1840.58 L3022.94 1840.58 L3022.94 1876.59 L3018.68 1876.59 L3018.68 1872.7 Q3017.34 1875.02 3015.28 1876.15 Q3013.24 1877.26 3010.37 1877.26 Q3005.67 1877.26 3002.71 1873.51 Q2999.77 1869.76 2999.77 1863.65 Q2999.77 1857.54 3002.71 1853.79 Q3005.67 1850.04 3010.37 1850.04 Q3013.24 1850.04 3015.28 1851.18 Q3017.34 1852.29 3018.68 1854.6 M3004.16 1863.65 Q3004.16 1868.35 3006.09 1871.04 Q3008.03 1873.7 3011.41 1873.7 Q3014.79 1873.7 3016.73 1871.04 Q3018.68 1868.35 3018.68 1863.65 Q3018.68 1858.95 3016.73 1856.29 Q3014.79 1853.61 3011.41 1853.61 Q3008.03 1853.61 3006.09 1856.29 Q3004.16 1858.95 3004.16 1863.65 Z" fill="#000000" fill-rule="nonzero" fill-opacity="1"></path><path clip-path="url(#clip040)" d="M3047.34 1855.07 L3077.01 1855.07 L3077.01 1858.95 L3047.34 1858.95 L3047.34 1855.07 M3047.34 1864.51 L3077.01 1864.51 L3077.01 1868.45 L3047.34 1868.45 L3047.34 1864.51 Z" fill="#000000" fill-rule="nonzero" fill-opacity="1"></path><path clip-path="url(#clip040)" d="M3102.22 1842.03 L3120.58 1842.03 L3120.58 1845.97 L3106.5 1845.97 L3106.5 1854.44 Q3107.52 1854.09 3108.54 1853.93 Q3109.56 1853.75 3110.58 1853.75 Q3116.36 1853.75 3119.74 1856.92 Q3123.12 1860.09 3123.12 1865.51 Q3123.12 1871.08 3119.65 1874.19 Q3116.18 1877.26 3109.86 1877.26 Q3107.68 1877.26 3105.41 1876.89 Q3103.17 1876.52 3100.76 1875.78 L3100.76 1871.08 Q3102.84 1872.22 3105.07 1872.77 Q3107.29 1873.33 3109.77 1873.33 Q3113.77 1873.33 3116.11 1871.22 Q3118.45 1869.12 3118.45 1865.51 Q3118.45 1861.89 3116.11 1859.79 Q3113.77 1857.68 3109.77 1857.68 Q3107.89 1857.68 3106.02 1858.1 Q3104.16 1858.51 3102.22 1859.39 L3102.22 1842.03 Z" fill="#000000" fill-rule="nonzero" fill-opacity="1"></path><polyline clip-path="url(#clip040)" style="stroke:#c271d2; stroke-linecap:round; stroke-linejoin:round; stroke-width:6; stroke-opacity:0.5; fill:none" stroke-dasharray="3, 6" points="2745.52,1911.15 2963.44,1911.15 "></polyline>
<path clip-path="url(#clip040)" d="M3018.68 1906.44 L3018.68 1892.42 L3022.94 1892.42 L3022.94 1928.43 L3018.68 1928.43 L3018.68 1924.54 Q3017.34 1926.86 3015.28 1927.99 Q3013.24 1929.1 3010.37 1929.1 Q3005.67 1929.1 3002.71 1925.35 Q2999.77 1921.6 2999.77 1915.49 Q2999.77 1909.38 3002.71 1905.63 Q3005.67 1901.88 3010.37 1901.88 Q3013.24 1901.88 3015.28 1903.02 Q3017.34 1904.13 3018.68 1906.44 M3004.16 1915.49 Q3004.16 1920.19 3006.09 1922.88 Q3008.03 1925.54 3011.41 1925.54 Q3014.79 1925.54 3016.73 1922.88 Q3018.68 1920.19 3018.68 1915.49 Q3018.68 1910.79 3016.73 1908.13 Q3014.79 1905.45 3011.41 1905.45 Q3008.03 1905.45 3006.09 1908.13 Q3004.16 1910.79 3004.16 1915.49 Z" fill="#000000" fill-rule="nonzero" fill-opacity="1"></path><path clip-path="url(#clip040)" d="M3047.34 1906.91 L3077.01 1906.91 L3077.01 1910.79 L3047.34 1910.79 L3047.34 1906.91 M3047.34 1916.35 L3077.01 1916.35 L3077.01 1920.29 L3047.34 1920.29 L3047.34 1916.35 Z" fill="#000000" fill-rule="nonzero" fill-opacity="1"></path><path clip-path="url(#clip040)" d="M3100.99 1893.87 L3123.21 1893.87 L3123.21 1895.86 L3110.67 1928.43 L3105.78 1928.43 L3117.59 1897.81 L3100.99 1897.81 L3100.99 1893.87 Z" fill="#000000" fill-rule="nonzero" fill-opacity="1"></path><polyline clip-path="url(#clip040)" style="stroke:#ac8d18; stroke-linecap:round; stroke-linejoin:round; stroke-width:6; stroke-opacity:0.5; fill:none" stroke-dasharray="3, 6" points="2745.52,1962.99 2963.44,1962.99 "></polyline>
<path clip-path="url(#clip040)" d="M3018.68 1958.28 L3018.68 1944.26 L3022.94 1944.26 L3022.94 1980.27 L3018.68 1980.27 L3018.68 1976.38 Q3017.34 1978.7 3015.28 1979.83 Q3013.24 1980.94 3010.37 1980.94 Q3005.67 1980.94 3002.71 1977.19 Q2999.77 1973.44 2999.77 1967.33 Q2999.77 1961.22 3002.71 1957.47 Q3005.67 1953.72 3010.37 1953.72 Q3013.24 1953.72 3015.28 1954.86 Q3017.34 1955.97 3018.68 1958.28 M3004.16 1967.33 Q3004.16 1972.03 3006.09 1974.72 Q3008.03 1977.38 3011.41 1977.38 Q3014.79 1977.38 3016.73 1974.72 Q3018.68 1972.03 3018.68 1967.33 Q3018.68 1962.63 3016.73 1959.97 Q3014.79 1957.29 3011.41 1957.29 Q3008.03 1957.29 3006.09 1959.97 Q3004.16 1962.63 3004.16 1967.33 Z" fill="#000000" fill-rule="nonzero" fill-opacity="1"></path><path clip-path="url(#clip040)" d="M3047.34 1958.75 L3077.01 1958.75 L3077.01 1962.63 L3047.34 1962.63 L3047.34 1958.75 M3047.34 1968.19 L3077.01 1968.19 L3077.01 1972.13 L3047.34 1972.13 L3047.34 1968.19 Z" fill="#000000" fill-rule="nonzero" fill-opacity="1"></path><path clip-path="url(#clip040)" d="M3102.31 1979.56 L3102.31 1975.3 Q3104.07 1976.13 3105.88 1976.57 Q3107.68 1977.01 3109.42 1977.01 Q3114.05 1977.01 3116.48 1973.91 Q3118.93 1970.78 3119.28 1964.44 Q3117.94 1966.43 3115.88 1967.5 Q3113.82 1968.56 3111.32 1968.56 Q3106.13 1968.56 3103.1 1965.44 Q3100.09 1962.29 3100.09 1956.85 Q3100.09 1951.52 3103.24 1948.31 Q3106.39 1945.09 3111.62 1945.09 Q3117.61 1945.09 3120.76 1949.7 Q3123.93 1954.28 3123.93 1963.03 Q3123.93 1971.2 3120.04 1976.08 Q3116.18 1980.94 3109.63 1980.94 Q3107.87 1980.94 3106.06 1980.6 Q3104.26 1980.25 3102.31 1979.56 M3111.62 1964.9 Q3114.77 1964.9 3116.59 1962.75 Q3118.45 1960.6 3118.45 1956.85 Q3118.45 1953.12 3116.59 1950.97 Q3114.77 1948.79 3111.62 1948.79 Q3108.47 1948.79 3106.62 1950.97 Q3104.79 1953.12 3104.79 1956.85 Q3104.79 1960.6 3106.62 1962.75 Q3108.47 1964.9 3111.62 1964.9 Z" fill="#000000" fill-rule="nonzero" fill-opacity="1"></path><polyline clip-path="url(#clip040)" style="stroke:#00a9ad; stroke-linecap:round; stroke-linejoin:round; stroke-width:6; stroke-opacity:0.5; fill:none" stroke-dasharray="3, 6" points="2745.52,2014.83 2963.44,2014.83 "></polyline>
<path clip-path="url(#clip040)" d="M3018.68 2010.12 L3018.68 1996.1 L3022.94 1996.1 L3022.94 2032.11 L3018.68 2032.11 L3018.68 2028.22 Q3017.34 2030.54 3015.28 2031.67 Q3013.24 2032.78 3010.37 2032.78 Q3005.67 2032.78 3002.71 2029.03 Q2999.77 2025.28 2999.77 2019.17 Q2999.77 2013.06 3002.71 2009.31 Q3005.67 2005.56 3010.37 2005.56 Q3013.24 2005.56 3015.28 2006.7 Q3017.34 2007.81 3018.68 2010.12 M3004.16 2019.17 Q3004.16 2023.87 3006.09 2026.56 Q3008.03 2029.22 3011.41 2029.22 Q3014.79 2029.22 3016.73 2026.56 Q3018.68 2023.87 3018.68 2019.17 Q3018.68 2014.47 3016.73 2011.81 Q3014.79 2009.13 3011.41 2009.13 Q3008.03 2009.13 3006.09 2011.81 Q3004.16 2014.47 3004.16 2019.17 Z" fill="#000000" fill-rule="nonzero" fill-opacity="1"></path><path clip-path="url(#clip040)" d="M3047.34 2010.59 L3077.01 2010.59 L3077.01 2014.47 L3047.34 2014.47 L3047.34 2010.59 M3047.34 2020.03 L3077.01 2020.03 L3077.01 2023.97 L3047.34 2023.97 L3047.34 2020.03 Z" fill="#000000" fill-rule="nonzero" fill-opacity="1"></path><path clip-path="url(#clip040)" d="M3102.98 2028.18 L3110.62 2028.18 L3110.62 2001.81 L3102.31 2003.48 L3102.31 1999.22 L3110.58 1997.55 L3115.25 1997.55 L3115.25 2028.18 L3122.89 2028.18 L3122.89 2032.11 L3102.98 2032.11 L3102.98 2028.18 Z" fill="#000000" fill-rule="nonzero" fill-opacity="1"></path><path clip-path="url(#clip040)" d="M3133.14 2028.18 L3140.78 2028.18 L3140.78 2001.81 L3132.47 2003.48 L3132.47 1999.22 L3140.74 1997.55 L3145.41 1997.55 L3145.41 2028.18 L3153.05 2028.18 L3153.05 2032.11 L3133.14 2032.11 L3133.14 2028.18 Z" fill="#000000" fill-rule="nonzero" fill-opacity="1"></path><polyline clip-path="url(#clip040)" style="stroke:#000000; stroke-linecap:round; stroke-linejoin:round; stroke-width:8; stroke-opacity:1; fill:none" stroke-dasharray="32, 20" points="2745.52,2066.67 2963.44,2066.67 "></polyline>
<path clip-path="url(#clip040)" d="M2999.77 2049.39 L3029 2049.39 L3029 2053.33 L3016.73 2053.33 L3016.73 2083.95 L3012.03 2083.95 L3012.03 2053.33 L2999.77 2053.33 L2999.77 2049.39 Z" fill="#000000" fill-rule="nonzero" fill-opacity="1"></path><path clip-path="url(#clip040)" d="M3054.88 2068.31 L3054.88 2083.95 L3050.62 2083.95 L3050.62 2068.44 Q3050.62 2064.76 3049.19 2062.94 Q3047.75 2061.11 3044.88 2061.11 Q3041.43 2061.11 3039.44 2063.31 Q3037.45 2065.5 3037.45 2069.3 L3037.45 2083.95 L3033.17 2083.95 L3033.17 2047.94 L3037.45 2047.94 L3037.45 2062.06 Q3038.98 2059.72 3041.04 2058.56 Q3043.12 2057.4 3045.83 2057.4 Q3050.3 2057.4 3052.59 2060.18 Q3054.88 2062.94 3054.88 2068.31 Z" fill="#000000" fill-rule="nonzero" fill-opacity="1"></path><path clip-path="url(#clip040)" d="M3085.55 2069.93 L3085.55 2072.01 L3065.97 2072.01 Q3066.25 2076.41 3068.61 2078.72 Q3070.99 2081.01 3075.23 2081.01 Q3077.68 2081.01 3079.97 2080.41 Q3082.29 2079.81 3084.56 2078.61 L3084.56 2082.63 Q3082.27 2083.61 3079.86 2084.12 Q3077.45 2084.62 3074.97 2084.62 Q3068.77 2084.62 3065.14 2081.01 Q3061.52 2077.4 3061.52 2071.25 Q3061.52 2064.88 3064.95 2061.15 Q3068.4 2057.4 3074.23 2057.4 Q3079.46 2057.4 3082.5 2060.78 Q3085.55 2064.14 3085.55 2069.93 M3081.29 2068.68 Q3081.25 2065.18 3079.33 2063.1 Q3077.43 2061.01 3074.28 2061.01 Q3070.71 2061.01 3068.56 2063.03 Q3066.43 2065.04 3066.11 2068.7 L3081.29 2068.68 Z" fill="#000000" fill-rule="nonzero" fill-opacity="1"></path><path clip-path="url(#clip040)" d="M3102.59 2061.01 Q3099.16 2061.01 3097.17 2063.7 Q3095.18 2066.36 3095.18 2071.01 Q3095.18 2075.67 3097.15 2078.35 Q3099.14 2081.01 3102.59 2081.01 Q3105.99 2081.01 3107.98 2078.33 Q3109.97 2075.64 3109.97 2071.01 Q3109.97 2066.41 3107.98 2063.72 Q3105.99 2061.01 3102.59 2061.01 M3102.59 2057.4 Q3108.14 2057.4 3111.32 2061.01 Q3114.49 2064.62 3114.49 2071.01 Q3114.49 2077.38 3111.32 2081.01 Q3108.14 2084.62 3102.59 2084.62 Q3097.01 2084.62 3093.84 2081.01 Q3090.69 2077.38 3090.69 2071.01 Q3090.69 2064.62 3093.84 2061.01 Q3097.01 2057.4 3102.59 2057.4 Z" fill="#000000" fill-rule="nonzero" fill-opacity="1"></path><path clip-path="url(#clip040)" d="M3136.57 2062.01 Q3135.85 2061.59 3135 2061.41 Q3134.16 2061.2 3133.14 2061.2 Q3129.53 2061.2 3127.59 2063.56 Q3125.67 2065.9 3125.67 2070.3 L3125.67 2083.95 L3121.39 2083.95 L3121.39 2058.03 L3125.67 2058.03 L3125.67 2062.06 Q3127.01 2059.69 3129.16 2058.56 Q3131.32 2057.4 3134.39 2057.4 Q3134.83 2057.4 3135.37 2057.47 Q3135.9 2057.52 3136.55 2057.63 L3136.57 2062.01 Z" fill="#000000" fill-rule="nonzero" fill-opacity="1"></path><path clip-path="url(#clip040)" d="M3162.17 2069.93 L3162.17 2072.01 L3142.59 2072.01 Q3142.87 2076.41 3145.23 2078.72 Q3147.61 2081.01 3151.85 2081.01 Q3154.3 2081.01 3156.59 2080.41 Q3158.91 2079.81 3161.18 2078.61 L3161.18 2082.63 Q3158.89 2083.61 3156.48 2084.12 Q3154.07 2084.62 3151.59 2084.62 Q3145.39 2084.62 3141.76 2081.01 Q3138.14 2077.4 3138.14 2071.25 Q3138.14 2064.88 3141.57 2061.15 Q3145.02 2057.4 3150.85 2057.4 Q3156.08 2057.4 3159.12 2060.78 Q3162.17 2064.14 3162.17 2069.93 M3157.91 2068.68 Q3157.87 2065.18 3155.95 2063.1 Q3154.05 2061.01 3150.9 2061.01 Q3147.33 2061.01 3145.18 2063.03 Q3143.05 2065.04 3142.73 2068.7 L3157.91 2068.68 Z" fill="#000000" fill-rule="nonzero" fill-opacity="1"></path><path clip-path="url(#clip040)" d="M3173.38 2050.67 L3173.38 2058.03 L3182.15 2058.03 L3182.15 2061.34 L3173.38 2061.34 L3173.38 2075.41 Q3173.38 2078.58 3174.23 2079.49 Q3175.11 2080.39 3177.77 2080.39 L3182.15 2080.39 L3182.15 2083.95 L3177.77 2083.95 Q3172.84 2083.95 3170.97 2082.12 Q3169.09 2080.27 3169.09 2075.41 L3169.09 2061.34 L3165.97 2061.34 L3165.97 2058.03 L3169.09 2058.03 L3169.09 2050.67 L3173.38 2050.67 Z" fill="#000000" fill-rule="nonzero" fill-opacity="1"></path><path clip-path="url(#clip040)" d="M3187.75 2058.03 L3192.01 2058.03 L3192.01 2083.95 L3187.75 2083.95 L3187.75 2058.03 M3187.75 2047.94 L3192.01 2047.94 L3192.01 2053.33 L3187.75 2053.33 L3187.75 2047.94 Z" fill="#000000" fill-rule="nonzero" fill-opacity="1"></path><path clip-path="url(#clip040)" d="M3219.58 2059.02 L3219.58 2063 Q3217.77 2062.01 3215.95 2061.52 Q3214.14 2061.01 3212.29 2061.01 Q3208.14 2061.01 3205.85 2063.65 Q3203.56 2066.27 3203.56 2071.01 Q3203.56 2075.76 3205.85 2078.4 Q3208.14 2081.01 3212.29 2081.01 Q3214.14 2081.01 3215.95 2080.53 Q3217.77 2080.02 3219.58 2079.02 L3219.58 2082.96 Q3217.8 2083.79 3215.88 2084.21 Q3213.98 2084.62 3211.82 2084.62 Q3205.97 2084.62 3202.52 2080.94 Q3199.07 2077.26 3199.07 2071.01 Q3199.07 2064.67 3202.54 2061.04 Q3206.04 2057.4 3212.1 2057.4 Q3214.07 2057.4 3215.95 2057.82 Q3217.82 2058.21 3219.58 2059.02 Z" fill="#000000" fill-rule="nonzero" fill-opacity="1"></path><path clip-path="url(#clip040)" d="M3238.77 2070.92 Q3233.61 2070.92 3231.62 2072.1 Q3229.63 2073.28 3229.63 2076.13 Q3229.63 2078.4 3231.11 2079.74 Q3232.61 2081.06 3235.18 2081.06 Q3238.72 2081.06 3240.85 2078.56 Q3243.01 2076.04 3243.01 2071.87 L3243.01 2070.92 L3238.77 2070.92 M3247.26 2069.16 L3247.26 2083.95 L3243.01 2083.95 L3243.01 2080.02 Q3241.55 2082.38 3239.37 2083.51 Q3237.2 2084.62 3234.05 2084.62 Q3230.07 2084.62 3227.7 2082.4 Q3225.37 2080.16 3225.37 2076.41 Q3225.37 2072.03 3228.28 2069.81 Q3231.22 2067.59 3237.03 2067.59 L3243.01 2067.59 L3243.01 2067.17 Q3243.01 2064.23 3241.06 2062.63 Q3239.14 2061.01 3235.64 2061.01 Q3233.42 2061.01 3231.32 2061.55 Q3229.21 2062.08 3227.26 2063.14 L3227.26 2059.21 Q3229.6 2058.31 3231.8 2057.87 Q3234 2057.4 3236.08 2057.4 Q3241.71 2057.4 3244.49 2060.32 Q3247.26 2063.24 3247.26 2069.16 Z" fill="#000000" fill-rule="nonzero" fill-opacity="1"></path><path clip-path="url(#clip040)" d="M3256.04 2047.94 L3260.3 2047.94 L3260.3 2083.95 L3256.04 2083.95 L3256.04 2047.94 Z" fill="#000000" fill-rule="nonzero" fill-opacity="1"></path><path clip-path="url(#clip040)" d="M3293.38 2083.95 L3280.18 2049.39 L3285.07 2049.39 L3296.01 2078.49 L3306.99 2049.39 L3311.85 2049.39 L3298.68 2083.95 L3293.38 2083.95 Z" fill="#000000" fill-rule="nonzero" fill-opacity="1"></path><path clip-path="url(#clip040)" d="M3324.81 2070.92 Q3319.65 2070.92 3317.66 2072.1 Q3315.67 2073.28 3315.67 2076.13 Q3315.67 2078.4 3317.15 2079.74 Q3318.65 2081.06 3321.22 2081.06 Q3324.76 2081.06 3326.89 2078.56 Q3329.05 2076.04 3329.05 2071.87 L3329.05 2070.92 L3324.81 2070.92 M3333.31 2069.16 L3333.31 2083.95 L3329.05 2083.95 L3329.05 2080.02 Q3327.59 2082.38 3325.41 2083.51 Q3323.24 2084.62 3320.09 2084.62 Q3316.11 2084.62 3313.75 2082.4 Q3311.41 2080.16 3311.41 2076.41 Q3311.41 2072.03 3314.32 2069.81 Q3317.26 2067.59 3323.07 2067.59 L3329.05 2067.59 L3329.05 2067.17 Q3329.05 2064.23 3327.1 2062.63 Q3325.18 2061.01 3321.69 2061.01 Q3319.46 2061.01 3317.36 2061.55 Q3315.25 2062.08 3313.31 2063.14 L3313.31 2059.21 Q3315.64 2058.31 3317.84 2057.87 Q3320.04 2057.4 3322.13 2057.4 Q3327.75 2057.4 3330.53 2060.32 Q3333.31 2063.24 3333.31 2069.16 Z" fill="#000000" fill-rule="nonzero" fill-opacity="1"></path><path clip-path="url(#clip040)" d="M3342.08 2047.94 L3346.34 2047.94 L3346.34 2083.95 L3342.08 2083.95 L3342.08 2047.94 Z" fill="#000000" fill-rule="nonzero" fill-opacity="1"></path><path clip-path="url(#clip040)" d="M3354.81 2073.72 L3354.81 2058.03 L3359.07 2058.03 L3359.07 2073.56 Q3359.07 2077.24 3360.5 2079.09 Q3361.94 2080.92 3364.81 2080.92 Q3368.26 2080.92 3370.25 2078.72 Q3372.26 2076.52 3372.26 2072.73 L3372.26 2058.03 L3376.52 2058.03 L3376.52 2083.95 L3372.26 2083.95 L3372.26 2079.97 Q3370.71 2082.33 3368.65 2083.49 Q3366.62 2084.62 3363.91 2084.62 Q3359.44 2084.62 3357.13 2081.85 Q3354.81 2079.07 3354.81 2073.72 M3365.53 2057.4 L3365.53 2057.4 Z" fill="#000000" fill-rule="nonzero" fill-opacity="1"></path><path clip-path="url(#clip040)" d="M3407.47 2069.93 L3407.47 2072.01 L3387.89 2072.01 Q3388.17 2076.41 3390.53 2078.72 Q3392.91 2081.01 3397.15 2081.01 Q3399.6 2081.01 3401.89 2080.41 Q3404.21 2079.81 3406.48 2078.61 L3406.48 2082.63 Q3404.19 2083.61 3401.78 2084.12 Q3399.37 2084.62 3396.89 2084.62 Q3390.69 2084.62 3387.06 2081.01 Q3383.44 2077.4 3383.44 2071.25 Q3383.44 2064.88 3386.87 2061.15 Q3390.32 2057.4 3396.15 2057.4 Q3401.38 2057.4 3404.42 2060.78 Q3407.47 2064.14 3407.47 2069.93 M3403.21 2068.68 Q3403.17 2065.18 3401.25 2063.1 Q3399.35 2061.01 3396.2 2061.01 Q3392.63 2061.01 3390.48 2063.03 Q3388.35 2065.04 3388.03 2068.7 L3403.21 2068.68 Z" fill="#000000" fill-rule="nonzero" fill-opacity="1"></path></svg>