<svg xmlns="http://www.w3.org/2000/svg" xmlns:xlink="http://www.w3.org/1999/xlink" width="800" height="200" viewBox="0 0 3200 800">
<defs>
  <clipPath id="clip720">
    <rect x="0" y="0" width="3200" height="800"></rect>
  </clipPath>
</defs>
<path clip-path="url(#clip720)" d="M0 800 L3200 800 L3200 0 L0 0  Z" fill="#ffffff" fill-rule="evenodd" fill-opacity="1"></path>
<defs>
  <clipPath id="clip721">
    <rect x="640" y="0" width="2241" height="800"></rect>
  </clipPath>
</defs>
<path clip-path="url(#clip720)" d="M292.422 711.442 L3152.76 711.442 L3152.76 85.6721 L292.422 85.6721  Z" fill="#ffffff" fill-rule="evenodd" fill-opacity="1"></path>
<defs>
  <clipPath id="clip722">
    <rect x="292" y="85" width="2861" height="627"></rect>
  </clipPath>
</defs>
<polyline clip-path="url(#clip722)" style="stroke:#000000; stroke-linecap:round; stroke-linejoin:round; stroke-width:2; stroke-opacity:0.1; fill:none" points="373.374,711.442 373.374,85.6721 "></polyline>
<polyline clip-path="url(#clip722)" style="stroke:#000000; stroke-linecap:round; stroke-linejoin:round; stroke-width:2; stroke-opacity:0.1; fill:none" points="913.06,711.442 913.06,85.6721 "></polyline>
<polyline clip-path="url(#clip722)" style="stroke:#000000; stroke-linecap:round; stroke-linejoin:round; stroke-width:2; stroke-opacity:0.1; fill:none" points="1452.75,711.442 1452.75,85.6721 "></polyline>
<polyline clip-path="url(#clip722)" style="stroke:#000000; stroke-linecap:round; stroke-linejoin:round; stroke-width:2; stroke-opacity:0.1; fill:none" points="1992.43,711.442 1992.43,85.6721 "></polyline>
<polyline clip-path="url(#clip722)" style="stroke:#000000; stroke-linecap:round; stroke-linejoin:round; stroke-width:2; stroke-opacity:0.1; fill:none" points="2532.12,711.442 2532.12,85.6721 "></polyline>
<polyline clip-path="url(#clip722)" style="stroke:#000000; stroke-linecap:round; stroke-linejoin:round; stroke-width:2; stroke-opacity:0.1; fill:none" points="3071.8,711.442 3071.8,85.6721 "></polyline>
<polyline clip-path="url(#clip722)" style="stroke:#000000; stroke-linecap:round; stroke-linejoin:round; stroke-width:2; stroke-opacity:0.1; fill:none" points="292.422,711.442 3152.76,711.442 "></polyline>
<polyline clip-path="url(#clip722)" style="stroke:#000000; stroke-linecap:round; stroke-linejoin:round; stroke-width:2; stroke-opacity:0.1; fill:none" points="292.422,599.697 3152.76,599.697 "></polyline>
<polyline clip-path="url(#clip722)" style="stroke:#000000; stroke-linecap:round; stroke-linejoin:round; stroke-width:2; stroke-opacity:0.1; fill:none" points="292.422,487.953 3152.76,487.953 "></polyline>
<polyline clip-path="url(#clip722)" style="stroke:#000000; stroke-linecap:round; stroke-linejoin:round; stroke-width:2; stroke-opacity:0.1; fill:none" points="292.422,376.208 3152.76,376.208 "></polyline>
<polyline clip-path="url(#clip722)" style="stroke:#000000; stroke-linecap:round; stroke-linejoin:round; stroke-width:2; stroke-opacity:0.1; fill:none" points="292.422,264.463 3152.76,264.463 "></polyline>
<polyline clip-path="url(#clip722)" style="stroke:#000000; stroke-linecap:round; stroke-linejoin:round; stroke-width:2; stroke-opacity:0.1; fill:none" points="292.422,152.719 3152.76,152.719 "></polyline>
<polyline clip-path="url(#clip720)" style="stroke:#000000; stroke-linecap:round; stroke-linejoin:round; stroke-width:4; stroke-opacity:1; fill:none" points="292.422,711.442 3152.76,711.442 "></polyline>
<polyline clip-path="url(#clip720)" style="stroke:#000000; stroke-linecap:round; stroke-linejoin:round; stroke-width:4; stroke-opacity:1; fill:none" points="373.374,711.442 373.374,692.544 "></polyline>
<polyline clip-path="url(#clip720)" style="stroke:#000000; stroke-linecap:round; stroke-linejoin:round; stroke-width:4; stroke-opacity:1; fill:none" points="913.06,711.442 913.06,692.544 "></polyline>
<polyline clip-path="url(#clip720)" style="stroke:#000000; stroke-linecap:round; stroke-linejoin:round; stroke-width:4; stroke-opacity:1; fill:none" points="1452.75,711.442 1452.75,692.544 "></polyline>
<polyline clip-path="url(#clip720)" style="stroke:#000000; stroke-linecap:round; stroke-linejoin:round; stroke-width:4; stroke-opacity:1; fill:none" points="1992.43,711.442 1992.43,692.544 "></polyline>
<polyline clip-path="url(#clip720)" style="stroke:#000000; stroke-linecap:round; stroke-linejoin:round; stroke-width:4; stroke-opacity:1; fill:none" points="2532.12,711.442 2532.12,692.544 "></polyline>
<polyline clip-path="url(#clip720)" style="stroke:#000000; stroke-linecap:round; stroke-linejoin:round; stroke-width:4; stroke-opacity:1; fill:none" points="3071.8,711.442 3071.8,692.544 "></polyline>
<path clip-path="url(#clip720)" d="M346.916 791.967 L363.235 791.967 L363.235 795.902 L341.291 795.902 L341.291 791.967 Q343.953 789.212 348.536 784.582 Q353.142 779.93 354.323 778.587 Q356.568 776.064 357.448 774.328 Q358.351 772.568 358.351 770.879 Q358.351 768.124 356.406 766.388 Q354.485 764.652 351.383 764.652 Q349.184 764.652 346.73 765.416 Q344.3 766.18 341.522 767.731 L341.522 763.008 Q344.346 761.874 346.8 761.295 Q349.254 760.717 351.291 760.717 Q356.661 760.717 359.855 763.402 Q363.05 766.087 363.05 770.578 Q363.05 772.707 362.24 774.629 Q361.453 776.527 359.346 779.119 Q358.767 779.791 355.666 783.008 Q352.564 786.203 346.916 791.967 Z" fill="#000000" fill-rule="nonzero" fill-opacity="1"></path><path clip-path="url(#clip720)" d="M363.78 765.294 L369.987 765.294 L369.987 743.872 L363.235 745.226 L363.235 741.765 L369.949 740.411 L373.748 740.411 L373.748 765.294 L379.955 765.294 L379.955 768.491 L363.78 768.491 L363.78 765.294 Z" fill="#000000" fill-rule="nonzero" fill-opacity="1"></path><path clip-path="url(#clip720)" d="M395.754 742.913 Q392.82 742.913 391.334 745.809 Q389.867 748.687 389.867 754.479 Q389.867 760.253 391.334 763.15 Q392.82 766.027 395.754 766.027 Q398.706 766.027 400.173 763.15 Q401.659 760.253 401.659 754.479 Q401.659 748.687 400.173 745.809 Q398.706 742.913 395.754 742.913 M395.754 739.903 Q400.474 739.903 402.957 743.646 Q405.458 747.37 405.458 754.479 Q405.458 761.57 402.957 765.313 Q400.474 769.037 395.754 769.037 Q391.033 769.037 388.531 765.313 Q386.049 761.57 386.049 754.479 Q386.049 747.37 388.531 743.646 Q391.033 739.903 395.754 739.903 Z" fill="#000000" fill-rule="nonzero" fill-opacity="1"></path><path clip-path="url(#clip720)" d="M887.1 791.967 L903.419 791.967 L903.419 795.902 L881.475 795.902 L881.475 791.967 Q884.137 789.212 888.72 784.582 Q893.327 779.93 894.507 778.587 Q896.752 776.064 897.632 774.328 Q898.535 772.568 898.535 770.879 Q898.535 768.124 896.59 766.388 Q894.669 764.652 891.567 764.652 Q889.368 764.652 886.915 765.416 Q884.484 766.18 881.706 767.731 L881.706 763.008 Q884.53 761.874 886.984 761.295 Q889.438 760.717 891.475 760.717 Q896.845 760.717 900.039 763.402 Q903.234 766.087 903.234 770.578 Q903.234 772.707 902.424 774.629 Q901.637 776.527 899.53 779.119 Q898.951 779.791 895.85 783.008 Q892.748 786.203 887.1 791.967 Z" fill="#000000" fill-rule="nonzero" fill-opacity="1"></path><path clip-path="url(#clip720)" d="M903.964 765.294 L910.171 765.294 L910.171 743.872 L903.419 745.226 L903.419 741.765 L910.133 740.411 L913.933 740.411 L913.933 765.294 L920.139 765.294 L920.139 768.491 L903.964 768.491 L903.964 765.294 Z" fill="#000000" fill-rule="nonzero" fill-opacity="1"></path><path clip-path="url(#clip720)" d="M928.471 765.294 L934.678 765.294 L934.678 743.872 L927.926 745.226 L927.926 741.765 L934.64 740.411 L938.439 740.411 L938.439 765.294 L944.646 765.294 L944.646 768.491 L928.471 768.491 L928.471 765.294 Z" fill="#000000" fill-rule="nonzero" fill-opacity="1"></path><path clip-path="url(#clip720)" d="M1426.94 791.967 L1443.26 791.967 L1443.26 795.902 L1421.31 795.902 L1421.31 791.967 Q1423.97 789.212 1428.56 784.582 Q1433.16 779.93 1434.34 778.587 Q1436.59 776.064 1437.47 774.328 Q1438.37 772.568 1438.37 770.879 Q1438.37 768.124 1436.43 766.388 Q1434.51 764.652 1431.4 764.652 Q1429.2 764.652 1426.75 765.416 Q1424.32 766.18 1421.54 767.731 L1421.54 763.008 Q1424.37 761.874 1426.82 761.295 Q1429.27 760.717 1431.31 760.717 Q1436.68 760.717 1439.88 763.402 Q1443.07 766.087 1443.07 770.578 Q1443.07 772.707 1442.26 774.629 Q1441.47 776.527 1439.37 779.119 Q1438.79 779.791 1435.69 783.008 Q1432.58 786.203 1426.94 791.967 Z" fill="#000000" fill-rule="nonzero" fill-opacity="1"></path><path clip-path="url(#clip720)" d="M1443.8 765.294 L1450.01 765.294 L1450.01 743.872 L1443.26 745.226 L1443.26 741.765 L1449.97 740.411 L1453.77 740.411 L1453.77 765.294 L1459.98 765.294 L1459.98 768.491 L1443.8 768.491 L1443.8 765.294 Z" fill="#000000" fill-rule="nonzero" fill-opacity="1"></path><path clip-path="url(#clip720)" d="M1470.92 765.294 L1484.18 765.294 L1484.18 768.491 L1466.35 768.491 L1466.35 765.294 Q1468.51 763.056 1472.24 759.294 Q1475.98 755.514 1476.94 754.423 Q1478.76 752.373 1479.48 750.962 Q1480.21 749.533 1480.21 748.16 Q1480.21 745.922 1478.63 744.511 Q1477.07 743.101 1474.55 743.101 Q1472.76 743.101 1470.77 743.721 Q1468.8 744.342 1466.54 745.602 L1466.54 741.765 Q1468.83 740.844 1470.83 740.374 Q1472.82 739.903 1474.48 739.903 Q1478.84 739.903 1481.43 742.085 Q1484.03 744.267 1484.03 747.916 Q1484.03 749.646 1483.37 751.207 Q1482.73 752.749 1481.02 754.856 Q1480.55 755.401 1478.03 758.015 Q1475.51 760.611 1470.92 765.294 Z" fill="#000000" fill-rule="nonzero" fill-opacity="1"></path><path clip-path="url(#clip720)" d="M1966.24 791.967 L1982.56 791.967 L1982.56 795.902 L1960.61 795.902 L1960.61 791.967 Q1963.27 789.212 1967.86 784.582 Q1972.46 779.93 1973.64 778.587 Q1975.89 776.064 1976.77 774.328 Q1977.67 772.568 1977.67 770.879 Q1977.67 768.124 1975.73 766.388 Q1973.81 764.652 1970.7 764.652 Q1968.5 764.652 1966.05 765.416 Q1963.62 766.18 1960.84 767.731 L1960.84 763.008 Q1963.67 761.874 1966.12 761.295 Q1968.57 760.717 1970.61 760.717 Q1975.98 760.717 1979.18 763.402 Q1982.37 766.087 1982.37 770.578 Q1982.37 772.707 1981.56 774.629 Q1980.77 776.527 1978.67 779.119 Q1978.09 779.791 1974.99 783.008 Q1971.88 786.203 1966.24 791.967 Z" fill="#000000" fill-rule="nonzero" fill-opacity="1"></path><path clip-path="url(#clip720)" d="M1983.1 765.294 L1989.31 765.294 L1989.31 743.872 L1982.56 745.226 L1982.56 741.765 L1989.27 740.411 L1993.07 740.411 L1993.07 765.294 L1999.28 765.294 L1999.28 768.491 L1983.1 768.491 L1983.1 765.294 Z" fill="#000000" fill-rule="nonzero" fill-opacity="1"></path><path clip-path="url(#clip720)" d="M2018.46 753.351 Q2021.19 753.934 2022.71 755.777 Q2024.25 757.62 2024.25 760.329 Q2024.25 764.485 2021.39 766.761 Q2018.53 769.037 2013.27 769.037 Q2011.5 769.037 2009.62 768.679 Q2007.76 768.341 2005.76 767.645 L2005.76 763.977 Q2007.34 764.899 2009.22 765.369 Q2011.11 765.839 2013.16 765.839 Q2016.73 765.839 2018.59 764.429 Q2020.47 763.018 2020.47 760.329 Q2020.47 757.846 2018.72 756.454 Q2016.99 755.044 2013.89 755.044 L2010.62 755.044 L2010.62 751.922 L2014.04 751.922 Q2016.84 751.922 2018.33 750.812 Q2019.81 749.684 2019.81 747.577 Q2019.81 745.414 2018.27 744.267 Q2016.75 743.101 2013.89 743.101 Q2012.33 743.101 2010.54 743.439 Q2008.75 743.778 2006.61 744.493 L2006.61 741.107 Q2008.77 740.505 2010.65 740.204 Q2012.55 739.903 2014.23 739.903 Q2018.55 739.903 2021.07 741.878 Q2023.59 743.834 2023.59 747.182 Q2023.59 749.514 2022.26 751.132 Q2020.92 752.73 2018.46 753.351 Z" fill="#000000" fill-rule="nonzero" fill-opacity="1"></path><path clip-path="url(#clip720)" d="M2505.46 791.967 L2521.78 791.967 L2521.78 795.902 L2499.84 795.902 L2499.84 791.967 Q2502.5 789.212 2507.08 784.582 Q2511.69 779.93 2512.87 778.587 Q2515.11 776.064 2515.99 774.328 Q2516.9 772.568 2516.9 770.879 Q2516.9 768.124 2514.95 766.388 Q2513.03 764.652 2509.93 764.652 Q2507.73 764.652 2505.28 765.416 Q2502.85 766.18 2500.07 767.731 L2500.07 763.008 Q2502.89 761.874 2505.35 761.295 Q2507.8 760.717 2509.84 760.717 Q2515.21 760.717 2518.4 763.402 Q2521.6 766.087 2521.6 770.578 Q2521.6 772.707 2520.78 774.629 Q2520 776.527 2517.89 779.119 Q2517.31 779.791 2514.21 783.008 Q2511.11 786.203 2505.46 791.967 Z" fill="#000000" fill-rule="nonzero" fill-opacity="1"></path><path clip-path="url(#clip720)" d="M2522.33 765.294 L2528.53 765.294 L2528.53 743.872 L2521.78 745.226 L2521.78 741.765 L2528.49 740.411 L2532.29 740.411 L2532.29 765.294 L2538.5 765.294 L2538.5 768.491 L2522.33 768.491 L2522.33 765.294 Z" fill="#000000" fill-rule="nonzero" fill-opacity="1"></path><path clip-path="url(#clip720)" d="M2556.61 743.721 L2547.02 758.711 L2556.61 758.711 L2556.61 743.721 M2555.62 740.411 L2560.39 740.411 L2560.39 758.711 L2564.4 758.711 L2564.4 761.871 L2560.39 761.871 L2560.39 768.491 L2556.61 768.491 L2556.61 761.871 L2543.94 761.871 L2543.94 758.203 L2555.62 740.411 Z" fill="#000000" fill-rule="nonzero" fill-opacity="1"></path><path clip-path="url(#clip720)" d="M3045.75 791.967 L3062.07 791.967 L3062.07 795.902 L3040.12 795.902 L3040.12 791.967 Q3042.79 789.212 3047.37 784.582 Q3051.98 779.93 3053.16 778.587 Q3055.4 776.064 3056.28 774.328 Q3057.18 772.568 3057.18 770.879 Q3057.18 768.124 3055.24 766.388 Q3053.32 764.652 3050.22 764.652 Q3048.02 764.652 3045.56 765.416 Q3043.13 766.18 3040.36 767.731 L3040.36 763.008 Q3043.18 761.874 3045.63 761.295 Q3048.09 760.717 3050.12 760.717 Q3055.49 760.717 3058.69 763.402 Q3061.88 766.087 3061.88 770.578 Q3061.88 772.707 3061.07 774.629 Q3060.29 776.527 3058.18 779.119 Q3057.6 779.791 3054.5 783.008 Q3051.4 786.203 3045.75 791.967 Z" fill="#000000" fill-rule="nonzero" fill-opacity="1"></path><path clip-path="url(#clip720)" d="M3062.61 765.294 L3068.82 765.294 L3068.82 743.872 L3062.07 745.226 L3062.07 741.765 L3068.78 740.411 L3072.58 740.411 L3072.58 765.294 L3078.79 765.294 L3078.79 768.491 L3062.61 768.491 L3062.61 765.294 Z" fill="#000000" fill-rule="nonzero" fill-opacity="1"></path><path clip-path="url(#clip720)" d="M3086.5 740.411 L3101.41 740.411 L3101.41 743.609 L3089.98 743.609 L3089.98 750.492 Q3090.81 750.21 3091.63 750.078 Q3092.46 749.928 3093.29 749.928 Q3097.99 749.928 3100.74 752.505 Q3103.48 755.081 3103.48 759.482 Q3103.48 764.015 3100.66 766.535 Q3097.84 769.037 3092.71 769.037 Q3090.94 769.037 3089.09 768.736 Q3087.27 768.435 3085.31 767.833 L3085.31 764.015 Q3087.01 764.937 3088.81 765.388 Q3090.62 765.839 3092.63 765.839 Q3095.88 765.839 3097.78 764.128 Q3099.68 762.416 3099.68 759.482 Q3099.68 756.548 3097.78 754.837 Q3095.88 753.125 3092.63 753.125 Q3091.11 753.125 3089.58 753.464 Q3088.08 753.802 3086.5 754.517 L3086.5 740.411 Z" fill="#000000" fill-rule="nonzero" fill-opacity="1"></path><polyline clip-path="url(#clip720)" style="stroke:#000000; stroke-linecap:round; stroke-linejoin:round; stroke-width:4; stroke-opacity:1; fill:none" points="292.422,711.442 292.422,85.6721 "></polyline>
<polyline clip-path="url(#clip720)" style="stroke:#000000; stroke-linecap:round; stroke-linejoin:round; stroke-width:4; stroke-opacity:1; fill:none" points="292.422,711.442 311.319,711.442 "></polyline>
<polyline clip-path="url(#clip720)" style="stroke:#000000; stroke-linecap:round; stroke-linejoin:round; stroke-width:4; stroke-opacity:1; fill:none" points="292.422,599.697 311.319,599.697 "></polyline>
<polyline clip-path="url(#clip720)" style="stroke:#000000; stroke-linecap:round; stroke-linejoin:round; stroke-width:4; stroke-opacity:1; fill:none" points="292.422,487.953 311.319,487.953 "></polyline>
<polyline clip-path="url(#clip720)" style="stroke:#000000; stroke-linecap:round; stroke-linejoin:round; stroke-width:4; stroke-opacity:1; fill:none" points="292.422,376.208 311.319,376.208 "></polyline>
<polyline clip-path="url(#clip720)" style="stroke:#000000; stroke-linecap:round; stroke-linejoin:round; stroke-width:4; stroke-opacity:1; fill:none" points="292.422,264.463 311.319,264.463 "></polyline>
<polyline clip-path="url(#clip720)" style="stroke:#000000; stroke-linecap:round; stroke-linejoin:round; stroke-width:4; stroke-opacity:1; fill:none" points="292.422,152.719 311.319,152.719 "></polyline>
<path clip-path="url(#clip720)" d="M46.9921 711.893 L76.6679 711.893 L76.6679 715.828 L46.9921 715.828 L46.9921 711.893 Z" fill="#000000" fill-rule="nonzero" fill-opacity="1"></path><path clip-path="url(#clip720)" d="M96.7604 697.24 Q93.1493 697.24 91.3206 700.805 Q89.515 704.347 89.515 711.476 Q89.515 718.583 91.3206 722.148 Q93.1493 725.689 96.7604 725.689 Q100.395 725.689 102.2 722.148 Q104.029 718.583 104.029 711.476 Q104.029 704.347 102.2 700.805 Q100.395 697.24 96.7604 697.24 M96.7604 693.537 Q102.571 693.537 105.626 698.143 Q108.705 702.726 108.705 711.476 Q108.705 720.203 105.626 724.81 Q102.571 729.393 96.7604 729.393 Q90.9502 729.393 87.8715 724.81 Q84.816 720.203 84.816 711.476 Q84.816 702.726 87.8715 698.143 Q90.9502 693.537 96.7604 693.537 Z" fill="#000000" fill-rule="nonzero" fill-opacity="1"></path><path clip-path="url(#clip720)" d="M116.922 722.842 L121.807 722.842 L121.807 728.722 L116.922 728.722 L116.922 722.842 Z" fill="#000000" fill-rule="nonzero" fill-opacity="1"></path><path clip-path="url(#clip720)" d="M141.992 697.24 Q138.381 697.24 136.552 700.805 Q134.746 704.347 134.746 711.476 Q134.746 718.583 136.552 722.148 Q138.381 725.689 141.992 725.689 Q145.626 725.689 147.431 722.148 Q149.26 718.583 149.26 711.476 Q149.26 704.347 147.431 700.805 Q145.626 697.24 141.992 697.24 M141.992 693.537 Q147.802 693.537 150.857 698.143 Q153.936 702.726 153.936 711.476 Q153.936 720.203 150.857 724.81 Q147.802 729.393 141.992 729.393 Q136.181 729.393 133.103 724.81 Q130.047 720.203 130.047 711.476 Q130.047 702.726 133.103 698.143 Q136.181 693.537 141.992 693.537 Z" fill="#000000" fill-rule="nonzero" fill-opacity="1"></path><path clip-path="url(#clip720)" d="M162.2 694.162 L180.556 694.162 L180.556 698.097 L166.482 698.097 L166.482 706.569 Q167.501 706.222 168.519 706.06 Q169.538 705.875 170.556 705.875 Q176.343 705.875 179.723 709.046 Q183.103 712.217 183.103 717.634 Q183.103 723.212 179.63 726.314 Q176.158 729.393 169.839 729.393 Q167.663 729.393 165.394 729.023 Q163.149 728.652 160.742 727.911 L160.742 723.212 Q162.825 724.347 165.047 724.902 Q167.269 725.458 169.746 725.458 Q173.751 725.458 176.089 723.351 Q178.427 721.245 178.427 717.634 Q178.427 714.023 176.089 711.916 Q173.751 709.81 169.746 709.81 Q167.871 709.81 165.996 710.226 Q164.144 710.643 162.2 711.523 L162.2 694.162 Z" fill="#000000" fill-rule="nonzero" fill-opacity="1"></path><path clip-path="url(#clip720)" d="M202.315 697.24 Q198.704 697.24 196.876 700.805 Q195.07 704.347 195.07 711.476 Q195.07 718.583 196.876 722.148 Q198.704 725.689 202.315 725.689 Q205.95 725.689 207.755 722.148 Q209.584 718.583 209.584 711.476 Q209.584 704.347 207.755 700.805 Q205.95 697.24 202.315 697.24 M202.315 693.537 Q208.126 693.537 211.181 698.143 Q214.26 702.726 214.26 711.476 Q214.26 720.203 211.181 724.81 Q208.126 729.393 202.315 729.393 Q196.505 729.393 193.427 724.81 Q190.371 720.203 190.371 711.476 Q190.371 702.726 193.427 698.143 Q196.505 693.537 202.315 693.537 Z" fill="#000000" fill-rule="nonzero" fill-opacity="1"></path><path clip-path="url(#clip720)" d="M232.477 697.24 Q228.866 697.24 227.037 700.805 Q225.232 704.347 225.232 711.476 Q225.232 718.583 227.037 722.148 Q228.866 725.689 232.477 725.689 Q236.111 725.689 237.917 722.148 Q239.746 718.583 239.746 711.476 Q239.746 704.347 237.917 700.805 Q236.111 697.24 232.477 697.24 M232.477 693.537 Q238.287 693.537 241.343 698.143 Q244.422 702.726 244.422 711.476 Q244.422 720.203 241.343 724.81 Q238.287 729.393 232.477 729.393 Q226.667 729.393 223.588 724.81 Q220.533 720.203 220.533 711.476 Q220.533 702.726 223.588 698.143 Q226.667 693.537 232.477 693.537 Z" fill="#000000" fill-rule="nonzero" fill-opacity="1"></path><path clip-path="url(#clip720)" d="M47.9875 600.148 L77.6633 600.148 L77.6633 604.084 L47.9875 604.084 L47.9875 600.148 Z" fill="#000000" fill-rule="nonzero" fill-opacity="1"></path><path clip-path="url(#clip720)" d="M97.7557 585.496 Q94.1447 585.496 92.316 589.061 Q90.5104 592.602 90.5104 599.732 Q90.5104 606.838 92.316 610.403 Q94.1447 613.945 97.7557 613.945 Q101.39 613.945 103.196 610.403 Q105.024 606.838 105.024 599.732 Q105.024 592.602 103.196 589.061 Q101.39 585.496 97.7557 585.496 M97.7557 581.792 Q103.566 581.792 106.621 586.399 Q109.7 590.982 109.7 599.732 Q109.7 608.459 106.621 613.065 Q103.566 617.648 97.7557 617.648 Q91.9456 617.648 88.8669 613.065 Q85.8114 608.459 85.8114 599.732 Q85.8114 590.982 88.8669 586.399 Q91.9456 581.792 97.7557 581.792 Z" fill="#000000" fill-rule="nonzero" fill-opacity="1"></path><path clip-path="url(#clip720)" d="M117.918 611.098 L122.802 611.098 L122.802 616.977 L117.918 616.977 L117.918 611.098 Z" fill="#000000" fill-rule="nonzero" fill-opacity="1"></path><path clip-path="url(#clip720)" d="M142.987 585.496 Q139.376 585.496 137.547 589.061 Q135.742 592.602 135.742 599.732 Q135.742 606.838 137.547 610.403 Q139.376 613.945 142.987 613.945 Q146.621 613.945 148.427 610.403 Q150.255 606.838 150.255 599.732 Q150.255 592.602 148.427 589.061 Q146.621 585.496 142.987 585.496 M142.987 581.792 Q148.797 581.792 151.853 586.399 Q154.931 590.982 154.931 599.732 Q154.931 608.459 151.853 613.065 Q148.797 617.648 142.987 617.648 Q137.177 617.648 134.098 613.065 Q131.043 608.459 131.043 599.732 Q131.043 590.982 134.098 586.399 Q137.177 581.792 142.987 581.792 Z" fill="#000000" fill-rule="nonzero" fill-opacity="1"></path><path clip-path="url(#clip720)" d="M175.996 586.491 L164.191 604.94 L175.996 604.94 L175.996 586.491 M174.769 582.417 L180.649 582.417 L180.649 604.94 L185.579 604.94 L185.579 608.829 L180.649 608.829 L180.649 616.977 L175.996 616.977 L175.996 608.829 L160.394 608.829 L160.394 604.315 L174.769 582.417 Z" fill="#000000" fill-rule="nonzero" fill-opacity="1"></path><path clip-path="url(#clip720)" d="M192.13 582.417 L214.352 582.417 L214.352 584.408 L201.806 616.977 L196.922 616.977 L208.727 586.352 L192.13 586.352 L192.13 582.417 Z" fill="#000000" fill-rule="nonzero" fill-opacity="1"></path><path clip-path="url(#clip720)" d="M223.519 582.417 L241.875 582.417 L241.875 586.352 L227.801 586.352 L227.801 594.824 Q228.82 594.477 229.838 594.315 Q230.857 594.13 231.875 594.13 Q237.662 594.13 241.042 597.301 Q244.422 600.473 244.422 605.889 Q244.422 611.468 240.949 614.57 Q237.477 617.648 231.158 617.648 Q228.982 617.648 226.713 617.278 Q224.468 616.908 222.061 616.167 L222.061 611.468 Q224.144 612.602 226.366 613.158 Q228.588 613.713 231.065 613.713 Q235.07 613.713 237.408 611.607 Q239.746 609.5 239.746 605.889 Q239.746 602.278 237.408 600.172 Q235.07 598.065 231.065 598.065 Q229.19 598.065 227.315 598.482 Q225.463 598.899 223.519 599.778 L223.519 582.417 Z" fill="#000000" fill-rule="nonzero" fill-opacity="1"></path><path clip-path="url(#clip720)" d="M46.9921 488.404 L76.6679 488.404 L76.6679 492.339 L46.9921 492.339 L46.9921 488.404 Z" fill="#000000" fill-rule="nonzero" fill-opacity="1"></path><path clip-path="url(#clip720)" d="M96.7604 473.751 Q93.1493 473.751 91.3206 477.316 Q89.515 480.858 89.515 487.987 Q89.515 495.094 91.3206 498.659 Q93.1493 502.2 96.7604 502.2 Q100.395 502.2 102.2 498.659 Q104.029 495.094 104.029 487.987 Q104.029 480.858 102.2 477.316 Q100.395 473.751 96.7604 473.751 M96.7604 470.048 Q102.571 470.048 105.626 474.654 Q108.705 479.237 108.705 487.987 Q108.705 496.714 105.626 501.321 Q102.571 505.904 96.7604 505.904 Q90.9502 505.904 87.8715 501.321 Q84.816 496.714 84.816 487.987 Q84.816 479.237 87.8715 474.654 Q90.9502 470.048 96.7604 470.048 Z" fill="#000000" fill-rule="nonzero" fill-opacity="1"></path><path clip-path="url(#clip720)" d="M116.922 499.353 L121.807 499.353 L121.807 505.233 L116.922 505.233 L116.922 499.353 Z" fill="#000000" fill-rule="nonzero" fill-opacity="1"></path><path clip-path="url(#clip720)" d="M141.992 473.751 Q138.381 473.751 136.552 477.316 Q134.746 480.858 134.746 487.987 Q134.746 495.094 136.552 498.659 Q138.381 502.2 141.992 502.2 Q145.626 502.2 147.431 498.659 Q149.26 495.094 149.26 487.987 Q149.26 480.858 147.431 477.316 Q145.626 473.751 141.992 473.751 M141.992 470.048 Q147.802 470.048 150.857 474.654 Q153.936 479.237 153.936 487.987 Q153.936 496.714 150.857 501.321 Q147.802 505.904 141.992 505.904 Q136.181 505.904 133.103 501.321 Q130.047 496.714 130.047 487.987 Q130.047 479.237 133.103 474.654 Q136.181 470.048 141.992 470.048 Z" fill="#000000" fill-rule="nonzero" fill-opacity="1"></path><path clip-path="url(#clip720)" d="M175.001 474.747 L163.195 493.196 L175.001 493.196 L175.001 474.747 M173.774 470.673 L179.653 470.673 L179.653 493.196 L184.584 493.196 L184.584 497.084 L179.653 497.084 L179.653 505.233 L175.001 505.233 L175.001 497.084 L159.399 497.084 L159.399 492.571 L173.774 470.673 Z" fill="#000000" fill-rule="nonzero" fill-opacity="1"></path><path clip-path="url(#clip720)" d="M192.362 470.673 L210.718 470.673 L210.718 474.608 L196.644 474.608 L196.644 483.08 Q197.663 482.733 198.681 482.571 Q199.7 482.385 200.718 482.385 Q206.505 482.385 209.885 485.557 Q213.264 488.728 213.264 494.145 Q213.264 499.723 209.792 502.825 Q206.32 505.904 200.001 505.904 Q197.825 505.904 195.556 505.533 Q193.311 505.163 190.903 504.422 L190.903 499.723 Q192.987 500.858 195.209 501.413 Q197.431 501.969 199.908 501.969 Q203.913 501.969 206.251 499.862 Q208.588 497.756 208.588 494.145 Q208.588 490.534 206.251 488.427 Q203.913 486.321 199.908 486.321 Q198.033 486.321 196.158 486.737 Q194.306 487.154 192.362 488.034 L192.362 470.673 Z" fill="#000000" fill-rule="nonzero" fill-opacity="1"></path><path clip-path="url(#clip720)" d="M232.477 473.751 Q228.866 473.751 227.037 477.316 Q225.232 480.858 225.232 487.987 Q225.232 495.094 227.037 498.659 Q228.866 502.2 232.477 502.2 Q236.111 502.2 237.917 498.659 Q239.746 495.094 239.746 487.987 Q239.746 480.858 237.917 477.316 Q236.111 473.751 232.477 473.751 M232.477 470.048 Q238.287 470.048 241.343 474.654 Q244.422 479.237 244.422 487.987 Q244.422 496.714 241.343 501.321 Q238.287 505.904 232.477 505.904 Q226.667 505.904 223.588 501.321 Q220.533 496.714 220.533 487.987 Q220.533 479.237 223.588 474.654 Q226.667 470.048 232.477 470.048 Z" fill="#000000" fill-rule="nonzero" fill-opacity="1"></path><path clip-path="url(#clip720)" d="M47.9875 376.659 L77.6633 376.659 L77.6633 380.595 L47.9875 380.595 L47.9875 376.659 Z" fill="#000000" fill-rule="nonzero" fill-opacity="1"></path><path clip-path="url(#clip720)" d="M97.7557 362.007 Q94.1447 362.007 92.316 365.571 Q90.5104 369.113 90.5104 376.243 Q90.5104 383.349 92.316 386.914 Q94.1447 390.456 97.7557 390.456 Q101.39 390.456 103.196 386.914 Q105.024 383.349 105.024 376.243 Q105.024 369.113 103.196 365.571 Q101.39 362.007 97.7557 362.007 M97.7557 358.303 Q103.566 358.303 106.621 362.909 Q109.7 367.493 109.7 376.243 Q109.7 384.97 106.621 389.576 Q103.566 394.159 97.7557 394.159 Q91.9456 394.159 88.8669 389.576 Q85.8114 384.97 85.8114 376.243 Q85.8114 367.493 88.8669 362.909 Q91.9456 358.303 97.7557 358.303 Z" fill="#000000" fill-rule="nonzero" fill-opacity="1"></path><path clip-path="url(#clip720)" d="M117.918 387.608 L122.802 387.608 L122.802 393.488 L117.918 393.488 L117.918 387.608 Z" fill="#000000" fill-rule="nonzero" fill-opacity="1"></path><path clip-path="url(#clip720)" d="M142.987 362.007 Q139.376 362.007 137.547 365.571 Q135.742 369.113 135.742 376.243 Q135.742 383.349 137.547 386.914 Q139.376 390.456 142.987 390.456 Q146.621 390.456 148.427 386.914 Q150.255 383.349 150.255 376.243 Q150.255 369.113 148.427 365.571 Q146.621 362.007 142.987 362.007 M142.987 358.303 Q148.797 358.303 151.853 362.909 Q154.931 367.493 154.931 376.243 Q154.931 384.97 151.853 389.576 Q148.797 394.159 142.987 394.159 Q137.177 394.159 134.098 389.576 Q131.043 384.97 131.043 376.243 Q131.043 367.493 134.098 362.909 Q137.177 358.303 142.987 358.303 Z" fill="#000000" fill-rule="nonzero" fill-opacity="1"></path><path clip-path="url(#clip720)" d="M175.996 363.002 L164.191 381.451 L175.996 381.451 L175.996 363.002 M174.769 358.928 L180.649 358.928 L180.649 381.451 L185.579 381.451 L185.579 385.34 L180.649 385.34 L180.649 393.488 L175.996 393.488 L175.996 385.34 L160.394 385.34 L160.394 380.826 L174.769 358.928 Z" fill="#000000" fill-rule="nonzero" fill-opacity="1"></path><path clip-path="url(#clip720)" d="M197.339 389.553 L213.658 389.553 L213.658 393.488 L191.714 393.488 L191.714 389.553 Q194.376 386.798 198.959 382.169 Q203.565 377.516 204.746 376.173 Q206.991 373.65 207.871 371.914 Q208.774 370.155 208.774 368.465 Q208.774 365.71 206.829 363.974 Q204.908 362.238 201.806 362.238 Q199.607 362.238 197.153 363.002 Q194.723 363.766 191.945 365.317 L191.945 360.595 Q194.769 359.46 197.223 358.882 Q199.676 358.303 201.714 358.303 Q207.084 358.303 210.278 360.988 Q213.473 363.673 213.473 368.164 Q213.473 370.294 212.663 372.215 Q211.876 374.113 209.769 376.706 Q209.19 377.377 206.088 380.595 Q202.987 383.789 197.339 389.553 Z" fill="#000000" fill-rule="nonzero" fill-opacity="1"></path><path clip-path="url(#clip720)" d="M223.519 358.928 L241.875 358.928 L241.875 362.863 L227.801 362.863 L227.801 371.335 Q228.82 370.988 229.838 370.826 Q230.857 370.641 231.875 370.641 Q237.662 370.641 241.042 373.812 Q244.422 376.983 244.422 382.4 Q244.422 387.979 240.949 391.081 Q237.477 394.159 231.158 394.159 Q228.982 394.159 226.713 393.789 Q224.468 393.419 222.061 392.678 L222.061 387.979 Q224.144 389.113 226.366 389.669 Q228.588 390.224 231.065 390.224 Q235.07 390.224 237.408 388.118 Q239.746 386.011 239.746 382.4 Q239.746 378.789 237.408 376.683 Q235.07 374.576 231.065 374.576 Q229.19 374.576 227.315 374.993 Q225.463 375.409 223.519 376.289 L223.519 358.928 Z" fill="#000000" fill-rule="nonzero" fill-opacity="1"></path><path clip-path="url(#clip720)" d="M46.9921 264.915 L76.6679 264.915 L76.6679 268.85 L46.9921 268.85 L46.9921 264.915 Z" fill="#000000" fill-rule="nonzero" fill-opacity="1"></path><path clip-path="url(#clip720)" d="M96.7604 250.262 Q93.1493 250.262 91.3206 253.827 Q89.515 257.369 89.515 264.498 Q89.515 271.605 91.3206 275.169 Q93.1493 278.711 96.7604 278.711 Q100.395 278.711 102.2 275.169 Q104.029 271.605 104.029 264.498 Q104.029 257.369 102.2 253.827 Q100.395 250.262 96.7604 250.262 M96.7604 246.558 Q102.571 246.558 105.626 251.165 Q108.705 255.748 108.705 264.498 Q108.705 273.225 105.626 277.831 Q102.571 282.415 96.7604 282.415 Q90.9502 282.415 87.8715 277.831 Q84.816 273.225 84.816 264.498 Q84.816 255.748 87.8715 251.165 Q90.9502 246.558 96.7604 246.558 Z" fill="#000000" fill-rule="nonzero" fill-opacity="1"></path><path clip-path="url(#clip720)" d="M116.922 275.864 L121.807 275.864 L121.807 281.743 L116.922 281.743 L116.922 275.864 Z" fill="#000000" fill-rule="nonzero" fill-opacity="1"></path><path clip-path="url(#clip720)" d="M141.992 250.262 Q138.381 250.262 136.552 253.827 Q134.746 257.369 134.746 264.498 Q134.746 271.605 136.552 275.169 Q138.381 278.711 141.992 278.711 Q145.626 278.711 147.431 275.169 Q149.26 271.605 149.26 264.498 Q149.26 257.369 147.431 253.827 Q145.626 250.262 141.992 250.262 M141.992 246.558 Q147.802 246.558 150.857 251.165 Q153.936 255.748 153.936 264.498 Q153.936 273.225 150.857 277.831 Q147.802 282.415 141.992 282.415 Q136.181 282.415 133.103 277.831 Q130.047 273.225 130.047 264.498 Q130.047 255.748 133.103 251.165 Q136.181 246.558 141.992 246.558 Z" fill="#000000" fill-rule="nonzero" fill-opacity="1"></path><path clip-path="url(#clip720)" d="M175.001 251.257 L163.195 269.706 L175.001 269.706 L175.001 251.257 M173.774 247.183 L179.653 247.183 L179.653 269.706 L184.584 269.706 L184.584 273.595 L179.653 273.595 L179.653 281.743 L175.001 281.743 L175.001 273.595 L159.399 273.595 L159.399 269.081 L173.774 247.183 Z" fill="#000000" fill-rule="nonzero" fill-opacity="1"></path><path clip-path="url(#clip720)" d="M202.315 250.262 Q198.704 250.262 196.876 253.827 Q195.07 257.369 195.07 264.498 Q195.07 271.605 196.876 275.169 Q198.704 278.711 202.315 278.711 Q205.95 278.711 207.755 275.169 Q209.584 271.605 209.584 264.498 Q209.584 257.369 207.755 253.827 Q205.95 250.262 202.315 250.262 M202.315 246.558 Q208.126 246.558 211.181 251.165 Q214.26 255.748 214.26 264.498 Q214.26 273.225 211.181 277.831 Q208.126 282.415 202.315 282.415 Q196.505 282.415 193.427 277.831 Q190.371 273.225 190.371 264.498 Q190.371 255.748 193.427 251.165 Q196.505 246.558 202.315 246.558 Z" fill="#000000" fill-rule="nonzero" fill-opacity="1"></path><path clip-path="url(#clip720)" d="M232.477 250.262 Q228.866 250.262 227.037 253.827 Q225.232 257.369 225.232 264.498 Q225.232 271.605 227.037 275.169 Q228.866 278.711 232.477 278.711 Q236.111 278.711 237.917 275.169 Q239.746 271.605 239.746 264.498 Q239.746 257.369 237.917 253.827 Q236.111 250.262 232.477 250.262 M232.477 246.558 Q238.287 246.558 241.343 251.165 Q244.422 255.748 244.422 264.498 Q244.422 273.225 241.343 277.831 Q238.287 282.415 232.477 282.415 Q226.667 282.415 223.588 277.831 Q220.533 273.225 220.533 264.498 Q220.533 255.748 223.588 251.165 Q226.667 246.558 232.477 246.558 Z" fill="#000000" fill-rule="nonzero" fill-opacity="1"></path><path clip-path="url(#clip720)" d="M47.9875 153.17 L77.6633 153.17 L77.6633 157.105 L47.9875 157.105 L47.9875 153.17 Z" fill="#000000" fill-rule="nonzero" fill-opacity="1"></path><path clip-path="url(#clip720)" d="M97.7557 138.518 Q94.1447 138.518 92.316 142.082 Q90.5104 145.624 90.5104 152.754 Q90.5104 159.86 92.316 163.425 Q94.1447 166.966 97.7557 166.966 Q101.39 166.966 103.196 163.425 Q105.024 159.86 105.024 152.754 Q105.024 145.624 103.196 142.082 Q101.39 138.518 97.7557 138.518 M97.7557 134.814 Q103.566 134.814 106.621 139.42 Q109.7 144.004 109.7 152.754 Q109.7 161.48 106.621 166.087 Q103.566 170.67 97.7557 170.67 Q91.9456 170.67 88.8669 166.087 Q85.8114 161.48 85.8114 152.754 Q85.8114 144.004 88.8669 139.42 Q91.9456 134.814 97.7557 134.814 Z" fill="#000000" fill-rule="nonzero" fill-opacity="1"></path><path clip-path="url(#clip720)" d="M117.918 164.119 L122.802 164.119 L122.802 169.999 L117.918 169.999 L117.918 164.119 Z" fill="#000000" fill-rule="nonzero" fill-opacity="1"></path><path clip-path="url(#clip720)" d="M142.987 138.518 Q139.376 138.518 137.547 142.082 Q135.742 145.624 135.742 152.754 Q135.742 159.86 137.547 163.425 Q139.376 166.966 142.987 166.966 Q146.621 166.966 148.427 163.425 Q150.255 159.86 150.255 152.754 Q150.255 145.624 148.427 142.082 Q146.621 138.518 142.987 138.518 M142.987 134.814 Q148.797 134.814 151.853 139.42 Q154.931 144.004 154.931 152.754 Q154.931 161.48 151.853 166.087 Q148.797 170.67 142.987 170.67 Q137.177 170.67 134.098 166.087 Q131.043 161.48 131.043 152.754 Q131.043 144.004 134.098 139.42 Q137.177 134.814 142.987 134.814 Z" fill="#000000" fill-rule="nonzero" fill-opacity="1"></path><path clip-path="url(#clip720)" d="M177.316 151.365 Q180.672 152.082 182.547 154.351 Q184.445 156.619 184.445 159.953 Q184.445 165.068 180.927 167.869 Q177.408 170.67 170.927 170.67 Q168.751 170.67 166.436 170.23 Q164.144 169.814 161.691 168.957 L161.691 164.443 Q163.635 165.578 165.95 166.156 Q168.265 166.735 170.788 166.735 Q175.186 166.735 177.478 164.999 Q179.792 163.263 179.792 159.953 Q179.792 156.897 177.64 155.184 Q175.51 153.448 171.691 153.448 L167.663 153.448 L167.663 149.605 L171.876 149.605 Q175.325 149.605 177.153 148.24 Q178.982 146.851 178.982 144.258 Q178.982 141.596 177.084 140.184 Q175.209 138.749 171.691 138.749 Q169.769 138.749 167.57 139.166 Q165.371 139.582 162.732 140.462 L162.732 136.295 Q165.394 135.555 167.709 135.184 Q170.047 134.814 172.107 134.814 Q177.431 134.814 180.533 137.244 Q183.635 139.652 183.635 143.772 Q183.635 146.643 181.991 148.633 Q180.348 150.601 177.316 151.365 Z" fill="#000000" fill-rule="nonzero" fill-opacity="1"></path><path clip-path="url(#clip720)" d="M192.13 135.439 L214.352 135.439 L214.352 137.43 L201.806 169.999 L196.922 169.999 L208.727 139.374 L192.13 139.374 L192.13 135.439 Z" fill="#000000" fill-rule="nonzero" fill-opacity="1"></path><path clip-path="url(#clip720)" d="M223.519 135.439 L241.875 135.439 L241.875 139.374 L227.801 139.374 L227.801 147.846 Q228.82 147.499 229.838 147.337 Q230.857 147.152 231.875 147.152 Q237.662 147.152 241.042 150.323 Q244.422 153.494 244.422 158.911 Q244.422 164.49 240.949 167.591 Q237.477 170.67 231.158 170.67 Q228.982 170.67 226.713 170.3 Q224.468 169.929 222.061 169.189 L222.061 164.49 Q224.144 165.624 226.366 166.179 Q228.588 166.735 231.065 166.735 Q235.07 166.735 237.408 164.629 Q239.746 162.522 239.746 158.911 Q239.746 155.3 237.408 153.193 Q235.07 151.087 231.065 151.087 Q229.19 151.087 227.315 151.504 Q225.463 151.92 223.519 152.8 L223.519 135.439 Z" fill="#000000" fill-rule="nonzero" fill-opacity="1"></path><path clip-path="url(#clip720)" d="M1595.21 14.0809 L1595.21 22.0612 Q1590.55 19.8332 1586.42 18.7395 Q1582.29 17.6457 1578.44 17.6457 Q1571.75 17.6457 1568.11 20.2383 Q1564.5 22.8309 1564.5 27.611 Q1564.5 31.6214 1566.89 33.6873 Q1569.32 35.7128 1576.05 36.9686 L1580.99 37.9813 Q1590.14 39.7232 1594.48 44.1387 Q1598.85 48.5136 1598.85 55.8863 Q1598.85 64.6767 1592.94 69.2137 Q1587.07 73.7508 1575.68 73.7508 Q1571.39 73.7508 1566.53 72.7785 Q1561.71 71.8063 1556.52 69.9024 L1556.52 61.4765 Q1561.5 64.2716 1566.28 65.6895 Q1571.06 67.1073 1575.68 67.1073 Q1582.69 67.1073 1586.5 64.3527 Q1590.31 61.598 1590.31 56.4939 Q1590.31 52.0379 1587.55 49.5264 Q1584.84 47.0148 1578.6 45.759 L1573.62 44.7868 Q1564.46 42.9639 1560.37 39.075 Q1556.28 35.1862 1556.28 28.2591 Q1556.28 20.2383 1561.91 15.6203 Q1567.58 11.0023 1577.51 11.0023 Q1581.76 11.0023 1586.17 11.7719 Q1590.59 12.5416 1595.21 14.0809 Z" fill="#000000" fill-rule="nonzero" fill-opacity="1"></path><path clip-path="url(#clip720)" d="M1638.63 34.9026 L1690.57 34.9026 L1690.57 41.7081 L1638.63 41.7081 L1638.63 34.9026 M1638.63 51.4303 L1690.57 51.4303 L1690.57 58.3168 L1638.63 58.3168 L1638.63 51.4303 Z" fill="#000000" fill-rule="nonzero" fill-opacity="1"></path><path clip-path="url(#clip720)" d="M1732.86 9.54393 L1750.03 9.54393 L1750.03 15.3367 L1740.31 15.3367 L1740.31 77.7206 L1750.03 77.7206 L1750.03 83.5134 L1732.86 83.5134 L1732.86 9.54393 Z" fill="#000000" fill-rule="nonzero" fill-opacity="1"></path><path clip-path="url(#clip720)" d="M1774.01 65.6895 L1802.57 65.6895 L1802.57 72.576 L1764.17 72.576 L1764.17 65.6895 Q1768.83 60.8689 1776.85 52.7671 Q1784.91 44.6248 1786.98 42.2752 Q1790.91 37.8598 1792.45 34.8216 Q1794.03 31.7429 1794.03 28.7857 Q1794.03 23.9651 1790.62 20.927 Q1787.26 17.8888 1781.83 17.8888 Q1777.98 17.8888 1773.69 19.2256 Q1769.44 20.5624 1764.58 23.2765 L1764.58 15.0127 Q1769.52 13.0277 1773.81 12.015 Q1778.11 11.0023 1781.67 11.0023 Q1791.07 11.0023 1796.66 15.7013 Q1802.25 20.4004 1802.25 28.2591 Q1802.25 31.9859 1800.83 35.3482 Q1799.45 38.6699 1795.77 43.2069 Q1794.76 44.3817 1789.33 50.0125 Q1783.9 55.6027 1774.01 65.6895 Z" fill="#000000" fill-rule="nonzero" fill-opacity="1"></path><path clip-path="url(#clip720)" d="M1837.25 17.4837 Q1830.93 17.4837 1827.73 23.7221 Q1824.57 29.92 1824.57 42.3968 Q1824.57 54.833 1827.73 61.0714 Q1830.93 67.2693 1837.25 67.2693 Q1843.61 67.2693 1846.77 61.0714 Q1849.97 54.833 1849.97 42.3968 Q1849.97 29.92 1846.77 23.7221 Q1843.61 17.4837 1837.25 17.4837 M1837.25 11.0023 Q1847.42 11.0023 1852.76 19.0636 Q1858.15 27.0843 1858.15 42.3968 Q1858.15 57.6687 1852.76 65.73 Q1847.42 73.7508 1837.25 73.7508 Q1827.08 73.7508 1821.69 65.73 Q1816.35 57.6687 1816.35 42.3968 Q1816.35 27.0843 1821.69 19.0636 Q1827.08 11.0023 1837.25 11.0023 Z" fill="#000000" fill-rule="nonzero" fill-opacity="1"></path><path clip-path="url(#clip720)" d="M1888.9 9.54393 L1888.9 83.5134 L1871.72 83.5134 L1871.72 77.7206 L1881.4 77.7206 L1881.4 15.3367 L1871.72 15.3367 L1871.72 9.54393 L1888.9 9.54393 Z" fill="#000000" fill-rule="nonzero" fill-opacity="1"></path><path clip-path="url(#clip722)" d="M373.374 137.445 L913.06 637.613 L1452.75 364.999 L1992.43 297.547 L2532.12 425.194 L3071.8 385.98 L3071.8 383.787 L2532.12 418.232 L1992.43 287.389 L1452.75 352.933 L913.06 606.85 L373.374 67.5971  Z" fill="#7e99f4" fill-rule="evenodd" fill-opacity="0.25"></path>
<polyline clip-path="url(#clip722)" style="stroke:#7e99f4; stroke-linecap:round; stroke-linejoin:round; stroke-width:8; stroke-opacity:1; fill:none" points="373.374,102.521 913.06,622.232 1452.75,358.966 1992.43,292.468 2532.12,421.713 3071.8,384.883 "></polyline>
<path clip-path="url(#clip722)" d="M373.374 344.753 L913.06 478.866 L1452.75 416.312 L1992.43 465.742 L2532.12 383.901 L3071.8 382.706 L3071.8 379.729 L2532.12 378.364 L1992.43 454.073 L1452.75 397.105 L913.06 443.677 L373.374 225.86  Z" fill="#cc7c71" fill-rule="evenodd" fill-opacity="0.25"></path>
<polyline clip-path="url(#clip722)" style="stroke:#cc7c71; stroke-linecap:round; stroke-linejoin:round; stroke-width:8; stroke-opacity:1; fill:none" stroke-dasharray="32, 16, 4, 16" points="373.374,285.306 913.06,461.271 1452.75,406.709 1992.43,459.907 2532.12,381.132 3071.8,381.218 "></polyline>
<polyline clip-path="url(#clip722)" style="stroke:#3da44d; stroke-linecap:round; stroke-linejoin:round; stroke-width:4; stroke-opacity:0.8; fill:none" stroke-dasharray="16, 10" points="373.374,645.421 913.06,388.976 1452.75,189.14 1992.43,478.322 2532.12,364.593 3071.8,372.863 "></polyline>
<polyline clip-path="url(#clip722)" style="stroke:#c271d2; stroke-linecap:round; stroke-linejoin:round; stroke-width:4; stroke-opacity:0.8; fill:none" stroke-dasharray="16, 10" points="373.374,601.77 913.06,509.014 1452.75,465.364 1992.43,451.041 2532.12,335.095 3071.8,365.019 "></polyline>
<polyline clip-path="url(#clip722)" style="stroke:#ac8d18; stroke-linecap:round; stroke-linejoin:round; stroke-width:4; stroke-opacity:0.8; fill:none" stroke-dasharray="16, 10" points="373.374,-164.836 913.06,751.818 1452.75,150.264 1992.43,528.452 2532.12,407.561 3071.8,368.77 "></polyline>
<polyline clip-path="url(#clip722)" style="stroke:#00a9ad; stroke-linecap:round; stroke-linejoin:round; stroke-width:4; stroke-opacity:0.8; fill:none" stroke-dasharray="16, 10" points="373.374,222.559 913.06,589.494 1452.75,363.74 1992.43,364.422 2532.12,410.63 3071.8,363.229 "></polyline>
<polyline clip-path="url(#clip722)" style="stroke:#000000; stroke-linecap:round; stroke-linejoin:round; stroke-width:4; stroke-opacity:1; fill:none" stroke-dasharray="16, 10" points="-2567.91,402.459 6013.09,402.459 "></polyline>
<path clip-path="url(#clip720)" d="M754.983 690.583 L3057.41 690.583 L3057.41 586.903 L754.983 586.903  Z" fill="#ffffff" fill-rule="evenodd" fill-opacity="1"></path>
<polyline clip-path="url(#clip720)" style="stroke:#000000; stroke-linecap:round; stroke-linejoin:round; stroke-width:4; stroke-opacity:1; fill:none" points="754.983,690.583 3057.41,690.583 3057.41,586.903 754.983,586.903 754.983,690.583 "></polyline>
<polyline clip-path="url(#clip720)" style="stroke:#7e99f4; stroke-linecap:round; stroke-linejoin:round; stroke-width:8; stroke-opacity:1; fill:none" points="786.765,638.743 977.454,638.743 "></polyline>
<path clip-path="url(#clip720)" d="M1009.24 621.463 L1029.1 621.463 L1029.1 625.398 L1013.91 625.398 L1013.91 635.583 L1027.61 635.583 L1027.61 639.518 L1013.91 639.518 L1013.91 656.023 L1009.24 656.023 L1009.24 621.463 Z" fill="#000000" fill-rule="nonzero" fill-opacity="1"></path><path clip-path="url(#clip720)" d="M1062.38 624.125 L1062.38 629.055 Q1060.02 626.856 1057.34 625.768 Q1054.67 624.68 1051.67 624.68 Q1045.74 624.68 1042.59 628.315 Q1039.44 631.926 1039.44 638.777 Q1039.44 645.606 1042.59 649.24 Q1045.74 652.851 1051.67 652.851 Q1054.67 652.851 1057.34 651.763 Q1060.02 650.675 1062.38 648.476 L1062.38 653.361 Q1059.93 655.027 1057.17 655.861 Q1054.44 656.694 1051.39 656.694 Q1043.54 656.694 1039.03 651.902 Q1034.51 647.088 1034.51 638.777 Q1034.51 630.444 1039.03 625.652 Q1043.54 620.838 1051.39 620.838 Q1054.49 620.838 1057.22 621.671 Q1059.98 622.481 1062.38 624.125 Z" fill="#000000" fill-rule="nonzero" fill-opacity="1"></path><path clip-path="url(#clip720)" d="M1090.32 622.597 L1090.32 627.157 Q1087.66 625.884 1085.3 625.259 Q1082.94 624.634 1080.74 624.634 Q1076.92 624.634 1074.84 626.115 Q1072.78 627.597 1072.78 630.328 Q1072.78 632.62 1074.14 633.801 Q1075.53 634.958 1079.37 635.676 L1082.2 636.254 Q1087.43 637.25 1089.91 639.773 Q1092.41 642.273 1092.41 646.486 Q1092.41 651.509 1089.03 654.101 Q1085.67 656.694 1079.17 656.694 Q1076.71 656.694 1073.93 656.138 Q1071.18 655.583 1068.22 654.495 L1068.22 649.68 Q1071.06 651.277 1073.8 652.088 Q1076.53 652.898 1079.17 652.898 Q1083.17 652.898 1085.35 651.324 Q1087.52 649.75 1087.52 646.833 Q1087.52 644.287 1085.95 642.851 Q1084.4 641.416 1080.83 640.699 L1077.98 640.143 Q1072.75 639.101 1070.42 636.879 Q1068.08 634.657 1068.08 630.699 Q1068.08 626.115 1071.3 623.477 Q1074.54 620.838 1080.21 620.838 Q1082.64 620.838 1085.16 621.278 Q1087.68 621.717 1090.32 622.597 Z" fill="#000000" fill-rule="nonzero" fill-opacity="1"></path><polyline clip-path="url(#clip720)" style="stroke:#cc7c71; stroke-linecap:round; stroke-linejoin:round; stroke-width:8; stroke-opacity:1; fill:none" stroke-dasharray="32, 16, 4, 16" points="1165.21,638.743 1355.89,638.743 "></polyline>
<path clip-path="url(#clip720)" d="M1406.59 634.032 L1406.59 620.004 L1410.85 620.004 L1410.85 656.023 L1406.59 656.023 L1406.59 652.134 Q1405.25 654.449 1403.19 655.583 Q1401.15 656.694 1398.28 656.694 Q1393.58 656.694 1390.62 652.944 Q1387.68 649.194 1387.68 643.083 Q1387.68 636.972 1390.62 633.222 Q1393.58 629.472 1398.28 629.472 Q1401.15 629.472 1403.19 630.606 Q1405.25 631.717 1406.59 634.032 M1392.07 643.083 Q1392.07 647.782 1394 650.467 Q1395.94 653.129 1399.32 653.129 Q1402.7 653.129 1404.64 650.467 Q1406.59 647.782 1406.59 643.083 Q1406.59 638.384 1404.64 635.722 Q1402.7 633.037 1399.32 633.037 Q1395.94 633.037 1394 635.722 Q1392.07 638.384 1392.07 643.083 Z" fill="#000000" fill-rule="nonzero" fill-opacity="1"></path><path clip-path="url(#clip720)" d="M1420.18 634.495 L1449.85 634.495 L1449.85 638.384 L1420.18 638.384 L1420.18 634.495 M1420.18 643.939 L1449.85 643.939 L1449.85 647.875 L1420.18 647.875 L1420.18 643.939 Z" fill="#000000" fill-rule="nonzero" fill-opacity="1"></path><path clip-path="url(#clip720)" d="M1459.99 621.463 L1478.35 621.463 L1478.35 625.398 L1464.27 625.398 L1464.27 633.87 Q1465.29 633.523 1466.31 633.361 Q1467.33 633.176 1468.35 633.176 Q1474.13 633.176 1477.51 636.347 Q1480.89 639.518 1480.89 644.935 Q1480.89 650.513 1477.42 653.615 Q1473.95 656.694 1467.63 656.694 Q1465.45 656.694 1463.19 656.324 Q1460.94 655.953 1458.53 655.213 L1458.53 650.513 Q1460.62 651.648 1462.84 652.203 Q1465.06 652.759 1467.54 652.759 Q1471.54 652.759 1473.88 650.652 Q1476.22 648.546 1476.22 644.935 Q1476.22 641.324 1473.88 639.217 Q1471.54 637.111 1467.54 637.111 Q1465.66 637.111 1463.79 637.527 Q1461.94 637.944 1459.99 638.824 L1459.99 621.463 Z" fill="#000000" fill-rule="nonzero" fill-opacity="1"></path><polyline clip-path="url(#clip720)" style="stroke:#3da44d; stroke-linecap:round; stroke-linejoin:round; stroke-width:4; stroke-opacity:0.8; fill:none" stroke-dasharray="16, 10" points="1543.65,638.743 1734.34,638.743 "></polyline>
<path clip-path="url(#clip720)" d="M1785.03 634.032 L1785.03 620.004 L1789.29 620.004 L1789.29 656.023 L1785.03 656.023 L1785.03 652.134 Q1783.69 654.449 1781.63 655.583 Q1779.59 656.694 1776.72 656.694 Q1772.02 656.694 1769.06 652.944 Q1766.12 649.194 1766.12 643.083 Q1766.12 636.972 1769.06 633.222 Q1772.02 629.472 1776.72 629.472 Q1779.59 629.472 1781.63 630.606 Q1783.69 631.717 1785.03 634.032 M1770.52 643.083 Q1770.52 647.782 1772.44 650.467 Q1774.38 653.129 1777.76 653.129 Q1781.14 653.129 1783.09 650.467 Q1785.03 647.782 1785.03 643.083 Q1785.03 638.384 1783.09 635.722 Q1781.14 633.037 1777.76 633.037 Q1774.38 633.037 1772.44 635.722 Q1770.52 638.384 1770.52 643.083 Z" fill="#000000" fill-rule="nonzero" fill-opacity="1"></path><path clip-path="url(#clip720)" d="M1798.62 634.495 L1828.29 634.495 L1828.29 638.384 L1798.62 638.384 L1798.62 634.495 M1798.62 643.939 L1828.29 643.939 L1828.29 647.875 L1798.62 647.875 L1798.62 643.939 Z" fill="#000000" fill-rule="nonzero" fill-opacity="1"></path><path clip-path="url(#clip720)" d="M1838.52 655.305 L1838.52 651.046 Q1840.28 651.879 1842.09 652.319 Q1843.89 652.759 1845.63 652.759 Q1850.26 652.759 1852.69 649.657 Q1855.14 646.532 1855.49 640.189 Q1854.15 642.18 1852.09 643.245 Q1850.03 644.31 1847.53 644.31 Q1842.34 644.31 1839.31 641.185 Q1836.3 638.037 1836.3 632.597 Q1836.3 627.273 1839.45 624.055 Q1842.6 620.838 1847.83 620.838 Q1853.83 620.838 1856.97 625.444 Q1860.14 630.027 1860.14 638.777 Q1860.14 646.949 1856.26 651.833 Q1852.39 656.694 1845.84 656.694 Q1844.08 656.694 1842.27 656.347 Q1840.47 656 1838.52 655.305 M1847.83 640.652 Q1850.98 640.652 1852.81 638.5 Q1854.66 636.347 1854.66 632.597 Q1854.66 628.87 1852.81 626.717 Q1850.98 624.541 1847.83 624.541 Q1844.68 624.541 1842.83 626.717 Q1841 628.87 1841 632.597 Q1841 636.347 1842.83 638.5 Q1844.68 640.652 1847.83 640.652 Z" fill="#000000" fill-rule="nonzero" fill-opacity="1"></path><polyline clip-path="url(#clip720)" style="stroke:#c271d2; stroke-linecap:round; stroke-linejoin:round; stroke-width:4; stroke-opacity:0.8; fill:none" stroke-dasharray="16, 10" points="1922.09,638.743 2112.78,638.743 "></polyline>
<path clip-path="url(#clip720)" d="M2163.47 634.032 L2163.47 620.004 L2167.73 620.004 L2167.73 656.023 L2163.47 656.023 L2163.47 652.134 Q2162.13 654.449 2160.07 655.583 Q2158.03 656.694 2155.16 656.694 Q2150.46 656.694 2147.5 652.944 Q2144.56 649.194 2144.56 643.083 Q2144.56 636.972 2147.5 633.222 Q2150.46 629.472 2155.16 629.472 Q2158.03 629.472 2160.07 630.606 Q2162.13 631.717 2163.47 634.032 M2148.96 643.083 Q2148.96 647.782 2150.88 650.467 Q2152.82 653.129 2156.2 653.129 Q2159.58 653.129 2161.53 650.467 Q2163.47 647.782 2163.47 643.083 Q2163.47 638.384 2161.53 635.722 Q2159.58 633.037 2156.2 633.037 Q2152.82 633.037 2150.88 635.722 Q2148.96 638.384 2148.96 643.083 Z" fill="#000000" fill-rule="nonzero" fill-opacity="1"></path><path clip-path="url(#clip720)" d="M2177.06 634.495 L2206.73 634.495 L2206.73 638.384 L2177.06 638.384 L2177.06 634.495 M2177.06 643.939 L2206.73 643.939 L2206.73 647.875 L2177.06 647.875 L2177.06 643.939 Z" fill="#000000" fill-rule="nonzero" fill-opacity="1"></path><path clip-path="url(#clip720)" d="M2217.64 652.088 L2225.28 652.088 L2225.28 625.722 L2216.97 627.389 L2216.97 623.129 L2225.23 621.463 L2229.91 621.463 L2229.91 652.088 L2237.54 652.088 L2237.54 656.023 L2217.64 656.023 L2217.64 652.088 Z" fill="#000000" fill-rule="nonzero" fill-opacity="1"></path><path clip-path="url(#clip720)" d="M2247.03 621.463 L2265.39 621.463 L2265.39 625.398 L2251.32 625.398 L2251.32 633.87 Q2252.34 633.523 2253.35 633.361 Q2254.37 633.176 2255.39 633.176 Q2261.18 633.176 2264.56 636.347 Q2267.94 639.518 2267.94 644.935 Q2267.94 650.513 2264.47 653.615 Q2260.99 656.694 2254.67 656.694 Q2252.5 656.694 2250.23 656.324 Q2247.98 655.953 2245.58 655.213 L2245.58 650.513 Q2247.66 651.648 2249.88 652.203 Q2252.1 652.759 2254.58 652.759 Q2258.59 652.759 2260.92 650.652 Q2263.26 648.546 2263.26 644.935 Q2263.26 641.324 2260.92 639.217 Q2258.59 637.111 2254.58 637.111 Q2252.71 637.111 2250.83 637.527 Q2248.98 637.944 2247.03 638.824 L2247.03 621.463 Z" fill="#000000" fill-rule="nonzero" fill-opacity="1"></path><polyline clip-path="url(#clip720)" style="stroke:#ac8d18; stroke-linecap:round; stroke-linejoin:round; stroke-width:4; stroke-opacity:0.8; fill:none" stroke-dasharray="16, 10" points="2300.53,638.743 2491.22,638.743 "></polyline>
<path clip-path="url(#clip720)" d="M2541.91 634.032 L2541.91 620.004 L2546.17 620.004 L2546.17 656.023 L2541.91 656.023 L2541.91 652.134 Q2540.57 654.449 2538.51 655.583 Q2536.47 656.694 2533.6 656.694 Q2528.9 656.694 2525.94 652.944 Q2523 649.194 2523 643.083 Q2523 636.972 2525.94 633.222 Q2528.9 629.472 2533.6 629.472 Q2536.47 629.472 2538.51 630.606 Q2540.57 631.717 2541.91 634.032 M2527.4 643.083 Q2527.4 647.782 2529.32 650.467 Q2531.26 653.129 2534.64 653.129 Q2538.02 653.129 2539.97 650.467 Q2541.91 647.782 2541.91 643.083 Q2541.91 638.384 2539.97 635.722 Q2538.02 633.037 2534.64 633.037 Q2531.26 633.037 2529.32 635.722 Q2527.4 638.384 2527.4 643.083 Z" fill="#000000" fill-rule="nonzero" fill-opacity="1"></path><path clip-path="url(#clip720)" d="M2555.5 634.495 L2585.18 634.495 L2585.18 638.384 L2555.5 638.384 L2555.5 634.495 M2555.5 643.939 L2585.18 643.939 L2585.18 647.875 L2555.5 647.875 L2555.5 643.939 Z" fill="#000000" fill-rule="nonzero" fill-opacity="1"></path><path clip-path="url(#clip720)" d="M2596.08 652.088 L2603.72 652.088 L2603.72 625.722 L2595.41 627.389 L2595.41 623.129 L2603.67 621.463 L2608.35 621.463 L2608.35 652.088 L2615.99 652.088 L2615.99 656.023 L2596.08 656.023 L2596.08 652.088 Z" fill="#000000" fill-rule="nonzero" fill-opacity="1"></path><path clip-path="url(#clip720)" d="M2625.57 655.305 L2625.57 651.046 Q2627.33 651.879 2629.13 652.319 Q2630.94 652.759 2632.68 652.759 Q2637.3 652.759 2639.74 649.657 Q2642.19 646.532 2642.54 640.189 Q2641.19 642.18 2639.13 643.245 Q2637.07 644.31 2634.57 644.31 Q2629.39 644.31 2626.36 641.185 Q2623.35 638.037 2623.35 632.597 Q2623.35 627.273 2626.49 624.055 Q2629.64 620.838 2634.87 620.838 Q2640.87 620.838 2644.02 625.444 Q2647.19 630.027 2647.19 638.777 Q2647.19 646.949 2643.3 651.833 Q2639.43 656.694 2632.88 656.694 Q2631.12 656.694 2629.32 656.347 Q2627.51 656 2625.57 655.305 M2634.87 640.652 Q2638.02 640.652 2639.85 638.5 Q2641.7 636.347 2641.7 632.597 Q2641.7 628.87 2639.85 626.717 Q2638.02 624.541 2634.87 624.541 Q2631.73 624.541 2629.87 626.717 Q2628.05 628.87 2628.05 632.597 Q2628.05 636.347 2629.87 638.5 Q2631.73 640.652 2634.87 640.652 Z" fill="#000000" fill-rule="nonzero" fill-opacity="1"></path><polyline clip-path="url(#clip720)" style="stroke:#00a9ad; stroke-linecap:round; stroke-linejoin:round; stroke-width:4; stroke-opacity:0.8; fill:none" stroke-dasharray="16, 10" points="2678.97,638.743 2869.66,638.743 "></polyline>
<path clip-path="url(#clip720)" d="M2920.35 634.032 L2920.35 620.004 L2924.61 620.004 L2924.61 656.023 L2920.35 656.023 L2920.35 652.134 Q2919.01 654.449 2916.95 655.583 Q2914.91 656.694 2912.04 656.694 Q2907.34 656.694 2904.38 652.944 Q2901.44 649.194 2901.44 643.083 Q2901.44 636.972 2904.38 633.222 Q2907.34 629.472 2912.04 629.472 Q2914.91 629.472 2916.95 630.606 Q2919.01 631.717 2920.35 634.032 M2905.84 643.083 Q2905.84 647.782 2907.76 650.467 Q2909.7 653.129 2913.08 653.129 Q2916.46 653.129 2918.41 650.467 Q2920.35 647.782 2920.35 643.083 Q2920.35 638.384 2918.41 635.722 Q2916.46 633.037 2913.08 633.037 Q2909.7 633.037 2907.76 635.722 Q2905.84 638.384 2905.84 643.083 Z" fill="#000000" fill-rule="nonzero" fill-opacity="1"></path><path clip-path="url(#clip720)" d="M2933.94 634.495 L2963.62 634.495 L2963.62 638.384 L2933.94 638.384 L2933.94 634.495 M2933.94 643.939 L2963.62 643.939 L2963.62 647.875 L2933.94 647.875 L2933.94 643.939 Z" fill="#000000" fill-rule="nonzero" fill-opacity="1"></path><path clip-path="url(#clip720)" d="M2977.74 652.088 L2994.06 652.088 L2994.06 656.023 L2972.11 656.023 L2972.11 652.088 Q2974.77 649.333 2979.36 644.703 Q2983.96 640.051 2985.14 638.708 Q2987.39 636.185 2988.27 634.449 Q2989.17 632.689 2989.17 631 Q2989.17 628.245 2987.23 626.509 Q2985.31 624.773 2982.2 624.773 Q2980.01 624.773 2977.55 625.537 Q2975.12 626.301 2972.34 627.852 L2972.34 623.129 Q2975.17 621.995 2977.62 621.416 Q2980.07 620.838 2982.11 620.838 Q2987.48 620.838 2990.68 623.523 Q2993.87 626.208 2993.87 630.699 Q2993.87 632.828 2993.06 634.75 Q2992.27 636.648 2990.17 639.24 Q2989.59 639.912 2986.49 643.129 Q2983.38 646.324 2977.74 652.088 Z" fill="#000000" fill-rule="nonzero" fill-opacity="1"></path><path clip-path="url(#clip720)" d="M3018.04 637.389 Q3021.39 638.106 3023.27 640.375 Q3025.17 642.643 3025.17 645.976 Q3025.17 651.092 3021.65 653.893 Q3018.13 656.694 3011.65 656.694 Q3009.47 656.694 3007.16 656.254 Q3004.87 655.838 3002.41 654.981 L3002.41 650.467 Q3004.36 651.601 3006.67 652.18 Q3008.99 652.759 3011.51 652.759 Q3015.91 652.759 3018.2 651.023 Q3020.51 649.287 3020.51 645.976 Q3020.51 642.921 3018.36 641.208 Q3016.23 639.472 3012.41 639.472 L3008.38 639.472 L3008.38 635.629 L3012.6 635.629 Q3016.05 635.629 3017.88 634.264 Q3019.7 632.875 3019.7 630.282 Q3019.7 627.62 3017.81 626.208 Q3015.93 624.773 3012.41 624.773 Q3010.49 624.773 3008.29 625.19 Q3006.09 625.606 3003.45 626.486 L3003.45 622.319 Q3006.12 621.578 3008.43 621.208 Q3010.77 620.838 3012.83 620.838 Q3018.15 620.838 3021.25 623.268 Q3024.36 625.676 3024.36 629.796 Q3024.36 632.666 3022.71 634.657 Q3021.07 636.625 3018.04 637.389 Z" fill="#000000" fill-rule="nonzero" fill-opacity="1"></path></svg>