<svg xmlns="http://www.w3.org/2000/svg" xmlns:xlink="http://www.w3.org/1999/xlink" width="800" height="200" viewBox="0 0 3200 800">
<defs>
  <clipPath id="clip360">
    <rect x="0" y="0" width="3200" height="800"></rect>
  </clipPath>
</defs>
<path clip-path="url(#clip360)" d="M0 800 L3200 800 L3200 0 L0 0  Z" fill="#ffffff" fill-rule="evenodd" fill-opacity="1"></path>
<defs>
  <clipPath id="clip361">
    <rect x="640" y="0" width="2241" height="800"></rect>
  </clipPath>
</defs>
<path clip-path="url(#clip360)" d="M232.584 711.442 L3152.76 711.442 L3152.76 85.6721 L232.584 85.6721  Z" fill="#ffffff" fill-rule="evenodd" fill-opacity="1"></path>
<defs>
  <clipPath id="clip362">
    <rect x="232" y="85" width="2921" height="627"></rect>
  </clipPath>
</defs>
<polyline clip-path="url(#clip362)" style="stroke:#000000; stroke-linecap:round; stroke-linejoin:round; stroke-width:2; stroke-opacity:0.1; fill:none" points="315.23,711.442 315.23,85.6721 "></polyline>
<polyline clip-path="url(#clip362)" style="stroke:#000000; stroke-linecap:round; stroke-linejoin:round; stroke-width:2; stroke-opacity:0.1; fill:none" points="866.206,711.442 866.206,85.6721 "></polyline>
<polyline clip-path="url(#clip362)" style="stroke:#000000; stroke-linecap:round; stroke-linejoin:round; stroke-width:2; stroke-opacity:0.1; fill:none" points="1417.18,711.442 1417.18,85.6721 "></polyline>
<polyline clip-path="url(#clip362)" style="stroke:#000000; stroke-linecap:round; stroke-linejoin:round; stroke-width:2; stroke-opacity:0.1; fill:none" points="1968.16,711.442 1968.16,85.6721 "></polyline>
<polyline clip-path="url(#clip362)" style="stroke:#000000; stroke-linecap:round; stroke-linejoin:round; stroke-width:2; stroke-opacity:0.1; fill:none" points="2519.13,711.442 2519.13,85.6721 "></polyline>
<polyline clip-path="url(#clip362)" style="stroke:#000000; stroke-linecap:round; stroke-linejoin:round; stroke-width:2; stroke-opacity:0.1; fill:none" points="3070.11,711.442 3070.11,85.6721 "></polyline>
<polyline clip-path="url(#clip362)" style="stroke:#000000; stroke-linecap:round; stroke-linejoin:round; stroke-width:2; stroke-opacity:0.1; fill:none" points="232.584,622.046 3152.76,622.046 "></polyline>
<polyline clip-path="url(#clip362)" style="stroke:#000000; stroke-linecap:round; stroke-linejoin:round; stroke-width:2; stroke-opacity:0.1; fill:none" points="232.584,443.255 3152.76,443.255 "></polyline>
<polyline clip-path="url(#clip362)" style="stroke:#000000; stroke-linecap:round; stroke-linejoin:round; stroke-width:2; stroke-opacity:0.1; fill:none" points="232.584,264.463 3152.76,264.463 "></polyline>
<polyline clip-path="url(#clip362)" style="stroke:#000000; stroke-linecap:round; stroke-linejoin:round; stroke-width:2; stroke-opacity:0.1; fill:none" points="232.584,85.6721 3152.76,85.6721 "></polyline>
<polyline clip-path="url(#clip360)" style="stroke:#000000; stroke-linecap:round; stroke-linejoin:round; stroke-width:4; stroke-opacity:1; fill:none" points="232.584,711.442 3152.76,711.442 "></polyline>
<polyline clip-path="url(#clip360)" style="stroke:#000000; stroke-linecap:round; stroke-linejoin:round; stroke-width:4; stroke-opacity:1; fill:none" points="315.23,711.442 315.23,692.544 "></polyline>
<polyline clip-path="url(#clip360)" style="stroke:#000000; stroke-linecap:round; stroke-linejoin:round; stroke-width:4; stroke-opacity:1; fill:none" points="866.206,711.442 866.206,692.544 "></polyline>
<polyline clip-path="url(#clip360)" style="stroke:#000000; stroke-linecap:round; stroke-linejoin:round; stroke-width:4; stroke-opacity:1; fill:none" points="1417.18,711.442 1417.18,692.544 "></polyline>
<polyline clip-path="url(#clip360)" style="stroke:#000000; stroke-linecap:round; stroke-linejoin:round; stroke-width:4; stroke-opacity:1; fill:none" points="1968.16,711.442 1968.16,692.544 "></polyline>
<polyline clip-path="url(#clip360)" style="stroke:#000000; stroke-linecap:round; stroke-linejoin:round; stroke-width:4; stroke-opacity:1; fill:none" points="2519.13,711.442 2519.13,692.544 "></polyline>
<polyline clip-path="url(#clip360)" style="stroke:#000000; stroke-linecap:round; stroke-linejoin:round; stroke-width:4; stroke-opacity:1; fill:none" points="3070.11,711.442 3070.11,692.544 "></polyline>
<path clip-path="url(#clip360)" d="M288.771 791.967 L305.091 791.967 L305.091 795.902 L283.146 795.902 L283.146 791.967 Q285.808 789.212 290.392 784.582 Q294.998 779.93 296.179 778.587 Q298.424 776.064 299.304 774.328 Q300.207 772.568 300.207 770.879 Q300.207 768.124 298.262 766.388 Q296.341 764.652 293.239 764.652 Q291.04 764.652 288.586 765.416 Q286.156 766.18 283.378 767.731 L283.378 763.008 Q286.202 761.874 288.656 761.295 Q291.109 760.717 293.146 760.717 Q298.517 760.717 301.711 763.402 Q304.906 766.087 304.906 770.578 Q304.906 772.707 304.095 774.629 Q303.308 776.527 301.202 779.119 Q300.623 779.791 297.521 783.008 Q294.42 786.203 288.771 791.967 Z" fill="#000000" fill-rule="nonzero" fill-opacity="1"></path><path clip-path="url(#clip360)" d="M305.636 765.294 L311.843 765.294 L311.843 743.872 L305.091 745.226 L305.091 741.765 L311.805 740.411 L315.604 740.411 L315.604 765.294 L321.811 765.294 L321.811 768.491 L305.636 768.491 L305.636 765.294 Z" fill="#000000" fill-rule="nonzero" fill-opacity="1"></path><path clip-path="url(#clip360)" d="M337.609 742.913 Q334.675 742.913 333.19 745.809 Q331.723 748.687 331.723 754.479 Q331.723 760.253 333.19 763.15 Q334.675 766.027 337.609 766.027 Q340.562 766.027 342.029 763.15 Q343.515 760.253 343.515 754.479 Q343.515 748.687 342.029 745.809 Q340.562 742.913 337.609 742.913 M337.609 739.903 Q342.33 739.903 344.813 743.646 Q347.314 747.37 347.314 754.479 Q347.314 761.57 344.813 765.313 Q342.33 769.037 337.609 769.037 Q332.889 769.037 330.387 765.313 Q327.905 761.57 327.905 754.479 Q327.905 747.37 330.387 743.646 Q332.889 739.903 337.609 739.903 Z" fill="#000000" fill-rule="nonzero" fill-opacity="1"></path><path clip-path="url(#clip360)" d="M840.246 791.967 L856.565 791.967 L856.565 795.902 L834.621 795.902 L834.621 791.967 Q837.283 789.212 841.866 784.582 Q846.473 779.93 847.653 778.587 Q849.898 776.064 850.778 774.328 Q851.681 772.568 851.681 770.879 Q851.681 768.124 849.736 766.388 Q847.815 764.652 844.713 764.652 Q842.514 764.652 840.06 765.416 Q837.63 766.18 834.852 767.731 L834.852 763.008 Q837.676 761.874 840.13 761.295 Q842.584 760.717 844.621 760.717 Q849.991 760.717 853.185 763.402 Q856.38 766.087 856.38 770.578 Q856.38 772.707 855.57 774.629 Q854.783 776.527 852.676 779.119 Q852.097 779.791 848.996 783.008 Q845.894 786.203 840.246 791.967 Z" fill="#000000" fill-rule="nonzero" fill-opacity="1"></path><path clip-path="url(#clip360)" d="M857.11 765.294 L863.317 765.294 L863.317 743.872 L856.565 745.226 L856.565 741.765 L863.279 740.411 L867.079 740.411 L867.079 765.294 L873.285 765.294 L873.285 768.491 L857.11 768.491 L857.11 765.294 Z" fill="#000000" fill-rule="nonzero" fill-opacity="1"></path><path clip-path="url(#clip360)" d="M881.617 765.294 L887.824 765.294 L887.824 743.872 L881.072 745.226 L881.072 741.765 L887.786 740.411 L891.585 740.411 L891.585 765.294 L897.792 765.294 L897.792 768.491 L881.617 768.491 L881.617 765.294 Z" fill="#000000" fill-rule="nonzero" fill-opacity="1"></path><path clip-path="url(#clip360)" d="M1391.37 791.967 L1407.69 791.967 L1407.69 795.902 L1385.75 795.902 L1385.75 791.967 Q1388.41 789.212 1392.99 784.582 Q1397.6 779.93 1398.78 778.587 Q1401.02 776.064 1401.9 774.328 Q1402.81 772.568 1402.81 770.879 Q1402.81 768.124 1400.86 766.388 Q1398.94 764.652 1395.84 764.652 Q1393.64 764.652 1391.19 765.416 Q1388.76 766.18 1385.98 767.731 L1385.98 763.008 Q1388.8 761.874 1391.26 761.295 Q1393.71 760.717 1395.75 760.717 Q1401.12 760.717 1404.31 763.402 Q1407.51 766.087 1407.51 770.578 Q1407.51 772.707 1406.7 774.629 Q1405.91 776.527 1403.8 779.119 Q1403.22 779.791 1400.12 783.008 Q1397.02 786.203 1391.37 791.967 Z" fill="#000000" fill-rule="nonzero" fill-opacity="1"></path><path clip-path="url(#clip360)" d="M1408.24 765.294 L1414.44 765.294 L1414.44 743.872 L1407.69 745.226 L1407.69 741.765 L1414.41 740.411 L1418.2 740.411 L1418.2 765.294 L1424.41 765.294 L1424.41 768.491 L1408.24 768.491 L1408.24 765.294 Z" fill="#000000" fill-rule="nonzero" fill-opacity="1"></path><path clip-path="url(#clip360)" d="M1435.36 765.294 L1448.62 765.294 L1448.62 768.491 L1430.79 768.491 L1430.79 765.294 Q1432.95 763.056 1436.67 759.294 Q1440.42 755.514 1441.38 754.423 Q1443.2 752.373 1443.92 750.962 Q1444.65 749.533 1444.65 748.16 Q1444.65 745.922 1443.07 744.511 Q1441.51 743.101 1438.99 743.101 Q1437.2 743.101 1435.21 743.721 Q1433.23 744.342 1430.98 745.602 L1430.98 741.765 Q1433.27 740.844 1435.26 740.374 Q1437.26 739.903 1438.91 739.903 Q1443.28 739.903 1445.87 742.085 Q1448.47 744.267 1448.47 747.916 Q1448.47 749.646 1447.81 751.207 Q1447.17 752.749 1445.46 754.856 Q1444.99 755.401 1442.47 758.015 Q1439.95 760.611 1435.36 765.294 Z" fill="#000000" fill-rule="nonzero" fill-opacity="1"></path><path clip-path="url(#clip360)" d="M1941.96 791.967 L1958.28 791.967 L1958.28 795.902 L1936.34 795.902 L1936.34 791.967 Q1939 789.212 1943.58 784.582 Q1948.19 779.93 1949.37 778.587 Q1951.61 776.064 1952.49 774.328 Q1953.4 772.568 1953.4 770.879 Q1953.4 768.124 1951.45 766.388 Q1949.53 764.652 1946.43 764.652 Q1944.23 764.652 1941.78 765.416 Q1939.35 766.18 1936.57 767.731 L1936.57 763.008 Q1939.39 761.874 1941.85 761.295 Q1944.3 760.717 1946.34 760.717 Q1951.71 760.717 1954.9 763.402 Q1958.1 766.087 1958.1 770.578 Q1958.1 772.707 1957.29 774.629 Q1956.5 776.527 1954.39 779.119 Q1953.81 779.791 1950.71 783.008 Q1947.61 786.203 1941.96 791.967 Z" fill="#000000" fill-rule="nonzero" fill-opacity="1"></path><path clip-path="url(#clip360)" d="M1958.83 765.294 L1965.03 765.294 L1965.03 743.872 L1958.28 745.226 L1958.28 741.765 L1965 740.411 L1968.8 740.411 L1968.8 765.294 L1975 765.294 L1975 768.491 L1958.83 768.491 L1958.83 765.294 Z" fill="#000000" fill-rule="nonzero" fill-opacity="1"></path><path clip-path="url(#clip360)" d="M1994.19 753.351 Q1996.91 753.934 1998.44 755.777 Q1999.98 757.62 1999.98 760.329 Q1999.98 764.485 1997.12 766.761 Q1994.26 769.037 1988.99 769.037 Q1987.23 769.037 1985.35 768.679 Q1983.48 768.341 1981.49 767.645 L1981.49 763.977 Q1983.07 764.899 1984.95 765.369 Q1986.83 765.839 1988.88 765.839 Q1992.46 765.839 1994.32 764.429 Q1996.2 763.018 1996.2 760.329 Q1996.2 757.846 1994.45 756.454 Q1992.72 755.044 1989.62 755.044 L1986.34 755.044 L1986.34 751.922 L1989.77 751.922 Q1992.57 751.922 1994.05 750.812 Q1995.54 749.684 1995.54 747.577 Q1995.54 745.414 1994 744.267 Q1992.47 743.101 1989.62 743.101 Q1988.05 743.101 1986.27 743.439 Q1984.48 743.778 1982.34 744.493 L1982.34 741.107 Q1984.5 740.505 1986.38 740.204 Q1988.28 739.903 1989.95 739.903 Q1994.28 739.903 1996.8 741.878 Q1999.32 743.834 1999.32 747.182 Q1999.32 749.514 1997.98 751.132 Q1996.65 752.73 1994.19 753.351 Z" fill="#000000" fill-rule="nonzero" fill-opacity="1"></path><path clip-path="url(#clip360)" d="M2492.48 791.967 L2508.8 791.967 L2508.8 795.902 L2486.85 795.902 L2486.85 791.967 Q2489.51 789.212 2494.1 784.582 Q2498.7 779.93 2499.88 778.587 Q2502.13 776.064 2503.01 774.328 Q2503.91 772.568 2503.91 770.879 Q2503.91 768.124 2501.97 766.388 Q2500.05 764.652 2496.94 764.652 Q2494.75 764.652 2492.29 765.416 Q2489.86 766.18 2487.08 767.731 L2487.08 763.008 Q2489.91 761.874 2492.36 761.295 Q2494.82 760.717 2496.85 760.717 Q2502.22 760.717 2505.42 763.402 Q2508.61 766.087 2508.61 770.578 Q2508.61 772.707 2507.8 774.629 Q2507.01 776.527 2504.91 779.119 Q2504.33 779.791 2501.23 783.008 Q2498.13 786.203 2492.48 791.967 Z" fill="#000000" fill-rule="nonzero" fill-opacity="1"></path><path clip-path="url(#clip360)" d="M2509.34 765.294 L2515.55 765.294 L2515.55 743.872 L2508.8 745.226 L2508.8 741.765 L2515.51 740.411 L2519.31 740.411 L2519.31 765.294 L2525.52 765.294 L2525.52 768.491 L2509.34 768.491 L2509.34 765.294 Z" fill="#000000" fill-rule="nonzero" fill-opacity="1"></path><path clip-path="url(#clip360)" d="M2543.63 743.721 L2534.04 758.711 L2543.63 758.711 L2543.63 743.721 M2542.63 740.411 L2547.41 740.411 L2547.41 758.711 L2551.42 758.711 L2551.42 761.871 L2547.41 761.871 L2547.41 768.491 L2543.63 768.491 L2543.63 761.871 L2530.95 761.871 L2530.95 758.203 L2542.63 740.411 Z" fill="#000000" fill-rule="nonzero" fill-opacity="1"></path><path clip-path="url(#clip360)" d="M3044.05 791.967 L3060.37 791.967 L3060.37 795.902 L3038.43 795.902 L3038.43 791.967 Q3041.09 789.212 3045.68 784.582 Q3050.28 779.93 3051.46 778.587 Q3053.71 776.064 3054.59 774.328 Q3055.49 772.568 3055.49 770.879 Q3055.49 768.124 3053.55 766.388 Q3051.62 764.652 3048.52 764.652 Q3046.32 764.652 3043.87 765.416 Q3041.44 766.18 3038.66 767.731 L3038.66 763.008 Q3041.49 761.874 3043.94 761.295 Q3046.39 760.717 3048.43 760.717 Q3053.8 760.717 3056.99 763.402 Q3060.19 766.087 3060.19 770.578 Q3060.19 772.707 3059.38 774.629 Q3058.59 776.527 3056.49 779.119 Q3055.91 779.791 3052.8 783.008 Q3049.7 786.203 3044.05 791.967 Z" fill="#000000" fill-rule="nonzero" fill-opacity="1"></path><path clip-path="url(#clip360)" d="M3060.92 765.294 L3067.13 765.294 L3067.13 743.872 L3060.37 745.226 L3060.37 741.765 L3067.09 740.411 L3070.89 740.411 L3070.89 765.294 L3077.09 765.294 L3077.09 768.491 L3060.92 768.491 L3060.92 765.294 Z" fill="#000000" fill-rule="nonzero" fill-opacity="1"></path><path clip-path="url(#clip360)" d="M3084.81 740.411 L3099.72 740.411 L3099.72 743.609 L3088.29 743.609 L3088.29 750.492 Q3089.11 750.21 3089.94 750.078 Q3090.77 749.928 3091.6 749.928 Q3096.3 749.928 3099.04 752.505 Q3101.79 755.081 3101.79 759.482 Q3101.79 764.015 3098.97 766.535 Q3096.15 769.037 3091.01 769.037 Q3089.24 769.037 3087.4 768.736 Q3085.58 768.435 3083.62 767.833 L3083.62 764.015 Q3085.31 764.937 3087.12 765.388 Q3088.92 765.839 3090.94 765.839 Q3094.19 765.839 3096.09 764.128 Q3097.99 762.416 3097.99 759.482 Q3097.99 756.548 3096.09 754.837 Q3094.19 753.125 3090.94 753.125 Q3089.41 753.125 3087.89 753.464 Q3086.39 753.802 3084.81 754.517 L3084.81 740.411 Z" fill="#000000" fill-rule="nonzero" fill-opacity="1"></path><polyline clip-path="url(#clip360)" style="stroke:#000000; stroke-linecap:round; stroke-linejoin:round; stroke-width:4; stroke-opacity:1; fill:none" points="232.584,711.442 232.584,85.6721 "></polyline>
<polyline clip-path="url(#clip360)" style="stroke:#000000; stroke-linecap:round; stroke-linejoin:round; stroke-width:4; stroke-opacity:1; fill:none" points="232.584,622.046 251.482,622.046 "></polyline>
<polyline clip-path="url(#clip360)" style="stroke:#000000; stroke-linecap:round; stroke-linejoin:round; stroke-width:4; stroke-opacity:1; fill:none" points="232.584,443.255 251.482,443.255 "></polyline>
<polyline clip-path="url(#clip360)" style="stroke:#000000; stroke-linecap:round; stroke-linejoin:round; stroke-width:4; stroke-opacity:1; fill:none" points="232.584,264.463 251.482,264.463 "></polyline>
<polyline clip-path="url(#clip360)" style="stroke:#000000; stroke-linecap:round; stroke-linejoin:round; stroke-width:4; stroke-opacity:1; fill:none" points="232.584,85.6721 251.482,85.6721 "></polyline>
<path clip-path="url(#clip360)" d="M47.3162 622.497 L76.992 622.497 L76.992 626.433 L47.3162 626.433 L47.3162 622.497 Z" fill="#000000" fill-rule="nonzero" fill-opacity="1"></path><path clip-path="url(#clip360)" d="M97.0845 607.845 Q93.4734 607.845 91.6447 611.41 Q89.8391 614.951 89.8391 622.081 Q89.8391 629.187 91.6447 632.752 Q93.4734 636.294 97.0845 636.294 Q100.719 636.294 102.524 632.752 Q104.353 629.187 104.353 622.081 Q104.353 614.951 102.524 611.41 Q100.719 607.845 97.0845 607.845 M97.0845 604.141 Q102.895 604.141 105.95 608.747 Q109.029 613.331 109.029 622.081 Q109.029 630.808 105.95 635.414 Q102.895 639.997 97.0845 639.997 Q91.2743 639.997 88.1956 635.414 Q85.1401 630.808 85.1401 622.081 Q85.1401 613.331 88.1956 608.747 Q91.2743 604.141 97.0845 604.141 Z" fill="#000000" fill-rule="nonzero" fill-opacity="1"></path><path clip-path="url(#clip360)" d="M117.246 633.446 L122.131 633.446 L122.131 639.326 L117.246 639.326 L117.246 633.446 Z" fill="#000000" fill-rule="nonzero" fill-opacity="1"></path><path clip-path="url(#clip360)" d="M142.316 607.845 Q138.705 607.845 136.876 611.41 Q135.07 614.951 135.07 622.081 Q135.07 629.187 136.876 632.752 Q138.705 636.294 142.316 636.294 Q145.95 636.294 147.755 632.752 Q149.584 629.187 149.584 622.081 Q149.584 614.951 147.755 611.41 Q145.95 607.845 142.316 607.845 M142.316 604.141 Q148.126 604.141 151.181 608.747 Q154.26 613.331 154.26 622.081 Q154.26 630.808 151.181 635.414 Q148.126 639.997 142.316 639.997 Q136.506 639.997 133.427 635.414 Q130.371 630.808 130.371 622.081 Q130.371 613.331 133.427 608.747 Q136.506 604.141 142.316 604.141 Z" fill="#000000" fill-rule="nonzero" fill-opacity="1"></path><path clip-path="url(#clip360)" d="M173.056 620.183 Q169.908 620.183 168.056 622.335 Q166.228 624.488 166.228 628.238 Q166.228 631.965 168.056 634.141 Q169.908 636.294 173.056 636.294 Q176.204 636.294 178.033 634.141 Q179.885 631.965 179.885 628.238 Q179.885 624.488 178.033 622.335 Q176.204 620.183 173.056 620.183 M182.339 605.53 L182.339 609.789 Q180.579 608.956 178.774 608.516 Q176.991 608.076 175.232 608.076 Q170.603 608.076 168.149 611.201 Q165.718 614.326 165.371 620.646 Q166.737 618.632 168.797 617.567 Q170.857 616.479 173.334 616.479 Q178.542 616.479 181.552 619.65 Q184.584 622.798 184.584 628.238 Q184.584 633.562 181.436 636.78 Q178.288 639.997 173.056 639.997 Q167.061 639.997 163.89 635.414 Q160.718 630.808 160.718 622.081 Q160.718 613.886 164.607 609.025 Q168.496 604.141 175.047 604.141 Q176.806 604.141 178.589 604.488 Q180.394 604.835 182.339 605.53 Z" fill="#000000" fill-rule="nonzero" fill-opacity="1"></path><path clip-path="url(#clip360)" d="M46.9921 443.706 L76.6679 443.706 L76.6679 447.641 L46.9921 447.641 L46.9921 443.706 Z" fill="#000000" fill-rule="nonzero" fill-opacity="1"></path><path clip-path="url(#clip360)" d="M96.7604 429.053 Q93.1493 429.053 91.3206 432.618 Q89.515 436.16 89.515 443.289 Q89.515 450.396 91.3206 453.961 Q93.1493 457.502 96.7604 457.502 Q100.395 457.502 102.2 453.961 Q104.029 450.396 104.029 443.289 Q104.029 436.16 102.2 432.618 Q100.395 429.053 96.7604 429.053 M96.7604 425.35 Q102.571 425.35 105.626 429.956 Q108.705 434.539 108.705 443.289 Q108.705 452.016 105.626 456.623 Q102.571 461.206 96.7604 461.206 Q90.9502 461.206 87.8715 456.623 Q84.816 452.016 84.816 443.289 Q84.816 434.539 87.8715 429.956 Q90.9502 425.35 96.7604 425.35 Z" fill="#000000" fill-rule="nonzero" fill-opacity="1"></path><path clip-path="url(#clip360)" d="M116.922 454.655 L121.807 454.655 L121.807 460.535 L116.922 460.535 L116.922 454.655 Z" fill="#000000" fill-rule="nonzero" fill-opacity="1"></path><path clip-path="url(#clip360)" d="M141.992 429.053 Q138.381 429.053 136.552 432.618 Q134.746 436.16 134.746 443.289 Q134.746 450.396 136.552 453.961 Q138.381 457.502 141.992 457.502 Q145.626 457.502 147.431 453.961 Q149.26 450.396 149.26 443.289 Q149.26 436.16 147.431 432.618 Q145.626 429.053 141.992 429.053 M141.992 425.35 Q147.802 425.35 150.857 429.956 Q153.936 434.539 153.936 443.289 Q153.936 452.016 150.857 456.623 Q147.802 461.206 141.992 461.206 Q136.181 461.206 133.103 456.623 Q130.047 452.016 130.047 443.289 Q130.047 434.539 133.103 429.956 Q136.181 425.35 141.992 425.35 Z" fill="#000000" fill-rule="nonzero" fill-opacity="1"></path><path clip-path="url(#clip360)" d="M175.001 430.049 L163.195 448.498 L175.001 448.498 L175.001 430.049 M173.774 425.975 L179.653 425.975 L179.653 448.498 L184.584 448.498 L184.584 452.387 L179.653 452.387 L179.653 460.535 L175.001 460.535 L175.001 452.387 L159.399 452.387 L159.399 447.873 L173.774 425.975 Z" fill="#000000" fill-rule="nonzero" fill-opacity="1"></path><path clip-path="url(#clip360)" d="M49.0754 264.915 L78.7512 264.915 L78.7512 268.85 L49.0754 268.85 L49.0754 264.915 Z" fill="#000000" fill-rule="nonzero" fill-opacity="1"></path><path clip-path="url(#clip360)" d="M98.8437 250.262 Q95.2326 250.262 93.4039 253.827 Q91.5984 257.369 91.5984 264.498 Q91.5984 271.605 93.4039 275.169 Q95.2326 278.711 98.8437 278.711 Q102.478 278.711 104.283 275.169 Q106.112 271.605 106.112 264.498 Q106.112 257.369 104.283 253.827 Q102.478 250.262 98.8437 250.262 M98.8437 246.558 Q104.654 246.558 107.709 251.165 Q110.788 255.748 110.788 264.498 Q110.788 273.225 107.709 277.831 Q104.654 282.415 98.8437 282.415 Q93.0335 282.415 89.9549 277.831 Q86.8993 273.225 86.8993 264.498 Q86.8993 255.748 89.9549 251.165 Q93.0335 246.558 98.8437 246.558 Z" fill="#000000" fill-rule="nonzero" fill-opacity="1"></path><path clip-path="url(#clip360)" d="M119.006 275.864 L123.89 275.864 L123.89 281.743 L119.006 281.743 L119.006 275.864 Z" fill="#000000" fill-rule="nonzero" fill-opacity="1"></path><path clip-path="url(#clip360)" d="M144.075 250.262 Q140.464 250.262 138.635 253.827 Q136.83 257.369 136.83 264.498 Q136.83 271.605 138.635 275.169 Q140.464 278.711 144.075 278.711 Q147.709 278.711 149.515 275.169 Q151.343 271.605 151.343 264.498 Q151.343 257.369 149.515 253.827 Q147.709 250.262 144.075 250.262 M144.075 246.558 Q149.885 246.558 152.941 251.165 Q156.019 255.748 156.019 264.498 Q156.019 273.225 152.941 277.831 Q149.885 282.415 144.075 282.415 Q138.265 282.415 135.186 277.831 Q132.131 273.225 132.131 264.498 Q132.131 255.748 135.186 251.165 Q138.265 246.558 144.075 246.558 Z" fill="#000000" fill-rule="nonzero" fill-opacity="1"></path><path clip-path="url(#clip360)" d="M168.265 277.808 L184.584 277.808 L184.584 281.743 L162.64 281.743 L162.64 277.808 Q165.302 275.054 169.885 270.424 Q174.491 265.771 175.672 264.429 Q177.917 261.906 178.797 260.169 Q179.7 258.41 179.7 256.72 Q179.7 253.966 177.755 252.23 Q175.834 250.494 172.732 250.494 Q170.533 250.494 168.079 251.257 Q165.649 252.021 162.871 253.572 L162.871 248.85 Q165.695 247.716 168.149 247.137 Q170.603 246.558 172.64 246.558 Q178.01 246.558 181.204 249.244 Q184.399 251.929 184.399 256.419 Q184.399 258.549 183.589 260.47 Q182.802 262.369 180.695 264.961 Q180.116 265.632 177.015 268.85 Q173.913 272.044 168.265 277.808 Z" fill="#000000" fill-rule="nonzero" fill-opacity="1"></path><path clip-path="url(#clip360)" d="M97.2465 71.4708 Q93.6354 71.4708 91.8067 75.0356 Q90.0012 78.5773 90.0012 85.7068 Q90.0012 92.8133 91.8067 96.3781 Q93.6354 99.9197 97.2465 99.9197 Q100.881 99.9197 102.686 96.3781 Q104.515 92.8133 104.515 85.7068 Q104.515 78.5773 102.686 75.0356 Q100.881 71.4708 97.2465 71.4708 M97.2465 67.7671 Q103.057 67.7671 106.112 72.3736 Q109.191 76.9569 109.191 85.7068 Q109.191 94.4337 106.112 99.0401 Q103.057 103.623 97.2465 103.623 Q91.4363 103.623 88.3576 99.0401 Q85.3021 94.4337 85.3021 85.7068 Q85.3021 76.9569 88.3576 72.3736 Q91.4363 67.7671 97.2465 67.7671 Z" fill="#000000" fill-rule="nonzero" fill-opacity="1"></path><path clip-path="url(#clip360)" d="M117.408 97.0725 L122.293 97.0725 L122.293 102.952 L117.408 102.952 L117.408 97.0725 Z" fill="#000000" fill-rule="nonzero" fill-opacity="1"></path><path clip-path="url(#clip360)" d="M142.478 71.4708 Q138.867 71.4708 137.038 75.0356 Q135.232 78.5773 135.232 85.7068 Q135.232 92.8133 137.038 96.3781 Q138.867 99.9197 142.478 99.9197 Q146.112 99.9197 147.918 96.3781 Q149.746 92.8133 149.746 85.7068 Q149.746 78.5773 147.918 75.0356 Q146.112 71.4708 142.478 71.4708 M142.478 67.7671 Q148.288 67.7671 151.343 72.3736 Q154.422 76.9569 154.422 85.7068 Q154.422 94.4337 151.343 99.0401 Q148.288 103.623 142.478 103.623 Q136.668 103.623 133.589 99.0401 Q130.533 94.4337 130.533 85.7068 Q130.533 76.9569 133.589 72.3736 Q136.668 67.7671 142.478 67.7671 Z" fill="#000000" fill-rule="nonzero" fill-opacity="1"></path><path clip-path="url(#clip360)" d="M172.64 71.4708 Q169.029 71.4708 167.2 75.0356 Q165.394 78.5773 165.394 85.7068 Q165.394 92.8133 167.2 96.3781 Q169.029 99.9197 172.64 99.9197 Q176.274 99.9197 178.079 96.3781 Q179.908 92.8133 179.908 85.7068 Q179.908 78.5773 178.079 75.0356 Q176.274 71.4708 172.64 71.4708 M172.64 67.7671 Q178.45 67.7671 181.505 72.3736 Q184.584 76.9569 184.584 85.7068 Q184.584 94.4337 181.505 99.0401 Q178.45 103.623 172.64 103.623 Q166.829 103.623 163.751 99.0401 Q160.695 94.4337 160.695 85.7068 Q160.695 76.9569 163.751 72.3736 Q166.829 67.7671 172.64 67.7671 Z" fill="#000000" fill-rule="nonzero" fill-opacity="1"></path><path clip-path="url(#clip360)" d="M1493.73 14.0809 L1493.73 22.0612 Q1489.07 19.8332 1484.94 18.7395 Q1480.81 17.6457 1476.96 17.6457 Q1470.28 17.6457 1466.63 20.2383 Q1463.02 22.8309 1463.02 27.611 Q1463.02 31.6214 1465.41 33.6873 Q1467.84 35.7128 1474.57 36.9686 L1479.51 37.9813 Q1488.67 39.7232 1493 44.1387 Q1497.38 48.5136 1497.38 55.8863 Q1497.38 64.6767 1491.46 69.2137 Q1485.59 73.7508 1474.2 73.7508 Q1469.91 73.7508 1465.05 72.7785 Q1460.23 71.8063 1455.04 69.9024 L1455.04 61.4765 Q1460.03 64.2716 1464.81 65.6895 Q1469.59 67.1073 1474.2 67.1073 Q1481.21 67.1073 1485.02 64.3527 Q1488.83 61.598 1488.83 56.4939 Q1488.83 52.0379 1486.07 49.5264 Q1483.36 47.0148 1477.12 45.759 L1472.14 44.7868 Q1462.98 42.9639 1458.89 39.075 Q1454.8 35.1862 1454.8 28.2591 Q1454.8 20.2383 1460.43 15.6203 Q1466.1 11.0023 1476.03 11.0023 Q1480.28 11.0023 1484.7 11.7719 Q1489.11 12.5416 1493.73 14.0809 Z" fill="#000000" fill-rule="nonzero" fill-opacity="1"></path><path clip-path="url(#clip360)" d="M1537.16 34.9026 L1589.09 34.9026 L1589.09 41.7081 L1537.16 41.7081 L1537.16 34.9026 M1537.16 51.4303 L1589.09 51.4303 L1589.09 58.3168 L1537.16 58.3168 L1537.16 51.4303 Z" fill="#000000" fill-rule="nonzero" fill-opacity="1"></path><path clip-path="url(#clip360)" d="M1666.66 80.2727 L1666.66 86.106 L1664.15 86.106 Q1654.06 86.106 1650.62 83.1084 Q1647.22 80.1107 1647.22 71.1582 L1647.22 61.4765 Q1647.22 55.3597 1645.03 53.0101 Q1642.84 50.6606 1637.09 50.6606 L1634.62 50.6606 L1634.62 44.8678 L1637.09 44.8678 Q1642.88 44.8678 1645.03 42.5588 Q1647.22 40.2093 1647.22 34.1734 L1647.22 24.4513 Q1647.22 15.4988 1650.62 12.5416 Q1654.06 9.54393 1664.15 9.54393 L1666.66 9.54393 L1666.66 15.3367 L1663.91 15.3367 Q1658.2 15.3367 1656.45 17.1191 Q1654.71 18.9015 1654.71 24.6133 L1654.71 34.6595 Q1654.71 41.0195 1652.85 43.8956 Q1651.03 46.7717 1646.57 47.7845 Q1651.07 48.8782 1652.89 51.7544 Q1654.71 54.6305 1654.71 60.9499 L1654.71 70.9961 Q1654.71 76.7079 1656.45 78.4903 Q1658.2 80.2727 1663.91 80.2727 L1666.66 80.2727 Z" fill="#000000" fill-rule="nonzero" fill-opacity="1"></path><path clip-path="url(#clip360)" d="M1687.32 65.6895 L1700.69 65.6895 L1700.69 19.5497 L1686.15 22.4663 L1686.15 15.0127 L1700.61 12.096 L1708.79 12.096 L1708.79 65.6895 L1722.16 65.6895 L1722.16 72.576 L1687.32 72.576 L1687.32 65.6895 Z" fill="#000000" fill-rule="nonzero" fill-opacity="1"></path><path clip-path="url(#clip360)" d="M1739.54 62.2867 L1748.09 62.2867 L1748.09 69.2543 L1741.44 82.2172 L1736.22 82.2172 L1739.54 69.2543 L1739.54 62.2867 Z" fill="#000000" fill-rule="nonzero" fill-opacity="1"></path><path clip-path="url(#clip360)" d="M1798.48 65.6895 L1827.04 65.6895 L1827.04 72.576 L1788.64 72.576 L1788.64 65.6895 Q1793.29 60.8689 1801.32 52.7671 Q1809.38 44.6248 1811.44 42.2752 Q1815.37 37.8598 1816.91 34.8216 Q1818.49 31.7429 1818.49 28.7857 Q1818.49 23.9651 1815.09 20.927 Q1811.73 17.8888 1806.3 17.8888 Q1802.45 17.8888 1798.16 19.2256 Q1793.9 20.5624 1789.04 23.2765 L1789.04 15.0127 Q1793.98 13.0277 1798.28 12.015 Q1802.57 11.0023 1806.14 11.0023 Q1815.53 11.0023 1821.12 15.7013 Q1826.71 20.4004 1826.71 28.2591 Q1826.71 31.9859 1825.3 35.3482 Q1823.92 38.6699 1820.23 43.2069 Q1819.22 44.3817 1813.79 50.0125 Q1808.36 55.6027 1798.48 65.6895 Z" fill="#000000" fill-rule="nonzero" fill-opacity="1"></path><path clip-path="url(#clip360)" d="M1861.71 17.4837 Q1855.39 17.4837 1852.19 23.7221 Q1849.03 29.92 1849.03 42.3968 Q1849.03 54.833 1852.19 61.0714 Q1855.39 67.2693 1861.71 67.2693 Q1868.07 67.2693 1871.23 61.0714 Q1874.43 54.833 1874.43 42.3968 Q1874.43 29.92 1871.23 23.7221 Q1868.07 17.4837 1861.71 17.4837 M1861.71 11.0023 Q1871.88 11.0023 1877.23 19.0636 Q1882.62 27.0843 1882.62 42.3968 Q1882.62 57.6687 1877.23 65.73 Q1871.88 73.7508 1861.71 73.7508 Q1851.55 73.7508 1846.16 65.73 Q1840.81 57.6687 1840.81 42.3968 Q1840.81 27.0843 1846.16 19.0636 Q1851.55 11.0023 1861.71 11.0023 Z" fill="#000000" fill-rule="nonzero" fill-opacity="1"></path><path clip-path="url(#clip360)" d="M1898.5 80.2727 L1901.33 80.2727 Q1907 80.2727 1908.7 78.5308 Q1910.45 76.7889 1910.45 70.9961 L1910.45 60.9499 Q1910.45 54.6305 1912.27 51.7544 Q1914.09 48.8782 1918.59 47.7845 Q1914.09 46.7717 1912.27 43.8956 Q1910.45 41.0195 1910.45 34.6595 L1910.45 24.6133 Q1910.45 18.861 1908.7 17.1191 Q1907 15.3367 1901.33 15.3367 L1898.5 15.3367 L1898.5 9.54393 L1901.05 9.54393 Q1911.14 9.54393 1914.5 12.5416 Q1917.9 15.4988 1917.9 24.4513 L1917.9 34.1734 Q1917.9 40.2093 1920.09 42.5588 Q1922.28 44.8678 1928.03 44.8678 L1930.54 44.8678 L1930.54 50.6606 L1928.03 50.6606 Q1922.28 50.6606 1920.09 53.0101 Q1917.9 55.3597 1917.9 61.4765 L1917.9 71.1582 Q1917.9 80.1107 1914.5 83.1084 Q1911.14 86.106 1901.05 86.106 L1898.5 86.106 L1898.5 80.2727 Z" fill="#000000" fill-rule="nonzero" fill-opacity="1"></path><path clip-path="url(#clip362)" d="M315.23 684.428 L866.206 374.653 L1417.18 294.904 L1968.16 232.572 L2519.13 394.238 L3070.11 286.028 L3070.11 279.26 L2519.13 373.205 L1968.16 192.762 L1417.18 197.815 L866.206 252.836 L315.23 378.472  Z" fill="#7e99f4" fill-rule="evenodd" fill-opacity="0.25"></path>
<polyline clip-path="url(#clip362)" style="stroke:#7e99f4; stroke-linecap:round; stroke-linejoin:round; stroke-width:8; stroke-opacity:1; fill:none" points="315.23,531.45 866.206,313.745 1417.18,246.359 1968.16,212.667 2519.13,383.721 3070.11,282.644 "></polyline>
<polyline clip-path="url(#clip362)" style="stroke:#e26f46; stroke-linecap:round; stroke-linejoin:round; stroke-width:4; stroke-opacity:0.9; fill:none" stroke-dasharray="16, 10" points="315.23,2180.88 866.206,923.756 1417.18,504.714 1968.16,661.855 2519.13,216.623 3070.11,-32.1835 "></polyline>
<polyline clip-path="url(#clip362)" style="stroke:#3da44d; stroke-linecap:round; stroke-linejoin:round; stroke-width:4; stroke-opacity:0.9; fill:none" stroke-dasharray="16, 10" points="315.23,368.426 866.206,408.819 1417.18,540.097 1968.16,641.081 2519.13,375.999 3070.11,353.278 "></polyline>
<polyline clip-path="url(#clip362)" style="stroke:#c271d2; stroke-linecap:round; stroke-linejoin:round; stroke-width:4; stroke-opacity:0.9; fill:none" stroke-dasharray="16, 10" points="315.23,-21.1045 866.206,254.735 1417.18,459.39 1968.16,343.716 2519.13,352.614 3070.11,349.277 "></polyline>
<path clip-path="url(#clip362)" d="M315.23 492.943 L866.206 482.876 L1417.18 326.991 L1968.16 331.536 L2519.13 379.111 L3070.11 327.074 L3070.11 315.336 L2519.13 344.95 L1968.16 259.73 L1417.18 181.726 L866.206 277.076 L315.23 51.6648  Z" fill="#cc7c71" fill-rule="evenodd" fill-opacity="0.25"></path>
<polyline clip-path="url(#clip362)" style="stroke:#cc7c71; stroke-linecap:round; stroke-linejoin:round; stroke-width:8; stroke-opacity:1; fill:none" stroke-dasharray="32, 16, 4, 16" points="315.23,272.304 866.206,379.976 1417.18,254.358 1968.16,295.633 2519.13,362.03 3070.11,321.205 "></polyline>
<polyline clip-path="url(#clip362)" style="stroke:#00a9ad; stroke-linecap:round; stroke-linejoin:round; stroke-width:4; stroke-opacity:0.9; fill:none" stroke-dasharray="16, 10" points="315.23,47.5419 866.206,403.424 1417.18,378.004 1968.16,176.231 2519.13,268.38 3070.11,217.142 "></polyline>
<polyline clip-path="url(#clip362)" style="stroke:#000000; stroke-linecap:round; stroke-linejoin:round; stroke-width:4; stroke-opacity:1; fill:none" stroke-dasharray="16, 10" points="-2687.59,331.073 6072.93,331.073 "></polyline>
<path clip-path="url(#clip360)" d="M720.411 690.583 L3055.42 690.583 L3055.42 586.903 L720.411 586.903  Z" fill="#ffffff" fill-rule="evenodd" fill-opacity="1"></path>
<polyline clip-path="url(#clip360)" style="stroke:#000000; stroke-linecap:round; stroke-linejoin:round; stroke-width:4; stroke-opacity:1; fill:none" points="720.411,690.583 3055.42,690.583 3055.42,586.903 720.411,586.903 720.411,690.583 "></polyline>
<polyline clip-path="url(#clip360)" style="stroke:#7e99f4; stroke-linecap:round; stroke-linejoin:round; stroke-width:8; stroke-opacity:1; fill:none" points="752.857,638.743 947.535,638.743 "></polyline>
<path clip-path="url(#clip360)" d="M979.981 621.463 L999.842 621.463 L999.842 625.398 L984.657 625.398 L984.657 635.583 L998.361 635.583 L998.361 639.518 L984.657 639.518 L984.657 656.023 L979.981 656.023 L979.981 621.463 Z" fill="#000000" fill-rule="nonzero" fill-opacity="1"></path><path clip-path="url(#clip360)" d="M1033.13 624.125 L1033.13 629.055 Q1030.77 626.856 1028.08 625.768 Q1025.42 624.68 1022.41 624.68 Q1016.49 624.68 1013.34 628.315 Q1010.19 631.926 1010.19 638.777 Q1010.19 645.606 1013.34 649.24 Q1016.49 652.851 1022.41 652.851 Q1025.42 652.851 1028.08 651.763 Q1030.77 650.675 1033.13 648.476 L1033.13 653.361 Q1030.68 655.027 1027.92 655.861 Q1025.19 656.694 1022.13 656.694 Q1014.29 656.694 1009.77 651.902 Q1005.26 647.088 1005.26 638.777 Q1005.26 630.444 1009.77 625.652 Q1014.29 620.838 1022.13 620.838 Q1025.24 620.838 1027.97 621.671 Q1030.72 622.481 1033.13 624.125 Z" fill="#000000" fill-rule="nonzero" fill-opacity="1"></path><path clip-path="url(#clip360)" d="M1061.07 622.597 L1061.07 627.157 Q1058.41 625.884 1056.05 625.259 Q1053.68 624.634 1051.49 624.634 Q1047.67 624.634 1045.58 626.115 Q1043.52 627.597 1043.52 630.328 Q1043.52 632.62 1044.89 633.801 Q1046.28 634.958 1050.12 635.676 L1052.94 636.254 Q1058.18 637.25 1060.65 639.773 Q1063.15 642.273 1063.15 646.486 Q1063.15 651.509 1059.77 654.101 Q1056.42 656.694 1049.91 656.694 Q1047.46 656.694 1044.68 656.138 Q1041.93 655.583 1038.96 654.495 L1038.96 649.68 Q1041.81 651.277 1044.54 652.088 Q1047.27 652.898 1049.91 652.898 Q1053.92 652.898 1056.09 651.324 Q1058.27 649.75 1058.27 646.833 Q1058.27 644.287 1056.69 642.851 Q1055.14 641.416 1051.58 640.699 L1048.73 640.143 Q1043.5 639.101 1041.16 636.879 Q1038.82 634.657 1038.82 630.699 Q1038.82 626.115 1042.04 623.477 Q1045.28 620.838 1050.95 620.838 Q1053.38 620.838 1055.91 621.278 Q1058.43 621.717 1061.07 622.597 Z" fill="#000000" fill-rule="nonzero" fill-opacity="1"></path><polyline clip-path="url(#clip360)" style="stroke:#e26f46; stroke-linecap:round; stroke-linejoin:round; stroke-width:4; stroke-opacity:0.9; fill:none" stroke-dasharray="16, 10" points="1136.62,638.743 1331.3,638.743 "></polyline>
<path clip-path="url(#clip360)" d="M1382.65 634.032 L1382.65 620.004 L1386.91 620.004 L1386.91 656.023 L1382.65 656.023 L1382.65 652.134 Q1381.31 654.449 1379.25 655.583 Q1377.21 656.694 1374.34 656.694 Q1369.64 656.694 1366.68 652.944 Q1363.74 649.194 1363.74 643.083 Q1363.74 636.972 1366.68 633.222 Q1369.64 629.472 1374.34 629.472 Q1377.21 629.472 1379.25 630.606 Q1381.31 631.717 1382.65 634.032 M1368.14 643.083 Q1368.14 647.782 1370.06 650.467 Q1372.01 653.129 1375.38 653.129 Q1378.76 653.129 1380.71 650.467 Q1382.65 647.782 1382.65 643.083 Q1382.65 638.384 1380.71 635.722 Q1378.76 633.037 1375.38 633.037 Q1372.01 633.037 1370.06 635.722 Q1368.14 638.384 1368.14 643.083 Z" fill="#000000" fill-rule="nonzero" fill-opacity="1"></path><path clip-path="url(#clip360)" d="M1396.24 634.495 L1425.92 634.495 L1425.92 638.384 L1396.24 638.384 L1396.24 634.495 M1396.24 643.939 L1425.92 643.939 L1425.92 647.875 L1396.24 647.875 L1396.24 643.939 Z" fill="#000000" fill-rule="nonzero" fill-opacity="1"></path><path clip-path="url(#clip360)" d="M1436.06 621.463 L1454.41 621.463 L1454.41 625.398 L1440.34 625.398 L1440.34 633.87 Q1441.36 633.523 1442.38 633.361 Q1443.39 633.176 1444.41 633.176 Q1450.2 633.176 1453.58 636.347 Q1456.96 639.518 1456.96 644.935 Q1456.96 650.513 1453.49 653.615 Q1450.01 656.694 1443.69 656.694 Q1441.52 656.694 1439.25 656.324 Q1437 655.953 1434.6 655.213 L1434.6 650.513 Q1436.68 651.648 1438.9 652.203 Q1441.13 652.759 1443.6 652.759 Q1447.61 652.759 1449.94 650.652 Q1452.28 648.546 1452.28 644.935 Q1452.28 641.324 1449.94 639.217 Q1447.61 637.111 1443.6 637.111 Q1441.73 637.111 1439.85 637.527 Q1438 637.944 1436.06 638.824 L1436.06 621.463 Z" fill="#000000" fill-rule="nonzero" fill-opacity="1"></path><polyline clip-path="url(#clip360)" style="stroke:#3da44d; stroke-linecap:round; stroke-linejoin:round; stroke-width:4; stroke-opacity:0.9; fill:none" stroke-dasharray="16, 10" points="1520.38,638.743 1715.06,638.743 "></polyline>
<path clip-path="url(#clip360)" d="M1766.41 634.032 L1766.41 620.004 L1770.67 620.004 L1770.67 656.023 L1766.41 656.023 L1766.41 652.134 Q1765.07 654.449 1763.01 655.583 Q1760.97 656.694 1758.1 656.694 Q1753.4 656.694 1750.44 652.944 Q1747.5 649.194 1747.5 643.083 Q1747.5 636.972 1750.44 633.222 Q1753.4 629.472 1758.1 629.472 Q1760.97 629.472 1763.01 630.606 Q1765.07 631.717 1766.41 634.032 M1751.9 643.083 Q1751.9 647.782 1753.82 650.467 Q1755.77 653.129 1759.14 653.129 Q1762.52 653.129 1764.47 650.467 Q1766.41 647.782 1766.41 643.083 Q1766.41 638.384 1764.47 635.722 Q1762.52 633.037 1759.14 633.037 Q1755.77 633.037 1753.82 635.722 Q1751.9 638.384 1751.9 643.083 Z" fill="#000000" fill-rule="nonzero" fill-opacity="1"></path><path clip-path="url(#clip360)" d="M1780 634.495 L1809.68 634.495 L1809.68 638.384 L1780 638.384 L1780 634.495 M1780 643.939 L1809.68 643.939 L1809.68 647.875 L1780 647.875 L1780 643.939 Z" fill="#000000" fill-rule="nonzero" fill-opacity="1"></path><path clip-path="url(#clip360)" d="M1819.91 655.305 L1819.91 651.046 Q1821.67 651.879 1823.47 652.319 Q1825.28 652.759 1827.01 652.759 Q1831.64 652.759 1834.07 649.657 Q1836.53 646.532 1836.88 640.189 Q1835.53 642.18 1833.47 643.245 Q1831.41 644.31 1828.91 644.31 Q1823.73 644.31 1820.7 641.185 Q1817.69 638.037 1817.69 632.597 Q1817.69 627.273 1820.83 624.055 Q1823.98 620.838 1829.21 620.838 Q1835.21 620.838 1838.36 625.444 Q1841.53 630.027 1841.53 638.777 Q1841.53 646.949 1837.64 651.833 Q1833.77 656.694 1827.22 656.694 Q1825.46 656.694 1823.66 656.347 Q1821.85 656 1819.91 655.305 M1829.21 640.652 Q1832.36 640.652 1834.19 638.5 Q1836.04 636.347 1836.04 632.597 Q1836.04 628.87 1834.19 626.717 Q1832.36 624.541 1829.21 624.541 Q1826.07 624.541 1824.21 626.717 Q1822.39 628.87 1822.39 632.597 Q1822.39 636.347 1824.21 638.5 Q1826.07 640.652 1829.21 640.652 Z" fill="#000000" fill-rule="nonzero" fill-opacity="1"></path><polyline clip-path="url(#clip360)" style="stroke:#c271d2; stroke-linecap:round; stroke-linejoin:round; stroke-width:4; stroke-opacity:0.9; fill:none" stroke-dasharray="16, 10" points="1904.14,638.743 2098.82,638.743 "></polyline>
<path clip-path="url(#clip360)" d="M2150.17 634.032 L2150.17 620.004 L2154.43 620.004 L2154.43 656.023 L2150.17 656.023 L2150.17 652.134 Q2148.83 654.449 2146.77 655.583 Q2144.73 656.694 2141.86 656.694 Q2137.16 656.694 2134.2 652.944 Q2131.26 649.194 2131.26 643.083 Q2131.26 636.972 2134.2 633.222 Q2137.16 629.472 2141.86 629.472 Q2144.73 629.472 2146.77 630.606 Q2148.83 631.717 2150.17 634.032 M2135.66 643.083 Q2135.66 647.782 2137.58 650.467 Q2139.53 653.129 2142.9 653.129 Q2146.28 653.129 2148.23 650.467 Q2150.17 647.782 2150.17 643.083 Q2150.17 638.384 2148.23 635.722 Q2146.28 633.037 2142.9 633.037 Q2139.53 633.037 2137.58 635.722 Q2135.66 638.384 2135.66 643.083 Z" fill="#000000" fill-rule="nonzero" fill-opacity="1"></path><path clip-path="url(#clip360)" d="M2163.76 634.495 L2193.44 634.495 L2193.44 638.384 L2163.76 638.384 L2163.76 634.495 M2163.76 643.939 L2193.44 643.939 L2193.44 647.875 L2163.76 647.875 L2163.76 643.939 Z" fill="#000000" fill-rule="nonzero" fill-opacity="1"></path><path clip-path="url(#clip360)" d="M2204.34 652.088 L2211.98 652.088 L2211.98 625.722 L2203.67 627.389 L2203.67 623.129 L2211.93 621.463 L2216.61 621.463 L2216.61 652.088 L2224.25 652.088 L2224.25 656.023 L2204.34 656.023 L2204.34 652.088 Z" fill="#000000" fill-rule="nonzero" fill-opacity="1"></path><path clip-path="url(#clip360)" d="M2233.74 621.463 L2252.09 621.463 L2252.09 625.398 L2238.02 625.398 L2238.02 633.87 Q2239.04 633.523 2240.06 633.361 Q2241.08 633.176 2242.09 633.176 Q2247.88 633.176 2251.26 636.347 Q2254.64 639.518 2254.64 644.935 Q2254.64 650.513 2251.17 653.615 Q2247.7 656.694 2241.38 656.694 Q2239.2 656.694 2236.93 656.324 Q2234.69 655.953 2232.28 655.213 L2232.28 650.513 Q2234.36 651.648 2236.58 652.203 Q2238.81 652.759 2241.28 652.759 Q2245.29 652.759 2247.63 650.652 Q2249.96 648.546 2249.96 644.935 Q2249.96 641.324 2247.63 639.217 Q2245.29 637.111 2241.28 637.111 Q2239.41 637.111 2237.53 637.527 Q2235.68 637.944 2233.74 638.824 L2233.74 621.463 Z" fill="#000000" fill-rule="nonzero" fill-opacity="1"></path><polyline clip-path="url(#clip360)" style="stroke:#cc7c71; stroke-linecap:round; stroke-linejoin:round; stroke-width:8; stroke-opacity:1; fill:none" stroke-dasharray="32, 16, 4, 16" points="2287.9,638.743 2482.57,638.743 "></polyline>
<path clip-path="url(#clip360)" d="M2533.93 634.032 L2533.93 620.004 L2538.19 620.004 L2538.19 656.023 L2533.93 656.023 L2533.93 652.134 Q2532.59 654.449 2530.53 655.583 Q2528.49 656.694 2525.62 656.694 Q2520.92 656.694 2517.96 652.944 Q2515.02 649.194 2515.02 643.083 Q2515.02 636.972 2517.96 633.222 Q2520.92 629.472 2525.62 629.472 Q2528.49 629.472 2530.53 630.606 Q2532.59 631.717 2533.93 634.032 M2519.42 643.083 Q2519.42 647.782 2521.34 650.467 Q2523.29 653.129 2526.66 653.129 Q2530.04 653.129 2531.99 650.467 Q2533.93 647.782 2533.93 643.083 Q2533.93 638.384 2531.99 635.722 Q2530.04 633.037 2526.66 633.037 Q2523.29 633.037 2521.34 635.722 Q2519.42 638.384 2519.42 643.083 Z" fill="#000000" fill-rule="nonzero" fill-opacity="1"></path><path clip-path="url(#clip360)" d="M2547.52 634.495 L2577.2 634.495 L2577.2 638.384 L2547.52 638.384 L2547.52 634.495 M2547.52 643.939 L2577.2 643.939 L2577.2 647.875 L2547.52 647.875 L2547.52 643.939 Z" fill="#000000" fill-rule="nonzero" fill-opacity="1"></path><path clip-path="url(#clip360)" d="M2588.1 652.088 L2595.74 652.088 L2595.74 625.722 L2587.43 627.389 L2587.43 623.129 L2595.69 621.463 L2600.37 621.463 L2600.37 652.088 L2608.01 652.088 L2608.01 656.023 L2588.1 656.023 L2588.1 652.088 Z" fill="#000000" fill-rule="nonzero" fill-opacity="1"></path><path clip-path="url(#clip360)" d="M2617.59 655.305 L2617.59 651.046 Q2619.35 651.879 2621.16 652.319 Q2622.96 652.759 2624.7 652.759 Q2629.33 652.759 2631.76 649.657 Q2634.21 646.532 2634.56 640.189 Q2633.22 642.18 2631.15 643.245 Q2629.09 644.31 2626.59 644.31 Q2621.41 644.31 2618.38 641.185 Q2615.37 638.037 2615.37 632.597 Q2615.37 627.273 2618.52 624.055 Q2621.66 620.838 2626.9 620.838 Q2632.89 620.838 2636.04 625.444 Q2639.21 630.027 2639.21 638.777 Q2639.21 646.949 2635.32 651.833 Q2631.46 656.694 2624.91 656.694 Q2623.15 656.694 2621.34 656.347 Q2619.53 656 2617.59 655.305 M2626.9 640.652 Q2630.04 640.652 2631.87 638.5 Q2633.72 636.347 2633.72 632.597 Q2633.72 628.87 2631.87 626.717 Q2630.04 624.541 2626.9 624.541 Q2623.75 624.541 2621.9 626.717 Q2620.07 628.87 2620.07 632.597 Q2620.07 636.347 2621.9 638.5 Q2623.75 640.652 2626.9 640.652 Z" fill="#000000" fill-rule="nonzero" fill-opacity="1"></path><polyline clip-path="url(#clip360)" style="stroke:#00a9ad; stroke-linecap:round; stroke-linejoin:round; stroke-width:4; stroke-opacity:0.9; fill:none" stroke-dasharray="16, 10" points="2671.66,638.743 2866.33,638.743 "></polyline>
<path clip-path="url(#clip360)" d="M2917.69 634.032 L2917.69 620.004 L2921.95 620.004 L2921.95 656.023 L2917.69 656.023 L2917.69 652.134 Q2916.35 654.449 2914.29 655.583 Q2912.25 656.694 2909.38 656.694 Q2904.68 656.694 2901.72 652.944 Q2898.78 649.194 2898.78 643.083 Q2898.78 636.972 2901.72 633.222 Q2904.68 629.472 2909.38 629.472 Q2912.25 629.472 2914.29 630.606 Q2916.35 631.717 2917.69 634.032 M2903.18 643.083 Q2903.18 647.782 2905.1 650.467 Q2907.05 653.129 2910.42 653.129 Q2913.8 653.129 2915.75 650.467 Q2917.69 647.782 2917.69 643.083 Q2917.69 638.384 2915.75 635.722 Q2913.8 633.037 2910.42 633.037 Q2907.05 633.037 2905.1 635.722 Q2903.18 638.384 2903.18 643.083 Z" fill="#000000" fill-rule="nonzero" fill-opacity="1"></path><path clip-path="url(#clip360)" d="M2931.28 634.495 L2960.96 634.495 L2960.96 638.384 L2931.28 638.384 L2931.28 634.495 M2931.28 643.939 L2960.96 643.939 L2960.96 647.875 L2931.28 647.875 L2931.28 643.939 Z" fill="#000000" fill-rule="nonzero" fill-opacity="1"></path><path clip-path="url(#clip360)" d="M2975.08 652.088 L2991.4 652.088 L2991.4 656.023 L2969.45 656.023 L2969.45 652.088 Q2972.11 649.333 2976.7 644.703 Q2981.3 640.051 2982.48 638.708 Q2984.73 636.185 2985.61 634.449 Q2986.51 632.689 2986.51 631 Q2986.51 628.245 2984.57 626.509 Q2982.65 624.773 2979.54 624.773 Q2977.35 624.773 2974.89 625.537 Q2972.46 626.301 2969.68 627.852 L2969.68 623.129 Q2972.51 621.995 2974.96 621.416 Q2977.42 620.838 2979.45 620.838 Q2984.82 620.838 2988.02 623.523 Q2991.21 626.208 2991.21 630.699 Q2991.21 632.828 2990.4 634.75 Q2989.61 636.648 2987.51 639.24 Q2986.93 639.912 2983.83 643.129 Q2980.73 646.324 2975.08 652.088 Z" fill="#000000" fill-rule="nonzero" fill-opacity="1"></path><path clip-path="url(#clip360)" d="M3015.38 637.389 Q3018.73 638.106 3020.61 640.375 Q3022.51 642.643 3022.51 645.976 Q3022.51 651.092 3018.99 653.893 Q3015.47 656.694 3008.99 656.694 Q3006.81 656.694 3004.5 656.254 Q3002.21 655.838 2999.75 654.981 L2999.75 650.467 Q3001.7 651.601 3004.01 652.18 Q3006.33 652.759 3008.85 652.759 Q3013.25 652.759 3015.54 651.023 Q3017.85 649.287 3017.85 645.976 Q3017.85 642.921 3015.7 641.208 Q3013.57 639.472 3009.75 639.472 L3005.73 639.472 L3005.73 635.629 L3009.94 635.629 Q3013.39 635.629 3015.22 634.264 Q3017.04 632.875 3017.04 630.282 Q3017.04 627.62 3015.15 626.208 Q3013.27 624.773 3009.75 624.773 Q3007.83 624.773 3005.63 625.19 Q3003.43 625.606 3000.79 626.486 L3000.79 622.319 Q3003.46 621.578 3005.77 621.208 Q3008.11 620.838 3010.17 620.838 Q3015.49 620.838 3018.6 623.268 Q3021.7 625.676 3021.7 629.796 Q3021.7 632.666 3020.05 634.657 Q3018.41 636.625 3015.38 637.389 Z" fill="#000000" fill-rule="nonzero" fill-opacity="1"></path></svg>