<?xml version="1.0" encoding="UTF-8"?>
<svg id="_图层_1" data-name="图层 1" xmlns="http://www.w3.org/2000/svg" version="1.1" xmlns:xlink="http://www.w3.org/1999/xlink" viewBox="0 0 800 200">
  <defs>
    <style>
      .cls-1, .cls-2, .cls-3, .cls-4, .cls-5, .cls-6, .cls-7, .cls-8, .cls-9, .cls-10 {
        fill: none;
      }

      .cls-1, .cls-2, .cls-3, .cls-4, .cls-6, .cls-7, .cls-8, .cls-9, .cls-10 {
        stroke-linecap: round;
        stroke-linejoin: round;
      }

      .cls-1, .cls-3, .cls-6, .cls-7, .cls-10 {
        stroke-dasharray: 0 0 4 2.5;
      }

      .cls-1, .cls-4, .cls-8 {
        stroke: #000;
      }

      .cls-11 {
        clip-path: url(#clippath-73);
      }

      .cls-2 {
        stroke: #7e99f4;
      }

      .cls-2, .cls-9 {
        stroke-width: 2px;
      }

      .cls-12 {
        fill: #fff;
      }

      .cls-12, .cls-13, .cls-14, .cls-15, .cls-5 {
        stroke-width: 0px;
      }

      .cls-12, .cls-13, .cls-15 {
        fill-rule: evenodd;
      }

      .cls-16 {
        clip-path: url(#clippath-72);
      }

      .cls-13 {
        fill: #7e99f4;
      }

      .cls-13, .cls-15 {
        fill-opacity: .2;
      }

      .cls-17 {
        clip-path: url(#clippath-62);
      }

      .cls-18 {
        clip-path: url(#clippath-45);
      }

      .cls-19 {
        clip-path: url(#clippath-63);
      }

      .cls-20 {
        clip-path: url(#clippath-20);
      }

      .cls-21 {
        clip-path: url(#clippath-11);
      }

      .cls-22 {
        clip-path: url(#clippath-16);
      }

      .cls-23 {
        clip-path: url(#clippath-59);
      }

      .cls-24 {
        clip-path: url(#clippath-78);
      }

      .cls-25 {
        clip-path: url(#clippath-93);
      }

      .cls-26 {
        clip-path: url(#clippath-89);
      }

      .cls-27 {
        clip-path: url(#clippath-33);
      }

      .cls-14 {
        fill: #000;
      }

      .cls-28 {
        clip-path: url(#clippath-64);
      }

      .cls-29 {
        clip-path: url(#clippath-47);
      }

      .cls-30 {
        clip-path: url(#clippath-94);
      }

      .cls-31 {
        clip-path: url(#clippath-77);
      }

      .cls-32 {
        clip-path: url(#clippath-41);
      }

      .cls-33 {
        clip-path: url(#clippath-32);
      }

      .cls-34 {
        clip-path: url(#clippath-108);
      }

      .cls-35 {
        clip-path: url(#clippath-112);
      }

      .cls-36 {
        clip-path: url(#clippath-87);
      }

      .cls-15 {
        fill: #cc7c71;
      }

      .cls-3 {
        stroke: #e26f46;
      }

      .cls-3, .cls-6, .cls-7, .cls-10 {
        stroke-opacity: .8;
      }

      .cls-37 {
        clip-path: url(#clippath-83);
      }

      .cls-38 {
        clip-path: url(#clippath-105);
      }

      .cls-39 {
        clip-path: url(#clippath-2);
      }

      .cls-40 {
        clip-path: url(#clippath-13);
      }

      .cls-41 {
        clip-path: url(#clippath-88);
      }

      .cls-42 {
        clip-path: url(#clippath-37);
      }

      .cls-43 {
        clip-path: url(#clippath-46);
      }

      .cls-44 {
        clip-path: url(#clippath-25);
      }

      .cls-45 {
        clip-path: url(#clippath-98);
      }

      .cls-46 {
        clip-path: url(#clippath-107);
      }

      .cls-47 {
        clip-path: url(#clippath-15);
      }

      .cls-48 {
        clip-path: url(#clippath-6);
      }

      .cls-49 {
        clip-path: url(#clippath-104);
      }

      .cls-50 {
        clip-path: url(#clippath-76);
      }

      .cls-51 {
        clip-path: url(#clippath-40);
      }

      .cls-52 {
        clip-path: url(#clippath-26);
      }

      .cls-53 {
        clip-path: url(#clippath-81);
      }

      .cls-54 {
        clip-path: url(#clippath-111);
      }

      .cls-4 {
        stroke-opacity: .1;
        stroke-width: .5px;
      }

      .cls-55 {
        clip-path: url(#clippath-75);
      }

      .cls-56 {
        clip-path: url(#clippath-7);
      }

      .cls-57 {
        clip-path: url(#clippath-21);
      }

      .cls-58 {
        clip-path: url(#clippath-34);
      }

      .cls-59 {
        clip-path: url(#clippath-57);
      }

      .cls-60 {
        clip-path: url(#clippath-102);
      }

      .cls-61 {
        clip-path: url(#clippath-1);
      }

      .cls-62 {
        clip-path: url(#clippath-4);
      }

      .cls-63 {
        clip-path: url(#clippath-38);
      }

      .cls-64 {
        clip-path: url(#clippath-36);
      }

      .cls-65 {
        clip-path: url(#clippath-27);
      }

      .cls-66 {
        clip-path: url(#clippath-109);
      }

      .cls-67 {
        clip-path: url(#clippath-101);
      }

      .cls-68 {
        clip-path: url(#clippath-60);
      }

      .cls-69 {
        clip-path: url(#clippath-44);
      }

      .cls-70 {
        clip-path: url(#clippath-12);
      }

      .cls-71 {
        clip-path: url(#clippath-113);
      }

      .cls-72 {
        clip-path: url(#clippath-95);
      }

      .cls-73 {
        clip-path: url(#clippath-80);
      }

      .cls-6 {
        stroke: #ac8d18;
      }

      .cls-74 {
        clip-path: url(#clippath-24);
      }

      .cls-75 {
        clip-path: url(#clippath-99);
      }

      .cls-76 {
        clip-path: url(#clippath-30);
      }

      .cls-77 {
        clip-path: url(#clippath-79);
      }

      .cls-78 {
        clip-path: url(#clippath-22);
      }

      .cls-79 {
        clip-path: url(#clippath-96);
      }

      .cls-80 {
        clip-path: url(#clippath-103);
      }

      .cls-81 {
        clip-path: url(#clippath-9);
      }

      .cls-82 {
        clip-path: url(#clippath-82);
      }

      .cls-83 {
        clip-path: url(#clippath-52);
      }

      .cls-84 {
        clip-path: url(#clippath);
      }

      .cls-85 {
        clip-path: url(#clippath-50);
      }

      .cls-86 {
        clip-path: url(#clippath-48);
      }

      .cls-87 {
        clip-path: url(#clippath-61);
      }

      .cls-88 {
        clip-path: url(#clippath-39);
      }

      .cls-7 {
        stroke: #c271d2;
      }

      .cls-89 {
        clip-path: url(#clippath-19);
      }

      .cls-90 {
        clip-path: url(#clippath-31);
      }

      .cls-91 {
        clip-path: url(#clippath-86);
      }

      .cls-92 {
        clip-path: url(#clippath-54);
      }

      .cls-93 {
        clip-path: url(#clippath-3);
      }

      .cls-94 {
        clip-path: url(#clippath-91);
      }

      .cls-95 {
        clip-path: url(#clippath-43);
      }

      .cls-96 {
        clip-path: url(#clippath-70);
      }

      .cls-97 {
        clip-path: url(#clippath-8);
      }

      .cls-9 {
        stroke: #cc7c71;
        stroke-dasharray: 0 0 0 0 8 4 1 4;
      }

      .cls-98 {
        clip-path: url(#clippath-55);
      }

      .cls-99 {
        clip-path: url(#clippath-69);
      }

      .cls-100 {
        clip-path: url(#clippath-29);
      }

      .cls-101 {
        clip-path: url(#clippath-18);
      }

      .cls-102 {
        clip-path: url(#clippath-90);
      }

      .cls-103 {
        clip-path: url(#clippath-14);
      }

      .cls-104 {
        clip-path: url(#clippath-17);
      }

      .cls-105 {
        clip-path: url(#clippath-97);
      }

      .cls-106 {
        clip-path: url(#clippath-5);
      }

      .cls-107 {
        clip-path: url(#clippath-58);
      }

      .cls-108 {
        clip-path: url(#clippath-84);
      }

      .cls-10 {
        stroke: #00a9ad;
      }

      .cls-109 {
        clip-path: url(#clippath-42);
      }

      .cls-110 {
        clip-path: url(#clippath-65);
      }

      .cls-111 {
        clip-path: url(#clippath-10);
      }

      .cls-112 {
        clip-path: url(#clippath-23);
      }

      .cls-113 {
        clip-path: url(#clippath-100);
      }

      .cls-114 {
        clip-path: url(#clippath-92);
      }

      .cls-115 {
        clip-path: url(#clippath-74);
      }

      .cls-116 {
        clip-path: url(#clippath-56);
      }

      .cls-117 {
        clip-path: url(#clippath-53);
      }

      .cls-118 {
        clip-path: url(#clippath-49);
      }

      .cls-119 {
        clip-path: url(#clippath-110);
      }

      .cls-120 {
        clip-path: url(#clippath-67);
      }

      .cls-121 {
        clip-path: url(#clippath-51);
      }

      .cls-122 {
        clip-path: url(#clippath-28);
      }

      .cls-123 {
        clip-path: url(#clippath-71);
      }

      .cls-124 {
        clip-path: url(#clippath-85);
      }

      .cls-125 {
        clip-path: url(#clippath-106);
      }

      .cls-126 {
        clip-path: url(#clippath-68);
      }

      .cls-127 {
        clip-path: url(#clippath-35);
      }

      .cls-128 {
        clip-path: url(#clippath-66);
      }
    </style>
    <clipPath id="clippath">
      <rect class="cls-5" x="75" y="431" width="800" height="200"/>
    </clipPath>
    <clipPath id="clippath-1">
      <rect class="cls-5" width="800" height="200"/>
    </clipPath>
    <clipPath id="clippath-2">
      <rect class="cls-5" x="58" y="21.2" width="730.5" height="156.8"/>
    </clipPath>
    <clipPath id="clippath-3">
      <rect class="cls-5" x="58" y="21.2" width="730.5" height="156.8"/>
    </clipPath>
    <clipPath id="clippath-4">
      <rect class="cls-5" x="58" y="21.2" width="730.5" height="156.8"/>
    </clipPath>
    <clipPath id="clippath-5">
      <rect class="cls-5" x="58" y="21.2" width="730.5" height="156.8"/>
    </clipPath>
    <clipPath id="clippath-6">
      <rect class="cls-5" x="58" y="21.2" width="730.5" height="156.8"/>
    </clipPath>
    <clipPath id="clippath-7">
      <rect class="cls-5" x="58" y="21.2" width="730.5" height="156.8"/>
    </clipPath>
    <clipPath id="clippath-8">
      <rect class="cls-5" x="58" y="21.2" width="730.5" height="156.8"/>
    </clipPath>
    <clipPath id="clippath-9">
      <rect class="cls-5" x="58" y="21.2" width="730.5" height="156.8"/>
    </clipPath>
    <clipPath id="clippath-10">
      <rect class="cls-5" x="58" y="21.2" width="730.5" height="156.8"/>
    </clipPath>
    <clipPath id="clippath-11">
      <rect class="cls-5" x="58" y="21.2" width="730.5" height="156.8"/>
    </clipPath>
    <clipPath id="clippath-12">
      <rect class="cls-5" width="800" height="200"/>
    </clipPath>
    <clipPath id="clippath-13">
      <rect class="cls-5" width="800" height="200"/>
    </clipPath>
    <clipPath id="clippath-14">
      <rect class="cls-5" width="800" height="200"/>
    </clipPath>
    <clipPath id="clippath-15">
      <rect class="cls-5" width="800" height="200"/>
    </clipPath>
    <clipPath id="clippath-16">
      <rect class="cls-5" width="800" height="200"/>
    </clipPath>
    <clipPath id="clippath-17">
      <rect class="cls-5" width="800" height="200"/>
    </clipPath>
    <clipPath id="clippath-18">
      <rect class="cls-5" width="800" height="200"/>
    </clipPath>
    <clipPath id="clippath-19">
      <rect class="cls-5" width="800" height="200"/>
    </clipPath>
    <clipPath id="clippath-20">
      <rect class="cls-5" width="800" height="200"/>
    </clipPath>
    <clipPath id="clippath-21">
      <rect class="cls-5" width="800" height="200"/>
    </clipPath>
    <clipPath id="clippath-22">
      <rect class="cls-5" width="800" height="200"/>
    </clipPath>
    <clipPath id="clippath-23">
      <rect class="cls-5" width="800" height="200"/>
    </clipPath>
    <clipPath id="clippath-24">
      <rect class="cls-5" width="800" height="200"/>
    </clipPath>
    <clipPath id="clippath-25">
      <rect class="cls-5" width="800" height="200"/>
    </clipPath>
    <clipPath id="clippath-26">
      <rect class="cls-5" width="800" height="200"/>
    </clipPath>
    <clipPath id="clippath-27">
      <rect class="cls-5" width="800" height="200"/>
    </clipPath>
    <clipPath id="clippath-28">
      <rect class="cls-5" width="800" height="200"/>
    </clipPath>
    <clipPath id="clippath-29">
      <rect class="cls-5" width="800" height="200"/>
    </clipPath>
    <clipPath id="clippath-30">
      <rect class="cls-5" width="800" height="200"/>
    </clipPath>
    <clipPath id="clippath-31">
      <rect class="cls-5" width="800" height="200"/>
    </clipPath>
    <clipPath id="clippath-32">
      <rect class="cls-5" width="800" height="200"/>
    </clipPath>
    <clipPath id="clippath-33">
      <rect class="cls-5" width="800" height="200"/>
    </clipPath>
    <clipPath id="clippath-34">
      <rect class="cls-5" width="800" height="200"/>
    </clipPath>
    <clipPath id="clippath-35">
      <rect class="cls-5" width="800" height="200"/>
    </clipPath>
    <clipPath id="clippath-36">
      <rect class="cls-5" width="800" height="200"/>
    </clipPath>
    <clipPath id="clippath-37">
      <rect class="cls-5" width="800" height="200"/>
    </clipPath>
    <clipPath id="clippath-38">
      <rect class="cls-5" width="800" height="200"/>
    </clipPath>
    <clipPath id="clippath-39">
      <rect class="cls-5" width="800" height="200"/>
    </clipPath>
    <clipPath id="clippath-40">
      <rect class="cls-5" width="800" height="200"/>
    </clipPath>
    <clipPath id="clippath-41">
      <rect class="cls-5" width="800" height="200"/>
    </clipPath>
    <clipPath id="clippath-42">
      <rect class="cls-5" width="800" height="200"/>
    </clipPath>
    <clipPath id="clippath-43">
      <rect class="cls-5" width="800" height="200"/>
    </clipPath>
    <clipPath id="clippath-44">
      <rect class="cls-5" width="800" height="200"/>
    </clipPath>
    <clipPath id="clippath-45">
      <rect class="cls-5" width="800" height="200"/>
    </clipPath>
    <clipPath id="clippath-46">
      <rect class="cls-5" width="800" height="200"/>
    </clipPath>
    <clipPath id="clippath-47">
      <rect class="cls-5" width="800" height="200"/>
    </clipPath>
    <clipPath id="clippath-48">
      <rect class="cls-5" width="800" height="200"/>
    </clipPath>
    <clipPath id="clippath-49">
      <rect class="cls-5" width="800" height="200"/>
    </clipPath>
    <clipPath id="clippath-50">
      <rect class="cls-5" width="800" height="200"/>
    </clipPath>
    <clipPath id="clippath-51">
      <rect class="cls-5" width="800" height="200"/>
    </clipPath>
    <clipPath id="clippath-52">
      <rect class="cls-5" width="800" height="200"/>
    </clipPath>
    <clipPath id="clippath-53">
      <rect class="cls-5" width="800" height="200"/>
    </clipPath>
    <clipPath id="clippath-54">
      <rect class="cls-5" width="800" height="200"/>
    </clipPath>
    <clipPath id="clippath-55">
      <rect class="cls-5" width="800" height="200"/>
    </clipPath>
    <clipPath id="clippath-56">
      <rect class="cls-5" width="800" height="200"/>
    </clipPath>
    <clipPath id="clippath-57">
      <rect class="cls-5" width="800" height="200"/>
    </clipPath>
    <clipPath id="clippath-58">
      <rect class="cls-5" width="800" height="200"/>
    </clipPath>
    <clipPath id="clippath-59">
      <rect class="cls-5" width="800" height="200"/>
    </clipPath>
    <clipPath id="clippath-60">
      <rect class="cls-5" width="800" height="200"/>
    </clipPath>
    <clipPath id="clippath-61">
      <rect class="cls-5" width="800" height="200"/>
    </clipPath>
    <clipPath id="clippath-62">
      <rect class="cls-5" width="800" height="200"/>
    </clipPath>
    <clipPath id="clippath-63">
      <rect class="cls-5" width="800" height="200"/>
    </clipPath>
    <clipPath id="clippath-64">
      <rect class="cls-5" width="800" height="200"/>
    </clipPath>
    <clipPath id="clippath-65">
      <rect class="cls-5" width="800" height="200"/>
    </clipPath>
    <clipPath id="clippath-66">
      <rect class="cls-5" width="800" height="200"/>
    </clipPath>
    <clipPath id="clippath-67">
      <rect class="cls-5" width="800" height="200"/>
    </clipPath>
    <clipPath id="clippath-68">
      <rect class="cls-5" width="800" height="200"/>
    </clipPath>
    <clipPath id="clippath-69">
      <rect class="cls-5" width="800" height="200"/>
    </clipPath>
    <clipPath id="clippath-70">
      <rect class="cls-5" width="800" height="200"/>
    </clipPath>
    <clipPath id="clippath-71">
      <rect class="cls-5" width="800" height="200"/>
    </clipPath>
    <clipPath id="clippath-72">
      <rect class="cls-5" width="800" height="200"/>
    </clipPath>
    <clipPath id="clippath-73">
      <rect class="cls-5" width="800" height="200"/>
    </clipPath>
    <clipPath id="clippath-74">
      <rect class="cls-5" width="800" height="200"/>
    </clipPath>
    <clipPath id="clippath-75">
      <rect class="cls-5" width="800" height="200"/>
    </clipPath>
    <clipPath id="clippath-76">
      <rect class="cls-5" x="58" y="21.2" width="730.5" height="156.8"/>
    </clipPath>
    <clipPath id="clippath-77">
      <rect class="cls-5" x="58" y="21.2" width="730.5" height="156.8"/>
    </clipPath>
    <clipPath id="clippath-78">
      <rect class="cls-5" x="58" y="21.2" width="730.5" height="156.8"/>
    </clipPath>
    <clipPath id="clippath-79">
      <rect class="cls-5" x="58" y="21.2" width="730.5" height="156.8"/>
    </clipPath>
    <clipPath id="clippath-80">
      <rect class="cls-5" x="58" y="21.2" width="730.5" height="156.8"/>
    </clipPath>
    <clipPath id="clippath-81">
      <rect class="cls-5" x="58" y="21.2" width="730.5" height="156.8"/>
    </clipPath>
    <clipPath id="clippath-82">
      <rect class="cls-5" x="58" y="21.2" width="730.5" height="156.8"/>
    </clipPath>
    <clipPath id="clippath-83">
      <rect class="cls-5" x="58" y="21.2" width="730.5" height="156.8"/>
    </clipPath>
    <clipPath id="clippath-84">
      <rect class="cls-5" x="58" y="21.2" width="730.5" height="156.8"/>
    </clipPath>
    <clipPath id="clippath-85">
      <rect class="cls-5" width="800" height="200"/>
    </clipPath>
    <clipPath id="clippath-86">
      <rect class="cls-5" width="800" height="200"/>
    </clipPath>
    <clipPath id="clippath-87">
      <rect class="cls-5" width="800" height="200"/>
    </clipPath>
    <clipPath id="clippath-88">
      <rect class="cls-5" width="800" height="200"/>
    </clipPath>
    <clipPath id="clippath-89">
      <rect class="cls-5" width="800" height="200"/>
    </clipPath>
    <clipPath id="clippath-90">
      <rect class="cls-5" width="800" height="200"/>
    </clipPath>
    <clipPath id="clippath-91">
      <rect class="cls-5" width="800" height="200"/>
    </clipPath>
    <clipPath id="clippath-92">
      <rect class="cls-5" width="800" height="200"/>
    </clipPath>
    <clipPath id="clippath-93">
      <rect class="cls-5" width="800" height="200"/>
    </clipPath>
    <clipPath id="clippath-94">
      <rect class="cls-5" width="800" height="200"/>
    </clipPath>
    <clipPath id="clippath-95">
      <rect class="cls-5" width="800" height="200"/>
    </clipPath>
    <clipPath id="clippath-96">
      <rect class="cls-5" width="800" height="200"/>
    </clipPath>
    <clipPath id="clippath-97">
      <rect class="cls-5" width="800" height="200"/>
    </clipPath>
    <clipPath id="clippath-98">
      <rect class="cls-5" width="800" height="200"/>
    </clipPath>
    <clipPath id="clippath-99">
      <rect class="cls-5" width="800" height="200"/>
    </clipPath>
    <clipPath id="clippath-100">
      <rect class="cls-5" width="800" height="200"/>
    </clipPath>
    <clipPath id="clippath-101">
      <rect class="cls-5" width="800" height="200"/>
    </clipPath>
    <clipPath id="clippath-102">
      <rect class="cls-5" width="800" height="200"/>
    </clipPath>
    <clipPath id="clippath-103">
      <rect class="cls-5" width="800" height="200"/>
    </clipPath>
    <clipPath id="clippath-104">
      <rect class="cls-5" width="800" height="200"/>
    </clipPath>
    <clipPath id="clippath-105">
      <rect class="cls-5" width="800" height="200"/>
    </clipPath>
    <clipPath id="clippath-106">
      <rect class="cls-5" width="800" height="200"/>
    </clipPath>
    <clipPath id="clippath-107">
      <rect class="cls-5" width="800" height="200"/>
    </clipPath>
    <clipPath id="clippath-108">
      <rect class="cls-5" width="800" height="200"/>
    </clipPath>
    <clipPath id="clippath-109">
      <rect class="cls-5" width="800" height="200"/>
    </clipPath>
    <clipPath id="clippath-110">
      <rect class="cls-5" width="800" height="200"/>
    </clipPath>
    <clipPath id="clippath-111">
      <rect class="cls-5" width="800" height="200"/>
    </clipPath>
    <clipPath id="clippath-112">
      <rect class="cls-5" width="800" height="200"/>
    </clipPath>
    <clipPath id="clippath-113">
      <rect class="cls-5" width="800" height="200"/>
    </clipPath>
  </defs>
  <g class="cls-84">
    <path class="cls-12" d="M75,631h800v-200H75v200Z"/>
  </g>
  <g class="cls-61">
    <path class="cls-12" d="M58,177.9h730.2V21.4H58v156.4Z"/>
  </g>
  <g class="cls-39">
    <line class="cls-4" x1="78.7" y1="177.9" x2="78.7" y2="21.4"/>
  </g>
  <g class="cls-93">
    <line class="cls-4" x1="216.5" y1="177.9" x2="216.5" y2="21.4"/>
  </g>
  <g class="cls-62">
    <line class="cls-4" x1="354.2" y1="177.9" x2="354.2" y2="21.4"/>
  </g>
  <g class="cls-106">
    <line class="cls-4" x1="492" y1="177.9" x2="492" y2="21.4"/>
  </g>
  <g class="cls-48">
    <line class="cls-4" x1="629.8" y1="177.9" x2="629.8" y2="21.4"/>
  </g>
  <g class="cls-56">
    <line class="cls-4" x1="767.5" y1="177.9" x2="767.5" y2="21.4"/>
  </g>
  <g class="cls-97">
    <line class="cls-4" x1="58" y1="143.9" x2="788.2" y2="143.9"/>
  </g>
  <g class="cls-81">
    <line class="cls-4" x1="58" y1="109.8" x2="788.2" y2="109.8"/>
  </g>
  <g class="cls-111">
    <line class="cls-4" x1="58" y1="75.8" x2="788.2" y2="75.8"/>
  </g>
  <g class="cls-21">
    <line class="cls-4" x1="58" y1="41.8" x2="788.2" y2="41.8"/>
  </g>
  <g class="cls-70">
    <line class="cls-8" x1="58" y1="177.9" x2="788.2" y2="177.9"/>
  </g>
  <g class="cls-40">
    <line class="cls-8" x1="78.7" y1="177.9" x2="78.7" y2="173.1"/>
  </g>
  <g class="cls-103">
    <line class="cls-8" x1="216.5" y1="177.9" x2="216.5" y2="173.1"/>
  </g>
  <g class="cls-47">
    <line class="cls-8" x1="354.2" y1="177.9" x2="354.2" y2="173.1"/>
  </g>
  <g class="cls-22">
    <line class="cls-8" x1="492" y1="177.9" x2="492" y2="173.1"/>
  </g>
  <g class="cls-104">
    <line class="cls-8" x1="629.8" y1="177.9" x2="629.8" y2="173.1"/>
  </g>
  <g class="cls-101">
    <line class="cls-8" x1="767.5" y1="177.9" x2="767.5" y2="173.1"/>
  </g>
  <g class="cls-89">
    <path class="cls-14" d="M72.1,198h4.1v1h-5.5v-1c.4-.5,1-1.1,1.8-1.8.8-.8,1.3-1.3,1.4-1.5.4-.4.6-.8.8-1.1.2-.3.2-.6.2-.9,0-.5-.2-.8-.5-1.1-.3-.3-.7-.4-1.3-.4-.4,0-.8,0-1.2.2-.4.1-.8.3-1.3.6v-1.2c.5-.2.9-.3,1.3-.4.4,0,.8-.1,1.1-.1.9,0,1.6.2,2.1.7.5.4.8,1,.8,1.8s0,.7-.2,1c-.1.3-.4.7-.7,1.1,0,.1-.4.4-.9,1-.5.5-1.2,1.3-2.2,2.2Z"/>
  </g>
  <g class="cls-20">
    <path class="cls-14" d="M76.3,191.3h1.6v-5.4l-1.7.3v-.9l1.7-.3h.9v6.2h1.6v.8h-4v-.8Z"/>
  </g>
  <g class="cls-57">
    <path class="cls-14" d="M84.3,185.7c-.5,0-.9.2-1.1.7-.2.5-.4,1.2-.4,2.2s.1,1.7.4,2.2c.2.5.6.7,1.1.7.5,0,.9-.2,1.1-.7.2-.5.4-1.2.4-2.2s-.1-1.7-.4-2.2c-.2-.5-.6-.7-1.1-.7M84.3,185c.8,0,1.4.3,1.8.9.4.6.6,1.5.6,2.7s-.2,2.1-.6,2.7c-.4.6-1,.9-1.8.9-.8,0-1.4-.3-1.8-.9-.4-.6-.6-1.5-.6-2.7s.2-2.1.6-2.7c.4-.6,1-.9,1.8-.9Z"/>
  </g>
  <g class="cls-78">
    <path class="cls-14" d="M210,198h4.1v1h-5.5v-1c.4-.5,1-1.1,1.8-1.8.8-.8,1.3-1.3,1.4-1.5.4-.4.6-.8.8-1.1.2-.3.2-.6.2-.9,0-.5-.2-.8-.5-1.1-.3-.3-.7-.4-1.3-.4-.4,0-.8,0-1.2.2-.4.1-.8.3-1.3.6v-1.2c.5-.2.9-.3,1.3-.4.4,0,.8-.1,1.1-.1.9,0,1.6.2,2.1.7.5.4.8,1,.8,1.8s0,.7-.2,1c-.1.3-.4.7-.7,1.1,0,.1-.4.4-.9,1-.5.5-1.2,1.3-2.2,2.2Z"/>
  </g>
  <g class="cls-112">
    <path class="cls-14" d="M214.2,191.3h1.6v-5.4l-1.7.3v-.9l1.7-.3h.9v6.2h1.6v.8h-4v-.8Z"/>
  </g>
  <g class="cls-74">
    <path class="cls-14" d="M220.3,191.3h1.6v-5.4l-1.7.3v-.9l1.7-.3h.9v6.2h1.6v.8h-4v-.8Z"/>
  </g>
  <g class="cls-44">
    <path class="cls-14" d="M347.8,198h4.1v1h-5.5v-1c.4-.5,1-1.1,1.8-1.8.8-.8,1.3-1.3,1.4-1.5.4-.4.6-.8.8-1.1.2-.3.2-.6.2-.9,0-.5-.2-.8-.5-1.1-.3-.3-.7-.4-1.3-.4-.4,0-.8,0-1.2.2-.4.1-.8.3-1.3.6v-1.2c.5-.2.9-.3,1.3-.4.4,0,.8-.1,1.1-.1.9,0,1.6.2,2.1.7.5.4.8,1,.8,1.8,0,.4,0,.7-.2,1-.1.3-.4.7-.7,1.1,0,.1-.4.4-.9,1-.5.5-1.2,1.3-2.2,2.2Z"/>
  </g>
  <g class="cls-52">
    <path class="cls-14" d="M352,191.3h1.6v-5.4l-1.7.3v-.9l1.7-.3h1v6.2h1.5v.8h-4v-.8Z"/>
  </g>
  <g class="cls-65">
    <path class="cls-14" d="M358.8,191.3h3.3v.8h-4.5v-.8c.4-.4.9-.9,1.5-1.5.6-.6,1-1,1.2-1.2.3-.3.5-.6.6-.9.1-.2.2-.5.2-.7,0-.4-.1-.7-.4-.9-.3-.2-.6-.4-1-.4s-.6,0-.9.2c-.3.1-.7.3-1.1.5v-1c.4-.2.7-.3,1.1-.3.3,0,.6-.1.9-.1.7,0,1.3.2,1.7.5.4.4.7.8.7,1.5s0,.6-.2.8c-.1.3-.3.6-.6.9,0,0-.3.4-.7.8-.4.4-1,1-1.8,1.8Z"/>
  </g>
  <g class="cls-122">
    <path class="cls-14" d="M485.4,198h4.1v1h-5.5v-1c.4-.5,1-1.1,1.8-1.8.8-.8,1.2-1.3,1.4-1.5.4-.4.6-.8.8-1.1.1-.3.2-.6.2-.9,0-.5-.2-.8-.5-1.1-.3-.3-.7-.4-1.3-.4-.4,0-.8,0-1.2.2-.4.1-.8.3-1.3.6v-1.2c.5-.2.9-.3,1.3-.4.4,0,.8-.1,1.1-.1.9,0,1.6.2,2.1.7.5.4.8,1,.8,1.8s0,.7-.2,1c-.1.3-.4.7-.7,1.1,0,.1-.4.4-.9,1-.5.5-1.2,1.3-2.2,2.2Z"/>
  </g>
  <g class="cls-100">
    <path class="cls-14" d="M489.7,191.3h1.6v-5.4l-1.7.3v-.9l1.7-.3h.9v6.2h1.6v.8h-4v-.8Z"/>
  </g>
  <g class="cls-76">
    <path class="cls-14" d="M498.5,188.3c.5,0,.8.3,1.1.6.3.3.4.7.4,1.1,0,.7-.2,1.2-.7,1.6-.5.4-1.2.6-2,.6-.3,0-.6,0-.9,0-.3,0-.6-.1-1-.3v-.9c.3.2.6.3.9.3.3,0,.6.1,1,.1.6,0,1-.1,1.4-.4.3-.2.5-.6.5-1s-.1-.7-.4-1c-.3-.2-.7-.4-1.2-.4h-.8v-.8h.9c.5,0,.8,0,1.1-.3.2-.2.4-.5.4-.8s-.1-.6-.4-.8c-.3-.2-.6-.3-1.1-.3s-.5,0-.8,0c-.3,0-.6.1-1,.3v-.8c.4-.1.7-.2,1-.2.3,0,.6,0,.9,0,.7,0,1.3.2,1.7.5.4.3.6.8.6,1.3s-.1.7-.3,1c-.2.3-.5.5-1,.6Z"/>
  </g>
  <g class="cls-90">
    <path class="cls-14" d="M623.1,198h4.1v1h-5.5v-1c.4-.5,1-1.1,1.8-1.8.8-.8,1.3-1.3,1.4-1.5.4-.4.6-.8.8-1.1.2-.3.2-.6.2-.9,0-.5-.2-.8-.5-1.1-.3-.3-.7-.4-1.3-.4-.4,0-.8,0-1.2.2-.4.1-.8.3-1.3.6v-1.2c.5-.2.9-.3,1.3-.4.4,0,.8-.1,1.1-.1.9,0,1.6.2,2.1.7.5.4.8,1,.8,1.8s0,.7-.2,1c-.1.3-.4.7-.7,1.1,0,.1-.4.4-.9,1-.5.5-1.2,1.3-2.2,2.2Z"/>
  </g>
  <g class="cls-33">
    <path class="cls-14" d="M627.3,191.3h1.5v-5.4l-1.7.3v-.9l1.7-.3h.9v6.2h1.6v.8h-4v-.8Z"/>
  </g>
  <g class="cls-27">
    <path class="cls-14" d="M635.9,185.9l-2.4,3.7h2.4v-3.7M635.6,185.1h1.2v4.6h1v.8h-1v1.7h-.9v-1.7h-3.2v-.9l2.9-4.4Z"/>
  </g>
  <g class="cls-58">
    <path class="cls-14" d="M761,198h4.1v1h-5.5v-1c.4-.5,1-1.1,1.8-1.8.8-.8,1.3-1.3,1.4-1.5.4-.4.6-.8.8-1.1.2-.3.2-.6.2-.9,0-.5-.2-.8-.5-1.1-.3-.3-.7-.4-1.3-.4-.4,0-.8,0-1.2.2-.4.1-.8.3-1.3.6v-1.2c.5-.2.9-.3,1.3-.4.4,0,.8-.1,1.1-.1.9,0,1.6.2,2.1.7.5.4.8,1,.8,1.8s0,.7-.2,1c-.1.3-.4.7-.7,1.1,0,.1-.4.4-.9,1-.5.5-1.2,1.3-2.2,2.2Z"/>
  </g>
  <g class="cls-127">
    <path class="cls-14" d="M765.2,191.3h1.6v-5.4l-1.7.3v-.9l1.7-.3h1v6.2h1.6v.8h-4v-.8Z"/>
  </g>
  <g class="cls-64">
    <path class="cls-14" d="M771.2,185.1h3.7v.8h-2.9v1.7c.1,0,.3,0,.4-.1.1,0,.3,0,.4,0,.8,0,1.4.2,1.9.6.5.4.7,1,.7,1.7s-.2,1.3-.7,1.8c-.5.4-1.1.6-2,.6-.3,0-.6,0-.9,0-.3,0-.6-.1-.9-.2v-1c.3.2.6.3.9.3.3,0,.6.1,1,.1.5,0,1-.1,1.3-.4.3-.3.5-.7.5-1.2,0-.5-.2-.9-.5-1.2-.3-.3-.7-.4-1.3-.4s-.5,0-.8,0c-.3,0-.5.1-.8.3v-3.5Z"/>
  </g>
  <g class="cls-42">
    <line class="cls-8" x1="58" y1="177.9" x2="58" y2="21.4"/>
  </g>
  <g class="cls-63">
    <line class="cls-8" x1="58" y1="143.9" x2="62.7" y2="143.9"/>
  </g>
  <g class="cls-88">
    <line class="cls-8" x1="58" y1="109.8" x2="62.7" y2="109.8"/>
  </g>
  <g class="cls-51">
    <line class="cls-8" x1="58" y1="75.8" x2="62.7" y2="75.8"/>
  </g>
  <g class="cls-32">
    <line class="cls-8" x1="58" y1="41.8" x2="62.7" y2="41.8"/>
  </g>
  <g class="cls-109">
    <path class="cls-14" d="M11.7,144h7.4v1h-7.4v-1Z"/>
  </g>
  <g class="cls-95">
    <path class="cls-14" d="M24.2,140.3c-.6,0-1.1.3-1.4.9-.3.6-.5,1.5-.5,2.7,0,1.2.2,2.1.5,2.7.3.6.8.9,1.4.9s1.1-.3,1.4-.9c.3-.6.5-1.5.5-2.7s-.2-2.1-.5-2.7c-.3-.6-.8-.9-1.4-.9M24.2,139.4c1,0,1.7.4,2.2,1.2.5.8.8,1.9.8,3.3,0,1.5-.3,2.6-.8,3.3-.5.8-1.2,1.1-2.2,1.1s-1.7-.4-2.2-1.1c-.5-.8-.8-1.9-.8-3.3s.3-2.6.8-3.3c.5-.8,1.3-1.2,2.2-1.2Z"/>
  </g>
  <g class="cls-69">
    <path class="cls-14" d="M29.2,146.7h1.2v1.5h-1.2v-1.5Z"/>
  </g>
  <g class="cls-18">
    <path class="cls-14" d="M33.2,147.2h1.9v-6.6l-2.1.4v-1.1l2.1-.4h1.2v7.7h1.9v1h-5v-1Z"/>
  </g>
  <g class="cls-43">
    <path class="cls-14" d="M43,140.3c-.6,0-1.1.3-1.4.9-.3.6-.5,1.5-.5,2.7s.2,2.1.5,2.7c.3.6.8.9,1.4.9s1.1-.3,1.4-.9c.3-.6.5-1.5.5-2.7s-.2-2.1-.5-2.7c-.3-.6-.8-.9-1.4-.9M43,139.4c1,0,1.7.4,2.2,1.2.5.8.8,1.9.8,3.3s-.3,2.6-.8,3.3c-.5.8-1.2,1.1-2.2,1.1s-1.7-.4-2.2-1.1c-.5-.8-.8-1.9-.8-3.3s.3-2.6.8-3.3c.5-.8,1.3-1.2,2.2-1.2Z"/>
  </g>
  <g class="cls-29">
    <path class="cls-14" d="M12,110h7.4v1h-7.4v-1Z"/>
  </g>
  <g class="cls-86">
    <path class="cls-14" d="M24.4,106.3c-.6,0-1.1.3-1.4.9-.3.6-.5,1.5-.5,2.7s.2,2.1.5,2.7c.3.6.8.9,1.4.9s1.1-.3,1.4-.9c.3-.6.5-1.5.5-2.7,0-1.2-.2-2.1-.5-2.7-.3-.6-.8-.9-1.4-.9M24.4,105.4c1,0,1.7.4,2.2,1.2.5.8.8,1.9.8,3.3,0,1.5-.3,2.6-.8,3.3-.5.8-1.2,1.1-2.2,1.1s-1.7-.4-2.2-1.1c-.5-.8-.8-1.9-.8-3.3s.3-2.6.8-3.3c.5-.8,1.3-1.2,2.2-1.2Z"/>
  </g>
  <g class="cls-118">
    <path class="cls-14" d="M29.5,112.7h1.2v1.5h-1.2v-1.5Z"/>
  </g>
  <g class="cls-85">
    <path class="cls-14" d="M35.7,106.3c-.6,0-1.1.3-1.4.9-.3.6-.5,1.5-.5,2.7s.2,2.1.5,2.7c.3.6.8.9,1.4.9s1.1-.3,1.4-.9c.3-.6.5-1.5.5-2.7s-.2-2.1-.5-2.7c-.3-.6-.8-.9-1.4-.9M35.7,105.4c1,0,1.7.4,2.2,1.2.5.8.8,1.9.8,3.3s-.3,2.6-.8,3.3c-.5.8-1.2,1.1-2.2,1.1s-1.7-.4-2.2-1.1c-.5-.8-.8-1.9-.8-3.3s.3-2.6.8-3.3c.5-.8,1.3-1.2,2.2-1.2Z"/>
  </g>
  <g class="cls-121">
    <path class="cls-14" d="M40.8,105.5h4.6v1h-3.5v2.1c.2,0,.3-.1.5-.1.2,0,.3,0,.5,0,1,0,1.7.3,2.3.8.6.5.8,1.2.8,2.1s-.3,1.7-.9,2.2c-.6.5-1.4.8-2.4.8s-.7,0-1.1,0c-.4,0-.8-.2-1.2-.3v-1.2c.3.2.7.3,1.1.4.4,0,.8.1,1.2.1.7,0,1.2-.2,1.6-.5.4-.4.6-.8.6-1.4s-.2-1.1-.6-1.4c-.4-.4-.9-.5-1.6-.5s-.6,0-.9.1c-.3,0-.6.2-.9.3v-4.3Z"/>
  </g>
  <g class="cls-83">
    <path class="cls-14" d="M24.2,72.3c-.6,0-1.1.3-1.4.9-.3.6-.5,1.5-.5,2.7,0,1.2.2,2.1.5,2.7.3.6.8.9,1.4.9s1.1-.3,1.4-.9c.3-.6.5-1.5.5-2.7s-.2-2.1-.5-2.7c-.3-.6-.8-.9-1.4-.9M24.2,71.4c1,0,1.7.4,2.2,1.2.5.8.8,1.9.8,3.3,0,1.5-.3,2.6-.8,3.3-.5.8-1.2,1.1-2.2,1.1s-1.7-.4-2.2-1.1c-.5-.8-.8-1.9-.8-3.3s.3-2.6.8-3.3c.5-.8,1.3-1.2,2.2-1.2Z"/>
  </g>
  <g class="cls-117">
    <path class="cls-14" d="M29.2,78.7h1.2v1.5h-1.2v-1.5Z"/>
  </g>
  <g class="cls-92">
    <path class="cls-14" d="M35.5,72.3c-.6,0-1.1.3-1.4.9-.3.6-.5,1.5-.5,2.7s.2,2.1.5,2.7c.3.6.8.9,1.4.9s1.1-.3,1.4-.9c.3-.6.5-1.5.5-2.7s-.2-2.1-.5-2.7c-.3-.6-.8-.9-1.4-.9M35.5,71.4c1,0,1.7.4,2.2,1.2.5.8.8,1.9.8,3.3s-.3,2.6-.8,3.3c-.5.8-1.2,1.1-2.2,1.1s-1.7-.4-2.2-1.1c-.5-.8-.8-1.9-.8-3.3s.3-2.6.8-3.3c.5-.8,1.3-1.2,2.2-1.2Z"/>
  </g>
  <g class="cls-98">
    <path class="cls-14" d="M43,72.3c-.6,0-1.1.3-1.4.9-.3.6-.5,1.5-.5,2.7s.2,2.1.5,2.7c.3.6.8.9,1.4.9s1.1-.3,1.4-.9c.3-.6.5-1.5.5-2.7s-.2-2.1-.5-2.7c-.3-.6-.8-.9-1.4-.9M43,71.4c1,0,1.7.4,2.2,1.2.5.8.8,1.9.8,3.3s-.3,2.6-.8,3.3c-.5.8-1.2,1.1-2.2,1.1s-1.7-.4-2.2-1.1c-.5-.8-.8-1.9-.8-3.3s.3-2.6.8-3.3c.5-.8,1.3-1.2,2.2-1.2Z"/>
  </g>
  <g class="cls-116">
    <path class="cls-14" d="M24.4,38.3c-.6,0-1.1.3-1.4.9-.3.6-.5,1.5-.5,2.7s.2,2.1.5,2.7c.3.6.8.9,1.4.9s1.1-.3,1.4-.9c.3-.6.5-1.5.5-2.7,0-1.2-.2-2.1-.5-2.7-.3-.6-.8-.9-1.4-.9M24.4,37.3c1,0,1.7.4,2.2,1.2.5.8.8,1.9.8,3.3,0,1.5-.3,2.6-.8,3.3-.5.8-1.2,1.1-2.2,1.1-1,0-1.7-.4-2.2-1.1-.5-.8-.8-1.9-.8-3.3s.3-2.6.8-3.3c.5-.8,1.3-1.2,2.2-1.2Z"/>
  </g>
  <g class="cls-59">
    <path class="cls-14" d="M29.5,44.7h1.2v1.5h-1.2v-1.5Z"/>
  </g>
  <g class="cls-107">
    <path class="cls-14" d="M35.7,38.3c-.6,0-1.1.3-1.4.9-.3.6-.5,1.5-.5,2.7s.2,2.1.5,2.7c.3.6.8.9,1.4.9s1.1-.3,1.4-.9c.3-.6.5-1.5.5-2.7s-.2-2.1-.5-2.7c-.3-.6-.8-.9-1.4-.9M35.7,37.3c1,0,1.7.4,2.2,1.2.5.8.8,1.9.8,3.3s-.3,2.6-.8,3.3c-.5.8-1.2,1.1-2.2,1.1-1,0-1.7-.4-2.2-1.1-.5-.8-.8-1.9-.8-3.3s.3-2.6.8-3.3c.5-.8,1.3-1.2,2.2-1.2Z"/>
  </g>
  <g class="cls-23">
    <path class="cls-14" d="M40.8,37.5h4.6v1h-3.5v2.1c.2,0,.3-.1.5-.1.2,0,.3,0,.5,0,1,0,1.7.3,2.3.8.6.5.8,1.2.8,2.1s-.3,1.7-.9,2.2c-.6.5-1.4.8-2.4.8-.4,0-.7,0-1.1,0-.4,0-.8-.2-1.2-.3v-1.2c.3.2.7.3,1.1.4.4,0,.8.1,1.2.1.7,0,1.2-.2,1.6-.5.4-.4.6-.8.6-1.4s-.2-1.1-.6-1.4c-.4-.4-.9-.5-1.6-.5s-.6,0-.9.1c-.3,0-.6.2-.9.3v-4.3Z"/>
  </g>
  <g class="cls-68">
    <path class="cls-14" d="M320.6,3.5v2c-.8-.4-1.5-.6-2.2-.8-.7-.2-1.4-.3-2-.3-1.1,0-2,.2-2.6.6-.6.4-.9,1-.9,1.8s.2,1.2.6,1.5c.4.3,1.2.6,2.3.8l1.2.3c1.5.3,2.6.8,3.4,1.5.7.7,1.1,1.7,1.1,2.9s-.5,2.6-1.5,3.3c-1,.8-2.4,1.1-4.3,1.1s-1.5,0-2.3-.2c-.8-.2-1.6-.4-2.5-.7v-2.1c.8.5,1.6.8,2.4,1.1.8.2,1.6.4,2.4.4,1.2,0,2.1-.2,2.7-.7.6-.5,1-1.1,1-2s-.2-1.3-.7-1.7c-.5-.4-1.2-.7-2.2-.9l-1.2-.2c-1.5-.3-2.6-.8-3.3-1.4-.7-.6-1-1.5-1-2.7s.5-2.4,1.4-3.2c.9-.8,2.2-1.2,3.9-1.2s1.4,0,2.2.2c.7.1,1.5.3,2.3.6Z"/>
  </g>
  <g class="cls-87">
    <path class="cls-14" d="M331.5,8.7h13v1.7h-13v-1.7M331.5,12.9h13v1.7h-13v-1.7Z"/>
  </g>
  <g class="cls-17">
    <path class="cls-14" d="M363.8,20.1v1.5h-.6c-1.7,0-2.8-.2-3.4-.7-.6-.5-.9-1.5-.9-3v-2.4c0-1-.2-1.7-.5-2.1-.4-.4-1-.6-2-.6h-.6v-1.4h.6c1,0,1.6-.2,2-.6.4-.4.5-1.1.5-2.1v-2.4c0-1.5.3-2.5.9-3,.6-.5,1.7-.7,3.4-.7h.6v1.4h-.7c-1,0-1.6.1-1.9.4-.3.3-.4.9-.4,1.9v2.5c0,1.1-.2,1.8-.5,2.3-.3.5-.8.8-1.6,1,.7.2,1.3.5,1.6,1,.3.5.5,1.2.5,2.3v2.5c0,1,.1,1.6.4,1.9.3.3.9.4,1.9.4h.7Z"/>
  </g>
  <g class="cls-19">
    <path class="cls-14" d="M369,16.4h3.3V4.9l-3.6.7v-1.9l3.6-.7h2v13.4h3.3v1.7h-8.7v-1.7Z"/>
  </g>
  <g class="cls-28">
    <path class="cls-14" d="M382.1,15.6h2.1v1.7l-1.7,3.2h-1.3l.8-3.2v-1.7Z"/>
  </g>
  <g class="cls-110">
    <path class="cls-14" d="M395,3h8v1.7h-6.2v3.7c.3-.1.6-.2.9-.2.3,0,.6,0,.9,0,1.7,0,3,.5,4,1.4,1,.9,1.5,2.2,1.5,3.8,0,1.6-.5,2.9-1.5,3.8-1,.9-2.4,1.3-4.3,1.3s-1.3,0-1.9-.2c-.7-.1-1.3-.3-2-.5v-2.1c.6.3,1.2.6,1.9.7s1.3.2,2.1.2c1.2,0,2.1-.3,2.8-.9s1-1.4,1-2.5-.3-1.9-1-2.5c-.7-.6-1.6-.9-2.8-.9s-1.1,0-1.6.2c-.5.1-1.1.3-1.7.6V3Z"/>
  </g>
  <g class="cls-128">
    <path class="cls-14" d="M408.4,15.6h2.1v1.7l-1.7,3.2h-1.3l.8-3.2v-1.7Z"/>
  </g>
  <g class="cls-120">
    <path class="cls-14" d="M421.8,16.4h3.3V4.9l-3.6.7v-1.9l3.6-.7h2v13.4h3.3v1.7h-8.7v-1.7Z"/>
  </g>
  <g class="cls-126">
    <path class="cls-14" d="M439,4.4c-1.1,0-1.8.5-2.4,1.6-.5,1-.8,2.6-.8,4.7s.3,3.6.8,4.7c.5,1,1.3,1.5,2.4,1.5s1.9-.5,2.4-1.5c.5-1,.8-2.6.8-4.7s-.3-3.6-.8-4.7c-.5-1-1.3-1.6-2.4-1.6M439,2.8c1.7,0,3,.7,3.9,2,.9,1.3,1.3,3.3,1.3,5.8s-.4,4.5-1.3,5.8c-.9,1.3-2.2,2-3.9,2s-3-.7-3.9-2c-.9-1.3-1.3-3.3-1.3-5.8s.4-4.5,1.3-5.8c.9-1.3,2.2-2,3.9-2Z"/>
  </g>
  <g class="cls-99">
    <path class="cls-14" d="M448,15.6h2.1v1.7l-1.7,3.2h-1.3l.8-3.2v-1.7Z"/>
  </g>
  <g class="cls-96">
    <path class="cls-14" d="M461.3,16.4h3.3V4.9l-3.6.7v-1.9l3.6-.7h2v13.4h3.3v1.7h-8.7v-1.7Z"/>
  </g>
  <g class="cls-123">
    <path class="cls-14" d="M474.2,3h8v1.7h-6.2v3.7c.3-.1.6-.2.9-.2.3,0,.6,0,.9,0,1.7,0,3,.5,4,1.4,1,.9,1.5,2.2,1.5,3.8s-.5,2.9-1.5,3.8c-1,.9-2.4,1.3-4.3,1.3s-1.3,0-1.9-.2c-.7-.1-1.3-.3-2-.5v-2.1c.6.3,1.2.6,1.9.7.6.2,1.3.2,2.1.2,1.2,0,2.1-.3,2.8-.9.7-.6,1-1.4,1-2.5s-.3-1.9-1-2.5c-.7-.6-1.6-.9-2.8-.9s-1.1,0-1.6.2c-.5.1-1.1.3-1.7.6V3Z"/>
  </g>
  <g class="cls-16">
    <path class="cls-14" d="M487.6,15.6h2.1v1.7l-1.7,3.2h-1.3l.8-3.2v-1.7Z"/>
  </g>
  <g class="cls-11">
    <path class="cls-14" d="M502.3,16.4h7.1v1.7h-9.6v-1.7c.8-.8,1.8-1.9,3.2-3.2,1.3-1.4,2.2-2.2,2.5-2.6.7-.7,1.1-1.4,1.4-1.9.3-.5.4-1,.4-1.5,0-.8-.3-1.5-.8-2-.6-.5-1.3-.8-2.2-.8s-1.3.1-2,.3c-.7.2-1.5.6-2.3,1v-2.1c.8-.3,1.6-.6,2.3-.7.7-.2,1.4-.3,2-.3,1.6,0,2.8.4,3.7,1.2.9.8,1.4,1.8,1.4,3.1s-.1,1.2-.4,1.8c-.2.6-.7,1.2-1.3,2-.2.2-.7.8-1.6,1.7-.9.9-2.2,2.2-3.8,3.9Z"/>
  </g>
  <g class="cls-115">
    <path class="cls-14" d="M518.1,4.4c-1.1,0-1.8.5-2.4,1.6-.5,1-.8,2.6-.8,4.7s.3,3.6.8,4.7c.5,1,1.3,1.5,2.4,1.5s1.9-.5,2.4-1.5c.5-1,.8-2.6.8-4.7s-.3-3.6-.8-4.7c-.5-1-1.3-1.6-2.4-1.6M518.1,2.8c1.7,0,3,.7,3.9,2,.9,1.3,1.3,3.3,1.3,5.8s-.4,4.5-1.3,5.8c-.9,1.3-2.2,2-3.9,2s-3-.7-3.9-2c-.9-1.3-1.3-3.3-1.3-5.8s.4-4.5,1.3-5.8c.9-1.3,2.2-2,3.9-2Z"/>
  </g>
  <g class="cls-55">
    <path class="cls-14" d="M527.3,20.1h.7c.9,0,1.6-.1,1.8-.4.3-.3.4-.9.4-1.9v-2.5c0-1.1.2-1.8.5-2.3.3-.5.8-.8,1.6-1-.8-.2-1.3-.5-1.6-1-.3-.5-.5-1.2-.5-2.3v-2.5c0-1-.1-1.6-.4-1.9-.3-.3-.9-.4-1.8-.4h-.7v-1.4h.6c1.7,0,2.8.2,3.4.7.6.5.8,1.5.8,3v2.4c0,1,.2,1.7.5,2.1.4.4,1,.6,2,.6h.6v1.4h-.6c-1,0-1.6.2-2,.6-.4.4-.5,1.1-.5,2.1v2.4c0,1.5-.3,2.5-.8,3-.6.5-1.7.7-3.4.7h-.6v-1.5Z"/>
  </g>
  <g class="cls-50">
    <path class="cls-13" d="M78.7,134l137.8,29.5,137.8-42,137.8-25.1,137.8,23.1,137.8-.2v-3.6l-137.8-10.8-137.8-30.5-137.8,7.3-137.8-21.9L78.7,17.6v116.4Z"/>
  </g>
  <g class="cls-31">
    <polyline class="cls-2" points="78.7 75.8 216.5 111.6 354.2 101.5 492 85.3 629.8 112.2 767.5 117.5"/>
  </g>
  <g class="cls-24">
    <polyline class="cls-3" points="78.7 86.4 216.5 104.8 354.2 115.3 492 112.7 629.8 130.4 767.5 114.8"/>
  </g>
  <g class="cls-77">
    <path class="cls-15" d="M78.7,180.6l137.8.4,137.8-47,137.8-16.1,137.8,1.8,137.8,10.1v-5.6l-137.8-18.5-137.8-.6-137.8-11.2-137.8-29.9-137.8-4.5v121.1Z"/>
  </g>
  <g class="cls-73">
    <polyline class="cls-9" points="78.7 120 216.5 122.5 354.2 113.9 492 111.4 629.8 112.7 767.5 126.9"/>
  </g>
  <g class="cls-53">
    <polyline class="cls-7" points="78.7 103.9 216.5 153.1 354.2 123.8 492 116.8 629.8 118.8 767.5 114.2"/>
  </g>
  <g class="cls-82">
    <polyline class="cls-6" points="78.7 177.1 216.5 91.9 354.2 75.8 492 136.2 629.8 127 767.5 120.9"/>
  </g>
  <g class="cls-37">
    <polyline class="cls-10" points="78.7 75.8 216.5 132.8 354.2 114.6 492 128.2 629.8 110 767.5 111"/>
  </g>
  <g class="cls-108">
    <line class="cls-1" x1="-672.1" y1="114.5" x2="1518.4" y2="114.5"/>
  </g>
  <g class="cls-124">
    <path class="cls-12" d="M180,52.6h583.8v-25.9H180v25.9Z"/>
  </g>
  <g class="cls-91">
    <polyline class="cls-8" points="180 52.6 763.8 52.6 763.8 26.6 180 26.6 180 52.6"/>
  </g>
  <g class="cls-36">
    <line class="cls-2" x1="188.1" y1="39.6" x2="236.8" y2="39.6"/>
  </g>
  <g class="cls-41">
    <path class="cls-14" d="M244.9,35.3h5v1h-3.8v2.5h3.4v1h-3.4v4.1h-1.2v-8.6Z"/>
  </g>
  <g class="cls-26">
    <path class="cls-14" d="M258.2,35.9v1.2c-.4-.4-.8-.6-1.3-.8-.4-.2-.9-.3-1.4-.3-1,0-1.7.3-2.3.9-.5.6-.8,1.5-.8,2.6s.3,2,.8,2.6c.5.6,1.3.9,2.3.9s1,0,1.4-.3c.4-.2.9-.5,1.3-.8v1.2c-.4.3-.8.5-1.3.6-.5.1-.9.2-1.4.2-1.3,0-2.3-.4-3.1-1.2-.8-.8-1.1-1.9-1.1-3.3s.4-2.5,1.1-3.3c.8-.8,1.8-1.2,3.1-1.2s1,0,1.5.2c.5.1.9.3,1.3.6Z"/>
  </g>
  <g class="cls-102">
    <path class="cls-14" d="M265.2,35.6v1.1c-.4-.2-.9-.4-1.3-.5s-.8-.2-1.1-.2c-.6,0-1.1.1-1.5.4-.3.2-.5.6-.5,1.1s.1.7.3.9c.2.2.7.3,1.3.5h.7c.9.3,1.5.6,1.9,1,.4.4.6,1,.6,1.7s-.3,1.5-.8,1.9c-.6.4-1.4.6-2.5.6s-.8,0-1.3-.1c-.5,0-.9-.2-1.4-.4v-1.2c.5.3.9.5,1.4.6.5.1.9.2,1.3.2.7,0,1.2-.1,1.5-.4.4-.3.5-.6.5-1.1s-.1-.8-.4-1c-.3-.2-.7-.4-1.3-.5h-.7c-.9-.3-1.5-.6-1.9-1-.4-.4-.6-.9-.6-1.5s.3-1.4.8-1.8c.5-.4,1.3-.7,2.2-.7s.8,0,1.2.1c.4,0,.8.2,1.3.3Z"/>
  </g>
  <g class="cls-94">
    <line class="cls-3" x1="284.1" y1="39.6" x2="332.8" y2="39.6"/>
  </g>
  <g class="cls-114">
    <path class="cls-14" d="M345.6,38.4v-3.5h1.1v9h-1.1v-1c-.2.4-.5.7-.8.9-.3.2-.7.3-1.2.3-.8,0-1.4-.3-1.9-.9-.5-.6-.7-1.4-.7-2.5s.2-1.8.7-2.5c.5-.6,1.1-.9,1.9-.9s.9,0,1.2.3c.3.2.6.5.8.9M342,40.7c0,.8.2,1.4.5,1.8.3.4.8.7,1.3.7s1-.2,1.3-.7c.3-.4.5-1.1.5-1.8s-.2-1.4-.5-1.8c-.3-.4-.8-.7-1.3-.7s-1,.2-1.3.7c-.3.4-.5,1.1-.5,1.8Z"/>
  </g>
  <g class="cls-25">
    <path class="cls-14" d="M349,38.5h7.4v1h-7.4v-1M349,40.9h7.4v1h-7.4v-1Z"/>
  </g>
  <g class="cls-30">
    <path class="cls-14" d="M359,35.3h4.6v1h-3.5v2.1c.2,0,.3-.1.5-.1.2,0,.3,0,.5,0,1,0,1.7.3,2.3.8.6.5.8,1.2.8,2.1,0,.9-.3,1.7-.9,2.2-.6.5-1.4.8-2.4.8s-.7,0-1.1,0c-.4,0-.8-.2-1.2-.3v-1.2c.3.2.7.3,1.1.4.4,0,.8.1,1.2.1.7,0,1.2-.2,1.6-.5.4-.4.6-.8.6-1.4s-.2-1.1-.6-1.4c-.4-.4-.9-.5-1.6-.5s-.6,0-.9.1c-.3,0-.6.2-1,.3v-4.3Z"/>
  </g>
  <g class="cls-72">
    <line class="cls-9" x1="380" y1="39.6" x2="428.7" y2="39.6"/>
  </g>
  <g class="cls-79">
    <path class="cls-14" d="M441.6,38.4v-3.5h1.1v9h-1.1v-1c-.2.4-.5.7-.9.9-.3.2-.7.3-1.2.3-.8,0-1.4-.3-1.9-.9-.5-.6-.7-1.4-.7-2.5s.2-1.8.7-2.5c.5-.6,1.1-.9,1.9-.9s.9,0,1.2.3c.3.2.6.5.9.9M437.9,40.7c0,.8.2,1.4.5,1.8.3.4.8.7,1.3.7s1-.2,1.3-.7c.3-.4.5-1.1.5-1.8,0-.8-.2-1.4-.5-1.8-.3-.4-.8-.7-1.3-.7s-1,.2-1.3.7c-.3.4-.5,1.1-.5,1.8Z"/>
  </g>
  <g class="cls-105">
    <path class="cls-14" d="M445,38.5h7.4v1h-7.4v-1M445,40.9h7.4v1h-7.4v-1Z"/>
  </g>
  <g class="cls-45">
    <path class="cls-14" d="M454.9,43.7v-1.1c.3.1.6.2.9.3.3,0,.6.1.9.1.8,0,1.4-.3,1.8-.8.4-.5.6-1.3.7-2.4-.2.3-.5.6-.9.8-.3.2-.7.3-1.1.3-.9,0-1.5-.3-2.1-.8-.5-.5-.8-1.2-.8-2.1,0-.9.3-1.6.8-2.1.5-.5,1.2-.8,2.1-.8s1.8.4,2.3,1.2c.5.8.8,1.9.8,3.3s-.3,2.4-1,3.3c-.6.8-1.5,1.2-2.6,1.2s-.6,0-.9,0c-.3,0-.6-.1-.9-.3M457.3,40.1c.5,0,.9-.2,1.2-.5.3-.4.5-.9.5-1.5s-.2-1.1-.5-1.5c-.3-.4-.7-.5-1.2-.5s-.9.2-1.2.5c-.3.4-.5.8-.5,1.5s.2,1.1.5,1.5c.3.4.7.5,1.2.5Z"/>
  </g>
  <g class="cls-75">
    <line class="cls-7" x1="476" y1="39.6" x2="524.7" y2="39.6"/>
  </g>
  <g class="cls-113">
    <path class="cls-14" d="M537.5,38.4v-3.5h1.1v9h-1.1v-1c-.2.4-.5.7-.9.9-.3.2-.7.3-1.2.3-.8,0-1.4-.3-1.9-.9-.5-.6-.7-1.4-.7-2.5s.2-1.8.7-2.5c.5-.6,1.1-.9,1.9-.9s.9,0,1.2.3c.3.2.6.5.9.9M533.9,40.7c0,.8.2,1.4.5,1.8.3.4.8.7,1.3.7s1-.2,1.3-.7c.3-.4.5-1.1.5-1.8s-.2-1.4-.5-1.8c-.3-.4-.8-.7-1.3-.7s-1,.2-1.3.7c-.3.4-.5,1.1-.5,1.8Z"/>
  </g>
  <g class="cls-67">
    <path class="cls-14" d="M540.9,38.5h7.4v1h-7.4v-1M540.9,40.9h7.4v1h-7.4v-1Z"/>
  </g>
  <g class="cls-60">
    <path class="cls-14" d="M551.1,42.9h1.9v-6.6l-2.1.4v-1.1l2.1-.4h1.2v7.7h1.9v1h-5v-1Z"/>
  </g>
  <g class="cls-80">
    <path class="cls-14" d="M558.4,35.3h4.6v1h-3.5v2.1c.2,0,.3-.1.5-.1.2,0,.3,0,.5,0,1,0,1.7.3,2.3.8.6.5.8,1.2.8,2.1s-.3,1.7-.9,2.2c-.6.5-1.4.8-2.4.8s-.7,0-1.1,0c-.4,0-.8-.2-1.2-.3v-1.2c.3.2.7.3,1.1.4.4,0,.8.1,1.2.1.7,0,1.2-.2,1.6-.5.4-.4.6-.8.6-1.4s-.2-1.1-.6-1.4c-.4-.4-.9-.5-1.6-.5s-.6,0-.9.1c-.3,0-.6.2-1,.3v-4.3Z"/>
  </g>
  <g class="cls-49">
    <line class="cls-6" x1="571.9" y1="39.6" x2="620.6" y2="39.6"/>
  </g>
  <g class="cls-38">
    <path class="cls-14" d="M633.5,38.4v-3.5h1.1v9h-1.1v-1c-.2.4-.5.7-.9.9-.3.2-.7.3-1.2.3-.8,0-1.4-.3-1.9-.9-.5-.6-.7-1.4-.7-2.5s.2-1.8.7-2.5c.5-.6,1.1-.9,1.9-.9s.9,0,1.2.3c.3.2.6.5.9.9M629.8,40.7c0,.8.2,1.4.5,1.8.3.4.8.7,1.3.7s1-.2,1.3-.7c.3-.4.5-1.1.5-1.8s-.2-1.4-.5-1.8c-.3-.4-.8-.7-1.3-.7s-1,.2-1.3.7c-.3.4-.5,1.1-.5,1.8Z"/>
  </g>
  <g class="cls-125">
    <path class="cls-14" d="M636.9,38.5h7.4v1h-7.4v-1M636.9,40.9h7.4v1h-7.4v-1Z"/>
  </g>
  <g class="cls-46">
    <path class="cls-14" d="M647,42.9h1.9v-6.6l-2.1.4v-1.1l2.1-.4h1.2v7.7h1.9v1h-5v-1Z"/>
  </g>
  <g class="cls-34">
    <path class="cls-14" d="M654.4,43.7v-1.1c.3.1.6.2.9.3.3,0,.6.1.9.1.8,0,1.4-.3,1.8-.8.4-.5.6-1.3.7-2.4-.2.3-.5.6-.8.8-.3.2-.7.3-1.1.3-.9,0-1.5-.3-2.1-.8-.5-.5-.8-1.2-.8-2.1s.3-1.6.8-2.1c.5-.5,1.2-.8,2.1-.8s1.8.4,2.3,1.2c.5.8.8,1.9.8,3.3s-.3,2.4-1,3.3c-.6.8-1.5,1.2-2.6,1.2s-.6,0-.9,0c-.3,0-.6-.1-.9-.3M656.7,40.1c.5,0,.9-.2,1.2-.5.3-.4.5-.9.5-1.5s-.2-1.1-.5-1.5c-.3-.4-.7-.5-1.2-.5s-.9.2-1.2.5c-.3.4-.5.8-.5,1.5s.2,1.1.5,1.5c.3.4.7.5,1.2.5Z"/>
  </g>
  <g class="cls-66">
    <line class="cls-10" x1="667.9" y1="39.6" x2="716.6" y2="39.6"/>
  </g>
  <g class="cls-119">
    <path class="cls-14" d="M729.4,38.4v-3.5h1.1v9h-1.1v-1c-.2.4-.5.7-.8.9-.3.2-.7.3-1.2.3-.8,0-1.4-.3-1.9-.9-.5-.6-.7-1.4-.7-2.5s.2-1.8.7-2.5c.5-.6,1.1-.9,1.9-.9s.9,0,1.2.3c.3.2.6.5.8.9M725.8,40.7c0,.8.2,1.4.5,1.8.3.4.8.7,1.3.7s1-.2,1.3-.7c.3-.4.5-1.1.5-1.8s-.2-1.4-.5-1.8c-.3-.4-.8-.7-1.3-.7s-1,.2-1.3.7c-.3.4-.5,1.1-.5,1.8Z"/>
  </g>
  <g class="cls-54">
    <path class="cls-14" d="M732.8,38.5h7.4v1h-7.4v-1M732.8,40.9h7.4v1h-7.4v-1Z"/>
  </g>
  <g class="cls-35">
    <path class="cls-14" d="M743.8,42.9h4.1v1h-5.5v-1c.4-.5,1-1.1,1.8-1.8.8-.8,1.2-1.3,1.4-1.5.4-.4.6-.8.8-1.1.2-.3.2-.6.2-.9,0-.5-.2-.8-.5-1.1-.3-.3-.7-.4-1.3-.4s-.8,0-1.2.2c-.4.1-.8.3-1.3.6v-1.2c.5-.2.9-.3,1.3-.4.4,0,.8-.1,1.1-.1.9,0,1.6.2,2.1.7.5.4.8,1,.8,1.8,0,.4,0,.7-.2,1-.1.3-.4.7-.7,1.1,0,.1-.4.4-.9,1-.5.5-1.2,1.3-2.2,2.2Z"/>
  </g>
  <g class="cls-71">
    <path class="cls-14" d="M753.8,39.3c.6.1,1,.4,1.3.7.3.4.5.8.5,1.4,0,.9-.3,1.5-.9,2-.6.5-1.4.7-2.5.7s-.7,0-1.1-.1c-.4,0-.8-.2-1.2-.3v-1.1c.3.2.7.3,1.1.4.4,0,.8.1,1.2.1.7,0,1.3-.1,1.7-.4.4-.3.6-.7.6-1.3s-.2-.9-.5-1.2c-.4-.3-.9-.4-1.5-.4h-1v-1h1.1c.6,0,1-.1,1.3-.3.3-.2.5-.6.5-1,0-.4-.2-.8-.5-1-.3-.2-.8-.4-1.3-.4s-.7,0-1,.1-.8.2-1.2.3v-1c.4-.1.9-.2,1.2-.3.4,0,.8,0,1.1,0,.9,0,1.6.2,2.1.6.5.4.8.9.8,1.6s-.1.9-.4,1.2c-.3.3-.7.6-1.2.7Z"/>
  </g>
</svg>